<?xml version="1.0" encoding="UTF-8" standalone="no"?>
<!DOCTYPE svg PUBLIC "-//W3C//DTD SVG 1.1//EN"
 "http://www.w3.org/Graphics/SVG/1.1/DTD/svg11.dtd">
<!-- Generated by graphviz version 2.36.0 (20140111.2315)
 -->
<!-- Title: Button.hpp Pages: 1 -->
<svg width="1023pt" height="588pt"
 viewBox="0.00 0.00 1022.75 588.00" xmlns="http://www.w3.org/2000/svg" xmlns:xlink="http://www.w3.org/1999/xlink">
<g id="graph0" class="graph" transform="scale(1 1) rotate(0) translate(4 584)">
<title>Button.hpp</title>
<polygon fill="white" stroke="none" points="-4,4 -4,-584 1018.75,-584 1018.75,4 -4,4"/>
<!-- Node1 -->
<g id="node1" class="node"><title>Node1</title>
<polygon fill="#bfbfbf" stroke="black" points="599,-560.5 599,-579.5 663,-579.5 663,-560.5 599,-560.5"/>
<text text-anchor="middle" x="631" y="-567.5" font-family="Helvetica,sans-Serif" font-size="10.00">Button.hpp</text>
</g>
<!-- Node2 -->
<g id="node2" class="node"><title>Node2</title>
<g id="a_node2"><a xlink:href="_label_8hpp_source.html" target="_top" xlink:title="Label.hpp">
<polygon fill="white" stroke="black" points="601.5,-504.5 601.5,-523.5 660.5,-523.5 660.5,-504.5 601.5,-504.5"/>
<text text-anchor="middle" x="631" y="-511.5" font-family="Helvetica,sans-Serif" font-size="10.00">Label.hpp</text>
</a>
</g>
</g>
<!-- Node1&#45;&gt;Node2 -->
<g id="edge1" class="edge"><title>Node1&#45;&gt;Node2</title>
<path fill="none" stroke="midnightblue" d="M631,-560.083C631,-553.006 631,-542.861 631,-533.986"/>
<polygon fill="midnightblue" stroke="midnightblue" points="634.5,-533.751 631,-523.751 627.5,-533.751 634.5,-533.751"/>
</g>
<!-- Node3 -->
<g id="node3" class="node"><title>Node3</title>
<g id="a_node3"><a xlink:href="_widget_8hpp_source.html" target="_top" xlink:title="Widget.hpp">
<polygon fill="white" stroke="black" points="522,-448.5 522,-467.5 588,-467.5 588,-448.5 522,-448.5"/>
<text text-anchor="middle" x="555" y="-455.5" font-family="Helvetica,sans-Serif" font-size="10.00">Widget.hpp</text>
</a>
</g>
</g>
<!-- Node2&#45;&gt;Node3 -->
<g id="edge2" class="edge"><title>Node2&#45;&gt;Node3</title>
<path fill="none" stroke="midnightblue" d="M618.789,-504.324C607.224,-496.107 589.625,-483.602 575.839,-473.807"/>
<polygon fill="midnightblue" stroke="midnightblue" points="577.612,-470.773 567.433,-467.834 573.557,-476.479 577.612,-470.773"/>
</g>
<!-- Node31 -->
<g id="node31" class="node"><title>Node31</title>
<g id="a_node31"><a xlink:href="_graphics_text_8hpp.html" target="_top" xlink:title="Classe GraphicsText. ">
<polygon fill="white" stroke="black" points="751,-392.5 751,-411.5 845,-411.5 845,-392.5 751,-392.5"/>
<text text-anchor="middle" x="798" y="-399.5" font-family="Helvetica,sans-Serif" font-size="10.00">GraphicsText.hpp</text>
</a>
</g>
</g>
<!-- Node2&#45;&gt;Node31 -->
<g id="edge48" class="edge"><title>Node2&#45;&gt;Node31</title>
<path fill="none" stroke="midnightblue" d="M644.104,-504.368C672.761,-485.492 741.243,-440.385 776.386,-417.237"/>
<polygon fill="midnightblue" stroke="midnightblue" points="778.531,-420.015 784.957,-411.591 774.68,-414.169 778.531,-420.015"/>
</g>
<!-- Node4 -->
<g id="node4" class="node"><title>Node4</title>
<polygon fill="white" stroke="#bfbfbf" points="441,-336.5 441,-355.5 485,-355.5 485,-336.5 441,-336.5"/>
<text text-anchor="middle" x="463" y="-343.5" font-family="Helvetica,sans-Serif" font-size="10.00">cmath</text>
</g>
<!-- Node3&#45;&gt;Node4 -->
<g id="edge3" class="edge"><title>Node3&#45;&gt;Node4</title>
<path fill="none" stroke="midnightblue" d="M521.714,-454.219C471.431,-449.251 379.845,-436.947 360,-412 337.101,-383.215 392.881,-363.536 430.987,-353.88"/>
<polygon fill="midnightblue" stroke="midnightblue" points="431.811,-357.281 440.71,-351.532 430.168,-350.477 431.811,-357.281"/>
</g>
<!-- Node5 -->
<g id="node5" class="node"><title>Node5</title>
<polygon fill="white" stroke="#bfbfbf" points="369.5,-392.5 369.5,-411.5 496.5,-411.5 496.5,-392.5 369.5,-392.5"/>
<text text-anchor="middle" x="433" y="-399.5" font-family="Helvetica,sans-Serif" font-size="10.00">boost/signals2/signal.hpp</text>
</g>
<!-- Node3&#45;&gt;Node5 -->
<g id="edge4" class="edge"><title>Node3&#45;&gt;Node5</title>
<path fill="none" stroke="midnightblue" d="M535.669,-448.444C515.68,-439.596 484.257,-425.687 461.436,-415.586"/>
<polygon fill="midnightblue" stroke="midnightblue" points="462.802,-412.363 452.241,-411.516 459.968,-418.764 462.802,-412.363"/>
</g>
<!-- Node6 -->
<g id="node6" class="node"><title>Node6</title>
<polygon fill="white" stroke="#bfbfbf" points="515,-392.5 515,-411.5 595,-411.5 595,-392.5 515,-392.5"/>
<text text-anchor="middle" x="555" y="-399.5" font-family="Helvetica,sans-Serif" font-size="10.00">boost/bind.hpp</text>
</g>
<!-- Node3&#45;&gt;Node6 -->
<g id="edge5" class="edge"><title>Node3&#45;&gt;Node6</title>
<path fill="none" stroke="midnightblue" d="M555,-448.083C555,-441.006 555,-430.861 555,-421.986"/>
<polygon fill="midnightblue" stroke="midnightblue" points="558.5,-421.751 555,-411.751 551.5,-421.751 558.5,-421.751"/>
</g>
<!-- Node7 -->
<g id="node7" class="node"><title>Node7</title>
<g id="a_node7"><a xlink:href="_graphics_rectangle_8hpp_source.html" target="_top" xlink:title="GraphicsRectangle.hpp">
<polygon fill="white" stroke="black" points="613.5,-392.5 613.5,-411.5 732.5,-411.5 732.5,-392.5 613.5,-392.5"/>
<text text-anchor="middle" x="673" y="-399.5" font-family="Helvetica,sans-Serif" font-size="10.00">GraphicsRectangle.hpp</text>
</a>
</g>
</g>
<!-- Node3&#45;&gt;Node7 -->
<g id="edge6" class="edge"><title>Node3&#45;&gt;Node7</title>
<path fill="none" stroke="midnightblue" d="M573.697,-448.444C592.944,-439.636 623.152,-425.812 645.2,-415.722"/>
<polygon fill="midnightblue" stroke="midnightblue" points="646.753,-418.86 654.39,-411.516 643.84,-412.495 646.753,-418.86"/>
</g>
<!-- Node7&#45;&gt;Node4 -->
<g id="edge7" class="edge"><title>Node7&#45;&gt;Node4</title>
<path fill="none" stroke="midnightblue" d="M639.725,-392.444C600.019,-382.233 534.101,-365.283 494.977,-355.223"/>
<polygon fill="midnightblue" stroke="midnightblue" points="495.725,-351.801 485.168,-352.7 493.981,-358.581 495.725,-351.801"/>
</g>
<!-- Node8 -->
<g id="node8" class="node"><title>Node8</title>
<g id="a_node8"><a xlink:href="_graphics_item_8hpp.html" target="_top" xlink:title="Classe GraphicsItem. ">
<polygon fill="white" stroke="black" points="626,-336.5 626,-355.5 720,-355.5 720,-336.5 626,-336.5"/>
<text text-anchor="middle" x="673" y="-343.5" font-family="Helvetica,sans-Serif" font-size="10.00">GraphicsItem.hpp</text>
</a>
</g>
</g>
<!-- Node7&#45;&gt;Node8 -->
<g id="edge8" class="edge"><title>Node7&#45;&gt;Node8</title>
<path fill="none" stroke="midnightblue" d="M673,-392.083C673,-385.006 673,-374.861 673,-365.986"/>
<polygon fill="midnightblue" stroke="midnightblue" points="676.5,-365.751 673,-355.751 669.5,-365.751 676.5,-365.751"/>
</g>
<!-- Node9 -->
<g id="node9" class="node"><title>Node9</title>
<polygon fill="white" stroke="#bfbfbf" points="751,-56.5 751,-75.5 795,-75.5 795,-56.5 751,-56.5"/>
<text text-anchor="middle" x="773" y="-63.5" font-family="Helvetica,sans-Serif" font-size="10.00">vector</text>
</g>
<!-- Node8&#45;&gt;Node9 -->
<g id="edge9" class="edge"><title>Node8&#45;&gt;Node9</title>
<path fill="none" stroke="midnightblue" d="M720.077,-344.432C799.084,-342.518 953.686,-334.357 994,-300 1017,-280.395 1014,-265.225 1014,-235 1014,-235 1014,-235 1014,-177 1014,-86.3803 871.24,-70.0918 805.471,-67.3961"/>
<polygon fill="midnightblue" stroke="midnightblue" points="805.35,-63.8903 795.241,-67.0618 805.121,-70.8866 805.35,-63.8903"/>
</g>
<!-- Node10 -->
<g id="node10" class="node"><title>Node10</title>
<polygon fill="white" stroke="#bfbfbf" points="832.5,-280.5 832.5,-299.5 867.5,-299.5 867.5,-280.5 832.5,-280.5"/>
<text text-anchor="middle" x="850" y="-287.5" font-family="Helvetica,sans-Serif" font-size="10.00">map</text>
</g>
<!-- Node8&#45;&gt;Node10 -->
<g id="edge10" class="edge"><title>Node8&#45;&gt;Node10</title>
<path fill="none" stroke="midnightblue" d="M702.398,-336.467C730.805,-328.158 775.268,-314.989 822.769,-300.004"/>
<polygon fill="midnightblue" stroke="midnightblue" points="823.83,-303.339 832.306,-296.983 821.716,-296.666 823.83,-303.339"/>
</g>
<!-- Node11 -->
<g id="node11" class="node"><title>Node11</title>
<polygon fill="white" stroke="#bfbfbf" points="275,-56.5 275,-75.5 327,-75.5 327,-56.5 275,-56.5"/>
<text text-anchor="middle" x="301" y="-63.5" font-family="Helvetica,sans-Serif" font-size="10.00">memory</text>
</g>
<!-- Node8&#45;&gt;Node11 -->
<g id="edge11" class="edge"><title>Node8&#45;&gt;Node11</title>
<path fill="none" stroke="midnightblue" d="M625.882,-341.742C517.086,-333.995 256.67,-314.068 244,-300 212.788,-265.343 285.481,-279.601 307,-244 337.569,-193.426 318.855,-119.022 307.628,-85.0777"/>
<polygon fill="midnightblue" stroke="midnightblue" points="310.909,-83.8554 304.318,-75.5598 304.297,-86.1547 310.909,-83.8554"/>
</g>
<!-- Node12 -->
<g id="node12" class="node"><title>Node12</title>
<polygon fill="white" stroke="#bfbfbf" points="924,-280.5 924,-299.5 986,-299.5 986,-280.5 924,-280.5"/>
<text text-anchor="middle" x="955" y="-287.5" font-family="Helvetica,sans-Serif" font-size="10.00">type_traits</text>
</g>
<!-- Node8&#45;&gt;Node12 -->
<g id="edge12" class="edge"><title>Node8&#45;&gt;Node12</title>
<path fill="none" stroke="midnightblue" d="M718.903,-336.422C766.665,-327.463 843.612,-312.941 910,-300 911.095,-299.787 912.204,-299.57 913.324,-299.35"/>
<polygon fill="midnightblue" stroke="midnightblue" points="914.404,-302.704 923.536,-297.333 913.048,-295.837 914.404,-302.704"/>
</g>
<!-- Node13 -->
<g id="node13" class="node"><title>Node13</title>
<g id="a_node13"><a xlink:href="_color_8hpp.html" target="_top" xlink:title="Classe Color. ">
<polygon fill="white" stroke="black" points="49.5,-112.5 49.5,-131.5 108.5,-131.5 108.5,-112.5 49.5,-112.5"/>
<text text-anchor="middle" x="79" y="-119.5" font-family="Helvetica,sans-Serif" font-size="10.00">Color.hpp</text>
</a>
</g>
</g>
<!-- Node8&#45;&gt;Node13 -->
<g id="edge13" class="edge"><title>Node8&#45;&gt;Node13</title>
<path fill="none" stroke="midnightblue" d="M625.537,-342.174C495.261,-334.282 140.288,-311.813 118,-300 69.6734,-274.385 69.9176,-242.618 67,-188 66.5258,-179.124 65.845,-176.814 67,-168 68.1556,-159.181 70.5337,-149.633 72.8703,-141.61"/>
<polygon fill="midnightblue" stroke="midnightblue" points="76.2852,-142.415 75.9123,-131.827 69.6009,-140.337 76.2852,-142.415"/>
</g>
<!-- Node17 -->
<g id="node17" class="node"><title>Node17</title>
<g id="a_node17"><a xlink:href="_canvas_8hpp_source.html" target="_top" xlink:title="Canvas.hpp">
<polygon fill="white" stroke="black" points="127.5,-280.5 127.5,-299.5 196.5,-299.5 196.5,-280.5 127.5,-280.5"/>
<text text-anchor="middle" x="162" y="-287.5" font-family="Helvetica,sans-Serif" font-size="10.00">Canvas.hpp</text>
</a>
</g>
</g>
<!-- Node8&#45;&gt;Node17 -->
<g id="edge17" class="edge"><title>Node8&#45;&gt;Node17</title>
<path fill="none" stroke="midnightblue" d="M625.955,-341.739C542.246,-335.641 362.034,-321.187 211,-300 209.699,-299.818 208.38,-299.625 207.05,-299.424"/>
<polygon fill="midnightblue" stroke="midnightblue" points="207.17,-295.898 196.74,-297.756 206.052,-302.808 207.17,-295.898"/>
</g>
<!-- Node26 -->
<g id="node26" class="node"><title>Node26</title>
<g id="a_node26"><a xlink:href="_event_8hpp.html" target="_top" xlink:title="Classe Event. ">
<polygon fill="white" stroke="black" points="648.5,-112.5 648.5,-131.5 709.5,-131.5 709.5,-112.5 648.5,-112.5"/>
<text text-anchor="middle" x="679" y="-119.5" font-family="Helvetica,sans-Serif" font-size="10.00">Event.hpp</text>
</a>
</g>
</g>
<!-- Node8&#45;&gt;Node26 -->
<g id="edge41" class="edge"><title>Node8&#45;&gt;Node26</title>
<path fill="none" stroke="midnightblue" d="M720.308,-341.231C774.066,-335.851 856.851,-323.859 876,-300 933.034,-228.938 783.705,-161.826 713.339,-135.134"/>
<polygon fill="midnightblue" stroke="midnightblue" points="714.556,-131.853 703.963,-131.64 712.111,-138.412 714.556,-131.853"/>
</g>
<!-- Node27 -->
<g id="node27" class="node"><title>Node27</title>
<polygon fill="white" stroke="#bfbfbf" points="253.5,-280.5 253.5,-299.5 354.5,-299.5 354.5,-280.5 253.5,-280.5"/>
<text text-anchor="middle" x="304" y="-287.5" font-family="Helvetica,sans-Serif" font-size="10.00">boost/uuid/uuid.hpp</text>
</g>
<!-- Node8&#45;&gt;Node27 -->
<g id="edge44" class="edge"><title>Node8&#45;&gt;Node27</title>
<path fill="none" stroke="midnightblue" d="M625.876,-338.201C567.287,-329.734 463.93,-314.751 364.92,-300.131"/>
<polygon fill="midnightblue" stroke="midnightblue" points="365.141,-296.625 354.737,-298.626 364.118,-303.55 365.141,-296.625"/>
</g>
<!-- Node28 -->
<g id="node28" class="node"><title>Node28</title>
<polygon fill="white" stroke="#bfbfbf" points="373,-280.5 373,-299.5 525,-299.5 525,-280.5 373,-280.5"/>
<text text-anchor="middle" x="449" y="-287.5" font-family="Helvetica,sans-Serif" font-size="10.00">boost/uuid/uuid_generators.hpp</text>
</g>
<!-- Node8&#45;&gt;Node28 -->
<g id="edge45" class="edge"><title>Node8&#45;&gt;Node28</title>
<path fill="none" stroke="midnightblue" d="M637.507,-336.444C598.676,-327.083 536.344,-312.056 494.082,-301.868"/>
<polygon fill="midnightblue" stroke="midnightblue" points="494.869,-298.458 484.327,-299.516 493.229,-305.263 494.869,-298.458"/>
</g>
<!-- Node29 -->
<g id="node29" class="node"><title>Node29</title>
<polygon fill="white" stroke="#bfbfbf" points="543,-280.5 543,-299.5 657,-299.5 657,-280.5 543,-280.5"/>
<text text-anchor="middle" x="600" y="-287.5" font-family="Helvetica,sans-Serif" font-size="10.00">boost/uuid/uuid_io.hpp</text>
</g>
<!-- Node8&#45;&gt;Node29 -->
<g id="edge46" class="edge"><title>Node8&#45;&gt;Node29</title>
<path fill="none" stroke="midnightblue" d="M661.271,-336.324C650.163,-328.107 633.258,-315.602 620.017,-305.807"/>
<polygon fill="midnightblue" stroke="midnightblue" points="622.063,-302.967 611.942,-299.834 617.9,-308.595 622.063,-302.967"/>
</g>
<!-- Node30 -->
<g id="node30" class="node"><title>Node30</title>
<polygon fill="white" stroke="#bfbfbf" points="675.5,-280.5 675.5,-299.5 814.5,-299.5 814.5,-280.5 675.5,-280.5"/>
<text text-anchor="middle" x="745" y="-287.5" font-family="Helvetica,sans-Serif" font-size="10.00">boost/core/noncopyable.hpp</text>
</g>
<!-- Node8&#45;&gt;Node30 -->
<g id="edge47" class="edge"><title>Node8&#45;&gt;Node30</title>
<path fill="none" stroke="midnightblue" d="M684.568,-336.324C695.42,-328.185 711.881,-315.839 724.883,-306.087"/>
<polygon fill="midnightblue" stroke="midnightblue" points="727.321,-308.634 733.221,-299.834 723.121,-303.034 727.321,-308.634"/>
</g>
<!-- Node14 -->
<g id="node14" class="node"><title>Node14</title>
<polygon fill="white" stroke="#bfbfbf" points="59,-56.5 59,-75.5 105,-75.5 105,-56.5 59,-56.5"/>
<text text-anchor="middle" x="82" y="-63.5" font-family="Helvetica,sans-Serif" font-size="10.00">cstdint</text>
</g>
<!-- Node13&#45;&gt;Node14 -->
<g id="edge14" class="edge"><title>Node13&#45;&gt;Node14</title>
<path fill="none" stroke="midnightblue" d="M79.4954,-112.083C79.8886,-105.006 80.4522,-94.8611 80.9452,-85.9865"/>
<polygon fill="midnightblue" stroke="midnightblue" points="84.4536,-85.9299 81.5138,-75.7511 77.4644,-85.5415 84.4536,-85.9299"/>
</g>
<!-- Node15 -->
<g id="node15" class="node"><title>Node15</title>
<polygon fill="white" stroke="#bfbfbf" points="-0.5,-56.5 -0.5,-75.5 40.5,-75.5 40.5,-56.5 -0.5,-56.5"/>
<text text-anchor="middle" x="20" y="-63.5" font-family="Helvetica,sans-Serif" font-size="10.00">string</text>
</g>
<!-- Node13&#45;&gt;Node15 -->
<g id="edge15" class="edge"><title>Node13&#45;&gt;Node15</title>
<path fill="none" stroke="midnightblue" d="M69.5206,-112.324C60.7989,-104.341 47.6565,-92.3128 37.1022,-82.6529"/>
<polygon fill="midnightblue" stroke="midnightblue" points="39.3917,-80.0036 29.6519,-75.8339 34.6655,-85.1674 39.3917,-80.0036"/>
</g>
<!-- Node16 -->
<g id="node16" class="node"><title>Node16</title>
<polygon fill="white" stroke="#bfbfbf" points="123,-56.5 123,-75.5 231,-75.5 231,-56.5 123,-56.5"/>
<text text-anchor="middle" x="177" y="-63.5" font-family="Helvetica,sans-Serif" font-size="10.00">ez&#45;lib/ez&#45;draw++.hpp</text>
</g>
<!-- Node13&#45;&gt;Node16 -->
<g id="edge16" class="edge"><title>Node13&#45;&gt;Node16</title>
<path fill="none" stroke="midnightblue" d="M94.7454,-112.324C110.319,-103.743 134.377,-90.486 152.459,-80.5224"/>
<polygon fill="midnightblue" stroke="midnightblue" points="154.224,-83.546 161.294,-75.6545 150.846,-77.4152 154.224,-83.546"/>
</g>
<!-- Node17&#45;&gt;Node13 -->
<g id="edge20" class="edge"><title>Node17&#45;&gt;Node13</title>
<path fill="none" stroke="midnightblue" d="M134.309,-280.471C116.978,-273.574 95.9298,-261.999 85,-244 65.782,-212.352 70.1574,-167.013 74.7656,-141.777"/>
<polygon fill="midnightblue" stroke="midnightblue" points="78.2481,-142.216 76.8154,-131.719 71.389,-140.818 78.2481,-142.216"/>
</g>
<!-- Node17&#45;&gt;Node16 -->
<g id="edge19" class="edge"><title>Node17&#45;&gt;Node16</title>
<path fill="none" stroke="midnightblue" d="M150.734,-280.427C141.034,-272.275 127.721,-259.046 122,-244 118.841,-235.691 120.509,-232.763 122,-224 130.928,-171.509 155.521,-113.198 168.587,-84.6719"/>
<polygon fill="midnightblue" stroke="midnightblue" points="171.774,-86.1183 172.828,-75.5761 165.43,-83.1599 171.774,-86.1183"/>
</g>
<!-- Node18 -->
<g id="node18" class="node"><title>Node18</title>
<polygon fill="white" stroke="#bfbfbf" points="211,-224.5 211,-243.5 299,-243.5 299,-224.5 211,-224.5"/>
<text text-anchor="middle" x="255" y="-231.5" font-family="Helvetica,sans-Serif" font-size="10.00">boost/locale.hpp</text>
</g>
<!-- Node17&#45;&gt;Node18 -->
<g id="edge18" class="edge"><title>Node17&#45;&gt;Node18</title>
<path fill="none" stroke="midnightblue" d="M176.942,-280.324C191.585,-271.822 214.134,-258.729 231.238,-248.797"/>
<polygon fill="midnightblue" stroke="midnightblue" points="233.205,-251.703 240.095,-243.655 229.69,-245.649 233.205,-251.703"/>
</g>
<!-- Node19 -->
<g id="node19" class="node"><title>Node19</title>
<g id="a_node19"><a xlink:href="_point_8hpp.html" target="_top" xlink:title="Classe point. ">
<polygon fill="white" stroke="black" points="364,-112.5 364,-131.5 422,-131.5 422,-112.5 364,-112.5"/>
<text text-anchor="middle" x="393" y="-119.5" font-family="Helvetica,sans-Serif" font-size="10.00">Point.hpp</text>
</a>
</g>
</g>
<!-- Node17&#45;&gt;Node19 -->
<g id="edge21" class="edge"><title>Node17&#45;&gt;Node19</title>
<path fill="none" stroke="midnightblue" d="M196.754,-284.654C228.035,-279.334 274.021,-267.89 307,-244 344.773,-216.638 372.119,-167.491 384.903,-141.035"/>
<polygon fill="midnightblue" stroke="midnightblue" points="388.154,-142.345 389.215,-131.803 381.812,-139.383 388.154,-142.345"/>
</g>
<!-- Node23 -->
<g id="node23" class="node"><title>Node23</title>
<g id="a_node23"><a xlink:href="_font_8hpp_source.html" target="_top" xlink:title="Font.hpp">
<polygon fill="white" stroke="black" points="924.5,-224.5 924.5,-243.5 979.5,-243.5 979.5,-224.5 924.5,-224.5"/>
<text text-anchor="middle" x="952" y="-231.5" font-family="Helvetica,sans-Serif" font-size="10.00">Font.hpp</text>
</a>
</g>
</g>
<!-- Node17&#45;&gt;Node23 -->
<g id="edge28" class="edge"><title>Node17&#45;&gt;Node23</title>
<path fill="none" stroke="midnightblue" d="M196.678,-284.838C211.273,-283.179 228.448,-281.347 244,-280 499.65,-257.858 808.121,-241.951 914.108,-236.796"/>
<polygon fill="midnightblue" stroke="midnightblue" points="914.482,-240.282 924.301,-236.303 914.144,-233.29 914.482,-240.282"/>
</g>
<!-- Node24 -->
<g id="node24" class="node"><title>Node24</title>
<g id="a_node24"><a xlink:href="_image_8hpp.html" target="_top" xlink:title="Classe Image. ">
<polygon fill="white" stroke="black" points="131,-224.5 131,-243.5 193,-243.5 193,-224.5 131,-224.5"/>
<text text-anchor="middle" x="162" y="-231.5" font-family="Helvetica,sans-Serif" font-size="10.00">Image.hpp</text>
</a>
</g>
</g>
<!-- Node17&#45;&gt;Node24 -->
<g id="edge30" class="edge"><title>Node17&#45;&gt;Node24</title>
<path fill="none" stroke="midnightblue" d="M162,-280.083C162,-273.006 162,-262.861 162,-253.986"/>
<polygon fill="midnightblue" stroke="midnightblue" points="165.5,-253.751 162,-243.751 158.5,-253.751 165.5,-253.751"/>
</g>
<!-- Node19&#45;&gt;Node9 -->
<g id="edge23" class="edge"><title>Node19&#45;&gt;Node9</title>
<path fill="none" stroke="midnightblue" d="M422.324,-117.053C478.938,-109.399 607.224,-91.8919 715,-76 723.457,-74.753 732.6,-73.3568 741.07,-72.0431"/>
<polygon fill="midnightblue" stroke="midnightblue" points="741.638,-75.497 750.979,-70.4972 740.559,-68.5807 741.638,-75.497"/>
</g>
<!-- Node19&#45;&gt;Node11 -->
<g id="edge24" class="edge"><title>Node19&#45;&gt;Node11</title>
<path fill="none" stroke="midnightblue" d="M378.219,-112.324C363.733,-103.822 341.427,-90.7288 324.507,-80.7975"/>
<polygon fill="midnightblue" stroke="midnightblue" points="326.141,-77.6981 315.745,-75.6545 322.597,-83.735 326.141,-77.6981"/>
</g>
<!-- Node20 -->
<g id="node20" class="node"><title>Node20</title>
<polygon fill="white" stroke="#bfbfbf" points="652,-56.5 652,-75.5 706,-75.5 706,-56.5 652,-56.5"/>
<text text-anchor="middle" x="679" y="-63.5" font-family="Helvetica,sans-Serif" font-size="10.00">iostream</text>
</g>
<!-- Node19&#45;&gt;Node20 -->
<g id="edge22" class="edge"><title>Node19&#45;&gt;Node20</title>
<path fill="none" stroke="midnightblue" d="M422.263,-115.475C474.533,-105.606 583.856,-84.9642 641.531,-74.0746"/>
<polygon fill="midnightblue" stroke="midnightblue" points="642.496,-77.4542 651.673,-72.1596 641.198,-70.5758 642.496,-77.4542"/>
</g>
<!-- Node21 -->
<g id="node21" class="node"><title>Node21</title>
<g id="a_node21"><a xlink:href="_group_points_8hpp_source.html" target="_top" xlink:title="GroupPoints.hpp">
<polygon fill="white" stroke="black" points="348.5,-56.5 348.5,-75.5 437.5,-75.5 437.5,-56.5 348.5,-56.5"/>
<text text-anchor="middle" x="393" y="-63.5" font-family="Helvetica,sans-Serif" font-size="10.00">GroupPoints.hpp</text>
</a>
</g>
</g>
<!-- Node19&#45;&gt;Node21 -->
<g id="edge25" class="edge"><title>Node19&#45;&gt;Node21</title>
<path fill="none" stroke="midnightblue" d="M387.834,-112.083C386.324,-104.927 385.894,-94.6353 386.542,-85.6911"/>
<polygon fill="midnightblue" stroke="midnightblue" points="390.015,-86.1262 387.869,-75.7511 383.077,-85.2002 390.015,-86.1262"/>
</g>
<!-- Node21&#45;&gt;Node19 -->
<g id="edge27" class="edge"><title>Node21&#45;&gt;Node19</title>
<path fill="none" stroke="midnightblue" d="M398.131,-75.7511C399.657,-82.8579 400.104,-93.1357 399.472,-102.101"/>
<polygon fill="midnightblue" stroke="midnightblue" points="395.993,-101.713 398.166,-112.083 402.934,-102.622 395.993,-101.713"/>
</g>
<!-- Node22 -->
<g id="node22" class="node"><title>Node22</title>
<polygon fill="white" stroke="#bfbfbf" points="363.5,-0.5 363.5,-19.5 422.5,-19.5 422.5,-0.5 363.5,-0.5"/>
<text text-anchor="middle" x="393" y="-7.5" font-family="Helvetica,sans-Serif" font-size="10.00">functional</text>
</g>
<!-- Node21&#45;&gt;Node22 -->
<g id="edge26" class="edge"><title>Node21&#45;&gt;Node22</title>
<path fill="none" stroke="midnightblue" d="M393,-56.083C393,-49.0059 393,-38.8611 393,-29.9865"/>
<polygon fill="midnightblue" stroke="midnightblue" points="396.5,-29.751 393,-19.7511 389.5,-29.7511 396.5,-29.751"/>
</g>
<!-- Node23&#45;&gt;Node20 -->
<g id="edge29" class="edge"><title>Node23&#45;&gt;Node20</title>
<path fill="none" stroke="midnightblue" d="M948.371,-224.267C942.291,-210.587 928.834,-184.014 910,-168 851.629,-118.368 765.078,-89.3878 716.177,-76.0223"/>
<polygon fill="midnightblue" stroke="midnightblue" points="716.901,-72.5932 706.337,-73.4054 715.101,-79.3581 716.901,-72.5932"/>
</g>
<!-- Node24&#45;&gt;Node11 -->
<g id="edge32" class="edge"><title>Node24&#45;&gt;Node11</title>
<path fill="none" stroke="midnightblue" d="M189.58,-224.49C217.544,-215.34 258.191,-200.433 269,-188 294.334,-158.859 299.916,-111.871 300.96,-85.8546"/>
<polygon fill="midnightblue" stroke="midnightblue" points="304.46,-85.8809 301.175,-75.8083 297.462,-85.7311 304.46,-85.8809"/>
</g>
<!-- Node24&#45;&gt;Node13 -->
<g id="edge35" class="edge"><title>Node24&#45;&gt;Node13</title>
<path fill="none" stroke="midnightblue" d="M155.487,-224.368C141.729,-206.135 109.503,-163.426 91.5822,-139.675"/>
<polygon fill="midnightblue" stroke="midnightblue" points="94.2998,-137.466 85.4826,-131.591 88.712,-141.682 94.2998,-137.466"/>
</g>
<!-- Node24&#45;&gt;Node15 -->
<g id="edge33" class="edge"><title>Node24&#45;&gt;Node15</title>
<path fill="none" stroke="midnightblue" d="M146.413,-224.262C120.493,-208.941 68.5605,-174.758 40,-132 30.6753,-118.04 25.539,-99.5354 22.8151,-85.841"/>
<polygon fill="midnightblue" stroke="midnightblue" points="26.2097,-84.931 21.0554,-75.6745 19.3123,-86.125 26.2097,-84.931"/>
</g>
<!-- Node24&#45;&gt;Node16 -->
<g id="edge31" class="edge"><title>Node24&#45;&gt;Node16</title>
<path fill="none" stroke="midnightblue" d="M162.806,-224.075C165.168,-197.945 172.101,-121.211 175.321,-85.577"/>
<polygon fill="midnightblue" stroke="midnightblue" points="178.812,-85.8425 176.226,-75.5681 171.84,-85.2125 178.812,-85.8425"/>
</g>
<!-- Node24&#45;&gt;Node19 -->
<g id="edge34" class="edge"><title>Node24&#45;&gt;Node19</title>
<path fill="none" stroke="midnightblue" d="M193.072,-226.099C222.396,-218.897 267.096,-206.112 303,-188 330.211,-174.273 358.144,-152.705 375.525,-138.219"/>
<polygon fill="midnightblue" stroke="midnightblue" points="377.799,-140.88 383.161,-131.742 373.271,-135.542 377.799,-140.88"/>
</g>
<!-- Node25 -->
<g id="node25" class="node"><title>Node25</title>
<g id="a_node25"><a xlink:href="_pixel_8hpp.html" target="_top" xlink:title="Classe Pixel. ">
<polygon fill="white" stroke="black" points="203.5,-168.5 203.5,-187.5 260.5,-187.5 260.5,-168.5 203.5,-168.5"/>
<text text-anchor="middle" x="232" y="-175.5" font-family="Helvetica,sans-Serif" font-size="10.00">Pixel.hpp</text>
</a>
</g>
</g>
<!-- Node24&#45;&gt;Node25 -->
<g id="edge36" class="edge"><title>Node24&#45;&gt;Node25</title>
<path fill="none" stroke="midnightblue" d="M173.247,-224.324C183.797,-216.185 199.801,-203.839 212.442,-194.087"/>
<polygon fill="midnightblue" stroke="midnightblue" points="214.769,-196.713 220.549,-187.834 210.493,-191.171 214.769,-196.713"/>
</g>
<!-- Node25&#45;&gt;Node11 -->
<g id="edge38" class="edge"><title>Node25&#45;&gt;Node11</title>
<path fill="none" stroke="midnightblue" d="M237.414,-168.368C248.751,-150.296 275.171,-108.176 290.144,-84.3074"/>
<polygon fill="midnightblue" stroke="midnightblue" points="293.262,-85.9226 295.611,-75.5914 287.332,-82.2029 293.262,-85.9226"/>
</g>
<!-- Node25&#45;&gt;Node13 -->
<g id="edge40" class="edge"><title>Node25&#45;&gt;Node13</title>
<path fill="none" stroke="midnightblue" d="M207.757,-168.444C182.129,-159.399 141.515,-145.064 112.762,-134.916"/>
<polygon fill="midnightblue" stroke="midnightblue" points="113.725,-131.544 103.13,-131.516 111.395,-138.145 113.725,-131.544"/>
</g>
<!-- Node25&#45;&gt;Node16 -->
<g id="edge37" class="edge"><title>Node25&#45;&gt;Node16</title>
<path fill="none" stroke="midnightblue" d="M227.684,-168.368C218.688,-150.376 197.775,-108.55 185.813,-84.6267"/>
<polygon fill="midnightblue" stroke="midnightblue" points="188.898,-82.9704 181.296,-75.5914 182.637,-86.101 188.898,-82.9704"/>
</g>
<!-- Node25&#45;&gt;Node19 -->
<g id="edge39" class="edge"><title>Node25&#45;&gt;Node19</title>
<path fill="none" stroke="midnightblue" d="M257.511,-168.444C284.596,-159.359 327.59,-144.939 357.869,-134.783"/>
<polygon fill="midnightblue" stroke="midnightblue" points="359.24,-138.015 367.608,-131.516 357.014,-131.378 359.24,-138.015"/>
</g>
<!-- Node26&#45;&gt;Node16 -->
<g id="edge43" class="edge"><title>Node26&#45;&gt;Node16</title>
<path fill="none" stroke="midnightblue" d="M648.353,-117.703C568.133,-109.074 350.655,-85.68 241.426,-73.9303"/>
<polygon fill="midnightblue" stroke="midnightblue" points="241.519,-70.4201 231.202,-72.8305 240.77,-77.38 241.519,-70.4201"/>
</g>
<!-- Node26&#45;&gt;Node20 -->
<g id="edge42" class="edge"><title>Node26&#45;&gt;Node20</title>
<path fill="none" stroke="midnightblue" d="M679,-112.083C679,-105.006 679,-94.8611 679,-85.9865"/>
<polygon fill="midnightblue" stroke="midnightblue" points="682.5,-85.751 679,-75.7511 675.5,-85.7511 682.5,-85.751"/>
</g>
<!-- Node31&#45;&gt;Node8 -->
<g id="edge49" class="edge"><title>Node31&#45;&gt;Node8</title>
<path fill="none" stroke="midnightblue" d="M778.193,-392.444C757.713,-383.596 725.517,-369.687 702.135,-359.586"/>
<polygon fill="midnightblue" stroke="midnightblue" points="703.282,-356.269 692.714,-355.516 700.506,-362.695 703.282,-356.269"/>
</g>
<!-- Node31&#45;&gt;Node23 -->
<g id="edge50" class="edge"><title>Node31&#45;&gt;Node23</title>
<path fill="none" stroke="midnightblue" d="M841.377,-392.445C888.33,-380.617 960.922,-354.257 994,-300 1004.56,-282.674 988.044,-263.168 972.721,-250.084"/>
<polygon fill="midnightblue" stroke="midnightblue" points="974.51,-247.034 964.511,-243.531 970.143,-252.505 974.51,-247.034"/>
</g>
</g>
</svg>
