<?xml version="1.0" encoding="UTF-8" standalone="no"?>
<!DOCTYPE svg PUBLIC "-//W3C//DTD SVG 1.1//EN"
 "http://www.w3.org/Graphics/SVG/1.1/DTD/svg11.dtd">
<!-- Generated by graphviz version 2.36.0 (20140111.2315)
 -->
<!-- Title: Button.hpp Pages: 1 -->
<!--zoomable 476 -->
<svg id="main" version="1.1" xmlns="http://www.w3.org/2000/svg" xmlns:xlink="http://www.w3.org/1999/xlink" xml:space="preserve" onload="init(evt)">
<style type="text/css"><![CDATA[
.edge:hover path { stroke: red; }
.edge:hover polygon { stroke: red; fill: red; }
]]></style>
<script type="text/javascript"><![CDATA[
var edges = document.getElementsByTagName('g');
if (edges && edges.length) {
  for (var i=0;i<edges.length;i++) {
    if (edges[i].id.substr(0,4)=='edge') {
      edges[i].setAttribute('class','edge');
    }
  }
}
]]></script>
        <defs>
                <circle id="rim" cx="0" cy="0" r="7"/>
                <circle id="rim2" cx="0" cy="0" r="3.5"/>
                <g id="zoomPlus">
                        <use xlink:href="#rim" fill="#404040">
                                <set attributeName="fill" to="#808080" begin="zoomplus.mouseover" end="zoomplus.mouseout"/>
                        </use>
                        <path d="M-4,0h8M0,-4v8" fill="none" stroke="white" stroke-width="1.5" pointer-events="none"/>
                </g>
                <g id="zoomMin">
                        <use xlink:href="#rim" fill="#404040">
                                <set attributeName="fill" to="#808080" begin="zoomminus.mouseover" end="zoomminus.mouseout"/>
                        </use>
                        <path d="M-4,0h8" fill="none" stroke="white" stroke-width="1.5" pointer-events="none"/>
                </g>
                <g id="dirArrow">
                        <path fill="none" stroke="white" stroke-width="1.5" d="M0,-3.0v7 M-2.5,-0.5L0,-3.0L2.5,-0.5"/>
                </g>
               <g id="resetDef">
                       <use xlink:href="#rim2" fill="#404040">
                               <set attributeName="fill" to="#808080" begin="reset.mouseover" end="reset.mouseout"/>
                       </use>
               </g>
        </defs>

<script type="text/javascript">
var viewWidth = 638;
var viewHeight = 476;
var sectionId = 'dynsection-0';
</script>
<script xlink:href="svgpan.js"/>
<svg id="graph" class="graph">
<g id="viewport">
<title>Button.hpp</title>
<polygon fill="white" stroke="none" points="-4,4 -4,-472 633.679,-472 633.679,4 -4,4"/>
<!-- Node1 -->
<g id="node1" class="node"><title>Node1</title>
<polygon fill="#bfbfbf" stroke="black" points="244.679,-448.5 244.679,-467.5 308.679,-467.5 308.679,-448.5 244.679,-448.5"/>
<text text-anchor="middle" x="276.679" y="-455.5" font-family="Helvetica,sans-Serif" font-size="10.00">Button.hpp</text>
</g>
<!-- Node2 -->
<g id="node2" class="node"><title>Node2</title>
<g id="a_node2"><a xlink:href="_label_8hpp_source.html" target="_top" xlink:title="Label.hpp">
<polygon fill="white" stroke="black" points="247.179,-392.5 247.179,-411.5 306.179,-411.5 306.179,-392.5 247.179,-392.5"/>
<text text-anchor="middle" x="276.679" y="-399.5" font-family="Helvetica,sans-Serif" font-size="10.00">Label.hpp</text>
</a>
</g>
</g>
<!-- Node1&#45;&gt;Node2 -->
<g id="edge1" class="edge"><title>Node1&#45;&gt;Node2</title>
<path fill="none" stroke="midnightblue" d="M276.679,-448.083C276.679,-441.006 276.679,-430.861 276.679,-421.986"/>
<polygon fill="midnightblue" stroke="midnightblue" points="280.179,-421.751 276.679,-411.751 273.179,-421.751 280.179,-421.751"/>
</g>
<!-- Node3 -->
<g id="node3" class="node"><title>Node3</title>
<g id="a_node3"><a xlink:href="_widget_8hpp_source.html" target="_top" xlink:title="Widget.hpp">
<polygon fill="white" stroke="black" points="167.679,-336.5 167.679,-355.5 233.679,-355.5 233.679,-336.5 167.679,-336.5"/>
<text text-anchor="middle" x="200.679" y="-343.5" font-family="Helvetica,sans-Serif" font-size="10.00">Widget.hpp</text>
</a>
</g>
</g>
<!-- Node2&#45;&gt;Node3 -->
<g id="edge2" class="edge"><title>Node2&#45;&gt;Node3</title>
<path fill="none" stroke="midnightblue" d="M264.468,-392.324C252.903,-384.107 235.304,-371.602 221.518,-361.807"/>
<polygon fill="midnightblue" stroke="midnightblue" points="223.291,-358.773 213.112,-355.834 219.237,-364.479 223.291,-358.773"/>
</g>
<!-- Node23 -->
<g id="node23" class="node"><title>Node23</title>
<g id="a_node23"><a xlink:href="_graphics_text_8hpp.html" target="_top" xlink:title="Classe GraphicsText. ">
<polygon fill="white" stroke="black" points="396.679,-280.5 396.679,-299.5 490.679,-299.5 490.679,-280.5 396.679,-280.5"/>
<text text-anchor="middle" x="443.679" y="-287.5" font-family="Helvetica,sans-Serif" font-size="10.00">GraphicsText.hpp</text>
</a>
</g>
</g>
<!-- Node2&#45;&gt;Node23 -->
<g id="edge30" class="edge"><title>Node2&#45;&gt;Node23</title>
<path fill="none" stroke="midnightblue" d="M289.783,-392.368C318.441,-373.492 386.922,-328.385 422.065,-305.237"/>
<polygon fill="midnightblue" stroke="midnightblue" points="424.21,-308.015 430.636,-299.591 420.359,-302.169 424.21,-308.015"/>
</g>
<!-- Node4 -->
<g id="node4" class="node"><title>Node4</title>
<polygon fill="white" stroke="#bfbfbf" points="86.6791,-224.5 86.6791,-243.5 130.679,-243.5 130.679,-224.5 86.6791,-224.5"/>
<text text-anchor="middle" x="108.679" y="-231.5" font-family="Helvetica,sans-Serif" font-size="10.00">cmath</text>
</g>
<!-- Node3&#45;&gt;Node4 -->
<g id="edge3" class="edge"><title>Node3&#45;&gt;Node4</title>
<path fill="none" stroke="midnightblue" d="M167.393,-342.219C117.11,-337.251 25.5245,-324.947 5.67912,-300 -17.22,-271.215 38.5602,-251.536 76.666,-241.88"/>
<polygon fill="midnightblue" stroke="midnightblue" points="77.4904,-245.281 86.3894,-239.532 75.8472,-238.477 77.4904,-245.281"/>
</g>
<!-- Node5 -->
<g id="node5" class="node"><title>Node5</title>
<polygon fill="white" stroke="#bfbfbf" points="15.1791,-280.5 15.1791,-299.5 142.179,-299.5 142.179,-280.5 15.1791,-280.5"/>
<text text-anchor="middle" x="78.6791" y="-287.5" font-family="Helvetica,sans-Serif" font-size="10.00">boost/signals2/signal.hpp</text>
</g>
<!-- Node3&#45;&gt;Node5 -->
<g id="edge4" class="edge"><title>Node3&#45;&gt;Node5</title>
<path fill="none" stroke="midnightblue" d="M181.348,-336.444C161.359,-327.596 129.936,-313.687 107.115,-303.586"/>
<polygon fill="midnightblue" stroke="midnightblue" points="108.481,-300.363 97.9199,-299.516 105.648,-306.764 108.481,-300.363"/>
</g>
<!-- Node6 -->
<g id="node6" class="node"><title>Node6</title>
<polygon fill="white" stroke="#bfbfbf" points="160.679,-280.5 160.679,-299.5 240.679,-299.5 240.679,-280.5 160.679,-280.5"/>
<text text-anchor="middle" x="200.679" y="-287.5" font-family="Helvetica,sans-Serif" font-size="10.00">boost/bind.hpp</text>
</g>
<!-- Node3&#45;&gt;Node6 -->
<g id="edge5" class="edge"><title>Node3&#45;&gt;Node6</title>
<path fill="none" stroke="midnightblue" d="M200.679,-336.083C200.679,-329.006 200.679,-318.861 200.679,-309.986"/>
<polygon fill="midnightblue" stroke="midnightblue" points="204.179,-309.751 200.679,-299.751 197.179,-309.751 204.179,-309.751"/>
</g>
<!-- Node7 -->
<g id="node7" class="node"><title>Node7</title>
<g id="a_node7"><a xlink:href="_graphics_rectangle_8hpp_source.html" target="_top" xlink:title="GraphicsRectangle.hpp">
<polygon fill="white" stroke="black" points="259.179,-280.5 259.179,-299.5 378.179,-299.5 378.179,-280.5 259.179,-280.5"/>
<text text-anchor="middle" x="318.679" y="-287.5" font-family="Helvetica,sans-Serif" font-size="10.00">GraphicsRectangle.hpp</text>
</a>
</g>
</g>
<!-- Node3&#45;&gt;Node7 -->
<g id="edge6" class="edge"><title>Node3&#45;&gt;Node7</title>
<path fill="none" stroke="midnightblue" d="M219.377,-336.444C238.624,-327.636 268.832,-313.812 290.879,-303.722"/>
<polygon fill="midnightblue" stroke="midnightblue" points="292.433,-306.86 300.069,-299.516 289.52,-300.495 292.433,-306.86"/>
</g>
<!-- Node7&#45;&gt;Node4 -->
<g id="edge7" class="edge"><title>Node7&#45;&gt;Node4</title>
<path fill="none" stroke="midnightblue" d="M285.404,-280.444C245.698,-270.233 179.78,-253.283 140.656,-243.223"/>
<polygon fill="midnightblue" stroke="midnightblue" points="141.404,-239.801 130.847,-240.7 139.66,-246.581 141.404,-239.801"/>
</g>
<!-- Node8 -->
<g id="node8" class="node"><title>Node8</title>
<g id="a_node8"><a xlink:href="_graphics_item_8hpp.html" target="_top" xlink:title="Classe GraphicsItem. ">
<polygon fill="white" stroke="black" points="271.679,-224.5 271.679,-243.5 365.679,-243.5 365.679,-224.5 271.679,-224.5"/>
<text text-anchor="middle" x="318.679" y="-231.5" font-family="Helvetica,sans-Serif" font-size="10.00">GraphicsItem.hpp</text>
</a>
</g>
</g>
<!-- Node7&#45;&gt;Node8 -->
<g id="edge8" class="edge"><title>Node7&#45;&gt;Node8</title>
<path fill="none" stroke="midnightblue" d="M318.679,-280.083C318.679,-273.006 318.679,-262.861 318.679,-253.986"/>
<polygon fill="midnightblue" stroke="midnightblue" points="322.179,-253.751 318.679,-243.751 315.179,-253.751 322.179,-253.751"/>
</g>
<!-- Node9 -->
<g id="node9" class="node"><title>Node9</title>
<polygon fill="white" stroke="#bfbfbf" points="168.679,-56.5 168.679,-75.5 212.679,-75.5 212.679,-56.5 168.679,-56.5"/>
<text text-anchor="middle" x="190.679" y="-63.5" font-family="Helvetica,sans-Serif" font-size="10.00">vector</text>
</g>
<!-- Node8&#45;&gt;Node9 -->
<g id="edge9" class="edge"><title>Node8&#45;&gt;Node9</title>
<path fill="none" stroke="midnightblue" d="M271.521,-225.737C230.582,-218.354 175.855,-205.513 162.679,-188 139.231,-156.832 162.9,-109.297 178.807,-84.0865"/>
<polygon fill="midnightblue" stroke="midnightblue" points="181.822,-85.8723 184.409,-75.5983 175.98,-82.0165 181.822,-85.8723"/>
</g>
<!-- Node10 -->
<g id="node10" class="node"><title>Node10</title>
<polygon fill="white" stroke="#bfbfbf" points="171.679,-168.5 171.679,-187.5 201.679,-187.5 201.679,-168.5 171.679,-168.5"/>
<text text-anchor="middle" x="186.679" y="-175.5" font-family="Helvetica,sans-Serif" font-size="10.00">set</text>
</g>
<!-- Node8&#45;&gt;Node10 -->
<g id="edge10" class="edge"><title>Node8&#45;&gt;Node10</title>
<path fill="none" stroke="midnightblue" d="M297.763,-224.444C274.251,-214.825 236.115,-199.224 211.215,-189.037"/>
<polygon fill="midnightblue" stroke="midnightblue" points="212.33,-185.712 201.749,-185.165 209.679,-192.191 212.33,-185.712"/>
</g>
<!-- Node11 -->
<g id="node11" class="node"><title>Node11</title>
<polygon fill="white" stroke="#bfbfbf" points="325.679,-56.5 325.679,-75.5 377.679,-75.5 377.679,-56.5 325.679,-56.5"/>
<text text-anchor="middle" x="351.679" y="-63.5" font-family="Helvetica,sans-Serif" font-size="10.00">memory</text>
</g>
<!-- Node8&#45;&gt;Node11 -->
<g id="edge11" class="edge"><title>Node8&#45;&gt;Node11</title>
<path fill="none" stroke="midnightblue" d="M302.746,-224.4C268.62,-204.862 193.978,-155.45 224.679,-112 245.086,-83.1194 285.679,-72.6559 315.501,-68.9291"/>
<polygon fill="midnightblue" stroke="midnightblue" points="315.97,-72.3992 325.55,-67.8728 315.238,-65.4376 315.97,-72.3992"/>
</g>
<!-- Node12 -->
<g id="node12" class="node"><title>Node12</title>
<g id="a_node12"><a xlink:href="_color_8hpp.html" target="_top" xlink:title="Classe Color. ">
<polygon fill="white" stroke="black" points="289.179,-168.5 289.179,-187.5 348.179,-187.5 348.179,-168.5 289.179,-168.5"/>
<text text-anchor="middle" x="318.679" y="-175.5" font-family="Helvetica,sans-Serif" font-size="10.00">Color.hpp</text>
</a>
</g>
</g>
<!-- Node8&#45;&gt;Node12 -->
<g id="edge12" class="edge"><title>Node8&#45;&gt;Node12</title>
<path fill="none" stroke="midnightblue" d="M318.679,-224.083C318.679,-217.006 318.679,-206.861 318.679,-197.986"/>
<polygon fill="midnightblue" stroke="midnightblue" points="322.179,-197.751 318.679,-187.751 315.179,-197.751 322.179,-197.751"/>
</g>
<!-- Node16 -->
<g id="node16" class="node"><title>Node16</title>
<g id="a_node16"><a xlink:href="_canvas_8hpp_source.html" target="_top" xlink:title="Canvas.hpp">
<polygon fill="white" stroke="black" points="377.179,-168.5 377.179,-187.5 446.179,-187.5 446.179,-168.5 377.179,-168.5"/>
<text text-anchor="middle" x="411.679" y="-175.5" font-family="Helvetica,sans-Serif" font-size="10.00">Canvas.hpp</text>
</a>
</g>
</g>
<!-- Node8&#45;&gt;Node16 -->
<g id="edge16" class="edge"><title>Node8&#45;&gt;Node16</title>
<path fill="none" stroke="midnightblue" d="M333.621,-224.324C348.264,-215.822 370.813,-202.729 387.917,-192.797"/>
<polygon fill="midnightblue" stroke="midnightblue" points="389.884,-195.703 396.774,-187.655 386.369,-189.649 389.884,-195.703"/>
</g>
<!-- Node22 -->
<g id="node22" class="node"><title>Node22</title>
<g id="a_node22"><a xlink:href="_event_8hpp.html" target="_top" xlink:title="Classe Event. ">
<polygon fill="white" stroke="black" points="464.179,-168.5 464.179,-187.5 525.179,-187.5 525.179,-168.5 464.179,-168.5"/>
<text text-anchor="middle" x="494.679" y="-175.5" font-family="Helvetica,sans-Serif" font-size="10.00">Event.hpp</text>
</a>
</g>
</g>
<!-- Node8&#45;&gt;Node22 -->
<g id="edge27" class="edge"><title>Node8&#45;&gt;Node22</title>
<path fill="none" stroke="midnightblue" d="M346.567,-224.444C376.433,-215.28 423.994,-200.688 457.135,-190.519"/>
<polygon fill="midnightblue" stroke="midnightblue" points="458.388,-193.796 466.922,-187.516 456.335,-187.104 458.388,-193.796"/>
</g>
<!-- Node13 -->
<g id="node13" class="node"><title>Node13</title>
<polygon fill="white" stroke="#bfbfbf" points="233.679,-112.5 233.679,-131.5 279.679,-131.5 279.679,-112.5 233.679,-112.5"/>
<text text-anchor="middle" x="256.679" y="-119.5" font-family="Helvetica,sans-Serif" font-size="10.00">cstdint</text>
</g>
<!-- Node12&#45;&gt;Node13 -->
<g id="edge13" class="edge"><title>Node12&#45;&gt;Node13</title>
<path fill="none" stroke="midnightblue" d="M308.718,-168.324C299.553,-160.341 285.742,-148.313 274.651,-138.653"/>
<polygon fill="midnightblue" stroke="midnightblue" points="276.661,-135.762 266.822,-131.834 272.064,-141.041 276.661,-135.762"/>
</g>
<!-- Node14 -->
<g id="node14" class="node"><title>Node14</title>
<polygon fill="white" stroke="#bfbfbf" points="298.179,-112.5 298.179,-131.5 339.179,-131.5 339.179,-112.5 298.179,-112.5"/>
<text text-anchor="middle" x="318.679" y="-119.5" font-family="Helvetica,sans-Serif" font-size="10.00">string</text>
</g>
<!-- Node12&#45;&gt;Node14 -->
<g id="edge14" class="edge"><title>Node12&#45;&gt;Node14</title>
<path fill="none" stroke="midnightblue" d="M318.679,-168.083C318.679,-161.006 318.679,-150.861 318.679,-141.986"/>
<polygon fill="midnightblue" stroke="midnightblue" points="322.179,-141.751 318.679,-131.751 315.179,-141.751 322.179,-141.751"/>
</g>
<!-- Node15 -->
<g id="node15" class="node"><title>Node15</title>
<polygon fill="white" stroke="#bfbfbf" points="357.679,-112.5 357.679,-131.5 465.679,-131.5 465.679,-112.5 357.679,-112.5"/>
<text text-anchor="middle" x="411.679" y="-119.5" font-family="Helvetica,sans-Serif" font-size="10.00">ez&#45;lib/ez&#45;draw++.hpp</text>
</g>
<!-- Node12&#45;&gt;Node15 -->
<g id="edge15" class="edge"><title>Node12&#45;&gt;Node15</title>
<path fill="none" stroke="midnightblue" d="M333.621,-168.324C348.264,-159.822 370.813,-146.729 387.917,-136.797"/>
<polygon fill="midnightblue" stroke="midnightblue" points="389.884,-139.703 396.774,-131.655 386.369,-133.649 389.884,-139.703"/>
</g>
<!-- Node16&#45;&gt;Node15 -->
<g id="edge17" class="edge"><title>Node16&#45;&gt;Node15</title>
<path fill="none" stroke="midnightblue" d="M411.679,-168.083C411.679,-161.006 411.679,-150.861 411.679,-141.986"/>
<polygon fill="midnightblue" stroke="midnightblue" points="415.179,-141.751 411.679,-131.751 408.179,-141.751 415.179,-141.751"/>
</g>
<!-- Node17 -->
<g id="node17" class="node"><title>Node17</title>
<g id="a_node17"><a xlink:href="_point_8hpp.html" target="_top" xlink:title="Classe point. ">
<polygon fill="white" stroke="black" points="483.679,-112.5 483.679,-131.5 541.679,-131.5 541.679,-112.5 483.679,-112.5"/>
<text text-anchor="middle" x="512.679" y="-119.5" font-family="Helvetica,sans-Serif" font-size="10.00">Point.hpp</text>
</a>
</g>
</g>
<!-- Node16&#45;&gt;Node17 -->
<g id="edge18" class="edge"><title>Node16&#45;&gt;Node17</title>
<path fill="none" stroke="midnightblue" d="M427.907,-168.324C444.03,-159.703 468.979,-146.364 487.643,-136.386"/>
<polygon fill="midnightblue" stroke="midnightblue" points="489.324,-139.456 496.492,-131.655 486.023,-133.283 489.324,-139.456"/>
</g>
<!-- Node21 -->
<g id="node21" class="node"><title>Node21</title>
<g id="a_node21"><a xlink:href="_font_8hpp_source.html" target="_top" xlink:title="Font.hpp">
<polygon fill="white" stroke="black" points="560.179,-112.5 560.179,-131.5 615.179,-131.5 615.179,-112.5 560.179,-112.5"/>
<text text-anchor="middle" x="587.679" y="-119.5" font-family="Helvetica,sans-Serif" font-size="10.00">Font.hpp</text>
</a>
</g>
</g>
<!-- Node16&#45;&gt;Node21 -->
<g id="edge25" class="edge"><title>Node16&#45;&gt;Node21</title>
<path fill="none" stroke="midnightblue" d="M439.567,-168.444C469.433,-159.28 516.994,-144.688 550.135,-134.519"/>
<polygon fill="midnightblue" stroke="midnightblue" points="551.388,-137.796 559.922,-131.516 549.335,-131.104 551.388,-137.796"/>
</g>
<!-- Node17&#45;&gt;Node9 -->
<g id="edge20" class="edge"><title>Node17&#45;&gt;Node9</title>
<path fill="none" stroke="midnightblue" d="M483.268,-113.803C480.373,-113.164 477.473,-112.551 474.679,-112 383.957,-94.0955 275.829,-78.5409 222.985,-71.3099"/>
<polygon fill="midnightblue" stroke="midnightblue" points="223.254,-67.8144 212.874,-69.9359 222.312,-74.7507 223.254,-67.8144"/>
</g>
<!-- Node17&#45;&gt;Node11 -->
<g id="edge21" class="edge"><title>Node17&#45;&gt;Node11</title>
<path fill="none" stroke="midnightblue" d="M487.168,-112.444C460.083,-103.359 417.089,-88.9388 386.81,-78.7831"/>
<polygon fill="midnightblue" stroke="midnightblue" points="387.665,-75.3781 377.071,-75.5164 385.439,-82.0148 387.665,-75.3781"/>
</g>
<!-- Node18 -->
<g id="node18" class="node"><title>Node18</title>
<polygon fill="white" stroke="#bfbfbf" points="575.679,-56.5 575.679,-75.5 629.679,-75.5 629.679,-56.5 575.679,-56.5"/>
<text text-anchor="middle" x="602.679" y="-63.5" font-family="Helvetica,sans-Serif" font-size="10.00">iostream</text>
</g>
<!-- Node17&#45;&gt;Node18 -->
<g id="edge19" class="edge"><title>Node17&#45;&gt;Node18</title>
<path fill="none" stroke="midnightblue" d="M527.139,-112.324C541.179,-103.9 562.728,-90.9709 579.222,-81.0741"/>
<polygon fill="midnightblue" stroke="midnightblue" points="581.481,-83.8007 588.255,-75.6545 577.879,-77.7983 581.481,-83.8007"/>
</g>
<!-- Node19 -->
<g id="node19" class="node"><title>Node19</title>
<g id="a_node19"><a xlink:href="_group_points_8hpp_source.html" target="_top" xlink:title="GroupPoints.hpp">
<polygon fill="white" stroke="black" points="468.179,-56.5 468.179,-75.5 557.179,-75.5 557.179,-56.5 468.179,-56.5"/>
<text text-anchor="middle" x="512.679" y="-63.5" font-family="Helvetica,sans-Serif" font-size="10.00">GroupPoints.hpp</text>
</a>
</g>
</g>
<!-- Node17&#45;&gt;Node19 -->
<g id="edge22" class="edge"><title>Node17&#45;&gt;Node19</title>
<path fill="none" stroke="midnightblue" d="M507.513,-112.083C506.003,-104.927 505.573,-94.6353 506.222,-85.6911"/>
<polygon fill="midnightblue" stroke="midnightblue" points="509.695,-86.1262 507.548,-75.7511 502.756,-85.2002 509.695,-86.1262"/>
</g>
<!-- Node19&#45;&gt;Node17 -->
<g id="edge24" class="edge"><title>Node19&#45;&gt;Node17</title>
<path fill="none" stroke="midnightblue" d="M517.81,-75.7511C519.336,-82.8579 519.784,-93.1357 519.152,-102.101"/>
<polygon fill="midnightblue" stroke="midnightblue" points="515.672,-101.713 517.845,-112.083 522.613,-102.622 515.672,-101.713"/>
</g>
<!-- Node20 -->
<g id="node20" class="node"><title>Node20</title>
<polygon fill="white" stroke="#bfbfbf" points="483.179,-0.5 483.179,-19.5 542.179,-19.5 542.179,-0.5 483.179,-0.5"/>
<text text-anchor="middle" x="512.679" y="-7.5" font-family="Helvetica,sans-Serif" font-size="10.00">functional</text>
</g>
<!-- Node19&#45;&gt;Node20 -->
<g id="edge23" class="edge"><title>Node19&#45;&gt;Node20</title>
<path fill="none" stroke="midnightblue" d="M512.679,-56.083C512.679,-49.0059 512.679,-38.8611 512.679,-29.9865"/>
<polygon fill="midnightblue" stroke="midnightblue" points="516.179,-29.751 512.679,-19.7511 509.179,-29.7511 516.179,-29.751"/>
</g>
<!-- Node21&#45;&gt;Node18 -->
<g id="edge26" class="edge"><title>Node21&#45;&gt;Node18</title>
<path fill="none" stroke="midnightblue" d="M590.156,-112.083C592.166,-104.849 595.066,-94.4087 597.569,-85.3968"/>
<polygon fill="midnightblue" stroke="midnightblue" points="600.944,-86.323 600.248,-75.7511 594.199,-84.4495 600.944,-86.323"/>
</g>
<!-- Node22&#45;&gt;Node15 -->
<g id="edge29" class="edge"><title>Node22&#45;&gt;Node15</title>
<path fill="none" stroke="midnightblue" d="M481.344,-168.324C468.517,-159.979 448.894,-147.212 433.739,-137.352"/>
<polygon fill="midnightblue" stroke="midnightblue" points="435.272,-134.174 424.981,-131.655 431.455,-140.042 435.272,-134.174"/>
</g>
<!-- Node22&#45;&gt;Node18 -->
<g id="edge28" class="edge"><title>Node22&#45;&gt;Node18</title>
<path fill="none" stroke="midnightblue" d="M525.368,-175.898C555.963,-172.966 601.497,-163.231 623.679,-132 633.932,-117.565 625.083,-97.8597 615.926,-83.9405"/>
<polygon fill="midnightblue" stroke="midnightblue" points="618.727,-81.8395 610.062,-75.7427 613.033,-85.9123 618.727,-81.8395"/>
</g>
<!-- Node23&#45;&gt;Node8 -->
<g id="edge31" class="edge"><title>Node23&#45;&gt;Node8</title>
<path fill="none" stroke="midnightblue" d="M423.873,-280.444C403.392,-271.596 371.196,-257.687 347.814,-247.586"/>
<polygon fill="midnightblue" stroke="midnightblue" points="348.961,-244.269 338.393,-243.516 346.185,-250.695 348.961,-244.269"/>
</g>
<!-- Node23&#45;&gt;Node21 -->
<g id="edge32" class="edge"><title>Node23&#45;&gt;Node21</title>
<path fill="none" stroke="midnightblue" d="M451.486,-280.442C467.224,-263.146 503.807,-222.715 533.679,-188 547.651,-171.762 563.253,-152.901 574.079,-139.692"/>
<polygon fill="midnightblue" stroke="midnightblue" points="576.819,-141.87 580.439,-131.913 571.4,-137.44 576.819,-141.87"/>
</g>
</g>
</svg>
        <g id="navigator" transform="translate(0 0)" fill="#404254">
                <rect fill="#f2f5e9" fill-opacity="0.5" stroke="#606060" stroke-width=".5" x="0" y="0" width="60" height="60"/>
                <use id="zoomplus" xlink:href="#zoomPlus" x="17" y="9" onmousedown="handleZoom(evt,'in')"/>
                <use id="zoomminus" xlink:href="#zoomMin" x="42" y="9" onmousedown="handleZoom(evt,'out')"/>
                <use id="reset" xlink:href="#resetDef" x="30" y="36" onmousedown="handleReset()"/>
                <g id="arrowUp" xlink:href="#dirArrow" transform="translate(30 24)" onmousedown="handlePan(0,-1)">
                  <use xlink:href="#rim" fill="#404040">
                        <set attributeName="fill" to="#808080" begin="arrowUp.mouseover" end="arrowUp.mouseout"/>
                  </use>
                  <path fill="none" stroke="white" stroke-width="1.5" d="M0,-3.0v7 M-2.5,-0.5L0,-3.0L2.5,-0.5"/>
                </g>
                <g id="arrowRight" xlink:href="#dirArrow" transform="rotate(90) translate(36 -43)" onmousedown="handlePan(1,0)">
                  <use xlink:href="#rim" fill="#404040">
                        <set attributeName="fill" to="#808080" begin="arrowRight.mouseover" end="arrowRight.mouseout"/>
                  </use>
                  <path fill="none" stroke="white" stroke-width="1.5" d="M0,-3.0v7 M-2.5,-0.5L0,-3.0L2.5,-0.5"/>
                </g>
                <g id="arrowDown" xlink:href="#dirArrow" transform="rotate(180) translate(-30 -48)" onmousedown="handlePan(0,1)">
                  <use xlink:href="#rim" fill="#404040">
                        <set attributeName="fill" to="#808080" begin="arrowDown.mouseover" end="arrowDown.mouseout"/>
                  </use>
                  <path fill="none" stroke="white" stroke-width="1.5" d="M0,-3.0v7 M-2.5,-0.5L0,-3.0L2.5,-0.5"/>
                </g>
                <g id="arrowLeft" xlink:href="#dirArrow" transform="rotate(270) translate(-36 17)" onmousedown="handlePan(-1,0)">
                  <use xlink:href="#rim" fill="#404040">
                        <set attributeName="fill" to="#808080" begin="arrowLeft.mouseover" end="arrowLeft.mouseout"/>
                  </use>
                  <path fill="none" stroke="white" stroke-width="1.5" d="M0,-3.0v7 M-2.5,-0.5L0,-3.0L2.5,-0.5"/>
                </g>
        </g>
        <svg viewBox="0 0 15 15" width="100%" height="30px" preserveAspectRatio="xMaxYMin meet">
         <g id="arrow_out" transform="scale(0.3 0.3)">
          <a xlink:href="_button_8hpp__incl_org.svg" target="_base">
           <rect id="button" ry="5" rx="5" y="6" x="6" height="38" width="38"
                fill="#f2f5e9" fill-opacity="0.5" stroke="#606060" stroke-width="1.0"/>
           <path id="arrow"
             d="M 11.500037,31.436501 C 11.940474,20.09759 22.043105,11.32322 32.158766,21.979434 L 37.068811,17.246167 C 37.068811,17.246167 37.088388,32 37.088388,32 L 22.160133,31.978069 C 22.160133,31.978069 26.997745,27.140456 26.997745,27.140456 C 18.528582,18.264221 13.291696,25.230495 11.500037,31.436501 z"
             style="fill:#404040;"/>
          </a>
         </g>
        </svg>
</svg>
