<?xml version="1.0" encoding="UTF-8" standalone="no"?>
<!DOCTYPE svg PUBLIC "-//W3C//DTD SVG 1.1//EN"
 "http://www.w3.org/Graphics/SVG/1.1/DTD/svg11.dtd">
<!-- Generated by graphviz version 2.36.0 (20140111.2315)
 -->
<!-- Title: Button.hpp Pages: 1 -->
<svg width="858pt" height="476pt"
 viewBox="0.00 0.00 858.22 476.00" xmlns="http://www.w3.org/2000/svg" xmlns:xlink="http://www.w3.org/1999/xlink">
<g id="graph0" class="graph" transform="scale(1 1) rotate(0) translate(4 472)">
<title>Button.hpp</title>
<polygon fill="white" stroke="none" points="-4,4 -4,-472 854.221,-472 854.221,4 -4,4"/>
<!-- Node1 -->
<g id="node1" class="node"><title>Node1</title>
<polygon fill="#bfbfbf" stroke="black" points="244.679,-448.5 244.679,-467.5 308.679,-467.5 308.679,-448.5 244.679,-448.5"/>
<text text-anchor="middle" x="276.679" y="-455.5" font-family="Helvetica,sans-Serif" font-size="10.00">Button.hpp</text>
</g>
<!-- Node2 -->
<g id="node2" class="node"><title>Node2</title>
<g id="a_node2"><a xlink:href="_label_8hpp_source.html" target="_top" xlink:title="Label.hpp">
<polygon fill="white" stroke="black" points="247.179,-392.5 247.179,-411.5 306.179,-411.5 306.179,-392.5 247.179,-392.5"/>
<text text-anchor="middle" x="276.679" y="-399.5" font-family="Helvetica,sans-Serif" font-size="10.00">Label.hpp</text>
</a>
</g>
</g>
<!-- Node1&#45;&gt;Node2 -->
<g id="edge1" class="edge"><title>Node1&#45;&gt;Node2</title>
<path fill="none" stroke="midnightblue" d="M276.679,-448.083C276.679,-441.006 276.679,-430.861 276.679,-421.986"/>
<polygon fill="midnightblue" stroke="midnightblue" points="280.179,-421.751 276.679,-411.751 273.179,-421.751 280.179,-421.751"/>
</g>
<!-- Node3 -->
<g id="node3" class="node"><title>Node3</title>
<g id="a_node3"><a xlink:href="_widget_8hpp_source.html" target="_top" xlink:title="Widget.hpp">
<polygon fill="white" stroke="black" points="167.679,-336.5 167.679,-355.5 233.679,-355.5 233.679,-336.5 167.679,-336.5"/>
<text text-anchor="middle" x="200.679" y="-343.5" font-family="Helvetica,sans-Serif" font-size="10.00">Widget.hpp</text>
</a>
</g>
</g>
<!-- Node2&#45;&gt;Node3 -->
<g id="edge2" class="edge"><title>Node2&#45;&gt;Node3</title>
<path fill="none" stroke="midnightblue" d="M264.468,-392.324C252.903,-384.107 235.304,-371.602 221.518,-361.807"/>
<polygon fill="midnightblue" stroke="midnightblue" points="223.291,-358.773 213.112,-355.834 219.237,-364.479 223.291,-358.773"/>
</g>
<!-- Node26 -->
<g id="node26" class="node"><title>Node26</title>
<g id="a_node26"><a xlink:href="_graphics_text_8hpp.html" target="_top" xlink:title="Classe GraphicsText. ">
<polygon fill="white" stroke="black" points="396.679,-280.5 396.679,-299.5 490.679,-299.5 490.679,-280.5 396.679,-280.5"/>
<text text-anchor="middle" x="443.679" y="-287.5" font-family="Helvetica,sans-Serif" font-size="10.00">GraphicsText.hpp</text>
</a>
</g>
</g>
<!-- Node2&#45;&gt;Node26 -->
<g id="edge33" class="edge"><title>Node2&#45;&gt;Node26</title>
<path fill="none" stroke="midnightblue" d="M289.783,-392.368C318.441,-373.492 386.922,-328.385 422.065,-305.237"/>
<polygon fill="midnightblue" stroke="midnightblue" points="424.21,-308.015 430.636,-299.591 420.359,-302.169 424.21,-308.015"/>
</g>
<!-- Node4 -->
<g id="node4" class="node"><title>Node4</title>
<polygon fill="white" stroke="#bfbfbf" points="86.6791,-224.5 86.6791,-243.5 130.679,-243.5 130.679,-224.5 86.6791,-224.5"/>
<text text-anchor="middle" x="108.679" y="-231.5" font-family="Helvetica,sans-Serif" font-size="10.00">cmath</text>
</g>
<!-- Node3&#45;&gt;Node4 -->
<g id="edge3" class="edge"><title>Node3&#45;&gt;Node4</title>
<path fill="none" stroke="midnightblue" d="M167.393,-342.219C117.11,-337.251 25.5245,-324.947 5.67912,-300 -17.22,-271.215 38.5602,-251.536 76.666,-241.88"/>
<polygon fill="midnightblue" stroke="midnightblue" points="77.4904,-245.281 86.3894,-239.532 75.8472,-238.477 77.4904,-245.281"/>
</g>
<!-- Node5 -->
<g id="node5" class="node"><title>Node5</title>
<polygon fill="white" stroke="#bfbfbf" points="15.1791,-280.5 15.1791,-299.5 142.179,-299.5 142.179,-280.5 15.1791,-280.5"/>
<text text-anchor="middle" x="78.6791" y="-287.5" font-family="Helvetica,sans-Serif" font-size="10.00">boost/signals2/signal.hpp</text>
</g>
<!-- Node3&#45;&gt;Node5 -->
<g id="edge4" class="edge"><title>Node3&#45;&gt;Node5</title>
<path fill="none" stroke="midnightblue" d="M181.348,-336.444C161.359,-327.596 129.936,-313.687 107.115,-303.586"/>
<polygon fill="midnightblue" stroke="midnightblue" points="108.481,-300.363 97.9199,-299.516 105.648,-306.764 108.481,-300.363"/>
</g>
<!-- Node6 -->
<g id="node6" class="node"><title>Node6</title>
<polygon fill="white" stroke="#bfbfbf" points="160.679,-280.5 160.679,-299.5 240.679,-299.5 240.679,-280.5 160.679,-280.5"/>
<text text-anchor="middle" x="200.679" y="-287.5" font-family="Helvetica,sans-Serif" font-size="10.00">boost/bind.hpp</text>
</g>
<!-- Node3&#45;&gt;Node6 -->
<g id="edge5" class="edge"><title>Node3&#45;&gt;Node6</title>
<path fill="none" stroke="midnightblue" d="M200.679,-336.083C200.679,-329.006 200.679,-318.861 200.679,-309.986"/>
<polygon fill="midnightblue" stroke="midnightblue" points="204.179,-309.751 200.679,-299.751 197.179,-309.751 204.179,-309.751"/>
</g>
<!-- Node7 -->
<g id="node7" class="node"><title>Node7</title>
<g id="a_node7"><a xlink:href="_graphics_rectangle_8hpp_source.html" target="_top" xlink:title="GraphicsRectangle.hpp">
<polygon fill="white" stroke="black" points="259.179,-280.5 259.179,-299.5 378.179,-299.5 378.179,-280.5 259.179,-280.5"/>
<text text-anchor="middle" x="318.679" y="-287.5" font-family="Helvetica,sans-Serif" font-size="10.00">GraphicsRectangle.hpp</text>
</a>
</g>
</g>
<!-- Node3&#45;&gt;Node7 -->
<g id="edge6" class="edge"><title>Node3&#45;&gt;Node7</title>
<path fill="none" stroke="midnightblue" d="M219.377,-336.444C238.624,-327.636 268.832,-313.812 290.879,-303.722"/>
<polygon fill="midnightblue" stroke="midnightblue" points="292.433,-306.86 300.069,-299.516 289.52,-300.495 292.433,-306.86"/>
</g>
<!-- Node7&#45;&gt;Node4 -->
<g id="edge7" class="edge"><title>Node7&#45;&gt;Node4</title>
<path fill="none" stroke="midnightblue" d="M285.404,-280.444C245.698,-270.233 179.78,-253.283 140.656,-243.223"/>
<polygon fill="midnightblue" stroke="midnightblue" points="141.404,-239.801 130.847,-240.7 139.66,-246.581 141.404,-239.801"/>
</g>
<!-- Node8 -->
<g id="node8" class="node"><title>Node8</title>
<g id="a_node8"><a xlink:href="_graphics_item_8hpp.html" target="_top" xlink:title="Classe GraphicsItem. ">
<polygon fill="white" stroke="black" points="271.679,-224.5 271.679,-243.5 365.679,-243.5 365.679,-224.5 271.679,-224.5"/>
<text text-anchor="middle" x="318.679" y="-231.5" font-family="Helvetica,sans-Serif" font-size="10.00">GraphicsItem.hpp</text>
</a>
</g>
</g>
<!-- Node7&#45;&gt;Node8 -->
<g id="edge8" class="edge"><title>Node7&#45;&gt;Node8</title>
<path fill="none" stroke="midnightblue" d="M318.679,-280.083C318.679,-273.006 318.679,-262.861 318.679,-253.986"/>
<polygon fill="midnightblue" stroke="midnightblue" points="322.179,-253.751 318.679,-243.751 315.179,-253.751 322.179,-253.751"/>
</g>
<!-- Node9 -->
<g id="node9" class="node"><title>Node9</title>
<polygon fill="white" stroke="#bfbfbf" points="55.6791,-56.5 55.6791,-75.5 99.6791,-75.5 99.6791,-56.5 55.6791,-56.5"/>
<text text-anchor="middle" x="77.6791" y="-63.5" font-family="Helvetica,sans-Serif" font-size="10.00">vector</text>
</g>
<!-- Node8&#45;&gt;Node9 -->
<g id="edge9" class="edge"><title>Node8&#45;&gt;Node9</title>
<path fill="none" stroke="midnightblue" d="M271.508,-232.147C202.078,-229.781 77.559,-220.931 49.6791,-188 24.366,-158.101 49.0867,-109.694 65.5717,-84.1102"/>
<polygon fill="midnightblue" stroke="midnightblue" points="68.4884,-86.045 71.1646,-75.7937 62.6797,-82.1386 68.4884,-86.045"/>
</g>
<!-- Node10 -->
<g id="node10" class="node"><title>Node10</title>
<polygon fill="white" stroke="#bfbfbf" points="59.1791,-168.5 59.1791,-187.5 94.1791,-187.5 94.1791,-168.5 59.1791,-168.5"/>
<text text-anchor="middle" x="76.6791" y="-175.5" font-family="Helvetica,sans-Serif" font-size="10.00">map</text>
</g>
<!-- Node8&#45;&gt;Node10 -->
<g id="edge10" class="edge"><title>Node8&#45;&gt;Node10</title>
<path fill="none" stroke="midnightblue" d="M275.058,-224.488C232.456,-215.978 165.865,-202.154 108.679,-188 107.209,-187.636 105.703,-187.252 104.185,-186.856"/>
<polygon fill="midnightblue" stroke="midnightblue" points="104.799,-183.396 94.2314,-184.152 102.964,-190.151 104.799,-183.396"/>
</g>
<!-- Node11 -->
<g id="node11" class="node"><title>Node11</title>
<polygon fill="white" stroke="#bfbfbf" points="212.679,-56.5 212.679,-75.5 264.679,-75.5 264.679,-56.5 212.679,-56.5"/>
<text text-anchor="middle" x="238.679" y="-63.5" font-family="Helvetica,sans-Serif" font-size="10.00">memory</text>
</g>
<!-- Node8&#45;&gt;Node11 -->
<g id="edge11" class="edge"><title>Node8&#45;&gt;Node11</title>
<path fill="none" stroke="midnightblue" d="M271.635,-228.375C237.042,-223.093 190.23,-211.846 155.679,-188 130.292,-170.479 124.265,-161.319 114.679,-132 101.762,-92.4924 161.434,-76.7624 202.48,-70.6724"/>
<polygon fill="midnightblue" stroke="midnightblue" points="203.018,-74.1316 212.458,-69.3231 202.08,-67.1947 203.018,-74.1316"/>
</g>
<!-- Node12 -->
<g id="node12" class="node"><title>Node12</title>
<g id="a_node12"><a xlink:href="_color_8hpp.html" target="_top" xlink:title="Classe Color. ">
<polygon fill="white" stroke="black" points="165.179,-168.5 165.179,-187.5 224.179,-187.5 224.179,-168.5 165.179,-168.5"/>
<text text-anchor="middle" x="194.679" y="-175.5" font-family="Helvetica,sans-Serif" font-size="10.00">Color.hpp</text>
</a>
</g>
</g>
<!-- Node8&#45;&gt;Node12 -->
<g id="edge12" class="edge"><title>Node8&#45;&gt;Node12</title>
<path fill="none" stroke="midnightblue" d="M299.031,-224.444C278.715,-215.596 246.776,-201.687 223.581,-191.586"/>
<polygon fill="midnightblue" stroke="midnightblue" points="224.801,-188.3 214.235,-187.516 222.006,-194.718 224.801,-188.3"/>
</g>
<!-- Node16 -->
<g id="node16" class="node"><title>Node16</title>
<g id="a_node16"><a xlink:href="_canvas_8hpp_source.html" target="_top" xlink:title="Canvas.hpp">
<polygon fill="white" stroke="black" points="242.179,-168.5 242.179,-187.5 311.179,-187.5 311.179,-168.5 242.179,-168.5"/>
<text text-anchor="middle" x="276.679" y="-175.5" font-family="Helvetica,sans-Serif" font-size="10.00">Canvas.hpp</text>
</a>
</g>
</g>
<!-- Node8&#45;&gt;Node16 -->
<g id="edge16" class="edge"><title>Node8&#45;&gt;Node16</title>
<path fill="none" stroke="midnightblue" d="M311.744,-224.083C305.75,-216.377 296.927,-205.033 289.631,-195.653"/>
<polygon fill="midnightblue" stroke="midnightblue" points="292.388,-193.496 283.486,-187.751 286.862,-197.793 292.388,-193.496"/>
</g>
<!-- Node22 -->
<g id="node22" class="node"><title>Node22</title>
<g id="a_node22"><a xlink:href="_event_8hpp.html" target="_top" xlink:title="Classe Event. ">
<polygon fill="white" stroke="black" points="329.179,-168.5 329.179,-187.5 390.179,-187.5 390.179,-168.5 329.179,-168.5"/>
<text text-anchor="middle" x="359.679" y="-175.5" font-family="Helvetica,sans-Serif" font-size="10.00">Event.hpp</text>
</a>
</g>
</g>
<!-- Node8&#45;&gt;Node22 -->
<g id="edge27" class="edge"><title>Node8&#45;&gt;Node22</title>
<path fill="none" stroke="midnightblue" d="M325.449,-224.083C331.241,-216.455 339.738,-205.264 346.817,-195.941"/>
<polygon fill="midnightblue" stroke="midnightblue" points="349.775,-197.832 353.035,-187.751 344.2,-193.599 349.775,-197.832"/>
</g>
<!-- Node23 -->
<g id="node23" class="node"><title>Node23</title>
<polygon fill="white" stroke="#bfbfbf" points="408.179,-168.5 408.179,-187.5 509.179,-187.5 509.179,-168.5 408.179,-168.5"/>
<text text-anchor="middle" x="458.679" y="-175.5" font-family="Helvetica,sans-Serif" font-size="10.00">boost/uuid/uuid.hpp</text>
</g>
<!-- Node8&#45;&gt;Node23 -->
<g id="edge30" class="edge"><title>Node8&#45;&gt;Node23</title>
<path fill="none" stroke="midnightblue" d="M340.863,-224.444C364.108,-215.478 400.828,-201.314 427.094,-191.183"/>
<polygon fill="midnightblue" stroke="midnightblue" points="428.529,-194.381 436.599,-187.516 426.01,-187.85 428.529,-194.381"/>
</g>
<!-- Node24 -->
<g id="node24" class="node"><title>Node24</title>
<polygon fill="white" stroke="#bfbfbf" points="527.679,-168.5 527.679,-187.5 679.679,-187.5 679.679,-168.5 527.679,-168.5"/>
<text text-anchor="middle" x="603.679" y="-175.5" font-family="Helvetica,sans-Serif" font-size="10.00">boost/uuid/uuid_generators.hpp</text>
</g>
<!-- Node8&#45;&gt;Node24 -->
<g id="edge31" class="edge"><title>Node8&#45;&gt;Node24</title>
<path fill="none" stroke="midnightblue" d="M363.838,-224.444C413.973,-214.944 494.899,-199.611 548.686,-189.42"/>
<polygon fill="midnightblue" stroke="midnightblue" points="549.558,-192.817 558.731,-187.516 548.255,-185.939 549.558,-192.817"/>
</g>
<!-- Node25 -->
<g id="node25" class="node"><title>Node25</title>
<polygon fill="white" stroke="#bfbfbf" points="698.179,-168.5 698.179,-187.5 837.179,-187.5 837.179,-168.5 698.179,-168.5"/>
<text text-anchor="middle" x="767.679" y="-175.5" font-family="Helvetica,sans-Serif" font-size="10.00">boost/core/noncopyable.hpp</text>
</g>
<!-- Node8&#45;&gt;Node25 -->
<g id="edge32" class="edge"><title>Node8&#45;&gt;Node25</title>
<path fill="none" stroke="midnightblue" d="M365.881,-227.323C442.458,-218.113 594.596,-199.816 688.118,-188.569"/>
<polygon fill="midnightblue" stroke="midnightblue" points="688.591,-192.037 698.101,-187.368 687.755,-185.087 688.591,-192.037"/>
</g>
<!-- Node13 -->
<g id="node13" class="node"><title>Node13</title>
<polygon fill="white" stroke="#bfbfbf" points="123.679,-112.5 123.679,-131.5 169.679,-131.5 169.679,-112.5 123.679,-112.5"/>
<text text-anchor="middle" x="146.679" y="-119.5" font-family="Helvetica,sans-Serif" font-size="10.00">cstdint</text>
</g>
<!-- Node12&#45;&gt;Node13 -->
<g id="edge13" class="edge"><title>Node12&#45;&gt;Node13</title>
<path fill="none" stroke="midnightblue" d="M186.753,-168.083C179.833,-160.298 169.614,-148.801 161.227,-139.367"/>
<polygon fill="midnightblue" stroke="midnightblue" points="163.717,-136.9 154.458,-131.751 158.486,-141.55 163.717,-136.9"/>
</g>
<!-- Node14 -->
<g id="node14" class="node"><title>Node14</title>
<polygon fill="white" stroke="#bfbfbf" points="188.179,-112.5 188.179,-131.5 229.179,-131.5 229.179,-112.5 188.179,-112.5"/>
<text text-anchor="middle" x="208.679" y="-119.5" font-family="Helvetica,sans-Serif" font-size="10.00">string</text>
</g>
<!-- Node12&#45;&gt;Node14 -->
<g id="edge14" class="edge"><title>Node12&#45;&gt;Node14</title>
<path fill="none" stroke="midnightblue" d="M196.991,-168.083C198.846,-160.927 201.514,-150.635 203.833,-141.691"/>
<polygon fill="midnightblue" stroke="midnightblue" points="207.289,-142.309 206.41,-131.751 200.513,-140.553 207.289,-142.309"/>
</g>
<!-- Node15 -->
<g id="node15" class="node"><title>Node15</title>
<polygon fill="white" stroke="#bfbfbf" points="247.679,-112.5 247.679,-131.5 355.679,-131.5 355.679,-112.5 247.679,-112.5"/>
<text text-anchor="middle" x="301.679" y="-119.5" font-family="Helvetica,sans-Serif" font-size="10.00">ez&#45;lib/ez&#45;draw++.hpp</text>
</g>
<!-- Node12&#45;&gt;Node15 -->
<g id="edge15" class="edge"><title>Node12&#45;&gt;Node15</title>
<path fill="none" stroke="midnightblue" d="M211.871,-168.324C229.03,-159.664 255.625,-146.242 275.426,-136.249"/>
<polygon fill="midnightblue" stroke="midnightblue" points="277.18,-139.285 284.53,-131.655 274.026,-133.035 277.18,-139.285"/>
</g>
<!-- Node16&#45;&gt;Node15 -->
<g id="edge17" class="edge"><title>Node16&#45;&gt;Node15</title>
<path fill="none" stroke="midnightblue" d="M280.807,-168.083C284.193,-160.77 289.095,-150.181 293.298,-141.103"/>
<polygon fill="midnightblue" stroke="midnightblue" points="296.603,-142.296 297.628,-131.751 290.25,-139.355 296.603,-142.296"/>
</g>
<!-- Node17 -->
<g id="node17" class="node"><title>Node17</title>
<g id="a_node17"><a xlink:href="_point_8hpp.html" target="_top" xlink:title="Classe point. ">
<polygon fill="white" stroke="black" points="373.679,-112.5 373.679,-131.5 431.679,-131.5 431.679,-112.5 373.679,-112.5"/>
<text text-anchor="middle" x="402.679" y="-119.5" font-family="Helvetica,sans-Serif" font-size="10.00">Point.hpp</text>
</a>
</g>
</g>
<!-- Node16&#45;&gt;Node17 -->
<g id="edge18" class="edge"><title>Node16&#45;&gt;Node17</title>
<path fill="none" stroke="midnightblue" d="M296.644,-168.444C317.288,-159.596 349.742,-145.687 373.311,-135.586"/>
<polygon fill="midnightblue" stroke="midnightblue" points="374.995,-138.673 382.807,-131.516 372.237,-132.239 374.995,-138.673"/>
</g>
<!-- Node21 -->
<g id="node21" class="node"><title>Node21</title>
<g id="a_node21"><a xlink:href="_font_8hpp_source.html" target="_top" xlink:title="Font.hpp">
<polygon fill="white" stroke="black" points="450.179,-112.5 450.179,-131.5 505.179,-131.5 505.179,-112.5 450.179,-112.5"/>
<text text-anchor="middle" x="477.679" y="-119.5" font-family="Helvetica,sans-Serif" font-size="10.00">Font.hpp</text>
</a>
</g>
</g>
<!-- Node16&#45;&gt;Node21 -->
<g id="edge25" class="edge"><title>Node16&#45;&gt;Node21</title>
<path fill="none" stroke="midnightblue" d="M308.528,-168.444C344.246,-158.848 402.124,-143.298 440.046,-133.11"/>
<polygon fill="midnightblue" stroke="midnightblue" points="441.428,-136.363 450.178,-130.388 439.612,-129.603 441.428,-136.363"/>
</g>
<!-- Node17&#45;&gt;Node9 -->
<g id="edge20" class="edge"><title>Node17&#45;&gt;Node9</title>
<path fill="none" stroke="midnightblue" d="M373.269,-113.798C370.373,-113.16 367.473,-112.549 364.679,-112 272.776,-93.9396 163.182,-78.4016 109.925,-71.2302"/>
<polygon fill="midnightblue" stroke="midnightblue" points="110.12,-67.7252 99.7441,-69.8691 109.192,-74.6635 110.12,-67.7252"/>
</g>
<!-- Node17&#45;&gt;Node11 -->
<g id="edge21" class="edge"><title>Node17&#45;&gt;Node11</title>
<path fill="none" stroke="midnightblue" d="M376.693,-112.444C348.983,-103.32 304.927,-88.8133 274.063,-78.6509"/>
<polygon fill="midnightblue" stroke="midnightblue" points="275.137,-75.3196 264.544,-75.5164 272.948,-81.9684 275.137,-75.3196"/>
</g>
<!-- Node18 -->
<g id="node18" class="node"><title>Node18</title>
<polygon fill="white" stroke="#bfbfbf" points="465.679,-56.5 465.679,-75.5 519.679,-75.5 519.679,-56.5 465.679,-56.5"/>
<text text-anchor="middle" x="492.679" y="-63.5" font-family="Helvetica,sans-Serif" font-size="10.00">iostream</text>
</g>
<!-- Node17&#45;&gt;Node18 -->
<g id="edge19" class="edge"><title>Node17&#45;&gt;Node18</title>
<path fill="none" stroke="midnightblue" d="M417.139,-112.324C431.179,-103.9 452.728,-90.9709 469.222,-81.0741"/>
<polygon fill="midnightblue" stroke="midnightblue" points="471.481,-83.8007 478.255,-75.6545 467.879,-77.7983 471.481,-83.8007"/>
</g>
<!-- Node19 -->
<g id="node19" class="node"><title>Node19</title>
<g id="a_node19"><a xlink:href="_group_points_8hpp_source.html" target="_top" xlink:title="GroupPoints.hpp">
<polygon fill="white" stroke="black" points="358.179,-56.5 358.179,-75.5 447.179,-75.5 447.179,-56.5 358.179,-56.5"/>
<text text-anchor="middle" x="402.679" y="-63.5" font-family="Helvetica,sans-Serif" font-size="10.00">GroupPoints.hpp</text>
</a>
</g>
</g>
<!-- Node17&#45;&gt;Node19 -->
<g id="edge22" class="edge"><title>Node17&#45;&gt;Node19</title>
<path fill="none" stroke="midnightblue" d="M397.513,-112.083C396.003,-104.927 395.573,-94.6353 396.222,-85.6911"/>
<polygon fill="midnightblue" stroke="midnightblue" points="399.695,-86.1262 397.548,-75.7511 392.756,-85.2002 399.695,-86.1262"/>
</g>
<!-- Node19&#45;&gt;Node17 -->
<g id="edge24" class="edge"><title>Node19&#45;&gt;Node17</title>
<path fill="none" stroke="midnightblue" d="M407.81,-75.7511C409.336,-82.8579 409.784,-93.1357 409.152,-102.101"/>
<polygon fill="midnightblue" stroke="midnightblue" points="405.672,-101.713 407.845,-112.083 412.613,-102.622 405.672,-101.713"/>
</g>
<!-- Node20 -->
<g id="node20" class="node"><title>Node20</title>
<polygon fill="white" stroke="#bfbfbf" points="373.179,-0.5 373.179,-19.5 432.179,-19.5 432.179,-0.5 373.179,-0.5"/>
<text text-anchor="middle" x="402.679" y="-7.5" font-family="Helvetica,sans-Serif" font-size="10.00">functional</text>
</g>
<!-- Node19&#45;&gt;Node20 -->
<g id="edge23" class="edge"><title>Node19&#45;&gt;Node20</title>
<path fill="none" stroke="midnightblue" d="M402.679,-56.083C402.679,-49.0059 402.679,-38.8611 402.679,-29.9865"/>
<polygon fill="midnightblue" stroke="midnightblue" points="406.179,-29.751 402.679,-19.7511 399.179,-29.7511 406.179,-29.751"/>
</g>
<!-- Node21&#45;&gt;Node18 -->
<g id="edge26" class="edge"><title>Node21&#45;&gt;Node18</title>
<path fill="none" stroke="midnightblue" d="M480.156,-112.083C482.166,-104.849 485.066,-94.4087 487.569,-85.3968"/>
<polygon fill="midnightblue" stroke="midnightblue" points="490.944,-86.323 490.248,-75.7511 484.199,-84.4495 490.944,-86.323"/>
</g>
<!-- Node22&#45;&gt;Node15 -->
<g id="edge29" class="edge"><title>Node22&#45;&gt;Node15</title>
<path fill="none" stroke="midnightblue" d="M350.36,-168.324C341.787,-160.341 328.867,-148.313 318.491,-138.653"/>
<polygon fill="midnightblue" stroke="midnightblue" points="320.871,-136.086 311.167,-131.834 316.101,-141.21 320.871,-136.086"/>
</g>
<!-- Node22&#45;&gt;Node18 -->
<g id="edge28" class="edge"><title>Node22&#45;&gt;Node18</title>
<path fill="none" stroke="midnightblue" d="M390.252,-169.07C434.064,-157.563 509.889,-137.056 513.679,-132 524.299,-117.833 515.389,-98.083 506.118,-84.0801"/>
<polygon fill="midnightblue" stroke="midnightblue" points="508.857,-81.8951 500.174,-75.8246 503.176,-85.9851 508.857,-81.8951"/>
</g>
<!-- Node26&#45;&gt;Node8 -->
<g id="edge34" class="edge"><title>Node26&#45;&gt;Node8</title>
<path fill="none" stroke="midnightblue" d="M423.873,-280.444C403.392,-271.596 371.196,-257.687 347.814,-247.586"/>
<polygon fill="midnightblue" stroke="midnightblue" points="348.961,-244.269 338.393,-243.516 346.185,-250.695 348.961,-244.269"/>
</g>
<!-- Node26&#45;&gt;Node21 -->
<g id="edge35" class="edge"><title>Node26&#45;&gt;Node21</title>
<path fill="none" stroke="midnightblue" d="M490.949,-284.285C587.532,-273.574 802.091,-243.895 845.679,-188 887.247,-134.697 617.329,-125.103 515.464,-123.377"/>
<polygon fill="midnightblue" stroke="midnightblue" points="515.354,-119.875 505.301,-123.222 515.247,-126.875 515.354,-119.875"/>
</g>
</g>
</svg>
