<?xml version="1.0" encoding="UTF-8" standalone="no"?>
<!DOCTYPE svg PUBLIC "-//W3C//DTD SVG 1.1//EN"
 "http://www.w3.org/Graphics/SVG/1.1/DTD/svg11.dtd">
<!-- Generated by graphviz version 2.36.0 (20140111.2315)
 -->
<!-- Title: Button.hpp Pages: 1 -->
<svg width="640pt" height="476pt"
 viewBox="0.00 0.00 640.00 476.00" xmlns="http://www.w3.org/2000/svg" xmlns:xlink="http://www.w3.org/1999/xlink">
<g id="graph0" class="graph" transform="scale(1 1) rotate(0) translate(4 472)">
<title>Button.hpp</title>
<polygon fill="white" stroke="none" points="-4,4 -4,-472 636,-472 636,4 -4,4"/>
<!-- Node1 -->
<g id="node1" class="node"><title>Node1</title>
<polygon fill="#bfbfbf" stroke="black" points="365,-448.5 365,-467.5 429,-467.5 429,-448.5 365,-448.5"/>
<text text-anchor="middle" x="397" y="-455.5" font-family="Helvetica,sans-Serif" font-size="10.00">Button.hpp</text>
</g>
<!-- Node2 -->
<g id="node2" class="node"><title>Node2</title>
<g id="a_node2"><a xlink:href="_label_8hpp_source.html" target="_top" xlink:title="Label.hpp">
<polygon fill="white" stroke="black" points="367.5,-392.5 367.5,-411.5 426.5,-411.5 426.5,-392.5 367.5,-392.5"/>
<text text-anchor="middle" x="397" y="-399.5" font-family="Helvetica,sans-Serif" font-size="10.00">Label.hpp</text>
</a>
</g>
</g>
<!-- Node1&#45;&gt;Node2 -->
<g id="edge1" class="edge"><title>Node1&#45;&gt;Node2</title>
<path fill="none" stroke="midnightblue" d="M397,-448.083C397,-441.006 397,-430.861 397,-421.986"/>
<polygon fill="midnightblue" stroke="midnightblue" points="400.5,-421.751 397,-411.751 393.5,-421.751 400.5,-421.751"/>
</g>
<!-- Node3 -->
<g id="node3" class="node"><title>Node3</title>
<g id="a_node3"><a xlink:href="_widget_8hpp_source.html" target="_top" xlink:title="Widget.hpp">
<polygon fill="white" stroke="black" points="282,-336.5 282,-355.5 348,-355.5 348,-336.5 282,-336.5"/>
<text text-anchor="middle" x="315" y="-343.5" font-family="Helvetica,sans-Serif" font-size="10.00">Widget.hpp</text>
</a>
</g>
</g>
<!-- Node2&#45;&gt;Node3 -->
<g id="edge2" class="edge"><title>Node2&#45;&gt;Node3</title>
<path fill="none" stroke="midnightblue" d="M383.825,-392.324C371.153,-383.979 351.767,-371.212 336.794,-361.352"/>
<polygon fill="midnightblue" stroke="midnightblue" points="338.419,-358.231 328.142,-355.655 334.569,-364.078 338.419,-358.231"/>
</g>
<!-- Node24 -->
<g id="node24" class="node"><title>Node24</title>
<g id="a_node24"><a xlink:href="_graphics_text_8hpp.html" target="_top" xlink:title="Classe GraphicsText. ">
<polygon fill="white" stroke="black" points="538,-280.5 538,-299.5 632,-299.5 632,-280.5 538,-280.5"/>
<text text-anchor="middle" x="585" y="-287.5" font-family="Helvetica,sans-Serif" font-size="10.00">GraphicsText.hpp</text>
</a>
</g>
</g>
<!-- Node2&#45;&gt;Node24 -->
<g id="edge32" class="edge"><title>Node2&#45;&gt;Node24</title>
<path fill="none" stroke="midnightblue" d="M411.752,-392.368C444.287,-373.332 522.421,-327.615 561.67,-304.65"/>
<polygon fill="midnightblue" stroke="midnightblue" points="563.453,-307.662 570.316,-299.591 559.918,-301.621 563.453,-307.662"/>
</g>
<!-- Node4 -->
<g id="node4" class="node"><title>Node4</title>
<polygon fill="white" stroke="#bfbfbf" points="205,-224.5 205,-243.5 249,-243.5 249,-224.5 205,-224.5"/>
<text text-anchor="middle" x="227" y="-231.5" font-family="Helvetica,sans-Serif" font-size="10.00">cmath</text>
</g>
<!-- Node3&#45;&gt;Node4 -->
<g id="edge3" class="edge"><title>Node3&#45;&gt;Node4</title>
<path fill="none" stroke="midnightblue" d="M294.305,-336.347C278.856,-328.876 258.362,-316.65 246,-300 236.035,-286.578 231.278,-268.014 229.018,-254.16"/>
<polygon fill="midnightblue" stroke="midnightblue" points="232.435,-253.299 227.648,-243.847 225.496,-254.221 232.435,-253.299"/>
</g>
<!-- Node5 -->
<g id="node5" class="node"><title>Node5</title>
<polygon fill="white" stroke="#bfbfbf" points="392.5,-280.5 392.5,-299.5 519.5,-299.5 519.5,-280.5 392.5,-280.5"/>
<text text-anchor="middle" x="456" y="-287.5" font-family="Helvetica,sans-Serif" font-size="10.00">boost/signals2/signal.hpp</text>
</g>
<!-- Node3&#45;&gt;Node5 -->
<g id="edge4" class="edge"><title>Node3&#45;&gt;Node5</title>
<path fill="none" stroke="midnightblue" d="M337.342,-336.444C360.753,-327.478 397.736,-313.314 424.19,-303.183"/>
<polygon fill="midnightblue" stroke="midnightblue" points="425.676,-306.361 433.763,-299.516 423.172,-299.824 425.676,-306.361"/>
</g>
<!-- Node6 -->
<g id="node6" class="node"><title>Node6</title>
<polygon fill="white" stroke="#bfbfbf" points="119,-280.5 119,-299.5 199,-299.5 199,-280.5 119,-280.5"/>
<text text-anchor="middle" x="159" y="-287.5" font-family="Helvetica,sans-Serif" font-size="10.00">boost/bind.hpp</text>
</g>
<!-- Node3&#45;&gt;Node6 -->
<g id="edge5" class="edge"><title>Node3&#45;&gt;Node6</title>
<path fill="none" stroke="midnightblue" d="M290.281,-336.444C264.152,-327.399 222.741,-313.064 193.424,-302.916"/>
<polygon fill="midnightblue" stroke="midnightblue" points="194.198,-299.48 183.603,-299.516 191.908,-306.095 194.198,-299.48"/>
</g>
<!-- Node7 -->
<g id="node7" class="node"><title>Node7</title>
<g id="a_node7"><a xlink:href="_graphics_rectangle_8hpp_source.html" target="_top" xlink:title="GraphicsRectangle.hpp">
<polygon fill="white" stroke="black" points="255.5,-280.5 255.5,-299.5 374.5,-299.5 374.5,-280.5 255.5,-280.5"/>
<text text-anchor="middle" x="315" y="-287.5" font-family="Helvetica,sans-Serif" font-size="10.00">GraphicsRectangle.hpp</text>
</a>
</g>
</g>
<!-- Node3&#45;&gt;Node7 -->
<g id="edge6" class="edge"><title>Node3&#45;&gt;Node7</title>
<path fill="none" stroke="midnightblue" d="M315,-336.083C315,-329.006 315,-318.861 315,-309.986"/>
<polygon fill="midnightblue" stroke="midnightblue" points="318.5,-309.751 315,-299.751 311.5,-309.751 318.5,-309.751"/>
</g>
<!-- Node7&#45;&gt;Node4 -->
<g id="edge7" class="edge"><title>Node7&#45;&gt;Node4</title>
<path fill="none" stroke="midnightblue" d="M300.861,-280.324C287.134,-271.9 266.064,-258.971 249.936,-249.074"/>
<polygon fill="midnightblue" stroke="midnightblue" points="251.457,-245.902 241.104,-243.655 247.796,-251.868 251.457,-245.902"/>
</g>
<!-- Node8 -->
<g id="node8" class="node"><title>Node8</title>
<g id="a_node8"><a xlink:href="_graphics_item_8hpp_source.html" target="_top" xlink:title="GraphicsItem.hpp">
<polygon fill="white" stroke="black" points="268,-224.5 268,-243.5 362,-243.5 362,-224.5 268,-224.5"/>
<text text-anchor="middle" x="315" y="-231.5" font-family="Helvetica,sans-Serif" font-size="10.00">GraphicsItem.hpp</text>
</a>
</g>
</g>
<!-- Node7&#45;&gt;Node8 -->
<g id="edge8" class="edge"><title>Node7&#45;&gt;Node8</title>
<path fill="none" stroke="midnightblue" d="M315,-280.083C315,-273.006 315,-262.861 315,-253.986"/>
<polygon fill="midnightblue" stroke="midnightblue" points="318.5,-253.751 315,-243.751 311.5,-253.751 318.5,-253.751"/>
</g>
<!-- Node9 -->
<g id="node9" class="node"><title>Node9</title>
<polygon fill="white" stroke="#bfbfbf" points="560,-56.5 560,-75.5 604,-75.5 604,-56.5 560,-56.5"/>
<text text-anchor="middle" x="582" y="-63.5" font-family="Helvetica,sans-Serif" font-size="10.00">vector</text>
</g>
<!-- Node8&#45;&gt;Node9 -->
<g id="edge9" class="edge"><title>Node8&#45;&gt;Node9</title>
<path fill="none" stroke="midnightblue" d="M357.763,-224.426C386.588,-217.438 424.729,-205.775 455,-188 503.157,-159.722 547.488,-109.869 568.764,-83.8602"/>
<polygon fill="midnightblue" stroke="midnightblue" points="571.762,-85.7172 575.297,-75.7295 566.305,-81.3328 571.762,-85.7172"/>
</g>
<!-- Node10 -->
<g id="node10" class="node"><title>Node10</title>
<polygon fill="white" stroke="#bfbfbf" points="169,-168.5 169,-187.5 199,-187.5 199,-168.5 169,-168.5"/>
<text text-anchor="middle" x="184" y="-175.5" font-family="Helvetica,sans-Serif" font-size="10.00">set</text>
</g>
<!-- Node8&#45;&gt;Node10 -->
<g id="edge10" class="edge"><title>Node8&#45;&gt;Node10</title>
<path fill="none" stroke="midnightblue" d="M294.243,-224.444C271.035,-214.877 233.472,-199.393 208.754,-189.204"/>
<polygon fill="midnightblue" stroke="midnightblue" points="209.918,-185.898 199.339,-185.323 207.25,-192.37 209.918,-185.898"/>
</g>
<!-- Node11 -->
<g id="node11" class="node"><title>Node11</title>
<polygon fill="white" stroke="#bfbfbf" points="490,-56.5 490,-75.5 542,-75.5 542,-56.5 490,-56.5"/>
<text text-anchor="middle" x="516" y="-63.5" font-family="Helvetica,sans-Serif" font-size="10.00">memory</text>
</g>
<!-- Node8&#45;&gt;Node11 -->
<g id="edge11" class="edge"><title>Node8&#45;&gt;Node11</title>
<path fill="none" stroke="midnightblue" d="M343.95,-224.454C383.946,-211.176 455.716,-181.799 496,-132 506.781,-118.673 511.766,-99.5551 514.062,-85.5019"/>
<polygon fill="midnightblue" stroke="midnightblue" points="517.54,-85.8981 515.386,-75.5245 510.601,-84.9772 517.54,-85.8981"/>
</g>
<!-- Node12 -->
<g id="node12" class="node"><title>Node12</title>
<g id="a_node12"><a xlink:href="_color_8hpp.html" target="_top" xlink:title="Classe Color. ">
<polygon fill="white" stroke="black" points="55.5,-112.5 55.5,-131.5 114.5,-131.5 114.5,-112.5 55.5,-112.5"/>
<text text-anchor="middle" x="85" y="-119.5" font-family="Helvetica,sans-Serif" font-size="10.00">Color.hpp</text>
</a>
</g>
</g>
<!-- Node8&#45;&gt;Node12 -->
<g id="edge12" class="edge"><title>Node8&#45;&gt;Node12</title>
<path fill="none" stroke="midnightblue" d="M267.866,-224.837C236.047,-218.03 193.843,-206.415 160,-188 136.503,-175.215 113.922,-154.031 99.7878,-139.338"/>
<polygon fill="midnightblue" stroke="midnightblue" points="102.244,-136.84 92.8522,-131.937 97.1364,-141.627 102.244,-136.84"/>
</g>
<!-- Node16 -->
<g id="node16" class="node"><title>Node16</title>
<g id="a_node16"><a xlink:href="_canvas_8hpp_source.html" target="_top" xlink:title="Canvas.hpp">
<polygon fill="white" stroke="black" points="217.5,-168.5 217.5,-187.5 286.5,-187.5 286.5,-168.5 217.5,-168.5"/>
<text text-anchor="middle" x="252" y="-175.5" font-family="Helvetica,sans-Serif" font-size="10.00">Canvas.hpp</text>
</a>
</g>
</g>
<!-- Node8&#45;&gt;Node16 -->
<g id="edge16" class="edge"><title>Node8&#45;&gt;Node16</title>
<path fill="none" stroke="midnightblue" d="M304.878,-224.324C295.474,-216.263 281.256,-204.077 269.931,-194.369"/>
<polygon fill="midnightblue" stroke="midnightblue" points="272.177,-191.684 262.306,-187.834 267.621,-196.999 272.177,-191.684"/>
</g>
<!-- Node23 -->
<g id="node23" class="node"><title>Node23</title>
<g id="a_node23"><a xlink:href="_event_8hpp.html" target="_top" xlink:title="Classe Event. ">
<polygon fill="white" stroke="black" points="277.5,-112.5 277.5,-131.5 338.5,-131.5 338.5,-112.5 277.5,-112.5"/>
<text text-anchor="middle" x="308" y="-119.5" font-family="Helvetica,sans-Serif" font-size="10.00">Event.hpp</text>
</a>
</g>
</g>
<!-- Node8&#45;&gt;Node23 -->
<g id="edge29" class="edge"><title>Node8&#45;&gt;Node23</title>
<path fill="none" stroke="midnightblue" d="M314.451,-224.368C313.321,-206.617 310.715,-165.666 309.183,-141.597"/>
<polygon fill="midnightblue" stroke="midnightblue" points="312.675,-141.349 308.547,-131.591 305.689,-141.794 312.675,-141.349"/>
</g>
<!-- Node13 -->
<g id="node13" class="node"><title>Node13</title>
<polygon fill="white" stroke="#bfbfbf" points="0,-56.5 0,-75.5 46,-75.5 46,-56.5 0,-56.5"/>
<text text-anchor="middle" x="23" y="-63.5" font-family="Helvetica,sans-Serif" font-size="10.00">cstdint</text>
</g>
<!-- Node12&#45;&gt;Node13 -->
<g id="edge13" class="edge"><title>Node12&#45;&gt;Node13</title>
<path fill="none" stroke="midnightblue" d="M75.0386,-112.324C65.8734,-104.341 52.0628,-92.3128 40.9718,-82.6529"/>
<polygon fill="midnightblue" stroke="midnightblue" points="42.9822,-79.7624 33.1426,-75.8339 38.3847,-85.041 42.9822,-79.7624"/>
</g>
<!-- Node14 -->
<g id="node14" class="node"><title>Node14</title>
<polygon fill="white" stroke="#bfbfbf" points="64.5,-56.5 64.5,-75.5 105.5,-75.5 105.5,-56.5 64.5,-56.5"/>
<text text-anchor="middle" x="85" y="-63.5" font-family="Helvetica,sans-Serif" font-size="10.00">string</text>
</g>
<!-- Node12&#45;&gt;Node14 -->
<g id="edge14" class="edge"><title>Node12&#45;&gt;Node14</title>
<path fill="none" stroke="midnightblue" d="M85,-112.083C85,-105.006 85,-94.8611 85,-85.9865"/>
<polygon fill="midnightblue" stroke="midnightblue" points="88.5001,-85.751 85,-75.7511 81.5001,-85.7511 88.5001,-85.751"/>
</g>
<!-- Node15 -->
<g id="node15" class="node"><title>Node15</title>
<polygon fill="white" stroke="#bfbfbf" points="124,-56.5 124,-75.5 232,-75.5 232,-56.5 124,-56.5"/>
<text text-anchor="middle" x="178" y="-63.5" font-family="Helvetica,sans-Serif" font-size="10.00">ez&#45;lib/ez&#45;draw++.hpp</text>
</g>
<!-- Node12&#45;&gt;Node15 -->
<g id="edge15" class="edge"><title>Node12&#45;&gt;Node15</title>
<path fill="none" stroke="midnightblue" d="M99.9421,-112.324C114.585,-103.822 137.134,-90.7288 154.238,-80.7975"/>
<polygon fill="midnightblue" stroke="midnightblue" points="156.205,-83.7027 163.095,-75.6545 152.69,-77.6491 156.205,-83.7027"/>
</g>
<!-- Node16&#45;&gt;Node12 -->
<g id="edge19" class="edge"><title>Node16&#45;&gt;Node12</title>
<path fill="none" stroke="midnightblue" d="M225.538,-168.444C197.322,-159.32 152.46,-144.813 121.032,-134.651"/>
<polygon fill="midnightblue" stroke="midnightblue" points="121.93,-131.263 111.338,-131.516 119.776,-137.923 121.93,-131.263"/>
</g>
<!-- Node16&#45;&gt;Node15 -->
<g id="edge18" class="edge"><title>Node16&#45;&gt;Node15</title>
<path fill="none" stroke="midnightblue" d="M217.187,-169.215C197.316,-162.794 174.031,-151.467 162,-132 153.052,-117.522 159.578,-98.3359 166.802,-84.5672"/>
<polygon fill="midnightblue" stroke="midnightblue" points="169.988,-86.0505 171.975,-75.6436 163.932,-82.5402 169.988,-86.0505"/>
</g>
<!-- Node17 -->
<g id="node17" class="node"><title>Node17</title>
<polygon fill="white" stroke="#bfbfbf" points="171,-112.5 171,-131.5 259,-131.5 259,-112.5 171,-112.5"/>
<text text-anchor="middle" x="215" y="-119.5" font-family="Helvetica,sans-Serif" font-size="10.00">boost/locale.hpp</text>
</g>
<!-- Node16&#45;&gt;Node17 -->
<g id="edge17" class="edge"><title>Node16&#45;&gt;Node17</title>
<path fill="none" stroke="midnightblue" d="M245.89,-168.083C240.718,-160.534 233.154,-149.495 226.806,-140.23"/>
<polygon fill="midnightblue" stroke="midnightblue" points="229.536,-138.022 220.996,-131.751 223.761,-141.979 229.536,-138.022"/>
</g>
<!-- Node18 -->
<g id="node18" class="node"><title>Node18</title>
<g id="a_node18"><a xlink:href="_point_8hpp.html" target="_top" xlink:title="Classe point. ">
<polygon fill="white" stroke="black" points="430,-112.5 430,-131.5 488,-131.5 488,-112.5 430,-112.5"/>
<text text-anchor="middle" x="459" y="-119.5" font-family="Helvetica,sans-Serif" font-size="10.00">Point.hpp</text>
</a>
</g>
</g>
<!-- Node16&#45;&gt;Node18 -->
<g id="edge20" class="edge"><title>Node16&#45;&gt;Node18</title>
<path fill="none" stroke="midnightblue" d="M284.8,-168.444C321.427,-158.889 380.682,-143.431 419.743,-133.241"/>
<polygon fill="midnightblue" stroke="midnightblue" points="420.908,-136.554 429.701,-130.643 419.141,-129.781 420.908,-136.554"/>
</g>
<!-- Node22 -->
<g id="node22" class="node"><title>Node22</title>
<g id="a_node22"><a xlink:href="_font_8hpp_source.html" target="_top" xlink:title="Font.hpp">
<polygon fill="white" stroke="black" points="356.5,-112.5 356.5,-131.5 411.5,-131.5 411.5,-112.5 356.5,-112.5"/>
<text text-anchor="middle" x="384" y="-119.5" font-family="Helvetica,sans-Serif" font-size="10.00">Font.hpp</text>
</a>
</g>
</g>
<!-- Node16&#45;&gt;Node22 -->
<g id="edge27" class="edge"><title>Node16&#45;&gt;Node22</title>
<path fill="none" stroke="midnightblue" d="M272.916,-168.444C294.736,-159.517 329.15,-145.439 353.892,-135.317"/>
<polygon fill="midnightblue" stroke="midnightblue" points="355.252,-138.542 363.182,-131.516 352.601,-132.063 355.252,-138.542"/>
</g>
<!-- Node18&#45;&gt;Node9 -->
<g id="edge22" class="edge"><title>Node18&#45;&gt;Node9</title>
<path fill="none" stroke="midnightblue" d="M478.49,-112.444C498.642,-103.596 530.323,-89.6875 553.331,-79.5865"/>
<polygon fill="midnightblue" stroke="midnightblue" points="554.852,-82.7411 562.601,-75.5164 552.038,-76.3316 554.852,-82.7411"/>
</g>
<!-- Node18&#45;&gt;Node11 -->
<g id="edge23" class="edge"><title>Node18&#45;&gt;Node11</title>
<path fill="none" stroke="midnightblue" d="M468.158,-112.324C476.501,-104.42 489.032,-92.5482 499.177,-82.9377"/>
<polygon fill="midnightblue" stroke="midnightblue" points="501.823,-85.2522 506.675,-75.8339 497.009,-80.1705 501.823,-85.2522"/>
</g>
<!-- Node19 -->
<g id="node19" class="node"><title>Node19</title>
<polygon fill="white" stroke="#bfbfbf" points="310,-56.5 310,-75.5 364,-75.5 364,-56.5 310,-56.5"/>
<text text-anchor="middle" x="337" y="-63.5" font-family="Helvetica,sans-Serif" font-size="10.00">iostream</text>
</g>
<!-- Node18&#45;&gt;Node19 -->
<g id="edge21" class="edge"><title>Node18&#45;&gt;Node19</title>
<path fill="none" stroke="midnightblue" d="M439.669,-112.444C419.68,-103.596 388.257,-89.6875 365.436,-79.5865"/>
<polygon fill="midnightblue" stroke="midnightblue" points="366.802,-76.3635 356.241,-75.5164 363.968,-82.7645 366.802,-76.3635"/>
</g>
<!-- Node20 -->
<g id="node20" class="node"><title>Node20</title>
<g id="a_node20"><a xlink:href="_group_points_8hpp_source.html" target="_top" xlink:title="GroupPoints.hpp">
<polygon fill="white" stroke="black" points="382.5,-56.5 382.5,-75.5 471.5,-75.5 471.5,-56.5 382.5,-56.5"/>
<text text-anchor="middle" x="427" y="-63.5" font-family="Helvetica,sans-Serif" font-size="10.00">GroupPoints.hpp</text>
</a>
</g>
</g>
<!-- Node18&#45;&gt;Node20 -->
<g id="edge24" class="edge"><title>Node18&#45;&gt;Node20</title>
<path fill="none" stroke="midnightblue" d="M448.55,-112.083C442.673,-104.77 435.983,-94.1814 431.315,-85.1034"/>
<polygon fill="midnightblue" stroke="midnightblue" points="434.385,-83.4006 427.055,-75.7511 428.015,-86.3023 434.385,-83.4006"/>
</g>
<!-- Node20&#45;&gt;Node18 -->
<g id="edge26" class="edge"><title>Node20&#45;&gt;Node18</title>
<path fill="none" stroke="midnightblue" d="M437.317,-75.7511C443.244,-83.0922 450.024,-93.8168 454.729,-102.983"/>
<polygon fill="midnightblue" stroke="midnightblue" points="451.547,-104.438 458.882,-112.083 457.915,-101.532 451.547,-104.438"/>
</g>
<!-- Node21 -->
<g id="node21" class="node"><title>Node21</title>
<polygon fill="white" stroke="#bfbfbf" points="397.5,-0.5 397.5,-19.5 456.5,-19.5 456.5,-0.5 397.5,-0.5"/>
<text text-anchor="middle" x="427" y="-7.5" font-family="Helvetica,sans-Serif" font-size="10.00">functional</text>
</g>
<!-- Node20&#45;&gt;Node21 -->
<g id="edge25" class="edge"><title>Node20&#45;&gt;Node21</title>
<path fill="none" stroke="midnightblue" d="M427,-56.083C427,-49.0059 427,-38.8611 427,-29.9865"/>
<polygon fill="midnightblue" stroke="midnightblue" points="430.5,-29.751 427,-19.7511 423.5,-29.7511 430.5,-29.751"/>
</g>
<!-- Node22&#45;&gt;Node19 -->
<g id="edge28" class="edge"><title>Node22&#45;&gt;Node19</title>
<path fill="none" stroke="midnightblue" d="M376.239,-112.083C369.463,-104.298 359.457,-92.8015 351.245,-83.3665"/>
<polygon fill="midnightblue" stroke="midnightblue" points="353.822,-80.9963 344.617,-75.7511 348.542,-85.592 353.822,-80.9963"/>
</g>
<!-- Node23&#45;&gt;Node15 -->
<g id="edge31" class="edge"><title>Node23&#45;&gt;Node15</title>
<path fill="none" stroke="midnightblue" d="M287.401,-112.444C266.007,-103.557 232.319,-89.5632 207.976,-79.4514"/>
<polygon fill="midnightblue" stroke="midnightblue" points="209.08,-76.1203 198.503,-75.5164 206.395,-82.5848 209.08,-76.1203"/>
</g>
<!-- Node23&#45;&gt;Node19 -->
<g id="edge30" class="edge"><title>Node23&#45;&gt;Node19</title>
<path fill="none" stroke="midnightblue" d="M312.789,-112.083C316.758,-104.691 322.525,-93.9533 327.435,-84.8111"/>
<polygon fill="midnightblue" stroke="midnightblue" points="330.653,-86.217 332.3,-75.7511 324.486,-82.9051 330.653,-86.217"/>
</g>
<!-- Node24&#45;&gt;Node8 -->
<g id="edge33" class="edge"><title>Node24&#45;&gt;Node8</title>
<path fill="none" stroke="midnightblue" d="M542.218,-280.444C494.821,-270.964 418.374,-255.675 367.417,-245.483"/>
<polygon fill="midnightblue" stroke="midnightblue" points="368.074,-242.046 357.582,-243.516 366.702,-248.91 368.074,-242.046"/>
</g>
<!-- Node24&#45;&gt;Node22 -->
<g id="edge34" class="edge"><title>Node24&#45;&gt;Node22</title>
<path fill="none" stroke="midnightblue" d="M574.476,-280.309C542.049,-253.528 443.373,-172.035 402.272,-138.09"/>
<polygon fill="midnightblue" stroke="midnightblue" points="404.359,-135.274 394.419,-131.605 399.901,-140.672 404.359,-135.274"/>
</g>
</g>
</svg>
