<?xml version="1.0" encoding="UTF-8" standalone="no"?>
<!DOCTYPE svg PUBLIC "-//W3C//DTD SVG 1.1//EN"
 "http://www.w3.org/Graphics/SVG/1.1/DTD/svg11.dtd">
<!-- Generated by graphviz version 2.36.0 (20140111.2315)
 -->
<!-- Title: Color.hpp Pages: 1 -->
<svg width="2094pt" height="532pt"
 viewBox="0.00 0.00 2094.21 532.00" xmlns="http://www.w3.org/2000/svg" xmlns:xlink="http://www.w3.org/1999/xlink">
<g id="graph0" class="graph" transform="scale(1 1) rotate(0) translate(4 528)">
<title>Color.hpp</title>
<polygon fill="white" stroke="none" points="-4,4 -4,-528 2090.21,-528 2090.21,4 -4,4"/>
<!-- Node1 -->
<g id="node1" class="node"><title>Node1</title>
<polygon fill="#bfbfbf" stroke="black" points="616.5,-504.5 616.5,-523.5 675.5,-523.5 675.5,-504.5 616.5,-504.5"/>
<text text-anchor="middle" x="646" y="-511.5" font-family="Helvetica,sans-Serif" font-size="10.00">Color.hpp</text>
</g>
<!-- Node2 -->
<g id="node2" class="node"><title>Node2</title>
<g id="a_node2"><a xlink:href="_canvas_8hpp_source.html" target="_top" xlink:title="Canvas.hpp">
<polygon fill="white" stroke="black" points="530.5,-448.5 530.5,-467.5 599.5,-467.5 599.5,-448.5 530.5,-448.5"/>
<text text-anchor="middle" x="565" y="-455.5" font-family="Helvetica,sans-Serif" font-size="10.00">Canvas.hpp</text>
</a>
</g>
</g>
<!-- Node1&#45;&gt;Node2 -->
<g id="edge1" class="edge"><title>Node1&#45;&gt;Node2</title>
<path fill="none" stroke="midnightblue" d="M624.433,-498.622C609.636,-488.757 590.488,-475.992 577.982,-467.655"/>
<polygon fill="midnightblue" stroke="midnightblue" points="622.724,-501.689 632.986,-504.324 626.607,-495.865 622.724,-501.689"/>
</g>
<!-- Node9 -->
<g id="node9" class="node"><title>Node9</title>
<g id="a_node9"><a xlink:href="_graphics_item_8hpp_source.html" target="_top" xlink:title="GraphicsItem.hpp">
<polygon fill="white" stroke="black" points="609,-392.5 609,-411.5 703,-411.5 703,-392.5 609,-392.5"/>
<text text-anchor="middle" x="656" y="-399.5" font-family="Helvetica,sans-Serif" font-size="10.00">GraphicsItem.hpp</text>
</a>
</g>
</g>
<!-- Node1&#45;&gt;Node9 -->
<g id="edge77" class="edge"><title>Node1&#45;&gt;Node9</title>
<path fill="none" stroke="midnightblue" d="M647.696,-494.348C649.886,-470.254 653.608,-429.308 655.219,-411.591"/>
<polygon fill="midnightblue" stroke="midnightblue" points="644.205,-494.093 646.785,-504.368 651.176,-494.726 644.205,-494.093"/>
</g>
<!-- Node50 -->
<g id="node50" class="node"><title>Node50</title>
<g id="a_node50"><a xlink:href="_color_8cpp_source.html" target="_top" xlink:title="Color.cpp">
<polygon fill="white" stroke="black" points="674.5,-448.5 674.5,-467.5 733.5,-467.5 733.5,-448.5 674.5,-448.5"/>
<text text-anchor="middle" x="704" y="-455.5" font-family="Helvetica,sans-Serif" font-size="10.00">Color.cpp</text>
</a>
</g>
</g>
<!-- Node1&#45;&gt;Node50 -->
<g id="edge76" class="edge"><title>Node1&#45;&gt;Node50</title>
<path fill="none" stroke="midnightblue" d="M662.913,-497.253C673.203,-487.673 685.966,-475.791 694.512,-467.834"/>
<polygon fill="midnightblue" stroke="midnightblue" points="660.253,-494.948 655.319,-504.324 665.023,-500.071 660.253,-494.948"/>
</g>
<!-- Node3 -->
<g id="node3" class="node"><title>Node3</title>
<g id="a_node3"><a xlink:href="_window_8hpp_source.html" target="_top" xlink:title="Window.hpp">
<polygon fill="white" stroke="black" points="63.5,-392.5 63.5,-411.5 134.5,-411.5 134.5,-392.5 63.5,-392.5"/>
<text text-anchor="middle" x="99" y="-399.5" font-family="Helvetica,sans-Serif" font-size="10.00">Window.hpp</text>
</a>
</g>
</g>
<!-- Node2&#45;&gt;Node3 -->
<g id="edge2" class="edge"><title>Node2&#45;&gt;Node3</title>
<path fill="none" stroke="midnightblue" d="M520.223,-451.811C427.945,-441.118 218.251,-416.819 134.51,-407.115"/>
<polygon fill="midnightblue" stroke="midnightblue" points="520.019,-455.311 530.355,-452.985 520.824,-448.357 520.019,-455.311"/>
</g>
<!-- Node8 -->
<g id="node8" class="node"><title>Node8</title>
<g id="a_node8"><a xlink:href="_canvas_8cpp_source.html" target="_top" xlink:title="Canvas.cpp">
<polygon fill="white" stroke="black" points="521.5,-392.5 521.5,-411.5 590.5,-411.5 590.5,-392.5 521.5,-392.5"/>
<text text-anchor="middle" x="556" y="-399.5" font-family="Helvetica,sans-Serif" font-size="10.00">Canvas.cpp</text>
</a>
</g>
</g>
<!-- Node2&#45;&gt;Node8 -->
<g id="edge7" class="edge"><title>Node2&#45;&gt;Node8</title>
<path fill="none" stroke="midnightblue" d="M561.85,-438.101C560.356,-429.136 558.643,-418.858 557.459,-411.751"/>
<polygon fill="midnightblue" stroke="midnightblue" points="558.417,-438.794 563.514,-448.083 565.322,-437.644 558.417,-438.794"/>
</g>
<!-- Node2&#45;&gt;Node9 -->
<g id="edge8" class="edge"><title>Node2&#45;&gt;Node9</title>
<path fill="none" stroke="midnightblue" d="M588.294,-443.177C605.039,-433.241 627.1,-420.149 641.416,-411.655"/>
<polygon fill="midnightblue" stroke="midnightblue" points="586.434,-440.211 579.621,-448.324 590.007,-446.231 586.434,-440.211"/>
</g>
<!-- Node4 -->
<g id="node4" class="node"><title>Node4</title>
<g id="a_node4"><a xlink:href="_main_window_8hpp_source.html" target="_top" xlink:title="MainWindow.hpp">
<polygon fill="white" stroke="black" points="191,-168.5 191,-187.5 283,-187.5 283,-168.5 191,-168.5"/>
<text text-anchor="middle" x="237" y="-175.5" font-family="Helvetica,sans-Serif" font-size="10.00">MainWindow.hpp</text>
</a>
</g>
</g>
<!-- Node3&#45;&gt;Node4 -->
<g id="edge3" class="edge"><title>Node3&#45;&gt;Node4</title>
<path fill="none" stroke="midnightblue" d="M103.922,-382.506C113.675,-348.405 138.035,-274.496 178,-224 190.152,-208.646 208.673,-195.66 221.716,-187.644"/>
<polygon fill="midnightblue" stroke="midnightblue" points="100.463,-381.882 101.173,-392.453 107.21,-383.747 100.463,-381.882"/>
</g>
<!-- Node7 -->
<g id="node7" class="node"><title>Node7</title>
<g id="a_node7"><a xlink:href="_window_8cpp_source.html" target="_top" xlink:title="Window.cpp">
<polygon fill="white" stroke="black" points="-0.5,-336.5 -0.5,-355.5 70.5,-355.5 70.5,-336.5 -0.5,-336.5"/>
<text text-anchor="middle" x="35" y="-343.5" font-family="Helvetica,sans-Serif" font-size="10.00">Window.cpp</text>
</a>
</g>
</g>
<!-- Node3&#45;&gt;Node7 -->
<g id="edge6" class="edge"><title>Node3&#45;&gt;Node7</title>
<path fill="none" stroke="midnightblue" d="M81.0085,-385.82C69.5424,-376.145 55.0867,-363.948 45.4698,-355.834"/>
<polygon fill="midnightblue" stroke="midnightblue" points="78.8173,-388.55 88.7173,-392.324 83.3314,-383.2 78.8173,-388.55"/>
</g>
<!-- Node5 -->
<g id="node5" class="node"><title>Node5</title>
<g id="a_node5"><a xlink:href="main_8cpp_source.html" target="_top" xlink:title="main.cpp">
<polygon fill="white" stroke="black" points="235,-112.5 235,-131.5 291,-131.5 291,-112.5 235,-112.5"/>
<text text-anchor="middle" x="263" y="-119.5" font-family="Helvetica,sans-Serif" font-size="10.00">main.cpp</text>
</a>
</g>
</g>
<!-- Node4&#45;&gt;Node5 -->
<g id="edge4" class="edge"><title>Node4&#45;&gt;Node5</title>
<path fill="none" stroke="midnightblue" d="M245.675,-158.983C250.088,-149.817 255.252,-139.092 258.787,-131.751"/>
<polygon fill="midnightblue" stroke="midnightblue" points="242.478,-157.555 241.293,-168.083 248.785,-160.591 242.478,-157.555"/>
</g>
<!-- Node6 -->
<g id="node6" class="node"><title>Node6</title>
<g id="a_node6"><a xlink:href="_main_window_8cpp_source.html" target="_top" xlink:title="MainWindow.cpp">
<polygon fill="white" stroke="black" points="550,-0.5 550,-19.5 642,-19.5 642,-0.5 550,-0.5"/>
<text text-anchor="middle" x="596" y="-7.5" font-family="Helvetica,sans-Serif" font-size="10.00">MainWindow.cpp</text>
</a>
</g>
</g>
<!-- Node4&#45;&gt;Node6 -->
<g id="edge5" class="edge"><title>Node4&#45;&gt;Node6</title>
<path fill="none" stroke="midnightblue" d="M228.295,-159.26C222.923,-145.646 218.378,-126.746 226,-112 245.762,-73.7678 265.113,-72.1647 305,-56 386.965,-22.7826 491.043,-13.91 549.915,-11.6484"/>
<polygon fill="midnightblue" stroke="midnightblue" points="225.129,-160.756 232.376,-168.485 231.531,-157.924 225.129,-160.756"/>
</g>
<!-- Node10 -->
<g id="node10" class="node"><title>Node10</title>
<g id="a_node10"><a xlink:href="_toy_8hpp_source.html" target="_top" xlink:title="Toy.hpp">
<polygon fill="white" stroke="black" points="339,-168.5 339,-187.5 391,-187.5 391,-168.5 339,-168.5"/>
<text text-anchor="middle" x="365" y="-175.5" font-family="Helvetica,sans-Serif" font-size="10.00">Toy.hpp</text>
</a>
</g>
</g>
<!-- Node9&#45;&gt;Node10 -->
<g id="edge9" class="edge"><title>Node9&#45;&gt;Node10</title>
<path fill="none" stroke="midnightblue" d="M598.742,-391.489C553.74,-383.146 495.51,-370.16 476,-356 459.855,-344.282 389.483,-221.985 370.01,-187.821"/>
<polygon fill="midnightblue" stroke="midnightblue" points="598.238,-394.955 608.703,-393.301 599.491,-388.068 598.238,-394.955"/>
</g>
<!-- Node12 -->
<g id="node12" class="node"><title>Node12</title>
<g id="a_node12"><a xlink:href="_graphics_animation_8hpp_source.html" target="_top" xlink:title="GraphicsAnimation.hpp">
<polygon fill="white" stroke="black" points="850,-336.5 850,-355.5 968,-355.5 968,-336.5 850,-336.5"/>
<text text-anchor="middle" x="909" y="-343.5" font-family="Helvetica,sans-Serif" font-size="10.00">GraphicsAnimation.hpp</text>
</a>
</g>
</g>
<!-- Node9&#45;&gt;Node12 -->
<g id="edge11" class="edge"><title>Node9&#45;&gt;Node12</title>
<path fill="none" stroke="midnightblue" d="M705.918,-390.346C753.731,-380.141 824.948,-364.94 869.099,-355.516"/>
<polygon fill="midnightblue" stroke="midnightblue" points="705.138,-386.933 696.089,-392.444 706.599,-393.779 705.138,-386.933"/>
</g>
<!-- Node17 -->
<g id="node17" class="node"><title>Node17</title>
<g id="a_node17"><a xlink:href="_graphics_shape_8hpp.html" target="_top" xlink:title="Classe GraphicsShape. ">
<polygon fill="white" stroke="black" points="1344,-280.5 1344,-299.5 1446,-299.5 1446,-280.5 1344,-280.5"/>
<text text-anchor="middle" x="1395" y="-287.5" font-family="Helvetica,sans-Serif" font-size="10.00">GraphicsShape.hpp</text>
</a>
</g>
</g>
<!-- Node9&#45;&gt;Node17 -->
<g id="edge16" class="edge"><title>Node9&#45;&gt;Node17</title>
<path fill="none" stroke="midnightblue" d="M713.006,-393.271C777.213,-384.505 884.658,-369.651 977,-356 1109.41,-336.425 1265.14,-311.778 1343.88,-299.202"/>
<polygon fill="midnightblue" stroke="midnightblue" points="712.517,-389.805 703.082,-394.625 713.463,-396.741 712.517,-389.805"/>
</g>
<!-- Node33 -->
<g id="node33" class="node"><title>Node33</title>
<g id="a_node33"><a xlink:href="_graphics_point_8hpp_source.html" target="_top" xlink:title="GraphicsPoint.hpp">
<polygon fill="white" stroke="black" points="1916.5,-224.5 1916.5,-243.5 2013.5,-243.5 2013.5,-224.5 1916.5,-224.5"/>
<text text-anchor="middle" x="1965" y="-231.5" font-family="Helvetica,sans-Serif" font-size="10.00">GraphicsPoint.hpp</text>
</a>
</g>
</g>
<!-- Node9&#45;&gt;Node33 -->
<g id="edge42" class="edge"><title>Node9&#45;&gt;Node33</title>
<path fill="none" stroke="midnightblue" d="M713.23,-394.883C790.586,-386.534 932.794,-370.9 1054,-356 1383.78,-315.46 1779.87,-260.806 1916.16,-241.827"/>
<polygon fill="midnightblue" stroke="midnightblue" points="712.778,-391.411 703.21,-395.963 713.528,-398.371 712.778,-391.411"/>
</g>
<!-- Node35 -->
<g id="node35" class="node"><title>Node35</title>
<g id="a_node35"><a xlink:href="_graphics_rectangle_8hpp_source.html" target="_top" xlink:title="GraphicsRectangle.hpp">
<polygon fill="white" stroke="black" points="205.5,-336.5 205.5,-355.5 324.5,-355.5 324.5,-336.5 205.5,-336.5"/>
<text text-anchor="middle" x="265" y="-343.5" font-family="Helvetica,sans-Serif" font-size="10.00">GraphicsRectangle.hpp</text>
</a>
</g>
</g>
<!-- Node9&#45;&gt;Node35 -->
<g id="edge46" class="edge"><title>Node9&#45;&gt;Node35</title>
<path fill="none" stroke="midnightblue" d="M598.824,-392.005C496.259,-377.07 389.574,-363.012 324.788,-354.64"/>
<polygon fill="midnightblue" stroke="midnightblue" points="598.334,-395.47 608.735,-393.453 599.346,-388.544 598.334,-395.47"/>
</g>
<!-- Node44 -->
<g id="node44" class="node"><title>Node44</title>
<g id="a_node44"><a xlink:href="_graphics_square_8hpp_source.html" target="_top" xlink:title="GraphicsSquare.hpp">
<polygon fill="white" stroke="black" points="485.5,-336.5 485.5,-355.5 590.5,-355.5 590.5,-336.5 485.5,-336.5"/>
<text text-anchor="middle" x="538" y="-343.5" font-family="Helvetica,sans-Serif" font-size="10.00">GraphicsSquare.hpp</text>
</a>
</g>
</g>
<!-- Node9&#45;&gt;Node44 -->
<g id="edge67" class="edge"><title>Node9&#45;&gt;Node44</title>
<path fill="none" stroke="midnightblue" d="M628.1,-388.232C606.027,-378.131 575.824,-364.309 556.61,-355.516"/>
<polygon fill="midnightblue" stroke="midnightblue" points="626.753,-391.465 637.303,-392.444 629.666,-385.1 626.753,-391.465"/>
</g>
<!-- Node46 -->
<g id="node46" class="node"><title>Node46</title>
<g id="a_node46"><a xlink:href="_graphics_text_8hpp.html" target="_top" xlink:title="Classe GraphicsText. ">
<polygon fill="white" stroke="black" points="680,-280.5 680,-299.5 774,-299.5 774,-280.5 680,-280.5"/>
<text text-anchor="middle" x="727" y="-287.5" font-family="Helvetica,sans-Serif" font-size="10.00">GraphicsText.hpp</text>
</a>
</g>
</g>
<!-- Node9&#45;&gt;Node46 -->
<g id="edge70" class="edge"><title>Node9&#45;&gt;Node46</title>
<path fill="none" stroke="midnightblue" d="M680.353,-386.807C691.593,-379.066 704.154,-368.505 712,-356 723.202,-338.145 726.058,-312.825 726.773,-299.678"/>
<polygon fill="midnightblue" stroke="midnightblue" points="678.224,-384.017 671.738,-392.395 682.033,-389.89 678.224,-384.017"/>
</g>
<!-- Node49 -->
<g id="node49" class="node"><title>Node49</title>
<g id="a_node49"><a xlink:href="_graphics_item_8cpp_source.html" target="_top" xlink:title="GraphicsItem.cpp">
<polygon fill="white" stroke="black" points="609,-336.5 609,-355.5 703,-355.5 703,-336.5 609,-336.5"/>
<text text-anchor="middle" x="656" y="-343.5" font-family="Helvetica,sans-Serif" font-size="10.00">GraphicsItem.cpp</text>
</a>
</g>
</g>
<!-- Node9&#45;&gt;Node49 -->
<g id="edge75" class="edge"><title>Node9&#45;&gt;Node49</title>
<path fill="none" stroke="midnightblue" d="M656,-381.805C656,-372.91 656,-362.78 656,-355.751"/>
<polygon fill="midnightblue" stroke="midnightblue" points="652.5,-382.083 656,-392.083 659.5,-382.083 652.5,-382.083"/>
</g>
<!-- Node11 -->
<g id="node11" class="node"><title>Node11</title>
<g id="a_node11"><a xlink:href="_graphics_factory_8cpp_source.html" target="_top" xlink:title="GraphicsFactory.cpp">
<polygon fill="white" stroke="black" points="1017.5,-0.5 1017.5,-19.5 1124.5,-19.5 1124.5,-0.5 1017.5,-0.5"/>
<text text-anchor="middle" x="1071" y="-7.5" font-family="Helvetica,sans-Serif" font-size="10.00">GraphicsFactory.cpp</text>
</a>
</g>
</g>
<!-- Node10&#45;&gt;Node11 -->
<g id="edge10" class="edge"><title>Node10&#45;&gt;Node11</title>
<path fill="none" stroke="midnightblue" d="M349.241,-160.377C337.932,-146.388 326.539,-126.416 338,-112 380.369,-58.7065 855.249,-24.4155 1017.24,-14.2023"/>
<polygon fill="midnightblue" stroke="midnightblue" points="346.859,-162.97 356.067,-168.21 352.136,-158.371 346.859,-162.97"/>
</g>
<!-- Node13 -->
<g id="node13" class="node"><title>Node13</title>
<g id="a_node13"><a xlink:href="_graphics_blink_animation_8hpp_source.html" target="_top" xlink:title="GraphicsBlinkAnimation.hpp">
<polygon fill="white" stroke="black" points="839,-280.5 839,-299.5 979,-299.5 979,-280.5 839,-280.5"/>
<text text-anchor="middle" x="909" y="-287.5" font-family="Helvetica,sans-Serif" font-size="10.00">GraphicsBlinkAnimation.hpp</text>
</a>
</g>
</g>
<!-- Node12&#45;&gt;Node13 -->
<g id="edge12" class="edge"><title>Node12&#45;&gt;Node13</title>
<path fill="none" stroke="midnightblue" d="M909,-325.805C909,-316.91 909,-306.78 909,-299.751"/>
<polygon fill="midnightblue" stroke="midnightblue" points="905.5,-326.083 909,-336.083 912.5,-326.083 905.5,-326.083"/>
</g>
<!-- Node16 -->
<g id="node16" class="node"><title>Node16</title>
<g id="a_node16"><a xlink:href="_graphics_animation_8cpp_source.html" target="_top" xlink:title="GraphicsAnimation.cpp">
<polygon fill="white" stroke="black" points="997,-280.5 997,-299.5 1115,-299.5 1115,-280.5 997,-280.5"/>
<text text-anchor="middle" x="1056" y="-287.5" font-family="Helvetica,sans-Serif" font-size="10.00">GraphicsAnimation.cpp</text>
</a>
</g>
</g>
<!-- Node12&#45;&gt;Node16 -->
<g id="edge15" class="edge"><title>Node12&#45;&gt;Node16</title>
<path fill="none" stroke="midnightblue" d="M941.923,-332.906C969.56,-322.754 1008.34,-308.506 1032.82,-299.516"/>
<polygon fill="midnightblue" stroke="midnightblue" points="940.472,-329.71 932.293,-336.444 942.886,-336.281 940.472,-329.71"/>
</g>
<!-- Node14 -->
<g id="node14" class="node"><title>Node14</title>
<g id="a_node14"><a xlink:href="_graphics_blink_animation_8cpp_source.html" target="_top" xlink:title="GraphicsBlinkAnimation.cpp">
<polygon fill="white" stroke="black" points="937,-224.5 937,-243.5 1077,-243.5 1077,-224.5 937,-224.5"/>
<text text-anchor="middle" x="1007" y="-231.5" font-family="Helvetica,sans-Serif" font-size="10.00">GraphicsBlinkAnimation.cpp</text>
</a>
</g>
</g>
<!-- Node13&#45;&gt;Node14 -->
<g id="edge13" class="edge"><title>Node13&#45;&gt;Node14</title>
<path fill="none" stroke="midnightblue" d="M933.586,-275.453C951.678,-265.483 975.735,-252.228 991.294,-243.655"/>
<polygon fill="midnightblue" stroke="midnightblue" points="931.815,-272.432 924.745,-280.324 935.193,-278.563 931.815,-272.432"/>
</g>
<!-- Node15 -->
<g id="node15" class="node"><title>Node15</title>
<g id="a_node15"><a xlink:href="_line_edit_8cpp_source.html" target="_top" xlink:title="LineEdit.cpp">
<polygon fill="white" stroke="black" points="810.5,-112.5 810.5,-131.5 881.5,-131.5 881.5,-112.5 810.5,-112.5"/>
<text text-anchor="middle" x="846" y="-119.5" font-family="Helvetica,sans-Serif" font-size="10.00">LineEdit.cpp</text>
</a>
</g>
</g>
<!-- Node13&#45;&gt;Node15 -->
<g id="edge14" class="edge"><title>Node13&#45;&gt;Node15</title>
<path fill="none" stroke="midnightblue" d="M904.333,-270.765C900.81,-257.625 895.632,-239.544 890,-224 877.36,-189.114 858.609,-149.1 850.268,-131.764"/>
<polygon fill="midnightblue" stroke="midnightblue" points="900.957,-271.689 906.877,-280.476 907.728,-269.915 900.957,-271.689"/>
</g>
<!-- Node18 -->
<g id="node18" class="node"><title>Node18</title>
<g id="a_node18"><a xlink:href="_graphics_circle_8hpp_source.html" target="_top" xlink:title="GraphicsCircle.hpp">
<polygon fill="white" stroke="black" points="1465,-224.5 1465,-243.5 1565,-243.5 1565,-224.5 1465,-224.5"/>
<text text-anchor="middle" x="1515" y="-231.5" font-family="Helvetica,sans-Serif" font-size="10.00">GraphicsCircle.hpp</text>
</a>
</g>
</g>
<!-- Node17&#45;&gt;Node18 -->
<g id="edge17" class="edge"><title>Node17&#45;&gt;Node18</title>
<path fill="none" stroke="midnightblue" d="M1423.37,-276.232C1445.82,-266.131 1476.54,-252.309 1496.07,-243.516"/>
<polygon fill="midnightblue" stroke="midnightblue" points="1421.7,-273.148 1414.01,-280.444 1424.57,-279.532 1421.7,-273.148"/>
</g>
<!-- Node20 -->
<g id="node20" class="node"><title>Node20</title>
<g id="a_node20"><a xlink:href="_graphics_ellipse_8hpp_source.html" target="_top" xlink:title="GraphicsEllipse.hpp">
<polygon fill="white" stroke="black" points="1343,-224.5 1343,-243.5 1447,-243.5 1447,-224.5 1343,-224.5"/>
<text text-anchor="middle" x="1395" y="-231.5" font-family="Helvetica,sans-Serif" font-size="10.00">GraphicsEllipse.hpp</text>
</a>
</g>
</g>
<!-- Node17&#45;&gt;Node20 -->
<g id="edge20" class="edge"><title>Node17&#45;&gt;Node20</title>
<path fill="none" stroke="midnightblue" d="M1395,-269.805C1395,-260.91 1395,-250.78 1395,-243.751"/>
<polygon fill="midnightblue" stroke="midnightblue" points="1391.5,-270.083 1395,-280.083 1398.5,-270.083 1391.5,-270.083"/>
</g>
<!-- Node22 -->
<g id="node22" class="node"><title>Node22</title>
<g id="a_node22"><a xlink:href="_graphics_line_8hpp_source.html" target="_top" xlink:title="GraphicsLine.hpp">
<polygon fill="white" stroke="black" points="1583,-224.5 1583,-243.5 1675,-243.5 1675,-224.5 1583,-224.5"/>
<text text-anchor="middle" x="1629" y="-231.5" font-family="Helvetica,sans-Serif" font-size="10.00">GraphicsLine.hpp</text>
</a>
</g>
</g>
<!-- Node17&#45;&gt;Node22 -->
<g id="edge23" class="edge"><title>Node17&#45;&gt;Node22</title>
<path fill="none" stroke="midnightblue" d="M1442,-278.153C1486.22,-267.95 1551.52,-252.881 1592.1,-243.516"/>
<polygon fill="midnightblue" stroke="midnightblue" points="1441.03,-274.784 1432.08,-280.444 1442.61,-281.605 1441.03,-274.784"/>
</g>
<!-- Node27 -->
<g id="node27" class="node"><title>Node27</title>
<g id="a_node27"><a xlink:href="_graphics_polygon_8hpp_source.html" target="_top" xlink:title="GraphicsPolygon.hpp">
<polygon fill="white" stroke="black" points="1711,-224.5 1711,-243.5 1821,-243.5 1821,-224.5 1711,-224.5"/>
<text text-anchor="middle" x="1766" y="-231.5" font-family="Helvetica,sans-Serif" font-size="10.00">GraphicsPolygon.hpp</text>
</a>
</g>
</g>
<!-- Node17&#45;&gt;Node27 -->
<g id="edge34" class="edge"><title>Node17&#45;&gt;Node27</title>
<path fill="none" stroke="midnightblue" d="M1456.31,-280.076C1527.15,-269.766 1642.66,-252.952 1710.8,-243.035"/>
<polygon fill="midnightblue" stroke="midnightblue" points="1455.59,-276.644 1446.2,-281.548 1456.6,-283.571 1455.59,-276.644"/>
</g>
<!-- Node30 -->
<g id="node30" class="node"><title>Node30</title>
<g id="a_node30"><a xlink:href="_graphics_triangle_8hpp.html" target="_top" xlink:title="Classe GraphicsTriangle. ">
<polygon fill="white" stroke="black" points="1215.5,-224.5 1215.5,-243.5 1324.5,-243.5 1324.5,-224.5 1215.5,-224.5"/>
<text text-anchor="middle" x="1270" y="-231.5" font-family="Helvetica,sans-Serif" font-size="10.00">GraphicsTriangle.hpp</text>
</a>
</g>
</g>
<!-- Node17&#45;&gt;Node30 -->
<g id="edge38" class="edge"><title>Node17&#45;&gt;Node30</title>
<path fill="none" stroke="midnightblue" d="M1365.76,-276.368C1342.35,-266.255 1310.16,-252.349 1289.71,-243.516"/>
<polygon fill="midnightblue" stroke="midnightblue" points="1364.63,-279.691 1375.19,-280.444 1367.4,-273.265 1364.63,-279.691"/>
</g>
<!-- Node32 -->
<g id="node32" class="node"><title>Node32</title>
<g id="a_node32"><a xlink:href="_graphics_shape_8cpp_source.html" target="_top" xlink:title="GraphicsShape.cpp">
<polygon fill="white" stroke="black" points="1095,-224.5 1095,-243.5 1197,-243.5 1197,-224.5 1095,-224.5"/>
<text text-anchor="middle" x="1146" y="-231.5" font-family="Helvetica,sans-Serif" font-size="10.00">GraphicsShape.cpp</text>
</a>
</g>
</g>
<!-- Node17&#45;&gt;Node32 -->
<g id="edge41" class="edge"><title>Node17&#45;&gt;Node32</title>
<path fill="none" stroke="midnightblue" d="M1345.58,-278.281C1298.52,-268.077 1228.63,-252.92 1185.27,-243.516"/>
<polygon fill="midnightblue" stroke="midnightblue" points="1345.03,-281.745 1355.55,-280.444 1346.51,-274.904 1345.03,-281.745"/>
</g>
<!-- Node18&#45;&gt;Node11 -->
<g id="edge18" class="edge"><title>Node18&#45;&gt;Node11</title>
<path fill="none" stroke="midnightblue" d="M1513.95,-214.023C1512.19,-199.713 1507.64,-180.482 1496,-168 1395.53,-60.2975 1214.66,-26.155 1124.75,-15.5845"/>
<polygon fill="midnightblue" stroke="midnightblue" points="1510.48,-214.564 1514.84,-224.221 1517.45,-213.954 1510.48,-214.564"/>
</g>
<!-- Node19 -->
<g id="node19" class="node"><title>Node19</title>
<g id="a_node19"><a xlink:href="_graphics_circle_8cpp_source.html" target="_top" xlink:title="GraphicsCircle.cpp">
<polygon fill="white" stroke="black" points="1387,-168.5 1387,-187.5 1487,-187.5 1487,-168.5 1387,-168.5"/>
<text text-anchor="middle" x="1437" y="-175.5" font-family="Helvetica,sans-Serif" font-size="10.00">GraphicsCircle.cpp</text>
</a>
</g>
</g>
<!-- Node18&#45;&gt;Node19 -->
<g id="edge19" class="edge"><title>Node18&#45;&gt;Node19</title>
<path fill="none" stroke="midnightblue" d="M1494.23,-218.622C1479.98,-208.757 1461.54,-195.992 1449.5,-187.655"/>
<polygon fill="midnightblue" stroke="midnightblue" points="1492.25,-221.51 1502.47,-224.324 1496.24,-215.754 1492.25,-221.51"/>
</g>
<!-- Node20&#45;&gt;Node11 -->
<g id="edge21" class="edge"><title>Node20&#45;&gt;Node11</title>
<path fill="none" stroke="midnightblue" d="M1342.76,-222.038C1315.63,-214.909 1282.67,-203.922 1256,-188 1174.32,-139.24 1099.92,-48.3147 1077.71,-19.7921"/>
<polygon fill="midnightblue" stroke="midnightblue" points="1341.92,-225.435 1352.47,-224.492 1343.64,-218.648 1341.92,-225.435"/>
</g>
<!-- Node21 -->
<g id="node21" class="node"><title>Node21</title>
<g id="a_node21"><a xlink:href="_graphics_ellipse_8cpp_source.html" target="_top" xlink:title="GraphicsEllipse.cpp">
<polygon fill="white" stroke="black" points="1265,-168.5 1265,-187.5 1369,-187.5 1369,-168.5 1265,-168.5"/>
<text text-anchor="middle" x="1317" y="-175.5" font-family="Helvetica,sans-Serif" font-size="10.00">GraphicsEllipse.cpp</text>
</a>
</g>
</g>
<!-- Node20&#45;&gt;Node21 -->
<g id="edge22" class="edge"><title>Node20&#45;&gt;Node21</title>
<path fill="none" stroke="midnightblue" d="M1374.23,-218.622C1359.98,-208.757 1341.54,-195.992 1329.5,-187.655"/>
<polygon fill="midnightblue" stroke="midnightblue" points="1372.25,-221.51 1382.47,-224.324 1376.24,-215.754 1372.25,-221.51"/>
</g>
<!-- Node22&#45;&gt;Node11 -->
<g id="edge24" class="edge"><title>Node22&#45;&gt;Node11</title>
<path fill="none" stroke="midnightblue" d="M1609.26,-217.9C1577.72,-194.077 1513.65,-146.896 1456,-112 1409.75,-83.9999 1399.33,-72.9929 1348,-56 1272.72,-31.0796 1181.21,-19.6576 1124.52,-14.6429"/>
<polygon fill="midnightblue" stroke="midnightblue" points="1607.53,-220.98 1617.61,-224.238 1611.76,-215.404 1607.53,-220.98"/>
</g>
<!-- Node23 -->
<g id="node23" class="node"><title>Node23</title>
<g id="a_node23"><a xlink:href="_graphics_line_8cpp_source.html" target="_top" xlink:title="GraphicsLine.cpp">
<polygon fill="white" stroke="black" points="1581,-168.5 1581,-187.5 1673,-187.5 1673,-168.5 1581,-168.5"/>
<text text-anchor="middle" x="1627" y="-175.5" font-family="Helvetica,sans-Serif" font-size="10.00">GraphicsLine.cpp</text>
</a>
</g>
</g>
<!-- Node22&#45;&gt;Node23 -->
<g id="edge25" class="edge"><title>Node22&#45;&gt;Node23</title>
<path fill="none" stroke="midnightblue" d="M1628.29,-213.805C1627.96,-204.91 1627.58,-194.78 1627.32,-187.751"/>
<polygon fill="midnightblue" stroke="midnightblue" points="1624.8,-214.219 1628.67,-224.083 1631.8,-213.96 1624.8,-214.219"/>
</g>
<!-- Node24 -->
<g id="node24" class="node"><title>Node24</title>
<g id="a_node24"><a xlink:href="_line_edit_8hpp_source.html" target="_top" xlink:title="LineEdit.hpp">
<polygon fill="white" stroke="black" points="682.5,-168.5 682.5,-187.5 753.5,-187.5 753.5,-168.5 682.5,-168.5"/>
<text text-anchor="middle" x="718" y="-175.5" font-family="Helvetica,sans-Serif" font-size="10.00">LineEdit.hpp</text>
</a>
</g>
</g>
<!-- Node22&#45;&gt;Node24 -->
<g id="edge26" class="edge"><title>Node22&#45;&gt;Node24</title>
<path fill="none" stroke="midnightblue" d="M1572.79,-223.994C1249.11,-189.662 869.834,-181.318 753.581,-179.474"/>
<polygon fill="midnightblue" stroke="midnightblue" points="1572.52,-227.484 1582.84,-225.069 1573.27,-220.524 1572.52,-227.484"/>
</g>
<!-- Node24&#45;&gt;Node6 -->
<g id="edge30" class="edge"><title>Node24&#45;&gt;Node6</title>
<path fill="none" stroke="midnightblue" d="M716.673,-158.067C713.96,-132.297 705.746,-85.9635 681,-56 666.327,-38.2334 642.773,-26.545 624.177,-19.5444"/>
<polygon fill="midnightblue" stroke="midnightblue" points="713.213,-158.672 717.573,-168.328 720.186,-158.06 713.213,-158.672"/>
</g>
<!-- Node24&#45;&gt;Node15 -->
<g id="edge33" class="edge"><title>Node24&#45;&gt;Node15</title>
<path fill="none" stroke="midnightblue" d="M747.623,-164.503C771.619,-154.38 804.784,-140.388 825.813,-131.516"/>
<polygon fill="midnightblue" stroke="midnightblue" points="746.135,-161.332 738.282,-168.444 748.856,-167.781 746.135,-161.332"/>
</g>
<!-- Node25 -->
<g id="node25" class="node"><title>Node25</title>
<g id="a_node25"><a xlink:href="_config_item_8hpp.html" target="_top" xlink:title="Classe ConfigItem. ">
<polygon fill="white" stroke="red" points="589.5,-56.5 589.5,-75.5 672.5,-75.5 672.5,-56.5 589.5,-56.5"/>
<text text-anchor="middle" x="631" y="-63.5" font-family="Helvetica,sans-Serif" font-size="10.00">ConfigItem.hpp</text>
</a>
</g>
</g>
<!-- Node24&#45;&gt;Node25 -->
<g id="edge27" class="edge"><title>Node24&#45;&gt;Node25</title>
<path fill="none" stroke="midnightblue" d="M704.77,-160.272C685.964,-136.494 652.188,-93.7889 637.795,-75.5914"/>
<polygon fill="midnightblue" stroke="midnightblue" points="702.225,-162.696 711.173,-168.368 707.715,-158.354 702.225,-162.696"/>
</g>
<!-- Node26 -->
<g id="node26" class="node"><title>Node26</title>
<g id="a_node26"><a xlink:href="_spin_box_8hpp_source.html" target="_top" xlink:title="SpinBox.hpp">
<polygon fill="white" stroke="red" points="347,-112.5 347,-131.5 419,-131.5 419,-112.5 347,-112.5"/>
<text text-anchor="middle" x="383" y="-119.5" font-family="Helvetica,sans-Serif" font-size="10.00">SpinBox.hpp</text>
</a>
</g>
</g>
<!-- Node24&#45;&gt;Node26 -->
<g id="edge31" class="edge"><title>Node24&#45;&gt;Node26</title>
<path fill="none" stroke="midnightblue" d="M672.059,-167.919C562.843,-149.278 533.264,-150.248 428,-132 425.174,-131.51 422.253,-130.98 419.319,-130.431"/>
<polygon fill="midnightblue" stroke="midnightblue" points="671.721,-171.412 682.17,-169.661 672.909,-164.513 671.721,-171.412"/>
</g>
<!-- Node25&#45;&gt;Node6 -->
<g id="edge29" class="edge"><title>Node25&#45;&gt;Node6</title>
<path fill="none" stroke="midnightblue" d="M619.7,-47.5656C613.678,-38.2747 606.531,-27.2484 601.672,-19.7511"/>
<polygon fill="midnightblue" stroke="midnightblue" points="616.844,-49.5951 625.22,-56.083 622.719,-45.7878 616.844,-49.5951"/>
</g>
<!-- Node25&#45;&gt;Node11 -->
<g id="edge28" class="edge"><title>Node25&#45;&gt;Node11</title>
<path fill="none" stroke="midnightblue" d="M682.874,-58.6336C766.934,-48.3172 932.072,-28.0503 1017.29,-17.5913"/>
<polygon fill="midnightblue" stroke="midnightblue" points="682.29,-55.179 672.791,-59.8711 683.143,-62.1268 682.29,-55.179"/>
</g>
<!-- Node26&#45;&gt;Node25 -->
<g id="edge32" class="edge"><title>Node26&#45;&gt;Node25</title>
<path fill="none" stroke="midnightblue" d="M428.928,-111C475.676,-100.821 547.38,-85.2075 591.616,-75.5756"/>
<polygon fill="midnightblue" stroke="midnightblue" points="428.088,-107.6 419.061,-113.148 429.577,-114.44 428.088,-107.6"/>
</g>
<!-- Node27&#45;&gt;Node11 -->
<g id="edge36" class="edge"><title>Node27&#45;&gt;Node11</title>
<path fill="none" stroke="midnightblue" d="M1749.27,-217.606C1733.04,-203.286 1707.22,-182.094 1682,-168 1558.85,-99.1814 1521.64,-91.1043 1385,-56 1295.26,-32.9436 1187.85,-20.7562 1124.75,-15.1101"/>
<polygon fill="midnightblue" stroke="midnightblue" points="1747.05,-220.319 1756.83,-224.395 1751.73,-215.11 1747.05,-220.319"/>
</g>
<!-- Node28 -->
<g id="node28" class="node"><title>Node28</title>
<g id="a_node28"><a xlink:href="_config_polygon_8cpp_source.html" target="_top" xlink:title="ConfigPolygon.cpp">
<polygon fill="white" stroke="black" points="1857.5,-168.5 1857.5,-187.5 1956.5,-187.5 1956.5,-168.5 1857.5,-168.5"/>
<text text-anchor="middle" x="1907" y="-175.5" font-family="Helvetica,sans-Serif" font-size="10.00">ConfigPolygon.cpp</text>
</a>
</g>
</g>
<!-- Node27&#45;&gt;Node28 -->
<g id="edge35" class="edge"><title>Node27&#45;&gt;Node28</title>
<path fill="none" stroke="midnightblue" d="M1797.93,-220.772C1824.41,-210.629 1861.39,-196.467 1884.76,-187.516"/>
<polygon fill="midnightblue" stroke="midnightblue" points="1796.43,-217.599 1788.34,-224.444 1798.93,-224.136 1796.43,-217.599"/>
</g>
<!-- Node29 -->
<g id="node29" class="node"><title>Node29</title>
<g id="a_node29"><a xlink:href="_graphics_polygon_8cpp_source.html" target="_top" xlink:title="GraphicsPolygon.cpp">
<polygon fill="white" stroke="black" points="1729,-168.5 1729,-187.5 1839,-187.5 1839,-168.5 1729,-168.5"/>
<text text-anchor="middle" x="1784" y="-175.5" font-family="Helvetica,sans-Serif" font-size="10.00">GraphicsPolygon.cpp</text>
</a>
</g>
</g>
<!-- Node27&#45;&gt;Node29 -->
<g id="edge37" class="edge"><title>Node27&#45;&gt;Node29</title>
<path fill="none" stroke="midnightblue" d="M1772.2,-214.396C1775.21,-205.362 1778.69,-194.936 1781.08,-187.751"/>
<polygon fill="midnightblue" stroke="midnightblue" points="1768.81,-213.489 1768.97,-224.083 1775.46,-215.703 1768.81,-213.489"/>
</g>
<!-- Node30&#45;&gt;Node11 -->
<g id="edge39" class="edge"><title>Node30&#45;&gt;Node11</title>
<path fill="none" stroke="midnightblue" d="M1215.15,-222.475C1165.65,-212.457 1099.34,-197.535 1091,-188 1047.44,-138.181 1062.73,-47.9672 1068.92,-19.7066"/>
<polygon fill="midnightblue" stroke="midnightblue" points="1214.63,-225.939 1225.12,-224.472 1216,-219.075 1214.63,-225.939"/>
</g>
<!-- Node31 -->
<g id="node31" class="node"><title>Node31</title>
<g id="a_node31"><a xlink:href="_graphics_triangle_8cpp_source.html" target="_top" xlink:title="GraphicsTriangle.cpp">
<polygon fill="white" stroke="black" points="1099.5,-168.5 1099.5,-187.5 1208.5,-187.5 1208.5,-168.5 1099.5,-168.5"/>
<text text-anchor="middle" x="1154" y="-175.5" font-family="Helvetica,sans-Serif" font-size="10.00">GraphicsTriangle.cpp</text>
</a>
</g>
</g>
<!-- Node30&#45;&gt;Node31 -->
<g id="edge40" class="edge"><title>Node30&#45;&gt;Node31</title>
<path fill="none" stroke="midnightblue" d="M1242.28,-220.096C1220.61,-210.007 1191.1,-196.27 1172.29,-187.516"/>
<polygon fill="midnightblue" stroke="midnightblue" points="1241.08,-223.396 1251.62,-224.444 1244.03,-217.05 1241.08,-223.396"/>
</g>
<!-- Node33&#45;&gt;Node11 -->
<g id="edge44" class="edge"><title>Node33&#45;&gt;Node11</title>
<path fill="none" stroke="midnightblue" d="M2020.46,-222.012C2059.76,-211.742 2101.91,-194.05 2080,-168 1955.97,-20.5415 1315.08,-10.3052 1124.51,-10.5731"/>
<polygon fill="midnightblue" stroke="midnightblue" points="2019.44,-218.66 2010.58,-224.464 2021.12,-225.454 2019.44,-218.66"/>
</g>
<!-- Node33&#45;&gt;Node28 -->
<g id="edge43" class="edge"><title>Node33&#45;&gt;Node28</title>
<path fill="none" stroke="midnightblue" d="M1948.09,-217.253C1937.8,-207.673 1925.03,-195.791 1916.49,-187.834"/>
<polygon fill="midnightblue" stroke="midnightblue" points="1945.98,-220.071 1955.68,-224.324 1950.75,-214.948 1945.98,-220.071"/>
</g>
<!-- Node34 -->
<g id="node34" class="node"><title>Node34</title>
<g id="a_node34"><a xlink:href="_graphics_point_8cpp_source.html" target="_top" xlink:title="GraphicsPoint.cpp">
<polygon fill="white" stroke="black" points="1974.5,-168.5 1974.5,-187.5 2071.5,-187.5 2071.5,-168.5 1974.5,-168.5"/>
<text text-anchor="middle" x="2023" y="-175.5" font-family="Helvetica,sans-Serif" font-size="10.00">GraphicsPoint.cpp</text>
</a>
</g>
</g>
<!-- Node33&#45;&gt;Node34 -->
<g id="edge45" class="edge"><title>Node33&#45;&gt;Node34</title>
<path fill="none" stroke="midnightblue" d="M1981.91,-217.253C1992.2,-207.673 2004.97,-195.791 2013.51,-187.834"/>
<polygon fill="midnightblue" stroke="midnightblue" points="1979.25,-214.948 1974.32,-224.324 1984.02,-220.071 1979.25,-214.948"/>
</g>
<!-- Node35&#45;&gt;Node11 -->
<g id="edge47" class="edge"><title>Node35&#45;&gt;Node11</title>
<path fill="none" stroke="midnightblue" d="M234.392,-331.84C220.638,-324.42 205.417,-313.832 196,-300 148.973,-230.922 130.447,-167.411 193,-112 277.584,-37.0736 329.216,-72.5167 441,-56 652.799,-24.7054 907.996,-14.9706 1017.19,-12.1127"/>
<polygon fill="midnightblue" stroke="midnightblue" points="233.084,-335.1 243.59,-336.472 236.233,-328.848 233.084,-335.1"/>
</g>
<!-- Node35&#45;&gt;Node24 -->
<g id="edge66" class="edge"><title>Node35&#45;&gt;Node24</title>
<path fill="none" stroke="midnightblue" d="M232.175,-331.878C218.517,-324.625 204.003,-314.164 196,-300 179.378,-270.582 171.02,-248.772 194,-224 230.298,-184.871 620.122,-195.247 673,-188 676,-187.589 679.1,-187.102 682.206,-186.57"/>
<polygon fill="midnightblue" stroke="midnightblue" points="230.883,-335.142 241.404,-336.392 233.959,-328.854 230.883,-335.142"/>
</g>
<!-- Node36 -->
<g id="node36" class="node"><title>Node36</title>
<g id="a_node36"><a xlink:href="_graphics_rectangle_8cpp_source.html" target="_top" xlink:title="GraphicsRectangle.cpp">
<polygon fill="white" stroke="black" points="205.5,-280.5 205.5,-299.5 324.5,-299.5 324.5,-280.5 205.5,-280.5"/>
<text text-anchor="middle" x="265" y="-287.5" font-family="Helvetica,sans-Serif" font-size="10.00">GraphicsRectangle.cpp</text>
</a>
</g>
</g>
<!-- Node35&#45;&gt;Node36 -->
<g id="edge48" class="edge"><title>Node35&#45;&gt;Node36</title>
<path fill="none" stroke="midnightblue" d="M265,-325.805C265,-316.91 265,-306.78 265,-299.751"/>
<polygon fill="midnightblue" stroke="midnightblue" points="261.5,-326.083 265,-336.083 268.5,-326.083 261.5,-326.083"/>
</g>
<!-- Node37 -->
<g id="node37" class="node"><title>Node37</title>
<g id="a_node37"><a xlink:href="_widget_8hpp_source.html" target="_top" xlink:title="Widget.hpp">
<polygon fill="white" stroke="black" points="346,-280.5 346,-299.5 412,-299.5 412,-280.5 346,-280.5"/>
<text text-anchor="middle" x="379" y="-287.5" font-family="Helvetica,sans-Serif" font-size="10.00">Widget.hpp</text>
</a>
</g>
</g>
<!-- Node35&#45;&gt;Node37 -->
<g id="edge49" class="edge"><title>Node35&#45;&gt;Node37</title>
<path fill="none" stroke="midnightblue" d="M292.242,-332.096C313.54,-322.007 342.542,-308.27 361.021,-299.516"/>
<polygon fill="midnightblue" stroke="midnightblue" points="290.603,-329 283.064,-336.444 293.599,-335.326 290.603,-329"/>
</g>
<!-- Node37&#45;&gt;Node4 -->
<g id="edge50" class="edge"><title>Node37&#45;&gt;Node4</title>
<path fill="none" stroke="midnightblue" d="M378.624,-270.033C377.359,-255.729 373.426,-236.5 362,-224 341.693,-201.783 309.607,-190.523 283.028,-184.823"/>
<polygon fill="midnightblue" stroke="midnightblue" points="375.14,-270.424 379.158,-280.227 382.13,-270.057 375.14,-270.424"/>
</g>
<!-- Node37&#45;&gt;Node26 -->
<g id="edge64" class="edge"><title>Node37&#45;&gt;Node26</title>
<path fill="none" stroke="midnightblue" d="M386.09,-271.067C394.525,-247.429 406.675,-204.559 400,-168 397.6,-154.855 391.559,-140.563 387.366,-131.693"/>
<polygon fill="midnightblue" stroke="midnightblue" points="382.794,-269.89 382.557,-280.482 389.347,-272.349 382.794,-269.89"/>
</g>
<!-- Node38 -->
<g id="node38" class="node"><title>Node38</title>
<g id="a_node38"><a xlink:href="_label_8hpp_source.html" target="_top" xlink:title="Label.hpp">
<polygon fill="white" stroke="red" points="531.5,-224.5 531.5,-243.5 590.5,-243.5 590.5,-224.5 531.5,-224.5"/>
<text text-anchor="middle" x="561" y="-231.5" font-family="Helvetica,sans-Serif" font-size="10.00">Label.hpp</text>
</a>
</g>
</g>
<!-- Node37&#45;&gt;Node38 -->
<g id="edge51" class="edge"><title>Node37&#45;&gt;Node38</title>
<path fill="none" stroke="midnightblue" d="M417.531,-277.568C451.864,-267.381 501.333,-252.703 532.296,-243.516"/>
<polygon fill="midnightblue" stroke="midnightblue" points="416.43,-274.244 407.838,-280.444 418.421,-280.954 416.43,-274.244"/>
</g>
<!-- Node42 -->
<g id="node42" class="node"><title>Node42</title>
<g id="a_node42"><a xlink:href="_layout_8hpp_source.html" target="_top" xlink:title="Layout.hpp">
<polygon fill="white" stroke="red" points="203.5,-224.5 203.5,-243.5 268.5,-243.5 268.5,-224.5 203.5,-224.5"/>
<text text-anchor="middle" x="236" y="-231.5" font-family="Helvetica,sans-Serif" font-size="10.00">Layout.hpp</text>
</a>
</g>
</g>
<!-- Node37&#45;&gt;Node42 -->
<g id="edge59" class="edge"><title>Node37&#45;&gt;Node42</title>
<path fill="none" stroke="midnightblue" d="M346.973,-276.906C320.088,-266.754 282.359,-252.506 258.553,-243.516"/>
<polygon fill="midnightblue" stroke="midnightblue" points="345.75,-280.185 356.341,-280.444 348.222,-273.636 345.75,-280.185"/>
</g>
<!-- Node43 -->
<g id="node43" class="node"><title>Node43</title>
<g id="a_node43"><a xlink:href="_widget_8cpp_source.html" target="_top" xlink:title="Widget.cpp">
<polygon fill="white" stroke="black" points="287,-224.5 287,-243.5 353,-243.5 353,-224.5 287,-224.5"/>
<text text-anchor="middle" x="320" y="-231.5" font-family="Helvetica,sans-Serif" font-size="10.00">Widget.cpp</text>
</a>
</g>
</g>
<!-- Node37&#45;&gt;Node43 -->
<g id="edge65" class="edge"><title>Node37&#45;&gt;Node43</title>
<path fill="none" stroke="midnightblue" d="M362.105,-273.537C351.585,-263.909 338.431,-251.869 329.652,-243.834"/>
<polygon fill="midnightblue" stroke="midnightblue" points="359.781,-276.154 369.521,-280.324 364.507,-270.99 359.781,-276.154"/>
</g>
<!-- Node38&#45;&gt;Node24 -->
<g id="edge57" class="edge"><title>Node38&#45;&gt;Node24</title>
<path fill="none" stroke="midnightblue" d="M595.389,-221.172C624.952,-211.004 666.873,-196.585 693.239,-187.516"/>
<polygon fill="midnightblue" stroke="midnightblue" points="594.195,-217.881 585.877,-224.444 596.472,-224.501 594.195,-217.881"/>
</g>
<!-- Node38&#45;&gt;Node25 -->
<g id="edge52" class="edge"><title>Node38&#45;&gt;Node25</title>
<path fill="none" stroke="midnightblue" d="M568.651,-214.856C583.665,-179.252 616.471,-101.453 627.387,-75.5681"/>
<polygon fill="midnightblue" stroke="midnightblue" points="565.424,-213.501 564.764,-224.075 571.874,-216.221 565.424,-213.501"/>
</g>
<!-- Node39 -->
<g id="node39" class="node"><title>Node39</title>
<g id="a_node39"><a xlink:href="_tools_window_8cpp_source.html" target="_top" xlink:title="ToolsWindow.cpp">
<polygon fill="white" stroke="black" points="437.5,-112.5 437.5,-131.5 532.5,-131.5 532.5,-112.5 437.5,-112.5"/>
<text text-anchor="middle" x="485" y="-119.5" font-family="Helvetica,sans-Serif" font-size="10.00">ToolsWindow.cpp</text>
</a>
</g>
</g>
<!-- Node38&#45;&gt;Node39 -->
<g id="edge53" class="edge"><title>Node38&#45;&gt;Node39</title>
<path fill="none" stroke="midnightblue" d="M521.591,-222.268C504.442,-215.425 486.007,-204.621 476,-188 465.305,-170.237 474.366,-144.878 480.498,-131.701"/>
<polygon fill="midnightblue" stroke="midnightblue" points="520.873,-225.73 531.467,-225.853 523.261,-219.15 520.873,-225.73"/>
</g>
<!-- Node40 -->
<g id="node40" class="node"><title>Node40</title>
<g id="a_node40"><a xlink:href="_button_8hpp.html" target="_top" xlink:title="Classe Button. ">
<polygon fill="white" stroke="red" points="485,-168.5 485,-187.5 549,-187.5 549,-168.5 485,-168.5"/>
<text text-anchor="middle" x="517" y="-175.5" font-family="Helvetica,sans-Serif" font-size="10.00">Button.hpp</text>
</a>
</g>
</g>
<!-- Node38&#45;&gt;Node40 -->
<g id="edge54" class="edge"><title>Node38&#45;&gt;Node40</title>
<path fill="none" stroke="midnightblue" d="M547.265,-216.144C539.599,-206.736 530.367,-195.405 524.131,-187.751"/>
<polygon fill="midnightblue" stroke="midnightblue" points="544.704,-218.541 553.734,-224.083 550.131,-214.12 544.704,-218.541"/>
</g>
<!-- Node41 -->
<g id="node41" class="node"><title>Node41</title>
<g id="a_node41"><a xlink:href="_label_8cpp_source.html" target="_top" xlink:title="Label.cpp">
<polygon fill="white" stroke="black" points="605.5,-168.5 605.5,-187.5 664.5,-187.5 664.5,-168.5 605.5,-168.5"/>
<text text-anchor="middle" x="635" y="-175.5" font-family="Helvetica,sans-Serif" font-size="10.00">Label.cpp</text>
</a>
</g>
</g>
<!-- Node38&#45;&gt;Node41 -->
<g id="edge58" class="edge"><title>Node38&#45;&gt;Node41</title>
<path fill="none" stroke="midnightblue" d="M581.034,-218.38C594.409,-208.62 611.559,-196.106 622.894,-187.834"/>
<polygon fill="midnightblue" stroke="midnightblue" points="578.904,-215.602 572.889,-224.324 583.03,-221.257 578.904,-215.602"/>
</g>
<!-- Node40&#45;&gt;Node6 -->
<g id="edge55" class="edge"><title>Node40&#45;&gt;Node6</title>
<path fill="none" stroke="midnightblue" d="M526.702,-159.432C531.179,-151.17 536.488,-141.145 541,-132 561.52,-90.4048 583.723,-39.5342 592.316,-19.5956"/>
<polygon fill="midnightblue" stroke="midnightblue" points="523.493,-158.004 521.764,-168.457 529.634,-161.364 523.493,-158.004"/>
</g>
<!-- Node40&#45;&gt;Node39 -->
<g id="edge56" class="edge"><title>Node40&#45;&gt;Node39</title>
<path fill="none" stroke="midnightblue" d="M506.496,-159.275C501.027,-150.045 494.582,-139.17 490.186,-131.751"/>
<polygon fill="midnightblue" stroke="midnightblue" points="503.607,-161.264 511.716,-168.083 509.629,-157.696 503.607,-161.264"/>
</g>
<!-- Node42&#45;&gt;Node4 -->
<g id="edge61" class="edge"><title>Node42&#45;&gt;Node4</title>
<path fill="none" stroke="midnightblue" d="M236.355,-213.805C236.52,-204.91 236.708,-194.78 236.838,-187.751"/>
<polygon fill="midnightblue" stroke="midnightblue" points="232.851,-214.02 236.165,-224.083 239.85,-214.15 232.851,-214.02"/>
</g>
<!-- Node42&#45;&gt;Node10 -->
<g id="edge62" class="edge"><title>Node42&#45;&gt;Node10</title>
<path fill="none" stroke="midnightblue" d="M265.854,-220.503C290.038,-210.38 323.462,-196.388 344.655,-187.516"/>
<polygon fill="midnightblue" stroke="midnightblue" points="264.313,-217.354 256.44,-224.444 267.016,-223.811 264.313,-217.354"/>
</g>
<!-- Node42&#45;&gt;Node25 -->
<g id="edge60" class="edge"><title>Node42&#45;&gt;Node25</title>
<path fill="none" stroke="midnightblue" d="M210.823,-219C199.812,-211.401 188.045,-200.906 182,-188 165.445,-152.655 191.894,-130.977 226,-112 287.588,-77.7323 498.648,-69.5469 589.196,-67.6018"/>
<polygon fill="midnightblue" stroke="midnightblue" points="209.057,-222.025 219.367,-224.464 212.828,-216.128 209.057,-222.025"/>
</g>
<!-- Node42&#45;&gt;Node26 -->
<g id="edge63" class="edge"><title>Node42&#45;&gt;Node26</title>
<path fill="none" stroke="midnightblue" d="M255.888,-218.118C287.091,-194.769 346.557,-150.27 371.519,-131.591"/>
<polygon fill="midnightblue" stroke="midnightblue" points="253.444,-215.575 247.535,-224.368 257.638,-221.179 253.444,-215.575"/>
</g>
<!-- Node44&#45;&gt;Node11 -->
<g id="edge68" class="edge"><title>Node44&#45;&gt;Node11</title>
<path fill="none" stroke="midnightblue" d="M559.722,-330.553C571.748,-322.173 586.704,-311.106 599,-300 632.856,-269.42 630.338,-249.749 668,-224 704.931,-198.751 728.545,-217.701 762,-188 790.544,-162.658 773.372,-137.248 802,-112 864.012,-57.3089 958.49,-31.0987 1017.4,-19.4157"/>
<polygon fill="midnightblue" stroke="midnightblue" points="557.465,-327.856 551.19,-336.393 561.419,-333.632 557.465,-327.856"/>
</g>
<!-- Node45 -->
<g id="node45" class="node"><title>Node45</title>
<g id="a_node45"><a xlink:href="_graphics_square_8cpp_source.html" target="_top" xlink:title="GraphicsSquare.cpp">
<polygon fill="white" stroke="black" points="485.5,-280.5 485.5,-299.5 590.5,-299.5 590.5,-280.5 485.5,-280.5"/>
<text text-anchor="middle" x="538" y="-287.5" font-family="Helvetica,sans-Serif" font-size="10.00">GraphicsSquare.cpp</text>
</a>
</g>
</g>
<!-- Node44&#45;&gt;Node45 -->
<g id="edge69" class="edge"><title>Node44&#45;&gt;Node45</title>
<path fill="none" stroke="midnightblue" d="M538,-325.805C538,-316.91 538,-306.78 538,-299.751"/>
<polygon fill="midnightblue" stroke="midnightblue" points="534.5,-326.083 538,-336.083 541.5,-326.083 534.5,-326.083"/>
</g>
<!-- Node46&#45;&gt;Node11 -->
<g id="edge72" class="edge"><title>Node46&#45;&gt;Node11</title>
<path fill="none" stroke="midnightblue" d="M703.335,-275.017C684.287,-261.962 662.709,-241.863 676,-224 709.238,-179.327 745.031,-210.418 796,-188 907.221,-139.081 1024.66,-48.2623 1060.2,-19.7792"/>
<polygon fill="midnightblue" stroke="midnightblue" points="701.479,-277.985 711.774,-280.487 705.286,-272.111 701.479,-277.985"/>
</g>
<!-- Node46&#45;&gt;Node38 -->
<g id="edge74" class="edge"><title>Node46&#45;&gt;Node38</title>
<path fill="none" stroke="midnightblue" d="M691.047,-277.304C659.768,-267.129 615.179,-252.625 587.18,-243.516"/>
<polygon fill="midnightblue" stroke="midnightblue" points="690.105,-280.678 700.697,-280.444 692.27,-274.022 690.105,-280.678"/>
</g>
<!-- Node47 -->
<g id="node47" class="node"><title>Node47</title>
<g id="a_node47"><a xlink:href="_config_text_8cpp_source.html" target="_top" xlink:title="ConfigText.cpp">
<polygon fill="white" stroke="black" points="685.5,-224.5 685.5,-243.5 768.5,-243.5 768.5,-224.5 685.5,-224.5"/>
<text text-anchor="middle" x="727" y="-231.5" font-family="Helvetica,sans-Serif" font-size="10.00">ConfigText.cpp</text>
</a>
</g>
</g>
<!-- Node46&#45;&gt;Node47 -->
<g id="edge71" class="edge"><title>Node46&#45;&gt;Node47</title>
<path fill="none" stroke="midnightblue" d="M727,-269.805C727,-260.91 727,-250.78 727,-243.751"/>
<polygon fill="midnightblue" stroke="midnightblue" points="723.5,-270.083 727,-280.083 730.5,-270.083 723.5,-270.083"/>
</g>
<!-- Node48 -->
<g id="node48" class="node"><title>Node48</title>
<g id="a_node48"><a xlink:href="_graphics_text_8cpp_source.html" target="_top" xlink:title="GraphicsText.cpp">
<polygon fill="white" stroke="black" points="787,-224.5 787,-243.5 881,-243.5 881,-224.5 787,-224.5"/>
<text text-anchor="middle" x="834" y="-231.5" font-family="Helvetica,sans-Serif" font-size="10.00">GraphicsText.cpp</text>
</a>
</g>
</g>
<!-- Node46&#45;&gt;Node48 -->
<g id="edge73" class="edge"><title>Node46&#45;&gt;Node48</title>
<path fill="none" stroke="midnightblue" d="M753.302,-275.726C773.115,-265.727 799.707,-252.307 816.851,-243.655"/>
<polygon fill="midnightblue" stroke="midnightblue" points="751.542,-272.694 744.191,-280.324 754.696,-278.943 751.542,-272.694"/>
</g>
</g>
</svg>
