<?xml version="1.0" encoding="UTF-8" standalone="no"?>
<!DOCTYPE svg PUBLIC "-//W3C//DTD SVG 1.1//EN"
 "http://www.w3.org/Graphics/SVG/1.1/DTD/svg11.dtd">
<!-- Generated by graphviz version 2.36.0 (20140111.2315)
 -->
<!-- Title: Color.hpp Pages: 1 -->
<svg width="2080pt" height="308pt"
 viewBox="0.00 0.00 2080.00 308.00" xmlns="http://www.w3.org/2000/svg" xmlns:xlink="http://www.w3.org/1999/xlink">
<g id="graph0" class="graph" transform="scale(1 1) rotate(0) translate(4 304)">
<title>Color.hpp</title>
<polygon fill="white" stroke="none" points="-4,4 -4,-304 2076,-304 2076,4 -4,4"/>
<!-- Node1 -->
<g id="node1" class="node"><title>Node1</title>
<polygon fill="#bfbfbf" stroke="black" points="908.5,-280.5 908.5,-299.5 967.5,-299.5 967.5,-280.5 908.5,-280.5"/>
<text text-anchor="middle" x="938" y="-287.5" font-family="Helvetica,sans-Serif" font-size="10.00">Color.hpp</text>
</g>
<!-- Node2 -->
<g id="node2" class="node"><title>Node2</title>
<g id="a_node2"><a xlink:href="_color_8cpp.html" target="_top" xlink:title="Color.cpp">
<polygon fill="white" stroke="black" points="861.5,-224.5 861.5,-243.5 920.5,-243.5 920.5,-224.5 861.5,-224.5"/>
<text text-anchor="middle" x="891" y="-231.5" font-family="Helvetica,sans-Serif" font-size="10.00">Color.cpp</text>
</a>
</g>
</g>
<!-- Node1&#45;&gt;Node2 -->
<g id="edge1" class="edge"><title>Node1&#45;&gt;Node2</title>
<path fill="none" stroke="midnightblue" d="M923.579,-272.431C915.342,-262.967 905.346,-251.483 898.617,-243.751"/>
<polygon fill="midnightblue" stroke="midnightblue" points="921.034,-274.838 930.239,-280.083 926.314,-270.242 921.034,-274.838"/>
</g>
<!-- Node3 -->
<g id="node3" class="node"><title>Node3</title>
<g id="a_node3"><a xlink:href="_graphics_item_8hpp.html" target="_top" xlink:title="Classe GraphicsItem. ">
<polygon fill="white" stroke="black" points="939,-224.5 939,-243.5 1033,-243.5 1033,-224.5 939,-224.5"/>
<text text-anchor="middle" x="986" y="-231.5" font-family="Helvetica,sans-Serif" font-size="10.00">GraphicsItem.hpp</text>
</a>
</g>
</g>
<!-- Node1&#45;&gt;Node3 -->
<g id="edge2" class="edge"><title>Node1&#45;&gt;Node3</title>
<path fill="none" stroke="midnightblue" d="M952.728,-272.431C961.14,-262.967 971.349,-251.483 978.221,-243.751"/>
<polygon fill="midnightblue" stroke="midnightblue" points="949.954,-270.284 945.926,-280.083 955.186,-274.934 949.954,-270.284"/>
</g>
<!-- Node4 -->
<g id="node4" class="node"><title>Node4</title>
<g id="a_node4"><a xlink:href="_main_window_8hpp.html" target="_top" xlink:title="MainWindow.hpp">
<polygon fill="white" stroke="black" points="38,-168.5 38,-187.5 130,-187.5 130,-168.5 38,-168.5"/>
<text text-anchor="middle" x="84" y="-175.5" font-family="Helvetica,sans-Serif" font-size="10.00">MainWindow.hpp</text>
</a>
</g>
</g>
<!-- Node3&#45;&gt;Node4 -->
<g id="edge3" class="edge"><title>Node3&#45;&gt;Node4</title>
<path fill="none" stroke="midnightblue" d="M928.619,-224.359C842.905,-218.454 293.791,-189.886 130.004,-181.385"/>
<polygon fill="midnightblue" stroke="midnightblue" points="928.528,-227.862 938.772,-225.158 929.078,-220.884 928.528,-227.862"/>
</g>
<!-- Node7 -->
<g id="node7" class="node"><title>Node7</title>
<g id="a_node7"><a xlink:href="_tools_windows_8hpp.html" target="_top" xlink:title="ToolsWindows.hpp">
<polygon fill="white" stroke="black" points="1709,-168.5 1709,-187.5 1809,-187.5 1809,-168.5 1709,-168.5"/>
<text text-anchor="middle" x="1759" y="-175.5" font-family="Helvetica,sans-Serif" font-size="10.00">ToolsWindows.hpp</text>
</a>
</g>
</g>
<!-- Node3&#45;&gt;Node7 -->
<g id="edge6" class="edge"><title>Node3&#45;&gt;Node7</title>
<path fill="none" stroke="midnightblue" d="M1043.43,-231.05C1164.76,-226.561 1456.02,-213.843 1699,-188 1702.25,-187.655 1705.59,-187.261 1708.95,-186.836"/>
<polygon fill="midnightblue" stroke="midnightblue" points="1043.12,-227.558 1033.26,-231.421 1043.38,-234.554 1043.12,-227.558"/>
</g>
<!-- Node8 -->
<g id="node8" class="node"><title>Node8</title>
<g id="a_node8"><a xlink:href="_graphics_point_8hpp.html" target="_top" xlink:title="GraphicsPoint.hpp">
<polygon fill="white" stroke="black" points="1470.5,-168.5 1470.5,-187.5 1567.5,-187.5 1567.5,-168.5 1470.5,-168.5"/>
<text text-anchor="middle" x="1519" y="-175.5" font-family="Helvetica,sans-Serif" font-size="10.00">GraphicsPoint.hpp</text>
</a>
</g>
</g>
<!-- Node3&#45;&gt;Node8 -->
<g id="edge7" class="edge"><title>Node3&#45;&gt;Node8</title>
<path fill="none" stroke="midnightblue" d="M1043.44,-227.181C1148.91,-216.495 1371.66,-193.927 1470.27,-183.937"/>
<polygon fill="midnightblue" stroke="midnightblue" points="1042.9,-223.718 1033.3,-228.208 1043.6,-230.682 1042.9,-223.718"/>
</g>
<!-- Node19 -->
<g id="node19" class="node"><title>Node19</title>
<g id="a_node19"><a xlink:href="_graphics_animation_8hpp.html" target="_top" xlink:title="GraphicsAnimation.hpp">
<polygon fill="white" stroke="black" points="270,-168.5 270,-187.5 388,-187.5 388,-168.5 270,-168.5"/>
<text text-anchor="middle" x="329" y="-175.5" font-family="Helvetica,sans-Serif" font-size="10.00">GraphicsAnimation.hpp</text>
</a>
</g>
</g>
<!-- Node3&#45;&gt;Node19 -->
<g id="edge25" class="edge"><title>Node3&#45;&gt;Node19</title>
<path fill="none" stroke="midnightblue" d="M928.672,-224.091C808.111,-210.793 514.482,-191.068 388.164,-182.818"/>
<polygon fill="midnightblue" stroke="midnightblue" points="928.432,-227.586 938.764,-225.237 929.222,-220.631 928.432,-227.586"/>
</g>
<!-- Node24 -->
<g id="node24" class="node"><title>Node24</title>
<g id="a_node24"><a xlink:href="_graphics_shape_8hpp.html" target="_top" xlink:title="Classe GraphicsShape. ">
<polygon fill="white" stroke="black" points="1044,-168.5 1044,-187.5 1146,-187.5 1146,-168.5 1044,-168.5"/>
<text text-anchor="middle" x="1095" y="-175.5" font-family="Helvetica,sans-Serif" font-size="10.00">GraphicsShape.hpp</text>
</a>
</g>
</g>
<!-- Node3&#45;&gt;Node24 -->
<g id="edge30" class="edge"><title>Node3&#45;&gt;Node24</title>
<path fill="none" stroke="midnightblue" d="M1012.52,-219.862C1032.73,-209.849 1059.99,-196.346 1077.53,-187.655"/>
<polygon fill="midnightblue" stroke="midnightblue" points="1010.92,-216.748 1003.51,-224.324 1014.03,-223.021 1010.92,-216.748"/>
</g>
<!-- Node32 -->
<g id="node32" class="node"><title>Node32</title>
<g id="a_node32"><a xlink:href="_graphics_rectangle_8hpp.html" target="_top" xlink:title="GraphicsRectangle.hpp">
<polygon fill="white" stroke="black" points="678.5,-112.5 678.5,-131.5 797.5,-131.5 797.5,-112.5 678.5,-112.5"/>
<text text-anchor="middle" x="738" y="-119.5" font-family="Helvetica,sans-Serif" font-size="10.00">GraphicsRectangle.hpp</text>
</a>
</g>
</g>
<!-- Node3&#45;&gt;Node32 -->
<g id="edge45" class="edge"><title>Node3&#45;&gt;Node32</title>
<path fill="none" stroke="midnightblue" d="M957.378,-220.305C906.325,-197.66 800.837,-150.871 757.37,-131.591"/>
<polygon fill="midnightblue" stroke="midnightblue" points="955.98,-223.513 966.54,-224.368 958.818,-217.114 955.98,-223.513"/>
</g>
<!-- Node33 -->
<g id="node33" class="node"><title>Node33</title>
<g id="a_node33"><a xlink:href="_graphics_square_8hpp.html" target="_top" xlink:title="GraphicsSquare.hpp">
<polygon fill="white" stroke="black" points="1585.5,-168.5 1585.5,-187.5 1690.5,-187.5 1690.5,-168.5 1585.5,-168.5"/>
<text text-anchor="middle" x="1638" y="-175.5" font-family="Helvetica,sans-Serif" font-size="10.00">GraphicsSquare.hpp</text>
</a>
</g>
</g>
<!-- Node3&#45;&gt;Node33 -->
<g id="edge48" class="edge"><title>Node3&#45;&gt;Node33</title>
<path fill="none" stroke="midnightblue" d="M1043.25,-229.931C1148.8,-223.985 1381.09,-209.555 1576,-188 1579.03,-187.665 1582.13,-187.296 1585.27,-186.904"/>
<polygon fill="midnightblue" stroke="midnightblue" points="1042.93,-226.444 1033.14,-230.497 1043.32,-233.433 1042.93,-226.444"/>
</g>
<!-- Node34 -->
<g id="node34" class="node"><title>Node34</title>
<g id="a_node34"><a xlink:href="_graphics_text_8hpp.html" target="_top" xlink:title="Classe GraphicsText. ">
<polygon fill="white" stroke="black" points="481,-168.5 481,-187.5 575,-187.5 575,-168.5 481,-168.5"/>
<text text-anchor="middle" x="528" y="-175.5" font-family="Helvetica,sans-Serif" font-size="10.00">GraphicsText.hpp</text>
</a>
</g>
</g>
<!-- Node3&#45;&gt;Node34 -->
<g id="edge50" class="edge"><title>Node3&#45;&gt;Node34</title>
<path fill="none" stroke="midnightblue" d="M928.466,-224.004C774.847,-204.166 734.143,-207.565 585,-188 581.821,-187.583 578.547,-187.13 575.25,-186.656"/>
<polygon fill="midnightblue" stroke="midnightblue" points="928.382,-227.522 938.75,-225.344 929.287,-220.581 928.382,-227.522"/>
</g>
<!-- Node36 -->
<g id="node36" class="node"><title>Node36</title>
<g id="a_node36"><a xlink:href="_graphics_item_8cpp.html" target="_top" xlink:title="GraphicsItem.cpp">
<polygon fill="white" stroke="black" points="1827,-168.5 1827,-187.5 1921,-187.5 1921,-168.5 1827,-168.5"/>
<text text-anchor="middle" x="1874" y="-175.5" font-family="Helvetica,sans-Serif" font-size="10.00">GraphicsItem.cpp</text>
</a>
</g>
</g>
<!-- Node3&#45;&gt;Node36 -->
<g id="edge53" class="edge"><title>Node3&#45;&gt;Node36</title>
<path fill="none" stroke="midnightblue" d="M1043.17,-231.981C1178.29,-229.12 1527.83,-219.078 1818,-188 1820.94,-187.685 1823.96,-187.321 1826.99,-186.923"/>
<polygon fill="midnightblue" stroke="midnightblue" points="1042.98,-228.484 1033.05,-232.19 1043.12,-235.482 1042.98,-228.484"/>
</g>
<!-- Node37 -->
<g id="node37" class="node"><title>Node37</title>
<g id="a_node37"><a xlink:href="_widget_8hpp.html" target="_top" xlink:title="Widget.hpp">
<polygon fill="white" stroke="black" points="594,-168.5 594,-187.5 660,-187.5 660,-168.5 594,-168.5"/>
<text text-anchor="middle" x="627" y="-175.5" font-family="Helvetica,sans-Serif" font-size="10.00">Widget.hpp</text>
</a>
</g>
</g>
<!-- Node3&#45;&gt;Node37 -->
<g id="edge54" class="edge"><title>Node3&#45;&gt;Node37</title>
<path fill="none" stroke="midnightblue" d="M928.633,-223.956C824.113,-207.95 713.923,-191.721 660.083,-183.834"/>
<polygon fill="midnightblue" stroke="midnightblue" points="928.313,-227.447 938.728,-225.504 929.374,-220.528 928.313,-227.447"/>
</g>
<!-- Node5 -->
<g id="node5" class="node"><title>Node5</title>
<g id="a_node5"><a xlink:href="main_8cpp.html" target="_top" xlink:title="main.cpp">
<polygon fill="white" stroke="black" points="0,-112.5 0,-131.5 56,-131.5 56,-112.5 0,-112.5"/>
<text text-anchor="middle" x="28" y="-119.5" font-family="Helvetica,sans-Serif" font-size="10.00">main.cpp</text>
</a>
</g>
</g>
<!-- Node4&#45;&gt;Node5 -->
<g id="edge4" class="edge"><title>Node4&#45;&gt;Node5</title>
<path fill="none" stroke="midnightblue" d="M67.6701,-161.253C57.735,-151.673 45.4125,-139.791 37.1611,-131.834"/>
<polygon fill="midnightblue" stroke="midnightblue" points="65.3747,-163.902 75.0026,-168.324 70.2336,-158.863 65.3747,-163.902"/>
</g>
<!-- Node6 -->
<g id="node6" class="node"><title>Node6</title>
<g id="a_node6"><a xlink:href="_main_window_8cpp.html" target="_top" xlink:title="MainWindow.cpp">
<polygon fill="white" stroke="black" points="219,-0.5 219,-19.5 311,-19.5 311,-0.5 219,-0.5"/>
<text text-anchor="middle" x="265" y="-7.5" font-family="Helvetica,sans-Serif" font-size="10.00">MainWindow.cpp</text>
</a>
</g>
</g>
<!-- Node4&#45;&gt;Node6 -->
<g id="edge5" class="edge"><title>Node4&#45;&gt;Node6</title>
<path fill="none" stroke="midnightblue" d="M81.2307,-158.271C78.4751,-132.026 77.7395,-84.3519 103,-56 131.933,-23.5265 182.065,-13.6099 218.918,-10.9934"/>
<polygon fill="midnightblue" stroke="midnightblue" points="77.7823,-158.9 82.5091,-168.382 84.727,-158.022 77.7823,-158.9"/>
</g>
<!-- Node9 -->
<g id="node9" class="node"><title>Node9</title>
<g id="a_node9"><a xlink:href="_graphics_anchor_8hpp.html" target="_top" xlink:title="GraphicsAnchor.hpp">
<polygon fill="white" stroke="black" points="1566.5,-112.5 1566.5,-131.5 1671.5,-131.5 1671.5,-112.5 1566.5,-112.5"/>
<text text-anchor="middle" x="1619" y="-119.5" font-family="Helvetica,sans-Serif" font-size="10.00">GraphicsAnchor.hpp</text>
</a>
</g>
</g>
<!-- Node8&#45;&gt;Node9 -->
<g id="edge8" class="edge"><title>Node8&#45;&gt;Node9</title>
<path fill="none" stroke="midnightblue" d="M1544.09,-163.453C1562.55,-153.483 1587.1,-140.228 1602.97,-131.655"/>
<polygon fill="midnightblue" stroke="midnightblue" points="1542.2,-160.493 1535.07,-168.324 1545.53,-166.652 1542.2,-160.493"/>
</g>
<!-- Node11 -->
<g id="node11" class="node"><title>Node11</title>
<g id="a_node11"><a xlink:href="_graphics_circle_8cpp.html" target="_top" xlink:title="GraphicsCircle.cpp">
<polygon fill="white" stroke="black" points="1081,-56.5 1081,-75.5 1181,-75.5 1181,-56.5 1081,-56.5"/>
<text text-anchor="middle" x="1131" y="-63.5" font-family="Helvetica,sans-Serif" font-size="10.00">GraphicsCircle.cpp</text>
</a>
</g>
</g>
<!-- Node8&#45;&gt;Node11 -->
<g id="edge17" class="edge"><title>Node8&#45;&gt;Node11</title>
<path fill="none" stroke="midnightblue" d="M1460,-169.085C1417.81,-162.254 1360.21,-150.511 1312,-132 1295.27,-125.578 1293.44,-119.126 1277,-112 1240.38,-96.1224 1196.35,-83.3607 1166.29,-75.5388"/>
<polygon fill="midnightblue" stroke="midnightblue" points="1459.68,-172.578 1470.11,-170.675 1460.77,-165.663 1459.68,-172.578"/>
</g>
<!-- Node12 -->
<g id="node12" class="node"><title>Node12</title>
<g id="a_node12"><a xlink:href="_graphics_ellipse_8cpp.html" target="_top" xlink:title="GraphicsEllipse.cpp">
<polygon fill="white" stroke="black" points="1309,-56.5 1309,-75.5 1413,-75.5 1413,-56.5 1309,-56.5"/>
<text text-anchor="middle" x="1361" y="-63.5" font-family="Helvetica,sans-Serif" font-size="10.00">GraphicsEllipse.cpp</text>
</a>
</g>
</g>
<!-- Node8&#45;&gt;Node12 -->
<g id="edge18" class="edge"><title>Node8&#45;&gt;Node12</title>
<path fill="none" stroke="midnightblue" d="M1512.32,-158.73C1506.19,-144.261 1495.8,-124.472 1481,-112 1458.97,-93.4318 1428.52,-82.1341 1403.81,-75.5028"/>
<polygon fill="midnightblue" stroke="midnightblue" points="1509.11,-160.128 1516.04,-168.145 1515.62,-157.559 1509.11,-160.128"/>
</g>
<!-- Node13 -->
<g id="node13" class="node"><title>Node13</title>
<g id="a_node13"><a xlink:href="_graphics_line_8cpp.html" target="_top" xlink:title="GraphicsLine.cpp">
<polygon fill="white" stroke="black" points="1199,-56.5 1199,-75.5 1291,-75.5 1291,-56.5 1199,-56.5"/>
<text text-anchor="middle" x="1245" y="-63.5" font-family="Helvetica,sans-Serif" font-size="10.00">GraphicsLine.cpp</text>
</a>
</g>
</g>
<!-- Node8&#45;&gt;Node13 -->
<g id="edge19" class="edge"><title>Node8&#45;&gt;Node13</title>
<path fill="none" stroke="midnightblue" d="M1464.62,-166.262C1431.57,-158.765 1388.97,-147.344 1353,-132 1315.76,-116.113 1275.94,-89.2427 1256.72,-75.56"/>
<polygon fill="midnightblue" stroke="midnightblue" points="1464.03,-169.716 1474.55,-168.462 1465.54,-162.881 1464.03,-169.716"/>
</g>
<!-- Node14 -->
<g id="node14" class="node"><title>Node14</title>
<g id="a_node14"><a xlink:href="_graphics_polygon_8cpp.html" target="_top" xlink:title="GraphicsPolygon.cpp">
<polygon fill="white" stroke="black" points="1431,-56.5 1431,-75.5 1541,-75.5 1541,-56.5 1431,-56.5"/>
<text text-anchor="middle" x="1486" y="-63.5" font-family="Helvetica,sans-Serif" font-size="10.00">GraphicsPolygon.cpp</text>
</a>
</g>
</g>
<!-- Node8&#45;&gt;Node14 -->
<g id="edge21" class="edge"><title>Node8&#45;&gt;Node14</title>
<path fill="none" stroke="midnightblue" d="M1519.89,-158.11C1519.96,-144.884 1518.91,-126.973 1514,-112 1509.47,-98.1847 1499.87,-84.2813 1493.18,-75.661"/>
<polygon fill="midnightblue" stroke="midnightblue" points="1516.39,-158.244 1519.62,-168.334 1523.38,-158.431 1516.39,-158.244"/>
</g>
<!-- Node15 -->
<g id="node15" class="node"><title>Node15</title>
<g id="a_node15"><a xlink:href="_graphics_rectangle_8cpp.html" target="_top" xlink:title="GraphicsRectangle.cpp">
<polygon fill="white" stroke="black" points="1559.5,-56.5 1559.5,-75.5 1678.5,-75.5 1678.5,-56.5 1559.5,-56.5"/>
<text text-anchor="middle" x="1619" y="-63.5" font-family="Helvetica,sans-Serif" font-size="10.00">GraphicsRectangle.cpp</text>
</a>
</g>
</g>
<!-- Node8&#45;&gt;Node15 -->
<g id="edge22" class="edge"><title>Node8&#45;&gt;Node15</title>
<path fill="none" stroke="midnightblue" d="M1569.03,-166.2C1613.68,-156.054 1673.09,-141.108 1680,-132 1696.56,-110.179 1661.06,-87.4596 1637.57,-75.5155"/>
<polygon fill="midnightblue" stroke="midnightblue" points="1568.16,-162.806 1559.18,-168.415 1569.7,-169.635 1568.16,-162.806"/>
</g>
<!-- Node16 -->
<g id="node16" class="node"><title>Node16</title>
<g id="a_node16"><a xlink:href="_graphics_square_8cpp.html" target="_top" xlink:title="GraphicsSquare.cpp">
<polygon fill="white" stroke="black" points="1967.5,-56.5 1967.5,-75.5 2072.5,-75.5 2072.5,-56.5 1967.5,-56.5"/>
<text text-anchor="middle" x="2020" y="-63.5" font-family="Helvetica,sans-Serif" font-size="10.00">GraphicsSquare.cpp</text>
</a>
</g>
</g>
<!-- Node8&#45;&gt;Node16 -->
<g id="edge23" class="edge"><title>Node8&#45;&gt;Node16</title>
<path fill="none" stroke="midnightblue" d="M1577.79,-168.161C1686.48,-158.822 1928.86,-189.367 2000,-132 2017.1,-118.215 2019.91,-90.1484 2020.17,-75.83"/>
<polygon fill="midnightblue" stroke="midnightblue" points="1577.29,-164.694 1567.7,-169.193 1578,-171.657 1577.29,-164.694"/>
</g>
<!-- Node17 -->
<g id="node17" class="node"><title>Node17</title>
<g id="a_node17"><a xlink:href="_graphics_triangle_8cpp.html" target="_top" xlink:title="GraphicsTriangle.cpp">
<polygon fill="white" stroke="black" points="1819.5,-56.5 1819.5,-75.5 1928.5,-75.5 1928.5,-56.5 1819.5,-56.5"/>
<text text-anchor="middle" x="1874" y="-63.5" font-family="Helvetica,sans-Serif" font-size="10.00">GraphicsTriangle.cpp</text>
</a>
</g>
</g>
<!-- Node8&#45;&gt;Node17 -->
<g id="edge24" class="edge"><title>Node8&#45;&gt;Node17</title>
<path fill="none" stroke="midnightblue" d="M1578.01,-168.078C1651.56,-160.124 1800.19,-166.722 1846,-132 1864.21,-118.195 1870.74,-90.1376 1872.95,-75.8256"/>
<polygon fill="midnightblue" stroke="midnightblue" points="1577.21,-164.65 1567.72,-169.364 1578.08,-171.596 1577.21,-164.65"/>
</g>
<!-- Node18 -->
<g id="node18" class="node"><title>Node18</title>
<g id="a_node18"><a xlink:href="_graphics_point_8cpp.html" target="_top" xlink:title="GraphicsPoint.cpp">
<polygon fill="white" stroke="black" points="1894.5,-112.5 1894.5,-131.5 1991.5,-131.5 1991.5,-112.5 1894.5,-112.5"/>
<text text-anchor="middle" x="1943" y="-119.5" font-family="Helvetica,sans-Serif" font-size="10.00">GraphicsPoint.cpp</text>
</a>
</g>
</g>
<!-- Node8&#45;&gt;Node18 -->
<g id="edge20" class="edge"><title>Node8&#45;&gt;Node18</title>
<path fill="none" stroke="midnightblue" d="M1577.64,-167.958C1713.02,-149.59 1748.68,-149.178 1880,-132 1884.6,-131.398 1889.39,-130.751 1894.18,-130.091"/>
<polygon fill="midnightblue" stroke="midnightblue" points="1577.15,-164.492 1567.72,-169.312 1578.1,-171.427 1577.15,-164.492"/>
</g>
<!-- Node10 -->
<g id="node10" class="node"><title>Node10</title>
<g id="a_node10"><a xlink:href="_graphics_anchor_8cpp.html" target="_top" xlink:title="GraphicsAnchor.cpp">
<polygon fill="white" stroke="black" points="1696.5,-56.5 1696.5,-75.5 1801.5,-75.5 1801.5,-56.5 1696.5,-56.5"/>
<text text-anchor="middle" x="1749" y="-63.5" font-family="Helvetica,sans-Serif" font-size="10.00">GraphicsAnchor.cpp</text>
</a>
</g>
</g>
<!-- Node9&#45;&gt;Node10 -->
<g id="edge9" class="edge"><title>Node9&#45;&gt;Node10</title>
<path fill="none" stroke="midnightblue" d="M1649.09,-108.503C1673.46,-98.3795 1707.14,-84.388 1728.5,-75.5164"/>
<polygon fill="midnightblue" stroke="midnightblue" points="1647.49,-105.375 1639.6,-112.444 1650.18,-111.84 1647.49,-105.375"/>
</g>
<!-- Node9&#45;&gt;Node11 -->
<g id="edge10" class="edge"><title>Node9&#45;&gt;Node11</title>
<path fill="none" stroke="midnightblue" d="M1556.3,-115.352C1472.64,-107.602 1319.95,-92.7173 1190,-76 1187.12,-75.6298 1184.17,-75.2329 1181.19,-74.8197"/>
<polygon fill="midnightblue" stroke="midnightblue" points="1556.13,-118.85 1566.41,-116.284 1556.77,-111.88 1556.13,-118.85"/>
</g>
<!-- Node9&#45;&gt;Node12 -->
<g id="edge11" class="edge"><title>Node9&#45;&gt;Node12</title>
<path fill="none" stroke="midnightblue" d="M1568.1,-110.346C1519.34,-100.141 1446.71,-84.94 1401.69,-75.5164"/>
<polygon fill="midnightblue" stroke="midnightblue" points="1567.61,-113.821 1578.12,-112.444 1569.05,-106.969 1567.61,-113.821"/>
</g>
<!-- Node9&#45;&gt;Node13 -->
<g id="edge12" class="edge"><title>Node9&#45;&gt;Node13</title>
<path fill="none" stroke="midnightblue" d="M1556.46,-112.593C1492.1,-103.844 1388.96,-89.5517 1300,-76 1297.13,-75.5629 1294.18,-75.1046 1291.2,-74.6361"/>
<polygon fill="midnightblue" stroke="midnightblue" points="1556.07,-116.072 1566.45,-113.949 1557.01,-109.136 1556.07,-116.072"/>
</g>
<!-- Node9&#45;&gt;Node14 -->
<g id="edge13" class="edge"><title>Node9&#45;&gt;Node14</title>
<path fill="none" stroke="midnightblue" d="M1588.55,-108.638C1563.59,-98.504 1528.92,-84.4274 1506.98,-75.5164"/>
<polygon fill="midnightblue" stroke="midnightblue" points="1587.34,-111.924 1597.93,-112.444 1589.98,-105.439 1587.34,-111.924"/>
</g>
<!-- Node9&#45;&gt;Node15 -->
<g id="edge14" class="edge"><title>Node9&#45;&gt;Node15</title>
<path fill="none" stroke="midnightblue" d="M1619,-101.805C1619,-92.9102 1619,-82.7798 1619,-75.7511"/>
<polygon fill="midnightblue" stroke="midnightblue" points="1615.5,-102.083 1619,-112.083 1622.5,-102.083 1615.5,-102.083"/>
</g>
<!-- Node9&#45;&gt;Node16 -->
<g id="edge15" class="edge"><title>Node9&#45;&gt;Node16</title>
<path fill="none" stroke="midnightblue" d="M1682.1,-112.503C1760.79,-101.906 1893.9,-83.9815 1967.37,-74.0879"/>
<polygon fill="midnightblue" stroke="midnightblue" points="1681.28,-109.082 1671.84,-113.885 1682.21,-116.019 1681.28,-109.082"/>
</g>
<!-- Node9&#45;&gt;Node17 -->
<g id="edge16" class="edge"><title>Node9&#45;&gt;Node17</title>
<path fill="none" stroke="midnightblue" d="M1669.31,-110.346C1717.5,-100.141 1789.28,-84.94 1833.78,-75.5164"/>
<polygon fill="midnightblue" stroke="midnightblue" points="1668.46,-106.948 1659.41,-112.444 1669.91,-113.796 1668.46,-106.948"/>
</g>
<!-- Node20 -->
<g id="node20" class="node"><title>Node20</title>
<g id="a_node20"><a xlink:href="_graphics_blink_animation_8hpp.html" target="_top" xlink:title="GraphicsBlinkAnimation.hpp">
<polygon fill="white" stroke="black" points="112,-112.5 112,-131.5 252,-131.5 252,-112.5 112,-112.5"/>
<text text-anchor="middle" x="182" y="-119.5" font-family="Helvetica,sans-Serif" font-size="10.00">GraphicsBlinkAnimation.hpp</text>
</a>
</g>
</g>
<!-- Node19&#45;&gt;Node20 -->
<g id="edge26" class="edge"><title>Node19&#45;&gt;Node20</title>
<path fill="none" stroke="midnightblue" d="M296.077,-164.906C268.44,-154.754 229.656,-140.506 205.184,-131.516"/>
<polygon fill="midnightblue" stroke="midnightblue" points="295.114,-168.281 305.707,-168.444 297.528,-161.71 295.114,-168.281"/>
</g>
<!-- Node23 -->
<g id="node23" class="node"><title>Node23</title>
<g id="a_node23"><a xlink:href="_graphics_animation_8cpp.html" target="_top" xlink:title="GraphicsAnimation.cpp">
<polygon fill="white" stroke="black" points="270,-112.5 270,-131.5 388,-131.5 388,-112.5 270,-112.5"/>
<text text-anchor="middle" x="329" y="-119.5" font-family="Helvetica,sans-Serif" font-size="10.00">GraphicsAnimation.cpp</text>
</a>
</g>
</g>
<!-- Node19&#45;&gt;Node23 -->
<g id="edge29" class="edge"><title>Node19&#45;&gt;Node23</title>
<path fill="none" stroke="midnightblue" d="M329,-157.805C329,-148.91 329,-138.78 329,-131.751"/>
<polygon fill="midnightblue" stroke="midnightblue" points="325.5,-158.083 329,-168.083 332.5,-158.083 325.5,-158.083"/>
</g>
<!-- Node21 -->
<g id="node21" class="node"><title>Node21</title>
<g id="a_node21"><a xlink:href="_graphics_blink_animation_8cpp.html" target="_top" xlink:title="GraphicsBlinkAnimation.cpp">
<polygon fill="white" stroke="black" points="112,-56.5 112,-75.5 252,-75.5 252,-56.5 112,-56.5"/>
<text text-anchor="middle" x="182" y="-63.5" font-family="Helvetica,sans-Serif" font-size="10.00">GraphicsBlinkAnimation.cpp</text>
</a>
</g>
</g>
<!-- Node20&#45;&gt;Node21 -->
<g id="edge27" class="edge"><title>Node20&#45;&gt;Node21</title>
<path fill="none" stroke="midnightblue" d="M182,-101.805C182,-92.9102 182,-82.7798 182,-75.7511"/>
<polygon fill="midnightblue" stroke="midnightblue" points="178.5,-102.083 182,-112.083 185.5,-102.083 178.5,-102.083"/>
</g>
<!-- Node22 -->
<g id="node22" class="node"><title>Node22</title>
<g id="a_node22"><a xlink:href="_line_edit_8cpp.html" target="_top" xlink:title="LineEdit.cpp">
<polygon fill="white" stroke="black" points="423.5,-0.5 423.5,-19.5 494.5,-19.5 494.5,-0.5 423.5,-0.5"/>
<text text-anchor="middle" x="459" y="-7.5" font-family="Helvetica,sans-Serif" font-size="10.00">LineEdit.cpp</text>
</a>
</g>
</g>
<!-- Node20&#45;&gt;Node22 -->
<g id="edge28" class="edge"><title>Node20&#45;&gt;Node22</title>
<path fill="none" stroke="midnightblue" d="M213.26,-108.586C270.011,-86.0499 388.613,-38.9513 437.365,-19.5914"/>
<polygon fill="midnightblue" stroke="midnightblue" points="211.738,-105.425 203.736,-112.368 214.322,-111.931 211.738,-105.425"/>
</g>
<!-- Node25 -->
<g id="node25" class="node"><title>Node25</title>
<g id="a_node25"><a xlink:href="_graphics_circle_8hpp.html" target="_top" xlink:title="GraphicsCircle.hpp">
<polygon fill="white" stroke="black" points="816,-112.5 816,-131.5 916,-131.5 916,-112.5 816,-112.5"/>
<text text-anchor="middle" x="866" y="-119.5" font-family="Helvetica,sans-Serif" font-size="10.00">GraphicsCircle.hpp</text>
</a>
</g>
</g>
<!-- Node24&#45;&gt;Node25 -->
<g id="edge31" class="edge"><title>Node24&#45;&gt;Node25</title>
<path fill="none" stroke="midnightblue" d="M1048.73,-166.088C1005.46,-155.887 941.745,-140.861 902.116,-131.516"/>
<polygon fill="midnightblue" stroke="midnightblue" points="1048.18,-169.555 1058.71,-168.444 1049.78,-162.742 1048.18,-169.555"/>
</g>
<!-- Node26 -->
<g id="node26" class="node"><title>Node26</title>
<g id="a_node26"><a xlink:href="_graphics_ellipse_8hpp.html" target="_top" xlink:title="GraphicsEllipse.hpp">
<polygon fill="white" stroke="black" points="1164,-112.5 1164,-131.5 1268,-131.5 1268,-112.5 1164,-112.5"/>
<text text-anchor="middle" x="1216" y="-119.5" font-family="Helvetica,sans-Serif" font-size="10.00">GraphicsEllipse.hpp</text>
</a>
</g>
</g>
<!-- Node24&#45;&gt;Node26 -->
<g id="edge33" class="edge"><title>Node24&#45;&gt;Node26</title>
<path fill="none" stroke="midnightblue" d="M1123.31,-164.368C1145.97,-154.255 1177.13,-140.349 1196.92,-131.516"/>
<polygon fill="midnightblue" stroke="midnightblue" points="1121.88,-161.172 1114.17,-168.444 1124.73,-167.564 1121.88,-161.172"/>
</g>
<!-- Node27 -->
<g id="node27" class="node"><title>Node27</title>
<g id="a_node27"><a xlink:href="_graphics_line_8hpp.html" target="_top" xlink:title="GraphicsLine.hpp">
<polygon fill="white" stroke="black" points="934,-112.5 934,-131.5 1026,-131.5 1026,-112.5 934,-112.5"/>
<text text-anchor="middle" x="980" y="-119.5" font-family="Helvetica,sans-Serif" font-size="10.00">GraphicsLine.hpp</text>
</a>
</g>
</g>
<!-- Node24&#45;&gt;Node27 -->
<g id="edge35" class="edge"><title>Node24&#45;&gt;Node27</title>
<path fill="none" stroke="midnightblue" d="M1067.52,-164.096C1046.03,-154.007 1016.78,-140.27 998.137,-131.516"/>
<polygon fill="midnightblue" stroke="midnightblue" points="1066.24,-167.361 1076.78,-168.444 1069.21,-161.025 1066.24,-167.361"/>
</g>
<!-- Node29 -->
<g id="node29" class="node"><title>Node29</title>
<g id="a_node29"><a xlink:href="_graphics_polygon_8hpp.html" target="_top" xlink:title="GraphicsPolygon.hpp">
<polygon fill="white" stroke="black" points="1362,-112.5 1362,-131.5 1472,-131.5 1472,-112.5 1362,-112.5"/>
<text text-anchor="middle" x="1417" y="-119.5" font-family="Helvetica,sans-Serif" font-size="10.00">GraphicsPolygon.hpp</text>
</a>
</g>
</g>
<!-- Node24&#45;&gt;Node29 -->
<g id="edge40" class="edge"><title>Node24&#45;&gt;Node29</title>
<path fill="none" stroke="midnightblue" d="M1156.25,-166.727C1217.1,-156.523 1309.32,-141.058 1366.22,-131.516"/>
<polygon fill="midnightblue" stroke="midnightblue" points="1155.31,-163.338 1146.02,-168.444 1156.46,-170.241 1155.31,-163.338"/>
</g>
<!-- Node30 -->
<g id="node30" class="node"><title>Node30</title>
<g id="a_node30"><a xlink:href="_graphics_triangle_8hpp.html" target="_top" xlink:title="Classe GraphicsTriangle. ">
<polygon fill="white" stroke="black" points="1728.5,-112.5 1728.5,-131.5 1837.5,-131.5 1837.5,-112.5 1728.5,-112.5"/>
<text text-anchor="middle" x="1783" y="-119.5" font-family="Helvetica,sans-Serif" font-size="10.00">GraphicsTriangle.hpp</text>
</a>
</g>
</g>
<!-- Node24&#45;&gt;Node30 -->
<g id="edge42" class="edge"><title>Node24&#45;&gt;Node30</title>
<path fill="none" stroke="midnightblue" d="M1156.52,-172.479C1263.14,-164.596 1489.15,-147.678 1680,-132 1695.74,-130.707 1712.83,-129.239 1728.49,-127.87"/>
<polygon fill="midnightblue" stroke="midnightblue" points="1155.98,-169.009 1146.27,-173.236 1156.5,-175.99 1155.98,-169.009"/>
</g>
<!-- Node31 -->
<g id="node31" class="node"><title>Node31</title>
<g id="a_node31"><a xlink:href="_graphics_shape_8cpp.html" target="_top" xlink:title="GraphicsShape.cpp">
<polygon fill="white" stroke="black" points="1044,-112.5 1044,-131.5 1146,-131.5 1146,-112.5 1044,-112.5"/>
<text text-anchor="middle" x="1095" y="-119.5" font-family="Helvetica,sans-Serif" font-size="10.00">GraphicsShape.cpp</text>
</a>
</g>
</g>
<!-- Node24&#45;&gt;Node31 -->
<g id="edge44" class="edge"><title>Node24&#45;&gt;Node31</title>
<path fill="none" stroke="midnightblue" d="M1095,-157.805C1095,-148.91 1095,-138.78 1095,-131.751"/>
<polygon fill="midnightblue" stroke="midnightblue" points="1091.5,-158.083 1095,-168.083 1098.5,-158.083 1091.5,-158.083"/>
</g>
<!-- Node25&#45;&gt;Node11 -->
<g id="edge32" class="edge"><title>Node25&#45;&gt;Node11</title>
<path fill="none" stroke="midnightblue" d="M917.972,-110.41C968.054,-100.204 1042.86,-84.9597 1089.21,-75.5164"/>
<polygon fill="midnightblue" stroke="midnightblue" points="917.09,-107.017 907.99,-112.444 918.488,-113.876 917.09,-107.017"/>
</g>
<!-- Node26&#45;&gt;Node12 -->
<g id="edge34" class="edge"><title>Node26&#45;&gt;Node12</title>
<path fill="none" stroke="midnightblue" d="M1248.48,-108.906C1275.74,-98.7536 1313.99,-84.5063 1338.13,-75.5164"/>
<polygon fill="midnightblue" stroke="midnightblue" points="1247.13,-105.674 1238.98,-112.444 1249.57,-112.233 1247.13,-105.674"/>
</g>
<!-- Node27&#45;&gt;Node13 -->
<g id="edge36" class="edge"><title>Node27&#45;&gt;Node13</title>
<path fill="none" stroke="midnightblue" d="M1031.97,-110.41C1082.05,-100.204 1156.86,-84.9597 1203.21,-75.5164"/>
<polygon fill="midnightblue" stroke="midnightblue" points="1031.09,-107.017 1021.99,-112.444 1032.49,-113.876 1031.09,-107.017"/>
</g>
<!-- Node28 -->
<g id="node28" class="node"><title>Node28</title>
<g id="a_node28"><a xlink:href="_line_edit_8hpp.html" target="_top" xlink:title="LineEdit.hpp">
<polygon fill="white" stroke="black" points="511.5,-56.5 511.5,-75.5 582.5,-75.5 582.5,-56.5 511.5,-56.5"/>
<text text-anchor="middle" x="547" y="-63.5" font-family="Helvetica,sans-Serif" font-size="10.00">LineEdit.hpp</text>
</a>
</g>
</g>
<!-- Node27&#45;&gt;Node28 -->
<g id="edge37" class="edge"><title>Node27&#45;&gt;Node28</title>
<path fill="none" stroke="midnightblue" d="M923.539,-111.846C791.804,-93.4214 647.852,-77.6321 582.505,-70.7032"/>
<polygon fill="midnightblue" stroke="midnightblue" points="923.419,-115.363 933.809,-113.291 924.394,-108.432 923.419,-115.363"/>
</g>
<!-- Node28&#45;&gt;Node6 -->
<g id="edge38" class="edge"><title>Node28&#45;&gt;Node6</title>
<path fill="none" stroke="midnightblue" d="M501.184,-56.2267C448.35,-46.1095 362.069,-29.5876 309.708,-19.5611"/>
<polygon fill="midnightblue" stroke="midnightblue" points="500.805,-59.7176 511.285,-58.1609 502.121,-52.8425 500.805,-59.7176"/>
</g>
<!-- Node28&#45;&gt;Node22 -->
<g id="edge39" class="edge"><title>Node28&#45;&gt;Node22</title>
<path fill="none" stroke="midnightblue" d="M524.023,-50.9005C507.887,-40.9986 486.819,-28.0705 473.104,-19.6545"/>
<polygon fill="midnightblue" stroke="midnightblue" points="522.507,-54.0769 532.861,-56.324 526.169,-48.1106 522.507,-54.0769"/>
</g>
<!-- Node29&#45;&gt;Node14 -->
<g id="edge41" class="edge"><title>Node29&#45;&gt;Node14</title>
<path fill="none" stroke="midnightblue" d="M1436.04,-106.101C1448.46,-96.3824 1464.24,-84.0269 1474.71,-75.8339"/>
<polygon fill="midnightblue" stroke="midnightblue" points="1433.8,-103.405 1428.09,-112.324 1438.12,-108.917 1433.8,-103.405"/>
</g>
<!-- Node30&#45;&gt;Node17 -->
<g id="edge43" class="edge"><title>Node30&#45;&gt;Node17</title>
<path fill="none" stroke="midnightblue" d="M1806.29,-107.177C1823.04,-97.2407 1845.1,-84.1492 1859.42,-75.6545"/>
<polygon fill="midnightblue" stroke="midnightblue" points="1804.43,-104.211 1797.62,-112.324 1808.01,-110.231 1804.43,-104.211"/>
</g>
<!-- Node32&#45;&gt;Node15 -->
<g id="edge46" class="edge"><title>Node32&#45;&gt;Node15</title>
<path fill="none" stroke="midnightblue" d="M808.139,-111.981C1138.06,-83.0576 1224.08,-105.103 1550,-76 1553.01,-75.7314 1556.09,-75.4294 1559.19,-75.1031"/>
<polygon fill="midnightblue" stroke="midnightblue" points="807.458,-108.528 797.806,-112.897 808.076,-115.501 807.458,-108.528"/>
</g>
<!-- Node32&#45;&gt;Node28 -->
<g id="edge47" class="edge"><title>Node32&#45;&gt;Node28</title>
<path fill="none" stroke="midnightblue" d="M698.027,-109.699C661.979,-99.507 609.757,-84.7429 577.123,-75.5164"/>
<polygon fill="midnightblue" stroke="midnightblue" points="697.16,-113.091 707.735,-112.444 699.065,-106.355 697.16,-113.091"/>
</g>
<!-- Node33&#45;&gt;Node16 -->
<g id="edge49" class="edge"><title>Node33&#45;&gt;Node16</title>
<path fill="none" stroke="midnightblue" d="M1700.8,-168.165C1789.83,-160.716 1986.02,-185.428 2034,-132 2048.19,-116.197 2034.75,-89.5316 2026.07,-75.7825"/>
<polygon fill="midnightblue" stroke="midnightblue" points="1700.33,-164.695 1690.75,-169.208 1701.06,-171.658 1700.33,-164.695"/>
</g>
<!-- Node34&#45;&gt;Node28 -->
<g id="edge52" class="edge"><title>Node34&#45;&gt;Node28</title>
<path fill="none" stroke="midnightblue" d="M531.222,-158.348C535.383,-134.254 542.456,-93.3079 545.516,-75.5914"/>
<polygon fill="midnightblue" stroke="midnightblue" points="527.744,-157.919 529.491,-168.368 534.642,-159.11 527.744,-157.919"/>
</g>
<!-- Node35 -->
<g id="node35" class="node"><title>Node35</title>
<g id="a_node35"><a xlink:href="_graphics_text_8cpp.html" target="_top" xlink:title="GraphicsText.cpp">
<polygon fill="white" stroke="black" points="406,-112.5 406,-131.5 500,-131.5 500,-112.5 406,-112.5"/>
<text text-anchor="middle" x="453" y="-119.5" font-family="Helvetica,sans-Serif" font-size="10.00">GraphicsText.cpp</text>
</a>
</g>
</g>
<!-- Node34&#45;&gt;Node35 -->
<g id="edge51" class="edge"><title>Node34&#45;&gt;Node35</title>
<path fill="none" stroke="midnightblue" d="M507.695,-162.38C494.139,-152.62 476.758,-140.106 465.269,-131.834"/>
<polygon fill="midnightblue" stroke="midnightblue" points="505.79,-165.321 515.95,-168.324 509.88,-159.641 505.79,-165.321"/>
</g>
<!-- Node37&#45;&gt;Node28 -->
<g id="edge55" class="edge"><title>Node37&#45;&gt;Node28</title>
<path fill="none" stroke="midnightblue" d="M610.464,-161.047C602.322,-152.77 592.641,-142.263 585,-132 570.949,-113.127 557.871,-88.6593 551.344,-75.7948"/>
<polygon fill="midnightblue" stroke="midnightblue" points="608.12,-163.653 617.681,-168.22 613.055,-158.688 608.12,-163.653"/>
</g>
<!-- Node38 -->
<g id="node38" class="node"><title>Node38</title>
<g id="a_node38"><a xlink:href="_widget_8cpp.html" target="_top" xlink:title="Widget.cpp">
<polygon fill="white" stroke="black" points="594,-112.5 594,-131.5 660,-131.5 660,-112.5 594,-112.5"/>
<text text-anchor="middle" x="627" y="-119.5" font-family="Helvetica,sans-Serif" font-size="10.00">Widget.cpp</text>
</a>
</g>
</g>
<!-- Node37&#45;&gt;Node38 -->
<g id="edge56" class="edge"><title>Node37&#45;&gt;Node38</title>
<path fill="none" stroke="midnightblue" d="M627,-157.805C627,-148.91 627,-138.78 627,-131.751"/>
<polygon fill="midnightblue" stroke="midnightblue" points="623.5,-158.083 627,-168.083 630.5,-158.083 623.5,-158.083"/>
</g>
</g>
</svg>
