<?xml version="1.0" encoding="UTF-8" standalone="no"?>
<!DOCTYPE svg PUBLIC "-//W3C//DTD SVG 1.1//EN"
 "http://www.w3.org/Graphics/SVG/1.1/DTD/svg11.dtd">
<!-- Generated by graphviz version 2.36.0 (20140111.2315)
 -->
<!-- Title: Color.hpp Pages: 1 -->
<!--zoomable 420 -->
<svg id="main" version="1.1" xmlns="http://www.w3.org/2000/svg" xmlns:xlink="http://www.w3.org/1999/xlink" xml:space="preserve" onload="init(evt)">
<style type="text/css"><![CDATA[
.edge:hover path { stroke: red; }
.edge:hover polygon { stroke: red; fill: red; }
]]></style>
<script type="text/javascript"><![CDATA[
var edges = document.getElementsByTagName('g');
if (edges && edges.length) {
  for (var i=0;i<edges.length;i++) {
    if (edges[i].id.substr(0,4)=='edge') {
      edges[i].setAttribute('class','edge');
    }
  }
}
]]></script>
        <defs>
                <circle id="rim" cx="0" cy="0" r="7"/>
                <circle id="rim2" cx="0" cy="0" r="3.5"/>
                <g id="zoomPlus">
                        <use xlink:href="#rim" fill="#404040">
                                <set attributeName="fill" to="#808080" begin="zoomplus.mouseover" end="zoomplus.mouseout"/>
                        </use>
                        <path d="M-4,0h8M0,-4v8" fill="none" stroke="white" stroke-width="1.5" pointer-events="none"/>
                </g>
                <g id="zoomMin">
                        <use xlink:href="#rim" fill="#404040">
                                <set attributeName="fill" to="#808080" begin="zoomminus.mouseover" end="zoomminus.mouseout"/>
                        </use>
                        <path d="M-4,0h8" fill="none" stroke="white" stroke-width="1.5" pointer-events="none"/>
                </g>
                <g id="dirArrow">
                        <path fill="none" stroke="white" stroke-width="1.5" d="M0,-3.0v7 M-2.5,-0.5L0,-3.0L2.5,-0.5"/>
                </g>
               <g id="resetDef">
                       <use xlink:href="#rim2" fill="#404040">
                               <set attributeName="fill" to="#808080" begin="reset.mouseover" end="reset.mouseout"/>
                       </use>
               </g>
        </defs>

<script type="text/javascript">
var viewWidth = 1698;
var viewHeight = 420;
var sectionId = 'dynsection-1';
</script>
<script xlink:href="svgpan.js"/>
<svg id="graph" class="graph">
<g id="viewport">
<title>Color.hpp</title>
<polygon fill="white" stroke="none" points="-4,4 -4,-416 1694.4,-416 1694.4,4 -4,4"/>
<!-- Node1 -->
<g id="node1" class="node"><title>Node1</title>
<polygon fill="#bfbfbf" stroke="black" points="420.897,-392.5 420.897,-411.5 479.897,-411.5 479.897,-392.5 420.897,-392.5"/>
<text text-anchor="middle" x="450.397" y="-399.5" font-family="Helvetica,sans-Serif" font-size="10.00">Color.hpp</text>
</g>
<!-- Node2 -->
<g id="node2" class="node"><title>Node2</title>
<g id="a_node2"><a xlink:href="_canvas_8hpp_source.html" target="_top" xlink:title="Canvas.hpp">
<polygon fill="white" stroke="black" points="333.897,-336.5 333.897,-355.5 402.897,-355.5 402.897,-336.5 333.897,-336.5"/>
<text text-anchor="middle" x="368.397" y="-343.5" font-family="Helvetica,sans-Serif" font-size="10.00">Canvas.hpp</text>
</a>
</g>
</g>
<!-- Node1&#45;&gt;Node2 -->
<g id="edge1" class="edge"><title>Node1&#45;&gt;Node2</title>
<path fill="none" stroke="midnightblue" d="M428.564,-386.622C413.584,-376.757 394.199,-363.992 381.539,-355.655"/>
<polygon fill="midnightblue" stroke="midnightblue" points="426.945,-389.747 437.222,-392.324 430.795,-383.901 426.945,-389.747"/>
</g>
<!-- Node9 -->
<g id="node9" class="node"><title>Node9</title>
<g id="a_node9"><a xlink:href="_graphics_item_8hpp_source.html" target="_top" xlink:title="GraphicsItem.hpp">
<polygon fill="white" stroke="black" points="590.397,-280.5 590.397,-299.5 684.397,-299.5 684.397,-280.5 590.397,-280.5"/>
<text text-anchor="middle" x="637.397" y="-287.5" font-family="Helvetica,sans-Serif" font-size="10.00">GraphicsItem.hpp</text>
</a>
</g>
</g>
<!-- Node1&#45;&gt;Node9 -->
<g id="edge64" class="edge"><title>Node1&#45;&gt;Node9</title>
<path fill="none" stroke="midnightblue" d="M451.404,-382.169C453.184,-367.634 457.929,-348.035 470.397,-336 502.37,-305.135 553.191,-294.918 590.38,-291.79"/>
<polygon fill="midnightblue" stroke="midnightblue" points="447.885,-382.237 450.521,-392.499 454.86,-382.833 447.885,-382.237"/>
</g>
<!-- Node47 -->
<g id="node47" class="node"><title>Node47</title>
<g id="a_node47"><a xlink:href="_color_8cpp_source.html" target="_top" xlink:title="Color.cpp">
<polygon fill="white" stroke="black" points="478.897,-336.5 478.897,-355.5 537.897,-355.5 537.897,-336.5 478.897,-336.5"/>
<text text-anchor="middle" x="508.397" y="-343.5" font-family="Helvetica,sans-Serif" font-size="10.00">Color.cpp</text>
</a>
</g>
</g>
<!-- Node1&#45;&gt;Node47 -->
<g id="edge63" class="edge"><title>Node1&#45;&gt;Node47</title>
<path fill="none" stroke="midnightblue" d="M467.31,-385.253C477.6,-375.673 490.362,-363.791 498.908,-355.834"/>
<polygon fill="midnightblue" stroke="midnightblue" points="464.649,-382.948 459.715,-392.324 469.419,-388.071 464.649,-382.948"/>
</g>
<!-- Node3 -->
<g id="node3" class="node"><title>Node3</title>
<g id="a_node3"><a xlink:href="_window_8hpp_source.html" target="_top" xlink:title="Window.hpp">
<polygon fill="white" stroke="black" points="323.897,-280.5 323.897,-299.5 394.897,-299.5 394.897,-280.5 323.897,-280.5"/>
<text text-anchor="middle" x="359.397" y="-287.5" font-family="Helvetica,sans-Serif" font-size="10.00">Window.hpp</text>
</a>
</g>
</g>
<!-- Node2&#45;&gt;Node3 -->
<g id="edge2" class="edge"><title>Node2&#45;&gt;Node3</title>
<path fill="none" stroke="midnightblue" d="M365.247,-326.101C363.753,-317.136 362.04,-306.858 360.855,-299.751"/>
<polygon fill="midnightblue" stroke="midnightblue" points="361.814,-326.794 366.911,-336.083 368.719,-325.644 361.814,-326.794"/>
</g>
<!-- Node8 -->
<g id="node8" class="node"><title>Node8</title>
<g id="a_node8"><a xlink:href="_canvas_8cpp_source.html" target="_top" xlink:title="Canvas.cpp">
<polygon fill="white" stroke="black" points="236.897,-280.5 236.897,-299.5 305.897,-299.5 305.897,-280.5 236.897,-280.5"/>
<text text-anchor="middle" x="271.397" y="-287.5" font-family="Helvetica,sans-Serif" font-size="10.00">Canvas.cpp</text>
</a>
</g>
</g>
<!-- Node2&#45;&gt;Node8 -->
<g id="edge7" class="edge"><title>Node2&#45;&gt;Node8</title>
<path fill="none" stroke="midnightblue" d="M344.062,-331.453C326.154,-321.483 302.343,-308.228 286.943,-299.655"/>
<polygon fill="midnightblue" stroke="midnightblue" points="342.372,-334.518 352.812,-336.324 345.777,-328.402 342.372,-334.518"/>
</g>
<!-- Node2&#45;&gt;Node9 -->
<g id="edge8" class="edge"><title>Node2&#45;&gt;Node9</title>
<path fill="none" stroke="midnightblue" d="M412.993,-336.048C463.531,-325.902 545.308,-309.486 594.942,-299.522"/>
<polygon fill="midnightblue" stroke="midnightblue" points="412.129,-332.651 403.013,-338.051 413.506,-339.514 412.129,-332.651"/>
</g>
<!-- Node4 -->
<g id="node4" class="node"><title>Node4</title>
<g id="a_node4"><a xlink:href="_main_window_8hpp_source.html" target="_top" xlink:title="MainWindow.hpp">
<polygon fill="white" stroke="black" points="63.3968,-112.5 63.3968,-131.5 155.397,-131.5 155.397,-112.5 63.3968,-112.5"/>
<text text-anchor="middle" x="109.397" y="-119.5" font-family="Helvetica,sans-Serif" font-size="10.00">MainWindow.hpp</text>
</a>
</g>
</g>
<!-- Node3&#45;&gt;Node4 -->
<g id="edge3" class="edge"><title>Node3&#45;&gt;Node4</title>
<path fill="none" stroke="midnightblue" d="M327.394,-276.619C307.745,-268.461 282.406,-256.921 261.397,-244 203.074,-208.13 141.67,-153.063 118.745,-131.799"/>
<polygon fill="midnightblue" stroke="midnightblue" points="326.236,-279.926 336.817,-280.455 328.875,-273.443 326.236,-279.926"/>
</g>
<!-- Node7 -->
<g id="node7" class="node"><title>Node7</title>
<g id="a_node7"><a xlink:href="_window_8cpp_source.html" target="_top" xlink:title="Window.cpp">
<polygon fill="white" stroke="black" points="81.8968,-224.5 81.8968,-243.5 152.897,-243.5 152.897,-224.5 81.8968,-224.5"/>
<text text-anchor="middle" x="117.397" y="-231.5" font-family="Helvetica,sans-Serif" font-size="10.00">Window.cpp</text>
</a>
</g>
</g>
<!-- Node3&#45;&gt;Node7 -->
<g id="edge6" class="edge"><title>Node3&#45;&gt;Node7</title>
<path fill="none" stroke="midnightblue" d="M313.863,-278.84C267.308,-268.451 195.943,-252.527 153.251,-243.001"/>
<polygon fill="midnightblue" stroke="midnightblue" points="313.167,-282.27 323.689,-281.032 314.691,-275.438 313.167,-282.27"/>
</g>
<!-- Node5 -->
<g id="node5" class="node"><title>Node5</title>
<g id="a_node5"><a xlink:href="main_8cpp_source.html" target="_top" xlink:title="main.cpp">
<polygon fill="white" stroke="black" points="14.3968,-56.5 14.3968,-75.5 70.3968,-75.5 70.3968,-56.5 14.3968,-56.5"/>
<text text-anchor="middle" x="42.3968" y="-63.5" font-family="Helvetica,sans-Serif" font-size="10.00">main.cpp</text>
</a>
</g>
</g>
<!-- Node4&#45;&gt;Node5 -->
<g id="edge4" class="edge"><title>Node4&#45;&gt;Node5</title>
<path fill="none" stroke="midnightblue" d="M90.5619,-105.82C78.5584,-96.1452 63.425,-83.9481 53.3573,-75.8339"/>
<polygon fill="midnightblue" stroke="midnightblue" points="88.6497,-108.774 98.632,-112.324 93.0424,-103.324 88.6497,-108.774"/>
</g>
<!-- Node6 -->
<g id="node6" class="node"><title>Node6</title>
<g id="a_node6"><a xlink:href="_main_window_8cpp_source.html" target="_top" xlink:title="MainWindow.cpp">
<polygon fill="white" stroke="black" points="128.397,-0.5 128.397,-19.5 220.397,-19.5 220.397,-0.5 128.397,-0.5"/>
<text text-anchor="middle" x="174.397" y="-7.5" font-family="Helvetica,sans-Serif" font-size="10.00">MainWindow.cpp</text>
</a>
</g>
</g>
<!-- Node4&#45;&gt;Node6 -->
<g id="edge5" class="edge"><title>Node4&#45;&gt;Node6</title>
<path fill="none" stroke="midnightblue" d="M60.2675,-109.705C24.699,-99.1545 -13.9942,-81.2299 5.39675,-56 20.2912,-36.6206 83.2946,-23.8183 128.004,-16.9854"/>
<polygon fill="midnightblue" stroke="midnightblue" points="59.592,-113.15 70.1659,-112.485 61.4849,-106.411 59.592,-113.15"/>
</g>
<!-- Node10 -->
<g id="node10" class="node"><title>Node10</title>
<g id="a_node10"><a xlink:href="_graphics_animation_8hpp_source.html" target="_top" xlink:title="GraphicsAnimation.hpp">
<polygon fill="white" stroke="black" points="859.397,-224.5 859.397,-243.5 977.397,-243.5 977.397,-224.5 859.397,-224.5"/>
<text text-anchor="middle" x="918.397" y="-231.5" font-family="Helvetica,sans-Serif" font-size="10.00">GraphicsAnimation.hpp</text>
</a>
</g>
</g>
<!-- Node9&#45;&gt;Node10 -->
<g id="edge9" class="edge"><title>Node9&#45;&gt;Node10</title>
<path fill="none" stroke="midnightblue" d="M691.842,-278.537C744.949,-268.332 824.734,-252.999 874.08,-243.516"/>
<polygon fill="midnightblue" stroke="midnightblue" points="691.082,-275.119 681.922,-280.444 692.403,-281.993 691.082,-275.119"/>
</g>
<!-- Node15 -->
<g id="node15" class="node"><title>Node15</title>
<g id="a_node15"><a xlink:href="_graphics_shape_8hpp.html" target="_top" xlink:title="Classe GraphicsShape. ">
<polygon fill="white" stroke="black" points="1181.4,-168.5 1181.4,-187.5 1283.4,-187.5 1283.4,-168.5 1181.4,-168.5"/>
<text text-anchor="middle" x="1232.4" y="-175.5" font-family="Helvetica,sans-Serif" font-size="10.00">GraphicsShape.hpp</text>
</a>
</g>
</g>
<!-- Node9&#45;&gt;Node15 -->
<g id="edge14" class="edge"><title>Node9&#45;&gt;Node15</title>
<path fill="none" stroke="midnightblue" d="M694.85,-283.905C764.322,-277.213 884.604,-263.923 986.397,-244 1066.6,-228.303 1159.35,-201.348 1204.63,-187.604"/>
<polygon fill="midnightblue" stroke="midnightblue" points="694.186,-280.452 684.562,-284.883 694.849,-287.421 694.186,-280.452"/>
</g>
<!-- Node29 -->
<g id="node29" class="node"><title>Node29</title>
<g id="a_node29"><a xlink:href="_graphics_point_8hpp_source.html" target="_top" xlink:title="GraphicsPoint.hpp">
<polygon fill="white" stroke="black" points="270.897,-224.5 270.897,-243.5 367.897,-243.5 367.897,-224.5 270.897,-224.5"/>
<text text-anchor="middle" x="319.397" y="-231.5" font-family="Helvetica,sans-Serif" font-size="10.00">GraphicsPoint.hpp</text>
</a>
</g>
</g>
<!-- Node9&#45;&gt;Node29 -->
<g id="edge33" class="edge"><title>Node9&#45;&gt;Node29</title>
<path fill="none" stroke="midnightblue" d="M579.972,-279.249C519.391,-268.961 424.97,-252.927 367.965,-243.247"/>
<polygon fill="midnightblue" stroke="midnightblue" points="579.687,-282.75 590.132,-280.974 580.859,-275.849 579.687,-282.75"/>
</g>
<!-- Node31 -->
<g id="node31" class="node"><title>Node31</title>
<g id="a_node31"><a xlink:href="_graphics_rectangle_8hpp_source.html" target="_top" xlink:title="GraphicsRectangle.hpp">
<polygon fill="white" stroke="black" points="447.897,-224.5 447.897,-243.5 566.897,-243.5 566.897,-224.5 447.897,-224.5"/>
<text text-anchor="middle" x="507.397" y="-231.5" font-family="Helvetica,sans-Serif" font-size="10.00">GraphicsRectangle.hpp</text>
</a>
</g>
</g>
<!-- Node9&#45;&gt;Node31 -->
<g id="edge35" class="edge"><title>Node9&#45;&gt;Node31</title>
<path fill="none" stroke="midnightblue" d="M607.311,-276.503C582.94,-266.38 549.257,-252.388 527.899,-243.516"/>
<polygon fill="midnightblue" stroke="midnightblue" points="606.22,-279.84 616.798,-280.444 608.906,-273.375 606.22,-279.84"/>
</g>
<!-- Node42 -->
<g id="node42" class="node"><title>Node42</title>
<g id="a_node42"><a xlink:href="_graphics_square_8hpp_source.html" target="_top" xlink:title="GraphicsSquare.hpp">
<polygon fill="white" stroke="black" points="584.897,-224.5 584.897,-243.5 689.897,-243.5 689.897,-224.5 584.897,-224.5"/>
<text text-anchor="middle" x="637.397" y="-231.5" font-family="Helvetica,sans-Serif" font-size="10.00">GraphicsSquare.hpp</text>
</a>
</g>
</g>
<!-- Node9&#45;&gt;Node42 -->
<g id="edge56" class="edge"><title>Node9&#45;&gt;Node42</title>
<path fill="none" stroke="midnightblue" d="M637.397,-269.805C637.397,-260.91 637.397,-250.78 637.397,-243.751"/>
<polygon fill="midnightblue" stroke="midnightblue" points="633.897,-270.083 637.397,-280.083 640.897,-270.083 633.897,-270.083"/>
</g>
<!-- Node44 -->
<g id="node44" class="node"><title>Node44</title>
<g id="a_node44"><a xlink:href="_graphics_text_8hpp.html" target="_top" xlink:title="Classe GraphicsText. ">
<polygon fill="white" stroke="black" points="747.397,-168.5 747.397,-187.5 841.397,-187.5 841.397,-168.5 747.397,-168.5"/>
<text text-anchor="middle" x="794.397" y="-175.5" font-family="Helvetica,sans-Serif" font-size="10.00">GraphicsText.hpp</text>
</a>
</g>
</g>
<!-- Node9&#45;&gt;Node44 -->
<g id="edge58" class="edge"><title>Node9&#45;&gt;Node44</title>
<path fill="none" stroke="midnightblue" d="M658.211,-274.417C691.417,-251.151 755.361,-206.35 782.134,-187.591"/>
<polygon fill="midnightblue" stroke="midnightblue" points="655.898,-271.764 649.716,-280.368 659.915,-277.497 655.898,-271.764"/>
</g>
<!-- Node46 -->
<g id="node46" class="node"><title>Node46</title>
<g id="a_node46"><a xlink:href="_graphics_item_8cpp_source.html" target="_top" xlink:title="GraphicsItem.cpp">
<polygon fill="white" stroke="black" points="746.397,-224.5 746.397,-243.5 840.397,-243.5 840.397,-224.5 746.397,-224.5"/>
<text text-anchor="middle" x="793.397" y="-231.5" font-family="Helvetica,sans-Serif" font-size="10.00">GraphicsItem.cpp</text>
</a>
</g>
</g>
<!-- Node9&#45;&gt;Node46 -->
<g id="edge62" class="edge"><title>Node9&#45;&gt;Node46</title>
<path fill="none" stroke="midnightblue" d="M671.566,-277.172C700.941,-267.004 742.595,-252.585 768.794,-243.516"/>
<polygon fill="midnightblue" stroke="midnightblue" points="670.42,-273.865 662.115,-280.444 672.71,-280.48 670.42,-273.865"/>
</g>
<!-- Node11 -->
<g id="node11" class="node"><title>Node11</title>
<g id="a_node11"><a xlink:href="_graphics_blink_animation_8hpp_source.html" target="_top" xlink:title="GraphicsBlinkAnimation.hpp">
<polygon fill="white" stroke="black" points="995.397,-168.5 995.397,-187.5 1135.4,-187.5 1135.4,-168.5 995.397,-168.5"/>
<text text-anchor="middle" x="1065.4" y="-175.5" font-family="Helvetica,sans-Serif" font-size="10.00">GraphicsBlinkAnimation.hpp</text>
</a>
</g>
</g>
<!-- Node10&#45;&gt;Node11 -->
<g id="edge10" class="edge"><title>Node10&#45;&gt;Node11</title>
<path fill="none" stroke="midnightblue" d="M951.32,-220.906C978.957,-210.754 1017.74,-196.506 1042.21,-187.516"/>
<polygon fill="midnightblue" stroke="midnightblue" points="949.869,-217.71 941.689,-224.444 952.283,-224.281 949.869,-217.71"/>
</g>
<!-- Node14 -->
<g id="node14" class="node"><title>Node14</title>
<g id="a_node14"><a xlink:href="_graphics_animation_8cpp_source.html" target="_top" xlink:title="GraphicsAnimation.cpp">
<polygon fill="white" stroke="black" points="859.397,-168.5 859.397,-187.5 977.397,-187.5 977.397,-168.5 859.397,-168.5"/>
<text text-anchor="middle" x="918.397" y="-175.5" font-family="Helvetica,sans-Serif" font-size="10.00">GraphicsAnimation.cpp</text>
</a>
</g>
</g>
<!-- Node10&#45;&gt;Node14 -->
<g id="edge13" class="edge"><title>Node10&#45;&gt;Node14</title>
<path fill="none" stroke="midnightblue" d="M918.397,-213.805C918.397,-204.91 918.397,-194.78 918.397,-187.751"/>
<polygon fill="midnightblue" stroke="midnightblue" points="914.897,-214.083 918.397,-224.083 921.897,-214.083 914.897,-214.083"/>
</g>
<!-- Node12 -->
<g id="node12" class="node"><title>Node12</title>
<g id="a_node12"><a xlink:href="_graphics_blink_animation_8cpp_source.html" target="_top" xlink:title="GraphicsBlinkAnimation.cpp">
<polygon fill="white" stroke="black" points="786.397,-112.5 786.397,-131.5 926.397,-131.5 926.397,-112.5 786.397,-112.5"/>
<text text-anchor="middle" x="856.397" y="-119.5" font-family="Helvetica,sans-Serif" font-size="10.00">GraphicsBlinkAnimation.cpp</text>
</a>
</g>
</g>
<!-- Node11&#45;&gt;Node12 -->
<g id="edge11" class="edge"><title>Node11&#45;&gt;Node12</title>
<path fill="none" stroke="midnightblue" d="M1022.41,-165.894C982.945,-155.697 925.297,-140.802 889.358,-131.516"/>
<polygon fill="midnightblue" stroke="midnightblue" points="1021.72,-169.331 1032.28,-168.444 1023.47,-162.553 1021.72,-169.331"/>
</g>
<!-- Node13 -->
<g id="node13" class="node"><title>Node13</title>
<g id="a_node13"><a xlink:href="_line_edit_8cpp_source.html" target="_top" xlink:title="LineEdit.cpp">
<polygon fill="white" stroke="black" points="967.897,-0.5 967.897,-19.5 1038.9,-19.5 1038.9,-0.5 967.897,-0.5"/>
<text text-anchor="middle" x="1003.4" y="-7.5" font-family="Helvetica,sans-Serif" font-size="10.00">LineEdit.cpp</text>
</a>
</g>
</g>
<!-- Node11&#45;&gt;Node13 -->
<g id="edge12" class="edge"><title>Node11&#45;&gt;Node13</title>
<path fill="none" stroke="midnightblue" d="M1139.3,-167.004C1201.41,-157.846 1281.6,-143.938 1291.4,-132 1297.04,-125.128 1294.01,-120.497 1291.4,-112 1282.56,-83.2485 1278.62,-72.3914 1253.4,-56 1218.55,-33.3489 1099.47,-19.657 1039.1,-14.0115"/>
<polygon fill="midnightblue" stroke="midnightblue" points="1138.5,-163.583 1129.11,-168.488 1139.51,-170.51 1138.5,-163.583"/>
</g>
<!-- Node16 -->
<g id="node16" class="node"><title>Node16</title>
<g id="a_node16"><a xlink:href="_graphics_circle_8hpp_source.html" target="_top" xlink:title="GraphicsCircle.hpp">
<polygon fill="white" stroke="black" points="1182.4,-112.5 1182.4,-131.5 1282.4,-131.5 1282.4,-112.5 1182.4,-112.5"/>
<text text-anchor="middle" x="1232.4" y="-119.5" font-family="Helvetica,sans-Serif" font-size="10.00">GraphicsCircle.hpp</text>
</a>
</g>
</g>
<!-- Node15&#45;&gt;Node16 -->
<g id="edge15" class="edge"><title>Node15&#45;&gt;Node16</title>
<path fill="none" stroke="midnightblue" d="M1232.4,-157.805C1232.4,-148.91 1232.4,-138.78 1232.4,-131.751"/>
<polygon fill="midnightblue" stroke="midnightblue" points="1228.9,-158.083 1232.4,-168.083 1235.9,-158.083 1228.9,-158.083"/>
</g>
<!-- Node18 -->
<g id="node18" class="node"><title>Node18</title>
<g id="a_node18"><a xlink:href="_graphics_ellipse_8hpp_source.html" target="_top" xlink:title="GraphicsEllipse.hpp">
<polygon fill="white" stroke="black" points="1586.4,-112.5 1586.4,-131.5 1690.4,-131.5 1690.4,-112.5 1586.4,-112.5"/>
<text text-anchor="middle" x="1638.4" y="-119.5" font-family="Helvetica,sans-Serif" font-size="10.00">GraphicsEllipse.hpp</text>
</a>
</g>
</g>
<!-- Node15&#45;&gt;Node18 -->
<g id="edge17" class="edge"><title>Node15&#45;&gt;Node18</title>
<path fill="none" stroke="midnightblue" d="M1293.83,-169.302C1362.86,-160.58 1478.24,-145.781 1577.4,-132 1580.26,-131.602 1583.2,-131.188 1586.16,-130.766"/>
<polygon fill="midnightblue" stroke="midnightblue" points="1293.06,-165.872 1283.58,-170.597 1293.94,-172.817 1293.06,-165.872"/>
</g>
<!-- Node20 -->
<g id="node20" class="node"><title>Node20</title>
<g id="a_node20"><a xlink:href="_graphics_line_8hpp_source.html" target="_top" xlink:title="GraphicsLine.hpp">
<polygon fill="white" stroke="black" points="944.397,-112.5 944.397,-131.5 1036.4,-131.5 1036.4,-112.5 944.397,-112.5"/>
<text text-anchor="middle" x="990.397" y="-119.5" font-family="Helvetica,sans-Serif" font-size="10.00">GraphicsLine.hpp</text>
</a>
</g>
</g>
<!-- Node15&#45;&gt;Node20 -->
<g id="edge19" class="edge"><title>Node15&#45;&gt;Node20</title>
<path fill="none" stroke="midnightblue" d="M1184.07,-166.217C1138.35,-156.013 1070.62,-140.901 1028.56,-131.516"/>
<polygon fill="midnightblue" stroke="midnightblue" points="1183.53,-169.682 1194.05,-168.444 1185.05,-162.85 1183.53,-169.682"/>
</g>
<!-- Node24 -->
<g id="node24" class="node"><title>Node24</title>
<g id="a_node24"><a xlink:href="_graphics_polygon_8hpp_source.html" target="_top" xlink:title="GraphicsPolygon.hpp">
<polygon fill="white" stroke="black" points="1458.4,-112.5 1458.4,-131.5 1568.4,-131.5 1568.4,-112.5 1458.4,-112.5"/>
<text text-anchor="middle" x="1513.4" y="-119.5" font-family="Helvetica,sans-Serif" font-size="10.00">GraphicsPolygon.hpp</text>
</a>
</g>
</g>
<!-- Node15&#45;&gt;Node24 -->
<g id="edge26" class="edge"><title>Node15&#45;&gt;Node24</title>
<path fill="none" stroke="midnightblue" d="M1286.84,-166.537C1339.95,-156.332 1419.73,-140.999 1469.08,-131.516"/>
<polygon fill="midnightblue" stroke="midnightblue" points="1286.08,-163.119 1276.92,-168.444 1287.4,-169.993 1286.08,-163.119"/>
</g>
<!-- Node26 -->
<g id="node26" class="node"><title>Node26</title>
<g id="a_node26"><a xlink:href="_graphics_triangle_8hpp.html" target="_top" xlink:title="Classe GraphicsTriangle. ">
<polygon fill="white" stroke="black" points="1054.9,-112.5 1054.9,-131.5 1163.9,-131.5 1163.9,-112.5 1054.9,-112.5"/>
<text text-anchor="middle" x="1109.4" y="-119.5" font-family="Helvetica,sans-Serif" font-size="10.00">GraphicsTriangle.hpp</text>
</a>
</g>
</g>
<!-- Node15&#45;&gt;Node26 -->
<g id="edge29" class="edge"><title>Node15&#45;&gt;Node26</title>
<path fill="none" stroke="midnightblue" d="M1203.62,-164.368C1180.59,-154.255 1148.91,-140.349 1128.8,-131.516"/>
<polygon fill="midnightblue" stroke="midnightblue" points="1202.34,-167.628 1212.91,-168.444 1205.16,-161.219 1202.34,-167.628"/>
</g>
<!-- Node28 -->
<g id="node28" class="node"><title>Node28</title>
<g id="a_node28"><a xlink:href="_graphics_shape_8cpp_source.html" target="_top" xlink:title="GraphicsShape.cpp">
<polygon fill="white" stroke="black" points="1338.4,-112.5 1338.4,-131.5 1440.4,-131.5 1440.4,-112.5 1338.4,-112.5"/>
<text text-anchor="middle" x="1389.4" y="-119.5" font-family="Helvetica,sans-Serif" font-size="10.00">GraphicsShape.cpp</text>
</a>
</g>
</g>
<!-- Node15&#45;&gt;Node28 -->
<g id="edge32" class="edge"><title>Node15&#45;&gt;Node28</title>
<path fill="none" stroke="midnightblue" d="M1266.79,-165.172C1296.35,-155.004 1338.27,-140.585 1364.64,-131.516"/>
<polygon fill="midnightblue" stroke="midnightblue" points="1265.59,-161.881 1257.27,-168.444 1267.87,-168.501 1265.59,-161.881"/>
</g>
<!-- Node17 -->
<g id="node17" class="node"><title>Node17</title>
<g id="a_node17"><a xlink:href="_graphics_circle_8cpp_source.html" target="_top" xlink:title="GraphicsCircle.cpp">
<polygon fill="white" stroke="black" points="1144.4,-56.5 1144.4,-75.5 1244.4,-75.5 1244.4,-56.5 1144.4,-56.5"/>
<text text-anchor="middle" x="1194.4" y="-63.5" font-family="Helvetica,sans-Serif" font-size="10.00">GraphicsCircle.cpp</text>
</a>
</g>
</g>
<!-- Node16&#45;&gt;Node17 -->
<g id="edge16" class="edge"><title>Node16&#45;&gt;Node17</title>
<path fill="none" stroke="midnightblue" d="M1220.33,-103.855C1213.75,-94.5048 1205.89,-83.3265 1200.55,-75.7511"/>
<polygon fill="midnightblue" stroke="midnightblue" points="1217.5,-105.919 1226.12,-112.083 1223.23,-101.891 1217.5,-105.919"/>
</g>
<!-- Node19 -->
<g id="node19" class="node"><title>Node19</title>
<g id="a_node19"><a xlink:href="_graphics_ellipse_8cpp_source.html" target="_top" xlink:title="GraphicsEllipse.cpp">
<polygon fill="white" stroke="black" points="1586.4,-56.5 1586.4,-75.5 1690.4,-75.5 1690.4,-56.5 1586.4,-56.5"/>
<text text-anchor="middle" x="1638.4" y="-63.5" font-family="Helvetica,sans-Serif" font-size="10.00">GraphicsEllipse.cpp</text>
</a>
</g>
</g>
<!-- Node18&#45;&gt;Node19 -->
<g id="edge18" class="edge"><title>Node18&#45;&gt;Node19</title>
<path fill="none" stroke="midnightblue" d="M1638.4,-101.805C1638.4,-92.9102 1638.4,-82.7798 1638.4,-75.7511"/>
<polygon fill="midnightblue" stroke="midnightblue" points="1634.9,-102.083 1638.4,-112.083 1641.9,-102.083 1634.9,-102.083"/>
</g>
<!-- Node21 -->
<g id="node21" class="node"><title>Node21</title>
<g id="a_node21"><a xlink:href="_tools_window_8cpp_source.html" target="_top" xlink:title="ToolsWindow.cpp">
<polygon fill="white" stroke="black" points="547.897,-0.5 547.897,-19.5 642.897,-19.5 642.897,-0.5 547.897,-0.5"/>
<text text-anchor="middle" x="595.397" y="-7.5" font-family="Helvetica,sans-Serif" font-size="10.00">ToolsWindow.cpp</text>
</a>
</g>
</g>
<!-- Node20&#45;&gt;Node21 -->
<g id="edge20" class="edge"><title>Node20&#45;&gt;Node21</title>
<path fill="none" stroke="midnightblue" d="M949.626,-109.646C870.241,-87.539 696.542,-39.167 626.044,-19.5345"/>
<polygon fill="midnightblue" stroke="midnightblue" points="949.158,-113.149 959.73,-112.46 951.036,-106.406 949.158,-113.149"/>
</g>
<!-- Node22 -->
<g id="node22" class="node"><title>Node22</title>
<g id="a_node22"><a xlink:href="_graphics_line_8cpp_source.html" target="_top" xlink:title="GraphicsLine.cpp">
<polygon fill="white" stroke="black" points="868.397,-56.5 868.397,-75.5 960.397,-75.5 960.397,-56.5 868.397,-56.5"/>
<text text-anchor="middle" x="914.397" y="-63.5" font-family="Helvetica,sans-Serif" font-size="10.00">GraphicsLine.cpp</text>
</a>
</g>
</g>
<!-- Node20&#45;&gt;Node22 -->
<g id="edge21" class="edge"><title>Node20&#45;&gt;Node22</title>
<path fill="none" stroke="midnightblue" d="M969.821,-106.38C956.085,-96.6204 938.471,-84.1057 926.83,-75.8339"/>
<polygon fill="midnightblue" stroke="midnightblue" points="968.007,-109.385 978.186,-112.324 972.061,-103.679 968.007,-109.385"/>
</g>
<!-- Node23 -->
<g id="node23" class="node"><title>Node23</title>
<g id="a_node23"><a xlink:href="_line_edit_8hpp_source.html" target="_top" xlink:title="LineEdit.hpp">
<polygon fill="white" stroke="black" points="559.897,-56.5 559.897,-75.5 630.897,-75.5 630.897,-56.5 559.897,-56.5"/>
<text text-anchor="middle" x="595.397" y="-63.5" font-family="Helvetica,sans-Serif" font-size="10.00">LineEdit.hpp</text>
</a>
</g>
</g>
<!-- Node20&#45;&gt;Node23 -->
<g id="edge22" class="edge"><title>Node20&#45;&gt;Node23</title>
<path fill="none" stroke="midnightblue" d="M934.016,-111.833C817.272,-94.6834 691.448,-78.8103 631.181,-71.3704"/>
<polygon fill="midnightblue" stroke="midnightblue" points="933.795,-115.338 944.199,-113.335 934.817,-108.413 933.795,-115.338"/>
</g>
<!-- Node23&#45;&gt;Node6 -->
<g id="edge23" class="edge"><title>Node23&#45;&gt;Node6</title>
<path fill="none" stroke="midnightblue" d="M549.514,-59.1148C468.683,-48.7469 301.801,-27.3416 220.684,-16.9371"/>
<polygon fill="midnightblue" stroke="midnightblue" points="549.501,-62.6418 559.865,-60.4425 550.392,-55.6986 549.501,-62.6418"/>
</g>
<!-- Node23&#45;&gt;Node13 -->
<g id="edge25" class="edge"><title>Node23&#45;&gt;Node13</title>
<path fill="none" stroke="midnightblue" d="M641.283,-58.9269C723.388,-48.06 893.753,-25.5117 967.774,-15.7148"/>
<polygon fill="midnightblue" stroke="midnightblue" points="640.701,-55.4733 631.246,-60.2552 641.619,-62.4128 640.701,-55.4733"/>
</g>
<!-- Node23&#45;&gt;Node21 -->
<g id="edge24" class="edge"><title>Node23&#45;&gt;Node21</title>
<path fill="none" stroke="midnightblue" d="M595.397,-45.8045C595.397,-36.9102 595.397,-26.7798 595.397,-19.7511"/>
<polygon fill="midnightblue" stroke="midnightblue" points="591.897,-46.083 595.397,-56.083 598.897,-46.083 591.897,-46.083"/>
</g>
<!-- Node24&#45;&gt;Node21 -->
<g id="edge27" class="edge"><title>Node24&#45;&gt;Node21</title>
<path fill="none" stroke="midnightblue" d="M1476.29,-109.517C1426.23,-94.5342 1334.01,-68.7316 1253.4,-56 1026.91,-20.2325 752.136,-12.887 643.199,-11.384"/>
<polygon fill="midnightblue" stroke="midnightblue" points="1475.44,-112.915 1486.02,-112.452 1477.46,-106.213 1475.44,-112.915"/>
</g>
<!-- Node25 -->
<g id="node25" class="node"><title>Node25</title>
<g id="a_node25"><a xlink:href="_graphics_polygon_8cpp_source.html" target="_top" xlink:title="GraphicsPolygon.cpp">
<polygon fill="white" stroke="black" points="1458.4,-56.5 1458.4,-75.5 1568.4,-75.5 1568.4,-56.5 1458.4,-56.5"/>
<text text-anchor="middle" x="1513.4" y="-63.5" font-family="Helvetica,sans-Serif" font-size="10.00">GraphicsPolygon.cpp</text>
</a>
</g>
</g>
<!-- Node24&#45;&gt;Node25 -->
<g id="edge28" class="edge"><title>Node24&#45;&gt;Node25</title>
<path fill="none" stroke="midnightblue" d="M1513.4,-101.805C1513.4,-92.9102 1513.4,-82.7798 1513.4,-75.7511"/>
<polygon fill="midnightblue" stroke="midnightblue" points="1509.9,-102.083 1513.4,-112.083 1516.9,-102.083 1509.9,-102.083"/>
</g>
<!-- Node26&#45;&gt;Node21 -->
<g id="edge30" class="edge"><title>Node26&#45;&gt;Node21</title>
<path fill="none" stroke="midnightblue" d="M1079.81,-108.327C1059.57,-99.5336 1032.2,-87.3976 1008.4,-76 990.827,-67.5885 988.025,-61.697 969.397,-56 855.888,-21.2853 715.336,-13.1753 643.144,-11.395"/>
<polygon fill="midnightblue" stroke="midnightblue" points="1078.56,-111.598 1089.13,-112.357 1081.34,-105.174 1078.56,-111.598"/>
</g>
<!-- Node27 -->
<g id="node27" class="node"><title>Node27</title>
<g id="a_node27"><a xlink:href="_graphics_triangle_8cpp_source.html" target="_top" xlink:title="GraphicsTriangle.cpp">
<polygon fill="white" stroke="black" points="1016.9,-56.5 1016.9,-75.5 1125.9,-75.5 1125.9,-56.5 1016.9,-56.5"/>
<text text-anchor="middle" x="1071.4" y="-63.5" font-family="Helvetica,sans-Serif" font-size="10.00">GraphicsTriangle.cpp</text>
</a>
</g>
</g>
<!-- Node26&#45;&gt;Node27 -->
<g id="edge31" class="edge"><title>Node26&#45;&gt;Node27</title>
<path fill="none" stroke="midnightblue" d="M1097.33,-103.855C1090.75,-94.5048 1082.89,-83.3265 1077.55,-75.7511"/>
<polygon fill="midnightblue" stroke="midnightblue" points="1094.5,-105.919 1103.12,-112.083 1100.23,-101.891 1094.5,-105.919"/>
</g>
<!-- Node30 -->
<g id="node30" class="node"><title>Node30</title>
<g id="a_node30"><a xlink:href="_graphics_point_8cpp_source.html" target="_top" xlink:title="GraphicsPoint.cpp">
<polygon fill="white" stroke="black" points="209.897,-168.5 209.897,-187.5 306.897,-187.5 306.897,-168.5 209.897,-168.5"/>
<text text-anchor="middle" x="258.397" y="-175.5" font-family="Helvetica,sans-Serif" font-size="10.00">GraphicsPoint.cpp</text>
</a>
</g>
</g>
<!-- Node29&#45;&gt;Node30 -->
<g id="edge34" class="edge"><title>Node29&#45;&gt;Node30</title>
<path fill="none" stroke="midnightblue" d="M301.93,-217.537C291.053,-207.909 277.453,-195.869 268.376,-187.834"/>
<polygon fill="midnightblue" stroke="midnightblue" points="299.788,-220.316 309.596,-224.324 304.428,-215.075 299.788,-220.316"/>
</g>
<!-- Node31&#45;&gt;Node21 -->
<g id="edge36" class="edge"><title>Node31&#45;&gt;Node21</title>
<path fill="none" stroke="midnightblue" d="M475.813,-220.046C452.837,-208.502 427.512,-190.049 438.397,-168 450.045,-144.406 466.228,-150.025 485.397,-132 517.987,-101.353 521.079,-88.8968 551.397,-56 563.245,-43.1445 577.47,-28.7803 586.473,-19.8149"/>
<polygon fill="midnightblue" stroke="midnightblue" points="474.537,-223.314 485.075,-224.416 477.524,-216.983 474.537,-223.314"/>
</g>
<!-- Node31&#45;&gt;Node23 -->
<g id="edge55" class="edge"><title>Node31&#45;&gt;Node23</title>
<path fill="none" stroke="midnightblue" d="M538.086,-219.745C551.619,-212.346 566.452,-201.803 575.397,-188 598.903,-151.728 597.706,-96.8963 596.203,-75.7474"/>
<polygon fill="midnightblue" stroke="midnightblue" points="536.335,-216.709 529.012,-224.367 539.512,-222.947 536.335,-216.709"/>
</g>
<!-- Node32 -->
<g id="node32" class="node"><title>Node32</title>
<g id="a_node32"><a xlink:href="_graphics_rectangle_8cpp_source.html" target="_top" xlink:title="GraphicsRectangle.cpp">
<polygon fill="white" stroke="black" points="447.897,-168.5 447.897,-187.5 566.897,-187.5 566.897,-168.5 447.897,-168.5"/>
<text text-anchor="middle" x="507.397" y="-175.5" font-family="Helvetica,sans-Serif" font-size="10.00">GraphicsRectangle.cpp</text>
</a>
</g>
</g>
<!-- Node31&#45;&gt;Node32 -->
<g id="edge37" class="edge"><title>Node31&#45;&gt;Node32</title>
<path fill="none" stroke="midnightblue" d="M507.397,-213.805C507.397,-204.91 507.397,-194.78 507.397,-187.751"/>
<polygon fill="midnightblue" stroke="midnightblue" points="503.897,-214.083 507.397,-224.083 510.897,-214.083 503.897,-214.083"/>
</g>
<!-- Node33 -->
<g id="node33" class="node"><title>Node33</title>
<g id="a_node33"><a xlink:href="_widget_8hpp_source.html" target="_top" xlink:title="Widget.hpp">
<polygon fill="white" stroke="black" points="325.397,-168.5 325.397,-187.5 391.397,-187.5 391.397,-168.5 325.397,-168.5"/>
<text text-anchor="middle" x="358.397" y="-175.5" font-family="Helvetica,sans-Serif" font-size="10.00">Widget.hpp</text>
</a>
</g>
</g>
<!-- Node31&#45;&gt;Node33 -->
<g id="edge38" class="edge"><title>Node31&#45;&gt;Node33</title>
<path fill="none" stroke="midnightblue" d="M474.026,-220.906C446.013,-210.754 406.701,-196.506 381.896,-187.516"/>
<polygon fill="midnightblue" stroke="midnightblue" points="473.193,-224.327 483.787,-224.444 475.578,-217.746 473.193,-224.327"/>
</g>
<!-- Node33&#45;&gt;Node4 -->
<g id="edge39" class="edge"><title>Node33&#45;&gt;Node4</title>
<path fill="none" stroke="midnightblue" d="M315.482,-167.693C268.612,-157.529 194.182,-141.387 148.762,-131.537"/>
<polygon fill="midnightblue" stroke="midnightblue" points="314.817,-171.13 325.331,-169.829 316.3,-164.289 314.817,-171.13"/>
</g>
<!-- Node34 -->
<g id="node34" class="node"><title>Node34</title>
<g id="a_node34"><a xlink:href="_label_8hpp_source.html" target="_top" xlink:title="Label.hpp">
<polygon fill="white" stroke="black" points="417.897,-112.5 417.897,-131.5 476.897,-131.5 476.897,-112.5 417.897,-112.5"/>
<text text-anchor="middle" x="447.397" y="-119.5" font-family="Helvetica,sans-Serif" font-size="10.00">Label.hpp</text>
</a>
</g>
</g>
<!-- Node33&#45;&gt;Node34 -->
<g id="edge40" class="edge"><title>Node33&#45;&gt;Node34</title>
<path fill="none" stroke="midnightblue" d="M381.635,-162.901C397.955,-152.999 419.262,-140.071 433.133,-131.655"/>
<polygon fill="midnightblue" stroke="midnightblue" points="379.43,-160.144 372.696,-168.324 383.061,-166.129 379.43,-160.144"/>
</g>
<!-- Node38 -->
<g id="node38" class="node"><title>Node38</title>
<g id="a_node38"><a xlink:href="_layout_8hpp_source.html" target="_top" xlink:title="Layout.hpp">
<polygon fill="white" stroke="black" points="190.897,-112.5 190.897,-131.5 255.897,-131.5 255.897,-112.5 190.897,-112.5"/>
<text text-anchor="middle" x="223.397" y="-119.5" font-family="Helvetica,sans-Serif" font-size="10.00">Layout.hpp</text>
</a>
</g>
</g>
<!-- Node33&#45;&gt;Node38 -->
<g id="edge48" class="edge"><title>Node33&#45;&gt;Node38</title>
<path fill="none" stroke="midnightblue" d="M327.491,-164.638C302.157,-154.504 266.965,-140.427 244.688,-131.516"/>
<polygon fill="midnightblue" stroke="midnightblue" points="326.421,-167.979 337.006,-168.444 329.021,-161.48 326.421,-167.979"/>
</g>
<!-- Node41 -->
<g id="node41" class="node"><title>Node41</title>
<g id="a_node41"><a xlink:href="_widget_8cpp_source.html" target="_top" xlink:title="Widget.cpp">
<polygon fill="white" stroke="black" points="325.397,-112.5 325.397,-131.5 391.397,-131.5 391.397,-112.5 325.397,-112.5"/>
<text text-anchor="middle" x="358.397" y="-119.5" font-family="Helvetica,sans-Serif" font-size="10.00">Widget.cpp</text>
</a>
</g>
</g>
<!-- Node33&#45;&gt;Node41 -->
<g id="edge54" class="edge"><title>Node33&#45;&gt;Node41</title>
<path fill="none" stroke="midnightblue" d="M358.397,-157.805C358.397,-148.91 358.397,-138.78 358.397,-131.751"/>
<polygon fill="midnightblue" stroke="midnightblue" points="354.897,-158.083 358.397,-168.083 361.897,-158.083 354.897,-158.083"/>
</g>
<!-- Node34&#45;&gt;Node21 -->
<g id="edge41" class="edge"><title>Node34&#45;&gt;Node21</title>
<path fill="none" stroke="midnightblue" d="M462.589,-104.984C476.201,-91.115 497.096,-70.9834 517.397,-56 537.019,-41.517 561.691,-27.975 577.972,-19.6052"/>
<polygon fill="midnightblue" stroke="midnightblue" points="459.911,-102.718 455.475,-112.339 464.943,-107.584 459.911,-102.718"/>
</g>
<!-- Node34&#45;&gt;Node23 -->
<g id="edge46" class="edge"><title>Node34&#45;&gt;Node23</title>
<path fill="none" stroke="midnightblue" d="M480.544,-108.906C508.368,-98.7536 547.417,-84.5063 572.055,-75.5164"/>
<polygon fill="midnightblue" stroke="midnightblue" points="479.042,-105.728 470.848,-112.444 481.442,-112.304 479.042,-105.728"/>
</g>
<!-- Node35 -->
<g id="node35" class="node"><title>Node35</title>
<g id="a_node35"><a xlink:href="_button_8hpp.html" target="_top" xlink:title="Classe Button. ">
<polygon fill="white" stroke="black" points="323.397,-56.5 323.397,-75.5 387.397,-75.5 387.397,-56.5 323.397,-56.5"/>
<text text-anchor="middle" x="355.397" y="-63.5" font-family="Helvetica,sans-Serif" font-size="10.00">Button.hpp</text>
</a>
</g>
</g>
<!-- Node34&#45;&gt;Node35 -->
<g id="edge42" class="edge"><title>Node34&#45;&gt;Node35</title>
<path fill="none" stroke="midnightblue" d="M423.847,-107.177C406.918,-97.2407 384.614,-84.1492 370.141,-75.6545"/>
<polygon fill="midnightblue" stroke="midnightblue" points="422.219,-110.28 432.615,-112.324 425.763,-104.243 422.219,-110.28"/>
</g>
<!-- Node37 -->
<g id="node37" class="node"><title>Node37</title>
<g id="a_node37"><a xlink:href="_label_8cpp_source.html" target="_top" xlink:title="Label.cpp">
<polygon fill="white" stroke="black" points="405.897,-56.5 405.897,-75.5 464.897,-75.5 464.897,-56.5 405.897,-56.5"/>
<text text-anchor="middle" x="435.397" y="-63.5" font-family="Helvetica,sans-Serif" font-size="10.00">Label.cpp</text>
</a>
</g>
</g>
<!-- Node34&#45;&gt;Node37 -->
<g id="edge47" class="edge"><title>Node34&#45;&gt;Node37</title>
<path fill="none" stroke="midnightblue" d="M443.197,-102.101C441.205,-93.1357 438.921,-82.8579 437.341,-75.7511"/>
<polygon fill="midnightblue" stroke="midnightblue" points="439.829,-103.08 445.415,-112.083 446.662,-101.562 439.829,-103.08"/>
</g>
<!-- Node35&#45;&gt;Node6 -->
<g id="edge43" class="edge"><title>Node35&#45;&gt;Node6</title>
<path fill="none" stroke="midnightblue" d="M317.077,-53.5677C282.933,-43.381 233.736,-28.7034 202.943,-19.5164"/>
<polygon fill="midnightblue" stroke="midnightblue" points="316.133,-56.9385 326.717,-56.4435 318.135,-50.2306 316.133,-56.9385"/>
</g>
<!-- Node35&#45;&gt;Node21 -->
<g id="edge44" class="edge"><title>Node35&#45;&gt;Node21</title>
<path fill="none" stroke="midnightblue" d="M397.538,-55.5181C442.675,-45.3625 513.671,-29.3883 557.219,-19.59"/>
<polygon fill="midnightblue" stroke="midnightblue" points="396.752,-52.1075 387.764,-57.7173 398.289,-58.9368 396.752,-52.1075"/>
</g>
<!-- Node36 -->
<g id="node36" class="node"><title>Node36</title>
<g id="a_node36"><a xlink:href="_button_8cpp_source.html" target="_top" xlink:title="Button.cpp">
<polygon fill="white" stroke="black" points="323.397,-0.5 323.397,-19.5 387.397,-19.5 387.397,-0.5 323.397,-0.5"/>
<text text-anchor="middle" x="355.397" y="-7.5" font-family="Helvetica,sans-Serif" font-size="10.00">Button.cpp</text>
</a>
</g>
</g>
<!-- Node35&#45;&gt;Node36 -->
<g id="edge45" class="edge"><title>Node35&#45;&gt;Node36</title>
<path fill="none" stroke="midnightblue" d="M355.397,-45.8045C355.397,-36.9102 355.397,-26.7798 355.397,-19.7511"/>
<polygon fill="midnightblue" stroke="midnightblue" points="351.897,-46.083 355.397,-56.083 358.897,-46.083 351.897,-46.083"/>
</g>
<!-- Node38&#45;&gt;Node6 -->
<g id="edge52" class="edge"><title>Node38&#45;&gt;Node6</title>
<path fill="none" stroke="midnightblue" d="M180.782,-114.451C157.861,-108.522 131.478,-97.2756 117.397,-76 102.817,-53.9718 135.226,-31.5097 156.905,-19.6221"/>
<polygon fill="midnightblue" stroke="midnightblue" points="180.147,-117.897 190.68,-116.75 181.73,-111.078 180.147,-117.897"/>
</g>
<!-- Node39 -->
<g id="node39" class="node"><title>Node39</title>
<g id="a_node39"><a xlink:href="_tools_window_8hpp.html" target="_top" xlink:title="Classe ToolsWindow. ">
<polygon fill="white" stroke="black" points="126.897,-56.5 126.897,-75.5 221.897,-75.5 221.897,-56.5 126.897,-56.5"/>
<text text-anchor="middle" x="174.397" y="-63.5" font-family="Helvetica,sans-Serif" font-size="10.00">ToolsWindow.hpp</text>
</a>
</g>
</g>
<!-- Node38&#45;&gt;Node39 -->
<g id="edge49" class="edge"><title>Node38&#45;&gt;Node39</title>
<path fill="none" stroke="midnightblue" d="M208.362,-104.431C199.775,-94.9673 189.353,-83.4827 182.338,-75.7511"/>
<polygon fill="midnightblue" stroke="midnightblue" points="205.993,-107.029 215.305,-112.083 211.177,-102.325 205.993,-107.029"/>
</g>
<!-- Node40 -->
<g id="node40" class="node"><title>Node40</title>
<g id="a_node40"><a xlink:href="_layout_8cpp_source.html" target="_top" xlink:title="Layout.cpp">
<polygon fill="white" stroke="black" points="239.897,-56.5 239.897,-75.5 304.897,-75.5 304.897,-56.5 239.897,-56.5"/>
<text text-anchor="middle" x="272.397" y="-63.5" font-family="Helvetica,sans-Serif" font-size="10.00">Layout.cpp</text>
</a>
</g>
</g>
<!-- Node38&#45;&gt;Node40 -->
<g id="edge53" class="edge"><title>Node38&#45;&gt;Node40</title>
<path fill="none" stroke="midnightblue" d="M238.431,-104.431C247.019,-94.9673 257.44,-83.4827 264.456,-75.7511"/>
<polygon fill="midnightblue" stroke="midnightblue" points="235.616,-102.325 231.488,-112.083 240.8,-107.029 235.616,-102.325"/>
</g>
<!-- Node39&#45;&gt;Node6 -->
<g id="edge50" class="edge"><title>Node39&#45;&gt;Node6</title>
<path fill="none" stroke="midnightblue" d="M174.397,-45.8045C174.397,-36.9102 174.397,-26.7798 174.397,-19.7511"/>
<polygon fill="midnightblue" stroke="midnightblue" points="170.897,-46.083 174.397,-56.083 177.897,-46.083 170.897,-46.083"/>
</g>
<!-- Node39&#45;&gt;Node21 -->
<g id="edge51" class="edge"><title>Node39&#45;&gt;Node21</title>
<path fill="none" stroke="midnightblue" d="M232.07,-55.8021C351.305,-39.0195 479.942,-23.9899 547.784,-16.3056"/>
<polygon fill="midnightblue" stroke="midnightblue" points="231.449,-52.355 222.038,-57.2216 232.429,-59.286 231.449,-52.355"/>
</g>
<!-- Node43 -->
<g id="node43" class="node"><title>Node43</title>
<g id="a_node43"><a xlink:href="_graphics_square_8cpp_source.html" target="_top" xlink:title="GraphicsSquare.cpp">
<polygon fill="white" stroke="black" points="623.897,-168.5 623.897,-187.5 728.897,-187.5 728.897,-168.5 623.897,-168.5"/>
<text text-anchor="middle" x="676.397" y="-175.5" font-family="Helvetica,sans-Serif" font-size="10.00">GraphicsSquare.cpp</text>
</a>
</g>
</g>
<!-- Node42&#45;&gt;Node43 -->
<g id="edge57" class="edge"><title>Node42&#45;&gt;Node43</title>
<path fill="none" stroke="midnightblue" d="M649.779,-215.855C656.532,-206.505 664.605,-195.327 670.077,-187.751"/>
<polygon fill="midnightblue" stroke="midnightblue" points="646.854,-213.927 643.837,-224.083 652.529,-218.025 646.854,-213.927"/>
</g>
<!-- Node44&#45;&gt;Node21 -->
<g id="edge59" class="edge"><title>Node44&#45;&gt;Node21</title>
<path fill="none" stroke="midnightblue" d="M749.508,-165.835C717.295,-157.013 677.52,-144.196 665.397,-132 640.229,-106.681 658.114,-86.3995 639.397,-56 630.46,-41.4854 616.076,-27.9502 606.202,-19.5907"/>
<polygon fill="midnightblue" stroke="midnightblue" points="748.659,-169.231 759.224,-168.439 750.471,-162.469 748.659,-169.231"/>
</g>
<!-- Node44&#45;&gt;Node34 -->
<g id="edge61" class="edge"><title>Node44&#45;&gt;Node34</title>
<path fill="none" stroke="midnightblue" d="M736.961,-167.935C635.057,-151.994 527.84,-135.416 477.042,-127.573"/>
<polygon fill="midnightblue" stroke="midnightblue" points="736.7,-171.437 747.121,-169.525 737.782,-164.521 736.7,-171.437"/>
</g>
<!-- Node45 -->
<g id="node45" class="node"><title>Node45</title>
<g id="a_node45"><a xlink:href="_graphics_text_8cpp_source.html" target="_top" xlink:title="GraphicsText.cpp">
<polygon fill="white" stroke="black" points="674.397,-112.5 674.397,-131.5 768.397,-131.5 768.397,-112.5 674.397,-112.5"/>
<text text-anchor="middle" x="721.397" y="-119.5" font-family="Helvetica,sans-Serif" font-size="10.00">GraphicsText.cpp</text>
</a>
</g>
</g>
<!-- Node44&#45;&gt;Node45 -->
<g id="edge60" class="edge"><title>Node44&#45;&gt;Node45</title>
<path fill="none" stroke="midnightblue" d="M774.255,-162.101C761.117,-152.382 744.415,-140.027 733.339,-131.834"/>
<polygon fill="midnightblue" stroke="midnightblue" points="772.547,-165.191 782.668,-168.324 776.71,-159.563 772.547,-165.191"/>
</g>
</g>
</svg>
        <g id="navigator" transform="translate(0 0)" fill="#404254">
                <rect fill="#f2f5e9" fill-opacity="0.5" stroke="#606060" stroke-width=".5" x="0" y="0" width="60" height="60"/>
                <use id="zoomplus" xlink:href="#zoomPlus" x="17" y="9" onmousedown="handleZoom(evt,'in')"/>
                <use id="zoomminus" xlink:href="#zoomMin" x="42" y="9" onmousedown="handleZoom(evt,'out')"/>
                <use id="reset" xlink:href="#resetDef" x="30" y="36" onmousedown="handleReset()"/>
                <g id="arrowUp" xlink:href="#dirArrow" transform="translate(30 24)" onmousedown="handlePan(0,-1)">
                  <use xlink:href="#rim" fill="#404040">
                        <set attributeName="fill" to="#808080" begin="arrowUp.mouseover" end="arrowUp.mouseout"/>
                  </use>
                  <path fill="none" stroke="white" stroke-width="1.5" d="M0,-3.0v7 M-2.5,-0.5L0,-3.0L2.5,-0.5"/>
                </g>
                <g id="arrowRight" xlink:href="#dirArrow" transform="rotate(90) translate(36 -43)" onmousedown="handlePan(1,0)">
                  <use xlink:href="#rim" fill="#404040">
                        <set attributeName="fill" to="#808080" begin="arrowRight.mouseover" end="arrowRight.mouseout"/>
                  </use>
                  <path fill="none" stroke="white" stroke-width="1.5" d="M0,-3.0v7 M-2.5,-0.5L0,-3.0L2.5,-0.5"/>
                </g>
                <g id="arrowDown" xlink:href="#dirArrow" transform="rotate(180) translate(-30 -48)" onmousedown="handlePan(0,1)">
                  <use xlink:href="#rim" fill="#404040">
                        <set attributeName="fill" to="#808080" begin="arrowDown.mouseover" end="arrowDown.mouseout"/>
                  </use>
                  <path fill="none" stroke="white" stroke-width="1.5" d="M0,-3.0v7 M-2.5,-0.5L0,-3.0L2.5,-0.5"/>
                </g>
                <g id="arrowLeft" xlink:href="#dirArrow" transform="rotate(270) translate(-36 17)" onmousedown="handlePan(-1,0)">
                  <use xlink:href="#rim" fill="#404040">
                        <set attributeName="fill" to="#808080" begin="arrowLeft.mouseover" end="arrowLeft.mouseout"/>
                  </use>
                  <path fill="none" stroke="white" stroke-width="1.5" d="M0,-3.0v7 M-2.5,-0.5L0,-3.0L2.5,-0.5"/>
                </g>
        </g>
        <svg viewBox="0 0 15 15" width="100%" height="30px" preserveAspectRatio="xMaxYMin meet">
         <g id="arrow_out" transform="scale(0.3 0.3)">
          <a xlink:href="_color_8hpp__dep__incl_org.svg" target="_base">
           <rect id="button" ry="5" rx="5" y="6" x="6" height="38" width="38"
                fill="#f2f5e9" fill-opacity="0.5" stroke="#606060" stroke-width="1.0"/>
           <path id="arrow"
             d="M 11.500037,31.436501 C 11.940474,20.09759 22.043105,11.32322 32.158766,21.979434 L 37.068811,17.246167 C 37.068811,17.246167 37.088388,32 37.088388,32 L 22.160133,31.978069 C 22.160133,31.978069 26.997745,27.140456 26.997745,27.140456 C 18.528582,18.264221 13.291696,25.230495 11.500037,31.436501 z"
             style="fill:#404040;"/>
          </a>
         </g>
        </svg>
</svg>
