<?xml version="1.0" encoding="UTF-8" standalone="no"?>
<!DOCTYPE svg PUBLIC "-//W3C//DTD SVG 1.1//EN"
 "http://www.w3.org/Graphics/SVG/1.1/DTD/svg11.dtd">
<!-- Generated by graphviz version 2.36.0 (20140111.2315)
 -->
<!-- Title: Color.hpp Pages: 1 -->
<svg width="1985pt" height="364pt"
 viewBox="0.00 0.00 1984.66 364.00" xmlns="http://www.w3.org/2000/svg" xmlns:xlink="http://www.w3.org/1999/xlink">
<g id="graph0" class="graph" transform="scale(1 1) rotate(0) translate(4 360)">
<title>Color.hpp</title>
<polygon fill="white" stroke="none" points="-4,4 -4,-360 1980.66,-360 1980.66,4 -4,4"/>
<!-- Node1 -->
<g id="node1" class="node"><title>Node1</title>
<polygon fill="#bfbfbf" stroke="black" points="994.5,-336.5 994.5,-355.5 1053.5,-355.5 1053.5,-336.5 994.5,-336.5"/>
<text text-anchor="middle" x="1024" y="-343.5" font-family="Helvetica,sans-Serif" font-size="10.00">Color.hpp</text>
</g>
<!-- Node2 -->
<g id="node2" class="node"><title>Node2</title>
<g id="a_node2"><a xlink:href="_color_8cpp.html" target="_top" xlink:title="Color.cpp">
<polygon fill="white" stroke="black" points="947.5,-280.5 947.5,-299.5 1006.5,-299.5 1006.5,-280.5 947.5,-280.5"/>
<text text-anchor="middle" x="977" y="-287.5" font-family="Helvetica,sans-Serif" font-size="10.00">Color.cpp</text>
</a>
</g>
</g>
<!-- Node1&#45;&gt;Node2 -->
<g id="edge1" class="edge"><title>Node1&#45;&gt;Node2</title>
<path fill="none" stroke="midnightblue" d="M1009.58,-328.431C1001.34,-318.967 991.346,-307.483 984.617,-299.751"/>
<polygon fill="midnightblue" stroke="midnightblue" points="1007.03,-330.838 1016.24,-336.083 1012.31,-326.242 1007.03,-330.838"/>
</g>
<!-- Node3 -->
<g id="node3" class="node"><title>Node3</title>
<g id="a_node3"><a xlink:href="_graphics_item_8hpp.html" target="_top" xlink:title="Classe GraphicsItem. ">
<polygon fill="white" stroke="black" points="1025,-280.5 1025,-299.5 1119,-299.5 1119,-280.5 1025,-280.5"/>
<text text-anchor="middle" x="1072" y="-287.5" font-family="Helvetica,sans-Serif" font-size="10.00">GraphicsItem.hpp</text>
</a>
</g>
</g>
<!-- Node1&#45;&gt;Node3 -->
<g id="edge2" class="edge"><title>Node1&#45;&gt;Node3</title>
<path fill="none" stroke="midnightblue" d="M1038.73,-328.431C1047.14,-318.967 1057.35,-307.483 1064.22,-299.751"/>
<polygon fill="midnightblue" stroke="midnightblue" points="1035.95,-326.284 1031.93,-336.083 1041.19,-330.934 1035.95,-326.284"/>
</g>
<!-- Node4 -->
<g id="node4" class="node"><title>Node4</title>
<g id="a_node4"><a xlink:href="_main_window_8hpp.html" target="_top" xlink:title="MainWindow.hpp">
<polygon fill="white" stroke="black" points="38,-224.5 38,-243.5 130,-243.5 130,-224.5 38,-224.5"/>
<text text-anchor="middle" x="84" y="-231.5" font-family="Helvetica,sans-Serif" font-size="10.00">MainWindow.hpp</text>
</a>
</g>
</g>
<!-- Node3&#45;&gt;Node4 -->
<g id="edge3" class="edge"><title>Node3&#45;&gt;Node4</title>
<path fill="none" stroke="midnightblue" d="M1014.46,-280.168C889.547,-269.333 300.752,-244.133 130.294,-236.942"/>
<polygon fill="midnightblue" stroke="midnightblue" points="1014.49,-283.686 1024.77,-281.14 1015.15,-276.717 1014.49,-283.686"/>
</g>
<!-- Node7 -->
<g id="node7" class="node"><title>Node7</title>
<g id="a_node7"><a xlink:href="_tools_windows_8hpp.html" target="_top" xlink:title="ToolsWindows.hpp">
<polygon fill="white" stroke="black" points="1464,-224.5 1464,-243.5 1564,-243.5 1564,-224.5 1464,-224.5"/>
<text text-anchor="middle" x="1514" y="-231.5" font-family="Helvetica,sans-Serif" font-size="10.00">ToolsWindows.hpp</text>
</a>
</g>
</g>
<!-- Node3&#45;&gt;Node7 -->
<g id="edge6" class="edge"><title>Node3&#45;&gt;Node7</title>
<path fill="none" stroke="midnightblue" d="M1129.25,-282.827C1204.02,-274.635 1338.95,-259.401 1454,-244 1457.24,-243.567 1460.57,-243.106 1463.93,-242.632"/>
<polygon fill="midnightblue" stroke="midnightblue" points="1128.67,-279.37 1119.11,-283.936 1129.43,-286.329 1128.67,-279.37"/>
</g>
<!-- Node8 -->
<g id="node8" class="node"><title>Node8</title>
<g id="a_node8"><a xlink:href="_graphics_point_8hpp.html" target="_top" xlink:title="GraphicsPoint.hpp">
<polygon fill="white" stroke="black" points="1225.5,-224.5 1225.5,-243.5 1322.5,-243.5 1322.5,-224.5 1225.5,-224.5"/>
<text text-anchor="middle" x="1274" y="-231.5" font-family="Helvetica,sans-Serif" font-size="10.00">GraphicsPoint.hpp</text>
</a>
</g>
</g>
<!-- Node3&#45;&gt;Node8 -->
<g id="edge7" class="edge"><title>Node3&#45;&gt;Node8</title>
<path fill="none" stroke="midnightblue" d="M1113.79,-277.829C1151.93,-267.633 1207.48,-252.782 1242.14,-243.516"/>
<polygon fill="midnightblue" stroke="midnightblue" points="1112.76,-274.48 1104.01,-280.444 1114.57,-281.242 1112.76,-274.48"/>
</g>
<!-- Node19 -->
<g id="node19" class="node"><title>Node19</title>
<g id="a_node19"><a xlink:href="_graphics_animation_8hpp.html" target="_top" xlink:title="GraphicsAnimation.hpp">
<polygon fill="white" stroke="black" points="611,-224.5 611,-243.5 729,-243.5 729,-224.5 611,-224.5"/>
<text text-anchor="middle" x="670" y="-231.5" font-family="Helvetica,sans-Serif" font-size="10.00">GraphicsAnimation.hpp</text>
</a>
</g>
</g>
<!-- Node3&#45;&gt;Node19 -->
<g id="edge25" class="edge"><title>Node3&#45;&gt;Node19</title>
<path fill="none" stroke="midnightblue" d="M1014.74,-279.999C907.832,-264.675 795.984,-250.498 729.282,-242.24"/>
<polygon fill="midnightblue" stroke="midnightblue" points="1014.34,-283.477 1024.74,-281.437 1015.34,-276.549 1014.34,-283.477"/>
</g>
<!-- Node24 -->
<g id="node24" class="node"><title>Node24</title>
<g id="a_node24"><a xlink:href="_graphics_shape_8hpp.html" target="_top" xlink:title="Classe GraphicsShape. ">
<polygon fill="white" stroke="black" points="1021,-224.5 1021,-243.5 1123,-243.5 1123,-224.5 1021,-224.5"/>
<text text-anchor="middle" x="1072" y="-231.5" font-family="Helvetica,sans-Serif" font-size="10.00">GraphicsShape.hpp</text>
</a>
</g>
</g>
<!-- Node3&#45;&gt;Node24 -->
<g id="edge30" class="edge"><title>Node3&#45;&gt;Node24</title>
<path fill="none" stroke="midnightblue" d="M1072,-269.805C1072,-260.91 1072,-250.78 1072,-243.751"/>
<polygon fill="midnightblue" stroke="midnightblue" points="1068.5,-270.083 1072,-280.083 1075.5,-270.083 1068.5,-270.083"/>
</g>
<!-- Node32 -->
<g id="node32" class="node"><title>Node32</title>
<g id="a_node32"><a xlink:href="_graphics_rectangle_8hpp.html" target="_top" xlink:title="GraphicsRectangle.hpp">
<polygon fill="white" stroke="black" points="325.5,-224.5 325.5,-243.5 444.5,-243.5 444.5,-224.5 325.5,-224.5"/>
<text text-anchor="middle" x="385" y="-231.5" font-family="Helvetica,sans-Serif" font-size="10.00">GraphicsRectangle.hpp</text>
</a>
</g>
</g>
<!-- Node3&#45;&gt;Node32 -->
<g id="edge45" class="edge"><title>Node3&#45;&gt;Node32</title>
<path fill="none" stroke="midnightblue" d="M1014.78,-280.299C947.157,-274.599 588.596,-249.32 444.696,-239.196"/>
<polygon fill="midnightblue" stroke="midnightblue" points="1014.48,-283.787 1024.77,-281.224 1015.13,-276.817 1014.48,-283.787"/>
</g>
<!-- Node39 -->
<g id="node39" class="node"><title>Node39</title>
<g id="a_node39"><a xlink:href="_graphics_square_8hpp.html" target="_top" xlink:title="GraphicsSquare.hpp">
<polygon fill="white" stroke="black" points="1340.5,-224.5 1340.5,-243.5 1445.5,-243.5 1445.5,-224.5 1340.5,-224.5"/>
<text text-anchor="middle" x="1393" y="-231.5" font-family="Helvetica,sans-Serif" font-size="10.00">GraphicsSquare.hpp</text>
</a>
</g>
</g>
<!-- Node3&#45;&gt;Node39 -->
<g id="edge56" class="edge"><title>Node3&#45;&gt;Node39</title>
<path fill="none" stroke="midnightblue" d="M1129.18,-279.382C1189.75,-269.192 1284.47,-253.258 1342.41,-243.511"/>
<polygon fill="midnightblue" stroke="midnightblue" points="1128.3,-275.98 1119.02,-281.09 1129.46,-282.883 1128.3,-275.98"/>
</g>
<!-- Node40 -->
<g id="node40" class="node"><title>Node40</title>
<g id="a_node40"><a xlink:href="_graphics_text_8hpp.html" target="_top" xlink:title="Classe GraphicsText. ">
<polygon fill="white" stroke="black" points="303,-168.5 303,-187.5 397,-187.5 397,-168.5 303,-168.5"/>
<text text-anchor="middle" x="350" y="-175.5" font-family="Helvetica,sans-Serif" font-size="10.00">GraphicsText.hpp</text>
</a>
</g>
</g>
<!-- Node3&#45;&gt;Node40 -->
<g id="edge58" class="edge"><title>Node3&#45;&gt;Node40</title>
<path fill="none" stroke="midnightblue" d="M1014.73,-280.071C830.366,-258.218 780.413,-274.569 602,-244 518.723,-229.731 422.645,-201.625 376.903,-187.511"/>
<polygon fill="midnightblue" stroke="midnightblue" points="1014.41,-283.558 1024.76,-281.281 1015.25,-276.608 1014.41,-283.558"/>
</g>
<!-- Node42 -->
<g id="node42" class="node"><title>Node42</title>
<g id="a_node42"><a xlink:href="_graphics_item_8cpp.html" target="_top" xlink:title="GraphicsItem.cpp">
<polygon fill="white" stroke="black" points="1582,-224.5 1582,-243.5 1676,-243.5 1676,-224.5 1582,-224.5"/>
<text text-anchor="middle" x="1629" y="-231.5" font-family="Helvetica,sans-Serif" font-size="10.00">GraphicsItem.cpp</text>
</a>
</g>
</g>
<!-- Node3&#45;&gt;Node42 -->
<g id="edge62" class="edge"><title>Node3&#45;&gt;Node42</title>
<path fill="none" stroke="midnightblue" d="M1129.15,-285.171C1222.31,-278.635 1412.64,-264.063 1573,-244 1575.93,-243.633 1578.94,-243.229 1581.98,-242.801"/>
<polygon fill="midnightblue" stroke="midnightblue" points="1128.82,-281.685 1119.09,-285.872 1129.31,-288.668 1128.82,-281.685"/>
</g>
<!-- Node5 -->
<g id="node5" class="node"><title>Node5</title>
<g id="a_node5"><a xlink:href="main_8cpp.html" target="_top" xlink:title="main.cpp">
<polygon fill="white" stroke="black" points="0,-168.5 0,-187.5 56,-187.5 56,-168.5 0,-168.5"/>
<text text-anchor="middle" x="28" y="-175.5" font-family="Helvetica,sans-Serif" font-size="10.00">main.cpp</text>
</a>
</g>
</g>
<!-- Node4&#45;&gt;Node5 -->
<g id="edge4" class="edge"><title>Node4&#45;&gt;Node5</title>
<path fill="none" stroke="midnightblue" d="M67.6701,-217.253C57.735,-207.673 45.4125,-195.791 37.1611,-187.834"/>
<polygon fill="midnightblue" stroke="midnightblue" points="65.3747,-219.902 75.0026,-224.324 70.2336,-214.863 65.3747,-219.902"/>
</g>
<!-- Node6 -->
<g id="node6" class="node"><title>Node6</title>
<g id="a_node6"><a xlink:href="_main_window_8cpp.html" target="_top" xlink:title="MainWindow.cpp">
<polygon fill="white" stroke="black" points="178,-0.5 178,-19.5 270,-19.5 270,-0.5 178,-0.5"/>
<text text-anchor="middle" x="224" y="-7.5" font-family="Helvetica,sans-Serif" font-size="10.00">MainWindow.cpp</text>
</a>
</g>
</g>
<!-- Node4&#45;&gt;Node6 -->
<g id="edge5" class="edge"><title>Node4&#45;&gt;Node6</title>
<path fill="none" stroke="midnightblue" d="M84.1629,-214.362C84.9844,-189.927 88.5726,-146.16 103,-112 115.105,-83.3403 121.663,-76.5735 145,-56 162.879,-40.2386 187.152,-27.4145 204.055,-19.5463"/>
<polygon fill="midnightblue" stroke="midnightblue" points="80.6629,-214.329 83.9487,-224.402 87.6613,-214.479 80.6629,-214.329"/>
</g>
<!-- Node9 -->
<g id="node9" class="node"><title>Node9</title>
<g id="a_node9"><a xlink:href="_graphics_anchor_8hpp.html" target="_top" xlink:title="GraphicsAnchor.hpp">
<polygon fill="white" stroke="black" points="1385.5,-168.5 1385.5,-187.5 1490.5,-187.5 1490.5,-168.5 1385.5,-168.5"/>
<text text-anchor="middle" x="1438" y="-175.5" font-family="Helvetica,sans-Serif" font-size="10.00">GraphicsAnchor.hpp</text>
</a>
</g>
</g>
<!-- Node8&#45;&gt;Node9 -->
<g id="edge8" class="edge"><title>Node8&#45;&gt;Node9</title>
<path fill="none" stroke="midnightblue" d="M1309.52,-221.304C1340.42,-211.129 1384.47,-196.625 1412.14,-187.516"/>
<polygon fill="midnightblue" stroke="midnightblue" points="1308.39,-217.992 1299.99,-224.444 1310.58,-224.64 1308.39,-217.992"/>
</g>
<!-- Node11 -->
<g id="node11" class="node"><title>Node11</title>
<g id="a_node11"><a xlink:href="_graphics_circle_8cpp.html" target="_top" xlink:title="GraphicsCircle.cpp">
<polygon fill="white" stroke="black" points="1515,-112.5 1515,-131.5 1615,-131.5 1615,-112.5 1515,-112.5"/>
<text text-anchor="middle" x="1565" y="-119.5" font-family="Helvetica,sans-Serif" font-size="10.00">GraphicsCircle.cpp</text>
</a>
</g>
</g>
<!-- Node8&#45;&gt;Node11 -->
<g id="edge17" class="edge"><title>Node8&#45;&gt;Node11</title>
<path fill="none" stroke="midnightblue" d="M1333.02,-224.13C1409.31,-218.67 1710.75,-219.934 1740,-188 1746,-181.445 1745.45,-175.025 1740,-168 1731.9,-157.557 1658.65,-141.366 1609.52,-131.518"/>
<polygon fill="midnightblue" stroke="midnightblue" points="1332.42,-220.67 1322.79,-225.071 1333.06,-227.641 1332.42,-220.67"/>
</g>
<!-- Node12 -->
<g id="node12" class="node"><title>Node12</title>
<g id="a_node12"><a xlink:href="_graphics_ellipse_8cpp.html" target="_top" xlink:title="GraphicsEllipse.cpp">
<polygon fill="white" stroke="black" points="1633,-112.5 1633,-131.5 1737,-131.5 1737,-112.5 1633,-112.5"/>
<text text-anchor="middle" x="1685" y="-119.5" font-family="Helvetica,sans-Serif" font-size="10.00">GraphicsEllipse.cpp</text>
</a>
</g>
</g>
<!-- Node8&#45;&gt;Node12 -->
<g id="edge18" class="edge"><title>Node8&#45;&gt;Node12</title>
<path fill="none" stroke="midnightblue" d="M1332.91,-224.144C1411.27,-218.655 1726.43,-221.267 1757,-188 1777.06,-166.178 1735.5,-143.638 1707.58,-131.682"/>
<polygon fill="midnightblue" stroke="midnightblue" points="1332.43,-220.673 1322.79,-225.059 1333.06,-227.645 1332.43,-220.673"/>
</g>
<!-- Node13 -->
<g id="node13" class="node"><title>Node13</title>
<g id="a_node13"><a xlink:href="_graphics_line_8cpp.html" target="_top" xlink:title="GraphicsLine.cpp">
<polygon fill="white" stroke="black" points="1026,-112.5 1026,-131.5 1118,-131.5 1118,-112.5 1026,-112.5"/>
<text text-anchor="middle" x="1072" y="-119.5" font-family="Helvetica,sans-Serif" font-size="10.00">GraphicsLine.cpp</text>
</a>
</g>
</g>
<!-- Node8&#45;&gt;Node13 -->
<g id="edge19" class="edge"><title>Node8&#45;&gt;Node13</title>
<path fill="none" stroke="midnightblue" d="M1249.11,-219.446C1206.97,-196.497 1122.74,-150.631 1087.78,-131.591"/>
<polygon fill="midnightblue" stroke="midnightblue" points="1247.69,-222.66 1258.15,-224.368 1251.04,-216.512 1247.69,-222.66"/>
</g>
<!-- Node14 -->
<g id="node14" class="node"><title>Node14</title>
<g id="a_node14"><a xlink:href="_graphics_polygon_8cpp.html" target="_top" xlink:title="GraphicsPolygon.cpp">
<polygon fill="white" stroke="black" points="1136,-112.5 1136,-131.5 1246,-131.5 1246,-112.5 1136,-112.5"/>
<text text-anchor="middle" x="1191" y="-119.5" font-family="Helvetica,sans-Serif" font-size="10.00">GraphicsPolygon.cpp</text>
</a>
</g>
</g>
<!-- Node8&#45;&gt;Node14 -->
<g id="edge21" class="edge"><title>Node8&#45;&gt;Node14</title>
<path fill="none" stroke="midnightblue" d="M1246.74,-219.442C1233.92,-211.809 1219.41,-201.154 1210,-188 1197.55,-170.6 1193.2,-145.087 1191.72,-131.792"/>
<polygon fill="midnightblue" stroke="midnightblue" points="1245.25,-222.619 1255.69,-224.459 1248.68,-216.514 1245.25,-222.619"/>
</g>
<!-- Node15 -->
<g id="node15" class="node"><title>Node15</title>
<g id="a_node15"><a xlink:href="_graphics_rectangle_8cpp.html" target="_top" xlink:title="GraphicsRectangle.cpp">
<polygon fill="white" stroke="black" points="888.5,-112.5 888.5,-131.5 1007.5,-131.5 1007.5,-112.5 888.5,-112.5"/>
<text text-anchor="middle" x="948" y="-119.5" font-family="Helvetica,sans-Serif" font-size="10.00">GraphicsRectangle.cpp</text>
</a>
</g>
</g>
<!-- Node8&#45;&gt;Node15 -->
<g id="edge22" class="edge"><title>Node8&#45;&gt;Node15</title>
<path fill="none" stroke="midnightblue" d="M1215.22,-227.711C1147.5,-220.829 1041.07,-207.353 1006,-188 981.371,-174.407 961.913,-146.253 953.114,-131.873"/>
<polygon fill="midnightblue" stroke="midnightblue" points="1215.02,-231.209 1225.32,-228.719 1215.72,-224.244 1215.02,-231.209"/>
</g>
<!-- Node16 -->
<g id="node16" class="node"><title>Node16</title>
<g id="a_node16"><a xlink:href="_graphics_square_8cpp.html" target="_top" xlink:title="GraphicsSquare.cpp">
<polygon fill="white" stroke="black" points="1782.5,-112.5 1782.5,-131.5 1887.5,-131.5 1887.5,-112.5 1782.5,-112.5"/>
<text text-anchor="middle" x="1835" y="-119.5" font-family="Helvetica,sans-Serif" font-size="10.00">GraphicsSquare.cpp</text>
</a>
</g>
</g>
<!-- Node8&#45;&gt;Node16 -->
<g id="edge23" class="edge"><title>Node8&#45;&gt;Node16</title>
<path fill="none" stroke="midnightblue" d="M1332.84,-223.974C1444.42,-213.359 1687.72,-229.584 1774,-188 1800.21,-175.368 1820.82,-146.234 1829.92,-131.648"/>
<polygon fill="midnightblue" stroke="midnightblue" points="1332.36,-220.506 1322.78,-225.049 1333.1,-227.466 1332.36,-220.506"/>
</g>
<!-- Node17 -->
<g id="node17" class="node"><title>Node17</title>
<g id="a_node17"><a xlink:href="_graphics_triangle_8cpp.html" target="_top" xlink:title="GraphicsTriangle.cpp">
<polygon fill="white" stroke="black" points="1264.5,-112.5 1264.5,-131.5 1373.5,-131.5 1373.5,-112.5 1264.5,-112.5"/>
<text text-anchor="middle" x="1319" y="-119.5" font-family="Helvetica,sans-Serif" font-size="10.00">GraphicsTriangle.cpp</text>
</a>
</g>
</g>
<!-- Node8&#45;&gt;Node17 -->
<g id="edge24" class="edge"><title>Node8&#45;&gt;Node17</title>
<path fill="none" stroke="midnightblue" d="M1303.82,-219.606C1316.48,-212.234 1329.92,-201.753 1337,-188 1346.64,-169.259 1333.83,-144.738 1325.37,-131.83"/>
<polygon fill="midnightblue" stroke="midnightblue" points="1302,-216.611 1294.85,-224.427 1305.31,-222.778 1302,-216.611"/>
</g>
<!-- Node18 -->
<g id="node18" class="node"><title>Node18</title>
<g id="a_node18"><a xlink:href="_graphics_point_8cpp.html" target="_top" xlink:title="GraphicsPoint.cpp">
<polygon fill="white" stroke="black" points="1863.5,-168.5 1863.5,-187.5 1960.5,-187.5 1960.5,-168.5 1863.5,-168.5"/>
<text text-anchor="middle" x="1912" y="-175.5" font-family="Helvetica,sans-Serif" font-size="10.00">GraphicsPoint.cpp</text>
</a>
</g>
</g>
<!-- Node8&#45;&gt;Node18 -->
<g id="edge20" class="edge"><title>Node8&#45;&gt;Node18</title>
<path fill="none" stroke="midnightblue" d="M1332.76,-223.888C1562.02,-198.378 1622.76,-211.99 1849,-188 1853.61,-187.511 1858.41,-186.94 1863.2,-186.327"/>
<polygon fill="midnightblue" stroke="midnightblue" points="1332.33,-220.415 1322.78,-225.011 1333.11,-227.371 1332.33,-220.415"/>
</g>
<!-- Node10 -->
<g id="node10" class="node"><title>Node10</title>
<g id="a_node10"><a xlink:href="_graphics_anchor_8cpp.html" target="_top" xlink:title="GraphicsAnchor.cpp">
<polygon fill="white" stroke="black" points="1391.5,-112.5 1391.5,-131.5 1496.5,-131.5 1496.5,-112.5 1391.5,-112.5"/>
<text text-anchor="middle" x="1444" y="-119.5" font-family="Helvetica,sans-Serif" font-size="10.00">GraphicsAnchor.cpp</text>
</a>
</g>
</g>
<!-- Node9&#45;&gt;Node10 -->
<g id="edge9" class="edge"><title>Node9&#45;&gt;Node10</title>
<path fill="none" stroke="midnightblue" d="M1440.1,-158.101C1441.1,-149.136 1442.24,-138.858 1443.03,-131.751"/>
<polygon fill="midnightblue" stroke="midnightblue" points="1436.62,-157.758 1438.99,-168.083 1443.57,-158.531 1436.62,-157.758"/>
</g>
<!-- Node9&#45;&gt;Node11 -->
<g id="edge10" class="edge"><title>Node9&#45;&gt;Node11</title>
<path fill="none" stroke="midnightblue" d="M1467.39,-164.503C1491.2,-154.38 1524.11,-140.388 1544.97,-131.516"/>
<polygon fill="midnightblue" stroke="midnightblue" points="1465.96,-161.31 1458.12,-168.444 1468.7,-167.751 1465.96,-161.31"/>
</g>
<!-- Node9&#45;&gt;Node12 -->
<g id="edge11" class="edge"><title>Node9&#45;&gt;Node12</title>
<path fill="none" stroke="midnightblue" d="M1487.03,-166.281C1533.7,-156.077 1603.03,-140.92 1646.05,-131.516"/>
<polygon fill="midnightblue" stroke="midnightblue" points="1486.16,-162.888 1477.14,-168.444 1487.65,-169.727 1486.16,-162.888"/>
</g>
<!-- Node9&#45;&gt;Node13 -->
<g id="edge12" class="edge"><title>Node9&#45;&gt;Node13</title>
<path fill="none" stroke="midnightblue" d="M1375.26,-168.269C1312.41,-159.441 1212.93,-145.247 1127,-132 1124.13,-131.558 1121.18,-131.096 1118.2,-130.624"/>
<polygon fill="midnightblue" stroke="midnightblue" points="1375.02,-171.769 1385.4,-169.692 1375.99,-164.837 1375.02,-171.769"/>
</g>
<!-- Node9&#45;&gt;Node14 -->
<g id="edge13" class="edge"><title>Node9&#45;&gt;Node14</title>
<path fill="none" stroke="midnightblue" d="M1388.97,-166.281C1342.3,-156.077 1272.97,-140.92 1229.95,-131.516"/>
<polygon fill="midnightblue" stroke="midnightblue" points="1388.35,-169.727 1398.86,-168.444 1389.84,-162.888 1388.35,-169.727"/>
</g>
<!-- Node9&#45;&gt;Node15 -->
<g id="edge14" class="edge"><title>Node9&#45;&gt;Node15</title>
<path fill="none" stroke="midnightblue" d="M1375.26,-170.753C1292.95,-162.452 1144.05,-147.074 1017,-132 1014,-131.644 1010.93,-131.272 1007.83,-130.89"/>
<polygon fill="midnightblue" stroke="midnightblue" points="1375.15,-174.259 1385.45,-171.779 1375.85,-167.295 1375.15,-174.259"/>
</g>
<!-- Node9&#45;&gt;Node16 -->
<g id="edge15" class="edge"><title>Node9&#45;&gt;Node16</title>
<path fill="none" stroke="midnightblue" d="M1500.68,-167.917C1606.83,-153.12 1718.48,-138.302 1782.47,-129.881"/>
<polygon fill="midnightblue" stroke="midnightblue" points="1500.18,-164.453 1490.76,-169.302 1501.15,-171.386 1500.18,-164.453"/>
</g>
<!-- Node9&#45;&gt;Node17 -->
<g id="edge16" class="edge"><title>Node9&#45;&gt;Node17</title>
<path fill="none" stroke="midnightblue" d="M1409.86,-164.232C1387.6,-154.131 1357.14,-140.309 1337.77,-131.516"/>
<polygon fill="midnightblue" stroke="midnightblue" points="1408.59,-167.498 1419.14,-168.444 1411.48,-161.124 1408.59,-167.498"/>
</g>
<!-- Node20 -->
<g id="node20" class="node"><title>Node20</title>
<g id="a_node20"><a xlink:href="_graphics_blink_animation_8hpp.html" target="_top" xlink:title="GraphicsBlinkAnimation.hpp">
<polygon fill="white" stroke="black" points="415,-168.5 415,-187.5 555,-187.5 555,-168.5 415,-168.5"/>
<text text-anchor="middle" x="485" y="-175.5" font-family="Helvetica,sans-Serif" font-size="10.00">GraphicsBlinkAnimation.hpp</text>
</a>
</g>
</g>
<!-- Node19&#45;&gt;Node20 -->
<g id="edge26" class="edge"><title>Node19&#45;&gt;Node20</title>
<path fill="none" stroke="midnightblue" d="M630.834,-221.568C595.935,-211.381 545.651,-196.703 514.177,-187.516"/>
<polygon fill="midnightblue" stroke="midnightblue" points="630.106,-225.001 640.686,-224.444 632.067,-218.282 630.106,-225.001"/>
</g>
<!-- Node23 -->
<g id="node23" class="node"><title>Node23</title>
<g id="a_node23"><a xlink:href="_graphics_animation_8cpp.html" target="_top" xlink:title="GraphicsAnimation.cpp">
<polygon fill="white" stroke="black" points="611,-168.5 611,-187.5 729,-187.5 729,-168.5 611,-168.5"/>
<text text-anchor="middle" x="670" y="-175.5" font-family="Helvetica,sans-Serif" font-size="10.00">GraphicsAnimation.cpp</text>
</a>
</g>
</g>
<!-- Node19&#45;&gt;Node23 -->
<g id="edge29" class="edge"><title>Node19&#45;&gt;Node23</title>
<path fill="none" stroke="midnightblue" d="M670,-213.805C670,-204.91 670,-194.78 670,-187.751"/>
<polygon fill="midnightblue" stroke="midnightblue" points="666.5,-214.083 670,-224.083 673.5,-214.083 666.5,-214.083"/>
</g>
<!-- Node21 -->
<g id="node21" class="node"><title>Node21</title>
<g id="a_node21"><a xlink:href="_graphics_blink_animation_8cpp.html" target="_top" xlink:title="GraphicsBlinkAnimation.cpp">
<polygon fill="white" stroke="black" points="513,-112.5 513,-131.5 653,-131.5 653,-112.5 513,-112.5"/>
<text text-anchor="middle" x="583" y="-119.5" font-family="Helvetica,sans-Serif" font-size="10.00">GraphicsBlinkAnimation.cpp</text>
</a>
</g>
</g>
<!-- Node20&#45;&gt;Node21 -->
<g id="edge27" class="edge"><title>Node20&#45;&gt;Node21</title>
<path fill="none" stroke="midnightblue" d="M509.586,-163.453C527.678,-153.483 551.735,-140.228 567.294,-131.655"/>
<polygon fill="midnightblue" stroke="midnightblue" points="507.815,-160.432 500.745,-168.324 511.193,-166.563 507.815,-160.432"/>
</g>
<!-- Node22 -->
<g id="node22" class="node"><title>Node22</title>
<g id="a_node22"><a xlink:href="_line_edit_8cpp.html" target="_top" xlink:title="LineEdit.cpp">
<polygon fill="white" stroke="black" points="400.5,-56.5 400.5,-75.5 471.5,-75.5 471.5,-56.5 400.5,-56.5"/>
<text text-anchor="middle" x="436" y="-63.5" font-family="Helvetica,sans-Serif" font-size="10.00">LineEdit.cpp</text>
</a>
</g>
</g>
<!-- Node20&#45;&gt;Node22 -->
<g id="edge28" class="edge"><title>Node20&#45;&gt;Node22</title>
<path fill="none" stroke="midnightblue" d="M481.157,-158.424C478.029,-145.121 472.985,-126.985 466,-112 459.732,-98.5537 449.774,-84.5638 443.068,-75.8232"/>
<polygon fill="midnightblue" stroke="midnightblue" points="477.761,-159.276 483.335,-168.287 484.597,-157.767 477.761,-159.276"/>
</g>
<!-- Node25 -->
<g id="node25" class="node"><title>Node25</title>
<g id="a_node25"><a xlink:href="_graphics_circle_8hpp.html" target="_top" xlink:title="GraphicsCircle.hpp">
<polygon fill="white" stroke="black" points="1509,-168.5 1509,-187.5 1609,-187.5 1609,-168.5 1509,-168.5"/>
<text text-anchor="middle" x="1559" y="-175.5" font-family="Helvetica,sans-Serif" font-size="10.00">GraphicsCircle.hpp</text>
</a>
</g>
</g>
<!-- Node24&#45;&gt;Node25 -->
<g id="edge31" class="edge"><title>Node24&#45;&gt;Node25</title>
<path fill="none" stroke="midnightblue" d="M1133.03,-227.418C1215.99,-219.636 1368.93,-204.602 1499,-188 1502.24,-187.587 1505.57,-187.141 1508.93,-186.678"/>
<polygon fill="midnightblue" stroke="midnightblue" points="1132.65,-223.938 1123.02,-228.353 1133.31,-230.907 1132.65,-223.938"/>
</g>
<!-- Node26 -->
<g id="node26" class="node"><title>Node26</title>
<g id="a_node26"><a xlink:href="_graphics_ellipse_8hpp.html" target="_top" xlink:title="GraphicsEllipse.hpp">
<polygon fill="white" stroke="black" points="1627,-168.5 1627,-187.5 1731,-187.5 1731,-168.5 1627,-168.5"/>
<text text-anchor="middle" x="1679" y="-175.5" font-family="Helvetica,sans-Serif" font-size="10.00">GraphicsEllipse.hpp</text>
</a>
</g>
</g>
<!-- Node24&#45;&gt;Node26 -->
<g id="edge33" class="edge"><title>Node24&#45;&gt;Node26</title>
<path fill="none" stroke="midnightblue" d="M1133.33,-229.235C1234.5,-222.736 1442.6,-208.146 1618,-188 1620.87,-187.67 1623.82,-187.31 1626.79,-186.929"/>
<polygon fill="midnightblue" stroke="midnightblue" points="1133.05,-225.746 1123.3,-229.876 1133.5,-232.732 1133.05,-225.746"/>
</g>
<!-- Node27 -->
<g id="node27" class="node"><title>Node27</title>
<g id="a_node27"><a xlink:href="_graphics_line_8hpp.html" target="_top" xlink:title="GraphicsLine.hpp">
<polygon fill="white" stroke="black" points="747,-168.5 747,-187.5 839,-187.5 839,-168.5 747,-168.5"/>
<text text-anchor="middle" x="793" y="-175.5" font-family="Helvetica,sans-Serif" font-size="10.00">GraphicsLine.hpp</text>
</a>
</g>
</g>
<!-- Node24&#45;&gt;Node27 -->
<g id="edge35" class="edge"><title>Node24&#45;&gt;Node27</title>
<path fill="none" stroke="midnightblue" d="M1017.94,-222.537C965.213,-212.332 885.996,-196.999 837.002,-187.516"/>
<polygon fill="midnightblue" stroke="midnightblue" points="1017.31,-225.979 1027.79,-224.444 1018.64,-219.107 1017.31,-225.979"/>
</g>
<!-- Node29 -->
<g id="node29" class="node"><title>Node29</title>
<g id="a_node29"><a xlink:href="_graphics_polygon_8hpp.html" target="_top" xlink:title="GraphicsPolygon.hpp">
<polygon fill="white" stroke="black" points="1015,-168.5 1015,-187.5 1125,-187.5 1125,-168.5 1015,-168.5"/>
<text text-anchor="middle" x="1070" y="-175.5" font-family="Helvetica,sans-Serif" font-size="10.00">GraphicsPolygon.hpp</text>
</a>
</g>
</g>
<!-- Node24&#45;&gt;Node29 -->
<g id="edge40" class="edge"><title>Node24&#45;&gt;Node29</title>
<path fill="none" stroke="midnightblue" d="M1071.29,-213.805C1070.96,-204.91 1070.58,-194.78 1070.32,-187.751"/>
<polygon fill="midnightblue" stroke="midnightblue" points="1067.8,-214.219 1071.67,-224.083 1074.8,-213.96 1067.8,-214.219"/>
</g>
<!-- Node30 -->
<g id="node30" class="node"><title>Node30</title>
<g id="a_node30"><a xlink:href="_graphics_triangle_8hpp.html" target="_top" xlink:title="Classe GraphicsTriangle. ">
<polygon fill="white" stroke="black" points="1219.5,-168.5 1219.5,-187.5 1328.5,-187.5 1328.5,-168.5 1219.5,-168.5"/>
<text text-anchor="middle" x="1274" y="-175.5" font-family="Helvetica,sans-Serif" font-size="10.00">GraphicsTriangle.hpp</text>
</a>
</g>
</g>
<!-- Node24&#45;&gt;Node30 -->
<g id="edge42" class="edge"><title>Node24&#45;&gt;Node30</title>
<path fill="none" stroke="midnightblue" d="M1113.79,-221.829C1151.93,-211.633 1207.48,-196.782 1242.14,-187.516"/>
<polygon fill="midnightblue" stroke="midnightblue" points="1112.76,-218.48 1104.01,-224.444 1114.57,-225.242 1112.76,-218.48"/>
</g>
<!-- Node31 -->
<g id="node31" class="node"><title>Node31</title>
<g id="a_node31"><a xlink:href="_graphics_shape_8cpp.html" target="_top" xlink:title="GraphicsShape.cpp">
<polygon fill="white" stroke="black" points="857,-168.5 857,-187.5 959,-187.5 959,-168.5 857,-168.5"/>
<text text-anchor="middle" x="908" y="-175.5" font-family="Helvetica,sans-Serif" font-size="10.00">GraphicsShape.cpp</text>
</a>
</g>
</g>
<!-- Node24&#45;&gt;Node31 -->
<g id="edge44" class="edge"><title>Node24&#45;&gt;Node31</title>
<path fill="none" stroke="midnightblue" d="M1036.48,-221.304C1005.58,-211.129 961.527,-196.625 933.865,-187.516"/>
<polygon fill="midnightblue" stroke="midnightblue" points="1035.42,-224.64 1046.01,-224.444 1037.61,-217.992 1035.42,-224.64"/>
</g>
<!-- Node25&#45;&gt;Node11 -->
<g id="edge32" class="edge"><title>Node25&#45;&gt;Node11</title>
<path fill="none" stroke="midnightblue" d="M1561.1,-158.101C1562.1,-149.136 1563.24,-138.858 1564.03,-131.751"/>
<polygon fill="midnightblue" stroke="midnightblue" points="1557.62,-157.758 1559.99,-168.083 1564.57,-158.531 1557.62,-157.758"/>
</g>
<!-- Node26&#45;&gt;Node12 -->
<g id="edge34" class="edge"><title>Node26&#45;&gt;Node12</title>
<path fill="none" stroke="midnightblue" d="M1681.1,-158.101C1682.1,-149.136 1683.24,-138.858 1684.03,-131.751"/>
<polygon fill="midnightblue" stroke="midnightblue" points="1677.62,-157.758 1679.99,-168.083 1684.57,-158.531 1677.62,-157.758"/>
</g>
<!-- Node27&#45;&gt;Node13 -->
<g id="edge36" class="edge"><title>Node27&#45;&gt;Node13</title>
<path fill="none" stroke="midnightblue" d="M847.058,-166.537C899.787,-156.332 979.004,-140.999 1028,-131.516"/>
<polygon fill="midnightblue" stroke="midnightblue" points="846.361,-163.107 837.208,-168.444 847.691,-169.979 846.361,-163.107"/>
</g>
<!-- Node28 -->
<g id="node28" class="node"><title>Node28</title>
<g id="a_node28"><a xlink:href="_line_edit_8hpp.html" target="_top" xlink:title="LineEdit.hpp">
<polygon fill="white" stroke="black" points="273.5,-112.5 273.5,-131.5 344.5,-131.5 344.5,-112.5 273.5,-112.5"/>
<text text-anchor="middle" x="309" y="-119.5" font-family="Helvetica,sans-Serif" font-size="10.00">LineEdit.hpp</text>
</a>
</g>
</g>
<!-- Node27&#45;&gt;Node28 -->
<g id="edge37" class="edge"><title>Node27&#45;&gt;Node28</title>
<path fill="none" stroke="midnightblue" d="M736.748,-167.926C566.248,-146.541 520.376,-156.369 354,-132 351.004,-131.561 347.907,-131.054 344.803,-130.509"/>
<polygon fill="midnightblue" stroke="midnightblue" points="736.458,-171.417 746.82,-169.207 737.342,-164.473 736.458,-171.417"/>
</g>
<!-- Node28&#45;&gt;Node6 -->
<g id="edge38" class="edge"><title>Node28&#45;&gt;Node6</title>
<path fill="none" stroke="midnightblue" d="M290.452,-105.956C280.971,-97.713 269.642,-86.9624 261,-76 246.37,-57.4407 233.841,-32.4173 227.82,-19.5014"/>
<polygon fill="midnightblue" stroke="midnightblue" points="288.297,-108.717 298.195,-112.497 292.814,-103.37 288.297,-108.717"/>
</g>
<!-- Node28&#45;&gt;Node22 -->
<g id="edge39" class="edge"><title>Node28&#45;&gt;Node22</title>
<path fill="none" stroke="midnightblue" d="M338.391,-108.503C362.2,-98.3795 395.106,-84.388 415.971,-75.5164"/>
<polygon fill="midnightblue" stroke="midnightblue" points="336.957,-105.31 329.124,-112.444 339.696,-111.751 336.957,-105.31"/>
</g>
<!-- Node29&#45;&gt;Node14 -->
<g id="edge41" class="edge"><title>Node29&#45;&gt;Node14</title>
<path fill="none" stroke="midnightblue" d="M1098.31,-164.368C1120.97,-154.255 1152.13,-140.349 1171.92,-131.516"/>
<polygon fill="midnightblue" stroke="midnightblue" points="1096.88,-161.172 1089.17,-168.444 1099.73,-167.564 1096.88,-161.172"/>
</g>
<!-- Node30&#45;&gt;Node17 -->
<g id="edge43" class="edge"><title>Node30&#45;&gt;Node17</title>
<path fill="none" stroke="midnightblue" d="M1288.05,-160.144C1295.89,-150.736 1305.33,-139.405 1311.71,-131.751"/>
<polygon fill="midnightblue" stroke="midnightblue" points="1285.14,-158.16 1281.43,-168.083 1290.52,-162.641 1285.14,-158.16"/>
</g>
<!-- Node32&#45;&gt;Node15 -->
<g id="edge46" class="edge"><title>Node32&#45;&gt;Node15</title>
<path fill="none" stroke="midnightblue" d="M441.787,-222.344C477.519,-214.759 524.231,-203.214 564,-188 581.825,-181.181 583.807,-173.766 602,-168 699.3,-137.164 818.412,-127.425 888.469,-124.37"/>
<polygon fill="midnightblue" stroke="midnightblue" points="440.621,-219.011 431.543,-224.474 442.046,-225.864 440.621,-219.011"/>
</g>
<!-- Node32&#45;&gt;Node28 -->
<g id="edge55" class="edge"><title>Node32&#45;&gt;Node28</title>
<path fill="none" stroke="midnightblue" d="M337.316,-220.81C320.662,-214.015 303.717,-203.645 294,-188 282.879,-170.094 295.152,-144.795 303.177,-131.665"/>
<polygon fill="midnightblue" stroke="midnightblue" points="336.439,-224.218 347.032,-224.411 338.871,-217.654 336.439,-224.218"/>
</g>
<!-- Node33 -->
<g id="node33" class="node"><title>Node33</title>
<g id="a_node33"><a xlink:href="_widget_8hpp.html" target="_top" xlink:title="Widget.hpp">
<polygon fill="white" stroke="black" points="181,-168.5 181,-187.5 247,-187.5 247,-168.5 181,-168.5"/>
<text text-anchor="middle" x="214" y="-175.5" font-family="Helvetica,sans-Serif" font-size="10.00">Widget.hpp</text>
</a>
</g>
</g>
<!-- Node32&#45;&gt;Node33 -->
<g id="edge47" class="edge"><title>Node32&#45;&gt;Node33</title>
<path fill="none" stroke="midnightblue" d="M347.964,-221.304C315.743,-211.129 269.811,-196.625 240.969,-187.516"/>
<polygon fill="midnightblue" stroke="midnightblue" points="347.315,-224.77 357.905,-224.444 349.423,-218.095 347.315,-224.77"/>
</g>
<!-- Node33&#45;&gt;Node28 -->
<g id="edge53" class="edge"><title>Node33&#45;&gt;Node28</title>
<path fill="none" stroke="midnightblue" d="M238.318,-163.177C255.799,-153.241 278.83,-140.149 293.774,-131.655"/>
<polygon fill="midnightblue" stroke="midnightblue" points="236.227,-160.339 229.263,-168.324 239.687,-166.425 236.227,-160.339"/>
</g>
<!-- Node34 -->
<g id="node34" class="node"><title>Node34</title>
<g id="a_node34"><a xlink:href="_label_8hpp.html" target="_top" xlink:title="Label.hpp">
<polygon fill="white" stroke="black" points="196.5,-112.5 196.5,-131.5 255.5,-131.5 255.5,-112.5 196.5,-112.5"/>
<text text-anchor="middle" x="226" y="-119.5" font-family="Helvetica,sans-Serif" font-size="10.00">Label.hpp</text>
</a>
</g>
</g>
<!-- Node33&#45;&gt;Node34 -->
<g id="edge48" class="edge"><title>Node33&#45;&gt;Node34</title>
<path fill="none" stroke="midnightblue" d="M218.2,-158.101C220.192,-149.136 222.476,-138.858 224.055,-131.751"/>
<polygon fill="midnightblue" stroke="midnightblue" points="214.734,-157.562 215.982,-168.083 221.568,-159.08 214.734,-157.562"/>
</g>
<!-- Node38 -->
<g id="node38" class="node"><title>Node38</title>
<g id="a_node38"><a xlink:href="_widget_8cpp.html" target="_top" xlink:title="Widget.cpp">
<polygon fill="white" stroke="black" points="112,-112.5 112,-131.5 178,-131.5 178,-112.5 112,-112.5"/>
<text text-anchor="middle" x="145" y="-119.5" font-family="Helvetica,sans-Serif" font-size="10.00">Widget.cpp</text>
</a>
</g>
</g>
<!-- Node33&#45;&gt;Node38 -->
<g id="edge54" class="edge"><title>Node33&#45;&gt;Node38</title>
<path fill="none" stroke="midnightblue" d="M194.962,-162.101C182.544,-152.382 166.757,-140.027 156.288,-131.834"/>
<polygon fill="midnightblue" stroke="midnightblue" points="192.882,-164.917 202.914,-168.324 197.196,-159.405 192.882,-164.917"/>
</g>
<!-- Node35 -->
<g id="node35" class="node"><title>Node35</title>
<g id="a_node35"><a xlink:href="_button_8hpp.html" target="_top" xlink:title="Classe Button. ">
<polygon fill="white" stroke="black" points="270,-56.5 270,-75.5 334,-75.5 334,-56.5 270,-56.5"/>
<text text-anchor="middle" x="302" y="-63.5" font-family="Helvetica,sans-Serif" font-size="10.00">Button.hpp</text>
</a>
</g>
</g>
<!-- Node34&#45;&gt;Node35 -->
<g id="edge49" class="edge"><title>Node34&#45;&gt;Node35</title>
<path fill="none" stroke="midnightblue" d="M246.576,-106.38C260.312,-96.6204 277.925,-84.1057 289.567,-75.8339"/>
<polygon fill="midnightblue" stroke="midnightblue" points="244.335,-103.679 238.211,-112.324 248.39,-109.385 244.335,-103.679"/>
</g>
<!-- Node37 -->
<g id="node37" class="node"><title>Node37</title>
<g id="a_node37"><a xlink:href="_label_8cpp.html" target="_top" xlink:title="Label.cpp">
<polygon fill="white" stroke="black" points="154.5,-56.5 154.5,-75.5 213.5,-75.5 213.5,-56.5 154.5,-56.5"/>
<text text-anchor="middle" x="184" y="-63.5" font-family="Helvetica,sans-Serif" font-size="10.00">Label.cpp</text>
</a>
</g>
</g>
<!-- Node34&#45;&gt;Node37 -->
<g id="edge52" class="edge"><title>Node34&#45;&gt;Node37</title>
<path fill="none" stroke="midnightblue" d="M212.89,-104.144C205.572,-94.7357 196.759,-83.4046 190.806,-75.7511"/>
<polygon fill="midnightblue" stroke="midnightblue" points="210.162,-106.338 219.065,-112.083 215.688,-102.041 210.162,-106.338"/>
</g>
<!-- Node35&#45;&gt;Node6 -->
<g id="edge50" class="edge"><title>Node35&#45;&gt;Node6</title>
<path fill="none" stroke="midnightblue" d="M281.232,-50.6221C266.983,-40.7574 248.544,-27.9919 236.501,-19.6545"/>
<polygon fill="midnightblue" stroke="midnightblue" points="279.254,-53.5095 289.468,-56.324 283.238,-47.7541 279.254,-53.5095"/>
</g>
<!-- Node36 -->
<g id="node36" class="node"><title>Node36</title>
<g id="a_node36"><a xlink:href="_button_8cpp.html" target="_top" xlink:title="Button.cpp">
<polygon fill="white" stroke="black" points="288,-0.5 288,-19.5 352,-19.5 352,-0.5 288,-0.5"/>
<text text-anchor="middle" x="320" y="-7.5" font-family="Helvetica,sans-Serif" font-size="10.00">Button.cpp</text>
</a>
</g>
</g>
<!-- Node35&#45;&gt;Node36 -->
<g id="edge51" class="edge"><title>Node35&#45;&gt;Node36</title>
<path fill="none" stroke="midnightblue" d="M308.201,-46.3956C311.213,-37.362 314.688,-26.936 317.083,-19.7511"/>
<polygon fill="midnightblue" stroke="midnightblue" points="304.814,-45.4893 304.972,-56.083 311.455,-47.703 304.814,-45.4893"/>
</g>
<!-- Node39&#45;&gt;Node16 -->
<g id="edge57" class="edge"><title>Node39&#45;&gt;Node16</title>
<path fill="none" stroke="midnightblue" d="M1455.88,-224.264C1546.36,-218.796 1931.6,-228.115 1969,-188 1997.48,-157.458 1936.69,-139.583 1887.94,-130.547"/>
<polygon fill="midnightblue" stroke="midnightblue" points="1455.42,-220.789 1445.73,-225.074 1455.98,-227.767 1455.42,-220.789"/>
</g>
<!-- Node40&#45;&gt;Node28 -->
<g id="edge61" class="edge"><title>Node40&#45;&gt;Node28</title>
<path fill="none" stroke="midnightblue" d="M336.983,-159.855C329.883,-150.505 321.396,-139.327 315.644,-131.751"/>
<polygon fill="midnightblue" stroke="midnightblue" points="334.395,-162.235 343.23,-168.083 339.97,-158.002 334.395,-162.235"/>
</g>
<!-- Node40&#45;&gt;Node34 -->
<g id="edge60" class="edge"><title>Node40&#45;&gt;Node34</title>
<path fill="none" stroke="midnightblue" d="M320.993,-164.368C297.771,-154.255 265.837,-140.349 245.556,-131.516"/>
<polygon fill="midnightblue" stroke="midnightblue" points="319.786,-167.66 330.352,-168.444 322.581,-161.242 319.786,-167.66"/>
</g>
<!-- Node41 -->
<g id="node41" class="node"><title>Node41</title>
<g id="a_node41"><a xlink:href="_graphics_text_8cpp.html" target="_top" xlink:title="GraphicsText.cpp">
<polygon fill="white" stroke="black" points="363,-112.5 363,-131.5 457,-131.5 457,-112.5 363,-112.5"/>
<text text-anchor="middle" x="410" y="-119.5" font-family="Helvetica,sans-Serif" font-size="10.00">GraphicsText.cpp</text>
</a>
</g>
</g>
<!-- Node40&#45;&gt;Node41 -->
<g id="edge59" class="edge"><title>Node40&#45;&gt;Node41</title>
<path fill="none" stroke="midnightblue" d="M367.181,-161.537C377.879,-151.909 391.256,-139.869 400.185,-131.834"/>
<polygon fill="midnightblue" stroke="midnightblue" points="364.732,-159.033 359.64,-168.324 369.414,-164.236 364.732,-159.033"/>
</g>
</g>
</svg>
