<?xml version="1.0" encoding="UTF-8" standalone="no"?>
<!DOCTYPE svg PUBLIC "-//W3C//DTD SVG 1.1//EN"
 "http://www.w3.org/Graphics/SVG/1.1/DTD/svg11.dtd">
<!-- Generated by graphviz version 2.36.0 (20140111.2315)
 -->
<!-- Title: ConfigPolygon.hpp Pages: 1 -->
<svg width="231pt" height="84pt"
 viewBox="0.00 0.00 231.00 84.00" xmlns="http://www.w3.org/2000/svg" xmlns:xlink="http://www.w3.org/1999/xlink">
<g id="graph0" class="graph" transform="scale(1 1) rotate(0) translate(4 80)">
<title>ConfigPolygon.hpp</title>
<polygon fill="white" stroke="none" points="-4,4 -4,-80 227,-80 227,4 -4,4"/>
<!-- Node1 -->
<g id="node1" class="node"><title>Node1</title>
<polygon fill="#bfbfbf" stroke="black" points="59.5,-56.5 59.5,-75.5 158.5,-75.5 158.5,-56.5 59.5,-56.5"/>
<text text-anchor="middle" x="109" y="-63.5" font-family="Helvetica,sans-Serif" font-size="10.00">ConfigPolygon.hpp</text>
</g>
<!-- Node2 -->
<g id="node2" class="node"><title>Node2</title>
<g id="a_node2"><a xlink:href="_config_polygon_8cpp_source.html" target="_top" xlink:title="ConfigPolygon.cpp">
<polygon fill="white" stroke="black" points="-0.5,-0.5 -0.5,-19.5 98.5,-19.5 98.5,-0.5 -0.5,-0.5"/>
<text text-anchor="middle" x="49" y="-7.5" font-family="Helvetica,sans-Serif" font-size="10.00">ConfigPolygon.cpp</text>
</a>
</g>
</g>
<!-- Node1&#45;&gt;Node2 -->
<g id="edge1" class="edge"><title>Node1&#45;&gt;Node2</title>
<path fill="none" stroke="midnightblue" d="M91.8191,-49.5372C81.1208,-39.9087 67.7437,-27.8694 58.8154,-19.8339"/>
<polygon fill="midnightblue" stroke="midnightblue" points="89.5856,-52.2358 99.36,-56.324 94.2684,-47.0327 89.5856,-52.2358"/>
</g>
<!-- Node3 -->
<g id="node3" class="node"><title>Node3</title>
<g id="a_node3"><a xlink:href="_graphics_factory_8cpp_source.html" target="_top" xlink:title="GraphicsFactory.cpp">
<polygon fill="white" stroke="black" points="116.5,-0.5 116.5,-19.5 223.5,-19.5 223.5,-0.5 116.5,-0.5"/>
<text text-anchor="middle" x="170" y="-7.5" font-family="Helvetica,sans-Serif" font-size="10.00">GraphicsFactory.cpp</text>
</a>
</g>
</g>
<!-- Node1&#45;&gt;Node3 -->
<g id="edge2" class="edge"><title>Node1&#45;&gt;Node3</title>
<path fill="none" stroke="midnightblue" d="M126.467,-49.5372C137.344,-39.9087 150.944,-27.8694 160.021,-19.8339"/>
<polygon fill="midnightblue" stroke="midnightblue" points="123.968,-47.0749 118.801,-56.324 128.608,-52.3162 123.968,-47.0749"/>
</g>
</g>
</svg>
