<?xml version="1.0" encoding="UTF-8" standalone="no"?>
<!DOCTYPE svg PUBLIC "-//W3C//DTD SVG 1.1//EN"
 "http://www.w3.org/Graphics/SVG/1.1/DTD/svg11.dtd">
<!-- Generated by graphviz version 2.36.0 (20140111.2315)
 -->
<!-- Title: Event.cpp Pages: 1 -->
<svg width="197pt" height="140pt"
 viewBox="0.00 0.00 197.00 140.00" xmlns="http://www.w3.org/2000/svg" xmlns:xlink="http://www.w3.org/1999/xlink">
<g id="graph0" class="graph" transform="scale(1 1) rotate(0) translate(4 136)">
<title>Event.cpp</title>
<polygon fill="white" stroke="none" points="-4,4 -4,-136 193,-136 193,4 -4,4"/>
<!-- Node1 -->
<g id="node1" class="node"><title>Node1</title>
<polygon fill="#bfbfbf" stroke="black" points="48.5,-112.5 48.5,-131.5 109.5,-131.5 109.5,-112.5 48.5,-112.5"/>
<text text-anchor="middle" x="79" y="-119.5" font-family="Helvetica,sans-Serif" font-size="10.00">Event.cpp</text>
</g>
<!-- Node2 -->
<g id="node2" class="node"><title>Node2</title>
<g id="a_node2"><a xlink:href="_event_8hpp.html" target="_top" xlink:title="Classe Event. ">
<polygon fill="white" stroke="black" points="27,-56.5 27,-75.5 131,-75.5 131,-56.5 27,-56.5"/>
<text text-anchor="middle" x="79" y="-63.5" font-family="Helvetica,sans-Serif" font-size="10.00">../include/Event.hpp</text>
</a>
</g>
</g>
<!-- Node1&#45;&gt;Node2 -->
<g id="edge1" class="edge"><title>Node1&#45;&gt;Node2</title>
<path fill="none" stroke="midnightblue" d="M79,-112.083C79,-105.006 79,-94.8611 79,-85.9865"/>
<polygon fill="midnightblue" stroke="midnightblue" points="82.5001,-85.751 79,-75.7511 75.5001,-85.7511 82.5001,-85.751"/>
</g>
<!-- Node3 -->
<g id="node3" class="node"><title>Node3</title>
<polygon fill="white" stroke="#bfbfbf" points="0,-0.5 0,-19.5 54,-19.5 54,-0.5 0,-0.5"/>
<text text-anchor="middle" x="27" y="-7.5" font-family="Helvetica,sans-Serif" font-size="10.00">iostream</text>
</g>
<!-- Node2&#45;&gt;Node3 -->
<g id="edge2" class="edge"><title>Node2&#45;&gt;Node3</title>
<path fill="none" stroke="midnightblue" d="M70.4133,-56.083C62.841,-48.2195 51.6218,-36.5688 42.4856,-27.0813"/>
<polygon fill="midnightblue" stroke="midnightblue" points="44.8845,-24.5266 35.427,-19.7511 39.8423,-29.3821 44.8845,-24.5266"/>
</g>
<!-- Node4 -->
<g id="node4" class="node"><title>Node4</title>
<polygon fill="white" stroke="#bfbfbf" points="72.5,-0.5 72.5,-19.5 189.5,-19.5 189.5,-0.5 72.5,-0.5"/>
<text text-anchor="middle" x="131" y="-7.5" font-family="Helvetica,sans-Serif" font-size="10.00">../ez&#45;lib/ez&#45;draw++.hpp</text>
</g>
<!-- Node2&#45;&gt;Node4 -->
<g id="edge3" class="edge"><title>Node2&#45;&gt;Node4</title>
<path fill="none" stroke="midnightblue" d="M87.5867,-56.083C95.159,-48.2195 106.378,-36.5688 115.514,-27.0813"/>
<polygon fill="midnightblue" stroke="midnightblue" points="118.158,-29.3821 122.573,-19.7511 113.115,-24.5266 118.158,-29.3821"/>
</g>
</g>
</svg>
