<?xml version="1.0" encoding="UTF-8" standalone="no"?>
<!DOCTYPE svg PUBLIC "-//W3C//DTD SVG 1.1//EN"
 "http://www.w3.org/Graphics/SVG/1.1/DTD/svg11.dtd">
<!-- Generated by graphviz version 2.36.0 (20140111.2315)
 -->
<!-- Title: Font.hpp Pages: 1 -->
<!--zoomable 308 -->
<svg id="main" version="1.1" xmlns="http://www.w3.org/2000/svg" xmlns:xlink="http://www.w3.org/1999/xlink" xml:space="preserve" onload="init(evt)">
<style type="text/css"><![CDATA[
.edge:hover path { stroke: red; }
.edge:hover polygon { stroke: red; fill: red; }
]]></style>
<script type="text/javascript"><![CDATA[
var edges = document.getElementsByTagName('g');
if (edges && edges.length) {
  for (var i=0;i<edges.length;i++) {
    if (edges[i].id.substr(0,4)=='edge') {
      edges[i].setAttribute('class','edge');
    }
  }
}
]]></script>
        <defs>
                <circle id="rim" cx="0" cy="0" r="7"/>
                <circle id="rim2" cx="0" cy="0" r="3.5"/>
                <g id="zoomPlus">
                        <use xlink:href="#rim" fill="#404040">
                                <set attributeName="fill" to="#808080" begin="zoomplus.mouseover" end="zoomplus.mouseout"/>
                        </use>
                        <path d="M-4,0h8M0,-4v8" fill="none" stroke="white" stroke-width="1.5" pointer-events="none"/>
                </g>
                <g id="zoomMin">
                        <use xlink:href="#rim" fill="#404040">
                                <set attributeName="fill" to="#808080" begin="zoomminus.mouseover" end="zoomminus.mouseout"/>
                        </use>
                        <path d="M-4,0h8" fill="none" stroke="white" stroke-width="1.5" pointer-events="none"/>
                </g>
                <g id="dirArrow">
                        <path fill="none" stroke="white" stroke-width="1.5" d="M0,-3.0v7 M-2.5,-0.5L0,-3.0L2.5,-0.5"/>
                </g>
               <g id="resetDef">
                       <use xlink:href="#rim2" fill="#404040">
                               <set attributeName="fill" to="#808080" begin="reset.mouseover" end="reset.mouseout"/>
                       </use>
               </g>
        </defs>

<script type="text/javascript">
var viewWidth = 2182;
var viewHeight = 308;
var sectionId = 'dynsection-1';
</script>
<script xlink:href="svgpan.js"/>
<svg id="graph" class="graph">
<g id="viewport">
<title>Font.hpp</title>
<polygon fill="white" stroke="none" points="-4,4 -4,-304 2178,-304 2178,4 -4,4"/>
<!-- Node1 -->
<g id="node1" class="node"><title>Node1</title>
<polygon fill="#bfbfbf" stroke="black" points="1903.5,-280.5 1903.5,-299.5 1958.5,-299.5 1958.5,-280.5 1903.5,-280.5"/>
<text text-anchor="middle" x="1931" y="-287.5" font-family="Helvetica,sans-Serif" font-size="10.00">Font.hpp</text>
</g>
<!-- Node2 -->
<g id="node2" class="node"><title>Node2</title>
<g id="a_node2"><a xlink:href="_canvas_8hpp.html" target="_top" xlink:title="Canvas.hpp">
<polygon fill="white" stroke="black" points="1576.5,-224.5 1576.5,-243.5 1645.5,-243.5 1645.5,-224.5 1576.5,-224.5"/>
<text text-anchor="middle" x="1611" y="-231.5" font-family="Helvetica,sans-Serif" font-size="10.00">Canvas.hpp</text>
</a>
</g>
</g>
<!-- Node1&#45;&gt;Node2 -->
<g id="edge1" class="edge"><title>Node1&#45;&gt;Node2</title>
<path fill="none" stroke="midnightblue" d="M1893.22,-282.625C1830.63,-272.063 1706.33,-251.087 1645.78,-240.869"/>
<polygon fill="midnightblue" stroke="midnightblue" points="1893,-286.136 1903.44,-284.349 1894.16,-279.234 1893,-286.136"/>
</g>
<!-- Node29 -->
<g id="node29" class="node"><title>Node29</title>
<g id="a_node29"><a xlink:href="_graphics_text_8hpp.html" target="_top" xlink:title="Classe GraphicsText. ">
<polygon fill="white" stroke="black" points="1970,-112.5 1970,-131.5 2064,-131.5 2064,-112.5 1970,-112.5"/>
<text text-anchor="middle" x="2017" y="-119.5" font-family="Helvetica,sans-Serif" font-size="10.00">GraphicsText.hpp</text>
</a>
</g>
</g>
<!-- Node1&#45;&gt;Node29 -->
<g id="edge62" class="edge"><title>Node1&#45;&gt;Node29</title>
<path fill="none" stroke="midnightblue" d="M1935.23,-270.452C1938.61,-257.162 1943.95,-239.031 1951,-224 1968.17,-187.401 1996.96,-148.58 2010.1,-131.69"/>
<polygon fill="midnightblue" stroke="midnightblue" points="1931.79,-269.761 1932.85,-280.302 1938.6,-271.4 1931.79,-269.761"/>
</g>
<!-- Node38 -->
<g id="node38" class="node"><title>Node38</title>
<g id="a_node38"><a xlink:href="_font_8cpp.html" target="_top" xlink:title="Font.cpp">
<polygon fill="white" stroke="black" points="1959.5,-224.5 1959.5,-243.5 2014.5,-243.5 2014.5,-224.5 1959.5,-224.5"/>
<text text-anchor="middle" x="1987" y="-231.5" font-family="Helvetica,sans-Serif" font-size="10.00">Font.cpp</text>
</a>
</g>
</g>
<!-- Node1&#45;&gt;Node38 -->
<g id="edge63" class="edge"><title>Node1&#45;&gt;Node38</title>
<path fill="none" stroke="midnightblue" d="M1947.33,-273.253C1957.26,-263.673 1969.59,-251.791 1977.84,-243.834"/>
<polygon fill="midnightblue" stroke="midnightblue" points="1944.77,-270.863 1940,-280.324 1949.63,-275.902 1944.77,-270.863"/>
</g>
<!-- Node3 -->
<g id="node3" class="node"><title>Node3</title>
<g id="a_node3"><a xlink:href="_graphics_item_8hpp.html" target="_top" xlink:title="Classe GraphicsItem. ">
<polygon fill="white" stroke="black" points="1330,-168.5 1330,-187.5 1424,-187.5 1424,-168.5 1330,-168.5"/>
<text text-anchor="middle" x="1377" y="-175.5" font-family="Helvetica,sans-Serif" font-size="10.00">GraphicsItem.hpp</text>
</a>
</g>
</g>
<!-- Node2&#45;&gt;Node3 -->
<g id="edge2" class="edge"><title>Node2&#45;&gt;Node3</title>
<path fill="none" stroke="midnightblue" d="M1566.58,-222.75C1522.4,-212.553 1455.38,-197.087 1413.99,-187.536"/>
<polygon fill="midnightblue" stroke="midnightblue" points="1565.94,-226.194 1576.47,-225.032 1567.52,-219.373 1565.94,-226.194"/>
</g>
<!-- Node35 -->
<g id="node35" class="node"><title>Node35</title>
<g id="a_node35"><a xlink:href="_window_8hpp.html" target="_top" xlink:title="Window.hpp">
<polygon fill="white" stroke="black" points="1746.5,-168.5 1746.5,-187.5 1817.5,-187.5 1817.5,-168.5 1746.5,-168.5"/>
<text text-anchor="middle" x="1782" y="-175.5" font-family="Helvetica,sans-Serif" font-size="10.00">Window.hpp</text>
</a>
</g>
</g>
<!-- Node2&#45;&gt;Node35 -->
<g id="edge58" class="edge"><title>Node2&#45;&gt;Node35</title>
<path fill="none" stroke="midnightblue" d="M1648.04,-221.304C1680.26,-211.129 1726.19,-196.625 1755.03,-187.516"/>
<polygon fill="midnightblue" stroke="midnightblue" points="1646.58,-218.095 1638.1,-224.444 1648.69,-224.77 1646.58,-218.095"/>
</g>
<!-- Node37 -->
<g id="node37" class="node"><title>Node37</title>
<g id="a_node37"><a xlink:href="_canvas_8cpp.html" target="_top" xlink:title="Canvas.cpp">
<polygon fill="white" stroke="black" points="1242.5,-168.5 1242.5,-187.5 1311.5,-187.5 1311.5,-168.5 1242.5,-168.5"/>
<text text-anchor="middle" x="1277" y="-175.5" font-family="Helvetica,sans-Serif" font-size="10.00">Canvas.cpp</text>
</a>
</g>
</g>
<!-- Node2&#45;&gt;Node37 -->
<g id="edge61" class="edge"><title>Node2&#45;&gt;Node37</title>
<path fill="none" stroke="midnightblue" d="M1565.96,-226.692C1508.84,-218.536 1407.39,-203.529 1321,-188 1317.93,-187.448 1314.75,-186.849 1311.56,-186.231"/>
<polygon fill="midnightblue" stroke="midnightblue" points="1565.7,-230.19 1576.09,-228.133 1566.68,-223.26 1565.7,-230.19"/>
</g>
<!-- Node4 -->
<g id="node4" class="node"><title>Node4</title>
<g id="a_node4"><a xlink:href="_graphics_point_8hpp.html" target="_top" xlink:title="GraphicsPoint.hpp">
<polygon fill="white" stroke="black" points="419.5,-112.5 419.5,-131.5 516.5,-131.5 516.5,-112.5 419.5,-112.5"/>
<text text-anchor="middle" x="468" y="-119.5" font-family="Helvetica,sans-Serif" font-size="10.00">GraphicsPoint.hpp</text>
</a>
</g>
</g>
<!-- Node3&#45;&gt;Node4 -->
<g id="edge3" class="edge"><title>Node3&#45;&gt;Node4</title>
<path fill="none" stroke="midnightblue" d="M1319.62,-168.096C1007.55,-135.793 645.698,-126.309 516.65,-123.803"/>
<polygon fill="midnightblue" stroke="midnightblue" points="1319.46,-171.598 1329.77,-169.156 1320.19,-164.636 1319.46,-171.598"/>
</g>
<!-- Node16 -->
<g id="node16" class="node"><title>Node16</title>
<g id="a_node16"><a xlink:href="_graphics_animation_8hpp.html" target="_top" xlink:title="GraphicsAnimation.hpp">
<polygon fill="white" stroke="black" points="1600,-112.5 1600,-131.5 1718,-131.5 1718,-112.5 1600,-112.5"/>
<text text-anchor="middle" x="1659" y="-119.5" font-family="Helvetica,sans-Serif" font-size="10.00">GraphicsAnimation.hpp</text>
</a>
</g>
</g>
<!-- Node3&#45;&gt;Node16 -->
<g id="edge22" class="edge"><title>Node3&#45;&gt;Node16</title>
<path fill="none" stroke="midnightblue" d="M1431.64,-166.537C1484.94,-156.332 1565,-140.999 1614.53,-131.516"/>
<polygon fill="midnightblue" stroke="midnightblue" points="1430.85,-163.125 1421.68,-168.444 1432.16,-170 1430.85,-163.125"/>
</g>
<!-- Node20 -->
<g id="node20" class="node"><title>Node20</title>
<g id="a_node20"><a xlink:href="_graphics_shape_8hpp.html" target="_top" xlink:title="Classe GraphicsShape. ">
<polygon fill="white" stroke="black" points="1326,-112.5 1326,-131.5 1428,-131.5 1428,-112.5 1326,-112.5"/>
<text text-anchor="middle" x="1377" y="-119.5" font-family="Helvetica,sans-Serif" font-size="10.00">GraphicsShape.hpp</text>
</a>
</g>
</g>
<!-- Node3&#45;&gt;Node20 -->
<g id="edge27" class="edge"><title>Node3&#45;&gt;Node20</title>
<path fill="none" stroke="midnightblue" d="M1377,-157.805C1377,-148.91 1377,-138.78 1377,-131.751"/>
<polygon fill="midnightblue" stroke="midnightblue" points="1373.5,-158.083 1377,-168.083 1380.5,-158.083 1373.5,-158.083"/>
</g>
<!-- Node27 -->
<g id="node27" class="node"><title>Node27</title>
<g id="a_node27"><a xlink:href="_graphics_rectangle_8hpp.html" target="_top" xlink:title="GraphicsRectangle.hpp">
<polygon fill="white" stroke="black" points="1012.5,-56.5 1012.5,-75.5 1131.5,-75.5 1131.5,-56.5 1012.5,-56.5"/>
<text text-anchor="middle" x="1072" y="-63.5" font-family="Helvetica,sans-Serif" font-size="10.00">GraphicsRectangle.hpp</text>
</a>
</g>
</g>
<!-- Node3&#45;&gt;Node27 -->
<g id="edge44" class="edge"><title>Node3&#45;&gt;Node27</title>
<path fill="none" stroke="midnightblue" d="M1358.89,-161.957C1340.07,-147.086 1309.2,-124.762 1279,-112 1251.05,-100.189 1173.14,-84.9091 1121.28,-75.5385"/>
<polygon fill="midnightblue" stroke="midnightblue" points="1356.89,-164.842 1366.87,-168.394 1361.28,-159.393 1356.89,-164.842"/>
</g>
<!-- Node28 -->
<g id="node28" class="node"><title>Node28</title>
<g id="a_node28"><a xlink:href="_graphics_square_8hpp.html" target="_top" xlink:title="GraphicsSquare.hpp">
<polygon fill="white" stroke="black" points="610.5,-56.5 610.5,-75.5 715.5,-75.5 715.5,-56.5 610.5,-56.5"/>
<text text-anchor="middle" x="663" y="-63.5" font-family="Helvetica,sans-Serif" font-size="10.00">GraphicsSquare.hpp</text>
</a>
</g>
</g>
<!-- Node3&#45;&gt;Node28 -->
<g id="edge47" class="edge"><title>Node3&#45;&gt;Node28</title>
<path fill="none" stroke="midnightblue" d="M1319.66,-167.987C1198.08,-150.489 1165.98,-149.614 1049,-132 926.696,-113.585 783.196,-88.5005 710.455,-75.5375"/>
<polygon fill="midnightblue" stroke="midnightblue" points="1319.34,-171.477 1329.74,-169.446 1320.34,-164.549 1319.34,-171.477"/>
</g>
<!-- Node3&#45;&gt;Node29 -->
<g id="edge50" class="edge"><title>Node3&#45;&gt;Node29</title>
<path fill="none" stroke="midnightblue" d="M1434.19,-172.63C1534.04,-164.93 1746.62,-148.221 1926,-132 1940.23,-130.713 1955.7,-129.219 1969.78,-127.822"/>
<polygon fill="midnightblue" stroke="midnightblue" points="1433.72,-169.156 1424.02,-173.413 1434.26,-176.135 1433.72,-169.156"/>
</g>
<!-- Node31 -->
<g id="node31" class="node"><title>Node31</title>
<g id="a_node31"><a xlink:href="_main_window_8hpp.html" target="_top" xlink:title="MainWindow.hpp">
<polygon fill="white" stroke="black" points="1736,-112.5 1736,-131.5 1828,-131.5 1828,-112.5 1736,-112.5"/>
<text text-anchor="middle" x="1782" y="-119.5" font-family="Helvetica,sans-Serif" font-size="10.00">MainWindow.hpp</text>
</a>
</g>
</g>
<!-- Node3&#45;&gt;Node31 -->
<g id="edge53" class="edge"><title>Node3&#45;&gt;Node31</title>
<path fill="none" stroke="midnightblue" d="M1434.33,-170.241C1503.72,-161.919 1624.08,-147.033 1727,-132 1729.87,-131.58 1732.83,-131.136 1735.8,-130.677"/>
<polygon fill="midnightblue" stroke="midnightblue" points="1433.57,-166.807 1424.06,-171.47 1434.4,-173.758 1433.57,-166.807"/>
</g>
<!-- Node33 -->
<g id="node33" class="node"><title>Node33</title>
<g id="a_node33"><a xlink:href="_tools_windows_8hpp.html" target="_top" xlink:title="ToolsWindows.hpp">
<polygon fill="white" stroke="black" points="1058,-112.5 1058,-131.5 1158,-131.5 1158,-112.5 1058,-112.5"/>
<text text-anchor="middle" x="1108" y="-119.5" font-family="Helvetica,sans-Serif" font-size="10.00">ToolsWindows.hpp</text>
</a>
</g>
</g>
<!-- Node3&#45;&gt;Node33 -->
<g id="edge56" class="edge"><title>Node3&#45;&gt;Node33</title>
<path fill="none" stroke="midnightblue" d="M1324.56,-166.473C1273.72,-156.268 1197.56,-140.979 1150.42,-131.516"/>
<polygon fill="midnightblue" stroke="midnightblue" points="1323.88,-169.907 1334.38,-168.444 1325.26,-163.044 1323.88,-169.907"/>
</g>
<!-- Node34 -->
<g id="node34" class="node"><title>Node34</title>
<g id="a_node34"><a xlink:href="_graphics_item_8cpp.html" target="_top" xlink:title="GraphicsItem.cpp">
<polygon fill="white" stroke="black" points="1176,-112.5 1176,-131.5 1270,-131.5 1270,-112.5 1176,-112.5"/>
<text text-anchor="middle" x="1223" y="-119.5" font-family="Helvetica,sans-Serif" font-size="10.00">GraphicsItem.cpp</text>
</a>
</g>
</g>
<!-- Node3&#45;&gt;Node34 -->
<g id="edge57" class="edge"><title>Node3&#45;&gt;Node34</title>
<path fill="none" stroke="midnightblue" d="M1342.89,-165.039C1313.91,-154.879 1273.04,-140.546 1247.29,-131.516"/>
<polygon fill="midnightblue" stroke="midnightblue" points="1342,-168.437 1352.6,-168.444 1344.32,-161.832 1342,-168.437"/>
</g>
<!-- Node5 -->
<g id="node5" class="node"><title>Node5</title>
<g id="a_node5"><a xlink:href="_graphics_anchor_8hpp.html" target="_top" xlink:title="GraphicsAnchor.hpp">
<polygon fill="white" stroke="black" points="334.5,-56.5 334.5,-75.5 439.5,-75.5 439.5,-56.5 334.5,-56.5"/>
<text text-anchor="middle" x="387" y="-63.5" font-family="Helvetica,sans-Serif" font-size="10.00">GraphicsAnchor.hpp</text>
</a>
</g>
</g>
<!-- Node4&#45;&gt;Node5 -->
<g id="edge4" class="edge"><title>Node4&#45;&gt;Node5</title>
<path fill="none" stroke="midnightblue" d="M446.433,-106.622C431.636,-96.7574 412.488,-83.9919 399.982,-75.6545"/>
<polygon fill="midnightblue" stroke="midnightblue" points="444.724,-109.689 454.986,-112.324 448.607,-103.865 444.724,-109.689"/>
</g>
<!-- Node7 -->
<g id="node7" class="node"><title>Node7</title>
<g id="a_node7"><a xlink:href="_graphics_circle_8cpp.html" target="_top" xlink:title="GraphicsCircle.cpp">
<polygon fill="white" stroke="black" points="123,-0.5 123,-19.5 223,-19.5 223,-0.5 123,-0.5"/>
<text text-anchor="middle" x="173" y="-7.5" font-family="Helvetica,sans-Serif" font-size="10.00">GraphicsCircle.cpp</text>
</a>
</g>
</g>
<!-- Node4&#45;&gt;Node7 -->
<g id="edge13" class="edge"><title>Node4&#45;&gt;Node7</title>
<path fill="none" stroke="midnightblue" d="M409.27,-120.788C331.626,-119.115 201.101,-111.005 171,-76 157.456,-60.2489 164.415,-33.5609 169.4,-19.7948"/>
<polygon fill="midnightblue" stroke="midnightblue" points="409.331,-124.29 419.394,-120.976 409.461,-117.291 409.331,-124.29"/>
</g>
<!-- Node8 -->
<g id="node8" class="node"><title>Node8</title>
<g id="a_node8"><a xlink:href="_graphics_ellipse_8cpp.html" target="_top" xlink:title="GraphicsEllipse.cpp">
<polygon fill="white" stroke="black" points="365,-0.5 365,-19.5 469,-19.5 469,-0.5 365,-0.5"/>
<text text-anchor="middle" x="417" y="-7.5" font-family="Helvetica,sans-Serif" font-size="10.00">GraphicsEllipse.cpp</text>
</a>
</g>
</g>
<!-- Node4&#45;&gt;Node8 -->
<g id="edge14" class="edge"><title>Node4&#45;&gt;Node8</title>
<path fill="none" stroke="midnightblue" d="M409.346,-118.353C378.973,-113.635 344.296,-102.301 325,-76 305.681,-49.6674 350.718,-30.0297 384.368,-19.5581"/>
<polygon fill="midnightblue" stroke="midnightblue" points="409.076,-121.848 419.453,-119.711 410.009,-114.91 409.076,-121.848"/>
</g>
<!-- Node9 -->
<g id="node9" class="node"><title>Node9</title>
<g id="a_node9"><a xlink:href="_graphics_line_8cpp.html" target="_top" xlink:title="GraphicsLine.cpp">
<polygon fill="white" stroke="black" points="625,-0.5 625,-19.5 717,-19.5 717,-0.5 625,-0.5"/>
<text text-anchor="middle" x="671" y="-7.5" font-family="Helvetica,sans-Serif" font-size="10.00">GraphicsLine.cpp</text>
</a>
</g>
</g>
<!-- Node4&#45;&gt;Node9 -->
<g id="edge15" class="edge"><title>Node4&#45;&gt;Node9</title>
<path fill="none" stroke="midnightblue" d="M480.349,-103.866C491.725,-89.2304 509.854,-68.6019 530,-56 559.083,-37.8082 596.177,-26.3523 625.019,-19.5542"/>
<polygon fill="midnightblue" stroke="midnightblue" points="477.388,-101.981 474.181,-112.079 482.985,-106.184 477.388,-101.981"/>
</g>
<!-- Node10 -->
<g id="node10" class="node"><title>Node10</title>
<g id="a_node10"><a xlink:href="_graphics_polygon_8cpp.html" target="_top" xlink:title="GraphicsPolygon.cpp">
<polygon fill="white" stroke="black" points="735,-0.5 735,-19.5 845,-19.5 845,-0.5 735,-0.5"/>
<text text-anchor="middle" x="790" y="-7.5" font-family="Helvetica,sans-Serif" font-size="10.00">GraphicsPolygon.cpp</text>
</a>
</g>
</g>
<!-- Node4&#45;&gt;Node10 -->
<g id="edge17" class="edge"><title>Node4&#45;&gt;Node10</title>
<path fill="none" stroke="midnightblue" d="M488.652,-106.253C512.843,-89.2175 551.685,-62.6717 568,-56 597.848,-43.7943 680.562,-28.7591 736.158,-19.529"/>
<polygon fill="midnightblue" stroke="midnightblue" points="486.314,-103.619 480.175,-112.255 490.359,-109.332 486.314,-103.619"/>
</g>
<!-- Node11 -->
<g id="node11" class="node"><title>Node11</title>
<g id="a_node11"><a xlink:href="_graphics_rectangle_8cpp.html" target="_top" xlink:title="GraphicsRectangle.cpp">
<polygon fill="white" stroke="black" points="487.5,-0.5 487.5,-19.5 606.5,-19.5 606.5,-0.5 487.5,-0.5"/>
<text text-anchor="middle" x="547" y="-7.5" font-family="Helvetica,sans-Serif" font-size="10.00">GraphicsRectangle.cpp</text>
</a>
</g>
</g>
<!-- Node4&#45;&gt;Node11 -->
<g id="edge18" class="edge"><title>Node4&#45;&gt;Node11</title>
<path fill="none" stroke="midnightblue" d="M472.017,-102.549C475.641,-88.8058 481.971,-70.0662 492,-56 502.887,-40.7308 520.235,-27.7295 532.534,-19.686"/>
<polygon fill="midnightblue" stroke="midnightblue" points="468.603,-101.774 469.671,-112.315 475.41,-103.409 468.603,-101.774"/>
</g>
<!-- Node12 -->
<g id="node12" class="node"><title>Node12</title>
<g id="a_node12"><a xlink:href="_graphics_square_8cpp.html" target="_top" xlink:title="GraphicsSquare.cpp">
<polygon fill="white" stroke="black" points="-0.5,-0.5 -0.5,-19.5 104.5,-19.5 104.5,-0.5 -0.5,-0.5"/>
<text text-anchor="middle" x="52" y="-7.5" font-family="Helvetica,sans-Serif" font-size="10.00">GraphicsSquare.cpp</text>
</a>
</g>
</g>
<!-- Node4&#45;&gt;Node12 -->
<g id="edge19" class="edge"><title>Node4&#45;&gt;Node12</title>
<path fill="none" stroke="midnightblue" d="M409.172,-119.282C345.932,-115.872 243.267,-105.776 160,-76 121.467,-62.2205 81.601,-33.889 62.9102,-19.6176"/>
<polygon fill="midnightblue" stroke="midnightblue" points="409.195,-122.787 419.357,-119.791 409.544,-115.796 409.195,-122.787"/>
</g>
<!-- Node13 -->
<g id="node13" class="node"><title>Node13</title>
<g id="a_node13"><a xlink:href="_graphics_triangle_8cpp.html" target="_top" xlink:title="GraphicsTriangle.cpp">
<polygon fill="white" stroke="black" points="863.5,-0.5 863.5,-19.5 972.5,-19.5 972.5,-0.5 863.5,-0.5"/>
<text text-anchor="middle" x="918" y="-7.5" font-family="Helvetica,sans-Serif" font-size="10.00">GraphicsTriangle.cpp</text>
</a>
</g>
</g>
<!-- Node4&#45;&gt;Node13 -->
<g id="edge20" class="edge"><title>Node4&#45;&gt;Node13</title>
<path fill="none" stroke="midnightblue" d="M497.477,-108.283C517.104,-99.6163 543.352,-87.6419 566,-76 581.934,-67.8094 584.051,-61.807 601,-56 602.547,-55.4701 773.234,-31.3861 863.47,-18.6757"/>
<polygon fill="midnightblue" stroke="midnightblue" points="495.897,-105.154 488.144,-112.375 498.708,-111.565 495.897,-105.154"/>
</g>
<!-- Node14 -->
<g id="node14" class="node"><title>Node14</title>
<g id="a_node14"><a xlink:href="_graphics_point_8cpp.html" target="_top" xlink:title="GraphicsPoint.cpp">
<polygon fill="white" stroke="black" points="180.5,-56.5 180.5,-75.5 277.5,-75.5 277.5,-56.5 180.5,-56.5"/>
<text text-anchor="middle" x="229" y="-63.5" font-family="Helvetica,sans-Serif" font-size="10.00">GraphicsPoint.cpp</text>
</a>
</g>
</g>
<!-- Node4&#45;&gt;Node14 -->
<g id="edge16" class="edge"><title>Node4&#45;&gt;Node14</title>
<path fill="none" stroke="midnightblue" d="M420.276,-110.217C375.115,-100.013 308.227,-84.9006 266.693,-75.5164"/>
<polygon fill="midnightblue" stroke="midnightblue" points="419.604,-113.654 430.13,-112.444 421.147,-106.826 419.604,-113.654"/>
</g>
<!-- Node15 -->
<g id="node15" class="node"><title>Node15</title>
<g id="a_node15"><a xlink:href="_main_window_8cpp.html" target="_top" xlink:title="MainWindow.cpp">
<polygon fill="white" stroke="black" points="1150,-0.5 1150,-19.5 1242,-19.5 1242,-0.5 1150,-0.5"/>
<text text-anchor="middle" x="1196" y="-7.5" font-family="Helvetica,sans-Serif" font-size="10.00">MainWindow.cpp</text>
</a>
</g>
</g>
<!-- Node4&#45;&gt;Node15 -->
<g id="edge21" class="edge"><title>Node4&#45;&gt;Node15</title>
<path fill="none" stroke="midnightblue" d="M526.712,-120.51C601.717,-118.412 734.776,-109.709 843,-76 861.222,-70.3243 862.843,-61.88 881,-56 973.366,-26.0876 1087.37,-16.0372 1149.77,-12.6754"/>
<polygon fill="midnightblue" stroke="midnightblue" points="526.432,-117.016 516.523,-120.764 526.607,-124.014 526.432,-117.016"/>
</g>
<!-- Node6 -->
<g id="node6" class="node"><title>Node6</title>
<g id="a_node6"><a xlink:href="_graphics_anchor_8cpp.html" target="_top" xlink:title="GraphicsAnchor.cpp">
<polygon fill="white" stroke="black" points="241.5,-0.5 241.5,-19.5 346.5,-19.5 346.5,-0.5 241.5,-0.5"/>
<text text-anchor="middle" x="294" y="-7.5" font-family="Helvetica,sans-Serif" font-size="10.00">GraphicsAnchor.cpp</text>
</a>
</g>
</g>
<!-- Node5&#45;&gt;Node6 -->
<g id="edge5" class="edge"><title>Node5&#45;&gt;Node6</title>
<path fill="none" stroke="midnightblue" d="M363.194,-51.1774C346.081,-41.2407 323.535,-28.1492 308.905,-19.6545"/>
<polygon fill="midnightblue" stroke="midnightblue" points="361.653,-54.3293 372.058,-56.324 365.168,-48.2758 361.653,-54.3293"/>
</g>
<!-- Node5&#45;&gt;Node7 -->
<g id="edge6" class="edge"><title>Node5&#45;&gt;Node7</title>
<path fill="none" stroke="midnightblue" d="M343.245,-53.959C302.826,-43.7598 243.627,-28.8217 206.75,-19.5164"/>
<polygon fill="midnightblue" stroke="midnightblue" points="342.539,-57.3904 353.091,-56.4435 344.251,-50.6032 342.539,-57.3904"/>
</g>
<!-- Node5&#45;&gt;Node8 -->
<g id="edge7" class="edge"><title>Node5&#45;&gt;Node8</title>
<path fill="none" stroke="midnightblue" d="M396.847,-47.2747C401.975,-38.0454 408.016,-27.1703 412.138,-19.7511"/>
<polygon fill="midnightblue" stroke="midnightblue" points="393.751,-45.6416 391.954,-56.083 399.87,-49.0412 393.751,-45.6416"/>
</g>
<!-- Node5&#45;&gt;Node9 -->
<g id="edge8" class="edge"><title>Node5&#45;&gt;Node9</title>
<path fill="none" stroke="midnightblue" d="M442.027,-54.5371C495.701,-44.3316 576.338,-28.9992 626.21,-19.5164"/>
<polygon fill="midnightblue" stroke="midnightblue" points="441.171,-51.1371 432.001,-56.4435 442.478,-58.0139 441.171,-51.1371"/>
</g>
<!-- Node5&#45;&gt;Node10 -->
<g id="edge9" class="edge"><title>Node5&#45;&gt;Node10</title>
<path fill="none" stroke="midnightblue" d="M449.7,-56.8246C517.755,-47.9164 629.624,-33.1729 726,-20 728.89,-19.6049 731.854,-19.1973 734.846,-18.7837"/>
<polygon fill="midnightblue" stroke="midnightblue" points="449.035,-53.3816 439.574,-58.1493 449.943,-60.3225 449.035,-53.3816"/>
</g>
<!-- Node5&#45;&gt;Node11 -->
<g id="edge10" class="edge"><title>Node5&#45;&gt;Node11</title>
<path fill="none" stroke="midnightblue" d="M422.046,-53.172C452.174,-43.0039 494.896,-28.5852 521.766,-19.5164"/>
<polygon fill="midnightblue" stroke="midnightblue" points="420.708,-49.9295 412.352,-56.4435 422.947,-56.5619 420.708,-49.9295"/>
</g>
<!-- Node5&#45;&gt;Node12 -->
<g id="edge11" class="edge"><title>Node5&#45;&gt;Node12</title>
<path fill="none" stroke="midnightblue" d="M324.029,-54.8494C260.679,-44.6378 164.099,-29.0698 104.681,-19.4919"/>
<polygon fill="midnightblue" stroke="midnightblue" points="323.858,-58.367 334.288,-56.5031 324.972,-51.4562 323.858,-58.367"/>
</g>
<!-- Node5&#45;&gt;Node13 -->
<g id="edge12" class="edge"><title>Node5&#45;&gt;Node13</title>
<path fill="none" stroke="midnightblue" d="M449.613,-59.8409C539.314,-52.2513 709.523,-37.1111 854,-20 857.008,-19.6437 860.094,-19.2624 863.208,-18.8654"/>
<polygon fill="midnightblue" stroke="midnightblue" points="449.277,-56.3567 439.607,-60.6845 449.865,-63.332 449.277,-56.3567"/>
</g>
<!-- Node17 -->
<g id="node17" class="node"><title>Node17</title>
<g id="a_node17"><a xlink:href="_graphics_blink_animation_8hpp.html" target="_top" xlink:title="GraphicsBlinkAnimation.hpp">
<polygon fill="white" stroke="black" points="1810,-56.5 1810,-75.5 1950,-75.5 1950,-56.5 1810,-56.5"/>
<text text-anchor="middle" x="1880" y="-63.5" font-family="Helvetica,sans-Serif" font-size="10.00">GraphicsBlinkAnimation.hpp</text>
</a>
</g>
</g>
<!-- Node16&#45;&gt;Node17 -->
<g id="edge23" class="edge"><title>Node16&#45;&gt;Node17</title>
<path fill="none" stroke="midnightblue" d="M1703.92,-110.024C1745.67,-99.8232 1806.98,-84.8414 1845.15,-75.5164"/>
<polygon fill="midnightblue" stroke="midnightblue" points="1702.9,-106.67 1694.02,-112.444 1704.56,-113.47 1702.9,-106.67"/>
</g>
<!-- Node19 -->
<g id="node19" class="node"><title>Node19</title>
<g id="a_node19"><a xlink:href="_graphics_animation_8cpp.html" target="_top" xlink:title="GraphicsAnimation.cpp">
<polygon fill="white" stroke="black" points="1636,-56.5 1636,-75.5 1754,-75.5 1754,-56.5 1636,-56.5"/>
<text text-anchor="middle" x="1695" y="-63.5" font-family="Helvetica,sans-Serif" font-size="10.00">GraphicsAnimation.cpp</text>
</a>
</g>
</g>
<!-- Node16&#45;&gt;Node19 -->
<g id="edge26" class="edge"><title>Node16&#45;&gt;Node19</title>
<path fill="none" stroke="midnightblue" d="M1670.62,-103.566C1676.82,-94.2747 1684.17,-83.2484 1689.17,-75.7511"/>
<polygon fill="midnightblue" stroke="midnightblue" points="1667.58,-101.821 1664.94,-112.083 1673.4,-105.704 1667.58,-101.821"/>
</g>
<!-- Node17&#45;&gt;Node15 -->
<g id="edge25" class="edge"><title>Node17&#45;&gt;Node15</title>
<path fill="none" stroke="midnightblue" d="M1799.85,-56.3552C1798.56,-56.2344 1797.27,-56.1159 1796,-56 1589.76,-37.2225 1343.12,-20.5408 1242.34,-13.9701"/>
<polygon fill="midnightblue" stroke="midnightblue" points="1799.6,-59.8473 1809.89,-57.3193 1800.27,-52.8793 1799.6,-59.8473"/>
</g>
<!-- Node18 -->
<g id="node18" class="node"><title>Node18</title>
<g id="a_node18"><a xlink:href="_graphics_blink_animation_8cpp.html" target="_top" xlink:title="GraphicsBlinkAnimation.cpp">
<polygon fill="white" stroke="black" points="1810,-0.5 1810,-19.5 1950,-19.5 1950,-0.5 1810,-0.5"/>
<text text-anchor="middle" x="1880" y="-7.5" font-family="Helvetica,sans-Serif" font-size="10.00">GraphicsBlinkAnimation.cpp</text>
</a>
</g>
</g>
<!-- Node17&#45;&gt;Node18 -->
<g id="edge24" class="edge"><title>Node17&#45;&gt;Node18</title>
<path fill="none" stroke="midnightblue" d="M1880,-45.8045C1880,-36.9102 1880,-26.7798 1880,-19.7511"/>
<polygon fill="midnightblue" stroke="midnightblue" points="1876.5,-46.083 1880,-56.083 1883.5,-46.083 1876.5,-46.083"/>
</g>
<!-- Node21 -->
<g id="node21" class="node"><title>Node21</title>
<g id="a_node21"><a xlink:href="_graphics_circle_8hpp.html" target="_top" xlink:title="GraphicsCircle.hpp">
<polygon fill="white" stroke="black" points="734,-56.5 734,-75.5 834,-75.5 834,-56.5 734,-56.5"/>
<text text-anchor="middle" x="784" y="-63.5" font-family="Helvetica,sans-Serif" font-size="10.00">GraphicsCircle.hpp</text>
</a>
</g>
</g>
<!-- Node20&#45;&gt;Node21 -->
<g id="edge28" class="edge"><title>Node20&#45;&gt;Node21</title>
<path fill="none" stroke="midnightblue" d="M1315.8,-115.366C1303.61,-114.248 1290.9,-113.084 1279,-112 1102.12,-95.8786 1057.87,-92.2045 881,-76 865.842,-74.6113 849.353,-73.0866 834.343,-71.6933"/>
<polygon fill="midnightblue" stroke="midnightblue" points="1315.61,-118.863 1325.88,-116.292 1316.25,-111.893 1315.61,-118.863"/>
</g>
<!-- Node22 -->
<g id="node22" class="node"><title>Node22</title>
<g id="a_node22"><a xlink:href="_graphics_ellipse_8hpp.html" target="_top" xlink:title="GraphicsEllipse.hpp">
<polygon fill="white" stroke="black" points="890,-56.5 890,-75.5 994,-75.5 994,-56.5 890,-56.5"/>
<text text-anchor="middle" x="942" y="-63.5" font-family="Helvetica,sans-Serif" font-size="10.00">GraphicsEllipse.hpp</text>
</a>
</g>
</g>
<!-- Node20&#45;&gt;Node22 -->
<g id="edge31" class="edge"><title>Node20&#45;&gt;Node22</title>
<path fill="none" stroke="midnightblue" d="M1315.74,-114.138C1241.61,-105.717 1113.04,-90.7354 1003,-76 1000.14,-75.6164 997.196,-75.2136 994.23,-74.7999"/>
<polygon fill="midnightblue" stroke="midnightblue" points="1315.5,-117.633 1325.83,-115.282 1316.29,-110.677 1315.5,-117.633"/>
</g>
<!-- Node23 -->
<g id="node23" class="node"><title>Node23</title>
<g id="a_node23"><a xlink:href="_graphics_line_8hpp.html" target="_top" xlink:title="GraphicsLine.hpp">
<polygon fill="white" stroke="black" points="1150,-56.5 1150,-75.5 1242,-75.5 1242,-56.5 1150,-56.5"/>
<text text-anchor="middle" x="1196" y="-63.5" font-family="Helvetica,sans-Serif" font-size="10.00">GraphicsLine.hpp</text>
</a>
</g>
</g>
<!-- Node20&#45;&gt;Node23 -->
<g id="edge34" class="edge"><title>Node20&#45;&gt;Node23</title>
<path fill="none" stroke="midnightblue" d="M1338.68,-109.568C1304.54,-99.381 1255.34,-84.7034 1224.55,-75.5164"/>
<polygon fill="midnightblue" stroke="midnightblue" points="1337.74,-112.938 1348.32,-112.444 1339.74,-106.231 1337.74,-112.938"/>
</g>
<!-- Node24 -->
<g id="node24" class="node"><title>Node24</title>
<g id="a_node24"><a xlink:href="_graphics_polygon_8hpp.html" target="_top" xlink:title="GraphicsPolygon.hpp">
<polygon fill="white" stroke="black" points="1260,-56.5 1260,-75.5 1370,-75.5 1370,-56.5 1260,-56.5"/>
<text text-anchor="middle" x="1315" y="-63.5" font-family="Helvetica,sans-Serif" font-size="10.00">GraphicsPolygon.hpp</text>
</a>
</g>
</g>
<!-- Node20&#45;&gt;Node24 -->
<g id="edge37" class="edge"><title>Node20&#45;&gt;Node24</title>
<path fill="none" stroke="midnightblue" d="M1359.25,-105.537C1348.19,-95.9087 1334.37,-83.8694 1325.14,-75.8339"/>
<polygon fill="midnightblue" stroke="midnightblue" points="1357.2,-108.395 1367.04,-112.324 1361.8,-103.117 1357.2,-108.395"/>
</g>
<!-- Node25 -->
<g id="node25" class="node"><title>Node25</title>
<g id="a_node25"><a xlink:href="_graphics_triangle_8hpp.html" target="_top" xlink:title="Classe GraphicsTriangle. ">
<polygon fill="white" stroke="black" points="1508.5,-56.5 1508.5,-75.5 1617.5,-75.5 1617.5,-56.5 1508.5,-56.5"/>
<text text-anchor="middle" x="1563" y="-63.5" font-family="Helvetica,sans-Serif" font-size="10.00">GraphicsTriangle.hpp</text>
</a>
</g>
</g>
<!-- Node20&#45;&gt;Node25 -->
<g id="edge40" class="edge"><title>Node20&#45;&gt;Node25</title>
<path fill="none" stroke="midnightblue" d="M1416.38,-109.568C1451.47,-99.381 1502.02,-84.7034 1533.67,-75.5164"/>
<polygon fill="midnightblue" stroke="midnightblue" points="1415.1,-106.294 1406.47,-112.444 1417.05,-113.017 1415.1,-106.294"/>
</g>
<!-- Node26 -->
<g id="node26" class="node"><title>Node26</title>
<g id="a_node26"><a xlink:href="_graphics_shape_8cpp.html" target="_top" xlink:title="GraphicsShape.cpp">
<polygon fill="white" stroke="black" points="1388,-56.5 1388,-75.5 1490,-75.5 1490,-56.5 1388,-56.5"/>
<text text-anchor="middle" x="1439" y="-63.5" font-family="Helvetica,sans-Serif" font-size="10.00">GraphicsShape.cpp</text>
</a>
</g>
</g>
<!-- Node20&#45;&gt;Node26 -->
<g id="edge43" class="edge"><title>Node20&#45;&gt;Node26</title>
<path fill="none" stroke="midnightblue" d="M1394.75,-105.537C1405.81,-95.9087 1419.63,-83.8694 1428.86,-75.8339"/>
<polygon fill="midnightblue" stroke="midnightblue" points="1392.2,-103.117 1386.96,-112.324 1396.8,-108.395 1392.2,-103.117"/>
</g>
<!-- Node21&#45;&gt;Node7 -->
<g id="edge29" class="edge"><title>Node21&#45;&gt;Node7</title>
<path fill="none" stroke="midnightblue" d="M724.305,-56.034C724.203,-56.0226 724.101,-56.0113 724,-56 506.097,-31.7206 449.872,-44.5502 232,-20 229.117,-19.6751 226.159,-19.3137 223.176,-18.9275"/>
<polygon fill="midnightblue" stroke="midnightblue" points="723.599,-59.474 733.947,-57.2019 724.44,-52.5248 723.599,-59.474"/>
</g>
<!-- Node21&#45;&gt;Node15 -->
<g id="edge30" class="edge"><title>Node21&#45;&gt;Node15</title>
<path fill="none" stroke="midnightblue" d="M844.21,-56.5136C845.484,-56.3402 846.749,-56.1688 848,-56 956.066,-41.415 1083.15,-25.2254 1149.82,-16.8058"/>
<polygon fill="midnightblue" stroke="midnightblue" points="843.733,-53.0461 834.301,-57.8726 844.684,-59.9812 843.733,-53.0461"/>
</g>
<!-- Node22&#45;&gt;Node8 -->
<g id="edge32" class="edge"><title>Node22&#45;&gt;Node8</title>
<path fill="none" stroke="midnightblue" d="M879.559,-59.3337C771.542,-49.4662 554.074,-29.2952 478,-20 475.131,-19.6495 472.189,-19.2727 469.22,-18.8793"/>
<polygon fill="midnightblue" stroke="midnightblue" points="879.385,-62.8323 889.662,-60.2557 880.021,-55.8613 879.385,-62.8323"/>
</g>
<!-- Node22&#45;&gt;Node15 -->
<g id="edge33" class="edge"><title>Node22&#45;&gt;Node15</title>
<path fill="none" stroke="midnightblue" d="M992.115,-54.3456C1040.12,-44.1405 1111.62,-28.94 1155.94,-19.5164"/>
<polygon fill="midnightblue" stroke="midnightblue" points="991.301,-50.9405 982.247,-56.4435 992.756,-57.7874 991.301,-50.9405"/>
</g>
<!-- Node23&#45;&gt;Node9 -->
<g id="edge35" class="edge"><title>Node23&#45;&gt;Node9</title>
<path fill="none" stroke="midnightblue" d="M1139.84,-56.0839C954.992,-33.659 906.044,-42.5263 726,-20 723.12,-19.6396 720.159,-19.2401 717.177,-18.8156"/>
<polygon fill="midnightblue" stroke="midnightblue" points="1139.54,-59.5735 1149.89,-57.318 1140.39,-52.6256 1139.54,-59.5735"/>
</g>
<!-- Node23&#45;&gt;Node15 -->
<g id="edge36" class="edge"><title>Node23&#45;&gt;Node15</title>
<path fill="none" stroke="midnightblue" d="M1196,-45.8045C1196,-36.9102 1196,-26.7798 1196,-19.7511"/>
<polygon fill="midnightblue" stroke="midnightblue" points="1192.5,-46.083 1196,-56.083 1199.5,-46.083 1192.5,-46.083"/>
</g>
<!-- Node24&#45;&gt;Node10 -->
<g id="edge38" class="edge"><title>Node24&#45;&gt;Node10</title>
<path fill="none" stroke="midnightblue" d="M1249.72,-55.9055C1073.29,-35.8232 1026.73,-39.9645 854,-20 851.102,-19.665 848.132,-19.3053 845.136,-18.9292"/>
<polygon fill="midnightblue" stroke="midnightblue" points="1249.53,-59.407 1259.86,-57.0708 1250.33,-52.4527 1249.53,-59.407"/>
</g>
<!-- Node24&#45;&gt;Node15 -->
<g id="edge39" class="edge"><title>Node24&#45;&gt;Node15</title>
<path fill="none" stroke="midnightblue" d="M1286.86,-52.2321C1264.6,-42.1312 1234.14,-28.3091 1214.77,-19.5164"/>
<polygon fill="midnightblue" stroke="midnightblue" points="1285.59,-55.4984 1296.14,-56.4435 1288.48,-49.124 1285.59,-55.4984"/>
</g>
<!-- Node25&#45;&gt;Node13 -->
<g id="edge41" class="edge"><title>Node25&#45;&gt;Node13</title>
<path fill="none" stroke="midnightblue" d="M1498.32,-56.0345C1498.21,-56.023 1498.11,-56.0115 1498,-56 1305.46,-35.2197 1075.95,-20.3226 972.878,-14.1539"/>
<polygon fill="midnightblue" stroke="midnightblue" points="1498.08,-59.5299 1508.41,-57.1993 1498.88,-52.576 1498.08,-59.5299"/>
</g>
<!-- Node25&#45;&gt;Node15 -->
<g id="edge42" class="edge"><title>Node25&#45;&gt;Node15</title>
<path fill="none" stroke="midnightblue" d="M1498.39,-55.4941C1424.94,-44.6865 1306.86,-27.3121 1242.13,-17.7872"/>
<polygon fill="midnightblue" stroke="midnightblue" points="1498.05,-58.9809 1508.45,-56.974 1499.07,-52.0554 1498.05,-58.9809"/>
</g>
<!-- Node27&#45;&gt;Node11 -->
<g id="edge45" class="edge"><title>Node27&#45;&gt;Node11</title>
<path fill="none" stroke="midnightblue" d="M1001.99,-55.9279C829.616,-36.9072 784.406,-38.8093 616,-20 612.999,-19.6648 609.925,-19.3092 606.823,-18.9404"/>
<polygon fill="midnightblue" stroke="midnightblue" points="1001.85,-59.4337 1012.18,-57.0596 1002.62,-52.4765 1001.85,-59.4337"/>
</g>
<!-- Node27&#45;&gt;Node15 -->
<g id="edge46" class="edge"><title>Node27&#45;&gt;Node15</title>
<path fill="none" stroke="midnightblue" d="M1101.01,-52.3678C1124.23,-42.2553 1156.16,-28.3486 1176.44,-19.5164"/>
<polygon fill="midnightblue" stroke="midnightblue" points="1099.42,-49.2419 1091.65,-56.4435 1102.21,-55.6597 1099.42,-49.2419"/>
</g>
<!-- Node28&#45;&gt;Node12 -->
<g id="edge48" class="edge"><title>Node28&#45;&gt;Node12</title>
<path fill="none" stroke="midnightblue" d="M600.137,-61.1274C497.989,-54.5473 289.697,-39.9332 114,-20 110.974,-19.6567 107.868,-19.2808 104.736,-18.8836"/>
<polygon fill="midnightblue" stroke="midnightblue" points="600.077,-64.6306 610.28,-61.7768 600.524,-57.6449 600.077,-64.6306"/>
</g>
<!-- Node28&#45;&gt;Node15 -->
<g id="edge49" class="edge"><title>Node28&#45;&gt;Node15</title>
<path fill="none" stroke="midnightblue" d="M725.895,-55.9487C887.907,-36.6691 1067.05,-21.3784 1149.79,-14.6602"/>
<polygon fill="midnightblue" stroke="midnightblue" points="725.255,-52.5002 715.742,-57.1649 726.087,-59.4506 725.255,-52.5002"/>
</g>
<!-- Node29&#45;&gt;Node15 -->
<g id="edge52" class="edge"><title>Node29&#45;&gt;Node15</title>
<path fill="none" stroke="midnightblue" d="M2028.58,-103.554C2036.65,-89.0105 2044.02,-68.6884 2032,-56 2004.66,-27.1515 1413.63,-14.7476 1242.21,-11.7486"/>
<polygon fill="midnightblue" stroke="midnightblue" points="2025.57,-101.773 2023.37,-112.138 2031.55,-105.406 2025.57,-101.773"/>
</g>
<!-- Node30 -->
<g id="node30" class="node"><title>Node30</title>
<g id="a_node30"><a xlink:href="_graphics_text_8cpp.html" target="_top" xlink:title="GraphicsText.cpp">
<polygon fill="white" stroke="black" points="2080,-56.5 2080,-75.5 2174,-75.5 2174,-56.5 2080,-56.5"/>
<text text-anchor="middle" x="2127" y="-63.5" font-family="Helvetica,sans-Serif" font-size="10.00">GraphicsText.cpp</text>
</a>
</g>
</g>
<!-- Node29&#45;&gt;Node30 -->
<g id="edge51" class="edge"><title>Node29&#45;&gt;Node30</title>
<path fill="none" stroke="midnightblue" d="M2043.76,-107.862C2064.16,-97.8492 2091.67,-84.3458 2109.37,-75.6545"/>
<polygon fill="midnightblue" stroke="midnightblue" points="2042.11,-104.775 2034.67,-112.324 2045.19,-111.059 2042.11,-104.775"/>
</g>
<!-- Node31&#45;&gt;Node15 -->
<g id="edge55" class="edge"><title>Node31&#45;&gt;Node15</title>
<path fill="none" stroke="midnightblue" d="M1781.92,-101.983C1780.75,-87.0476 1776.52,-66.9953 1763,-56 1722.97,-23.4448 1370.39,-14.0528 1242.27,-11.7015"/>
<polygon fill="midnightblue" stroke="midnightblue" points="1778.43,-102.318 1782.32,-112.173 1785.43,-102.044 1778.43,-102.318"/>
</g>
<!-- Node32 -->
<g id="node32" class="node"><title>Node32</title>
<g id="a_node32"><a xlink:href="main_8cpp.html" target="_top" xlink:title="main.cpp">
<polygon fill="white" stroke="black" points="1968,-56.5 1968,-75.5 2024,-75.5 2024,-56.5 1968,-56.5"/>
<text text-anchor="middle" x="1996" y="-63.5" font-family="Helvetica,sans-Serif" font-size="10.00">main.cpp</text>
</a>
</g>
</g>
<!-- Node31&#45;&gt;Node32 -->
<g id="edge54" class="edge"><title>Node31&#45;&gt;Node32</title>
<path fill="none" stroke="midnightblue" d="M1825.7,-109.973C1868.18,-99.2528 1931.45,-83.2882 1967.72,-74.1368"/>
<polygon fill="midnightblue" stroke="midnightblue" points="1824.75,-106.603 1815.91,-112.444 1826.46,-113.39 1824.75,-106.603"/>
</g>
<!-- Node35&#45;&gt;Node31 -->
<g id="edge59" class="edge"><title>Node35&#45;&gt;Node31</title>
<path fill="none" stroke="midnightblue" d="M1782,-157.805C1782,-148.91 1782,-138.78 1782,-131.751"/>
<polygon fill="midnightblue" stroke="midnightblue" points="1778.5,-158.083 1782,-168.083 1785.5,-158.083 1778.5,-158.083"/>
</g>
<!-- Node36 -->
<g id="node36" class="node"><title>Node36</title>
<g id="a_node36"><a xlink:href="_window_8cpp.html" target="_top" xlink:title="Window.cpp">
<polygon fill="white" stroke="black" points="1846.5,-112.5 1846.5,-131.5 1917.5,-131.5 1917.5,-112.5 1846.5,-112.5"/>
<text text-anchor="middle" x="1882" y="-119.5" font-family="Helvetica,sans-Serif" font-size="10.00">Window.cpp</text>
</a>
</g>
</g>
<!-- Node35&#45;&gt;Node36 -->
<g id="edge60" class="edge"><title>Node35&#45;&gt;Node36</title>
<path fill="none" stroke="midnightblue" d="M1807.09,-163.453C1825.55,-153.483 1850.1,-140.228 1865.97,-131.655"/>
<polygon fill="midnightblue" stroke="midnightblue" points="1805.2,-160.493 1798.07,-168.324 1808.53,-166.652 1805.2,-160.493"/>
</g>
</g>
</svg>
        <g id="navigator" transform="translate(0 0)" fill="#404254">
                <rect fill="#f2f5e9" fill-opacity="0.5" stroke="#606060" stroke-width=".5" x="0" y="0" width="60" height="60"/>
                <use id="zoomplus" xlink:href="#zoomPlus" x="17" y="9" onmousedown="handleZoom(evt,'in')"/>
                <use id="zoomminus" xlink:href="#zoomMin" x="42" y="9" onmousedown="handleZoom(evt,'out')"/>
                <use id="reset" xlink:href="#resetDef" x="30" y="36" onmousedown="handleReset()"/>
                <g id="arrowUp" xlink:href="#dirArrow" transform="translate(30 24)" onmousedown="handlePan(0,-1)">
                  <use xlink:href="#rim" fill="#404040">
                        <set attributeName="fill" to="#808080" begin="arrowUp.mouseover" end="arrowUp.mouseout"/>
                  </use>
                  <path fill="none" stroke="white" stroke-width="1.5" d="M0,-3.0v7 M-2.5,-0.5L0,-3.0L2.5,-0.5"/>
                </g>
                <g id="arrowRight" xlink:href="#dirArrow" transform="rotate(90) translate(36 -43)" onmousedown="handlePan(1,0)">
                  <use xlink:href="#rim" fill="#404040">
                        <set attributeName="fill" to="#808080" begin="arrowRight.mouseover" end="arrowRight.mouseout"/>
                  </use>
                  <path fill="none" stroke="white" stroke-width="1.5" d="M0,-3.0v7 M-2.5,-0.5L0,-3.0L2.5,-0.5"/>
                </g>
                <g id="arrowDown" xlink:href="#dirArrow" transform="rotate(180) translate(-30 -48)" onmousedown="handlePan(0,1)">
                  <use xlink:href="#rim" fill="#404040">
                        <set attributeName="fill" to="#808080" begin="arrowDown.mouseover" end="arrowDown.mouseout"/>
                  </use>
                  <path fill="none" stroke="white" stroke-width="1.5" d="M0,-3.0v7 M-2.5,-0.5L0,-3.0L2.5,-0.5"/>
                </g>
                <g id="arrowLeft" xlink:href="#dirArrow" transform="rotate(270) translate(-36 17)" onmousedown="handlePan(-1,0)">
                  <use xlink:href="#rim" fill="#404040">
                        <set attributeName="fill" to="#808080" begin="arrowLeft.mouseover" end="arrowLeft.mouseout"/>
                  </use>
                  <path fill="none" stroke="white" stroke-width="1.5" d="M0,-3.0v7 M-2.5,-0.5L0,-3.0L2.5,-0.5"/>
                </g>
        </g>
        <svg viewBox="0 0 15 15" width="100%" height="30px" preserveAspectRatio="xMaxYMin meet">
         <g id="arrow_out" transform="scale(0.3 0.3)">
          <a xlink:href="_font_8hpp__dep__incl_org.svg" target="_base">
           <rect id="button" ry="5" rx="5" y="6" x="6" height="38" width="38"
                fill="#f2f5e9" fill-opacity="0.5" stroke="#606060" stroke-width="1.0"/>
           <path id="arrow"
             d="M 11.500037,31.436501 C 11.940474,20.09759 22.043105,11.32322 32.158766,21.979434 L 37.068811,17.246167 C 37.068811,17.246167 37.088388,32 37.088388,32 L 22.160133,31.978069 C 22.160133,31.978069 26.997745,27.140456 26.997745,27.140456 C 18.528582,18.264221 13.291696,25.230495 11.500037,31.436501 z"
             style="fill:#404040;"/>
          </a>
         </g>
        </svg>
</svg>
