<?xml version="1.0" encoding="UTF-8" standalone="no"?>
<!DOCTYPE svg PUBLIC "-//W3C//DTD SVG 1.1//EN"
 "http://www.w3.org/Graphics/SVG/1.1/DTD/svg11.dtd">
<!-- Generated by graphviz version 2.36.0 (20140111.2315)
 -->
<!-- Title: Font.hpp Pages: 1 -->
<!--zoomable 364 -->
<svg id="main" version="1.1" xmlns="http://www.w3.org/2000/svg" xmlns:xlink="http://www.w3.org/1999/xlink" xml:space="preserve" onload="init(evt)">
<style type="text/css"><![CDATA[
.edge:hover path { stroke: red; }
.edge:hover polygon { stroke: red; fill: red; }
]]></style>
<script type="text/javascript"><![CDATA[
var edges = document.getElementsByTagName('g');
if (edges && edges.length) {
  for (var i=0;i<edges.length;i++) {
    if (edges[i].id.substr(0,4)=='edge') {
      edges[i].setAttribute('class','edge');
    }
  }
}
]]></script>
        <defs>
                <circle id="rim" cx="0" cy="0" r="7"/>
                <circle id="rim2" cx="0" cy="0" r="3.5"/>
                <g id="zoomPlus">
                        <use xlink:href="#rim" fill="#404040">
                                <set attributeName="fill" to="#808080" begin="zoomplus.mouseover" end="zoomplus.mouseout"/>
                        </use>
                        <path d="M-4,0h8M0,-4v8" fill="none" stroke="white" stroke-width="1.5" pointer-events="none"/>
                </g>
                <g id="zoomMin">
                        <use xlink:href="#rim" fill="#404040">
                                <set attributeName="fill" to="#808080" begin="zoomminus.mouseover" end="zoomminus.mouseout"/>
                        </use>
                        <path d="M-4,0h8" fill="none" stroke="white" stroke-width="1.5" pointer-events="none"/>
                </g>
                <g id="dirArrow">
                        <path fill="none" stroke="white" stroke-width="1.5" d="M0,-3.0v7 M-2.5,-0.5L0,-3.0L2.5,-0.5"/>
                </g>
               <g id="resetDef">
                       <use xlink:href="#rim2" fill="#404040">
                               <set attributeName="fill" to="#808080" begin="reset.mouseover" end="reset.mouseout"/>
                       </use>
               </g>
        </defs>

<script type="text/javascript">
var viewWidth = 2050;
var viewHeight = 364;
var sectionId = 'dynsection-1';
</script>
<script xlink:href="svgpan.js"/>
<svg id="graph" class="graph">
<g id="viewport">
<title>Font.hpp</title>
<polygon fill="white" stroke="none" points="-4,4 -4,-360 2046.28,-360 2046.28,4 -4,4"/>
<!-- Node1 -->
<g id="node1" class="node"><title>Node1</title>
<polygon fill="#bfbfbf" stroke="black" points="770.5,-336.5 770.5,-355.5 825.5,-355.5 825.5,-336.5 770.5,-336.5"/>
<text text-anchor="middle" x="798" y="-343.5" font-family="Helvetica,sans-Serif" font-size="10.00">Font.hpp</text>
</g>
<!-- Node2 -->
<g id="node2" class="node"><title>Node2</title>
<g id="a_node2"><a xlink:href="_canvas_8hpp.html" target="_top" xlink:title="Canvas.hpp">
<polygon fill="white" stroke="black" points="763.5,-280.5 763.5,-299.5 832.5,-299.5 832.5,-280.5 763.5,-280.5"/>
<text text-anchor="middle" x="798" y="-287.5" font-family="Helvetica,sans-Serif" font-size="10.00">Canvas.hpp</text>
</a>
</g>
</g>
<!-- Node1&#45;&gt;Node2 -->
<g id="edge1" class="edge"><title>Node1&#45;&gt;Node2</title>
<path fill="none" stroke="midnightblue" d="M798,-325.805C798,-316.91 798,-306.78 798,-299.751"/>
<polygon fill="midnightblue" stroke="midnightblue" points="794.5,-326.083 798,-336.083 801.5,-326.083 794.5,-326.083"/>
</g>
<!-- Node37 -->
<g id="node37" class="node"><title>Node37</title>
<g id="a_node37"><a xlink:href="_graphics_text_8hpp.html" target="_top" xlink:title="Classe GraphicsText. ">
<polygon fill="white" stroke="black" points="215,-168.5 215,-187.5 309,-187.5 309,-168.5 215,-168.5"/>
<text text-anchor="middle" x="262" y="-175.5" font-family="Helvetica,sans-Serif" font-size="10.00">GraphicsText.hpp</text>
</a>
</g>
</g>
<!-- Node1&#45;&gt;Node37 -->
<g id="edge62" class="edge"><title>Node1&#45;&gt;Node37</title>
<path fill="none" stroke="midnightblue" d="M760.458,-333.373C658.563,-301.816 378.51,-215.083 289.524,-187.524"/>
<polygon fill="midnightblue" stroke="midnightblue" points="759.723,-336.81 770.311,-336.425 761.794,-330.123 759.723,-336.81"/>
</g>
<!-- Node42 -->
<g id="node42" class="node"><title>Node42</title>
<g id="a_node42"><a xlink:href="_font_8cpp.html" target="_top" xlink:title="Font.cpp">
<polygon fill="white" stroke="black" points="850.5,-280.5 850.5,-299.5 905.5,-299.5 905.5,-280.5 850.5,-280.5"/>
<text text-anchor="middle" x="878" y="-287.5" font-family="Helvetica,sans-Serif" font-size="10.00">Font.cpp</text>
</a>
</g>
</g>
<!-- Node1&#45;&gt;Node42 -->
<g id="edge61" class="edge"><title>Node1&#45;&gt;Node42</title>
<path fill="none" stroke="midnightblue" d="M819.301,-330.622C833.915,-320.757 852.827,-307.992 865.179,-299.655"/>
<polygon fill="midnightblue" stroke="midnightblue" points="817.184,-327.828 810.853,-336.324 821.1,-333.63 817.184,-327.828"/>
</g>
<!-- Node3 -->
<g id="node3" class="node"><title>Node3</title>
<g id="a_node3"><a xlink:href="_window_8hpp.html" target="_top" xlink:title="Window.hpp">
<polygon fill="white" stroke="black" points="1790.5,-224.5 1790.5,-243.5 1861.5,-243.5 1861.5,-224.5 1790.5,-224.5"/>
<text text-anchor="middle" x="1826" y="-231.5" font-family="Helvetica,sans-Serif" font-size="10.00">Window.hpp</text>
</a>
</g>
</g>
<!-- Node2&#45;&gt;Node3 -->
<g id="edge2" class="edge"><title>Node2&#45;&gt;Node3</title>
<path fill="none" stroke="midnightblue" d="M842.618,-279.994C1217.87,-233.272 1663.2,-233.455 1790.49,-234.569"/>
<polygon fill="midnightblue" stroke="midnightblue" points="842.138,-276.527 832.653,-281.248 843.012,-283.472 842.138,-276.527"/>
</g>
<!-- Node8 -->
<g id="node8" class="node"><title>Node8</title>
<g id="a_node8"><a xlink:href="_canvas_8cpp.html" target="_top" xlink:title="Canvas.cpp">
<polygon fill="white" stroke="black" points="813.5,-224.5 813.5,-243.5 882.5,-243.5 882.5,-224.5 813.5,-224.5"/>
<text text-anchor="middle" x="848" y="-231.5" font-family="Helvetica,sans-Serif" font-size="10.00">Canvas.cpp</text>
</a>
</g>
</g>
<!-- Node2&#45;&gt;Node8 -->
<g id="edge7" class="edge"><title>Node2&#45;&gt;Node8</title>
<path fill="none" stroke="midnightblue" d="M813.076,-272.718C821.889,-263.2 832.666,-251.561 839.897,-243.751"/>
<polygon fill="midnightblue" stroke="midnightblue" points="810.482,-270.367 806.256,-280.083 815.619,-275.123 810.482,-270.367"/>
</g>
<!-- Node9 -->
<g id="node9" class="node"><title>Node9</title>
<g id="a_node9"><a xlink:href="_graphics_item_8hpp.html" target="_top" xlink:title="Classe GraphicsItem. ">
<polygon fill="white" stroke="black" points="701,-224.5 701,-243.5 795,-243.5 795,-224.5 701,-224.5"/>
<text text-anchor="middle" x="748" y="-231.5" font-family="Helvetica,sans-Serif" font-size="10.00">GraphicsItem.hpp</text>
</a>
</g>
</g>
<!-- Node2&#45;&gt;Node9 -->
<g id="edge8" class="edge"><title>Node2&#45;&gt;Node9</title>
<path fill="none" stroke="midnightblue" d="M782.924,-272.718C774.111,-263.2 763.334,-251.561 756.103,-243.751"/>
<polygon fill="midnightblue" stroke="midnightblue" points="780.381,-275.123 789.744,-280.083 785.518,-270.367 780.381,-275.123"/>
</g>
<!-- Node4 -->
<g id="node4" class="node"><title>Node4</title>
<g id="a_node4"><a xlink:href="_main_window_8hpp.html" target="_top" xlink:title="MainWindow.hpp">
<polygon fill="white" stroke="black" points="1780,-168.5 1780,-187.5 1872,-187.5 1872,-168.5 1780,-168.5"/>
<text text-anchor="middle" x="1826" y="-175.5" font-family="Helvetica,sans-Serif" font-size="10.00">MainWindow.hpp</text>
</a>
</g>
</g>
<!-- Node3&#45;&gt;Node4 -->
<g id="edge3" class="edge"><title>Node3&#45;&gt;Node4</title>
<path fill="none" stroke="midnightblue" d="M1826,-213.805C1826,-204.91 1826,-194.78 1826,-187.751"/>
<polygon fill="midnightblue" stroke="midnightblue" points="1822.5,-214.083 1826,-224.083 1829.5,-214.083 1822.5,-214.083"/>
</g>
<!-- Node7 -->
<g id="node7" class="node"><title>Node7</title>
<g id="a_node7"><a xlink:href="_window_8cpp.html" target="_top" xlink:title="Window.cpp">
<polygon fill="white" stroke="black" points="1890.5,-168.5 1890.5,-187.5 1961.5,-187.5 1961.5,-168.5 1890.5,-168.5"/>
<text text-anchor="middle" x="1926" y="-175.5" font-family="Helvetica,sans-Serif" font-size="10.00">Window.cpp</text>
</a>
</g>
</g>
<!-- Node3&#45;&gt;Node7 -->
<g id="edge6" class="edge"><title>Node3&#45;&gt;Node7</title>
<path fill="none" stroke="midnightblue" d="M1851.09,-219.453C1869.55,-209.483 1894.1,-196.228 1909.97,-187.655"/>
<polygon fill="midnightblue" stroke="midnightblue" points="1849.2,-216.493 1842.07,-224.324 1852.53,-222.652 1849.2,-216.493"/>
</g>
<!-- Node5 -->
<g id="node5" class="node"><title>Node5</title>
<g id="a_node5"><a xlink:href="main_8cpp.html" target="_top" xlink:title="main.cpp">
<polygon fill="white" stroke="black" points="1974,-112.5 1974,-131.5 2030,-131.5 2030,-112.5 1974,-112.5"/>
<text text-anchor="middle" x="2002" y="-119.5" font-family="Helvetica,sans-Serif" font-size="10.00">main.cpp</text>
</a>
</g>
</g>
<!-- Node4&#45;&gt;Node5 -->
<g id="edge4" class="edge"><title>Node4&#45;&gt;Node5</title>
<path fill="none" stroke="midnightblue" d="M1863.69,-165.436C1896.87,-155.255 1944.43,-140.664 1974.24,-131.516"/>
<polygon fill="midnightblue" stroke="midnightblue" points="1862.42,-162.164 1853.89,-168.444 1864.47,-168.856 1862.42,-162.164"/>
</g>
<!-- Node6 -->
<g id="node6" class="node"><title>Node6</title>
<g id="a_node6"><a xlink:href="_main_window_8cpp.html" target="_top" xlink:title="MainWindow.cpp">
<polygon fill="white" stroke="black" points="512,-0.5 512,-19.5 604,-19.5 604,-0.5 512,-0.5"/>
<text text-anchor="middle" x="558" y="-7.5" font-family="Helvetica,sans-Serif" font-size="10.00">MainWindow.cpp</text>
</a>
</g>
</g>
<!-- Node4&#45;&gt;Node6 -->
<g id="edge5" class="edge"><title>Node4&#45;&gt;Node6</title>
<path fill="none" stroke="midnightblue" d="M1882.01,-166.908C1943.13,-155.63 2033.02,-138.145 2038,-132 2043.59,-125.093 2043.76,-118.77 2038,-112 1937.34,6.31486 1847.56,-71.55 1693,-56 1271.63,-13.6069 758.51,-10.6717 604.089,-10.8265"/>
<polygon fill="midnightblue" stroke="midnightblue" points="1881.3,-163.481 1872.09,-168.731 1882.56,-170.366 1881.3,-163.481"/>
</g>
<!-- Node9&#45;&gt;Node4 -->
<g id="edge9" class="edge"><title>Node9&#45;&gt;Node4</title>
<path fill="none" stroke="midnightblue" d="M805.152,-224.203C911.007,-216.607 1594.95,-188.447 1779.95,-180.879"/>
<polygon fill="midnightblue" stroke="midnightblue" points="804.679,-220.73 795.002,-225.043 805.257,-227.706 804.679,-220.73"/>
</g>
<!-- Node10 -->
<g id="node10" class="node"><title>Node10</title>
<g id="a_node10"><a xlink:href="_tools_windows_8hpp.html" target="_top" xlink:title="ToolsWindows.hpp">
<polygon fill="white" stroke="black" points="659,-168.5 659,-187.5 759,-187.5 759,-168.5 659,-168.5"/>
<text text-anchor="middle" x="709" y="-175.5" font-family="Helvetica,sans-Serif" font-size="10.00">ToolsWindows.hpp</text>
</a>
</g>
</g>
<!-- Node9&#45;&gt;Node10 -->
<g id="edge10" class="edge"><title>Node9&#45;&gt;Node10</title>
<path fill="none" stroke="midnightblue" d="M735.618,-215.855C728.865,-206.505 720.791,-195.327 715.32,-187.751"/>
<polygon fill="midnightblue" stroke="midnightblue" points="732.868,-218.025 741.56,-224.083 738.542,-213.927 732.868,-218.025"/>
</g>
<!-- Node11 -->
<g id="node11" class="node"><title>Node11</title>
<g id="a_node11"><a xlink:href="_graphics_point_8hpp.html" target="_top" xlink:title="GraphicsPoint.hpp">
<polygon fill="white" stroke="black" points="1006.5,-168.5 1006.5,-187.5 1103.5,-187.5 1103.5,-168.5 1006.5,-168.5"/>
<text text-anchor="middle" x="1055" y="-175.5" font-family="Helvetica,sans-Serif" font-size="10.00">GraphicsPoint.hpp</text>
</a>
</g>
</g>
<!-- Node9&#45;&gt;Node11 -->
<g id="edge11" class="edge"><title>Node9&#45;&gt;Node11</title>
<path fill="none" stroke="midnightblue" d="M805.401,-222.903C863.42,-212.698 952.081,-197.103 1006.64,-187.507"/>
<polygon fill="midnightblue" stroke="midnightblue" points="804.538,-219.501 795.296,-224.681 805.751,-226.395 804.538,-219.501"/>
</g>
<!-- Node22 -->
<g id="node22" class="node"><title>Node22</title>
<g id="a_node22"><a xlink:href="_graphics_animation_8hpp.html" target="_top" xlink:title="GraphicsAnimation.hpp">
<polygon fill="white" stroke="black" points="327,-168.5 327,-187.5 445,-187.5 445,-168.5 327,-168.5"/>
<text text-anchor="middle" x="386" y="-175.5" font-family="Helvetica,sans-Serif" font-size="10.00">GraphicsAnimation.hpp</text>
</a>
</g>
</g>
<!-- Node9&#45;&gt;Node22 -->
<g id="edge29" class="edge"><title>Node9&#45;&gt;Node22</title>
<path fill="none" stroke="midnightblue" d="M690.602,-224.438C622.844,-214.33 510.845,-197.623 443.182,-187.53"/>
<polygon fill="midnightblue" stroke="midnightblue" points="690.268,-227.927 700.675,-225.94 691.301,-221.003 690.268,-227.927"/>
</g>
<!-- Node27 -->
<g id="node27" class="node"><title>Node27</title>
<g id="a_node27"><a xlink:href="_graphics_shape_8hpp.html" target="_top" xlink:title="Classe GraphicsShape. ">
<polygon fill="white" stroke="black" points="1484,-168.5 1484,-187.5 1586,-187.5 1586,-168.5 1484,-168.5"/>
<text text-anchor="middle" x="1535" y="-175.5" font-family="Helvetica,sans-Serif" font-size="10.00">GraphicsShape.hpp</text>
</a>
</g>
</g>
<!-- Node9&#45;&gt;Node27 -->
<g id="edge34" class="edge"><title>Node9&#45;&gt;Node27</title>
<path fill="none" stroke="midnightblue" d="M805.057,-223.995C1066.08,-195.508 1366.06,-184.082 1483.89,-180.425"/>
<polygon fill="midnightblue" stroke="midnightblue" points="804.565,-220.529 795.008,-225.103 805.332,-227.486 804.565,-220.529"/>
</g>
<!-- Node35 -->
<g id="node35" class="node"><title>Node35</title>
<g id="a_node35"><a xlink:href="_graphics_rectangle_8hpp.html" target="_top" xlink:title="GraphicsRectangle.hpp">
<polygon fill="white" stroke="black" points="566.5,-112.5 566.5,-131.5 685.5,-131.5 685.5,-112.5 566.5,-112.5"/>
<text text-anchor="middle" x="626" y="-119.5" font-family="Helvetica,sans-Serif" font-size="10.00">GraphicsRectangle.hpp</text>
</a>
</g>
</g>
<!-- Node9&#45;&gt;Node35 -->
<g id="edge49" class="edge"><title>Node9&#45;&gt;Node35</title>
<path fill="none" stroke="midnightblue" d="M760.954,-215.949C769.878,-201.964 778.413,-182.223 768,-168 749.133,-142.23 715.422,-130.851 685.58,-125.975"/>
<polygon fill="midnightblue" stroke="midnightblue" points="758.059,-213.983 755.229,-224.193 763.808,-217.976 758.059,-213.983"/>
</g>
<!-- Node36 -->
<g id="node36" class="node"><title>Node36</title>
<g id="a_node36"><a xlink:href="_graphics_square_8hpp.html" target="_top" xlink:title="GraphicsSquare.hpp">
<polygon fill="white" stroke="black" points="815.5,-168.5 815.5,-187.5 920.5,-187.5 920.5,-168.5 815.5,-168.5"/>
<text text-anchor="middle" x="868" y="-175.5" font-family="Helvetica,sans-Serif" font-size="10.00">GraphicsSquare.hpp</text>
</a>
</g>
</g>
<!-- Node9&#45;&gt;Node36 -->
<g id="edge52" class="edge"><title>Node9&#45;&gt;Node36</title>
<path fill="none" stroke="midnightblue" d="M776.373,-220.232C798.82,-210.131 829.535,-196.309 849.075,-187.516"/>
<polygon fill="midnightblue" stroke="midnightblue" points="774.697,-217.148 767.014,-224.444 777.57,-223.532 774.697,-217.148"/>
</g>
<!-- Node9&#45;&gt;Node37 -->
<g id="edge54" class="edge"><title>Node9&#45;&gt;Node37</title>
<path fill="none" stroke="midnightblue" d="M690.639,-228.01C608.091,-220.599 451.082,-205.644 318,-188 315.072,-187.612 312.06,-187.191 309.026,-186.75"/>
<polygon fill="midnightblue" stroke="midnightblue" points="690.543,-231.515 700.815,-228.919 691.166,-224.543 690.543,-231.515"/>
</g>
<!-- Node39 -->
<g id="node39" class="node"><title>Node39</title>
<g id="a_node39"><a xlink:href="_graphics_item_8cpp.html" target="_top" xlink:title="GraphicsItem.cpp">
<polygon fill="white" stroke="black" points="547,-168.5 547,-187.5 641,-187.5 641,-168.5 547,-168.5"/>
<text text-anchor="middle" x="594" y="-175.5" font-family="Helvetica,sans-Serif" font-size="10.00">GraphicsItem.cpp</text>
</a>
</g>
</g>
<!-- Node9&#45;&gt;Node39 -->
<g id="edge57" class="edge"><title>Node9&#45;&gt;Node39</title>
<path fill="none" stroke="midnightblue" d="M713.889,-221.039C684.913,-210.879 644.038,-196.546 618.288,-187.516"/>
<polygon fill="midnightblue" stroke="midnightblue" points="713.003,-224.437 723.598,-224.444 715.32,-217.832 713.003,-224.437"/>
</g>
<!-- Node40 -->
<g id="node40" class="node"><title>Node40</title>
<g id="a_node40"><a xlink:href="_widget_8hpp.html" target="_top" xlink:title="Widget.hpp">
<polygon fill="white" stroke="black" points="463,-168.5 463,-187.5 529,-187.5 529,-168.5 463,-168.5"/>
<text text-anchor="middle" x="496" y="-175.5" font-family="Helvetica,sans-Serif" font-size="10.00">Widget.hpp</text>
</a>
</g>
</g>
<!-- Node9&#45;&gt;Node40 -->
<g id="edge58" class="edge"><title>Node9&#45;&gt;Node40</title>
<path fill="none" stroke="midnightblue" d="M698.114,-222.31C648.088,-211.59 572.462,-195.385 529.305,-186.137"/>
<polygon fill="midnightblue" stroke="midnightblue" points="697.558,-225.77 708.07,-224.444 699.025,-218.926 697.558,-225.77"/>
</g>
<!-- Node12 -->
<g id="node12" class="node"><title>Node12</title>
<g id="a_node12"><a xlink:href="_graphics_anchor_8hpp.html" target="_top" xlink:title="GraphicsAnchor.hpp">
<polygon fill="white" stroke="black" points="1242.5,-112.5 1242.5,-131.5 1347.5,-131.5 1347.5,-112.5 1242.5,-112.5"/>
<text text-anchor="middle" x="1295" y="-119.5" font-family="Helvetica,sans-Serif" font-size="10.00">GraphicsAnchor.hpp</text>
</a>
</g>
</g>
<!-- Node11&#45;&gt;Node12 -->
<g id="edge12" class="edge"><title>Node11&#45;&gt;Node12</title>
<path fill="none" stroke="midnightblue" d="M1102.92,-166.217C1148.27,-156.013 1215.44,-140.901 1257.15,-131.516"/>
<polygon fill="midnightblue" stroke="midnightblue" points="1102.02,-162.834 1093.03,-168.444 1103.55,-169.663 1102.02,-162.834"/>
</g>
<!-- Node14 -->
<g id="node14" class="node"><title>Node14</title>
<g id="a_node14"><a xlink:href="_graphics_circle_8cpp.html" target="_top" xlink:title="GraphicsCircle.cpp">
<polygon fill="white" stroke="black" points="1584,-56.5 1584,-75.5 1684,-75.5 1684,-56.5 1584,-56.5"/>
<text text-anchor="middle" x="1634" y="-63.5" font-family="Helvetica,sans-Serif" font-size="10.00">GraphicsCircle.cpp</text>
</a>
</g>
</g>
<!-- Node11&#45;&gt;Node14 -->
<g id="edge21" class="edge"><title>Node11&#45;&gt;Node14</title>
<path fill="none" stroke="midnightblue" d="M1113.92,-173.864C1186.19,-169.064 1312.03,-157.598 1417,-132 1441.86,-125.937 1446.64,-119.857 1471,-112 1515,-97.8052 1566.56,-84.0436 1599.72,-75.555"/>
<polygon fill="midnightblue" stroke="midnightblue" points="1113.41,-170.39 1103.66,-174.525 1113.86,-177.375 1113.41,-170.39"/>
</g>
<!-- Node15 -->
<g id="node15" class="node"><title>Node15</title>
<g id="a_node15"><a xlink:href="_graphics_ellipse_8cpp.html" target="_top" xlink:title="GraphicsEllipse.cpp">
<polygon fill="white" stroke="black" points="972,-56.5 972,-75.5 1076,-75.5 1076,-56.5 972,-56.5"/>
<text text-anchor="middle" x="1024" y="-63.5" font-family="Helvetica,sans-Serif" font-size="10.00">GraphicsEllipse.cpp</text>
</a>
</g>
</g>
<!-- Node11&#45;&gt;Node15 -->
<g id="edge22" class="edge"><title>Node11&#45;&gt;Node15</title>
<path fill="none" stroke="midnightblue" d="M1006.4,-164.77C989.697,-157.987 972.758,-147.636 963,-132 948.661,-109.025 982.432,-87.0863 1005.24,-75.5037"/>
<polygon fill="midnightblue" stroke="midnightblue" points="1005.56,-168.19 1016.15,-168.364 1007.98,-161.622 1005.56,-168.19"/>
</g>
<!-- Node16 -->
<g id="node16" class="node"><title>Node16</title>
<g id="a_node16"><a xlink:href="_graphics_line_8cpp.html" target="_top" xlink:title="GraphicsLine.cpp">
<polygon fill="white" stroke="black" points="1094,-56.5 1094,-75.5 1186,-75.5 1186,-56.5 1094,-56.5"/>
<text text-anchor="middle" x="1140" y="-63.5" font-family="Helvetica,sans-Serif" font-size="10.00">GraphicsLine.cpp</text>
</a>
</g>
</g>
<!-- Node11&#45;&gt;Node16 -->
<g id="edge23" class="edge"><title>Node11&#45;&gt;Node16</title>
<path fill="none" stroke="midnightblue" d="M1067.93,-160.272C1086.3,-136.494 1119.3,-93.7889 1133.36,-75.5914"/>
<polygon fill="midnightblue" stroke="midnightblue" points="1065.01,-158.316 1061.67,-168.368 1070.55,-162.596 1065.01,-158.316"/>
</g>
<!-- Node17 -->
<g id="node17" class="node"><title>Node17</title>
<g id="a_node17"><a xlink:href="_graphics_polygon_8cpp.html" target="_top" xlink:title="GraphicsPolygon.cpp">
<polygon fill="white" stroke="black" points="1328,-56.5 1328,-75.5 1438,-75.5 1438,-56.5 1328,-56.5"/>
<text text-anchor="middle" x="1383" y="-63.5" font-family="Helvetica,sans-Serif" font-size="10.00">GraphicsPolygon.cpp</text>
</a>
</g>
</g>
<!-- Node11&#45;&gt;Node17 -->
<g id="edge25" class="edge"><title>Node11&#45;&gt;Node17</title>
<path fill="none" stroke="midnightblue" d="M1113.64,-174.966C1190.34,-171.19 1319.28,-160.663 1356,-132 1373.92,-118.016 1380.05,-90.0392 1382.07,-75.7852"/>
<polygon fill="midnightblue" stroke="midnightblue" points="1113.46,-171.47 1103.64,-175.435 1113.79,-178.463 1113.46,-171.47"/>
</g>
<!-- Node18 -->
<g id="node18" class="node"><title>Node18</title>
<g id="a_node18"><a xlink:href="_graphics_rectangle_8cpp.html" target="_top" xlink:title="GraphicsRectangle.cpp">
<polygon fill="white" stroke="black" points="692.5,-56.5 692.5,-75.5 811.5,-75.5 811.5,-56.5 692.5,-56.5"/>
<text text-anchor="middle" x="752" y="-63.5" font-family="Helvetica,sans-Serif" font-size="10.00">GraphicsRectangle.cpp</text>
</a>
</g>
</g>
<!-- Node11&#45;&gt;Node18 -->
<g id="edge26" class="edge"><title>Node11&#45;&gt;Node18</title>
<path fill="none" stroke="midnightblue" d="M995.994,-171.034C917.773,-162.615 787.631,-146.639 771,-132 754.585,-117.551 751.993,-89.7854 751.803,-75.6811"/>
<polygon fill="midnightblue" stroke="midnightblue" points="995.887,-174.542 1006.2,-172.121 996.628,-167.582 995.887,-174.542"/>
</g>
<!-- Node19 -->
<g id="node19" class="node"><title>Node19</title>
<g id="a_node19"><a xlink:href="_graphics_square_8cpp.html" target="_top" xlink:title="GraphicsSquare.cpp">
<polygon fill="white" stroke="black" points="848.5,-56.5 848.5,-75.5 953.5,-75.5 953.5,-56.5 848.5,-56.5"/>
<text text-anchor="middle" x="901" y="-63.5" font-family="Helvetica,sans-Serif" font-size="10.00">GraphicsSquare.cpp</text>
</a>
</g>
</g>
<!-- Node11&#45;&gt;Node19 -->
<g id="edge27" class="edge"><title>Node11&#45;&gt;Node19</title>
<path fill="none" stroke="midnightblue" d="M1018.5,-164.875C998.827,-157.281 974.807,-146.225 956,-132 934.307,-115.591 915.385,-89.1911 906.457,-75.6388"/>
<polygon fill="midnightblue" stroke="midnightblue" points="1017.46,-168.221 1028.05,-168.425 1019.9,-161.66 1017.46,-168.221"/>
</g>
<!-- Node20 -->
<g id="node20" class="node"><title>Node20</title>
<g id="a_node20"><a xlink:href="_graphics_triangle_8cpp.html" target="_top" xlink:title="GraphicsTriangle.cpp">
<polygon fill="white" stroke="black" points="1456.5,-56.5 1456.5,-75.5 1565.5,-75.5 1565.5,-56.5 1456.5,-56.5"/>
<text text-anchor="middle" x="1511" y="-63.5" font-family="Helvetica,sans-Serif" font-size="10.00">GraphicsTriangle.cpp</text>
</a>
</g>
</g>
<!-- Node11&#45;&gt;Node20 -->
<g id="edge28" class="edge"><title>Node11&#45;&gt;Node20</title>
<path fill="none" stroke="midnightblue" d="M1113.8,-174.38C1179.46,-170.183 1288.31,-159.401 1378,-132 1423.96,-117.958 1473.74,-89.7474 1497.24,-75.5603"/>
<polygon fill="midnightblue" stroke="midnightblue" points="1113.41,-170.897 1103.64,-174.999 1113.83,-177.884 1113.41,-170.897"/>
</g>
<!-- Node21 -->
<g id="node21" class="node"><title>Node21</title>
<g id="a_node21"><a xlink:href="_graphics_point_8cpp.html" target="_top" xlink:title="GraphicsPoint.cpp">
<polygon fill="white" stroke="black" points="780.5,-112.5 780.5,-131.5 877.5,-131.5 877.5,-112.5 780.5,-112.5"/>
<text text-anchor="middle" x="829" y="-119.5" font-family="Helvetica,sans-Serif" font-size="10.00">GraphicsPoint.cpp</text>
</a>
</g>
</g>
<!-- Node11&#45;&gt;Node21 -->
<g id="edge24" class="edge"><title>Node11&#45;&gt;Node21</title>
<path fill="none" stroke="midnightblue" d="M1009.33,-166.088C966.636,-155.887 903.752,-140.861 864.643,-131.516"/>
<polygon fill="midnightblue" stroke="midnightblue" points="1008.65,-169.524 1019.19,-168.444 1010.28,-162.715 1008.65,-169.524"/>
</g>
<!-- Node13 -->
<g id="node13" class="node"><title>Node13</title>
<g id="a_node13"><a xlink:href="_graphics_anchor_8cpp.html" target="_top" xlink:title="GraphicsAnchor.cpp">
<polygon fill="white" stroke="black" points="1204.5,-56.5 1204.5,-75.5 1309.5,-75.5 1309.5,-56.5 1204.5,-56.5"/>
<text text-anchor="middle" x="1257" y="-63.5" font-family="Helvetica,sans-Serif" font-size="10.00">GraphicsAnchor.cpp</text>
</a>
</g>
</g>
<!-- Node12&#45;&gt;Node13 -->
<g id="edge13" class="edge"><title>Node12&#45;&gt;Node13</title>
<path fill="none" stroke="midnightblue" d="M1282.94,-103.855C1276.36,-94.5048 1268.49,-83.3265 1263.16,-75.7511"/>
<polygon fill="midnightblue" stroke="midnightblue" points="1280.11,-105.919 1288.73,-112.083 1285.83,-101.891 1280.11,-105.919"/>
</g>
<!-- Node12&#45;&gt;Node14 -->
<g id="edge14" class="edge"><title>Node12&#45;&gt;Node14</title>
<path fill="none" stroke="midnightblue" d="M1357.74,-111.006C1422.93,-100.622 1523.65,-84.5785 1583.77,-75.0012"/>
<polygon fill="midnightblue" stroke="midnightblue" points="1356.92,-107.592 1347.6,-112.622 1358.02,-114.505 1356.92,-107.592"/>
</g>
<!-- Node12&#45;&gt;Node15 -->
<g id="edge15" class="edge"><title>Node12&#45;&gt;Node15</title>
<path fill="none" stroke="midnightblue" d="M1242.17,-110.473C1190.96,-100.268 1114.23,-84.9794 1066.74,-75.5164"/>
<polygon fill="midnightblue" stroke="midnightblue" points="1241.57,-113.922 1252.06,-112.444 1242.94,-107.057 1241.57,-113.922"/>
</g>
<!-- Node12&#45;&gt;Node16 -->
<g id="edge16" class="edge"><title>Node12&#45;&gt;Node16</title>
<path fill="none" stroke="midnightblue" d="M1260.67,-109.039C1231.5,-98.8786 1190.36,-84.5457 1164.45,-75.5164"/>
<polygon fill="midnightblue" stroke="midnightblue" points="1259.84,-112.459 1270.44,-112.444 1262.15,-105.848 1259.84,-112.459"/>
</g>
<!-- Node12&#45;&gt;Node17 -->
<g id="edge17" class="edge"><title>Node12&#45;&gt;Node17</title>
<path fill="none" stroke="midnightblue" d="M1317.98,-106.901C1334.11,-96.9986 1355.18,-84.0705 1368.9,-75.6545"/>
<polygon fill="midnightblue" stroke="midnightblue" points="1315.83,-104.111 1309.14,-112.324 1319.49,-110.077 1315.83,-104.111"/>
</g>
<!-- Node12&#45;&gt;Node18 -->
<g id="edge18" class="edge"><title>Node12&#45;&gt;Node18</title>
<path fill="none" stroke="midnightblue" d="M1232.17,-111.961C1056.68,-91.4186 1010.76,-92.7309 839,-76 830.234,-75.1462 820.975,-74.2173 811.895,-73.2911"/>
<polygon fill="midnightblue" stroke="midnightblue" points="1231.92,-115.456 1242.26,-113.15 1232.74,-108.504 1231.92,-115.456"/>
</g>
<!-- Node12&#45;&gt;Node19 -->
<g id="edge19" class="edge"><title>Node12&#45;&gt;Node19</title>
<path fill="none" stroke="midnightblue" d="M1232.23,-111.907C1111.44,-95.1568 1079.74,-92.2557 963,-76 959.984,-75.58 956.885,-75.1442 953.759,-74.7011"/>
<polygon fill="midnightblue" stroke="midnightblue" points="1231.85,-115.389 1242.24,-113.299 1232.82,-108.455 1231.85,-115.389"/>
</g>
<!-- Node12&#45;&gt;Node20 -->
<g id="edge20" class="edge"><title>Node12&#45;&gt;Node20</title>
<path fill="none" stroke="midnightblue" d="M1339.16,-109.959C1379.96,-99.7598 1439.71,-84.8217 1476.93,-75.5164"/>
<polygon fill="midnightblue" stroke="midnightblue" points="1338.08,-106.623 1329.23,-112.444 1339.78,-113.414 1338.08,-106.623"/>
</g>
<!-- Node23 -->
<g id="node23" class="node"><title>Node23</title>
<g id="a_node23"><a xlink:href="_graphics_blink_animation_8hpp.html" target="_top" xlink:title="GraphicsBlinkAnimation.hpp">
<polygon fill="white" stroke="black" points="112,-112.5 112,-131.5 252,-131.5 252,-112.5 112,-112.5"/>
<text text-anchor="middle" x="182" y="-119.5" font-family="Helvetica,sans-Serif" font-size="10.00">GraphicsBlinkAnimation.hpp</text>
</a>
</g>
</g>
<!-- Node22&#45;&gt;Node23 -->
<g id="edge30" class="edge"><title>Node22&#45;&gt;Node23</title>
<path fill="none" stroke="midnightblue" d="M343.799,-165.829C305.282,-155.633 249.178,-140.782 214.173,-131.516"/>
<polygon fill="midnightblue" stroke="midnightblue" points="343.113,-169.268 353.676,-168.444 344.904,-162.501 343.113,-169.268"/>
</g>
<!-- Node26 -->
<g id="node26" class="node"><title>Node26</title>
<g id="a_node26"><a xlink:href="_graphics_animation_8cpp.html" target="_top" xlink:title="GraphicsAnimation.cpp">
<polygon fill="white" stroke="black" points="308,-112.5 308,-131.5 426,-131.5 426,-112.5 308,-112.5"/>
<text text-anchor="middle" x="367" y="-119.5" font-family="Helvetica,sans-Serif" font-size="10.00">GraphicsAnimation.cpp</text>
</a>
</g>
</g>
<!-- Node22&#45;&gt;Node26 -->
<g id="edge33" class="edge"><title>Node22&#45;&gt;Node26</title>
<path fill="none" stroke="midnightblue" d="M379.454,-158.396C376.276,-149.362 372.607,-138.936 370.079,-131.751"/>
<polygon fill="midnightblue" stroke="midnightblue" points="376.242,-159.812 382.863,-168.083 382.845,-157.488 376.242,-159.812"/>
</g>
<!-- Node24 -->
<g id="node24" class="node"><title>Node24</title>
<g id="a_node24"><a xlink:href="_graphics_blink_animation_8cpp.html" target="_top" xlink:title="GraphicsBlinkAnimation.cpp">
<polygon fill="white" stroke="black" points="112,-56.5 112,-75.5 252,-75.5 252,-56.5 112,-56.5"/>
<text text-anchor="middle" x="182" y="-63.5" font-family="Helvetica,sans-Serif" font-size="10.00">GraphicsBlinkAnimation.cpp</text>
</a>
</g>
</g>
<!-- Node23&#45;&gt;Node24 -->
<g id="edge31" class="edge"><title>Node23&#45;&gt;Node24</title>
<path fill="none" stroke="midnightblue" d="M182,-101.805C182,-92.9102 182,-82.7798 182,-75.7511"/>
<polygon fill="midnightblue" stroke="midnightblue" points="178.5,-102.083 182,-112.083 185.5,-102.083 178.5,-102.083"/>
</g>
<!-- Node25 -->
<g id="node25" class="node"><title>Node25</title>
<g id="a_node25"><a xlink:href="_line_edit_8cpp.html" target="_top" xlink:title="LineEdit.cpp">
<polygon fill="white" stroke="black" points="378.5,-0.5 378.5,-19.5 449.5,-19.5 449.5,-0.5 378.5,-0.5"/>
<text text-anchor="middle" x="414" y="-7.5" font-family="Helvetica,sans-Serif" font-size="10.00">LineEdit.cpp</text>
</a>
</g>
</g>
<!-- Node23&#45;&gt;Node25 -->
<g id="edge32" class="edge"><title>Node23&#45;&gt;Node25</title>
<path fill="none" stroke="midnightblue" d="M209.373,-108.021C257.354,-85.2717 355.386,-38.791 395.88,-19.5914"/>
<polygon fill="midnightblue" stroke="midnightblue" points="207.741,-104.922 200.205,-112.368 210.74,-111.247 207.741,-104.922"/>
</g>
<!-- Node28 -->
<g id="node28" class="node"><title>Node28</title>
<g id="a_node28"><a xlink:href="_graphics_circle_8hpp.html" target="_top" xlink:title="GraphicsCircle.hpp">
<polygon fill="white" stroke="black" points="1856,-112.5 1856,-131.5 1956,-131.5 1956,-112.5 1856,-112.5"/>
<text text-anchor="middle" x="1906" y="-119.5" font-family="Helvetica,sans-Serif" font-size="10.00">GraphicsCircle.hpp</text>
</a>
</g>
</g>
<!-- Node27&#45;&gt;Node28 -->
<g id="edge35" class="edge"><title>Node27&#45;&gt;Node28</title>
<path fill="none" stroke="midnightblue" d="M1596.31,-168.224C1659.05,-159.222 1759.34,-144.769 1846,-132 1849.23,-131.524 1852.56,-131.031 1855.91,-130.533"/>
<polygon fill="midnightblue" stroke="midnightblue" points="1595.59,-164.791 1586.19,-169.676 1596.59,-171.721 1595.59,-164.791"/>
</g>
<!-- Node29 -->
<g id="node29" class="node"><title>Node29</title>
<g id="a_node29"><a xlink:href="_graphics_ellipse_8hpp.html" target="_top" xlink:title="GraphicsEllipse.hpp">
<polygon fill="white" stroke="black" points="972,-112.5 972,-131.5 1076,-131.5 1076,-112.5 972,-112.5"/>
<text text-anchor="middle" x="1024" y="-119.5" font-family="Helvetica,sans-Serif" font-size="10.00">GraphicsEllipse.hpp</text>
</a>
</g>
</g>
<!-- Node27&#45;&gt;Node29 -->
<g id="edge37" class="edge"><title>Node27&#45;&gt;Node29</title>
<path fill="none" stroke="midnightblue" d="M1473.56,-170.508C1372.04,-159.779 1171.06,-138.54 1076.06,-128.502"/>
<polygon fill="midnightblue" stroke="midnightblue" points="1473.35,-174.005 1483.66,-171.575 1474.09,-167.043 1473.35,-174.005"/>
</g>
<!-- Node30 -->
<g id="node30" class="node"><title>Node30</title>
<g id="a_node30"><a xlink:href="_graphics_line_8hpp.html" target="_top" xlink:title="GraphicsLine.hpp">
<polygon fill="white" stroke="black" points="1132,-112.5 1132,-131.5 1224,-131.5 1224,-112.5 1132,-112.5"/>
<text text-anchor="middle" x="1178" y="-119.5" font-family="Helvetica,sans-Serif" font-size="10.00">GraphicsLine.hpp</text>
</a>
</g>
</g>
<!-- Node27&#45;&gt;Node30 -->
<g id="edge39" class="edge"><title>Node27&#45;&gt;Node30</title>
<path fill="none" stroke="midnightblue" d="M1473.71,-168.129C1412.66,-159.232 1316.3,-145.021 1233,-132 1230.13,-131.552 1227.18,-131.085 1224.21,-130.61"/>
<polygon fill="midnightblue" stroke="midnightblue" points="1473.54,-171.641 1483.94,-169.618 1474.54,-164.714 1473.54,-171.641"/>
</g>
<!-- Node32 -->
<g id="node32" class="node"><title>Node32</title>
<g id="a_node32"><a xlink:href="_graphics_polygon_8hpp.html" target="_top" xlink:title="GraphicsPolygon.hpp">
<polygon fill="white" stroke="black" points="1480,-112.5 1480,-131.5 1590,-131.5 1590,-112.5 1480,-112.5"/>
<text text-anchor="middle" x="1535" y="-119.5" font-family="Helvetica,sans-Serif" font-size="10.00">GraphicsPolygon.hpp</text>
</a>
</g>
</g>
<!-- Node27&#45;&gt;Node32 -->
<g id="edge44" class="edge"><title>Node27&#45;&gt;Node32</title>
<path fill="none" stroke="midnightblue" d="M1535,-157.805C1535,-148.91 1535,-138.78 1535,-131.751"/>
<polygon fill="midnightblue" stroke="midnightblue" points="1531.5,-158.083 1535,-168.083 1538.5,-158.083 1531.5,-158.083"/>
</g>
<!-- Node33 -->
<g id="node33" class="node"><title>Node33</title>
<g id="a_node33"><a xlink:href="_graphics_triangle_8hpp.html" target="_top" xlink:title="Classe GraphicsTriangle. ">
<polygon fill="white" stroke="black" points="1608.5,-112.5 1608.5,-131.5 1717.5,-131.5 1717.5,-112.5 1608.5,-112.5"/>
<text text-anchor="middle" x="1663" y="-119.5" font-family="Helvetica,sans-Serif" font-size="10.00">GraphicsTriangle.hpp</text>
</a>
</g>
</g>
<!-- Node27&#45;&gt;Node33 -->
<g id="edge46" class="edge"><title>Node27&#45;&gt;Node33</title>
<path fill="none" stroke="midnightblue" d="M1564.62,-164.503C1588.62,-154.38 1621.78,-140.388 1642.81,-131.516"/>
<polygon fill="midnightblue" stroke="midnightblue" points="1563.14,-161.332 1555.28,-168.444 1565.86,-167.781 1563.14,-161.332"/>
</g>
<!-- Node34 -->
<g id="node34" class="node"><title>Node34</title>
<g id="a_node34"><a xlink:href="_graphics_shape_8cpp.html" target="_top" xlink:title="GraphicsShape.cpp">
<polygon fill="white" stroke="black" points="1736,-112.5 1736,-131.5 1838,-131.5 1838,-112.5 1736,-112.5"/>
<text text-anchor="middle" x="1787" y="-119.5" font-family="Helvetica,sans-Serif" font-size="10.00">GraphicsShape.cpp</text>
</a>
</g>
</g>
<!-- Node27&#45;&gt;Node34 -->
<g id="edge48" class="edge"><title>Node27&#45;&gt;Node34</title>
<path fill="none" stroke="midnightblue" d="M1584.72,-166.346C1632.34,-156.141 1703.28,-140.94 1747.26,-131.516"/>
<polygon fill="midnightblue" stroke="midnightblue" points="1583.97,-162.926 1574.93,-168.444 1585.44,-169.77 1583.97,-162.926"/>
</g>
<!-- Node28&#45;&gt;Node14 -->
<g id="edge36" class="edge"><title>Node28&#45;&gt;Node14</title>
<path fill="none" stroke="midnightblue" d="M1852.98,-110.473C1801.57,-100.268 1724.56,-84.9794 1676.9,-75.5164"/>
<polygon fill="midnightblue" stroke="midnightblue" points="1852.41,-113.929 1862.9,-112.444 1853.77,-107.063 1852.41,-113.929"/>
</g>
<!-- Node29&#45;&gt;Node15 -->
<g id="edge38" class="edge"><title>Node29&#45;&gt;Node15</title>
<path fill="none" stroke="midnightblue" d="M1024,-101.805C1024,-92.9102 1024,-82.7798 1024,-75.7511"/>
<polygon fill="midnightblue" stroke="midnightblue" points="1020.5,-102.083 1024,-112.083 1027.5,-102.083 1020.5,-102.083"/>
</g>
<!-- Node30&#45;&gt;Node16 -->
<g id="edge40" class="edge"><title>Node30&#45;&gt;Node16</title>
<path fill="none" stroke="midnightblue" d="M1165.94,-103.855C1159.36,-94.5048 1151.49,-83.3265 1146.16,-75.7511"/>
<polygon fill="midnightblue" stroke="midnightblue" points="1163.11,-105.919 1171.73,-112.083 1168.83,-101.891 1163.11,-105.919"/>
</g>
<!-- Node31 -->
<g id="node31" class="node"><title>Node31</title>
<g id="a_node31"><a xlink:href="_line_edit_8hpp.html" target="_top" xlink:title="LineEdit.hpp">
<polygon fill="white" stroke="black" points="504.5,-56.5 504.5,-75.5 575.5,-75.5 575.5,-56.5 504.5,-56.5"/>
<text text-anchor="middle" x="540" y="-63.5" font-family="Helvetica,sans-Serif" font-size="10.00">LineEdit.hpp</text>
</a>
</g>
</g>
<!-- Node30&#45;&gt;Node31 -->
<g id="edge41" class="edge"><title>Node30&#45;&gt;Node31</title>
<path fill="none" stroke="midnightblue" d="M1121.67,-115.42C1109.58,-114.258 1096.86,-113.064 1085,-112 893.042,-94.7877 662.822,-76.5771 575.724,-69.7745"/>
<polygon fill="midnightblue" stroke="midnightblue" points="1121.36,-118.907 1131.65,-116.385 1122.04,-111.939 1121.36,-118.907"/>
</g>
<!-- Node31&#45;&gt;Node6 -->
<g id="edge42" class="edge"><title>Node31&#45;&gt;Node6</title>
<path fill="none" stroke="midnightblue" d="M546.201,-46.3956C549.213,-37.362 552.688,-26.936 555.083,-19.7511"/>
<polygon fill="midnightblue" stroke="midnightblue" points="542.814,-45.4893 542.972,-56.083 549.455,-47.703 542.814,-45.4893"/>
</g>
<!-- Node31&#45;&gt;Node25 -->
<g id="edge43" class="edge"><title>Node31&#45;&gt;Node25</title>
<path fill="none" stroke="midnightblue" d="M510.84,-52.503C487.219,-42.3795 454.572,-28.388 433.872,-19.5164"/>
<polygon fill="midnightblue" stroke="midnightblue" points="509.465,-55.7213 520.035,-56.4435 512.222,-49.2873 509.465,-55.7213"/>
</g>
<!-- Node32&#45;&gt;Node17 -->
<g id="edge45" class="edge"><title>Node32&#45;&gt;Node17</title>
<path fill="none" stroke="midnightblue" d="M1501.33,-109.039C1472.73,-98.8786 1432.39,-84.5457 1406.97,-75.5164"/>
<polygon fill="midnightblue" stroke="midnightblue" points="1500.32,-112.394 1510.92,-112.444 1502.66,-105.798 1500.32,-112.394"/>
</g>
<!-- Node33&#45;&gt;Node20 -->
<g id="edge47" class="edge"><title>Node33&#45;&gt;Node20</title>
<path fill="none" stroke="midnightblue" d="M1629.33,-109.039C1600.73,-98.8786 1560.39,-84.5457 1534.97,-75.5164"/>
<polygon fill="midnightblue" stroke="midnightblue" points="1628.32,-112.394 1638.92,-112.444 1630.66,-105.798 1628.32,-112.394"/>
</g>
<!-- Node35&#45;&gt;Node18 -->
<g id="edge50" class="edge"><title>Node35&#45;&gt;Node18</title>
<path fill="none" stroke="midnightblue" d="M655.16,-108.503C678.781,-98.3795 711.428,-84.388 732.128,-75.5164"/>
<polygon fill="midnightblue" stroke="midnightblue" points="653.778,-105.287 645.965,-112.444 656.535,-111.721 653.778,-105.287"/>
</g>
<!-- Node35&#45;&gt;Node31 -->
<g id="edge51" class="edge"><title>Node35&#45;&gt;Node31</title>
<path fill="none" stroke="midnightblue" d="M603.545,-106.901C587.776,-96.9986 567.186,-84.0705 553.783,-75.6545"/>
<polygon fill="midnightblue" stroke="midnightblue" points="601.852,-109.97 612.183,-112.324 605.575,-104.042 601.852,-109.97"/>
</g>
<!-- Node36&#45;&gt;Node19 -->
<g id="edge53" class="edge"><title>Node36&#45;&gt;Node19</title>
<path fill="none" stroke="midnightblue" d="M822.624,-165.477C789.561,-154.761 753.395,-136.723 771,-112 788.524,-87.3893 820.472,-76.113 848.311,-71.0023"/>
<polygon fill="midnightblue" stroke="midnightblue" points="821.683,-168.849 832.27,-168.435 823.736,-162.157 821.683,-168.849"/>
</g>
<!-- Node37&#45;&gt;Node31 -->
<g id="edge56" class="edge"><title>Node37&#45;&gt;Node31</title>
<path fill="none" stroke="midnightblue" d="M267.654,-158.511C273.203,-143.585 283.171,-123.276 299,-112 331.501,-88.8489 445.675,-75.4706 504.45,-69.9688"/>
<polygon fill="midnightblue" stroke="midnightblue" points="264.259,-157.627 264.374,-168.221 270.89,-159.867 264.259,-157.627"/>
</g>
<!-- Node38 -->
<g id="node38" class="node"><title>Node38</title>
<g id="a_node38"><a xlink:href="_graphics_text_8cpp.html" target="_top" xlink:title="GraphicsText.cpp">
<polygon fill="white" stroke="black" points="0,-112.5 0,-131.5 94,-131.5 94,-112.5 0,-112.5"/>
<text text-anchor="middle" x="47" y="-119.5" font-family="Helvetica,sans-Serif" font-size="10.00">GraphicsText.cpp</text>
</a>
</g>
</g>
<!-- Node37&#45;&gt;Node38 -->
<g id="edge55" class="edge"><title>Node37&#45;&gt;Node38</title>
<path fill="none" stroke="midnightblue" d="M218.04,-165.959C177.433,-155.76 117.957,-140.822 80.908,-131.516"/>
<polygon fill="midnightblue" stroke="midnightblue" points="217.381,-169.402 227.933,-168.444 219.086,-162.613 217.381,-169.402"/>
</g>
<!-- Node40&#45;&gt;Node31 -->
<g id="edge59" class="edge"><title>Node40&#45;&gt;Node31</title>
<path fill="none" stroke="midnightblue" d="M482.403,-159.922C473.446,-146.461 464.766,-127.449 473,-112 482.293,-94.5648 501.674,-82.6843 517.212,-75.5289"/>
<polygon fill="midnightblue" stroke="midnightblue" points="479.736,-162.206 488.443,-168.243 485.401,-158.094 479.736,-162.206"/>
</g>
<!-- Node41 -->
<g id="node41" class="node"><title>Node41</title>
<g id="a_node41"><a xlink:href="_widget_8cpp.html" target="_top" xlink:title="Widget.cpp">
<polygon fill="white" stroke="black" points="482,-112.5 482,-131.5 548,-131.5 548,-112.5 482,-112.5"/>
<text text-anchor="middle" x="515" y="-119.5" font-family="Helvetica,sans-Serif" font-size="10.00">Widget.cpp</text>
</a>
</g>
</g>
<!-- Node40&#45;&gt;Node41 -->
<g id="edge60" class="edge"><title>Node40&#45;&gt;Node41</title>
<path fill="none" stroke="midnightblue" d="M502.546,-158.396C505.724,-149.362 509.393,-138.936 511.921,-131.751"/>
<polygon fill="midnightblue" stroke="midnightblue" points="499.155,-157.488 499.137,-168.083 505.758,-159.812 499.155,-157.488"/>
</g>
</g>
</svg>
        <g id="navigator" transform="translate(0 0)" fill="#404254">
                <rect fill="#f2f5e9" fill-opacity="0.5" stroke="#606060" stroke-width=".5" x="0" y="0" width="60" height="60"/>
                <use id="zoomplus" xlink:href="#zoomPlus" x="17" y="9" onmousedown="handleZoom(evt,'in')"/>
                <use id="zoomminus" xlink:href="#zoomMin" x="42" y="9" onmousedown="handleZoom(evt,'out')"/>
                <use id="reset" xlink:href="#resetDef" x="30" y="36" onmousedown="handleReset()"/>
                <g id="arrowUp" xlink:href="#dirArrow" transform="translate(30 24)" onmousedown="handlePan(0,-1)">
                  <use xlink:href="#rim" fill="#404040">
                        <set attributeName="fill" to="#808080" begin="arrowUp.mouseover" end="arrowUp.mouseout"/>
                  </use>
                  <path fill="none" stroke="white" stroke-width="1.5" d="M0,-3.0v7 M-2.5,-0.5L0,-3.0L2.5,-0.5"/>
                </g>
                <g id="arrowRight" xlink:href="#dirArrow" transform="rotate(90) translate(36 -43)" onmousedown="handlePan(1,0)">
                  <use xlink:href="#rim" fill="#404040">
                        <set attributeName="fill" to="#808080" begin="arrowRight.mouseover" end="arrowRight.mouseout"/>
                  </use>
                  <path fill="none" stroke="white" stroke-width="1.5" d="M0,-3.0v7 M-2.5,-0.5L0,-3.0L2.5,-0.5"/>
                </g>
                <g id="arrowDown" xlink:href="#dirArrow" transform="rotate(180) translate(-30 -48)" onmousedown="handlePan(0,1)">
                  <use xlink:href="#rim" fill="#404040">
                        <set attributeName="fill" to="#808080" begin="arrowDown.mouseover" end="arrowDown.mouseout"/>
                  </use>
                  <path fill="none" stroke="white" stroke-width="1.5" d="M0,-3.0v7 M-2.5,-0.5L0,-3.0L2.5,-0.5"/>
                </g>
                <g id="arrowLeft" xlink:href="#dirArrow" transform="rotate(270) translate(-36 17)" onmousedown="handlePan(-1,0)">
                  <use xlink:href="#rim" fill="#404040">
                        <set attributeName="fill" to="#808080" begin="arrowLeft.mouseover" end="arrowLeft.mouseout"/>
                  </use>
                  <path fill="none" stroke="white" stroke-width="1.5" d="M0,-3.0v7 M-2.5,-0.5L0,-3.0L2.5,-0.5"/>
                </g>
        </g>
        <svg viewBox="0 0 15 15" width="100%" height="30px" preserveAspectRatio="xMaxYMin meet">
         <g id="arrow_out" transform="scale(0.3 0.3)">
          <a xlink:href="_font_8hpp__dep__incl_org.svg" target="_base">
           <rect id="button" ry="5" rx="5" y="6" x="6" height="38" width="38"
                fill="#f2f5e9" fill-opacity="0.5" stroke="#606060" stroke-width="1.0"/>
           <path id="arrow"
             d="M 11.500037,31.436501 C 11.940474,20.09759 22.043105,11.32322 32.158766,21.979434 L 37.068811,17.246167 C 37.068811,17.246167 37.088388,32 37.088388,32 L 22.160133,31.978069 C 22.160133,31.978069 26.997745,27.140456 26.997745,27.140456 C 18.528582,18.264221 13.291696,25.230495 11.500037,31.436501 z"
             style="fill:#404040;"/>
          </a>
         </g>
        </svg>
</svg>
