<?xml version="1.0" encoding="UTF-8" standalone="no"?>
<!DOCTYPE svg PUBLIC "-//W3C//DTD SVG 1.1//EN"
 "http://www.w3.org/Graphics/SVG/1.1/DTD/svg11.dtd">
<!-- Generated by graphviz version 2.36.0 (20140111.2315)
 -->
<!-- Title: GraphicsPoint.hpp Pages: 1 -->
<svg width="979pt" height="140pt"
 viewBox="0.00 0.00 979.00 140.00" xmlns="http://www.w3.org/2000/svg" xmlns:xlink="http://www.w3.org/1999/xlink">
<g id="graph0" class="graph" transform="scale(1 1) rotate(0) translate(4 136)">
<title>GraphicsPoint.hpp</title>
<polygon fill="white" stroke="none" points="-4,4 -4,-136 975,-136 975,4 -4,4"/>
<!-- Node1 -->
<g id="node1" class="node"><title>Node1</title>
<polygon fill="#bfbfbf" stroke="black" points="480.5,-112.5 480.5,-131.5 577.5,-131.5 577.5,-112.5 480.5,-112.5"/>
<text text-anchor="middle" x="529" y="-119.5" font-family="Helvetica,sans-Serif" font-size="10.00">GraphicsPoint.hpp</text>
</g>
<!-- Node2 -->
<g id="node2" class="node"><title>Node2</title>
<g id="a_node2"><a xlink:href="_graphics_anchor_8hpp.html" target="_top" xlink:title="GraphicsAnchor.hpp">
<polygon fill="white" stroke="black" points="395.5,-56.5 395.5,-75.5 500.5,-75.5 500.5,-56.5 395.5,-56.5"/>
<text text-anchor="middle" x="448" y="-63.5" font-family="Helvetica,sans-Serif" font-size="10.00">GraphicsAnchor.hpp</text>
</a>
</g>
</g>
<!-- Node1&#45;&gt;Node2 -->
<g id="edge1" class="edge"><title>Node1&#45;&gt;Node2</title>
<path fill="none" stroke="midnightblue" d="M507.433,-106.622C492.636,-96.7574 473.488,-83.9919 460.982,-75.6545"/>
<polygon fill="midnightblue" stroke="midnightblue" points="505.724,-109.689 515.986,-112.324 509.607,-103.865 505.724,-109.689"/>
</g>
<!-- Node4 -->
<g id="node4" class="node"><title>Node4</title>
<g id="a_node4"><a xlink:href="_graphics_circle_8cpp.html" target="_top" xlink:title="GraphicsCircle.cpp">
<polygon fill="white" stroke="black" points="0,-0.5 0,-19.5 100,-19.5 100,-0.5 0,-0.5"/>
<text text-anchor="middle" x="50" y="-7.5" font-family="Helvetica,sans-Serif" font-size="10.00">GraphicsCircle.cpp</text>
</a>
</g>
</g>
<!-- Node1&#45;&gt;Node4 -->
<g id="edge10" class="edge"><title>Node1&#45;&gt;Node4</title>
<path fill="none" stroke="midnightblue" d="M470.22,-111.643C420.613,-103.392 347.837,-90.4555 285,-76 209.507,-58.6331 121.86,-32.8803 78.0125,-19.6054"/>
<polygon fill="midnightblue" stroke="midnightblue" points="469.696,-115.103 480.133,-113.28 470.837,-108.197 469.696,-115.103"/>
</g>
<!-- Node5 -->
<g id="node5" class="node"><title>Node5</title>
<g id="a_node5"><a xlink:href="_graphics_ellipse_8cpp.html" target="_top" xlink:title="GraphicsEllipse.cpp">
<polygon fill="white" stroke="black" points="118,-0.5 118,-19.5 222,-19.5 222,-0.5 118,-0.5"/>
<text text-anchor="middle" x="170" y="-7.5" font-family="Helvetica,sans-Serif" font-size="10.00">GraphicsEllipse.cpp</text>
</a>
</g>
</g>
<!-- Node1&#45;&gt;Node5 -->
<g id="edge11" class="edge"><title>Node1&#45;&gt;Node5</title>
<path fill="none" stroke="midnightblue" d="M479.551,-110.203C442.947,-101.85 392.011,-89.4647 348,-76 290.429,-58.3866 224.208,-32.7398 191.123,-19.5453"/>
<polygon fill="midnightblue" stroke="midnightblue" points="478.952,-113.656 489.478,-112.45 480.497,-106.829 478.952,-113.656"/>
</g>
<!-- Node6 -->
<g id="node6" class="node"><title>Node6</title>
<g id="a_node6"><a xlink:href="_graphics_line_8cpp.html" target="_top" xlink:title="GraphicsLine.cpp">
<polygon fill="white" stroke="black" points="240,-0.5 240,-19.5 332,-19.5 332,-0.5 240,-0.5"/>
<text text-anchor="middle" x="286" y="-7.5" font-family="Helvetica,sans-Serif" font-size="10.00">GraphicsLine.cpp</text>
</a>
</g>
</g>
<!-- Node1&#45;&gt;Node6 -->
<g id="edge12" class="edge"><title>Node1&#45;&gt;Node6</title>
<path fill="none" stroke="midnightblue" d="M482.685,-109.858C454.09,-102.149 417.06,-90.6463 386,-76 351.539,-59.7503 314.956,-33.2804 297.103,-19.6765"/>
<polygon fill="midnightblue" stroke="midnightblue" points="481.862,-113.26 492.424,-112.425 483.647,-106.492 481.862,-113.26"/>
</g>
<!-- Node7 -->
<g id="node7" class="node"><title>Node7</title>
<g id="a_node7"><a xlink:href="_graphics_polygon_8cpp.html" target="_top" xlink:title="GraphicsPolygon.cpp">
<polygon fill="white" stroke="black" points="474,-0.5 474,-19.5 584,-19.5 584,-0.5 474,-0.5"/>
<text text-anchor="middle" x="529" y="-7.5" font-family="Helvetica,sans-Serif" font-size="10.00">GraphicsPolygon.cpp</text>
</a>
</g>
</g>
<!-- Node1&#45;&gt;Node7 -->
<g id="edge14" class="edge"><title>Node1&#45;&gt;Node7</title>
<path fill="none" stroke="midnightblue" d="M529,-102.348C529,-78.2538 529,-37.3079 529,-19.5914"/>
<polygon fill="midnightblue" stroke="midnightblue" points="525.5,-102.368 529,-112.368 532.5,-102.369 525.5,-102.368"/>
</g>
<!-- Node8 -->
<g id="node8" class="node"><title>Node8</title>
<g id="a_node8"><a xlink:href="_graphics_rectangle_8cpp.html" target="_top" xlink:title="GraphicsRectangle.cpp">
<polygon fill="white" stroke="black" points="602.5,-0.5 602.5,-19.5 721.5,-19.5 721.5,-0.5 602.5,-0.5"/>
<text text-anchor="middle" x="662" y="-7.5" font-family="Helvetica,sans-Serif" font-size="10.00">GraphicsRectangle.cpp</text>
</a>
</g>
</g>
<!-- Node1&#45;&gt;Node8 -->
<g id="edge15" class="edge"><title>Node1&#45;&gt;Node8</title>
<path fill="none" stroke="midnightblue" d="M542.612,-104.625C554.562,-90.791 572.827,-70.9064 591,-56 608.602,-41.562 631.117,-28.0101 646.02,-19.6257"/>
<polygon fill="midnightblue" stroke="midnightblue" points="539.851,-102.47 536.046,-112.358 545.186,-107.001 539.851,-102.47"/>
</g>
<!-- Node9 -->
<g id="node9" class="node"><title>Node9</title>
<g id="a_node9"><a xlink:href="_graphics_square_8cpp.html" target="_top" xlink:title="GraphicsSquare.cpp">
<polygon fill="white" stroke="black" points="739.5,-0.5 739.5,-19.5 844.5,-19.5 844.5,-0.5 739.5,-0.5"/>
<text text-anchor="middle" x="792" y="-7.5" font-family="Helvetica,sans-Serif" font-size="10.00">GraphicsSquare.cpp</text>
</a>
</g>
</g>
<!-- Node1&#45;&gt;Node9 -->
<g id="edge16" class="edge"><title>Node1&#45;&gt;Node9</title>
<path fill="none" stroke="midnightblue" d="M547.739,-106.287C567.109,-91.7057 598.707,-69.6324 629,-56 667.149,-38.8322 713.333,-26.8338 746.786,-19.5692"/>
<polygon fill="midnightblue" stroke="midnightblue" points="545.563,-103.545 539.748,-112.402 549.817,-109.104 545.563,-103.545"/>
</g>
<!-- Node10 -->
<g id="node10" class="node"><title>Node10</title>
<g id="a_node10"><a xlink:href="_graphics_triangle_8cpp.html" target="_top" xlink:title="GraphicsTriangle.cpp">
<polygon fill="white" stroke="black" points="862.5,-0.5 862.5,-19.5 971.5,-19.5 971.5,-0.5 862.5,-0.5"/>
<text text-anchor="middle" x="917" y="-7.5" font-family="Helvetica,sans-Serif" font-size="10.00">GraphicsTriangle.cpp</text>
</a>
</g>
</g>
<!-- Node1&#45;&gt;Node10 -->
<g id="edge17" class="edge"><title>Node1&#45;&gt;Node10</title>
<path fill="none" stroke="midnightblue" d="M557.71,-108.238C577.133,-99.4676 603.288,-87.3934 626,-76 642.709,-67.6183 645.349,-62.1536 663,-56 681.607,-49.5133 794.684,-30.6763 863.54,-19.5366"/>
<polygon fill="midnightblue" stroke="midnightblue" points="556.178,-105.089 548.491,-112.38 559.047,-111.474 556.178,-105.089"/>
</g>
<!-- Node11 -->
<g id="node11" class="node"><title>Node11</title>
<g id="a_node11"><a xlink:href="_graphics_point_8cpp.html" target="_top" xlink:title="GraphicsPoint.cpp">
<polygon fill="white" stroke="black" points="671.5,-56.5 671.5,-75.5 768.5,-75.5 768.5,-56.5 671.5,-56.5"/>
<text text-anchor="middle" x="720" y="-63.5" font-family="Helvetica,sans-Serif" font-size="10.00">GraphicsPoint.cpp</text>
</a>
</g>
</g>
<!-- Node1&#45;&gt;Node11 -->
<g id="edge13" class="edge"><title>Node1&#45;&gt;Node11</title>
<path fill="none" stroke="midnightblue" d="M568.973,-109.699C605.021,-99.507 657.243,-84.7429 689.877,-75.5164"/>
<polygon fill="midnightblue" stroke="midnightblue" points="567.935,-106.355 559.265,-112.444 569.84,-113.091 567.935,-106.355"/>
</g>
<!-- Node3 -->
<g id="node3" class="node"><title>Node3</title>
<g id="a_node3"><a xlink:href="_graphics_anchor_8cpp.html" target="_top" xlink:title="GraphicsAnchor.cpp">
<polygon fill="white" stroke="black" points="350.5,-0.5 350.5,-19.5 455.5,-19.5 455.5,-0.5 350.5,-0.5"/>
<text text-anchor="middle" x="403" y="-7.5" font-family="Helvetica,sans-Serif" font-size="10.00">GraphicsAnchor.cpp</text>
</a>
</g>
</g>
<!-- Node2&#45;&gt;Node3 -->
<g id="edge2" class="edge"><title>Node2&#45;&gt;Node3</title>
<path fill="none" stroke="midnightblue" d="M433.953,-48.144C426.113,-38.7357 416.671,-27.4046 410.293,-19.7511"/>
<polygon fill="midnightblue" stroke="midnightblue" points="431.479,-50.6414 440.569,-56.083 436.856,-46.1601 431.479,-50.6414"/>
</g>
<!-- Node2&#45;&gt;Node4 -->
<g id="edge3" class="edge"><title>Node2&#45;&gt;Node4</title>
<path fill="none" stroke="midnightblue" d="M385.269,-57.0431C317.188,-48.321 205.298,-33.7348 109,-20 106.128,-19.5903 103.178,-19.1626 100.202,-18.7257"/>
<polygon fill="midnightblue" stroke="midnightblue" points="385.037,-60.5417 395.4,-58.339 385.925,-53.5983 385.037,-60.5417"/>
</g>
<!-- Node2&#45;&gt;Node5 -->
<g id="edge4" class="edge"><title>Node2&#45;&gt;Node5</title>
<path fill="none" stroke="midnightblue" d="M393.808,-54.4734C341.268,-44.2678 262.561,-28.9794 213.844,-19.5164"/>
<polygon fill="midnightblue" stroke="midnightblue" points="393.466,-57.9724 403.95,-56.4435 394.801,-51.1009 393.466,-57.9724"/>
</g>
<!-- Node2&#45;&gt;Node6 -->
<g id="edge5" class="edge"><title>Node2&#45;&gt;Node6</title>
<path fill="none" stroke="midnightblue" d="M412.516,-53.172C382.012,-43.0039 338.755,-28.5852 311.549,-19.5164"/>
<polygon fill="midnightblue" stroke="midnightblue" points="411.737,-56.6016 422.331,-56.4435 413.951,-49.9608 411.737,-56.6016"/>
</g>
<!-- Node2&#45;&gt;Node7 -->
<g id="edge6" class="edge"><title>Node2&#45;&gt;Node7</title>
<path fill="none" stroke="midnightblue" d="M469.567,-50.6221C484.364,-40.7574 503.512,-27.9919 516.018,-19.6545"/>
<polygon fill="midnightblue" stroke="midnightblue" points="467.393,-47.8647 461.014,-56.324 471.276,-53.6891 467.393,-47.8647"/>
</g>
<!-- Node2&#45;&gt;Node8 -->
<g id="edge7" class="edge"><title>Node2&#45;&gt;Node8</title>
<path fill="none" stroke="midnightblue" d="M491.755,-53.959C532.174,-43.7598 591.373,-28.8217 628.25,-19.5164"/>
<polygon fill="midnightblue" stroke="midnightblue" points="490.749,-50.6032 481.909,-56.4435 492.461,-57.3904 490.749,-50.6032"/>
</g>
<!-- Node2&#45;&gt;Node9 -->
<g id="edge8" class="edge"><title>Node2&#45;&gt;Node9</title>
<path fill="none" stroke="midnightblue" d="M510.817,-55.1392C576.349,-44.8521 677.931,-28.9062 739.385,-19.2593"/>
<polygon fill="midnightblue" stroke="midnightblue" points="509.957,-51.7313 500.621,-56.7398 511.042,-58.6466 509.957,-51.7313"/>
</g>
<!-- Node2&#45;&gt;Node10 -->
<g id="edge9" class="edge"><title>Node2&#45;&gt;Node10</title>
<path fill="none" stroke="midnightblue" d="M511.167,-58.5556C590.904,-50.2886 732.252,-35.1951 853,-20 856.006,-19.6217 859.089,-19.2232 862.201,-18.8128"/>
<polygon fill="midnightblue" stroke="midnightblue" points="510.393,-55.1169 500.806,-59.6273 511.113,-62.0797 510.393,-55.1169"/>
</g>
</g>
</svg>
