<?xml version="1.0" encoding="UTF-8" standalone="no"?>
<!DOCTYPE svg PUBLIC "-//W3C//DTD SVG 1.1//EN"
 "http://www.w3.org/Graphics/SVG/1.1/DTD/svg11.dtd">
<!-- Generated by graphviz version 2.36.0 (20140111.2315)
 -->
<!-- Title: GraphicsText.hpp Pages: 1 -->
<svg width="485pt" height="308pt"
 viewBox="0.00 0.00 485.44 308.00" xmlns="http://www.w3.org/2000/svg" xmlns:xlink="http://www.w3.org/1999/xlink">
<g id="graph0" class="graph" transform="scale(1 1) rotate(0) translate(4 304)">
<title>GraphicsText.hpp</title>
<polygon fill="white" stroke="none" points="-4,4 -4,-304 481.439,-304 481.439,4 -4,4"/>
<!-- Node1 -->
<g id="node1" class="node"><title>Node1</title>
<polygon fill="#bfbfbf" stroke="black" points="245.439,-280.5 245.439,-299.5 339.439,-299.5 339.439,-280.5 245.439,-280.5"/>
<text text-anchor="middle" x="292.439" y="-287.5" font-family="Helvetica,sans-Serif" font-size="10.00">GraphicsText.hpp</text>
</g>
<!-- Node2 -->
<g id="node2" class="node"><title>Node2</title>
<g id="a_node2"><a xlink:href="_graphics_item_8hpp.html" target="_top" xlink:title="Classe GraphicsItem. ">
<polygon fill="white" stroke="black" points="119.439,-224.5 119.439,-243.5 213.439,-243.5 213.439,-224.5 119.439,-224.5"/>
<text text-anchor="middle" x="166.439" y="-231.5" font-family="Helvetica,sans-Serif" font-size="10.00">GraphicsItem.hpp</text>
</a>
</g>
</g>
<!-- Node1&#45;&gt;Node2 -->
<g id="edge1" class="edge"><title>Node1&#45;&gt;Node2</title>
<path fill="none" stroke="midnightblue" d="M272.474,-280.444C251.83,-271.596 219.377,-257.687 195.808,-247.586"/>
<polygon fill="midnightblue" stroke="midnightblue" points="196.881,-244.239 186.311,-243.516 194.123,-250.673 196.881,-244.239"/>
</g>
<!-- Node15 -->
<g id="node15" class="node"><title>Node15</title>
<g id="a_node15"><a xlink:href="_font_8hpp_source.html" target="_top" xlink:title="Font.hpp">
<polygon fill="white" stroke="black" points="407.939,-112.5 407.939,-131.5 462.939,-131.5 462.939,-112.5 407.939,-112.5"/>
<text text-anchor="middle" x="435.439" y="-119.5" font-family="Helvetica,sans-Serif" font-size="10.00">Font.hpp</text>
</a>
</g>
</g>
<!-- Node1&#45;&gt;Node15 -->
<g id="edge23" class="edge"><title>Node1&#45;&gt;Node15</title>
<path fill="none" stroke="midnightblue" d="M300.144,-280.427C315.68,-263.104 351.81,-222.627 381.439,-188 395.366,-171.723 410.974,-152.868 421.814,-139.671"/>
<polygon fill="midnightblue" stroke="midnightblue" points="424.551,-141.852 428.183,-131.9 419.137,-137.415 424.551,-141.852"/>
</g>
<!-- Node3 -->
<g id="node3" class="node"><title>Node3</title>
<polygon fill="white" stroke="#bfbfbf" points="16.4391,-56.5 16.4391,-75.5 60.4391,-75.5 60.4391,-56.5 16.4391,-56.5"/>
<text text-anchor="middle" x="38.4391" y="-63.5" font-family="Helvetica,sans-Serif" font-size="10.00">vector</text>
</g>
<!-- Node2&#45;&gt;Node3 -->
<g id="edge2" class="edge"><title>Node2&#45;&gt;Node3</title>
<path fill="none" stroke="midnightblue" d="M119.281,-225.737C78.3418,-218.354 23.6145,-205.513 10.4391,-188 -13.0092,-156.832 10.6599,-109.297 26.5672,-84.0865"/>
<polygon fill="midnightblue" stroke="midnightblue" points="29.5821,-85.8723 32.1694,-75.5983 23.7398,-82.0165 29.5821,-85.8723"/>
</g>
<!-- Node4 -->
<g id="node4" class="node"><title>Node4</title>
<polygon fill="white" stroke="#bfbfbf" points="19.4391,-168.5 19.4391,-187.5 49.4391,-187.5 49.4391,-168.5 19.4391,-168.5"/>
<text text-anchor="middle" x="34.4391" y="-175.5" font-family="Helvetica,sans-Serif" font-size="10.00">set</text>
</g>
<!-- Node2&#45;&gt;Node4 -->
<g id="edge3" class="edge"><title>Node2&#45;&gt;Node4</title>
<path fill="none" stroke="midnightblue" d="M145.523,-224.444C122.011,-214.825 83.875,-199.224 58.9745,-189.037"/>
<polygon fill="midnightblue" stroke="midnightblue" points="60.0896,-185.712 49.5088,-185.165 57.4391,-192.191 60.0896,-185.712"/>
</g>
<!-- Node5 -->
<g id="node5" class="node"><title>Node5</title>
<polygon fill="white" stroke="#bfbfbf" points="173.439,-56.5 173.439,-75.5 225.439,-75.5 225.439,-56.5 173.439,-56.5"/>
<text text-anchor="middle" x="199.439" y="-63.5" font-family="Helvetica,sans-Serif" font-size="10.00">memory</text>
</g>
<!-- Node2&#45;&gt;Node5 -->
<g id="edge4" class="edge"><title>Node2&#45;&gt;Node5</title>
<path fill="none" stroke="midnightblue" d="M150.506,-224.4C116.38,-204.862 41.7379,-155.45 72.4391,-112 92.8458,-83.1194 133.439,-72.6559 163.261,-68.9291"/>
<polygon fill="midnightblue" stroke="midnightblue" points="163.73,-72.3992 173.31,-67.8728 162.998,-65.4376 163.73,-72.3992"/>
</g>
<!-- Node6 -->
<g id="node6" class="node"><title>Node6</title>
<g id="a_node6"><a xlink:href="_color_8hpp.html" target="_top" xlink:title="Classe Color. ">
<polygon fill="white" stroke="black" points="136.939,-168.5 136.939,-187.5 195.939,-187.5 195.939,-168.5 136.939,-168.5"/>
<text text-anchor="middle" x="166.439" y="-175.5" font-family="Helvetica,sans-Serif" font-size="10.00">Color.hpp</text>
</a>
</g>
</g>
<!-- Node2&#45;&gt;Node6 -->
<g id="edge5" class="edge"><title>Node2&#45;&gt;Node6</title>
<path fill="none" stroke="midnightblue" d="M166.439,-224.083C166.439,-217.006 166.439,-206.861 166.439,-197.986"/>
<polygon fill="midnightblue" stroke="midnightblue" points="169.939,-197.751 166.439,-187.751 162.939,-197.751 169.939,-197.751"/>
</g>
<!-- Node10 -->
<g id="node10" class="node"><title>Node10</title>
<g id="a_node10"><a xlink:href="_canvas_8hpp_source.html" target="_top" xlink:title="Canvas.hpp">
<polygon fill="white" stroke="black" points="224.939,-168.5 224.939,-187.5 293.939,-187.5 293.939,-168.5 224.939,-168.5"/>
<text text-anchor="middle" x="259.439" y="-175.5" font-family="Helvetica,sans-Serif" font-size="10.00">Canvas.hpp</text>
</a>
</g>
</g>
<!-- Node2&#45;&gt;Node10 -->
<g id="edge9" class="edge"><title>Node2&#45;&gt;Node10</title>
<path fill="none" stroke="midnightblue" d="M181.381,-224.324C196.024,-215.822 218.573,-202.729 235.677,-192.797"/>
<polygon fill="midnightblue" stroke="midnightblue" points="237.644,-195.703 244.534,-187.655 234.129,-189.649 237.644,-195.703"/>
</g>
<!-- Node16 -->
<g id="node16" class="node"><title>Node16</title>
<g id="a_node16"><a xlink:href="_event_8hpp.html" target="_top" xlink:title="Classe Event. ">
<polygon fill="white" stroke="black" points="311.939,-168.5 311.939,-187.5 372.939,-187.5 372.939,-168.5 311.939,-168.5"/>
<text text-anchor="middle" x="342.439" y="-175.5" font-family="Helvetica,sans-Serif" font-size="10.00">Event.hpp</text>
</a>
</g>
</g>
<!-- Node2&#45;&gt;Node16 -->
<g id="edge20" class="edge"><title>Node2&#45;&gt;Node16</title>
<path fill="none" stroke="midnightblue" d="M194.327,-224.444C224.193,-215.28 271.754,-200.688 304.895,-190.519"/>
<polygon fill="midnightblue" stroke="midnightblue" points="306.148,-193.796 314.682,-187.516 304.095,-187.104 306.148,-193.796"/>
</g>
<!-- Node7 -->
<g id="node7" class="node"><title>Node7</title>
<polygon fill="white" stroke="#bfbfbf" points="81.4391,-112.5 81.4391,-131.5 127.439,-131.5 127.439,-112.5 81.4391,-112.5"/>
<text text-anchor="middle" x="104.439" y="-119.5" font-family="Helvetica,sans-Serif" font-size="10.00">cstdint</text>
</g>
<!-- Node6&#45;&gt;Node7 -->
<g id="edge6" class="edge"><title>Node6&#45;&gt;Node7</title>
<path fill="none" stroke="midnightblue" d="M156.478,-168.324C147.313,-160.341 133.502,-148.313 122.411,-138.653"/>
<polygon fill="midnightblue" stroke="midnightblue" points="124.421,-135.762 114.582,-131.834 119.824,-141.041 124.421,-135.762"/>
</g>
<!-- Node8 -->
<g id="node8" class="node"><title>Node8</title>
<polygon fill="white" stroke="#bfbfbf" points="145.939,-112.5 145.939,-131.5 186.939,-131.5 186.939,-112.5 145.939,-112.5"/>
<text text-anchor="middle" x="166.439" y="-119.5" font-family="Helvetica,sans-Serif" font-size="10.00">string</text>
</g>
<!-- Node6&#45;&gt;Node8 -->
<g id="edge7" class="edge"><title>Node6&#45;&gt;Node8</title>
<path fill="none" stroke="midnightblue" d="M166.439,-168.083C166.439,-161.006 166.439,-150.861 166.439,-141.986"/>
<polygon fill="midnightblue" stroke="midnightblue" points="169.939,-141.751 166.439,-131.751 162.939,-141.751 169.939,-141.751"/>
</g>
<!-- Node9 -->
<g id="node9" class="node"><title>Node9</title>
<polygon fill="white" stroke="#bfbfbf" points="205.439,-112.5 205.439,-131.5 313.439,-131.5 313.439,-112.5 205.439,-112.5"/>
<text text-anchor="middle" x="259.439" y="-119.5" font-family="Helvetica,sans-Serif" font-size="10.00">ez&#45;lib/ez&#45;draw++.hpp</text>
</g>
<!-- Node6&#45;&gt;Node9 -->
<g id="edge8" class="edge"><title>Node6&#45;&gt;Node9</title>
<path fill="none" stroke="midnightblue" d="M181.381,-168.324C196.024,-159.822 218.573,-146.729 235.677,-136.797"/>
<polygon fill="midnightblue" stroke="midnightblue" points="237.644,-139.703 244.534,-131.655 234.129,-133.649 237.644,-139.703"/>
</g>
<!-- Node10&#45;&gt;Node9 -->
<g id="edge10" class="edge"><title>Node10&#45;&gt;Node9</title>
<path fill="none" stroke="midnightblue" d="M259.439,-168.083C259.439,-161.006 259.439,-150.861 259.439,-141.986"/>
<polygon fill="midnightblue" stroke="midnightblue" points="262.939,-141.751 259.439,-131.751 255.939,-141.751 262.939,-141.751"/>
</g>
<!-- Node11 -->
<g id="node11" class="node"><title>Node11</title>
<g id="a_node11"><a xlink:href="_point_8hpp.html" target="_top" xlink:title="Classe point. ">
<polygon fill="white" stroke="black" points="331.439,-112.5 331.439,-131.5 389.439,-131.5 389.439,-112.5 331.439,-112.5"/>
<text text-anchor="middle" x="360.439" y="-119.5" font-family="Helvetica,sans-Serif" font-size="10.00">Point.hpp</text>
</a>
</g>
</g>
<!-- Node10&#45;&gt;Node11 -->
<g id="edge11" class="edge"><title>Node10&#45;&gt;Node11</title>
<path fill="none" stroke="midnightblue" d="M275.667,-168.324C291.79,-159.703 316.739,-146.364 335.403,-136.386"/>
<polygon fill="midnightblue" stroke="midnightblue" points="337.084,-139.456 344.252,-131.655 333.783,-133.283 337.084,-139.456"/>
</g>
<!-- Node10&#45;&gt;Node15 -->
<g id="edge18" class="edge"><title>Node10&#45;&gt;Node15</title>
<path fill="none" stroke="midnightblue" d="M287.327,-168.444C317.193,-159.28 364.754,-144.688 397.895,-134.519"/>
<polygon fill="midnightblue" stroke="midnightblue" points="399.148,-137.796 407.682,-131.516 397.095,-131.104 399.148,-137.796"/>
</g>
<!-- Node11&#45;&gt;Node3 -->
<g id="edge13" class="edge"><title>Node11&#45;&gt;Node3</title>
<path fill="none" stroke="midnightblue" d="M331.028,-113.803C328.132,-113.164 325.233,-112.551 322.439,-112 231.717,-94.0955 123.589,-78.5409 70.7451,-71.3099"/>
<polygon fill="midnightblue" stroke="midnightblue" points="71.0144,-67.8144 60.6342,-69.9359 70.0718,-74.7507 71.0144,-67.8144"/>
</g>
<!-- Node11&#45;&gt;Node5 -->
<g id="edge14" class="edge"><title>Node11&#45;&gt;Node5</title>
<path fill="none" stroke="midnightblue" d="M334.928,-112.444C307.843,-103.359 264.849,-88.9388 234.57,-78.7831"/>
<polygon fill="midnightblue" stroke="midnightblue" points="235.425,-75.3781 224.831,-75.5164 233.199,-82.0148 235.425,-75.3781"/>
</g>
<!-- Node12 -->
<g id="node12" class="node"><title>Node12</title>
<polygon fill="white" stroke="#bfbfbf" points="423.439,-56.5 423.439,-75.5 477.439,-75.5 477.439,-56.5 423.439,-56.5"/>
<text text-anchor="middle" x="450.439" y="-63.5" font-family="Helvetica,sans-Serif" font-size="10.00">iostream</text>
</g>
<!-- Node11&#45;&gt;Node12 -->
<g id="edge12" class="edge"><title>Node11&#45;&gt;Node12</title>
<path fill="none" stroke="midnightblue" d="M374.899,-112.324C388.939,-103.9 410.488,-90.9709 426.982,-81.0741"/>
<polygon fill="midnightblue" stroke="midnightblue" points="429.241,-83.8007 436.015,-75.6545 425.639,-77.7983 429.241,-83.8007"/>
</g>
<!-- Node13 -->
<g id="node13" class="node"><title>Node13</title>
<g id="a_node13"><a xlink:href="_group_points_8hpp_source.html" target="_top" xlink:title="GroupPoints.hpp">
<polygon fill="white" stroke="black" points="315.939,-56.5 315.939,-75.5 404.939,-75.5 404.939,-56.5 315.939,-56.5"/>
<text text-anchor="middle" x="360.439" y="-63.5" font-family="Helvetica,sans-Serif" font-size="10.00">GroupPoints.hpp</text>
</a>
</g>
</g>
<!-- Node11&#45;&gt;Node13 -->
<g id="edge15" class="edge"><title>Node11&#45;&gt;Node13</title>
<path fill="none" stroke="midnightblue" d="M355.273,-112.083C353.763,-104.927 353.333,-94.6353 353.982,-85.6911"/>
<polygon fill="midnightblue" stroke="midnightblue" points="357.454,-86.1262 355.308,-75.7511 350.516,-85.2002 357.454,-86.1262"/>
</g>
<!-- Node13&#45;&gt;Node11 -->
<g id="edge17" class="edge"><title>Node13&#45;&gt;Node11</title>
<path fill="none" stroke="midnightblue" d="M365.57,-75.7511C367.096,-82.8579 367.543,-93.1357 366.912,-102.101"/>
<polygon fill="midnightblue" stroke="midnightblue" points="363.432,-101.713 365.605,-112.083 370.373,-102.622 363.432,-101.713"/>
</g>
<!-- Node14 -->
<g id="node14" class="node"><title>Node14</title>
<polygon fill="white" stroke="#bfbfbf" points="330.939,-0.5 330.939,-19.5 389.939,-19.5 389.939,-0.5 330.939,-0.5"/>
<text text-anchor="middle" x="360.439" y="-7.5" font-family="Helvetica,sans-Serif" font-size="10.00">functional</text>
</g>
<!-- Node13&#45;&gt;Node14 -->
<g id="edge16" class="edge"><title>Node13&#45;&gt;Node14</title>
<path fill="none" stroke="midnightblue" d="M360.439,-56.083C360.439,-49.0059 360.439,-38.8611 360.439,-29.9865"/>
<polygon fill="midnightblue" stroke="midnightblue" points="363.939,-29.751 360.439,-19.7511 356.939,-29.7511 363.939,-29.751"/>
</g>
<!-- Node15&#45;&gt;Node12 -->
<g id="edge19" class="edge"><title>Node15&#45;&gt;Node12</title>
<path fill="none" stroke="midnightblue" d="M437.916,-112.083C439.926,-104.849 442.826,-94.4087 445.329,-85.3968"/>
<polygon fill="midnightblue" stroke="midnightblue" points="448.704,-86.323 448.008,-75.7511 441.959,-84.4495 448.704,-86.323"/>
</g>
<!-- Node16&#45;&gt;Node9 -->
<g id="edge22" class="edge"><title>Node16&#45;&gt;Node9</title>
<path fill="none" stroke="midnightblue" d="M329.104,-168.324C316.277,-159.979 296.654,-147.212 281.499,-137.352"/>
<polygon fill="midnightblue" stroke="midnightblue" points="283.032,-134.174 272.741,-131.655 279.215,-140.042 283.032,-134.174"/>
</g>
<!-- Node16&#45;&gt;Node12 -->
<g id="edge21" class="edge"><title>Node16&#45;&gt;Node12</title>
<path fill="none" stroke="midnightblue" d="M373.128,-175.898C403.723,-172.966 449.257,-163.231 471.439,-132 481.692,-117.565 472.843,-97.8597 463.686,-83.9405"/>
<polygon fill="midnightblue" stroke="midnightblue" points="466.487,-81.8395 457.822,-75.7427 460.793,-85.9123 466.487,-81.8395"/>
</g>
</g>
</svg>
