<?xml version="1.0" encoding="UTF-8" standalone="no"?>
<!DOCTYPE svg PUBLIC "-//W3C//DTD SVG 1.1//EN"
 "http://www.w3.org/Graphics/SVG/1.1/DTD/svg11.dtd">
<!-- Generated by graphviz version 2.36.0 (20140111.2315)
 -->
<!-- Title: GraphicsShape.hpp Pages: 1 -->
<svg width="794pt" height="196pt"
 viewBox="0.00 0.00 794.00 196.00" xmlns="http://www.w3.org/2000/svg" xmlns:xlink="http://www.w3.org/1999/xlink">
<g id="graph0" class="graph" transform="scale(1 1) rotate(0) translate(4 192)">
<title>GraphicsShape.hpp</title>
<polygon fill="white" stroke="none" points="-4,4 -4,-192 790,-192 790,4 -4,4"/>
<!-- Node1 -->
<g id="node1" class="node"><title>Node1</title>
<polygon fill="#bfbfbf" stroke="black" points="372,-168.5 372,-187.5 474,-187.5 474,-168.5 372,-168.5"/>
<text text-anchor="middle" x="423" y="-175.5" font-family="Helvetica,sans-Serif" font-size="10.00">GraphicsShape.hpp</text>
</g>
<!-- Node2 -->
<g id="node2" class="node"><title>Node2</title>
<g id="a_node2"><a xlink:href="_graphics_circle_8hpp_source.html" target="_top" xlink:title="GraphicsCircle.hpp">
<polygon fill="white" stroke="black" points="11,-112.5 11,-131.5 111,-131.5 111,-112.5 11,-112.5"/>
<text text-anchor="middle" x="61" y="-119.5" font-family="Helvetica,sans-Serif" font-size="10.00">GraphicsCircle.hpp</text>
</a>
</g>
</g>
<!-- Node1&#45;&gt;Node2 -->
<g id="edge1" class="edge"><title>Node1&#45;&gt;Node2</title>
<path fill="none" stroke="midnightblue" d="M361.831,-167.875C291.329,-157.359 176.783,-140.271 111.256,-130.497"/>
<polygon fill="midnightblue" stroke="midnightblue" points="361.495,-171.364 371.902,-169.378 362.528,-164.44 361.495,-171.364"/>
</g>
<!-- Node4 -->
<g id="node4" class="node"><title>Node4</title>
<g id="a_node4"><a xlink:href="_graphics_ellipse_8hpp_source.html" target="_top" xlink:title="GraphicsEllipse.hpp">
<polygon fill="white" stroke="black" points="151,-112.5 151,-131.5 255,-131.5 255,-112.5 151,-112.5"/>
<text text-anchor="middle" x="203" y="-119.5" font-family="Helvetica,sans-Serif" font-size="10.00">GraphicsEllipse.hpp</text>
</a>
</g>
</g>
<!-- Node1&#45;&gt;Node4 -->
<g id="edge3" class="edge"><title>Node1&#45;&gt;Node4</title>
<path fill="none" stroke="midnightblue" d="M378.282,-166.024C336.724,-155.823 275.687,-140.841 237.697,-131.516"/>
<polygon fill="midnightblue" stroke="midnightblue" points="377.594,-169.459 388.14,-168.444 379.263,-162.661 377.594,-169.459"/>
</g>
<!-- Node6 -->
<g id="node6" class="node"><title>Node6</title>
<g id="a_node6"><a xlink:href="_graphics_line_8hpp_source.html" target="_top" xlink:title="GraphicsLine.hpp">
<polygon fill="white" stroke="black" points="318,-112.5 318,-131.5 410,-131.5 410,-112.5 318,-112.5"/>
<text text-anchor="middle" x="364" y="-119.5" font-family="Helvetica,sans-Serif" font-size="10.00">GraphicsLine.hpp</text>
</a>
</g>
</g>
<!-- Node1&#45;&gt;Node6 -->
<g id="edge5" class="edge"><title>Node1&#45;&gt;Node6</title>
<path fill="none" stroke="midnightblue" d="M406.105,-161.537C395.585,-151.909 382.431,-139.869 373.652,-131.834"/>
<polygon fill="midnightblue" stroke="midnightblue" points="403.781,-164.154 413.521,-168.324 408.507,-158.99 403.781,-164.154"/>
</g>
<!-- Node11 -->
<g id="node11" class="node"><title>Node11</title>
<g id="a_node11"><a xlink:href="_graphics_polygon_8hpp_source.html" target="_top" xlink:title="GraphicsPolygon.hpp">
<polygon fill="white" stroke="black" points="428,-112.5 428,-131.5 538,-131.5 538,-112.5 428,-112.5"/>
<text text-anchor="middle" x="483" y="-119.5" font-family="Helvetica,sans-Serif" font-size="10.00">GraphicsPolygon.hpp</text>
</a>
</g>
</g>
<!-- Node1&#45;&gt;Node11 -->
<g id="edge10" class="edge"><title>Node1&#45;&gt;Node11</title>
<path fill="none" stroke="midnightblue" d="M440.181,-161.537C450.879,-151.909 464.256,-139.869 473.185,-131.834"/>
<polygon fill="midnightblue" stroke="midnightblue" points="437.732,-159.033 432.64,-168.324 442.414,-164.236 437.732,-159.033"/>
</g>
<!-- Node13 -->
<g id="node13" class="node"><title>Node13</title>
<g id="a_node13"><a xlink:href="_graphics_triangle_8hpp.html" target="_top" xlink:title="Classe GraphicsTriangle. ">
<polygon fill="white" stroke="black" points="556.5,-112.5 556.5,-131.5 665.5,-131.5 665.5,-112.5 556.5,-112.5"/>
<text text-anchor="middle" x="611" y="-119.5" font-family="Helvetica,sans-Serif" font-size="10.00">GraphicsTriangle.hpp</text>
</a>
</g>
</g>
<!-- Node1&#45;&gt;Node13 -->
<g id="edge12" class="edge"><title>Node1&#45;&gt;Node13</title>
<path fill="none" stroke="midnightblue" d="M462.801,-165.568C498.266,-155.381 549.366,-140.703 581.35,-131.516"/>
<polygon fill="midnightblue" stroke="midnightblue" points="461.434,-162.319 452.789,-168.444 463.367,-169.047 461.434,-162.319"/>
</g>
<!-- Node15 -->
<g id="node15" class="node"><title>Node15</title>
<g id="a_node15"><a xlink:href="_graphics_shape_8cpp_source.html" target="_top" xlink:title="GraphicsShape.cpp">
<polygon fill="white" stroke="black" points="684,-112.5 684,-131.5 786,-131.5 786,-112.5 684,-112.5"/>
<text text-anchor="middle" x="735" y="-119.5" font-family="Helvetica,sans-Serif" font-size="10.00">GraphicsShape.cpp</text>
</a>
</g>
</g>
<!-- Node1&#45;&gt;Node15 -->
<g id="edge14" class="edge"><title>Node1&#45;&gt;Node15</title>
<path fill="none" stroke="midnightblue" d="M482.352,-166.727C541.311,-156.523 630.663,-141.058 685.794,-131.516"/>
<polygon fill="midnightblue" stroke="midnightblue" points="481.694,-163.289 472.437,-168.444 482.888,-170.187 481.694,-163.289"/>
</g>
<!-- Node3 -->
<g id="node3" class="node"><title>Node3</title>
<g id="a_node3"><a xlink:href="_graphics_circle_8cpp_source.html" target="_top" xlink:title="GraphicsCircle.cpp">
<polygon fill="white" stroke="black" points="0,-56.5 0,-75.5 100,-75.5 100,-56.5 0,-56.5"/>
<text text-anchor="middle" x="50" y="-63.5" font-family="Helvetica,sans-Serif" font-size="10.00">GraphicsCircle.cpp</text>
</a>
</g>
</g>
<!-- Node2&#45;&gt;Node3 -->
<g id="edge2" class="edge"><title>Node2&#45;&gt;Node3</title>
<path fill="none" stroke="midnightblue" d="M57.1501,-102.101C55.3239,-93.1357 53.2303,-82.8579 51.7826,-75.7511"/>
<polygon fill="midnightblue" stroke="midnightblue" points="53.7579,-102.983 59.1836,-112.083 60.617,-101.586 53.7579,-102.983"/>
</g>
<!-- Node5 -->
<g id="node5" class="node"><title>Node5</title>
<g id="a_node5"><a xlink:href="_graphics_ellipse_8cpp_source.html" target="_top" xlink:title="GraphicsEllipse.cpp">
<polygon fill="white" stroke="black" points="118,-56.5 118,-75.5 222,-75.5 222,-56.5 118,-56.5"/>
<text text-anchor="middle" x="170" y="-63.5" font-family="Helvetica,sans-Serif" font-size="10.00">GraphicsEllipse.cpp</text>
</a>
</g>
</g>
<!-- Node4&#45;&gt;Node5 -->
<g id="edge4" class="edge"><title>Node4&#45;&gt;Node5</title>
<path fill="none" stroke="midnightblue" d="M192.168,-103.275C186.528,-94.0454 179.882,-83.1703 175.348,-75.7511"/>
<polygon fill="midnightblue" stroke="midnightblue" points="189.35,-105.375 197.551,-112.083 195.323,-101.725 189.35,-105.375"/>
</g>
<!-- Node7 -->
<g id="node7" class="node"><title>Node7</title>
<g id="a_node7"><a xlink:href="_graphics_line_8cpp_source.html" target="_top" xlink:title="GraphicsLine.cpp">
<polygon fill="white" stroke="black" points="240,-56.5 240,-75.5 332,-75.5 332,-56.5 240,-56.5"/>
<text text-anchor="middle" x="286" y="-63.5" font-family="Helvetica,sans-Serif" font-size="10.00">GraphicsLine.cpp</text>
</a>
</g>
</g>
<!-- Node6&#45;&gt;Node7 -->
<g id="edge6" class="edge"><title>Node6&#45;&gt;Node7</title>
<path fill="none" stroke="midnightblue" d="M343.232,-106.622C328.983,-96.7574 310.544,-83.9919 298.501,-75.6545"/>
<polygon fill="midnightblue" stroke="midnightblue" points="341.254,-109.51 351.468,-112.324 345.238,-103.754 341.254,-109.51"/>
</g>
<!-- Node8 -->
<g id="node8" class="node"><title>Node8</title>
<g id="a_node8"><a xlink:href="_line_edit_8hpp_source.html" target="_top" xlink:title="LineEdit.hpp">
<polygon fill="white" stroke="black" points="350.5,-56.5 350.5,-75.5 421.5,-75.5 421.5,-56.5 350.5,-56.5"/>
<text text-anchor="middle" x="386" y="-63.5" font-family="Helvetica,sans-Serif" font-size="10.00">LineEdit.hpp</text>
</a>
</g>
</g>
<!-- Node6&#45;&gt;Node8 -->
<g id="edge7" class="edge"><title>Node6&#45;&gt;Node8</title>
<path fill="none" stroke="midnightblue" d="M371.46,-102.69C375.167,-93.589 379.476,-83.0141 382.435,-75.7511"/>
<polygon fill="midnightblue" stroke="midnightblue" points="368.165,-101.502 367.633,-112.083 374.647,-104.143 368.165,-101.502"/>
</g>
<!-- Node9 -->
<g id="node9" class="node"><title>Node9</title>
<g id="a_node9"><a xlink:href="_main_window_8cpp_source.html" target="_top" xlink:title="MainWindow.cpp">
<polygon fill="white" stroke="black" points="290,-0.5 290,-19.5 382,-19.5 382,-0.5 290,-0.5"/>
<text text-anchor="middle" x="336" y="-7.5" font-family="Helvetica,sans-Serif" font-size="10.00">MainWindow.cpp</text>
</a>
</g>
</g>
<!-- Node8&#45;&gt;Node9 -->
<g id="edge8" class="edge"><title>Node8&#45;&gt;Node9</title>
<path fill="none" stroke="midnightblue" d="M370.924,-48.7175C362.111,-39.1997 351.334,-27.5608 344.103,-19.7511"/>
<polygon fill="midnightblue" stroke="midnightblue" points="368.381,-51.1233 377.744,-56.083 373.518,-46.3674 368.381,-51.1233"/>
</g>
<!-- Node10 -->
<g id="node10" class="node"><title>Node10</title>
<g id="a_node10"><a xlink:href="_line_edit_8cpp_source.html" target="_top" xlink:title="LineEdit.cpp">
<polygon fill="white" stroke="black" points="400.5,-0.5 400.5,-19.5 471.5,-19.5 471.5,-0.5 400.5,-0.5"/>
<text text-anchor="middle" x="436" y="-7.5" font-family="Helvetica,sans-Serif" font-size="10.00">LineEdit.cpp</text>
</a>
</g>
</g>
<!-- Node8&#45;&gt;Node10 -->
<g id="edge9" class="edge"><title>Node8&#45;&gt;Node10</title>
<path fill="none" stroke="midnightblue" d="M401.076,-48.7175C409.889,-39.1997 420.666,-27.5608 427.897,-19.7511"/>
<polygon fill="midnightblue" stroke="midnightblue" points="398.482,-46.3674 394.256,-56.083 403.619,-51.1233 398.482,-46.3674"/>
</g>
<!-- Node12 -->
<g id="node12" class="node"><title>Node12</title>
<g id="a_node12"><a xlink:href="_graphics_polygon_8cpp_source.html" target="_top" xlink:title="GraphicsPolygon.cpp">
<polygon fill="white" stroke="black" points="440,-56.5 440,-75.5 550,-75.5 550,-56.5 440,-56.5"/>
<text text-anchor="middle" x="495" y="-63.5" font-family="Helvetica,sans-Serif" font-size="10.00">GraphicsPolygon.cpp</text>
</a>
</g>
</g>
<!-- Node11&#45;&gt;Node12 -->
<g id="edge11" class="edge"><title>Node11&#45;&gt;Node12</title>
<path fill="none" stroke="midnightblue" d="M487.2,-102.101C489.192,-93.1357 491.476,-82.8579 493.055,-75.7511"/>
<polygon fill="midnightblue" stroke="midnightblue" points="483.734,-101.562 484.982,-112.083 490.568,-103.08 483.734,-101.562"/>
</g>
<!-- Node14 -->
<g id="node14" class="node"><title>Node14</title>
<g id="a_node14"><a xlink:href="_graphics_triangle_8cpp_source.html" target="_top" xlink:title="GraphicsTriangle.cpp">
<polygon fill="white" stroke="black" points="568.5,-56.5 568.5,-75.5 677.5,-75.5 677.5,-56.5 568.5,-56.5"/>
<text text-anchor="middle" x="623" y="-63.5" font-family="Helvetica,sans-Serif" font-size="10.00">GraphicsTriangle.cpp</text>
</a>
</g>
</g>
<!-- Node13&#45;&gt;Node14 -->
<g id="edge13" class="edge"><title>Node13&#45;&gt;Node14</title>
<path fill="none" stroke="midnightblue" d="M615.2,-102.101C617.192,-93.1357 619.476,-82.8579 621.055,-75.7511"/>
<polygon fill="midnightblue" stroke="midnightblue" points="611.734,-101.562 612.982,-112.083 618.568,-103.08 611.734,-101.562"/>
</g>
</g>
</svg>
