<?xml version="1.0" encoding="UTF-8" standalone="no"?>
<!DOCTYPE svg PUBLIC "-//W3C//DTD SVG 1.1//EN"
 "http://www.w3.org/Graphics/SVG/1.1/DTD/svg11.dtd">
<!-- Generated by graphviz version 2.36.0 (20140111.2315)
 -->
<!-- Title: GraphicsBlinkAnimation.hpp Pages: 1 -->
<svg width="237pt" height="84pt"
 viewBox="0.00 0.00 237.00 84.00" xmlns="http://www.w3.org/2000/svg" xmlns:xlink="http://www.w3.org/1999/xlink">
<g id="graph0" class="graph" transform="scale(1 1) rotate(0) translate(4 80)">
<title>GraphicsBlinkAnimation.hpp</title>
<polygon fill="white" stroke="none" points="-4,4 -4,-80 233,-80 233,4 -4,4"/>
<!-- Node1 -->
<g id="node1" class="node"><title>Node1</title>
<polygon fill="#bfbfbf" stroke="black" points="62,-56.5 62,-75.5 202,-75.5 202,-56.5 62,-56.5"/>
<text text-anchor="middle" x="132" y="-63.5" font-family="Helvetica,sans-Serif" font-size="10.00">GraphicsBlinkAnimation.hpp</text>
</g>
<!-- Node2 -->
<g id="node2" class="node"><title>Node2</title>
<g id="a_node2"><a xlink:href="_graphics_blink_animation_8cpp.html" target="_top" xlink:title="GraphicsBlinkAnimation.cpp">
<polygon fill="white" stroke="black" points="0,-0.5 0,-19.5 140,-19.5 140,-0.5 0,-0.5"/>
<text text-anchor="middle" x="70" y="-7.5" font-family="Helvetica,sans-Serif" font-size="10.00">GraphicsBlinkAnimation.cpp</text>
</a>
</g>
</g>
<!-- Node1&#45;&gt;Node2 -->
<g id="edge1" class="edge"><title>Node1&#45;&gt;Node2</title>
<path fill="none" stroke="midnightblue" d="M114.246,-49.5372C103.192,-39.9087 89.3685,-27.8694 80.1426,-19.8339"/>
<polygon fill="midnightblue" stroke="midnightblue" points="112.199,-52.3954 122.039,-56.324 116.797,-47.1168 112.199,-52.3954"/>
</g>
<!-- Node3 -->
<g id="node3" class="node"><title>Node3</title>
<g id="a_node3"><a xlink:href="_line_edit_8cpp.html" target="_top" xlink:title="LineEdit.cpp">
<polygon fill="white" stroke="black" points="158.5,-0.5 158.5,-19.5 229.5,-19.5 229.5,-0.5 158.5,-0.5"/>
<text text-anchor="middle" x="194" y="-7.5" font-family="Helvetica,sans-Serif" font-size="10.00">LineEdit.cpp</text>
</a>
</g>
</g>
<!-- Node1&#45;&gt;Node3 -->
<g id="edge2" class="edge"><title>Node1&#45;&gt;Node3</title>
<path fill="none" stroke="midnightblue" d="M149.754,-49.5372C160.808,-39.9087 174.631,-27.8694 183.857,-19.8339"/>
<polygon fill="midnightblue" stroke="midnightblue" points="147.203,-47.1168 141.961,-56.324 151.801,-52.3954 147.203,-47.1168"/>
</g>
</g>
</svg>
