<?xml version="1.0" encoding="UTF-8" standalone="no"?>
<!DOCTYPE svg PUBLIC "-//W3C//DTD SVG 1.1//EN"
 "http://www.w3.org/Graphics/SVG/1.1/DTD/svg11.dtd">
<!-- Generated by graphviz version 2.36.0 (20140111.2315)
 -->
<!-- Title: GraphicsRectangle.hpp Pages: 1 -->
<svg width="265pt" height="140pt"
 viewBox="0.00 0.00 265.00 140.00" xmlns="http://www.w3.org/2000/svg" xmlns:xlink="http://www.w3.org/1999/xlink">
<g id="graph0" class="graph" transform="scale(1 1) rotate(0) translate(4 136)">
<title>GraphicsRectangle.hpp</title>
<polygon fill="white" stroke="none" points="-4,4 -4,-136 261,-136 261,4 -4,4"/>
<!-- Node1 -->
<g id="node1" class="node"><title>Node1</title>
<polygon fill="#bfbfbf" stroke="black" points="55.5,-112.5 55.5,-131.5 174.5,-131.5 174.5,-112.5 55.5,-112.5"/>
<text text-anchor="middle" x="115" y="-119.5" font-family="Helvetica,sans-Serif" font-size="10.00">GraphicsRectangle.hpp</text>
</g>
<!-- Node2 -->
<g id="node2" class="node"><title>Node2</title>
<g id="a_node2"><a xlink:href="_graphics_rectangle_8cpp.html" target="_top" xlink:title="GraphicsRectangle.cpp">
<polygon fill="white" stroke="black" points="-0.5,-56.5 -0.5,-75.5 118.5,-75.5 118.5,-56.5 -0.5,-56.5"/>
<text text-anchor="middle" x="59" y="-63.5" font-family="Helvetica,sans-Serif" font-size="10.00">GraphicsRectangle.cpp</text>
</a>
</g>
</g>
<!-- Node1&#45;&gt;Node2 -->
<g id="edge1" class="edge"><title>Node1&#45;&gt;Node2</title>
<path fill="none" stroke="midnightblue" d="M98.6701,-105.253C88.735,-95.6731 76.4125,-83.7906 68.1611,-75.8339"/>
<polygon fill="midnightblue" stroke="midnightblue" points="96.3747,-107.902 106.003,-112.324 101.234,-102.863 96.3747,-107.902"/>
</g>
<!-- Node3 -->
<g id="node3" class="node"><title>Node3</title>
<g id="a_node3"><a xlink:href="_line_edit_8hpp.html" target="_top" xlink:title="LineEdit.hpp">
<polygon fill="white" stroke="black" points="136.5,-56.5 136.5,-75.5 207.5,-75.5 207.5,-56.5 136.5,-56.5"/>
<text text-anchor="middle" x="172" y="-63.5" font-family="Helvetica,sans-Serif" font-size="10.00">LineEdit.hpp</text>
</a>
</g>
</g>
<!-- Node1&#45;&gt;Node3 -->
<g id="edge2" class="edge"><title>Node1&#45;&gt;Node3</title>
<path fill="none" stroke="midnightblue" d="M131.621,-105.253C141.734,-95.6731 154.277,-83.7906 162.675,-75.8339"/>
<polygon fill="midnightblue" stroke="midnightblue" points="129.01,-102.906 124.158,-112.324 133.825,-107.987 129.01,-102.906"/>
</g>
<!-- Node4 -->
<g id="node4" class="node"><title>Node4</title>
<g id="a_node4"><a xlink:href="_main_window_8cpp.html" target="_top" xlink:title="MainWindow.cpp">
<polygon fill="white" stroke="black" points="76,-0.5 76,-19.5 168,-19.5 168,-0.5 76,-0.5"/>
<text text-anchor="middle" x="122" y="-7.5" font-family="Helvetica,sans-Serif" font-size="10.00">MainWindow.cpp</text>
</a>
</g>
</g>
<!-- Node3&#45;&gt;Node4 -->
<g id="edge3" class="edge"><title>Node3&#45;&gt;Node4</title>
<path fill="none" stroke="midnightblue" d="M156.924,-48.7175C148.111,-39.1997 137.334,-27.5608 130.103,-19.7511"/>
<polygon fill="midnightblue" stroke="midnightblue" points="154.381,-51.1233 163.744,-56.083 159.518,-46.3674 154.381,-51.1233"/>
</g>
<!-- Node5 -->
<g id="node5" class="node"><title>Node5</title>
<g id="a_node5"><a xlink:href="_line_edit_8cpp.html" target="_top" xlink:title="LineEdit.cpp">
<polygon fill="white" stroke="black" points="186.5,-0.5 186.5,-19.5 257.5,-19.5 257.5,-0.5 186.5,-0.5"/>
<text text-anchor="middle" x="222" y="-7.5" font-family="Helvetica,sans-Serif" font-size="10.00">LineEdit.cpp</text>
</a>
</g>
</g>
<!-- Node3&#45;&gt;Node5 -->
<g id="edge4" class="edge"><title>Node3&#45;&gt;Node5</title>
<path fill="none" stroke="midnightblue" d="M187.076,-48.7175C195.889,-39.1997 206.666,-27.5608 213.897,-19.7511"/>
<polygon fill="midnightblue" stroke="midnightblue" points="184.482,-46.3674 180.256,-56.083 189.619,-51.1233 184.482,-46.3674"/>
</g>
</g>
</svg>
