<?xml version="1.0" encoding="UTF-8" standalone="no"?>
<!DOCTYPE svg PUBLIC "-//W3C//DTD SVG 1.1//EN"
 "http://www.w3.org/Graphics/SVG/1.1/DTD/svg11.dtd">
<!-- Generated by graphviz version 2.36.0 (20140111.2315)
 -->
<!-- Title: GraphicsTriangle.hpp Pages: 1 -->
<!--zoomable 476 -->
<svg id="main" version="1.1" xmlns="http://www.w3.org/2000/svg" xmlns:xlink="http://www.w3.org/1999/xlink" xml:space="preserve" onload="init(evt)">
<style type="text/css"><![CDATA[
.edge:hover path { stroke: red; }
.edge:hover polygon { stroke: red; fill: red; }
]]></style>
<script type="text/javascript"><![CDATA[
var edges = document.getElementsByTagName('g');
if (edges && edges.length) {
  for (var i=0;i<edges.length;i++) {
    if (edges[i].id.substr(0,4)=='edge') {
      edges[i].setAttribute('class','edge');
    }
  }
}
]]></script>
        <defs>
                <circle id="rim" cx="0" cy="0" r="7"/>
                <circle id="rim2" cx="0" cy="0" r="3.5"/>
                <g id="zoomPlus">
                        <use xlink:href="#rim" fill="#404040">
                                <set attributeName="fill" to="#808080" begin="zoomplus.mouseover" end="zoomplus.mouseout"/>
                        </use>
                        <path d="M-4,0h8M0,-4v8" fill="none" stroke="white" stroke-width="1.5" pointer-events="none"/>
                </g>
                <g id="zoomMin">
                        <use xlink:href="#rim" fill="#404040">
                                <set attributeName="fill" to="#808080" begin="zoomminus.mouseover" end="zoomminus.mouseout"/>
                        </use>
                        <path d="M-4,0h8" fill="none" stroke="white" stroke-width="1.5" pointer-events="none"/>
                </g>
                <g id="dirArrow">
                        <path fill="none" stroke="white" stroke-width="1.5" d="M0,-3.0v7 M-2.5,-0.5L0,-3.0L2.5,-0.5"/>
                </g>
               <g id="resetDef">
                       <use xlink:href="#rim2" fill="#404040">
                               <set attributeName="fill" to="#808080" begin="reset.mouseover" end="reset.mouseout"/>
                       </use>
               </g>
        </defs>

<script type="text/javascript">
var viewWidth = 833;
var viewHeight = 476;
var sectionId = 'dynsection-0';
</script>
<script xlink:href="svgpan.js"/>
<svg id="graph" class="graph">
<g id="viewport">
<title>GraphicsTriangle.hpp</title>
<polygon fill="white" stroke="none" points="-4,4 -4,-472 829.296,-472 829.296,4 -4,4"/>
<!-- Node1 -->
<g id="node1" class="node"><title>Node1</title>
<polygon fill="#bfbfbf" stroke="black" points="83.5,-448.5 83.5,-467.5 192.5,-467.5 192.5,-448.5 83.5,-448.5"/>
<text text-anchor="middle" x="138" y="-455.5" font-family="Helvetica,sans-Serif" font-size="10.00">GraphicsTriangle.hpp</text>
</g>
<!-- Node2 -->
<g id="node2" class="node"><title>Node2</title>
<g id="a_node2"><a xlink:href="_graphics_shape_8hpp.html" target="_top" xlink:title="Classe GraphicsShape. ">
<polygon fill="white" stroke="black" points="87,-392.5 87,-411.5 189,-411.5 189,-392.5 87,-392.5"/>
<text text-anchor="middle" x="138" y="-399.5" font-family="Helvetica,sans-Serif" font-size="10.00">GraphicsShape.hpp</text>
</a>
</g>
</g>
<!-- Node1&#45;&gt;Node2 -->
<g id="edge1" class="edge"><title>Node1&#45;&gt;Node2</title>
<path fill="none" stroke="midnightblue" d="M138,-448.083C138,-441.006 138,-430.861 138,-421.986"/>
<polygon fill="midnightblue" stroke="midnightblue" points="141.5,-421.751 138,-411.751 134.5,-421.751 141.5,-421.751"/>
</g>
<!-- Node3 -->
<g id="node3" class="node"><title>Node3</title>
<polygon fill="white" stroke="#bfbfbf" points="108,-56.5 108,-75.5 152,-75.5 152,-56.5 108,-56.5"/>
<text text-anchor="middle" x="130" y="-63.5" font-family="Helvetica,sans-Serif" font-size="10.00">vector</text>
</g>
<!-- Node2&#45;&gt;Node3 -->
<g id="edge2" class="edge"><title>Node2&#45;&gt;Node3</title>
<path fill="none" stroke="midnightblue" d="M109.406,-392.487C68.9853,-378.482 0,-346.455 0,-291 0,-291 0,-291 0,-177 0,-125.706 59.7094,-93.4145 98.1958,-77.9283"/>
<polygon fill="midnightblue" stroke="midnightblue" points="99.8703,-81.0343 107.947,-74.1777 97.3574,-74.5009 99.8703,-81.0343"/>
</g>
<!-- Node4 -->
<g id="node4" class="node"><title>Node4</title>
<g id="a_node4"><a xlink:href="_graphics_item_8hpp.html" target="_top" xlink:title="Classe GraphicsItem. ">
<polygon fill="white" stroke="black" points="230,-336.5 230,-355.5 324,-355.5 324,-336.5 230,-336.5"/>
<text text-anchor="middle" x="277" y="-343.5" font-family="Helvetica,sans-Serif" font-size="10.00">GraphicsItem.hpp</text>
</a>
</g>
</g>
<!-- Node2&#45;&gt;Node4 -->
<g id="edge3" class="edge"><title>Node2&#45;&gt;Node4</title>
<path fill="none" stroke="midnightblue" d="M160.025,-392.444C183.104,-383.478 219.562,-369.314 245.641,-359.183"/>
<polygon fill="midnightblue" stroke="midnightblue" points="247.024,-362.4 255.078,-355.516 244.489,-355.875 247.024,-362.4"/>
</g>
<!-- Node4&#45;&gt;Node3 -->
<g id="edge4" class="edge"><title>Node4&#45;&gt;Node3</title>
<path fill="none" stroke="midnightblue" d="M244.376,-336.389C201.069,-322.755 130,-291.738 130,-235 130,-235 130,-235 130,-177 130,-144.948 130,-107.643 130,-85.7489"/>
<polygon fill="midnightblue" stroke="midnightblue" points="133.5,-85.5577 130,-75.5578 126.5,-85.5578 133.5,-85.5577"/>
</g>
<!-- Node5 -->
<g id="node5" class="node"><title>Node5</title>
<polygon fill="white" stroke="#bfbfbf" points="66.5,-280.5 66.5,-299.5 101.5,-299.5 101.5,-280.5 66.5,-280.5"/>
<text text-anchor="middle" x="84" y="-287.5" font-family="Helvetica,sans-Serif" font-size="10.00">map</text>
</g>
<!-- Node4&#45;&gt;Node5 -->
<g id="edge5" class="edge"><title>Node4&#45;&gt;Node5</title>
<path fill="none" stroke="midnightblue" d="M246.431,-336.472C214.042,-327.432 161.411,-312.732 116,-300 114.541,-299.591 113.045,-299.171 111.535,-298.747"/>
<polygon fill="midnightblue" stroke="midnightblue" points="112.178,-295.292 101.604,-295.957 110.284,-302.031 112.178,-295.292"/>
</g>
<!-- Node6 -->
<g id="node6" class="node"><title>Node6</title>
<polygon fill="white" stroke="#bfbfbf" points="570,-56.5 570,-75.5 622,-75.5 622,-56.5 570,-56.5"/>
<text text-anchor="middle" x="596" y="-63.5" font-family="Helvetica,sans-Serif" font-size="10.00">memory</text>
</g>
<!-- Node4&#45;&gt;Node6 -->
<g id="edge6" class="edge"><title>Node4&#45;&gt;Node6</title>
<path fill="none" stroke="midnightblue" d="M324.001,-344.302C445.519,-342.031 762.942,-332.973 796,-300 857.215,-238.942 811.967,-167.89 746,-112 741.523,-108.207 674.853,-89.0608 631.919,-76.9966"/>
<polygon fill="midnightblue" stroke="midnightblue" points="632.668,-73.5719 622.095,-74.2432 630.779,-80.3121 632.668,-73.5719"/>
</g>
<!-- Node7 -->
<g id="node7" class="node"><title>Node7</title>
<polygon fill="white" stroke="#bfbfbf" points="196,-280.5 196,-299.5 258,-299.5 258,-280.5 196,-280.5"/>
<text text-anchor="middle" x="227" y="-287.5" font-family="Helvetica,sans-Serif" font-size="10.00">type_traits</text>
</g>
<!-- Node4&#45;&gt;Node7 -->
<g id="edge7" class="edge"><title>Node4&#45;&gt;Node7</title>
<path fill="none" stroke="midnightblue" d="M268.744,-336.083C261.535,-328.298 250.89,-316.801 242.154,-307.367"/>
<polygon fill="midnightblue" stroke="midnightblue" points="244.465,-304.711 235.103,-299.751 239.329,-309.467 244.465,-304.711"/>
</g>
<!-- Node8 -->
<g id="node8" class="node"><title>Node8</title>
<g id="a_node8"><a xlink:href="_color_8hpp.html" target="_top" xlink:title="Classe Color. ">
<polygon fill="white" stroke="black" points="678.5,-112.5 678.5,-131.5 737.5,-131.5 737.5,-112.5 678.5,-112.5"/>
<text text-anchor="middle" x="708" y="-119.5" font-family="Helvetica,sans-Serif" font-size="10.00">Color.hpp</text>
</a>
</g>
</g>
<!-- Node4&#45;&gt;Node8 -->
<g id="edge8" class="edge"><title>Node4&#45;&gt;Node8</title>
<path fill="none" stroke="midnightblue" d="M324.074,-344.289C442.559,-342.012 745.853,-332.988 776,-300 819.811,-252.061 755.715,-172.893 724.006,-139.098"/>
<polygon fill="midnightblue" stroke="midnightblue" points="726.182,-136.312 716.728,-131.53 721.137,-141.164 726.182,-136.312"/>
</g>
<!-- Node12 -->
<g id="node12" class="node"><title>Node12</title>
<g id="a_node12"><a xlink:href="_canvas_8hpp_source.html" target="_top" xlink:title="Canvas.hpp">
<polygon fill="white" stroke="black" points="698.5,-280.5 698.5,-299.5 767.5,-299.5 767.5,-280.5 698.5,-280.5"/>
<text text-anchor="middle" x="733" y="-287.5" font-family="Helvetica,sans-Serif" font-size="10.00">Canvas.hpp</text>
</a>
</g>
</g>
<!-- Node4&#45;&gt;Node12 -->
<g id="edge12" class="edge"><title>Node4&#45;&gt;Node12</title>
<path fill="none" stroke="midnightblue" d="M324.147,-341.286C399.094,-335.069 550.192,-321.254 688.531,-299.928"/>
<polygon fill="midnightblue" stroke="midnightblue" points="689.126,-303.377 698.468,-298.379 688.048,-296.461 689.126,-303.377"/>
</g>
<!-- Node14 -->
<g id="node14" class="node"><title>Node14</title>
<polygon fill="white" stroke="#bfbfbf" points="252.5,-0.5 252.5,-19.5 391.5,-19.5 391.5,-0.5 252.5,-0.5"/>
<text text-anchor="middle" x="322" y="-7.5" font-family="Helvetica,sans-Serif" font-size="10.00">boost/core/noncopyable.hpp</text>
</g>
<!-- Node4&#45;&gt;Node14 -->
<g id="edge44" class="edge"><title>Node4&#45;&gt;Node14</title>
<path fill="none" stroke="midnightblue" d="M229.948,-341.029C173.027,-335.289 81.738,-322.774 57,-300 34.8569,-279.615 38,-265.098 38,-235 38,-235 38,-235 38,-121 38,-81.3821 64.3875,-75.2758 99,-56 142.697,-31.6653 197.73,-20.3945 242.192,-15.2176"/>
<polygon fill="midnightblue" stroke="midnightblue" points="242.814,-18.6708 252.379,-14.1154 242.061,-11.7114 242.814,-18.6708"/>
</g>
<!-- Node22 -->
<g id="node22" class="node"><title>Node22</title>
<g id="a_node22"><a xlink:href="_event_8hpp.html" target="_top" xlink:title="Classe Event. ">
<polygon fill="white" stroke="black" points="272.5,-112.5 272.5,-131.5 333.5,-131.5 333.5,-112.5 272.5,-112.5"/>
<text text-anchor="middle" x="303" y="-119.5" font-family="Helvetica,sans-Serif" font-size="10.00">Event.hpp</text>
</a>
</g>
</g>
<!-- Node4&#45;&gt;Node22 -->
<g id="edge38" class="edge"><title>Node4&#45;&gt;Node22</title>
<path fill="none" stroke="midnightblue" d="M239.898,-336.458C220.555,-329.918 198.572,-318.724 187,-300 182.327,-292.439 185.312,-288.727 187,-280 197.185,-227.33 197.689,-209.238 232,-168 243.255,-154.472 259.661,-143.704 273.867,-136.097"/>
<polygon fill="midnightblue" stroke="midnightblue" points="275.476,-139.206 282.809,-131.558 272.308,-132.964 275.476,-139.206"/>
</g>
<!-- Node23 -->
<g id="node23" class="node"><title>Node23</title>
<polygon fill="white" stroke="#bfbfbf" points="276.5,-280.5 276.5,-299.5 377.5,-299.5 377.5,-280.5 276.5,-280.5"/>
<text text-anchor="middle" x="327" y="-287.5" font-family="Helvetica,sans-Serif" font-size="10.00">boost/uuid/uuid.hpp</text>
</g>
<!-- Node4&#45;&gt;Node23 -->
<g id="edge41" class="edge"><title>Node4&#45;&gt;Node23</title>
<path fill="none" stroke="midnightblue" d="M285.256,-336.083C292.465,-328.298 303.11,-316.801 311.846,-307.367"/>
<polygon fill="midnightblue" stroke="midnightblue" points="314.671,-309.467 318.897,-299.751 309.535,-304.711 314.671,-309.467"/>
</g>
<!-- Node24 -->
<g id="node24" class="node"><title>Node24</title>
<polygon fill="white" stroke="#bfbfbf" points="396,-280.5 396,-299.5 548,-299.5 548,-280.5 396,-280.5"/>
<text text-anchor="middle" x="472" y="-287.5" font-family="Helvetica,sans-Serif" font-size="10.00">boost/uuid/uuid_generators.hpp</text>
</g>
<!-- Node4&#45;&gt;Node24 -->
<g id="edge42" class="edge"><title>Node4&#45;&gt;Node24</title>
<path fill="none" stroke="midnightblue" d="M307.898,-336.444C341.274,-327.201 394.594,-312.436 431.349,-302.257"/>
<polygon fill="midnightblue" stroke="midnightblue" points="432.543,-305.558 441.246,-299.516 430.675,-298.812 432.543,-305.558"/>
</g>
<!-- Node25 -->
<g id="node25" class="node"><title>Node25</title>
<polygon fill="white" stroke="#bfbfbf" points="566,-280.5 566,-299.5 680,-299.5 680,-280.5 566,-280.5"/>
<text text-anchor="middle" x="623" y="-287.5" font-family="Helvetica,sans-Serif" font-size="10.00">boost/uuid/uuid_io.hpp</text>
</g>
<!-- Node4&#45;&gt;Node25 -->
<g id="edge43" class="edge"><title>Node4&#45;&gt;Node25</title>
<path fill="none" stroke="midnightblue" d="M324.023,-337.661C384.569,-328.212 490.076,-311.745 558.195,-301.114"/>
<polygon fill="midnightblue" stroke="midnightblue" points="559.039,-304.525 568.379,-299.525 557.959,-297.609 559.039,-304.525"/>
</g>
<!-- Node9 -->
<g id="node9" class="node"><title>Node9</title>
<polygon fill="white" stroke="#bfbfbf" points="700,-56.5 700,-75.5 746,-75.5 746,-56.5 700,-56.5"/>
<text text-anchor="middle" x="723" y="-63.5" font-family="Helvetica,sans-Serif" font-size="10.00">cstdint</text>
</g>
<!-- Node8&#45;&gt;Node9 -->
<g id="edge9" class="edge"><title>Node8&#45;&gt;Node9</title>
<path fill="none" stroke="midnightblue" d="M710.477,-112.083C712.486,-104.849 715.386,-94.4087 717.89,-85.3968"/>
<polygon fill="midnightblue" stroke="midnightblue" points="721.265,-86.323 720.569,-75.7511 714.52,-84.4495 721.265,-86.323"/>
</g>
<!-- Node10 -->
<g id="node10" class="node"><title>Node10</title>
<polygon fill="white" stroke="#bfbfbf" points="640.5,-56.5 640.5,-75.5 681.5,-75.5 681.5,-56.5 640.5,-56.5"/>
<text text-anchor="middle" x="661" y="-63.5" font-family="Helvetica,sans-Serif" font-size="10.00">string</text>
</g>
<!-- Node8&#45;&gt;Node10 -->
<g id="edge10" class="edge"><title>Node8&#45;&gt;Node10</title>
<path fill="none" stroke="midnightblue" d="M700.239,-112.083C693.463,-104.298 683.457,-92.8015 675.245,-83.3665"/>
<polygon fill="midnightblue" stroke="midnightblue" points="677.822,-80.9963 668.617,-75.7511 672.542,-85.592 677.822,-80.9963"/>
</g>
<!-- Node11 -->
<g id="node11" class="node"><title>Node11</title>
<polygon fill="white" stroke="#bfbfbf" points="444,-56.5 444,-75.5 552,-75.5 552,-56.5 444,-56.5"/>
<text text-anchor="middle" x="498" y="-63.5" font-family="Helvetica,sans-Serif" font-size="10.00">ez&#45;lib/ez&#45;draw++.hpp</text>
</g>
<!-- Node8&#45;&gt;Node11 -->
<g id="edge11" class="edge"><title>Node8&#45;&gt;Node11</title>
<path fill="none" stroke="midnightblue" d="M678.358,-113.378C642.532,-104.165 581.969,-88.592 541.01,-78.0597"/>
<polygon fill="midnightblue" stroke="midnightblue" points="541.86,-74.6644 531.303,-75.5637 540.116,-81.4439 541.86,-74.6644"/>
</g>
<!-- Node12&#45;&gt;Node8 -->
<g id="edge16" class="edge"><title>Node12&#45;&gt;Node8</title>
<path fill="none" stroke="midnightblue" d="M731.656,-280.075C727.721,-253.945 716.164,-177.211 710.798,-141.577"/>
<polygon fill="midnightblue" stroke="midnightblue" points="714.241,-140.935 709.29,-131.568 707.319,-141.978 714.241,-140.935"/>
</g>
<!-- Node12&#45;&gt;Node11 -->
<g id="edge15" class="edge"><title>Node12&#45;&gt;Node11</title>
<path fill="none" stroke="midnightblue" d="M698.43,-281.837C695.244,-281.204 692.064,-280.584 689,-280 643.779,-271.387 514.588,-279.266 485,-244 446.593,-198.222 473.839,-120.222 489.306,-85.093"/>
<polygon fill="midnightblue" stroke="midnightblue" points="492.65,-86.1986 493.643,-75.6504 486.289,-83.2772 492.65,-86.1986"/>
</g>
<!-- Node13 -->
<g id="node13" class="node"><title>Node13</title>
<polygon fill="white" stroke="#bfbfbf" points="494,-224.5 494,-243.5 582,-243.5 582,-224.5 494,-224.5"/>
<text text-anchor="middle" x="538" y="-231.5" font-family="Helvetica,sans-Serif" font-size="10.00">boost/locale.hpp</text>
</g>
<!-- Node12&#45;&gt;Node13 -->
<g id="edge13" class="edge"><title>Node12&#45;&gt;Node13</title>
<path fill="none" stroke="midnightblue" d="M702.102,-280.444C668.726,-271.201 615.406,-256.436 578.651,-246.257"/>
<polygon fill="midnightblue" stroke="midnightblue" points="579.325,-242.812 568.754,-243.516 577.457,-249.558 579.325,-242.812"/>
</g>
<!-- Node12&#45;&gt;Node14 -->
<g id="edge14" class="edge"><title>Node12&#45;&gt;Node14</title>
<path fill="none" stroke="midnightblue" d="M737.738,-280.407C755.609,-246.729 814.934,-122.319 755,-56 729.923,-28.2514 471.312,-24.6213 402.069,-19.9524"/>
<polygon fill="midnightblue" stroke="midnightblue" points="401.991,-16.434 391.736,-19.0948 401.412,-23.41 401.991,-16.434"/>
</g>
<!-- Node15 -->
<g id="node15" class="node"><title>Node15</title>
<g id="a_node15"><a xlink:href="_point_8hpp.html" target="_top" xlink:title="Classe point. ">
<polygon fill="white" stroke="black" points="352,-112.5 352,-131.5 410,-131.5 410,-112.5 352,-112.5"/>
<text text-anchor="middle" x="381" y="-119.5" font-family="Helvetica,sans-Serif" font-size="10.00">Point.hpp</text>
</a>
</g>
</g>
<!-- Node12&#45;&gt;Node15 -->
<g id="edge17" class="edge"><title>Node12&#45;&gt;Node15</title>
<path fill="none" stroke="midnightblue" d="M698.458,-281.682C695.266,-281.082 692.077,-280.511 689,-280 626.896,-269.685 454.518,-286.419 408,-244 379.333,-217.859 377.649,-168.543 379.163,-141.647"/>
<polygon fill="midnightblue" stroke="midnightblue" points="382.657,-141.866 379.938,-131.625 375.677,-141.326 382.657,-141.866"/>
</g>
<!-- Node19 -->
<g id="node19" class="node"><title>Node19</title>
<g id="a_node19"><a xlink:href="_font_8hpp_source.html" target="_top" xlink:title="Font.hpp">
<polygon fill="white" stroke="black" points="241.5,-168.5 241.5,-187.5 296.5,-187.5 296.5,-168.5 241.5,-168.5"/>
<text text-anchor="middle" x="269" y="-175.5" font-family="Helvetica,sans-Serif" font-size="10.00">Font.hpp</text>
</a>
</g>
</g>
<!-- Node12&#45;&gt;Node19 -->
<g id="edge25" class="edge"><title>Node12&#45;&gt;Node19</title>
<path fill="none" stroke="midnightblue" d="M698.466,-281.631C695.273,-281.042 692.081,-280.487 689,-280 547.639,-257.637 503.725,-292.295 369,-244 337.222,-232.609 305.363,-209.364 286.413,-193.984"/>
<polygon fill="midnightblue" stroke="midnightblue" points="288.59,-191.242 278.662,-187.542 284.115,-196.625 288.59,-191.242"/>
</g>
<!-- Node20 -->
<g id="node20" class="node"><title>Node20</title>
<g id="a_node20"><a xlink:href="_image_8hpp.html" target="_top" xlink:title="Classe Image. ">
<polygon fill="white" stroke="black" points="600,-224.5 600,-243.5 662,-243.5 662,-224.5 600,-224.5"/>
<text text-anchor="middle" x="631" y="-231.5" font-family="Helvetica,sans-Serif" font-size="10.00">Image.hpp</text>
</a>
</g>
</g>
<!-- Node12&#45;&gt;Node20 -->
<g id="edge27" class="edge"><title>Node12&#45;&gt;Node20</title>
<path fill="none" stroke="midnightblue" d="M716.612,-280.324C700.329,-271.703 675.133,-258.364 656.284,-248.386"/>
<polygon fill="midnightblue" stroke="midnightblue" points="657.823,-245.24 647.347,-243.655 654.548,-251.427 657.823,-245.24"/>
</g>
<!-- Node15&#45;&gt;Node3 -->
<g id="edge19" class="edge"><title>Node15&#45;&gt;Node3</title>
<path fill="none" stroke="midnightblue" d="M351.625,-114.163C348.379,-113.425 345.121,-112.691 342,-112 278.164,-97.8604 203.308,-82.182 161.807,-73.5691"/>
<polygon fill="midnightblue" stroke="midnightblue" points="162.504,-70.1391 152.002,-71.5368 161.083,-76.9935 162.504,-70.1391"/>
</g>
<!-- Node15&#45;&gt;Node6 -->
<g id="edge20" class="edge"><title>Node15&#45;&gt;Node6</title>
<path fill="none" stroke="midnightblue" d="M410.008,-113.812C443.719,-105.444 501.281,-91.1131 559.845,-76.2814"/>
<polygon fill="midnightblue" stroke="midnightblue" points="560.798,-79.6506 569.632,-73.8006 559.078,-72.8652 560.798,-79.6506"/>
</g>
<!-- Node16 -->
<g id="node16" class="node"><title>Node16</title>
<polygon fill="white" stroke="#bfbfbf" points="264,-56.5 264,-75.5 318,-75.5 318,-56.5 264,-56.5"/>
<text text-anchor="middle" x="291" y="-63.5" font-family="Helvetica,sans-Serif" font-size="10.00">iostream</text>
</g>
<!-- Node15&#45;&gt;Node16 -->
<g id="edge18" class="edge"><title>Node15&#45;&gt;Node16</title>
<path fill="none" stroke="midnightblue" d="M366.54,-112.324C352.5,-103.9 330.952,-90.9709 314.457,-81.0741"/>
<polygon fill="midnightblue" stroke="midnightblue" points="315.8,-77.7983 305.424,-75.6545 312.198,-83.8007 315.8,-77.7983"/>
</g>
<!-- Node17 -->
<g id="node17" class="node"><title>Node17</title>
<g id="a_node17"><a xlink:href="_group_points_8hpp_source.html" target="_top" xlink:title="GroupPoints.hpp">
<polygon fill="white" stroke="black" points="336.5,-56.5 336.5,-75.5 425.5,-75.5 425.5,-56.5 336.5,-56.5"/>
<text text-anchor="middle" x="381" y="-63.5" font-family="Helvetica,sans-Serif" font-size="10.00">GroupPoints.hpp</text>
</a>
</g>
</g>
<!-- Node15&#45;&gt;Node17 -->
<g id="edge21" class="edge"><title>Node15&#45;&gt;Node17</title>
<path fill="none" stroke="midnightblue" d="M375.834,-112.083C374.324,-104.927 373.894,-94.6353 374.542,-85.6911"/>
<polygon fill="midnightblue" stroke="midnightblue" points="378.015,-86.1262 375.869,-75.7511 371.077,-85.2002 378.015,-86.1262"/>
</g>
<!-- Node17&#45;&gt;Node14 -->
<g id="edge23" class="edge"><title>Node17&#45;&gt;Node14</title>
<path fill="none" stroke="midnightblue" d="M371.521,-56.324C362.799,-48.3414 349.657,-36.3128 339.102,-26.6529"/>
<polygon fill="midnightblue" stroke="midnightblue" points="341.392,-24.0036 331.652,-19.8339 336.666,-29.1674 341.392,-24.0036"/>
</g>
<!-- Node17&#45;&gt;Node15 -->
<g id="edge24" class="edge"><title>Node17&#45;&gt;Node15</title>
<path fill="none" stroke="midnightblue" d="M386.131,-75.7511C387.657,-82.8579 388.104,-93.1357 387.472,-102.101"/>
<polygon fill="midnightblue" stroke="midnightblue" points="383.993,-101.713 386.166,-112.083 390.934,-102.622 383.993,-101.713"/>
</g>
<!-- Node18 -->
<g id="node18" class="node"><title>Node18</title>
<polygon fill="white" stroke="#bfbfbf" points="409.5,-0.5 409.5,-19.5 468.5,-19.5 468.5,-0.5 409.5,-0.5"/>
<text text-anchor="middle" x="439" y="-7.5" font-family="Helvetica,sans-Serif" font-size="10.00">functional</text>
</g>
<!-- Node17&#45;&gt;Node18 -->
<g id="edge22" class="edge"><title>Node17&#45;&gt;Node18</title>
<path fill="none" stroke="midnightblue" d="M390.319,-56.324C398.893,-48.3414 411.812,-36.3128 422.188,-26.6529"/>
<polygon fill="midnightblue" stroke="midnightblue" points="424.578,-29.2098 429.512,-19.8339 419.808,-24.0865 424.578,-29.2098"/>
</g>
<!-- Node19&#45;&gt;Node16 -->
<g id="edge26" class="edge"><title>Node19&#45;&gt;Node16</title>
<path fill="none" stroke="midnightblue" d="M266.246,-168.401C262.639,-155.781 257.396,-131.614 263,-112 265.902,-101.844 271.832,-91.747 277.49,-83.6991"/>
<polygon fill="midnightblue" stroke="midnightblue" points="280.376,-85.6853 283.588,-75.5891 274.781,-81.4786 280.376,-85.6853"/>
</g>
<!-- Node20&#45;&gt;Node6 -->
<g id="edge29" class="edge"><title>Node20&#45;&gt;Node6</title>
<path fill="none" stroke="midnightblue" d="M629.118,-224.075C623.609,-197.945 607.43,-121.211 599.917,-85.577"/>
<polygon fill="midnightblue" stroke="midnightblue" points="603.294,-84.6309 597.807,-75.5681 596.445,-86.0751 603.294,-84.6309"/>
</g>
<!-- Node20&#45;&gt;Node8 -->
<g id="edge32" class="edge"><title>Node20&#45;&gt;Node8</title>
<path fill="none" stroke="midnightblue" d="M637.423,-224.443C644.145,-215.442 654.959,-200.829 664,-188 675.244,-172.045 687.68,-153.596 696.454,-140.438"/>
<polygon fill="midnightblue" stroke="midnightblue" points="699.506,-142.169 702.127,-131.904 693.676,-138.295 699.506,-142.169"/>
</g>
<!-- Node20&#45;&gt;Node10 -->
<g id="edge30" class="edge"><title>Node20&#45;&gt;Node10</title>
<path fill="none" stroke="midnightblue" d="M632.613,-224.075C637.335,-197.945 651.203,-121.211 657.643,-85.577"/>
<polygon fill="midnightblue" stroke="midnightblue" points="661.117,-86.0312 659.452,-75.5681 654.229,-84.7862 661.117,-86.0312"/>
</g>
<!-- Node20&#45;&gt;Node11 -->
<g id="edge28" class="edge"><title>Node20&#45;&gt;Node11</title>
<path fill="none" stroke="midnightblue" d="M599.978,-224.532C570.037,-215.721 527.708,-201.369 517,-188 493.378,-158.506 493.395,-111.655 495.616,-85.7556"/>
<polygon fill="midnightblue" stroke="midnightblue" points="499.102,-86.0717 496.677,-75.7581 492.141,-85.3329 499.102,-86.0717"/>
</g>
<!-- Node20&#45;&gt;Node15 -->
<g id="edge31" class="edge"><title>Node20&#45;&gt;Node15</title>
<path fill="none" stroke="midnightblue" d="M599.718,-225.994C569.342,-218.601 522.331,-205.58 484,-188 453.332,-173.935 420.88,-152.151 400.781,-137.735"/>
<polygon fill="midnightblue" stroke="midnightblue" points="402.612,-134.738 392.467,-131.684 398.493,-140.398 402.612,-134.738"/>
</g>
<!-- Node21 -->
<g id="node21" class="node"><title>Node21</title>
<g id="a_node21"><a xlink:href="_pixel_8hpp.html" target="_top" xlink:title="Classe Pixel. ">
<polygon fill="white" stroke="black" points="526.5,-168.5 526.5,-187.5 583.5,-187.5 583.5,-168.5 526.5,-168.5"/>
<text text-anchor="middle" x="555" y="-175.5" font-family="Helvetica,sans-Serif" font-size="10.00">Pixel.hpp</text>
</a>
</g>
</g>
<!-- Node20&#45;&gt;Node21 -->
<g id="edge33" class="edge"><title>Node20&#45;&gt;Node21</title>
<path fill="none" stroke="midnightblue" d="M618.789,-224.324C607.224,-216.107 589.625,-203.602 575.839,-193.807"/>
<polygon fill="midnightblue" stroke="midnightblue" points="577.612,-190.773 567.433,-187.834 573.557,-196.479 577.612,-190.773"/>
</g>
<!-- Node21&#45;&gt;Node6 -->
<g id="edge35" class="edge"><title>Node21&#45;&gt;Node6</title>
<path fill="none" stroke="midnightblue" d="M558.217,-168.368C564.864,-150.537 580.235,-109.295 589.19,-85.2717"/>
<polygon fill="midnightblue" stroke="midnightblue" points="592.585,-86.1841 592.798,-75.5914 586.026,-83.7393 592.585,-86.1841"/>
</g>
<!-- Node21&#45;&gt;Node8 -->
<g id="edge37" class="edge"><title>Node21&#45;&gt;Node8</title>
<path fill="none" stroke="midnightblue" d="M579.243,-168.444C604.871,-159.399 645.485,-145.064 674.238,-134.916"/>
<polygon fill="midnightblue" stroke="midnightblue" points="675.605,-138.145 683.87,-131.516 673.275,-131.544 675.605,-138.145"/>
</g>
<!-- Node21&#45;&gt;Node11 -->
<g id="edge34" class="edge"><title>Node21&#45;&gt;Node11</title>
<path fill="none" stroke="midnightblue" d="M550.527,-168.368C541.204,-150.376 519.531,-108.55 507.134,-84.6267"/>
<polygon fill="midnightblue" stroke="midnightblue" points="510.16,-82.8599 502.452,-75.5914 503.945,-86.0805 510.16,-82.8599"/>
</g>
<!-- Node21&#45;&gt;Node15 -->
<g id="edge36" class="edge"><title>Node21&#45;&gt;Node15</title>
<path fill="none" stroke="midnightblue" d="M527.429,-168.444C497.903,-159.28 450.882,-144.688 418.117,-134.519"/>
<polygon fill="midnightblue" stroke="midnightblue" points="419.03,-131.138 408.442,-131.516 416.955,-137.823 419.03,-131.138"/>
</g>
<!-- Node22&#45;&gt;Node11 -->
<g id="edge40" class="edge"><title>Node22&#45;&gt;Node11</title>
<path fill="none" stroke="midnightblue" d="M333.898,-112.444C367.274,-103.201 420.594,-88.4356 457.349,-78.2572"/>
<polygon fill="midnightblue" stroke="midnightblue" points="458.543,-81.5583 467.246,-75.5164 456.675,-74.8122 458.543,-81.5583"/>
</g>
<!-- Node22&#45;&gt;Node16 -->
<g id="edge39" class="edge"><title>Node22&#45;&gt;Node16</title>
<path fill="none" stroke="midnightblue" d="M301.018,-112.083C299.428,-104.927 297.141,-94.6353 295.154,-85.6911"/>
<polygon fill="midnightblue" stroke="midnightblue" points="298.531,-84.7537 292.945,-75.7511 291.697,-86.2722 298.531,-84.7537"/>
</g>
</g>
</svg>
        <g id="navigator" transform="translate(0 0)" fill="#404254">
                <rect fill="#f2f5e9" fill-opacity="0.5" stroke="#606060" stroke-width=".5" x="0" y="0" width="60" height="60"/>
                <use id="zoomplus" xlink:href="#zoomPlus" x="17" y="9" onmousedown="handleZoom(evt,'in')"/>
                <use id="zoomminus" xlink:href="#zoomMin" x="42" y="9" onmousedown="handleZoom(evt,'out')"/>
                <use id="reset" xlink:href="#resetDef" x="30" y="36" onmousedown="handleReset()"/>
                <g id="arrowUp" xlink:href="#dirArrow" transform="translate(30 24)" onmousedown="handlePan(0,-1)">
                  <use xlink:href="#rim" fill="#404040">
                        <set attributeName="fill" to="#808080" begin="arrowUp.mouseover" end="arrowUp.mouseout"/>
                  </use>
                  <path fill="none" stroke="white" stroke-width="1.5" d="M0,-3.0v7 M-2.5,-0.5L0,-3.0L2.5,-0.5"/>
                </g>
                <g id="arrowRight" xlink:href="#dirArrow" transform="rotate(90) translate(36 -43)" onmousedown="handlePan(1,0)">
                  <use xlink:href="#rim" fill="#404040">
                        <set attributeName="fill" to="#808080" begin="arrowRight.mouseover" end="arrowRight.mouseout"/>
                  </use>
                  <path fill="none" stroke="white" stroke-width="1.5" d="M0,-3.0v7 M-2.5,-0.5L0,-3.0L2.5,-0.5"/>
                </g>
                <g id="arrowDown" xlink:href="#dirArrow" transform="rotate(180) translate(-30 -48)" onmousedown="handlePan(0,1)">
                  <use xlink:href="#rim" fill="#404040">
                        <set attributeName="fill" to="#808080" begin="arrowDown.mouseover" end="arrowDown.mouseout"/>
                  </use>
                  <path fill="none" stroke="white" stroke-width="1.5" d="M0,-3.0v7 M-2.5,-0.5L0,-3.0L2.5,-0.5"/>
                </g>
                <g id="arrowLeft" xlink:href="#dirArrow" transform="rotate(270) translate(-36 17)" onmousedown="handlePan(-1,0)">
                  <use xlink:href="#rim" fill="#404040">
                        <set attributeName="fill" to="#808080" begin="arrowLeft.mouseover" end="arrowLeft.mouseout"/>
                  </use>
                  <path fill="none" stroke="white" stroke-width="1.5" d="M0,-3.0v7 M-2.5,-0.5L0,-3.0L2.5,-0.5"/>
                </g>
        </g>
        <svg viewBox="0 0 15 15" width="100%" height="30px" preserveAspectRatio="xMaxYMin meet">
         <g id="arrow_out" transform="scale(0.3 0.3)">
          <a xlink:href="_graphics_triangle_8hpp__incl_org.svg" target="_base">
           <rect id="button" ry="5" rx="5" y="6" x="6" height="38" width="38"
                fill="#f2f5e9" fill-opacity="0.5" stroke="#606060" stroke-width="1.0"/>
           <path id="arrow"
             d="M 11.500037,31.436501 C 11.940474,20.09759 22.043105,11.32322 32.158766,21.979434 L 37.068811,17.246167 C 37.068811,17.246167 37.088388,32 37.088388,32 L 22.160133,31.978069 C 22.160133,31.978069 26.997745,27.140456 26.997745,27.140456 C 18.528582,18.264221 13.291696,25.230495 11.500037,31.436501 z"
             style="fill:#404040;"/>
          </a>
         </g>
        </svg>
</svg>
