<?xml version="1.0" encoding="UTF-8" standalone="no"?>
<!DOCTYPE svg PUBLIC "-//W3C//DTD SVG 1.1//EN"
 "http://www.w3.org/Graphics/SVG/1.1/DTD/svg11.dtd">
<!-- Generated by graphviz version 2.36.0 (20140111.2315)
 -->
<!-- Title: GraphicsPolygon.cpp Pages: 1 -->
<!--zoomable 364 -->
<svg id="main" version="1.1" xmlns="http://www.w3.org/2000/svg" xmlns:xlink="http://www.w3.org/1999/xlink" xml:space="preserve" onload="init(evt)">
<style type="text/css"><![CDATA[
.edge:hover path { stroke: red; }
.edge:hover polygon { stroke: red; fill: red; }
]]></style>
<script type="text/javascript"><![CDATA[
var edges = document.getElementsByTagName('g');
if (edges && edges.length) {
  for (var i=0;i<edges.length;i++) {
    if (edges[i].id.substr(0,4)=='edge') {
      edges[i].setAttribute('class','edge');
    }
  }
}
]]></script>
        <defs>
                <circle id="rim" cx="0" cy="0" r="7"/>
                <circle id="rim2" cx="0" cy="0" r="3.5"/>
                <g id="zoomPlus">
                        <use xlink:href="#rim" fill="#404040">
                                <set attributeName="fill" to="#808080" begin="zoomplus.mouseover" end="zoomplus.mouseout"/>
                        </use>
                        <path d="M-4,0h8M0,-4v8" fill="none" stroke="white" stroke-width="1.5" pointer-events="none"/>
                </g>
                <g id="zoomMin">
                        <use xlink:href="#rim" fill="#404040">
                                <set attributeName="fill" to="#808080" begin="zoomminus.mouseover" end="zoomminus.mouseout"/>
                        </use>
                        <path d="M-4,0h8" fill="none" stroke="white" stroke-width="1.5" pointer-events="none"/>
                </g>
                <g id="dirArrow">
                        <path fill="none" stroke="white" stroke-width="1.5" d="M0,-3.0v7 M-2.5,-0.5L0,-3.0L2.5,-0.5"/>
                </g>
               <g id="resetDef">
                       <use xlink:href="#rim2" fill="#404040">
                               <set attributeName="fill" to="#808080" begin="reset.mouseover" end="reset.mouseout"/>
                       </use>
               </g>
        </defs>

<script type="text/javascript">
var viewWidth = 768;
var viewHeight = 364;
var sectionId = 'dynsection-0';
</script>
<script xlink:href="svgpan.js"/>
<svg id="graph" class="graph">
<g id="viewport">
<title>GraphicsPolygon.cpp</title>
<polygon fill="white" stroke="none" points="-4,4 -4,-360 764,-360 764,4 -4,4"/>
<!-- Node1 -->
<g id="node1" class="node"><title>Node1</title>
<polygon fill="#bfbfbf" stroke="black" points="595,-336.5 595,-355.5 705,-355.5 705,-336.5 595,-336.5"/>
<text text-anchor="middle" x="650" y="-343.5" font-family="Helvetica,sans-Serif" font-size="10.00">GraphicsPolygon.cpp</text>
</g>
<!-- Node2 -->
<g id="node2" class="node"><title>Node2</title>
<g id="a_node2"><a xlink:href="_graphics_polygon_8hpp.html" target="_top" xlink:title="../include/GraphicsPolygon.hpp">
<polygon fill="white" stroke="black" points="406,-280.5 406,-299.5 558,-299.5 558,-280.5 406,-280.5"/>
<text text-anchor="middle" x="482" y="-287.5" font-family="Helvetica,sans-Serif" font-size="10.00">../include/GraphicsPolygon.hpp</text>
</a>
</g>
</g>
<!-- Node1&#45;&gt;Node2 -->
<g id="edge1" class="edge"><title>Node1&#45;&gt;Node2</title>
<path fill="none" stroke="midnightblue" d="M623.38,-336.444C594.994,-327.32 549.863,-312.813 518.247,-302.651"/>
<polygon fill="midnightblue" stroke="midnightblue" points="519.087,-299.244 508.496,-299.516 516.945,-305.909 519.087,-299.244"/>
</g>
<!-- Node22 -->
<g id="node22" class="node"><title>Node22</title>
<g id="a_node22"><a xlink:href="_graphics_point_8hpp.html" target="_top" xlink:title="../include/GraphicsPoint.hpp">
<polygon fill="white" stroke="black" points="580,-224.5 580,-243.5 720,-243.5 720,-224.5 580,-224.5"/>
<text text-anchor="middle" x="650" y="-231.5" font-family="Helvetica,sans-Serif" font-size="10.00">../include/GraphicsPoint.hpp</text>
</a>
</g>
</g>
<!-- Node1&#45;&gt;Node22 -->
<g id="edge26" class="edge"><title>Node1&#45;&gt;Node22</title>
<path fill="none" stroke="midnightblue" d="M678.79,-336.417C708.551,-325.922 748.636,-306.263 733,-280 723.904,-264.721 707.612,-254.31 691.856,-247.386"/>
<polygon fill="midnightblue" stroke="midnightblue" points="692.769,-243.981 682.185,-243.512 690.167,-250.479 692.769,-243.981"/>
</g>
<!-- Node23 -->
<g id="node23" class="node"><title>Node23</title>
<g id="a_node23"><a xlink:href="_graphics_anchor_8hpp.html" target="_top" xlink:title="../include/GraphicsAnchor.hpp">
<polygon fill="white" stroke="black" points="576,-280.5 576,-299.5 724,-299.5 724,-280.5 576,-280.5"/>
<text text-anchor="middle" x="650" y="-287.5" font-family="Helvetica,sans-Serif" font-size="10.00">../include/GraphicsAnchor.hpp</text>
</a>
</g>
</g>
<!-- Node1&#45;&gt;Node23 -->
<g id="edge28" class="edge"><title>Node1&#45;&gt;Node23</title>
<path fill="none" stroke="midnightblue" d="M650,-336.083C650,-329.006 650,-318.861 650,-309.986"/>
<polygon fill="midnightblue" stroke="midnightblue" points="653.5,-309.751 650,-299.751 646.5,-309.751 653.5,-309.751"/>
</g>
<!-- Node3 -->
<g id="node3" class="node"><title>Node3</title>
<g id="a_node3"><a xlink:href="_graphics_shape_8hpp.html" target="_top" xlink:title="Classe GraphicsShape. ">
<polygon fill="white" stroke="black" points="445,-224.5 445,-243.5 547,-243.5 547,-224.5 445,-224.5"/>
<text text-anchor="middle" x="496" y="-231.5" font-family="Helvetica,sans-Serif" font-size="10.00">GraphicsShape.hpp</text>
</a>
</g>
</g>
<!-- Node2&#45;&gt;Node3 -->
<g id="edge2" class="edge"><title>Node2&#45;&gt;Node3</title>
<path fill="none" stroke="midnightblue" d="M484.312,-280.083C486.167,-272.927 488.835,-262.635 491.154,-253.691"/>
<polygon fill="midnightblue" stroke="midnightblue" points="494.609,-254.309 493.731,-243.751 487.834,-252.553 494.609,-254.309"/>
</g>
<!-- Node4 -->
<g id="node4" class="node"><title>Node4</title>
<g id="a_node4"><a xlink:href="_graphics_item_8hpp.html" target="_top" xlink:title="Classe GraphicsItem. ">
<polygon fill="white" stroke="black" points="526,-168.5 526,-187.5 620,-187.5 620,-168.5 526,-168.5"/>
<text text-anchor="middle" x="573" y="-175.5" font-family="Helvetica,sans-Serif" font-size="10.00">GraphicsItem.hpp</text>
</a>
</g>
</g>
<!-- Node3&#45;&gt;Node4 -->
<g id="edge3" class="edge"><title>Node3&#45;&gt;Node4</title>
<path fill="none" stroke="midnightblue" d="M508.371,-224.324C520.158,-216.058 538.132,-203.453 552.136,-193.632"/>
<polygon fill="midnightblue" stroke="midnightblue" points="554.482,-196.262 560.659,-187.655 550.462,-190.531 554.482,-196.262"/>
</g>
<!-- Node5 -->
<g id="node5" class="node"><title>Node5</title>
<polygon fill="white" stroke="#bfbfbf" points="0,-0.5 0,-19.5 44,-19.5 44,-0.5 0,-0.5"/>
<text text-anchor="middle" x="22" y="-7.5" font-family="Helvetica,sans-Serif" font-size="10.00">vector</text>
</g>
<!-- Node4&#45;&gt;Node5 -->
<g id="edge4" class="edge"><title>Node4&#45;&gt;Node5</title>
<path fill="none" stroke="midnightblue" d="M537.303,-168.482C501.818,-159.86 445.915,-145.857 398,-132 269.501,-94.8385 118.522,-44.0564 53.9271,-21.9867"/>
<polygon fill="midnightblue" stroke="midnightblue" points="54.913,-18.6249 44.3184,-18.6976 52.646,-25.2476 54.913,-18.6249"/>
</g>
<!-- Node6 -->
<g id="node6" class="node"><title>Node6</title>
<polygon fill="white" stroke="#bfbfbf" points="660,-112.5 660,-131.5 690,-131.5 690,-112.5 660,-112.5"/>
<text text-anchor="middle" x="675" y="-119.5" font-family="Helvetica,sans-Serif" font-size="10.00">set</text>
</g>
<!-- Node4&#45;&gt;Node6 -->
<g id="edge5" class="edge"><title>Node4&#45;&gt;Node6</title>
<path fill="none" stroke="midnightblue" d="M589.388,-168.324C606.057,-159.499 632.065,-145.73 651.044,-135.683"/>
<polygon fill="midnightblue" stroke="midnightblue" points="652.782,-138.723 659.982,-130.951 649.507,-132.536 652.782,-138.723"/>
</g>
<!-- Node7 -->
<g id="node7" class="node"><title>Node7</title>
<polygon fill="white" stroke="#bfbfbf" points="708,-112.5 708,-131.5 760,-131.5 760,-112.5 708,-112.5"/>
<text text-anchor="middle" x="734" y="-119.5" font-family="Helvetica,sans-Serif" font-size="10.00">memory</text>
</g>
<!-- Node4&#45;&gt;Node7 -->
<g id="edge6" class="edge"><title>Node4&#45;&gt;Node7</title>
<path fill="none" stroke="midnightblue" d="M598.511,-168.444C625.596,-159.359 668.59,-144.939 698.869,-134.783"/>
<polygon fill="midnightblue" stroke="midnightblue" points="700.24,-138.015 708.608,-131.516 698.014,-131.378 700.24,-138.015"/>
</g>
<!-- Node8 -->
<g id="node8" class="node"><title>Node8</title>
<g id="a_node8"><a xlink:href="_color_8hpp.html" target="_top" xlink:title="Classe Color. ">
<polygon fill="white" stroke="black" points="582.5,-112.5 582.5,-131.5 641.5,-131.5 641.5,-112.5 582.5,-112.5"/>
<text text-anchor="middle" x="612" y="-119.5" font-family="Helvetica,sans-Serif" font-size="10.00">Color.hpp</text>
</a>
</g>
</g>
<!-- Node4&#45;&gt;Node8 -->
<g id="edge7" class="edge"><title>Node4&#45;&gt;Node8</title>
<path fill="none" stroke="midnightblue" d="M579.44,-168.083C584.949,-160.455 593.031,-149.264 599.765,-139.941"/>
<polygon fill="midnightblue" stroke="midnightblue" points="602.662,-141.907 605.68,-131.751 596.987,-137.809 602.662,-141.907"/>
</g>
<!-- Node12 -->
<g id="node12" class="node"><title>Node12</title>
<g id="a_node12"><a xlink:href="_canvas_8hpp.html" target="_top" xlink:title="Canvas.hpp">
<polygon fill="white" stroke="black" points="407.5,-112.5 407.5,-131.5 476.5,-131.5 476.5,-112.5 407.5,-112.5"/>
<text text-anchor="middle" x="442" y="-119.5" font-family="Helvetica,sans-Serif" font-size="10.00">Canvas.hpp</text>
</a>
</g>
</g>
<!-- Node4&#45;&gt;Node12 -->
<g id="edge11" class="edge"><title>Node4&#45;&gt;Node12</title>
<path fill="none" stroke="midnightblue" d="M552.243,-168.444C530.684,-159.557 496.737,-145.563 472.206,-135.451"/>
<polygon fill="midnightblue" stroke="midnightblue" points="473.239,-132.092 462.66,-131.516 470.572,-138.563 473.239,-132.092"/>
</g>
<!-- Node21 -->
<g id="node21" class="node"><title>Node21</title>
<g id="a_node21"><a xlink:href="_event_8hpp.html" target="_top" xlink:title="Classe Event. ">
<polygon fill="white" stroke="black" points="503.5,-112.5 503.5,-131.5 564.5,-131.5 564.5,-112.5 503.5,-112.5"/>
<text text-anchor="middle" x="534" y="-119.5" font-family="Helvetica,sans-Serif" font-size="10.00">Event.hpp</text>
</a>
</g>
</g>
<!-- Node4&#45;&gt;Node21 -->
<g id="edge23" class="edge"><title>Node4&#45;&gt;Node21</title>
<path fill="none" stroke="midnightblue" d="M566.56,-168.083C561.051,-160.455 552.969,-149.264 546.235,-139.941"/>
<polygon fill="midnightblue" stroke="midnightblue" points="549.013,-137.809 540.32,-131.751 543.338,-141.907 549.013,-137.809"/>
</g>
<!-- Node9 -->
<g id="node9" class="node"><title>Node9</title>
<polygon fill="white" stroke="#bfbfbf" points="704,-56.5 704,-75.5 750,-75.5 750,-56.5 704,-56.5"/>
<text text-anchor="middle" x="727" y="-63.5" font-family="Helvetica,sans-Serif" font-size="10.00">cstdint</text>
</g>
<!-- Node8&#45;&gt;Node9 -->
<g id="edge8" class="edge"><title>Node8&#45;&gt;Node9</title>
<path fill="none" stroke="midnightblue" d="M630.222,-112.444C648.896,-103.675 678.156,-89.9355 699.617,-79.8579"/>
<polygon fill="midnightblue" stroke="midnightblue" points="701.299,-82.935 708.863,-75.5164 698.324,-76.5988 701.299,-82.935"/>
</g>
<!-- Node10 -->
<g id="node10" class="node"><title>Node10</title>
<polygon fill="white" stroke="#bfbfbf" points="644.5,-56.5 644.5,-75.5 685.5,-75.5 685.5,-56.5 644.5,-56.5"/>
<text text-anchor="middle" x="665" y="-63.5" font-family="Helvetica,sans-Serif" font-size="10.00">string</text>
</g>
<!-- Node8&#45;&gt;Node10 -->
<g id="edge9" class="edge"><title>Node8&#45;&gt;Node10</title>
<path fill="none" stroke="midnightblue" d="M620.752,-112.083C628.47,-104.22 639.905,-92.5688 649.217,-83.0813"/>
<polygon fill="midnightblue" stroke="midnightblue" points="651.904,-85.3396 656.411,-75.7511 646.908,-80.4363 651.904,-85.3396"/>
</g>
<!-- Node11 -->
<g id="node11" class="node"><title>Node11</title>
<polygon fill="white" stroke="#bfbfbf" points="480,-56.5 480,-75.5 588,-75.5 588,-56.5 480,-56.5"/>
<text text-anchor="middle" x="534" y="-63.5" font-family="Helvetica,sans-Serif" font-size="10.00">ez&#45;lib/ez&#45;draw++.hpp</text>
</g>
<!-- Node8&#45;&gt;Node11 -->
<g id="edge10" class="edge"><title>Node8&#45;&gt;Node11</title>
<path fill="none" stroke="midnightblue" d="M599.468,-112.324C587.414,-103.979 568.973,-91.2122 554.731,-81.3524"/>
<polygon fill="midnightblue" stroke="midnightblue" points="556.715,-78.469 546.501,-75.6545 552.731,-84.2243 556.715,-78.469"/>
</g>
<!-- Node12&#45;&gt;Node11 -->
<g id="edge12" class="edge"><title>Node12&#45;&gt;Node11</title>
<path fill="none" stroke="midnightblue" d="M456.781,-112.324C471.267,-103.822 493.573,-90.7288 510.493,-80.7975"/>
<polygon fill="midnightblue" stroke="midnightblue" points="512.403,-83.735 519.255,-75.6545 508.859,-77.6981 512.403,-83.735"/>
</g>
<!-- Node13 -->
<g id="node13" class="node"><title>Node13</title>
<g id="a_node13"><a xlink:href="_point_8hpp.html" target="_top" xlink:title="Classe point. ">
<polygon fill="white" stroke="black" points="253,-56.5 253,-75.5 311,-75.5 311,-56.5 253,-56.5"/>
<text text-anchor="middle" x="282" y="-63.5" font-family="Helvetica,sans-Serif" font-size="10.00">Point.hpp</text>
</a>
</g>
</g>
<!-- Node12&#45;&gt;Node13 -->
<g id="edge13" class="edge"><title>Node12&#45;&gt;Node13</title>
<path fill="none" stroke="midnightblue" d="M416.648,-112.444C389.731,-103.359 347.004,-88.9388 316.913,-78.7831"/>
<polygon fill="midnightblue" stroke="midnightblue" points="317.828,-75.3981 307.234,-75.5164 315.59,-82.0305 317.828,-75.3981"/>
</g>
<!-- Node20 -->
<g id="node20" class="node"><title>Node20</title>
<g id="a_node20"><a xlink:href="_font_8hpp.html" target="_top" xlink:title="Font.hpp">
<polygon fill="white" stroke="black" points="406.5,-56.5 406.5,-75.5 461.5,-75.5 461.5,-56.5 406.5,-56.5"/>
<text text-anchor="middle" x="434" y="-63.5" font-family="Helvetica,sans-Serif" font-size="10.00">Font.hpp</text>
</a>
</g>
</g>
<!-- Node12&#45;&gt;Node20 -->
<g id="edge21" class="edge"><title>Node12&#45;&gt;Node20</title>
<path fill="none" stroke="midnightblue" d="M440.679,-112.083C439.619,-104.927 438.094,-94.6353 436.769,-85.6911"/>
<polygon fill="midnightblue" stroke="midnightblue" points="440.224,-85.1302 435.296,-75.7511 433.3,-86.1561 440.224,-85.1302"/>
</g>
<!-- Node13&#45;&gt;Node5 -->
<g id="edge19" class="edge"><title>Node13&#45;&gt;Node5</title>
<path fill="none" stroke="midnightblue" d="M252.901,-60.1333C211.023,-52.9456 131.164,-38.5549 54.1506,-20.1145"/>
<polygon fill="midnightblue" stroke="midnightblue" points="54.8306,-16.6781 44.2878,-17.7264 53.1832,-23.4815 54.8306,-16.6781"/>
</g>
<!-- Node14 -->
<g id="node14" class="node"><title>Node14</title>
<polygon fill="white" stroke="#bfbfbf" points="192.5,-0.5 192.5,-19.5 293.5,-19.5 293.5,-0.5 192.5,-0.5"/>
<text text-anchor="middle" x="243" y="-7.5" font-family="Helvetica,sans-Serif" font-size="10.00">boost/uuid/uuid.hpp</text>
</g>
<!-- Node13&#45;&gt;Node14 -->
<g id="edge14" class="edge"><title>Node13&#45;&gt;Node14</title>
<path fill="none" stroke="midnightblue" d="M275.56,-56.083C270.051,-48.4554 261.969,-37.2645 255.235,-27.9408"/>
<polygon fill="midnightblue" stroke="midnightblue" points="258.013,-25.8087 249.32,-19.7511 252.338,-29.9071 258.013,-25.8087"/>
</g>
<!-- Node15 -->
<g id="node15" class="node"><title>Node15</title>
<polygon fill="white" stroke="#bfbfbf" points="312,-0.5 312,-19.5 464,-19.5 464,-0.5 312,-0.5"/>
<text text-anchor="middle" x="388" y="-7.5" font-family="Helvetica,sans-Serif" font-size="10.00">boost/uuid/uuid_generators.hpp</text>
</g>
<!-- Node13&#45;&gt;Node15 -->
<g id="edge15" class="edge"><title>Node13&#45;&gt;Node15</title>
<path fill="none" stroke="midnightblue" d="M299.031,-56.324C316.03,-47.6641 342.376,-34.2424 361.993,-24.249"/>
<polygon fill="midnightblue" stroke="midnightblue" points="363.69,-27.3125 371.012,-19.6545 360.512,-21.0752 363.69,-27.3125"/>
</g>
<!-- Node16 -->
<g id="node16" class="node"><title>Node16</title>
<polygon fill="white" stroke="#bfbfbf" points="482.5,-0.5 482.5,-19.5 609.5,-19.5 609.5,-0.5 482.5,-0.5"/>
<text text-anchor="middle" x="546" y="-7.5" font-family="Helvetica,sans-Serif" font-size="10.00">boost/signals2/signal.hpp</text>
</g>
<!-- Node13&#45;&gt;Node16 -->
<g id="edge16" class="edge"><title>Node13&#45;&gt;Node16</title>
<path fill="none" stroke="midnightblue" d="M311.008,-59.0666C355.142,-50.0392 439.792,-32.7243 494.533,-21.5272"/>
<polygon fill="midnightblue" stroke="midnightblue" points="495.295,-24.9441 504.39,-19.5111 493.892,-18.0861 495.295,-24.9441"/>
</g>
<!-- Node17 -->
<g id="node17" class="node"><title>Node17</title>
<polygon fill="white" stroke="#bfbfbf" points="628,-0.5 628,-19.5 682,-19.5 682,-0.5 628,-0.5"/>
<text text-anchor="middle" x="655" y="-7.5" font-family="Helvetica,sans-Serif" font-size="10.00">iostream</text>
</g>
<!-- Node13&#45;&gt;Node17 -->
<g id="edge17" class="edge"><title>Node13&#45;&gt;Node17</title>
<path fill="none" stroke="midnightblue" d="M311.379,-62.1193C369.994,-56.1402 505.5,-41.1548 618,-20 618.102,-19.9809 618.203,-19.9617 618.305,-19.9424"/>
<polygon fill="midnightblue" stroke="midnightblue" points="618.921,-23.3894 627.993,-17.9175 617.489,-16.5374 618.921,-23.3894"/>
</g>
<!-- Node18 -->
<g id="node18" class="node"><title>Node18</title>
<polygon fill="white" stroke="#bfbfbf" points="62.5,-0.5 62.5,-19.5 97.5,-19.5 97.5,-0.5 62.5,-0.5"/>
<text text-anchor="middle" x="80" y="-7.5" font-family="Helvetica,sans-Serif" font-size="10.00">map</text>
</g>
<!-- Node13&#45;&gt;Node18 -->
<g id="edge18" class="edge"><title>Node13&#45;&gt;Node18</title>
<path fill="none" stroke="midnightblue" d="M252.833,-58.326C219.674,-50.5682 163.745,-36.9704 107.347,-20.2344"/>
<polygon fill="midnightblue" stroke="midnightblue" points="108.142,-16.8189 97.5578,-17.2988 106.131,-23.5239 108.142,-16.8189"/>
</g>
<!-- Node19 -->
<g id="node19" class="node"><title>Node19</title>
<polygon fill="white" stroke="#bfbfbf" points="115.5,-0.5 115.5,-19.5 174.5,-19.5 174.5,-0.5 115.5,-0.5"/>
<text text-anchor="middle" x="145" y="-7.5" font-family="Helvetica,sans-Serif" font-size="10.00">functional</text>
</g>
<!-- Node13&#45;&gt;Node19 -->
<g id="edge20" class="edge"><title>Node13&#45;&gt;Node19</title>
<path fill="none" stroke="midnightblue" d="M260.292,-56.4435C237.645,-47.5171 201.928,-33.4387 176.248,-23.3168"/>
<polygon fill="midnightblue" stroke="midnightblue" points="177.193,-19.9273 166.606,-19.5164 174.626,-26.4397 177.193,-19.9273"/>
</g>
<!-- Node20&#45;&gt;Node17 -->
<g id="edge22" class="edge"><title>Node20&#45;&gt;Node17</title>
<path fill="none" stroke="midnightblue" d="M461.543,-58.27C501.047,-48.6176 573.885,-30.8199 618.038,-20.0315"/>
<polygon fill="midnightblue" stroke="midnightblue" points="618.921,-23.4188 627.804,-17.6451 617.259,-16.6188 618.921,-23.4188"/>
</g>
<!-- Node21&#45;&gt;Node11 -->
<g id="edge25" class="edge"><title>Node21&#45;&gt;Node11</title>
<path fill="none" stroke="midnightblue" d="M534,-112.083C534,-105.006 534,-94.8611 534,-85.9865"/>
<polygon fill="midnightblue" stroke="midnightblue" points="537.5,-85.751 534,-75.7511 530.5,-85.7511 537.5,-85.751"/>
</g>
<!-- Node21&#45;&gt;Node17 -->
<g id="edge24" class="edge"><title>Node21&#45;&gt;Node17</title>
<path fill="none" stroke="midnightblue" d="M547.931,-112.338C561.156,-103.825 581.292,-90.0923 597,-76 613.807,-60.9212 630.737,-41.3228 641.931,-27.6048"/>
<polygon fill="midnightblue" stroke="midnightblue" points="644.869,-29.5355 648.399,-19.5459 639.41,-25.1538 644.869,-29.5355"/>
</g>
<!-- Node22&#45;&gt;Node4 -->
<g id="edge27" class="edge"><title>Node22&#45;&gt;Node4</title>
<path fill="none" stroke="midnightblue" d="M637.629,-224.324C625.842,-216.058 607.868,-203.453 593.864,-193.632"/>
<polygon fill="midnightblue" stroke="midnightblue" points="595.538,-190.531 585.341,-187.655 591.518,-196.262 595.538,-190.531"/>
</g>
<!-- Node23&#45;&gt;Node22 -->
<g id="edge29" class="edge"><title>Node23&#45;&gt;Node22</title>
<path fill="none" stroke="midnightblue" d="M650,-280.083C650,-273.006 650,-262.861 650,-253.986"/>
<polygon fill="midnightblue" stroke="midnightblue" points="653.5,-253.751 650,-243.751 646.5,-253.751 653.5,-253.751"/>
</g>
</g>
</svg>
        <g id="navigator" transform="translate(0 0)" fill="#404254">
                <rect fill="#f2f5e9" fill-opacity="0.5" stroke="#606060" stroke-width=".5" x="0" y="0" width="60" height="60"/>
                <use id="zoomplus" xlink:href="#zoomPlus" x="17" y="9" onmousedown="handleZoom(evt,'in')"/>
                <use id="zoomminus" xlink:href="#zoomMin" x="42" y="9" onmousedown="handleZoom(evt,'out')"/>
                <use id="reset" xlink:href="#resetDef" x="30" y="36" onmousedown="handleReset()"/>
                <g id="arrowUp" xlink:href="#dirArrow" transform="translate(30 24)" onmousedown="handlePan(0,-1)">
                  <use xlink:href="#rim" fill="#404040">
                        <set attributeName="fill" to="#808080" begin="arrowUp.mouseover" end="arrowUp.mouseout"/>
                  </use>
                  <path fill="none" stroke="white" stroke-width="1.5" d="M0,-3.0v7 M-2.5,-0.5L0,-3.0L2.5,-0.5"/>
                </g>
                <g id="arrowRight" xlink:href="#dirArrow" transform="rotate(90) translate(36 -43)" onmousedown="handlePan(1,0)">
                  <use xlink:href="#rim" fill="#404040">
                        <set attributeName="fill" to="#808080" begin="arrowRight.mouseover" end="arrowRight.mouseout"/>
                  </use>
                  <path fill="none" stroke="white" stroke-width="1.5" d="M0,-3.0v7 M-2.5,-0.5L0,-3.0L2.5,-0.5"/>
                </g>
                <g id="arrowDown" xlink:href="#dirArrow" transform="rotate(180) translate(-30 -48)" onmousedown="handlePan(0,1)">
                  <use xlink:href="#rim" fill="#404040">
                        <set attributeName="fill" to="#808080" begin="arrowDown.mouseover" end="arrowDown.mouseout"/>
                  </use>
                  <path fill="none" stroke="white" stroke-width="1.5" d="M0,-3.0v7 M-2.5,-0.5L0,-3.0L2.5,-0.5"/>
                </g>
                <g id="arrowLeft" xlink:href="#dirArrow" transform="rotate(270) translate(-36 17)" onmousedown="handlePan(-1,0)">
                  <use xlink:href="#rim" fill="#404040">
                        <set attributeName="fill" to="#808080" begin="arrowLeft.mouseover" end="arrowLeft.mouseout"/>
                  </use>
                  <path fill="none" stroke="white" stroke-width="1.5" d="M0,-3.0v7 M-2.5,-0.5L0,-3.0L2.5,-0.5"/>
                </g>
        </g>
        <svg viewBox="0 0 15 15" width="100%" height="30px" preserveAspectRatio="xMaxYMin meet">
         <g id="arrow_out" transform="scale(0.3 0.3)">
          <a xlink:href="_graphics_polygon_8cpp__incl_org.svg" target="_base">
           <rect id="button" ry="5" rx="5" y="6" x="6" height="38" width="38"
                fill="#f2f5e9" fill-opacity="0.5" stroke="#606060" stroke-width="1.0"/>
           <path id="arrow"
             d="M 11.500037,31.436501 C 11.940474,20.09759 22.043105,11.32322 32.158766,21.979434 L 37.068811,17.246167 C 37.068811,17.246167 37.088388,32 37.088388,32 L 22.160133,31.978069 C 22.160133,31.978069 26.997745,27.140456 26.997745,27.140456 C 18.528582,18.264221 13.291696,25.230495 11.500037,31.436501 z"
             style="fill:#404040;"/>
          </a>
         </g>
        </svg>
</svg>
