<?xml version="1.0" encoding="UTF-8" standalone="no"?>
<!DOCTYPE svg PUBLIC "-//W3C//DTD SVG 1.1//EN"
 "http://www.w3.org/Graphics/SVG/1.1/DTD/svg11.dtd">
<!-- Generated by graphviz version 2.36.0 (20140111.2315)
 -->
<!-- Title: GraphicsItem.hpp Pages: 1 -->
<!--zoomable 252 -->
<svg id="main" version="1.1" xmlns="http://www.w3.org/2000/svg" xmlns:xlink="http://www.w3.org/1999/xlink" xml:space="preserve" onload="init(evt)">
<style type="text/css"><![CDATA[
.edge:hover path { stroke: red; }
.edge:hover polygon { stroke: red; fill: red; }
]]></style>
<script type="text/javascript"><![CDATA[
var edges = document.getElementsByTagName('g');
if (edges && edges.length) {
  for (var i=0;i<edges.length;i++) {
    if (edges[i].id.substr(0,4)=='edge') {
      edges[i].setAttribute('class','edge');
    }
  }
}
]]></script>
        <defs>
                <circle id="rim" cx="0" cy="0" r="7"/>
                <circle id="rim2" cx="0" cy="0" r="3.5"/>
                <g id="zoomPlus">
                        <use xlink:href="#rim" fill="#404040">
                                <set attributeName="fill" to="#808080" begin="zoomplus.mouseover" end="zoomplus.mouseout"/>
                        </use>
                        <path d="M-4,0h8M0,-4v8" fill="none" stroke="white" stroke-width="1.5" pointer-events="none"/>
                </g>
                <g id="zoomMin">
                        <use xlink:href="#rim" fill="#404040">
                                <set attributeName="fill" to="#808080" begin="zoomminus.mouseover" end="zoomminus.mouseout"/>
                        </use>
                        <path d="M-4,0h8" fill="none" stroke="white" stroke-width="1.5" pointer-events="none"/>
                </g>
                <g id="dirArrow">
                        <path fill="none" stroke="white" stroke-width="1.5" d="M0,-3.0v7 M-2.5,-0.5L0,-3.0L2.5,-0.5"/>
                </g>
               <g id="resetDef">
                       <use xlink:href="#rim2" fill="#404040">
                               <set attributeName="fill" to="#808080" begin="reset.mouseover" end="reset.mouseout"/>
                       </use>
               </g>
        </defs>

<script type="text/javascript">
var viewWidth = 1822;
var viewHeight = 252;
var sectionId = 'dynsection-1';
</script>
<script xlink:href="svgpan.js"/>
<svg id="graph" class="graph">
<g id="viewport">
<title>GraphicsItem.hpp</title>
<polygon fill="white" stroke="none" points="-4,4 -4,-248 1818,-248 1818,4 -4,4"/>
<!-- Node1 -->
<g id="node1" class="node"><title>Node1</title>
<polygon fill="#bfbfbf" stroke="black" points="1333,-224.5 1333,-243.5 1427,-243.5 1427,-224.5 1333,-224.5"/>
<text text-anchor="middle" x="1380" y="-231.5" font-family="Helvetica,sans-Serif" font-size="10.00">GraphicsItem.hpp</text>
</g>
<!-- Node2 -->
<g id="node2" class="node"><title>Node2</title>
<g id="a_node2"><a xlink:href="_main_window_8hpp.html" target="_top" xlink:title="MainWindow.hpp">
<polygon fill="white" stroke="black" points="1722,-168.5 1722,-187.5 1814,-187.5 1814,-168.5 1722,-168.5"/>
<text text-anchor="middle" x="1768" y="-175.5" font-family="Helvetica,sans-Serif" font-size="10.00">MainWindow.hpp</text>
</a>
</g>
</g>
<!-- Node1&#45;&gt;Node2 -->
<g id="edge1" class="edge"><title>Node1&#45;&gt;Node2</title>
<path fill="none" stroke="midnightblue" d="M1437.23,-225.036C1514.47,-214.285 1650.6,-195.34 1721.74,-185.438"/>
<polygon fill="midnightblue" stroke="midnightblue" points="1436.61,-221.587 1427.19,-226.433 1437.58,-228.521 1436.61,-221.587"/>
</g>
<!-- Node5 -->
<g id="node5" class="node"><title>Node5</title>
<g id="a_node5"><a xlink:href="_tools_windows_8hpp.html" target="_top" xlink:title="ToolsWindows.hpp">
<polygon fill="white" stroke="black" points="530,-168.5 530,-187.5 630,-187.5 630,-168.5 530,-168.5"/>
<text text-anchor="middle" x="580" y="-175.5" font-family="Helvetica,sans-Serif" font-size="10.00">ToolsWindows.hpp</text>
</a>
</g>
</g>
<!-- Node1&#45;&gt;Node5 -->
<g id="edge4" class="edge"><title>Node1&#45;&gt;Node5</title>
<path fill="none" stroke="midnightblue" d="M1322.54,-231.286C1197.8,-227.177 892.984,-215.027 639,-188 636.115,-187.693 633.155,-187.345 630.172,-186.97"/>
<polygon fill="midnightblue" stroke="midnightblue" points="1322.52,-234.788 1332.63,-231.614 1322.75,-227.791 1322.52,-234.788"/>
</g>
<!-- Node6 -->
<g id="node6" class="node"><title>Node6</title>
<g id="a_node6"><a xlink:href="_graphics_point_8hpp.html" target="_top" xlink:title="GraphicsPoint.hpp">
<polygon fill="white" stroke="black" points="1004.5,-168.5 1004.5,-187.5 1101.5,-187.5 1101.5,-168.5 1004.5,-168.5"/>
<text text-anchor="middle" x="1053" y="-175.5" font-family="Helvetica,sans-Serif" font-size="10.00">GraphicsPoint.hpp</text>
</a>
</g>
</g>
<!-- Node1&#45;&gt;Node6 -->
<g id="edge5" class="edge"><title>Node1&#45;&gt;Node6</title>
<path fill="none" stroke="midnightblue" d="M1322.68,-223.534C1259.96,-213.178 1160.52,-196.755 1101.52,-187.012"/>
<polygon fill="midnightblue" stroke="midnightblue" points="1322.36,-227.029 1332.8,-225.206 1323.5,-220.123 1322.36,-227.029"/>
</g>
<!-- Node17 -->
<g id="node17" class="node"><title>Node17</title>
<g id="a_node17"><a xlink:href="_graphics_animation_8hpp.html" target="_top" xlink:title="GraphicsAnimation.hpp">
<polygon fill="white" stroke="black" points="0,-112.5 0,-131.5 118,-131.5 118,-112.5 0,-112.5"/>
<text text-anchor="middle" x="59" y="-119.5" font-family="Helvetica,sans-Serif" font-size="10.00">GraphicsAnimation.hpp</text>
</a>
</g>
</g>
<!-- Node1&#45;&gt;Node17 -->
<g id="edge23" class="edge"><title>Node1&#45;&gt;Node17</title>
<path fill="none" stroke="midnightblue" d="M1322.52,-231.724C1184.21,-228.277 821.975,-217 521,-188 370.433,-173.492 193.684,-145.561 109.077,-131.511"/>
<polygon fill="midnightblue" stroke="midnightblue" points="1322.79,-235.232 1332.87,-231.978 1322.96,-228.234 1322.79,-235.232"/>
</g>
<!-- Node23 -->
<g id="node23" class="node"><title>Node23</title>
<g id="a_node23"><a xlink:href="_graphics_shape_8hpp.html" target="_top" xlink:title="Classe GraphicsShape. ">
<polygon fill="white" stroke="black" points="648,-168.5 648,-187.5 750,-187.5 750,-168.5 648,-168.5"/>
<text text-anchor="middle" x="699" y="-175.5" font-family="Helvetica,sans-Serif" font-size="10.00">GraphicsShape.hpp</text>
</a>
</g>
</g>
<!-- Node1&#45;&gt;Node23 -->
<g id="edge29" class="edge"><title>Node1&#45;&gt;Node23</title>
<path fill="none" stroke="midnightblue" d="M1322.74,-228.46C1192.29,-218.116 874.677,-192.93 750.224,-183.062"/>
<polygon fill="midnightblue" stroke="midnightblue" points="1322.68,-231.966 1332.92,-229.267 1323.23,-224.987 1322.68,-231.966"/>
</g>
<!-- Node31 -->
<g id="node31" class="node"><title>Node31</title>
<g id="a_node31"><a xlink:href="_graphics_rectangle_8hpp.html" target="_top" xlink:title="GraphicsRectangle.hpp">
<polygon fill="white" stroke="black" points="1406.5,-112.5 1406.5,-131.5 1525.5,-131.5 1525.5,-112.5 1406.5,-112.5"/>
<text text-anchor="middle" x="1466" y="-119.5" font-family="Helvetica,sans-Serif" font-size="10.00">GraphicsRectangle.hpp</text>
</a>
</g>
</g>
<!-- Node1&#45;&gt;Node31 -->
<g id="edge44" class="edge"><title>Node1&#45;&gt;Node31</title>
<path fill="none" stroke="midnightblue" d="M1393.08,-216.272C1411.67,-192.494 1445.06,-149.789 1459.28,-131.591"/>
<polygon fill="midnightblue" stroke="midnightblue" points="1390.15,-214.335 1386.75,-224.368 1395.66,-218.646 1390.15,-214.335"/>
</g>
<!-- Node33 -->
<g id="node33" class="node"><title>Node33</title>
<g id="a_node33"><a xlink:href="_graphics_square_8hpp.html" target="_top" xlink:title="GraphicsSquare.hpp">
<polygon fill="white" stroke="black" points="1287.5,-168.5 1287.5,-187.5 1392.5,-187.5 1392.5,-168.5 1287.5,-168.5"/>
<text text-anchor="middle" x="1340" y="-175.5" font-family="Helvetica,sans-Serif" font-size="10.00">GraphicsSquare.hpp</text>
</a>
</g>
</g>
<!-- Node1&#45;&gt;Node33 -->
<g id="edge50" class="edge"><title>Node1&#45;&gt;Node33</title>
<path fill="none" stroke="midnightblue" d="M1367.3,-215.855C1360.37,-206.505 1352.09,-195.327 1346.48,-187.751"/>
<polygon fill="midnightblue" stroke="midnightblue" points="1364.63,-218.131 1373.39,-224.083 1370.25,-213.964 1364.63,-218.131"/>
</g>
<!-- Node34 -->
<g id="node34" class="node"><title>Node34</title>
<g id="a_node34"><a xlink:href="_graphics_text_8hpp.html" target="_top" xlink:title="Classe GraphicsText. ">
<polygon fill="white" stroke="black" points="1544,-112.5 1544,-131.5 1638,-131.5 1638,-112.5 1544,-112.5"/>
<text text-anchor="middle" x="1591" y="-119.5" font-family="Helvetica,sans-Serif" font-size="10.00">GraphicsText.hpp</text>
</a>
</g>
</g>
<!-- Node1&#45;&gt;Node34 -->
<g id="edge52" class="edge"><title>Node1&#45;&gt;Node34</title>
<path fill="none" stroke="midnightblue" d="M1400.76,-218.439C1421.13,-204.5 1453.38,-183.377 1483,-168 1511.12,-153.399 1545.08,-139.883 1567.31,-131.551"/>
<polygon fill="midnightblue" stroke="midnightblue" points="1398.52,-215.729 1392.28,-224.291 1402.5,-221.489 1398.52,-215.729"/>
</g>
<!-- Node36 -->
<g id="node36" class="node"><title>Node36</title>
<g id="a_node36"><a xlink:href="_graphics_item_8cpp.html" target="_top" xlink:title="GraphicsItem.cpp">
<polygon fill="white" stroke="black" points="1525,-168.5 1525,-187.5 1619,-187.5 1619,-168.5 1525,-168.5"/>
<text text-anchor="middle" x="1572" y="-175.5" font-family="Helvetica,sans-Serif" font-size="10.00">GraphicsItem.cpp</text>
</a>
</g>
</g>
<!-- Node1&#45;&gt;Node36 -->
<g id="edge56" class="edge"><title>Node1&#45;&gt;Node36</title>
<path fill="none" stroke="midnightblue" d="M1420.18,-221.699C1456.42,-211.507 1508.91,-196.743 1541.72,-187.516"/>
<polygon fill="midnightblue" stroke="midnightblue" points="1419.1,-218.367 1410.42,-224.444 1421,-225.105 1419.1,-218.367"/>
</g>
<!-- Node37 -->
<g id="node37" class="node"><title>Node37</title>
<g id="a_node37"><a xlink:href="_widget_8hpp.html" target="_top" xlink:title="Widget.hpp">
<polygon fill="white" stroke="black" points="1656,-112.5 1656,-131.5 1722,-131.5 1722,-112.5 1656,-112.5"/>
<text text-anchor="middle" x="1689" y="-119.5" font-family="Helvetica,sans-Serif" font-size="10.00">Widget.hpp</text>
</a>
</g>
</g>
<!-- Node1&#45;&gt;Node37 -->
<g id="edge57" class="edge"><title>Node1&#45;&gt;Node37</title>
<path fill="none" stroke="midnightblue" d="M1409.78,-220.382C1429.83,-211.697 1456.75,-199.665 1480,-188 1496.36,-179.793 1499.01,-174.802 1516,-168 1541.28,-157.879 1613.21,-140.486 1655.94,-130.548"/>
<polygon fill="midnightblue" stroke="midnightblue" points="1408.34,-217.192 1400.54,-224.36 1411.11,-223.622 1408.34,-217.192"/>
</g>
<!-- Node3 -->
<g id="node3" class="node"><title>Node3</title>
<g id="a_node3"><a xlink:href="main_8cpp.html" target="_top" xlink:title="main.cpp">
<polygon fill="white" stroke="black" points="1740,-112.5 1740,-131.5 1796,-131.5 1796,-112.5 1740,-112.5"/>
<text text-anchor="middle" x="1768" y="-119.5" font-family="Helvetica,sans-Serif" font-size="10.00">main.cpp</text>
</a>
</g>
</g>
<!-- Node2&#45;&gt;Node3 -->
<g id="edge2" class="edge"><title>Node2&#45;&gt;Node3</title>
<path fill="none" stroke="midnightblue" d="M1768,-157.805C1768,-148.91 1768,-138.78 1768,-131.751"/>
<polygon fill="midnightblue" stroke="midnightblue" points="1764.5,-158.083 1768,-168.083 1771.5,-158.083 1764.5,-158.083"/>
</g>
<!-- Node4 -->
<g id="node4" class="node"><title>Node4</title>
<g id="a_node4"><a xlink:href="_main_window_8cpp.html" target="_top" xlink:title="MainWindow.cpp">
<polygon fill="white" stroke="black" points="1626,-0.5 1626,-19.5 1718,-19.5 1718,-0.5 1626,-0.5"/>
<text text-anchor="middle" x="1672" y="-7.5" font-family="Helvetica,sans-Serif" font-size="10.00">MainWindow.cpp</text>
</a>
</g>
</g>
<!-- Node2&#45;&gt;Node4 -->
<g id="edge3" class="edge"><title>Node2&#45;&gt;Node4</title>
<path fill="none" stroke="midnightblue" d="M1785.4,-160.819C1792.63,-152.916 1800.21,-142.791 1804,-132 1810.53,-113.379 1805,-65.9937 1797,-56 1777.98,-32.2271 1745.34,-21.0059 1718.18,-15.7129"/>
<polygon fill="midnightblue" stroke="midnightblue" points="1782.67,-158.6 1778.16,-168.185 1787.67,-163.506 1782.67,-158.6"/>
</g>
<!-- Node7 -->
<g id="node7" class="node"><title>Node7</title>
<g id="a_node7"><a xlink:href="_graphics_anchor_8hpp.html" target="_top" xlink:title="GraphicsAnchor.hpp">
<polygon fill="white" stroke="black" points="904.5,-112.5 904.5,-131.5 1009.5,-131.5 1009.5,-112.5 904.5,-112.5"/>
<text text-anchor="middle" x="957" y="-119.5" font-family="Helvetica,sans-Serif" font-size="10.00">GraphicsAnchor.hpp</text>
</a>
</g>
</g>
<!-- Node6&#45;&gt;Node7 -->
<g id="edge6" class="edge"><title>Node6&#45;&gt;Node7</title>
<path fill="none" stroke="midnightblue" d="M1028.43,-163.177C1010.76,-153.241 987.487,-140.149 972.386,-131.655"/>
<polygon fill="midnightblue" stroke="midnightblue" points="1027.14,-166.472 1037.58,-168.324 1030.58,-160.371 1027.14,-166.472"/>
</g>
<!-- Node9 -->
<g id="node9" class="node"><title>Node9</title>
<g id="a_node9"><a xlink:href="_graphics_circle_8cpp.html" target="_top" xlink:title="GraphicsCircle.cpp">
<polygon fill="white" stroke="black" points="793,-56.5 793,-75.5 893,-75.5 893,-56.5 793,-56.5"/>
<text text-anchor="middle" x="843" y="-63.5" font-family="Helvetica,sans-Serif" font-size="10.00">GraphicsCircle.cpp</text>
</a>
</g>
</g>
<!-- Node6&#45;&gt;Node9 -->
<g id="edge15" class="edge"><title>Node6&#45;&gt;Node9</title>
<path fill="none" stroke="midnightblue" d="M994.526,-169.212C963.039,-162.926 924.683,-151.735 895,-132 872.616,-117.118 855.308,-89.5481 847.517,-75.5838"/>
<polygon fill="midnightblue" stroke="midnightblue" points="994.014,-172.677 1004.49,-171.085 995.307,-165.797 994.014,-172.677"/>
</g>
<!-- Node10 -->
<g id="node10" class="node"><title>Node10</title>
<g id="a_node10"><a xlink:href="_graphics_ellipse_8cpp.html" target="_top" xlink:title="GraphicsEllipse.cpp">
<polygon fill="white" stroke="black" points="336,-56.5 336,-75.5 440,-75.5 440,-56.5 336,-56.5"/>
<text text-anchor="middle" x="388" y="-63.5" font-family="Helvetica,sans-Serif" font-size="10.00">GraphicsEllipse.cpp</text>
</a>
</g>
</g>
<!-- Node6&#45;&gt;Node10 -->
<g id="edge16" class="edge"><title>Node6&#45;&gt;Node10</title>
<path fill="none" stroke="midnightblue" d="M994.085,-174.712C838.984,-168.449 429.682,-150.267 407,-132 389.968,-118.284 387.656,-90.186 387.665,-75.8454"/>
<polygon fill="midnightblue" stroke="midnightblue" points="994.233,-178.221 1004.37,-175.125 994.514,-171.227 994.233,-178.221"/>
</g>
<!-- Node11 -->
<g id="node11" class="node"><title>Node11</title>
<g id="a_node11"><a xlink:href="_graphics_line_8cpp.html" target="_top" xlink:title="GraphicsLine.cpp">
<polygon fill="white" stroke="black" points="1035,-56.5 1035,-75.5 1127,-75.5 1127,-56.5 1035,-56.5"/>
<text text-anchor="middle" x="1081" y="-63.5" font-family="Helvetica,sans-Serif" font-size="10.00">GraphicsLine.cpp</text>
</a>
</g>
</g>
<!-- Node6&#45;&gt;Node11 -->
<g id="edge17" class="edge"><title>Node6&#45;&gt;Node11</title>
<path fill="none" stroke="midnightblue" d="M1090.52,-164.226C1105.23,-157.162 1120.59,-146.753 1129,-132 1141.3,-110.429 1113.64,-87.6137 1095.4,-75.5868"/>
<polygon fill="midnightblue" stroke="midnightblue" points="1088.76,-161.173 1081.02,-168.397 1091.58,-167.582 1088.76,-161.173"/>
</g>
<!-- Node12 -->
<g id="node12" class="node"><title>Node12</title>
<g id="a_node12"><a xlink:href="_graphics_polygon_8cpp.html" target="_top" xlink:title="GraphicsPolygon.cpp">
<polygon fill="white" stroke="black" points="537,-56.5 537,-75.5 647,-75.5 647,-56.5 537,-56.5"/>
<text text-anchor="middle" x="592" y="-63.5" font-family="Helvetica,sans-Serif" font-size="10.00">GraphicsPolygon.cpp</text>
</a>
</g>
</g>
<!-- Node6&#45;&gt;Node12 -->
<g id="edge19" class="edge"><title>Node6&#45;&gt;Node12</title>
<path fill="none" stroke="midnightblue" d="M994.05,-174.718C927.059,-170.815 815.077,-160.287 723,-132 677.616,-118.058 628.636,-89.8012 605.529,-75.5821"/>
<polygon fill="midnightblue" stroke="midnightblue" points="994.227,-178.233 1004.4,-175.29 994.613,-171.244 994.227,-178.233"/>
</g>
<!-- Node13 -->
<g id="node13" class="node"><title>Node13</title>
<g id="a_node13"><a xlink:href="_graphics_rectangle_8cpp.html" target="_top" xlink:title="GraphicsRectangle.cpp">
<polygon fill="white" stroke="black" points="1301.5,-56.5 1301.5,-75.5 1420.5,-75.5 1420.5,-56.5 1301.5,-56.5"/>
<text text-anchor="middle" x="1361" y="-63.5" font-family="Helvetica,sans-Serif" font-size="10.00">GraphicsRectangle.cpp</text>
</a>
</g>
</g>
<!-- Node6&#45;&gt;Node13 -->
<g id="edge20" class="edge"><title>Node6&#45;&gt;Node13</title>
<path fill="none" stroke="midnightblue" d="M1111.75,-176.348C1163.81,-173.501 1240.44,-163.612 1299,-132 1324.53,-118.222 1345.69,-90.1519 1355.35,-75.8314"/>
<polygon fill="midnightblue" stroke="midnightblue" points="1111.5,-172.855 1101.68,-176.827 1111.83,-179.847 1111.5,-172.855"/>
</g>
<!-- Node14 -->
<g id="node14" class="node"><title>Node14</title>
<g id="a_node14"><a xlink:href="_graphics_square_8cpp.html" target="_top" xlink:title="GraphicsSquare.cpp">
<polygon fill="white" stroke="black" points="1178.5,-56.5 1178.5,-75.5 1283.5,-75.5 1283.5,-56.5 1178.5,-56.5"/>
<text text-anchor="middle" x="1231" y="-63.5" font-family="Helvetica,sans-Serif" font-size="10.00">GraphicsSquare.cpp</text>
</a>
</g>
</g>
<!-- Node6&#45;&gt;Node14 -->
<g id="edge21" class="edge"><title>Node6&#45;&gt;Node14</title>
<path fill="none" stroke="midnightblue" d="M1111.76,-173.725C1172.33,-168.976 1260.83,-157.734 1282,-132 1298.4,-112.061 1266.53,-88.0262 1246.15,-75.5128"/>
<polygon fill="midnightblue" stroke="midnightblue" points="1111.25,-170.253 1101.54,-174.486 1111.77,-177.234 1111.25,-170.253"/>
</g>
<!-- Node15 -->
<g id="node15" class="node"><title>Node15</title>
<g id="a_node15"><a xlink:href="_graphics_triangle_8cpp.html" target="_top" xlink:title="GraphicsTriangle.cpp">
<polygon fill="white" stroke="black" points="665.5,-56.5 665.5,-75.5 774.5,-75.5 774.5,-56.5 665.5,-56.5"/>
<text text-anchor="middle" x="720" y="-63.5" font-family="Helvetica,sans-Serif" font-size="10.00">GraphicsTriangle.cpp</text>
</a>
</g>
</g>
<!-- Node6&#45;&gt;Node15 -->
<g id="edge22" class="edge"><title>Node6&#45;&gt;Node15</title>
<path fill="none" stroke="midnightblue" d="M993.96,-175.967C913.753,-173.349 776.081,-164.155 739,-132 722.479,-117.673 719.935,-89.852 719.779,-75.7085"/>
<polygon fill="midnightblue" stroke="midnightblue" points="994.301,-179.479 1004.4,-176.281 994.511,-172.482 994.301,-179.479"/>
</g>
<!-- Node16 -->
<g id="node16" class="node"><title>Node16</title>
<g id="a_node16"><a xlink:href="_graphics_point_8cpp.html" target="_top" xlink:title="GraphicsPoint.cpp">
<polygon fill="white" stroke="black" points="1176.5,-112.5 1176.5,-131.5 1273.5,-131.5 1273.5,-112.5 1176.5,-112.5"/>
<text text-anchor="middle" x="1225" y="-119.5" font-family="Helvetica,sans-Serif" font-size="10.00">GraphicsPoint.cpp</text>
</a>
</g>
</g>
<!-- Node6&#45;&gt;Node16 -->
<g id="edge18" class="edge"><title>Node6&#45;&gt;Node16</title>
<path fill="none" stroke="midnightblue" d="M1089.83,-165.436C1122.26,-155.255 1168.74,-140.664 1197.87,-131.516"/>
<polygon fill="midnightblue" stroke="midnightblue" points="1088.75,-162.109 1080.25,-168.444 1090.84,-168.787 1088.75,-162.109"/>
</g>
<!-- Node8 -->
<g id="node8" class="node"><title>Node8</title>
<g id="a_node8"><a xlink:href="_graphics_anchor_8cpp.html" target="_top" xlink:title="GraphicsAnchor.cpp">
<polygon fill="white" stroke="black" points="911.5,-56.5 911.5,-75.5 1016.5,-75.5 1016.5,-56.5 911.5,-56.5"/>
<text text-anchor="middle" x="964" y="-63.5" font-family="Helvetica,sans-Serif" font-size="10.00">GraphicsAnchor.cpp</text>
</a>
</g>
</g>
<!-- Node7&#45;&gt;Node8 -->
<g id="edge7" class="edge"><title>Node7&#45;&gt;Node8</title>
<path fill="none" stroke="midnightblue" d="M959.45,-102.101C960.612,-93.1357 961.944,-82.8579 962.866,-75.7511"/>
<polygon fill="midnightblue" stroke="midnightblue" points="955.971,-101.716 958.156,-112.083 962.912,-102.616 955.971,-101.716"/>
</g>
<!-- Node7&#45;&gt;Node9 -->
<g id="edge8" class="edge"><title>Node7&#45;&gt;Node9</title>
<path fill="none" stroke="midnightblue" d="M929.758,-108.096C908.46,-98.0073 879.458,-84.2697 860.979,-75.5164"/>
<polygon fill="midnightblue" stroke="midnightblue" points="928.401,-111.326 938.936,-112.444 931.397,-105 928.401,-111.326"/>
</g>
<!-- Node7&#45;&gt;Node10 -->
<g id="edge9" class="edge"><title>Node7&#45;&gt;Node10</title>
<path fill="none" stroke="midnightblue" d="M894.271,-115.047C781.24,-104.32 545.393,-81.9371 440.383,-71.9714"/>
<polygon fill="midnightblue" stroke="midnightblue" points="894.204,-118.556 904.49,-116.017 894.865,-111.587 894.204,-118.556"/>
</g>
<!-- Node7&#45;&gt;Node11 -->
<g id="edge10" class="edge"><title>Node7&#45;&gt;Node11</title>
<path fill="none" stroke="midnightblue" d="M986.007,-108.368C1009.23,-98.2553 1041.16,-84.3486 1061.44,-75.5164"/>
<polygon fill="midnightblue" stroke="midnightblue" points="984.419,-105.242 976.648,-112.444 987.214,-111.66 984.419,-105.242"/>
</g>
<!-- Node7&#45;&gt;Node12 -->
<g id="edge11" class="edge"><title>Node7&#45;&gt;Node12</title>
<path fill="none" stroke="midnightblue" d="M894.359,-111.733C824.753,-101.435 713.443,-84.9669 647.057,-75.1454"/>
<polygon fill="midnightblue" stroke="midnightblue" points="893.911,-115.204 904.316,-113.206 894.936,-108.28 893.911,-115.204"/>
</g>
<!-- Node7&#45;&gt;Node13 -->
<g id="edge12" class="edge"><title>Node7&#45;&gt;Node13</title>
<path fill="none" stroke="midnightblue" d="M1019.91,-111.904C1070.24,-105.085 1217.3,-85.8076 1301.17,-74.8288"/>
<polygon fill="midnightblue" stroke="midnightblue" points="1019.19,-108.47 1009.76,-113.293 1020.14,-115.405 1019.19,-108.47"/>
</g>
<!-- Node7&#45;&gt;Node14 -->
<g id="edge13" class="edge"><title>Node7&#45;&gt;Node14</title>
<path fill="none" stroke="midnightblue" d="M1010.41,-110.473C1062.2,-100.268 1139.77,-84.9794 1187.79,-75.5164"/>
<polygon fill="midnightblue" stroke="midnightblue" points="1009.55,-107.076 1000.42,-112.444 1010.9,-113.944 1009.55,-107.076"/>
</g>
<!-- Node7&#45;&gt;Node15 -->
<g id="edge14" class="edge"><title>Node7&#45;&gt;Node15</title>
<path fill="none" stroke="midnightblue" d="M909.676,-110.217C864.892,-100.013 798.564,-84.9006 757.378,-75.5164"/>
<polygon fill="midnightblue" stroke="midnightblue" points="908.919,-113.634 919.447,-112.444 910.474,-106.809 908.919,-113.634"/>
</g>
<!-- Node18 -->
<g id="node18" class="node"><title>Node18</title>
<g id="a_node18"><a xlink:href="_graphics_blink_animation_8hpp.html" target="_top" xlink:title="GraphicsBlinkAnimation.hpp">
<polygon fill="white" stroke="black" points="16,-56.5 16,-75.5 156,-75.5 156,-56.5 16,-56.5"/>
<text text-anchor="middle" x="86" y="-63.5" font-family="Helvetica,sans-Serif" font-size="10.00">GraphicsBlinkAnimation.hpp</text>
</a>
</g>
</g>
<!-- Node17&#45;&gt;Node18 -->
<g id="edge24" class="edge"><title>Node17&#45;&gt;Node18</title>
<path fill="none" stroke="midnightblue" d="M68.0086,-102.983C72.5916,-93.8168 77.9539,-83.0922 81.6245,-75.7511"/>
<polygon fill="midnightblue" stroke="midnightblue" points="64.8002,-101.573 63.4585,-112.083 71.0612,-104.704 64.8002,-101.573"/>
</g>
<!-- Node22 -->
<g id="node22" class="node"><title>Node22</title>
<g id="a_node22"><a xlink:href="_graphics_animation_8cpp.html" target="_top" xlink:title="GraphicsAnimation.cpp">
<polygon fill="white" stroke="black" points="174,-56.5 174,-75.5 292,-75.5 292,-56.5 174,-56.5"/>
<text text-anchor="middle" x="233" y="-63.5" font-family="Helvetica,sans-Serif" font-size="10.00">GraphicsAnimation.cpp</text>
</a>
</g>
</g>
<!-- Node17&#45;&gt;Node22 -->
<g id="edge28" class="edge"><title>Node17&#45;&gt;Node22</title>
<path fill="none" stroke="midnightblue" d="M96.2607,-109.436C129.067,-99.2551 176.083,-84.664 205.558,-75.5164"/>
<polygon fill="midnightblue" stroke="midnightblue" points="95.084,-106.137 86.5708,-112.444 97.1589,-112.822 95.084,-106.137"/>
</g>
<!-- Node19 -->
<g id="node19" class="node"><title>Node19</title>
<g id="a_node19"><a xlink:href="_graphics_blink_animation_8cpp.html" target="_top" xlink:title="GraphicsBlinkAnimation.cpp">
<polygon fill="white" stroke="black" points="16,-0.5 16,-19.5 156,-19.5 156,-0.5 16,-0.5"/>
<text text-anchor="middle" x="86" y="-7.5" font-family="Helvetica,sans-Serif" font-size="10.00">GraphicsBlinkAnimation.cpp</text>
</a>
</g>
</g>
<!-- Node18&#45;&gt;Node19 -->
<g id="edge25" class="edge"><title>Node18&#45;&gt;Node19</title>
<path fill="none" stroke="midnightblue" d="M86,-45.8045C86,-36.9102 86,-26.7798 86,-19.7511"/>
<polygon fill="midnightblue" stroke="midnightblue" points="82.5001,-46.083 86,-56.083 89.5001,-46.083 82.5001,-46.083"/>
</g>
<!-- Node20 -->
<g id="node20" class="node"><title>Node20</title>
<g id="a_node20"><a xlink:href="_button_8cpp.html" target="_top" xlink:title="Button.cpp">
<polygon fill="white" stroke="black" points="1536,-0.5 1536,-19.5 1600,-19.5 1600,-0.5 1536,-0.5"/>
<text text-anchor="middle" x="1568" y="-7.5" font-family="Helvetica,sans-Serif" font-size="10.00">Button.cpp</text>
</a>
</g>
</g>
<!-- Node18&#45;&gt;Node20 -->
<g id="edge26" class="edge"><title>Node18&#45;&gt;Node20</title>
<path fill="none" stroke="midnightblue" d="M166.382,-55.9649C720.648,-16.0454 1383.65,-11.5729 1535.83,-11.0648"/>
<polygon fill="midnightblue" stroke="midnightblue" points="165.904,-52.4903 156.184,-56.7044 166.41,-59.472 165.904,-52.4903"/>
</g>
<!-- Node21 -->
<g id="node21" class="node"><title>Node21</title>
<g id="a_node21"><a xlink:href="_line_edit_8cpp.html" target="_top" xlink:title="LineEdit.cpp">
<polygon fill="white" stroke="black" points="806.5,-0.5 806.5,-19.5 877.5,-19.5 877.5,-0.5 806.5,-0.5"/>
<text text-anchor="middle" x="842" y="-7.5" font-family="Helvetica,sans-Serif" font-size="10.00">LineEdit.cpp</text>
</a>
</g>
</g>
<!-- Node18&#45;&gt;Node21 -->
<g id="edge27" class="edge"><title>Node18&#45;&gt;Node21</title>
<path fill="none" stroke="midnightblue" d="M166.249,-55.9273C417.664,-33.5031 706.887,-17.8609 806.354,-12.7768"/>
<polygon fill="midnightblue" stroke="midnightblue" points="165.841,-52.4498 156.194,-56.8297 166.467,-59.4218 165.841,-52.4498"/>
</g>
<!-- Node24 -->
<g id="node24" class="node"><title>Node24</title>
<g id="a_node24"><a xlink:href="_graphics_circle_8hpp.html" target="_top" xlink:title="GraphicsCircle.hpp">
<polygon fill="white" stroke="black" points="748,-112.5 748,-131.5 848,-131.5 848,-112.5 748,-112.5"/>
<text text-anchor="middle" x="798" y="-119.5" font-family="Helvetica,sans-Serif" font-size="10.00">GraphicsCircle.hpp</text>
</a>
</g>
</g>
<!-- Node23&#45;&gt;Node24 -->
<g id="edge30" class="edge"><title>Node23&#45;&gt;Node24</title>
<path fill="none" stroke="midnightblue" d="M723.837,-163.453C742.114,-153.483 766.416,-140.228 782.133,-131.655"/>
<polygon fill="midnightblue" stroke="midnightblue" points="722.009,-160.463 714.906,-168.324 725.361,-166.608 722.009,-160.463"/>
</g>
<!-- Node25 -->
<g id="node25" class="node"><title>Node25</title>
<g id="a_node25"><a xlink:href="_graphics_ellipse_8hpp.html" target="_top" xlink:title="GraphicsEllipse.hpp">
<polygon fill="white" stroke="black" points="136,-112.5 136,-131.5 240,-131.5 240,-112.5 136,-112.5"/>
<text text-anchor="middle" x="188" y="-119.5" font-family="Helvetica,sans-Serif" font-size="10.00">GraphicsEllipse.hpp</text>
</a>
</g>
</g>
<!-- Node23&#45;&gt;Node25 -->
<g id="edge32" class="edge"><title>Node23&#45;&gt;Node25</title>
<path fill="none" stroke="midnightblue" d="M637.986,-167.943C464.501,-147.281 418.627,-152.327 249,-132 246.13,-131.656 243.187,-131.285 240.218,-130.895"/>
<polygon fill="midnightblue" stroke="midnightblue" points="637.617,-171.424 647.964,-169.143 638.453,-164.474 637.617,-171.424"/>
</g>
<!-- Node26 -->
<g id="node26" class="node"><title>Node26</title>
<g id="a_node26"><a xlink:href="_graphics_line_8hpp.html" target="_top" xlink:title="GraphicsLine.hpp">
<polygon fill="white" stroke="black" points="1028,-112.5 1028,-131.5 1120,-131.5 1120,-112.5 1028,-112.5"/>
<text text-anchor="middle" x="1074" y="-119.5" font-family="Helvetica,sans-Serif" font-size="10.00">GraphicsLine.hpp</text>
</a>
</g>
</g>
<!-- Node23&#45;&gt;Node26 -->
<g id="edge34" class="edge"><title>Node23&#45;&gt;Node26</title>
<path fill="none" stroke="midnightblue" d="M760.111,-168.734C824.36,-159.961 928.363,-145.524 1018,-132 1021.21,-131.515 1024.53,-131.006 1027.87,-130.486"/>
<polygon fill="midnightblue" stroke="midnightblue" points="759.585,-165.274 750.149,-170.093 760.531,-172.209 759.585,-165.274"/>
</g>
<!-- Node28 -->
<g id="node28" class="node"><title>Node28</title>
<g id="a_node28"><a xlink:href="_graphics_polygon_8hpp.html" target="_top" xlink:title="GraphicsPolygon.hpp">
<polygon fill="white" stroke="black" points="416,-112.5 416,-131.5 526,-131.5 526,-112.5 416,-112.5"/>
<text text-anchor="middle" x="471" y="-119.5" font-family="Helvetica,sans-Serif" font-size="10.00">GraphicsPolygon.hpp</text>
</a>
</g>
</g>
<!-- Node23&#45;&gt;Node28 -->
<g id="edge39" class="edge"><title>Node23&#45;&gt;Node28</title>
<path fill="none" stroke="midnightblue" d="M652.929,-166.088C609.854,-155.887 546.414,-140.861 506.958,-131.516"/>
<polygon fill="midnightblue" stroke="midnightblue" points="652.335,-169.545 662.873,-168.444 653.949,-162.733 652.335,-169.545"/>
</g>
<!-- Node29 -->
<g id="node29" class="node"><title>Node29</title>
<g id="a_node29"><a xlink:href="_graphics_triangle_8hpp.html" target="_top" xlink:title="Classe GraphicsTriangle. ">
<polygon fill="white" stroke="black" points="544.5,-112.5 544.5,-131.5 653.5,-131.5 653.5,-112.5 544.5,-112.5"/>
<text text-anchor="middle" x="599" y="-119.5" font-family="Helvetica,sans-Serif" font-size="10.00">GraphicsTriangle.hpp</text>
</a>
</g>
</g>
<!-- Node23&#45;&gt;Node29 -->
<g id="edge41" class="edge"><title>Node23&#45;&gt;Node29</title>
<path fill="none" stroke="midnightblue" d="M673.912,-163.453C655.451,-153.483 630.903,-140.228 615.027,-131.655"/>
<polygon fill="midnightblue" stroke="midnightblue" points="672.471,-166.652 682.933,-168.324 675.797,-160.493 672.471,-166.652"/>
</g>
<!-- Node30 -->
<g id="node30" class="node"><title>Node30</title>
<g id="a_node30"><a xlink:href="_graphics_shape_8cpp.html" target="_top" xlink:title="GraphicsShape.cpp">
<polygon fill="white" stroke="black" points="258,-112.5 258,-131.5 360,-131.5 360,-112.5 258,-112.5"/>
<text text-anchor="middle" x="309" y="-119.5" font-family="Helvetica,sans-Serif" font-size="10.00">GraphicsShape.cpp</text>
</a>
</g>
</g>
<!-- Node23&#45;&gt;Node30 -->
<g id="edge43" class="edge"><title>Node23&#45;&gt;Node30</title>
<path fill="none" stroke="midnightblue" d="M637.772,-167.84C519.652,-151.008 488.537,-147.709 374,-132 369.485,-131.381 364.795,-130.735 360.093,-130.087"/>
<polygon fill="midnightblue" stroke="midnightblue" points="637.55,-171.344 647.944,-169.292 638.539,-164.414 637.55,-171.344"/>
</g>
<!-- Node24&#45;&gt;Node9 -->
<g id="edge31" class="edge"><title>Node24&#45;&gt;Node9</title>
<path fill="none" stroke="midnightblue" d="M812.047,-104.144C819.887,-94.7357 829.329,-83.4046 835.707,-75.7511"/>
<polygon fill="midnightblue" stroke="midnightblue" points="809.144,-102.16 805.431,-112.083 814.521,-106.641 809.144,-102.16"/>
</g>
<!-- Node25&#45;&gt;Node10 -->
<g id="edge33" class="edge"><title>Node25&#45;&gt;Node10</title>
<path fill="none" stroke="midnightblue" d="M229.374,-109.829C267.136,-99.6333 322.14,-84.7823 356.458,-75.5164"/>
<polygon fill="midnightblue" stroke="midnightblue" points="228.433,-106.458 219.691,-112.444 230.257,-113.216 228.433,-106.458"/>
</g>
<!-- Node26&#45;&gt;Node11 -->
<g id="edge35" class="edge"><title>Node26&#45;&gt;Node11</title>
<path fill="none" stroke="midnightblue" d="M1076.45,-102.101C1077.61,-93.1357 1078.94,-82.8579 1079.87,-75.7511"/>
<polygon fill="midnightblue" stroke="midnightblue" points="1072.97,-101.716 1075.16,-112.083 1079.91,-102.616 1072.97,-101.716"/>
</g>
<!-- Node27 -->
<g id="node27" class="node"><title>Node27</title>
<g id="a_node27"><a xlink:href="_line_edit_8hpp.html" target="_top" xlink:title="LineEdit.hpp">
<polygon fill="white" stroke="black" points="1438.5,-56.5 1438.5,-75.5 1509.5,-75.5 1509.5,-56.5 1438.5,-56.5"/>
<text text-anchor="middle" x="1474" y="-63.5" font-family="Helvetica,sans-Serif" font-size="10.00">LineEdit.hpp</text>
</a>
</g>
</g>
<!-- Node26&#45;&gt;Node27 -->
<g id="edge36" class="edge"><title>Node26&#45;&gt;Node27</title>
<path fill="none" stroke="midnightblue" d="M1130.05,-115.145C1200.17,-107.533 1323.81,-93.1639 1429,-76 1431.99,-75.5125 1435.08,-74.9713 1438.18,-74.4033"/>
<polygon fill="midnightblue" stroke="midnightblue" points="1129.67,-111.665 1120.11,-116.218 1130.42,-118.625 1129.67,-111.665"/>
</g>
<!-- Node27&#45;&gt;Node4 -->
<g id="edge37" class="edge"><title>Node27&#45;&gt;Node4</title>
<path fill="none" stroke="midnightblue" d="M1515.44,-53.6986C1552.81,-43.507 1606.94,-28.7429 1640.77,-19.5164"/>
<polygon fill="midnightblue" stroke="midnightblue" points="1514.1,-50.4356 1505.37,-56.4435 1515.94,-57.189 1514.1,-50.4356"/>
</g>
<!-- Node27&#45;&gt;Node21 -->
<g id="edge38" class="edge"><title>Node27&#45;&gt;Node21</title>
<path fill="none" stroke="midnightblue" d="M1428.01,-56.0389C1213.35,-26.9974 967.837,-15.6631 877.559,-12.2276"/>
<polygon fill="midnightblue" stroke="midnightblue" points="1427.82,-59.5462 1438.2,-57.4352 1428.77,-52.6109 1427.82,-59.5462"/>
</g>
<!-- Node28&#45;&gt;Node12 -->
<g id="edge40" class="edge"><title>Node28&#45;&gt;Node12</title>
<path fill="none" stroke="midnightblue" d="M499.306,-108.368C521.965,-98.2553 553.126,-84.3486 572.917,-75.5164"/>
<polygon fill="midnightblue" stroke="midnightblue" points="497.878,-105.172 490.173,-112.444 500.731,-111.564 497.878,-105.172"/>
</g>
<!-- Node29&#45;&gt;Node15 -->
<g id="edge42" class="edge"><title>Node29&#45;&gt;Node15</title>
<path fill="none" stroke="midnightblue" d="M627.306,-108.368C649.965,-98.2553 681.126,-84.3486 700.917,-75.5164"/>
<polygon fill="midnightblue" stroke="midnightblue" points="625.878,-105.172 618.173,-112.444 628.731,-111.564 625.878,-105.172"/>
</g>
<!-- Node31&#45;&gt;Node13 -->
<g id="edge45" class="edge"><title>Node31&#45;&gt;Node13</title>
<path fill="none" stroke="midnightblue" d="M1440.19,-107.726C1420.75,-97.7271 1394.65,-84.3065 1377.83,-75.6545"/>
<polygon fill="midnightblue" stroke="midnightblue" points="1438.64,-110.863 1449.13,-112.324 1441.84,-104.638 1438.64,-110.863"/>
</g>
<!-- Node31&#45;&gt;Node27 -->
<g id="edge49" class="edge"><title>Node31&#45;&gt;Node27</title>
<path fill="none" stroke="midnightblue" d="M1468.8,-102.101C1470.13,-93.1357 1471.65,-82.8579 1472.7,-75.7511"/>
<polygon fill="midnightblue" stroke="midnightblue" points="1465.32,-101.678 1467.32,-112.083 1472.25,-102.704 1465.32,-101.678"/>
</g>
<!-- Node32 -->
<g id="node32" class="node"><title>Node32</title>
<g id="a_node32"><a xlink:href="_button_8hpp.html" target="_top" xlink:title="Classe Button. ">
<polygon fill="white" stroke="black" points="1640,-56.5 1640,-75.5 1704,-75.5 1704,-56.5 1640,-56.5"/>
<text text-anchor="middle" x="1672" y="-63.5" font-family="Helvetica,sans-Serif" font-size="10.00">Button.hpp</text>
</a>
</g>
</g>
<!-- Node31&#45;&gt;Node32 -->
<g id="edge46" class="edge"><title>Node31&#45;&gt;Node32</title>
<path fill="none" stroke="midnightblue" d="M1508.65,-109.821C1547.66,-99.5929 1604.54,-84.6847 1639.85,-75.4275"/>
<polygon fill="midnightblue" stroke="midnightblue" points="1507.43,-106.522 1498.64,-112.444 1509.2,-113.293 1507.43,-106.522"/>
</g>
<!-- Node32&#45;&gt;Node4 -->
<g id="edge47" class="edge"><title>Node32&#45;&gt;Node4</title>
<path fill="none" stroke="midnightblue" d="M1672,-45.8045C1672,-36.9102 1672,-26.7798 1672,-19.7511"/>
<polygon fill="midnightblue" stroke="midnightblue" points="1668.5,-46.083 1672,-56.083 1675.5,-46.083 1668.5,-46.083"/>
</g>
<!-- Node32&#45;&gt;Node20 -->
<g id="edge48" class="edge"><title>Node32&#45;&gt;Node20</title>
<path fill="none" stroke="midnightblue" d="M1646.17,-51.5895C1626.94,-41.6052 1601.26,-28.2672 1584.67,-19.6545"/>
<polygon fill="midnightblue" stroke="midnightblue" points="1644.8,-54.822 1655.29,-56.324 1648.03,-48.6095 1644.8,-54.822"/>
</g>
<!-- Node33&#45;&gt;Node14 -->
<g id="edge51" class="edge"><title>Node33&#45;&gt;Node14</title>
<path fill="none" stroke="midnightblue" d="M1336.87,-158.395C1333.68,-144.286 1327.5,-125.144 1316,-112 1300.61,-94.4071 1276.63,-82.5981 1258.06,-75.5085"/>
<polygon fill="midnightblue" stroke="midnightblue" points="1333.47,-159.28 1338.83,-168.42 1340.34,-157.934 1333.47,-159.28"/>
</g>
<!-- Node34&#45;&gt;Node27 -->
<g id="edge55" class="edge"><title>Node34&#45;&gt;Node27</title>
<path fill="none" stroke="midnightblue" d="M1563.34,-108.232C1541.45,-98.1312 1511.5,-84.3091 1492.45,-75.5164"/>
<polygon fill="midnightblue" stroke="midnightblue" points="1561.91,-111.431 1572.46,-112.444 1564.85,-105.075 1561.91,-111.431"/>
</g>
<!-- Node34&#45;&gt;Node32 -->
<g id="edge54" class="edge"><title>Node34&#45;&gt;Node32</title>
<path fill="none" stroke="midnightblue" d="M1612.57,-106.622C1627.36,-96.7574 1646.51,-83.9919 1659.02,-75.6545"/>
<polygon fill="midnightblue" stroke="midnightblue" points="1610.39,-103.865 1604.01,-112.324 1614.28,-109.689 1610.39,-103.865"/>
</g>
<!-- Node35 -->
<g id="node35" class="node"><title>Node35</title>
<g id="a_node35"><a xlink:href="_graphics_text_8cpp.html" target="_top" xlink:title="GraphicsText.cpp">
<polygon fill="white" stroke="black" points="1528,-56.5 1528,-75.5 1622,-75.5 1622,-56.5 1528,-56.5"/>
<text text-anchor="middle" x="1575" y="-63.5" font-family="Helvetica,sans-Serif" font-size="10.00">GraphicsText.cpp</text>
</a>
</g>
</g>
<!-- Node34&#45;&gt;Node35 -->
<g id="edge53" class="edge"><title>Node34&#45;&gt;Node35</title>
<path fill="none" stroke="midnightblue" d="M1585.49,-102.396C1582.81,-93.362 1579.72,-82.936 1577.59,-75.7511"/>
<polygon fill="midnightblue" stroke="midnightblue" points="1582.16,-103.489 1588.36,-112.083 1588.87,-101.501 1582.16,-103.489"/>
</g>
<!-- Node37&#45;&gt;Node27 -->
<g id="edge59" class="edge"><title>Node37&#45;&gt;Node27</title>
<path fill="none" stroke="midnightblue" d="M1645.99,-110.198C1605.35,-99.9909 1545.21,-84.8844 1507.87,-75.5069"/>
<polygon fill="midnightblue" stroke="midnightblue" points="1645.33,-113.639 1655.88,-112.681 1647.03,-106.85 1645.33,-113.639"/>
</g>
<!-- Node37&#45;&gt;Node32 -->
<g id="edge58" class="edge"><title>Node37&#45;&gt;Node32</title>
<path fill="none" stroke="midnightblue" d="M1683.14,-102.396C1680.3,-93.362 1677.02,-82.936 1674.75,-75.7511"/>
<polygon fill="midnightblue" stroke="midnightblue" points="1679.85,-103.596 1686.19,-112.083 1686.53,-101.493 1679.85,-103.596"/>
</g>
<!-- Node38 -->
<g id="node38" class="node"><title>Node38</title>
<g id="a_node38"><a xlink:href="_widget_8cpp.html" target="_top" xlink:title="Widget.cpp">
<polygon fill="white" stroke="black" points="1722,-56.5 1722,-75.5 1788,-75.5 1788,-56.5 1722,-56.5"/>
<text text-anchor="middle" x="1755" y="-63.5" font-family="Helvetica,sans-Serif" font-size="10.00">Widget.cpp</text>
</a>
</g>
</g>
<!-- Node37&#45;&gt;Node38 -->
<g id="edge60" class="edge"><title>Node37&#45;&gt;Node38</title>
<path fill="none" stroke="midnightblue" d="M1707.55,-105.82C1719.38,-96.1452 1734.29,-83.9481 1744.2,-75.8339"/>
<polygon fill="midnightblue" stroke="midnightblue" points="1705.13,-103.283 1699.6,-112.324 1709.56,-108.7 1705.13,-103.283"/>
</g>
</g>
</svg>
        <g id="navigator" transform="translate(0 0)" fill="#404254">
                <rect fill="#f2f5e9" fill-opacity="0.5" stroke="#606060" stroke-width=".5" x="0" y="0" width="60" height="60"/>
                <use id="zoomplus" xlink:href="#zoomPlus" x="17" y="9" onmousedown="handleZoom(evt,'in')"/>
                <use id="zoomminus" xlink:href="#zoomMin" x="42" y="9" onmousedown="handleZoom(evt,'out')"/>
                <use id="reset" xlink:href="#resetDef" x="30" y="36" onmousedown="handleReset()"/>
                <g id="arrowUp" xlink:href="#dirArrow" transform="translate(30 24)" onmousedown="handlePan(0,-1)">
                  <use xlink:href="#rim" fill="#404040">
                        <set attributeName="fill" to="#808080" begin="arrowUp.mouseover" end="arrowUp.mouseout"/>
                  </use>
                  <path fill="none" stroke="white" stroke-width="1.5" d="M0,-3.0v7 M-2.5,-0.5L0,-3.0L2.5,-0.5"/>
                </g>
                <g id="arrowRight" xlink:href="#dirArrow" transform="rotate(90) translate(36 -43)" onmousedown="handlePan(1,0)">
                  <use xlink:href="#rim" fill="#404040">
                        <set attributeName="fill" to="#808080" begin="arrowRight.mouseover" end="arrowRight.mouseout"/>
                  </use>
                  <path fill="none" stroke="white" stroke-width="1.5" d="M0,-3.0v7 M-2.5,-0.5L0,-3.0L2.5,-0.5"/>
                </g>
                <g id="arrowDown" xlink:href="#dirArrow" transform="rotate(180) translate(-30 -48)" onmousedown="handlePan(0,1)">
                  <use xlink:href="#rim" fill="#404040">
                        <set attributeName="fill" to="#808080" begin="arrowDown.mouseover" end="arrowDown.mouseout"/>
                  </use>
                  <path fill="none" stroke="white" stroke-width="1.5" d="M0,-3.0v7 M-2.5,-0.5L0,-3.0L2.5,-0.5"/>
                </g>
                <g id="arrowLeft" xlink:href="#dirArrow" transform="rotate(270) translate(-36 17)" onmousedown="handlePan(-1,0)">
                  <use xlink:href="#rim" fill="#404040">
                        <set attributeName="fill" to="#808080" begin="arrowLeft.mouseover" end="arrowLeft.mouseout"/>
                  </use>
                  <path fill="none" stroke="white" stroke-width="1.5" d="M0,-3.0v7 M-2.5,-0.5L0,-3.0L2.5,-0.5"/>
                </g>
        </g>
        <svg viewBox="0 0 15 15" width="100%" height="30px" preserveAspectRatio="xMaxYMin meet">
         <g id="arrow_out" transform="scale(0.3 0.3)">
          <a xlink:href="_graphics_item_8hpp__dep__incl_org.svg" target="_base">
           <rect id="button" ry="5" rx="5" y="6" x="6" height="38" width="38"
                fill="#f2f5e9" fill-opacity="0.5" stroke="#606060" stroke-width="1.0"/>
           <path id="arrow"
             d="M 11.500037,31.436501 C 11.940474,20.09759 22.043105,11.32322 32.158766,21.979434 L 37.068811,17.246167 C 37.068811,17.246167 37.088388,32 37.088388,32 L 22.160133,31.978069 C 22.160133,31.978069 26.997745,27.140456 26.997745,27.140456 C 18.528582,18.264221 13.291696,25.230495 11.500037,31.436501 z"
             style="fill:#404040;"/>
          </a>
         </g>
        </svg>
</svg>
