<?xml version="1.0" encoding="UTF-8" standalone="no"?>
<!DOCTYPE svg PUBLIC "-//W3C//DTD SVG 1.1//EN"
 "http://www.w3.org/Graphics/SVG/1.1/DTD/svg11.dtd">
<!-- Generated by graphviz version 2.36.0 (20140111.2315)
 -->
<!-- Title: GraphicsAnimation.cpp Pages: 1 -->
<svg width="662pt" height="308pt"
 viewBox="0.00 0.00 662.00 308.00" xmlns="http://www.w3.org/2000/svg" xmlns:xlink="http://www.w3.org/1999/xlink">
<g id="graph0" class="graph" transform="scale(1 1) rotate(0) translate(4 304)">
<title>GraphicsAnimation.cpp</title>
<polygon fill="white" stroke="none" points="-4,4 -4,-304 658,-304 658,4 -4,4"/>
<!-- Node1 -->
<g id="node1" class="node"><title>Node1</title>
<polygon fill="#bfbfbf" stroke="black" points="408,-280.5 408,-299.5 526,-299.5 526,-280.5 408,-280.5"/>
<text text-anchor="middle" x="467" y="-287.5" font-family="Helvetica,sans-Serif" font-size="10.00">GraphicsAnimation.cpp</text>
</g>
<!-- Node2 -->
<g id="node2" class="node"><title>Node2</title>
<g id="a_node2"><a xlink:href="_graphics_animation_8hpp.html" target="_top" xlink:title="../include/GraphicsAnimation.hpp">
<polygon fill="white" stroke="black" points="386.5,-224.5 386.5,-243.5 547.5,-243.5 547.5,-224.5 386.5,-224.5"/>
<text text-anchor="middle" x="467" y="-231.5" font-family="Helvetica,sans-Serif" font-size="10.00">../include/GraphicsAnimation.hpp</text>
</a>
</g>
</g>
<!-- Node1&#45;&gt;Node2 -->
<g id="edge1" class="edge"><title>Node1&#45;&gt;Node2</title>
<path fill="none" stroke="midnightblue" d="M467,-280.083C467,-273.006 467,-262.861 467,-253.986"/>
<polygon fill="midnightblue" stroke="midnightblue" points="470.5,-253.751 467,-243.751 463.5,-253.751 470.5,-253.751"/>
</g>
<!-- Node3 -->
<g id="node3" class="node"><title>Node3</title>
<g id="a_node3"><a xlink:href="_graphics_item_8hpp.html" target="_top" xlink:title="Classe GraphicsItem. ">
<polygon fill="white" stroke="black" points="420,-168.5 420,-187.5 514,-187.5 514,-168.5 420,-168.5"/>
<text text-anchor="middle" x="467" y="-175.5" font-family="Helvetica,sans-Serif" font-size="10.00">GraphicsItem.hpp</text>
</a>
</g>
</g>
<!-- Node2&#45;&gt;Node3 -->
<g id="edge2" class="edge"><title>Node2&#45;&gt;Node3</title>
<path fill="none" stroke="midnightblue" d="M467,-224.083C467,-217.006 467,-206.861 467,-197.986"/>
<polygon fill="midnightblue" stroke="midnightblue" points="470.5,-197.751 467,-187.751 463.5,-197.751 470.5,-197.751"/>
</g>
<!-- Node4 -->
<g id="node4" class="node"><title>Node4</title>
<polygon fill="white" stroke="#bfbfbf" points="0,-0.5 0,-19.5 44,-19.5 44,-0.5 0,-0.5"/>
<text text-anchor="middle" x="22" y="-7.5" font-family="Helvetica,sans-Serif" font-size="10.00">vector</text>
</g>
<!-- Node3&#45;&gt;Node4 -->
<g id="edge3" class="edge"><title>Node3&#45;&gt;Node4</title>
<path fill="none" stroke="midnightblue" d="M425.751,-168.471C389.914,-160.571 336.861,-147.692 292,-132 199.431,-99.6187 94.7631,-48.2372 47.5287,-24.2056"/>
<polygon fill="midnightblue" stroke="midnightblue" points="48.843,-20.9467 38.3461,-19.5094 45.6556,-27.1789 48.843,-20.9467"/>
</g>
<!-- Node5 -->
<g id="node5" class="node"><title>Node5</title>
<polygon fill="white" stroke="#bfbfbf" points="554,-112.5 554,-131.5 584,-131.5 584,-112.5 554,-112.5"/>
<text text-anchor="middle" x="569" y="-119.5" font-family="Helvetica,sans-Serif" font-size="10.00">set</text>
</g>
<!-- Node3&#45;&gt;Node5 -->
<g id="edge4" class="edge"><title>Node3&#45;&gt;Node5</title>
<path fill="none" stroke="midnightblue" d="M483.388,-168.324C500.057,-159.499 526.065,-145.73 545.044,-135.683"/>
<polygon fill="midnightblue" stroke="midnightblue" points="546.782,-138.723 553.982,-130.951 543.507,-132.536 546.782,-138.723"/>
</g>
<!-- Node6 -->
<g id="node6" class="node"><title>Node6</title>
<polygon fill="white" stroke="#bfbfbf" points="602,-112.5 602,-131.5 654,-131.5 654,-112.5 602,-112.5"/>
<text text-anchor="middle" x="628" y="-119.5" font-family="Helvetica,sans-Serif" font-size="10.00">memory</text>
</g>
<!-- Node3&#45;&gt;Node6 -->
<g id="edge5" class="edge"><title>Node3&#45;&gt;Node6</title>
<path fill="none" stroke="midnightblue" d="M492.511,-168.444C519.596,-159.359 562.59,-144.939 592.869,-134.783"/>
<polygon fill="midnightblue" stroke="midnightblue" points="594.24,-138.015 602.608,-131.516 592.014,-131.378 594.24,-138.015"/>
</g>
<!-- Node7 -->
<g id="node7" class="node"><title>Node7</title>
<g id="a_node7"><a xlink:href="_color_8hpp.html" target="_top" xlink:title="Classe Color. ">
<polygon fill="white" stroke="black" points="476.5,-112.5 476.5,-131.5 535.5,-131.5 535.5,-112.5 476.5,-112.5"/>
<text text-anchor="middle" x="506" y="-119.5" font-family="Helvetica,sans-Serif" font-size="10.00">Color.hpp</text>
</a>
</g>
</g>
<!-- Node3&#45;&gt;Node7 -->
<g id="edge6" class="edge"><title>Node3&#45;&gt;Node7</title>
<path fill="none" stroke="midnightblue" d="M473.44,-168.083C478.949,-160.455 487.031,-149.264 493.765,-139.941"/>
<polygon fill="midnightblue" stroke="midnightblue" points="496.662,-141.907 499.68,-131.751 490.987,-137.809 496.662,-141.907"/>
</g>
<!-- Node11 -->
<g id="node11" class="node"><title>Node11</title>
<g id="a_node11"><a xlink:href="_canvas_8hpp.html" target="_top" xlink:title="Canvas.hpp">
<polygon fill="white" stroke="black" points="301.5,-112.5 301.5,-131.5 370.5,-131.5 370.5,-112.5 301.5,-112.5"/>
<text text-anchor="middle" x="336" y="-119.5" font-family="Helvetica,sans-Serif" font-size="10.00">Canvas.hpp</text>
</a>
</g>
</g>
<!-- Node3&#45;&gt;Node11 -->
<g id="edge10" class="edge"><title>Node3&#45;&gt;Node11</title>
<path fill="none" stroke="midnightblue" d="M446.243,-168.444C424.684,-159.557 390.737,-145.563 366.206,-135.451"/>
<polygon fill="midnightblue" stroke="midnightblue" points="367.239,-132.092 356.66,-131.516 364.572,-138.563 367.239,-132.092"/>
</g>
<!-- Node19 -->
<g id="node19" class="node"><title>Node19</title>
<g id="a_node19"><a xlink:href="_event_8hpp.html" target="_top" xlink:title="Classe Event. ">
<polygon fill="white" stroke="black" points="397.5,-112.5 397.5,-131.5 458.5,-131.5 458.5,-112.5 397.5,-112.5"/>
<text text-anchor="middle" x="428" y="-119.5" font-family="Helvetica,sans-Serif" font-size="10.00">Event.hpp</text>
</a>
</g>
</g>
<!-- Node3&#45;&gt;Node19 -->
<g id="edge21" class="edge"><title>Node3&#45;&gt;Node19</title>
<path fill="none" stroke="midnightblue" d="M460.56,-168.083C455.051,-160.455 446.969,-149.264 440.235,-139.941"/>
<polygon fill="midnightblue" stroke="midnightblue" points="443.013,-137.809 434.32,-131.751 437.338,-141.907 443.013,-137.809"/>
</g>
<!-- Node8 -->
<g id="node8" class="node"><title>Node8</title>
<polygon fill="white" stroke="#bfbfbf" points="598,-56.5 598,-75.5 644,-75.5 644,-56.5 598,-56.5"/>
<text text-anchor="middle" x="621" y="-63.5" font-family="Helvetica,sans-Serif" font-size="10.00">cstdint</text>
</g>
<!-- Node7&#45;&gt;Node8 -->
<g id="edge7" class="edge"><title>Node7&#45;&gt;Node8</title>
<path fill="none" stroke="midnightblue" d="M524.222,-112.444C542.896,-103.675 572.156,-89.9355 593.617,-79.8579"/>
<polygon fill="midnightblue" stroke="midnightblue" points="595.299,-82.935 602.863,-75.5164 592.324,-76.5988 595.299,-82.935"/>
</g>
<!-- Node9 -->
<g id="node9" class="node"><title>Node9</title>
<polygon fill="white" stroke="#bfbfbf" points="538.5,-56.5 538.5,-75.5 579.5,-75.5 579.5,-56.5 538.5,-56.5"/>
<text text-anchor="middle" x="559" y="-63.5" font-family="Helvetica,sans-Serif" font-size="10.00">string</text>
</g>
<!-- Node7&#45;&gt;Node9 -->
<g id="edge8" class="edge"><title>Node7&#45;&gt;Node9</title>
<path fill="none" stroke="midnightblue" d="M514.752,-112.083C522.47,-104.22 533.905,-92.5688 543.217,-83.0813"/>
<polygon fill="midnightblue" stroke="midnightblue" points="545.904,-85.3396 550.411,-75.7511 540.908,-80.4363 545.904,-85.3396"/>
</g>
<!-- Node10 -->
<g id="node10" class="node"><title>Node10</title>
<polygon fill="white" stroke="#bfbfbf" points="374,-56.5 374,-75.5 482,-75.5 482,-56.5 374,-56.5"/>
<text text-anchor="middle" x="428" y="-63.5" font-family="Helvetica,sans-Serif" font-size="10.00">ez&#45;lib/ez&#45;draw++.hpp</text>
</g>
<!-- Node7&#45;&gt;Node10 -->
<g id="edge9" class="edge"><title>Node7&#45;&gt;Node10</title>
<path fill="none" stroke="midnightblue" d="M493.468,-112.324C481.414,-103.979 462.973,-91.2122 448.731,-81.3524"/>
<polygon fill="midnightblue" stroke="midnightblue" points="450.715,-78.469 440.501,-75.6545 446.731,-84.2243 450.715,-78.469"/>
</g>
<!-- Node11&#45;&gt;Node10 -->
<g id="edge11" class="edge"><title>Node11&#45;&gt;Node10</title>
<path fill="none" stroke="midnightblue" d="M350.781,-112.324C365.267,-103.822 387.573,-90.7288 404.493,-80.7975"/>
<polygon fill="midnightblue" stroke="midnightblue" points="406.403,-83.735 413.255,-75.6545 402.859,-77.6981 406.403,-83.735"/>
</g>
<!-- Node12 -->
<g id="node12" class="node"><title>Node12</title>
<g id="a_node12"><a xlink:href="_point_8hpp.html" target="_top" xlink:title="Classe point. ">
<polygon fill="white" stroke="black" points="224,-56.5 224,-75.5 282,-75.5 282,-56.5 224,-56.5"/>
<text text-anchor="middle" x="253" y="-63.5" font-family="Helvetica,sans-Serif" font-size="10.00">Point.hpp</text>
</a>
</g>
</g>
<!-- Node11&#45;&gt;Node12 -->
<g id="edge12" class="edge"><title>Node11&#45;&gt;Node12</title>
<path fill="none" stroke="midnightblue" d="M322.665,-112.324C309.838,-103.979 290.215,-91.2122 275.06,-81.3524"/>
<polygon fill="midnightblue" stroke="midnightblue" points="276.593,-78.1742 266.302,-75.6545 272.776,-84.0417 276.593,-78.1742"/>
</g>
<!-- Node18 -->
<g id="node18" class="node"><title>Node18</title>
<g id="a_node18"><a xlink:href="_font_8hpp.html" target="_top" xlink:title="Font.hpp">
<polygon fill="white" stroke="black" points="300.5,-56.5 300.5,-75.5 355.5,-75.5 355.5,-56.5 300.5,-56.5"/>
<text text-anchor="middle" x="328" y="-63.5" font-family="Helvetica,sans-Serif" font-size="10.00">Font.hpp</text>
</a>
</g>
</g>
<!-- Node11&#45;&gt;Node18 -->
<g id="edge19" class="edge"><title>Node11&#45;&gt;Node18</title>
<path fill="none" stroke="midnightblue" d="M334.679,-112.083C333.619,-104.927 332.094,-94.6353 330.769,-85.6911"/>
<polygon fill="midnightblue" stroke="midnightblue" points="334.224,-85.1302 329.296,-75.7511 327.3,-86.1561 334.224,-85.1302"/>
</g>
<!-- Node12&#45;&gt;Node4 -->
<g id="edge17" class="edge"><title>Node12&#45;&gt;Node4</title>
<path fill="none" stroke="midnightblue" d="M223.718,-58.9986C186.462,-51.2352 119.932,-36.947 54.0224,-20.1491"/>
<polygon fill="midnightblue" stroke="midnightblue" points="54.8625,-16.7513 44.3061,-17.653 53.1207,-23.5312 54.8625,-16.7513"/>
</g>
<!-- Node13 -->
<g id="node13" class="node"><title>Node13</title>
<polygon fill="white" stroke="#bfbfbf" points="139.5,-0.5 139.5,-19.5 240.5,-19.5 240.5,-0.5 139.5,-0.5"/>
<text text-anchor="middle" x="190" y="-7.5" font-family="Helvetica,sans-Serif" font-size="10.00">boost/uuid/uuid.hpp</text>
</g>
<!-- Node12&#45;&gt;Node13 -->
<g id="edge13" class="edge"><title>Node12&#45;&gt;Node13</title>
<path fill="none" stroke="midnightblue" d="M242.878,-56.324C233.474,-48.2631 219.256,-36.0765 207.931,-26.3695"/>
<polygon fill="midnightblue" stroke="midnightblue" points="210.177,-23.6844 200.306,-19.8339 205.621,-28.9993 210.177,-23.6844"/>
</g>
<!-- Node14 -->
<g id="node14" class="node"><title>Node14</title>
<polygon fill="white" stroke="#bfbfbf" points="259,-0.5 259,-19.5 411,-19.5 411,-0.5 259,-0.5"/>
<text text-anchor="middle" x="335" y="-7.5" font-family="Helvetica,sans-Serif" font-size="10.00">boost/uuid/uuid_generators.hpp</text>
</g>
<!-- Node12&#45;&gt;Node14 -->
<g id="edge14" class="edge"><title>Node12&#45;&gt;Node14</title>
<path fill="none" stroke="midnightblue" d="M266.175,-56.324C278.847,-47.979 298.233,-35.2122 313.206,-25.3524"/>
<polygon fill="midnightblue" stroke="midnightblue" points="315.431,-28.0776 321.858,-19.6545 311.581,-22.2313 315.431,-28.0776"/>
</g>
<!-- Node15 -->
<g id="node15" class="node"><title>Node15</title>
<polygon fill="white" stroke="#bfbfbf" points="483,-0.5 483,-19.5 537,-19.5 537,-0.5 483,-0.5"/>
<text text-anchor="middle" x="510" y="-7.5" font-family="Helvetica,sans-Serif" font-size="10.00">iostream</text>
</g>
<!-- Node12&#45;&gt;Node15 -->
<g id="edge15" class="edge"><title>Node12&#45;&gt;Node15</title>
<path fill="none" stroke="midnightblue" d="M282.021,-58.0091C285.049,-57.3147 288.085,-56.6333 291,-56 371.577,-38.4953 392.477,-37.7485 473,-20 473.101,-19.9778 473.202,-19.9555 473.303,-19.9331"/>
<polygon fill="midnightblue" stroke="midnightblue" points="473.988,-23.367 482.954,-17.722 472.424,-16.5438 473.988,-23.367"/>
</g>
<!-- Node16 -->
<g id="node16" class="node"><title>Node16</title>
<polygon fill="white" stroke="#bfbfbf" points="429.5,-0.5 429.5,-19.5 464.5,-19.5 464.5,-0.5 429.5,-0.5"/>
<text text-anchor="middle" x="447" y="-7.5" font-family="Helvetica,sans-Serif" font-size="10.00">map</text>
</g>
<!-- Node12&#45;&gt;Node16 -->
<g id="edge16" class="edge"><title>Node12&#45;&gt;Node16</title>
<path fill="none" stroke="midnightblue" d="M282.109,-57.7075C313.653,-49.6846 365.665,-36.1086 419.597,-19.9861"/>
<polygon fill="midnightblue" stroke="midnightblue" points="420.763,-23.2904 429.328,-17.0551 418.744,-16.5878 420.763,-23.2904"/>
</g>
<!-- Node17 -->
<g id="node17" class="node"><title>Node17</title>
<polygon fill="white" stroke="#bfbfbf" points="62.5,-0.5 62.5,-19.5 121.5,-19.5 121.5,-0.5 62.5,-0.5"/>
<text text-anchor="middle" x="92" y="-7.5" font-family="Helvetica,sans-Serif" font-size="10.00">functional</text>
</g>
<!-- Node12&#45;&gt;Node17 -->
<g id="edge18" class="edge"><title>Node12&#45;&gt;Node17</title>
<path fill="none" stroke="midnightblue" d="M227.489,-56.4435C200.404,-47.3591 157.41,-32.9388 127.131,-22.7831"/>
<polygon fill="midnightblue" stroke="midnightblue" points="127.986,-19.3781 117.392,-19.5164 125.76,-26.0148 127.986,-19.3781"/>
</g>
<!-- Node18&#45;&gt;Node15 -->
<g id="edge20" class="edge"><title>Node18&#45;&gt;Node15</title>
<path fill="none" stroke="midnightblue" d="M355.642,-56.7986C387.048,-47.4803 438.441,-32.2317 473.214,-21.9145"/>
<polygon fill="midnightblue" stroke="midnightblue" points="474.399,-25.2137 482.991,-19.0138 472.408,-18.5029 474.399,-25.2137"/>
</g>
<!-- Node19&#45;&gt;Node10 -->
<g id="edge23" class="edge"><title>Node19&#45;&gt;Node10</title>
<path fill="none" stroke="midnightblue" d="M428,-112.083C428,-105.006 428,-94.8611 428,-85.9865"/>
<polygon fill="midnightblue" stroke="midnightblue" points="431.5,-85.751 428,-75.7511 424.5,-85.7511 431.5,-85.751"/>
</g>
<!-- Node19&#45;&gt;Node15 -->
<g id="edge22" class="edge"><title>Node19&#45;&gt;Node15</title>
<path fill="none" stroke="midnightblue" d="M446.028,-112.391C460.226,-104.726 479.483,-92.2196 491,-76 500.679,-62.3699 505.467,-43.8287 507.812,-30.0367"/>
<polygon fill="midnightblue" stroke="midnightblue" points="511.328,-30.1716 509.261,-19.7804 504.396,-29.1926 511.328,-30.1716"/>
</g>
</g>
</svg>
