<?xml version="1.0" encoding="UTF-8" standalone="no"?>
<!DOCTYPE svg PUBLIC "-//W3C//DTD SVG 1.1//EN"
 "http://www.w3.org/Graphics/SVG/1.1/DTD/svg11.dtd">
<!-- Generated by graphviz version 2.36.0 (20140111.2315)
 -->
<!-- Title: GraphicsSquare.hpp Pages: 1 -->
<svg width="543pt" height="308pt"
 viewBox="0.00 0.00 543.00 308.00" xmlns="http://www.w3.org/2000/svg" xmlns:xlink="http://www.w3.org/1999/xlink">
<g id="graph0" class="graph" transform="scale(1 1) rotate(0) translate(4 304)">
<title>GraphicsSquare.hpp</title>
<polygon fill="white" stroke="none" points="-4,4 -4,-304 539,-304 539,4 -4,4"/>
<!-- Node1 -->
<g id="node1" class="node"><title>Node1</title>
<polygon fill="#bfbfbf" stroke="black" points="196.5,-280.5 196.5,-299.5 301.5,-299.5 301.5,-280.5 196.5,-280.5"/>
<text text-anchor="middle" x="249" y="-287.5" font-family="Helvetica,sans-Serif" font-size="10.00">GraphicsSquare.hpp</text>
</g>
<!-- Node2 -->
<g id="node2" class="node"><title>Node2</title>
<g id="a_node2"><a xlink:href="_graphics_item_8hpp.html" target="_top" xlink:title="Classe GraphicsItem. ">
<polygon fill="white" stroke="black" points="202,-224.5 202,-243.5 296,-243.5 296,-224.5 202,-224.5"/>
<text text-anchor="middle" x="249" y="-231.5" font-family="Helvetica,sans-Serif" font-size="10.00">GraphicsItem.hpp</text>
</a>
</g>
</g>
<!-- Node1&#45;&gt;Node2 -->
<g id="edge1" class="edge"><title>Node1&#45;&gt;Node2</title>
<path fill="none" stroke="midnightblue" d="M249,-280.083C249,-273.006 249,-262.861 249,-253.986"/>
<polygon fill="midnightblue" stroke="midnightblue" points="252.5,-253.751 249,-243.751 245.5,-253.751 252.5,-253.751"/>
</g>
<!-- Node3 -->
<g id="node3" class="node"><title>Node3</title>
<polygon fill="white" stroke="#bfbfbf" points="0,-56.5 0,-75.5 44,-75.5 44,-56.5 0,-56.5"/>
<text text-anchor="middle" x="22" y="-63.5" font-family="Helvetica,sans-Serif" font-size="10.00">vector</text>
</g>
<!-- Node2&#45;&gt;Node3 -->
<g id="edge2" class="edge"><title>Node2&#45;&gt;Node3</title>
<path fill="none" stroke="midnightblue" d="M216.113,-224.457C192.014,-217.206 159.241,-205.213 134,-188 90.8215,-158.555 52.2639,-109.564 33.6986,-83.8839"/>
<polygon fill="midnightblue" stroke="midnightblue" points="36.4323,-81.6883 27.7918,-75.557 30.7229,-85.7383 36.4323,-81.6883"/>
</g>
<!-- Node4 -->
<g id="node4" class="node"><title>Node4</title>
<polygon fill="white" stroke="#bfbfbf" points="417,-168.5 417,-187.5 447,-187.5 447,-168.5 417,-168.5"/>
<text text-anchor="middle" x="432" y="-175.5" font-family="Helvetica,sans-Serif" font-size="10.00">set</text>
</g>
<!-- Node2&#45;&gt;Node4 -->
<g id="edge3" class="edge"><title>Node2&#45;&gt;Node4</title>
<path fill="none" stroke="midnightblue" d="M281.573,-224.419C313.656,-215.804 363.969,-201.856 407,-188 407.102,-187.967 407.203,-187.934 407.305,-187.901"/>
<polygon fill="midnightblue" stroke="midnightblue" points="408.656,-191.139 416.986,-184.592 406.391,-184.515 408.656,-191.139"/>
</g>
<!-- Node5 -->
<g id="node5" class="node"><title>Node5</title>
<polygon fill="white" stroke="#bfbfbf" points="62,-56.5 62,-75.5 114,-75.5 114,-56.5 62,-56.5"/>
<text text-anchor="middle" x="88" y="-63.5" font-family="Helvetica,sans-Serif" font-size="10.00">memory</text>
</g>
<!-- Node2&#45;&gt;Node5 -->
<g id="edge4" class="edge"><title>Node2&#45;&gt;Node5</title>
<path fill="none" stroke="midnightblue" d="M227.352,-224.404C195.118,-210.362 135.276,-179.245 107,-132 98.415,-117.656 93.5053,-99.1939 90.8365,-85.6133"/>
<polygon fill="midnightblue" stroke="midnightblue" points="94.2487,-84.8056 89.0904,-75.5513 87.3518,-86.0025 94.2487,-84.8056"/>
</g>
<!-- Node6 -->
<g id="node6" class="node"><title>Node6</title>
<g id="a_node6"><a xlink:href="_color_8hpp.html" target="_top" xlink:title="Classe Color. ">
<polygon fill="white" stroke="black" points="339.5,-168.5 339.5,-187.5 398.5,-187.5 398.5,-168.5 339.5,-168.5"/>
<text text-anchor="middle" x="369" y="-175.5" font-family="Helvetica,sans-Serif" font-size="10.00">Color.hpp</text>
</a>
</g>
</g>
<!-- Node2&#45;&gt;Node6 -->
<g id="edge5" class="edge"><title>Node2&#45;&gt;Node6</title>
<path fill="none" stroke="midnightblue" d="M268.014,-224.444C287.588,-215.636 318.308,-201.812 340.729,-191.722"/>
<polygon fill="midnightblue" stroke="midnightblue" points="342.392,-194.812 350.075,-187.516 339.519,-188.428 342.392,-194.812"/>
</g>
<!-- Node10 -->
<g id="node10" class="node"><title>Node10</title>
<g id="a_node10"><a xlink:href="_canvas_8hpp.html" target="_top" xlink:title="Canvas.hpp">
<polygon fill="white" stroke="black" points="173.5,-168.5 173.5,-187.5 242.5,-187.5 242.5,-168.5 173.5,-168.5"/>
<text text-anchor="middle" x="208" y="-175.5" font-family="Helvetica,sans-Serif" font-size="10.00">Canvas.hpp</text>
</a>
</g>
</g>
<!-- Node2&#45;&gt;Node10 -->
<g id="edge9" class="edge"><title>Node2&#45;&gt;Node10</title>
<path fill="none" stroke="midnightblue" d="M242.23,-224.083C236.438,-216.455 227.942,-205.264 220.862,-195.941"/>
<polygon fill="midnightblue" stroke="midnightblue" points="223.479,-193.599 214.644,-187.751 217.904,-197.832 223.479,-193.599"/>
</g>
<!-- Node16 -->
<g id="node16" class="node"><title>Node16</title>
<g id="a_node16"><a xlink:href="_event_8hpp.html" target="_top" xlink:title="Classe Event. ">
<polygon fill="white" stroke="black" points="260.5,-168.5 260.5,-187.5 321.5,-187.5 321.5,-168.5 260.5,-168.5"/>
<text text-anchor="middle" x="291" y="-175.5" font-family="Helvetica,sans-Serif" font-size="10.00">Event.hpp</text>
</a>
</g>
</g>
<!-- Node2&#45;&gt;Node16 -->
<g id="edge20" class="edge"><title>Node2&#45;&gt;Node16</title>
<path fill="none" stroke="midnightblue" d="M255.935,-224.083C261.929,-216.377 270.752,-205.033 278.048,-195.653"/>
<polygon fill="midnightblue" stroke="midnightblue" points="280.817,-197.793 284.194,-187.751 275.291,-193.496 280.817,-197.793"/>
</g>
<!-- Node7 -->
<g id="node7" class="node"><title>Node7</title>
<polygon fill="white" stroke="#bfbfbf" points="430,-112.5 430,-131.5 476,-131.5 476,-112.5 430,-112.5"/>
<text text-anchor="middle" x="453" y="-119.5" font-family="Helvetica,sans-Serif" font-size="10.00">cstdint</text>
</g>
<!-- Node6&#45;&gt;Node7 -->
<g id="edge6" class="edge"><title>Node6&#45;&gt;Node7</title>
<path fill="none" stroke="midnightblue" d="M382.496,-168.324C395.6,-159.9 415.712,-146.971 431.107,-137.074"/>
<polygon fill="midnightblue" stroke="midnightblue" points="433.018,-140.006 439.537,-131.655 429.233,-134.118 433.018,-140.006"/>
</g>
<!-- Node8 -->
<g id="node8" class="node"><title>Node8</title>
<polygon fill="white" stroke="#bfbfbf" points="494.5,-112.5 494.5,-131.5 535.5,-131.5 535.5,-112.5 494.5,-112.5"/>
<text text-anchor="middle" x="515" y="-119.5" font-family="Helvetica,sans-Serif" font-size="10.00">string</text>
</g>
<!-- Node6&#45;&gt;Node8 -->
<g id="edge7" class="edge"><title>Node6&#45;&gt;Node8</title>
<path fill="none" stroke="midnightblue" d="M392.134,-168.444C417.198,-159.173 457.286,-144.346 484.813,-134.165"/>
<polygon fill="midnightblue" stroke="midnightblue" points="486.17,-137.395 494.335,-130.643 483.742,-130.83 486.17,-137.395"/>
</g>
<!-- Node9 -->
<g id="node9" class="node"><title>Node9</title>
<polygon fill="white" stroke="#bfbfbf" points="304,-112.5 304,-131.5 412,-131.5 412,-112.5 304,-112.5"/>
<text text-anchor="middle" x="358" y="-119.5" font-family="Helvetica,sans-Serif" font-size="10.00">ez&#45;lib/ez&#45;draw++.hpp</text>
</g>
<!-- Node6&#45;&gt;Node9 -->
<g id="edge8" class="edge"><title>Node6&#45;&gt;Node9</title>
<path fill="none" stroke="midnightblue" d="M367.184,-168.083C365.726,-160.927 363.629,-150.635 361.807,-141.691"/>
<polygon fill="midnightblue" stroke="midnightblue" points="365.208,-140.851 359.783,-131.751 358.349,-142.248 365.208,-140.851"/>
</g>
<!-- Node10&#45;&gt;Node9 -->
<g id="edge10" class="edge"><title>Node10&#45;&gt;Node9</title>
<path fill="none" stroke="midnightblue" d="M231.768,-168.444C256.893,-159.399 296.711,-145.064 324.9,-134.916"/>
<polygon fill="midnightblue" stroke="midnightblue" points="326.12,-138.197 334.343,-131.516 323.749,-131.611 326.12,-138.197"/>
</g>
<!-- Node11 -->
<g id="node11" class="node"><title>Node11</title>
<g id="a_node11"><a xlink:href="_point_8hpp.html" target="_top" xlink:title="Classe point. ">
<polygon fill="white" stroke="black" points="116,-112.5 116,-131.5 174,-131.5 174,-112.5 116,-112.5"/>
<text text-anchor="middle" x="145" y="-119.5" font-family="Helvetica,sans-Serif" font-size="10.00">Point.hpp</text>
</a>
</g>
</g>
<!-- Node10&#45;&gt;Node11 -->
<g id="edge11" class="edge"><title>Node10&#45;&gt;Node11</title>
<path fill="none" stroke="midnightblue" d="M197.878,-168.324C188.474,-160.263 174.256,-148.077 162.931,-138.369"/>
<polygon fill="midnightblue" stroke="midnightblue" points="165.177,-135.684 155.306,-131.834 160.621,-140.999 165.177,-135.684"/>
</g>
<!-- Node15 -->
<g id="node15" class="node"><title>Node15</title>
<g id="a_node15"><a xlink:href="_font_8hpp.html" target="_top" xlink:title="Font.hpp">
<polygon fill="white" stroke="black" points="192.5,-112.5 192.5,-131.5 247.5,-131.5 247.5,-112.5 192.5,-112.5"/>
<text text-anchor="middle" x="220" y="-119.5" font-family="Helvetica,sans-Serif" font-size="10.00">Font.hpp</text>
</a>
</g>
</g>
<!-- Node10&#45;&gt;Node15 -->
<g id="edge18" class="edge"><title>Node10&#45;&gt;Node15</title>
<path fill="none" stroke="midnightblue" d="M209.982,-168.083C211.572,-160.927 213.859,-150.635 215.846,-141.691"/>
<polygon fill="midnightblue" stroke="midnightblue" points="219.303,-142.272 218.055,-131.751 212.469,-140.754 219.303,-142.272"/>
</g>
<!-- Node11&#45;&gt;Node3 -->
<g id="edge13" class="edge"><title>Node11&#45;&gt;Node3</title>
<path fill="none" stroke="midnightblue" d="M125.51,-112.444C105.358,-103.596 73.6771,-89.6875 50.6692,-79.5865"/>
<polygon fill="midnightblue" stroke="midnightblue" points="51.962,-76.3316 41.3985,-75.5164 49.148,-82.7411 51.962,-76.3316"/>
</g>
<!-- Node11&#45;&gt;Node5 -->
<g id="edge14" class="edge"><title>Node11&#45;&gt;Node5</title>
<path fill="none" stroke="midnightblue" d="M135.842,-112.324C127.499,-104.42 114.968,-92.5482 104.823,-82.9377"/>
<polygon fill="midnightblue" stroke="midnightblue" points="106.991,-80.1705 97.3247,-75.8339 102.177,-85.2522 106.991,-80.1705"/>
</g>
<!-- Node12 -->
<g id="node12" class="node"><title>Node12</title>
<polygon fill="white" stroke="#bfbfbf" points="240,-56.5 240,-75.5 294,-75.5 294,-56.5 240,-56.5"/>
<text text-anchor="middle" x="267" y="-63.5" font-family="Helvetica,sans-Serif" font-size="10.00">iostream</text>
</g>
<!-- Node11&#45;&gt;Node12 -->
<g id="edge12" class="edge"><title>Node11&#45;&gt;Node12</title>
<path fill="none" stroke="midnightblue" d="M164.331,-112.444C184.32,-103.596 215.743,-89.6875 238.564,-79.5865"/>
<polygon fill="midnightblue" stroke="midnightblue" points="240.032,-82.7645 247.759,-75.5164 237.198,-76.3635 240.032,-82.7645"/>
</g>
<!-- Node13 -->
<g id="node13" class="node"><title>Node13</title>
<g id="a_node13"><a xlink:href="_group_points_8hpp.html" target="_top" xlink:title="GroupPoints.hpp">
<polygon fill="white" stroke="black" points="132.5,-56.5 132.5,-75.5 221.5,-75.5 221.5,-56.5 132.5,-56.5"/>
<text text-anchor="middle" x="177" y="-63.5" font-family="Helvetica,sans-Serif" font-size="10.00">GroupPoints.hpp</text>
</a>
</g>
</g>
<!-- Node11&#45;&gt;Node13 -->
<g id="edge15" class="edge"><title>Node11&#45;&gt;Node13</title>
<path fill="none" stroke="midnightblue" d="M145.118,-112.083C148.029,-104.455 154.278,-93.2645 160.646,-83.9408"/>
<polygon fill="midnightblue" stroke="midnightblue" points="163.567,-85.8772 166.683,-75.7511 157.932,-81.7235 163.567,-85.8772"/>
</g>
<!-- Node13&#45;&gt;Node11 -->
<g id="edge17" class="edge"><title>Node13&#45;&gt;Node11</title>
<path fill="none" stroke="midnightblue" d="M176.945,-75.7511C174.083,-83.3265 167.859,-94.5048 161.493,-103.855"/>
<polygon fill="midnightblue" stroke="midnightblue" points="158.549,-101.951 155.45,-112.083 164.191,-106.095 158.549,-101.951"/>
</g>
<!-- Node14 -->
<g id="node14" class="node"><title>Node14</title>
<polygon fill="white" stroke="#bfbfbf" points="147.5,-0.5 147.5,-19.5 206.5,-19.5 206.5,-0.5 147.5,-0.5"/>
<text text-anchor="middle" x="177" y="-7.5" font-family="Helvetica,sans-Serif" font-size="10.00">functional</text>
</g>
<!-- Node13&#45;&gt;Node14 -->
<g id="edge16" class="edge"><title>Node13&#45;&gt;Node14</title>
<path fill="none" stroke="midnightblue" d="M177,-56.083C177,-49.0059 177,-38.8611 177,-29.9865"/>
<polygon fill="midnightblue" stroke="midnightblue" points="180.5,-29.751 177,-19.7511 173.5,-29.7511 180.5,-29.751"/>
</g>
<!-- Node15&#45;&gt;Node12 -->
<g id="edge19" class="edge"><title>Node15&#45;&gt;Node12</title>
<path fill="none" stroke="midnightblue" d="M227.761,-112.083C234.537,-104.298 244.543,-92.8015 252.755,-83.3665"/>
<polygon fill="midnightblue" stroke="midnightblue" points="255.458,-85.592 259.383,-75.7511 250.178,-80.9963 255.458,-85.592"/>
</g>
<!-- Node16&#45;&gt;Node9 -->
<g id="edge22" class="edge"><title>Node16&#45;&gt;Node9</title>
<path fill="none" stroke="midnightblue" d="M301.765,-168.324C311.766,-160.263 326.887,-148.077 338.93,-138.369"/>
<polygon fill="midnightblue" stroke="midnightblue" points="341.45,-140.834 347.039,-131.834 337.057,-135.384 341.45,-140.834"/>
</g>
<!-- Node16&#45;&gt;Node12 -->
<g id="edge21" class="edge"><title>Node16&#45;&gt;Node12</title>
<path fill="none" stroke="midnightblue" d="M289.117,-168.368C285.244,-150.617 276.309,-109.666 271.058,-85.5974"/>
<polygon fill="midnightblue" stroke="midnightblue" points="274.426,-84.6155 268.874,-75.5914 267.587,-86.1077 274.426,-84.6155"/>
</g>
</g>
</svg>
