<?xml version="1.0" encoding="UTF-8" standalone="no"?>
<!DOCTYPE svg PUBLIC "-//W3C//DTD SVG 1.1//EN"
 "http://www.w3.org/Graphics/SVG/1.1/DTD/svg11.dtd">
<!-- Generated by graphviz version 2.36.0 (20140111.2315)
 -->
<!-- Title: GraphicsSquare.hpp Pages: 1 -->
<!--zoomable 308 -->
<svg id="main" version="1.1" xmlns="http://www.w3.org/2000/svg" xmlns:xlink="http://www.w3.org/1999/xlink" xml:space="preserve" onload="init(evt)">
<style type="text/css"><![CDATA[
.edge:hover path { stroke: red; }
.edge:hover polygon { stroke: red; fill: red; }
]]></style>
<script type="text/javascript"><![CDATA[
var edges = document.getElementsByTagName('g');
if (edges && edges.length) {
  for (var i=0;i<edges.length;i++) {
    if (edges[i].id.substr(0,4)=='edge') {
      edges[i].setAttribute('class','edge');
    }
  }
}
]]></script>
        <defs>
                <circle id="rim" cx="0" cy="0" r="7"/>
                <circle id="rim2" cx="0" cy="0" r="3.5"/>
                <g id="zoomPlus">
                        <use xlink:href="#rim" fill="#404040">
                                <set attributeName="fill" to="#808080" begin="zoomplus.mouseover" end="zoomplus.mouseout"/>
                        </use>
                        <path d="M-4,0h8M0,-4v8" fill="none" stroke="white" stroke-width="1.5" pointer-events="none"/>
                </g>
                <g id="zoomMin">
                        <use xlink:href="#rim" fill="#404040">
                                <set attributeName="fill" to="#808080" begin="zoomminus.mouseover" end="zoomminus.mouseout"/>
                        </use>
                        <path d="M-4,0h8" fill="none" stroke="white" stroke-width="1.5" pointer-events="none"/>
                </g>
                <g id="dirArrow">
                        <path fill="none" stroke="white" stroke-width="1.5" d="M0,-3.0v7 M-2.5,-0.5L0,-3.0L2.5,-0.5"/>
                </g>
               <g id="resetDef">
                       <use xlink:href="#rim2" fill="#404040">
                               <set attributeName="fill" to="#808080" begin="reset.mouseover" end="reset.mouseout"/>
                       </use>
               </g>
        </defs>

<script type="text/javascript">
var viewWidth = 608;
var viewHeight = 308;
var sectionId = 'dynsection-0';
</script>
<script xlink:href="svgpan.js"/>
<svg id="graph" class="graph">
<g id="viewport">
<title>GraphicsSquare.hpp</title>
<polygon fill="white" stroke="none" points="-4,4 -4,-304 604,-304 604,4 -4,4"/>
<!-- Node1 -->
<g id="node1" class="node"><title>Node1</title>
<polygon fill="#bfbfbf" stroke="black" points="360.5,-280.5 360.5,-299.5 465.5,-299.5 465.5,-280.5 360.5,-280.5"/>
<text text-anchor="middle" x="413" y="-287.5" font-family="Helvetica,sans-Serif" font-size="10.00">GraphicsSquare.hpp</text>
</g>
<!-- Node2 -->
<g id="node2" class="node"><title>Node2</title>
<g id="a_node2"><a xlink:href="_graphics_item_8hpp.html" target="_top" xlink:title="Classe GraphicsItem. ">
<polygon fill="white" stroke="black" points="366,-224.5 366,-243.5 460,-243.5 460,-224.5 366,-224.5"/>
<text text-anchor="middle" x="413" y="-231.5" font-family="Helvetica,sans-Serif" font-size="10.00">GraphicsItem.hpp</text>
</a>
</g>
</g>
<!-- Node1&#45;&gt;Node2 -->
<g id="edge1" class="edge"><title>Node1&#45;&gt;Node2</title>
<path fill="none" stroke="midnightblue" d="M413,-280.083C413,-273.006 413,-262.861 413,-253.986"/>
<polygon fill="midnightblue" stroke="midnightblue" points="416.5,-253.751 413,-243.751 409.5,-253.751 416.5,-253.751"/>
</g>
<!-- Node3 -->
<g id="node3" class="node"><title>Node3</title>
<polygon fill="white" stroke="#bfbfbf" points="0,-56.5 0,-75.5 44,-75.5 44,-56.5 0,-56.5"/>
<text text-anchor="middle" x="22" y="-63.5" font-family="Helvetica,sans-Serif" font-size="10.00">vector</text>
</g>
<!-- Node2&#45;&gt;Node3 -->
<g id="edge2" class="edge"><title>Node2&#45;&gt;Node3</title>
<path fill="none" stroke="midnightblue" d="M366.643,-224.5C330.758,-217.11 280.223,-204.921 238,-188 162.598,-157.782 80.8095,-106.238 43.1552,-81.3222"/>
<polygon fill="midnightblue" stroke="midnightblue" points="44.8249,-78.2288 34.5638,-75.5906 40.9401,-84.0519 44.8249,-78.2288"/>
</g>
<!-- Node4 -->
<g id="node4" class="node"><title>Node4</title>
<polygon fill="white" stroke="#bfbfbf" points="500,-168.5 500,-187.5 530,-187.5 530,-168.5 500,-168.5"/>
<text text-anchor="middle" x="515" y="-175.5" font-family="Helvetica,sans-Serif" font-size="10.00">set</text>
</g>
<!-- Node2&#45;&gt;Node4 -->
<g id="edge3" class="edge"><title>Node2&#45;&gt;Node4</title>
<path fill="none" stroke="midnightblue" d="M429.388,-224.324C446.057,-215.499 472.065,-201.73 491.044,-191.683"/>
<polygon fill="midnightblue" stroke="midnightblue" points="492.782,-194.723 499.982,-186.951 489.507,-188.536 492.782,-194.723"/>
</g>
<!-- Node5 -->
<g id="node5" class="node"><title>Node5</title>
<polygon fill="white" stroke="#bfbfbf" points="548,-168.5 548,-187.5 600,-187.5 600,-168.5 548,-168.5"/>
<text text-anchor="middle" x="574" y="-175.5" font-family="Helvetica,sans-Serif" font-size="10.00">memory</text>
</g>
<!-- Node2&#45;&gt;Node5 -->
<g id="edge4" class="edge"><title>Node2&#45;&gt;Node5</title>
<path fill="none" stroke="midnightblue" d="M438.511,-224.444C465.596,-215.359 508.59,-200.939 538.869,-190.783"/>
<polygon fill="midnightblue" stroke="midnightblue" points="540.24,-194.015 548.608,-187.516 538.014,-187.378 540.24,-194.015"/>
</g>
<!-- Node6 -->
<g id="node6" class="node"><title>Node6</title>
<g id="a_node6"><a xlink:href="_color_8hpp.html" target="_top" xlink:title="Classe Color. ">
<polygon fill="white" stroke="black" points="422.5,-168.5 422.5,-187.5 481.5,-187.5 481.5,-168.5 422.5,-168.5"/>
<text text-anchor="middle" x="452" y="-175.5" font-family="Helvetica,sans-Serif" font-size="10.00">Color.hpp</text>
</a>
</g>
</g>
<!-- Node2&#45;&gt;Node6 -->
<g id="edge5" class="edge"><title>Node2&#45;&gt;Node6</title>
<path fill="none" stroke="midnightblue" d="M419.44,-224.083C424.949,-216.455 433.031,-205.264 439.765,-195.941"/>
<polygon fill="midnightblue" stroke="midnightblue" points="442.662,-197.907 445.68,-187.751 436.987,-193.809 442.662,-197.907"/>
</g>
<!-- Node10 -->
<g id="node10" class="node"><title>Node10</title>
<g id="a_node10"><a xlink:href="_canvas_8hpp.html" target="_top" xlink:title="Canvas.hpp">
<polygon fill="white" stroke="black" points="247.5,-168.5 247.5,-187.5 316.5,-187.5 316.5,-168.5 247.5,-168.5"/>
<text text-anchor="middle" x="282" y="-175.5" font-family="Helvetica,sans-Serif" font-size="10.00">Canvas.hpp</text>
</a>
</g>
</g>
<!-- Node2&#45;&gt;Node10 -->
<g id="edge9" class="edge"><title>Node2&#45;&gt;Node10</title>
<path fill="none" stroke="midnightblue" d="M392.243,-224.444C370.684,-215.557 336.737,-201.563 312.206,-191.451"/>
<polygon fill="midnightblue" stroke="midnightblue" points="313.239,-188.092 302.66,-187.516 310.572,-194.563 313.239,-188.092"/>
</g>
<!-- Node18 -->
<g id="node18" class="node"><title>Node18</title>
<g id="a_node18"><a xlink:href="_event_8hpp.html" target="_top" xlink:title="Classe Event. ">
<polygon fill="white" stroke="black" points="343.5,-168.5 343.5,-187.5 404.5,-187.5 404.5,-168.5 343.5,-168.5"/>
<text text-anchor="middle" x="374" y="-175.5" font-family="Helvetica,sans-Serif" font-size="10.00">Event.hpp</text>
</a>
</g>
</g>
<!-- Node2&#45;&gt;Node18 -->
<g id="edge21" class="edge"><title>Node2&#45;&gt;Node18</title>
<path fill="none" stroke="midnightblue" d="M406.56,-224.083C401.051,-216.455 392.969,-205.264 386.235,-195.941"/>
<polygon fill="midnightblue" stroke="midnightblue" points="389.013,-193.809 380.32,-187.751 383.338,-197.907 389.013,-193.809"/>
</g>
<!-- Node7 -->
<g id="node7" class="node"><title>Node7</title>
<polygon fill="white" stroke="#bfbfbf" points="544,-112.5 544,-131.5 590,-131.5 590,-112.5 544,-112.5"/>
<text text-anchor="middle" x="567" y="-119.5" font-family="Helvetica,sans-Serif" font-size="10.00">cstdint</text>
</g>
<!-- Node6&#45;&gt;Node7 -->
<g id="edge6" class="edge"><title>Node6&#45;&gt;Node7</title>
<path fill="none" stroke="midnightblue" d="M470.222,-168.444C488.896,-159.675 518.156,-145.935 539.617,-135.858"/>
<polygon fill="midnightblue" stroke="midnightblue" points="541.299,-138.935 548.863,-131.516 538.324,-132.599 541.299,-138.935"/>
</g>
<!-- Node8 -->
<g id="node8" class="node"><title>Node8</title>
<polygon fill="white" stroke="#bfbfbf" points="484.5,-112.5 484.5,-131.5 525.5,-131.5 525.5,-112.5 484.5,-112.5"/>
<text text-anchor="middle" x="505" y="-119.5" font-family="Helvetica,sans-Serif" font-size="10.00">string</text>
</g>
<!-- Node6&#45;&gt;Node8 -->
<g id="edge7" class="edge"><title>Node6&#45;&gt;Node8</title>
<path fill="none" stroke="midnightblue" d="M460.752,-168.083C468.47,-160.22 479.905,-148.569 489.217,-139.081"/>
<polygon fill="midnightblue" stroke="midnightblue" points="491.904,-141.34 496.411,-131.751 486.908,-136.436 491.904,-141.34"/>
</g>
<!-- Node9 -->
<g id="node9" class="node"><title>Node9</title>
<polygon fill="white" stroke="#bfbfbf" points="320,-112.5 320,-131.5 428,-131.5 428,-112.5 320,-112.5"/>
<text text-anchor="middle" x="374" y="-119.5" font-family="Helvetica,sans-Serif" font-size="10.00">ez&#45;lib/ez&#45;draw++.hpp</text>
</g>
<!-- Node6&#45;&gt;Node9 -->
<g id="edge8" class="edge"><title>Node6&#45;&gt;Node9</title>
<path fill="none" stroke="midnightblue" d="M439.468,-168.324C427.414,-159.979 408.973,-147.212 394.731,-137.352"/>
<polygon fill="midnightblue" stroke="midnightblue" points="396.715,-134.469 386.501,-131.655 392.731,-140.224 396.715,-134.469"/>
</g>
<!-- Node10&#45;&gt;Node9 -->
<g id="edge10" class="edge"><title>Node10&#45;&gt;Node9</title>
<path fill="none" stroke="midnightblue" d="M296.781,-168.324C311.267,-159.822 333.573,-146.729 350.493,-136.797"/>
<polygon fill="midnightblue" stroke="midnightblue" points="352.403,-139.735 359.255,-131.655 348.859,-133.698 352.403,-139.735"/>
</g>
<!-- Node11 -->
<g id="node11" class="node"><title>Node11</title>
<g id="a_node11"><a xlink:href="_point_8hpp.html" target="_top" xlink:title="Classe point. ">
<polygon fill="white" stroke="black" points="170,-112.5 170,-131.5 228,-131.5 228,-112.5 170,-112.5"/>
<text text-anchor="middle" x="199" y="-119.5" font-family="Helvetica,sans-Serif" font-size="10.00">Point.hpp</text>
</a>
</g>
</g>
<!-- Node10&#45;&gt;Node11 -->
<g id="edge11" class="edge"><title>Node10&#45;&gt;Node11</title>
<path fill="none" stroke="midnightblue" d="M268.665,-168.324C255.838,-159.979 236.215,-147.212 221.06,-137.352"/>
<polygon fill="midnightblue" stroke="midnightblue" points="222.593,-134.174 212.302,-131.655 218.776,-140.042 222.593,-134.174"/>
</g>
<!-- Node17 -->
<g id="node17" class="node"><title>Node17</title>
<g id="a_node17"><a xlink:href="_font_8hpp.html" target="_top" xlink:title="Font.hpp">
<polygon fill="white" stroke="black" points="246.5,-112.5 246.5,-131.5 301.5,-131.5 301.5,-112.5 246.5,-112.5"/>
<text text-anchor="middle" x="274" y="-119.5" font-family="Helvetica,sans-Serif" font-size="10.00">Font.hpp</text>
</a>
</g>
</g>
<!-- Node10&#45;&gt;Node17 -->
<g id="edge19" class="edge"><title>Node10&#45;&gt;Node17</title>
<path fill="none" stroke="midnightblue" d="M280.679,-168.083C279.619,-160.927 278.094,-150.635 276.769,-141.691"/>
<polygon fill="midnightblue" stroke="midnightblue" points="280.224,-141.13 275.296,-131.751 273.3,-142.156 280.224,-141.13"/>
</g>
<!-- Node11&#45;&gt;Node3 -->
<g id="edge15" class="edge"><title>Node11&#45;&gt;Node3</title>
<path fill="none" stroke="midnightblue" d="M170.954,-112.444C139.063,-102.714 87.1106,-86.8642 53.7551,-76.688"/>
<polygon fill="midnightblue" stroke="midnightblue" points="54.6294,-73.2955 44.0433,-73.7251 52.5867,-79.9909 54.6294,-73.2955"/>
</g>
<!-- Node12 -->
<g id="node12" class="node"><title>Node12</title>
<polygon fill="white" stroke="#bfbfbf" points="62.5,-56.5 62.5,-75.5 163.5,-75.5 163.5,-56.5 62.5,-56.5"/>
<text text-anchor="middle" x="113" y="-63.5" font-family="Helvetica,sans-Serif" font-size="10.00">boost/uuid/uuid.hpp</text>
</g>
<!-- Node11&#45;&gt;Node12 -->
<g id="edge12" class="edge"><title>Node11&#45;&gt;Node12</title>
<path fill="none" stroke="midnightblue" d="M185.183,-112.324C171.767,-103.9 151.176,-90.9709 135.414,-81.0741"/>
<polygon fill="midnightblue" stroke="midnightblue" points="137.113,-78.0081 126.783,-75.6545 133.391,-83.9364 137.113,-78.0081"/>
</g>
<!-- Node13 -->
<g id="node13" class="node"><title>Node13</title>
<polygon fill="white" stroke="#bfbfbf" points="342,-56.5 342,-75.5 396,-75.5 396,-56.5 342,-56.5"/>
<text text-anchor="middle" x="369" y="-63.5" font-family="Helvetica,sans-Serif" font-size="10.00">iostream</text>
</g>
<!-- Node11&#45;&gt;Node13 -->
<g id="edge13" class="edge"><title>Node11&#45;&gt;Node13</title>
<path fill="none" stroke="midnightblue" d="M225.937,-112.444C254.66,-103.32 300.329,-88.8133 332.321,-78.6509"/>
<polygon fill="midnightblue" stroke="midnightblue" points="333.718,-81.8797 342.189,-75.5164 331.599,-75.2081 333.718,-81.8797"/>
</g>
<!-- Node14 -->
<g id="node14" class="node"><title>Node14</title>
<polygon fill="white" stroke="#bfbfbf" points="181.5,-56.5 181.5,-75.5 216.5,-75.5 216.5,-56.5 181.5,-56.5"/>
<text text-anchor="middle" x="199" y="-63.5" font-family="Helvetica,sans-Serif" font-size="10.00">map</text>
</g>
<!-- Node11&#45;&gt;Node14 -->
<g id="edge14" class="edge"><title>Node11&#45;&gt;Node14</title>
<path fill="none" stroke="midnightblue" d="M199,-112.083C199,-105.006 199,-94.8611 199,-85.9865"/>
<polygon fill="midnightblue" stroke="midnightblue" points="202.5,-85.751 199,-75.7511 195.5,-85.7511 202.5,-85.751"/>
</g>
<!-- Node15 -->
<g id="node15" class="node"><title>Node15</title>
<g id="a_node15"><a xlink:href="_group_points_8hpp.html" target="_top" xlink:title="GroupPoints.hpp">
<polygon fill="white" stroke="black" points="234.5,-56.5 234.5,-75.5 323.5,-75.5 323.5,-56.5 234.5,-56.5"/>
<text text-anchor="middle" x="279" y="-63.5" font-family="Helvetica,sans-Serif" font-size="10.00">GroupPoints.hpp</text>
</a>
</g>
</g>
<!-- Node11&#45;&gt;Node15 -->
<g id="edge16" class="edge"><title>Node11&#45;&gt;Node15</title>
<path fill="none" stroke="midnightblue" d="M206.739,-112.324C217.394,-103.9 236.251,-90.9709 252.14,-81.0741"/>
<polygon fill="midnightblue" stroke="midnightblue" points="254.336,-83.8355 261.068,-75.6545 250.704,-77.8517 254.336,-83.8355"/>
</g>
<!-- Node15&#45;&gt;Node11 -->
<g id="edge18" class="edge"><title>Node15&#45;&gt;Node11</title>
<path fill="none" stroke="midnightblue" d="M271.061,-75.8339C260.368,-84.2633 241.639,-97.0987 225.845,-106.935"/>
<polygon fill="midnightblue" stroke="midnightblue" points="223.7,-104.143 216.968,-112.324 227.333,-110.126 223.7,-104.143"/>
</g>
<!-- Node16 -->
<g id="node16" class="node"><title>Node16</title>
<polygon fill="white" stroke="#bfbfbf" points="249.5,-0.5 249.5,-19.5 308.5,-19.5 308.5,-0.5 249.5,-0.5"/>
<text text-anchor="middle" x="279" y="-7.5" font-family="Helvetica,sans-Serif" font-size="10.00">functional</text>
</g>
<!-- Node15&#45;&gt;Node16 -->
<g id="edge17" class="edge"><title>Node15&#45;&gt;Node16</title>
<path fill="none" stroke="midnightblue" d="M279,-56.083C279,-49.0059 279,-38.8611 279,-29.9865"/>
<polygon fill="midnightblue" stroke="midnightblue" points="282.5,-29.751 279,-19.7511 275.5,-29.7511 282.5,-29.751"/>
</g>
<!-- Node17&#45;&gt;Node13 -->
<g id="edge20" class="edge"><title>Node17&#45;&gt;Node13</title>
<path fill="none" stroke="midnightblue" d="M289.263,-112.324C304.221,-103.822 327.255,-90.7288 344.727,-80.7975"/>
<polygon fill="midnightblue" stroke="midnightblue" points="346.81,-83.639 353.774,-75.6545 343.351,-77.5534 346.81,-83.639"/>
</g>
<!-- Node18&#45;&gt;Node9 -->
<g id="edge23" class="edge"><title>Node18&#45;&gt;Node9</title>
<path fill="none" stroke="midnightblue" d="M374,-168.083C374,-161.006 374,-150.861 374,-141.986"/>
<polygon fill="midnightblue" stroke="midnightblue" points="377.5,-141.751 374,-131.751 370.5,-141.751 377.5,-141.751"/>
</g>
<!-- Node18&#45;&gt;Node13 -->
<g id="edge22" class="edge"><title>Node18&#45;&gt;Node13</title>
<path fill="none" stroke="midnightblue" d="M393.631,-168.485C416.574,-157.214 449.869,-135.949 437,-112 429.378,-97.8153 415.103,-87.3516 401.594,-80.1027"/>
<polygon fill="midnightblue" stroke="midnightblue" points="402.97,-76.8791 392.454,-75.5916 399.872,-83.1562 402.97,-76.8791"/>
</g>
</g>
</svg>
        <g id="navigator" transform="translate(0 0)" fill="#404254">
                <rect fill="#f2f5e9" fill-opacity="0.5" stroke="#606060" stroke-width=".5" x="0" y="0" width="60" height="60"/>
                <use id="zoomplus" xlink:href="#zoomPlus" x="17" y="9" onmousedown="handleZoom(evt,'in')"/>
                <use id="zoomminus" xlink:href="#zoomMin" x="42" y="9" onmousedown="handleZoom(evt,'out')"/>
                <use id="reset" xlink:href="#resetDef" x="30" y="36" onmousedown="handleReset()"/>
                <g id="arrowUp" xlink:href="#dirArrow" transform="translate(30 24)" onmousedown="handlePan(0,-1)">
                  <use xlink:href="#rim" fill="#404040">
                        <set attributeName="fill" to="#808080" begin="arrowUp.mouseover" end="arrowUp.mouseout"/>
                  </use>
                  <path fill="none" stroke="white" stroke-width="1.5" d="M0,-3.0v7 M-2.5,-0.5L0,-3.0L2.5,-0.5"/>
                </g>
                <g id="arrowRight" xlink:href="#dirArrow" transform="rotate(90) translate(36 -43)" onmousedown="handlePan(1,0)">
                  <use xlink:href="#rim" fill="#404040">
                        <set attributeName="fill" to="#808080" begin="arrowRight.mouseover" end="arrowRight.mouseout"/>
                  </use>
                  <path fill="none" stroke="white" stroke-width="1.5" d="M0,-3.0v7 M-2.5,-0.5L0,-3.0L2.5,-0.5"/>
                </g>
                <g id="arrowDown" xlink:href="#dirArrow" transform="rotate(180) translate(-30 -48)" onmousedown="handlePan(0,1)">
                  <use xlink:href="#rim" fill="#404040">
                        <set attributeName="fill" to="#808080" begin="arrowDown.mouseover" end="arrowDown.mouseout"/>
                  </use>
                  <path fill="none" stroke="white" stroke-width="1.5" d="M0,-3.0v7 M-2.5,-0.5L0,-3.0L2.5,-0.5"/>
                </g>
                <g id="arrowLeft" xlink:href="#dirArrow" transform="rotate(270) translate(-36 17)" onmousedown="handlePan(-1,0)">
                  <use xlink:href="#rim" fill="#404040">
                        <set attributeName="fill" to="#808080" begin="arrowLeft.mouseover" end="arrowLeft.mouseout"/>
                  </use>
                  <path fill="none" stroke="white" stroke-width="1.5" d="M0,-3.0v7 M-2.5,-0.5L0,-3.0L2.5,-0.5"/>
                </g>
        </g>
        <svg viewBox="0 0 15 15" width="100%" height="30px" preserveAspectRatio="xMaxYMin meet">
         <g id="arrow_out" transform="scale(0.3 0.3)">
          <a xlink:href="_graphics_square_8hpp__incl_org.svg" target="_base">
           <rect id="button" ry="5" rx="5" y="6" x="6" height="38" width="38"
                fill="#f2f5e9" fill-opacity="0.5" stroke="#606060" stroke-width="1.0"/>
           <path id="arrow"
             d="M 11.500037,31.436501 C 11.940474,20.09759 22.043105,11.32322 32.158766,21.979434 L 37.068811,17.246167 C 37.068811,17.246167 37.088388,32 37.088388,32 L 22.160133,31.978069 C 22.160133,31.978069 26.997745,27.140456 26.997745,27.140456 C 18.528582,18.264221 13.291696,25.230495 11.500037,31.436501 z"
             style="fill:#404040;"/>
          </a>
         </g>
        </svg>
</svg>
