<?xml version="1.0" encoding="UTF-8" standalone="no"?>
<!DOCTYPE svg PUBLIC "-//W3C//DTD SVG 1.1//EN"
 "http://www.w3.org/Graphics/SVG/1.1/DTD/svg11.dtd">
<!-- Generated by graphviz version 2.36.0 (20140111.2315)
 -->
<!-- Title: GraphicsItem.cpp Pages: 1 -->
<svg width="456pt" height="252pt"
 viewBox="0.00 0.00 456.00 252.00" xmlns="http://www.w3.org/2000/svg" xmlns:xlink="http://www.w3.org/1999/xlink">
<g id="graph0" class="graph" transform="scale(1 1) rotate(0) translate(4 248)">
<title>GraphicsItem.cpp</title>
<polygon fill="white" stroke="none" points="-4,4 -4,-248 452,-248 452,4 -4,4"/>
<!-- Node1 -->
<g id="node1" class="node"><title>Node1</title>
<polygon fill="#bfbfbf" stroke="black" points="279,-224.5 279,-243.5 373,-243.5 373,-224.5 279,-224.5"/>
<text text-anchor="middle" x="326" y="-231.5" font-family="Helvetica,sans-Serif" font-size="10.00">GraphicsItem.cpp</text>
</g>
<!-- Node2 -->
<g id="node2" class="node"><title>Node2</title>
<g id="a_node2"><a xlink:href="_graphics_item_8hpp.html" target="_top" xlink:title="Classe GraphicsItem. ">
<polygon fill="white" stroke="black" points="57.5,-168.5 57.5,-187.5 194.5,-187.5 194.5,-168.5 57.5,-168.5"/>
<text text-anchor="middle" x="126" y="-175.5" font-family="Helvetica,sans-Serif" font-size="10.00">../include/GraphicsItem.hpp</text>
</a>
</g>
</g>
<!-- Node1&#45;&gt;Node2 -->
<g id="edge1" class="edge"><title>Node1&#45;&gt;Node2</title>
<path fill="none" stroke="midnightblue" d="M294.309,-224.444C259.932,-215.162 204.923,-200.309 167.211,-190.127"/>
<polygon fill="midnightblue" stroke="midnightblue" points="168.109,-186.744 157.542,-187.516 166.284,-193.502 168.109,-186.744"/>
</g>
<!-- Node12 -->
<g id="node12" class="node"><title>Node12</title>
<polygon fill="white" stroke="#bfbfbf" points="394,-0.5 394,-19.5 448,-19.5 448,-0.5 394,-0.5"/>
<text text-anchor="middle" x="421" y="-7.5" font-family="Helvetica,sans-Serif" font-size="10.00">iostream</text>
</g>
<!-- Node1&#45;&gt;Node12 -->
<g id="edge24" class="edge"><title>Node1&#45;&gt;Node12</title>
<path fill="none" stroke="midnightblue" d="M338.661,-224.425C350.355,-216.077 367.722,-202.549 380,-188 417.119,-144.016 430.041,-131.576 445,-76 449.478,-59.3619 441.432,-40.9939 433.475,-28.0403"/>
<polygon fill="midnightblue" stroke="midnightblue" points="436.344,-26.0349 427.876,-19.6671 430.525,-29.9256 436.344,-26.0349"/>
</g>
<!-- Node16 -->
<g id="node16" class="node"><title>Node16</title>
<g id="a_node16"><a xlink:href="_mouse_event_8hpp.html" target="_top" xlink:title="Classe MouseEvent. ">
<polygon fill="white" stroke="black" points="281,-168.5 281,-187.5 371,-187.5 371,-168.5 281,-168.5"/>
<text text-anchor="middle" x="326" y="-175.5" font-family="Helvetica,sans-Serif" font-size="10.00">MouseEvent.hpp</text>
</a>
</g>
</g>
<!-- Node1&#45;&gt;Node16 -->
<g id="edge21" class="edge"><title>Node1&#45;&gt;Node16</title>
<path fill="none" stroke="midnightblue" d="M326,-224.083C326,-217.006 326,-206.861 326,-197.986"/>
<polygon fill="midnightblue" stroke="midnightblue" points="329.5,-197.751 326,-187.751 322.5,-197.751 329.5,-197.751"/>
</g>
<!-- Node3 -->
<g id="node3" class="node"><title>Node3</title>
<polygon fill="white" stroke="#bfbfbf" points="174,-0.5 174,-19.5 218,-19.5 218,-0.5 174,-0.5"/>
<text text-anchor="middle" x="196" y="-7.5" font-family="Helvetica,sans-Serif" font-size="10.00">vector</text>
</g>
<!-- Node2&#45;&gt;Node3 -->
<g id="edge2" class="edge"><title>Node2&#45;&gt;Node3</title>
<path fill="none" stroke="midnightblue" d="M93.8004,-168.354C74.8784,-161.581 52.159,-150.185 39,-132 19.06,-104.444 9.33317,-83.0152 30,-56 46.1741,-34.8575 120.342,-21.3369 163.875,-15.077"/>
<polygon fill="midnightblue" stroke="midnightblue" points="164.545,-18.5177 173.969,-13.6765 163.583,-11.5842 164.545,-18.5177"/>
</g>
<!-- Node4 -->
<g id="node4" class="node"><title>Node4</title>
<polygon fill="white" stroke="#bfbfbf" points="48,-112.5 48,-131.5 78,-131.5 78,-112.5 48,-112.5"/>
<text text-anchor="middle" x="63" y="-119.5" font-family="Helvetica,sans-Serif" font-size="10.00">set</text>
</g>
<!-- Node2&#45;&gt;Node4 -->
<g id="edge3" class="edge"><title>Node2&#45;&gt;Node4</title>
<path fill="none" stroke="midnightblue" d="M115.878,-168.324C106.474,-160.263 92.2559,-148.077 80.931,-138.369"/>
<polygon fill="midnightblue" stroke="midnightblue" points="83.1766,-135.684 73.3062,-131.834 78.621,-140.999 83.1766,-135.684"/>
</g>
<!-- Node5 -->
<g id="node5" class="node"><title>Node5</title>
<polygon fill="white" stroke="#bfbfbf" points="0,-0.5 0,-19.5 52,-19.5 52,-0.5 0,-0.5"/>
<text text-anchor="middle" x="26" y="-7.5" font-family="Helvetica,sans-Serif" font-size="10.00">memory</text>
</g>
<!-- Node2&#45;&gt;Node5 -->
<g id="edge4" class="edge"><title>Node2&#45;&gt;Node5</title>
<path fill="none" stroke="midnightblue" d="M82.0694,-168.437C60.9152,-162.004 37.1318,-150.916 23,-132 0.55098,-101.951 10.8664,-54.9784 19.1694,-29.2921"/>
<polygon fill="midnightblue" stroke="midnightblue" points="22.5268,-30.2931 22.5033,-19.6983 15.9147,-27.9953 22.5268,-30.2931"/>
</g>
<!-- Node6 -->
<g id="node6" class="node"><title>Node6</title>
<g id="a_node6"><a xlink:href="_color_8hpp.html" target="_top" xlink:title="Classe Color. ">
<polygon fill="white" stroke="black" points="96.5,-112.5 96.5,-131.5 155.5,-131.5 155.5,-112.5 96.5,-112.5"/>
<text text-anchor="middle" x="126" y="-119.5" font-family="Helvetica,sans-Serif" font-size="10.00">Color.hpp</text>
</a>
</g>
</g>
<!-- Node2&#45;&gt;Node6 -->
<g id="edge5" class="edge"><title>Node2&#45;&gt;Node6</title>
<path fill="none" stroke="midnightblue" d="M126,-168.083C126,-161.006 126,-150.861 126,-141.986"/>
<polygon fill="midnightblue" stroke="midnightblue" points="129.5,-141.751 126,-131.751 122.5,-141.751 129.5,-141.751"/>
</g>
<!-- Node10 -->
<g id="node10" class="node"><title>Node10</title>
<g id="a_node10"><a xlink:href="_canvas_8hpp.html" target="_top" xlink:title="Canvas.hpp">
<polygon fill="white" stroke="black" points="179.5,-112.5 179.5,-131.5 248.5,-131.5 248.5,-112.5 179.5,-112.5"/>
<text text-anchor="middle" x="214" y="-119.5" font-family="Helvetica,sans-Serif" font-size="10.00">Canvas.hpp</text>
</a>
</g>
</g>
<!-- Node2&#45;&gt;Node10 -->
<g id="edge9" class="edge"><title>Node2&#45;&gt;Node10</title>
<path fill="none" stroke="midnightblue" d="M140.139,-168.324C153.866,-159.9 174.936,-146.971 191.064,-137.074"/>
<polygon fill="midnightblue" stroke="midnightblue" points="193.204,-139.868 199.896,-131.655 189.543,-133.902 193.204,-139.868"/>
</g>
<!-- Node15 -->
<g id="node15" class="node"><title>Node15</title>
<g id="a_node15"><a xlink:href="_event_8hpp.html" target="_top" xlink:title="Classe Event. ">
<polygon fill="white" stroke="black" points="266.5,-112.5 266.5,-131.5 327.5,-131.5 327.5,-112.5 266.5,-112.5"/>
<text text-anchor="middle" x="297" y="-119.5" font-family="Helvetica,sans-Serif" font-size="10.00">Event.hpp</text>
</a>
</g>
</g>
<!-- Node2&#45;&gt;Node15 -->
<g id="edge18" class="edge"><title>Node2&#45;&gt;Node15</title>
<path fill="none" stroke="midnightblue" d="M153.095,-168.444C181.988,-159.32 227.925,-144.813 260.105,-134.651"/>
<polygon fill="midnightblue" stroke="midnightblue" points="261.549,-137.865 270.031,-131.516 259.441,-131.19 261.549,-137.865"/>
</g>
<!-- Node7 -->
<g id="node7" class="node"><title>Node7</title>
<polygon fill="white" stroke="#bfbfbf" points="99,-56.5 99,-75.5 145,-75.5 145,-56.5 99,-56.5"/>
<text text-anchor="middle" x="122" y="-63.5" font-family="Helvetica,sans-Serif" font-size="10.00">cstdint</text>
</g>
<!-- Node6&#45;&gt;Node7 -->
<g id="edge6" class="edge"><title>Node6&#45;&gt;Node7</title>
<path fill="none" stroke="midnightblue" d="M125.339,-112.083C124.815,-105.006 124.064,-94.8611 123.406,-85.9865"/>
<polygon fill="midnightblue" stroke="midnightblue" points="126.877,-85.4652 122.648,-75.7511 119.897,-85.9823 126.877,-85.4652"/>
</g>
<!-- Node8 -->
<g id="node8" class="node"><title>Node8</title>
<polygon fill="white" stroke="#bfbfbf" points="39.5,-56.5 39.5,-75.5 80.5,-75.5 80.5,-56.5 39.5,-56.5"/>
<text text-anchor="middle" x="60" y="-63.5" font-family="Helvetica,sans-Serif" font-size="10.00">string</text>
</g>
<!-- Node6&#45;&gt;Node8 -->
<g id="edge7" class="edge"><title>Node6&#45;&gt;Node8</title>
<path fill="none" stroke="midnightblue" d="M115.396,-112.324C105.544,-104.263 90.6491,-92.0765 78.7849,-82.3695"/>
<polygon fill="midnightblue" stroke="midnightblue" points="80.7529,-79.4575 70.797,-75.8339 76.3202,-84.8752 80.7529,-79.4575"/>
</g>
<!-- Node9 -->
<g id="node9" class="node"><title>Node9</title>
<polygon fill="white" stroke="#bfbfbf" points="163,-56.5 163,-75.5 271,-75.5 271,-56.5 163,-56.5"/>
<text text-anchor="middle" x="217" y="-63.5" font-family="Helvetica,sans-Serif" font-size="10.00">ez&#45;lib/ez&#45;draw++.hpp</text>
</g>
<!-- Node6&#45;&gt;Node9 -->
<g id="edge8" class="edge"><title>Node6&#45;&gt;Node9</title>
<path fill="none" stroke="midnightblue" d="M140.621,-112.324C154.949,-103.822 177.013,-90.7288 193.749,-80.7975"/>
<polygon fill="midnightblue" stroke="midnightblue" points="195.602,-83.7677 202.416,-75.6545 192.03,-77.7478 195.602,-83.7677"/>
</g>
<!-- Node10&#45;&gt;Node9 -->
<g id="edge10" class="edge"><title>Node10&#45;&gt;Node9</title>
<path fill="none" stroke="midnightblue" d="M214.495,-112.083C214.889,-105.006 215.452,-94.8611 215.945,-85.9865"/>
<polygon fill="midnightblue" stroke="midnightblue" points="219.454,-85.9299 216.514,-75.7511 212.464,-85.5415 219.454,-85.9299"/>
</g>
<!-- Node11 -->
<g id="node11" class="node"><title>Node11</title>
<g id="a_node11"><a xlink:href="_point_8hpp.html" target="_top" xlink:title="Classe point. ">
<polygon fill="white" stroke="black" points="289,-56.5 289,-75.5 347,-75.5 347,-56.5 289,-56.5"/>
<text text-anchor="middle" x="318" y="-63.5" font-family="Helvetica,sans-Serif" font-size="10.00">Point.hpp</text>
</a>
</g>
</g>
<!-- Node10&#45;&gt;Node11 -->
<g id="edge11" class="edge"><title>Node10&#45;&gt;Node11</title>
<path fill="none" stroke="midnightblue" d="M230.709,-112.324C247.312,-103.703 273.002,-90.3643 292.22,-80.3855"/>
<polygon fill="midnightblue" stroke="midnightblue" points="294.07,-83.3689 301.332,-75.6545 290.844,-77.1565 294.07,-83.3689"/>
</g>
<!-- Node14 -->
<g id="node14" class="node"><title>Node14</title>
<g id="a_node14"><a xlink:href="_font_8hpp.html" target="_top" xlink:title="Font.hpp">
<polygon fill="white" stroke="black" points="365.5,-56.5 365.5,-75.5 420.5,-75.5 420.5,-56.5 365.5,-56.5"/>
<text text-anchor="middle" x="393" y="-63.5" font-family="Helvetica,sans-Serif" font-size="10.00">Font.hpp</text>
</a>
</g>
</g>
<!-- Node10&#45;&gt;Node14 -->
<g id="edge16" class="edge"><title>Node10&#45;&gt;Node14</title>
<path fill="none" stroke="midnightblue" d="M242.363,-112.444C272.917,-103.226 321.679,-88.5157 355.409,-78.3402"/>
<polygon fill="midnightblue" stroke="midnightblue" points="356.795,-81.5781 365.358,-75.339 354.773,-74.8764 356.795,-81.5781"/>
</g>
<!-- Node11&#45;&gt;Node3 -->
<g id="edge13" class="edge"><title>Node11&#45;&gt;Node3</title>
<path fill="none" stroke="midnightblue" d="M298.669,-56.4435C278.68,-47.5961 247.257,-33.6875 224.436,-23.5865"/>
<polygon fill="midnightblue" stroke="midnightblue" points="225.802,-20.3635 215.241,-19.5164 222.968,-26.7645 225.802,-20.3635"/>
</g>
<!-- Node11&#45;&gt;Node5 -->
<g id="edge15" class="edge"><title>Node11&#45;&gt;Node5</title>
<path fill="none" stroke="midnightblue" d="M288.992,-57.9493C285.961,-57.2666 282.921,-56.6042 280,-56 202.779,-40.0286 111.621,-24.739 62.2306,-16.7491"/>
<polygon fill="midnightblue" stroke="midnightblue" points="62.4843,-13.245 52.0551,-15.1108 61.3716,-20.156 62.4843,-13.245"/>
</g>
<!-- Node11&#45;&gt;Node12 -->
<g id="edge12" class="edge"><title>Node11&#45;&gt;Node12</title>
<path fill="none" stroke="midnightblue" d="M334.549,-56.324C350.992,-47.7034 376.435,-34.3643 395.468,-24.3855"/>
<polygon fill="midnightblue" stroke="midnightblue" points="397.261,-27.3977 404.492,-19.6545 394.011,-21.198 397.261,-27.3977"/>
</g>
<!-- Node13 -->
<g id="node13" class="node"><title>Node13</title>
<polygon fill="white" stroke="#bfbfbf" points="288.5,-0.5 288.5,-19.5 347.5,-19.5 347.5,-0.5 288.5,-0.5"/>
<text text-anchor="middle" x="318" y="-7.5" font-family="Helvetica,sans-Serif" font-size="10.00">functional</text>
</g>
<!-- Node11&#45;&gt;Node13 -->
<g id="edge14" class="edge"><title>Node11&#45;&gt;Node13</title>
<path fill="none" stroke="midnightblue" d="M318,-56.083C318,-49.0059 318,-38.8611 318,-29.9865"/>
<polygon fill="midnightblue" stroke="midnightblue" points="321.5,-29.751 318,-19.7511 314.5,-29.7511 321.5,-29.751"/>
</g>
<!-- Node14&#45;&gt;Node12 -->
<g id="edge17" class="edge"><title>Node14&#45;&gt;Node12</title>
<path fill="none" stroke="midnightblue" d="M397.624,-56.083C401.456,-48.6913 407.024,-37.9533 411.765,-28.8111"/>
<polygon fill="midnightblue" stroke="midnightblue" points="414.966,-30.2398 416.462,-19.7511 408.752,-27.0175 414.966,-30.2398"/>
</g>
<!-- Node15&#45;&gt;Node9 -->
<g id="edge20" class="edge"><title>Node15&#45;&gt;Node9</title>
<path fill="none" stroke="midnightblue" d="M284.147,-112.324C271.784,-103.979 252.87,-91.2122 238.263,-81.3524"/>
<polygon fill="midnightblue" stroke="midnightblue" points="240.068,-78.3483 229.821,-75.6545 236.152,-84.1503 240.068,-78.3483"/>
</g>
<!-- Node15&#45;&gt;Node12 -->
<g id="edge19" class="edge"><title>Node15&#45;&gt;Node12</title>
<path fill="none" stroke="midnightblue" d="M327.511,-120.205C358.799,-117.562 406.033,-108.094 429,-76 438.596,-62.59 434.752,-43.5123 429.616,-29.4926"/>
<polygon fill="midnightblue" stroke="midnightblue" points="432.712,-27.8225 425.638,-19.9354 426.249,-30.5125 432.712,-27.8225"/>
</g>
<!-- Node16&#45;&gt;Node11 -->
<g id="edge23" class="edge"><title>Node16&#45;&gt;Node11</title>
<path fill="none" stroke="midnightblue" d="M329.29,-168.132C333.507,-155.586 339.843,-131.956 336,-112 334.21,-102.705 330.517,-92.8887 326.939,-84.8048"/>
<polygon fill="midnightblue" stroke="midnightblue" points="330.056,-83.2089 322.621,-75.6611 323.727,-86.1981 330.056,-83.2089"/>
</g>
<!-- Node16&#45;&gt;Node15 -->
<g id="edge22" class="edge"><title>Node16&#45;&gt;Node15</title>
<path fill="none" stroke="midnightblue" d="M321.211,-168.083C317.242,-160.691 311.475,-149.953 306.565,-140.811"/>
<polygon fill="midnightblue" stroke="midnightblue" points="309.514,-138.905 301.7,-131.751 303.347,-142.217 309.514,-138.905"/>
</g>
</g>
</svg>
