<?xml version="1.0" encoding="UTF-8" standalone="no"?>
<!DOCTYPE svg PUBLIC "-//W3C//DTD SVG 1.1//EN"
 "http://www.w3.org/Graphics/SVG/1.1/DTD/svg11.dtd">
<!-- Generated by graphviz version 2.36.0 (20140111.2315)
 -->
<!-- Title: GraphicsPoint.cpp Pages: 1 -->
<svg width="738pt" height="308pt"
 viewBox="0.00 0.00 738.00 308.00" xmlns="http://www.w3.org/2000/svg" xmlns:xlink="http://www.w3.org/1999/xlink">
<g id="graph0" class="graph" transform="scale(1 1) rotate(0) translate(4 304)">
<title>GraphicsPoint.cpp</title>
<polygon fill="white" stroke="none" points="-4,4 -4,-304 734,-304 734,4 -4,4"/>
<!-- Node1 -->
<g id="node1" class="node"><title>Node1</title>
<polygon fill="#bfbfbf" stroke="black" points="417.5,-280.5 417.5,-299.5 514.5,-299.5 514.5,-280.5 417.5,-280.5"/>
<text text-anchor="middle" x="466" y="-287.5" font-family="Helvetica,sans-Serif" font-size="10.00">GraphicsPoint.cpp</text>
</g>
<!-- Node2 -->
<g id="node2" class="node"><title>Node2</title>
<g id="a_node2"><a xlink:href="_graphics_point_8hpp.html" target="_top" xlink:title="../include/GraphicsPoint.hpp">
<polygon fill="white" stroke="black" points="447,-224.5 447,-243.5 587,-243.5 587,-224.5 447,-224.5"/>
<text text-anchor="middle" x="517" y="-231.5" font-family="Helvetica,sans-Serif" font-size="10.00">../include/GraphicsPoint.hpp</text>
</a>
</g>
</g>
<!-- Node1&#45;&gt;Node2 -->
<g id="edge1" class="edge"><title>Node1&#45;&gt;Node2</title>
<path fill="none" stroke="midnightblue" d="M474.422,-280.083C481.848,-272.22 492.852,-260.569 501.812,-251.081"/>
<polygon fill="midnightblue" stroke="midnightblue" points="504.413,-253.424 508.735,-243.751 499.324,-248.618 504.413,-253.424"/>
</g>
<!-- Node20 -->
<g id="node20" class="node"><title>Node20</title>
<g id="a_node20"><a xlink:href="_mouse_event_8hpp.html" target="_top" xlink:title="Classe MouseEvent. ">
<polygon fill="white" stroke="black" points="365,-168.5 365,-187.5 455,-187.5 455,-168.5 365,-168.5"/>
<text text-anchor="middle" x="410" y="-175.5" font-family="Helvetica,sans-Serif" font-size="10.00">MouseEvent.hpp</text>
</a>
</g>
</g>
<!-- Node1&#45;&gt;Node20 -->
<g id="edge24" class="edge"><title>Node1&#45;&gt;Node20</title>
<path fill="none" stroke="midnightblue" d="M460.018,-280.266C454.053,-271.363 444.82,-257.047 438,-244 429.915,-228.534 422.183,-210.221 416.9,-196.982"/>
<polygon fill="midnightblue" stroke="midnightblue" points="420.133,-195.639 413.229,-187.602 413.615,-198.19 420.133,-195.639"/>
</g>
<!-- Node3 -->
<g id="node3" class="node"><title>Node3</title>
<g id="a_node3"><a xlink:href="_graphics_item_8hpp.html" target="_top" xlink:title="Classe GraphicsItem. ">
<polygon fill="white" stroke="black" points="473,-168.5 473,-187.5 567,-187.5 567,-168.5 473,-168.5"/>
<text text-anchor="middle" x="520" y="-175.5" font-family="Helvetica,sans-Serif" font-size="10.00">GraphicsItem.hpp</text>
</a>
</g>
</g>
<!-- Node2&#45;&gt;Node3 -->
<g id="edge2" class="edge"><title>Node2&#45;&gt;Node3</title>
<path fill="none" stroke="midnightblue" d="M517.495,-224.083C517.889,-217.006 518.452,-206.861 518.945,-197.986"/>
<polygon fill="midnightblue" stroke="midnightblue" points="522.454,-197.93 519.514,-187.751 515.464,-197.542 522.454,-197.93"/>
</g>
<!-- Node4 -->
<g id="node4" class="node"><title>Node4</title>
<polygon fill="white" stroke="#bfbfbf" points="571,-0.5 571,-19.5 615,-19.5 615,-0.5 571,-0.5"/>
<text text-anchor="middle" x="593" y="-7.5" font-family="Helvetica,sans-Serif" font-size="10.00">vector</text>
</g>
<!-- Node3&#45;&gt;Node4 -->
<g id="edge3" class="edge"><title>Node3&#45;&gt;Node4</title>
<path fill="none" stroke="midnightblue" d="M547.605,-168.363C567.863,-161.032 595.183,-148.981 615,-132 637.84,-112.429 644.166,-104.752 653,-76 655.611,-67.5031 656.975,-63.9505 653,-56 646.272,-42.5432 633.394,-32.0665 621.288,-24.6212"/>
<polygon fill="midnightblue" stroke="midnightblue" points="622.721,-21.4101 612.296,-19.5195 619.267,-27.4985 622.721,-21.4101"/>
</g>
<!-- Node5 -->
<g id="node5" class="node"><title>Node5</title>
<polygon fill="white" stroke="#bfbfbf" points="700,-112.5 700,-131.5 730,-131.5 730,-112.5 700,-112.5"/>
<text text-anchor="middle" x="715" y="-119.5" font-family="Helvetica,sans-Serif" font-size="10.00">set</text>
</g>
<!-- Node3&#45;&gt;Node5 -->
<g id="edge4" class="edge"><title>Node3&#45;&gt;Node5</title>
<path fill="none" stroke="midnightblue" d="M552.855,-168.469C586.415,-159.667 639.979,-145.374 686,-132 687.424,-131.586 688.885,-131.155 690.357,-130.714"/>
<polygon fill="midnightblue" stroke="midnightblue" points="691.439,-134.044 699.98,-127.775 689.393,-127.349 691.439,-134.044"/>
</g>
<!-- Node6 -->
<g id="node6" class="node"><title>Node6</title>
<polygon fill="white" stroke="#bfbfbf" points="477,-112.5 477,-131.5 529,-131.5 529,-112.5 477,-112.5"/>
<text text-anchor="middle" x="503" y="-119.5" font-family="Helvetica,sans-Serif" font-size="10.00">memory</text>
</g>
<!-- Node3&#45;&gt;Node6 -->
<g id="edge5" class="edge"><title>Node3&#45;&gt;Node6</title>
<path fill="none" stroke="midnightblue" d="M517.193,-168.083C514.915,-160.849 511.629,-150.409 508.792,-141.397"/>
<polygon fill="midnightblue" stroke="midnightblue" points="512.096,-140.239 505.755,-131.751 505.419,-142.341 512.096,-140.239"/>
</g>
<!-- Node7 -->
<g id="node7" class="node"><title>Node7</title>
<g id="a_node7"><a xlink:href="_color_8hpp.html" target="_top" xlink:title="Classe Color. ">
<polygon fill="white" stroke="black" points="547.5,-112.5 547.5,-131.5 606.5,-131.5 606.5,-112.5 547.5,-112.5"/>
<text text-anchor="middle" x="577" y="-119.5" font-family="Helvetica,sans-Serif" font-size="10.00">Color.hpp</text>
</a>
</g>
</g>
<!-- Node3&#45;&gt;Node7 -->
<g id="edge6" class="edge"><title>Node3&#45;&gt;Node7</title>
<path fill="none" stroke="midnightblue" d="M529.158,-168.324C537.501,-160.42 550.032,-148.548 560.177,-138.938"/>
<polygon fill="midnightblue" stroke="midnightblue" points="562.823,-141.252 567.675,-131.834 558.009,-136.171 562.823,-141.252"/>
</g>
<!-- Node11 -->
<g id="node11" class="node"><title>Node11</title>
<g id="a_node11"><a xlink:href="_canvas_8hpp.html" target="_top" xlink:title="Canvas.hpp">
<polygon fill="white" stroke="black" points="301.5,-112.5 301.5,-131.5 370.5,-131.5 370.5,-112.5 301.5,-112.5"/>
<text text-anchor="middle" x="336" y="-119.5" font-family="Helvetica,sans-Serif" font-size="10.00">Canvas.hpp</text>
</a>
</g>
</g>
<!-- Node3&#45;&gt;Node11 -->
<g id="edge10" class="edge"><title>Node3&#45;&gt;Node11</title>
<path fill="none" stroke="midnightblue" d="M490.845,-168.444C459.487,-159.241 409.469,-144.562 374.803,-134.388"/>
<polygon fill="midnightblue" stroke="midnightblue" points="375.6,-130.974 365.019,-131.516 373.629,-137.691 375.6,-130.974"/>
</g>
<!-- Node19 -->
<g id="node19" class="node"><title>Node19</title>
<g id="a_node19"><a xlink:href="_event_8hpp.html" target="_top" xlink:title="Classe Event. ">
<polygon fill="white" stroke="black" points="397.5,-112.5 397.5,-131.5 458.5,-131.5 458.5,-112.5 397.5,-112.5"/>
<text text-anchor="middle" x="428" y="-119.5" font-family="Helvetica,sans-Serif" font-size="10.00">Event.hpp</text>
</a>
</g>
</g>
<!-- Node3&#45;&gt;Node19 -->
<g id="edge21" class="edge"><title>Node3&#45;&gt;Node19</title>
<path fill="none" stroke="midnightblue" d="M505.219,-168.324C490.733,-159.822 468.427,-146.729 451.507,-136.797"/>
<polygon fill="midnightblue" stroke="midnightblue" points="453.141,-133.698 442.745,-131.655 449.597,-139.735 453.141,-133.698"/>
</g>
<!-- Node8 -->
<g id="node8" class="node"><title>Node8</title>
<polygon fill="white" stroke="#bfbfbf" points="598,-56.5 598,-75.5 644,-75.5 644,-56.5 598,-56.5"/>
<text text-anchor="middle" x="621" y="-63.5" font-family="Helvetica,sans-Serif" font-size="10.00">cstdint</text>
</g>
<!-- Node7&#45;&gt;Node8 -->
<g id="edge7" class="edge"><title>Node7&#45;&gt;Node8</title>
<path fill="none" stroke="midnightblue" d="M584.266,-112.083C590.545,-104.377 599.788,-93.0333 607.431,-83.6531"/>
<polygon fill="midnightblue" stroke="midnightblue" points="610.266,-85.7143 613.869,-75.7511 604.839,-81.2926 610.266,-85.7143"/>
</g>
<!-- Node9 -->
<g id="node9" class="node"><title>Node9</title>
<polygon fill="white" stroke="#bfbfbf" points="538.5,-56.5 538.5,-75.5 579.5,-75.5 579.5,-56.5 538.5,-56.5"/>
<text text-anchor="middle" x="559" y="-63.5" font-family="Helvetica,sans-Serif" font-size="10.00">string</text>
</g>
<!-- Node7&#45;&gt;Node9 -->
<g id="edge8" class="edge"><title>Node7&#45;&gt;Node9</title>
<path fill="none" stroke="midnightblue" d="M574.028,-112.083C571.616,-104.849 568.136,-94.4087 565.132,-85.3968"/>
<polygon fill="midnightblue" stroke="midnightblue" points="568.4,-84.1311 561.917,-75.7511 561.759,-86.3447 568.4,-84.1311"/>
</g>
<!-- Node10 -->
<g id="node10" class="node"><title>Node10</title>
<polygon fill="white" stroke="#bfbfbf" points="374,-56.5 374,-75.5 482,-75.5 482,-56.5 374,-56.5"/>
<text text-anchor="middle" x="428" y="-63.5" font-family="Helvetica,sans-Serif" font-size="10.00">ez&#45;lib/ez&#45;draw++.hpp</text>
</g>
<!-- Node7&#45;&gt;Node10 -->
<g id="edge9" class="edge"><title>Node7&#45;&gt;Node10</title>
<path fill="none" stroke="midnightblue" d="M553.391,-112.444C528.542,-103.438 489.226,-89.1891 461.246,-79.049"/>
<polygon fill="midnightblue" stroke="midnightblue" points="462.093,-75.6332 451.499,-75.5164 459.708,-82.2144 462.093,-75.6332"/>
</g>
<!-- Node11&#45;&gt;Node10 -->
<g id="edge11" class="edge"><title>Node11&#45;&gt;Node10</title>
<path fill="none" stroke="midnightblue" d="M350.781,-112.324C365.267,-103.822 387.573,-90.7288 404.493,-80.7975"/>
<polygon fill="midnightblue" stroke="midnightblue" points="406.403,-83.735 413.255,-75.6545 402.859,-77.6981 406.403,-83.735"/>
</g>
<!-- Node12 -->
<g id="node12" class="node"><title>Node12</title>
<g id="a_node12"><a xlink:href="_point_8hpp.html" target="_top" xlink:title="Classe point. ">
<polygon fill="white" stroke="black" points="224,-56.5 224,-75.5 282,-75.5 282,-56.5 224,-56.5"/>
<text text-anchor="middle" x="253" y="-63.5" font-family="Helvetica,sans-Serif" font-size="10.00">Point.hpp</text>
</a>
</g>
</g>
<!-- Node11&#45;&gt;Node12 -->
<g id="edge12" class="edge"><title>Node11&#45;&gt;Node12</title>
<path fill="none" stroke="midnightblue" d="M322.665,-112.324C309.838,-103.979 290.215,-91.2122 275.06,-81.3524"/>
<polygon fill="midnightblue" stroke="midnightblue" points="276.593,-78.1742 266.302,-75.6545 272.776,-84.0417 276.593,-78.1742"/>
</g>
<!-- Node18 -->
<g id="node18" class="node"><title>Node18</title>
<g id="a_node18"><a xlink:href="_font_8hpp.html" target="_top" xlink:title="Font.hpp">
<polygon fill="white" stroke="black" points="300.5,-56.5 300.5,-75.5 355.5,-75.5 355.5,-56.5 300.5,-56.5"/>
<text text-anchor="middle" x="328" y="-63.5" font-family="Helvetica,sans-Serif" font-size="10.00">Font.hpp</text>
</a>
</g>
</g>
<!-- Node11&#45;&gt;Node18 -->
<g id="edge19" class="edge"><title>Node11&#45;&gt;Node18</title>
<path fill="none" stroke="midnightblue" d="M334.679,-112.083C333.619,-104.927 332.094,-94.6353 330.769,-85.6911"/>
<polygon fill="midnightblue" stroke="midnightblue" points="334.224,-85.1302 329.296,-75.7511 327.3,-86.1561 334.224,-85.1302"/>
</g>
<!-- Node12&#45;&gt;Node4 -->
<g id="edge17" class="edge"><title>Node12&#45;&gt;Node4</title>
<path fill="none" stroke="midnightblue" d="M282.405,-57.776C285.302,-57.1424 288.204,-56.5384 291,-56 388.6,-37.2056 505.236,-21.8022 560.667,-14.9046"/>
<polygon fill="midnightblue" stroke="midnightblue" points="561.418,-18.3386 570.914,-13.64 560.56,-11.3913 561.418,-18.3386"/>
</g>
<!-- Node13 -->
<g id="node13" class="node"><title>Node13</title>
<polygon fill="white" stroke="#bfbfbf" points="300.5,-0.5 300.5,-19.5 401.5,-19.5 401.5,-0.5 300.5,-0.5"/>
<text text-anchor="middle" x="351" y="-7.5" font-family="Helvetica,sans-Serif" font-size="10.00">boost/uuid/uuid.hpp</text>
</g>
<!-- Node12&#45;&gt;Node13 -->
<g id="edge13" class="edge"><title>Node12&#45;&gt;Node13</title>
<path fill="none" stroke="midnightblue" d="M268.745,-56.324C284.319,-47.7428 308.377,-34.486 326.459,-24.5224"/>
<polygon fill="midnightblue" stroke="midnightblue" points="328.224,-27.546 335.294,-19.6545 324.846,-21.4152 328.224,-27.546"/>
</g>
<!-- Node14 -->
<g id="node14" class="node"><title>Node14</title>
<polygon fill="white" stroke="#bfbfbf" points="0,-0.5 0,-19.5 152,-19.5 152,-0.5 0,-0.5"/>
<text text-anchor="middle" x="76" y="-7.5" font-family="Helvetica,sans-Serif" font-size="10.00">boost/uuid/uuid_generators.hpp</text>
</g>
<!-- Node12&#45;&gt;Node14 -->
<g id="edge14" class="edge"><title>Node12&#45;&gt;Node14</title>
<path fill="none" stroke="midnightblue" d="M224.954,-56.4435C194.918,-47.2801 147.087,-32.6876 113.757,-22.5192"/>
<polygon fill="midnightblue" stroke="midnightblue" points="114.501,-19.0869 103.915,-19.5164 112.458,-25.7822 114.501,-19.0869"/>
</g>
<!-- Node15 -->
<g id="node15" class="node"><title>Node15</title>
<polygon fill="white" stroke="#bfbfbf" points="420,-0.5 420,-19.5 474,-19.5 474,-0.5 420,-0.5"/>
<text text-anchor="middle" x="447" y="-7.5" font-family="Helvetica,sans-Serif" font-size="10.00">iostream</text>
</g>
<!-- Node12&#45;&gt;Node15 -->
<g id="edge15" class="edge"><title>Node12&#45;&gt;Node15</title>
<path fill="none" stroke="midnightblue" d="M282.044,-56.9157C316.15,-47.4222 372.782,-31.6586 410.002,-21.2983"/>
<polygon fill="midnightblue" stroke="midnightblue" points="411.256,-24.5826 419.951,-18.5291 409.379,-17.8389 411.256,-24.5826"/>
</g>
<!-- Node16 -->
<g id="node16" class="node"><title>Node16</title>
<polygon fill="white" stroke="#bfbfbf" points="170.5,-0.5 170.5,-19.5 205.5,-19.5 205.5,-0.5 170.5,-0.5"/>
<text text-anchor="middle" x="188" y="-7.5" font-family="Helvetica,sans-Serif" font-size="10.00">map</text>
</g>
<!-- Node12&#45;&gt;Node16 -->
<g id="edge16" class="edge"><title>Node12&#45;&gt;Node16</title>
<path fill="none" stroke="midnightblue" d="M242.557,-56.324C232.854,-48.2631 218.185,-36.0765 206.5,-26.3695"/>
<polygon fill="midnightblue" stroke="midnightblue" points="208.562,-23.532 198.633,-19.8339 204.089,-28.9163 208.562,-23.532"/>
</g>
<!-- Node17 -->
<g id="node17" class="node"><title>Node17</title>
<polygon fill="white" stroke="#bfbfbf" points="223.5,-0.5 223.5,-19.5 282.5,-19.5 282.5,-0.5 223.5,-0.5"/>
<text text-anchor="middle" x="253" y="-7.5" font-family="Helvetica,sans-Serif" font-size="10.00">functional</text>
</g>
<!-- Node12&#45;&gt;Node17 -->
<g id="edge18" class="edge"><title>Node12&#45;&gt;Node17</title>
<path fill="none" stroke="midnightblue" d="M253,-56.083C253,-49.0059 253,-38.8611 253,-29.9865"/>
<polygon fill="midnightblue" stroke="midnightblue" points="256.5,-29.751 253,-19.7511 249.5,-29.7511 256.5,-29.751"/>
</g>
<!-- Node18&#45;&gt;Node15 -->
<g id="edge20" class="edge"><title>Node18&#45;&gt;Node15</title>
<path fill="none" stroke="midnightblue" d="M346.856,-56.4435C366.266,-47.6356 396.73,-33.8116 418.965,-23.722"/>
<polygon fill="midnightblue" stroke="midnightblue" points="420.572,-26.836 428.232,-19.5164 417.68,-20.4615 420.572,-26.836"/>
</g>
<!-- Node19&#45;&gt;Node10 -->
<g id="edge23" class="edge"><title>Node19&#45;&gt;Node10</title>
<path fill="none" stroke="midnightblue" d="M428,-112.083C428,-105.006 428,-94.8611 428,-85.9865"/>
<polygon fill="midnightblue" stroke="midnightblue" points="431.5,-85.751 428,-75.7511 424.5,-85.7511 431.5,-85.751"/>
</g>
<!-- Node19&#45;&gt;Node15 -->
<g id="edge22" class="edge"><title>Node19&#45;&gt;Node15</title>
<path fill="none" stroke="midnightblue" d="M448.847,-112.427C463.578,-105.129 482.205,-93.0905 491,-76 500.312,-57.9044 483.785,-38.8006 468.398,-26.0234"/>
<polygon fill="midnightblue" stroke="midnightblue" points="470.186,-22.9812 460.137,-19.6224 465.898,-28.5143 470.186,-22.9812"/>
</g>
<!-- Node20&#45;&gt;Node12 -->
<g id="edge26" class="edge"><title>Node20&#45;&gt;Node12</title>
<path fill="none" stroke="midnightblue" d="M368.821,-168.484C344.4,-161.796 314.017,-150.445 292,-132 277.064,-119.487 266.359,-99.7048 259.987,-85.248"/>
<polygon fill="midnightblue" stroke="midnightblue" points="263.158,-83.757 256.115,-75.8425 256.685,-86.4219 263.158,-83.757"/>
</g>
<!-- Node20&#45;&gt;Node19 -->
<g id="edge25" class="edge"><title>Node20&#45;&gt;Node19</title>
<path fill="none" stroke="midnightblue" d="M412.972,-168.083C415.384,-160.849 418.864,-150.409 421.868,-141.397"/>
<polygon fill="midnightblue" stroke="midnightblue" points="425.241,-142.345 425.083,-131.751 418.6,-140.131 425.241,-142.345"/>
</g>
</g>
</svg>
