<?xml version="1.0" encoding="UTF-8" standalone="no"?>
<!DOCTYPE svg PUBLIC "-//W3C//DTD SVG 1.1//EN"
 "http://www.w3.org/Graphics/SVG/1.1/DTD/svg11.dtd">
<!-- Generated by graphviz version 2.36.0 (20140111.2315)
 -->
<!-- Title: GraphicsText.hpp Pages: 1 -->
<!--zoomable 364 -->
<svg id="main" version="1.1" xmlns="http://www.w3.org/2000/svg" xmlns:xlink="http://www.w3.org/1999/xlink" xml:space="preserve" onload="init(evt)">
<style type="text/css"><![CDATA[
.edge:hover path { stroke: red; }
.edge:hover polygon { stroke: red; fill: red; }
]]></style>
<script type="text/javascript"><![CDATA[
var edges = document.getElementsByTagName('g');
if (edges && edges.length) {
  for (var i=0;i<edges.length;i++) {
    if (edges[i].id.substr(0,4)=='edge') {
      edges[i].setAttribute('class','edge');
    }
  }
}
]]></script>
        <defs>
                <circle id="rim" cx="0" cy="0" r="7"/>
                <circle id="rim2" cx="0" cy="0" r="3.5"/>
                <g id="zoomPlus">
                        <use xlink:href="#rim" fill="#404040">
                                <set attributeName="fill" to="#808080" begin="zoomplus.mouseover" end="zoomplus.mouseout"/>
                        </use>
                        <path d="M-4,0h8M0,-4v8" fill="none" stroke="white" stroke-width="1.5" pointer-events="none"/>
                </g>
                <g id="zoomMin">
                        <use xlink:href="#rim" fill="#404040">
                                <set attributeName="fill" to="#808080" begin="zoomminus.mouseover" end="zoomminus.mouseout"/>
                        </use>
                        <path d="M-4,0h8" fill="none" stroke="white" stroke-width="1.5" pointer-events="none"/>
                </g>
                <g id="dirArrow">
                        <path fill="none" stroke="white" stroke-width="1.5" d="M0,-3.0v7 M-2.5,-0.5L0,-3.0L2.5,-0.5"/>
                </g>
               <g id="resetDef">
                       <use xlink:href="#rim2" fill="#404040">
                               <set attributeName="fill" to="#808080" begin="reset.mouseover" end="reset.mouseout"/>
                       </use>
               </g>
        </defs>

<script type="text/javascript">
var viewWidth = 753;
var viewHeight = 364;
var sectionId = 'dynsection-1';
</script>
<script xlink:href="svgpan.js"/>
<svg id="graph" class="graph">
<g id="viewport">
<title>GraphicsText.hpp</title>
<polygon fill="white" stroke="none" points="-4,4 -4,-360 749,-360 749,4 -4,4"/>
<!-- Node1 -->
<g id="node1" class="node"><title>Node1</title>
<polygon fill="#bfbfbf" stroke="black" points="405,-336.5 405,-355.5 499,-355.5 499,-336.5 405,-336.5"/>
<text text-anchor="middle" x="452" y="-343.5" font-family="Helvetica,sans-Serif" font-size="10.00">GraphicsText.hpp</text>
</g>
<!-- Node2 -->
<g id="node2" class="node"><title>Node2</title>
<g id="a_node2"><a xlink:href="_config_text_8cpp_source.html" target="_top" xlink:title="ConfigText.cpp">
<polygon fill="white" stroke="black" points="135.5,-0.5 135.5,-19.5 218.5,-19.5 218.5,-0.5 135.5,-0.5"/>
<text text-anchor="middle" x="177" y="-7.5" font-family="Helvetica,sans-Serif" font-size="10.00">ConfigText.cpp</text>
</a>
</g>
</g>
<!-- Node1&#45;&gt;Node2 -->
<g id="edge1" class="edge"><title>Node1&#45;&gt;Node2</title>
<path fill="none" stroke="midnightblue" d="M394.665,-343.016C272.994,-337.243 0,-315.339 0,-235 0,-235 0,-235 0,-121 0,-57.6852 82.7122,-29.5305 135.053,-18.0526"/>
<polygon fill="midnightblue" stroke="midnightblue" points="394.759,-346.524 404.907,-343.48 395.076,-339.531 394.759,-346.524"/>
</g>
<!-- Node3 -->
<g id="node3" class="node"><title>Node3</title>
<g id="a_node3"><a xlink:href="_graphics_factory_8cpp_source.html" target="_top" xlink:title="GraphicsFactory.cpp">
<polygon fill="white" stroke="black" points="413.5,-0.5 413.5,-19.5 520.5,-19.5 520.5,-0.5 413.5,-0.5"/>
<text text-anchor="middle" x="467" y="-7.5" font-family="Helvetica,sans-Serif" font-size="10.00">GraphicsFactory.cpp</text>
</a>
</g>
</g>
<!-- Node1&#45;&gt;Node3 -->
<g id="edge2" class="edge"><title>Node1&#45;&gt;Node3</title>
<path fill="none" stroke="midnightblue" d="M506.693,-333.861C556.724,-320.102 623,-291.259 623,-235 623,-235 623,-235 623,-121 623,-90.7745 624.147,-77.5963 603,-56 589.254,-41.9618 540.671,-28.1106 505.488,-19.563"/>
<polygon fill="midnightblue" stroke="midnightblue" points="505.717,-330.499 496.928,-336.416 507.488,-337.271 505.717,-330.499"/>
</g>
<!-- Node4 -->
<g id="node4" class="node"><title>Node4</title>
<g id="a_node4"><a xlink:href="_graphics_text_8cpp_source.html" target="_top" xlink:title="GraphicsText.cpp">
<polygon fill="white" stroke="black" points="651,-280.5 651,-299.5 745,-299.5 745,-280.5 651,-280.5"/>
<text text-anchor="middle" x="698" y="-287.5" font-family="Helvetica,sans-Serif" font-size="10.00">GraphicsText.cpp</text>
</a>
</g>
</g>
<!-- Node1&#45;&gt;Node4 -->
<g id="edge3" class="edge"><title>Node1&#45;&gt;Node4</title>
<path fill="none" stroke="midnightblue" d="M500.829,-334.281C547.316,-324.077 616.363,-308.92 659.203,-299.516"/>
<polygon fill="midnightblue" stroke="midnightblue" points="499.996,-330.881 490.979,-336.444 501.497,-337.718 499.996,-330.881"/>
</g>
<!-- Node5 -->
<g id="node5" class="node"><title>Node5</title>
<g id="a_node5"><a xlink:href="_label_8hpp_source.html" target="_top" xlink:title="Label.hpp">
<polygon fill="white" stroke="black" points="287.5,-280.5 287.5,-299.5 346.5,-299.5 346.5,-280.5 287.5,-280.5"/>
<text text-anchor="middle" x="317" y="-287.5" font-family="Helvetica,sans-Serif" font-size="10.00">Label.hpp</text>
</a>
</g>
</g>
<!-- Node1&#45;&gt;Node5 -->
<g id="edge4" class="edge"><title>Node1&#45;&gt;Node5</title>
<path fill="none" stroke="midnightblue" d="M421.094,-332.638C395.76,-322.504 360.569,-308.427 338.291,-299.516"/>
<polygon fill="midnightblue" stroke="midnightblue" points="420.024,-335.979 430.609,-336.444 422.624,-329.48 420.024,-335.979"/>
</g>
<!-- Node6 -->
<g id="node6" class="node"><title>Node6</title>
<g id="a_node6"><a xlink:href="_config_item_8hpp.html" target="_top" xlink:title="Classe ConfigItem. ">
<polygon fill="white" stroke="black" points="390.5,-112.5 390.5,-131.5 473.5,-131.5 473.5,-112.5 390.5,-112.5"/>
<text text-anchor="middle" x="432" y="-119.5" font-family="Helvetica,sans-Serif" font-size="10.00">ConfigItem.hpp</text>
</a>
</g>
</g>
<!-- Node5&#45;&gt;Node6 -->
<g id="edge5" class="edge"><title>Node5&#45;&gt;Node6</title>
<path fill="none" stroke="midnightblue" d="M356.265,-281.713C402.823,-270.661 477.898,-244.622 508,-188 521.692,-162.245 484.683,-142.3 457.621,-131.632"/>
<polygon fill="midnightblue" stroke="midnightblue" points="355.493,-278.299 346.506,-283.91 357.03,-285.128 355.493,-278.299"/>
</g>
<!-- Node12 -->
<g id="node12" class="node"><title>Node12</title>
<g id="a_node12"><a xlink:href="_tools_window_8cpp_source.html" target="_top" xlink:title="ToolsWindow.cpp">
<polygon fill="white" stroke="black" points="28.5,-112.5 28.5,-131.5 123.5,-131.5 123.5,-112.5 28.5,-112.5"/>
<text text-anchor="middle" x="76" y="-119.5" font-family="Helvetica,sans-Serif" font-size="10.00">ToolsWindow.cpp</text>
</a>
</g>
</g>
<!-- Node5&#45;&gt;Node12 -->
<g id="edge15" class="edge"><title>Node5&#45;&gt;Node12</title>
<path fill="none" stroke="midnightblue" d="M277.167,-288.348C237.644,-285.737 177.302,-276.22 137,-244 99.1473,-213.738 82.715,-153.829 77.74,-131.581"/>
<polygon fill="midnightblue" stroke="midnightblue" points="277.06,-291.847 287.235,-288.894 277.439,-284.857 277.06,-291.847"/>
</g>
<!-- Node13 -->
<g id="node13" class="node"><title>Node13</title>
<g id="a_node13"><a xlink:href="_button_8hpp.html" target="_top" xlink:title="Classe Button. ">
<polygon fill="white" stroke="black" points="180,-168.5 180,-187.5 244,-187.5 244,-168.5 180,-168.5"/>
<text text-anchor="middle" x="212" y="-175.5" font-family="Helvetica,sans-Serif" font-size="10.00">Button.hpp</text>
</a>
</g>
</g>
<!-- Node5&#45;&gt;Node13 -->
<g id="edge16" class="edge"><title>Node5&#45;&gt;Node13</title>
<path fill="none" stroke="midnightblue" d="M315.144,-270.431C312.893,-256.341 307.927,-237.208 297,-224 282.311,-206.246 258.759,-194.557 240.167,-187.553"/>
<polygon fill="midnightblue" stroke="midnightblue" points="311.684,-270.967 316.43,-280.439 318.627,-270.075 311.684,-270.967"/>
</g>
<!-- Node16 -->
<g id="node16" class="node"><title>Node16</title>
<g id="a_node16"><a xlink:href="_line_edit_8hpp_source.html" target="_top" xlink:title="LineEdit.hpp">
<polygon fill="white" stroke="black" points="345.5,-224.5 345.5,-243.5 416.5,-243.5 416.5,-224.5 345.5,-224.5"/>
<text text-anchor="middle" x="381" y="-231.5" font-family="Helvetica,sans-Serif" font-size="10.00">LineEdit.hpp</text>
</a>
</g>
</g>
<!-- Node5&#45;&gt;Node16 -->
<g id="edge22" class="edge"><title>Node5&#45;&gt;Node16</title>
<path fill="none" stroke="midnightblue" d="M334.991,-273.82C346.458,-264.145 360.913,-251.948 370.53,-243.834"/>
<polygon fill="midnightblue" stroke="midnightblue" points="332.669,-271.2 327.283,-280.324 337.183,-276.55 332.669,-271.2"/>
</g>
<!-- Node19 -->
<g id="node19" class="node"><title>Node19</title>
<g id="a_node19"><a xlink:href="_label_8cpp_source.html" target="_top" xlink:title="Label.cpp">
<polygon fill="white" stroke="black" points="146.5,-224.5 146.5,-243.5 205.5,-243.5 205.5,-224.5 146.5,-224.5"/>
<text text-anchor="middle" x="176" y="-231.5" font-family="Helvetica,sans-Serif" font-size="10.00">Label.cpp</text>
</a>
</g>
</g>
<!-- Node5&#45;&gt;Node19 -->
<g id="edge29" class="edge"><title>Node5&#45;&gt;Node19</title>
<path fill="none" stroke="midnightblue" d="M285.071,-276.772C258.586,-266.629 221.608,-252.467 198.237,-243.516"/>
<polygon fill="midnightblue" stroke="midnightblue" points="284.068,-280.136 294.658,-280.444 286.571,-273.599 284.068,-280.136"/>
</g>
<!-- Node20 -->
<g id="node20" class="node"><title>Node20</title>
<g id="a_node20"><a xlink:href="_layout_8cpp_source.html" target="_top" xlink:title="Layout.cpp">
<polygon fill="white" stroke="black" points="223.5,-224.5 223.5,-243.5 288.5,-243.5 288.5,-224.5 223.5,-224.5"/>
<text text-anchor="middle" x="256" y="-231.5" font-family="Helvetica,sans-Serif" font-size="10.00">Layout.cpp</text>
</a>
</g>
</g>
<!-- Node5&#45;&gt;Node20 -->
<g id="edge30" class="edge"><title>Node5&#45;&gt;Node20</title>
<path fill="none" stroke="midnightblue" d="M299.533,-273.537C288.656,-263.909 275.056,-251.869 265.979,-243.834"/>
<polygon fill="midnightblue" stroke="midnightblue" points="297.392,-276.316 307.199,-280.324 302.032,-271.075 297.392,-276.316"/>
</g>
<!-- Node6&#45;&gt;Node3 -->
<g id="edge13" class="edge"><title>Node6&#45;&gt;Node3</title>
<path fill="none" stroke="midnightblue" d="M438.18,-102.78C440.925,-94.6056 444.169,-84.8336 447,-76 453.414,-55.9864 460.578,-32.3793 464.348,-19.8518"/>
<polygon fill="midnightblue" stroke="midnightblue" points="434.818,-101.799 434.935,-112.393 441.45,-104.037 434.818,-101.799"/>
</g>
<!-- Node7 -->
<g id="node7" class="node"><title>Node7</title>
<g id="a_node7"><a xlink:href="_config_polygon_8hpp.html" target="_top" xlink:title="Classe ConfigPolygon. ">
<polygon fill="white" stroke="black" points="495.5,-56.5 495.5,-75.5 594.5,-75.5 594.5,-56.5 495.5,-56.5"/>
<text text-anchor="middle" x="545" y="-63.5" font-family="Helvetica,sans-Serif" font-size="10.00">ConfigPolygon.hpp</text>
</a>
</g>
</g>
<!-- Node6&#45;&gt;Node7 -->
<g id="edge6" class="edge"><title>Node6&#45;&gt;Node7</title>
<path fill="none" stroke="midnightblue" d="M459.003,-108.096C480.114,-98.0073 508.862,-84.2697 527.179,-75.5164"/>
<polygon fill="midnightblue" stroke="midnightblue" points="457.419,-104.974 449.905,-112.444 460.437,-111.29 457.419,-104.974"/>
</g>
<!-- Node9 -->
<g id="node9" class="node"><title>Node9</title>
<g id="a_node9"><a xlink:href="_config_text_8hpp.html" target="_top" xlink:title="Classe ConfigText. ">
<polygon fill="white" stroke="black" points="355.5,-56.5 355.5,-75.5 438.5,-75.5 438.5,-56.5 355.5,-56.5"/>
<text text-anchor="middle" x="397" y="-63.5" font-family="Helvetica,sans-Serif" font-size="10.00">ConfigText.hpp</text>
</a>
</g>
</g>
<!-- Node6&#45;&gt;Node9 -->
<g id="edge9" class="edge"><title>Node6&#45;&gt;Node9</title>
<path fill="none" stroke="midnightblue" d="M420.7,-103.566C414.678,-94.2747 407.531,-83.2484 402.672,-75.7511"/>
<polygon fill="midnightblue" stroke="midnightblue" points="417.844,-105.595 426.22,-112.083 423.719,-101.788 417.844,-105.595"/>
</g>
<!-- Node10 -->
<g id="node10" class="node"><title>Node10</title>
<g id="a_node10"><a xlink:href="_config_item_8cpp_source.html" target="_top" xlink:title="ConfigItem.cpp">
<polygon fill="white" stroke="black" points="254.5,-56.5 254.5,-75.5 337.5,-75.5 337.5,-56.5 254.5,-56.5"/>
<text text-anchor="middle" x="296" y="-63.5" font-family="Helvetica,sans-Serif" font-size="10.00">ConfigItem.cpp</text>
</a>
</g>
</g>
<!-- Node6&#45;&gt;Node10 -->
<g id="edge12" class="edge"><title>Node6&#45;&gt;Node10</title>
<path fill="none" stroke="midnightblue" d="M400.865,-108.638C375.343,-98.504 339.891,-84.4274 317.449,-75.5164"/>
<polygon fill="midnightblue" stroke="midnightblue" points="399.865,-112.006 410.45,-112.444 402.448,-105.5 399.865,-112.006"/>
</g>
<!-- Node11 -->
<g id="node11" class="node"><title>Node11</title>
<g id="a_node11"><a xlink:href="_main_window_8cpp_source.html" target="_top" xlink:title="MainWindow.cpp">
<polygon fill="white" stroke="black" points="144,-56.5 144,-75.5 236,-75.5 236,-56.5 144,-56.5"/>
<text text-anchor="middle" x="190" y="-63.5" font-family="Helvetica,sans-Serif" font-size="10.00">MainWindow.cpp</text>
</a>
</g>
</g>
<!-- Node6&#45;&gt;Node11 -->
<g id="edge14" class="edge"><title>Node6&#45;&gt;Node11</title>
<path fill="none" stroke="midnightblue" d="M383.677,-110.217C337.949,-100.013 270.221,-84.9006 228.166,-75.5164"/>
<polygon fill="midnightblue" stroke="midnightblue" points="383.132,-113.682 393.654,-112.444 384.657,-106.85 383.132,-113.682"/>
</g>
<!-- Node7&#45;&gt;Node3 -->
<g id="edge8" class="edge"><title>Node7&#45;&gt;Node3</title>
<path fill="none" stroke="midnightblue" d="M524.232,-50.6221C509.983,-40.7574 491.544,-27.9919 479.501,-19.6545"/>
<polygon fill="midnightblue" stroke="midnightblue" points="522.254,-53.5095 532.468,-56.324 526.238,-47.7541 522.254,-53.5095"/>
</g>
<!-- Node8 -->
<g id="node8" class="node"><title>Node8</title>
<g id="a_node8"><a xlink:href="_config_polygon_8cpp_source.html" target="_top" xlink:title="ConfigPolygon.cpp">
<polygon fill="white" stroke="black" points="538.5,-0.5 538.5,-19.5 637.5,-19.5 637.5,-0.5 538.5,-0.5"/>
<text text-anchor="middle" x="588" y="-7.5" font-family="Helvetica,sans-Serif" font-size="10.00">ConfigPolygon.cpp</text>
</a>
</g>
</g>
<!-- Node7&#45;&gt;Node8 -->
<g id="edge7" class="edge"><title>Node7&#45;&gt;Node8</title>
<path fill="none" stroke="midnightblue" d="M558.422,-48.144C565.914,-38.7357 574.937,-27.4046 581.032,-19.7511"/>
<polygon fill="midnightblue" stroke="midnightblue" points="555.592,-46.0799 552.101,-56.083 561.068,-50.4404 555.592,-46.0799"/>
</g>
<!-- Node9&#45;&gt;Node2 -->
<g id="edge10" class="edge"><title>Node9&#45;&gt;Node2</title>
<path fill="none" stroke="midnightblue" d="M352.282,-54.0237C310.724,-43.8232 249.687,-28.8414 211.697,-19.5164"/>
<polygon fill="midnightblue" stroke="midnightblue" points="351.594,-57.4588 362.14,-56.4435 353.263,-50.6606 351.594,-57.4588"/>
</g>
<!-- Node9&#45;&gt;Node3 -->
<g id="edge11" class="edge"><title>Node9&#45;&gt;Node3</title>
<path fill="none" stroke="midnightblue" d="M416.314,-50.1008C428.912,-40.3824 444.928,-28.0269 455.549,-19.8339"/>
<polygon fill="midnightblue" stroke="midnightblue" points="414.027,-47.4446 408.247,-56.324 418.302,-52.9871 414.027,-47.4446"/>
</g>
<!-- Node13&#45;&gt;Node6 -->
<g id="edge17" class="edge"><title>Node13&#45;&gt;Node6</title>
<path fill="none" stroke="midnightblue" d="M254.284,-166.621C295.832,-156.423 358.478,-141.046 397.224,-131.536"/>
<polygon fill="midnightblue" stroke="midnightblue" points="253.339,-163.249 244.462,-169.032 255.008,-170.047 253.339,-163.249"/>
</g>
<!-- Node13&#45;&gt;Node11 -->
<g id="edge18" class="edge"><title>Node13&#45;&gt;Node11</title>
<path fill="none" stroke="midnightblue" d="M215.766,-158.266C217.712,-145.113 218.945,-127.224 215,-112 211.458,-98.3307 202.765,-84.393 196.629,-75.7252"/>
<polygon fill="midnightblue" stroke="midnightblue" points="212.266,-157.965 213.985,-168.42 219.16,-159.175 212.266,-157.965"/>
</g>
<!-- Node13&#45;&gt;Node12 -->
<g id="edge19" class="edge"><title>Node13&#45;&gt;Node12</title>
<path fill="none" stroke="midnightblue" d="M180.865,-164.638C155.343,-154.504 119.891,-140.427 97.4488,-131.516"/>
<polygon fill="midnightblue" stroke="midnightblue" points="179.865,-168.006 190.45,-168.444 182.448,-161.5 179.865,-168.006"/>
</g>
<!-- Node14 -->
<g id="node14" class="node"><title>Node14</title>
<g id="a_node14"><a xlink:href="_button_8cpp_source.html" target="_top" xlink:title="Button.cpp">
<polygon fill="white" stroke="black" points="142,-112.5 142,-131.5 206,-131.5 206,-112.5 142,-112.5"/>
<text text-anchor="middle" x="174" y="-119.5" font-family="Helvetica,sans-Serif" font-size="10.00">Button.cpp</text>
</a>
</g>
</g>
<!-- Node13&#45;&gt;Node14 -->
<g id="edge20" class="edge"><title>Node13&#45;&gt;Node14</title>
<path fill="none" stroke="midnightblue" d="M199.935,-159.855C193.355,-150.505 185.489,-139.327 180.158,-131.751"/>
<polygon fill="midnightblue" stroke="midnightblue" points="197.108,-161.919 205.725,-168.083 202.832,-157.891 197.108,-161.919"/>
</g>
<!-- Node15 -->
<g id="node15" class="node"><title>Node15</title>
<g id="a_node15"><a xlink:href="_spin_box_8cpp_source.html" target="_top" xlink:title="SpinBox.cpp">
<polygon fill="white" stroke="black" points="262,-112.5 262,-131.5 334,-131.5 334,-112.5 262,-112.5"/>
<text text-anchor="middle" x="298" y="-119.5" font-family="Helvetica,sans-Serif" font-size="10.00">SpinBox.cpp</text>
</a>
</g>
</g>
<!-- Node13&#45;&gt;Node15 -->
<g id="edge21" class="edge"><title>Node13&#45;&gt;Node15</title>
<path fill="none" stroke="midnightblue" d="M234.455,-162.901C250.224,-152.999 270.814,-140.071 284.217,-131.655"/>
<polygon fill="midnightblue" stroke="midnightblue" points="232.425,-160.042 225.817,-168.324 236.148,-165.97 232.425,-160.042"/>
</g>
<!-- Node16&#45;&gt;Node6 -->
<g id="edge23" class="edge"><title>Node16&#45;&gt;Node6</title>
<path fill="none" stroke="midnightblue" d="M389.346,-214.998C400.474,-190.997 419.728,-149.468 428.017,-131.591"/>
<polygon fill="midnightblue" stroke="midnightblue" points="386.033,-213.824 385.002,-224.368 392.384,-216.768 386.033,-213.824"/>
</g>
<!-- Node16&#45;&gt;Node11 -->
<g id="edge24" class="edge"><title>Node16&#45;&gt;Node11</title>
<path fill="none" stroke="midnightblue" d="M380.374,-214.05C378.461,-187.54 371.055,-139.548 343,-112 327.739,-97.0145 275.171,-83.7266 235.885,-75.5454"/>
<polygon fill="midnightblue" stroke="midnightblue" points="376.891,-214.47 380.911,-224.272 383.881,-214.102 376.891,-214.47"/>
</g>
<!-- Node17 -->
<g id="node17" class="node"><title>Node17</title>
<g id="a_node17"><a xlink:href="_spin_box_8hpp_source.html" target="_top" xlink:title="SpinBox.hpp">
<polygon fill="white" stroke="black" points="262,-168.5 262,-187.5 334,-187.5 334,-168.5 262,-168.5"/>
<text text-anchor="middle" x="298" y="-175.5" font-family="Helvetica,sans-Serif" font-size="10.00">SpinBox.hpp</text>
</a>
</g>
</g>
<!-- Node16&#45;&gt;Node17 -->
<g id="edge25" class="edge"><title>Node16&#45;&gt;Node17</title>
<path fill="none" stroke="midnightblue" d="M358.901,-218.622C343.738,-208.757 324.117,-195.992 311.302,-187.655"/>
<polygon fill="midnightblue" stroke="midnightblue" points="357.374,-221.804 367.665,-224.324 361.191,-215.937 357.374,-221.804"/>
</g>
<!-- Node18 -->
<g id="node18" class="node"><title>Node18</title>
<g id="a_node18"><a xlink:href="_line_edit_8cpp_source.html" target="_top" xlink:title="LineEdit.cpp">
<polygon fill="white" stroke="black" points="428.5,-168.5 428.5,-187.5 499.5,-187.5 499.5,-168.5 428.5,-168.5"/>
<text text-anchor="middle" x="464" y="-175.5" font-family="Helvetica,sans-Serif" font-size="10.00">LineEdit.cpp</text>
</a>
</g>
</g>
<!-- Node16&#45;&gt;Node18 -->
<g id="edge28" class="edge"><title>Node16&#45;&gt;Node18</title>
<path fill="none" stroke="midnightblue" d="M403.099,-218.622C418.262,-208.757 437.883,-195.992 450.698,-187.655"/>
<polygon fill="midnightblue" stroke="midnightblue" points="400.809,-215.937 394.335,-224.324 404.626,-221.804 400.809,-215.937"/>
</g>
<!-- Node17&#45;&gt;Node6 -->
<g id="edge26" class="edge"><title>Node17&#45;&gt;Node6</title>
<path fill="none" stroke="midnightblue" d="M328.677,-164.638C353.823,-154.504 388.754,-140.427 410.867,-131.516"/>
<polygon fill="midnightblue" stroke="midnightblue" points="327.2,-161.459 319.233,-168.444 329.816,-167.952 327.2,-161.459"/>
</g>
<!-- Node17&#45;&gt;Node15 -->
<g id="edge27" class="edge"><title>Node17&#45;&gt;Node15</title>
<path fill="none" stroke="midnightblue" d="M298,-157.805C298,-148.91 298,-138.78 298,-131.751"/>
<polygon fill="midnightblue" stroke="midnightblue" points="294.5,-158.083 298,-168.083 301.5,-158.083 294.5,-158.083"/>
</g>
</g>
</svg>
        <g id="navigator" transform="translate(0 0)" fill="#404254">
                <rect fill="#f2f5e9" fill-opacity="0.5" stroke="#606060" stroke-width=".5" x="0" y="0" width="60" height="60"/>
                <use id="zoomplus" xlink:href="#zoomPlus" x="17" y="9" onmousedown="handleZoom(evt,'in')"/>
                <use id="zoomminus" xlink:href="#zoomMin" x="42" y="9" onmousedown="handleZoom(evt,'out')"/>
                <use id="reset" xlink:href="#resetDef" x="30" y="36" onmousedown="handleReset()"/>
                <g id="arrowUp" xlink:href="#dirArrow" transform="translate(30 24)" onmousedown="handlePan(0,-1)">
                  <use xlink:href="#rim" fill="#404040">
                        <set attributeName="fill" to="#808080" begin="arrowUp.mouseover" end="arrowUp.mouseout"/>
                  </use>
                  <path fill="none" stroke="white" stroke-width="1.5" d="M0,-3.0v7 M-2.5,-0.5L0,-3.0L2.5,-0.5"/>
                </g>
                <g id="arrowRight" xlink:href="#dirArrow" transform="rotate(90) translate(36 -43)" onmousedown="handlePan(1,0)">
                  <use xlink:href="#rim" fill="#404040">
                        <set attributeName="fill" to="#808080" begin="arrowRight.mouseover" end="arrowRight.mouseout"/>
                  </use>
                  <path fill="none" stroke="white" stroke-width="1.5" d="M0,-3.0v7 M-2.5,-0.5L0,-3.0L2.5,-0.5"/>
                </g>
                <g id="arrowDown" xlink:href="#dirArrow" transform="rotate(180) translate(-30 -48)" onmousedown="handlePan(0,1)">
                  <use xlink:href="#rim" fill="#404040">
                        <set attributeName="fill" to="#808080" begin="arrowDown.mouseover" end="arrowDown.mouseout"/>
                  </use>
                  <path fill="none" stroke="white" stroke-width="1.5" d="M0,-3.0v7 M-2.5,-0.5L0,-3.0L2.5,-0.5"/>
                </g>
                <g id="arrowLeft" xlink:href="#dirArrow" transform="rotate(270) translate(-36 17)" onmousedown="handlePan(-1,0)">
                  <use xlink:href="#rim" fill="#404040">
                        <set attributeName="fill" to="#808080" begin="arrowLeft.mouseover" end="arrowLeft.mouseout"/>
                  </use>
                  <path fill="none" stroke="white" stroke-width="1.5" d="M0,-3.0v7 M-2.5,-0.5L0,-3.0L2.5,-0.5"/>
                </g>
        </g>
        <svg viewBox="0 0 15 15" width="100%" height="30px" preserveAspectRatio="xMaxYMin meet">
         <g id="arrow_out" transform="scale(0.3 0.3)">
          <a xlink:href="_graphics_text_8hpp__dep__incl_org.svg" target="_base">
           <rect id="button" ry="5" rx="5" y="6" x="6" height="38" width="38"
                fill="#f2f5e9" fill-opacity="0.5" stroke="#606060" stroke-width="1.0"/>
           <path id="arrow"
             d="M 11.500037,31.436501 C 11.940474,20.09759 22.043105,11.32322 32.158766,21.979434 L 37.068811,17.246167 C 37.068811,17.246167 37.088388,32 37.088388,32 L 22.160133,31.978069 C 22.160133,31.978069 26.997745,27.140456 26.997745,27.140456 C 18.528582,18.264221 13.291696,25.230495 11.500037,31.436501 z"
             style="fill:#404040;"/>
          </a>
         </g>
        </svg>
</svg>
