<?xml version="1.0" encoding="UTF-8" standalone="no"?>
<!DOCTYPE svg PUBLIC "-//W3C//DTD SVG 1.1//EN"
 "http://www.w3.org/Graphics/SVG/1.1/DTD/svg11.dtd">
<!-- Generated by graphviz version 2.36.0 (20140111.2315)
 -->
<!-- Title: GraphicsShape.hpp Pages: 1 -->
<!--zoomable 364 -->
<svg id="main" version="1.1" xmlns="http://www.w3.org/2000/svg" xmlns:xlink="http://www.w3.org/1999/xlink" xml:space="preserve" onload="init(evt)">
<style type="text/css"><![CDATA[
.edge:hover path { stroke: red; }
.edge:hover polygon { stroke: red; fill: red; }
]]></style>
<script type="text/javascript"><![CDATA[
var edges = document.getElementsByTagName('g');
if (edges && edges.length) {
  for (var i=0;i<edges.length;i++) {
    if (edges[i].id.substr(0,4)=='edge') {
      edges[i].setAttribute('class','edge');
    }
  }
}
]]></script>
        <defs>
                <circle id="rim" cx="0" cy="0" r="7"/>
                <circle id="rim2" cx="0" cy="0" r="3.5"/>
                <g id="zoomPlus">
                        <use xlink:href="#rim" fill="#404040">
                                <set attributeName="fill" to="#808080" begin="zoomplus.mouseover" end="zoomplus.mouseout"/>
                        </use>
                        <path d="M-4,0h8M0,-4v8" fill="none" stroke="white" stroke-width="1.5" pointer-events="none"/>
                </g>
                <g id="zoomMin">
                        <use xlink:href="#rim" fill="#404040">
                                <set attributeName="fill" to="#808080" begin="zoomminus.mouseover" end="zoomminus.mouseout"/>
                        </use>
                        <path d="M-4,0h8" fill="none" stroke="white" stroke-width="1.5" pointer-events="none"/>
                </g>
                <g id="dirArrow">
                        <path fill="none" stroke="white" stroke-width="1.5" d="M0,-3.0v7 M-2.5,-0.5L0,-3.0L2.5,-0.5"/>
                </g>
               <g id="resetDef">
                       <use xlink:href="#rim2" fill="#404040">
                               <set attributeName="fill" to="#808080" begin="reset.mouseover" end="reset.mouseout"/>
                       </use>
               </g>
        </defs>

<script type="text/javascript">
var viewWidth = 1215;
var viewHeight = 364;
var sectionId = 'dynsection-1';
</script>
<script xlink:href="svgpan.js"/>
<svg id="graph" class="graph">
<g id="viewport">
<title>GraphicsShape.hpp</title>
<polygon fill="white" stroke="none" points="-4,4 -4,-360 1211,-360 1211,4 -4,4"/>
<!-- Node1 -->
<g id="node1" class="node"><title>Node1</title>
<polygon fill="#bfbfbf" stroke="black" points="479,-336.5 479,-355.5 581,-355.5 581,-336.5 479,-336.5"/>
<text text-anchor="middle" x="530" y="-343.5" font-family="Helvetica,sans-Serif" font-size="10.00">GraphicsShape.hpp</text>
</g>
<!-- Node2 -->
<g id="node2" class="node"><title>Node2</title>
<g id="a_node2"><a xlink:href="_graphics_circle_8hpp_source.html" target="_top" xlink:title="GraphicsCircle.hpp">
<polygon fill="white" stroke="black" points="77,-280.5 77,-299.5 177,-299.5 177,-280.5 77,-280.5"/>
<text text-anchor="middle" x="127" y="-287.5" font-family="Helvetica,sans-Serif" font-size="10.00">GraphicsCircle.hpp</text>
</a>
</g>
</g>
<!-- Node1&#45;&gt;Node2 -->
<g id="edge1" class="edge"><title>Node1&#45;&gt;Node2</title>
<path fill="none" stroke="midnightblue" d="M468.728,-337.385C399.889,-328.736 284.841,-314.002 186,-300 183.127,-299.593 180.177,-299.167 177.201,-298.732"/>
<polygon fill="midnightblue" stroke="midnightblue" points="468.598,-340.896 478.956,-338.668 469.469,-333.95 468.598,-340.896"/>
</g>
<!-- Node5 -->
<g id="node5" class="node"><title>Node5</title>
<g id="a_node5"><a xlink:href="_graphics_ellipse_8hpp_source.html" target="_top" xlink:title="GraphicsEllipse.hpp">
<polygon fill="white" stroke="black" points="402,-280.5 402,-299.5 506,-299.5 506,-280.5 402,-280.5"/>
<text text-anchor="middle" x="454" y="-287.5" font-family="Helvetica,sans-Serif" font-size="10.00">GraphicsEllipse.hpp</text>
</a>
</g>
</g>
<!-- Node1&#45;&gt;Node5 -->
<g id="edge4" class="edge"><title>Node1&#45;&gt;Node5</title>
<path fill="none" stroke="midnightblue" d="M509.424,-330.38C495.688,-320.62 478.075,-308.106 466.433,-299.834"/>
<polygon fill="midnightblue" stroke="midnightblue" points="507.61,-333.385 517.789,-336.324 511.665,-327.679 507.61,-333.385"/>
</g>
<!-- Node7 -->
<g id="node7" class="node"><title>Node7</title>
<g id="a_node7"><a xlink:href="_graphics_line_8hpp_source.html" target="_top" xlink:title="GraphicsLine.hpp">
<polygon fill="white" stroke="black" points="539,-280.5 539,-299.5 631,-299.5 631,-280.5 539,-280.5"/>
<text text-anchor="middle" x="585" y="-287.5" font-family="Helvetica,sans-Serif" font-size="10.00">GraphicsLine.hpp</text>
</a>
</g>
</g>
<!-- Node1&#45;&gt;Node7 -->
<g id="edge7" class="edge"><title>Node1&#45;&gt;Node7</title>
<path fill="none" stroke="midnightblue" d="M546.294,-329.002C556.041,-319.433 568.053,-307.639 576.087,-299.751"/>
<polygon fill="midnightblue" stroke="midnightblue" points="543.766,-326.58 539.082,-336.083 548.67,-331.575 543.766,-326.58"/>
</g>
<!-- Node22 -->
<g id="node22" class="node"><title>Node22</title>
<g id="a_node22"><a xlink:href="_graphics_polygon_8hpp_source.html" target="_top" xlink:title="GraphicsPolygon.hpp">
<polygon fill="white" stroke="black" points="1097,-56.5 1097,-75.5 1207,-75.5 1207,-56.5 1097,-56.5"/>
<text text-anchor="middle" x="1152" y="-63.5" font-family="Helvetica,sans-Serif" font-size="10.00">GraphicsPolygon.hpp</text>
</a>
</g>
</g>
<!-- Node1&#45;&gt;Node22 -->
<g id="edge29" class="edge"><title>Node1&#45;&gt;Node22</title>
<path fill="none" stroke="midnightblue" d="M588.657,-334.567C671.816,-318.079 814,-282.888 814,-235 814,-235 814,-235 814,-177 814,-145.875 1023.92,-95.4896 1112.9,-75.5326"/>
<polygon fill="midnightblue" stroke="midnightblue" points="587.967,-331.135 578.821,-336.484 589.306,-338.006 587.967,-331.135"/>
</g>
<!-- Node24 -->
<g id="node24" class="node"><title>Node24</title>
<g id="a_node24"><a xlink:href="_graphics_triangle_8hpp.html" target="_top" xlink:title="Classe GraphicsTriangle. ">
<polygon fill="white" stroke="black" points="195.5,-280.5 195.5,-299.5 304.5,-299.5 304.5,-280.5 195.5,-280.5"/>
<text text-anchor="middle" x="250" y="-287.5" font-family="Helvetica,sans-Serif" font-size="10.00">GraphicsTriangle.hpp</text>
</a>
</g>
</g>
<!-- Node1&#45;&gt;Node24 -->
<g id="edge33" class="edge"><title>Node1&#45;&gt;Node24</title>
<path fill="none" stroke="midnightblue" d="M475.748,-334.537C422.83,-324.332 343.329,-308.999 294.159,-299.516"/>
<polygon fill="midnightblue" stroke="midnightblue" points="475.151,-337.986 485.633,-336.444 476.477,-331.113 475.151,-337.986"/>
</g>
<!-- Node26 -->
<g id="node26" class="node"><title>Node26</title>
<g id="a_node26"><a xlink:href="_graphics_shape_8cpp_source.html" target="_top" xlink:title="GraphicsShape.cpp">
<polygon fill="white" stroke="black" points="842,-280.5 842,-299.5 944,-299.5 944,-280.5 842,-280.5"/>
<text text-anchor="middle" x="893" y="-287.5" font-family="Helvetica,sans-Serif" font-size="10.00">GraphicsShape.cpp</text>
</a>
</g>
</g>
<!-- Node1&#45;&gt;Node26 -->
<g id="edge36" class="edge"><title>Node1&#45;&gt;Node26</title>
<path fill="none" stroke="midnightblue" d="M591.294,-335.882C661.673,-325.412 775.866,-308.425 841.729,-298.627"/>
<polygon fill="midnightblue" stroke="midnightblue" points="590.615,-332.444 581.239,-337.378 591.645,-339.368 590.615,-332.444"/>
</g>
<!-- Node3 -->
<g id="node3" class="node"><title>Node3</title>
<g id="a_node3"><a xlink:href="_graphics_factory_8cpp_source.html" target="_top" xlink:title="GraphicsFactory.cpp">
<polygon fill="white" stroke="black" points="476.5,-0.5 476.5,-19.5 583.5,-19.5 583.5,-0.5 476.5,-0.5"/>
<text text-anchor="middle" x="530" y="-7.5" font-family="Helvetica,sans-Serif" font-size="10.00">GraphicsFactory.cpp</text>
</a>
</g>
</g>
<!-- Node2&#45;&gt;Node3 -->
<g id="edge2" class="edge"><title>Node2&#45;&gt;Node3</title>
<path fill="none" stroke="midnightblue" d="M127.274,-270.252C127.57,-248.358 128,-211.053 128,-179 128,-179 128,-179 128,-121 128,-75.1877 165.995,-74.2858 208,-56 255.032,-35.5257 397.585,-21.4413 476.32,-14.9936"/>
<polygon fill="midnightblue" stroke="midnightblue" points="123.772,-270.394 127.131,-280.442 130.771,-270.493 123.772,-270.394"/>
</g>
<!-- Node4 -->
<g id="node4" class="node"><title>Node4</title>
<g id="a_node4"><a xlink:href="_graphics_circle_8cpp_source.html" target="_top" xlink:title="GraphicsCircle.cpp">
<polygon fill="white" stroke="black" points="0,-224.5 0,-243.5 100,-243.5 100,-224.5 0,-224.5"/>
<text text-anchor="middle" x="50" y="-231.5" font-family="Helvetica,sans-Serif" font-size="10.00">GraphicsCircle.cpp</text>
</a>
</g>
</g>
<!-- Node2&#45;&gt;Node4 -->
<g id="edge3" class="edge"><title>Node2&#45;&gt;Node4</title>
<path fill="none" stroke="midnightblue" d="M106.099,-274.342C92.0889,-264.517 74.117,-251.913 62.3407,-243.655"/>
<polygon fill="midnightblue" stroke="midnightblue" points="104.432,-277.448 114.629,-280.324 108.451,-271.717 104.432,-277.448"/>
</g>
<!-- Node5&#45;&gt;Node3 -->
<g id="edge5" class="edge"><title>Node5&#45;&gt;Node3</title>
<path fill="none" stroke="midnightblue" d="M454,-270.251C454,-248.357 454,-211.052 454,-179 454,-179 454,-179 454,-121 454,-76.2008 497.196,-36.4292 518.457,-19.5672"/>
<polygon fill="midnightblue" stroke="midnightblue" points="450.5,-270.442 454,-280.442 457.5,-270.442 450.5,-270.442"/>
</g>
<!-- Node6 -->
<g id="node6" class="node"><title>Node6</title>
<g id="a_node6"><a xlink:href="_graphics_ellipse_8cpp_source.html" target="_top" xlink:title="GraphicsEllipse.cpp">
<polygon fill="white" stroke="black" points="322,-224.5 322,-243.5 426,-243.5 426,-224.5 322,-224.5"/>
<text text-anchor="middle" x="374" y="-231.5" font-family="Helvetica,sans-Serif" font-size="10.00">GraphicsEllipse.cpp</text>
</a>
</g>
</g>
<!-- Node5&#45;&gt;Node6 -->
<g id="edge6" class="edge"><title>Node5&#45;&gt;Node6</title>
<path fill="none" stroke="midnightblue" d="M432.699,-274.622C418.085,-264.757 399.173,-251.992 386.821,-243.655"/>
<polygon fill="midnightblue" stroke="midnightblue" points="430.9,-277.63 441.147,-280.324 434.816,-271.828 430.9,-277.63"/>
</g>
<!-- Node7&#45;&gt;Node3 -->
<g id="edge8" class="edge"><title>Node7&#45;&gt;Node3</title>
<path fill="none" stroke="midnightblue" d="M560.907,-274.72C533.351,-256.357 492,-221.689 492,-179 492,-179 492,-179 492,-121 492,-81.3989 514.275,-37.957 524.716,-19.769"/>
<polygon fill="midnightblue" stroke="midnightblue" points="559.333,-277.868 569.643,-280.31 563.106,-271.972 559.333,-277.868"/>
</g>
<!-- Node8 -->
<g id="node8" class="node"><title>Node8</title>
<g id="a_node8"><a xlink:href="_graphics_line_8cpp_source.html" target="_top" xlink:title="GraphicsLine.cpp">
<polygon fill="white" stroke="black" points="676,-224.5 676,-243.5 768,-243.5 768,-224.5 676,-224.5"/>
<text text-anchor="middle" x="722" y="-231.5" font-family="Helvetica,sans-Serif" font-size="10.00">GraphicsLine.cpp</text>
</a>
</g>
</g>
<!-- Node7&#45;&gt;Node8 -->
<g id="edge9" class="edge"><title>Node7&#45;&gt;Node8</title>
<path fill="none" stroke="midnightblue" d="M616.023,-276.772C641.757,-266.629 677.686,-252.467 700.394,-243.516"/>
<polygon fill="midnightblue" stroke="midnightblue" points="614.728,-273.52 606.708,-280.444 617.295,-280.033 614.728,-273.52"/>
</g>
<!-- Node9 -->
<g id="node9" class="node"><title>Node9</title>
<g id="a_node9"><a xlink:href="_line_edit_8hpp_source.html" target="_top" xlink:title="LineEdit.hpp">
<polygon fill="white" stroke="black" points="586.5,-224.5 586.5,-243.5 657.5,-243.5 657.5,-224.5 586.5,-224.5"/>
<text text-anchor="middle" x="622" y="-231.5" font-family="Helvetica,sans-Serif" font-size="10.00">LineEdit.hpp</text>
</a>
</g>
</g>
<!-- Node7&#45;&gt;Node9 -->
<g id="edge10" class="edge"><title>Node7&#45;&gt;Node9</title>
<path fill="none" stroke="midnightblue" d="M596.946,-271.566C603.312,-262.275 610.867,-251.248 616.004,-243.751"/>
<polygon fill="midnightblue" stroke="midnightblue" points="593.875,-269.855 591.11,-280.083 599.649,-273.812 593.875,-269.855"/>
</g>
<!-- Node10 -->
<g id="node10" class="node"><title>Node10</title>
<g id="a_node10"><a xlink:href="_config_item_8hpp.html" target="_top" xlink:title="Classe ConfigItem. ">
<polygon fill="white" stroke="black" points="664.5,-112.5 664.5,-131.5 747.5,-131.5 747.5,-112.5 664.5,-112.5"/>
<text text-anchor="middle" x="706" y="-119.5" font-family="Helvetica,sans-Serif" font-size="10.00">ConfigItem.hpp</text>
</a>
</g>
</g>
<!-- Node9&#45;&gt;Node10 -->
<g id="edge11" class="edge"><title>Node9&#45;&gt;Node10</title>
<path fill="none" stroke="midnightblue" d="M652.46,-219.738C666.18,-212.295 681.416,-201.717 691,-188 703.072,-170.722 705.561,-145.158 705.991,-131.823"/>
<polygon fill="midnightblue" stroke="midnightblue" points="650.626,-216.744 643.292,-224.391 653.793,-222.987 650.626,-216.744"/>
</g>
<!-- Node18 -->
<g id="node18" class="node"><title>Node18</title>
<g id="a_node18"><a xlink:href="_main_window_8cpp_source.html" target="_top" xlink:title="MainWindow.cpp">
<polygon fill="white" stroke="black" points="987,-56.5 987,-75.5 1079,-75.5 1079,-56.5 987,-56.5"/>
<text text-anchor="middle" x="1033" y="-63.5" font-family="Helvetica,sans-Serif" font-size="10.00">MainWindow.cpp</text>
</a>
</g>
</g>
<!-- Node9&#45;&gt;Node18 -->
<g id="edge24" class="edge"><title>Node9&#45;&gt;Node18</title>
<path fill="none" stroke="midnightblue" d="M650.452,-220.229C667.887,-211.935 690.359,-200.389 709,-188 752.886,-158.833 752.399,-134.602 800,-112 816.654,-104.092 923.934,-85.2421 986.963,-74.6181"/>
<polygon fill="midnightblue" stroke="midnightblue" points="648.918,-217.082 641.341,-224.487 651.882,-223.424 648.918,-217.082"/>
</g>
<!-- Node19 -->
<g id="node19" class="node"><title>Node19</title>
<g id="a_node19"><a xlink:href="_spin_box_8hpp_source.html" target="_top" xlink:title="SpinBox.hpp">
<polygon fill="white" stroke="black" points="610,-168.5 610,-187.5 682,-187.5 682,-168.5 610,-168.5"/>
<text text-anchor="middle" x="646" y="-175.5" font-family="Helvetica,sans-Serif" font-size="10.00">SpinBox.hpp</text>
</a>
</g>
</g>
<!-- Node9&#45;&gt;Node19 -->
<g id="edge25" class="edge"><title>Node9&#45;&gt;Node19</title>
<path fill="none" stroke="midnightblue" d="M630.138,-214.69C634.183,-205.589 638.883,-195.014 642.111,-187.751"/>
<polygon fill="midnightblue" stroke="midnightblue" points="626.826,-213.523 625.963,-224.083 633.223,-216.366 626.826,-213.523"/>
</g>
<!-- Node21 -->
<g id="node21" class="node"><title>Node21</title>
<g id="a_node21"><a xlink:href="_line_edit_8cpp_source.html" target="_top" xlink:title="LineEdit.cpp">
<polygon fill="white" stroke="black" points="520.5,-168.5 520.5,-187.5 591.5,-187.5 591.5,-168.5 520.5,-168.5"/>
<text text-anchor="middle" x="556" y="-175.5" font-family="Helvetica,sans-Serif" font-size="10.00">LineEdit.cpp</text>
</a>
</g>
</g>
<!-- Node9&#45;&gt;Node21 -->
<g id="edge28" class="edge"><title>Node9&#45;&gt;Node21</title>
<path fill="none" stroke="midnightblue" d="M603.446,-217.82C591.622,-208.145 576.714,-195.948 566.797,-187.834"/>
<polygon fill="midnightblue" stroke="midnightblue" points="601.44,-220.7 611.396,-224.324 605.873,-215.283 601.44,-220.7"/>
</g>
<!-- Node10&#45;&gt;Node3 -->
<g id="edge22" class="edge"><title>Node10&#45;&gt;Node3</title>
<path fill="none" stroke="midnightblue" d="M654.4,-111.776C614.625,-103.678 563.964,-90.886 549,-76 533.663,-60.7435 530.558,-33.8391 530.024,-19.9122"/>
<polygon fill="midnightblue" stroke="midnightblue" points="653.759,-115.217 664.25,-113.732 655.123,-108.351 653.759,-115.217"/>
</g>
<!-- Node11 -->
<g id="node11" class="node"><title>Node11</title>
<g id="a_node11"><a xlink:href="_config_image_8hpp.html" target="_top" xlink:title="Classe ConfigImage. ">
<polygon fill="white" stroke="black" points="760.5,-56.5 760.5,-75.5 851.5,-75.5 851.5,-56.5 760.5,-56.5"/>
<text text-anchor="middle" x="806" y="-63.5" font-family="Helvetica,sans-Serif" font-size="10.00">ConfigImage.hpp</text>
</a>
</g>
</g>
<!-- Node10&#45;&gt;Node11 -->
<g id="edge12" class="edge"><title>Node10&#45;&gt;Node11</title>
<path fill="none" stroke="midnightblue" d="M731.088,-107.453C749.549,-97.4835 774.097,-84.2279 789.973,-75.6545"/>
<polygon fill="midnightblue" stroke="midnightblue" points="729.203,-104.493 722.067,-112.324 732.529,-110.652 729.203,-104.493"/>
</g>
<!-- Node13 -->
<g id="node13" class="node"><title>Node13</title>
<g id="a_node13"><a xlink:href="_config_polygon_8hpp.html" target="_top" xlink:title="Classe ConfigPolygon. ">
<polygon fill="white" stroke="black" points="869.5,-56.5 869.5,-75.5 968.5,-75.5 968.5,-56.5 869.5,-56.5"/>
<text text-anchor="middle" x="919" y="-63.5" font-family="Helvetica,sans-Serif" font-size="10.00">ConfigPolygon.hpp</text>
</a>
</g>
</g>
<!-- Node10&#45;&gt;Node13 -->
<g id="edge15" class="edge"><title>Node10&#45;&gt;Node13</title>
<path fill="none" stroke="midnightblue" d="M749.551,-109.959C789.781,-99.7598 848.703,-84.8217 885.407,-75.5164"/>
<polygon fill="midnightblue" stroke="midnightblue" points="748.584,-106.593 739.75,-112.444 750.304,-113.379 748.584,-106.593"/>
</g>
<!-- Node15 -->
<g id="node15" class="node"><title>Node15</title>
<g id="a_node15"><a xlink:href="_config_text_8hpp.html" target="_top" xlink:title="Classe ConfigText. ">
<polygon fill="white" stroke="black" points="659.5,-56.5 659.5,-75.5 742.5,-75.5 742.5,-56.5 659.5,-56.5"/>
<text text-anchor="middle" x="701" y="-63.5" font-family="Helvetica,sans-Serif" font-size="10.00">ConfigText.hpp</text>
</a>
</g>
</g>
<!-- Node10&#45;&gt;Node15 -->
<g id="edge18" class="edge"><title>Node10&#45;&gt;Node15</title>
<path fill="none" stroke="midnightblue" d="M704.25,-102.101C703.42,-93.1357 702.468,-82.8579 701.81,-75.7511"/>
<polygon fill="midnightblue" stroke="midnightblue" points="700.767,-102.448 705.174,-112.083 707.737,-101.803 700.767,-102.448"/>
</g>
<!-- Node17 -->
<g id="node17" class="node"><title>Node17</title>
<g id="a_node17"><a xlink:href="_config_item_8cpp_source.html" target="_top" xlink:title="ConfigItem.cpp">
<polygon fill="white" stroke="black" points="558.5,-56.5 558.5,-75.5 641.5,-75.5 641.5,-56.5 558.5,-56.5"/>
<text text-anchor="middle" x="600" y="-63.5" font-family="Helvetica,sans-Serif" font-size="10.00">ConfigItem.cpp</text>
</a>
</g>
</g>
<!-- Node10&#45;&gt;Node17 -->
<g id="edge21" class="edge"><title>Node10&#45;&gt;Node17</title>
<path fill="none" stroke="midnightblue" d="M679.944,-107.726C660.316,-97.7271 633.972,-84.3065 616.988,-75.6545"/>
<polygon fill="midnightblue" stroke="midnightblue" points="678.47,-110.903 688.969,-112.324 681.648,-104.666 678.47,-110.903"/>
</g>
<!-- Node10&#45;&gt;Node18 -->
<g id="edge23" class="edge"><title>Node10&#45;&gt;Node18</title>
<path fill="none" stroke="midnightblue" d="M757.868,-112.435C820.922,-102.022 926.369,-84.6087 986.764,-74.6353"/>
<polygon fill="midnightblue" stroke="midnightblue" points="757.043,-109.023 747.747,-114.106 758.184,-115.93 757.043,-109.023"/>
</g>
<!-- Node11&#45;&gt;Node3 -->
<g id="edge14" class="edge"><title>Node11&#45;&gt;Node3</title>
<path fill="none" stroke="midnightblue" d="M752.197,-54.4734C700.036,-44.2678 621.895,-28.9794 573.528,-19.5164"/>
<polygon fill="midnightblue" stroke="midnightblue" points="751.781,-57.9582 762.267,-56.4435 753.125,-51.0885 751.781,-57.9582"/>
</g>
<!-- Node12 -->
<g id="node12" class="node"><title>Node12</title>
<g id="a_node12"><a xlink:href="_config_image_8cpp_source.html" target="_top" xlink:title="ConfigImage.cpp">
<polygon fill="white" stroke="black" points="760.5,-0.5 760.5,-19.5 851.5,-19.5 851.5,-0.5 760.5,-0.5"/>
<text text-anchor="middle" x="806" y="-7.5" font-family="Helvetica,sans-Serif" font-size="10.00">ConfigImage.cpp</text>
</a>
</g>
</g>
<!-- Node11&#45;&gt;Node12 -->
<g id="edge13" class="edge"><title>Node11&#45;&gt;Node12</title>
<path fill="none" stroke="midnightblue" d="M806,-45.8045C806,-36.9102 806,-26.7798 806,-19.7511"/>
<polygon fill="midnightblue" stroke="midnightblue" points="802.5,-46.083 806,-56.083 809.5,-46.083 802.5,-46.083"/>
</g>
<!-- Node13&#45;&gt;Node3 -->
<g id="edge17" class="edge"><title>Node13&#45;&gt;Node3</title>
<path fill="none" stroke="midnightblue" d="M859.41,-55.9347C755.66,-41.0018 647.07,-26.4441 583.766,-18.0656"/>
<polygon fill="midnightblue" stroke="midnightblue" points="859.037,-59.417 869.434,-57.3808 860.036,-52.4887 859.037,-59.417"/>
</g>
<!-- Node14 -->
<g id="node14" class="node"><title>Node14</title>
<g id="a_node14"><a xlink:href="_config_polygon_8cpp_source.html" target="_top" xlink:title="ConfigPolygon.cpp">
<polygon fill="white" stroke="black" points="924.5,-0.5 924.5,-19.5 1023.5,-19.5 1023.5,-0.5 924.5,-0.5"/>
<text text-anchor="middle" x="974" y="-7.5" font-family="Helvetica,sans-Serif" font-size="10.00">ConfigPolygon.cpp</text>
</a>
</g>
</g>
<!-- Node13&#45;&gt;Node14 -->
<g id="edge16" class="edge"><title>Node13&#45;&gt;Node14</title>
<path fill="none" stroke="midnightblue" d="M935.294,-49.0024C945.041,-39.4329 957.053,-27.6389 965.087,-19.7511"/>
<polygon fill="midnightblue" stroke="midnightblue" points="932.766,-46.5796 928.082,-56.083 937.67,-51.5746 932.766,-46.5796"/>
</g>
<!-- Node15&#45;&gt;Node3 -->
<g id="edge20" class="edge"><title>Node15&#45;&gt;Node3</title>
<path fill="none" stroke="midnightblue" d="M663.964,-53.3044C631.743,-43.1294 585.811,-28.6246 556.969,-19.5164"/>
<polygon fill="midnightblue" stroke="midnightblue" points="663.315,-56.7697 673.905,-56.4435 665.423,-50.0946 663.315,-56.7697"/>
</g>
<!-- Node16 -->
<g id="node16" class="node"><title>Node16</title>
<g id="a_node16"><a xlink:href="_config_text_8cpp_source.html" target="_top" xlink:title="ConfigText.cpp">
<polygon fill="white" stroke="black" points="659.5,-0.5 659.5,-19.5 742.5,-19.5 742.5,-0.5 659.5,-0.5"/>
<text text-anchor="middle" x="701" y="-7.5" font-family="Helvetica,sans-Serif" font-size="10.00">ConfigText.cpp</text>
</a>
</g>
</g>
<!-- Node15&#45;&gt;Node16 -->
<g id="edge19" class="edge"><title>Node15&#45;&gt;Node16</title>
<path fill="none" stroke="midnightblue" d="M701,-45.8045C701,-36.9102 701,-26.7798 701,-19.7511"/>
<polygon fill="midnightblue" stroke="midnightblue" points="697.5,-46.083 701,-56.083 704.5,-46.083 697.5,-46.083"/>
</g>
<!-- Node19&#45;&gt;Node10 -->
<g id="edge26" class="edge"><title>Node19&#45;&gt;Node10</title>
<path fill="none" stroke="midnightblue" d="M663.181,-161.537C673.879,-151.909 687.256,-139.869 696.185,-131.834"/>
<polygon fill="midnightblue" stroke="midnightblue" points="660.732,-159.033 655.64,-168.324 665.414,-164.236 660.732,-159.033"/>
</g>
<!-- Node20 -->
<g id="node20" class="node"><title>Node20</title>
<g id="a_node20"><a xlink:href="_spin_box_8cpp_source.html" target="_top" xlink:title="SpinBox.cpp">
<polygon fill="white" stroke="black" points="574,-112.5 574,-131.5 646,-131.5 646,-112.5 574,-112.5"/>
<text text-anchor="middle" x="610" y="-119.5" font-family="Helvetica,sans-Serif" font-size="10.00">SpinBox.cpp</text>
</a>
</g>
</g>
<!-- Node19&#45;&gt;Node20 -->
<g id="edge27" class="edge"><title>Node19&#45;&gt;Node20</title>
<path fill="none" stroke="midnightblue" d="M634.377,-159.566C628.183,-150.275 620.832,-139.248 615.834,-131.751"/>
<polygon fill="midnightblue" stroke="midnightblue" points="631.596,-161.704 640.055,-168.083 637.42,-157.821 631.596,-161.704"/>
</g>
<!-- Node22&#45;&gt;Node3 -->
<g id="edge31" class="edge"><title>Node22&#45;&gt;Node3</title>
<path fill="none" stroke="midnightblue" d="M1086.5,-55.9554C1007.45,-48.1158 707.301,-24.7205 583.618,-15.1417"/>
<polygon fill="midnightblue" stroke="midnightblue" points="1086.56,-59.4808 1096.87,-57.0358 1087.28,-52.5185 1086.56,-59.4808"/>
</g>
<!-- Node22&#45;&gt;Node14 -->
<g id="edge30" class="edge"><title>Node22&#45;&gt;Node14</title>
<path fill="none" stroke="midnightblue" d="M1113.88,-53.4363C1080.32,-43.2551 1032.23,-28.664 1002.07,-19.5164"/>
<polygon fill="midnightblue" stroke="midnightblue" points="1113.21,-56.8897 1123.8,-56.4435 1115.24,-50.1911 1113.21,-56.8897"/>
</g>
<!-- Node23 -->
<g id="node23" class="node"><title>Node23</title>
<g id="a_node23"><a xlink:href="_graphics_polygon_8cpp_source.html" target="_top" xlink:title="GraphicsPolygon.cpp">
<polygon fill="white" stroke="black" points="1097,-0.5 1097,-19.5 1207,-19.5 1207,-0.5 1097,-0.5"/>
<text text-anchor="middle" x="1152" y="-7.5" font-family="Helvetica,sans-Serif" font-size="10.00">GraphicsPolygon.cpp</text>
</a>
</g>
</g>
<!-- Node22&#45;&gt;Node23 -->
<g id="edge32" class="edge"><title>Node22&#45;&gt;Node23</title>
<path fill="none" stroke="midnightblue" d="M1152,-45.8045C1152,-36.9102 1152,-26.7798 1152,-19.7511"/>
<polygon fill="midnightblue" stroke="midnightblue" points="1148.5,-46.083 1152,-56.083 1155.5,-46.083 1148.5,-46.083"/>
</g>
<!-- Node24&#45;&gt;Node3 -->
<g id="edge34" class="edge"><title>Node24&#45;&gt;Node3</title>
<path fill="none" stroke="midnightblue" d="M222.053,-275.376C209.095,-267.775 194.497,-257.168 185,-244 167.394,-219.589 166,-209.098 166,-179 166,-179 166,-179 166,-121 166,-56.9635 375.038,-26.8116 476.291,-15.9627"/>
<polygon fill="midnightblue" stroke="midnightblue" points="220.656,-278.603 231.102,-280.373 224.04,-272.475 220.656,-278.603"/>
</g>
<!-- Node25 -->
<g id="node25" class="node"><title>Node25</title>
<g id="a_node25"><a xlink:href="_graphics_triangle_8cpp_source.html" target="_top" xlink:title="GraphicsTriangle.cpp">
<polygon fill="white" stroke="black" points="194.5,-224.5 194.5,-243.5 303.5,-243.5 303.5,-224.5 194.5,-224.5"/>
<text text-anchor="middle" x="249" y="-231.5" font-family="Helvetica,sans-Serif" font-size="10.00">GraphicsTriangle.cpp</text>
</a>
</g>
</g>
<!-- Node24&#45;&gt;Node25 -->
<g id="edge35" class="edge"><title>Node24&#45;&gt;Node25</title>
<path fill="none" stroke="midnightblue" d="M249.645,-269.805C249.48,-260.91 249.292,-250.78 249.162,-243.751"/>
<polygon fill="midnightblue" stroke="midnightblue" points="246.15,-270.15 249.835,-280.083 253.149,-270.02 246.15,-270.15"/>
</g>
</g>
</svg>
        <g id="navigator" transform="translate(0 0)" fill="#404254">
                <rect fill="#f2f5e9" fill-opacity="0.5" stroke="#606060" stroke-width=".5" x="0" y="0" width="60" height="60"/>
                <use id="zoomplus" xlink:href="#zoomPlus" x="17" y="9" onmousedown="handleZoom(evt,'in')"/>
                <use id="zoomminus" xlink:href="#zoomMin" x="42" y="9" onmousedown="handleZoom(evt,'out')"/>
                <use id="reset" xlink:href="#resetDef" x="30" y="36" onmousedown="handleReset()"/>
                <g id="arrowUp" xlink:href="#dirArrow" transform="translate(30 24)" onmousedown="handlePan(0,-1)">
                  <use xlink:href="#rim" fill="#404040">
                        <set attributeName="fill" to="#808080" begin="arrowUp.mouseover" end="arrowUp.mouseout"/>
                  </use>
                  <path fill="none" stroke="white" stroke-width="1.5" d="M0,-3.0v7 M-2.5,-0.5L0,-3.0L2.5,-0.5"/>
                </g>
                <g id="arrowRight" xlink:href="#dirArrow" transform="rotate(90) translate(36 -43)" onmousedown="handlePan(1,0)">
                  <use xlink:href="#rim" fill="#404040">
                        <set attributeName="fill" to="#808080" begin="arrowRight.mouseover" end="arrowRight.mouseout"/>
                  </use>
                  <path fill="none" stroke="white" stroke-width="1.5" d="M0,-3.0v7 M-2.5,-0.5L0,-3.0L2.5,-0.5"/>
                </g>
                <g id="arrowDown" xlink:href="#dirArrow" transform="rotate(180) translate(-30 -48)" onmousedown="handlePan(0,1)">
                  <use xlink:href="#rim" fill="#404040">
                        <set attributeName="fill" to="#808080" begin="arrowDown.mouseover" end="arrowDown.mouseout"/>
                  </use>
                  <path fill="none" stroke="white" stroke-width="1.5" d="M0,-3.0v7 M-2.5,-0.5L0,-3.0L2.5,-0.5"/>
                </g>
                <g id="arrowLeft" xlink:href="#dirArrow" transform="rotate(270) translate(-36 17)" onmousedown="handlePan(-1,0)">
                  <use xlink:href="#rim" fill="#404040">
                        <set attributeName="fill" to="#808080" begin="arrowLeft.mouseover" end="arrowLeft.mouseout"/>
                  </use>
                  <path fill="none" stroke="white" stroke-width="1.5" d="M0,-3.0v7 M-2.5,-0.5L0,-3.0L2.5,-0.5"/>
                </g>
        </g>
        <svg viewBox="0 0 15 15" width="100%" height="30px" preserveAspectRatio="xMaxYMin meet">
         <g id="arrow_out" transform="scale(0.3 0.3)">
          <a xlink:href="_graphics_shape_8hpp__dep__incl_org.svg" target="_base">
           <rect id="button" ry="5" rx="5" y="6" x="6" height="38" width="38"
                fill="#f2f5e9" fill-opacity="0.5" stroke="#606060" stroke-width="1.0"/>
           <path id="arrow"
             d="M 11.500037,31.436501 C 11.940474,20.09759 22.043105,11.32322 32.158766,21.979434 L 37.068811,17.246167 C 37.068811,17.246167 37.088388,32 37.088388,32 L 22.160133,31.978069 C 22.160133,31.978069 26.997745,27.140456 26.997745,27.140456 C 18.528582,18.264221 13.291696,25.230495 11.500037,31.436501 z"
             style="fill:#404040;"/>
          </a>
         </g>
        </svg>
</svg>
