<?xml version="1.0" encoding="UTF-8" standalone="no"?>
<!DOCTYPE svg PUBLIC "-//W3C//DTD SVG 1.1//EN"
 "http://www.w3.org/Graphics/SVG/1.1/DTD/svg11.dtd">
<!-- Generated by graphviz version 2.36.0 (20140111.2315)
 -->
<!-- Title: GraphicsEllipse.cpp Pages: 1 -->
<!--zoomable 420 -->
<svg id="main" version="1.1" xmlns="http://www.w3.org/2000/svg" xmlns:xlink="http://www.w3.org/1999/xlink" xml:space="preserve" onload="init(evt)">
<style type="text/css"><![CDATA[
.edge:hover path { stroke: red; }
.edge:hover polygon { stroke: red; fill: red; }
]]></style>
<script type="text/javascript"><![CDATA[
var edges = document.getElementsByTagName('g');
if (edges && edges.length) {
  for (var i=0;i<edges.length;i++) {
    if (edges[i].id.substr(0,4)=='edge') {
      edges[i].setAttribute('class','edge');
    }
  }
}
]]></script>
        <defs>
                <circle id="rim" cx="0" cy="0" r="7"/>
                <circle id="rim2" cx="0" cy="0" r="3.5"/>
                <g id="zoomPlus">
                        <use xlink:href="#rim" fill="#404040">
                                <set attributeName="fill" to="#808080" begin="zoomplus.mouseover" end="zoomplus.mouseout"/>
                        </use>
                        <path d="M-4,0h8M0,-4v8" fill="none" stroke="white" stroke-width="1.5" pointer-events="none"/>
                </g>
                <g id="zoomMin">
                        <use xlink:href="#rim" fill="#404040">
                                <set attributeName="fill" to="#808080" begin="zoomminus.mouseover" end="zoomminus.mouseout"/>
                        </use>
                        <path d="M-4,0h8" fill="none" stroke="white" stroke-width="1.5" pointer-events="none"/>
                </g>
                <g id="dirArrow">
                        <path fill="none" stroke="white" stroke-width="1.5" d="M0,-3.0v7 M-2.5,-0.5L0,-3.0L2.5,-0.5"/>
                </g>
               <g id="resetDef">
                       <use xlink:href="#rim2" fill="#404040">
                               <set attributeName="fill" to="#808080" begin="reset.mouseover" end="reset.mouseout"/>
                       </use>
               </g>
        </defs>

<script type="text/javascript">
var viewWidth = 551;
var viewHeight = 420;
var sectionId = 'dynsection-0';
</script>
<script xlink:href="svgpan.js"/>
<svg id="graph" class="graph">
<g id="viewport">
<title>GraphicsEllipse.cpp</title>
<polygon fill="white" stroke="none" points="-4,4 -4,-416 546.68,-416 546.68,4 -4,4"/>
<!-- Node1 -->
<g id="node1" class="node"><title>Node1</title>
<polygon fill="#bfbfbf" stroke="black" points="186,-392.5 186,-411.5 290,-411.5 290,-392.5 186,-392.5"/>
<text text-anchor="middle" x="238" y="-399.5" font-family="Helvetica,sans-Serif" font-size="10.00">GraphicsEllipse.cpp</text>
</g>
<!-- Node2 -->
<g id="node2" class="node"><title>Node2</title>
<g id="a_node2"><a xlink:href="_graphics_ellipse_8hpp.html" target="_top" xlink:title="../include/GraphicsEllipse.hpp">
<polygon fill="white" stroke="black" points="0,-336.5 0,-355.5 146,-355.5 146,-336.5 0,-336.5"/>
<text text-anchor="middle" x="73" y="-343.5" font-family="Helvetica,sans-Serif" font-size="10.00">../include/GraphicsEllipse.hpp</text>
</a>
</g>
</g>
<!-- Node1&#45;&gt;Node2 -->
<g id="edge1" class="edge"><title>Node1&#45;&gt;Node2</title>
<path fill="none" stroke="midnightblue" d="M211.855,-392.444C183.977,-383.32 139.652,-368.813 108.6,-358.651"/>
<polygon fill="midnightblue" stroke="midnightblue" points="109.615,-355.3 99.0224,-355.516 107.438,-361.953 109.615,-355.3"/>
</g>
<!-- Node21 -->
<g id="node21" class="node"><title>Node21</title>
<g id="a_node21"><a xlink:href="_graphics_point_8hpp.html" target="_top" xlink:title="../include/GraphicsPoint.hpp">
<polygon fill="white" stroke="black" points="168,-280.5 168,-299.5 308,-299.5 308,-280.5 168,-280.5"/>
<text text-anchor="middle" x="238" y="-287.5" font-family="Helvetica,sans-Serif" font-size="10.00">../include/GraphicsPoint.hpp</text>
</a>
</g>
</g>
<!-- Node1&#45;&gt;Node21 -->
<g id="edge27" class="edge"><title>Node1&#45;&gt;Node21</title>
<path fill="none" stroke="midnightblue" d="M266.79,-392.417C296.551,-381.922 336.636,-362.263 321,-336 311.904,-320.721 295.612,-310.31 279.856,-303.386"/>
<polygon fill="midnightblue" stroke="midnightblue" points="280.769,-299.981 270.185,-299.512 278.167,-306.479 280.769,-299.981"/>
</g>
<!-- Node22 -->
<g id="node22" class="node"><title>Node22</title>
<g id="a_node22"><a xlink:href="_graphics_anchor_8hpp.html" target="_top" xlink:title="../include/GraphicsAnchor.hpp">
<polygon fill="white" stroke="black" points="164,-336.5 164,-355.5 312,-355.5 312,-336.5 164,-336.5"/>
<text text-anchor="middle" x="238" y="-343.5" font-family="Helvetica,sans-Serif" font-size="10.00">../include/GraphicsAnchor.hpp</text>
</a>
</g>
</g>
<!-- Node1&#45;&gt;Node22 -->
<g id="edge29" class="edge"><title>Node1&#45;&gt;Node22</title>
<path fill="none" stroke="midnightblue" d="M238,-392.083C238,-385.006 238,-374.861 238,-365.986"/>
<polygon fill="midnightblue" stroke="midnightblue" points="241.5,-365.751 238,-355.751 234.5,-365.751 241.5,-365.751"/>
</g>
<!-- Node3 -->
<g id="node3" class="node"><title>Node3</title>
<g id="a_node3"><a xlink:href="_graphics_shape_8hpp.html" target="_top" xlink:title="Classe GraphicsShape. ">
<polygon fill="white" stroke="black" points="29,-280.5 29,-299.5 131,-299.5 131,-280.5 29,-280.5"/>
<text text-anchor="middle" x="80" y="-287.5" font-family="Helvetica,sans-Serif" font-size="10.00">GraphicsShape.hpp</text>
</a>
</g>
</g>
<!-- Node2&#45;&gt;Node3 -->
<g id="edge2" class="edge"><title>Node2&#45;&gt;Node3</title>
<path fill="none" stroke="midnightblue" d="M74.1559,-336.083C75.0835,-328.927 76.4176,-318.635 77.5771,-309.691"/>
<polygon fill="midnightblue" stroke="midnightblue" points="81.0509,-310.118 78.8656,-299.751 74.109,-309.218 81.0509,-310.118"/>
</g>
<!-- Node4 -->
<g id="node4" class="node"><title>Node4</title>
<polygon fill="white" stroke="#bfbfbf" points="77,-56.5 77,-75.5 121,-75.5 121,-56.5 77,-56.5"/>
<text text-anchor="middle" x="99" y="-63.5" font-family="Helvetica,sans-Serif" font-size="10.00">vector</text>
</g>
<!-- Node3&#45;&gt;Node4 -->
<g id="edge3" class="edge"><title>Node3&#45;&gt;Node4</title>
<path fill="none" stroke="midnightblue" d="M80.7448,-280.297C83.5405,-247.633 93.4484,-131.866 97.3775,-85.9573"/>
<polygon fill="midnightblue" stroke="midnightblue" points="100.874,-86.1458 98.2397,-75.8837 93.8996,-85.5488 100.874,-86.1458"/>
</g>
<!-- Node5 -->
<g id="node5" class="node"><title>Node5</title>
<g id="a_node5"><a xlink:href="_graphics_item_8hpp.html" target="_top" xlink:title="Classe GraphicsItem. ">
<polygon fill="white" stroke="black" points="179,-224.5 179,-243.5 273,-243.5 273,-224.5 179,-224.5"/>
<text text-anchor="middle" x="226" y="-231.5" font-family="Helvetica,sans-Serif" font-size="10.00">GraphicsItem.hpp</text>
</a>
</g>
</g>
<!-- Node3&#45;&gt;Node5 -->
<g id="edge4" class="edge"><title>Node3&#45;&gt;Node5</title>
<path fill="none" stroke="midnightblue" d="M103.134,-280.444C127.482,-271.438 166.007,-257.189 193.423,-247.049"/>
<polygon fill="midnightblue" stroke="midnightblue" points="194.809,-250.268 202.974,-243.516 192.381,-243.703 194.809,-250.268"/>
</g>
<!-- Node5&#45;&gt;Node4 -->
<g id="edge5" class="edge"><title>Node5&#45;&gt;Node4</title>
<path fill="none" stroke="midnightblue" d="M195.707,-224.444C176.398,-217.535 152.232,-205.957 137,-188 111.803,-158.295 103.284,-111.863 100.425,-86.007"/>
<polygon fill="midnightblue" stroke="midnightblue" points="103.878,-85.3433 99.4701,-75.7092 96.9084,-85.9896 103.878,-85.3433"/>
</g>
<!-- Node6 -->
<g id="node6" class="node"><title>Node6</title>
<polygon fill="white" stroke="#bfbfbf" points="146,-168.5 146,-187.5 176,-187.5 176,-168.5 146,-168.5"/>
<text text-anchor="middle" x="161" y="-175.5" font-family="Helvetica,sans-Serif" font-size="10.00">set</text>
</g>
<!-- Node5&#45;&gt;Node6 -->
<g id="edge6" class="edge"><title>Node5&#45;&gt;Node6</title>
<path fill="none" stroke="midnightblue" d="M215.557,-224.324C205.854,-216.263 191.185,-204.077 179.5,-194.369"/>
<polygon fill="midnightblue" stroke="midnightblue" points="181.562,-191.532 171.633,-187.834 177.089,-196.916 181.562,-191.532"/>
</g>
<!-- Node7 -->
<g id="node7" class="node"><title>Node7</title>
<polygon fill="white" stroke="#bfbfbf" points="194,-168.5 194,-187.5 246,-187.5 246,-168.5 194,-168.5"/>
<text text-anchor="middle" x="220" y="-175.5" font-family="Helvetica,sans-Serif" font-size="10.00">memory</text>
</g>
<!-- Node5&#45;&gt;Node7 -->
<g id="edge7" class="edge"><title>Node5&#45;&gt;Node7</title>
<path fill="none" stroke="midnightblue" d="M225.009,-224.083C224.214,-216.927 223.071,-206.635 222.077,-197.691"/>
<polygon fill="midnightblue" stroke="midnightblue" points="225.555,-197.303 220.972,-187.751 218.598,-198.076 225.555,-197.303"/>
</g>
<!-- Node8 -->
<g id="node8" class="node"><title>Node8</title>
<g id="a_node8"><a xlink:href="_color_8hpp.html" target="_top" xlink:title="Classe Color. ">
<polygon fill="white" stroke="black" points="264.5,-168.5 264.5,-187.5 323.5,-187.5 323.5,-168.5 264.5,-168.5"/>
<text text-anchor="middle" x="294" y="-175.5" font-family="Helvetica,sans-Serif" font-size="10.00">Color.hpp</text>
</a>
</g>
</g>
<!-- Node5&#45;&gt;Node8 -->
<g id="edge8" class="edge"><title>Node5&#45;&gt;Node8</title>
<path fill="none" stroke="midnightblue" d="M236.925,-224.324C247.175,-216.185 262.721,-203.839 275.001,-194.087"/>
<polygon fill="midnightblue" stroke="midnightblue" points="277.221,-196.794 282.876,-187.834 272.868,-191.312 277.221,-196.794"/>
</g>
<!-- Node12 -->
<g id="node12" class="node"><title>Node12</title>
<g id="a_node12"><a xlink:href="_canvas_8hpp.html" target="_top" xlink:title="Canvas.hpp">
<polygon fill="white" stroke="black" points="341.5,-168.5 341.5,-187.5 410.5,-187.5 410.5,-168.5 341.5,-168.5"/>
<text text-anchor="middle" x="376" y="-175.5" font-family="Helvetica,sans-Serif" font-size="10.00">Canvas.hpp</text>
</a>
</g>
</g>
<!-- Node5&#45;&gt;Node12 -->
<g id="edge12" class="edge"><title>Node5&#45;&gt;Node12</title>
<path fill="none" stroke="midnightblue" d="M249.768,-224.444C274.893,-215.399 314.711,-201.064 342.9,-190.916"/>
<polygon fill="midnightblue" stroke="midnightblue" points="344.12,-194.197 352.343,-187.516 341.749,-187.611 344.12,-194.197"/>
</g>
<!-- Node20 -->
<g id="node20" class="node"><title>Node20</title>
<g id="a_node20"><a xlink:href="_event_8hpp.html" target="_top" xlink:title="Classe Event. ">
<polygon fill="white" stroke="black" points="445.5,-168.5 445.5,-187.5 506.5,-187.5 506.5,-168.5 445.5,-168.5"/>
<text text-anchor="middle" x="476" y="-175.5" font-family="Helvetica,sans-Serif" font-size="10.00">Event.hpp</text>
</a>
</g>
</g>
<!-- Node5&#45;&gt;Node20 -->
<g id="edge24" class="edge"><title>Node5&#45;&gt;Node20</title>
<path fill="none" stroke="midnightblue" d="M265.613,-224.444C312.047,-214.414 388.593,-197.88 435.434,-187.762"/>
<polygon fill="midnightblue" stroke="midnightblue" points="436.206,-191.176 445.241,-185.644 434.728,-184.334 436.206,-191.176"/>
</g>
<!-- Node9 -->
<g id="node9" class="node"><title>Node9</title>
<polygon fill="white" stroke="#bfbfbf" points="208,-112.5 208,-131.5 254,-131.5 254,-112.5 208,-112.5"/>
<text text-anchor="middle" x="231" y="-119.5" font-family="Helvetica,sans-Serif" font-size="10.00">cstdint</text>
</g>
<!-- Node8&#45;&gt;Node9 -->
<g id="edge9" class="edge"><title>Node8&#45;&gt;Node9</title>
<path fill="none" stroke="midnightblue" d="M283.878,-168.324C274.474,-160.263 260.256,-148.077 248.931,-138.369"/>
<polygon fill="midnightblue" stroke="midnightblue" points="251.177,-135.684 241.306,-131.834 246.621,-140.999 251.177,-135.684"/>
</g>
<!-- Node10 -->
<g id="node10" class="node"><title>Node10</title>
<polygon fill="white" stroke="#bfbfbf" points="148.5,-112.5 148.5,-131.5 189.5,-131.5 189.5,-112.5 148.5,-112.5"/>
<text text-anchor="middle" x="169" y="-119.5" font-family="Helvetica,sans-Serif" font-size="10.00">string</text>
</g>
<!-- Node8&#45;&gt;Node10 -->
<g id="edge10" class="edge"><title>Node8&#45;&gt;Node10</title>
<path fill="none" stroke="midnightblue" d="M274.193,-168.444C253.713,-159.596 221.517,-145.687 198.135,-135.586"/>
<polygon fill="midnightblue" stroke="midnightblue" points="199.282,-132.269 188.714,-131.516 196.506,-138.695 199.282,-132.269"/>
</g>
<!-- Node11 -->
<g id="node11" class="node"><title>Node11</title>
<polygon fill="white" stroke="#bfbfbf" points="422,-112.5 422,-131.5 530,-131.5 530,-112.5 422,-112.5"/>
<text text-anchor="middle" x="476" y="-119.5" font-family="Helvetica,sans-Serif" font-size="10.00">ez&#45;lib/ez&#45;draw++.hpp</text>
</g>
<!-- Node8&#45;&gt;Node11 -->
<g id="edge11" class="edge"><title>Node8&#45;&gt;Node11</title>
<path fill="none" stroke="midnightblue" d="M322.838,-168.444C353.856,-159.241 403.329,-144.562 437.618,-134.388"/>
<polygon fill="midnightblue" stroke="midnightblue" points="438.705,-137.716 447.296,-131.516 436.714,-131.006 438.705,-137.716"/>
</g>
<!-- Node12&#45;&gt;Node11 -->
<g id="edge13" class="edge"><title>Node12&#45;&gt;Node11</title>
<path fill="none" stroke="midnightblue" d="M392.067,-168.324C407.958,-159.743 432.507,-146.486 450.958,-136.522"/>
<polygon fill="midnightblue" stroke="midnightblue" points="452.837,-139.486 459.973,-131.655 449.511,-133.326 452.837,-139.486"/>
</g>
<!-- Node13 -->
<g id="node13" class="node"><title>Node13</title>
<g id="a_node13"><a xlink:href="_point_8hpp.html" target="_top" xlink:title="Classe point. ">
<polygon fill="white" stroke="black" points="272,-112.5 272,-131.5 330,-131.5 330,-112.5 272,-112.5"/>
<text text-anchor="middle" x="301" y="-119.5" font-family="Helvetica,sans-Serif" font-size="10.00">Point.hpp</text>
</a>
</g>
</g>
<!-- Node12&#45;&gt;Node13 -->
<g id="edge14" class="edge"><title>Node12&#45;&gt;Node13</title>
<path fill="none" stroke="midnightblue" d="M363.95,-168.324C352.537,-160.107 335.169,-147.602 321.565,-137.807"/>
<polygon fill="midnightblue" stroke="midnightblue" points="323.43,-134.837 313.269,-131.834 319.34,-140.517 323.43,-134.837"/>
</g>
<!-- Node19 -->
<g id="node19" class="node"><title>Node19</title>
<g id="a_node19"><a xlink:href="_font_8hpp.html" target="_top" xlink:title="Font.hpp">
<polygon fill="white" stroke="black" points="348.5,-112.5 348.5,-131.5 403.5,-131.5 403.5,-112.5 348.5,-112.5"/>
<text text-anchor="middle" x="376" y="-119.5" font-family="Helvetica,sans-Serif" font-size="10.00">Font.hpp</text>
</a>
</g>
</g>
<!-- Node12&#45;&gt;Node19 -->
<g id="edge22" class="edge"><title>Node12&#45;&gt;Node19</title>
<path fill="none" stroke="midnightblue" d="M376,-168.083C376,-161.006 376,-150.861 376,-141.986"/>
<polygon fill="midnightblue" stroke="midnightblue" points="379.5,-141.751 376,-131.751 372.5,-141.751 379.5,-141.751"/>
</g>
<!-- Node13&#45;&gt;Node4 -->
<g id="edge18" class="edge"><title>Node13&#45;&gt;Node4</title>
<path fill="none" stroke="midnightblue" d="M271.894,-113.579C239.746,-105.33 186.211,-91.4413 131.244,-76.2969"/>
<polygon fill="midnightblue" stroke="midnightblue" points="131.903,-72.8479 121.332,-73.5564 130.038,-79.5947 131.903,-72.8479"/>
</g>
<!-- Node14 -->
<g id="node14" class="node"><title>Node14</title>
<polygon fill="white" stroke="#bfbfbf" points="139.5,-56.5 139.5,-75.5 240.5,-75.5 240.5,-56.5 139.5,-56.5"/>
<text text-anchor="middle" x="190" y="-63.5" font-family="Helvetica,sans-Serif" font-size="10.00">boost/uuid/uuid.hpp</text>
</g>
<!-- Node13&#45;&gt;Node14 -->
<g id="edge15" class="edge"><title>Node13&#45;&gt;Node14</title>
<path fill="none" stroke="midnightblue" d="M283.166,-112.324C265.284,-103.625 237.525,-90.1202 216.954,-80.113"/>
<polygon fill="midnightblue" stroke="midnightblue" points="218.313,-76.8819 207.79,-75.6545 215.251,-83.1765 218.313,-76.8819"/>
</g>
<!-- Node15 -->
<g id="node15" class="node"><title>Node15</title>
<polygon fill="white" stroke="#bfbfbf" points="419,-56.5 419,-75.5 473,-75.5 473,-56.5 419,-56.5"/>
<text text-anchor="middle" x="446" y="-63.5" font-family="Helvetica,sans-Serif" font-size="10.00">iostream</text>
</g>
<!-- Node13&#45;&gt;Node15 -->
<g id="edge16" class="edge"><title>Node13&#45;&gt;Node15</title>
<path fill="none" stroke="midnightblue" d="M323.976,-112.444C348.157,-103.438 386.418,-89.1891 413.646,-79.049"/>
<polygon fill="midnightblue" stroke="midnightblue" points="414.982,-82.2864 423.132,-75.5164 412.539,-75.7265 414.982,-82.2864"/>
</g>
<!-- Node16 -->
<g id="node16" class="node"><title>Node16</title>
<polygon fill="white" stroke="#bfbfbf" points="258.5,-56.5 258.5,-75.5 293.5,-75.5 293.5,-56.5 258.5,-56.5"/>
<text text-anchor="middle" x="276" y="-63.5" font-family="Helvetica,sans-Serif" font-size="10.00">map</text>
</g>
<!-- Node13&#45;&gt;Node16 -->
<g id="edge17" class="edge"><title>Node13&#45;&gt;Node16</title>
<path fill="none" stroke="midnightblue" d="M296.872,-112.083C293.486,-104.77 288.584,-94.1814 284.381,-85.1034"/>
<polygon fill="midnightblue" stroke="midnightblue" points="287.429,-83.3553 280.051,-75.7511 281.077,-86.2962 287.429,-83.3553"/>
</g>
<!-- Node17 -->
<g id="node17" class="node"><title>Node17</title>
<g id="a_node17"><a xlink:href="_group_points_8hpp.html" target="_top" xlink:title="GroupPoints.hpp">
<polygon fill="white" stroke="black" points="311.5,-56.5 311.5,-75.5 400.5,-75.5 400.5,-56.5 311.5,-56.5"/>
<text text-anchor="middle" x="356" y="-63.5" font-family="Helvetica,sans-Serif" font-size="10.00">GroupPoints.hpp</text>
</a>
</g>
</g>
<!-- Node13&#45;&gt;Node17 -->
<g id="edge19" class="edge"><title>Node13&#45;&gt;Node17</title>
<path fill="none" stroke="midnightblue" d="M304.916,-112.083C311.457,-103.984 323.472,-91.8664 334.34,-82.2334"/>
<polygon fill="midnightblue" stroke="midnightblue" points="336.609,-84.898 341.956,-75.7511 332.072,-79.5674 336.609,-84.898"/>
</g>
<!-- Node17&#45;&gt;Node13 -->
<g id="edge21" class="edge"><title>Node17&#45;&gt;Node13</title>
<path fill="none" stroke="midnightblue" d="M352.151,-75.8339C345.614,-83.9481 333.521,-96.1452 322.6,-105.82"/>
<polygon fill="midnightblue" stroke="midnightblue" points="320.302,-103.179 314.952,-112.324 324.837,-108.512 320.302,-103.179"/>
</g>
<!-- Node18 -->
<g id="node18" class="node"><title>Node18</title>
<polygon fill="white" stroke="#bfbfbf" points="326.5,-0.5 326.5,-19.5 385.5,-19.5 385.5,-0.5 326.5,-0.5"/>
<text text-anchor="middle" x="356" y="-7.5" font-family="Helvetica,sans-Serif" font-size="10.00">functional</text>
</g>
<!-- Node17&#45;&gt;Node18 -->
<g id="edge20" class="edge"><title>Node17&#45;&gt;Node18</title>
<path fill="none" stroke="midnightblue" d="M356,-56.083C356,-49.0059 356,-38.8611 356,-29.9865"/>
<polygon fill="midnightblue" stroke="midnightblue" points="359.5,-29.751 356,-19.7511 352.5,-29.7511 359.5,-29.751"/>
</g>
<!-- Node19&#45;&gt;Node15 -->
<g id="edge23" class="edge"><title>Node19&#45;&gt;Node15</title>
<path fill="none" stroke="midnightblue" d="M387.247,-112.324C397.797,-104.185 413.801,-91.8395 426.442,-82.0874"/>
<polygon fill="midnightblue" stroke="midnightblue" points="428.769,-84.7132 434.549,-75.8339 424.493,-79.1707 428.769,-84.7132"/>
</g>
<!-- Node20&#45;&gt;Node11 -->
<g id="edge26" class="edge"><title>Node20&#45;&gt;Node11</title>
<path fill="none" stroke="midnightblue" d="M476,-168.083C476,-161.006 476,-150.861 476,-141.986"/>
<polygon fill="midnightblue" stroke="midnightblue" points="479.5,-141.751 476,-131.751 472.5,-141.751 479.5,-141.751"/>
</g>
<!-- Node20&#45;&gt;Node15 -->
<g id="edge25" class="edge"><title>Node20&#45;&gt;Node15</title>
<path fill="none" stroke="midnightblue" d="M495.722,-168.396C519.202,-156.87 553.527,-135.167 539,-112 526.717,-92.4111 503.223,-81.1399 482.924,-74.7766"/>
<polygon fill="midnightblue" stroke="midnightblue" points="483.854,-71.4025 473.278,-72.0322 481.939,-78.1353 483.854,-71.4025"/>
</g>
<!-- Node21&#45;&gt;Node5 -->
<g id="edge28" class="edge"><title>Node21&#45;&gt;Node5</title>
<path fill="none" stroke="midnightblue" d="M236.018,-280.083C234.428,-272.927 232.141,-262.635 230.154,-253.691"/>
<polygon fill="midnightblue" stroke="midnightblue" points="233.531,-252.754 227.945,-243.751 226.697,-254.272 233.531,-252.754"/>
</g>
<!-- Node22&#45;&gt;Node21 -->
<g id="edge30" class="edge"><title>Node22&#45;&gt;Node21</title>
<path fill="none" stroke="midnightblue" d="M238,-336.083C238,-329.006 238,-318.861 238,-309.986"/>
<polygon fill="midnightblue" stroke="midnightblue" points="241.5,-309.751 238,-299.751 234.5,-309.751 241.5,-309.751"/>
</g>
</g>
</svg>
        <g id="navigator" transform="translate(0 0)" fill="#404254">
                <rect fill="#f2f5e9" fill-opacity="0.5" stroke="#606060" stroke-width=".5" x="0" y="0" width="60" height="60"/>
                <use id="zoomplus" xlink:href="#zoomPlus" x="17" y="9" onmousedown="handleZoom(evt,'in')"/>
                <use id="zoomminus" xlink:href="#zoomMin" x="42" y="9" onmousedown="handleZoom(evt,'out')"/>
                <use id="reset" xlink:href="#resetDef" x="30" y="36" onmousedown="handleReset()"/>
                <g id="arrowUp" xlink:href="#dirArrow" transform="translate(30 24)" onmousedown="handlePan(0,-1)">
                  <use xlink:href="#rim" fill="#404040">
                        <set attributeName="fill" to="#808080" begin="arrowUp.mouseover" end="arrowUp.mouseout"/>
                  </use>
                  <path fill="none" stroke="white" stroke-width="1.5" d="M0,-3.0v7 M-2.5,-0.5L0,-3.0L2.5,-0.5"/>
                </g>
                <g id="arrowRight" xlink:href="#dirArrow" transform="rotate(90) translate(36 -43)" onmousedown="handlePan(1,0)">
                  <use xlink:href="#rim" fill="#404040">
                        <set attributeName="fill" to="#808080" begin="arrowRight.mouseover" end="arrowRight.mouseout"/>
                  </use>
                  <path fill="none" stroke="white" stroke-width="1.5" d="M0,-3.0v7 M-2.5,-0.5L0,-3.0L2.5,-0.5"/>
                </g>
                <g id="arrowDown" xlink:href="#dirArrow" transform="rotate(180) translate(-30 -48)" onmousedown="handlePan(0,1)">
                  <use xlink:href="#rim" fill="#404040">
                        <set attributeName="fill" to="#808080" begin="arrowDown.mouseover" end="arrowDown.mouseout"/>
                  </use>
                  <path fill="none" stroke="white" stroke-width="1.5" d="M0,-3.0v7 M-2.5,-0.5L0,-3.0L2.5,-0.5"/>
                </g>
                <g id="arrowLeft" xlink:href="#dirArrow" transform="rotate(270) translate(-36 17)" onmousedown="handlePan(-1,0)">
                  <use xlink:href="#rim" fill="#404040">
                        <set attributeName="fill" to="#808080" begin="arrowLeft.mouseover" end="arrowLeft.mouseout"/>
                  </use>
                  <path fill="none" stroke="white" stroke-width="1.5" d="M0,-3.0v7 M-2.5,-0.5L0,-3.0L2.5,-0.5"/>
                </g>
        </g>
        <svg viewBox="0 0 15 15" width="100%" height="30px" preserveAspectRatio="xMaxYMin meet">
         <g id="arrow_out" transform="scale(0.3 0.3)">
          <a xlink:href="_graphics_ellipse_8cpp__incl_org.svg" target="_base">
           <rect id="button" ry="5" rx="5" y="6" x="6" height="38" width="38"
                fill="#f2f5e9" fill-opacity="0.5" stroke="#606060" stroke-width="1.0"/>
           <path id="arrow"
             d="M 11.500037,31.436501 C 11.940474,20.09759 22.043105,11.32322 32.158766,21.979434 L 37.068811,17.246167 C 37.068811,17.246167 37.088388,32 37.088388,32 L 22.160133,31.978069 C 22.160133,31.978069 26.997745,27.140456 26.997745,27.140456 C 18.528582,18.264221 13.291696,25.230495 11.500037,31.436501 z"
             style="fill:#404040;"/>
          </a>
         </g>
        </svg>
</svg>
