<?xml version="1.0" encoding="UTF-8" standalone="no"?>
<!DOCTYPE svg PUBLIC "-//W3C//DTD SVG 1.1//EN"
 "http://www.w3.org/Graphics/SVG/1.1/DTD/svg11.dtd">
<!-- Generated by graphviz version 2.36.0 (20140111.2315)
 -->
<!-- Title: GraphicsText.hpp Pages: 1 -->
<svg width="549pt" height="196pt"
 viewBox="0.00 0.00 549.00 196.00" xmlns="http://www.w3.org/2000/svg" xmlns:xlink="http://www.w3.org/1999/xlink">
<g id="graph0" class="graph" transform="scale(1 1) rotate(0) translate(4 192)">
<title>GraphicsText.hpp</title>
<polygon fill="white" stroke="none" points="-4,4 -4,-192 545,-192 545,4 -4,4"/>
<!-- Node1 -->
<g id="node1" class="node"><title>Node1</title>
<polygon fill="#bfbfbf" stroke="black" points="372,-168.5 372,-187.5 466,-187.5 466,-168.5 372,-168.5"/>
<text text-anchor="middle" x="419" y="-175.5" font-family="Helvetica,sans-Serif" font-size="10.00">GraphicsText.hpp</text>
</g>
<!-- Node2 -->
<g id="node2" class="node"><title>Node2</title>
<g id="a_node2"><a xlink:href="_tools_window_8cpp_source.html" target="_top" xlink:title="ToolsWindow.cpp">
<polygon fill="white" stroke="black" points="371.5,-0.5 371.5,-19.5 466.5,-19.5 466.5,-0.5 371.5,-0.5"/>
<text text-anchor="middle" x="419" y="-7.5" font-family="Helvetica,sans-Serif" font-size="10.00">ToolsWindow.cpp</text>
</a>
</g>
</g>
<!-- Node1&#45;&gt;Node2 -->
<g id="edge1" class="edge"><title>Node1&#45;&gt;Node2</title>
<path fill="none" stroke="midnightblue" d="M419,-157.93C419,-121.92 419,-45.2312 419,-19.5681"/>
<polygon fill="midnightblue" stroke="midnightblue" points="415.5,-158.075 419,-168.075 422.5,-158.075 415.5,-158.075"/>
</g>
<!-- Node3 -->
<g id="node3" class="node"><title>Node3</title>
<g id="a_node3"><a xlink:href="_graphics_text_8cpp_source.html" target="_top" xlink:title="GraphicsText.cpp">
<polygon fill="white" stroke="black" points="447,-112.5 447,-131.5 541,-131.5 541,-112.5 447,-112.5"/>
<text text-anchor="middle" x="494" y="-119.5" font-family="Helvetica,sans-Serif" font-size="10.00">GraphicsText.cpp</text>
</a>
</g>
</g>
<!-- Node1&#45;&gt;Node3 -->
<g id="edge2" class="edge"><title>Node1&#45;&gt;Node3</title>
<path fill="none" stroke="midnightblue" d="M439.305,-162.38C452.861,-152.62 470.242,-140.106 481.731,-131.834"/>
<polygon fill="midnightblue" stroke="midnightblue" points="437.12,-159.641 431.05,-168.324 441.21,-165.321 437.12,-159.641"/>
</g>
<!-- Node4 -->
<g id="node4" class="node"><title>Node4</title>
<g id="a_node4"><a xlink:href="_label_8hpp_source.html" target="_top" xlink:title="Label.hpp">
<polygon fill="white" stroke="black" points="291.5,-112.5 291.5,-131.5 350.5,-131.5 350.5,-112.5 291.5,-112.5"/>
<text text-anchor="middle" x="321" y="-119.5" font-family="Helvetica,sans-Serif" font-size="10.00">Label.hpp</text>
</a>
</g>
</g>
<!-- Node1&#45;&gt;Node4 -->
<g id="edge3" class="edge"><title>Node1&#45;&gt;Node4</title>
<path fill="none" stroke="midnightblue" d="M394.414,-163.453C376.322,-153.483 352.265,-140.228 336.706,-131.655"/>
<polygon fill="midnightblue" stroke="midnightblue" points="392.807,-166.563 403.255,-168.324 396.185,-160.432 392.807,-166.563"/>
</g>
<!-- Node4&#45;&gt;Node2 -->
<g id="edge4" class="edge"><title>Node4&#45;&gt;Node2</title>
<path fill="none" stroke="midnightblue" d="M335.73,-104.981C343.571,-96.418 353.353,-85.6737 362,-76 379.805,-56.0815 400.407,-32.4373 411.309,-19.8782"/>
<polygon fill="midnightblue" stroke="midnightblue" points="333.09,-102.682 328.909,-112.417 338.248,-107.414 333.09,-102.682"/>
</g>
<!-- Node5 -->
<g id="node5" class="node"><title>Node5</title>
<g id="a_node5"><a xlink:href="_button_8hpp.html" target="_top" xlink:title="Classe Button. ">
<polygon fill="white" stroke="black" points="289,-56.5 289,-75.5 353,-75.5 353,-56.5 289,-56.5"/>
<text text-anchor="middle" x="321" y="-63.5" font-family="Helvetica,sans-Serif" font-size="10.00">Button.hpp</text>
</a>
</g>
</g>
<!-- Node4&#45;&gt;Node5 -->
<g id="edge5" class="edge"><title>Node4&#45;&gt;Node5</title>
<path fill="none" stroke="midnightblue" d="M321,-101.805C321,-92.9102 321,-82.7798 321,-75.7511"/>
<polygon fill="midnightblue" stroke="midnightblue" points="317.5,-102.083 321,-112.083 324.5,-102.083 317.5,-102.083"/>
</g>
<!-- Node9 -->
<g id="node9" class="node"><title>Node9</title>
<g id="a_node9"><a xlink:href="_line_edit_8hpp_source.html" target="_top" xlink:title="LineEdit.hpp">
<polygon fill="white" stroke="black" points="122.5,-56.5 122.5,-75.5 193.5,-75.5 193.5,-56.5 122.5,-56.5"/>
<text text-anchor="middle" x="158" y="-63.5" font-family="Helvetica,sans-Serif" font-size="10.00">LineEdit.hpp</text>
</a>
</g>
</g>
<!-- Node4&#45;&gt;Node9 -->
<g id="edge10" class="edge"><title>Node4&#45;&gt;Node9</title>
<path fill="none" stroke="midnightblue" d="M285.297,-109.172C254.604,-99.0039 211.081,-84.5852 183.707,-75.5164"/>
<polygon fill="midnightblue" stroke="midnightblue" points="284.579,-112.621 295.172,-112.444 286.78,-105.976 284.579,-112.621"/>
</g>
<!-- Node11 -->
<g id="node11" class="node"><title>Node11</title>
<g id="a_node11"><a xlink:href="_label_8cpp_source.html" target="_top" xlink:title="Label.cpp">
<polygon fill="white" stroke="black" points="211.5,-56.5 211.5,-75.5 270.5,-75.5 270.5,-56.5 211.5,-56.5"/>
<text text-anchor="middle" x="241" y="-63.5" font-family="Helvetica,sans-Serif" font-size="10.00">Label.cpp</text>
</a>
</g>
</g>
<!-- Node4&#45;&gt;Node11 -->
<g id="edge15" class="edge"><title>Node4&#45;&gt;Node11</title>
<path fill="none" stroke="midnightblue" d="M299.699,-106.622C285.085,-96.7574 266.173,-83.9919 253.821,-75.6545"/>
<polygon fill="midnightblue" stroke="midnightblue" points="297.9,-109.63 308.147,-112.324 301.816,-103.828 297.9,-109.63"/>
</g>
<!-- Node5&#45;&gt;Node2 -->
<g id="edge7" class="edge"><title>Node5&#45;&gt;Node2</title>
<path fill="none" stroke="midnightblue" d="M345.586,-51.4526C363.678,-41.4835 387.735,-28.2279 403.294,-19.6545"/>
<polygon fill="midnightblue" stroke="midnightblue" points="343.815,-48.4324 336.745,-56.324 347.193,-54.5633 343.815,-48.4324"/>
</g>
<!-- Node6 -->
<g id="node6" class="node"><title>Node6</title>
<g id="a_node6"><a xlink:href="_main_window_8cpp_source.html" target="_top" xlink:title="MainWindow.cpp">
<polygon fill="white" stroke="black" points="89,-0.5 89,-19.5 181,-19.5 181,-0.5 89,-0.5"/>
<text text-anchor="middle" x="135" y="-7.5" font-family="Helvetica,sans-Serif" font-size="10.00">MainWindow.cpp</text>
</a>
</g>
</g>
<!-- Node5&#45;&gt;Node6 -->
<g id="edge6" class="edge"><title>Node5&#45;&gt;Node6</title>
<path fill="none" stroke="midnightblue" d="M281.622,-53.5677C246.534,-43.381 195.979,-28.7034 164.334,-19.5164"/>
<polygon fill="midnightblue" stroke="midnightblue" points="280.948,-57.0166 291.528,-56.4435 282.9,-50.2942 280.948,-57.0166"/>
</g>
<!-- Node7 -->
<g id="node7" class="node"><title>Node7</title>
<g id="a_node7"><a xlink:href="_button_8cpp_source.html" target="_top" xlink:title="Button.cpp">
<polygon fill="white" stroke="black" points="289,-0.5 289,-19.5 353,-19.5 353,-0.5 289,-0.5"/>
<text text-anchor="middle" x="321" y="-7.5" font-family="Helvetica,sans-Serif" font-size="10.00">Button.cpp</text>
</a>
</g>
</g>
<!-- Node5&#45;&gt;Node7 -->
<g id="edge8" class="edge"><title>Node5&#45;&gt;Node7</title>
<path fill="none" stroke="midnightblue" d="M321,-45.8045C321,-36.9102 321,-26.7798 321,-19.7511"/>
<polygon fill="midnightblue" stroke="midnightblue" points="317.5,-46.083 321,-56.083 324.5,-46.083 317.5,-46.083"/>
</g>
<!-- Node8 -->
<g id="node8" class="node"><title>Node8</title>
<g id="a_node8"><a xlink:href="_spin_box_8cpp_source.html" target="_top" xlink:title="SpinBox.cpp">
<polygon fill="white" stroke="black" points="199,-0.5 199,-19.5 271,-19.5 271,-0.5 199,-0.5"/>
<text text-anchor="middle" x="235" y="-7.5" font-family="Helvetica,sans-Serif" font-size="10.00">SpinBox.cpp</text>
</a>
</g>
</g>
<!-- Node5&#45;&gt;Node8 -->
<g id="edge9" class="edge"><title>Node5&#45;&gt;Node8</title>
<path fill="none" stroke="midnightblue" d="M298.545,-50.9005C282.776,-40.9986 262.186,-28.0705 248.783,-19.6545"/>
<polygon fill="midnightblue" stroke="midnightblue" points="296.852,-53.9704 307.183,-56.324 300.575,-48.0421 296.852,-53.9704"/>
</g>
<!-- Node9&#45;&gt;Node2 -->
<g id="edge12" class="edge"><title>Node9&#45;&gt;Node2</title>
<path fill="none" stroke="midnightblue" d="M203.782,-55.5279C252.931,-45.3592 330.314,-29.3489 377.671,-19.5509"/>
<polygon fill="midnightblue" stroke="midnightblue" points="202.827,-52.1512 193.744,-57.6048 204.245,-59.006 202.827,-52.1512"/>
</g>
<!-- Node9&#45;&gt;Node6 -->
<g id="edge11" class="edge"><title>Node9&#45;&gt;Node6</title>
<path fill="none" stroke="midnightblue" d="M150.201,-46.6897C146.325,-37.589 141.821,-27.0141 138.727,-19.7511"/>
<polygon fill="midnightblue" stroke="midnightblue" points="147.063,-48.2543 154.202,-56.083 153.503,-45.5112 147.063,-48.2543"/>
</g>
<!-- Node9&#45;&gt;Node8 -->
<g id="edge14" class="edge"><title>Node9&#45;&gt;Node8</title>
<path fill="none" stroke="midnightblue" d="M178.901,-50.3422C192.911,-40.5169 210.883,-27.9132 222.659,-19.6545"/>
<polygon fill="midnightblue" stroke="midnightblue" points="176.549,-47.7166 170.371,-56.324 180.568,-53.4477 176.549,-47.7166"/>
</g>
<!-- Node10 -->
<g id="node10" class="node"><title>Node10</title>
<g id="a_node10"><a xlink:href="_line_edit_8cpp_source.html" target="_top" xlink:title="LineEdit.cpp">
<polygon fill="white" stroke="black" points="-0.5,-0.5 -0.5,-19.5 70.5,-19.5 70.5,-0.5 -0.5,-0.5"/>
<text text-anchor="middle" x="35" y="-7.5" font-family="Helvetica,sans-Serif" font-size="10.00">LineEdit.cpp</text>
</a>
</g>
</g>
<!-- Node9&#45;&gt;Node10 -->
<g id="edge13" class="edge"><title>Node9&#45;&gt;Node10</title>
<path fill="none" stroke="midnightblue" d="M129.227,-52.3678C106.193,-42.2553 74.5162,-28.3486 54.3985,-19.5164"/>
<polygon fill="midnightblue" stroke="midnightblue" points="127.947,-55.6283 138.51,-56.4435 130.761,-49.2188 127.947,-55.6283"/>
</g>
</g>
</svg>
