<?xml version="1.0" encoding="UTF-8" standalone="no"?>
<!DOCTYPE svg PUBLIC "-//W3C//DTD SVG 1.1//EN"
 "http://www.w3.org/Graphics/SVG/1.1/DTD/svg11.dtd">
<!-- Generated by graphviz version 2.36.0 (20140111.2315)
 -->
<!-- Title: GraphicsShape.hpp Pages: 1 -->
<!--zoomable 196 -->
<svg id="main" version="1.1" xmlns="http://www.w3.org/2000/svg" xmlns:xlink="http://www.w3.org/1999/xlink" xml:space="preserve" onload="init(evt)">
<style type="text/css"><![CDATA[
.edge:hover path { stroke: red; }
.edge:hover polygon { stroke: red; fill: red; }
]]></style>
<script type="text/javascript"><![CDATA[
var edges = document.getElementsByTagName('g');
if (edges && edges.length) {
  for (var i=0;i<edges.length;i++) {
    if (edges[i].id.substr(0,4)=='edge') {
      edges[i].setAttribute('class','edge');
    }
  }
}
]]></script>
        <defs>
                <circle id="rim" cx="0" cy="0" r="7"/>
                <circle id="rim2" cx="0" cy="0" r="3.5"/>
                <g id="zoomPlus">
                        <use xlink:href="#rim" fill="#404040">
                                <set attributeName="fill" to="#808080" begin="zoomplus.mouseover" end="zoomplus.mouseout"/>
                        </use>
                        <path d="M-4,0h8M0,-4v8" fill="none" stroke="white" stroke-width="1.5" pointer-events="none"/>
                </g>
                <g id="zoomMin">
                        <use xlink:href="#rim" fill="#404040">
                                <set attributeName="fill" to="#808080" begin="zoomminus.mouseover" end="zoomminus.mouseout"/>
                        </use>
                        <path d="M-4,0h8" fill="none" stroke="white" stroke-width="1.5" pointer-events="none"/>
                </g>
                <g id="dirArrow">
                        <path fill="none" stroke="white" stroke-width="1.5" d="M0,-3.0v7 M-2.5,-0.5L0,-3.0L2.5,-0.5"/>
                </g>
               <g id="resetDef">
                       <use xlink:href="#rim2" fill="#404040">
                               <set attributeName="fill" to="#808080" begin="reset.mouseover" end="reset.mouseout"/>
                       </use>
               </g>
        </defs>

<script type="text/javascript">
var viewWidth = 863;
var viewHeight = 196;
var sectionId = 'dynsection-1';
</script>
<script xlink:href="svgpan.js"/>
<svg id="graph" class="graph">
<g id="viewport">
<title>GraphicsShape.hpp</title>
<polygon fill="white" stroke="none" points="-4,4 -4,-192 859,-192 859,4 -4,4"/>
<!-- Node1 -->
<g id="node1" class="node"><title>Node1</title>
<polygon fill="#bfbfbf" stroke="black" points="422,-168.5 422,-187.5 524,-187.5 524,-168.5 422,-168.5"/>
<text text-anchor="middle" x="473" y="-175.5" font-family="Helvetica,sans-Serif" font-size="10.00">GraphicsShape.hpp</text>
</g>
<!-- Node2 -->
<g id="node2" class="node"><title>Node2</title>
<g id="a_node2"><a xlink:href="_graphics_circle_8hpp_source.html" target="_top" xlink:title="GraphicsCircle.hpp">
<polygon fill="white" stroke="black" points="22,-112.5 22,-131.5 122,-131.5 122,-112.5 22,-112.5"/>
<text text-anchor="middle" x="72" y="-119.5" font-family="Helvetica,sans-Serif" font-size="10.00">GraphicsCircle.hpp</text>
</a>
</g>
</g>
<!-- Node1&#45;&gt;Node2 -->
<g id="edge1" class="edge"><title>Node1&#45;&gt;Node2</title>
<path fill="none" stroke="midnightblue" d="M411.477,-168.715C332.147,-158.032 195.685,-139.656 122.259,-129.768"/>
<polygon fill="midnightblue" stroke="midnightblue" points="411.428,-172.24 421.806,-170.106 412.362,-165.303 411.428,-172.24"/>
</g>
<!-- Node4 -->
<g id="node4" class="node"><title>Node4</title>
<g id="a_node4"><a xlink:href="_graphics_ellipse_8hpp_source.html" target="_top" xlink:title="GraphicsEllipse.hpp">
<polygon fill="white" stroke="black" points="182,-112.5 182,-131.5 286,-131.5 286,-112.5 182,-112.5"/>
<text text-anchor="middle" x="234" y="-119.5" font-family="Helvetica,sans-Serif" font-size="10.00">GraphicsEllipse.hpp</text>
</a>
</g>
</g>
<!-- Node1&#45;&gt;Node4 -->
<g id="edge3" class="edge"><title>Node1&#45;&gt;Node4</title>
<path fill="none" stroke="midnightblue" d="M425.276,-166.217C380.115,-156.013 313.227,-140.901 271.693,-131.516"/>
<polygon fill="midnightblue" stroke="midnightblue" points="424.604,-169.654 435.13,-168.444 426.147,-162.826 424.604,-169.654"/>
</g>
<!-- Node6 -->
<g id="node6" class="node"><title>Node6</title>
<g id="a_node6"><a xlink:href="_graphics_line_8hpp_source.html" target="_top" xlink:title="GraphicsLine.hpp">
<polygon fill="white" stroke="black" points="349,-112.5 349,-131.5 441,-131.5 441,-112.5 349,-112.5"/>
<text text-anchor="middle" x="395" y="-119.5" font-family="Helvetica,sans-Serif" font-size="10.00">GraphicsLine.hpp</text>
</a>
</g>
</g>
<!-- Node1&#45;&gt;Node6 -->
<g id="edge5" class="edge"><title>Node1&#45;&gt;Node6</title>
<path fill="none" stroke="midnightblue" d="M452.232,-162.622C437.983,-152.757 419.544,-139.992 407.501,-131.655"/>
<polygon fill="midnightblue" stroke="midnightblue" points="450.254,-165.51 460.468,-168.324 454.238,-159.754 450.254,-165.51"/>
</g>
<!-- Node12 -->
<g id="node12" class="node"><title>Node12</title>
<g id="a_node12"><a xlink:href="_graphics_polygon_8hpp_source.html" target="_top" xlink:title="GraphicsPolygon.hpp">
<polygon fill="white" stroke="black" points="478,-112.5 478,-131.5 588,-131.5 588,-112.5 478,-112.5"/>
<text text-anchor="middle" x="533" y="-119.5" font-family="Helvetica,sans-Serif" font-size="10.00">GraphicsPolygon.hpp</text>
</a>
</g>
</g>
<!-- Node1&#45;&gt;Node12 -->
<g id="edge12" class="edge"><title>Node1&#45;&gt;Node12</title>
<path fill="none" stroke="midnightblue" d="M490.181,-161.537C500.879,-151.909 514.256,-139.869 523.185,-131.834"/>
<polygon fill="midnightblue" stroke="midnightblue" points="487.732,-159.033 482.64,-168.324 492.414,-164.236 487.732,-159.033"/>
</g>
<!-- Node14 -->
<g id="node14" class="node"><title>Node14</title>
<g id="a_node14"><a xlink:href="_graphics_triangle_8hpp.html" target="_top" xlink:title="Classe GraphicsTriangle. ">
<polygon fill="white" stroke="black" points="625.5,-112.5 625.5,-131.5 734.5,-131.5 734.5,-112.5 625.5,-112.5"/>
<text text-anchor="middle" x="680" y="-119.5" font-family="Helvetica,sans-Serif" font-size="10.00">GraphicsTriangle.hpp</text>
</a>
</g>
</g>
<!-- Node1&#45;&gt;Node14 -->
<g id="edge15" class="edge"><title>Node1&#45;&gt;Node14</title>
<path fill="none" stroke="midnightblue" d="M515.822,-165.829C554.906,-155.633 611.835,-140.782 647.354,-131.516"/>
<polygon fill="midnightblue" stroke="midnightblue" points="514.592,-162.533 505.8,-168.444 516.359,-169.306 514.592,-162.533"/>
</g>
<!-- Node16 -->
<g id="node16" class="node"><title>Node16</title>
<g id="a_node16"><a xlink:href="_graphics_shape_8cpp_source.html" target="_top" xlink:title="GraphicsShape.cpp">
<polygon fill="white" stroke="black" points="753,-112.5 753,-131.5 855,-131.5 855,-112.5 753,-112.5"/>
<text text-anchor="middle" x="804" y="-119.5" font-family="Helvetica,sans-Serif" font-size="10.00">GraphicsShape.cpp</text>
</a>
</g>
</g>
<!-- Node1&#45;&gt;Node16 -->
<g id="edge18" class="edge"><title>Node1&#45;&gt;Node16</title>
<path fill="none" stroke="midnightblue" d="M534.532,-166.962C597.414,-156.703 693.948,-140.954 752.796,-131.353"/>
<polygon fill="midnightblue" stroke="midnightblue" points="533.662,-163.557 524.356,-168.622 534.789,-170.466 533.662,-163.557"/>
</g>
<!-- Node3 -->
<g id="node3" class="node"><title>Node3</title>
<g id="a_node3"><a xlink:href="_graphics_circle_8cpp_source.html" target="_top" xlink:title="GraphicsCircle.cpp">
<polygon fill="white" stroke="black" points="0,-56.5 0,-75.5 100,-75.5 100,-56.5 0,-56.5"/>
<text text-anchor="middle" x="50" y="-63.5" font-family="Helvetica,sans-Serif" font-size="10.00">GraphicsCircle.cpp</text>
</a>
</g>
</g>
<!-- Node2&#45;&gt;Node3 -->
<g id="edge2" class="edge"><title>Node2&#45;&gt;Node3</title>
<path fill="none" stroke="midnightblue" d="M64.5402,-102.69C60.8326,-93.589 56.5243,-83.0141 53.5653,-75.7511"/>
<polygon fill="midnightblue" stroke="midnightblue" points="61.3528,-104.143 68.3671,-112.083 67.8354,-101.502 61.3528,-104.143"/>
</g>
<!-- Node5 -->
<g id="node5" class="node"><title>Node5</title>
<g id="a_node5"><a xlink:href="_graphics_ellipse_8cpp_source.html" target="_top" xlink:title="GraphicsEllipse.cpp">
<polygon fill="white" stroke="black" points="118,-56.5 118,-75.5 222,-75.5 222,-56.5 118,-56.5"/>
<text text-anchor="middle" x="170" y="-63.5" font-family="Helvetica,sans-Serif" font-size="10.00">GraphicsEllipse.cpp</text>
</a>
</g>
</g>
<!-- Node4&#45;&gt;Node5 -->
<g id="edge4" class="edge"><title>Node4&#45;&gt;Node5</title>
<path fill="none" stroke="midnightblue" d="M216.009,-105.82C204.542,-96.1452 190.087,-83.9481 180.47,-75.8339"/>
<polygon fill="midnightblue" stroke="midnightblue" points="213.817,-108.55 223.717,-112.324 218.331,-103.2 213.817,-108.55"/>
</g>
<!-- Node7 -->
<g id="node7" class="node"><title>Node7</title>
<g id="a_node7"><a xlink:href="_tools_window_8cpp_source.html" target="_top" xlink:title="ToolsWindow.cpp">
<polygon fill="white" stroke="black" points="485.5,-0.5 485.5,-19.5 580.5,-19.5 580.5,-0.5 485.5,-0.5"/>
<text text-anchor="middle" x="533" y="-7.5" font-family="Helvetica,sans-Serif" font-size="10.00">ToolsWindow.cpp</text>
</a>
</g>
</g>
<!-- Node6&#45;&gt;Node7 -->
<g id="edge6" class="edge"><title>Node6&#45;&gt;Node7</title>
<path fill="none" stroke="midnightblue" d="M412.05,-105.082C426.766,-91.5751 448.781,-71.9127 469,-56 486.078,-42.5594 506.808,-28.3414 519.955,-19.568"/>
<polygon fill="midnightblue" stroke="midnightblue" points="409.265,-102.89 404.298,-112.248 414.017,-108.03 409.265,-102.89"/>
</g>
<!-- Node8 -->
<g id="node8" class="node"><title>Node8</title>
<g id="a_node8"><a xlink:href="_graphics_line_8cpp_source.html" target="_top" xlink:title="GraphicsLine.cpp">
<polygon fill="white" stroke="black" points="330,-56.5 330,-75.5 422,-75.5 422,-56.5 330,-56.5"/>
<text text-anchor="middle" x="376" y="-63.5" font-family="Helvetica,sans-Serif" font-size="10.00">GraphicsLine.cpp</text>
</a>
</g>
</g>
<!-- Node6&#45;&gt;Node8 -->
<g id="edge7" class="edge"><title>Node6&#45;&gt;Node8</title>
<path fill="none" stroke="midnightblue" d="M388.454,-102.396C385.276,-93.362 381.607,-82.936 379.079,-75.7511"/>
<polygon fill="midnightblue" stroke="midnightblue" points="385.242,-103.812 391.863,-112.083 391.845,-101.488 385.242,-103.812"/>
</g>
<!-- Node9 -->
<g id="node9" class="node"><title>Node9</title>
<g id="a_node9"><a xlink:href="_line_edit_8hpp_source.html" target="_top" xlink:title="LineEdit.hpp">
<polygon fill="white" stroke="black" points="240.5,-56.5 240.5,-75.5 311.5,-75.5 311.5,-56.5 240.5,-56.5"/>
<text text-anchor="middle" x="276" y="-63.5" font-family="Helvetica,sans-Serif" font-size="10.00">LineEdit.hpp</text>
</a>
</g>
</g>
<!-- Node6&#45;&gt;Node9 -->
<g id="edge8" class="edge"><title>Node6&#45;&gt;Node9</title>
<path fill="none" stroke="midnightblue" d="M366.863,-108.232C344.604,-98.1312 314.144,-84.3091 294.768,-75.5164"/>
<polygon fill="midnightblue" stroke="midnightblue" points="365.591,-111.498 376.144,-112.444 368.484,-105.124 365.591,-111.498"/>
</g>
<!-- Node9&#45;&gt;Node7 -->
<g id="edge10" class="edge"><title>Node9&#45;&gt;Node7</title>
<path fill="none" stroke="midnightblue" d="M321.644,-55.4094C370.131,-45.2216 446.056,-29.2683 492.49,-19.5118"/>
<polygon fill="midnightblue" stroke="midnightblue" points="320.801,-52.01 311.735,-57.4915 322.241,-58.8604 320.801,-52.01"/>
</g>
<!-- Node10 -->
<g id="node10" class="node"><title>Node10</title>
<g id="a_node10"><a xlink:href="_main_window_8cpp_source.html" target="_top" xlink:title="MainWindow.cpp">
<polygon fill="white" stroke="black" points="166,-0.5 166,-19.5 258,-19.5 258,-0.5 166,-0.5"/>
<text text-anchor="middle" x="212" y="-7.5" font-family="Helvetica,sans-Serif" font-size="10.00">MainWindow.cpp</text>
</a>
</g>
</g>
<!-- Node9&#45;&gt;Node10 -->
<g id="edge9" class="edge"><title>Node9&#45;&gt;Node10</title>
<path fill="none" stroke="midnightblue" d="M258.009,-49.8197C246.542,-40.1452 232.087,-27.9481 222.47,-19.8339"/>
<polygon fill="midnightblue" stroke="midnightblue" points="255.817,-52.5502 265.717,-56.324 260.331,-47.2002 255.817,-52.5502"/>
</g>
<!-- Node11 -->
<g id="node11" class="node"><title>Node11</title>
<g id="a_node11"><a xlink:href="_line_edit_8cpp_source.html" target="_top" xlink:title="LineEdit.cpp">
<polygon fill="white" stroke="black" points="276.5,-0.5 276.5,-19.5 347.5,-19.5 347.5,-0.5 276.5,-0.5"/>
<text text-anchor="middle" x="312" y="-7.5" font-family="Helvetica,sans-Serif" font-size="10.00">LineEdit.cpp</text>
</a>
</g>
</g>
<!-- Node9&#45;&gt;Node11 -->
<g id="edge11" class="edge"><title>Node9&#45;&gt;Node11</title>
<path fill="none" stroke="midnightblue" d="M287.623,-47.5656C293.817,-38.2747 301.168,-27.2484 306.166,-19.7511"/>
<polygon fill="midnightblue" stroke="midnightblue" points="284.58,-45.821 281.945,-56.083 290.404,-49.7039 284.58,-45.821"/>
</g>
<!-- Node12&#45;&gt;Node7 -->
<g id="edge13" class="edge"><title>Node12&#45;&gt;Node7</title>
<path fill="none" stroke="midnightblue" d="M563.553,-107.559C576.329,-100.217 589.847,-89.7738 597,-76 609.554,-51.8263 576.348,-30.794 553.205,-19.5942"/>
<polygon fill="midnightblue" stroke="midnightblue" points="561.683,-104.588 554.483,-112.36 564.958,-110.775 561.683,-104.588"/>
</g>
<!-- Node13 -->
<g id="node13" class="node"><title>Node13</title>
<g id="a_node13"><a xlink:href="_graphics_polygon_8cpp_source.html" target="_top" xlink:title="GraphicsPolygon.cpp">
<polygon fill="white" stroke="black" points="478,-56.5 478,-75.5 588,-75.5 588,-56.5 478,-56.5"/>
<text text-anchor="middle" x="533" y="-63.5" font-family="Helvetica,sans-Serif" font-size="10.00">GraphicsPolygon.cpp</text>
</a>
</g>
</g>
<!-- Node12&#45;&gt;Node13 -->
<g id="edge14" class="edge"><title>Node12&#45;&gt;Node13</title>
<path fill="none" stroke="midnightblue" d="M533,-101.805C533,-92.9102 533,-82.7798 533,-75.7511"/>
<polygon fill="midnightblue" stroke="midnightblue" points="529.5,-102.083 533,-112.083 536.5,-102.083 529.5,-102.083"/>
</g>
<!-- Node14&#45;&gt;Node7 -->
<g id="edge16" class="edge"><title>Node14&#45;&gt;Node7</title>
<path fill="none" stroke="midnightblue" d="M716.2,-108.934C745.768,-97.1494 779.964,-77.8373 762,-56 739.477,-28.6208 640.736,-17.6456 580.505,-13.4413"/>
<polygon fill="midnightblue" stroke="midnightblue" points="714.941,-105.668 706.834,-112.489 717.426,-112.212 714.941,-105.668"/>
</g>
<!-- Node15 -->
<g id="node15" class="node"><title>Node15</title>
<g id="a_node15"><a xlink:href="_graphics_triangle_8cpp_source.html" target="_top" xlink:title="GraphicsTriangle.cpp">
<polygon fill="white" stroke="black" points="644.5,-56.5 644.5,-75.5 753.5,-75.5 753.5,-56.5 644.5,-56.5"/>
<text text-anchor="middle" x="699" y="-63.5" font-family="Helvetica,sans-Serif" font-size="10.00">GraphicsTriangle.cpp</text>
</a>
</g>
</g>
<!-- Node14&#45;&gt;Node15 -->
<g id="edge17" class="edge"><title>Node14&#45;&gt;Node15</title>
<path fill="none" stroke="midnightblue" d="M686.546,-102.396C689.724,-93.362 693.393,-82.936 695.921,-75.7511"/>
<polygon fill="midnightblue" stroke="midnightblue" points="683.155,-101.488 683.137,-112.083 689.758,-103.812 683.155,-101.488"/>
</g>
</g>
</svg>
        <g id="navigator" transform="translate(0 0)" fill="#404254">
                <rect fill="#f2f5e9" fill-opacity="0.5" stroke="#606060" stroke-width=".5" x="0" y="0" width="60" height="60"/>
                <use id="zoomplus" xlink:href="#zoomPlus" x="17" y="9" onmousedown="handleZoom(evt,'in')"/>
                <use id="zoomminus" xlink:href="#zoomMin" x="42" y="9" onmousedown="handleZoom(evt,'out')"/>
                <use id="reset" xlink:href="#resetDef" x="30" y="36" onmousedown="handleReset()"/>
                <g id="arrowUp" xlink:href="#dirArrow" transform="translate(30 24)" onmousedown="handlePan(0,-1)">
                  <use xlink:href="#rim" fill="#404040">
                        <set attributeName="fill" to="#808080" begin="arrowUp.mouseover" end="arrowUp.mouseout"/>
                  </use>
                  <path fill="none" stroke="white" stroke-width="1.5" d="M0,-3.0v7 M-2.5,-0.5L0,-3.0L2.5,-0.5"/>
                </g>
                <g id="arrowRight" xlink:href="#dirArrow" transform="rotate(90) translate(36 -43)" onmousedown="handlePan(1,0)">
                  <use xlink:href="#rim" fill="#404040">
                        <set attributeName="fill" to="#808080" begin="arrowRight.mouseover" end="arrowRight.mouseout"/>
                  </use>
                  <path fill="none" stroke="white" stroke-width="1.5" d="M0,-3.0v7 M-2.5,-0.5L0,-3.0L2.5,-0.5"/>
                </g>
                <g id="arrowDown" xlink:href="#dirArrow" transform="rotate(180) translate(-30 -48)" onmousedown="handlePan(0,1)">
                  <use xlink:href="#rim" fill="#404040">
                        <set attributeName="fill" to="#808080" begin="arrowDown.mouseover" end="arrowDown.mouseout"/>
                  </use>
                  <path fill="none" stroke="white" stroke-width="1.5" d="M0,-3.0v7 M-2.5,-0.5L0,-3.0L2.5,-0.5"/>
                </g>
                <g id="arrowLeft" xlink:href="#dirArrow" transform="rotate(270) translate(-36 17)" onmousedown="handlePan(-1,0)">
                  <use xlink:href="#rim" fill="#404040">
                        <set attributeName="fill" to="#808080" begin="arrowLeft.mouseover" end="arrowLeft.mouseout"/>
                  </use>
                  <path fill="none" stroke="white" stroke-width="1.5" d="M0,-3.0v7 M-2.5,-0.5L0,-3.0L2.5,-0.5"/>
                </g>
        </g>
        <svg viewBox="0 0 15 15" width="100%" height="30px" preserveAspectRatio="xMaxYMin meet">
         <g id="arrow_out" transform="scale(0.3 0.3)">
          <a xlink:href="_graphics_shape_8hpp__dep__incl_org.svg" target="_base">
           <rect id="button" ry="5" rx="5" y="6" x="6" height="38" width="38"
                fill="#f2f5e9" fill-opacity="0.5" stroke="#606060" stroke-width="1.0"/>
           <path id="arrow"
             d="M 11.500037,31.436501 C 11.940474,20.09759 22.043105,11.32322 32.158766,21.979434 L 37.068811,17.246167 C 37.068811,17.246167 37.088388,32 37.088388,32 L 22.160133,31.978069 C 22.160133,31.978069 26.997745,27.140456 26.997745,27.140456 C 18.528582,18.264221 13.291696,25.230495 11.500037,31.436501 z"
             style="fill:#404040;"/>
          </a>
         </g>
        </svg>
</svg>
