<?xml version="1.0" encoding="UTF-8" standalone="no"?>
<!DOCTYPE svg PUBLIC "-//W3C//DTD SVG 1.1//EN"
 "http://www.w3.org/Graphics/SVG/1.1/DTD/svg11.dtd">
<!-- Generated by graphviz version 2.36.0 (20140111.2315)
 -->
<!-- Title: GraphicsItem.cpp Pages: 1 -->
<!--zoomable 252 -->
<svg id="main" version="1.1" xmlns="http://www.w3.org/2000/svg" xmlns:xlink="http://www.w3.org/1999/xlink" xml:space="preserve" onload="init(evt)">
<style type="text/css"><![CDATA[
.edge:hover path { stroke: red; }
.edge:hover polygon { stroke: red; fill: red; }
]]></style>
<script type="text/javascript"><![CDATA[
var edges = document.getElementsByTagName('g');
if (edges && edges.length) {
  for (var i=0;i<edges.length;i++) {
    if (edges[i].id.substr(0,4)=='edge') {
      edges[i].setAttribute('class','edge');
    }
  }
}
]]></script>
        <defs>
                <circle id="rim" cx="0" cy="0" r="7"/>
                <circle id="rim2" cx="0" cy="0" r="3.5"/>
                <g id="zoomPlus">
                        <use xlink:href="#rim" fill="#404040">
                                <set attributeName="fill" to="#808080" begin="zoomplus.mouseover" end="zoomplus.mouseout"/>
                        </use>
                        <path d="M-4,0h8M0,-4v8" fill="none" stroke="white" stroke-width="1.5" pointer-events="none"/>
                </g>
                <g id="zoomMin">
                        <use xlink:href="#rim" fill="#404040">
                                <set attributeName="fill" to="#808080" begin="zoomminus.mouseover" end="zoomminus.mouseout"/>
                        </use>
                        <path d="M-4,0h8" fill="none" stroke="white" stroke-width="1.5" pointer-events="none"/>
                </g>
                <g id="dirArrow">
                        <path fill="none" stroke="white" stroke-width="1.5" d="M0,-3.0v7 M-2.5,-0.5L0,-3.0L2.5,-0.5"/>
                </g>
               <g id="resetDef">
                       <use xlink:href="#rim2" fill="#404040">
                               <set attributeName="fill" to="#808080" begin="reset.mouseover" end="reset.mouseout"/>
                       </use>
               </g>
        </defs>

<script type="text/javascript">
var viewWidth = 651;
var viewHeight = 252;
var sectionId = 'dynsection-0';
</script>
<script xlink:href="svgpan.js"/>
<svg id="graph" class="graph">
<g id="viewport">
<title>GraphicsItem.cpp</title>
<polygon fill="white" stroke="none" points="-4,4 -4,-248 647,-248 647,4 -4,4"/>
<!-- Node1 -->
<g id="node1" class="node"><title>Node1</title>
<polygon fill="#bfbfbf" stroke="black" points="128,-224.5 128,-243.5 222,-243.5 222,-224.5 128,-224.5"/>
<text text-anchor="middle" x="175" y="-231.5" font-family="Helvetica,sans-Serif" font-size="10.00">GraphicsItem.cpp</text>
</g>
<!-- Node2 -->
<g id="node2" class="node"><title>Node2</title>
<g id="a_node2"><a xlink:href="_graphics_item_8hpp.html" target="_top" xlink:title="Classe GraphicsItem. ">
<polygon fill="white" stroke="black" points="278.5,-168.5 278.5,-187.5 415.5,-187.5 415.5,-168.5 278.5,-168.5"/>
<text text-anchor="middle" x="347" y="-175.5" font-family="Helvetica,sans-Serif" font-size="10.00">../include/GraphicsItem.hpp</text>
</a>
</g>
</g>
<!-- Node1&#45;&gt;Node2 -->
<g id="edge1" class="edge"><title>Node1&#45;&gt;Node2</title>
<path fill="none" stroke="midnightblue" d="M202.254,-224.444C231.441,-215.28 277.921,-200.688 310.309,-190.519"/>
<polygon fill="midnightblue" stroke="midnightblue" points="311.381,-193.851 319.874,-187.516 309.284,-187.173 311.381,-193.851"/>
</g>
<!-- Node14 -->
<g id="node14" class="node"><title>Node14</title>
<polygon fill="white" stroke="#bfbfbf" points="0,-0.5 0,-19.5 54,-19.5 54,-0.5 0,-0.5"/>
<text text-anchor="middle" x="27" y="-7.5" font-family="Helvetica,sans-Serif" font-size="10.00">iostream</text>
</g>
<!-- Node1&#45;&gt;Node14 -->
<g id="edge28" class="edge"><title>Node1&#45;&gt;Node14</title>
<path fill="none" stroke="midnightblue" d="M161.756,-224.209C149.983,-215.909 132.848,-202.588 121,-188 79.0379,-136.334 47.3,-63.0488 33.9373,-29.3038"/>
<polygon fill="midnightblue" stroke="midnightblue" points="37.1356,-27.8709 30.2547,-19.8146 30.6098,-30.4035 37.1356,-27.8709"/>
</g>
<!-- Node20 -->
<g id="node20" class="node"><title>Node20</title>
<g id="a_node20"><a xlink:href="_mouse_event_8hpp.html" target="_top" xlink:title="Classe MouseEvent. ">
<polygon fill="white" stroke="black" points="130,-168.5 130,-187.5 220,-187.5 220,-168.5 130,-168.5"/>
<text text-anchor="middle" x="175" y="-175.5" font-family="Helvetica,sans-Serif" font-size="10.00">MouseEvent.hpp</text>
</a>
</g>
</g>
<!-- Node1&#45;&gt;Node20 -->
<g id="edge25" class="edge"><title>Node1&#45;&gt;Node20</title>
<path fill="none" stroke="midnightblue" d="M175,-224.083C175,-217.006 175,-206.861 175,-197.986"/>
<polygon fill="midnightblue" stroke="midnightblue" points="178.5,-197.751 175,-187.751 171.5,-197.751 178.5,-197.751"/>
</g>
<!-- Node3 -->
<g id="node3" class="node"><title>Node3</title>
<polygon fill="white" stroke="#bfbfbf" points="599,-0.5 599,-19.5 643,-19.5 643,-0.5 599,-0.5"/>
<text text-anchor="middle" x="621" y="-7.5" font-family="Helvetica,sans-Serif" font-size="10.00">vector</text>
</g>
<!-- Node2&#45;&gt;Node3 -->
<g id="edge2" class="edge"><title>Node2&#45;&gt;Node3</title>
<path fill="none" stroke="midnightblue" d="M415.155,-168.446C448.038,-162.055 486.98,-151.003 518,-132 560.97,-105.677 595.059,-55.3139 611.064,-28.6195"/>
<polygon fill="midnightblue" stroke="midnightblue" points="614.282,-30.0491 616.293,-19.647 608.234,-26.5244 614.282,-30.0491"/>
</g>
<!-- Node4 -->
<g id="node4" class="node"><title>Node4</title>
<polygon fill="white" stroke="#bfbfbf" points="332,-112.5 332,-131.5 362,-131.5 362,-112.5 332,-112.5"/>
<text text-anchor="middle" x="347" y="-119.5" font-family="Helvetica,sans-Serif" font-size="10.00">set</text>
</g>
<!-- Node2&#45;&gt;Node4 -->
<g id="edge3" class="edge"><title>Node2&#45;&gt;Node4</title>
<path fill="none" stroke="midnightblue" d="M347,-168.083C347,-161.006 347,-150.861 347,-141.986"/>
<polygon fill="midnightblue" stroke="midnightblue" points="350.5,-141.751 347,-131.751 343.5,-141.751 350.5,-141.751"/>
</g>
<!-- Node5 -->
<g id="node5" class="node"><title>Node5</title>
<polygon fill="white" stroke="#bfbfbf" points="380,-112.5 380,-131.5 432,-131.5 432,-112.5 380,-112.5"/>
<text text-anchor="middle" x="406" y="-119.5" font-family="Helvetica,sans-Serif" font-size="10.00">memory</text>
</g>
<!-- Node2&#45;&gt;Node5 -->
<g id="edge4" class="edge"><title>Node2&#45;&gt;Node5</title>
<path fill="none" stroke="midnightblue" d="M356.479,-168.324C365.201,-160.341 378.343,-148.313 388.898,-138.653"/>
<polygon fill="midnightblue" stroke="midnightblue" points="391.334,-141.167 396.348,-131.834 386.608,-136.004 391.334,-141.167"/>
</g>
<!-- Node6 -->
<g id="node6" class="node"><title>Node6</title>
<g id="a_node6"><a xlink:href="_color_8hpp.html" target="_top" xlink:title="Classe Color. ">
<polygon fill="white" stroke="black" points="450.5,-112.5 450.5,-131.5 509.5,-131.5 509.5,-112.5 450.5,-112.5"/>
<text text-anchor="middle" x="480" y="-119.5" font-family="Helvetica,sans-Serif" font-size="10.00">Color.hpp</text>
</a>
</g>
</g>
<!-- Node2&#45;&gt;Node6 -->
<g id="edge5" class="edge"><title>Node2&#45;&gt;Node6</title>
<path fill="none" stroke="midnightblue" d="M368.074,-168.444C390.06,-159.517 424.734,-145.439 449.664,-135.317"/>
<polygon fill="midnightblue" stroke="midnightblue" points="451.076,-138.521 459.024,-131.516 448.442,-132.035 451.076,-138.521"/>
</g>
<!-- Node10 -->
<g id="node10" class="node"><title>Node10</title>
<g id="a_node10"><a xlink:href="_canvas_8hpp.html" target="_top" xlink:title="Canvas.hpp">
<polygon fill="white" stroke="black" points="244.5,-112.5 244.5,-131.5 313.5,-131.5 313.5,-112.5 244.5,-112.5"/>
<text text-anchor="middle" x="279" y="-119.5" font-family="Helvetica,sans-Serif" font-size="10.00">Canvas.hpp</text>
</a>
</g>
</g>
<!-- Node2&#45;&gt;Node10 -->
<g id="edge9" class="edge"><title>Node2&#45;&gt;Node10</title>
<path fill="none" stroke="midnightblue" d="M336.075,-168.324C325.825,-160.185 310.279,-147.839 297.999,-138.087"/>
<polygon fill="midnightblue" stroke="midnightblue" points="300.132,-135.312 290.124,-131.834 295.779,-140.794 300.132,-135.312"/>
</g>
<!-- Node19 -->
<g id="node19" class="node"><title>Node19</title>
<g id="a_node19"><a xlink:href="_event_8hpp.html" target="_top" xlink:title="Classe Event. ">
<polygon fill="white" stroke="black" points="165.5,-112.5 165.5,-131.5 226.5,-131.5 226.5,-112.5 165.5,-112.5"/>
<text text-anchor="middle" x="196" y="-119.5" font-family="Helvetica,sans-Serif" font-size="10.00">Event.hpp</text>
</a>
</g>
</g>
<!-- Node2&#45;&gt;Node19 -->
<g id="edge22" class="edge"><title>Node2&#45;&gt;Node19</title>
<path fill="none" stroke="midnightblue" d="M323.074,-168.444C297.781,-159.399 257.698,-145.064 229.32,-134.916"/>
<polygon fill="midnightblue" stroke="midnightblue" points="230.409,-131.588 219.814,-131.516 228.052,-138.179 230.409,-131.588"/>
</g>
<!-- Node7 -->
<g id="node7" class="node"><title>Node7</title>
<polygon fill="white" stroke="#bfbfbf" points="454,-56.5 454,-75.5 500,-75.5 500,-56.5 454,-56.5"/>
<text text-anchor="middle" x="477" y="-63.5" font-family="Helvetica,sans-Serif" font-size="10.00">cstdint</text>
</g>
<!-- Node6&#45;&gt;Node7 -->
<g id="edge6" class="edge"><title>Node6&#45;&gt;Node7</title>
<path fill="none" stroke="midnightblue" d="M479.505,-112.083C479.111,-105.006 478.548,-94.8611 478.055,-85.9865"/>
<polygon fill="midnightblue" stroke="midnightblue" points="481.536,-85.5415 477.486,-75.7511 474.546,-85.9299 481.536,-85.5415"/>
</g>
<!-- Node8 -->
<g id="node8" class="node"><title>Node8</title>
<polygon fill="white" stroke="#bfbfbf" points="518.5,-56.5 518.5,-75.5 559.5,-75.5 559.5,-56.5 518.5,-56.5"/>
<text text-anchor="middle" x="539" y="-63.5" font-family="Helvetica,sans-Serif" font-size="10.00">string</text>
</g>
<!-- Node6&#45;&gt;Node8 -->
<g id="edge7" class="edge"><title>Node6&#45;&gt;Node8</title>
<path fill="none" stroke="midnightblue" d="M489.479,-112.324C498.201,-104.341 511.343,-92.3128 521.898,-82.6529"/>
<polygon fill="midnightblue" stroke="midnightblue" points="524.334,-85.1674 529.348,-75.8339 519.608,-80.0036 524.334,-85.1674"/>
</g>
<!-- Node9 -->
<g id="node9" class="node"><title>Node9</title>
<polygon fill="white" stroke="#bfbfbf" points="326,-56.5 326,-75.5 434,-75.5 434,-56.5 326,-56.5"/>
<text text-anchor="middle" x="380" y="-63.5" font-family="Helvetica,sans-Serif" font-size="10.00">ez&#45;lib/ez&#45;draw++.hpp</text>
</g>
<!-- Node6&#45;&gt;Node9 -->
<g id="edge8" class="edge"><title>Node6&#45;&gt;Node9</title>
<path fill="none" stroke="midnightblue" d="M463.933,-112.324C448.042,-103.743 423.493,-90.486 405.042,-80.5224"/>
<polygon fill="midnightblue" stroke="midnightblue" points="406.489,-77.3264 396.027,-75.6545 403.163,-83.4857 406.489,-77.3264"/>
</g>
<!-- Node10&#45;&gt;Node9 -->
<g id="edge10" class="edge"><title>Node10&#45;&gt;Node9</title>
<path fill="none" stroke="midnightblue" d="M295.227,-112.324C311.351,-103.703 336.3,-90.3643 354.964,-80.3855"/>
<polygon fill="midnightblue" stroke="midnightblue" points="356.644,-83.456 363.813,-75.6545 353.344,-77.283 356.644,-83.456"/>
</g>
<!-- Node11 -->
<g id="node11" class="node"><title>Node11</title>
<g id="a_node11"><a xlink:href="_point_8hpp.html" target="_top" xlink:title="Classe point. ">
<polygon fill="white" stroke="black" points="250,-56.5 250,-75.5 308,-75.5 308,-56.5 250,-56.5"/>
<text text-anchor="middle" x="279" y="-63.5" font-family="Helvetica,sans-Serif" font-size="10.00">Point.hpp</text>
</a>
</g>
</g>
<!-- Node10&#45;&gt;Node11 -->
<g id="edge11" class="edge"><title>Node10&#45;&gt;Node11</title>
<path fill="none" stroke="midnightblue" d="M279,-112.083C279,-105.006 279,-94.8611 279,-85.9865"/>
<polygon fill="midnightblue" stroke="midnightblue" points="282.5,-85.751 279,-75.7511 275.5,-85.7511 282.5,-85.751"/>
</g>
<!-- Node18 -->
<g id="node18" class="node"><title>Node18</title>
<g id="a_node18"><a xlink:href="_font_8hpp.html" target="_top" xlink:title="Font.hpp">
<polygon fill="white" stroke="black" points="169.5,-56.5 169.5,-75.5 224.5,-75.5 224.5,-56.5 169.5,-56.5"/>
<text text-anchor="middle" x="197" y="-63.5" font-family="Helvetica,sans-Serif" font-size="10.00">Font.hpp</text>
</a>
</g>
</g>
<!-- Node10&#45;&gt;Node18 -->
<g id="edge20" class="edge"><title>Node10&#45;&gt;Node18</title>
<path fill="none" stroke="midnightblue" d="M265.825,-112.324C253.153,-103.979 233.767,-91.2122 218.794,-81.3524"/>
<polygon fill="midnightblue" stroke="midnightblue" points="220.419,-78.2313 210.142,-75.6545 216.569,-84.0776 220.419,-78.2313"/>
</g>
<!-- Node11&#45;&gt;Node3 -->
<g id="edge16" class="edge"><title>Node11&#45;&gt;Node3</title>
<path fill="none" stroke="midnightblue" d="M308.396,-57.7267C311.295,-57.1031 314.199,-56.5149 317,-56 434.192,-34.4524 468.431,-44.5621 588.78,-19.9722"/>
<polygon fill="midnightblue" stroke="midnightblue" points="589.674,-23.3613 598.751,-17.8968 588.247,-16.5082 589.674,-23.3613"/>
</g>
<!-- Node12 -->
<g id="node12" class="node"><title>Node12</title>
<polygon fill="white" stroke="#bfbfbf" points="72.5,-0.5 72.5,-19.5 173.5,-19.5 173.5,-0.5 72.5,-0.5"/>
<text text-anchor="middle" x="123" y="-7.5" font-family="Helvetica,sans-Serif" font-size="10.00">boost/uuid/uuid.hpp</text>
</g>
<!-- Node11&#45;&gt;Node12 -->
<g id="edge12" class="edge"><title>Node11&#45;&gt;Node12</title>
<path fill="none" stroke="midnightblue" d="M254.281,-56.4435C228.152,-47.3986 186.741,-33.064 157.424,-22.9158"/>
<polygon fill="midnightblue" stroke="midnightblue" points="158.198,-19.4801 147.603,-19.5164 155.908,-26.0951 158.198,-19.4801"/>
</g>
<!-- Node13 -->
<g id="node13" class="node"><title>Node13</title>
<polygon fill="white" stroke="#bfbfbf" points="192,-0.5 192,-19.5 344,-19.5 344,-0.5 192,-0.5"/>
<text text-anchor="middle" x="268" y="-7.5" font-family="Helvetica,sans-Serif" font-size="10.00">boost/uuid/uuid_generators.hpp</text>
</g>
<!-- Node11&#45;&gt;Node13 -->
<g id="edge13" class="edge"><title>Node11&#45;&gt;Node13</title>
<path fill="none" stroke="midnightblue" d="M277.184,-56.083C275.726,-48.9272 273.629,-38.6353 271.807,-29.6911"/>
<polygon fill="midnightblue" stroke="midnightblue" points="275.208,-28.8512 269.783,-19.7511 268.349,-30.2485 275.208,-28.8512"/>
</g>
<!-- Node11&#45;&gt;Node14 -->
<g id="edge14" class="edge"><title>Node11&#45;&gt;Node14</title>
<path fill="none" stroke="midnightblue" d="M249.922,-59.3222C210.154,-51.4743 136.345,-36.6157 63.8523,-20.1271"/>
<polygon fill="midnightblue" stroke="midnightblue" points="64.6278,-16.7142 54.0992,-17.8968 63.0673,-23.538 64.6278,-16.7142"/>
</g>
<!-- Node15 -->
<g id="node15" class="node"><title>Node15</title>
<polygon fill="white" stroke="#bfbfbf" points="362.5,-0.5 362.5,-19.5 397.5,-19.5 397.5,-0.5 362.5,-0.5"/>
<text text-anchor="middle" x="380" y="-7.5" font-family="Helvetica,sans-Serif" font-size="10.00">map</text>
</g>
<!-- Node11&#45;&gt;Node15 -->
<g id="edge15" class="edge"><title>Node11&#45;&gt;Node15</title>
<path fill="none" stroke="midnightblue" d="M295.227,-56.324C311.351,-47.7034 336.3,-34.3643 354.964,-24.3855"/>
<polygon fill="midnightblue" stroke="midnightblue" points="356.644,-27.456 363.813,-19.6545 353.344,-21.283 356.644,-27.456"/>
</g>
<!-- Node16 -->
<g id="node16" class="node"><title>Node16</title>
<polygon fill="white" stroke="#bfbfbf" points="415.5,-0.5 415.5,-19.5 474.5,-19.5 474.5,-0.5 415.5,-0.5"/>
<text text-anchor="middle" x="445" y="-7.5" font-family="Helvetica,sans-Serif" font-size="10.00">functional</text>
</g>
<!-- Node11&#45;&gt;Node16 -->
<g id="edge17" class="edge"><title>Node11&#45;&gt;Node16</title>
<path fill="none" stroke="midnightblue" d="M305.303,-56.4435C333.351,-47.3196 377.944,-32.8133 409.184,-22.6509"/>
<polygon fill="midnightblue" stroke="midnightblue" points="410.393,-25.9383 418.82,-19.5164 408.228,-19.2816 410.393,-25.9383"/>
</g>
<!-- Node17 -->
<g id="node17" class="node"><title>Node17</title>
<g id="a_node17"><a xlink:href="_group_points_8hpp.html" target="_top" xlink:title="GroupPoints.hpp">
<polygon fill="white" stroke="black" points="492.5,-0.5 492.5,-19.5 581.5,-19.5 581.5,-0.5 492.5,-0.5"/>
<text text-anchor="middle" x="537" y="-7.5" font-family="Helvetica,sans-Serif" font-size="10.00">GroupPoints.hpp</text>
</a>
</g>
</g>
<!-- Node11&#45;&gt;Node17 -->
<g id="edge18" class="edge"><title>Node11&#45;&gt;Node17</title>
<path fill="none" stroke="midnightblue" d="M305.997,-56.4448C306.67,-56.2945 307.338,-56.1461 308,-56 367.23,-42.9315 435.725,-29.1266 482.367,-20.3073"/>
<polygon fill="midnightblue" stroke="midnightblue" points="483.086,-23.7335 492.269,-18.4487 481.795,-16.8537 483.086,-23.7335"/>
</g>
<!-- Node17&#45;&gt;Node11 -->
<g id="edge19" class="edge"><title>Node17&#45;&gt;Node11</title>
<path fill="none" stroke="midnightblue" d="M499.89,-19.5685C457.621,-28.3423 386.911,-42.5606 326,-56 323.42,-56.5692 320.745,-57.1737 318.032,-57.7895"/>
<polygon fill="midnightblue" stroke="midnightblue" points="317.124,-54.4064 308.142,-60.0266 318.668,-61.2339 317.124,-54.4064"/>
</g>
<!-- Node18&#45;&gt;Node14 -->
<g id="edge21" class="edge"><title>Node18&#45;&gt;Node14</title>
<path fill="none" stroke="midnightblue" d="M170.063,-56.4435C141.34,-47.3196 95.6714,-32.8133 63.6788,-22.6509"/>
<polygon fill="midnightblue" stroke="midnightblue" points="64.4013,-19.2081 53.811,-19.5164 62.2821,-25.8797 64.4013,-19.2081"/>
</g>
<!-- Node19&#45;&gt;Node9 -->
<g id="edge24" class="edge"><title>Node19&#45;&gt;Node9</title>
<path fill="none" stroke="midnightblue" d="M225.155,-112.444C256.513,-103.241 306.531,-88.5617 341.197,-78.3879"/>
<polygon fill="midnightblue" stroke="midnightblue" points="342.371,-81.6909 350.981,-75.5164 340.4,-74.9742 342.371,-81.6909"/>
</g>
<!-- Node19&#45;&gt;Node14 -->
<g id="edge23" class="edge"><title>Node19&#45;&gt;Node14</title>
<path fill="none" stroke="midnightblue" d="M182.739,-112.368C153.738,-93.4924 84.4369,-48.385 48.8727,-25.2367"/>
<polygon fill="midnightblue" stroke="midnightblue" points="50.4899,-22.1132 40.1995,-19.5914 46.6713,-27.9799 50.4899,-22.1132"/>
</g>
<!-- Node20&#45;&gt;Node11 -->
<g id="edge27" class="edge"><title>Node20&#45;&gt;Node11</title>
<path fill="none" stroke="midnightblue" d="M168.082,-168.243C158.516,-154.992 143.741,-129.538 156,-112 165.933,-97.7896 207.678,-84.5412 239.81,-76.1511"/>
<polygon fill="midnightblue" stroke="midnightblue" points="241.02,-79.4549 249.852,-73.6027 239.298,-72.67 241.02,-79.4549"/>
</g>
<!-- Node20&#45;&gt;Node19 -->
<g id="edge26" class="edge"><title>Node20&#45;&gt;Node19</title>
<path fill="none" stroke="midnightblue" d="M178.468,-168.083C181.312,-160.77 185.429,-150.181 188.96,-141.103"/>
<polygon fill="midnightblue" stroke="midnightblue" points="192.234,-142.34 192.597,-131.751 185.71,-139.803 192.234,-142.34"/>
</g>
</g>
</svg>
        <g id="navigator" transform="translate(0 0)" fill="#404254">
                <rect fill="#f2f5e9" fill-opacity="0.5" stroke="#606060" stroke-width=".5" x="0" y="0" width="60" height="60"/>
                <use id="zoomplus" xlink:href="#zoomPlus" x="17" y="9" onmousedown="handleZoom(evt,'in')"/>
                <use id="zoomminus" xlink:href="#zoomMin" x="42" y="9" onmousedown="handleZoom(evt,'out')"/>
                <use id="reset" xlink:href="#resetDef" x="30" y="36" onmousedown="handleReset()"/>
                <g id="arrowUp" xlink:href="#dirArrow" transform="translate(30 24)" onmousedown="handlePan(0,-1)">
                  <use xlink:href="#rim" fill="#404040">
                        <set attributeName="fill" to="#808080" begin="arrowUp.mouseover" end="arrowUp.mouseout"/>
                  </use>
                  <path fill="none" stroke="white" stroke-width="1.5" d="M0,-3.0v7 M-2.5,-0.5L0,-3.0L2.5,-0.5"/>
                </g>
                <g id="arrowRight" xlink:href="#dirArrow" transform="rotate(90) translate(36 -43)" onmousedown="handlePan(1,0)">
                  <use xlink:href="#rim" fill="#404040">
                        <set attributeName="fill" to="#808080" begin="arrowRight.mouseover" end="arrowRight.mouseout"/>
                  </use>
                  <path fill="none" stroke="white" stroke-width="1.5" d="M0,-3.0v7 M-2.5,-0.5L0,-3.0L2.5,-0.5"/>
                </g>
                <g id="arrowDown" xlink:href="#dirArrow" transform="rotate(180) translate(-30 -48)" onmousedown="handlePan(0,1)">
                  <use xlink:href="#rim" fill="#404040">
                        <set attributeName="fill" to="#808080" begin="arrowDown.mouseover" end="arrowDown.mouseout"/>
                  </use>
                  <path fill="none" stroke="white" stroke-width="1.5" d="M0,-3.0v7 M-2.5,-0.5L0,-3.0L2.5,-0.5"/>
                </g>
                <g id="arrowLeft" xlink:href="#dirArrow" transform="rotate(270) translate(-36 17)" onmousedown="handlePan(-1,0)">
                  <use xlink:href="#rim" fill="#404040">
                        <set attributeName="fill" to="#808080" begin="arrowLeft.mouseover" end="arrowLeft.mouseout"/>
                  </use>
                  <path fill="none" stroke="white" stroke-width="1.5" d="M0,-3.0v7 M-2.5,-0.5L0,-3.0L2.5,-0.5"/>
                </g>
        </g>
        <svg viewBox="0 0 15 15" width="100%" height="30px" preserveAspectRatio="xMaxYMin meet">
         <g id="arrow_out" transform="scale(0.3 0.3)">
          <a xlink:href="_graphics_item_8cpp__incl_org.svg" target="_base">
           <rect id="button" ry="5" rx="5" y="6" x="6" height="38" width="38"
                fill="#f2f5e9" fill-opacity="0.5" stroke="#606060" stroke-width="1.0"/>
           <path id="arrow"
             d="M 11.500037,31.436501 C 11.940474,20.09759 22.043105,11.32322 32.158766,21.979434 L 37.068811,17.246167 C 37.068811,17.246167 37.088388,32 37.088388,32 L 22.160133,31.978069 C 22.160133,31.978069 26.997745,27.140456 26.997745,27.140456 C 18.528582,18.264221 13.291696,25.230495 11.500037,31.436501 z"
             style="fill:#404040;"/>
          </a>
         </g>
        </svg>
</svg>
