<?xml version="1.0" encoding="UTF-8" standalone="no"?>
<!DOCTYPE svg PUBLIC "-//W3C//DTD SVG 1.1//EN"
 "http://www.w3.org/Graphics/SVG/1.1/DTD/svg11.dtd">
<!-- Generated by graphviz version 2.36.0 (20140111.2315)
 -->
<!-- Title: GraphicsItem.hpp Pages: 1 -->
<!--zoomable 252 -->
<svg id="main" version="1.1" xmlns="http://www.w3.org/2000/svg" xmlns:xlink="http://www.w3.org/1999/xlink" xml:space="preserve" onload="init(evt)">
<style type="text/css"><![CDATA[
.edge:hover path { stroke: red; }
.edge:hover polygon { stroke: red; fill: red; }
]]></style>
<script type="text/javascript"><![CDATA[
var edges = document.getElementsByTagName('g');
if (edges && edges.length) {
  for (var i=0;i<edges.length;i++) {
    if (edges[i].id.substr(0,4)=='edge') {
      edges[i].setAttribute('class','edge');
    }
  }
}
]]></script>
        <defs>
                <circle id="rim" cx="0" cy="0" r="7"/>
                <circle id="rim2" cx="0" cy="0" r="3.5"/>
                <g id="zoomPlus">
                        <use xlink:href="#rim" fill="#404040">
                                <set attributeName="fill" to="#808080" begin="zoomplus.mouseover" end="zoomplus.mouseout"/>
                        </use>
                        <path d="M-4,0h8M0,-4v8" fill="none" stroke="white" stroke-width="1.5" pointer-events="none"/>
                </g>
                <g id="zoomMin">
                        <use xlink:href="#rim" fill="#404040">
                                <set attributeName="fill" to="#808080" begin="zoomminus.mouseover" end="zoomminus.mouseout"/>
                        </use>
                        <path d="M-4,0h8" fill="none" stroke="white" stroke-width="1.5" pointer-events="none"/>
                </g>
                <g id="dirArrow">
                        <path fill="none" stroke="white" stroke-width="1.5" d="M0,-3.0v7 M-2.5,-0.5L0,-3.0L2.5,-0.5"/>
                </g>
               <g id="resetDef">
                       <use xlink:href="#rim2" fill="#404040">
                               <set attributeName="fill" to="#808080" begin="reset.mouseover" end="reset.mouseout"/>
                       </use>
               </g>
        </defs>

<script type="text/javascript">
var viewWidth = 906;
var viewHeight = 252;
var sectionId = 'dynsection-0';
</script>
<script xlink:href="svgpan.js"/>
<svg id="graph" class="graph">
<g id="viewport">
<title>GraphicsItem.hpp</title>
<polygon fill="white" stroke="none" points="-4,4 -4,-248 902,-248 902,4 -4,4"/>
<!-- Node1 -->
<g id="node1" class="node"><title>Node1</title>
<polygon fill="#bfbfbf" stroke="black" points="322,-224.5 322,-243.5 416,-243.5 416,-224.5 322,-224.5"/>
<text text-anchor="middle" x="369" y="-231.5" font-family="Helvetica,sans-Serif" font-size="10.00">GraphicsItem.hpp</text>
</g>
<!-- Node2 -->
<g id="node2" class="node"><title>Node2</title>
<polygon fill="white" stroke="#bfbfbf" points="0,-56.5 0,-75.5 44,-75.5 44,-56.5 0,-56.5"/>
<text text-anchor="middle" x="22" y="-63.5" font-family="Helvetica,sans-Serif" font-size="10.00">vector</text>
</g>
<!-- Node1&#45;&gt;Node2 -->
<g id="edge1" class="edge"><title>Node1&#45;&gt;Node2</title>
<path fill="none" stroke="midnightblue" d="M321.71,-232.818C271.39,-230.706 190.931,-221.696 131,-188 85.7837,-162.577 49.3933,-111.446 32.4023,-84.513"/>
<polygon fill="midnightblue" stroke="midnightblue" points="35.2543,-82.4688 27.0398,-75.7776 29.2887,-86.131 35.2543,-82.4688"/>
</g>
<!-- Node3 -->
<g id="node3" class="node"><title>Node3</title>
<polygon fill="white" stroke="#bfbfbf" points="416.5,-168.5 416.5,-187.5 451.5,-187.5 451.5,-168.5 416.5,-168.5"/>
<text text-anchor="middle" x="434" y="-175.5" font-family="Helvetica,sans-Serif" font-size="10.00">map</text>
</g>
<!-- Node1&#45;&gt;Node3 -->
<g id="edge2" class="edge"><title>Node1&#45;&gt;Node3</title>
<path fill="none" stroke="midnightblue" d="M379.443,-224.324C389.146,-216.263 403.815,-204.077 415.5,-194.369"/>
<polygon fill="midnightblue" stroke="midnightblue" points="417.911,-196.916 423.367,-187.834 413.438,-191.532 417.911,-196.916"/>
</g>
<!-- Node4 -->
<g id="node4" class="node"><title>Node4</title>
<polygon fill="white" stroke="#bfbfbf" points="62,-56.5 62,-75.5 114,-75.5 114,-56.5 62,-56.5"/>
<text text-anchor="middle" x="88" y="-63.5" font-family="Helvetica,sans-Serif" font-size="10.00">memory</text>
</g>
<!-- Node1&#45;&gt;Node4 -->
<g id="edge3" class="edge"><title>Node1&#45;&gt;Node4</title>
<path fill="none" stroke="midnightblue" d="M321.642,-230.072C278.339,-225.718 213.664,-214.894 164,-188 132.771,-171.089 125.238,-162.473 107,-132 98.415,-117.656 93.5053,-99.1939 90.8365,-85.6133"/>
<polygon fill="midnightblue" stroke="midnightblue" points="94.2487,-84.8056 89.0904,-75.5513 87.3518,-86.0025 94.2487,-84.8056"/>
</g>
<!-- Node5 -->
<g id="node5" class="node"><title>Node5</title>
<g id="a_node5"><a xlink:href="_color_8hpp.html" target="_top" xlink:title="Classe Color. ">
<polygon fill="white" stroke="black" points="339.5,-168.5 339.5,-187.5 398.5,-187.5 398.5,-168.5 339.5,-168.5"/>
<text text-anchor="middle" x="369" y="-175.5" font-family="Helvetica,sans-Serif" font-size="10.00">Color.hpp</text>
</a>
</g>
</g>
<!-- Node1&#45;&gt;Node5 -->
<g id="edge4" class="edge"><title>Node1&#45;&gt;Node5</title>
<path fill="none" stroke="midnightblue" d="M369,-224.083C369,-217.006 369,-206.861 369,-197.986"/>
<polygon fill="midnightblue" stroke="midnightblue" points="372.5,-197.751 369,-187.751 365.5,-197.751 372.5,-197.751"/>
</g>
<!-- Node9 -->
<g id="node9" class="node"><title>Node9</title>
<g id="a_node9"><a xlink:href="_canvas_8hpp_source.html" target="_top" xlink:title="Canvas.hpp">
<polygon fill="white" stroke="black" points="173.5,-168.5 173.5,-187.5 242.5,-187.5 242.5,-168.5 173.5,-168.5"/>
<text text-anchor="middle" x="208" y="-175.5" font-family="Helvetica,sans-Serif" font-size="10.00">Canvas.hpp</text>
</a>
</g>
</g>
<!-- Node1&#45;&gt;Node9 -->
<g id="edge8" class="edge"><title>Node1&#45;&gt;Node9</title>
<path fill="none" stroke="midnightblue" d="M343.489,-224.444C316.404,-215.359 273.41,-200.939 243.131,-190.783"/>
<polygon fill="midnightblue" stroke="midnightblue" points="243.986,-187.378 233.392,-187.516 241.76,-194.015 243.986,-187.378"/>
</g>
<!-- Node15 -->
<g id="node15" class="node"><title>Node15</title>
<g id="a_node15"><a xlink:href="_event_8hpp.html" target="_top" xlink:title="Classe Event. ">
<polygon fill="white" stroke="black" points="260.5,-168.5 260.5,-187.5 321.5,-187.5 321.5,-168.5 260.5,-168.5"/>
<text text-anchor="middle" x="291" y="-175.5" font-family="Helvetica,sans-Serif" font-size="10.00">Event.hpp</text>
</a>
</g>
</g>
<!-- Node1&#45;&gt;Node15 -->
<g id="edge19" class="edge"><title>Node1&#45;&gt;Node15</title>
<path fill="none" stroke="midnightblue" d="M356.468,-224.324C344.414,-215.979 325.973,-203.212 311.731,-193.352"/>
<polygon fill="midnightblue" stroke="midnightblue" points="313.715,-190.469 303.501,-187.655 309.731,-196.224 313.715,-190.469"/>
</g>
<!-- Node16 -->
<g id="node16" class="node"><title>Node16</title>
<polygon fill="white" stroke="#bfbfbf" points="469.5,-168.5 469.5,-187.5 570.5,-187.5 570.5,-168.5 469.5,-168.5"/>
<text text-anchor="middle" x="520" y="-175.5" font-family="Helvetica,sans-Serif" font-size="10.00">boost/uuid/uuid.hpp</text>
</g>
<!-- Node1&#45;&gt;Node16 -->
<g id="edge22" class="edge"><title>Node1&#45;&gt;Node16</title>
<path fill="none" stroke="midnightblue" d="M392.926,-224.444C418.219,-215.399 458.302,-201.064 486.68,-190.916"/>
<polygon fill="midnightblue" stroke="midnightblue" points="487.948,-194.179 496.186,-187.516 485.591,-187.588 487.948,-194.179"/>
</g>
<!-- Node17 -->
<g id="node17" class="node"><title>Node17</title>
<polygon fill="white" stroke="#bfbfbf" points="589,-168.5 589,-187.5 741,-187.5 741,-168.5 589,-168.5"/>
<text text-anchor="middle" x="665" y="-175.5" font-family="Helvetica,sans-Serif" font-size="10.00">boost/uuid/uuid_generators.hpp</text>
</g>
<!-- Node1&#45;&gt;Node17 -->
<g id="edge23" class="edge"><title>Node1&#45;&gt;Node17</title>
<path fill="none" stroke="midnightblue" d="M415.902,-224.444C468.08,-214.925 552.371,-199.547 608.232,-189.356"/>
<polygon fill="midnightblue" stroke="midnightblue" points="609.108,-192.754 618.317,-187.516 607.852,-185.868 609.108,-192.754"/>
</g>
<!-- Node18 -->
<g id="node18" class="node"><title>Node18</title>
<polygon fill="white" stroke="#bfbfbf" points="759.5,-168.5 759.5,-187.5 898.5,-187.5 898.5,-168.5 759.5,-168.5"/>
<text text-anchor="middle" x="829" y="-175.5" font-family="Helvetica,sans-Serif" font-size="10.00">boost/core/noncopyable.hpp</text>
</g>
<!-- Node1&#45;&gt;Node18 -->
<g id="edge24" class="edge"><title>Node1&#45;&gt;Node18</title>
<path fill="none" stroke="midnightblue" d="M416.066,-227.475C494.576,-218.258 653.114,-199.647 749.29,-188.357"/>
<polygon fill="midnightblue" stroke="midnightblue" points="749.736,-191.829 759.26,-187.187 748.92,-184.877 749.736,-191.829"/>
</g>
<!-- Node6 -->
<g id="node6" class="node"><title>Node6</title>
<polygon fill="white" stroke="#bfbfbf" points="430,-112.5 430,-131.5 476,-131.5 476,-112.5 430,-112.5"/>
<text text-anchor="middle" x="453" y="-119.5" font-family="Helvetica,sans-Serif" font-size="10.00">cstdint</text>
</g>
<!-- Node5&#45;&gt;Node6 -->
<g id="edge5" class="edge"><title>Node5&#45;&gt;Node6</title>
<path fill="none" stroke="midnightblue" d="M382.496,-168.324C395.6,-159.9 415.712,-146.971 431.107,-137.074"/>
<polygon fill="midnightblue" stroke="midnightblue" points="433.018,-140.006 439.537,-131.655 429.233,-134.118 433.018,-140.006"/>
</g>
<!-- Node7 -->
<g id="node7" class="node"><title>Node7</title>
<polygon fill="white" stroke="#bfbfbf" points="494.5,-112.5 494.5,-131.5 535.5,-131.5 535.5,-112.5 494.5,-112.5"/>
<text text-anchor="middle" x="515" y="-119.5" font-family="Helvetica,sans-Serif" font-size="10.00">string</text>
</g>
<!-- Node5&#45;&gt;Node7 -->
<g id="edge6" class="edge"><title>Node5&#45;&gt;Node7</title>
<path fill="none" stroke="midnightblue" d="M392.134,-168.444C417.198,-159.173 457.286,-144.346 484.813,-134.165"/>
<polygon fill="midnightblue" stroke="midnightblue" points="486.17,-137.395 494.335,-130.643 483.742,-130.83 486.17,-137.395"/>
</g>
<!-- Node8 -->
<g id="node8" class="node"><title>Node8</title>
<polygon fill="white" stroke="#bfbfbf" points="304,-112.5 304,-131.5 412,-131.5 412,-112.5 304,-112.5"/>
<text text-anchor="middle" x="358" y="-119.5" font-family="Helvetica,sans-Serif" font-size="10.00">ez&#45;lib/ez&#45;draw++.hpp</text>
</g>
<!-- Node5&#45;&gt;Node8 -->
<g id="edge7" class="edge"><title>Node5&#45;&gt;Node8</title>
<path fill="none" stroke="midnightblue" d="M367.184,-168.083C365.726,-160.927 363.629,-150.635 361.807,-141.691"/>
<polygon fill="midnightblue" stroke="midnightblue" points="365.208,-140.851 359.783,-131.751 358.349,-142.248 365.208,-140.851"/>
</g>
<!-- Node9&#45;&gt;Node8 -->
<g id="edge9" class="edge"><title>Node9&#45;&gt;Node8</title>
<path fill="none" stroke="midnightblue" d="M231.768,-168.444C256.893,-159.399 296.711,-145.064 324.9,-134.916"/>
<polygon fill="midnightblue" stroke="midnightblue" points="326.12,-138.197 334.343,-131.516 323.749,-131.611 326.12,-138.197"/>
</g>
<!-- Node10 -->
<g id="node10" class="node"><title>Node10</title>
<g id="a_node10"><a xlink:href="_point_8hpp.html" target="_top" xlink:title="Classe point. ">
<polygon fill="white" stroke="black" points="116,-112.5 116,-131.5 174,-131.5 174,-112.5 116,-112.5"/>
<text text-anchor="middle" x="145" y="-119.5" font-family="Helvetica,sans-Serif" font-size="10.00">Point.hpp</text>
</a>
</g>
</g>
<!-- Node9&#45;&gt;Node10 -->
<g id="edge10" class="edge"><title>Node9&#45;&gt;Node10</title>
<path fill="none" stroke="midnightblue" d="M197.878,-168.324C188.474,-160.263 174.256,-148.077 162.931,-138.369"/>
<polygon fill="midnightblue" stroke="midnightblue" points="165.177,-135.684 155.306,-131.834 160.621,-140.999 165.177,-135.684"/>
</g>
<!-- Node14 -->
<g id="node14" class="node"><title>Node14</title>
<g id="a_node14"><a xlink:href="_font_8hpp_source.html" target="_top" xlink:title="Font.hpp">
<polygon fill="white" stroke="black" points="192.5,-112.5 192.5,-131.5 247.5,-131.5 247.5,-112.5 192.5,-112.5"/>
<text text-anchor="middle" x="220" y="-119.5" font-family="Helvetica,sans-Serif" font-size="10.00">Font.hpp</text>
</a>
</g>
</g>
<!-- Node9&#45;&gt;Node14 -->
<g id="edge17" class="edge"><title>Node9&#45;&gt;Node14</title>
<path fill="none" stroke="midnightblue" d="M209.982,-168.083C211.572,-160.927 213.859,-150.635 215.846,-141.691"/>
<polygon fill="midnightblue" stroke="midnightblue" points="219.303,-142.272 218.055,-131.751 212.469,-140.754 219.303,-142.272"/>
</g>
<!-- Node10&#45;&gt;Node2 -->
<g id="edge12" class="edge"><title>Node10&#45;&gt;Node2</title>
<path fill="none" stroke="midnightblue" d="M125.51,-112.444C105.358,-103.596 73.6771,-89.6875 50.6692,-79.5865"/>
<polygon fill="midnightblue" stroke="midnightblue" points="51.962,-76.3316 41.3985,-75.5164 49.148,-82.7411 51.962,-76.3316"/>
</g>
<!-- Node10&#45;&gt;Node4 -->
<g id="edge13" class="edge"><title>Node10&#45;&gt;Node4</title>
<path fill="none" stroke="midnightblue" d="M135.842,-112.324C127.499,-104.42 114.968,-92.5482 104.823,-82.9377"/>
<polygon fill="midnightblue" stroke="midnightblue" points="106.991,-80.1705 97.3247,-75.8339 102.177,-85.2522 106.991,-80.1705"/>
</g>
<!-- Node11 -->
<g id="node11" class="node"><title>Node11</title>
<polygon fill="white" stroke="#bfbfbf" points="240,-56.5 240,-75.5 294,-75.5 294,-56.5 240,-56.5"/>
<text text-anchor="middle" x="267" y="-63.5" font-family="Helvetica,sans-Serif" font-size="10.00">iostream</text>
</g>
<!-- Node10&#45;&gt;Node11 -->
<g id="edge11" class="edge"><title>Node10&#45;&gt;Node11</title>
<path fill="none" stroke="midnightblue" d="M164.331,-112.444C184.32,-103.596 215.743,-89.6875 238.564,-79.5865"/>
<polygon fill="midnightblue" stroke="midnightblue" points="240.032,-82.7645 247.759,-75.5164 237.198,-76.3635 240.032,-82.7645"/>
</g>
<!-- Node12 -->
<g id="node12" class="node"><title>Node12</title>
<g id="a_node12"><a xlink:href="_group_points_8hpp_source.html" target="_top" xlink:title="GroupPoints.hpp">
<polygon fill="white" stroke="black" points="132.5,-56.5 132.5,-75.5 221.5,-75.5 221.5,-56.5 132.5,-56.5"/>
<text text-anchor="middle" x="177" y="-63.5" font-family="Helvetica,sans-Serif" font-size="10.00">GroupPoints.hpp</text>
</a>
</g>
</g>
<!-- Node10&#45;&gt;Node12 -->
<g id="edge14" class="edge"><title>Node10&#45;&gt;Node12</title>
<path fill="none" stroke="midnightblue" d="M145.118,-112.083C148.029,-104.455 154.278,-93.2645 160.646,-83.9408"/>
<polygon fill="midnightblue" stroke="midnightblue" points="163.567,-85.8772 166.683,-75.7511 157.932,-81.7235 163.567,-85.8772"/>
</g>
<!-- Node12&#45;&gt;Node10 -->
<g id="edge16" class="edge"><title>Node12&#45;&gt;Node10</title>
<path fill="none" stroke="midnightblue" d="M176.945,-75.7511C174.083,-83.3265 167.859,-94.5048 161.493,-103.855"/>
<polygon fill="midnightblue" stroke="midnightblue" points="158.549,-101.951 155.45,-112.083 164.191,-106.095 158.549,-101.951"/>
</g>
<!-- Node13 -->
<g id="node13" class="node"><title>Node13</title>
<polygon fill="white" stroke="#bfbfbf" points="147.5,-0.5 147.5,-19.5 206.5,-19.5 206.5,-0.5 147.5,-0.5"/>
<text text-anchor="middle" x="177" y="-7.5" font-family="Helvetica,sans-Serif" font-size="10.00">functional</text>
</g>
<!-- Node12&#45;&gt;Node13 -->
<g id="edge15" class="edge"><title>Node12&#45;&gt;Node13</title>
<path fill="none" stroke="midnightblue" d="M177,-56.083C177,-49.0059 177,-38.8611 177,-29.9865"/>
<polygon fill="midnightblue" stroke="midnightblue" points="180.5,-29.751 177,-19.7511 173.5,-29.7511 180.5,-29.751"/>
</g>
<!-- Node14&#45;&gt;Node11 -->
<g id="edge18" class="edge"><title>Node14&#45;&gt;Node11</title>
<path fill="none" stroke="midnightblue" d="M227.761,-112.083C234.537,-104.298 244.543,-92.8015 252.755,-83.3665"/>
<polygon fill="midnightblue" stroke="midnightblue" points="255.458,-85.592 259.383,-75.7511 250.178,-80.9963 255.458,-85.592"/>
</g>
<!-- Node15&#45;&gt;Node8 -->
<g id="edge21" class="edge"><title>Node15&#45;&gt;Node8</title>
<path fill="none" stroke="midnightblue" d="M301.765,-168.324C311.766,-160.263 326.887,-148.077 338.93,-138.369"/>
<polygon fill="midnightblue" stroke="midnightblue" points="341.45,-140.834 347.039,-131.834 337.057,-135.384 341.45,-140.834"/>
</g>
<!-- Node15&#45;&gt;Node11 -->
<g id="edge20" class="edge"><title>Node15&#45;&gt;Node11</title>
<path fill="none" stroke="midnightblue" d="M289.117,-168.368C285.244,-150.617 276.309,-109.666 271.058,-85.5974"/>
<polygon fill="midnightblue" stroke="midnightblue" points="274.426,-84.6155 268.874,-75.5914 267.587,-86.1077 274.426,-84.6155"/>
</g>
</g>
</svg>
        <g id="navigator" transform="translate(0 0)" fill="#404254">
                <rect fill="#f2f5e9" fill-opacity="0.5" stroke="#606060" stroke-width=".5" x="0" y="0" width="60" height="60"/>
                <use id="zoomplus" xlink:href="#zoomPlus" x="17" y="9" onmousedown="handleZoom(evt,'in')"/>
                <use id="zoomminus" xlink:href="#zoomMin" x="42" y="9" onmousedown="handleZoom(evt,'out')"/>
                <use id="reset" xlink:href="#resetDef" x="30" y="36" onmousedown="handleReset()"/>
                <g id="arrowUp" xlink:href="#dirArrow" transform="translate(30 24)" onmousedown="handlePan(0,-1)">
                  <use xlink:href="#rim" fill="#404040">
                        <set attributeName="fill" to="#808080" begin="arrowUp.mouseover" end="arrowUp.mouseout"/>
                  </use>
                  <path fill="none" stroke="white" stroke-width="1.5" d="M0,-3.0v7 M-2.5,-0.5L0,-3.0L2.5,-0.5"/>
                </g>
                <g id="arrowRight" xlink:href="#dirArrow" transform="rotate(90) translate(36 -43)" onmousedown="handlePan(1,0)">
                  <use xlink:href="#rim" fill="#404040">
                        <set attributeName="fill" to="#808080" begin="arrowRight.mouseover" end="arrowRight.mouseout"/>
                  </use>
                  <path fill="none" stroke="white" stroke-width="1.5" d="M0,-3.0v7 M-2.5,-0.5L0,-3.0L2.5,-0.5"/>
                </g>
                <g id="arrowDown" xlink:href="#dirArrow" transform="rotate(180) translate(-30 -48)" onmousedown="handlePan(0,1)">
                  <use xlink:href="#rim" fill="#404040">
                        <set attributeName="fill" to="#808080" begin="arrowDown.mouseover" end="arrowDown.mouseout"/>
                  </use>
                  <path fill="none" stroke="white" stroke-width="1.5" d="M0,-3.0v7 M-2.5,-0.5L0,-3.0L2.5,-0.5"/>
                </g>
                <g id="arrowLeft" xlink:href="#dirArrow" transform="rotate(270) translate(-36 17)" onmousedown="handlePan(-1,0)">
                  <use xlink:href="#rim" fill="#404040">
                        <set attributeName="fill" to="#808080" begin="arrowLeft.mouseover" end="arrowLeft.mouseout"/>
                  </use>
                  <path fill="none" stroke="white" stroke-width="1.5" d="M0,-3.0v7 M-2.5,-0.5L0,-3.0L2.5,-0.5"/>
                </g>
        </g>
        <svg viewBox="0 0 15 15" width="100%" height="30px" preserveAspectRatio="xMaxYMin meet">
         <g id="arrow_out" transform="scale(0.3 0.3)">
          <a xlink:href="_graphics_item_8hpp__incl_org.svg" target="_base">
           <rect id="button" ry="5" rx="5" y="6" x="6" height="38" width="38"
                fill="#f2f5e9" fill-opacity="0.5" stroke="#606060" stroke-width="1.0"/>
           <path id="arrow"
             d="M 11.500037,31.436501 C 11.940474,20.09759 22.043105,11.32322 32.158766,21.979434 L 37.068811,17.246167 C 37.068811,17.246167 37.088388,32 37.088388,32 L 22.160133,31.978069 C 22.160133,31.978069 26.997745,27.140456 26.997745,27.140456 C 18.528582,18.264221 13.291696,25.230495 11.500037,31.436501 z"
             style="fill:#404040;"/>
          </a>
         </g>
        </svg>
</svg>
