<?xml version="1.0" encoding="UTF-8" standalone="no"?>
<!DOCTYPE svg PUBLIC "-//W3C//DTD SVG 1.1//EN"
 "http://www.w3.org/Graphics/SVG/1.1/DTD/svg11.dtd">
<!-- Generated by graphviz version 2.36.0 (20140111.2315)
 -->
<!-- Title: GraphicsShape.hpp Pages: 1 -->
<svg width="978pt" height="364pt"
 viewBox="0.00 0.00 978.00 364.00" xmlns="http://www.w3.org/2000/svg" xmlns:xlink="http://www.w3.org/1999/xlink">
<g id="graph0" class="graph" transform="scale(1 1) rotate(0) translate(4 360)">
<title>GraphicsShape.hpp</title>
<polygon fill="white" stroke="none" points="-4,4 -4,-360 974,-360 974,4 -4,4"/>
<!-- Node1 -->
<g id="node1" class="node"><title>Node1</title>
<polygon fill="#bfbfbf" stroke="black" points="418,-336.5 418,-355.5 520,-355.5 520,-336.5 418,-336.5"/>
<text text-anchor="middle" x="469" y="-343.5" font-family="Helvetica,sans-Serif" font-size="10.00">GraphicsShape.hpp</text>
</g>
<!-- Node2 -->
<g id="node2" class="node"><title>Node2</title>
<g id="a_node2"><a xlink:href="_graphics_circle_8hpp_source.html" target="_top" xlink:title="GraphicsCircle.hpp">
<polygon fill="white" stroke="black" points="28,-280.5 28,-299.5 128,-299.5 128,-280.5 28,-280.5"/>
<text text-anchor="middle" x="78" y="-287.5" font-family="Helvetica,sans-Serif" font-size="10.00">GraphicsCircle.hpp</text>
</a>
</g>
</g>
<!-- Node1&#45;&gt;Node2 -->
<g id="edge1" class="edge"><title>Node1&#45;&gt;Node2</title>
<path fill="none" stroke="midnightblue" d="M407.837,-336.553C330.751,-325.907 199.708,-307.809 128.201,-297.933"/>
<polygon fill="midnightblue" stroke="midnightblue" points="407.499,-340.039 417.884,-337.94 408.456,-333.105 407.499,-340.039"/>
</g>
<!-- Node5 -->
<g id="node5" class="node"><title>Node5</title>
<g id="a_node5"><a xlink:href="_graphics_ellipse_8hpp_source.html" target="_top" xlink:title="GraphicsEllipse.hpp">
<polygon fill="white" stroke="black" points="224,-280.5 224,-299.5 328,-299.5 328,-280.5 224,-280.5"/>
<text text-anchor="middle" x="276" y="-287.5" font-family="Helvetica,sans-Serif" font-size="10.00">GraphicsEllipse.hpp</text>
</a>
</g>
</g>
<!-- Node1&#45;&gt;Node5 -->
<g id="edge4" class="edge"><title>Node1&#45;&gt;Node5</title>
<path fill="none" stroke="midnightblue" d="M428.608,-333.699C392.183,-323.507 339.414,-308.743 306.438,-299.516"/>
<polygon fill="midnightblue" stroke="midnightblue" points="427.845,-337.12 438.419,-336.444 429.731,-330.378 427.845,-337.12"/>
</g>
<!-- Node7 -->
<g id="node7" class="node"><title>Node7</title>
<g id="a_node7"><a xlink:href="_graphics_line_8hpp_source.html" target="_top" xlink:title="GraphicsLine.hpp">
<polygon fill="white" stroke="black" points="492,-280.5 492,-299.5 584,-299.5 584,-280.5 492,-280.5"/>
<text text-anchor="middle" x="538" y="-287.5" font-family="Helvetica,sans-Serif" font-size="10.00">GraphicsLine.hpp</text>
</a>
</g>
</g>
<!-- Node1&#45;&gt;Node7 -->
<g id="edge7" class="edge"><title>Node1&#45;&gt;Node7</title>
<path fill="none" stroke="midnightblue" d="M488.038,-330.101C500.456,-320.382 516.243,-308.027 526.712,-299.834"/>
<polygon fill="midnightblue" stroke="midnightblue" points="485.804,-327.405 480.086,-336.324 490.118,-332.917 485.804,-327.405"/>
</g>
<!-- Node20 -->
<g id="node20" class="node"><title>Node20</title>
<g id="a_node20"><a xlink:href="_graphics_polygon_8hpp_source.html" target="_top" xlink:title="GraphicsPolygon.hpp">
<polygon fill="white" stroke="black" points="860,-56.5 860,-75.5 970,-75.5 970,-56.5 860,-56.5"/>
<text text-anchor="middle" x="915" y="-63.5" font-family="Helvetica,sans-Serif" font-size="10.00">GraphicsPolygon.hpp</text>
</a>
</g>
</g>
<!-- Node1&#45;&gt;Node20 -->
<g id="edge26" class="edge"><title>Node1&#45;&gt;Node20</title>
<path fill="none" stroke="midnightblue" d="M530.191,-344.998C607.897,-341.402 732,-322.035 732,-235 732,-235 732,-235 732,-177 732,-115.651 808.483,-87.6509 862.56,-75.5207"/>
<polygon fill="midnightblue" stroke="midnightblue" points="529.878,-341.507 520.021,-345.392 530.149,-348.502 529.878,-341.507"/>
</g>
<!-- Node22 -->
<g id="node22" class="node"><title>Node22</title>
<g id="a_node22"><a xlink:href="_graphics_triangle_8hpp.html" target="_top" xlink:title="Classe GraphicsTriangle. ">
<polygon fill="white" stroke="black" points="346.5,-280.5 346.5,-299.5 455.5,-299.5 455.5,-280.5 346.5,-280.5"/>
<text text-anchor="middle" x="401" y="-287.5" font-family="Helvetica,sans-Serif" font-size="10.00">GraphicsTriangle.hpp</text>
</a>
</g>
</g>
<!-- Node1&#45;&gt;Node22 -->
<g id="edge30" class="edge"><title>Node1&#45;&gt;Node22</title>
<path fill="none" stroke="midnightblue" d="M450.238,-330.101C438,-320.382 422.441,-308.027 412.124,-299.834"/>
<polygon fill="midnightblue" stroke="midnightblue" points="448.067,-332.846 458.075,-336.324 452.42,-327.364 448.067,-332.846"/>
</g>
<!-- Node24 -->
<g id="node24" class="node"><title>Node24</title>
<g id="a_node24"><a xlink:href="_graphics_shape_8cpp_source.html" target="_top" xlink:title="GraphicsShape.cpp">
<polygon fill="white" stroke="black" points="760,-280.5 760,-299.5 862,-299.5 862,-280.5 760,-280.5"/>
<text text-anchor="middle" x="811" y="-287.5" font-family="Helvetica,sans-Serif" font-size="10.00">GraphicsShape.cpp</text>
</a>
</g>
</g>
<!-- Node1&#45;&gt;Node24 -->
<g id="edge33" class="edge"><title>Node1&#45;&gt;Node24</title>
<path fill="none" stroke="midnightblue" d="M530.38,-335.308C595.858,-324.97 698.409,-308.777 759.729,-299.095"/>
<polygon fill="midnightblue" stroke="midnightblue" points="529.533,-331.899 520.201,-336.916 530.624,-338.813 529.533,-331.899"/>
</g>
<!-- Node3 -->
<g id="node3" class="node"><title>Node3</title>
<g id="a_node3"><a xlink:href="_graphics_factory_8cpp_source.html" target="_top" xlink:title="GraphicsFactory.cpp">
<polygon fill="white" stroke="black" points="310.5,-0.5 310.5,-19.5 417.5,-19.5 417.5,-0.5 310.5,-0.5"/>
<text text-anchor="middle" x="364" y="-7.5" font-family="Helvetica,sans-Serif" font-size="10.00">GraphicsFactory.cpp</text>
</a>
</g>
</g>
<!-- Node2&#45;&gt;Node3 -->
<g id="edge2" class="edge"><title>Node2&#45;&gt;Node3</title>
<path fill="none" stroke="midnightblue" d="M53.0084,-275.092C41.157,-267.344 27.7174,-256.693 19,-244 1.9609,-219.19 0,-209.098 0,-179 0,-179 0,-179 0,-121 0,-56.9635 209.038,-26.8116 310.291,-15.9627"/>
<polygon fill="midnightblue" stroke="midnightblue" points="51.3106,-278.157 61.6573,-280.437 54.9906,-272.202 51.3106,-278.157"/>
</g>
<!-- Node4 -->
<g id="node4" class="node"><title>Node4</title>
<g id="a_node4"><a xlink:href="_graphics_circle_8cpp_source.html" target="_top" xlink:title="GraphicsCircle.cpp">
<polygon fill="white" stroke="black" points="28,-224.5 28,-243.5 128,-243.5 128,-224.5 28,-224.5"/>
<text text-anchor="middle" x="78" y="-231.5" font-family="Helvetica,sans-Serif" font-size="10.00">GraphicsCircle.cpp</text>
</a>
</g>
</g>
<!-- Node2&#45;&gt;Node4 -->
<g id="edge3" class="edge"><title>Node2&#45;&gt;Node4</title>
<path fill="none" stroke="midnightblue" d="M78,-269.805C78,-260.91 78,-250.78 78,-243.751"/>
<polygon fill="midnightblue" stroke="midnightblue" points="74.5001,-270.083 78,-280.083 81.5001,-270.083 74.5001,-270.083"/>
</g>
<!-- Node5&#45;&gt;Node3 -->
<g id="edge5" class="edge"><title>Node5&#45;&gt;Node3</title>
<path fill="none" stroke="midnightblue" d="M276.548,-270.253C277.14,-248.361 278,-211.057 278,-179 278,-179 278,-179 278,-121 278,-74.6997 325.872,-36.256 350.183,-19.7187"/>
<polygon fill="midnightblue" stroke="midnightblue" points="273.044,-270.349 276.261,-280.443 280.041,-270.546 273.044,-270.349"/>
</g>
<!-- Node6 -->
<g id="node6" class="node"><title>Node6</title>
<g id="a_node6"><a xlink:href="_graphics_ellipse_8cpp_source.html" target="_top" xlink:title="GraphicsEllipse.cpp">
<polygon fill="white" stroke="black" points="146,-224.5 146,-243.5 250,-243.5 250,-224.5 146,-224.5"/>
<text text-anchor="middle" x="198" y="-231.5" font-family="Helvetica,sans-Serif" font-size="10.00">GraphicsEllipse.cpp</text>
</a>
</g>
</g>
<!-- Node5&#45;&gt;Node6 -->
<g id="edge6" class="edge"><title>Node5&#45;&gt;Node6</title>
<path fill="none" stroke="midnightblue" d="M255.232,-274.622C240.983,-264.757 222.544,-251.992 210.501,-243.655"/>
<polygon fill="midnightblue" stroke="midnightblue" points="253.254,-277.51 263.468,-280.324 257.238,-271.754 253.254,-277.51"/>
</g>
<!-- Node7&#45;&gt;Node3 -->
<g id="edge8" class="edge"><title>Node7&#45;&gt;Node3</title>
<path fill="none" stroke="midnightblue" d="M524.468,-272.719C517.424,-264.201 508.699,-253.578 501,-244 481.17,-219.329 474.589,-214.316 457,-188 425.264,-140.517 419.987,-126.857 394,-76 383.82,-56.0786 373.124,-32.0366 367.671,-19.5175"/>
<polygon fill="midnightblue" stroke="midnightblue" points="521.774,-274.954 530.85,-280.42 527.163,-270.487 521.774,-274.954"/>
</g>
<!-- Node8 -->
<g id="node8" class="node"><title>Node8</title>
<g id="a_node8"><a xlink:href="_graphics_line_8cpp_source.html" target="_top" xlink:title="GraphicsLine.cpp">
<polygon fill="white" stroke="black" points="510,-224.5 510,-243.5 602,-243.5 602,-224.5 510,-224.5"/>
<text text-anchor="middle" x="556" y="-231.5" font-family="Helvetica,sans-Serif" font-size="10.00">GraphicsLine.cpp</text>
</a>
</g>
</g>
<!-- Node7&#45;&gt;Node8 -->
<g id="edge9" class="edge"><title>Node7&#45;&gt;Node8</title>
<path fill="none" stroke="midnightblue" d="M544.201,-270.396C547.213,-261.362 550.688,-250.936 553.083,-243.751"/>
<polygon fill="midnightblue" stroke="midnightblue" points="540.814,-269.489 540.972,-280.083 547.455,-271.703 540.814,-269.489"/>
</g>
<!-- Node9 -->
<g id="node9" class="node"><title>Node9</title>
<g id="a_node9"><a xlink:href="_line_edit_8hpp_source.html" target="_top" xlink:title="LineEdit.hpp">
<polygon fill="white" stroke="black" points="620.5,-224.5 620.5,-243.5 691.5,-243.5 691.5,-224.5 620.5,-224.5"/>
<text text-anchor="middle" x="656" y="-231.5" font-family="Helvetica,sans-Serif" font-size="10.00">LineEdit.hpp</text>
</a>
</g>
</g>
<!-- Node7&#45;&gt;Node9 -->
<g id="edge10" class="edge"><title>Node7&#45;&gt;Node9</title>
<path fill="none" stroke="midnightblue" d="M565.9,-276.232C587.973,-266.131 618.176,-252.309 637.39,-243.516"/>
<polygon fill="midnightblue" stroke="midnightblue" points="564.334,-273.1 556.697,-280.444 567.247,-279.465 564.334,-273.1"/>
</g>
<!-- Node10 -->
<g id="node10" class="node"><title>Node10</title>
<g id="a_node10"><a xlink:href="_config_item_8hpp.html" target="_top" xlink:title="Classe ConfigItem. ">
<polygon fill="white" stroke="black" points="566.5,-112.5 566.5,-131.5 649.5,-131.5 649.5,-112.5 566.5,-112.5"/>
<text text-anchor="middle" x="608" y="-119.5" font-family="Helvetica,sans-Serif" font-size="10.00">ConfigItem.hpp</text>
</a>
</g>
</g>
<!-- Node9&#45;&gt;Node10 -->
<g id="edge11" class="edge"><title>Node9&#45;&gt;Node10</title>
<path fill="none" stroke="midnightblue" d="M652.086,-214.457C648.924,-201.169 643.868,-183.039 637,-168 630.822,-154.473 621.038,-140.277 614.569,-131.532"/>
<polygon fill="midnightblue" stroke="midnightblue" points="648.691,-215.313 654.295,-224.305 655.522,-213.781 648.691,-215.313"/>
</g>
<!-- Node16 -->
<g id="node16" class="node"><title>Node16</title>
<g id="a_node16"><a xlink:href="_main_window_8cpp_source.html" target="_top" xlink:title="MainWindow.cpp">
<polygon fill="white" stroke="black" points="750,-56.5 750,-75.5 842,-75.5 842,-56.5 750,-56.5"/>
<text text-anchor="middle" x="796" y="-63.5" font-family="Helvetica,sans-Serif" font-size="10.00">MainWindow.cpp</text>
</a>
</g>
</g>
<!-- Node9&#45;&gt;Node16 -->
<g id="edge21" class="edge"><title>Node9&#45;&gt;Node16</title>
<path fill="none" stroke="midnightblue" d="M661.621,-214.839C670.273,-189.309 688.958,-142.525 718,-112 733.733,-95.4636 756.891,-83.1525 773.887,-75.6258"/>
<polygon fill="midnightblue" stroke="midnightblue" points="658.286,-213.777 658.527,-224.369 664.944,-215.939 658.286,-213.777"/>
</g>
<!-- Node17 -->
<g id="node17" class="node"><title>Node17</title>
<g id="a_node17"><a xlink:href="_spin_box_8hpp_source.html" target="_top" xlink:title="SpinBox.hpp">
<polygon fill="white" stroke="black" points="556,-168.5 556,-187.5 628,-187.5 628,-168.5 556,-168.5"/>
<text text-anchor="middle" x="592" y="-175.5" font-family="Helvetica,sans-Serif" font-size="10.00">SpinBox.hpp</text>
</a>
</g>
</g>
<!-- Node9&#45;&gt;Node17 -->
<g id="edge22" class="edge"><title>Node9&#45;&gt;Node17</title>
<path fill="none" stroke="midnightblue" d="M638.009,-217.82C626.542,-208.145 612.087,-195.948 602.47,-187.834"/>
<polygon fill="midnightblue" stroke="midnightblue" points="635.817,-220.55 645.717,-224.324 640.331,-215.2 635.817,-220.55"/>
</g>
<!-- Node19 -->
<g id="node19" class="node"><title>Node19</title>
<g id="a_node19"><a xlink:href="_line_edit_8cpp_source.html" target="_top" xlink:title="LineEdit.cpp">
<polygon fill="white" stroke="black" points="466.5,-168.5 466.5,-187.5 537.5,-187.5 537.5,-168.5 466.5,-168.5"/>
<text text-anchor="middle" x="502" y="-175.5" font-family="Helvetica,sans-Serif" font-size="10.00">LineEdit.cpp</text>
</a>
</g>
</g>
<!-- Node9&#45;&gt;Node19 -->
<g id="edge25" class="edge"><title>Node9&#45;&gt;Node19</title>
<path fill="none" stroke="midnightblue" d="M621.889,-221.039C592.913,-210.879 552.038,-196.546 526.288,-187.516"/>
<polygon fill="midnightblue" stroke="midnightblue" points="621.003,-224.437 631.598,-224.444 623.32,-217.832 621.003,-224.437"/>
</g>
<!-- Node10&#45;&gt;Node3 -->
<g id="edge19" class="edge"><title>Node10&#45;&gt;Node3</title>
<path fill="none" stroke="midnightblue" d="M556.623,-110.31C505.385,-99.3813 432.655,-83.0424 421,-76 397.106,-61.5628 377.843,-33.7916 369.095,-19.6837"/>
<polygon fill="midnightblue" stroke="midnightblue" points="556.05,-113.766 566.559,-112.419 557.504,-106.919 556.05,-113.766"/>
</g>
<!-- Node11 -->
<g id="node11" class="node"><title>Node11</title>
<g id="a_node11"><a xlink:href="_config_polygon_8hpp.html" target="_top" xlink:title="Classe ConfigPolygon. ">
<polygon fill="white" stroke="black" points="632.5,-56.5 632.5,-75.5 731.5,-75.5 731.5,-56.5 632.5,-56.5"/>
<text text-anchor="middle" x="682" y="-63.5" font-family="Helvetica,sans-Serif" font-size="10.00">ConfigPolygon.hpp</text>
</a>
</g>
</g>
<!-- Node10&#45;&gt;Node11 -->
<g id="edge12" class="edge"><title>Node10&#45;&gt;Node11</title>
<path fill="none" stroke="midnightblue" d="M628.034,-106.38C641.409,-96.6204 658.559,-84.1057 669.894,-75.8339"/>
<polygon fill="midnightblue" stroke="midnightblue" points="625.904,-103.602 619.889,-112.324 630.03,-109.257 625.904,-103.602"/>
</g>
<!-- Node13 -->
<g id="node13" class="node"><title>Node13</title>
<g id="a_node13"><a xlink:href="_config_text_8hpp.html" target="_top" xlink:title="Classe ConfigText. ">
<polygon fill="white" stroke="black" points="430.5,-56.5 430.5,-75.5 513.5,-75.5 513.5,-56.5 430.5,-56.5"/>
<text text-anchor="middle" x="472" y="-63.5" font-family="Helvetica,sans-Serif" font-size="10.00">ConfigText.hpp</text>
</a>
</g>
</g>
<!-- Node10&#45;&gt;Node13 -->
<g id="edge15" class="edge"><title>Node10&#45;&gt;Node13</title>
<path fill="none" stroke="midnightblue" d="M576.865,-108.638C551.343,-98.504 515.891,-84.4274 493.449,-75.5164"/>
<polygon fill="midnightblue" stroke="midnightblue" points="575.865,-112.006 586.45,-112.444 578.448,-105.5 575.865,-112.006"/>
</g>
<!-- Node15 -->
<g id="node15" class="node"><title>Node15</title>
<g id="a_node15"><a xlink:href="_config_item_8cpp_source.html" target="_top" xlink:title="ConfigItem.cpp">
<polygon fill="white" stroke="black" points="531.5,-56.5 531.5,-75.5 614.5,-75.5 614.5,-56.5 531.5,-56.5"/>
<text text-anchor="middle" x="573" y="-63.5" font-family="Helvetica,sans-Serif" font-size="10.00">ConfigItem.cpp</text>
</a>
</g>
</g>
<!-- Node10&#45;&gt;Node15 -->
<g id="edge18" class="edge"><title>Node10&#45;&gt;Node15</title>
<path fill="none" stroke="midnightblue" d="M596.7,-103.566C590.678,-94.2747 583.531,-83.2484 578.672,-75.7511"/>
<polygon fill="midnightblue" stroke="midnightblue" points="593.844,-105.595 602.22,-112.083 599.719,-101.788 593.844,-105.595"/>
</g>
<!-- Node10&#45;&gt;Node16 -->
<g id="edge20" class="edge"><title>Node10&#45;&gt;Node16</title>
<path fill="none" stroke="midnightblue" d="M647.801,-109.568C683.266,-99.381 734.366,-84.7034 766.35,-75.5164"/>
<polygon fill="midnightblue" stroke="midnightblue" points="646.434,-106.319 637.789,-112.444 648.367,-113.047 646.434,-106.319"/>
</g>
<!-- Node11&#45;&gt;Node3 -->
<g id="edge14" class="edge"><title>Node11&#45;&gt;Node3</title>
<path fill="none" stroke="midnightblue" d="M622.212,-54.8473C562.119,-44.6428 470.534,-29.0907 414.125,-19.5118"/>
<polygon fill="midnightblue" stroke="midnightblue" points="621.868,-58.3389 632.312,-56.5625 623.04,-51.4377 621.868,-58.3389"/>
</g>
<!-- Node12 -->
<g id="node12" class="node"><title>Node12</title>
<g id="a_node12"><a xlink:href="_config_polygon_8cpp_source.html" target="_top" xlink:title="ConfigPolygon.cpp">
<polygon fill="white" stroke="black" points="687.5,-0.5 687.5,-19.5 786.5,-19.5 786.5,-0.5 687.5,-0.5"/>
<text text-anchor="middle" x="737" y="-7.5" font-family="Helvetica,sans-Serif" font-size="10.00">ConfigPolygon.cpp</text>
</a>
</g>
</g>
<!-- Node11&#45;&gt;Node12 -->
<g id="edge13" class="edge"><title>Node11&#45;&gt;Node12</title>
<path fill="none" stroke="midnightblue" d="M698.294,-49.0024C708.041,-39.4329 720.053,-27.6389 728.087,-19.7511"/>
<polygon fill="midnightblue" stroke="midnightblue" points="695.766,-46.5796 691.082,-56.083 700.67,-51.5746 695.766,-46.5796"/>
</g>
<!-- Node13&#45;&gt;Node3 -->
<g id="edge17" class="edge"><title>Node13&#45;&gt;Node3</title>
<path fill="none" stroke="midnightblue" d="M445.452,-51.7261C425.454,-41.7271 398.613,-28.3065 381.309,-19.6545"/>
<polygon fill="midnightblue" stroke="midnightblue" points="444.138,-54.9823 454.648,-56.324 447.269,-48.7213 444.138,-54.9823"/>
</g>
<!-- Node14 -->
<g id="node14" class="node"><title>Node14</title>
<g id="a_node14"><a xlink:href="_config_text_8cpp_source.html" target="_top" xlink:title="ConfigText.cpp">
<polygon fill="white" stroke="black" points="435.5,-0.5 435.5,-19.5 518.5,-19.5 518.5,-0.5 435.5,-0.5"/>
<text text-anchor="middle" x="477" y="-7.5" font-family="Helvetica,sans-Serif" font-size="10.00">ConfigText.cpp</text>
</a>
</g>
</g>
<!-- Node13&#45;&gt;Node14 -->
<g id="edge16" class="edge"><title>Node13&#45;&gt;Node14</title>
<path fill="none" stroke="midnightblue" d="M473.75,-46.1005C474.58,-37.1357 475.532,-26.8579 476.19,-19.7511"/>
<polygon fill="midnightblue" stroke="midnightblue" points="470.263,-45.8029 472.826,-56.083 477.233,-46.4483 470.263,-45.8029"/>
</g>
<!-- Node17&#45;&gt;Node10 -->
<g id="edge23" class="edge"><title>Node17&#45;&gt;Node10</title>
<path fill="none" stroke="midnightblue" d="M597.512,-158.396C600.189,-149.362 603.278,-138.936 605.407,-131.751"/>
<polygon fill="midnightblue" stroke="midnightblue" points="594.127,-157.501 594.642,-168.083 600.839,-159.489 594.127,-157.501"/>
</g>
<!-- Node18 -->
<g id="node18" class="node"><title>Node18</title>
<g id="a_node18"><a xlink:href="_spin_box_8cpp_source.html" target="_top" xlink:title="SpinBox.cpp">
<polygon fill="white" stroke="black" points="476,-112.5 476,-131.5 548,-131.5 548,-112.5 476,-112.5"/>
<text text-anchor="middle" x="512" y="-119.5" font-family="Helvetica,sans-Serif" font-size="10.00">SpinBox.cpp</text>
</a>
</g>
</g>
<!-- Node17&#45;&gt;Node18 -->
<g id="edge24" class="edge"><title>Node17&#45;&gt;Node18</title>
<path fill="none" stroke="midnightblue" d="M570.699,-162.622C556.085,-152.757 537.173,-139.992 524.821,-131.655"/>
<polygon fill="midnightblue" stroke="midnightblue" points="568.9,-165.63 579.147,-168.324 572.816,-159.828 568.9,-165.63"/>
</g>
<!-- Node20&#45;&gt;Node3 -->
<g id="edge28" class="edge"><title>Node20&#45;&gt;Node3</title>
<path fill="none" stroke="midnightblue" d="M849.883,-55.9341C660.933,-35.0182 611.109,-41.2561 426,-20 423.299,-19.6898 420.533,-19.3543 417.743,-19.0015"/>
<polygon fill="midnightblue" stroke="midnightblue" points="849.54,-59.4174 859.867,-57.05 850.317,-52.4607 849.54,-59.4174"/>
</g>
<!-- Node20&#45;&gt;Node12 -->
<g id="edge27" class="edge"><title>Node20&#45;&gt;Node12</title>
<path fill="none" stroke="midnightblue" d="M876.883,-53.4363C843.322,-43.2551 795.226,-28.664 765.073,-19.5164"/>
<polygon fill="midnightblue" stroke="midnightblue" points="876.21,-56.8897 886.795,-56.4435 878.242,-50.1911 876.21,-56.8897"/>
</g>
<!-- Node21 -->
<g id="node21" class="node"><title>Node21</title>
<g id="a_node21"><a xlink:href="_graphics_polygon_8cpp_source.html" target="_top" xlink:title="GraphicsPolygon.cpp">
<polygon fill="white" stroke="black" points="860,-0.5 860,-19.5 970,-19.5 970,-0.5 860,-0.5"/>
<text text-anchor="middle" x="915" y="-7.5" font-family="Helvetica,sans-Serif" font-size="10.00">GraphicsPolygon.cpp</text>
</a>
</g>
</g>
<!-- Node20&#45;&gt;Node21 -->
<g id="edge29" class="edge"><title>Node20&#45;&gt;Node21</title>
<path fill="none" stroke="midnightblue" d="M915,-45.8045C915,-36.9102 915,-26.7798 915,-19.7511"/>
<polygon fill="midnightblue" stroke="midnightblue" points="911.5,-46.083 915,-56.083 918.5,-46.083 911.5,-46.083"/>
</g>
<!-- Node22&#45;&gt;Node3 -->
<g id="edge31" class="edge"><title>Node22&#45;&gt;Node3</title>
<path fill="none" stroke="midnightblue" d="M373.006,-275.685C359.755,-268.091 344.737,-257.4 335,-244 317.307,-219.651 316,-209.098 316,-179 316,-179 316,-179 316,-121 316,-80.161 344.137,-37.3767 357.326,-19.565"/>
<polygon fill="midnightblue" stroke="midnightblue" points="371.35,-278.768 381.811,-280.443 374.677,-272.61 371.35,-278.768"/>
</g>
<!-- Node23 -->
<g id="node23" class="node"><title>Node23</title>
<g id="a_node23"><a xlink:href="_graphics_triangle_8cpp_source.html" target="_top" xlink:title="GraphicsTriangle.cpp">
<polygon fill="white" stroke="black" points="344.5,-224.5 344.5,-243.5 453.5,-243.5 453.5,-224.5 344.5,-224.5"/>
<text text-anchor="middle" x="399" y="-231.5" font-family="Helvetica,sans-Serif" font-size="10.00">GraphicsTriangle.cpp</text>
</a>
</g>
</g>
<!-- Node22&#45;&gt;Node23 -->
<g id="edge32" class="edge"><title>Node22&#45;&gt;Node23</title>
<path fill="none" stroke="midnightblue" d="M400.289,-269.805C399.96,-260.91 399.584,-250.78 399.324,-243.751"/>
<polygon fill="midnightblue" stroke="midnightblue" points="396.802,-270.219 400.67,-280.083 403.797,-269.96 396.802,-270.219"/>
</g>
</g>
</svg>
