<?xml version="1.0" encoding="UTF-8" standalone="no"?>
<!DOCTYPE svg PUBLIC "-//W3C//DTD SVG 1.1//EN"
 "http://www.w3.org/Graphics/SVG/1.1/DTD/svg11.dtd">
<!-- Generated by graphviz version 2.36.0 (20140111.2315)
 -->
<!-- Title: GraphicsShape.hpp Pages: 1 -->
<!--zoomable 308 -->
<svg id="main" version="1.1" xmlns="http://www.w3.org/2000/svg" xmlns:xlink="http://www.w3.org/1999/xlink" xml:space="preserve" onload="init(evt)">
<style type="text/css"><![CDATA[
.edge:hover path { stroke: red; }
.edge:hover polygon { stroke: red; fill: red; }
]]></style>
<script type="text/javascript"><![CDATA[
var edges = document.getElementsByTagName('g');
if (edges && edges.length) {
  for (var i=0;i<edges.length;i++) {
    if (edges[i].id.substr(0,4)=='edge') {
      edges[i].setAttribute('class','edge');
    }
  }
}
]]></script>
        <defs>
                <circle id="rim" cx="0" cy="0" r="7"/>
                <circle id="rim2" cx="0" cy="0" r="3.5"/>
                <g id="zoomPlus">
                        <use xlink:href="#rim" fill="#404040">
                                <set attributeName="fill" to="#808080" begin="zoomplus.mouseover" end="zoomplus.mouseout"/>
                        </use>
                        <path d="M-4,0h8M0,-4v8" fill="none" stroke="white" stroke-width="1.5" pointer-events="none"/>
                </g>
                <g id="zoomMin">
                        <use xlink:href="#rim" fill="#404040">
                                <set attributeName="fill" to="#808080" begin="zoomminus.mouseover" end="zoomminus.mouseout"/>
                        </use>
                        <path d="M-4,0h8" fill="none" stroke="white" stroke-width="1.5" pointer-events="none"/>
                </g>
                <g id="dirArrow">
                        <path fill="none" stroke="white" stroke-width="1.5" d="M0,-3.0v7 M-2.5,-0.5L0,-3.0L2.5,-0.5"/>
                </g>
               <g id="resetDef">
                       <use xlink:href="#rim2" fill="#404040">
                               <set attributeName="fill" to="#808080" begin="reset.mouseover" end="reset.mouseout"/>
                       </use>
               </g>
        </defs>

<script type="text/javascript">
var viewWidth = 847;
var viewHeight = 308;
var sectionId = 'dynsection-0';
</script>
<script xlink:href="svgpan.js"/>
<svg id="graph" class="graph">
<g id="viewport">
<title>GraphicsShape.hpp</title>
<polygon fill="white" stroke="none" points="-4,4 -4,-304 843,-304 843,4 -4,4"/>
<!-- Node1 -->
<g id="node1" class="node"><title>Node1</title>
<polygon fill="#bfbfbf" stroke="black" points="53,-280.5 53,-299.5 155,-299.5 155,-280.5 53,-280.5"/>
<text text-anchor="middle" x="104" y="-287.5" font-family="Helvetica,sans-Serif" font-size="10.00">GraphicsShape.hpp</text>
</g>
<!-- Node2 -->
<g id="node2" class="node"><title>Node2</title>
<polygon fill="white" stroke="#bfbfbf" points="0,-56.5 0,-75.5 44,-75.5 44,-56.5 0,-56.5"/>
<text text-anchor="middle" x="22" y="-63.5" font-family="Helvetica,sans-Serif" font-size="10.00">vector</text>
</g>
<!-- Node1&#45;&gt;Node2 -->
<g id="edge1" class="edge"><title>Node1&#45;&gt;Node2</title>
<path fill="none" stroke="midnightblue" d="M95.4046,-280.406C79.4955,-263.978 45.4909,-226.331 28,-188 13.804,-156.89 13.7353,-146.121 16,-112 16.5747,-103.341 17.7651,-93.8054 18.9351,-85.7496"/>
<polygon fill="midnightblue" stroke="midnightblue" points="22.4363,-86.0109 20.5092,-75.5928 15.5189,-84.9388 22.4363,-86.0109"/>
</g>
<!-- Node3 -->
<g id="node3" class="node"><title>Node3</title>
<g id="a_node3"><a xlink:href="_graphics_item_8hpp.html" target="_top" xlink:title="Classe GraphicsItem. ">
<polygon fill="white" stroke="black" points="174,-224.5 174,-243.5 268,-243.5 268,-224.5 174,-224.5"/>
<text text-anchor="middle" x="221" y="-231.5" font-family="Helvetica,sans-Serif" font-size="10.00">GraphicsItem.hpp</text>
</a>
</g>
</g>
<!-- Node1&#45;&gt;Node3 -->
<g id="edge2" class="edge"><title>Node1&#45;&gt;Node3</title>
<path fill="none" stroke="midnightblue" d="M122.539,-280.444C141.623,-271.636 171.575,-257.812 193.436,-247.722"/>
<polygon fill="midnightblue" stroke="midnightblue" points="194.935,-250.885 202.548,-243.516 192.001,-244.529 194.935,-250.885"/>
</g>
<!-- Node3&#45;&gt;Node2 -->
<g id="edge3" class="edge"><title>Node3&#45;&gt;Node2</title>
<path fill="none" stroke="midnightblue" d="M173.591,-226.783C127.339,-219.729 61.4679,-206.719 44,-188 17.987,-160.124 17.5602,-112.262 19.6815,-85.8599"/>
<polygon fill="midnightblue" stroke="midnightblue" points="23.1866,-85.9859 20.716,-75.6832 16.2225,-85.2779 23.1866,-85.9859"/>
</g>
<!-- Node4 -->
<g id="node4" class="node"><title>Node4</title>
<polygon fill="white" stroke="#bfbfbf" points="53.5,-168.5 53.5,-187.5 88.5,-187.5 88.5,-168.5 53.5,-168.5"/>
<text text-anchor="middle" x="71" y="-175.5" font-family="Helvetica,sans-Serif" font-size="10.00">map</text>
</g>
<!-- Node3&#45;&gt;Node4 -->
<g id="edge4" class="edge"><title>Node3&#45;&gt;Node4</title>
<path fill="none" stroke="midnightblue" d="M197.232,-224.444C170.304,-214.749 126.498,-198.979 98.2195,-188.799"/>
<polygon fill="midnightblue" stroke="midnightblue" points="99.1582,-185.417 88.5638,-185.323 96.7871,-192.003 99.1582,-185.417"/>
</g>
<!-- Node5 -->
<g id="node5" class="node"><title>Node5</title>
<polygon fill="white" stroke="#bfbfbf" points="62,-56.5 62,-75.5 114,-75.5 114,-56.5 62,-56.5"/>
<text text-anchor="middle" x="88" y="-63.5" font-family="Helvetica,sans-Serif" font-size="10.00">memory</text>
</g>
<!-- Node3&#45;&gt;Node5 -->
<g id="edge5" class="edge"><title>Node3&#45;&gt;Node5</title>
<path fill="none" stroke="midnightblue" d="M194.07,-224.377C175.561,-217.234 151.602,-205.407 136,-188 109.195,-158.095 96.475,-111.403 91.2015,-85.6401"/>
<polygon fill="midnightblue" stroke="midnightblue" points="94.6196,-84.8784 89.328,-75.6997 87.7407,-86.1749 94.6196,-84.8784"/>
</g>
<!-- Node6 -->
<g id="node6" class="node"><title>Node6</title>
<g id="a_node6"><a xlink:href="_color_8hpp.html" target="_top" xlink:title="Classe Color. ">
<polygon fill="white" stroke="black" points="758.5,-168.5 758.5,-187.5 817.5,-187.5 817.5,-168.5 758.5,-168.5"/>
<text text-anchor="middle" x="788" y="-175.5" font-family="Helvetica,sans-Serif" font-size="10.00">Color.hpp</text>
</a>
</g>
</g>
<!-- Node3&#45;&gt;Node6 -->
<g id="edge6" class="edge"><title>Node3&#45;&gt;Node6</title>
<path fill="none" stroke="midnightblue" d="M268.242,-231.221C359.251,-227.309 565.293,-216.093 748.203,-187.891"/>
<polygon fill="midnightblue" stroke="midnightblue" points="748.935,-191.319 758.274,-186.317 747.854,-184.403 748.935,-191.319"/>
</g>
<!-- Node10 -->
<g id="node10" class="node"><title>Node10</title>
<g id="a_node10"><a xlink:href="_canvas_8hpp_source.html" target="_top" xlink:title="Canvas.hpp">
<polygon fill="white" stroke="black" points="145.5,-168.5 145.5,-187.5 214.5,-187.5 214.5,-168.5 145.5,-168.5"/>
<text text-anchor="middle" x="180" y="-175.5" font-family="Helvetica,sans-Serif" font-size="10.00">Canvas.hpp</text>
</a>
</g>
</g>
<!-- Node3&#45;&gt;Node10 -->
<g id="edge10" class="edge"><title>Node3&#45;&gt;Node10</title>
<path fill="none" stroke="midnightblue" d="M214.23,-224.083C208.438,-216.455 199.942,-205.264 192.862,-195.941"/>
<polygon fill="midnightblue" stroke="midnightblue" points="195.479,-193.599 186.644,-187.751 189.904,-197.832 195.479,-193.599"/>
</g>
<!-- Node16 -->
<g id="node16" class="node"><title>Node16</title>
<g id="a_node16"><a xlink:href="_event_8hpp.html" target="_top" xlink:title="Classe Event. ">
<polygon fill="white" stroke="black" points="232.5,-168.5 232.5,-187.5 293.5,-187.5 293.5,-168.5 232.5,-168.5"/>
<text text-anchor="middle" x="263" y="-175.5" font-family="Helvetica,sans-Serif" font-size="10.00">Event.hpp</text>
</a>
</g>
</g>
<!-- Node3&#45;&gt;Node16 -->
<g id="edge21" class="edge"><title>Node3&#45;&gt;Node16</title>
<path fill="none" stroke="midnightblue" d="M227.935,-224.083C233.929,-216.377 242.752,-205.033 250.048,-195.653"/>
<polygon fill="midnightblue" stroke="midnightblue" points="252.817,-197.793 256.194,-187.751 247.291,-193.496 252.817,-197.793"/>
</g>
<!-- Node17 -->
<g id="node17" class="node"><title>Node17</title>
<polygon fill="white" stroke="#bfbfbf" points="311.5,-168.5 311.5,-187.5 412.5,-187.5 412.5,-168.5 311.5,-168.5"/>
<text text-anchor="middle" x="362" y="-175.5" font-family="Helvetica,sans-Serif" font-size="10.00">boost/uuid/uuid.hpp</text>
</g>
<!-- Node3&#45;&gt;Node17 -->
<g id="edge24" class="edge"><title>Node3&#45;&gt;Node17</title>
<path fill="none" stroke="midnightblue" d="M243.342,-224.444C266.753,-215.478 303.736,-201.314 330.19,-191.183"/>
<polygon fill="midnightblue" stroke="midnightblue" points="331.676,-194.361 339.763,-187.516 329.172,-187.824 331.676,-194.361"/>
</g>
<!-- Node18 -->
<g id="node18" class="node"><title>Node18</title>
<polygon fill="white" stroke="#bfbfbf" points="431,-168.5 431,-187.5 583,-187.5 583,-168.5 431,-168.5"/>
<text text-anchor="middle" x="507" y="-175.5" font-family="Helvetica,sans-Serif" font-size="10.00">boost/uuid/uuid_generators.hpp</text>
</g>
<!-- Node3&#45;&gt;Node18 -->
<g id="edge25" class="edge"><title>Node3&#45;&gt;Node18</title>
<path fill="none" stroke="midnightblue" d="M266.318,-224.444C316.628,-214.944 397.838,-199.611 451.813,-189.42"/>
<polygon fill="midnightblue" stroke="midnightblue" points="452.717,-192.811 461.894,-187.516 451.419,-185.933 452.717,-192.811"/>
</g>
<!-- Node19 -->
<g id="node19" class="node"><title>Node19</title>
<polygon fill="white" stroke="#bfbfbf" points="601.5,-168.5 601.5,-187.5 740.5,-187.5 740.5,-168.5 601.5,-168.5"/>
<text text-anchor="middle" x="671" y="-175.5" font-family="Helvetica,sans-Serif" font-size="10.00">boost/core/noncopyable.hpp</text>
</g>
<!-- Node3&#45;&gt;Node19 -->
<g id="edge26" class="edge"><title>Node3&#45;&gt;Node19</title>
<path fill="none" stroke="midnightblue" d="M268.307,-227.323C345.055,-218.113 497.531,-199.816 591.262,-188.569"/>
<polygon fill="midnightblue" stroke="midnightblue" points="591.755,-192.035 601.267,-187.368 590.921,-185.084 591.755,-192.035"/>
</g>
<!-- Node7 -->
<g id="node7" class="node"><title>Node7</title>
<polygon fill="white" stroke="#bfbfbf" points="734,-112.5 734,-131.5 780,-131.5 780,-112.5 734,-112.5"/>
<text text-anchor="middle" x="757" y="-119.5" font-family="Helvetica,sans-Serif" font-size="10.00">cstdint</text>
</g>
<!-- Node6&#45;&gt;Node7 -->
<g id="edge7" class="edge"><title>Node6&#45;&gt;Node7</title>
<path fill="none" stroke="midnightblue" d="M782.881,-168.083C778.592,-160.613 772.342,-149.724 767.058,-140.52"/>
<polygon fill="midnightblue" stroke="midnightblue" points="770.038,-138.681 762.024,-131.751 763.967,-142.166 770.038,-138.681"/>
</g>
<!-- Node8 -->
<g id="node8" class="node"><title>Node8</title>
<polygon fill="white" stroke="#bfbfbf" points="798.5,-112.5 798.5,-131.5 839.5,-131.5 839.5,-112.5 798.5,-112.5"/>
<text text-anchor="middle" x="819" y="-119.5" font-family="Helvetica,sans-Serif" font-size="10.00">string</text>
</g>
<!-- Node6&#45;&gt;Node8 -->
<g id="edge8" class="edge"><title>Node6&#45;&gt;Node8</title>
<path fill="none" stroke="midnightblue" d="M793.119,-168.083C797.408,-160.613 803.658,-149.724 808.942,-140.52"/>
<polygon fill="midnightblue" stroke="midnightblue" points="812.033,-142.166 813.976,-131.751 805.962,-138.681 812.033,-142.166"/>
</g>
<!-- Node9 -->
<g id="node9" class="node"><title>Node9</title>
<polygon fill="white" stroke="#bfbfbf" points="295,-112.5 295,-131.5 403,-131.5 403,-112.5 295,-112.5"/>
<text text-anchor="middle" x="349" y="-119.5" font-family="Helvetica,sans-Serif" font-size="10.00">ez&#45;lib/ez&#45;draw++.hpp</text>
</g>
<!-- Node6&#45;&gt;Node9 -->
<g id="edge9" class="edge"><title>Node6&#45;&gt;Node9</title>
<path fill="none" stroke="midnightblue" d="M758.261,-169.767C755.144,-169.12 752.014,-168.516 749,-168 631.494,-147.9 492.973,-134.606 413.623,-127.973"/>
<polygon fill="midnightblue" stroke="midnightblue" points="413.555,-124.455 403.3,-127.119 412.978,-131.431 413.555,-124.455"/>
</g>
<!-- Node10&#45;&gt;Node9 -->
<g id="edge11" class="edge"><title>Node10&#45;&gt;Node9</title>
<path fill="none" stroke="midnightblue" d="M206.779,-168.444C235.333,-159.32 280.733,-144.813 312.537,-134.651"/>
<polygon fill="midnightblue" stroke="midnightblue" points="313.886,-137.894 322.347,-131.516 311.756,-131.226 313.886,-137.894"/>
</g>
<!-- Node11 -->
<g id="node11" class="node"><title>Node11</title>
<g id="a_node11"><a xlink:href="_point_8hpp.html" target="_top" xlink:title="Classe point. ">
<polygon fill="white" stroke="black" points="145,-112.5 145,-131.5 203,-131.5 203,-112.5 145,-112.5"/>
<text text-anchor="middle" x="174" y="-119.5" font-family="Helvetica,sans-Serif" font-size="10.00">Point.hpp</text>
</a>
</g>
</g>
<!-- Node10&#45;&gt;Node11 -->
<g id="edge12" class="edge"><title>Node10&#45;&gt;Node11</title>
<path fill="none" stroke="midnightblue" d="M179.009,-168.083C178.214,-160.927 177.071,-150.635 176.077,-141.691"/>
<polygon fill="midnightblue" stroke="midnightblue" points="179.555,-141.303 174.972,-131.751 172.598,-142.076 179.555,-141.303"/>
</g>
<!-- Node15 -->
<g id="node15" class="node"><title>Node15</title>
<g id="a_node15"><a xlink:href="_font_8hpp_source.html" target="_top" xlink:title="Font.hpp">
<polygon fill="white" stroke="black" points="221.5,-112.5 221.5,-131.5 276.5,-131.5 276.5,-112.5 221.5,-112.5"/>
<text text-anchor="middle" x="249" y="-119.5" font-family="Helvetica,sans-Serif" font-size="10.00">Font.hpp</text>
</a>
</g>
</g>
<!-- Node10&#45;&gt;Node15 -->
<g id="edge19" class="edge"><title>Node10&#45;&gt;Node15</title>
<path fill="none" stroke="midnightblue" d="M191.086,-168.324C201.486,-160.185 217.261,-147.839 229.722,-138.087"/>
<polygon fill="midnightblue" stroke="midnightblue" points="231.994,-140.753 237.712,-131.834 227.68,-135.241 231.994,-140.753"/>
</g>
<!-- Node11&#45;&gt;Node2 -->
<g id="edge14" class="edge"><title>Node11&#45;&gt;Node2</title>
<path fill="none" stroke="midnightblue" d="M149.915,-112.444C124.006,-103.239 82.6775,-88.5565 54.0398,-78.3826"/>
<polygon fill="midnightblue" stroke="midnightblue" points="55.0803,-75.038 44.4856,-74.9883 52.7369,-81.6341 55.0803,-75.038"/>
</g>
<!-- Node11&#45;&gt;Node5 -->
<g id="edge15" class="edge"><title>Node11&#45;&gt;Node5</title>
<path fill="none" stroke="midnightblue" d="M160.183,-112.324C146.767,-103.9 126.176,-90.9709 110.414,-81.0741"/>
<polygon fill="midnightblue" stroke="midnightblue" points="112.113,-78.0081 101.783,-75.6545 108.391,-83.9364 112.113,-78.0081"/>
</g>
<!-- Node12 -->
<g id="node12" class="node"><title>Node12</title>
<polygon fill="white" stroke="#bfbfbf" points="240,-56.5 240,-75.5 294,-75.5 294,-56.5 240,-56.5"/>
<text text-anchor="middle" x="267" y="-63.5" font-family="Helvetica,sans-Serif" font-size="10.00">iostream</text>
</g>
<!-- Node11&#45;&gt;Node12 -->
<g id="edge13" class="edge"><title>Node11&#45;&gt;Node12</title>
<path fill="none" stroke="midnightblue" d="M188.942,-112.324C203.585,-103.822 226.134,-90.7288 243.238,-80.7975"/>
<polygon fill="midnightblue" stroke="midnightblue" points="245.205,-83.7027 252.095,-75.6545 241.69,-77.6491 245.205,-83.7027"/>
</g>
<!-- Node13 -->
<g id="node13" class="node"><title>Node13</title>
<g id="a_node13"><a xlink:href="_group_points_8hpp_source.html" target="_top" xlink:title="GroupPoints.hpp">
<polygon fill="white" stroke="black" points="132.5,-56.5 132.5,-75.5 221.5,-75.5 221.5,-56.5 132.5,-56.5"/>
<text text-anchor="middle" x="177" y="-63.5" font-family="Helvetica,sans-Serif" font-size="10.00">GroupPoints.hpp</text>
</a>
</g>
</g>
<!-- Node11&#45;&gt;Node13 -->
<g id="edge16" class="edge"><title>Node11&#45;&gt;Node13</title>
<path fill="none" stroke="midnightblue" d="M169.329,-112.083C168.217,-104.927 168.358,-94.6353 169.504,-85.6911"/>
<polygon fill="midnightblue" stroke="midnightblue" points="172.965,-86.2272 171.383,-75.7511 166.086,-84.9271 172.965,-86.2272"/>
</g>
<!-- Node13&#45;&gt;Node11 -->
<g id="edge18" class="edge"><title>Node13&#45;&gt;Node11</title>
<path fill="none" stroke="midnightblue" d="M181.645,-75.7511C182.776,-82.8579 182.652,-93.1357 181.522,-102.101"/>
<polygon fill="midnightblue" stroke="midnightblue" points="178.053,-101.611 179.662,-112.083 184.935,-102.894 178.053,-101.611"/>
</g>
<!-- Node14 -->
<g id="node14" class="node"><title>Node14</title>
<polygon fill="white" stroke="#bfbfbf" points="147.5,-0.5 147.5,-19.5 206.5,-19.5 206.5,-0.5 147.5,-0.5"/>
<text text-anchor="middle" x="177" y="-7.5" font-family="Helvetica,sans-Serif" font-size="10.00">functional</text>
</g>
<!-- Node13&#45;&gt;Node14 -->
<g id="edge17" class="edge"><title>Node13&#45;&gt;Node14</title>
<path fill="none" stroke="midnightblue" d="M177,-56.083C177,-49.0059 177,-38.8611 177,-29.9865"/>
<polygon fill="midnightblue" stroke="midnightblue" points="180.5,-29.751 177,-19.7511 173.5,-29.7511 180.5,-29.751"/>
</g>
<!-- Node15&#45;&gt;Node12 -->
<g id="edge20" class="edge"><title>Node15&#45;&gt;Node12</title>
<path fill="none" stroke="midnightblue" d="M251.972,-112.083C254.384,-104.849 257.864,-94.4087 260.868,-85.3968"/>
<polygon fill="midnightblue" stroke="midnightblue" points="264.241,-86.3447 264.083,-75.7511 257.6,-84.1311 264.241,-86.3447"/>
</g>
<!-- Node16&#45;&gt;Node9 -->
<g id="edge23" class="edge"><title>Node16&#45;&gt;Node9</title>
<path fill="none" stroke="midnightblue" d="M276.817,-168.324C290.233,-159.9 310.824,-146.971 326.586,-137.074"/>
<polygon fill="midnightblue" stroke="midnightblue" points="328.609,-139.936 335.217,-131.655 324.887,-134.008 328.609,-139.936"/>
</g>
<!-- Node16&#45;&gt;Node12 -->
<g id="edge22" class="edge"><title>Node16&#45;&gt;Node12</title>
<path fill="none" stroke="midnightblue" d="M293.722,-169.786C335.206,-159.74 404.811,-141.681 412,-132 441.851,-91.8018 356.493,-75.9308 304.281,-70.0976"/>
<polygon fill="midnightblue" stroke="midnightblue" points="304.318,-66.5827 294.01,-69.0302 303.594,-73.5452 304.318,-66.5827"/>
</g>
</g>
</svg>
        <g id="navigator" transform="translate(0 0)" fill="#404254">
                <rect fill="#f2f5e9" fill-opacity="0.5" stroke="#606060" stroke-width=".5" x="0" y="0" width="60" height="60"/>
                <use id="zoomplus" xlink:href="#zoomPlus" x="17" y="9" onmousedown="handleZoom(evt,'in')"/>
                <use id="zoomminus" xlink:href="#zoomMin" x="42" y="9" onmousedown="handleZoom(evt,'out')"/>
                <use id="reset" xlink:href="#resetDef" x="30" y="36" onmousedown="handleReset()"/>
                <g id="arrowUp" xlink:href="#dirArrow" transform="translate(30 24)" onmousedown="handlePan(0,-1)">
                  <use xlink:href="#rim" fill="#404040">
                        <set attributeName="fill" to="#808080" begin="arrowUp.mouseover" end="arrowUp.mouseout"/>
                  </use>
                  <path fill="none" stroke="white" stroke-width="1.5" d="M0,-3.0v7 M-2.5,-0.5L0,-3.0L2.5,-0.5"/>
                </g>
                <g id="arrowRight" xlink:href="#dirArrow" transform="rotate(90) translate(36 -43)" onmousedown="handlePan(1,0)">
                  <use xlink:href="#rim" fill="#404040">
                        <set attributeName="fill" to="#808080" begin="arrowRight.mouseover" end="arrowRight.mouseout"/>
                  </use>
                  <path fill="none" stroke="white" stroke-width="1.5" d="M0,-3.0v7 M-2.5,-0.5L0,-3.0L2.5,-0.5"/>
                </g>
                <g id="arrowDown" xlink:href="#dirArrow" transform="rotate(180) translate(-30 -48)" onmousedown="handlePan(0,1)">
                  <use xlink:href="#rim" fill="#404040">
                        <set attributeName="fill" to="#808080" begin="arrowDown.mouseover" end="arrowDown.mouseout"/>
                  </use>
                  <path fill="none" stroke="white" stroke-width="1.5" d="M0,-3.0v7 M-2.5,-0.5L0,-3.0L2.5,-0.5"/>
                </g>
                <g id="arrowLeft" xlink:href="#dirArrow" transform="rotate(270) translate(-36 17)" onmousedown="handlePan(-1,0)">
                  <use xlink:href="#rim" fill="#404040">
                        <set attributeName="fill" to="#808080" begin="arrowLeft.mouseover" end="arrowLeft.mouseout"/>
                  </use>
                  <path fill="none" stroke="white" stroke-width="1.5" d="M0,-3.0v7 M-2.5,-0.5L0,-3.0L2.5,-0.5"/>
                </g>
        </g>
        <svg viewBox="0 0 15 15" width="100%" height="30px" preserveAspectRatio="xMaxYMin meet">
         <g id="arrow_out" transform="scale(0.3 0.3)">
          <a xlink:href="_graphics_shape_8hpp__incl_org.svg" target="_base">
           <rect id="button" ry="5" rx="5" y="6" x="6" height="38" width="38"
                fill="#f2f5e9" fill-opacity="0.5" stroke="#606060" stroke-width="1.0"/>
           <path id="arrow"
             d="M 11.500037,31.436501 C 11.940474,20.09759 22.043105,11.32322 32.158766,21.979434 L 37.068811,17.246167 C 37.068811,17.246167 37.088388,32 37.088388,32 L 22.160133,31.978069 C 22.160133,31.978069 26.997745,27.140456 26.997745,27.140456 C 18.528582,18.264221 13.291696,25.230495 11.500037,31.436501 z"
             style="fill:#404040;"/>
          </a>
         </g>
        </svg>
</svg>
