<?xml version="1.0" encoding="UTF-8" standalone="no"?>
<!DOCTYPE svg PUBLIC "-//W3C//DTD SVG 1.1//EN"
 "http://www.w3.org/Graphics/SVG/1.1/DTD/svg11.dtd">
<!-- Generated by graphviz version 2.36.0 (20140111.2315)
 -->
<!-- Title: GraphicsText.hpp Pages: 1 -->
<svg width="319pt" height="196pt"
 viewBox="0.00 0.00 319.00 196.00" xmlns="http://www.w3.org/2000/svg" xmlns:xlink="http://www.w3.org/1999/xlink">
<g id="graph0" class="graph" transform="scale(1 1) rotate(0) translate(4 192)">
<title>GraphicsText.hpp</title>
<polygon fill="white" stroke="none" points="-4,4 -4,-192 315,-192 315,4 -4,4"/>
<!-- Node1 -->
<g id="node1" class="node"><title>Node1</title>
<polygon fill="#bfbfbf" stroke="black" points="95,-168.5 95,-187.5 189,-187.5 189,-168.5 95,-168.5"/>
<text text-anchor="middle" x="142" y="-175.5" font-family="Helvetica,sans-Serif" font-size="10.00">GraphicsText.hpp</text>
</g>
<!-- Node2 -->
<g id="node2" class="node"><title>Node2</title>
<g id="a_node2"><a xlink:href="_graphics_text_8cpp_source.html" target="_top" xlink:title="GraphicsText.cpp">
<polygon fill="white" stroke="black" points="0,-112.5 0,-131.5 94,-131.5 94,-112.5 0,-112.5"/>
<text text-anchor="middle" x="47" y="-119.5" font-family="Helvetica,sans-Serif" font-size="10.00">GraphicsText.cpp</text>
</a>
</g>
</g>
<!-- Node1&#45;&gt;Node2 -->
<g id="edge1" class="edge"><title>Node1&#45;&gt;Node2</title>
<path fill="none" stroke="midnightblue" d="M117.682,-163.177C100.201,-153.241 77.1699,-140.149 62.2255,-131.655"/>
<polygon fill="midnightblue" stroke="midnightblue" points="116.313,-166.425 126.737,-168.324 119.773,-160.339 116.313,-166.425"/>
</g>
<!-- Node3 -->
<g id="node3" class="node"><title>Node3</title>
<g id="a_node3"><a xlink:href="_label_8hpp_source.html" target="_top" xlink:title="Label.hpp">
<polygon fill="white" stroke="black" points="112.5,-112.5 112.5,-131.5 171.5,-131.5 171.5,-112.5 112.5,-112.5"/>
<text text-anchor="middle" x="142" y="-119.5" font-family="Helvetica,sans-Serif" font-size="10.00">Label.hpp</text>
</a>
</g>
</g>
<!-- Node1&#45;&gt;Node3 -->
<g id="edge2" class="edge"><title>Node1&#45;&gt;Node3</title>
<path fill="none" stroke="midnightblue" d="M142,-157.805C142,-148.91 142,-138.78 142,-131.751"/>
<polygon fill="midnightblue" stroke="midnightblue" points="138.5,-158.083 142,-168.083 145.5,-158.083 138.5,-158.083"/>
</g>
<!-- Node8 -->
<g id="node8" class="node"><title>Node8</title>
<g id="a_node8"><a xlink:href="_line_edit_8hpp_source.html" target="_top" xlink:title="LineEdit.hpp">
<polygon fill="white" stroke="black" points="189.5,-112.5 189.5,-131.5 260.5,-131.5 260.5,-112.5 189.5,-112.5"/>
<text text-anchor="middle" x="225" y="-119.5" font-family="Helvetica,sans-Serif" font-size="10.00">LineEdit.hpp</text>
</a>
</g>
</g>
<!-- Node1&#45;&gt;Node8 -->
<g id="edge7" class="edge"><title>Node1&#45;&gt;Node8</title>
<path fill="none" stroke="midnightblue" d="M164.099,-162.622C179.262,-152.757 198.883,-139.992 211.698,-131.655"/>
<polygon fill="midnightblue" stroke="midnightblue" points="161.809,-159.937 155.335,-168.324 165.626,-165.804 161.809,-159.937"/>
</g>
<!-- Node4 -->
<g id="node4" class="node"><title>Node4</title>
<g id="a_node4"><a xlink:href="_button_8hpp.html" target="_top" xlink:title="Classe Button. ">
<polygon fill="white" stroke="black" points="42,-56.5 42,-75.5 106,-75.5 106,-56.5 42,-56.5"/>
<text text-anchor="middle" x="74" y="-63.5" font-family="Helvetica,sans-Serif" font-size="10.00">Button.hpp</text>
</a>
</g>
</g>
<!-- Node3&#45;&gt;Node4 -->
<g id="edge3" class="edge"><title>Node3&#45;&gt;Node4</title>
<path fill="none" stroke="midnightblue" d="M123.238,-106.101C111,-96.3824 95.4413,-84.0269 85.1242,-75.8339"/>
<polygon fill="midnightblue" stroke="midnightblue" points="121.067,-108.846 131.075,-112.324 125.42,-103.364 121.067,-108.846"/>
</g>
<!-- Node7 -->
<g id="node7" class="node"><title>Node7</title>
<g id="a_node7"><a xlink:href="_label_8cpp_source.html" target="_top" xlink:title="Label.cpp">
<polygon fill="white" stroke="black" points="124.5,-56.5 124.5,-75.5 183.5,-75.5 183.5,-56.5 124.5,-56.5"/>
<text text-anchor="middle" x="154" y="-63.5" font-family="Helvetica,sans-Serif" font-size="10.00">Label.cpp</text>
</a>
</g>
</g>
<!-- Node3&#45;&gt;Node7 -->
<g id="edge6" class="edge"><title>Node3&#45;&gt;Node7</title>
<path fill="none" stroke="midnightblue" d="M146.2,-102.101C148.192,-93.1357 150.476,-82.8579 152.055,-75.7511"/>
<polygon fill="midnightblue" stroke="midnightblue" points="142.734,-101.562 143.982,-112.083 149.568,-103.08 142.734,-101.562"/>
</g>
<!-- Node5 -->
<g id="node5" class="node"><title>Node5</title>
<g id="a_node5"><a xlink:href="_main_window_8cpp_source.html" target="_top" xlink:title="MainWindow.cpp">
<polygon fill="white" stroke="black" points="145,-0.5 145,-19.5 237,-19.5 237,-0.5 145,-0.5"/>
<text text-anchor="middle" x="191" y="-7.5" font-family="Helvetica,sans-Serif" font-size="10.00">MainWindow.cpp</text>
</a>
</g>
</g>
<!-- Node4&#45;&gt;Node5 -->
<g id="edge4" class="edge"><title>Node4&#45;&gt;Node5</title>
<path fill="none" stroke="midnightblue" d="M101.664,-52.2321C123.549,-42.1312 153.497,-28.3091 172.548,-19.5164"/>
<polygon fill="midnightblue" stroke="midnightblue" points="100.152,-49.075 92.539,-56.4435 103.085,-55.4308 100.152,-49.075"/>
</g>
<!-- Node6 -->
<g id="node6" class="node"><title>Node6</title>
<g id="a_node6"><a xlink:href="_button_8cpp_source.html" target="_top" xlink:title="Button.cpp">
<polygon fill="white" stroke="black" points="42,-0.5 42,-19.5 106,-19.5 106,-0.5 42,-0.5"/>
<text text-anchor="middle" x="74" y="-7.5" font-family="Helvetica,sans-Serif" font-size="10.00">Button.cpp</text>
</a>
</g>
</g>
<!-- Node4&#45;&gt;Node6 -->
<g id="edge5" class="edge"><title>Node4&#45;&gt;Node6</title>
<path fill="none" stroke="midnightblue" d="M74,-45.8045C74,-36.9102 74,-26.7798 74,-19.7511"/>
<polygon fill="midnightblue" stroke="midnightblue" points="70.5001,-46.083 74,-56.083 77.5001,-46.083 70.5001,-46.083"/>
</g>
<!-- Node8&#45;&gt;Node5 -->
<g id="edge8" class="edge"><title>Node8&#45;&gt;Node5</title>
<path fill="none" stroke="midnightblue" d="M219.336,-102.674C211.902,-78.6248 199.156,-37.3881 193.656,-19.5914"/>
<polygon fill="midnightblue" stroke="midnightblue" points="216.035,-103.848 222.332,-112.368 222.723,-101.781 216.035,-103.848"/>
</g>
<!-- Node9 -->
<g id="node9" class="node"><title>Node9</title>
<g id="a_node9"><a xlink:href="_line_edit_8cpp_source.html" target="_top" xlink:title="LineEdit.cpp">
<polygon fill="white" stroke="black" points="240.5,-56.5 240.5,-75.5 311.5,-75.5 311.5,-56.5 240.5,-56.5"/>
<text text-anchor="middle" x="276" y="-63.5" font-family="Helvetica,sans-Serif" font-size="10.00">LineEdit.cpp</text>
</a>
</g>
</g>
<!-- Node8&#45;&gt;Node9 -->
<g id="edge9" class="edge"><title>Node8&#45;&gt;Node9</title>
<path fill="none" stroke="midnightblue" d="M240.378,-104.718C249.367,-95.1997 260.359,-83.5608 267.735,-75.7511"/>
<polygon fill="midnightblue" stroke="midnightblue" points="237.743,-102.41 233.422,-112.083 242.832,-107.216 237.743,-102.41"/>
</g>
</g>
</svg>
