<?xml version="1.0" encoding="UTF-8" standalone="no"?>
<!DOCTYPE svg PUBLIC "-//W3C//DTD SVG 1.1//EN"
 "http://www.w3.org/Graphics/SVG/1.1/DTD/svg11.dtd">
<!-- Generated by graphviz version 2.36.0 (20140111.2315)
 -->
<!-- Title: GraphicsAnimation.hpp Pages: 1 -->
<svg width="404pt" height="140pt"
 viewBox="0.00 0.00 404.00 140.00" xmlns="http://www.w3.org/2000/svg" xmlns:xlink="http://www.w3.org/1999/xlink">
<g id="graph0" class="graph" transform="scale(1 1) rotate(0) translate(4 136)">
<title>GraphicsAnimation.hpp</title>
<polygon fill="white" stroke="none" points="-4,4 -4,-136 400,-136 400,4 -4,4"/>
<!-- Node1 -->
<g id="node1" class="node"><title>Node1</title>
<polygon fill="#bfbfbf" stroke="black" points="204,-112.5 204,-131.5 322,-131.5 322,-112.5 204,-112.5"/>
<text text-anchor="middle" x="263" y="-119.5" font-family="Helvetica,sans-Serif" font-size="10.00">GraphicsAnimation.hpp</text>
</g>
<!-- Node2 -->
<g id="node2" class="node"><title>Node2</title>
<g id="a_node2"><a xlink:href="_graphics_blink_animation_8hpp.html" target="_top" xlink:title="GraphicsBlinkAnimation.hpp">
<polygon fill="white" stroke="black" points="120,-56.5 120,-75.5 260,-75.5 260,-56.5 120,-56.5"/>
<text text-anchor="middle" x="190" y="-63.5" font-family="Helvetica,sans-Serif" font-size="10.00">GraphicsBlinkAnimation.hpp</text>
</a>
</g>
</g>
<!-- Node1&#45;&gt;Node2 -->
<g id="edge1" class="edge"><title>Node1&#45;&gt;Node2</title>
<path fill="none" stroke="midnightblue" d="M242.858,-106.101C229.721,-96.3824 213.018,-84.0269 201.942,-75.8339"/>
<polygon fill="midnightblue" stroke="midnightblue" points="241.15,-109.191 251.271,-112.324 245.313,-103.563 241.15,-109.191"/>
</g>
<!-- Node6 -->
<g id="node6" class="node"><title>Node6</title>
<g id="a_node6"><a xlink:href="_graphics_animation_8cpp.html" target="_top" xlink:title="GraphicsAnimation.cpp">
<polygon fill="white" stroke="black" points="278,-56.5 278,-75.5 396,-75.5 396,-56.5 278,-56.5"/>
<text text-anchor="middle" x="337" y="-63.5" font-family="Helvetica,sans-Serif" font-size="10.00">GraphicsAnimation.cpp</text>
</a>
</g>
</g>
<!-- Node1&#45;&gt;Node6 -->
<g id="edge5" class="edge"><title>Node1&#45;&gt;Node6</title>
<path fill="none" stroke="midnightblue" d="M283.034,-106.38C296.409,-96.6204 313.559,-84.1057 324.894,-75.8339"/>
<polygon fill="midnightblue" stroke="midnightblue" points="280.904,-103.602 274.889,-112.324 285.03,-109.257 280.904,-103.602"/>
</g>
<!-- Node3 -->
<g id="node3" class="node"><title>Node3</title>
<g id="a_node3"><a xlink:href="_graphics_blink_animation_8cpp.html" target="_top" xlink:title="GraphicsBlinkAnimation.cpp">
<polygon fill="white" stroke="black" points="0,-0.5 0,-19.5 140,-19.5 140,-0.5 0,-0.5"/>
<text text-anchor="middle" x="70" y="-7.5" font-family="Helvetica,sans-Serif" font-size="10.00">GraphicsBlinkAnimation.cpp</text>
</a>
</g>
</g>
<!-- Node2&#45;&gt;Node3 -->
<g id="edge2" class="edge"><title>Node2&#45;&gt;Node3</title>
<path fill="none" stroke="midnightblue" d="M161.627,-52.2321C139.18,-42.1312 108.465,-28.3091 88.9254,-19.5164"/>
<polygon fill="midnightblue" stroke="midnightblue" points="160.43,-55.5316 170.986,-56.4435 163.303,-49.1481 160.43,-55.5316"/>
</g>
<!-- Node4 -->
<g id="node4" class="node"><title>Node4</title>
<g id="a_node4"><a xlink:href="_button_8cpp.html" target="_top" xlink:title="Button.cpp">
<polygon fill="white" stroke="black" points="158,-0.5 158,-19.5 222,-19.5 222,-0.5 158,-0.5"/>
<text text-anchor="middle" x="190" y="-7.5" font-family="Helvetica,sans-Serif" font-size="10.00">Button.cpp</text>
</a>
</g>
</g>
<!-- Node2&#45;&gt;Node4 -->
<g id="edge3" class="edge"><title>Node2&#45;&gt;Node4</title>
<path fill="none" stroke="midnightblue" d="M190,-45.8045C190,-36.9102 190,-26.7798 190,-19.7511"/>
<polygon fill="midnightblue" stroke="midnightblue" points="186.5,-46.083 190,-56.083 193.5,-46.083 186.5,-46.083"/>
</g>
<!-- Node5 -->
<g id="node5" class="node"><title>Node5</title>
<g id="a_node5"><a xlink:href="_line_edit_8cpp.html" target="_top" xlink:title="LineEdit.cpp">
<polygon fill="white" stroke="black" points="240.5,-0.5 240.5,-19.5 311.5,-19.5 311.5,-0.5 240.5,-0.5"/>
<text text-anchor="middle" x="276" y="-7.5" font-family="Helvetica,sans-Serif" font-size="10.00">LineEdit.cpp</text>
</a>
</g>
</g>
<!-- Node2&#45;&gt;Node5 -->
<g id="edge4" class="edge"><title>Node2&#45;&gt;Node5</title>
<path fill="none" stroke="midnightblue" d="M212.455,-50.9005C228.224,-40.9986 248.814,-28.0705 262.217,-19.6545"/>
<polygon fill="midnightblue" stroke="midnightblue" points="210.425,-48.0421 203.817,-56.324 214.148,-53.9704 210.425,-48.0421"/>
</g>
</g>
</svg>
