<?xml version="1.0" encoding="UTF-8" standalone="no"?>
<!DOCTYPE svg PUBLIC "-//W3C//DTD SVG 1.1//EN"
 "http://www.w3.org/Graphics/SVG/1.1/DTD/svg11.dtd">
<!-- Generated by graphviz version 2.36.0 (20140111.2315)
 -->
<!-- Title: KeyEvent.hpp Pages: 1 -->
<svg width="201pt" height="140pt"
 viewBox="0.00 0.00 201.00 140.00" xmlns="http://www.w3.org/2000/svg" xmlns:xlink="http://www.w3.org/1999/xlink">
<g id="graph0" class="graph" transform="scale(1 1) rotate(0) translate(4 136)">
<title>KeyEvent.hpp</title>
<polygon fill="white" stroke="none" points="-4,4 -4,-136 197,-136 197,4 -4,4"/>
<!-- Node1 -->
<g id="node1" class="node"><title>Node1</title>
<polygon fill="#bfbfbf" stroke="black" points="16,-112.5 16,-131.5 94,-131.5 94,-112.5 16,-112.5"/>
<text text-anchor="middle" x="55" y="-119.5" font-family="Helvetica,sans-Serif" font-size="10.00">KeyEvent.hpp</text>
</g>
<!-- Node2 -->
<g id="node2" class="node"><title>Node2</title>
<polygon fill="white" stroke="#bfbfbf" points="0.5,-56.5 0.5,-75.5 41.5,-75.5 41.5,-56.5 0.5,-56.5"/>
<text text-anchor="middle" x="21" y="-63.5" font-family="Helvetica,sans-Serif" font-size="10.00">string</text>
</g>
<!-- Node1&#45;&gt;Node2 -->
<g id="edge1" class="edge"><title>Node1&#45;&gt;Node2</title>
<path fill="none" stroke="midnightblue" d="M49.3856,-112.083C44.6326,-104.534 37.6819,-93.4948 31.8484,-84.2298"/>
<polygon fill="midnightblue" stroke="midnightblue" points="34.7999,-82.3486 26.5099,-75.7511 28.8763,-86.0783 34.7999,-82.3486"/>
</g>
<!-- Node3 -->
<g id="node3" class="node"><title>Node3</title>
<g id="a_node3"><a xlink:href="_event_8hpp.html" target="_top" xlink:title="Classe Event. ">
<polygon fill="white" stroke="black" points="59.5,-56.5 59.5,-75.5 120.5,-75.5 120.5,-56.5 59.5,-56.5"/>
<text text-anchor="middle" x="90" y="-63.5" font-family="Helvetica,sans-Serif" font-size="10.00">Event.hpp</text>
</a>
</g>
</g>
<!-- Node1&#45;&gt;Node3 -->
<g id="edge2" class="edge"><title>Node1&#45;&gt;Node3</title>
<path fill="none" stroke="midnightblue" d="M60.7795,-112.083C65.6724,-104.534 72.8274,-93.4948 78.8326,-84.2298"/>
<polygon fill="midnightblue" stroke="midnightblue" points="81.826,-86.0463 84.328,-75.7511 75.952,-82.239 81.826,-86.0463"/>
</g>
<!-- Node4 -->
<g id="node4" class="node"><title>Node4</title>
<polygon fill="white" stroke="#bfbfbf" points="13,-0.5 13,-19.5 67,-19.5 67,-0.5 13,-0.5"/>
<text text-anchor="middle" x="40" y="-7.5" font-family="Helvetica,sans-Serif" font-size="10.00">iostream</text>
</g>
<!-- Node3&#45;&gt;Node4 -->
<g id="edge3" class="edge"><title>Node3&#45;&gt;Node4</title>
<path fill="none" stroke="midnightblue" d="M81.7435,-56.083C74.5353,-48.2982 63.8902,-36.8015 55.1542,-27.3665"/>
<polygon fill="midnightblue" stroke="midnightblue" points="57.4651,-24.7108 48.1028,-19.7511 52.3288,-29.4666 57.4651,-24.7108"/>
</g>
<!-- Node5 -->
<g id="node5" class="node"><title>Node5</title>
<polygon fill="white" stroke="#bfbfbf" points="85,-0.5 85,-19.5 193,-19.5 193,-0.5 85,-0.5"/>
<text text-anchor="middle" x="139" y="-7.5" font-family="Helvetica,sans-Serif" font-size="10.00">ez&#45;lib/ez&#45;draw++.hpp</text>
</g>
<!-- Node3&#45;&gt;Node5 -->
<g id="edge4" class="edge"><title>Node3&#45;&gt;Node5</title>
<path fill="none" stroke="midnightblue" d="M98.0914,-56.083C105.155,-48.2982 115.588,-36.8015 124.149,-27.3665"/>
<polygon fill="midnightblue" stroke="midnightblue" points="126.931,-29.5087 131.059,-19.7511 121.747,-24.8047 126.931,-29.5087"/>
</g>
</g>
</svg>
