<?xml version="1.0" encoding="UTF-8" standalone="no"?>
<!DOCTYPE svg PUBLIC "-//W3C//DTD SVG 1.1//EN"
 "http://www.w3.org/Graphics/SVG/1.1/DTD/svg11.dtd">
<!-- Generated by graphviz version 2.36.0 (20140111.2315)
 -->
<!-- Title: KeyEvent.cpp Pages: 1 -->
<svg width="213pt" height="196pt"
 viewBox="0.00 0.00 213.00 196.00" xmlns="http://www.w3.org/2000/svg" xmlns:xlink="http://www.w3.org/1999/xlink">
<g id="graph0" class="graph" transform="scale(1 1) rotate(0) translate(4 192)">
<title>KeyEvent.cpp</title>
<polygon fill="white" stroke="none" points="-4,4 -4,-192 209,-192 209,4 -4,4"/>
<!-- Node1 -->
<g id="node1" class="node"><title>Node1</title>
<polygon fill="#bfbfbf" stroke="black" points="21,-168.5 21,-187.5 99,-187.5 99,-168.5 21,-168.5"/>
<text text-anchor="middle" x="60" y="-175.5" font-family="Helvetica,sans-Serif" font-size="10.00">KeyEvent.cpp</text>
</g>
<!-- Node2 -->
<g id="node2" class="node"><title>Node2</title>
<g id="a_node2"><a xlink:href="_key_event_8hpp.html" target="_top" xlink:title="Classe KeyEvent. ">
<polygon fill="white" stroke="black" points="-0.5,-112.5 -0.5,-131.5 120.5,-131.5 120.5,-112.5 -0.5,-112.5"/>
<text text-anchor="middle" x="60" y="-119.5" font-family="Helvetica,sans-Serif" font-size="10.00">../include/KeyEvent.hpp</text>
</a>
</g>
</g>
<!-- Node1&#45;&gt;Node2 -->
<g id="edge1" class="edge"><title>Node1&#45;&gt;Node2</title>
<path fill="none" stroke="midnightblue" d="M60,-168.083C60,-161.006 60,-150.861 60,-141.986"/>
<polygon fill="midnightblue" stroke="midnightblue" points="63.5001,-141.751 60,-131.751 56.5001,-141.751 63.5001,-141.751"/>
</g>
<!-- Node3 -->
<g id="node3" class="node"><title>Node3</title>
<polygon fill="white" stroke="#bfbfbf" points="5.5,-56.5 5.5,-75.5 46.5,-75.5 46.5,-56.5 5.5,-56.5"/>
<text text-anchor="middle" x="26" y="-63.5" font-family="Helvetica,sans-Serif" font-size="10.00">string</text>
</g>
<!-- Node2&#45;&gt;Node3 -->
<g id="edge2" class="edge"><title>Node2&#45;&gt;Node3</title>
<path fill="none" stroke="midnightblue" d="M54.3856,-112.083C49.6326,-104.534 42.6819,-93.4948 36.8484,-84.2298"/>
<polygon fill="midnightblue" stroke="midnightblue" points="39.7999,-82.3486 31.5099,-75.7511 33.8763,-86.0783 39.7999,-82.3486"/>
</g>
<!-- Node4 -->
<g id="node4" class="node"><title>Node4</title>
<g id="a_node4"><a xlink:href="_event_8hpp.html" target="_top" xlink:title="Classe Event. ">
<polygon fill="white" stroke="black" points="64.5,-56.5 64.5,-75.5 125.5,-75.5 125.5,-56.5 64.5,-56.5"/>
<text text-anchor="middle" x="95" y="-63.5" font-family="Helvetica,sans-Serif" font-size="10.00">Event.hpp</text>
</a>
</g>
</g>
<!-- Node2&#45;&gt;Node4 -->
<g id="edge3" class="edge"><title>Node2&#45;&gt;Node4</title>
<path fill="none" stroke="midnightblue" d="M65.7795,-112.083C70.6724,-104.534 77.8274,-93.4948 83.8326,-84.2298"/>
<polygon fill="midnightblue" stroke="midnightblue" points="86.826,-86.0463 89.328,-75.7511 80.952,-82.239 86.826,-86.0463"/>
</g>
<!-- Node5 -->
<g id="node5" class="node"><title>Node5</title>
<polygon fill="white" stroke="#bfbfbf" points="16,-0.5 16,-19.5 70,-19.5 70,-0.5 16,-0.5"/>
<text text-anchor="middle" x="43" y="-7.5" font-family="Helvetica,sans-Serif" font-size="10.00">iostream</text>
</g>
<!-- Node4&#45;&gt;Node5 -->
<g id="edge4" class="edge"><title>Node4&#45;&gt;Node5</title>
<path fill="none" stroke="midnightblue" d="M86.4133,-56.083C78.841,-48.2195 67.6218,-36.5688 58.4856,-27.0813"/>
<polygon fill="midnightblue" stroke="midnightblue" points="60.8845,-24.5266 51.427,-19.7511 55.8423,-29.3821 60.8845,-24.5266"/>
</g>
<!-- Node6 -->
<g id="node6" class="node"><title>Node6</title>
<polygon fill="white" stroke="#bfbfbf" points="88.5,-0.5 88.5,-19.5 205.5,-19.5 205.5,-0.5 88.5,-0.5"/>
<text text-anchor="middle" x="147" y="-7.5" font-family="Helvetica,sans-Serif" font-size="10.00">../ez&#45;lib/ez&#45;draw++.hpp</text>
</g>
<!-- Node4&#45;&gt;Node6 -->
<g id="edge5" class="edge"><title>Node4&#45;&gt;Node6</title>
<path fill="none" stroke="midnightblue" d="M103.587,-56.083C111.159,-48.2195 122.378,-36.5688 131.514,-27.0813"/>
<polygon fill="midnightblue" stroke="midnightblue" points="134.158,-29.3821 138.573,-19.7511 129.115,-24.5266 134.158,-29.3821"/>
</g>
</g>
</svg>
