<?xml version="1.0" encoding="UTF-8" standalone="no"?>
<!DOCTYPE svg PUBLIC "-//W3C//DTD SVG 1.1//EN"
 "http://www.w3.org/Graphics/SVG/1.1/DTD/svg11.dtd">
<!-- Generated by graphviz version 2.36.0 (20140111.2315)
 -->
<!-- Title: KeyEvent.hpp Pages: 1 -->
<svg width="353pt" height="196pt"
 viewBox="0.00 0.00 353.00 196.00" xmlns="http://www.w3.org/2000/svg" xmlns:xlink="http://www.w3.org/1999/xlink">
<g id="graph0" class="graph" transform="scale(1 1) rotate(0) translate(4 192)">
<title>KeyEvent.hpp</title>
<polygon fill="white" stroke="none" points="-4,4 -4,-192 349,-192 349,4 -4,4"/>
<!-- Node1 -->
<g id="node1" class="node"><title>Node1</title>
<polygon fill="#bfbfbf" stroke="black" points="178,-168.5 178,-187.5 256,-187.5 256,-168.5 178,-168.5"/>
<text text-anchor="middle" x="217" y="-175.5" font-family="Helvetica,sans-Serif" font-size="10.00">KeyEvent.hpp</text>
</g>
<!-- Node2 -->
<g id="node2" class="node"><title>Node2</title>
<g id="a_node2"><a xlink:href="_window_8hpp_source.html" target="_top" xlink:title="Window.hpp">
<polygon fill="white" stroke="black" points="88.5,-112.5 88.5,-131.5 159.5,-131.5 159.5,-112.5 88.5,-112.5"/>
<text text-anchor="middle" x="124" y="-119.5" font-family="Helvetica,sans-Serif" font-size="10.00">Window.hpp</text>
</a>
</g>
</g>
<!-- Node1&#45;&gt;Node2 -->
<g id="edge1" class="edge"><title>Node1&#45;&gt;Node2</title>
<path fill="none" stroke="midnightblue" d="M193.194,-163.177C176.081,-153.241 153.535,-140.149 138.905,-131.655"/>
<polygon fill="midnightblue" stroke="midnightblue" points="191.653,-166.329 202.058,-168.324 195.168,-160.276 191.653,-166.329"/>
</g>
<!-- Node7 -->
<g id="node7" class="node"><title>Node7</title>
<g id="a_node7"><a xlink:href="_key_event_8cpp_source.html" target="_top" xlink:title="KeyEvent.cpp">
<polygon fill="white" stroke="black" points="178,-112.5 178,-131.5 256,-131.5 256,-112.5 178,-112.5"/>
<text text-anchor="middle" x="217" y="-119.5" font-family="Helvetica,sans-Serif" font-size="10.00">KeyEvent.cpp</text>
</a>
</g>
</g>
<!-- Node1&#45;&gt;Node7 -->
<g id="edge6" class="edge"><title>Node1&#45;&gt;Node7</title>
<path fill="none" stroke="midnightblue" d="M217,-157.805C217,-148.91 217,-138.78 217,-131.751"/>
<polygon fill="midnightblue" stroke="midnightblue" points="213.5,-158.083 217,-168.083 220.5,-158.083 213.5,-158.083"/>
</g>
<!-- Node8 -->
<g id="node8" class="node"><title>Node8</title>
<g id="a_node8"><a xlink:href="_line_edit_8cpp_source.html" target="_top" xlink:title="LineEdit.cpp">
<polygon fill="white" stroke="black" points="274.5,-112.5 274.5,-131.5 345.5,-131.5 345.5,-112.5 274.5,-112.5"/>
<text text-anchor="middle" x="310" y="-119.5" font-family="Helvetica,sans-Serif" font-size="10.00">LineEdit.cpp</text>
</a>
</g>
</g>
<!-- Node1&#45;&gt;Node8 -->
<g id="edge7" class="edge"><title>Node1&#45;&gt;Node8</title>
<path fill="none" stroke="midnightblue" d="M240.806,-163.177C257.919,-153.241 280.465,-140.149 295.095,-131.655"/>
<polygon fill="midnightblue" stroke="midnightblue" points="238.832,-160.276 231.942,-168.324 242.347,-166.329 238.832,-160.276"/>
</g>
<!-- Node3 -->
<g id="node3" class="node"><title>Node3</title>
<g id="a_node3"><a xlink:href="_main_window_8hpp_source.html" target="_top" xlink:title="MainWindow.hpp">
<polygon fill="white" stroke="black" points="28,-56.5 28,-75.5 120,-75.5 120,-56.5 28,-56.5"/>
<text text-anchor="middle" x="74" y="-63.5" font-family="Helvetica,sans-Serif" font-size="10.00">MainWindow.hpp</text>
</a>
</g>
</g>
<!-- Node2&#45;&gt;Node3 -->
<g id="edge2" class="edge"><title>Node2&#45;&gt;Node3</title>
<path fill="none" stroke="midnightblue" d="M108.924,-104.718C100.111,-95.1997 89.3341,-83.5608 82.1028,-75.7511"/>
<polygon fill="midnightblue" stroke="midnightblue" points="106.381,-107.123 115.744,-112.083 111.518,-102.367 106.381,-107.123"/>
</g>
<!-- Node6 -->
<g id="node6" class="node"><title>Node6</title>
<g id="a_node6"><a xlink:href="_window_8cpp_source.html" target="_top" xlink:title="Window.cpp">
<polygon fill="white" stroke="black" points="138.5,-56.5 138.5,-75.5 209.5,-75.5 209.5,-56.5 138.5,-56.5"/>
<text text-anchor="middle" x="174" y="-63.5" font-family="Helvetica,sans-Serif" font-size="10.00">Window.cpp</text>
</a>
</g>
</g>
<!-- Node2&#45;&gt;Node6 -->
<g id="edge5" class="edge"><title>Node2&#45;&gt;Node6</title>
<path fill="none" stroke="midnightblue" d="M139.076,-104.718C147.889,-95.1997 158.666,-83.5608 165.897,-75.7511"/>
<polygon fill="midnightblue" stroke="midnightblue" points="136.482,-102.367 132.256,-112.083 141.619,-107.123 136.482,-102.367"/>
</g>
<!-- Node4 -->
<g id="node4" class="node"><title>Node4</title>
<g id="a_node4"><a xlink:href="main_8cpp_source.html" target="_top" xlink:title="main.cpp">
<polygon fill="white" stroke="black" points="0,-0.5 0,-19.5 56,-19.5 56,-0.5 0,-0.5"/>
<text text-anchor="middle" x="28" y="-7.5" font-family="Helvetica,sans-Serif" font-size="10.00">main.cpp</text>
</a>
</g>
</g>
<!-- Node3&#45;&gt;Node4 -->
<g id="edge3" class="edge"><title>Node3&#45;&gt;Node4</title>
<path fill="none" stroke="midnightblue" d="M59.886,-48.4314C51.824,-38.9673 42.0408,-27.4827 35.4546,-19.7511"/>
<polygon fill="midnightblue" stroke="midnightblue" points="57.255,-50.7402 66.404,-56.083 62.5837,-46.2009 57.255,-50.7402"/>
</g>
<!-- Node5 -->
<g id="node5" class="node"><title>Node5</title>
<g id="a_node5"><a xlink:href="_main_window_8cpp_source.html" target="_top" xlink:title="MainWindow.cpp">
<polygon fill="white" stroke="black" points="74,-0.5 74,-19.5 166,-19.5 166,-0.5 74,-0.5"/>
<text text-anchor="middle" x="120" y="-7.5" font-family="Helvetica,sans-Serif" font-size="10.00">MainWindow.cpp</text>
</a>
</g>
</g>
<!-- Node3&#45;&gt;Node5 -->
<g id="edge4" class="edge"><title>Node3&#45;&gt;Node5</title>
<path fill="none" stroke="midnightblue" d="M88.114,-48.4314C96.176,-38.9673 105.959,-27.4827 112.545,-19.7511"/>
<polygon fill="midnightblue" stroke="midnightblue" points="85.4163,-46.2009 81.596,-56.083 90.745,-50.7402 85.4163,-46.2009"/>
</g>
</g>
</svg>
