<?xml version="1.0" encoding="UTF-8" standalone="no"?>
<!DOCTYPE svg PUBLIC "-//W3C//DTD SVG 1.1//EN"
 "http://www.w3.org/Graphics/SVG/1.1/DTD/svg11.dtd">
<!-- Generated by graphviz version 2.36.0 (20140111.2315)
 -->
<!-- Title: LineEdit.hpp Pages: 1 -->
<!--zoomable 364 -->
<svg id="main" version="1.1" xmlns="http://www.w3.org/2000/svg" xmlns:xlink="http://www.w3.org/1999/xlink" xml:space="preserve" onload="init(evt)">
<style type="text/css"><![CDATA[
.edge:hover path { stroke: red; }
.edge:hover polygon { stroke: red; fill: red; }
]]></style>
<script type="text/javascript"><![CDATA[
var edges = document.getElementsByTagName('g');
if (edges && edges.length) {
  for (var i=0;i<edges.length;i++) {
    if (edges[i].id.substr(0,4)=='edge') {
      edges[i].setAttribute('class','edge');
    }
  }
}
]]></script>
        <defs>
                <circle id="rim" cx="0" cy="0" r="7"/>
                <circle id="rim2" cx="0" cy="0" r="3.5"/>
                <g id="zoomPlus">
                        <use xlink:href="#rim" fill="#404040">
                                <set attributeName="fill" to="#808080" begin="zoomplus.mouseover" end="zoomplus.mouseout"/>
                        </use>
                        <path d="M-4,0h8M0,-4v8" fill="none" stroke="white" stroke-width="1.5" pointer-events="none"/>
                </g>
                <g id="zoomMin">
                        <use xlink:href="#rim" fill="#404040">
                                <set attributeName="fill" to="#808080" begin="zoomminus.mouseover" end="zoomminus.mouseout"/>
                        </use>
                        <path d="M-4,0h8" fill="none" stroke="white" stroke-width="1.5" pointer-events="none"/>
                </g>
                <g id="dirArrow">
                        <path fill="none" stroke="white" stroke-width="1.5" d="M0,-3.0v7 M-2.5,-0.5L0,-3.0L2.5,-0.5"/>
                </g>
               <g id="resetDef">
                       <use xlink:href="#rim2" fill="#404040">
                               <set attributeName="fill" to="#808080" begin="reset.mouseover" end="reset.mouseout"/>
                       </use>
               </g>
        </defs>

<script type="text/javascript">
var viewWidth = 726;
var viewHeight = 364;
var sectionId = 'dynsection-0';
</script>
<script xlink:href="svgpan.js"/>
<svg id="graph" class="graph">
<g id="viewport">
<title>LineEdit.hpp</title>
<polygon fill="white" stroke="none" points="-4,4 -4,-360 722,-360 722,4 -4,4"/>
<!-- Node1 -->
<g id="node1" class="node"><title>Node1</title>
<polygon fill="#bfbfbf" stroke="black" points="446.5,-336.5 446.5,-355.5 517.5,-355.5 517.5,-336.5 446.5,-336.5"/>
<text text-anchor="middle" x="482" y="-343.5" font-family="Helvetica,sans-Serif" font-size="10.00">LineEdit.hpp</text>
</g>
<!-- Node2 -->
<g id="node2" class="node"><title>Node2</title>
<g id="a_node2"><a xlink:href="_widget_8hpp.html" target="_top" xlink:title="Widget.hpp">
<polygon fill="white" stroke="black" points="378,-280.5 378,-299.5 444,-299.5 444,-280.5 378,-280.5"/>
<text text-anchor="middle" x="411" y="-287.5" font-family="Helvetica,sans-Serif" font-size="10.00">Widget.hpp</text>
</a>
</g>
</g>
<!-- Node1&#45;&gt;Node2 -->
<g id="edge1" class="edge"><title>Node1&#45;&gt;Node2</title>
<path fill="none" stroke="midnightblue" d="M470.593,-336.324C459.891,-328.185 443.659,-315.839 430.837,-306.087"/>
<polygon fill="midnightblue" stroke="midnightblue" points="432.693,-303.102 422.615,-299.834 428.456,-308.673 432.693,-303.102"/>
</g>
<!-- Node23 -->
<g id="node23" class="node"><title>Node23</title>
<g id="a_node23"><a xlink:href="_graphics_rectangle_8hpp.html" target="_top" xlink:title="GraphicsRectangle.hpp">
<polygon fill="white" stroke="black" points="478.5,-280.5 478.5,-299.5 597.5,-299.5 597.5,-280.5 478.5,-280.5"/>
<text text-anchor="middle" x="538" y="-287.5" font-family="Helvetica,sans-Serif" font-size="10.00">GraphicsRectangle.hpp</text>
</a>
</g>
</g>
<!-- Node1&#45;&gt;Node23 -->
<g id="edge28" class="edge"><title>Node1&#45;&gt;Node23</title>
<path fill="none" stroke="midnightblue" d="M490.997,-336.324C499.194,-328.42 511.506,-316.548 521.472,-306.938"/>
<polygon fill="midnightblue" stroke="midnightblue" points="524.07,-309.295 528.839,-299.834 519.211,-304.256 524.07,-309.295"/>
</g>
<!-- Node25 -->
<g id="node25" class="node"><title>Node25</title>
<g id="a_node25"><a xlink:href="_graphics_text_8hpp.html" target="_top" xlink:title="Classe GraphicsText. ">
<polygon fill="white" stroke="black" points="122,-224.5 122,-243.5 216,-243.5 216,-224.5 122,-224.5"/>
<text text-anchor="middle" x="169" y="-231.5" font-family="Helvetica,sans-Serif" font-size="10.00">GraphicsText.hpp</text>
</a>
</g>
</g>
<!-- Node1&#45;&gt;Node25 -->
<g id="edge31" class="edge"><title>Node1&#45;&gt;Node25</title>
<path fill="none" stroke="midnightblue" d="M457.7,-336.46C402.346,-317.006 266.756,-269.355 203.079,-246.977"/>
<polygon fill="midnightblue" stroke="midnightblue" points="204.095,-243.624 193.5,-243.61 201.774,-250.228 204.095,-243.624"/>
</g>
<!-- Node26 -->
<g id="node26" class="node"><title>Node26</title>
<g id="a_node26"><a xlink:href="_graphics_line_8hpp.html" target="_top" xlink:title="GraphicsLine.hpp">
<polygon fill="white" stroke="black" points="618,-280.5 618,-299.5 710,-299.5 710,-280.5 618,-280.5"/>
<text text-anchor="middle" x="664" y="-287.5" font-family="Helvetica,sans-Serif" font-size="10.00">GraphicsLine.hpp</text>
</a>
</g>
</g>
<!-- Node1&#45;&gt;Node26 -->
<g id="edge34" class="edge"><title>Node1&#45;&gt;Node26</title>
<path fill="none" stroke="midnightblue" d="M510.838,-336.444C541.856,-327.241 591.329,-312.562 625.618,-302.388"/>
<polygon fill="midnightblue" stroke="midnightblue" points="626.705,-305.716 635.296,-299.516 624.714,-299.006 626.705,-305.716"/>
</g>
<!-- Node3 -->
<g id="node3" class="node"><title>Node3</title>
<polygon fill="white" stroke="#bfbfbf" points="332.5,-224.5 332.5,-243.5 459.5,-243.5 459.5,-224.5 332.5,-224.5"/>
<text text-anchor="middle" x="396" y="-231.5" font-family="Helvetica,sans-Serif" font-size="10.00">boost/signals2/signal.hpp</text>
</g>
<!-- Node2&#45;&gt;Node3 -->
<g id="edge2" class="edge"><title>Node2&#45;&gt;Node3</title>
<path fill="none" stroke="midnightblue" d="M408.523,-280.083C406.514,-272.849 403.614,-262.409 401.11,-253.397"/>
<polygon fill="midnightblue" stroke="midnightblue" points="404.48,-252.449 398.431,-243.751 397.735,-254.323 404.48,-252.449"/>
</g>
<!-- Node4 -->
<g id="node4" class="node"><title>Node4</title>
<polygon fill="white" stroke="#bfbfbf" points="234,-224.5 234,-243.5 314,-243.5 314,-224.5 234,-224.5"/>
<text text-anchor="middle" x="274" y="-231.5" font-family="Helvetica,sans-Serif" font-size="10.00">boost/bind.hpp</text>
</g>
<!-- Node2&#45;&gt;Node4 -->
<g id="edge3" class="edge"><title>Node2&#45;&gt;Node4</title>
<path fill="none" stroke="midnightblue" d="M389.292,-280.444C366.645,-271.517 330.928,-257.439 305.248,-247.317"/>
<polygon fill="midnightblue" stroke="midnightblue" points="306.193,-243.927 295.606,-243.516 303.626,-250.44 306.193,-243.927"/>
</g>
<!-- Node5 -->
<g id="node5" class="node"><title>Node5</title>
<g id="a_node5"><a xlink:href="_graphics_item_8hpp.html" target="_top" xlink:title="Classe GraphicsItem. ">
<polygon fill="white" stroke="black" points="448,-168.5 448,-187.5 542,-187.5 542,-168.5 448,-168.5"/>
<text text-anchor="middle" x="495" y="-175.5" font-family="Helvetica,sans-Serif" font-size="10.00">GraphicsItem.hpp</text>
</a>
</g>
</g>
<!-- Node2&#45;&gt;Node5 -->
<g id="edge4" class="edge"><title>Node2&#45;&gt;Node5</title>
<path fill="none" stroke="midnightblue" d="M425.85,-280.319C438.505,-272.278 456.431,-259.278 468,-244 478.594,-230.01 485.798,-211.261 490.083,-197.495"/>
<polygon fill="midnightblue" stroke="midnightblue" points="493.497,-198.287 492.902,-187.709 486.77,-196.35 493.497,-198.287"/>
</g>
<!-- Node6 -->
<g id="node6" class="node"><title>Node6</title>
<polygon fill="white" stroke="#bfbfbf" points="0,-0.5 0,-19.5 44,-19.5 44,-0.5 0,-0.5"/>
<text text-anchor="middle" x="22" y="-7.5" font-family="Helvetica,sans-Serif" font-size="10.00">vector</text>
</g>
<!-- Node5&#45;&gt;Node6 -->
<g id="edge5" class="edge"><title>Node5&#45;&gt;Node6</title>
<path fill="none" stroke="midnightblue" d="M448.842,-168.47C409.767,-160.695 352.534,-147.995 304,-132 206.994,-100.031 97.1234,-48.0819 48.0628,-24.009"/>
<polygon fill="midnightblue" stroke="midnightblue" points="49.6,-20.8646 39.0833,-19.5803 46.5036,-27.1426 49.6,-20.8646"/>
</g>
<!-- Node7 -->
<g id="node7" class="node"><title>Node7</title>
<polygon fill="white" stroke="#bfbfbf" points="487,-112.5 487,-131.5 517,-131.5 517,-112.5 487,-112.5"/>
<text text-anchor="middle" x="502" y="-119.5" font-family="Helvetica,sans-Serif" font-size="10.00">set</text>
</g>
<!-- Node5&#45;&gt;Node7 -->
<g id="edge6" class="edge"><title>Node5&#45;&gt;Node7</title>
<path fill="none" stroke="midnightblue" d="M496.156,-168.083C497.084,-160.927 498.418,-150.635 499.577,-141.691"/>
<polygon fill="midnightblue" stroke="midnightblue" points="503.051,-142.118 500.866,-131.751 496.109,-141.218 503.051,-142.118"/>
</g>
<!-- Node8 -->
<g id="node8" class="node"><title>Node8</title>
<polygon fill="white" stroke="#bfbfbf" points="535,-112.5 535,-131.5 587,-131.5 587,-112.5 535,-112.5"/>
<text text-anchor="middle" x="561" y="-119.5" font-family="Helvetica,sans-Serif" font-size="10.00">memory</text>
</g>
<!-- Node5&#45;&gt;Node8 -->
<g id="edge7" class="edge"><title>Node5&#45;&gt;Node8</title>
<path fill="none" stroke="midnightblue" d="M505.604,-168.324C515.456,-160.263 530.351,-148.077 542.215,-138.369"/>
<polygon fill="midnightblue" stroke="midnightblue" points="544.68,-140.875 550.203,-131.834 540.247,-135.457 544.68,-140.875"/>
</g>
<!-- Node9 -->
<g id="node9" class="node"><title>Node9</title>
<g id="a_node9"><a xlink:href="_color_8hpp.html" target="_top" xlink:title="Classe Color. ">
<polygon fill="white" stroke="black" points="409.5,-112.5 409.5,-131.5 468.5,-131.5 468.5,-112.5 409.5,-112.5"/>
<text text-anchor="middle" x="439" y="-119.5" font-family="Helvetica,sans-Serif" font-size="10.00">Color.hpp</text>
</a>
</g>
</g>
<!-- Node5&#45;&gt;Node9 -->
<g id="edge8" class="edge"><title>Node5&#45;&gt;Node9</title>
<path fill="none" stroke="midnightblue" d="M486.003,-168.324C477.806,-160.42 465.494,-148.548 455.528,-138.938"/>
<polygon fill="midnightblue" stroke="midnightblue" points="457.789,-136.256 448.161,-131.834 452.93,-141.295 457.789,-136.256"/>
</g>
<!-- Node13 -->
<g id="node13" class="node"><title>Node13</title>
<g id="a_node13"><a xlink:href="_canvas_8hpp.html" target="_top" xlink:title="Canvas.hpp">
<polygon fill="white" stroke="black" points="313.5,-112.5 313.5,-131.5 382.5,-131.5 382.5,-112.5 313.5,-112.5"/>
<text text-anchor="middle" x="348" y="-119.5" font-family="Helvetica,sans-Serif" font-size="10.00">Canvas.hpp</text>
</a>
</g>
</g>
<!-- Node5&#45;&gt;Node13 -->
<g id="edge12" class="edge"><title>Node5&#45;&gt;Node13</title>
<path fill="none" stroke="midnightblue" d="M471.707,-168.444C447.193,-159.438 408.404,-145.189 380.8,-135.049"/>
<polygon fill="midnightblue" stroke="midnightblue" points="381.777,-131.679 371.184,-131.516 379.363,-138.25 381.777,-131.679"/>
</g>
<!-- Node22 -->
<g id="node22" class="node"><title>Node22</title>
<g id="a_node22"><a xlink:href="_event_8hpp.html" target="_top" xlink:title="Classe Event. ">
<polygon fill="white" stroke="black" points="605.5,-112.5 605.5,-131.5 666.5,-131.5 666.5,-112.5 605.5,-112.5"/>
<text text-anchor="middle" x="636" y="-119.5" font-family="Helvetica,sans-Serif" font-size="10.00">Event.hpp</text>
</a>
</g>
</g>
<!-- Node5&#45;&gt;Node22 -->
<g id="edge25" class="edge"><title>Node5&#45;&gt;Node22</title>
<path fill="none" stroke="midnightblue" d="M517.342,-168.444C540.753,-159.478 577.736,-145.314 604.19,-135.183"/>
<polygon fill="midnightblue" stroke="midnightblue" points="605.676,-138.361 613.763,-131.516 603.172,-131.824 605.676,-138.361"/>
</g>
<!-- Node10 -->
<g id="node10" class="node"><title>Node10</title>
<polygon fill="white" stroke="#bfbfbf" points="511,-56.5 511,-75.5 557,-75.5 557,-56.5 511,-56.5"/>
<text text-anchor="middle" x="534" y="-63.5" font-family="Helvetica,sans-Serif" font-size="10.00">cstdint</text>
</g>
<!-- Node9&#45;&gt;Node10 -->
<g id="edge9" class="edge"><title>Node9&#45;&gt;Node10</title>
<path fill="none" stroke="midnightblue" d="M454.263,-112.324C469.221,-103.822 492.255,-90.7288 509.727,-80.7975"/>
<polygon fill="midnightblue" stroke="midnightblue" points="511.81,-83.639 518.774,-75.6545 508.351,-77.5534 511.81,-83.639"/>
</g>
<!-- Node11 -->
<g id="node11" class="node"><title>Node11</title>
<polygon fill="white" stroke="#bfbfbf" points="575.5,-56.5 575.5,-75.5 616.5,-75.5 616.5,-56.5 575.5,-56.5"/>
<text text-anchor="middle" x="596" y="-63.5" font-family="Helvetica,sans-Serif" font-size="10.00">string</text>
</g>
<!-- Node9&#45;&gt;Node11 -->
<g id="edge10" class="edge"><title>Node9&#45;&gt;Node11</title>
<path fill="none" stroke="midnightblue" d="M463.877,-112.444C491.412,-102.973 535.807,-87.7032 565.437,-77.512"/>
<polygon fill="midnightblue" stroke="midnightblue" points="566.932,-80.6991 575.25,-74.1368 564.656,-74.0797 566.932,-80.6991"/>
</g>
<!-- Node12 -->
<g id="node12" class="node"><title>Node12</title>
<polygon fill="white" stroke="#bfbfbf" points="385,-56.5 385,-75.5 493,-75.5 493,-56.5 385,-56.5"/>
<text text-anchor="middle" x="439" y="-63.5" font-family="Helvetica,sans-Serif" font-size="10.00">ez&#45;lib/ez&#45;draw++.hpp</text>
</g>
<!-- Node9&#45;&gt;Node12 -->
<g id="edge11" class="edge"><title>Node9&#45;&gt;Node12</title>
<path fill="none" stroke="midnightblue" d="M439,-112.083C439,-105.006 439,-94.8611 439,-85.9865"/>
<polygon fill="midnightblue" stroke="midnightblue" points="442.5,-85.751 439,-75.7511 435.5,-85.7511 442.5,-85.751"/>
</g>
<!-- Node13&#45;&gt;Node12 -->
<g id="edge13" class="edge"><title>Node13&#45;&gt;Node12</title>
<path fill="none" stroke="midnightblue" d="M362.621,-112.324C376.949,-103.822 399.013,-90.7288 415.749,-80.7975"/>
<polygon fill="midnightblue" stroke="midnightblue" points="417.602,-83.7677 424.416,-75.6545 414.03,-77.7478 417.602,-83.7677"/>
</g>
<!-- Node14 -->
<g id="node14" class="node"><title>Node14</title>
<g id="a_node14"><a xlink:href="_point_8hpp.html" target="_top" xlink:title="Classe point. ">
<polygon fill="white" stroke="black" points="235,-56.5 235,-75.5 293,-75.5 293,-56.5 235,-56.5"/>
<text text-anchor="middle" x="264" y="-63.5" font-family="Helvetica,sans-Serif" font-size="10.00">Point.hpp</text>
</a>
</g>
</g>
<!-- Node13&#45;&gt;Node14 -->
<g id="edge14" class="edge"><title>Node13&#45;&gt;Node14</title>
<path fill="none" stroke="midnightblue" d="M334.504,-112.324C321.4,-103.9 301.288,-90.9709 285.893,-81.0741"/>
<polygon fill="midnightblue" stroke="midnightblue" points="287.767,-78.118 277.463,-75.6545 283.982,-84.0063 287.767,-78.118"/>
</g>
<!-- Node21 -->
<g id="node21" class="node"><title>Node21</title>
<g id="a_node21"><a xlink:href="_font_8hpp.html" target="_top" xlink:title="Font.hpp">
<polygon fill="white" stroke="black" points="311.5,-56.5 311.5,-75.5 366.5,-75.5 366.5,-56.5 311.5,-56.5"/>
<text text-anchor="middle" x="339" y="-63.5" font-family="Helvetica,sans-Serif" font-size="10.00">Font.hpp</text>
</a>
</g>
</g>
<!-- Node13&#45;&gt;Node21 -->
<g id="edge23" class="edge"><title>Node13&#45;&gt;Node21</title>
<path fill="none" stroke="midnightblue" d="M346.514,-112.083C345.321,-104.927 343.606,-94.6353 342.115,-85.6911"/>
<polygon fill="midnightblue" stroke="midnightblue" points="345.555,-85.0396 340.459,-75.7511 338.65,-86.1904 345.555,-85.0396"/>
</g>
<!-- Node14&#45;&gt;Node6 -->
<g id="edge19" class="edge"><title>Node14&#45;&gt;Node6</title>
<path fill="none" stroke="midnightblue" d="M234.72,-58.8787C186.227,-48.7241 91.5217,-28.8184 54.2501,-20.0957"/>
<polygon fill="midnightblue" stroke="midnightblue" points="54.8416,-16.6377 44.2985,-17.6831 53.1923,-23.4407 54.8416,-16.6377"/>
</g>
<!-- Node15 -->
<g id="node15" class="node"><title>Node15</title>
<polygon fill="white" stroke="#bfbfbf" points="62.5,-0.5 62.5,-19.5 163.5,-19.5 163.5,-0.5 62.5,-0.5"/>
<text text-anchor="middle" x="113" y="-7.5" font-family="Helvetica,sans-Serif" font-size="10.00">boost/uuid/uuid.hpp</text>
</g>
<!-- Node14&#45;&gt;Node15 -->
<g id="edge15" class="edge"><title>Node14&#45;&gt;Node15</title>
<path fill="none" stroke="midnightblue" d="M240.074,-56.4435C214.781,-47.3986 174.698,-33.064 146.32,-22.9158"/>
<polygon fill="midnightblue" stroke="midnightblue" points="147.409,-19.5882 136.814,-19.5164 145.052,-26.1794 147.409,-19.5882"/>
</g>
<!-- Node16 -->
<g id="node16" class="node"><title>Node16</title>
<polygon fill="white" stroke="#bfbfbf" points="419,-0.5 419,-19.5 571,-19.5 571,-0.5 419,-0.5"/>
<text text-anchor="middle" x="495" y="-7.5" font-family="Helvetica,sans-Serif" font-size="10.00">boost/uuid/uuid_generators.hpp</text>
</g>
<!-- Node14&#45;&gt;Node16 -->
<g id="edge16" class="edge"><title>Node14&#45;&gt;Node16</title>
<path fill="none" stroke="midnightblue" d="M293.044,-58.1102C296.068,-57.3962 299.096,-56.6824 302,-56 352.068,-44.2339 409.472,-30.865 448.573,-21.7771"/>
<polygon fill="midnightblue" stroke="midnightblue" points="449.402,-25.1777 458.351,-19.5051 447.818,-18.3593 449.402,-25.1777"/>
</g>
<!-- Node17 -->
<g id="node17" class="node"><title>Node17</title>
<polygon fill="white" stroke="#bfbfbf" points="589,-0.5 589,-19.5 643,-19.5 643,-0.5 589,-0.5"/>
<text text-anchor="middle" x="616" y="-7.5" font-family="Helvetica,sans-Serif" font-size="10.00">iostream</text>
</g>
<!-- Node14&#45;&gt;Node17 -->
<g id="edge17" class="edge"><title>Node14&#45;&gt;Node17</title>
<path fill="none" stroke="midnightblue" d="M293.395,-57.7199C296.294,-57.0977 299.199,-56.5117 302,-56 421.328,-34.2036 455.778,-42.6669 578.758,-20.0299"/>
<polygon fill="midnightblue" stroke="midnightblue" points="579.763,-23.4026 588.948,-18.1212 578.474,-16.5223 579.763,-23.4026"/>
</g>
<!-- Node18 -->
<g id="node18" class="node"><title>Node18</title>
<polygon fill="white" stroke="#bfbfbf" points="181.5,-0.5 181.5,-19.5 216.5,-19.5 216.5,-0.5 181.5,-0.5"/>
<text text-anchor="middle" x="199" y="-7.5" font-family="Helvetica,sans-Serif" font-size="10.00">map</text>
</g>
<!-- Node14&#45;&gt;Node18 -->
<g id="edge18" class="edge"><title>Node14&#45;&gt;Node18</title>
<path fill="none" stroke="midnightblue" d="M253.557,-56.324C243.854,-48.2631 229.185,-36.0765 217.5,-26.3695"/>
<polygon fill="midnightblue" stroke="midnightblue" points="219.562,-23.532 209.633,-19.8339 215.089,-28.9163 219.562,-23.532"/>
</g>
<!-- Node19 -->
<g id="node19" class="node"><title>Node19</title>
<polygon fill="white" stroke="#bfbfbf" points="234.5,-0.5 234.5,-19.5 293.5,-19.5 293.5,-0.5 234.5,-0.5"/>
<text text-anchor="middle" x="264" y="-7.5" font-family="Helvetica,sans-Serif" font-size="10.00">functional</text>
</g>
<!-- Node14&#45;&gt;Node19 -->
<g id="edge20" class="edge"><title>Node14&#45;&gt;Node19</title>
<path fill="none" stroke="midnightblue" d="M264,-56.083C264,-49.0059 264,-38.8611 264,-29.9865"/>
<polygon fill="midnightblue" stroke="midnightblue" points="267.5,-29.751 264,-19.7511 260.5,-29.7511 267.5,-29.751"/>
</g>
<!-- Node20 -->
<g id="node20" class="node"><title>Node20</title>
<g id="a_node20"><a xlink:href="_group_points_8hpp.html" target="_top" xlink:title="GroupPoints.hpp">
<polygon fill="white" stroke="black" points="311.5,-0.5 311.5,-19.5 400.5,-19.5 400.5,-0.5 311.5,-0.5"/>
<text text-anchor="middle" x="356" y="-7.5" font-family="Helvetica,sans-Serif" font-size="10.00">GroupPoints.hpp</text>
</a>
</g>
</g>
<!-- Node14&#45;&gt;Node20 -->
<g id="edge21" class="edge"><title>Node14&#45;&gt;Node20</title>
<path fill="none" stroke="midnightblue" d="M273.667,-56.324C286.487,-47.7034 308.944,-34.3643 327.274,-24.3855"/>
<polygon fill="midnightblue" stroke="midnightblue" points="328.969,-27.4486 336.145,-19.6545 325.675,-21.2721 328.969,-27.4486"/>
</g>
<!-- Node20&#45;&gt;Node14 -->
<g id="edge22" class="edge"><title>Node20&#45;&gt;Node14</title>
<path fill="none" stroke="midnightblue" d="M346.365,-19.6545C333.561,-28.2672 311.108,-41.6052 292.771,-51.5895"/>
<polygon fill="midnightblue" stroke="midnightblue" points="291.072,-48.5292 283.896,-56.324 294.367,-54.7054 291.072,-48.5292"/>
</g>
<!-- Node21&#45;&gt;Node17 -->
<g id="edge24" class="edge"><title>Node21&#45;&gt;Node17</title>
<path fill="none" stroke="midnightblue" d="M366.837,-58.0269C369.922,-57.3142 373.024,-56.6239 376,-56 463.029,-37.7558 488.244,-39.0599 579.03,-20.0796"/>
<polygon fill="midnightblue" stroke="midnightblue" points="579.862,-23.4812 588.921,-17.9866 578.413,-16.6329 579.862,-23.4812"/>
</g>
<!-- Node22&#45;&gt;Node12 -->
<g id="edge27" class="edge"><title>Node22&#45;&gt;Node12</title>
<path fill="none" stroke="midnightblue" d="M605.219,-112.562C571.587,-103.344 517.542,-88.5293 480.256,-78.3089"/>
<polygon fill="midnightblue" stroke="midnightblue" points="480.785,-74.8246 470.215,-75.5565 478.934,-81.5756 480.785,-74.8246"/>
</g>
<!-- Node22&#45;&gt;Node17 -->
<g id="edge26" class="edge"><title>Node22&#45;&gt;Node17</title>
<path fill="none" stroke="midnightblue" d="M634.589,-112.154C632.571,-99.6331 628.698,-76.034 625,-56 623.389,-47.2739 621.477,-37.6231 619.83,-29.5039"/>
<polygon fill="midnightblue" stroke="midnightblue" points="623.239,-28.7054 617.802,-19.6121 616.381,-30.1114 623.239,-28.7054"/>
</g>
<!-- Node23&#45;&gt;Node5 -->
<g id="edge30" class="edge"><title>Node23&#45;&gt;Node5</title>
<path fill="none" stroke="midnightblue" d="M547.246,-280.38C559.644,-267.733 578.905,-243.534 568,-224 559.844,-209.391 544.78,-198.936 530.446,-191.804"/>
<polygon fill="midnightblue" stroke="midnightblue" points="531.762,-188.557 521.211,-187.586 528.854,-194.924 531.762,-188.557"/>
</g>
<!-- Node24 -->
<g id="node24" class="node"><title>Node24</title>
<polygon fill="white" stroke="#bfbfbf" points="516,-224.5 516,-243.5 560,-243.5 560,-224.5 516,-224.5"/>
<text text-anchor="middle" x="538" y="-231.5" font-family="Helvetica,sans-Serif" font-size="10.00">cmath</text>
</g>
<!-- Node23&#45;&gt;Node24 -->
<g id="edge29" class="edge"><title>Node23&#45;&gt;Node24</title>
<path fill="none" stroke="midnightblue" d="M538,-280.083C538,-273.006 538,-262.861 538,-253.986"/>
<polygon fill="midnightblue" stroke="midnightblue" points="541.5,-253.751 538,-243.751 534.5,-253.751 541.5,-253.751"/>
</g>
<!-- Node25&#45;&gt;Node5 -->
<g id="edge32" class="edge"><title>Node25&#45;&gt;Node5</title>
<path fill="none" stroke="midnightblue" d="M216.055,-225.206C274.682,-215.494 374.8,-198.91 437.797,-188.475"/>
<polygon fill="midnightblue" stroke="midnightblue" points="438.666,-191.879 447.959,-186.792 437.522,-184.973 438.666,-191.879"/>
</g>
<!-- Node25&#45;&gt;Node21 -->
<g id="edge33" class="edge"><title>Node25&#45;&gt;Node21</title>
<path fill="none" stroke="midnightblue" d="M178.14,-224.075C205.594,-197.267 287.6,-117.19 322.732,-82.8851"/>
<polygon fill="midnightblue" stroke="midnightblue" points="325.516,-85.0587 330.225,-75.5681 320.625,-80.0504 325.516,-85.0587"/>
</g>
<!-- Node27 -->
<g id="node27" class="node"><title>Node27</title>
<g id="a_node27"><a xlink:href="_graphics_shape_8hpp.html" target="_top" xlink:title="Classe GraphicsShape. ">
<polygon fill="white" stroke="black" points="616,-224.5 616,-243.5 718,-243.5 718,-224.5 616,-224.5"/>
<text text-anchor="middle" x="667" y="-231.5" font-family="Helvetica,sans-Serif" font-size="10.00">GraphicsShape.hpp</text>
</a>
</g>
</g>
<!-- Node26&#45;&gt;Node27 -->
<g id="edge35" class="edge"><title>Node26&#45;&gt;Node27</title>
<path fill="none" stroke="midnightblue" d="M664.495,-280.083C664.889,-273.006 665.452,-262.861 665.945,-253.986"/>
<polygon fill="midnightblue" stroke="midnightblue" points="669.454,-253.93 666.514,-243.751 662.464,-253.542 669.454,-253.93"/>
</g>
<!-- Node27&#45;&gt;Node5 -->
<g id="edge36" class="edge"><title>Node27&#45;&gt;Node5</title>
<path fill="none" stroke="midnightblue" d="M639.746,-224.444C610.559,-215.28 564.079,-200.688 531.691,-190.519"/>
<polygon fill="midnightblue" stroke="midnightblue" points="532.716,-187.173 522.126,-187.516 530.619,-193.851 532.716,-187.173"/>
</g>
</g>
</svg>
        <g id="navigator" transform="translate(0 0)" fill="#404254">
                <rect fill="#f2f5e9" fill-opacity="0.5" stroke="#606060" stroke-width=".5" x="0" y="0" width="60" height="60"/>
                <use id="zoomplus" xlink:href="#zoomPlus" x="17" y="9" onmousedown="handleZoom(evt,'in')"/>
                <use id="zoomminus" xlink:href="#zoomMin" x="42" y="9" onmousedown="handleZoom(evt,'out')"/>
                <use id="reset" xlink:href="#resetDef" x="30" y="36" onmousedown="handleReset()"/>
                <g id="arrowUp" xlink:href="#dirArrow" transform="translate(30 24)" onmousedown="handlePan(0,-1)">
                  <use xlink:href="#rim" fill="#404040">
                        <set attributeName="fill" to="#808080" begin="arrowUp.mouseover" end="arrowUp.mouseout"/>
                  </use>
                  <path fill="none" stroke="white" stroke-width="1.5" d="M0,-3.0v7 M-2.5,-0.5L0,-3.0L2.5,-0.5"/>
                </g>
                <g id="arrowRight" xlink:href="#dirArrow" transform="rotate(90) translate(36 -43)" onmousedown="handlePan(1,0)">
                  <use xlink:href="#rim" fill="#404040">
                        <set attributeName="fill" to="#808080" begin="arrowRight.mouseover" end="arrowRight.mouseout"/>
                  </use>
                  <path fill="none" stroke="white" stroke-width="1.5" d="M0,-3.0v7 M-2.5,-0.5L0,-3.0L2.5,-0.5"/>
                </g>
                <g id="arrowDown" xlink:href="#dirArrow" transform="rotate(180) translate(-30 -48)" onmousedown="handlePan(0,1)">
                  <use xlink:href="#rim" fill="#404040">
                        <set attributeName="fill" to="#808080" begin="arrowDown.mouseover" end="arrowDown.mouseout"/>
                  </use>
                  <path fill="none" stroke="white" stroke-width="1.5" d="M0,-3.0v7 M-2.5,-0.5L0,-3.0L2.5,-0.5"/>
                </g>
                <g id="arrowLeft" xlink:href="#dirArrow" transform="rotate(270) translate(-36 17)" onmousedown="handlePan(-1,0)">
                  <use xlink:href="#rim" fill="#404040">
                        <set attributeName="fill" to="#808080" begin="arrowLeft.mouseover" end="arrowLeft.mouseout"/>
                  </use>
                  <path fill="none" stroke="white" stroke-width="1.5" d="M0,-3.0v7 M-2.5,-0.5L0,-3.0L2.5,-0.5"/>
                </g>
        </g>
        <svg viewBox="0 0 15 15" width="100%" height="30px" preserveAspectRatio="xMaxYMin meet">
         <g id="arrow_out" transform="scale(0.3 0.3)">
          <a xlink:href="_line_edit_8hpp__incl_org.svg" target="_base">
           <rect id="button" ry="5" rx="5" y="6" x="6" height="38" width="38"
                fill="#f2f5e9" fill-opacity="0.5" stroke="#606060" stroke-width="1.0"/>
           <path id="arrow"
             d="M 11.500037,31.436501 C 11.940474,20.09759 22.043105,11.32322 32.158766,21.979434 L 37.068811,17.246167 C 37.068811,17.246167 37.088388,32 37.088388,32 L 22.160133,31.978069 C 22.160133,31.978069 26.997745,27.140456 26.997745,27.140456 C 18.528582,18.264221 13.291696,25.230495 11.500037,31.436501 z"
             style="fill:#404040;"/>
          </a>
         </g>
        </svg>
</svg>
