<?xml version="1.0" encoding="UTF-8" standalone="no"?>
<!DOCTYPE svg PUBLIC "-//W3C//DTD SVG 1.1//EN"
 "http://www.w3.org/Graphics/SVG/1.1/DTD/svg11.dtd">
<!-- Generated by graphviz version 2.36.0 (20140111.2315)
 -->
<!-- Title: MainWindow.hpp Pages: 1 -->
<svg width="811pt" height="252pt"
 viewBox="0.00 0.00 810.67 252.00" xmlns="http://www.w3.org/2000/svg" xmlns:xlink="http://www.w3.org/1999/xlink">
<g id="graph0" class="graph" transform="scale(1 1) rotate(0) translate(4 248)">
<title>MainWindow.hpp</title>
<polygon fill="white" stroke="none" points="-4,4 -4,-248 806.673,-248 806.673,4 -4,4"/>
<!-- Node1 -->
<g id="node1" class="node"><title>Node1</title>
<polygon fill="#bfbfbf" stroke="black" points="386.673,-224.5 386.673,-243.5 478.673,-243.5 478.673,-224.5 386.673,-224.5"/>
<text text-anchor="middle" x="432.673" y="-231.5" font-family="Helvetica,sans-Serif" font-size="10.00">MainWindow.hpp</text>
</g>
<!-- Node2 -->
<g id="node2" class="node"><title>Node2</title>
<g id="a_node2"><a xlink:href="_window_8hpp.html" target="_top" xlink:title="Window.hpp">
<polygon fill="white" stroke="black" points="233.173,-168.5 233.173,-187.5 304.173,-187.5 304.173,-168.5 233.173,-168.5"/>
<text text-anchor="middle" x="268.673" y="-175.5" font-family="Helvetica,sans-Serif" font-size="10.00">Window.hpp</text>
</a>
</g>
</g>
<!-- Node1&#45;&gt;Node2 -->
<g id="edge1" class="edge"><title>Node1&#45;&gt;Node2</title>
<path fill="none" stroke="midnightblue" d="M406.687,-224.444C378.977,-215.32 334.921,-200.813 304.057,-190.651"/>
<polygon fill="midnightblue" stroke="midnightblue" points="305.131,-187.32 294.538,-187.516 302.942,-193.968 305.131,-187.32"/>
</g>
<!-- Node13 -->
<g id="node13" class="node"><title>Node13</title>
<g id="a_node13"><a xlink:href="_graphics_item_8hpp.html" target="_top" xlink:title="Classe GraphicsItem. ">
<polygon fill="white" stroke="black" points="503.673,-168.5 503.673,-187.5 597.673,-187.5 597.673,-168.5 503.673,-168.5"/>
<text text-anchor="middle" x="550.673" y="-175.5" font-family="Helvetica,sans-Serif" font-size="10.00">GraphicsItem.hpp</text>
</a>
</g>
</g>
<!-- Node1&#45;&gt;Node13 -->
<g id="edge20" class="edge"><title>Node1&#45;&gt;Node13</title>
<path fill="none" stroke="midnightblue" d="M451.371,-224.444C470.618,-215.636 500.826,-201.812 522.873,-191.722"/>
<polygon fill="midnightblue" stroke="midnightblue" points="524.427,-194.86 532.063,-187.516 521.514,-188.495 524.427,-194.86"/>
</g>
<!-- Node3 -->
<g id="node3" class="node"><title>Node3</title>
<polygon fill="white" stroke="#bfbfbf" points="388.173,-56.5 388.173,-75.5 429.173,-75.5 429.173,-56.5 388.173,-56.5"/>
<text text-anchor="middle" x="408.673" y="-63.5" font-family="Helvetica,sans-Serif" font-size="10.00">string</text>
</g>
<!-- Node2&#45;&gt;Node3 -->
<g id="edge2" class="edge"><title>Node2&#45;&gt;Node3</title>
<path fill="none" stroke="midnightblue" d="M295.054,-168.496C315.126,-161.105 342.62,-148.915 362.673,-132 378.472,-118.674 391.506,-98.7451 399.616,-84.4697"/>
<polygon fill="midnightblue" stroke="midnightblue" points="402.715,-86.0977 404.418,-75.6406 396.566,-82.7532 402.715,-86.0977"/>
</g>
<!-- Node4 -->
<g id="node4" class="node"><title>Node4</title>
<polygon fill="white" stroke="#bfbfbf" points="15.6732,-112.5 15.6732,-131.5 61.6732,-131.5 61.6732,-112.5 15.6732,-112.5"/>
<text text-anchor="middle" x="38.6732" y="-119.5" font-family="Helvetica,sans-Serif" font-size="10.00">chrono</text>
</g>
<!-- Node2&#45;&gt;Node4 -->
<g id="edge3" class="edge"><title>Node2&#45;&gt;Node4</title>
<path fill="none" stroke="midnightblue" d="M233.134,-169.491C195.422,-161.398 133.872,-147.834 71.6895,-132.162"/>
<polygon fill="midnightblue" stroke="midnightblue" points="72.2615,-128.696 61.7078,-129.629 70.5397,-135.481 72.2615,-128.696"/>
</g>
<!-- Node5 -->
<g id="node5" class="node"><title>Node5</title>
<polygon fill="white" stroke="#bfbfbf" points="337.673,-0.5 337.673,-19.5 445.673,-19.5 445.673,-0.5 337.673,-0.5"/>
<text text-anchor="middle" x="391.673" y="-7.5" font-family="Helvetica,sans-Serif" font-size="10.00">ez&#45;lib/ez&#45;draw++.hpp</text>
</g>
<!-- Node2&#45;&gt;Node5 -->
<g id="edge4" class="edge"><title>Node2&#45;&gt;Node5</title>
<path fill="none" stroke="midnightblue" d="M304.378,-169.189C347.282,-157.505 416.184,-130.723 437.673,-76 440.922,-67.7262 441.12,-64.1934 437.673,-56 432.647,-44.0528 422.73,-33.6922 413.386,-25.9339"/>
<polygon fill="midnightblue" stroke="midnightblue" points="415.513,-23.1547 405.46,-19.8113 411.234,-28.6944 415.513,-23.1547"/>
</g>
<!-- Node6 -->
<g id="node6" class="node"><title>Node6</title>
<g id="a_node6"><a xlink:href="_point_8hpp.html" target="_top" xlink:title="Classe point. ">
<polygon fill="white" stroke="black" points="100.673,-56.5 100.673,-75.5 158.673,-75.5 158.673,-56.5 100.673,-56.5"/>
<text text-anchor="middle" x="129.673" y="-63.5" font-family="Helvetica,sans-Serif" font-size="10.00">Point.hpp</text>
</a>
</g>
</g>
<!-- Node2&#45;&gt;Node6 -->
<g id="edge5" class="edge"><title>Node2&#45;&gt;Node6</title>
<path fill="none" stroke="midnightblue" d="M233.09,-176.321C168.326,-174.251 35.2278,-165.877 6.67321,-132 -20.2437,-100.066 45.3238,-81.6157 90.715,-73.004"/>
<polygon fill="midnightblue" stroke="midnightblue" points="91.3992,-76.4371 100.619,-71.2173 90.1564,-69.5483 91.3992,-76.4371"/>
</g>
<!-- Node8 -->
<g id="node8" class="node"><title>Node8</title>
<g id="a_node8"><a xlink:href="_canvas_8hpp.html" target="_top" xlink:title="Canvas.hpp">
<polygon fill="white" stroke="black" points="188.173,-112.5 188.173,-131.5 257.173,-131.5 257.173,-112.5 188.173,-112.5"/>
<text text-anchor="middle" x="222.673" y="-119.5" font-family="Helvetica,sans-Serif" font-size="10.00">Canvas.hpp</text>
</a>
</g>
</g>
<!-- Node2&#45;&gt;Node8 -->
<g id="edge7" class="edge"><title>Node2&#45;&gt;Node8</title>
<path fill="none" stroke="midnightblue" d="M261.077,-168.083C254.446,-160.298 244.652,-148.801 236.615,-139.367"/>
<polygon fill="midnightblue" stroke="midnightblue" points="239.277,-137.094 230.128,-131.751 233.948,-141.633 239.277,-137.094"/>
</g>
<!-- Node10 -->
<g id="node10" class="node"><title>Node10</title>
<g id="a_node10"><a xlink:href="_mouse_event_8hpp.html" target="_top" xlink:title="Classe MouseEvent. ">
<polygon fill="white" stroke="black" points="79.6732,-112.5 79.6732,-131.5 169.673,-131.5 169.673,-112.5 79.6732,-112.5"/>
<text text-anchor="middle" x="124.673" y="-119.5" font-family="Helvetica,sans-Serif" font-size="10.00">MouseEvent.hpp</text>
</a>
</g>
</g>
<!-- Node2&#45;&gt;Node10 -->
<g id="edge12" class="edge"><title>Node2&#45;&gt;Node10</title>
<path fill="none" stroke="midnightblue" d="M245.856,-168.444C221.841,-159.438 183.844,-145.189 156.804,-135.049"/>
<polygon fill="midnightblue" stroke="midnightblue" points="157.976,-131.751 147.384,-131.516 155.518,-138.305 157.976,-131.751"/>
</g>
<!-- Node12 -->
<g id="node12" class="node"><title>Node12</title>
<g id="a_node12"><a xlink:href="_key_event_8hpp.html" target="_top" xlink:title="Classe KeyEvent. ">
<polygon fill="white" stroke="black" points="275.673,-112.5 275.673,-131.5 353.673,-131.5 353.673,-112.5 275.673,-112.5"/>
<text text-anchor="middle" x="314.673" y="-119.5" font-family="Helvetica,sans-Serif" font-size="10.00">KeyEvent.hpp</text>
</a>
</g>
</g>
<!-- Node2&#45;&gt;Node12 -->
<g id="edge17" class="edge"><title>Node2&#45;&gt;Node12</title>
<path fill="none" stroke="midnightblue" d="M276.269,-168.083C282.901,-160.298 292.694,-148.801 300.731,-139.367"/>
<polygon fill="midnightblue" stroke="midnightblue" points="303.398,-141.633 307.219,-131.751 298.07,-137.094 303.398,-141.633"/>
</g>
<!-- Node7 -->
<g id="node7" class="node"><title>Node7</title>
<polygon fill="white" stroke="#bfbfbf" points="183.673,-0.5 183.673,-19.5 237.673,-19.5 237.673,-0.5 183.673,-0.5"/>
<text text-anchor="middle" x="210.673" y="-7.5" font-family="Helvetica,sans-Serif" font-size="10.00">iostream</text>
</g>
<!-- Node6&#45;&gt;Node7 -->
<g id="edge6" class="edge"><title>Node6&#45;&gt;Node7</title>
<path fill="none" stroke="midnightblue" d="M142.687,-56.324C155.205,-47.979 174.355,-35.2122 189.145,-25.3524"/>
<polygon fill="midnightblue" stroke="midnightblue" points="191.312,-28.1137 197.691,-19.6545 187.429,-22.2894 191.312,-28.1137"/>
</g>
<!-- Node8&#45;&gt;Node5 -->
<g id="edge8" class="edge"><title>Node8&#45;&gt;Node5</title>
<path fill="none" stroke="midnightblue" d="M229.162,-112.349C239.714,-98.78 261.828,-72.3571 285.673,-56 306.452,-41.7461 332.465,-30.6198 353.521,-22.9965"/>
<polygon fill="midnightblue" stroke="midnightblue" points="354.829,-26.2469 363.111,-19.6397 352.517,-19.6399 354.829,-26.2469"/>
</g>
<!-- Node8&#45;&gt;Node6 -->
<g id="edge9" class="edge"><title>Node8&#45;&gt;Node6</title>
<path fill="none" stroke="midnightblue" d="M207.731,-112.324C193.088,-103.822 170.54,-90.7288 153.436,-80.7975"/>
<polygon fill="midnightblue" stroke="midnightblue" points="154.984,-77.6491 144.578,-75.6545 151.469,-83.7027 154.984,-77.6491"/>
</g>
<!-- Node9 -->
<g id="node9" class="node"><title>Node9</title>
<g id="a_node9"><a xlink:href="_font_8hpp.html" target="_top" xlink:title="Font.hpp">
<polygon fill="white" stroke="black" points="183.173,-56.5 183.173,-75.5 238.173,-75.5 238.173,-56.5 183.173,-56.5"/>
<text text-anchor="middle" x="210.673" y="-63.5" font-family="Helvetica,sans-Serif" font-size="10.00">Font.hpp</text>
</a>
</g>
</g>
<!-- Node8&#45;&gt;Node9 -->
<g id="edge10" class="edge"><title>Node8&#45;&gt;Node9</title>
<path fill="none" stroke="midnightblue" d="M220.692,-112.083C219.101,-104.927 216.814,-94.6353 214.827,-85.6911"/>
<polygon fill="midnightblue" stroke="midnightblue" points="218.204,-84.7537 212.618,-75.7511 211.371,-86.2722 218.204,-84.7537"/>
</g>
<!-- Node9&#45;&gt;Node7 -->
<g id="edge11" class="edge"><title>Node9&#45;&gt;Node7</title>
<path fill="none" stroke="midnightblue" d="M210.673,-56.083C210.673,-49.0059 210.673,-38.8611 210.673,-29.9865"/>
<polygon fill="midnightblue" stroke="midnightblue" points="214.173,-29.751 210.673,-19.7511 207.173,-29.7511 214.173,-29.751"/>
</g>
<!-- Node10&#45;&gt;Node6 -->
<g id="edge16" class="edge"><title>Node10&#45;&gt;Node6</title>
<path fill="none" stroke="midnightblue" d="M125.499,-112.083C126.154,-105.006 127.093,-94.8611 127.915,-85.9865"/>
<polygon fill="midnightblue" stroke="midnightblue" points="131.426,-86.0312 128.863,-75.7511 124.456,-85.3858 131.426,-86.0312"/>
</g>
<!-- Node11 -->
<g id="node11" class="node"><title>Node11</title>
<g id="a_node11"><a xlink:href="_event_8hpp.html" target="_top" xlink:title="Classe Event. ">
<polygon fill="white" stroke="black" points="295.173,-56.5 295.173,-75.5 356.173,-75.5 356.173,-56.5 295.173,-56.5"/>
<text text-anchor="middle" x="325.673" y="-63.5" font-family="Helvetica,sans-Serif" font-size="10.00">Event.hpp</text>
</a>
</g>
</g>
<!-- Node10&#45;&gt;Node11 -->
<g id="edge13" class="edge"><title>Node10&#45;&gt;Node11</title>
<path fill="none" stroke="midnightblue" d="M156.522,-112.444C191.376,-103.08 247.333,-88.0467 285.255,-77.8585"/>
<polygon fill="midnightblue" stroke="midnightblue" points="286.212,-81.2256 294.962,-75.2508 284.396,-74.4653 286.212,-81.2256"/>
</g>
<!-- Node11&#45;&gt;Node5 -->
<g id="edge15" class="edge"><title>Node11&#45;&gt;Node5</title>
<path fill="none" stroke="midnightblue" d="M336.277,-56.324C346.129,-48.2631 361.024,-36.0765 372.888,-26.3695"/>
<polygon fill="midnightblue" stroke="midnightblue" points="375.353,-28.8752 380.876,-19.8339 370.92,-23.4575 375.353,-28.8752"/>
</g>
<!-- Node11&#45;&gt;Node7 -->
<g id="edge14" class="edge"><title>Node11&#45;&gt;Node7</title>
<path fill="none" stroke="midnightblue" d="M307.451,-56.4435C288.778,-47.6751 259.517,-33.9355 238.056,-23.8579"/>
<polygon fill="midnightblue" stroke="midnightblue" points="239.349,-20.5988 228.81,-19.5164 236.374,-26.935 239.349,-20.5988"/>
</g>
<!-- Node12&#45;&gt;Node3 -->
<g id="edge18" class="edge"><title>Node12&#45;&gt;Node3</title>
<path fill="none" stroke="midnightblue" d="M329.776,-112.324C344.577,-103.822 367.367,-90.7288 384.655,-80.7975"/>
<polygon fill="midnightblue" stroke="midnightblue" points="386.68,-83.6707 393.608,-75.6545 383.193,-77.6009 386.68,-83.6707"/>
</g>
<!-- Node12&#45;&gt;Node11 -->
<g id="edge19" class="edge"><title>Node12&#45;&gt;Node11</title>
<path fill="none" stroke="midnightblue" d="M316.49,-112.083C317.947,-104.927 320.044,-94.6353 321.866,-85.6911"/>
<polygon fill="midnightblue" stroke="midnightblue" points="325.324,-86.2485 323.891,-75.7511 318.465,-84.8512 325.324,-86.2485"/>
</g>
<!-- Node13&#45;&gt;Node8 -->
<g id="edge29" class="edge"><title>Node13&#45;&gt;Node8</title>
<path fill="none" stroke="midnightblue" d="M503.579,-170.195C449.19,-162.19 356.788,-148.143 267.284,-132.04"/>
<polygon fill="midnightblue" stroke="midnightblue" points="267.696,-128.558 257.232,-130.221 266.449,-135.446 267.696,-128.558"/>
</g>
<!-- Node13&#45;&gt;Node11 -->
<g id="edge30" class="edge"><title>Node13&#45;&gt;Node11</title>
<path fill="none" stroke="midnightblue" d="M533.018,-168.368C493.751,-149.171 398.986,-102.842 352.415,-80.074"/>
<polygon fill="midnightblue" stroke="midnightblue" points="353.768,-76.8392 343.247,-75.5914 350.693,-83.1279 353.768,-76.8392"/>
</g>
<!-- Node14 -->
<g id="node14" class="node"><title>Node14</title>
<polygon fill="white" stroke="#bfbfbf" points="563.673,-112.5 563.673,-131.5 607.673,-131.5 607.673,-112.5 563.673,-112.5"/>
<text text-anchor="middle" x="585.673" y="-119.5" font-family="Helvetica,sans-Serif" font-size="10.00">vector</text>
</g>
<!-- Node13&#45;&gt;Node14 -->
<g id="edge21" class="edge"><title>Node13&#45;&gt;Node14</title>
<path fill="none" stroke="midnightblue" d="M556.453,-168.083C561.346,-160.534 568.501,-149.495 574.506,-140.23"/>
<polygon fill="midnightblue" stroke="midnightblue" points="577.499,-142.046 580.001,-131.751 571.625,-138.239 577.499,-142.046"/>
</g>
<!-- Node15 -->
<g id="node15" class="node"><title>Node15</title>
<polygon fill="white" stroke="#bfbfbf" points="625.673,-112.5 625.673,-131.5 655.673,-131.5 655.673,-112.5 625.673,-112.5"/>
<text text-anchor="middle" x="640.673" y="-119.5" font-family="Helvetica,sans-Serif" font-size="10.00">set</text>
</g>
<!-- Node13&#45;&gt;Node15 -->
<g id="edge22" class="edge"><title>Node13&#45;&gt;Node15</title>
<path fill="none" stroke="midnightblue" d="M565.133,-168.324C579.173,-159.9 600.722,-146.971 617.216,-137.074"/>
<polygon fill="midnightblue" stroke="midnightblue" points="619.475,-139.801 626.249,-131.655 615.873,-133.798 619.475,-139.801"/>
</g>
<!-- Node16 -->
<g id="node16" class="node"><title>Node16</title>
<polygon fill="white" stroke="#bfbfbf" points="673.673,-112.5 673.673,-131.5 725.673,-131.5 725.673,-112.5 673.673,-112.5"/>
<text text-anchor="middle" x="699.673" y="-119.5" font-family="Helvetica,sans-Serif" font-size="10.00">memory</text>
</g>
<!-- Node13&#45;&gt;Node16 -->
<g id="edge23" class="edge"><title>Node13&#45;&gt;Node16</title>
<path fill="none" stroke="midnightblue" d="M574.283,-168.444C599.131,-159.438 638.448,-145.189 666.427,-135.049"/>
<polygon fill="midnightblue" stroke="midnightblue" points="667.965,-138.214 676.174,-131.516 665.58,-131.633 667.965,-138.214"/>
</g>
<!-- Node17 -->
<g id="node17" class="node"><title>Node17</title>
<polygon fill="white" stroke="#bfbfbf" points="744.173,-112.5 744.173,-131.5 803.173,-131.5 803.173,-112.5 744.173,-112.5"/>
<text text-anchor="middle" x="773.673" y="-119.5" font-family="Helvetica,sans-Serif" font-size="10.00">functional</text>
</g>
<!-- Node13&#45;&gt;Node17 -->
<g id="edge24" class="edge"><title>Node13&#45;&gt;Node17</title>
<path fill="none" stroke="midnightblue" d="M586.008,-168.444C626.286,-158.69 691.963,-142.786 733.974,-132.613"/>
<polygon fill="midnightblue" stroke="midnightblue" points="734.961,-135.976 743.856,-130.22 733.313,-129.172 734.961,-135.976"/>
</g>
<!-- Node18 -->
<g id="node18" class="node"><title>Node18</title>
<g id="a_node18"><a xlink:href="_color_8hpp.html" target="_top" xlink:title="Classe Color. ">
<polygon fill="white" stroke="black" points="486.173,-112.5 486.173,-131.5 545.173,-131.5 545.173,-112.5 486.173,-112.5"/>
<text text-anchor="middle" x="515.673" y="-119.5" font-family="Helvetica,sans-Serif" font-size="10.00">Color.hpp</text>
</a>
</g>
</g>
<!-- Node13&#45;&gt;Node18 -->
<g id="edge25" class="edge"><title>Node13&#45;&gt;Node18</title>
<path fill="none" stroke="midnightblue" d="M544.894,-168.083C540.001,-160.534 532.846,-149.495 526.841,-140.23"/>
<polygon fill="midnightblue" stroke="midnightblue" points="529.721,-138.239 521.345,-131.751 523.847,-142.046 529.721,-138.239"/>
</g>
<!-- Node18&#45;&gt;Node3 -->
<g id="edge27" class="edge"><title>Node18&#45;&gt;Node3</title>
<path fill="none" stroke="midnightblue" d="M498.482,-112.324C481.322,-103.664 454.728,-90.2424 434.926,-80.249"/>
<polygon fill="midnightblue" stroke="midnightblue" points="436.326,-77.0354 425.822,-75.6545 433.173,-83.2847 436.326,-77.0354"/>
</g>
<!-- Node18&#45;&gt;Node5 -->
<g id="edge28" class="edge"><title>Node18&#45;&gt;Node5</title>
<path fill="none" stroke="midnightblue" d="M511.567,-112.497C504.78,-99.1315 490.121,-72.982 471.673,-56 457.207,-42.6828 438.1,-31.7489 422.188,-23.9947"/>
<polygon fill="midnightblue" stroke="midnightblue" points="423.303,-20.6526 412.762,-19.5846 420.337,-26.9928 423.303,-20.6526"/>
</g>
<!-- Node19 -->
<g id="node19" class="node"><title>Node19</title>
<polygon fill="white" stroke="#bfbfbf" points="523.673,-56.5 523.673,-75.5 569.673,-75.5 569.673,-56.5 523.673,-56.5"/>
<text text-anchor="middle" x="546.673" y="-63.5" font-family="Helvetica,sans-Serif" font-size="10.00">cstdint</text>
</g>
<!-- Node18&#45;&gt;Node19 -->
<g id="edge26" class="edge"><title>Node18&#45;&gt;Node19</title>
<path fill="none" stroke="midnightblue" d="M520.792,-112.083C525.081,-104.613 531.331,-93.7244 536.616,-84.5199"/>
<polygon fill="midnightblue" stroke="midnightblue" points="539.706,-86.1662 541.649,-75.7511 533.635,-82.6811 539.706,-86.1662"/>
</g>
</g>
</svg>
