<?xml version="1.0" encoding="UTF-8" standalone="no"?>
<!DOCTYPE svg PUBLIC "-//W3C//DTD SVG 1.1//EN"
 "http://www.w3.org/Graphics/SVG/1.1/DTD/svg11.dtd">
<!-- Generated by graphviz version 2.36.0 (20140111.2315)
 -->
<!-- Title: MainWindow.hpp Pages: 1 -->
<!--zoomable 308 -->
<svg id="main" version="1.1" xmlns="http://www.w3.org/2000/svg" xmlns:xlink="http://www.w3.org/1999/xlink" xml:space="preserve" onload="init(evt)">
<style type="text/css"><![CDATA[
.edge:hover path { stroke: red; }
.edge:hover polygon { stroke: red; fill: red; }
]]></style>
<script type="text/javascript"><![CDATA[
var edges = document.getElementsByTagName('g');
if (edges && edges.length) {
  for (var i=0;i<edges.length;i++) {
    if (edges[i].id.substr(0,4)=='edge') {
      edges[i].setAttribute('class','edge');
    }
  }
}
]]></script>
        <defs>
                <circle id="rim" cx="0" cy="0" r="7"/>
                <circle id="rim2" cx="0" cy="0" r="3.5"/>
                <g id="zoomPlus">
                        <use xlink:href="#rim" fill="#404040">
                                <set attributeName="fill" to="#808080" begin="zoomplus.mouseover" end="zoomplus.mouseout"/>
                        </use>
                        <path d="M-4,0h8M0,-4v8" fill="none" stroke="white" stroke-width="1.5" pointer-events="none"/>
                </g>
                <g id="zoomMin">
                        <use xlink:href="#rim" fill="#404040">
                                <set attributeName="fill" to="#808080" begin="zoomminus.mouseover" end="zoomminus.mouseout"/>
                        </use>
                        <path d="M-4,0h8" fill="none" stroke="white" stroke-width="1.5" pointer-events="none"/>
                </g>
                <g id="dirArrow">
                        <path fill="none" stroke="white" stroke-width="1.5" d="M0,-3.0v7 M-2.5,-0.5L0,-3.0L2.5,-0.5"/>
                </g>
               <g id="resetDef">
                       <use xlink:href="#rim2" fill="#404040">
                               <set attributeName="fill" to="#808080" begin="reset.mouseover" end="reset.mouseout"/>
                       </use>
               </g>
        </defs>

<script type="text/javascript">
var viewWidth = 711;
var viewHeight = 308;
var sectionId = 'dynsection-0';
</script>
<script xlink:href="svgpan.js"/>
<svg id="graph" class="graph">
<g id="viewport">
<title>MainWindow.hpp</title>
<polygon fill="white" stroke="none" points="-4,4 -4,-304 706.536,-304 706.536,4 -4,4"/>
<!-- Node1 -->
<g id="node1" class="node"><title>Node1</title>
<polygon fill="#bfbfbf" stroke="black" points="403,-280.5 403,-299.5 495,-299.5 495,-280.5 403,-280.5"/>
<text text-anchor="middle" x="449" y="-287.5" font-family="Helvetica,sans-Serif" font-size="10.00">MainWindow.hpp</text>
</g>
<!-- Node2 -->
<g id="node2" class="node"><title>Node2</title>
<g id="a_node2"><a xlink:href="_window_8hpp.html" target="_top" xlink:title="Window.hpp">
<polygon fill="white" stroke="black" points="274.5,-224.5 274.5,-243.5 345.5,-243.5 345.5,-224.5 274.5,-224.5"/>
<text text-anchor="middle" x="310" y="-231.5" font-family="Helvetica,sans-Serif" font-size="10.00">Window.hpp</text>
</a>
</g>
</g>
<!-- Node1&#45;&gt;Node2 -->
<g id="edge1" class="edge"><title>Node1&#45;&gt;Node2</title>
<path fill="none" stroke="midnightblue" d="M426.975,-280.444C403.896,-271.478 367.438,-257.314 341.359,-247.183"/>
<polygon fill="midnightblue" stroke="midnightblue" points="342.511,-243.875 331.922,-243.516 339.976,-250.4 342.511,-243.875"/>
</g>
<!-- Node18 -->
<g id="node18" class="node"><title>Node18</title>
<g id="a_node18"><a xlink:href="_graphics_item_8hpp.html" target="_top" xlink:title="Classe GraphicsItem. ">
<polygon fill="white" stroke="black" points="476,-224.5 476,-243.5 570,-243.5 570,-224.5 476,-224.5"/>
<text text-anchor="middle" x="523" y="-231.5" font-family="Helvetica,sans-Serif" font-size="10.00">GraphicsItem.hpp</text>
</a>
</g>
</g>
<!-- Node1&#45;&gt;Node18 -->
<g id="edge26" class="edge"><title>Node1&#45;&gt;Node18</title>
<path fill="none" stroke="midnightblue" d="M460.889,-280.324C472.15,-272.107 489.287,-259.602 502.709,-249.807"/>
<polygon fill="midnightblue" stroke="midnightblue" points="504.88,-252.556 510.894,-243.834 500.753,-246.901 504.88,-252.556"/>
</g>
<!-- Node3 -->
<g id="node3" class="node"><title>Node3</title>
<polygon fill="white" stroke="#bfbfbf" points="410.5,-112.5 410.5,-131.5 451.5,-131.5 451.5,-112.5 410.5,-112.5"/>
<text text-anchor="middle" x="431" y="-119.5" font-family="Helvetica,sans-Serif" font-size="10.00">string</text>
</g>
<!-- Node2&#45;&gt;Node3 -->
<g id="edge2" class="edge"><title>Node2&#45;&gt;Node3</title>
<path fill="none" stroke="midnightblue" d="M345.563,-228.467C371.225,-223.226 404.49,-211.991 423,-188 433.084,-174.93 434.303,-155.778 433.469,-141.647"/>
<polygon fill="midnightblue" stroke="midnightblue" points="436.944,-141.215 432.49,-131.602 429.977,-141.894 436.944,-141.215"/>
</g>
<!-- Node4 -->
<g id="node4" class="node"><title>Node4</title>
<polygon fill="white" stroke="#bfbfbf" points="146,-168.5 146,-187.5 192,-187.5 192,-168.5 146,-168.5"/>
<text text-anchor="middle" x="169" y="-175.5" font-family="Helvetica,sans-Serif" font-size="10.00">chrono</text>
</g>
<!-- Node2&#45;&gt;Node4 -->
<g id="edge3" class="edge"><title>Node2&#45;&gt;Node4</title>
<path fill="none" stroke="midnightblue" d="M287.658,-224.444C264.247,-215.478 227.264,-201.314 200.81,-191.183"/>
<polygon fill="midnightblue" stroke="midnightblue" points="201.828,-187.824 191.237,-187.516 199.324,-194.361 201.828,-187.824"/>
</g>
<!-- Node5 -->
<g id="node5" class="node"><title>Node5</title>
<polygon fill="white" stroke="#bfbfbf" points="395,-56.5 395,-75.5 503,-75.5 503,-56.5 395,-56.5"/>
<text text-anchor="middle" x="449" y="-63.5" font-family="Helvetica,sans-Serif" font-size="10.00">ez&#45;lib/ez&#45;draw++.hpp</text>
</g>
<!-- Node2&#45;&gt;Node5 -->
<g id="edge4" class="edge"><title>Node2&#45;&gt;Node5</title>
<path fill="none" stroke="midnightblue" d="M345.765,-229.614C375.329,-224.975 416.461,-213.991 442,-188 466.329,-163.24 464.151,-146.463 460,-112 458.929,-103.107 456.708,-93.4344 454.54,-85.344"/>
<polygon fill="midnightblue" stroke="midnightblue" points="457.844,-84.1668 451.73,-75.5139 451.113,-86.0908 457.844,-84.1668"/>
</g>
<!-- Node6 -->
<g id="node6" class="node"><title>Node6</title>
<g id="a_node6"><a xlink:href="_point_8hpp.html" target="_top" xlink:title="Classe point. ">
<polygon fill="white" stroke="black" points="68,-112.5 68,-131.5 126,-131.5 126,-112.5 68,-112.5"/>
<text text-anchor="middle" x="97" y="-119.5" font-family="Helvetica,sans-Serif" font-size="10.00">Point.hpp</text>
</a>
</g>
</g>
<!-- Node2&#45;&gt;Node6 -->
<g id="edge5" class="edge"><title>Node2&#45;&gt;Node6</title>
<path fill="none" stroke="midnightblue" d="M274.273,-232.782C205.808,-231.525 60.1331,-224.515 29,-188 12.464,-168.605 41.3605,-148.701 66.4419,-136.116"/>
<polygon fill="midnightblue" stroke="midnightblue" points="68.247,-139.133 75.7651,-131.668 65.2326,-132.815 68.247,-139.133"/>
</g>
<!-- Node13 -->
<g id="node13" class="node"><title>Node13</title>
<g id="a_node13"><a xlink:href="_canvas_8hpp.html" target="_top" xlink:title="Canvas.hpp">
<polygon fill="white" stroke="black" points="210.5,-168.5 210.5,-187.5 279.5,-187.5 279.5,-168.5 210.5,-168.5"/>
<text text-anchor="middle" x="245" y="-175.5" font-family="Helvetica,sans-Serif" font-size="10.00">Canvas.hpp</text>
</a>
</g>
</g>
<!-- Node2&#45;&gt;Node13 -->
<g id="edge13" class="edge"><title>Node2&#45;&gt;Node13</title>
<path fill="none" stroke="midnightblue" d="M299.557,-224.324C289.854,-216.263 275.185,-204.077 263.5,-194.369"/>
<polygon fill="midnightblue" stroke="midnightblue" points="265.562,-191.532 255.633,-187.834 261.089,-196.916 265.562,-191.532"/>
</g>
<!-- Node15 -->
<g id="node15" class="node"><title>Node15</title>
<g id="a_node15"><a xlink:href="_mouse_event_8hpp.html" target="_top" xlink:title="Classe MouseEvent. ">
<polygon fill="white" stroke="black" points="38,-168.5 38,-187.5 128,-187.5 128,-168.5 38,-168.5"/>
<text text-anchor="middle" x="83" y="-175.5" font-family="Helvetica,sans-Serif" font-size="10.00">MouseEvent.hpp</text>
</a>
</g>
</g>
<!-- Node2&#45;&gt;Node15 -->
<g id="edge18" class="edge"><title>Node2&#45;&gt;Node15</title>
<path fill="none" stroke="midnightblue" d="M274.282,-224.503C234.981,-215.154 171.708,-200.102 128.791,-189.893"/>
<polygon fill="midnightblue" stroke="midnightblue" points="129.423,-186.446 118.885,-187.536 127.803,-193.256 129.423,-186.446"/>
</g>
<!-- Node17 -->
<g id="node17" class="node"><title>Node17</title>
<g id="a_node17"><a xlink:href="_key_event_8hpp.html" target="_top" xlink:title="Classe KeyEvent. ">
<polygon fill="white" stroke="black" points="336,-168.5 336,-187.5 414,-187.5 414,-168.5 336,-168.5"/>
<text text-anchor="middle" x="375" y="-175.5" font-family="Helvetica,sans-Serif" font-size="10.00">KeyEvent.hpp</text>
</a>
</g>
</g>
<!-- Node2&#45;&gt;Node17 -->
<g id="edge23" class="edge"><title>Node2&#45;&gt;Node17</title>
<path fill="none" stroke="midnightblue" d="M320.443,-224.324C330.146,-216.263 344.815,-204.077 356.5,-194.369"/>
<polygon fill="midnightblue" stroke="midnightblue" points="358.911,-196.916 364.367,-187.834 354.438,-191.532 358.911,-196.916"/>
</g>
<!-- Node7 -->
<g id="node7" class="node"><title>Node7</title>
<polygon fill="white" stroke="#bfbfbf" points="159.5,-56.5 159.5,-75.5 260.5,-75.5 260.5,-56.5 159.5,-56.5"/>
<text text-anchor="middle" x="210" y="-63.5" font-family="Helvetica,sans-Serif" font-size="10.00">boost/uuid/uuid.hpp</text>
</g>
<!-- Node6&#45;&gt;Node7 -->
<g id="edge6" class="edge"><title>Node6&#45;&gt;Node7</title>
<path fill="none" stroke="midnightblue" d="M114.905,-112.444C133.254,-103.675 162.005,-89.9355 183.094,-79.8579"/>
<polygon fill="midnightblue" stroke="midnightblue" points="184.665,-82.9862 192.179,-75.5164 181.647,-76.6703 184.665,-82.9862"/>
</g>
<!-- Node8 -->
<g id="node8" class="node"><title>Node8</title>
<polygon fill="white" stroke="#bfbfbf" points="279,-56.5 279,-75.5 333,-75.5 333,-56.5 279,-56.5"/>
<text text-anchor="middle" x="306" y="-63.5" font-family="Helvetica,sans-Serif" font-size="10.00">iostream</text>
</g>
<!-- Node6&#45;&gt;Node8 -->
<g id="edge7" class="edge"><title>Node6&#45;&gt;Node8</title>
<path fill="none" stroke="midnightblue" d="M126.061,-113.492C163.388,-103.847 228.213,-87.098 269.019,-76.5549"/>
<polygon fill="midnightblue" stroke="midnightblue" points="270.038,-79.9067 278.844,-74.0163 268.287,-73.1292 270.038,-79.9067"/>
</g>
<!-- Node9 -->
<g id="node9" class="node"><title>Node9</title>
<polygon fill="white" stroke="#bfbfbf" points="-0.5,-56.5 -0.5,-75.5 34.5,-75.5 34.5,-56.5 -0.5,-56.5"/>
<text text-anchor="middle" x="17" y="-63.5" font-family="Helvetica,sans-Serif" font-size="10.00">map</text>
</g>
<!-- Node6&#45;&gt;Node9 -->
<g id="edge8" class="edge"><title>Node6&#45;&gt;Node9</title>
<path fill="none" stroke="midnightblue" d="M84.1466,-112.324C71.7836,-103.979 52.8699,-91.2122 38.2628,-81.3524"/>
<polygon fill="midnightblue" stroke="midnightblue" points="40.0682,-78.3483 29.8215,-75.6545 36.1518,-84.1503 40.0682,-78.3483"/>
</g>
<!-- Node10 -->
<g id="node10" class="node"><title>Node10</title>
<polygon fill="white" stroke="#bfbfbf" points="613,-56.5 613,-75.5 657,-75.5 657,-56.5 613,-56.5"/>
<text text-anchor="middle" x="635" y="-63.5" font-family="Helvetica,sans-Serif" font-size="10.00">vector</text>
</g>
<!-- Node6&#45;&gt;Node10 -->
<g id="edge9" class="edge"><title>Node6&#45;&gt;Node10</title>
<path fill="none" stroke="midnightblue" d="M126.307,-118.058C219.091,-108.746 505.953,-79.9526 602.734,-70.2386"/>
<polygon fill="midnightblue" stroke="midnightblue" points="603.196,-73.7099 612.796,-69.2286 602.497,-66.7449 603.196,-73.7099"/>
</g>
<!-- Node11 -->
<g id="node11" class="node"><title>Node11</title>
<g id="a_node11"><a xlink:href="_group_points_8hpp.html" target="_top" xlink:title="GroupPoints.hpp">
<polygon fill="white" stroke="black" points="52.5,-56.5 52.5,-75.5 141.5,-75.5 141.5,-56.5 52.5,-56.5"/>
<text text-anchor="middle" x="97" y="-63.5" font-family="Helvetica,sans-Serif" font-size="10.00">GroupPoints.hpp</text>
</a>
</g>
</g>
<!-- Node6&#45;&gt;Node11 -->
<g id="edge10" class="edge"><title>Node6&#45;&gt;Node11</title>
<path fill="none" stroke="midnightblue" d="M91.8337,-112.083C90.3242,-104.927 89.8938,-94.6353 90.5425,-85.6911"/>
<polygon fill="midnightblue" stroke="midnightblue" points="94.0154,-86.1262 91.869,-75.7511 87.0769,-85.2002 94.0154,-86.1262"/>
</g>
<!-- Node11&#45;&gt;Node6 -->
<g id="edge12" class="edge"><title>Node11&#45;&gt;Node6</title>
<path fill="none" stroke="midnightblue" d="M102.131,-75.7511C103.657,-82.8579 104.104,-93.1357 103.472,-102.101"/>
<polygon fill="midnightblue" stroke="midnightblue" points="99.9933,-101.713 102.166,-112.083 106.934,-102.622 99.9933,-101.713"/>
</g>
<!-- Node12 -->
<g id="node12" class="node"><title>Node12</title>
<polygon fill="white" stroke="#bfbfbf" points="67.5,-0.5 67.5,-19.5 126.5,-19.5 126.5,-0.5 67.5,-0.5"/>
<text text-anchor="middle" x="97" y="-7.5" font-family="Helvetica,sans-Serif" font-size="10.00">functional</text>
</g>
<!-- Node11&#45;&gt;Node12 -->
<g id="edge11" class="edge"><title>Node11&#45;&gt;Node12</title>
<path fill="none" stroke="midnightblue" d="M97,-56.083C97,-49.0059 97,-38.8611 97,-29.9865"/>
<polygon fill="midnightblue" stroke="midnightblue" points="100.5,-29.751 97,-19.7511 93.5001,-29.7511 100.5,-29.751"/>
</g>
<!-- Node13&#45;&gt;Node5 -->
<g id="edge14" class="edge"><title>Node13&#45;&gt;Node5</title>
<path fill="none" stroke="midnightblue" d="M272.845,-168.359C296.708,-160.432 331.619,-147.574 360,-132 386.282,-117.577 413.733,-96.4594 431.076,-82.2452"/>
<polygon fill="midnightblue" stroke="midnightblue" points="433.717,-84.6008 439.164,-75.5134 429.239,-79.2205 433.717,-84.6008"/>
</g>
<!-- Node13&#45;&gt;Node6 -->
<g id="edge15" class="edge"><title>Node13&#45;&gt;Node6</title>
<path fill="none" stroke="midnightblue" d="M221.549,-168.444C196.867,-159.438 157.815,-145.189 130.023,-135.049"/>
<polygon fill="midnightblue" stroke="midnightblue" points="130.935,-131.656 120.341,-131.516 128.536,-138.232 130.935,-131.656"/>
</g>
<!-- Node14 -->
<g id="node14" class="node"><title>Node14</title>
<g id="a_node14"><a xlink:href="_font_8hpp.html" target="_top" xlink:title="Font.hpp">
<polygon fill="white" stroke="black" points="217.5,-112.5 217.5,-131.5 272.5,-131.5 272.5,-112.5 217.5,-112.5"/>
<text text-anchor="middle" x="245" y="-119.5" font-family="Helvetica,sans-Serif" font-size="10.00">Font.hpp</text>
</a>
</g>
</g>
<!-- Node13&#45;&gt;Node14 -->
<g id="edge16" class="edge"><title>Node13&#45;&gt;Node14</title>
<path fill="none" stroke="midnightblue" d="M245,-168.083C245,-161.006 245,-150.861 245,-141.986"/>
<polygon fill="midnightblue" stroke="midnightblue" points="248.5,-141.751 245,-131.751 241.5,-141.751 248.5,-141.751"/>
</g>
<!-- Node14&#45;&gt;Node8 -->
<g id="edge17" class="edge"><title>Node14&#45;&gt;Node8</title>
<path fill="none" stroke="midnightblue" d="M254.801,-112.324C263.818,-104.341 277.406,-92.3128 288.318,-82.6529"/>
<polygon fill="midnightblue" stroke="midnightblue" points="290.853,-85.083 296.021,-75.8339 286.213,-79.8416 290.853,-85.083"/>
</g>
<!-- Node15&#45;&gt;Node6 -->
<g id="edge22" class="edge"><title>Node15&#45;&gt;Node6</title>
<path fill="none" stroke="midnightblue" d="M85.3118,-168.083C87.167,-160.927 89.8353,-150.635 92.1542,-141.691"/>
<polygon fill="midnightblue" stroke="midnightblue" points="95.6095,-142.309 94.7312,-131.751 88.8335,-140.553 95.6095,-142.309"/>
</g>
<!-- Node16 -->
<g id="node16" class="node"><title>Node16</title>
<g id="a_node16"><a xlink:href="_event_8hpp.html" target="_top" xlink:title="Classe Event. ">
<polygon fill="white" stroke="black" points="290.5,-112.5 290.5,-131.5 351.5,-131.5 351.5,-112.5 290.5,-112.5"/>
<text text-anchor="middle" x="321" y="-119.5" font-family="Helvetica,sans-Serif" font-size="10.00">Event.hpp</text>
</a>
</g>
</g>
<!-- Node15&#45;&gt;Node16 -->
<g id="edge19" class="edge"><title>Node15&#45;&gt;Node16</title>
<path fill="none" stroke="midnightblue" d="M120.712,-168.444C164.245,-158.566 235.58,-142.381 280.329,-132.228"/>
<polygon fill="midnightblue" stroke="midnightblue" points="281.298,-135.597 290.276,-129.971 279.749,-128.77 281.298,-135.597"/>
</g>
<!-- Node16&#45;&gt;Node5 -->
<g id="edge21" class="edge"><title>Node16&#45;&gt;Node5</title>
<path fill="none" stroke="midnightblue" d="M341.282,-112.444C362.347,-103.557 395.517,-89.5632 419.486,-79.4514"/>
<polygon fill="midnightblue" stroke="midnightblue" points="420.96,-82.6283 428.813,-75.5164 418.239,-76.1787 420.96,-82.6283"/>
</g>
<!-- Node16&#45;&gt;Node8 -->
<g id="edge20" class="edge"><title>Node16&#45;&gt;Node8</title>
<path fill="none" stroke="midnightblue" d="M318.523,-112.083C316.514,-104.849 313.614,-94.4087 311.11,-85.3968"/>
<polygon fill="midnightblue" stroke="midnightblue" points="314.48,-84.4495 308.431,-75.7511 307.735,-86.323 314.48,-84.4495"/>
</g>
<!-- Node17&#45;&gt;Node3 -->
<g id="edge24" class="edge"><title>Node17&#45;&gt;Node3</title>
<path fill="none" stroke="midnightblue" d="M383.997,-168.324C392.194,-160.42 404.506,-148.548 414.472,-138.938"/>
<polygon fill="midnightblue" stroke="midnightblue" points="417.07,-141.295 421.839,-131.834 412.211,-136.256 417.07,-141.295"/>
</g>
<!-- Node17&#45;&gt;Node16 -->
<g id="edge25" class="edge"><title>Node17&#45;&gt;Node16</title>
<path fill="none" stroke="midnightblue" d="M366.083,-168.083C358.22,-160.22 346.569,-148.569 337.081,-139.081"/>
<polygon fill="midnightblue" stroke="midnightblue" points="339.297,-136.347 329.751,-131.751 334.347,-141.297 339.297,-136.347"/>
</g>
<!-- Node18&#45;&gt;Node10 -->
<g id="edge27" class="edge"><title>Node18&#45;&gt;Node10</title>
<path fill="none" stroke="midnightblue" d="M570.357,-227.031C615.563,-220.245 678.959,-207.511 694,-188 720.137,-154.095 678.663,-106.76 652.952,-82.573"/>
<polygon fill="midnightblue" stroke="midnightblue" points="655.017,-79.7195 645.264,-75.5799 650.307,-84.8978 655.017,-79.7195"/>
</g>
<!-- Node18&#45;&gt;Node13 -->
<g id="edge34" class="edge"><title>Node18&#45;&gt;Node13</title>
<path fill="none" stroke="midnightblue" d="M478.95,-224.444C427.134,-214.379 341.599,-197.764 289.562,-187.656"/>
<polygon fill="midnightblue" stroke="midnightblue" points="290.106,-184.196 279.622,-185.725 288.771,-191.068 290.106,-184.196"/>
</g>
<!-- Node18&#45;&gt;Node16 -->
<g id="edge35" class="edge"><title>Node18&#45;&gt;Node16</title>
<path fill="none" stroke="midnightblue" d="M475.825,-228.476C424.217,-222.482 346.249,-210.01 327,-188 316.168,-175.615 315.693,-156.371 317.311,-142.031"/>
<polygon fill="midnightblue" stroke="midnightblue" points="320.822,-142.227 318.899,-131.808 313.905,-141.152 320.822,-142.227"/>
</g>
<!-- Node19 -->
<g id="node19" class="node"><title>Node19</title>
<polygon fill="white" stroke="#bfbfbf" points="508,-168.5 508,-187.5 538,-187.5 538,-168.5 508,-168.5"/>
<text text-anchor="middle" x="523" y="-175.5" font-family="Helvetica,sans-Serif" font-size="10.00">set</text>
</g>
<!-- Node18&#45;&gt;Node19 -->
<g id="edge28" class="edge"><title>Node18&#45;&gt;Node19</title>
<path fill="none" stroke="midnightblue" d="M523,-224.083C523,-217.006 523,-206.861 523,-197.986"/>
<polygon fill="midnightblue" stroke="midnightblue" points="526.5,-197.751 523,-187.751 519.5,-197.751 526.5,-197.751"/>
</g>
<!-- Node20 -->
<g id="node20" class="node"><title>Node20</title>
<polygon fill="white" stroke="#bfbfbf" points="556,-168.5 556,-187.5 608,-187.5 608,-168.5 556,-168.5"/>
<text text-anchor="middle" x="582" y="-175.5" font-family="Helvetica,sans-Serif" font-size="10.00">memory</text>
</g>
<!-- Node18&#45;&gt;Node20 -->
<g id="edge29" class="edge"><title>Node18&#45;&gt;Node20</title>
<path fill="none" stroke="midnightblue" d="M532.479,-224.324C541.201,-216.341 554.343,-204.313 564.898,-194.653"/>
<polygon fill="midnightblue" stroke="midnightblue" points="567.334,-197.167 572.348,-187.834 562.608,-192.004 567.334,-197.167"/>
</g>
<!-- Node21 -->
<g id="node21" class="node"><title>Node21</title>
<g id="a_node21"><a xlink:href="_color_8hpp.html" target="_top" xlink:title="Classe Color. ">
<polygon fill="white" stroke="black" points="626.5,-168.5 626.5,-187.5 685.5,-187.5 685.5,-168.5 626.5,-168.5"/>
<text text-anchor="middle" x="656" y="-175.5" font-family="Helvetica,sans-Serif" font-size="10.00">Color.hpp</text>
</a>
</g>
</g>
<!-- Node18&#45;&gt;Node21 -->
<g id="edge30" class="edge"><title>Node18&#45;&gt;Node21</title>
<path fill="none" stroke="midnightblue" d="M544.074,-224.444C566.06,-215.517 600.734,-201.439 625.664,-191.317"/>
<polygon fill="midnightblue" stroke="midnightblue" points="627.076,-194.521 635.024,-187.516 624.442,-188.035 627.076,-194.521"/>
</g>
<!-- Node21&#45;&gt;Node3 -->
<g id="edge32" class="edge"><title>Node21&#45;&gt;Node3</title>
<path fill="none" stroke="midnightblue" d="M626.122,-169.829C583.273,-159.546 504.786,-140.709 461.562,-130.335"/>
<polygon fill="midnightblue" stroke="midnightblue" points="462.17,-126.882 451.629,-127.951 460.536,-133.688 462.17,-126.882"/>
</g>
<!-- Node21&#45;&gt;Node5 -->
<g id="edge33" class="edge"><title>Node21&#45;&gt;Node5</title>
<path fill="none" stroke="midnightblue" d="M656.068,-168.46C655.693,-154.558 652.84,-127.076 637,-112 619.221,-95.0788 560.386,-82.8035 513.214,-75.3891"/>
<polygon fill="midnightblue" stroke="midnightblue" points="513.453,-71.8851 503.039,-73.8356 512.396,-78.8049 513.453,-71.8851"/>
</g>
<!-- Node22 -->
<g id="node22" class="node"><title>Node22</title>
<polygon fill="white" stroke="#bfbfbf" points="582,-112.5 582,-131.5 628,-131.5 628,-112.5 582,-112.5"/>
<text text-anchor="middle" x="605" y="-119.5" font-family="Helvetica,sans-Serif" font-size="10.00">cstdint</text>
</g>
<!-- Node21&#45;&gt;Node22 -->
<g id="edge31" class="edge"><title>Node21&#45;&gt;Node22</title>
<path fill="none" stroke="midnightblue" d="M647.578,-168.083C640.152,-160.22 629.148,-148.569 620.188,-139.081"/>
<polygon fill="midnightblue" stroke="midnightblue" points="622.676,-136.618 613.265,-131.751 617.587,-141.424 622.676,-136.618"/>
</g>
</g>
</svg>
        <g id="navigator" transform="translate(0 0)" fill="#404254">
                <rect fill="#f2f5e9" fill-opacity="0.5" stroke="#606060" stroke-width=".5" x="0" y="0" width="60" height="60"/>
                <use id="zoomplus" xlink:href="#zoomPlus" x="17" y="9" onmousedown="handleZoom(evt,'in')"/>
                <use id="zoomminus" xlink:href="#zoomMin" x="42" y="9" onmousedown="handleZoom(evt,'out')"/>
                <use id="reset" xlink:href="#resetDef" x="30" y="36" onmousedown="handleReset()"/>
                <g id="arrowUp" xlink:href="#dirArrow" transform="translate(30 24)" onmousedown="handlePan(0,-1)">
                  <use xlink:href="#rim" fill="#404040">
                        <set attributeName="fill" to="#808080" begin="arrowUp.mouseover" end="arrowUp.mouseout"/>
                  </use>
                  <path fill="none" stroke="white" stroke-width="1.5" d="M0,-3.0v7 M-2.5,-0.5L0,-3.0L2.5,-0.5"/>
                </g>
                <g id="arrowRight" xlink:href="#dirArrow" transform="rotate(90) translate(36 -43)" onmousedown="handlePan(1,0)">
                  <use xlink:href="#rim" fill="#404040">
                        <set attributeName="fill" to="#808080" begin="arrowRight.mouseover" end="arrowRight.mouseout"/>
                  </use>
                  <path fill="none" stroke="white" stroke-width="1.5" d="M0,-3.0v7 M-2.5,-0.5L0,-3.0L2.5,-0.5"/>
                </g>
                <g id="arrowDown" xlink:href="#dirArrow" transform="rotate(180) translate(-30 -48)" onmousedown="handlePan(0,1)">
                  <use xlink:href="#rim" fill="#404040">
                        <set attributeName="fill" to="#808080" begin="arrowDown.mouseover" end="arrowDown.mouseout"/>
                  </use>
                  <path fill="none" stroke="white" stroke-width="1.5" d="M0,-3.0v7 M-2.5,-0.5L0,-3.0L2.5,-0.5"/>
                </g>
                <g id="arrowLeft" xlink:href="#dirArrow" transform="rotate(270) translate(-36 17)" onmousedown="handlePan(-1,0)">
                  <use xlink:href="#rim" fill="#404040">
                        <set attributeName="fill" to="#808080" begin="arrowLeft.mouseover" end="arrowLeft.mouseout"/>
                  </use>
                  <path fill="none" stroke="white" stroke-width="1.5" d="M0,-3.0v7 M-2.5,-0.5L0,-3.0L2.5,-0.5"/>
                </g>
        </g>
        <svg viewBox="0 0 15 15" width="100%" height="30px" preserveAspectRatio="xMaxYMin meet">
         <g id="arrow_out" transform="scale(0.3 0.3)">
          <a xlink:href="_main_window_8hpp__incl_org.svg" target="_base">
           <rect id="button" ry="5" rx="5" y="6" x="6" height="38" width="38"
                fill="#f2f5e9" fill-opacity="0.5" stroke="#606060" stroke-width="1.0"/>
           <path id="arrow"
             d="M 11.500037,31.436501 C 11.940474,20.09759 22.043105,11.32322 32.158766,21.979434 L 37.068811,17.246167 C 37.068811,17.246167 37.088388,32 37.088388,32 L 22.160133,31.978069 C 22.160133,31.978069 26.997745,27.140456 26.997745,27.140456 C 18.528582,18.264221 13.291696,25.230495 11.500037,31.436501 z"
             style="fill:#404040;"/>
          </a>
         </g>
        </svg>
</svg>
