<?xml version="1.0" encoding="UTF-8" standalone="no"?>
<!DOCTYPE svg PUBLIC "-//W3C//DTD SVG 1.1//EN"
 "http://www.w3.org/Graphics/SVG/1.1/DTD/svg11.dtd">
<!-- Generated by graphviz version 2.36.0 (20140111.2315)
 -->
<!-- Title: MainWindow.cpp Pages: 1 -->
<!--zoomable 432 -->
<svg id="main" version="1.1" xmlns="http://www.w3.org/2000/svg" xmlns:xlink="http://www.w3.org/1999/xlink" xml:space="preserve" onload="init(evt)">
<style type="text/css"><![CDATA[
.edge:hover path { stroke: red; }
.edge:hover polygon { stroke: red; fill: red; }
]]></style>
<script type="text/javascript"><![CDATA[
var edges = document.getElementsByTagName('g');
if (edges && edges.length) {
  for (var i=0;i<edges.length;i++) {
    if (edges[i].id.substr(0,4)=='edge') {
      edges[i].setAttribute('class','edge');
    }
  }
}
]]></script>
        <defs>
                <circle id="rim" cx="0" cy="0" r="7"/>
                <circle id="rim2" cx="0" cy="0" r="3.5"/>
                <g id="zoomPlus">
                        <use xlink:href="#rim" fill="#404040">
                                <set attributeName="fill" to="#808080" begin="zoomplus.mouseover" end="zoomplus.mouseout"/>
                        </use>
                        <path d="M-4,0h8M0,-4v8" fill="none" stroke="white" stroke-width="1.5" pointer-events="none"/>
                </g>
                <g id="zoomMin">
                        <use xlink:href="#rim" fill="#404040">
                                <set attributeName="fill" to="#808080" begin="zoomminus.mouseover" end="zoomminus.mouseout"/>
                        </use>
                        <path d="M-4,0h8" fill="none" stroke="white" stroke-width="1.5" pointer-events="none"/>
                </g>
                <g id="dirArrow">
                        <path fill="none" stroke="white" stroke-width="1.5" d="M0,-3.0v7 M-2.5,-0.5L0,-3.0L2.5,-0.5"/>
                </g>
               <g id="resetDef">
                       <use xlink:href="#rim2" fill="#404040">
                               <set attributeName="fill" to="#808080" begin="reset.mouseover" end="reset.mouseout"/>
                       </use>
               </g>
        </defs>

<script type="text/javascript">
var viewWidth = 1958;
var viewHeight = 432;
var sectionId = 'dynsection-0';
</script>
<script xlink:href="svgpan.js"/>
<svg id="graph" class="graph">
<g id="viewport">
<title>MainWindow.cpp</title>
<polygon fill="white" stroke="none" points="-4,4 -4,-428 1954.3,-428 1954.3,4 -4,4"/>
<!-- Node1 -->
<g id="node1" class="node"><title>Node1</title>
<polygon fill="#bfbfbf" stroke="black" points="863.305,-404.5 863.305,-423.5 955.305,-423.5 955.305,-404.5 863.305,-404.5"/>
<text text-anchor="middle" x="909.305" y="-411.5" font-family="Helvetica,sans-Serif" font-size="10.00">MainWindow.cpp</text>
</g>
<!-- Node2 -->
<g id="node2" class="node"><title>Node2</title>
<g id="a_node2"><a xlink:href="_main_window_8hpp.html" target="_top" xlink:title="../include/MainWindow.hpp">
<polygon fill="white" stroke="black" points="1213.3,-224.5 1213.3,-243.5 1347.3,-243.5 1347.3,-224.5 1213.3,-224.5"/>
<text text-anchor="middle" x="1280.3" y="-231.5" font-family="Helvetica,sans-Serif" font-size="10.00">../include/MainWindow.hpp</text>
</a>
</g>
</g>
<!-- Node1&#45;&gt;Node2 -->
<g id="edge1" class="edge"><title>Node1&#45;&gt;Node2</title>
<path fill="none" stroke="midnightblue" d="M863.187,-412.442C683.279,-410.044 37.058,-399.275 7.30462,-368 -2.49826,-357.696 -2.34612,-346.447 7.30462,-336 88.538,-248.066 938.875,-236.617 1202.69,-235.186"/>
<polygon fill="midnightblue" stroke="midnightblue" points="1202.97,-238.685 1212.95,-235.134 1202.93,-231.685 1202.97,-238.685"/>
</g>
<!-- Node21 -->
<g id="node21" class="node"><title>Node21</title>
<polygon fill="white" stroke="#bfbfbf" points="16.3046,-342.5 16.3046,-361.5 156.305,-361.5 156.305,-342.5 16.3046,-342.5"/>
<text text-anchor="middle" x="86.3046" y="-349.5" font-family="Helvetica,sans-Serif" font-size="10.00">../include/GraphicsPoint.hpp</text>
</g>
<!-- Node1&#45;&gt;Node21 -->
<g id="edge32" class="edge"><title>Node1&#45;&gt;Node21</title>
<path fill="none" stroke="midnightblue" d="M862.972,-412.244C745.724,-409.887 427.9,-400.736 165.305,-368 155.743,-366.808 145.594,-365.168 135.87,-363.409"/>
<polygon fill="midnightblue" stroke="midnightblue" points="136.407,-359.949 125.933,-361.546 135.117,-366.829 136.407,-359.949"/>
</g>
<!-- Node22 -->
<g id="node22" class="node"><title>Node22</title>
<polygon fill="white" stroke="#bfbfbf" points="174.805,-342.5 174.805,-361.5 311.805,-361.5 311.805,-342.5 174.805,-342.5"/>
<text text-anchor="middle" x="243.305" y="-349.5" font-family="Helvetica,sans-Serif" font-size="10.00">../include/GraphicsText.hpp</text>
</g>
<!-- Node1&#45;&gt;Node22 -->
<g id="edge33" class="edge"><title>Node1&#45;&gt;Node22</title>
<path fill="none" stroke="midnightblue" d="M863.291,-411.305C763.83,-407.241 521.534,-395.194 320.305,-368 311.186,-366.768 301.517,-365.141 292.224,-363.414"/>
<polygon fill="midnightblue" stroke="midnightblue" points="292.811,-359.963 282.331,-361.515 291.491,-366.838 292.811,-359.963"/>
</g>
<!-- Node23 -->
<g id="node23" class="node"><title>Node23</title>
<polygon fill="white" stroke="#bfbfbf" points="329.805,-342.5 329.805,-361.5 464.805,-361.5 464.805,-342.5 329.805,-342.5"/>
<text text-anchor="middle" x="397.305" y="-349.5" font-family="Helvetica,sans-Serif" font-size="10.00">../include/GraphicsLine.hpp</text>
</g>
<!-- Node1&#45;&gt;Node23 -->
<g id="edge34" class="edge"><title>Node1&#45;&gt;Node23</title>
<path fill="none" stroke="midnightblue" d="M863.1,-409.584C783.458,-403.393 615.299,-388.983 474.305,-368 465.594,-366.704 456.371,-365.105 447.45,-363.44"/>
<polygon fill="midnightblue" stroke="midnightblue" points="448.03,-359.987 437.55,-361.544 446.713,-366.862 448.03,-359.987"/>
</g>
<!-- Node24 -->
<g id="node24" class="node"><title>Node24</title>
<polygon fill="white" stroke="#bfbfbf" points="483.305,-342.5 483.305,-361.5 635.305,-361.5 635.305,-342.5 483.305,-342.5"/>
<text text-anchor="middle" x="559.305" y="-349.5" font-family="Helvetica,sans-Serif" font-size="10.00">../include/GraphicsTriangle.hpp</text>
</g>
<!-- Node1&#45;&gt;Node24 -->
<g id="edge35" class="edge"><title>Node1&#45;&gt;Node24</title>
<path fill="none" stroke="midnightblue" d="M862.855,-405.206C809.933,-396.304 720.864,-381.255 644.305,-368 635.615,-366.495 626.429,-364.89 617.433,-363.309"/>
<polygon fill="midnightblue" stroke="midnightblue" points="617.85,-359.829 607.394,-361.542 616.636,-366.723 617.85,-359.829"/>
</g>
<!-- Node25 -->
<g id="node25" class="node"><title>Node25</title>
<polygon fill="white" stroke="#bfbfbf" points="653.805,-342.5 653.805,-361.5 814.805,-361.5 814.805,-342.5 653.805,-342.5"/>
<text text-anchor="middle" x="734.305" y="-349.5" font-family="Helvetica,sans-Serif" font-size="10.00">../include/GraphicsRectangle.hpp</text>
</g>
<!-- Node1&#45;&gt;Node25 -->
<g id="edge36" class="edge"><title>Node1&#45;&gt;Node25</title>
<path fill="none" stroke="midnightblue" d="M884.231,-404.403C853.953,-394.022 802.864,-376.506 768.864,-364.849"/>
<polygon fill="midnightblue" stroke="midnightblue" points="769.926,-361.513 759.331,-361.581 767.656,-368.135 769.926,-361.513"/>
</g>
<!-- Node26 -->
<g id="node26" class="node"><title>Node26</title>
<polygon fill="white" stroke="#bfbfbf" points="833.305,-342.5 833.305,-361.5 985.305,-361.5 985.305,-342.5 833.305,-342.5"/>
<text text-anchor="middle" x="909.305" y="-349.5" font-family="Helvetica,sans-Serif" font-size="10.00">../include/GraphicsPolygon.hpp</text>
</g>
<!-- Node1&#45;&gt;Node26 -->
<g id="edge37" class="edge"><title>Node1&#45;&gt;Node26</title>
<path fill="none" stroke="midnightblue" d="M909.305,-404.403C909.305,-395.938 909.305,-382.728 909.305,-371.82"/>
<polygon fill="midnightblue" stroke="midnightblue" points="912.805,-371.581 909.305,-361.581 905.805,-371.581 912.805,-371.581"/>
</g>
<!-- Node27 -->
<g id="node27" class="node"><title>Node27</title>
<polygon fill="white" stroke="#bfbfbf" points="1003.8,-342.5 1003.8,-361.5 1146.8,-361.5 1146.8,-342.5 1003.8,-342.5"/>
<text text-anchor="middle" x="1075.3" y="-349.5" font-family="Helvetica,sans-Serif" font-size="10.00">../include/GraphicsCircle.hpp</text>
</g>
<!-- Node1&#45;&gt;Node27 -->
<g id="edge38" class="edge"><title>Node1&#45;&gt;Node27</title>
<path fill="none" stroke="midnightblue" d="M933.088,-404.403C961.687,-394.067 1009.86,-376.656 1042.11,-364.999"/>
<polygon fill="midnightblue" stroke="midnightblue" points="1043.35,-368.271 1051.56,-361.581 1040.97,-361.688 1043.35,-368.271"/>
</g>
<!-- Node28 -->
<g id="node28" class="node"><title>Node28</title>
<polygon fill="white" stroke="#bfbfbf" points="1165.3,-342.5 1165.3,-361.5 1311.3,-361.5 1311.3,-342.5 1165.3,-342.5"/>
<text text-anchor="middle" x="1238.3" y="-349.5" font-family="Helvetica,sans-Serif" font-size="10.00">../include/GraphicsEllipse.hpp</text>
</g>
<!-- Node1&#45;&gt;Node28 -->
<g id="edge39" class="edge"><title>Node1&#45;&gt;Node28</title>
<path fill="none" stroke="midnightblue" d="M955.397,-404.594C1014.65,-393.787 1117.52,-375.028 1181.53,-363.353"/>
<polygon fill="midnightblue" stroke="midnightblue" points="1182.25,-366.78 1191.46,-361.543 1181,-359.894 1182.25,-366.78"/>
</g>
<!-- Node29 -->
<g id="node29" class="node"><title>Node29</title>
<polygon fill="white" stroke="#bfbfbf" points="1329.3,-342.5 1329.3,-361.5 1477.3,-361.5 1477.3,-342.5 1329.3,-342.5"/>
<text text-anchor="middle" x="1403.3" y="-349.5" font-family="Helvetica,sans-Serif" font-size="10.00">../include/GraphicsSquare.hpp</text>
</g>
<!-- Node1&#45;&gt;Node29 -->
<g id="edge40" class="edge"><title>Node1&#45;&gt;Node29</title>
<path fill="none" stroke="midnightblue" d="M955.358,-409.014C1031.5,-402.187 1188.35,-387.124 1320.3,-368 1329.77,-366.628 1339.81,-364.98 1349.51,-363.286"/>
<polygon fill="midnightblue" stroke="midnightblue" points="1350.23,-366.713 1359.46,-361.513 1349,-359.821 1350.23,-366.713"/>
</g>
<!-- Node30 -->
<g id="node30" class="node"><title>Node30</title>
<polygon fill="white" stroke="#bfbfbf" points="1495.3,-337 1495.3,-367 1615.3,-367 1615.3,-337 1495.3,-337"/>
<text text-anchor="start" x="1503.3" y="-355" font-family="Helvetica,sans-Serif" font-size="10.00">../include/GraphicsBlink</text>
<text text-anchor="middle" x="1555.3" y="-344" font-family="Helvetica,sans-Serif" font-size="10.00">Animation.hpp</text>
</g>
<!-- Node1&#45;&gt;Node30 -->
<g id="edge41" class="edge"><title>Node1&#45;&gt;Node30</title>
<path fill="none" stroke="midnightblue" d="M955.541,-411.532C1052.17,-408.003 1282.63,-397.179 1485.25,-368.022"/>
<polygon fill="midnightblue" stroke="midnightblue" points="1485.79,-371.481 1495.18,-366.575 1484.78,-364.554 1485.79,-371.481"/>
</g>
<!-- Node31 -->
<g id="node31" class="node"><title>Node31</title>
<g id="a_node31"><a xlink:href="_line_edit_8hpp.html" target="_top" xlink:title="LineEdit.hpp">
<polygon fill="white" stroke="black" points="1633.8,-342.5 1633.8,-361.5 1704.8,-361.5 1704.8,-342.5 1633.8,-342.5"/>
<text text-anchor="middle" x="1669.3" y="-349.5" font-family="Helvetica,sans-Serif" font-size="10.00">LineEdit.hpp</text>
</a>
</g>
</g>
<!-- Node1&#45;&gt;Node31 -->
<g id="edge42" class="edge"><title>Node1&#45;&gt;Node31</title>
<path fill="none" stroke="midnightblue" d="M955.318,-411.616C1092.06,-407.263 1494.45,-392.658 1623.3,-368 1627.79,-367.142 1632.44,-365.972 1636.99,-364.662"/>
<polygon fill="midnightblue" stroke="midnightblue" points="1638.17,-367.959 1646.67,-361.635 1636.08,-361.278 1638.17,-367.959"/>
</g>
<!-- Node40 -->
<g id="node40" class="node"><title>Node40</title>
<g id="a_node40"><a xlink:href="_button_8hpp.html" target="_top" xlink:title="Classe Button. ">
<polygon fill="white" stroke="black" points="1726.3,-280.5 1726.3,-299.5 1790.3,-299.5 1790.3,-280.5 1726.3,-280.5"/>
<text text-anchor="middle" x="1758.3" y="-287.5" font-family="Helvetica,sans-Serif" font-size="10.00">Button.hpp</text>
</a>
</g>
</g>
<!-- Node1&#45;&gt;Node40 -->
<g id="edge56" class="edge"><title>Node1&#45;&gt;Node40</title>
<path fill="none" stroke="midnightblue" d="M955.372,-412.939C1116.51,-412.385 1648.64,-407.549 1713.3,-368 1734.73,-354.899 1747.07,-327.496 1753.23,-309.169"/>
<polygon fill="midnightblue" stroke="midnightblue" points="1756.58,-310.191 1756.17,-299.604 1749.89,-308.134 1756.58,-310.191"/>
</g>
<!-- Node3 -->
<g id="node3" class="node"><title>Node3</title>
<g id="a_node3"><a xlink:href="_window_8hpp.html" target="_top" xlink:title="Window.hpp">
<polygon fill="white" stroke="black" points="1244.8,-168.5 1244.8,-187.5 1315.8,-187.5 1315.8,-168.5 1244.8,-168.5"/>
<text text-anchor="middle" x="1280.3" y="-175.5" font-family="Helvetica,sans-Serif" font-size="10.00">Window.hpp</text>
</a>
</g>
</g>
<!-- Node2&#45;&gt;Node3 -->
<g id="edge2" class="edge"><title>Node2&#45;&gt;Node3</title>
<path fill="none" stroke="midnightblue" d="M1280.3,-224.083C1280.3,-217.006 1280.3,-206.861 1280.3,-197.986"/>
<polygon fill="midnightblue" stroke="midnightblue" points="1283.8,-197.751 1280.3,-187.751 1276.8,-197.751 1283.8,-197.751"/>
</g>
<!-- Node14 -->
<g id="node14" class="node"><title>Node14</title>
<g id="a_node14"><a xlink:href="_graphics_item_8hpp.html" target="_top" xlink:title="Classe GraphicsItem. ">
<polygon fill="white" stroke="black" points="1457.3,-168.5 1457.3,-187.5 1551.3,-187.5 1551.3,-168.5 1457.3,-168.5"/>
<text text-anchor="middle" x="1504.3" y="-175.5" font-family="Helvetica,sans-Serif" font-size="10.00">GraphicsItem.hpp</text>
</a>
</g>
</g>
<!-- Node2&#45;&gt;Node14 -->
<g id="edge21" class="edge"><title>Node2&#45;&gt;Node14</title>
<path fill="none" stroke="midnightblue" d="M1315.8,-224.444C1354.63,-215.083 1416.96,-200.056 1459.22,-189.868"/>
<polygon fill="midnightblue" stroke="midnightblue" points="1460.08,-193.263 1468.98,-187.516 1458.44,-186.458 1460.08,-193.263"/>
</g>
<!-- Node4 -->
<g id="node4" class="node"><title>Node4</title>
<polygon fill="white" stroke="#bfbfbf" points="1590.8,-56.5 1590.8,-75.5 1631.8,-75.5 1631.8,-56.5 1590.8,-56.5"/>
<text text-anchor="middle" x="1611.3" y="-63.5" font-family="Helvetica,sans-Serif" font-size="10.00">string</text>
</g>
<!-- Node3&#45;&gt;Node4 -->
<g id="edge3" class="edge"><title>Node3&#45;&gt;Node4</title>
<path fill="none" stroke="midnightblue" d="M1315.91,-170.15C1353.17,-162.54 1413.12,-149.048 1463.3,-132 1507.23,-117.078 1556.14,-94.3231 1585.28,-80.0739"/>
<polygon fill="midnightblue" stroke="midnightblue" points="1586.95,-83.1536 1594.37,-75.5913 1583.85,-76.8757 1586.95,-83.1536"/>
</g>
<!-- Node5 -->
<g id="node5" class="node"><title>Node5</title>
<polygon fill="white" stroke="#bfbfbf" points="1083.3,-112.5 1083.3,-131.5 1129.3,-131.5 1129.3,-112.5 1083.3,-112.5"/>
<text text-anchor="middle" x="1106.3" y="-119.5" font-family="Helvetica,sans-Serif" font-size="10.00">chrono</text>
</g>
<!-- Node3&#45;&gt;Node5 -->
<g id="edge4" class="edge"><title>Node3&#45;&gt;Node5</title>
<path fill="none" stroke="midnightblue" d="M1252.73,-168.444C1221.9,-158.876 1172,-143.389 1139.17,-133.2"/>
<polygon fill="midnightblue" stroke="midnightblue" points="1140.16,-129.842 1129.57,-130.22 1138.08,-136.527 1140.16,-129.842"/>
</g>
<!-- Node6 -->
<g id="node6" class="node"><title>Node6</title>
<polygon fill="white" stroke="#bfbfbf" points="1361.3,-0.5 1361.3,-19.5 1469.3,-19.5 1469.3,-0.5 1361.3,-0.5"/>
<text text-anchor="middle" x="1415.3" y="-7.5" font-family="Helvetica,sans-Serif" font-size="10.00">ez&#45;lib/ez&#45;draw++.hpp</text>
</g>
<!-- Node3&#45;&gt;Node6 -->
<g id="edge5" class="edge"><title>Node3&#45;&gt;Node6</title>
<path fill="none" stroke="midnightblue" d="M1315.82,-177.532C1351.26,-175.917 1404.09,-167.228 1430.3,-132 1452.96,-101.55 1436.52,-54.3992 1424.64,-28.8777"/>
<polygon fill="midnightblue" stroke="midnightblue" points="1427.66,-27.086 1420.1,-19.6608 1421.38,-30.1783 1427.66,-27.086"/>
</g>
<!-- Node7 -->
<g id="node7" class="node"><title>Node7</title>
<g id="a_node7"><a xlink:href="_point_8hpp.html" target="_top" xlink:title="Classe point. ">
<polygon fill="white" stroke="black" points="1191.3,-56.5 1191.3,-75.5 1249.3,-75.5 1249.3,-56.5 1191.3,-56.5"/>
<text text-anchor="middle" x="1220.3" y="-63.5" font-family="Helvetica,sans-Serif" font-size="10.00">Point.hpp</text>
</a>
</g>
</g>
<!-- Node3&#45;&gt;Node7 -->
<g id="edge6" class="edge"><title>Node3&#45;&gt;Node7</title>
<path fill="none" stroke="midnightblue" d="M1244.73,-174.474C1191.55,-169.875 1095.31,-158.09 1074.3,-132 1068.73,-125.076 1069.03,-119.151 1074.3,-112 1080.85,-103.129 1140.5,-86.7953 1181.5,-76.4371"/>
<polygon fill="midnightblue" stroke="midnightblue" points="1182.37,-79.8275 1191.22,-74.0043 1180.67,-73.0369 1182.37,-79.8275"/>
</g>
<!-- Node9 -->
<g id="node9" class="node"><title>Node9</title>
<g id="a_node9"><a xlink:href="_canvas_8hpp.html" target="_top" xlink:title="Canvas.hpp">
<polygon fill="white" stroke="black" points="1147.8,-112.5 1147.8,-131.5 1216.8,-131.5 1216.8,-112.5 1147.8,-112.5"/>
<text text-anchor="middle" x="1182.3" y="-119.5" font-family="Helvetica,sans-Serif" font-size="10.00">Canvas.hpp</text>
</a>
</g>
</g>
<!-- Node3&#45;&gt;Node9 -->
<g id="edge8" class="edge"><title>Node3&#45;&gt;Node9</title>
<path fill="none" stroke="midnightblue" d="M1264.56,-168.324C1248.99,-159.743 1224.93,-146.486 1206.85,-136.522"/>
<polygon fill="midnightblue" stroke="midnightblue" points="1208.46,-133.415 1198.01,-131.655 1205.08,-139.546 1208.46,-133.415"/>
</g>
<!-- Node11 -->
<g id="node11" class="node"><title>Node11</title>
<g id="a_node11"><a xlink:href="_mouse_event_8hpp.html" target="_top" xlink:title="Classe MouseEvent. ">
<polygon fill="white" stroke="black" points="1235.3,-112.5 1235.3,-131.5 1325.3,-131.5 1325.3,-112.5 1235.3,-112.5"/>
<text text-anchor="middle" x="1280.3" y="-119.5" font-family="Helvetica,sans-Serif" font-size="10.00">MouseEvent.hpp</text>
</a>
</g>
</g>
<!-- Node3&#45;&gt;Node11 -->
<g id="edge13" class="edge"><title>Node3&#45;&gt;Node11</title>
<path fill="none" stroke="midnightblue" d="M1280.3,-168.083C1280.3,-161.006 1280.3,-150.861 1280.3,-141.986"/>
<polygon fill="midnightblue" stroke="midnightblue" points="1283.8,-141.751 1280.3,-131.751 1276.8,-141.751 1283.8,-141.751"/>
</g>
<!-- Node13 -->
<g id="node13" class="node"><title>Node13</title>
<g id="a_node13"><a xlink:href="_key_event_8hpp.html" target="_top" xlink:title="Classe KeyEvent. ">
<polygon fill="white" stroke="black" points="1343.3,-112.5 1343.3,-131.5 1421.3,-131.5 1421.3,-112.5 1343.3,-112.5"/>
<text text-anchor="middle" x="1382.3" y="-119.5" font-family="Helvetica,sans-Serif" font-size="10.00">KeyEvent.hpp</text>
</a>
</g>
</g>
<!-- Node3&#45;&gt;Node13 -->
<g id="edge18" class="edge"><title>Node3&#45;&gt;Node13</title>
<path fill="none" stroke="midnightblue" d="M1296.69,-168.324C1312.98,-159.703 1338.17,-146.364 1357.02,-136.386"/>
<polygon fill="midnightblue" stroke="midnightblue" points="1358.76,-139.427 1365.96,-131.655 1355.48,-133.24 1358.76,-139.427"/>
</g>
<!-- Node8 -->
<g id="node8" class="node"><title>Node8</title>
<polygon fill="white" stroke="#bfbfbf" points="1193.3,-0.5 1193.3,-19.5 1247.3,-19.5 1247.3,-0.5 1193.3,-0.5"/>
<text text-anchor="middle" x="1220.3" y="-7.5" font-family="Helvetica,sans-Serif" font-size="10.00">iostream</text>
</g>
<!-- Node7&#45;&gt;Node8 -->
<g id="edge7" class="edge"><title>Node7&#45;&gt;Node8</title>
<path fill="none" stroke="midnightblue" d="M1220.3,-56.083C1220.3,-49.0059 1220.3,-38.8611 1220.3,-29.9865"/>
<polygon fill="midnightblue" stroke="midnightblue" points="1223.8,-29.751 1220.3,-19.7511 1216.8,-29.7511 1223.8,-29.751"/>
</g>
<!-- Node9&#45;&gt;Node6 -->
<g id="edge9" class="edge"><title>Node9&#45;&gt;Node6</title>
<path fill="none" stroke="midnightblue" d="M1200.59,-112.368C1241.34,-93.131 1339.8,-46.6478 1387.91,-23.9314"/>
<polygon fill="midnightblue" stroke="midnightblue" points="1389.56,-27.0257 1397.11,-19.5914 1386.57,-20.6956 1389.56,-27.0257"/>
</g>
<!-- Node9&#45;&gt;Node7 -->
<g id="edge10" class="edge"><title>Node9&#45;&gt;Node7</title>
<path fill="none" stroke="midnightblue" d="M1188.58,-112.083C1193.95,-104.455 1201.82,-93.2645 1208.38,-83.9408"/>
<polygon fill="midnightblue" stroke="midnightblue" points="1211.25,-85.9434 1214.15,-75.7511 1205.53,-81.9149 1211.25,-85.9434"/>
</g>
<!-- Node10 -->
<g id="node10" class="node"><title>Node10</title>
<g id="a_node10"><a xlink:href="_font_8hpp.html" target="_top" xlink:title="Font.hpp">
<polygon fill="white" stroke="black" points="1117.8,-56.5 1117.8,-75.5 1172.8,-75.5 1172.8,-56.5 1117.8,-56.5"/>
<text text-anchor="middle" x="1145.3" y="-63.5" font-family="Helvetica,sans-Serif" font-size="10.00">Font.hpp</text>
</a>
</g>
</g>
<!-- Node9&#45;&gt;Node10 -->
<g id="edge11" class="edge"><title>Node9&#45;&gt;Node10</title>
<path fill="none" stroke="midnightblue" d="M1176.19,-112.083C1171.02,-104.534 1163.46,-93.4948 1157.11,-84.2298"/>
<polygon fill="midnightblue" stroke="midnightblue" points="1159.84,-82.0221 1151.3,-75.7511 1154.07,-85.9787 1159.84,-82.0221"/>
</g>
<!-- Node10&#45;&gt;Node8 -->
<g id="edge12" class="edge"><title>Node10&#45;&gt;Node8</title>
<path fill="none" stroke="midnightblue" d="M1157.35,-56.324C1168.77,-48.1066 1186.14,-35.6017 1199.74,-25.8069"/>
<polygon fill="midnightblue" stroke="midnightblue" points="1201.97,-28.5174 1208.04,-19.8339 1197.87,-22.8366 1201.97,-28.5174"/>
</g>
<!-- Node11&#45;&gt;Node7 -->
<g id="edge17" class="edge"><title>Node11&#45;&gt;Node7</title>
<path fill="none" stroke="midnightblue" d="M1270.66,-112.324C1261.8,-104.341 1248.43,-92.3128 1237.7,-82.6529"/>
<polygon fill="midnightblue" stroke="midnightblue" points="1239.89,-79.922 1230.12,-75.8339 1235.21,-85.1251 1239.89,-79.922"/>
</g>
<!-- Node12 -->
<g id="node12" class="node"><title>Node12</title>
<g id="a_node12"><a xlink:href="_event_8hpp.html" target="_top" xlink:title="Classe Event. ">
<polygon fill="white" stroke="black" points="1351.8,-56.5 1351.8,-75.5 1412.8,-75.5 1412.8,-56.5 1351.8,-56.5"/>
<text text-anchor="middle" x="1382.3" y="-63.5" font-family="Helvetica,sans-Serif" font-size="10.00">Event.hpp</text>
</a>
</g>
</g>
<!-- Node11&#45;&gt;Node12 -->
<g id="edge14" class="edge"><title>Node11&#45;&gt;Node12</title>
<path fill="none" stroke="midnightblue" d="M1296.69,-112.324C1312.98,-103.703 1338.17,-90.3643 1357.02,-80.3855"/>
<polygon fill="midnightblue" stroke="midnightblue" points="1358.76,-83.4267 1365.96,-75.6545 1355.48,-77.2402 1358.76,-83.4267"/>
</g>
<!-- Node12&#45;&gt;Node6 -->
<g id="edge16" class="edge"><title>Node12&#45;&gt;Node6</title>
<path fill="none" stroke="midnightblue" d="M1387.75,-56.083C1392.32,-48.6127 1398.97,-37.7244 1404.6,-28.5199"/>
<polygon fill="midnightblue" stroke="midnightblue" points="1407.73,-30.109 1409.96,-19.7511 1401.76,-26.4588 1407.73,-30.109"/>
</g>
<!-- Node12&#45;&gt;Node8 -->
<g id="edge15" class="edge"><title>Node12&#45;&gt;Node8</title>
<path fill="none" stroke="midnightblue" d="M1356.64,-56.4435C1329.38,-47.3591 1286.12,-32.9388 1255.65,-22.7831"/>
<polygon fill="midnightblue" stroke="midnightblue" points="1256.45,-19.3584 1245.85,-19.5164 1254.23,-25.9992 1256.45,-19.3584"/>
</g>
<!-- Node13&#45;&gt;Node4 -->
<g id="edge19" class="edge"><title>Node13&#45;&gt;Node4</title>
<path fill="none" stroke="midnightblue" d="M1418.59,-112.444C1463.35,-101.888 1538.66,-84.1298 1580.66,-74.2268"/>
<polygon fill="midnightblue" stroke="midnightblue" points="1581.65,-77.5893 1590.58,-71.8876 1580.04,-70.7762 1581.65,-77.5893"/>
</g>
<!-- Node13&#45;&gt;Node12 -->
<g id="edge20" class="edge"><title>Node13&#45;&gt;Node12</title>
<path fill="none" stroke="midnightblue" d="M1382.3,-112.083C1382.3,-105.006 1382.3,-94.8611 1382.3,-85.9865"/>
<polygon fill="midnightblue" stroke="midnightblue" points="1385.8,-85.751 1382.3,-75.7511 1378.8,-85.7511 1385.8,-85.751"/>
</g>
<!-- Node14&#45;&gt;Node9 -->
<g id="edge30" class="edge"><title>Node14&#45;&gt;Node9</title>
<path fill="none" stroke="midnightblue" d="M1456.98,-169.949C1403.63,-161.864 1314.06,-147.882 1226.93,-132.048"/>
<polygon fill="midnightblue" stroke="midnightblue" points="1227.33,-128.565 1216.87,-130.21 1226.07,-135.45 1227.33,-128.565"/>
</g>
<!-- Node14&#45;&gt;Node12 -->
<g id="edge31" class="edge"><title>Node14&#45;&gt;Node12</title>
<path fill="none" stroke="midnightblue" d="M1494.73,-168.368C1474.15,-149.814 1425.46,-105.913 1399.43,-82.4376"/>
<polygon fill="midnightblue" stroke="midnightblue" points="1401.6,-79.6884 1391.83,-75.5914 1396.92,-84.8872 1401.6,-79.6884"/>
</g>
<!-- Node15 -->
<g id="node15" class="node"><title>Node15</title>
<polygon fill="white" stroke="#bfbfbf" points="1749.3,-112.5 1749.3,-131.5 1793.3,-131.5 1793.3,-112.5 1749.3,-112.5"/>
<text text-anchor="middle" x="1771.3" y="-119.5" font-family="Helvetica,sans-Serif" font-size="10.00">vector</text>
</g>
<!-- Node14&#45;&gt;Node15 -->
<g id="edge22" class="edge"><title>Node14&#45;&gt;Node15</title>
<path fill="none" stroke="midnightblue" d="M1551.37,-169.2C1596.85,-161.391 1667.88,-148.486 1738.96,-131.902"/>
<polygon fill="midnightblue" stroke="midnightblue" points="1740.06,-135.239 1748.99,-129.538 1738.45,-128.426 1740.06,-135.239"/>
</g>
<!-- Node16 -->
<g id="node16" class="node"><title>Node16</title>
<polygon fill="white" stroke="#bfbfbf" points="1553.3,-112.5 1553.3,-131.5 1583.3,-131.5 1583.3,-112.5 1553.3,-112.5"/>
<text text-anchor="middle" x="1568.3" y="-119.5" font-family="Helvetica,sans-Serif" font-size="10.00">set</text>
</g>
<!-- Node14&#45;&gt;Node16 -->
<g id="edge23" class="edge"><title>Node14&#45;&gt;Node16</title>
<path fill="none" stroke="midnightblue" d="M1514.59,-168.324C1524.14,-160.263 1538.58,-148.077 1550.09,-138.369"/>
<polygon fill="midnightblue" stroke="midnightblue" points="1552.45,-140.958 1557.83,-131.834 1547.93,-135.608 1552.45,-140.958"/>
</g>
<!-- Node17 -->
<g id="node17" class="node"><title>Node17</title>
<polygon fill="white" stroke="#bfbfbf" points="1601.3,-112.5 1601.3,-131.5 1653.3,-131.5 1653.3,-112.5 1601.3,-112.5"/>
<text text-anchor="middle" x="1627.3" y="-119.5" font-family="Helvetica,sans-Serif" font-size="10.00">memory</text>
</g>
<!-- Node14&#45;&gt;Node17 -->
<g id="edge24" class="edge"><title>Node14&#45;&gt;Node17</title>
<path fill="none" stroke="midnightblue" d="M1523.79,-168.444C1543.95,-159.596 1575.63,-145.687 1598.64,-135.586"/>
<polygon fill="midnightblue" stroke="midnightblue" points="1600.16,-138.741 1607.91,-131.516 1597.34,-132.332 1600.16,-138.741"/>
</g>
<!-- Node18 -->
<g id="node18" class="node"><title>Node18</title>
<polygon fill="white" stroke="#bfbfbf" points="1671.8,-112.5 1671.8,-131.5 1730.8,-131.5 1730.8,-112.5 1671.8,-112.5"/>
<text text-anchor="middle" x="1701.3" y="-119.5" font-family="Helvetica,sans-Serif" font-size="10.00">functional</text>
</g>
<!-- Node14&#45;&gt;Node18 -->
<g id="edge25" class="edge"><title>Node14&#45;&gt;Node18</title>
<path fill="none" stroke="midnightblue" d="M1535.52,-168.444C1569.63,-159.092 1624.37,-144.087 1661.54,-133.9"/>
<polygon fill="midnightblue" stroke="midnightblue" points="1662.81,-137.182 1671.52,-131.163 1660.96,-130.431 1662.81,-137.182"/>
</g>
<!-- Node19 -->
<g id="node19" class="node"><title>Node19</title>
<g id="a_node19"><a xlink:href="_color_8hpp.html" target="_top" xlink:title="Classe Color. ">
<polygon fill="white" stroke="black" points="1891.8,-112.5 1891.8,-131.5 1950.8,-131.5 1950.8,-112.5 1891.8,-112.5"/>
<text text-anchor="middle" x="1921.3" y="-119.5" font-family="Helvetica,sans-Serif" font-size="10.00">Color.hpp</text>
</a>
</g>
</g>
<!-- Node14&#45;&gt;Node19 -->
<g id="edge26" class="edge"><title>Node14&#45;&gt;Node19</title>
<path fill="none" stroke="midnightblue" d="M1551.34,-169.317C1554.37,-168.86 1557.38,-168.417 1560.3,-168 1676.93,-151.365 1815.25,-135.082 1881.74,-127.469"/>
<polygon fill="midnightblue" stroke="midnightblue" points="1882.24,-130.934 1891.78,-126.323 1881.44,-123.979 1882.24,-130.934"/>
</g>
<!-- Node19&#45;&gt;Node4 -->
<g id="edge28" class="edge"><title>Node19&#45;&gt;Node4</title>
<path fill="none" stroke="midnightblue" d="M1891.51,-114.762C1886.76,-113.81 1881.9,-112.859 1877.3,-112 1792.38,-96.1352 1691.73,-79.769 1642.11,-71.8612"/>
<polygon fill="midnightblue" stroke="midnightblue" points="1642.47,-68.3736 1632.04,-70.2607 1641.37,-75.2869 1642.47,-68.3736"/>
</g>
<!-- Node19&#45;&gt;Node6 -->
<g id="edge29" class="edge"><title>Node19&#45;&gt;Node6</title>
<path fill="none" stroke="midnightblue" d="M1891.43,-113.779C1840.16,-101.458 1732.08,-75.788 1640.3,-56 1582.38,-43.5109 1515.8,-30.3424 1470.19,-21.5007"/>
<polygon fill="midnightblue" stroke="midnightblue" points="1470.69,-18.0336 1460.21,-19.571 1469.36,-24.9062 1470.69,-18.0336"/>
</g>
<!-- Node20 -->
<g id="node20" class="node"><title>Node20</title>
<polygon fill="white" stroke="#bfbfbf" points="1898.3,-56.5 1898.3,-75.5 1944.3,-75.5 1944.3,-56.5 1898.3,-56.5"/>
<text text-anchor="middle" x="1921.3" y="-63.5" font-family="Helvetica,sans-Serif" font-size="10.00">cstdint</text>
</g>
<!-- Node19&#45;&gt;Node20 -->
<g id="edge27" class="edge"><title>Node19&#45;&gt;Node20</title>
<path fill="none" stroke="midnightblue" d="M1921.3,-112.083C1921.3,-105.006 1921.3,-94.8611 1921.3,-85.9865"/>
<polygon fill="midnightblue" stroke="midnightblue" points="1924.8,-85.751 1921.3,-75.7511 1917.8,-85.7511 1924.8,-85.751"/>
</g>
<!-- Node32 -->
<g id="node32" class="node"><title>Node32</title>
<g id="a_node32"><a xlink:href="_widget_8hpp.html" target="_top" xlink:title="Widget.hpp">
<polygon fill="white" stroke="black" points="1627.3,-224.5 1627.3,-243.5 1693.3,-243.5 1693.3,-224.5 1627.3,-224.5"/>
<text text-anchor="middle" x="1660.3" y="-231.5" font-family="Helvetica,sans-Serif" font-size="10.00">Widget.hpp</text>
</a>
</g>
</g>
<!-- Node31&#45;&gt;Node32 -->
<g id="edge43" class="edge"><title>Node31&#45;&gt;Node32</title>
<path fill="none" stroke="midnightblue" d="M1668.63,-342.281C1667.17,-323.547 1663.73,-279.098 1661.75,-253.682"/>
<polygon fill="midnightblue" stroke="midnightblue" points="1665.23,-253.204 1660.96,-243.505 1658.25,-253.746 1665.23,-253.204"/>
</g>
<!-- Node35 -->
<g id="node35" class="node"><title>Node35</title>
<g id="a_node35"><a xlink:href="_graphics_rectangle_8hpp.html" target="_top" xlink:title="GraphicsRectangle.hpp">
<polygon fill="white" stroke="black" points="1711.8,-224.5 1711.8,-243.5 1830.8,-243.5 1830.8,-224.5 1711.8,-224.5"/>
<text text-anchor="middle" x="1771.3" y="-231.5" font-family="Helvetica,sans-Serif" font-size="10.00">GraphicsRectangle.hpp</text>
</a>
</g>
</g>
<!-- Node31&#45;&gt;Node35 -->
<g id="edge47" class="edge"><title>Node31&#45;&gt;Node35</title>
<path fill="none" stroke="midnightblue" d="M1674.2,-342.129C1682.18,-328.1 1698.94,-300.304 1717.3,-280 1727.28,-268.969 1740,-258.242 1750.58,-250.03"/>
<polygon fill="midnightblue" stroke="midnightblue" points="1753,-252.592 1758.87,-243.772 1748.78,-247.007 1753,-252.592"/>
</g>
<!-- Node37 -->
<g id="node37" class="node"><title>Node37</title>
<g id="a_node37"><a xlink:href="_graphics_text_8hpp.html" target="_top" xlink:title="Classe GraphicsText. ">
<polygon fill="white" stroke="black" points="1395.3,-224.5 1395.3,-243.5 1489.3,-243.5 1489.3,-224.5 1395.3,-224.5"/>
<text text-anchor="middle" x="1442.3" y="-231.5" font-family="Helvetica,sans-Serif" font-size="10.00">GraphicsText.hpp</text>
</a>
</g>
</g>
<!-- Node31&#45;&gt;Node37 -->
<g id="edge50" class="edge"><title>Node31&#45;&gt;Node37</title>
<path fill="none" stroke="midnightblue" d="M1643.43,-342.46C1600.79,-328.366 1520.14,-301.622 1517.3,-300 1494.08,-286.734 1471.44,-265.653 1457.22,-251.114"/>
<polygon fill="midnightblue" stroke="midnightblue" points="1459.67,-248.615 1450.23,-243.802 1454.61,-253.45 1459.67,-248.615"/>
</g>
<!-- Node38 -->
<g id="node38" class="node"><title>Node38</title>
<g id="a_node38"><a xlink:href="_graphics_line_8hpp.html" target="_top" xlink:title="GraphicsLine.hpp">
<polygon fill="white" stroke="black" points="1526.3,-280.5 1526.3,-299.5 1618.3,-299.5 1618.3,-280.5 1526.3,-280.5"/>
<text text-anchor="middle" x="1572.3" y="-287.5" font-family="Helvetica,sans-Serif" font-size="10.00">GraphicsLine.hpp</text>
</a>
</g>
</g>
<!-- Node31&#45;&gt;Node38 -->
<g id="edge53" class="edge"><title>Node31&#45;&gt;Node38</title>
<path fill="none" stroke="midnightblue" d="M1655.41,-342.403C1639.56,-332.601 1613.43,-316.439 1594.7,-304.853"/>
<polygon fill="midnightblue" stroke="midnightblue" points="1596.52,-301.865 1586.18,-299.581 1592.84,-307.818 1596.52,-301.865"/>
</g>
<!-- Node32&#45;&gt;Node14 -->
<g id="edge46" class="edge"><title>Node32&#45;&gt;Node14</title>
<path fill="none" stroke="midnightblue" d="M1635.59,-224.444C1609.46,-215.399 1568.05,-201.064 1538.73,-190.916"/>
<polygon fill="midnightblue" stroke="midnightblue" points="1539.5,-187.48 1528.91,-187.516 1537.21,-194.095 1539.5,-187.48"/>
</g>
<!-- Node33 -->
<g id="node33" class="node"><title>Node33</title>
<polygon fill="white" stroke="#bfbfbf" points="1569.8,-168.5 1569.8,-187.5 1696.8,-187.5 1696.8,-168.5 1569.8,-168.5"/>
<text text-anchor="middle" x="1633.3" y="-175.5" font-family="Helvetica,sans-Serif" font-size="10.00">boost/signals2/signal.hpp</text>
</g>
<!-- Node32&#45;&gt;Node33 -->
<g id="edge44" class="edge"><title>Node32&#45;&gt;Node33</title>
<path fill="none" stroke="midnightblue" d="M1655.85,-224.083C1652.15,-216.691 1646.78,-205.953 1642.21,-196.811"/>
<polygon fill="midnightblue" stroke="midnightblue" points="1645.28,-195.13 1637.68,-187.751 1639.02,-198.261 1645.28,-195.13"/>
</g>
<!-- Node34 -->
<g id="node34" class="node"><title>Node34</title>
<polygon fill="white" stroke="#bfbfbf" points="1715.3,-168.5 1715.3,-187.5 1795.3,-187.5 1795.3,-168.5 1715.3,-168.5"/>
<text text-anchor="middle" x="1755.3" y="-175.5" font-family="Helvetica,sans-Serif" font-size="10.00">boost/bind.hpp</text>
</g>
<!-- Node32&#45;&gt;Node34 -->
<g id="edge45" class="edge"><title>Node32&#45;&gt;Node34</title>
<path fill="none" stroke="midnightblue" d="M1675.57,-224.324C1690.53,-215.822 1713.56,-202.729 1731.03,-192.797"/>
<polygon fill="midnightblue" stroke="midnightblue" points="1733.12,-195.639 1740.08,-187.655 1729.66,-189.553 1733.12,-195.639"/>
</g>
<!-- Node35&#45;&gt;Node14 -->
<g id="edge49" class="edge"><title>Node35&#45;&gt;Node14</title>
<path fill="none" stroke="midnightblue" d="M1729,-224.444C1682.22,-214.984 1606.84,-199.738 1556.45,-189.547"/>
<polygon fill="midnightblue" stroke="midnightblue" points="1556.91,-186.068 1546.41,-187.516 1555.52,-192.929 1556.91,-186.068"/>
</g>
<!-- Node36 -->
<g id="node36" class="node"><title>Node36</title>
<polygon fill="white" stroke="#bfbfbf" points="1813.3,-168.5 1813.3,-187.5 1857.3,-187.5 1857.3,-168.5 1813.3,-168.5"/>
<text text-anchor="middle" x="1835.3" y="-175.5" font-family="Helvetica,sans-Serif" font-size="10.00">cmath</text>
</g>
<!-- Node35&#45;&gt;Node36 -->
<g id="edge48" class="edge"><title>Node35&#45;&gt;Node36</title>
<path fill="none" stroke="midnightblue" d="M1781.59,-224.324C1791.14,-216.263 1805.58,-204.077 1817.09,-194.369"/>
<polygon fill="midnightblue" stroke="midnightblue" points="1819.45,-196.958 1824.83,-187.834 1814.93,-191.608 1819.45,-196.958"/>
</g>
<!-- Node37&#45;&gt;Node10 -->
<g id="edge52" class="edge"><title>Node37&#45;&gt;Node10</title>
<path fill="none" stroke="midnightblue" d="M1395,-227.63C1302.85,-216.064 1104.89,-185.428 1066.3,-132 1050.4,-109.974 1081.71,-91.0632 1109.48,-79.4085"/>
<polygon fill="midnightblue" stroke="midnightblue" points="1111.08,-82.5412 1119.08,-75.5955 1108.49,-76.036 1111.08,-82.5412"/>
</g>
<!-- Node37&#45;&gt;Node14 -->
<g id="edge51" class="edge"><title>Node37&#45;&gt;Node14</title>
<path fill="none" stroke="midnightblue" d="M1452.27,-224.324C1461.43,-216.341 1475.24,-204.313 1486.33,-194.653"/>
<polygon fill="midnightblue" stroke="midnightblue" points="1488.92,-197.041 1494.16,-187.834 1484.32,-191.762 1488.92,-197.041"/>
</g>
<!-- Node39 -->
<g id="node39" class="node"><title>Node39</title>
<g id="a_node39"><a xlink:href="_graphics_shape_8hpp.html" target="_top" xlink:title="Classe GraphicsShape. ">
<polygon fill="white" stroke="black" points="1507.3,-224.5 1507.3,-243.5 1609.3,-243.5 1609.3,-224.5 1507.3,-224.5"/>
<text text-anchor="middle" x="1558.3" y="-231.5" font-family="Helvetica,sans-Serif" font-size="10.00">GraphicsShape.hpp</text>
</a>
</g>
</g>
<!-- Node38&#45;&gt;Node39 -->
<g id="edge54" class="edge"><title>Node38&#45;&gt;Node39</title>
<path fill="none" stroke="midnightblue" d="M1569.99,-280.083C1568.14,-272.927 1565.47,-262.635 1563.15,-253.691"/>
<polygon fill="midnightblue" stroke="midnightblue" points="1566.47,-252.553 1560.57,-243.751 1559.7,-254.309 1566.47,-252.553"/>
</g>
<!-- Node39&#45;&gt;Node14 -->
<g id="edge55" class="edge"><title>Node39&#45;&gt;Node14</title>
<path fill="none" stroke="midnightblue" d="M1549.39,-224.083C1541.52,-216.22 1529.87,-204.569 1520.39,-195.081"/>
<polygon fill="midnightblue" stroke="midnightblue" points="1522.6,-192.347 1513.06,-187.751 1517.65,-197.297 1522.6,-192.347"/>
</g>
<!-- Node40&#45;&gt;Node4 -->
<g id="edge60" class="edge"><title>Node40&#45;&gt;Node4</title>
<path fill="none" stroke="midnightblue" d="M1782.19,-280.437C1799.87,-273.081 1823.53,-260.963 1839.3,-244 1863.62,-217.859 1880.06,-200.509 1865.3,-168 1849.69,-133.582 1835.06,-129.01 1801.3,-112 1737.29,-79.7373 1710.84,-95.1964 1641.98,-77.4139"/>
<polygon fill="midnightblue" stroke="midnightblue" points="1642.54,-73.9393 1631.97,-74.6757 1640.69,-80.691 1642.54,-73.9393"/>
</g>
<!-- Node40&#45;&gt;Node32 -->
<g id="edge57" class="edge"><title>Node40&#45;&gt;Node32</title>
<path fill="none" stroke="midnightblue" d="M1742.56,-280.324C1726.99,-271.743 1702.93,-258.486 1684.85,-248.522"/>
<polygon fill="midnightblue" stroke="midnightblue" points="1686.46,-245.415 1676.01,-243.655 1683.08,-251.546 1686.46,-245.415"/>
</g>
<!-- Node40&#45;&gt;Node35 -->
<g id="edge58" class="edge"><title>Node40&#45;&gt;Node35</title>
<path fill="none" stroke="midnightblue" d="M1760.45,-280.083C1762.17,-272.927 1764.65,-262.635 1766.8,-253.691"/>
<polygon fill="midnightblue" stroke="midnightblue" points="1770.26,-254.293 1769.2,-243.751 1763.45,-252.654 1770.26,-254.293"/>
</g>
<!-- Node40&#45;&gt;Node37 -->
<g id="edge59" class="edge"><title>Node40&#45;&gt;Node37</title>
<path fill="none" stroke="midnightblue" d="M1726.27,-283.525C1673.06,-274.433 1565.78,-256.1 1499.38,-244.754"/>
<polygon fill="midnightblue" stroke="midnightblue" points="1499.94,-241.298 1489.49,-243.064 1498.76,-248.198 1499.94,-241.298"/>
</g>
</g>
</svg>
        <g id="navigator" transform="translate(0 0)" fill="#404254">
                <rect fill="#f2f5e9" fill-opacity="0.5" stroke="#606060" stroke-width=".5" x="0" y="0" width="60" height="60"/>
                <use id="zoomplus" xlink:href="#zoomPlus" x="17" y="9" onmousedown="handleZoom(evt,'in')"/>
                <use id="zoomminus" xlink:href="#zoomMin" x="42" y="9" onmousedown="handleZoom(evt,'out')"/>
                <use id="reset" xlink:href="#resetDef" x="30" y="36" onmousedown="handleReset()"/>
                <g id="arrowUp" xlink:href="#dirArrow" transform="translate(30 24)" onmousedown="handlePan(0,-1)">
                  <use xlink:href="#rim" fill="#404040">
                        <set attributeName="fill" to="#808080" begin="arrowUp.mouseover" end="arrowUp.mouseout"/>
                  </use>
                  <path fill="none" stroke="white" stroke-width="1.5" d="M0,-3.0v7 M-2.5,-0.5L0,-3.0L2.5,-0.5"/>
                </g>
                <g id="arrowRight" xlink:href="#dirArrow" transform="rotate(90) translate(36 -43)" onmousedown="handlePan(1,0)">
                  <use xlink:href="#rim" fill="#404040">
                        <set attributeName="fill" to="#808080" begin="arrowRight.mouseover" end="arrowRight.mouseout"/>
                  </use>
                  <path fill="none" stroke="white" stroke-width="1.5" d="M0,-3.0v7 M-2.5,-0.5L0,-3.0L2.5,-0.5"/>
                </g>
                <g id="arrowDown" xlink:href="#dirArrow" transform="rotate(180) translate(-30 -48)" onmousedown="handlePan(0,1)">
                  <use xlink:href="#rim" fill="#404040">
                        <set attributeName="fill" to="#808080" begin="arrowDown.mouseover" end="arrowDown.mouseout"/>
                  </use>
                  <path fill="none" stroke="white" stroke-width="1.5" d="M0,-3.0v7 M-2.5,-0.5L0,-3.0L2.5,-0.5"/>
                </g>
                <g id="arrowLeft" xlink:href="#dirArrow" transform="rotate(270) translate(-36 17)" onmousedown="handlePan(-1,0)">
                  <use xlink:href="#rim" fill="#404040">
                        <set attributeName="fill" to="#808080" begin="arrowLeft.mouseover" end="arrowLeft.mouseout"/>
                  </use>
                  <path fill="none" stroke="white" stroke-width="1.5" d="M0,-3.0v7 M-2.5,-0.5L0,-3.0L2.5,-0.5"/>
                </g>
        </g>
        <svg viewBox="0 0 15 15" width="100%" height="30px" preserveAspectRatio="xMaxYMin meet">
         <g id="arrow_out" transform="scale(0.3 0.3)">
          <a xlink:href="_main_window_8cpp__incl_org.svg" target="_base">
           <rect id="button" ry="5" rx="5" y="6" x="6" height="38" width="38"
                fill="#f2f5e9" fill-opacity="0.5" stroke="#606060" stroke-width="1.0"/>
           <path id="arrow"
             d="M 11.500037,31.436501 C 11.940474,20.09759 22.043105,11.32322 32.158766,21.979434 L 37.068811,17.246167 C 37.068811,17.246167 37.088388,32 37.088388,32 L 22.160133,31.978069 C 22.160133,31.978069 26.997745,27.140456 26.997745,27.140456 C 18.528582,18.264221 13.291696,25.230495 11.500037,31.436501 z"
             style="fill:#404040;"/>
          </a>
         </g>
        </svg>
</svg>
