<?xml version="1.0" encoding="UTF-8" standalone="no"?>
<!DOCTYPE svg PUBLIC "-//W3C//DTD SVG 1.1//EN"
 "http://www.w3.org/Graphics/SVG/1.1/DTD/svg11.dtd">
<!-- Generated by graphviz version 2.36.0 (20140111.2315)
 -->
<!-- Title: MainWindow.cpp Pages: 1 -->
<!--zoomable 432 -->
<svg id="main" version="1.1" xmlns="http://www.w3.org/2000/svg" xmlns:xlink="http://www.w3.org/1999/xlink" xml:space="preserve" onload="init(evt)">
<style type="text/css"><![CDATA[
.edge:hover path { stroke: red; }
.edge:hover polygon { stroke: red; fill: red; }
]]></style>
<script type="text/javascript"><![CDATA[
var edges = document.getElementsByTagName('g');
if (edges && edges.length) {
  for (var i=0;i<edges.length;i++) {
    if (edges[i].id.substr(0,4)=='edge') {
      edges[i].setAttribute('class','edge');
    }
  }
}
]]></script>
        <defs>
                <circle id="rim" cx="0" cy="0" r="7"/>
                <circle id="rim2" cx="0" cy="0" r="3.5"/>
                <g id="zoomPlus">
                        <use xlink:href="#rim" fill="#404040">
                                <set attributeName="fill" to="#808080" begin="zoomplus.mouseover" end="zoomplus.mouseout"/>
                        </use>
                        <path d="M-4,0h8M0,-4v8" fill="none" stroke="white" stroke-width="1.5" pointer-events="none"/>
                </g>
                <g id="zoomMin">
                        <use xlink:href="#rim" fill="#404040">
                                <set attributeName="fill" to="#808080" begin="zoomminus.mouseover" end="zoomminus.mouseout"/>
                        </use>
                        <path d="M-4,0h8" fill="none" stroke="white" stroke-width="1.5" pointer-events="none"/>
                </g>
                <g id="dirArrow">
                        <path fill="none" stroke="white" stroke-width="1.5" d="M0,-3.0v7 M-2.5,-0.5L0,-3.0L2.5,-0.5"/>
                </g>
               <g id="resetDef">
                       <use xlink:href="#rim2" fill="#404040">
                               <set attributeName="fill" to="#808080" begin="reset.mouseover" end="reset.mouseout"/>
                       </use>
               </g>
        </defs>

<script type="text/javascript">
var viewWidth = 2282;
var viewHeight = 432;
var sectionId = 'dynsection-0';
</script>
<script xlink:href="svgpan.js"/>
<svg id="graph" class="graph">
<g id="viewport">
<title>MainWindow.cpp</title>
<polygon fill="white" stroke="none" points="-4,4 -4,-428 2278,-428 2278,4 -4,4"/>
<!-- Node1 -->
<g id="node1" class="node"><title>Node1</title>
<polygon fill="#bfbfbf" stroke="black" points="1259,-404.5 1259,-423.5 1351,-423.5 1351,-404.5 1259,-404.5"/>
<text text-anchor="middle" x="1305" y="-411.5" font-family="Helvetica,sans-Serif" font-size="10.00">MainWindow.cpp</text>
</g>
<!-- Node2 -->
<g id="node2" class="node"><title>Node2</title>
<g id="a_node2"><a xlink:href="_main_window_8hpp.html" target="_top" xlink:title="../include/MainWindow.hpp">
<polygon fill="white" stroke="black" points="432,-224.5 432,-243.5 566,-243.5 566,-224.5 432,-224.5"/>
<text text-anchor="middle" x="499" y="-231.5" font-family="Helvetica,sans-Serif" font-size="10.00">../include/MainWindow.hpp</text>
</a>
</g>
</g>
<!-- Node1&#45;&gt;Node2 -->
<g id="edge1" class="edge"><title>Node1&#45;&gt;Node2</title>
<path fill="none" stroke="midnightblue" d="M1258.83,-412.66C1107.66,-411.205 633.901,-403.805 576,-368 533.945,-341.994 512.426,-283.94 503.75,-253.868"/>
<polygon fill="midnightblue" stroke="midnightblue" points="507.027,-252.577 501.037,-243.837 500.269,-254.404 507.027,-252.577"/>
</g>
<!-- Node25 -->
<g id="node25" class="node"><title>Node25</title>
<polygon fill="white" stroke="#bfbfbf" points="675,-342.5 675,-361.5 815,-361.5 815,-342.5 675,-342.5"/>
<text text-anchor="middle" x="745" y="-349.5" font-family="Helvetica,sans-Serif" font-size="10.00">../include/GraphicsPoint.hpp</text>
</g>
<!-- Node1&#45;&gt;Node25 -->
<g id="edge38" class="edge"><title>Node1&#45;&gt;Node25</title>
<path fill="none" stroke="midnightblue" d="M1258.84,-410.089C1173.08,-404.367 983.521,-390.244 825,-368 815.751,-366.702 805.945,-365.075 796.487,-363.374"/>
<polygon fill="midnightblue" stroke="midnightblue" points="796.872,-359.886 786.402,-361.512 795.601,-366.77 796.872,-359.886"/>
</g>
<!-- Node26 -->
<g id="node26" class="node"><title>Node26</title>
<polygon fill="white" stroke="#bfbfbf" points="833.5,-342.5 833.5,-361.5 970.5,-361.5 970.5,-342.5 833.5,-342.5"/>
<text text-anchor="middle" x="902" y="-349.5" font-family="Helvetica,sans-Serif" font-size="10.00">../include/GraphicsText.hpp</text>
</g>
<!-- Node1&#45;&gt;Node26 -->
<g id="edge39" class="edge"><title>Node1&#45;&gt;Node26</title>
<path fill="none" stroke="midnightblue" d="M1258.87,-407.386C1195.76,-399.529 1079.05,-384.37 980,-368 971.59,-366.61 962.694,-365.017 954.037,-363.4"/>
<polygon fill="midnightblue" stroke="midnightblue" points="954.505,-359.926 944.027,-361.501 953.2,-366.803 954.505,-359.926"/>
</g>
<!-- Node27 -->
<g id="node27" class="node"><title>Node27</title>
<polygon fill="white" stroke="#bfbfbf" points="988.5,-342.5 988.5,-361.5 1123.5,-361.5 1123.5,-342.5 988.5,-342.5"/>
<text text-anchor="middle" x="1056" y="-349.5" font-family="Helvetica,sans-Serif" font-size="10.00">../include/GraphicsLine.hpp</text>
</g>
<!-- Node1&#45;&gt;Node27 -->
<g id="edge40" class="edge"><title>Node1&#45;&gt;Node27</title>
<path fill="none" stroke="midnightblue" d="M1269.59,-404.467C1225.34,-393.805 1149.56,-375.545 1101.18,-363.886"/>
<polygon fill="midnightblue" stroke="midnightblue" points="1101.83,-360.443 1091.29,-361.503 1100.19,-367.249 1101.83,-360.443"/>
</g>
<!-- Node28 -->
<g id="node28" class="node"><title>Node28</title>
<polygon fill="white" stroke="#bfbfbf" points="1142,-342.5 1142,-361.5 1294,-361.5 1294,-342.5 1142,-342.5"/>
<text text-anchor="middle" x="1218" y="-349.5" font-family="Helvetica,sans-Serif" font-size="10.00">../include/GraphicsTriangle.hpp</text>
</g>
<!-- Node1&#45;&gt;Node28 -->
<g id="edge41" class="edge"><title>Node1&#45;&gt;Node28</title>
<path fill="none" stroke="midnightblue" d="M1292.54,-404.403C1278.58,-394.78 1255.74,-379.024 1239.01,-367.489"/>
<polygon fill="midnightblue" stroke="midnightblue" points="1240.66,-364.377 1230.44,-361.581 1236.69,-370.139 1240.66,-364.377"/>
</g>
<!-- Node29 -->
<g id="node29" class="node"><title>Node29</title>
<polygon fill="white" stroke="#bfbfbf" points="1312.5,-342.5 1312.5,-361.5 1473.5,-361.5 1473.5,-342.5 1312.5,-342.5"/>
<text text-anchor="middle" x="1393" y="-349.5" font-family="Helvetica,sans-Serif" font-size="10.00">../include/GraphicsRectangle.hpp</text>
</g>
<!-- Node1&#45;&gt;Node29 -->
<g id="edge42" class="edge"><title>Node1&#45;&gt;Node29</title>
<path fill="none" stroke="midnightblue" d="M1317.61,-404.403C1331.72,-394.78 1354.83,-379.024 1371.75,-367.489"/>
<polygon fill="midnightblue" stroke="midnightblue" points="1374.12,-370.106 1380.42,-361.581 1370.18,-364.322 1374.12,-370.106"/>
</g>
<!-- Node30 -->
<g id="node30" class="node"><title>Node30</title>
<polygon fill="white" stroke="#bfbfbf" points="1492,-342.5 1492,-361.5 1644,-361.5 1644,-342.5 1492,-342.5"/>
<text text-anchor="middle" x="1568" y="-349.5" font-family="Helvetica,sans-Serif" font-size="10.00">../include/GraphicsPolygon.hpp</text>
</g>
<!-- Node1&#45;&gt;Node30 -->
<g id="edge43" class="edge"><title>Node1&#45;&gt;Node30</title>
<path fill="none" stroke="midnightblue" d="M1342.4,-404.467C1389.33,-393.76 1469.85,-375.392 1520.92,-363.74"/>
<polygon fill="midnightblue" stroke="midnightblue" points="1521.76,-367.14 1530.73,-361.503 1520.2,-360.315 1521.76,-367.14"/>
</g>
<!-- Node31 -->
<g id="node31" class="node"><title>Node31</title>
<polygon fill="white" stroke="#bfbfbf" points="1662.5,-342.5 1662.5,-361.5 1805.5,-361.5 1805.5,-342.5 1662.5,-342.5"/>
<text text-anchor="middle" x="1734" y="-349.5" font-family="Helvetica,sans-Serif" font-size="10.00">../include/GraphicsCircle.hpp</text>
</g>
<!-- Node1&#45;&gt;Node31 -->
<g id="edge44" class="edge"><title>Node1&#45;&gt;Node31</title>
<path fill="none" stroke="midnightblue" d="M1351.27,-407.83C1418.06,-400.183 1545.28,-384.927 1653,-368 1661.83,-366.613 1671.17,-365.009 1680.25,-363.377"/>
<polygon fill="midnightblue" stroke="midnightblue" points="1681.15,-366.772 1690.36,-361.533 1679.89,-359.886 1681.15,-366.772"/>
</g>
<!-- Node32 -->
<g id="node32" class="node"><title>Node32</title>
<polygon fill="white" stroke="#bfbfbf" points="1824,-342.5 1824,-361.5 1970,-361.5 1970,-342.5 1824,-342.5"/>
<text text-anchor="middle" x="1897" y="-349.5" font-family="Helvetica,sans-Serif" font-size="10.00">../include/GraphicsEllipse.hpp</text>
</g>
<!-- Node1&#45;&gt;Node32 -->
<g id="edge45" class="edge"><title>Node1&#45;&gt;Node32</title>
<path fill="none" stroke="midnightblue" d="M1351.13,-410.327C1440.65,-404.829 1644.09,-390.817 1814,-368 1823.69,-366.698 1833.98,-365.055 1843.89,-363.336"/>
<polygon fill="midnightblue" stroke="midnightblue" points="1844.81,-366.728 1854.04,-361.529 1843.58,-359.836 1844.81,-366.728"/>
</g>
<!-- Node33 -->
<g id="node33" class="node"><title>Node33</title>
<polygon fill="white" stroke="#bfbfbf" points="1988,-342.5 1988,-361.5 2136,-361.5 2136,-342.5 1988,-342.5"/>
<text text-anchor="middle" x="2062" y="-349.5" font-family="Helvetica,sans-Serif" font-size="10.00">../include/GraphicsSquare.hpp</text>
</g>
<!-- Node1&#45;&gt;Node33 -->
<g id="edge46" class="edge"><title>Node1&#45;&gt;Node33</title>
<path fill="none" stroke="midnightblue" d="M1351.34,-411.696C1460.87,-408.225 1744.18,-396.965 1979,-368 1989.03,-366.763 1999.68,-365.103 2009.89,-363.338"/>
<polygon fill="midnightblue" stroke="midnightblue" points="2010.69,-366.752 2019.92,-361.55 2009.46,-359.861 2010.69,-366.752"/>
</g>
<!-- Node34 -->
<g id="node34" class="node"><title>Node34</title>
<polygon fill="white" stroke="#bfbfbf" points="2154,-337 2154,-367 2274,-367 2274,-337 2154,-337"/>
<text text-anchor="start" x="2162" y="-355" font-family="Helvetica,sans-Serif" font-size="10.00">../include/GraphicsBlink</text>
<text text-anchor="middle" x="2214" y="-344" font-family="Helvetica,sans-Serif" font-size="10.00">Animation.hpp</text>
</g>
<!-- Node1&#45;&gt;Node34 -->
<g id="edge47" class="edge"><title>Node1&#45;&gt;Node34</title>
<path fill="none" stroke="midnightblue" d="M1351.23,-413.12C1477.09,-412.894 1836.48,-408.566 2143.89,-367.997"/>
<polygon fill="midnightblue" stroke="midnightblue" points="2144.44,-371.455 2153.89,-366.662 2143.51,-364.516 2144.44,-371.455"/>
</g>
<!-- Node35 -->
<g id="node35" class="node"><title>Node35</title>
<g id="a_node35"><a xlink:href="_line_edit_8hpp.html" target="_top" xlink:title="LineEdit.hpp">
<polygon fill="white" stroke="black" points="585.5,-342.5 585.5,-361.5 656.5,-361.5 656.5,-342.5 585.5,-342.5"/>
<text text-anchor="middle" x="621" y="-349.5" font-family="Helvetica,sans-Serif" font-size="10.00">LineEdit.hpp</text>
</a>
</g>
</g>
<!-- Node1&#45;&gt;Node35 -->
<g id="edge48" class="edge"><title>Node1&#45;&gt;Node35</title>
<path fill="none" stroke="midnightblue" d="M1258.76,-413.696C1152.8,-414.435 884.71,-411.431 666,-368 661.729,-367.152 657.303,-366.014 652.967,-364.743"/>
<polygon fill="midnightblue" stroke="midnightblue" points="653.723,-361.31 643.132,-361.607 651.596,-367.979 653.723,-361.31"/>
</g>
<!-- Node3 -->
<g id="node3" class="node"><title>Node3</title>
<g id="a_node3"><a xlink:href="_window_8hpp.html" target="_top" xlink:title="Window.hpp">
<polygon fill="white" stroke="black" points="437.5,-168.5 437.5,-187.5 508.5,-187.5 508.5,-168.5 437.5,-168.5"/>
<text text-anchor="middle" x="473" y="-175.5" font-family="Helvetica,sans-Serif" font-size="10.00">Window.hpp</text>
</a>
</g>
</g>
<!-- Node2&#45;&gt;Node3 -->
<g id="edge2" class="edge"><title>Node2&#45;&gt;Node3</title>
<path fill="none" stroke="midnightblue" d="M494.707,-224.083C491.148,-216.691 485.978,-205.953 481.576,-196.811"/>
<polygon fill="midnightblue" stroke="midnightblue" points="484.705,-195.243 477.213,-187.751 478.398,-198.279 484.705,-195.243"/>
</g>
<!-- Node20 -->
<g id="node20" class="node"><title>Node20</title>
<g id="a_node20"><a xlink:href="_graphics_item_8hpp.html" target="_top" xlink:title="Classe GraphicsItem. ">
<polygon fill="white" stroke="black" points="695,-168.5 695,-187.5 789,-187.5 789,-168.5 695,-168.5"/>
<text text-anchor="middle" x="742" y="-175.5" font-family="Helvetica,sans-Serif" font-size="10.00">GraphicsItem.hpp</text>
</a>
</g>
</g>
<!-- Node2&#45;&gt;Node20 -->
<g id="edge28" class="edge"><title>Node2&#45;&gt;Node20</title>
<path fill="none" stroke="midnightblue" d="M537.504,-224.444C579.806,-215.043 647.819,-199.929 693.673,-189.739"/>
<polygon fill="midnightblue" stroke="midnightblue" points="694.673,-193.102 703.676,-187.516 693.155,-186.269 694.673,-193.102"/>
</g>
<!-- Node4 -->
<g id="node4" class="node"><title>Node4</title>
<polygon fill="white" stroke="#bfbfbf" points="625.5,-56.5 625.5,-75.5 666.5,-75.5 666.5,-56.5 625.5,-56.5"/>
<text text-anchor="middle" x="646" y="-63.5" font-family="Helvetica,sans-Serif" font-size="10.00">string</text>
</g>
<!-- Node3&#45;&gt;Node4 -->
<g id="edge3" class="edge"><title>Node3&#45;&gt;Node4</title>
<path fill="none" stroke="midnightblue" d="M508.668,-170.499C535.8,-164.184 572.952,-152.465 600,-132 616.482,-119.529 629.401,-99.4567 637.298,-84.9137"/>
<polygon fill="midnightblue" stroke="midnightblue" points="640.478,-86.3833 641.945,-75.8904 634.255,-83.1785 640.478,-86.3833"/>
</g>
<!-- Node5 -->
<g id="node5" class="node"><title>Node5</title>
<polygon fill="white" stroke="#bfbfbf" points="253,-112.5 253,-131.5 299,-131.5 299,-112.5 253,-112.5"/>
<text text-anchor="middle" x="276" y="-119.5" font-family="Helvetica,sans-Serif" font-size="10.00">chrono</text>
</g>
<!-- Node3&#45;&gt;Node5 -->
<g id="edge4" class="edge"><title>Node3&#45;&gt;Node5</title>
<path fill="none" stroke="midnightblue" d="M441.348,-168.447C410.064,-159.977 360.585,-146.533 308.765,-132.197"/>
<polygon fill="midnightblue" stroke="midnightblue" points="309.637,-128.807 299.066,-129.511 307.769,-135.553 309.637,-128.807"/>
</g>
<!-- Node6 -->
<g id="node6" class="node"><title>Node6</title>
<polygon fill="white" stroke="#bfbfbf" points="661,-0.5 661,-19.5 769,-19.5 769,-0.5 661,-0.5"/>
<text text-anchor="middle" x="715" y="-7.5" font-family="Helvetica,sans-Serif" font-size="10.00">ez&#45;lib/ez&#45;draw++.hpp</text>
</g>
<!-- Node3&#45;&gt;Node6 -->
<g id="edge5" class="edge"><title>Node3&#45;&gt;Node6</title>
<path fill="none" stroke="midnightblue" d="M508.511,-171.989C540.622,-166.217 588.212,-154.48 624,-132 664.657,-106.461 693.625,-55.7635 706.885,-28.8127"/>
<polygon fill="midnightblue" stroke="midnightblue" points="710.061,-30.2828 711.189,-19.7482 703.738,-27.28 710.061,-30.2828"/>
</g>
<!-- Node7 -->
<g id="node7" class="node"><title>Node7</title>
<g id="a_node7"><a xlink:href="_point_8hpp.html" target="_top" xlink:title="Classe point. ">
<polygon fill="white" stroke="black" points="284,-56.5 284,-75.5 342,-75.5 342,-56.5 284,-56.5"/>
<text text-anchor="middle" x="313" y="-63.5" font-family="Helvetica,sans-Serif" font-size="10.00">Point.hpp</text>
</a>
</g>
</g>
<!-- Node3&#45;&gt;Node7 -->
<g id="edge6" class="edge"><title>Node3&#45;&gt;Node7</title>
<path fill="none" stroke="midnightblue" d="M437.305,-175.331C379.165,-171.782 268.067,-161.257 244,-132 227.612,-112.078 257.162,-92.1828 282.538,-79.751"/>
<polygon fill="midnightblue" stroke="midnightblue" points="284.022,-82.9209 291.606,-75.5223 281.063,-76.5769 284.022,-82.9209"/>
</g>
<!-- Node15 -->
<g id="node15" class="node"><title>Node15</title>
<g id="a_node15"><a xlink:href="_canvas_8hpp.html" target="_top" xlink:title="Canvas.hpp">
<polygon fill="white" stroke="black" points="425.5,-112.5 425.5,-131.5 494.5,-131.5 494.5,-112.5 425.5,-112.5"/>
<text text-anchor="middle" x="460" y="-119.5" font-family="Helvetica,sans-Serif" font-size="10.00">Canvas.hpp</text>
</a>
</g>
</g>
<!-- Node3&#45;&gt;Node15 -->
<g id="edge15" class="edge"><title>Node3&#45;&gt;Node15</title>
<path fill="none" stroke="midnightblue" d="M470.853,-168.083C469.131,-160.927 466.653,-150.635 464.5,-141.691"/>
<polygon fill="midnightblue" stroke="midnightblue" points="467.85,-140.654 462.107,-131.751 461.045,-142.293 467.85,-140.654"/>
</g>
<!-- Node17 -->
<g id="node17" class="node"><title>Node17</title>
<g id="a_node17"><a xlink:href="_mouse_event_8hpp.html" target="_top" xlink:title="Classe MouseEvent. ">
<polygon fill="white" stroke="black" points="317,-112.5 317,-131.5 407,-131.5 407,-112.5 317,-112.5"/>
<text text-anchor="middle" x="362" y="-119.5" font-family="Helvetica,sans-Serif" font-size="10.00">MouseEvent.hpp</text>
</a>
</g>
</g>
<!-- Node3&#45;&gt;Node17 -->
<g id="edge20" class="edge"><title>Node3&#45;&gt;Node17</title>
<path fill="none" stroke="midnightblue" d="M455.166,-168.324C437.284,-159.625 409.525,-146.12 388.954,-136.113"/>
<polygon fill="midnightblue" stroke="midnightblue" points="390.313,-132.882 379.79,-131.655 387.251,-139.177 390.313,-132.882"/>
</g>
<!-- Node19 -->
<g id="node19" class="node"><title>Node19</title>
<g id="a_node19"><a xlink:href="_key_event_8hpp.html" target="_top" xlink:title="Classe KeyEvent. ">
<polygon fill="white" stroke="black" points="513,-112.5 513,-131.5 591,-131.5 591,-112.5 513,-112.5"/>
<text text-anchor="middle" x="552" y="-119.5" font-family="Helvetica,sans-Serif" font-size="10.00">KeyEvent.hpp</text>
</a>
</g>
</g>
<!-- Node3&#45;&gt;Node19 -->
<g id="edge25" class="edge"><title>Node3&#45;&gt;Node19</title>
<path fill="none" stroke="midnightblue" d="M485.693,-168.324C497.901,-159.979 516.578,-147.212 531.003,-137.352"/>
<polygon fill="midnightblue" stroke="midnightblue" points="533.058,-140.187 539.339,-131.655 529.108,-134.408 533.058,-140.187"/>
</g>
<!-- Node8 -->
<g id="node8" class="node"><title>Node8</title>
<polygon fill="white" stroke="#bfbfbf" points="407.5,-0.5 407.5,-19.5 508.5,-19.5 508.5,-0.5 407.5,-0.5"/>
<text text-anchor="middle" x="458" y="-7.5" font-family="Helvetica,sans-Serif" font-size="10.00">boost/uuid/uuid.hpp</text>
</g>
<!-- Node7&#45;&gt;Node8 -->
<g id="edge7" class="edge"><title>Node7&#45;&gt;Node8</title>
<path fill="none" stroke="midnightblue" d="M335.976,-56.4435C360.157,-47.4381 398.418,-33.1891 425.646,-23.049"/>
<polygon fill="midnightblue" stroke="midnightblue" points="426.982,-26.2864 435.132,-19.5164 424.539,-19.7265 426.982,-26.2864"/>
</g>
<!-- Node9 -->
<g id="node9" class="node"><title>Node9</title>
<polygon fill="white" stroke="#bfbfbf" points="237,-0.5 237,-19.5 389,-19.5 389,-0.5 237,-0.5"/>
<text text-anchor="middle" x="313" y="-7.5" font-family="Helvetica,sans-Serif" font-size="10.00">boost/uuid/uuid_generators.hpp</text>
</g>
<!-- Node7&#45;&gt;Node9 -->
<g id="edge8" class="edge"><title>Node7&#45;&gt;Node9</title>
<path fill="none" stroke="midnightblue" d="M313,-56.083C313,-49.0059 313,-38.8611 313,-29.9865"/>
<polygon fill="midnightblue" stroke="midnightblue" points="316.5,-29.751 313,-19.7511 309.5,-29.7511 316.5,-29.751"/>
</g>
<!-- Node10 -->
<g id="node10" class="node"><title>Node10</title>
<polygon fill="white" stroke="#bfbfbf" points="527,-0.5 527,-19.5 581,-19.5 581,-0.5 527,-0.5"/>
<text text-anchor="middle" x="554" y="-7.5" font-family="Helvetica,sans-Serif" font-size="10.00">iostream</text>
</g>
<!-- Node7&#45;&gt;Node10 -->
<g id="edge9" class="edge"><title>Node7&#45;&gt;Node10</title>
<path fill="none" stroke="midnightblue" d="M342.097,-58.7874C381.714,-50.2815 454.818,-34.4192 517,-20 517.101,-19.9767 517.201,-19.9533 517.302,-19.9298"/>
<polygon fill="midnightblue" stroke="midnightblue" points="518.011,-23.359 526.938,-17.6537 516.401,-16.5464 518.011,-23.359"/>
</g>
<!-- Node11 -->
<g id="node11" class="node"><title>Node11</title>
<polygon fill="white" stroke="#bfbfbf" points="-0.5,-0.5 -0.5,-19.5 34.5,-19.5 34.5,-0.5 -0.5,-0.5"/>
<text text-anchor="middle" x="17" y="-7.5" font-family="Helvetica,sans-Serif" font-size="10.00">map</text>
</g>
<!-- Node7&#45;&gt;Node11 -->
<g id="edge10" class="edge"><title>Node7&#45;&gt;Node11</title>
<path fill="none" stroke="midnightblue" d="M283.899,-61.7786C235.754,-56.1009 136.444,-42.9175 44.2583,-19.9778"/>
<polygon fill="midnightblue" stroke="midnightblue" points="45.0538,-16.5689 34.5005,-17.5056 43.3346,-23.3545 45.0538,-16.5689"/>
</g>
<!-- Node12 -->
<g id="node12" class="node"><title>Node12</title>
<polygon fill="white" stroke="#bfbfbf" points="599,-0.5 599,-19.5 643,-19.5 643,-0.5 599,-0.5"/>
<text text-anchor="middle" x="621" y="-7.5" font-family="Helvetica,sans-Serif" font-size="10.00">vector</text>
</g>
<!-- Node7&#45;&gt;Node12 -->
<g id="edge11" class="edge"><title>Node7&#45;&gt;Node12</title>
<path fill="none" stroke="midnightblue" d="M342.337,-61.4267C391.457,-55.1876 493.572,-41.1249 588.934,-20.0154"/>
<polygon fill="midnightblue" stroke="midnightblue" points="589.743,-23.4211 598.733,-17.8156 588.209,-16.5911 589.743,-23.4211"/>
</g>
<!-- Node13 -->
<g id="node13" class="node"><title>Node13</title>
<polygon fill="white" stroke="#bfbfbf" points="52.5,-0.5 52.5,-19.5 111.5,-19.5 111.5,-0.5 52.5,-0.5"/>
<text text-anchor="middle" x="82" y="-7.5" font-family="Helvetica,sans-Serif" font-size="10.00">functional</text>
</g>
<!-- Node7&#45;&gt;Node13 -->
<g id="edge12" class="edge"><title>Node7&#45;&gt;Node13</title>
<path fill="none" stroke="midnightblue" d="M283.892,-58.2465C248.023,-49.917 184.938,-35.2442 121.969,-20.4576"/>
<polygon fill="midnightblue" stroke="midnightblue" points="122.404,-16.9645 111.868,-18.0845 120.803,-23.7789 122.404,-16.9645"/>
</g>
<!-- Node14 -->
<g id="node14" class="node"><title>Node14</title>
<g id="a_node14"><a xlink:href="_group_points_8hpp.html" target="_top" xlink:title="GroupPoints.hpp">
<polygon fill="white" stroke="black" points="129.5,-0.5 129.5,-19.5 218.5,-19.5 218.5,-0.5 129.5,-0.5"/>
<text text-anchor="middle" x="174" y="-7.5" font-family="Helvetica,sans-Serif" font-size="10.00">GroupPoints.hpp</text>
</a>
</g>
</g>
<!-- Node7&#45;&gt;Node14 -->
<g id="edge13" class="edge"><title>Node7&#45;&gt;Node14</title>
<path fill="none" stroke="midnightblue" d="M285.886,-56.4435C261.061,-47.5566 224.807,-33.5632 200.261,-23.4514"/>
<polygon fill="midnightblue" stroke="midnightblue" points="201.418,-20.1419 190.842,-19.5164 198.72,-26.6009 201.418,-20.1419"/>
</g>
<!-- Node14&#45;&gt;Node7 -->
<g id="edge14" class="edge"><title>Node14&#45;&gt;Node7</title>
<path fill="none" stroke="midnightblue" d="M201.002,-19.5164C225.792,-28.388 262.047,-42.3795 286.629,-52.503"/>
<polygon fill="midnightblue" stroke="midnightblue" points="285.487,-55.8193 296.064,-56.4435 288.185,-49.36 285.487,-55.8193"/>
</g>
<!-- Node15&#45;&gt;Node6 -->
<g id="edge16" class="edge"><title>Node15&#45;&gt;Node6</title>
<path fill="none" stroke="midnightblue" d="M467.252,-112.386C479.526,-98.3791 505.821,-70.7493 534,-56 555.803,-44.5876 615.527,-30.8627 660.453,-21.595"/>
<polygon fill="midnightblue" stroke="midnightblue" points="661.271,-25.0003 670.37,-19.5716 659.872,-18.1416 661.271,-25.0003"/>
</g>
<!-- Node15&#45;&gt;Node7 -->
<g id="edge17" class="edge"><title>Node15&#45;&gt;Node7</title>
<path fill="none" stroke="midnightblue" d="M436.707,-112.444C412.193,-103.438 373.404,-89.1891 345.8,-79.049"/>
<polygon fill="midnightblue" stroke="midnightblue" points="346.777,-75.6793 336.184,-75.5164 344.363,-82.25 346.777,-75.6793"/>
</g>
<!-- Node16 -->
<g id="node16" class="node"><title>Node16</title>
<g id="a_node16"><a xlink:href="_font_8hpp.html" target="_top" xlink:title="Font.hpp">
<polygon fill="white" stroke="black" points="431.5,-56.5 431.5,-75.5 486.5,-75.5 486.5,-56.5 431.5,-56.5"/>
<text text-anchor="middle" x="459" y="-63.5" font-family="Helvetica,sans-Serif" font-size="10.00">Font.hpp</text>
</a>
</g>
</g>
<!-- Node15&#45;&gt;Node16 -->
<g id="edge18" class="edge"><title>Node15&#45;&gt;Node16</title>
<path fill="none" stroke="midnightblue" d="M459.835,-112.083C459.704,-105.006 459.516,-94.8611 459.352,-85.9865"/>
<polygon fill="midnightblue" stroke="midnightblue" points="462.847,-85.6845 459.162,-75.7511 455.848,-85.8142 462.847,-85.6845"/>
</g>
<!-- Node16&#45;&gt;Node10 -->
<g id="edge19" class="edge"><title>Node16&#45;&gt;Node10</title>
<path fill="none" stroke="midnightblue" d="M474.263,-56.324C489.221,-47.8215 512.255,-34.7288 529.727,-24.7975"/>
<polygon fill="midnightblue" stroke="midnightblue" points="531.81,-27.639 538.774,-19.6545 528.351,-21.5534 531.81,-27.639"/>
</g>
<!-- Node17&#45;&gt;Node7 -->
<g id="edge24" class="edge"><title>Node17&#45;&gt;Node7</title>
<path fill="none" stroke="midnightblue" d="M353.909,-112.083C346.845,-104.298 336.412,-92.8015 327.851,-83.3665"/>
<polygon fill="midnightblue" stroke="midnightblue" points="330.253,-80.8047 320.941,-75.7511 325.069,-85.5087 330.253,-80.8047"/>
</g>
<!-- Node18 -->
<g id="node18" class="node"><title>Node18</title>
<g id="a_node18"><a xlink:href="_event_8hpp.html" target="_top" xlink:title="Classe Event. ">
<polygon fill="white" stroke="black" points="543.5,-56.5 543.5,-75.5 604.5,-75.5 604.5,-56.5 543.5,-56.5"/>
<text text-anchor="middle" x="574" y="-63.5" font-family="Helvetica,sans-Serif" font-size="10.00">Event.hpp</text>
</a>
</g>
</g>
<!-- Node17&#45;&gt;Node18 -->
<g id="edge21" class="edge"><title>Node17&#45;&gt;Node18</title>
<path fill="none" stroke="midnightblue" d="M395.592,-112.444C433.048,-102.903 493.61,-87.4766 533.617,-77.2863"/>
<polygon fill="midnightblue" stroke="midnightblue" points="534.492,-80.6752 543.318,-74.8151 532.764,-73.8918 534.492,-80.6752"/>
</g>
<!-- Node18&#45;&gt;Node6 -->
<g id="edge23" class="edge"><title>Node18&#45;&gt;Node6</title>
<path fill="none" stroke="midnightblue" d="M596.342,-56.4435C619.753,-47.4776 656.736,-33.314 683.19,-23.1827"/>
<polygon fill="midnightblue" stroke="midnightblue" points="684.676,-26.3615 692.763,-19.5164 682.172,-19.8245 684.676,-26.3615"/>
</g>
<!-- Node18&#45;&gt;Node10 -->
<g id="edge22" class="edge"><title>Node18&#45;&gt;Node10</title>
<path fill="none" stroke="midnightblue" d="M570.697,-56.083C568.018,-48.8486 564.151,-38.4087 560.814,-29.3968"/>
<polygon fill="midnightblue" stroke="midnightblue" points="563.996,-27.9129 557.241,-19.7511 557.432,-30.3442 563.996,-27.9129"/>
</g>
<!-- Node19&#45;&gt;Node4 -->
<g id="edge26" class="edge"><title>Node19&#45;&gt;Node4</title>
<path fill="none" stroke="midnightblue" d="M567.103,-112.324C581.903,-103.822 604.694,-90.7288 621.982,-80.7975"/>
<polygon fill="midnightblue" stroke="midnightblue" points="624.007,-83.6707 630.935,-75.6545 620.52,-77.6009 624.007,-83.6707"/>
</g>
<!-- Node19&#45;&gt;Node18 -->
<g id="edge27" class="edge"><title>Node19&#45;&gt;Node18</title>
<path fill="none" stroke="midnightblue" d="M555.633,-112.083C558.612,-104.77 562.926,-94.1814 566.625,-85.1034"/>
<polygon fill="midnightblue" stroke="midnightblue" points="569.903,-86.3326 570.435,-75.7511 563.42,-83.6914 569.903,-86.3326"/>
</g>
<!-- Node20&#45;&gt;Node12 -->
<g id="edge29" class="edge"><title>Node20&#45;&gt;Node12</title>
<path fill="none" stroke="midnightblue" d="M789.09,-170.741C833.192,-163.799 894.436,-151.008 909,-132 919.821,-117.877 924.525,-78.308 903,-56 865.784,-17.4303 722.112,-30.4154 653.246,-19.7118"/>
<polygon fill="midnightblue" stroke="midnightblue" points="653.725,-16.2413 643.256,-17.866 652.453,-23.1248 653.725,-16.2413"/>
</g>
<!-- Node20&#45;&gt;Node15 -->
<g id="edge36" class="edge"><title>Node20&#45;&gt;Node15</title>
<path fill="none" stroke="midnightblue" d="M695.89,-168.492C650.071,-159.991 577.519,-146.403 504.832,-132.14"/>
<polygon fill="midnightblue" stroke="midnightblue" points="505.065,-128.619 494.577,-130.123 503.714,-135.487 505.065,-128.619"/>
</g>
<!-- Node20&#45;&gt;Node18 -->
<g id="edge37" class="edge"><title>Node20&#45;&gt;Node18</title>
<path fill="none" stroke="midnightblue" d="M728.817,-168.368C699.988,-149.492 631.097,-104.385 595.743,-81.2367"/>
<polygon fill="midnightblue" stroke="midnightblue" points="597.405,-78.1412 587.121,-75.5914 593.57,-83.9975 597.405,-78.1412"/>
</g>
<!-- Node21 -->
<g id="node21" class="node"><title>Node21</title>
<polygon fill="white" stroke="#bfbfbf" points="793,-112.5 793,-131.5 823,-131.5 823,-112.5 793,-112.5"/>
<text text-anchor="middle" x="808" y="-119.5" font-family="Helvetica,sans-Serif" font-size="10.00">set</text>
</g>
<!-- Node20&#45;&gt;Node21 -->
<g id="edge30" class="edge"><title>Node20&#45;&gt;Node21</title>
<path fill="none" stroke="midnightblue" d="M752.604,-168.324C762.456,-160.263 777.351,-148.077 789.215,-138.369"/>
<polygon fill="midnightblue" stroke="midnightblue" points="791.68,-140.875 797.203,-131.834 787.247,-135.457 791.68,-140.875"/>
</g>
<!-- Node22 -->
<g id="node22" class="node"><title>Node22</title>
<polygon fill="white" stroke="#bfbfbf" points="723,-112.5 723,-131.5 775,-131.5 775,-112.5 723,-112.5"/>
<text text-anchor="middle" x="749" y="-119.5" font-family="Helvetica,sans-Serif" font-size="10.00">memory</text>
</g>
<!-- Node20&#45;&gt;Node22 -->
<g id="edge31" class="edge"><title>Node20&#45;&gt;Node22</title>
<path fill="none" stroke="midnightblue" d="M743.156,-168.083C744.084,-160.927 745.418,-150.635 746.577,-141.691"/>
<polygon fill="midnightblue" stroke="midnightblue" points="750.051,-142.118 747.866,-131.751 743.109,-141.218 750.051,-142.118"/>
</g>
<!-- Node23 -->
<g id="node23" class="node"><title>Node23</title>
<g id="a_node23"><a xlink:href="_color_8hpp.html" target="_top" xlink:title="Classe Color. ">
<polygon fill="white" stroke="black" points="841.5,-112.5 841.5,-131.5 900.5,-131.5 900.5,-112.5 841.5,-112.5"/>
<text text-anchor="middle" x="871" y="-119.5" font-family="Helvetica,sans-Serif" font-size="10.00">Color.hpp</text>
</a>
</g>
</g>
<!-- Node20&#45;&gt;Node23 -->
<g id="edge32" class="edge"><title>Node20&#45;&gt;Node23</title>
<path fill="none" stroke="midnightblue" d="M762.44,-168.444C783.67,-159.557 817.099,-145.563 841.255,-135.451"/>
<polygon fill="midnightblue" stroke="midnightblue" points="842.782,-138.606 850.655,-131.516 840.079,-132.149 842.782,-138.606"/>
</g>
<!-- Node23&#45;&gt;Node4 -->
<g id="edge34" class="edge"><title>Node23&#45;&gt;Node4</title>
<path fill="none" stroke="midnightblue" d="M841.122,-113.829C798.273,-103.546 719.786,-84.7087 676.562,-74.3349"/>
<polygon fill="midnightblue" stroke="midnightblue" points="677.17,-70.8815 666.629,-71.9511 675.536,-77.6882 677.17,-70.8815"/>
</g>
<!-- Node23&#45;&gt;Node6 -->
<g id="edge35" class="edge"><title>Node23&#45;&gt;Node6</title>
<path fill="none" stroke="midnightblue" d="M858.759,-112.368C832.103,-93.5728 768.562,-48.7684 735.611,-25.5334"/>
<polygon fill="midnightblue" stroke="midnightblue" points="737.374,-22.4938 727.184,-19.5914 733.34,-28.2146 737.374,-22.4938"/>
</g>
<!-- Node24 -->
<g id="node24" class="node"><title>Node24</title>
<polygon fill="white" stroke="#bfbfbf" points="848,-56.5 848,-75.5 894,-75.5 894,-56.5 848,-56.5"/>
<text text-anchor="middle" x="871" y="-63.5" font-family="Helvetica,sans-Serif" font-size="10.00">cstdint</text>
</g>
<!-- Node23&#45;&gt;Node24 -->
<g id="edge33" class="edge"><title>Node23&#45;&gt;Node24</title>
<path fill="none" stroke="midnightblue" d="M871,-112.083C871,-105.006 871,-94.8611 871,-85.9865"/>
<polygon fill="midnightblue" stroke="midnightblue" points="874.5,-85.751 871,-75.7511 867.5,-85.7511 874.5,-85.751"/>
</g>
<!-- Node36 -->
<g id="node36" class="node"><title>Node36</title>
<g id="a_node36"><a xlink:href="_widget_8hpp.html" target="_top" xlink:title="Widget.hpp">
<polygon fill="white" stroke="black" points="903,-280.5 903,-299.5 969,-299.5 969,-280.5 903,-280.5"/>
<text text-anchor="middle" x="936" y="-287.5" font-family="Helvetica,sans-Serif" font-size="10.00">Widget.hpp</text>
</a>
</g>
</g>
<!-- Node35&#45;&gt;Node36 -->
<g id="edge49" class="edge"><title>Node35&#45;&gt;Node36</title>
<path fill="none" stroke="midnightblue" d="M644.617,-342.356C651.452,-340.065 658.967,-337.747 666,-336 744.909,-316.401 838.944,-302.899 892.64,-296.099"/>
<polygon fill="midnightblue" stroke="midnightblue" points="893.335,-299.539 902.825,-294.828 892.469,-292.593 893.335,-299.539"/>
</g>
<!-- Node39 -->
<g id="node39" class="node"><title>Node39</title>
<g id="a_node39"><a xlink:href="_graphics_rectangle_8hpp.html" target="_top" xlink:title="GraphicsRectangle.hpp">
<polygon fill="white" stroke="black" points="561.5,-280.5 561.5,-299.5 680.5,-299.5 680.5,-280.5 561.5,-280.5"/>
<text text-anchor="middle" x="621" y="-287.5" font-family="Helvetica,sans-Serif" font-size="10.00">GraphicsRectangle.hpp</text>
</a>
</g>
</g>
<!-- Node35&#45;&gt;Node39 -->
<g id="edge53" class="edge"><title>Node35&#45;&gt;Node39</title>
<path fill="none" stroke="midnightblue" d="M621,-342.403C621,-333.938 621,-320.728 621,-309.82"/>
<polygon fill="midnightblue" stroke="midnightblue" points="624.5,-309.581 621,-299.581 617.5,-309.581 624.5,-309.581"/>
</g>
<!-- Node41 -->
<g id="node41" class="node"><title>Node41</title>
<g id="a_node41"><a xlink:href="_graphics_text_8hpp.html" target="_top" xlink:title="Classe GraphicsText. ">
<polygon fill="white" stroke="black" points="320,-224.5 320,-243.5 414,-243.5 414,-224.5 320,-224.5"/>
<text text-anchor="middle" x="367" y="-231.5" font-family="Helvetica,sans-Serif" font-size="10.00">GraphicsText.hpp</text>
</a>
</g>
</g>
<!-- Node35&#45;&gt;Node41 -->
<g id="edge56" class="edge"><title>Node35&#45;&gt;Node41</title>
<path fill="none" stroke="midnightblue" d="M602.323,-342.47C558.194,-322.317 447.28,-271.663 395.04,-247.806"/>
<polygon fill="midnightblue" stroke="midnightblue" points="396.255,-244.513 385.705,-243.542 393.347,-250.88 396.255,-244.513"/>
</g>
<!-- Node42 -->
<g id="node42" class="node"><title>Node42</title>
<g id="a_node42"><a xlink:href="_graphics_line_8hpp.html" target="_top" xlink:title="GraphicsLine.hpp">
<polygon fill="white" stroke="black" points="699,-280.5 699,-299.5 791,-299.5 791,-280.5 699,-280.5"/>
<text text-anchor="middle" x="745" y="-287.5" font-family="Helvetica,sans-Serif" font-size="10.00">GraphicsLine.hpp</text>
</a>
</g>
</g>
<!-- Node35&#45;&gt;Node42 -->
<g id="edge59" class="edge"><title>Node35&#45;&gt;Node42</title>
<path fill="none" stroke="midnightblue" d="M638.766,-342.403C659.484,-332.379 693.952,-315.701 717.989,-304.07"/>
<polygon fill="midnightblue" stroke="midnightblue" points="719.79,-307.087 727.267,-299.581 716.741,-300.786 719.79,-307.087"/>
</g>
<!-- Node36&#45;&gt;Node20 -->
<g id="edge52" class="edge"><title>Node36&#45;&gt;Node20</title>
<path fill="none" stroke="midnightblue" d="M969.334,-282.504C1010.3,-273.085 1071.43,-253.474 1046,-224 1014.81,-187.854 878.66,-180.254 799.544,-178.953"/>
<polygon fill="midnightblue" stroke="midnightblue" points="799.293,-175.449 789.247,-178.814 799.198,-182.449 799.293,-175.449"/>
</g>
<!-- Node37 -->
<g id="node37" class="node"><title>Node37</title>
<polygon fill="white" stroke="#bfbfbf" points="811.5,-224.5 811.5,-243.5 938.5,-243.5 938.5,-224.5 811.5,-224.5"/>
<text text-anchor="middle" x="875" y="-231.5" font-family="Helvetica,sans-Serif" font-size="10.00">boost/signals2/signal.hpp</text>
</g>
<!-- Node36&#45;&gt;Node37 -->
<g id="edge50" class="edge"><title>Node36&#45;&gt;Node37</title>
<path fill="none" stroke="midnightblue" d="M926.199,-280.324C917.182,-272.341 903.594,-260.313 892.682,-250.653"/>
<polygon fill="midnightblue" stroke="midnightblue" points="894.787,-247.842 884.979,-243.834 890.147,-253.083 894.787,-247.842"/>
</g>
<!-- Node38 -->
<g id="node38" class="node"><title>Node38</title>
<polygon fill="white" stroke="#bfbfbf" points="957,-224.5 957,-243.5 1037,-243.5 1037,-224.5 957,-224.5"/>
<text text-anchor="middle" x="997" y="-231.5" font-family="Helvetica,sans-Serif" font-size="10.00">boost/bind.hpp</text>
</g>
<!-- Node36&#45;&gt;Node38 -->
<g id="edge51" class="edge"><title>Node36&#45;&gt;Node38</title>
<path fill="none" stroke="midnightblue" d="M945.801,-280.324C954.818,-272.341 968.406,-260.313 979.318,-250.653"/>
<polygon fill="midnightblue" stroke="midnightblue" points="981.853,-253.083 987.021,-243.834 977.213,-247.842 981.853,-253.083"/>
</g>
<!-- Node39&#45;&gt;Node20 -->
<g id="edge55" class="edge"><title>Node39&#45;&gt;Node20</title>
<path fill="none" stroke="midnightblue" d="M628.45,-280.129C639.521,-267.169 661.248,-242.583 682,-224 694.213,-213.063 708.926,-202 720.726,-193.579"/>
<polygon fill="midnightblue" stroke="midnightblue" points="722.922,-196.314 729.092,-187.701 718.897,-190.586 722.922,-196.314"/>
</g>
<!-- Node40 -->
<g id="node40" class="node"><title>Node40</title>
<polygon fill="white" stroke="#bfbfbf" points="591,-224.5 591,-243.5 635,-243.5 635,-224.5 591,-224.5"/>
<text text-anchor="middle" x="613" y="-231.5" font-family="Helvetica,sans-Serif" font-size="10.00">cmath</text>
</g>
<!-- Node39&#45;&gt;Node40 -->
<g id="edge54" class="edge"><title>Node39&#45;&gt;Node40</title>
<path fill="none" stroke="midnightblue" d="M619.679,-280.083C618.619,-272.927 617.094,-262.635 615.769,-253.691"/>
<polygon fill="midnightblue" stroke="midnightblue" points="619.224,-253.13 614.296,-243.751 612.3,-254.156 619.224,-253.13"/>
</g>
<!-- Node41&#45;&gt;Node16 -->
<g id="edge58" class="edge"><title>Node41&#45;&gt;Node16</title>
<path fill="none" stroke="midnightblue" d="M345.497,-224.414C301.109,-205.481 206.508,-158.151 244,-112 265.912,-85.0271 365.596,-73.6519 421.209,-69.3364"/>
<polygon fill="midnightblue" stroke="midnightblue" points="421.664,-72.8125 431.38,-68.5878 421.15,-65.8314 421.664,-72.8125"/>
</g>
<!-- Node41&#45;&gt;Node20 -->
<g id="edge57" class="edge"><title>Node41&#45;&gt;Node20</title>
<path fill="none" stroke="midnightblue" d="M414.044,-225.372C417.074,-224.902 420.079,-224.441 423,-224 514.417,-210.207 620.777,-195.465 684.669,-186.75"/>
<polygon fill="midnightblue" stroke="midnightblue" points="685.499,-190.169 694.935,-185.351 684.554,-183.233 685.499,-190.169"/>
</g>
<!-- Node43 -->
<g id="node43" class="node"><title>Node43</title>
<g id="a_node43"><a xlink:href="_graphics_shape_8hpp.html" target="_top" xlink:title="Classe GraphicsShape. ">
<polygon fill="white" stroke="black" points="691,-224.5 691,-243.5 793,-243.5 793,-224.5 691,-224.5"/>
<text text-anchor="middle" x="742" y="-231.5" font-family="Helvetica,sans-Serif" font-size="10.00">GraphicsShape.hpp</text>
</a>
</g>
</g>
<!-- Node42&#45;&gt;Node43 -->
<g id="edge60" class="edge"><title>Node42&#45;&gt;Node43</title>
<path fill="none" stroke="midnightblue" d="M744.505,-280.083C744.111,-273.006 743.548,-262.861 743.055,-253.986"/>
<polygon fill="midnightblue" stroke="midnightblue" points="746.536,-253.542 742.486,-243.751 739.546,-253.93 746.536,-253.542"/>
</g>
<!-- Node43&#45;&gt;Node20 -->
<g id="edge61" class="edge"><title>Node43&#45;&gt;Node20</title>
<path fill="none" stroke="midnightblue" d="M742,-224.083C742,-217.006 742,-206.861 742,-197.986"/>
<polygon fill="midnightblue" stroke="midnightblue" points="745.5,-197.751 742,-187.751 738.5,-197.751 745.5,-197.751"/>
</g>
</g>
</svg>
        <g id="navigator" transform="translate(0 0)" fill="#404254">
                <rect fill="#f2f5e9" fill-opacity="0.5" stroke="#606060" stroke-width=".5" x="0" y="0" width="60" height="60"/>
                <use id="zoomplus" xlink:href="#zoomPlus" x="17" y="9" onmousedown="handleZoom(evt,'in')"/>
                <use id="zoomminus" xlink:href="#zoomMin" x="42" y="9" onmousedown="handleZoom(evt,'out')"/>
                <use id="reset" xlink:href="#resetDef" x="30" y="36" onmousedown="handleReset()"/>
                <g id="arrowUp" xlink:href="#dirArrow" transform="translate(30 24)" onmousedown="handlePan(0,-1)">
                  <use xlink:href="#rim" fill="#404040">
                        <set attributeName="fill" to="#808080" begin="arrowUp.mouseover" end="arrowUp.mouseout"/>
                  </use>
                  <path fill="none" stroke="white" stroke-width="1.5" d="M0,-3.0v7 M-2.5,-0.5L0,-3.0L2.5,-0.5"/>
                </g>
                <g id="arrowRight" xlink:href="#dirArrow" transform="rotate(90) translate(36 -43)" onmousedown="handlePan(1,0)">
                  <use xlink:href="#rim" fill="#404040">
                        <set attributeName="fill" to="#808080" begin="arrowRight.mouseover" end="arrowRight.mouseout"/>
                  </use>
                  <path fill="none" stroke="white" stroke-width="1.5" d="M0,-3.0v7 M-2.5,-0.5L0,-3.0L2.5,-0.5"/>
                </g>
                <g id="arrowDown" xlink:href="#dirArrow" transform="rotate(180) translate(-30 -48)" onmousedown="handlePan(0,1)">
                  <use xlink:href="#rim" fill="#404040">
                        <set attributeName="fill" to="#808080" begin="arrowDown.mouseover" end="arrowDown.mouseout"/>
                  </use>
                  <path fill="none" stroke="white" stroke-width="1.5" d="M0,-3.0v7 M-2.5,-0.5L0,-3.0L2.5,-0.5"/>
                </g>
                <g id="arrowLeft" xlink:href="#dirArrow" transform="rotate(270) translate(-36 17)" onmousedown="handlePan(-1,0)">
                  <use xlink:href="#rim" fill="#404040">
                        <set attributeName="fill" to="#808080" begin="arrowLeft.mouseover" end="arrowLeft.mouseout"/>
                  </use>
                  <path fill="none" stroke="white" stroke-width="1.5" d="M0,-3.0v7 M-2.5,-0.5L0,-3.0L2.5,-0.5"/>
                </g>
        </g>
        <svg viewBox="0 0 15 15" width="100%" height="30px" preserveAspectRatio="xMaxYMin meet">
         <g id="arrow_out" transform="scale(0.3 0.3)">
          <a xlink:href="_main_window_8cpp__incl_org.svg" target="_base">
           <rect id="button" ry="5" rx="5" y="6" x="6" height="38" width="38"
                fill="#f2f5e9" fill-opacity="0.5" stroke="#606060" stroke-width="1.0"/>
           <path id="arrow"
             d="M 11.500037,31.436501 C 11.940474,20.09759 22.043105,11.32322 32.158766,21.979434 L 37.068811,17.246167 C 37.068811,17.246167 37.088388,32 37.088388,32 L 22.160133,31.978069 C 22.160133,31.978069 26.997745,27.140456 26.997745,27.140456 C 18.528582,18.264221 13.291696,25.230495 11.500037,31.436501 z"
             style="fill:#404040;"/>
          </a>
         </g>
        </svg>
</svg>
