<?xml version="1.0" encoding="UTF-8" standalone="no"?>
<!DOCTYPE svg PUBLIC "-//W3C//DTD SVG 1.1//EN"
 "http://www.w3.org/Graphics/SVG/1.1/DTD/svg11.dtd">
<!-- Generated by graphviz version 2.36.0 (20140111.2315)
 -->
<!-- Title: MainWindow.cpp Pages: 1 -->
<svg width="2184pt" height="488pt"
 viewBox="0.00 0.00 2184.00 488.00" xmlns="http://www.w3.org/2000/svg" xmlns:xlink="http://www.w3.org/1999/xlink">
<g id="graph0" class="graph" transform="scale(1 1) rotate(0) translate(4 484)">
<title>MainWindow.cpp</title>
<polygon fill="white" stroke="none" points="-4,4 -4,-484 2180,-484 2180,4 -4,4"/>
<!-- Node1 -->
<g id="node1" class="node"><title>Node1</title>
<polygon fill="#bfbfbf" stroke="black" points="1161,-460.5 1161,-479.5 1253,-479.5 1253,-460.5 1161,-460.5"/>
<text text-anchor="middle" x="1207" y="-467.5" font-family="Helvetica,sans-Serif" font-size="10.00">MainWindow.cpp</text>
</g>
<!-- Node2 -->
<g id="node2" class="node"><title>Node2</title>
<g id="a_node2"><a xlink:href="_main_window_8hpp.html" target="_top" xlink:title="../include/MainWindow.hpp">
<polygon fill="white" stroke="black" points="204,-280.5 204,-299.5 338,-299.5 338,-280.5 204,-280.5"/>
<text text-anchor="middle" x="271" y="-287.5" font-family="Helvetica,sans-Serif" font-size="10.00">../include/MainWindow.hpp</text>
</a>
</g>
</g>
<!-- Node1&#45;&gt;Node2 -->
<g id="edge1" class="edge"><title>Node1&#45;&gt;Node2</title>
<path fill="none" stroke="midnightblue" d="M1160.62,-469.175C1020.87,-469.227 605.59,-465.769 478,-424 399.408,-398.272 321.304,-335.397 287.895,-306.271"/>
<polygon fill="midnightblue" stroke="midnightblue" points="290.201,-303.638 280.391,-299.636 285.564,-308.882 290.201,-303.638"/>
</g>
<!-- Node22 -->
<g id="node22" class="node"><title>Node22</title>
<polygon fill="white" stroke="#bfbfbf" points="577,-398.5 577,-417.5 717,-417.5 717,-398.5 577,-398.5"/>
<text text-anchor="middle" x="647" y="-405.5" font-family="Helvetica,sans-Serif" font-size="10.00">../include/GraphicsPoint.hpp</text>
</g>
<!-- Node1&#45;&gt;Node22 -->
<g id="edge36" class="edge"><title>Node1&#45;&gt;Node22</title>
<path fill="none" stroke="midnightblue" d="M1160.84,-466.089C1075.08,-460.367 885.521,-446.244 727,-424 717.751,-422.702 707.945,-421.075 698.487,-419.374"/>
<polygon fill="midnightblue" stroke="midnightblue" points="698.872,-415.886 688.402,-417.512 697.601,-422.77 698.872,-415.886"/>
</g>
<!-- Node23 -->
<g id="node23" class="node"><title>Node23</title>
<polygon fill="white" stroke="#bfbfbf" points="735.5,-398.5 735.5,-417.5 872.5,-417.5 872.5,-398.5 735.5,-398.5"/>
<text text-anchor="middle" x="804" y="-405.5" font-family="Helvetica,sans-Serif" font-size="10.00">../include/GraphicsText.hpp</text>
</g>
<!-- Node1&#45;&gt;Node23 -->
<g id="edge37" class="edge"><title>Node1&#45;&gt;Node23</title>
<path fill="none" stroke="midnightblue" d="M1160.87,-463.386C1097.76,-455.529 981.052,-440.37 882,-424 873.59,-422.61 864.694,-421.017 856.037,-419.4"/>
<polygon fill="midnightblue" stroke="midnightblue" points="856.505,-415.926 846.027,-417.501 855.2,-422.803 856.505,-415.926"/>
</g>
<!-- Node24 -->
<g id="node24" class="node"><title>Node24</title>
<polygon fill="white" stroke="#bfbfbf" points="890.5,-398.5 890.5,-417.5 1025.5,-417.5 1025.5,-398.5 890.5,-398.5"/>
<text text-anchor="middle" x="958" y="-405.5" font-family="Helvetica,sans-Serif" font-size="10.00">../include/GraphicsLine.hpp</text>
</g>
<!-- Node1&#45;&gt;Node24 -->
<g id="edge38" class="edge"><title>Node1&#45;&gt;Node24</title>
<path fill="none" stroke="midnightblue" d="M1171.59,-460.467C1127.34,-449.805 1051.56,-431.545 1003.18,-419.886"/>
<polygon fill="midnightblue" stroke="midnightblue" points="1003.83,-416.443 993.289,-417.503 1002.19,-423.249 1003.83,-416.443"/>
</g>
<!-- Node25 -->
<g id="node25" class="node"><title>Node25</title>
<polygon fill="white" stroke="#bfbfbf" points="1044,-398.5 1044,-417.5 1196,-417.5 1196,-398.5 1044,-398.5"/>
<text text-anchor="middle" x="1120" y="-405.5" font-family="Helvetica,sans-Serif" font-size="10.00">../include/GraphicsTriangle.hpp</text>
</g>
<!-- Node1&#45;&gt;Node25 -->
<g id="edge39" class="edge"><title>Node1&#45;&gt;Node25</title>
<path fill="none" stroke="midnightblue" d="M1194.54,-460.403C1180.58,-450.78 1157.74,-435.024 1141.01,-423.489"/>
<polygon fill="midnightblue" stroke="midnightblue" points="1142.66,-420.377 1132.44,-417.581 1138.69,-426.139 1142.66,-420.377"/>
</g>
<!-- Node26 -->
<g id="node26" class="node"><title>Node26</title>
<polygon fill="white" stroke="#bfbfbf" points="1214.5,-398.5 1214.5,-417.5 1375.5,-417.5 1375.5,-398.5 1214.5,-398.5"/>
<text text-anchor="middle" x="1295" y="-405.5" font-family="Helvetica,sans-Serif" font-size="10.00">../include/GraphicsRectangle.hpp</text>
</g>
<!-- Node1&#45;&gt;Node26 -->
<g id="edge40" class="edge"><title>Node1&#45;&gt;Node26</title>
<path fill="none" stroke="midnightblue" d="M1219.61,-460.403C1233.72,-450.78 1256.83,-435.024 1273.75,-423.489"/>
<polygon fill="midnightblue" stroke="midnightblue" points="1276.12,-426.106 1282.42,-417.581 1272.18,-420.322 1276.12,-426.106"/>
</g>
<!-- Node27 -->
<g id="node27" class="node"><title>Node27</title>
<polygon fill="white" stroke="#bfbfbf" points="1394,-398.5 1394,-417.5 1546,-417.5 1546,-398.5 1394,-398.5"/>
<text text-anchor="middle" x="1470" y="-405.5" font-family="Helvetica,sans-Serif" font-size="10.00">../include/GraphicsPolygon.hpp</text>
</g>
<!-- Node1&#45;&gt;Node27 -->
<g id="edge41" class="edge"><title>Node1&#45;&gt;Node27</title>
<path fill="none" stroke="midnightblue" d="M1244.4,-460.467C1291.33,-449.76 1371.85,-431.392 1422.92,-419.74"/>
<polygon fill="midnightblue" stroke="midnightblue" points="1423.76,-423.14 1432.73,-417.503 1422.2,-416.315 1423.76,-423.14"/>
</g>
<!-- Node28 -->
<g id="node28" class="node"><title>Node28</title>
<polygon fill="white" stroke="#bfbfbf" points="1564.5,-398.5 1564.5,-417.5 1707.5,-417.5 1707.5,-398.5 1564.5,-398.5"/>
<text text-anchor="middle" x="1636" y="-405.5" font-family="Helvetica,sans-Serif" font-size="10.00">../include/GraphicsCircle.hpp</text>
</g>
<!-- Node1&#45;&gt;Node28 -->
<g id="edge42" class="edge"><title>Node1&#45;&gt;Node28</title>
<path fill="none" stroke="midnightblue" d="M1253.27,-463.83C1320.06,-456.183 1447.28,-440.927 1555,-424 1563.83,-422.613 1573.17,-421.009 1582.25,-419.377"/>
<polygon fill="midnightblue" stroke="midnightblue" points="1583.15,-422.772 1592.36,-417.533 1581.89,-415.886 1583.15,-422.772"/>
</g>
<!-- Node29 -->
<g id="node29" class="node"><title>Node29</title>
<polygon fill="white" stroke="#bfbfbf" points="1726,-398.5 1726,-417.5 1872,-417.5 1872,-398.5 1726,-398.5"/>
<text text-anchor="middle" x="1799" y="-405.5" font-family="Helvetica,sans-Serif" font-size="10.00">../include/GraphicsEllipse.hpp</text>
</g>
<!-- Node1&#45;&gt;Node29 -->
<g id="edge43" class="edge"><title>Node1&#45;&gt;Node29</title>
<path fill="none" stroke="midnightblue" d="M1253.13,-466.327C1342.65,-460.829 1546.09,-446.817 1716,-424 1725.69,-422.698 1735.98,-421.055 1745.89,-419.336"/>
<polygon fill="midnightblue" stroke="midnightblue" points="1746.81,-422.728 1756.04,-417.529 1745.58,-415.836 1746.81,-422.728"/>
</g>
<!-- Node30 -->
<g id="node30" class="node"><title>Node30</title>
<polygon fill="white" stroke="#bfbfbf" points="1890,-398.5 1890,-417.5 2038,-417.5 2038,-398.5 1890,-398.5"/>
<text text-anchor="middle" x="1964" y="-405.5" font-family="Helvetica,sans-Serif" font-size="10.00">../include/GraphicsSquare.hpp</text>
</g>
<!-- Node1&#45;&gt;Node30 -->
<g id="edge44" class="edge"><title>Node1&#45;&gt;Node30</title>
<path fill="none" stroke="midnightblue" d="M1253.34,-467.696C1362.87,-464.225 1646.18,-452.965 1881,-424 1891.03,-422.763 1901.68,-421.103 1911.89,-419.338"/>
<polygon fill="midnightblue" stroke="midnightblue" points="1912.69,-422.752 1921.92,-417.55 1911.46,-415.861 1912.69,-422.752"/>
</g>
<!-- Node31 -->
<g id="node31" class="node"><title>Node31</title>
<polygon fill="white" stroke="#bfbfbf" points="2056,-393 2056,-423 2176,-423 2176,-393 2056,-393"/>
<text text-anchor="start" x="2064" y="-411" font-family="Helvetica,sans-Serif" font-size="10.00">../include/GraphicsBlink</text>
<text text-anchor="middle" x="2116" y="-400" font-family="Helvetica,sans-Serif" font-size="10.00">Animation.hpp</text>
</g>
<!-- Node1&#45;&gt;Node31 -->
<g id="edge45" class="edge"><title>Node1&#45;&gt;Node31</title>
<path fill="none" stroke="midnightblue" d="M1253.23,-469.12C1379.09,-468.894 1738.48,-464.566 2045.89,-423.997"/>
<polygon fill="midnightblue" stroke="midnightblue" points="2046.44,-427.455 2055.89,-422.662 2045.51,-420.516 2046.44,-427.455"/>
</g>
<!-- Node32 -->
<g id="node32" class="node"><title>Node32</title>
<g id="a_node32"><a xlink:href="_line_edit_8hpp.html" target="_top" xlink:title="LineEdit.hpp">
<polygon fill="white" stroke="black" points="487.5,-398.5 487.5,-417.5 558.5,-417.5 558.5,-398.5 487.5,-398.5"/>
<text text-anchor="middle" x="523" y="-405.5" font-family="Helvetica,sans-Serif" font-size="10.00">LineEdit.hpp</text>
</a>
</g>
</g>
<!-- Node1&#45;&gt;Node32 -->
<g id="edge46" class="edge"><title>Node1&#45;&gt;Node32</title>
<path fill="none" stroke="midnightblue" d="M1160.76,-469.696C1054.8,-470.435 786.71,-467.431 568,-424 563.729,-423.152 559.303,-422.014 554.967,-420.743"/>
<polygon fill="midnightblue" stroke="midnightblue" points="555.723,-417.31 545.132,-417.607 553.596,-423.979 555.723,-417.31"/>
</g>
<!-- Node3 -->
<g id="node3" class="node"><title>Node3</title>
<g id="a_node3"><a xlink:href="_window_8hpp.html" target="_top" xlink:title="Window.hpp">
<polygon fill="white" stroke="black" points="226.5,-224.5 226.5,-243.5 297.5,-243.5 297.5,-224.5 226.5,-224.5"/>
<text text-anchor="middle" x="262" y="-231.5" font-family="Helvetica,sans-Serif" font-size="10.00">Window.hpp</text>
</a>
</g>
</g>
<!-- Node2&#45;&gt;Node3 -->
<g id="edge2" class="edge"><title>Node2&#45;&gt;Node3</title>
<path fill="none" stroke="midnightblue" d="M269.514,-280.083C268.321,-272.927 266.606,-262.635 265.115,-253.691"/>
<polygon fill="midnightblue" stroke="midnightblue" points="268.555,-253.04 263.459,-243.751 261.65,-254.19 268.555,-253.04"/>
</g>
<!-- Node18 -->
<g id="node18" class="node"><title>Node18</title>
<g id="a_node18"><a xlink:href="_graphics_item_8hpp.html" target="_top" xlink:title="Classe GraphicsItem. ">
<polygon fill="white" stroke="black" points="498,-224.5 498,-243.5 592,-243.5 592,-224.5 498,-224.5"/>
<text text-anchor="middle" x="545" y="-231.5" font-family="Helvetica,sans-Serif" font-size="10.00">GraphicsItem.hpp</text>
</a>
</g>
</g>
<!-- Node2&#45;&gt;Node18 -->
<g id="edge26" class="edge"><title>Node2&#45;&gt;Node18</title>
<path fill="none" stroke="midnightblue" d="M314.416,-280.444C362.515,-270.964 440.095,-255.675 491.806,-245.483"/>
<polygon fill="midnightblue" stroke="midnightblue" points="492.653,-248.884 501.787,-243.516 491.299,-242.016 492.653,-248.884"/>
</g>
<!-- Node4 -->
<g id="node4" class="node"><title>Node4</title>
<polygon fill="white" stroke="#bfbfbf" points="214.5,-112.5 214.5,-131.5 255.5,-131.5 255.5,-112.5 214.5,-112.5"/>
<text text-anchor="middle" x="235" y="-119.5" font-family="Helvetica,sans-Serif" font-size="10.00">string</text>
</g>
<!-- Node3&#45;&gt;Node4 -->
<g id="edge3" class="edge"><title>Node3&#45;&gt;Node4</title>
<path fill="none" stroke="midnightblue" d="M245.666,-224.387C233.045,-216.72 216.503,-204.213 209,-188 201.535,-171.868 211.085,-152.954 220.645,-139.702"/>
<polygon fill="midnightblue" stroke="midnightblue" points="223.634,-141.562 227.057,-131.535 218.129,-137.24 223.634,-141.562"/>
</g>
<!-- Node5 -->
<g id="node5" class="node"><title>Node5</title>
<polygon fill="white" stroke="#bfbfbf" points="0,-168.5 0,-187.5 46,-187.5 46,-168.5 0,-168.5"/>
<text text-anchor="middle" x="23" y="-175.5" font-family="Helvetica,sans-Serif" font-size="10.00">chrono</text>
</g>
<!-- Node3&#45;&gt;Node5 -->
<g id="edge4" class="edge"><title>Node3&#45;&gt;Node5</title>
<path fill="none" stroke="midnightblue" d="M226.193,-225.243C185.777,-216.437 118.087,-201.533 60,-188 58.7324,-187.705 57.441,-187.402 56.1368,-187.094"/>
<polygon fill="midnightblue" stroke="midnightblue" points="56.6161,-183.609 46.0761,-184.686 54.9871,-190.417 56.6161,-183.609"/>
</g>
<!-- Node6 -->
<g id="node6" class="node"><title>Node6</title>
<polygon fill="white" stroke="#bfbfbf" points="169,-56.5 169,-75.5 277,-75.5 277,-56.5 169,-56.5"/>
<text text-anchor="middle" x="223" y="-63.5" font-family="Helvetica,sans-Serif" font-size="10.00">ez&#45;lib/ez&#45;draw++.hpp</text>
</g>
<!-- Node3&#45;&gt;Node6 -->
<g id="edge5" class="edge"><title>Node3&#45;&gt;Node6</title>
<path fill="none" stroke="midnightblue" d="M226.429,-228.608C181.802,-222.282 109.143,-209.004 93,-188 58.2109,-142.735 141.75,-99.6507 190.651,-79.2711"/>
<polygon fill="midnightblue" stroke="midnightblue" points="191.976,-82.5105 199.924,-75.504 189.342,-76.0252 191.976,-82.5105"/>
</g>
<!-- Node7 -->
<g id="node7" class="node"><title>Node7</title>
<g id="a_node7"><a xlink:href="_point_8hpp.html" target="_top" xlink:title="Classe point. ">
<polygon fill="white" stroke="black" points="554,-112.5 554,-131.5 612,-131.5 612,-112.5 554,-112.5"/>
<text text-anchor="middle" x="583" y="-119.5" font-family="Helvetica,sans-Serif" font-size="10.00">Point.hpp</text>
</a>
</g>
</g>
<!-- Node3&#45;&gt;Node7 -->
<g id="edge6" class="edge"><title>Node3&#45;&gt;Node7</title>
<path fill="none" stroke="midnightblue" d="M297.779,-233.153C371.847,-232.664 538.226,-227.122 576,-188 587.685,-175.898 588.186,-156.02 586.536,-141.428"/>
<polygon fill="midnightblue" stroke="midnightblue" points="589.991,-140.864 585.005,-131.515 583.073,-141.933 589.991,-140.864"/>
</g>
<!-- Node13 -->
<g id="node13" class="node"><title>Node13</title>
<g id="a_node13"><a xlink:href="_canvas_8hpp.html" target="_top" xlink:title="Canvas.hpp">
<polygon fill="white" stroke="black" points="498.5,-168.5 498.5,-187.5 567.5,-187.5 567.5,-168.5 498.5,-168.5"/>
<text text-anchor="middle" x="533" y="-175.5" font-family="Helvetica,sans-Serif" font-size="10.00">Canvas.hpp</text>
</a>
</g>
</g>
<!-- Node3&#45;&gt;Node13 -->
<g id="edge13" class="edge"><title>Node3&#45;&gt;Node13</title>
<path fill="none" stroke="midnightblue" d="M297.707,-225.885C346.856,-216.091 435.312,-198.465 488.645,-187.838"/>
<polygon fill="midnightblue" stroke="midnightblue" points="489.376,-191.261 498.499,-185.875 488.008,-184.396 489.376,-191.261"/>
</g>
<!-- Node15 -->
<g id="node15" class="node"><title>Node15</title>
<g id="a_node15"><a xlink:href="_mouse_event_8hpp.html" target="_top" xlink:title="Classe MouseEvent. ">
<polygon fill="white" stroke="black" points="352,-168.5 352,-187.5 442,-187.5 442,-168.5 352,-168.5"/>
<text text-anchor="middle" x="397" y="-175.5" font-family="Helvetica,sans-Serif" font-size="10.00">MouseEvent.hpp</text>
</a>
</g>
</g>
<!-- Node3&#45;&gt;Node15 -->
<g id="edge18" class="edge"><title>Node3&#45;&gt;Node15</title>
<path fill="none" stroke="midnightblue" d="M283.391,-224.444C305.707,-215.517 340.903,-201.439 366.208,-191.317"/>
<polygon fill="midnightblue" stroke="midnightblue" points="367.724,-194.48 375.709,-187.516 365.124,-187.981 367.724,-194.48"/>
</g>
<!-- Node17 -->
<g id="node17" class="node"><title>Node17</title>
<g id="a_node17"><a xlink:href="_key_event_8hpp.html" target="_top" xlink:title="Classe KeyEvent. ">
<polygon fill="white" stroke="black" points="218,-168.5 218,-187.5 296,-187.5 296,-168.5 218,-168.5"/>
<text text-anchor="middle" x="257" y="-175.5" font-family="Helvetica,sans-Serif" font-size="10.00">KeyEvent.hpp</text>
</a>
</g>
</g>
<!-- Node3&#45;&gt;Node17 -->
<g id="edge23" class="edge"><title>Node3&#45;&gt;Node17</title>
<path fill="none" stroke="midnightblue" d="M261.174,-224.083C260.519,-217.006 259.58,-206.861 258.758,-197.986"/>
<polygon fill="midnightblue" stroke="midnightblue" points="262.217,-197.386 257.81,-187.751 255.247,-198.031 262.217,-197.386"/>
</g>
<!-- Node8 -->
<g id="node8" class="node"><title>Node8</title>
<polygon fill="white" stroke="#bfbfbf" points="443,-56.5 443,-75.5 497,-75.5 497,-56.5 443,-56.5"/>
<text text-anchor="middle" x="470" y="-63.5" font-family="Helvetica,sans-Serif" font-size="10.00">iostream</text>
</g>
<!-- Node7&#45;&gt;Node8 -->
<g id="edge7" class="edge"><title>Node7&#45;&gt;Node8</title>
<path fill="none" stroke="midnightblue" d="M565.095,-112.444C546.746,-103.675 517.995,-89.9355 496.906,-79.8579"/>
<polygon fill="midnightblue" stroke="midnightblue" points="498.353,-76.6703 487.821,-75.5164 495.335,-82.9862 498.353,-76.6703"/>
</g>
<!-- Node9 -->
<g id="node9" class="node"><title>Node9</title>
<polygon fill="white" stroke="#bfbfbf" points="716,-56.5 716,-75.5 760,-75.5 760,-56.5 716,-56.5"/>
<text text-anchor="middle" x="738" y="-63.5" font-family="Helvetica,sans-Serif" font-size="10.00">vector</text>
</g>
<!-- Node7&#45;&gt;Node9 -->
<g id="edge8" class="edge"><title>Node7&#45;&gt;Node9</title>
<path fill="none" stroke="midnightblue" d="M607.56,-112.444C634.133,-103.186 676.613,-88.3866 705.833,-78.2066"/>
<polygon fill="midnightblue" stroke="midnightblue" points="707.276,-81.4103 715.568,-74.8151 704.973,-74.7999 707.276,-81.4103"/>
</g>
<!-- Node10 -->
<g id="node10" class="node"><title>Node10</title>
<polygon fill="white" stroke="#bfbfbf" points="646,-56.5 646,-75.5 698,-75.5 698,-56.5 646,-56.5"/>
<text text-anchor="middle" x="672" y="-63.5" font-family="Helvetica,sans-Serif" font-size="10.00">memory</text>
</g>
<!-- Node7&#45;&gt;Node10 -->
<g id="edge9" class="edge"><title>Node7&#45;&gt;Node10</title>
<path fill="none" stroke="midnightblue" d="M597.299,-112.324C611.183,-103.9 632.492,-90.9709 648.804,-81.0741"/>
<polygon fill="midnightblue" stroke="midnightblue" points="651.002,-83.8341 657.736,-75.6545 647.371,-77.8495 651.002,-83.8341"/>
</g>
<!-- Node11 -->
<g id="node11" class="node"><title>Node11</title>
<g id="a_node11"><a xlink:href="_group_points_8hpp.html" target="_top" xlink:title="GroupPoints.hpp">
<polygon fill="white" stroke="black" points="538.5,-56.5 538.5,-75.5 627.5,-75.5 627.5,-56.5 538.5,-56.5"/>
<text text-anchor="middle" x="583" y="-63.5" font-family="Helvetica,sans-Serif" font-size="10.00">GroupPoints.hpp</text>
</a>
</g>
</g>
<!-- Node7&#45;&gt;Node11 -->
<g id="edge10" class="edge"><title>Node7&#45;&gt;Node11</title>
<path fill="none" stroke="midnightblue" d="M577.834,-112.083C576.324,-104.927 575.894,-94.6353 576.542,-85.6911"/>
<polygon fill="midnightblue" stroke="midnightblue" points="580.015,-86.1262 577.869,-75.7511 573.077,-85.2002 580.015,-86.1262"/>
</g>
<!-- Node11&#45;&gt;Node7 -->
<g id="edge12" class="edge"><title>Node11&#45;&gt;Node7</title>
<path fill="none" stroke="midnightblue" d="M588.131,-75.7511C589.657,-82.8579 590.104,-93.1357 589.472,-102.101"/>
<polygon fill="midnightblue" stroke="midnightblue" points="585.993,-101.713 588.166,-112.083 592.934,-102.622 585.993,-101.713"/>
</g>
<!-- Node12 -->
<g id="node12" class="node"><title>Node12</title>
<polygon fill="white" stroke="#bfbfbf" points="553.5,-0.5 553.5,-19.5 612.5,-19.5 612.5,-0.5 553.5,-0.5"/>
<text text-anchor="middle" x="583" y="-7.5" font-family="Helvetica,sans-Serif" font-size="10.00">functional</text>
</g>
<!-- Node11&#45;&gt;Node12 -->
<g id="edge11" class="edge"><title>Node11&#45;&gt;Node12</title>
<path fill="none" stroke="midnightblue" d="M583,-56.083C583,-49.0059 583,-38.8611 583,-29.9865"/>
<polygon fill="midnightblue" stroke="midnightblue" points="586.5,-29.751 583,-19.7511 579.5,-29.7511 586.5,-29.751"/>
</g>
<!-- Node13&#45;&gt;Node6 -->
<g id="edge14" class="edge"><title>Node13&#45;&gt;Node6</title>
<path fill="none" stroke="midnightblue" d="M532.052,-168.233C530.016,-154.006 523.852,-126.068 506,-112 472.926,-85.9366 359.841,-74.6655 287.027,-70.0203"/>
<polygon fill="midnightblue" stroke="midnightblue" points="287.228,-66.5261 277.033,-69.408 286.8,-73.513 287.228,-66.5261"/>
</g>
<!-- Node13&#45;&gt;Node7 -->
<g id="edge15" class="edge"><title>Node13&#45;&gt;Node7</title>
<path fill="none" stroke="midnightblue" d="M541.256,-168.083C548.465,-160.298 559.11,-148.801 567.846,-139.367"/>
<polygon fill="midnightblue" stroke="midnightblue" points="570.671,-141.467 574.897,-131.751 565.535,-136.711 570.671,-141.467"/>
</g>
<!-- Node14 -->
<g id="node14" class="node"><title>Node14</title>
<g id="a_node14"><a xlink:href="_font_8hpp.html" target="_top" xlink:title="Font.hpp">
<polygon fill="white" stroke="black" points="442.5,-112.5 442.5,-131.5 497.5,-131.5 497.5,-112.5 442.5,-112.5"/>
<text text-anchor="middle" x="470" y="-119.5" font-family="Helvetica,sans-Serif" font-size="10.00">Font.hpp</text>
</a>
</g>
</g>
<!-- Node13&#45;&gt;Node14 -->
<g id="edge16" class="edge"><title>Node13&#45;&gt;Node14</title>
<path fill="none" stroke="midnightblue" d="M522.878,-168.324C513.474,-160.263 499.256,-148.077 487.931,-138.369"/>
<polygon fill="midnightblue" stroke="midnightblue" points="490.177,-135.684 480.306,-131.834 485.621,-140.999 490.177,-135.684"/>
</g>
<!-- Node14&#45;&gt;Node8 -->
<g id="edge17" class="edge"><title>Node14&#45;&gt;Node8</title>
<path fill="none" stroke="midnightblue" d="M470,-112.083C470,-105.006 470,-94.8611 470,-85.9865"/>
<polygon fill="midnightblue" stroke="midnightblue" points="473.5,-85.751 470,-75.7511 466.5,-85.7511 473.5,-85.751"/>
</g>
<!-- Node15&#45;&gt;Node7 -->
<g id="edge22" class="edge"><title>Node15&#45;&gt;Node7</title>
<path fill="none" stroke="midnightblue" d="M426.472,-168.444C458.264,-159.214 509.03,-144.475 544.084,-134.298"/>
<polygon fill="midnightblue" stroke="midnightblue" points="545.344,-137.577 553.972,-131.428 543.392,-130.854 545.344,-137.577"/>
</g>
<!-- Node16 -->
<g id="node16" class="node"><title>Node16</title>
<g id="a_node16"><a xlink:href="_event_8hpp.html" target="_top" xlink:title="Classe Event. ">
<polygon fill="white" stroke="black" points="293.5,-112.5 293.5,-131.5 354.5,-131.5 354.5,-112.5 293.5,-112.5"/>
<text text-anchor="middle" x="324" y="-119.5" font-family="Helvetica,sans-Serif" font-size="10.00">Event.hpp</text>
</a>
</g>
</g>
<!-- Node15&#45;&gt;Node16 -->
<g id="edge19" class="edge"><title>Node15&#45;&gt;Node16</title>
<path fill="none" stroke="midnightblue" d="M385.271,-168.324C374.163,-160.107 357.258,-147.602 344.017,-137.807"/>
<polygon fill="midnightblue" stroke="midnightblue" points="346.063,-134.967 335.942,-131.834 341.9,-140.595 346.063,-134.967"/>
</g>
<!-- Node16&#45;&gt;Node6 -->
<g id="edge21" class="edge"><title>Node16&#45;&gt;Node6</title>
<path fill="none" stroke="midnightblue" d="M307.773,-112.324C291.649,-103.703 266.7,-90.3643 248.036,-80.3855"/>
<polygon fill="midnightblue" stroke="midnightblue" points="249.656,-77.283 239.187,-75.6545 246.356,-83.456 249.656,-77.283"/>
</g>
<!-- Node16&#45;&gt;Node8 -->
<g id="edge20" class="edge"><title>Node16&#45;&gt;Node8</title>
<path fill="none" stroke="midnightblue" d="M347.134,-112.444C371.482,-103.438 410.007,-89.1891 437.423,-79.049"/>
<polygon fill="midnightblue" stroke="midnightblue" points="438.809,-82.2681 446.974,-75.5164 436.381,-75.7028 438.809,-82.2681"/>
</g>
<!-- Node17&#45;&gt;Node4 -->
<g id="edge24" class="edge"><title>Node17&#45;&gt;Node4</title>
<path fill="none" stroke="midnightblue" d="M253.367,-168.083C250.388,-160.77 246.074,-150.181 242.375,-141.103"/>
<polygon fill="midnightblue" stroke="midnightblue" points="245.58,-139.691 238.565,-131.751 239.097,-142.333 245.58,-139.691"/>
</g>
<!-- Node17&#45;&gt;Node16 -->
<g id="edge25" class="edge"><title>Node17&#45;&gt;Node16</title>
<path fill="none" stroke="midnightblue" d="M267.765,-168.324C277.766,-160.263 292.887,-148.077 304.93,-138.369"/>
<polygon fill="midnightblue" stroke="midnightblue" points="307.45,-140.834 313.039,-131.834 303.057,-135.384 307.45,-140.834"/>
</g>
<!-- Node18&#45;&gt;Node9 -->
<g id="edge27" class="edge"><title>Node18&#45;&gt;Node9</title>
<path fill="none" stroke="midnightblue" d="M592.123,-226.737C620.415,-220.861 655.543,-209.571 680,-188 711.339,-160.359 727.236,-112.048 733.945,-85.6028"/>
<polygon fill="midnightblue" stroke="midnightblue" points="737.384,-86.269 736.276,-75.7322 730.571,-84.6601 737.384,-86.269"/>
</g>
<!-- Node18&#45;&gt;Node10 -->
<g id="edge29" class="edge"><title>Node18&#45;&gt;Node10</title>
<path fill="none" stroke="midnightblue" d="M592.151,-226.95C616.957,-221.189 645.557,-209.945 662,-188 684.461,-158.024 680.557,-111.36 676.069,-85.6202"/>
<polygon fill="midnightblue" stroke="midnightblue" points="679.481,-84.8291 674.121,-75.6896 672.611,-86.1763 679.481,-84.8291"/>
</g>
<!-- Node18&#45;&gt;Node13 -->
<g id="edge34" class="edge"><title>Node18&#45;&gt;Node13</title>
<path fill="none" stroke="midnightblue" d="M543.018,-224.083C541.428,-216.927 539.141,-206.635 537.154,-197.691"/>
<polygon fill="midnightblue" stroke="midnightblue" points="540.531,-196.754 534.945,-187.751 533.697,-198.272 540.531,-196.754"/>
</g>
<!-- Node18&#45;&gt;Node16 -->
<g id="edge35" class="edge"><title>Node18&#45;&gt;Node16</title>
<path fill="none" stroke="midnightblue" d="M497.61,-228.018C445.136,-221.566 365.025,-208.634 343,-188 330.408,-176.203 326.009,-156.568 324.548,-141.96"/>
<polygon fill="midnightblue" stroke="midnightblue" points="328.016,-141.333 323.905,-131.568 321.029,-141.765 328.016,-141.333"/>
</g>
<!-- Node19 -->
<g id="node19" class="node"><title>Node19</title>
<polygon fill="white" stroke="#bfbfbf" points="624,-168.5 624,-187.5 654,-187.5 654,-168.5 624,-168.5"/>
<text text-anchor="middle" x="639" y="-175.5" font-family="Helvetica,sans-Serif" font-size="10.00">set</text>
</g>
<!-- Node18&#45;&gt;Node19 -->
<g id="edge28" class="edge"><title>Node18&#45;&gt;Node19</title>
<path fill="none" stroke="midnightblue" d="M560.103,-224.324C574.903,-215.822 597.694,-202.729 614.982,-192.797"/>
<polygon fill="midnightblue" stroke="midnightblue" points="617.007,-195.671 623.935,-187.655 613.52,-189.601 617.007,-195.671"/>
</g>
<!-- Node20 -->
<g id="node20" class="node"><title>Node20</title>
<g id="a_node20"><a xlink:href="_color_8hpp.html" target="_top" xlink:title="Classe Color. ">
<polygon fill="white" stroke="black" points="102.5,-168.5 102.5,-187.5 161.5,-187.5 161.5,-168.5 102.5,-168.5"/>
<text text-anchor="middle" x="132" y="-175.5" font-family="Helvetica,sans-Serif" font-size="10.00">Color.hpp</text>
</a>
</g>
</g>
<!-- Node18&#45;&gt;Node20 -->
<g id="edge30" class="edge"><title>Node18&#45;&gt;Node20</title>
<path fill="none" stroke="midnightblue" d="M497.624,-226.806C415.566,-216.076 248.452,-194.226 171.907,-184.218"/>
<polygon fill="midnightblue" stroke="midnightblue" points="172.095,-180.713 161.725,-182.887 171.187,-187.654 172.095,-180.713"/>
</g>
<!-- Node20&#45;&gt;Node4 -->
<g id="edge32" class="edge"><title>Node20&#45;&gt;Node4</title>
<path fill="none" stroke="midnightblue" d="M148.549,-168.324C164.992,-159.703 190.435,-146.364 209.468,-136.386"/>
<polygon fill="midnightblue" stroke="midnightblue" points="211.261,-139.398 218.492,-131.655 208.011,-133.198 211.261,-139.398"/>
</g>
<!-- Node20&#45;&gt;Node6 -->
<g id="edge33" class="edge"><title>Node20&#45;&gt;Node6</title>
<path fill="none" stroke="midnightblue" d="M130.873,-168.126C129.651,-154.724 129.237,-129.075 141,-112 151.299,-97.0496 168.242,-86.5751 184.06,-79.5183"/>
<polygon fill="midnightblue" stroke="midnightblue" points="185.778,-82.5966 193.695,-75.5566 183.116,-76.1225 185.778,-82.5966"/>
</g>
<!-- Node21 -->
<g id="node21" class="node"><title>Node21</title>
<polygon fill="white" stroke="#bfbfbf" points="150,-112.5 150,-131.5 196,-131.5 196,-112.5 150,-112.5"/>
<text text-anchor="middle" x="173" y="-119.5" font-family="Helvetica,sans-Serif" font-size="10.00">cstdint</text>
</g>
<!-- Node20&#45;&gt;Node21 -->
<g id="edge31" class="edge"><title>Node20&#45;&gt;Node21</title>
<path fill="none" stroke="midnightblue" d="M138.77,-168.083C144.562,-160.455 153.058,-149.264 160.138,-139.941"/>
<polygon fill="midnightblue" stroke="midnightblue" points="163.096,-141.832 166.356,-131.751 157.521,-137.599 163.096,-141.832"/>
</g>
<!-- Node33 -->
<g id="node33" class="node"><title>Node33</title>
<g id="a_node33"><a xlink:href="_widget_8hpp.html" target="_top" xlink:title="Widget.hpp">
<polygon fill="white" stroke="black" points="642,-336.5 642,-355.5 708,-355.5 708,-336.5 642,-336.5"/>
<text text-anchor="middle" x="675" y="-343.5" font-family="Helvetica,sans-Serif" font-size="10.00">Widget.hpp</text>
</a>
</g>
</g>
<!-- Node32&#45;&gt;Node33 -->
<g id="edge47" class="edge"><title>Node32&#45;&gt;Node33</title>
<path fill="none" stroke="midnightblue" d="M544.778,-398.403C570.738,-388.156 614.311,-370.956 643.835,-359.302"/>
<polygon fill="midnightblue" stroke="midnightblue" points="645.246,-362.508 653.263,-355.581 642.676,-355.997 645.246,-362.508"/>
</g>
<!-- Node36 -->
<g id="node36" class="node"><title>Node36</title>
<g id="a_node36"><a xlink:href="_graphics_rectangle_8hpp.html" target="_top" xlink:title="GraphicsRectangle.hpp">
<polygon fill="white" stroke="black" points="463.5,-336.5 463.5,-355.5 582.5,-355.5 582.5,-336.5 463.5,-336.5"/>
<text text-anchor="middle" x="523" y="-343.5" font-family="Helvetica,sans-Serif" font-size="10.00">GraphicsRectangle.hpp</text>
</a>
</g>
</g>
<!-- Node32&#45;&gt;Node36 -->
<g id="edge51" class="edge"><title>Node32&#45;&gt;Node36</title>
<path fill="none" stroke="midnightblue" d="M523,-398.403C523,-389.938 523,-376.728 523,-365.82"/>
<polygon fill="midnightblue" stroke="midnightblue" points="526.5,-365.581 523,-355.581 519.5,-365.581 526.5,-365.581"/>
</g>
<!-- Node38 -->
<g id="node38" class="node"><title>Node38</title>
<g id="a_node38"><a xlink:href="_graphics_text_8hpp.html" target="_top" xlink:title="Classe GraphicsText. ">
<polygon fill="white" stroke="black" points="356,-280.5 356,-299.5 450,-299.5 450,-280.5 356,-280.5"/>
<text text-anchor="middle" x="403" y="-287.5" font-family="Helvetica,sans-Serif" font-size="10.00">GraphicsText.hpp</text>
</a>
</g>
</g>
<!-- Node32&#45;&gt;Node38 -->
<g id="edge54" class="edge"><title>Node32&#45;&gt;Node38</title>
<path fill="none" stroke="midnightblue" d="M509.192,-398.397C494.626,-388.97 471.414,-372.92 454,-356 438.787,-341.219 424.133,-321.826 414.467,-308.081"/>
<polygon fill="midnightblue" stroke="midnightblue" points="417.179,-305.848 408.627,-299.594 411.412,-309.816 417.179,-305.848"/>
</g>
<!-- Node39 -->
<g id="node39" class="node"><title>Node39</title>
<g id="a_node39"><a xlink:href="_graphics_line_8hpp.html" target="_top" xlink:title="GraphicsLine.hpp">
<polygon fill="white" stroke="black" points="812,-336.5 812,-355.5 904,-355.5 904,-336.5 812,-336.5"/>
<text text-anchor="middle" x="858" y="-343.5" font-family="Helvetica,sans-Serif" font-size="10.00">GraphicsLine.hpp</text>
</a>
</g>
</g>
<!-- Node32&#45;&gt;Node39 -->
<g id="edge57" class="edge"><title>Node32&#45;&gt;Node39</title>
<path fill="none" stroke="midnightblue" d="M546.139,-398.461C553.097,-396.119 560.797,-393.746 568,-392 648.109,-372.579 742.788,-359.732 801.627,-352.907"/>
<polygon fill="midnightblue" stroke="midnightblue" points="802.288,-356.354 811.827,-351.743 801.494,-349.4 802.288,-356.354"/>
</g>
<!-- Node33&#45;&gt;Node18 -->
<g id="edge50" class="edge"><title>Node33&#45;&gt;Node18</title>
<path fill="none" stroke="midnightblue" d="M708.22,-340.55C755.18,-332.926 832.189,-314.721 803,-280 777.884,-250.124 670.415,-240.081 602.349,-236.706"/>
<polygon fill="midnightblue" stroke="midnightblue" points="602.346,-233.202 592.195,-236.237 602.023,-240.195 602.346,-233.202"/>
</g>
<!-- Node34 -->
<g id="node34" class="node"><title>Node34</title>
<polygon fill="white" stroke="#bfbfbf" points="568.5,-280.5 568.5,-299.5 695.5,-299.5 695.5,-280.5 568.5,-280.5"/>
<text text-anchor="middle" x="632" y="-287.5" font-family="Helvetica,sans-Serif" font-size="10.00">boost/signals2/signal.hpp</text>
</g>
<!-- Node33&#45;&gt;Node34 -->
<g id="edge48" class="edge"><title>Node33&#45;&gt;Node34</title>
<path fill="none" stroke="midnightblue" d="M667.899,-336.083C661.763,-328.377 652.73,-317.033 645.261,-307.653"/>
<polygon fill="midnightblue" stroke="midnightblue" points="647.936,-305.394 638.968,-299.751 642.46,-309.754 647.936,-305.394"/>
</g>
<!-- Node35 -->
<g id="node35" class="node"><title>Node35</title>
<polygon fill="white" stroke="#bfbfbf" points="714,-280.5 714,-299.5 794,-299.5 794,-280.5 714,-280.5"/>
<text text-anchor="middle" x="754" y="-287.5" font-family="Helvetica,sans-Serif" font-size="10.00">boost/bind.hpp</text>
</g>
<!-- Node33&#45;&gt;Node35 -->
<g id="edge49" class="edge"><title>Node33&#45;&gt;Node35</title>
<path fill="none" stroke="midnightblue" d="M687.693,-336.324C699.901,-327.979 718.578,-315.212 733.003,-305.352"/>
<polygon fill="midnightblue" stroke="midnightblue" points="735.058,-308.187 741.339,-299.655 731.108,-302.408 735.058,-308.187"/>
</g>
<!-- Node36&#45;&gt;Node18 -->
<g id="edge53" class="edge"><title>Node36&#45;&gt;Node18</title>
<path fill="none" stroke="midnightblue" d="M524.726,-336.368C528.277,-318.617 536.467,-277.666 541.281,-253.597"/>
<polygon fill="midnightblue" stroke="midnightblue" points="544.753,-254.084 543.282,-243.591 537.888,-252.711 544.753,-254.084"/>
</g>
<!-- Node37 -->
<g id="node37" class="node"><title>Node37</title>
<polygon fill="white" stroke="#bfbfbf" points="468,-280.5 468,-299.5 512,-299.5 512,-280.5 468,-280.5"/>
<text text-anchor="middle" x="490" y="-287.5" font-family="Helvetica,sans-Serif" font-size="10.00">cmath</text>
</g>
<!-- Node36&#45;&gt;Node37 -->
<g id="edge52" class="edge"><title>Node36&#45;&gt;Node37</title>
<path fill="none" stroke="midnightblue" d="M517.551,-336.083C512.986,-328.613 506.332,-317.724 500.707,-308.52"/>
<polygon fill="midnightblue" stroke="midnightblue" points="503.549,-306.459 495.348,-299.751 497.576,-310.109 503.549,-306.459"/>
</g>
<!-- Node38&#45;&gt;Node14 -->
<g id="edge56" class="edge"><title>Node38&#45;&gt;Node14</title>
<path fill="none" stroke="midnightblue" d="M407.723,-280.29C416.939,-263.05 437.591,-223.196 451,-188 456.886,-172.55 462.039,-154.46 465.488,-141.293"/>
<polygon fill="midnightblue" stroke="midnightblue" points="468.891,-142.11 467.963,-131.556 462.107,-140.386 468.891,-142.11"/>
</g>
<!-- Node38&#45;&gt;Node18 -->
<g id="edge55" class="edge"><title>Node38&#45;&gt;Node18</title>
<path fill="none" stroke="midnightblue" d="M425.5,-280.444C449.077,-271.478 486.322,-257.314 512.964,-247.183"/>
<polygon fill="midnightblue" stroke="midnightblue" points="514.502,-250.342 522.605,-243.516 512.014,-243.8 514.502,-250.342"/>
</g>
<!-- Node40 -->
<g id="node40" class="node"><title>Node40</title>
<g id="a_node40"><a xlink:href="_graphics_shape_8hpp.html" target="_top" xlink:title="Classe GraphicsShape. ">
<polygon fill="white" stroke="black" points="850,-280.5 850,-299.5 952,-299.5 952,-280.5 850,-280.5"/>
<text text-anchor="middle" x="901" y="-287.5" font-family="Helvetica,sans-Serif" font-size="10.00">GraphicsShape.hpp</text>
</a>
</g>
</g>
<!-- Node39&#45;&gt;Node40 -->
<g id="edge58" class="edge"><title>Node39&#45;&gt;Node40</title>
<path fill="none" stroke="midnightblue" d="M865.101,-336.083C871.237,-328.377 880.27,-317.033 887.739,-307.653"/>
<polygon fill="midnightblue" stroke="midnightblue" points="890.54,-309.754 894.032,-299.751 885.064,-305.394 890.54,-309.754"/>
</g>
<!-- Node40&#45;&gt;Node9 -->
<g id="edge59" class="edge"><title>Node40&#45;&gt;Node9</title>
<path fill="none" stroke="midnightblue" d="M894.61,-280.297C870.271,-247.148 783.092,-128.414 750.454,-83.9613"/>
<polygon fill="midnightblue" stroke="midnightblue" points="753.262,-81.8729 744.523,-75.8837 747.62,-86.0158 753.262,-81.8729"/>
</g>
<!-- Node40&#45;&gt;Node18 -->
<g id="edge60" class="edge"><title>Node40&#45;&gt;Node18</title>
<path fill="none" stroke="midnightblue" d="M849.994,-281.263C784.434,-271.319 670.916,-254.1 602.401,-243.707"/>
<polygon fill="midnightblue" stroke="midnightblue" points="602.63,-240.202 592.218,-242.162 601.58,-247.122 602.63,-240.202"/>
</g>
</g>
</svg>
