<?xml version="1.0" encoding="UTF-8" standalone="no"?>
<!DOCTYPE svg PUBLIC "-//W3C//DTD SVG 1.1//EN"
 "http://www.w3.org/Graphics/SVG/1.1/DTD/svg11.dtd">
<!-- Generated by graphviz version 2.36.0 (20140111.2315)
 -->
<!-- Title: MainWindow.cpp Pages: 1 -->
<svg width="3010pt" height="488pt"
 viewBox="0.00 0.00 3010.05 488.00" xmlns="http://www.w3.org/2000/svg" xmlns:xlink="http://www.w3.org/1999/xlink">
<g id="graph0" class="graph" transform="scale(1 1) rotate(0) translate(4 484)">
<title>MainWindow.cpp</title>
<polygon fill="white" stroke="none" points="-4,4 -4,-484 3006.05,-484 3006.05,4 -4,4"/>
<!-- Node1 -->
<g id="node1" class="node"><title>Node1</title>
<polygon fill="#bfbfbf" stroke="black" points="1745.05,-460.5 1745.05,-479.5 1837.05,-479.5 1837.05,-460.5 1745.05,-460.5"/>
<text text-anchor="middle" x="1791.05" y="-467.5" font-family="Helvetica,sans-Serif" font-size="10.00">MainWindow.cpp</text>
</g>
<!-- Node2 -->
<g id="node2" class="node"><title>Node2</title>
<g id="a_node2"><a xlink:href="_main_window_8hpp.html" target="_top" xlink:title="../include/MainWindow.hpp">
<polygon fill="white" stroke="black" points="442.049,-224.5 442.049,-243.5 576.049,-243.5 576.049,-224.5 442.049,-224.5"/>
<text text-anchor="middle" x="509.049" y="-231.5" font-family="Helvetica,sans-Serif" font-size="10.00">../include/MainWindow.hpp</text>
</a>
</g>
</g>
<!-- Node1&#45;&gt;Node2 -->
<g id="edge1" class="edge"><title>Node1&#45;&gt;Node2</title>
<path fill="none" stroke="midnightblue" d="M1744.86,-468.411C1589.81,-466.149 1088.75,-456.445 931.049,-424 775.137,-391.922 734.712,-376.367 595.049,-300 569.32,-285.931 542.869,-264.734 526.219,-250.405"/>
<polygon fill="midnightblue" stroke="midnightblue" points="528.29,-247.567 518.461,-243.612 523.678,-252.833 528.29,-247.567"/>
</g>
<!-- Node8 -->
<g id="node8" class="node"><title>Node8</title>
<polygon fill="white" stroke="#bfbfbf" points="453.049,-0.5 453.049,-19.5 507.049,-19.5 507.049,-0.5 453.049,-0.5"/>
<text text-anchor="middle" x="480.049" y="-7.5" font-family="Helvetica,sans-Serif" font-size="10.00">iostream</text>
</g>
<!-- Node1&#45;&gt;Node8 -->
<g id="edge62" class="edge"><title>Node1&#45;&gt;Node8</title>
<path fill="none" stroke="midnightblue" d="M1745.03,-468.282C1619.37,-465.904 1277.22,-456.483 1239.05,-424 1212.21,-401.155 1220.05,-382.249 1220.05,-347 1220.05,-347 1220.05,-347 1220.05,-121 1220.05,-49.177 667.605,-19.3482 517.372,-12.5644"/>
<polygon fill="midnightblue" stroke="midnightblue" points="517.409,-9.0627 507.264,-12.1155 517.099,-16.0558 517.409,-9.0627"/>
</g>
<!-- Node21 -->
<g id="node21" class="node"><title>Node21</title>
<polygon fill="white" stroke="#bfbfbf" points="1248.05,-398.5 1248.05,-417.5 1388.05,-417.5 1388.05,-398.5 1248.05,-398.5"/>
<text text-anchor="middle" x="1318.05" y="-405.5" font-family="Helvetica,sans-Serif" font-size="10.00">../include/GraphicsPoint.hpp</text>
</g>
<!-- Node1&#45;&gt;Node21 -->
<g id="edge32" class="edge"><title>Node1&#45;&gt;Node21</title>
<path fill="none" stroke="midnightblue" d="M1744.93,-464.795C1671.36,-457.846 1523,-442.843 1398.05,-424 1389.02,-422.638 1379.45,-421.008 1370.19,-419.332"/>
<polygon fill="midnightblue" stroke="midnightblue" points="1370.77,-415.88 1360.3,-417.505 1369.5,-422.764 1370.77,-415.88"/>
</g>
<!-- Node22 -->
<g id="node22" class="node"><title>Node22</title>
<polygon fill="white" stroke="#bfbfbf" points="1406.55,-398.5 1406.55,-417.5 1543.55,-417.5 1543.55,-398.5 1406.55,-398.5"/>
<text text-anchor="middle" x="1475.05" y="-405.5" font-family="Helvetica,sans-Serif" font-size="10.00">../include/GraphicsText.hpp</text>
</g>
<!-- Node1&#45;&gt;Node22 -->
<g id="edge33" class="edge"><title>Node1&#45;&gt;Node22</title>
<path fill="none" stroke="midnightblue" d="M1745.86,-460.499C1697.98,-451.482 1620.17,-436.8 1553.05,-424 1545.33,-422.529 1537.19,-420.97 1529.19,-419.435"/>
<polygon fill="midnightblue" stroke="midnightblue" points="1529.66,-415.961 1519.18,-417.512 1528.34,-422.836 1529.66,-415.961"/>
</g>
<!-- Node23 -->
<g id="node23" class="node"><title>Node23</title>
<polygon fill="white" stroke="#bfbfbf" points="1561.55,-398.5 1561.55,-417.5 1696.55,-417.5 1696.55,-398.5 1561.55,-398.5"/>
<text text-anchor="middle" x="1629.05" y="-405.5" font-family="Helvetica,sans-Serif" font-size="10.00">../include/GraphicsLine.hpp</text>
</g>
<!-- Node1&#45;&gt;Node23 -->
<g id="edge34" class="edge"><title>Node1&#45;&gt;Node23</title>
<path fill="none" stroke="midnightblue" d="M1767.84,-460.403C1740.05,-450.111 1693.33,-432.806 1661.86,-421.15"/>
<polygon fill="midnightblue" stroke="midnightblue" points="1662.81,-417.772 1652.22,-417.581 1660.38,-424.336 1662.81,-417.772"/>
</g>
<!-- Node24 -->
<g id="node24" class="node"><title>Node24</title>
<polygon fill="white" stroke="#bfbfbf" points="1715.05,-398.5 1715.05,-417.5 1867.05,-417.5 1867.05,-398.5 1715.05,-398.5"/>
<text text-anchor="middle" x="1791.05" y="-405.5" font-family="Helvetica,sans-Serif" font-size="10.00">../include/GraphicsTriangle.hpp</text>
</g>
<!-- Node1&#45;&gt;Node24 -->
<g id="edge35" class="edge"><title>Node1&#45;&gt;Node24</title>
<path fill="none" stroke="midnightblue" d="M1791.05,-460.403C1791.05,-451.938 1791.05,-438.728 1791.05,-427.82"/>
<polygon fill="midnightblue" stroke="midnightblue" points="1794.55,-427.581 1791.05,-417.581 1787.55,-427.581 1794.55,-427.581"/>
</g>
<!-- Node25 -->
<g id="node25" class="node"><title>Node25</title>
<polygon fill="white" stroke="#bfbfbf" points="1885.55,-398.5 1885.55,-417.5 2046.55,-417.5 2046.55,-398.5 1885.55,-398.5"/>
<text text-anchor="middle" x="1966.05" y="-405.5" font-family="Helvetica,sans-Serif" font-size="10.00">../include/GraphicsRectangle.hpp</text>
</g>
<!-- Node1&#45;&gt;Node25 -->
<g id="edge36" class="edge"><title>Node1&#45;&gt;Node25</title>
<path fill="none" stroke="midnightblue" d="M1816.12,-460.403C1846.4,-450.022 1897.49,-432.506 1931.49,-420.849"/>
<polygon fill="midnightblue" stroke="midnightblue" points="1932.7,-424.135 1941.02,-417.581 1930.43,-417.513 1932.7,-424.135"/>
</g>
<!-- Node26 -->
<g id="node26" class="node"><title>Node26</title>
<polygon fill="white" stroke="#bfbfbf" points="2065.05,-398.5 2065.05,-417.5 2217.05,-417.5 2217.05,-398.5 2065.05,-398.5"/>
<text text-anchor="middle" x="2141.05" y="-405.5" font-family="Helvetica,sans-Serif" font-size="10.00">../include/GraphicsPolygon.hpp</text>
</g>
<!-- Node1&#45;&gt;Node26 -->
<g id="edge37" class="edge"><title>Node1&#45;&gt;Node26</title>
<path fill="none" stroke="midnightblue" d="M1837.32,-461.169C1890.03,-452.233 1978.76,-437.155 2055.05,-424 2063.93,-422.468 2073.33,-420.838 2082.53,-419.239"/>
<polygon fill="midnightblue" stroke="midnightblue" points="2083.14,-422.685 2092.39,-417.521 2081.94,-415.789 2083.14,-422.685"/>
</g>
<!-- Node27 -->
<g id="node27" class="node"><title>Node27</title>
<polygon fill="white" stroke="#bfbfbf" points="2235.55,-398.5 2235.55,-417.5 2378.55,-417.5 2378.55,-398.5 2235.55,-398.5"/>
<text text-anchor="middle" x="2307.05" y="-405.5" font-family="Helvetica,sans-Serif" font-size="10.00">../include/GraphicsCircle.hpp</text>
</g>
<!-- Node1&#45;&gt;Node27 -->
<g id="edge38" class="edge"><title>Node1&#45;&gt;Node27</title>
<path fill="none" stroke="midnightblue" d="M1837.23,-465.445C1916.84,-459.043 2084.96,-444.328 2226.05,-424 2235.3,-422.667 2245.11,-421.037 2254.58,-419.348"/>
<polygon fill="midnightblue" stroke="midnightblue" points="2255.49,-422.742 2264.7,-417.504 2254.23,-415.855 2255.49,-422.742"/>
</g>
<!-- Node28 -->
<g id="node28" class="node"><title>Node28</title>
<polygon fill="white" stroke="#bfbfbf" points="2397.05,-398.5 2397.05,-417.5 2543.05,-417.5 2543.05,-398.5 2397.05,-398.5"/>
<text text-anchor="middle" x="2470.05" y="-405.5" font-family="Helvetica,sans-Serif" font-size="10.00">../include/GraphicsEllipse.hpp</text>
</g>
<!-- Node1&#45;&gt;Node28 -->
<g id="edge39" class="edge"><title>Node1&#45;&gt;Node28</title>
<path fill="none" stroke="midnightblue" d="M1837.2,-467.143C1937.55,-462.75 2182.99,-450.072 2387.05,-424 2396.96,-422.733 2407.49,-421.076 2417.6,-419.326"/>
<polygon fill="midnightblue" stroke="midnightblue" points="2418.3,-422.757 2427.53,-417.557 2417.07,-415.865 2418.3,-422.757"/>
</g>
<!-- Node29 -->
<g id="node29" class="node"><title>Node29</title>
<polygon fill="white" stroke="#bfbfbf" points="2561.05,-398.5 2561.05,-417.5 2709.05,-417.5 2709.05,-398.5 2561.05,-398.5"/>
<text text-anchor="middle" x="2635.05" y="-405.5" font-family="Helvetica,sans-Serif" font-size="10.00">../include/GraphicsSquare.hpp</text>
</g>
<!-- Node1&#45;&gt;Node29 -->
<g id="edge40" class="edge"><title>Node1&#45;&gt;Node29</title>
<path fill="none" stroke="midnightblue" d="M1837.11,-468.196C1955.92,-465.706 2282.32,-456.23 2552.05,-424 2562.19,-422.788 2572.97,-421.123 2583.28,-419.342"/>
<polygon fill="midnightblue" stroke="midnightblue" points="2584.17,-422.739 2593.4,-417.534 2582.94,-415.848 2584.17,-422.739"/>
</g>
<!-- Node30 -->
<g id="node30" class="node"><title>Node30</title>
<polygon fill="white" stroke="#bfbfbf" points="2727.05,-393 2727.05,-423 2847.05,-423 2847.05,-393 2727.05,-393"/>
<text text-anchor="start" x="2735.05" y="-411" font-family="Helvetica,sans-Serif" font-size="10.00">../include/GraphicsBlink</text>
<text text-anchor="middle" x="2787.05" y="-400" font-family="Helvetica,sans-Serif" font-size="10.00">Animation.hpp</text>
</g>
<!-- Node1&#45;&gt;Node30 -->
<g id="edge41" class="edge"><title>Node1&#45;&gt;Node30</title>
<path fill="none" stroke="midnightblue" d="M1837.11,-469.451C1971.41,-470.196 2374.22,-468.383 2716.82,-424.006"/>
<polygon fill="midnightblue" stroke="midnightblue" points="2717.48,-427.45 2726.94,-422.68 2716.57,-420.509 2717.48,-427.45"/>
</g>
<!-- Node31 -->
<g id="node31" class="node"><title>Node31</title>
<polygon fill="white" stroke="#bfbfbf" points="2865.55,-398.5 2865.55,-417.5 3002.55,-417.5 3002.55,-398.5 2865.55,-398.5"/>
<text text-anchor="middle" x="2934.05" y="-405.5" font-family="Helvetica,sans-Serif" font-size="10.00">../include/GraphicsItem.hpp</text>
</g>
<!-- Node1&#45;&gt;Node31 -->
<g id="edge42" class="edge"><title>Node1&#45;&gt;Node31</title>
<path fill="none" stroke="midnightblue" d="M1837.13,-469.436C1985.37,-470.331 2463.15,-469.25 2855.05,-424 2864.83,-422.871 2875.21,-421.226 2885.13,-419.435"/>
<polygon fill="midnightblue" stroke="midnightblue" points="2886.06,-422.82 2895.24,-417.531 2884.77,-415.941 2886.06,-422.82"/>
</g>
<!-- Node32 -->
<g id="node32" class="node"><title>Node32</title>
<g id="a_node32"><a xlink:href="_line_edit_8hpp.html" target="_top" xlink:title="LineEdit.hpp">
<polygon fill="white" stroke="black" points="814.549,-336.5 814.549,-355.5 885.549,-355.5 885.549,-336.5 814.549,-336.5"/>
<text text-anchor="middle" x="850.049" y="-343.5" font-family="Helvetica,sans-Serif" font-size="10.00">LineEdit.hpp</text>
</a>
</g>
</g>
<!-- Node1&#45;&gt;Node32 -->
<g id="edge43" class="edge"><title>Node1&#45;&gt;Node32</title>
<path fill="none" stroke="midnightblue" d="M1745.02,-468.464C1601.15,-466.448 1161.26,-457.624 1023.05,-424 966.646,-410.278 905.748,-378.854 873.388,-360.675"/>
<polygon fill="midnightblue" stroke="midnightblue" points="875.093,-357.618 864.671,-355.709 871.627,-363.7 875.093,-357.618"/>
</g>
<!-- Node41 -->
<g id="node41" class="node"><title>Node41</title>
<g id="a_node41"><a xlink:href="_button_8hpp.html" target="_top" xlink:title="Classe Button. ">
<polygon fill="white" stroke="black" points="1032.05,-398.5 1032.05,-417.5 1096.05,-417.5 1096.05,-398.5 1032.05,-398.5"/>
<text text-anchor="middle" x="1064.05" y="-405.5" font-family="Helvetica,sans-Serif" font-size="10.00">Button.hpp</text>
</a>
</g>
</g>
<!-- Node1&#45;&gt;Node41 -->
<g id="edge58" class="edge"><title>Node1&#45;&gt;Node41</title>
<path fill="none" stroke="midnightblue" d="M1744.75,-465.889C1645.8,-459.14 1406.4,-442.284 1206.05,-424 1172.56,-420.943 1134.68,-416.914 1106.48,-413.801"/>
<polygon fill="midnightblue" stroke="midnightblue" points="1106.49,-410.281 1096.17,-412.657 1105.72,-417.239 1106.49,-410.281"/>
</g>
<!-- Node3 -->
<g id="node3" class="node"><title>Node3</title>
<g id="a_node3"><a xlink:href="_window_8hpp.html" target="_top" xlink:title="Window.hpp">
<polygon fill="white" stroke="black" points="226.549,-168.5 226.549,-187.5 297.549,-187.5 297.549,-168.5 226.549,-168.5"/>
<text text-anchor="middle" x="262.049" y="-175.5" font-family="Helvetica,sans-Serif" font-size="10.00">Window.hpp</text>
</a>
</g>
</g>
<!-- Node2&#45;&gt;Node3 -->
<g id="edge2" class="edge"><title>Node2&#45;&gt;Node3</title>
<path fill="none" stroke="midnightblue" d="M469.911,-224.444C425.809,-214.802 354.213,-199.149 307.626,-188.964"/>
<polygon fill="midnightblue" stroke="midnightblue" points="308.313,-185.532 297.796,-186.815 306.818,-192.37 308.313,-185.532"/>
</g>
<!-- Node14 -->
<g id="node14" class="node"><title>Node14</title>
<g id="a_node14"><a xlink:href="_graphics_item_8hpp.html" target="_top" xlink:title="Classe GraphicsItem. ">
<polygon fill="white" stroke="black" points="592.049,-168.5 592.049,-187.5 686.049,-187.5 686.049,-168.5 592.049,-168.5"/>
<text text-anchor="middle" x="639.049" y="-175.5" font-family="Helvetica,sans-Serif" font-size="10.00">GraphicsItem.hpp</text>
</a>
</g>
</g>
<!-- Node2&#45;&gt;Node14 -->
<g id="edge21" class="edge"><title>Node2&#45;&gt;Node14</title>
<path fill="none" stroke="midnightblue" d="M529.648,-224.444C551.042,-215.557 584.73,-201.563 609.073,-191.451"/>
<polygon fill="midnightblue" stroke="midnightblue" points="610.654,-194.585 618.547,-187.516 607.969,-188.12 610.654,-194.585"/>
</g>
<!-- Node4 -->
<g id="node4" class="node"><title>Node4</title>
<polygon fill="white" stroke="#bfbfbf" points="127.549,-56.5 127.549,-75.5 168.549,-75.5 168.549,-56.5 127.549,-56.5"/>
<text text-anchor="middle" x="148.049" y="-63.5" font-family="Helvetica,sans-Serif" font-size="10.00">string</text>
</g>
<!-- Node3&#45;&gt;Node4 -->
<g id="edge3" class="edge"><title>Node3&#45;&gt;Node4</title>
<path fill="none" stroke="midnightblue" d="M226.448,-175.725C165.86,-172.724 46.7482,-162.942 21.0491,-132 -8.16746,-96.8231 70.8068,-78.5777 117.119,-71.1378"/>
<polygon fill="midnightblue" stroke="midnightblue" points="117.92,-74.5563 127.281,-69.593 116.868,-67.6358 117.92,-74.5563"/>
</g>
<!-- Node5 -->
<g id="node5" class="node"><title>Node5</title>
<polygon fill="white" stroke="#bfbfbf" points="30.0491,-112.5 30.0491,-131.5 76.0491,-131.5 76.0491,-112.5 30.0491,-112.5"/>
<text text-anchor="middle" x="53.0491" y="-119.5" font-family="Helvetica,sans-Serif" font-size="10.00">chrono</text>
</g>
<!-- Node3&#45;&gt;Node5 -->
<g id="edge4" class="edge"><title>Node3&#45;&gt;Node5</title>
<path fill="none" stroke="midnightblue" d="M227.388,-168.462C193.679,-160.098 140.782,-146.814 85.9884,-132.204"/>
<polygon fill="midnightblue" stroke="midnightblue" points="86.6669,-128.762 76.102,-129.558 84.8576,-135.524 86.6669,-128.762"/>
</g>
<!-- Node6 -->
<g id="node6" class="node"><title>Node6</title>
<polygon fill="white" stroke="#bfbfbf" points="164.049,-0.5 164.049,-19.5 272.049,-19.5 272.049,-0.5 164.049,-0.5"/>
<text text-anchor="middle" x="218.049" y="-7.5" font-family="Helvetica,sans-Serif" font-size="10.00">ez&#45;lib/ez&#45;draw++.hpp</text>
</g>
<!-- Node3&#45;&gt;Node6 -->
<g id="edge5" class="edge"><title>Node3&#45;&gt;Node6</title>
<path fill="none" stroke="midnightblue" d="M226.477,-176.021C163.886,-173.468 38.108,-164.342 11.0491,-132 -36.819,-74.7867 83.7644,-38.3811 160.418,-21.6876"/>
<polygon fill="midnightblue" stroke="midnightblue" points="161.402,-25.0569 170.458,-19.5582 159.95,-18.2092 161.402,-25.0569"/>
</g>
<!-- Node7 -->
<g id="node7" class="node"><title>Node7</title>
<g id="a_node7"><a xlink:href="_point_8hpp.html" target="_top" xlink:title="Classe point. ">
<polygon fill="white" stroke="black" points="395.049,-56.5 395.049,-75.5 453.049,-75.5 453.049,-56.5 395.049,-56.5"/>
<text text-anchor="middle" x="424.049" y="-63.5" font-family="Helvetica,sans-Serif" font-size="10.00">Point.hpp</text>
</a>
</g>
</g>
<!-- Node3&#45;&gt;Node7 -->
<g id="edge6" class="edge"><title>Node3&#45;&gt;Node7</title>
<path fill="none" stroke="midnightblue" d="M291.026,-168.484C313.182,-161.086 343.776,-148.893 367.049,-132 385.383,-118.692 401.912,-98.481 412.392,-84.1332"/>
<polygon fill="midnightblue" stroke="midnightblue" points="415.45,-85.8696 418.363,-75.6829 409.733,-81.83 415.45,-85.8696"/>
</g>
<!-- Node9 -->
<g id="node9" class="node"><title>Node9</title>
<g id="a_node9"><a xlink:href="_canvas_8hpp.html" target="_top" xlink:title="Canvas.hpp">
<polygon fill="white" stroke="black" points="452.549,-112.5 452.549,-131.5 521.549,-131.5 521.549,-112.5 452.549,-112.5"/>
<text text-anchor="middle" x="487.049" y="-119.5" font-family="Helvetica,sans-Serif" font-size="10.00">Canvas.hpp</text>
</a>
</g>
</g>
<!-- Node3&#45;&gt;Node9 -->
<g id="edge8" class="edge"><title>Node3&#45;&gt;Node9</title>
<path fill="none" stroke="midnightblue" d="M297.701,-168.444C336.934,-159.028 400.053,-143.879 442.513,-133.689"/>
<polygon fill="midnightblue" stroke="midnightblue" points="443.396,-137.076 452.303,-131.339 441.763,-130.269 443.396,-137.076"/>
</g>
<!-- Node11 -->
<g id="node11" class="node"><title>Node11</title>
<g id="a_node11"><a xlink:href="_mouse_event_8hpp.html" target="_top" xlink:title="Classe MouseEvent. ">
<polygon fill="white" stroke="black" points="268.049,-112.5 268.049,-131.5 358.049,-131.5 358.049,-112.5 268.049,-112.5"/>
<text text-anchor="middle" x="313.049" y="-119.5" font-family="Helvetica,sans-Serif" font-size="10.00">MouseEvent.hpp</text>
</a>
</g>
</g>
<!-- Node3&#45;&gt;Node11 -->
<g id="edge13" class="edge"><title>Node3&#45;&gt;Node11</title>
<path fill="none" stroke="midnightblue" d="M270.471,-168.083C277.897,-160.22 288.901,-148.569 297.861,-139.081"/>
<polygon fill="midnightblue" stroke="midnightblue" points="300.462,-141.424 304.784,-131.751 295.373,-136.618 300.462,-141.424"/>
</g>
<!-- Node13 -->
<g id="node13" class="node"><title>Node13</title>
<g id="a_node13"><a xlink:href="_key_event_8hpp.html" target="_top" xlink:title="Classe KeyEvent. ">
<polygon fill="white" stroke="black" points="172.049,-112.5 172.049,-131.5 250.049,-131.5 250.049,-112.5 172.049,-112.5"/>
<text text-anchor="middle" x="211.049" y="-119.5" font-family="Helvetica,sans-Serif" font-size="10.00">KeyEvent.hpp</text>
</a>
</g>
</g>
<!-- Node3&#45;&gt;Node13 -->
<g id="edge18" class="edge"><title>Node3&#45;&gt;Node13</title>
<path fill="none" stroke="midnightblue" d="M253.627,-168.083C246.201,-160.22 235.197,-148.569 226.237,-139.081"/>
<polygon fill="midnightblue" stroke="midnightblue" points="228.725,-136.618 219.314,-131.751 223.636,-141.424 228.725,-136.618"/>
</g>
<!-- Node7&#45;&gt;Node8 -->
<g id="edge7" class="edge"><title>Node7&#45;&gt;Node8</title>
<path fill="none" stroke="midnightblue" d="M433.046,-56.324C441.244,-48.4196 453.555,-36.5482 463.521,-26.9377"/>
<polygon fill="midnightblue" stroke="midnightblue" points="466.119,-29.2947 470.888,-19.8339 461.26,-24.2558 466.119,-29.2947"/>
</g>
<!-- Node9&#45;&gt;Node6 -->
<g id="edge9" class="edge"><title>Node9&#45;&gt;Node6</title>
<path fill="none" stroke="midnightblue" d="M486.202,-112.293C484.335,-98.151 478.532,-70.3323 461.049,-56 434.294,-34.0661 344.812,-21.9088 282.252,-15.9149"/>
<polygon fill="midnightblue" stroke="midnightblue" points="282.351,-12.4091 272.07,-14.9706 281.704,-19.3792 282.351,-12.4091"/>
</g>
<!-- Node9&#45;&gt;Node7 -->
<g id="edge10" class="edge"><title>Node9&#45;&gt;Node7</title>
<path fill="none" stroke="midnightblue" d="M476.927,-112.324C467.523,-104.263 453.305,-92.0765 441.98,-82.3695"/>
<polygon fill="midnightblue" stroke="midnightblue" points="444.226,-79.6844 434.355,-75.8339 439.67,-84.9993 444.226,-79.6844"/>
</g>
<!-- Node10 -->
<g id="node10" class="node"><title>Node10</title>
<g id="a_node10"><a xlink:href="_font_8hpp.html" target="_top" xlink:title="Font.hpp">
<polygon fill="white" stroke="black" points="509.549,-56.5 509.549,-75.5 564.549,-75.5 564.549,-56.5 509.549,-56.5"/>
<text text-anchor="middle" x="537.049" y="-63.5" font-family="Helvetica,sans-Serif" font-size="10.00">Font.hpp</text>
</a>
</g>
</g>
<!-- Node9&#45;&gt;Node10 -->
<g id="edge11" class="edge"><title>Node9&#45;&gt;Node10</title>
<path fill="none" stroke="midnightblue" d="M495.306,-112.083C502.514,-104.298 513.159,-92.8015 521.895,-83.3665"/>
<polygon fill="midnightblue" stroke="midnightblue" points="524.72,-85.4666 528.946,-75.7511 519.584,-80.7108 524.72,-85.4666"/>
</g>
<!-- Node10&#45;&gt;Node8 -->
<g id="edge12" class="edge"><title>Node10&#45;&gt;Node8</title>
<path fill="none" stroke="midnightblue" d="M527.891,-56.324C519.548,-48.4196 507.017,-36.5482 496.872,-26.9377"/>
<polygon fill="midnightblue" stroke="midnightblue" points="499.04,-24.1705 489.374,-19.8339 494.226,-29.2522 499.04,-24.1705"/>
</g>
<!-- Node11&#45;&gt;Node7 -->
<g id="edge17" class="edge"><title>Node11&#45;&gt;Node7</title>
<path fill="none" stroke="midnightblue" d="M330.883,-112.324C348.765,-103.625 376.524,-90.1202 397.095,-80.113"/>
<polygon fill="midnightblue" stroke="midnightblue" points="398.798,-83.1765 406.259,-75.6545 395.736,-76.8819 398.798,-83.1765"/>
</g>
<!-- Node12 -->
<g id="node12" class="node"><title>Node12</title>
<g id="a_node12"><a xlink:href="_event_8hpp.html" target="_top" xlink:title="Classe Event. ">
<polygon fill="white" stroke="black" points="282.549,-56.5 282.549,-75.5 343.549,-75.5 343.549,-56.5 282.549,-56.5"/>
<text text-anchor="middle" x="313.049" y="-63.5" font-family="Helvetica,sans-Serif" font-size="10.00">Event.hpp</text>
</a>
</g>
</g>
<!-- Node11&#45;&gt;Node12 -->
<g id="edge14" class="edge"><title>Node11&#45;&gt;Node12</title>
<path fill="none" stroke="midnightblue" d="M313.049,-112.083C313.049,-105.006 313.049,-94.8611 313.049,-85.9865"/>
<polygon fill="midnightblue" stroke="midnightblue" points="316.549,-85.751 313.049,-75.7511 309.549,-85.7511 316.549,-85.751"/>
</g>
<!-- Node12&#45;&gt;Node6 -->
<g id="edge16" class="edge"><title>Node12&#45;&gt;Node6</title>
<path fill="none" stroke="midnightblue" d="M297.786,-56.324C282.828,-47.8215 259.794,-34.7288 242.322,-24.7975"/>
<polygon fill="midnightblue" stroke="midnightblue" points="243.698,-21.5534 233.275,-19.6545 240.239,-27.639 243.698,-21.5534"/>
</g>
<!-- Node12&#45;&gt;Node8 -->
<g id="edge15" class="edge"><title>Node12&#45;&gt;Node8</title>
<path fill="none" stroke="midnightblue" d="M339.511,-56.4435C367.727,-47.3196 412.59,-32.8133 444.018,-22.6509"/>
<polygon fill="midnightblue" stroke="midnightblue" points="445.273,-25.9234 453.711,-19.5164 443.119,-19.263 445.273,-25.9234"/>
</g>
<!-- Node13&#45;&gt;Node4 -->
<g id="edge19" class="edge"><title>Node13&#45;&gt;Node4</title>
<path fill="none" stroke="midnightblue" d="M200.927,-112.324C191.523,-104.263 177.305,-92.0765 165.98,-82.3695"/>
<polygon fill="midnightblue" stroke="midnightblue" points="168.226,-79.6844 158.355,-75.8339 163.67,-84.9993 168.226,-79.6844"/>
</g>
<!-- Node13&#45;&gt;Node12 -->
<g id="edge20" class="edge"><title>Node13&#45;&gt;Node12</title>
<path fill="none" stroke="midnightblue" d="M227.437,-112.324C243.72,-103.703 268.917,-90.3643 287.765,-80.3855"/>
<polygon fill="midnightblue" stroke="midnightblue" points="289.501,-83.4267 296.702,-75.6545 286.226,-77.2402 289.501,-83.4267"/>
</g>
<!-- Node14&#45;&gt;Node9 -->
<g id="edge30" class="edge"><title>Node14&#45;&gt;Node9</title>
<path fill="none" stroke="midnightblue" d="M614.964,-168.444C589.504,-159.399 549.155,-145.064 520.59,-134.916"/>
<polygon fill="midnightblue" stroke="midnightblue" points="521.616,-131.566 511.021,-131.516 519.273,-138.162 521.616,-131.566"/>
</g>
<!-- Node14&#45;&gt;Node12 -->
<g id="edge31" class="edge"><title>Node14&#45;&gt;Node12</title>
<path fill="none" stroke="midnightblue" d="M591.82,-169.417C551.551,-162.186 492.503,-149.754 443.049,-132 404.09,-118.014 361.68,-95.2622 336.239,-80.7216"/>
<polygon fill="midnightblue" stroke="midnightblue" points="337.771,-77.5642 327.362,-75.5863 334.266,-83.6234 337.771,-77.5642"/>
</g>
<!-- Node15 -->
<g id="node15" class="node"><title>Node15</title>
<polygon fill="white" stroke="#bfbfbf" points="617.049,-112.5 617.049,-131.5 661.049,-131.5 661.049,-112.5 617.049,-112.5"/>
<text text-anchor="middle" x="639.049" y="-119.5" font-family="Helvetica,sans-Serif" font-size="10.00">vector</text>
</g>
<!-- Node14&#45;&gt;Node15 -->
<g id="edge22" class="edge"><title>Node14&#45;&gt;Node15</title>
<path fill="none" stroke="midnightblue" d="M639.049,-168.083C639.049,-161.006 639.049,-150.861 639.049,-141.986"/>
<polygon fill="midnightblue" stroke="midnightblue" points="642.549,-141.751 639.049,-131.751 635.549,-141.751 642.549,-141.751"/>
</g>
<!-- Node16 -->
<g id="node16" class="node"><title>Node16</title>
<polygon fill="white" stroke="#bfbfbf" points="679.049,-112.5 679.049,-131.5 709.049,-131.5 709.049,-112.5 679.049,-112.5"/>
<text text-anchor="middle" x="694.049" y="-119.5" font-family="Helvetica,sans-Serif" font-size="10.00">set</text>
</g>
<!-- Node14&#45;&gt;Node16 -->
<g id="edge23" class="edge"><title>Node14&#45;&gt;Node16</title>
<path fill="none" stroke="midnightblue" d="M648.131,-168.083C656.22,-160.141 668.244,-148.335 677.959,-138.797"/>
<polygon fill="midnightblue" stroke="midnightblue" points="680.452,-141.254 685.136,-131.751 675.548,-136.26 680.452,-141.254"/>
</g>
<!-- Node17 -->
<g id="node17" class="node"><title>Node17</title>
<polygon fill="white" stroke="#bfbfbf" points="727.049,-112.5 727.049,-131.5 779.049,-131.5 779.049,-112.5 727.049,-112.5"/>
<text text-anchor="middle" x="753.049" y="-119.5" font-family="Helvetica,sans-Serif" font-size="10.00">memory</text>
</g>
<!-- Node14&#45;&gt;Node17 -->
<g id="edge24" class="edge"><title>Node14&#45;&gt;Node17</title>
<path fill="none" stroke="midnightblue" d="M657.113,-168.444C675.624,-159.675 704.63,-145.935 725.905,-135.858"/>
<polygon fill="midnightblue" stroke="midnightblue" points="727.531,-138.96 735.07,-131.516 724.534,-132.634 727.531,-138.96"/>
</g>
<!-- Node18 -->
<g id="node18" class="node"><title>Node18</title>
<polygon fill="white" stroke="#bfbfbf" points="539.549,-112.5 539.549,-131.5 598.549,-131.5 598.549,-112.5 539.549,-112.5"/>
<text text-anchor="middle" x="569.049" y="-119.5" font-family="Helvetica,sans-Serif" font-size="10.00">functional</text>
</g>
<!-- Node14&#45;&gt;Node18 -->
<g id="edge25" class="edge"><title>Node14&#45;&gt;Node18</title>
<path fill="none" stroke="midnightblue" d="M627.802,-168.324C617.252,-160.185 601.248,-147.839 588.607,-138.087"/>
<polygon fill="midnightblue" stroke="midnightblue" points="590.556,-135.171 580.5,-131.834 586.28,-140.713 590.556,-135.171"/>
</g>
<!-- Node19 -->
<g id="node19" class="node"><title>Node19</title>
<g id="a_node19"><a xlink:href="_color_8hpp.html" target="_top" xlink:title="Classe Color. ">
<polygon fill="white" stroke="black" points="94.5491,-112.5 94.5491,-131.5 153.549,-131.5 153.549,-112.5 94.5491,-112.5"/>
<text text-anchor="middle" x="124.049" y="-119.5" font-family="Helvetica,sans-Serif" font-size="10.00">Color.hpp</text>
</a>
</g>
</g>
<!-- Node14&#45;&gt;Node19 -->
<g id="edge26" class="edge"><title>Node14&#45;&gt;Node19</title>
<path fill="none" stroke="midnightblue" d="M591.83,-174.615C507.777,-169.918 326.571,-157.755 163.967,-131.929"/>
<polygon fill="midnightblue" stroke="midnightblue" points="164.209,-128.422 153.779,-130.288 163.096,-135.333 164.209,-128.422"/>
</g>
<!-- Node19&#45;&gt;Node4 -->
<g id="edge28" class="edge"><title>Node19&#45;&gt;Node4</title>
<path fill="none" stroke="midnightblue" d="M128.012,-112.083C131.262,-104.77 135.968,-94.1814 140.003,-85.1034"/>
<polygon fill="midnightblue" stroke="midnightblue" points="143.297,-86.3107 144.16,-75.7511 136.9,-83.4677 143.297,-86.3107"/>
</g>
<!-- Node19&#45;&gt;Node6 -->
<g id="edge29" class="edge"><title>Node19&#45;&gt;Node6</title>
<path fill="none" stroke="midnightblue" d="M120.028,-112.188C114.607,-98.8664 106.85,-73.3203 118.049,-56 128.428,-39.9479 146.049,-29.5651 163.634,-22.8738"/>
<polygon fill="midnightblue" stroke="midnightblue" points="165.04,-26.0913 173.353,-19.5236 162.758,-19.4734 165.04,-26.0913"/>
</g>
<!-- Node20 -->
<g id="node20" class="node"><title>Node20</title>
<polygon fill="white" stroke="#bfbfbf" points="187.049,-56.5 187.049,-75.5 233.049,-75.5 233.049,-56.5 187.049,-56.5"/>
<text text-anchor="middle" x="210.049" y="-63.5" font-family="Helvetica,sans-Serif" font-size="10.00">cstdint</text>
</g>
<!-- Node19&#45;&gt;Node20 -->
<g id="edge27" class="edge"><title>Node19&#45;&gt;Node20</title>
<path fill="none" stroke="midnightblue" d="M137.866,-112.324C151.282,-103.9 171.873,-90.9709 187.635,-81.0741"/>
<polygon fill="midnightblue" stroke="midnightblue" points="189.658,-83.9364 196.266,-75.6545 185.936,-78.0081 189.658,-83.9364"/>
</g>
<!-- Node33 -->
<g id="node33" class="node"><title>Node33</title>
<g id="a_node33"><a xlink:href="_widget_8hpp.html" target="_top" xlink:title="Widget.hpp">
<polygon fill="white" stroke="black" points="935.049,-280.5 935.049,-299.5 1001.05,-299.5 1001.05,-280.5 935.049,-280.5"/>
<text text-anchor="middle" x="968.049" y="-287.5" font-family="Helvetica,sans-Serif" font-size="10.00">Widget.hpp</text>
</a>
</g>
</g>
<!-- Node32&#45;&gt;Node33 -->
<g id="edge44" class="edge"><title>Node32&#45;&gt;Node33</title>
<path fill="none" stroke="midnightblue" d="M868.747,-336.444C887.994,-327.636 918.202,-313.812 940.249,-303.722"/>
<polygon fill="midnightblue" stroke="midnightblue" points="941.802,-306.86 949.439,-299.516 938.89,-300.495 941.802,-306.86"/>
</g>
<!-- Node37 -->
<g id="node37" class="node"><title>Node37</title>
<g id="a_node37"><a xlink:href="_graphics_rectangle_8hpp.html" target="_top" xlink:title="GraphicsRectangle.hpp">
<polygon fill="white" stroke="black" points="790.549,-224.5 790.549,-243.5 909.549,-243.5 909.549,-224.5 790.549,-224.5"/>
<text text-anchor="middle" x="850.049" y="-231.5" font-family="Helvetica,sans-Serif" font-size="10.00">GraphicsRectangle.hpp</text>
</a>
</g>
</g>
<!-- Node32&#45;&gt;Node37 -->
<g id="edge51" class="edge"><title>Node32&#45;&gt;Node37</title>
<path fill="none" stroke="midnightblue" d="M850.049,-336.368C850.049,-318.617 850.049,-277.666 850.049,-253.597"/>
<polygon fill="midnightblue" stroke="midnightblue" points="853.549,-253.591 850.049,-243.591 846.549,-253.591 853.549,-253.591"/>
</g>
<!-- Node38 -->
<g id="node38" class="node"><title>Node38</title>
<g id="a_node38"><a xlink:href="_graphics_text_8hpp.html" target="_top" xlink:title="Classe GraphicsText. ">
<polygon fill="white" stroke="black" points="723.049,-280.5 723.049,-299.5 817.049,-299.5 817.049,-280.5 723.049,-280.5"/>
<text text-anchor="middle" x="770.049" y="-287.5" font-family="Helvetica,sans-Serif" font-size="10.00">GraphicsText.hpp</text>
</a>
</g>
</g>
<!-- Node32&#45;&gt;Node38 -->
<g id="edge52" class="edge"><title>Node32&#45;&gt;Node38</title>
<path fill="none" stroke="midnightblue" d="M837.196,-336.324C824.833,-327.979 805.919,-315.212 791.312,-305.352"/>
<polygon fill="midnightblue" stroke="midnightblue" points="793.117,-302.348 782.871,-299.655 789.201,-308.15 793.117,-302.348"/>
</g>
<!-- Node39 -->
<g id="node39" class="node"><title>Node39</title>
<g id="a_node39"><a xlink:href="_graphics_line_8hpp.html" target="_top" xlink:title="GraphicsLine.hpp">
<polygon fill="white" stroke="black" points="604.049,-280.5 604.049,-299.5 696.049,-299.5 696.049,-280.5 604.049,-280.5"/>
<text text-anchor="middle" x="650.049" y="-287.5" font-family="Helvetica,sans-Serif" font-size="10.00">GraphicsLine.hpp</text>
</a>
</g>
</g>
<!-- Node32&#45;&gt;Node39 -->
<g id="edge55" class="edge"><title>Node32&#45;&gt;Node39</title>
<path fill="none" stroke="midnightblue" d="M818.358,-336.444C783.981,-327.162 728.972,-312.309 691.26,-302.127"/>
<polygon fill="midnightblue" stroke="midnightblue" points="692.158,-298.744 681.591,-299.516 690.333,-305.502 692.158,-298.744"/>
</g>
<!-- Node34 -->
<g id="node34" class="node"><title>Node34</title>
<polygon fill="white" stroke="#bfbfbf" points="841.049,-168.5 841.049,-187.5 885.049,-187.5 885.049,-168.5 841.049,-168.5"/>
<text text-anchor="middle" x="863.049" y="-175.5" font-family="Helvetica,sans-Serif" font-size="10.00">cmath</text>
</g>
<!-- Node33&#45;&gt;Node34 -->
<g id="edge45" class="edge"><title>Node33&#45;&gt;Node34</title>
<path fill="none" stroke="midnightblue" d="M982.799,-280.389C1002.22,-267.955 1032.22,-244.241 1017.05,-224 1002.45,-204.522 935.997,-190.665 895.304,-183.832"/>
<polygon fill="midnightblue" stroke="midnightblue" points="895.746,-180.358 885.314,-182.209 894.623,-187.268 895.746,-180.358"/>
</g>
<!-- Node35 -->
<g id="node35" class="node"><title>Node35</title>
<polygon fill="white" stroke="#bfbfbf" points="1064.55,-224.5 1064.55,-243.5 1191.55,-243.5 1191.55,-224.5 1064.55,-224.5"/>
<text text-anchor="middle" x="1128.05" y="-231.5" font-family="Helvetica,sans-Serif" font-size="10.00">boost/signals2/signal.hpp</text>
</g>
<!-- Node33&#45;&gt;Node35 -->
<g id="edge46" class="edge"><title>Node33&#45;&gt;Node35</title>
<path fill="none" stroke="midnightblue" d="M993.402,-280.444C1020.32,-271.359 1063.05,-256.939 1093.14,-246.783"/>
<polygon fill="midnightblue" stroke="midnightblue" points="1094.46,-250.031 1102.82,-243.516 1092.22,-243.398 1094.46,-250.031"/>
</g>
<!-- Node36 -->
<g id="node36" class="node"><title>Node36</title>
<polygon fill="white" stroke="#bfbfbf" points="928.049,-224.5 928.049,-243.5 1008.05,-243.5 1008.05,-224.5 928.049,-224.5"/>
<text text-anchor="middle" x="968.049" y="-231.5" font-family="Helvetica,sans-Serif" font-size="10.00">boost/bind.hpp</text>
</g>
<!-- Node33&#45;&gt;Node36 -->
<g id="edge47" class="edge"><title>Node33&#45;&gt;Node36</title>
<path fill="none" stroke="midnightblue" d="M968.049,-280.083C968.049,-273.006 968.049,-262.861 968.049,-253.986"/>
<polygon fill="midnightblue" stroke="midnightblue" points="971.549,-253.751 968.049,-243.751 964.549,-253.751 971.549,-253.751"/>
</g>
<!-- Node33&#45;&gt;Node37 -->
<g id="edge48" class="edge"><title>Node33&#45;&gt;Node37</title>
<path fill="none" stroke="midnightblue" d="M949.352,-280.444C930.105,-271.636 899.897,-257.812 877.849,-247.722"/>
<polygon fill="midnightblue" stroke="midnightblue" points="879.209,-244.495 868.659,-243.516 876.296,-250.86 879.209,-244.495"/>
</g>
<!-- Node37&#45;&gt;Node14 -->
<g id="edge50" class="edge"><title>Node37&#45;&gt;Node14</title>
<path fill="none" stroke="midnightblue" d="M816.616,-224.444C780.193,-215.122 721.819,-200.183 682.02,-189.997"/>
<polygon fill="midnightblue" stroke="midnightblue" points="682.882,-186.605 672.326,-187.516 681.146,-193.387 682.882,-186.605"/>
</g>
<!-- Node37&#45;&gt;Node34 -->
<g id="edge49" class="edge"><title>Node37&#45;&gt;Node34</title>
<path fill="none" stroke="midnightblue" d="M852.196,-224.083C853.918,-216.927 856.396,-206.635 858.549,-197.691"/>
<polygon fill="midnightblue" stroke="midnightblue" points="862.005,-198.293 860.942,-187.751 855.199,-196.654 862.005,-198.293"/>
</g>
<!-- Node38&#45;&gt;Node10 -->
<g id="edge54" class="edge"><title>Node38&#45;&gt;Node10</title>
<path fill="none" stroke="midnightblue" d="M771.664,-280.257C777.822,-246.384 798.95,-125.029 788.049,-112 761.329,-80.0629 638.344,-70.7636 574.999,-68.0775"/>
<polygon fill="midnightblue" stroke="midnightblue" points="574.763,-64.5657 564.634,-67.6746 574.491,-71.5605 574.763,-64.5657"/>
</g>
<!-- Node38&#45;&gt;Node14 -->
<g id="edge53" class="edge"><title>Node38&#45;&gt;Node14</title>
<path fill="none" stroke="midnightblue" d="M761.947,-280.097C749.916,-267.098 726.345,-242.463 704.049,-224 690.609,-212.87 674.486,-201.696 661.661,-193.267"/>
<polygon fill="midnightblue" stroke="midnightblue" points="663.286,-190.15 652.99,-187.654 659.482,-196.026 663.286,-190.15"/>
</g>
<!-- Node40 -->
<g id="node40" class="node"><title>Node40</title>
<g id="a_node40"><a xlink:href="_graphics_shape_8hpp.html" target="_top" xlink:title="Classe GraphicsShape. ">
<polygon fill="white" stroke="black" points="594.049,-224.5 594.049,-243.5 696.049,-243.5 696.049,-224.5 594.049,-224.5"/>
<text text-anchor="middle" x="645.049" y="-231.5" font-family="Helvetica,sans-Serif" font-size="10.00">GraphicsShape.hpp</text>
</a>
</g>
</g>
<!-- Node39&#45;&gt;Node40 -->
<g id="edge56" class="edge"><title>Node39&#45;&gt;Node40</title>
<path fill="none" stroke="midnightblue" d="M649.223,-280.083C648.568,-273.006 647.629,-262.861 646.807,-253.986"/>
<polygon fill="midnightblue" stroke="midnightblue" points="650.267,-253.386 645.859,-243.751 643.296,-254.031 650.267,-253.386"/>
</g>
<!-- Node40&#45;&gt;Node14 -->
<g id="edge57" class="edge"><title>Node40&#45;&gt;Node14</title>
<path fill="none" stroke="midnightblue" d="M644.058,-224.083C643.263,-216.927 642.12,-206.635 641.126,-197.691"/>
<polygon fill="midnightblue" stroke="midnightblue" points="644.604,-197.303 640.021,-187.751 637.647,-198.076 644.604,-197.303"/>
</g>
<!-- Node42 -->
<g id="node42" class="node"><title>Node42</title>
<g id="a_node42"><a xlink:href="_label_8hpp.html" target="_top" xlink:title="Label.hpp">
<polygon fill="white" stroke="black" points="938.549,-336.5 938.549,-355.5 997.549,-355.5 997.549,-336.5 938.549,-336.5"/>
<text text-anchor="middle" x="968.049" y="-343.5" font-family="Helvetica,sans-Serif" font-size="10.00">Label.hpp</text>
</a>
</g>
</g>
<!-- Node41&#45;&gt;Node42 -->
<g id="edge59" class="edge"><title>Node41&#45;&gt;Node42</title>
<path fill="none" stroke="midnightblue" d="M1050.29,-398.403C1034.68,-388.646 1008.99,-372.585 990.467,-361.011"/>
<polygon fill="midnightblue" stroke="midnightblue" points="992.113,-357.913 981.778,-355.581 988.403,-363.849 992.113,-357.913"/>
</g>
<!-- Node42&#45;&gt;Node33 -->
<g id="edge60" class="edge"><title>Node42&#45;&gt;Node33</title>
<path fill="none" stroke="midnightblue" d="M968.049,-336.083C968.049,-329.006 968.049,-318.861 968.049,-309.986"/>
<polygon fill="midnightblue" stroke="midnightblue" points="971.549,-309.751 968.049,-299.751 964.549,-309.751 971.549,-309.751"/>
</g>
<!-- Node42&#45;&gt;Node38 -->
<g id="edge61" class="edge"><title>Node42&#45;&gt;Node38</title>
<path fill="none" stroke="midnightblue" d="M938.406,-336.916C904.637,-327.706 849.229,-312.595 811.265,-302.241"/>
<polygon fill="midnightblue" stroke="midnightblue" points="812.102,-298.841 801.533,-299.587 810.26,-305.594 812.102,-298.841"/>
</g>
</g>
</svg>
