<?xml version="1.0" encoding="UTF-8" standalone="no"?>
<!DOCTYPE svg PUBLIC "-//W3C//DTD SVG 1.1//EN"
 "http://www.w3.org/Graphics/SVG/1.1/DTD/svg11.dtd">
<!-- Generated by graphviz version 2.36.0 (20140111.2315)
 -->
<!-- Title: MouseEvent.hpp Pages: 1 -->
<svg width="712pt" height="196pt"
 viewBox="0.00 0.00 712.00 196.00" xmlns="http://www.w3.org/2000/svg" xmlns:xlink="http://www.w3.org/1999/xlink">
<g id="graph0" class="graph" transform="scale(1 1) rotate(0) translate(4 192)">
<title>MouseEvent.hpp</title>
<polygon fill="white" stroke="none" points="-4,4 -4,-192 708,-192 708,4 -4,4"/>
<!-- Node1 -->
<g id="node1" class="node"><title>Node1</title>
<polygon fill="#bfbfbf" stroke="black" points="304,-168.5 304,-187.5 394,-187.5 394,-168.5 304,-168.5"/>
<text text-anchor="middle" x="349" y="-175.5" font-family="Helvetica,sans-Serif" font-size="10.00">MouseEvent.hpp</text>
</g>
<!-- Node2 -->
<g id="node2" class="node"><title>Node2</title>
<g id="a_node2"><a xlink:href="_toy_8hpp_source.html" target="_top" xlink:title="Toy.hpp">
<polygon fill="white" stroke="black" points="27,-112.5 27,-131.5 79,-131.5 79,-112.5 27,-112.5"/>
<text text-anchor="middle" x="53" y="-119.5" font-family="Helvetica,sans-Serif" font-size="10.00">Toy.hpp</text>
</a>
</g>
</g>
<!-- Node1&#45;&gt;Node2 -->
<g id="edge1" class="edge"><title>Node1&#45;&gt;Node2</title>
<path fill="none" stroke="midnightblue" d="M293.791,-168.811C240.792,-160.636 158.6,-147.137 88,-132 85.1781,-131.395 82.2402,-130.717 79.3192,-130.011"/>
<polygon fill="midnightblue" stroke="midnightblue" points="293.575,-172.318 303.99,-170.373 294.635,-165.399 293.575,-172.318"/>
</g>
<!-- Node4 -->
<g id="node4" class="node"><title>Node4</title>
<g id="a_node4"><a xlink:href="_config_polygon_8cpp_source.html" target="_top" xlink:title="ConfigPolygon.cpp">
<polygon fill="white" stroke="black" points="97.5,-112.5 97.5,-131.5 196.5,-131.5 196.5,-112.5 97.5,-112.5"/>
<text text-anchor="middle" x="147" y="-119.5" font-family="Helvetica,sans-Serif" font-size="10.00">ConfigPolygon.cpp</text>
</a>
</g>
</g>
<!-- Node1&#45;&gt;Node4 -->
<g id="edge3" class="edge"><title>Node1&#45;&gt;Node4</title>
<path fill="none" stroke="midnightblue" d="M307.212,-165.829C269.073,-155.633 213.519,-140.782 178.858,-131.516"/>
<polygon fill="midnightblue" stroke="midnightblue" points="306.428,-169.242 316.992,-168.444 308.236,-162.48 306.428,-169.242"/>
</g>
<!-- Node5 -->
<g id="node5" class="node"><title>Node5</title>
<g id="a_node5"><a xlink:href="_window_8hpp_source.html" target="_top" xlink:title="Window.hpp">
<polygon fill="white" stroke="black" points="214.5,-112.5 214.5,-131.5 285.5,-131.5 285.5,-112.5 214.5,-112.5"/>
<text text-anchor="middle" x="250" y="-119.5" font-family="Helvetica,sans-Serif" font-size="10.00">Window.hpp</text>
</a>
</g>
</g>
<!-- Node1&#45;&gt;Node5 -->
<g id="edge4" class="edge"><title>Node1&#45;&gt;Node5</title>
<path fill="none" stroke="midnightblue" d="M324.163,-163.453C305.886,-153.483 281.584,-140.228 265.867,-131.655"/>
<polygon fill="midnightblue" stroke="midnightblue" points="322.639,-166.608 333.094,-168.324 325.991,-160.463 322.639,-166.608"/>
</g>
<!-- Node10 -->
<g id="node10" class="node"><title>Node10</title>
<g id="a_node10"><a xlink:href="_mouse_event_8cpp_source.html" target="_top" xlink:title="MouseEvent.cpp">
<polygon fill="white" stroke="black" points="304,-112.5 304,-131.5 394,-131.5 394,-112.5 304,-112.5"/>
<text text-anchor="middle" x="349" y="-119.5" font-family="Helvetica,sans-Serif" font-size="10.00">MouseEvent.cpp</text>
</a>
</g>
</g>
<!-- Node1&#45;&gt;Node10 -->
<g id="edge9" class="edge"><title>Node1&#45;&gt;Node10</title>
<path fill="none" stroke="midnightblue" d="M349,-157.805C349,-148.91 349,-138.78 349,-131.751"/>
<polygon fill="midnightblue" stroke="midnightblue" points="345.5,-158.083 349,-168.083 352.5,-158.083 345.5,-158.083"/>
</g>
<!-- Node11 -->
<g id="node11" class="node"><title>Node11</title>
<g id="a_node11"><a xlink:href="_graphics_item_8cpp_source.html" target="_top" xlink:title="GraphicsItem.cpp">
<polygon fill="white" stroke="black" points="412,-112.5 412,-131.5 506,-131.5 506,-112.5 412,-112.5"/>
<text text-anchor="middle" x="459" y="-119.5" font-family="Helvetica,sans-Serif" font-size="10.00">GraphicsItem.cpp</text>
</a>
</g>
</g>
<!-- Node1&#45;&gt;Node11 -->
<g id="edge10" class="edge"><title>Node1&#45;&gt;Node11</title>
<path fill="none" stroke="midnightblue" d="M375.762,-163.862C396.159,-153.849 423.666,-140.346 441.37,-131.655"/>
<polygon fill="midnightblue" stroke="midnightblue" points="374.108,-160.775 366.673,-168.324 377.192,-167.059 374.108,-160.775"/>
</g>
<!-- Node12 -->
<g id="node12" class="node"><title>Node12</title>
<g id="a_node12"><a xlink:href="_graphics_point_8cpp_source.html" target="_top" xlink:title="GraphicsPoint.cpp">
<polygon fill="white" stroke="black" points="524.5,-112.5 524.5,-131.5 621.5,-131.5 621.5,-112.5 524.5,-112.5"/>
<text text-anchor="middle" x="573" y="-119.5" font-family="Helvetica,sans-Serif" font-size="10.00">GraphicsPoint.cpp</text>
</a>
</g>
</g>
<!-- Node1&#45;&gt;Node12 -->
<g id="edge11" class="edge"><title>Node1&#45;&gt;Node12</title>
<path fill="none" stroke="midnightblue" d="M394.263,-166.088C436.582,-155.887 498.909,-140.861 537.673,-131.516"/>
<polygon fill="midnightblue" stroke="midnightblue" points="393.395,-162.697 384.493,-168.444 395.035,-169.502 393.395,-162.697"/>
</g>
<!-- Node13 -->
<g id="node13" class="node"><title>Node13</title>
<g id="a_node13"><a xlink:href="_button_8cpp_source.html" target="_top" xlink:title="Button.cpp">
<polygon fill="white" stroke="black" points="640,-112.5 640,-131.5 704,-131.5 704,-112.5 640,-112.5"/>
<text text-anchor="middle" x="672" y="-119.5" font-family="Helvetica,sans-Serif" font-size="10.00">Button.cpp</text>
</a>
</g>
</g>
<!-- Node1&#45;&gt;Node13 -->
<g id="edge12" class="edge"><title>Node1&#45;&gt;Node13</title>
<path fill="none" stroke="midnightblue" d="M404.587,-168.975C461.382,-160.569 552.05,-146.583 630,-132 633.225,-131.397 636.582,-130.735 639.931,-130.052"/>
<polygon fill="midnightblue" stroke="midnightblue" points="403.77,-165.557 394.388,-170.478 404.791,-172.482 403.77,-165.557"/>
</g>
<!-- Node3 -->
<g id="node3" class="node"><title>Node3</title>
<g id="a_node3"><a xlink:href="_graphics_factory_8cpp_source.html" target="_top" xlink:title="GraphicsFactory.cpp">
<polygon fill="white" stroke="black" points="-0.5,-56.5 -0.5,-75.5 106.5,-75.5 106.5,-56.5 -0.5,-56.5"/>
<text text-anchor="middle" x="53" y="-63.5" font-family="Helvetica,sans-Serif" font-size="10.00">GraphicsFactory.cpp</text>
</a>
</g>
</g>
<!-- Node2&#45;&gt;Node3 -->
<g id="edge2" class="edge"><title>Node2&#45;&gt;Node3</title>
<path fill="none" stroke="midnightblue" d="M53,-101.805C53,-92.9102 53,-82.7798 53,-75.7511"/>
<polygon fill="midnightblue" stroke="midnightblue" points="49.5001,-102.083 53,-112.083 56.5001,-102.083 49.5001,-102.083"/>
</g>
<!-- Node6 -->
<g id="node6" class="node"><title>Node6</title>
<g id="a_node6"><a xlink:href="_main_window_8hpp_source.html" target="_top" xlink:title="MainWindow.hpp">
<polygon fill="white" stroke="black" points="164,-56.5 164,-75.5 256,-75.5 256,-56.5 164,-56.5"/>
<text text-anchor="middle" x="210" y="-63.5" font-family="Helvetica,sans-Serif" font-size="10.00">MainWindow.hpp</text>
</a>
</g>
</g>
<!-- Node5&#45;&gt;Node6 -->
<g id="edge5" class="edge"><title>Node5&#45;&gt;Node6</title>
<path fill="none" stroke="midnightblue" d="M237.3,-103.855C230.374,-94.5048 222.094,-83.3265 216.482,-75.7511"/>
<polygon fill="midnightblue" stroke="midnightblue" points="234.63,-106.131 243.395,-112.083 240.255,-101.964 234.63,-106.131"/>
</g>
<!-- Node9 -->
<g id="node9" class="node"><title>Node9</title>
<g id="a_node9"><a xlink:href="_window_8cpp_source.html" target="_top" xlink:title="Window.cpp">
<polygon fill="white" stroke="black" points="274.5,-56.5 274.5,-75.5 345.5,-75.5 345.5,-56.5 274.5,-56.5"/>
<text text-anchor="middle" x="310" y="-63.5" font-family="Helvetica,sans-Serif" font-size="10.00">Window.cpp</text>
</a>
</g>
</g>
<!-- Node5&#45;&gt;Node9 -->
<g id="edge8" class="edge"><title>Node5&#45;&gt;Node9</title>
<path fill="none" stroke="midnightblue" d="M267.181,-105.537C277.879,-95.9087 291.256,-83.8694 300.185,-75.8339"/>
<polygon fill="midnightblue" stroke="midnightblue" points="264.732,-103.033 259.64,-112.324 269.414,-108.236 264.732,-103.033"/>
</g>
<!-- Node7 -->
<g id="node7" class="node"><title>Node7</title>
<g id="a_node7"><a xlink:href="main_8cpp_source.html" target="_top" xlink:title="main.cpp">
<polygon fill="white" stroke="black" points="136,-0.5 136,-19.5 192,-19.5 192,-0.5 136,-0.5"/>
<text text-anchor="middle" x="164" y="-7.5" font-family="Helvetica,sans-Serif" font-size="10.00">main.cpp</text>
</a>
</g>
</g>
<!-- Node6&#45;&gt;Node7 -->
<g id="edge6" class="edge"><title>Node6&#45;&gt;Node7</title>
<path fill="none" stroke="midnightblue" d="M195.886,-48.4314C187.824,-38.9673 178.041,-27.4827 171.455,-19.7511"/>
<polygon fill="midnightblue" stroke="midnightblue" points="193.255,-50.7402 202.404,-56.083 198.584,-46.2009 193.255,-50.7402"/>
</g>
<!-- Node8 -->
<g id="node8" class="node"><title>Node8</title>
<g id="a_node8"><a xlink:href="_main_window_8cpp_source.html" target="_top" xlink:title="MainWindow.cpp">
<polygon fill="white" stroke="black" points="210,-0.5 210,-19.5 302,-19.5 302,-0.5 210,-0.5"/>
<text text-anchor="middle" x="256" y="-7.5" font-family="Helvetica,sans-Serif" font-size="10.00">MainWindow.cpp</text>
</a>
</g>
</g>
<!-- Node6&#45;&gt;Node8 -->
<g id="edge7" class="edge"><title>Node6&#45;&gt;Node8</title>
<path fill="none" stroke="midnightblue" d="M224.114,-48.4314C232.176,-38.9673 241.959,-27.4827 248.545,-19.7511"/>
<polygon fill="midnightblue" stroke="midnightblue" points="221.416,-46.2009 217.596,-56.083 226.745,-50.7402 221.416,-46.2009"/>
</g>
</g>
</svg>
