<?xml version="1.0" encoding="UTF-8" standalone="no"?>
<!DOCTYPE svg PUBLIC "-//W3C//DTD SVG 1.1//EN"
 "http://www.w3.org/Graphics/SVG/1.1/DTD/svg11.dtd">
<!-- Generated by graphviz version 2.36.0 (20140111.2315)
 -->
<!-- Title: MouseEvent.hpp Pages: 1 -->
<svg width="671pt" height="140pt"
 viewBox="0.00 0.00 671.00 140.00" xmlns="http://www.w3.org/2000/svg" xmlns:xlink="http://www.w3.org/1999/xlink">
<g id="graph0" class="graph" transform="scale(1 1) rotate(0) translate(4 136)">
<title>MouseEvent.hpp</title>
<polygon fill="white" stroke="none" points="-4,4 -4,-136 667,-136 667,4 -4,4"/>
<!-- Node1 -->
<g id="node1" class="node"><title>Node1</title>
<polygon fill="#bfbfbf" stroke="black" points="228,-112.5 228,-131.5 318,-131.5 318,-112.5 228,-112.5"/>
<text text-anchor="middle" x="273" y="-119.5" font-family="Helvetica,sans-Serif" font-size="10.00">MouseEvent.hpp</text>
</g>
<!-- Node2 -->
<g id="node2" class="node"><title>Node2</title>
<g id="a_node2"><a xlink:href="_event_8hpp.html" target="_top" xlink:title="Classe Event. ">
<polygon fill="white" stroke="black" points="122.5,-56.5 122.5,-75.5 183.5,-75.5 183.5,-56.5 122.5,-56.5"/>
<text text-anchor="middle" x="153" y="-63.5" font-family="Helvetica,sans-Serif" font-size="10.00">Event.hpp</text>
</a>
</g>
</g>
<!-- Node1&#45;&gt;Node2 -->
<g id="edge1" class="edge"><title>Node1&#45;&gt;Node2</title>
<path fill="none" stroke="midnightblue" d="M253.986,-112.444C234.412,-103.636 203.692,-89.8116 181.271,-79.722"/>
<polygon fill="midnightblue" stroke="midnightblue" points="182.481,-76.4284 171.925,-75.5164 179.608,-82.8119 182.481,-76.4284"/>
</g>
<!-- Node5 -->
<g id="node5" class="node"><title>Node5</title>
<g id="a_node5"><a xlink:href="_point_8hpp.html" target="_top" xlink:title="Classe point. ">
<polygon fill="white" stroke="black" points="365,-56.5 365,-75.5 423,-75.5 423,-56.5 365,-56.5"/>
<text text-anchor="middle" x="394" y="-63.5" font-family="Helvetica,sans-Serif" font-size="10.00">Point.hpp</text>
</a>
</g>
</g>
<!-- Node1&#45;&gt;Node5 -->
<g id="edge4" class="edge"><title>Node1&#45;&gt;Node5</title>
<path fill="none" stroke="midnightblue" d="M292.173,-112.444C311.909,-103.636 342.885,-89.8116 365.493,-79.722"/>
<polygon fill="midnightblue" stroke="midnightblue" points="367.211,-82.788 374.917,-75.5164 364.359,-76.3957 367.211,-82.788"/>
</g>
<!-- Node3 -->
<g id="node3" class="node"><title>Node3</title>
<polygon fill="white" stroke="#bfbfbf" points="126,-0.5 126,-19.5 180,-19.5 180,-0.5 126,-0.5"/>
<text text-anchor="middle" x="153" y="-7.5" font-family="Helvetica,sans-Serif" font-size="10.00">iostream</text>
</g>
<!-- Node2&#45;&gt;Node3 -->
<g id="edge2" class="edge"><title>Node2&#45;&gt;Node3</title>
<path fill="none" stroke="midnightblue" d="M153,-56.083C153,-49.0059 153,-38.8611 153,-29.9865"/>
<polygon fill="midnightblue" stroke="midnightblue" points="156.5,-29.751 153,-19.7511 149.5,-29.7511 156.5,-29.751"/>
</g>
<!-- Node4 -->
<g id="node4" class="node"><title>Node4</title>
<polygon fill="white" stroke="#bfbfbf" points="0,-0.5 0,-19.5 108,-19.5 108,-0.5 0,-0.5"/>
<text text-anchor="middle" x="54" y="-7.5" font-family="Helvetica,sans-Serif" font-size="10.00">ez&#45;lib/ez&#45;draw++.hpp</text>
</g>
<!-- Node2&#45;&gt;Node4 -->
<g id="edge3" class="edge"><title>Node2&#45;&gt;Node4</title>
<path fill="none" stroke="midnightblue" d="M137.094,-56.324C121.362,-47.7428 97.0577,-34.486 78.7911,-24.5224"/>
<polygon fill="midnightblue" stroke="midnightblue" points="80.3216,-21.3704 69.8666,-19.6545 76.9696,-27.5157 80.3216,-21.3704"/>
</g>
<!-- Node5&#45;&gt;Node3 -->
<g id="edge7" class="edge"><title>Node5&#45;&gt;Node3</title>
<path fill="none" stroke="midnightblue" d="M364.745,-58.856C326.783,-50.823 258.249,-36.1162 190.147,-20.2191"/>
<polygon fill="midnightblue" stroke="midnightblue" points="190.641,-16.7401 180.106,-17.8657 189.044,-23.5554 190.641,-16.7401"/>
</g>
<!-- Node6 -->
<g id="node6" class="node"><title>Node6</title>
<polygon fill="white" stroke="#bfbfbf" points="198.5,-0.5 198.5,-19.5 299.5,-19.5 299.5,-0.5 198.5,-0.5"/>
<text text-anchor="middle" x="249" y="-7.5" font-family="Helvetica,sans-Serif" font-size="10.00">boost/uuid/uuid.hpp</text>
</g>
<!-- Node5&#45;&gt;Node6 -->
<g id="edge5" class="edge"><title>Node5&#45;&gt;Node6</title>
<path fill="none" stroke="midnightblue" d="M371.024,-56.4435C346.843,-47.4381 308.582,-33.1891 281.354,-23.049"/>
<polygon fill="midnightblue" stroke="midnightblue" points="282.461,-19.7265 271.868,-19.5164 280.018,-26.2864 282.461,-19.7265"/>
</g>
<!-- Node7 -->
<g id="node7" class="node"><title>Node7</title>
<polygon fill="white" stroke="#bfbfbf" points="318,-0.5 318,-19.5 470,-19.5 470,-0.5 318,-0.5"/>
<text text-anchor="middle" x="394" y="-7.5" font-family="Helvetica,sans-Serif" font-size="10.00">boost/uuid/uuid_generators.hpp</text>
</g>
<!-- Node5&#45;&gt;Node7 -->
<g id="edge6" class="edge"><title>Node5&#45;&gt;Node7</title>
<path fill="none" stroke="midnightblue" d="M394,-56.083C394,-49.0059 394,-38.8611 394,-29.9865"/>
<polygon fill="midnightblue" stroke="midnightblue" points="397.5,-29.751 394,-19.7511 390.5,-29.7511 397.5,-29.751"/>
</g>
<!-- Node8 -->
<g id="node8" class="node"><title>Node8</title>
<polygon fill="white" stroke="#bfbfbf" points="488.5,-0.5 488.5,-19.5 523.5,-19.5 523.5,-0.5 488.5,-0.5"/>
<text text-anchor="middle" x="506" y="-7.5" font-family="Helvetica,sans-Serif" font-size="10.00">map</text>
</g>
<!-- Node5&#45;&gt;Node8 -->
<g id="edge8" class="edge"><title>Node5&#45;&gt;Node8</title>
<path fill="none" stroke="midnightblue" d="M411.995,-56.324C430.144,-47.5732 458.379,-33.9603 479.17,-23.9357"/>
<polygon fill="midnightblue" stroke="midnightblue" points="480.932,-26.9722 488.419,-19.4765 477.891,-20.6668 480.932,-26.9722"/>
</g>
<!-- Node9 -->
<g id="node9" class="node"><title>Node9</title>
<polygon fill="white" stroke="#bfbfbf" points="542,-0.5 542,-19.5 586,-19.5 586,-0.5 542,-0.5"/>
<text text-anchor="middle" x="564" y="-7.5" font-family="Helvetica,sans-Serif" font-size="10.00">vector</text>
</g>
<!-- Node5&#45;&gt;Node9 -->
<g id="edge9" class="edge"><title>Node5&#45;&gt;Node9</title>
<path fill="none" stroke="midnightblue" d="M420.937,-56.4435C451.097,-46.8634 499.938,-31.3492 532.014,-21.1604"/>
<polygon fill="midnightblue" stroke="midnightblue" points="533.323,-24.4169 541.794,-18.0537 531.204,-17.7454 533.323,-24.4169"/>
</g>
<!-- Node10 -->
<g id="node10" class="node"><title>Node10</title>
<polygon fill="white" stroke="#bfbfbf" points="604.5,-0.5 604.5,-19.5 663.5,-19.5 663.5,-0.5 604.5,-0.5"/>
<text text-anchor="middle" x="634" y="-7.5" font-family="Helvetica,sans-Serif" font-size="10.00">functional</text>
</g>
<!-- Node5&#45;&gt;Node10 -->
<g id="edge10" class="edge"><title>Node5&#45;&gt;Node10</title>
<path fill="none" stroke="midnightblue" d="M423.429,-58.3785C466.342,-48.723 546.202,-30.7546 594.286,-19.9356"/>
<polygon fill="midnightblue" stroke="midnightblue" points="595.343,-23.2855 604.331,-17.6756 593.806,-16.4562 595.343,-23.2855"/>
</g>
</g>
</svg>
