<?xml version="1.0" encoding="UTF-8" standalone="no"?>
<!DOCTYPE svg PUBLIC "-//W3C//DTD SVG 1.1//EN"
 "http://www.w3.org/Graphics/SVG/1.1/DTD/svg11.dtd">
<!-- Generated by graphviz version 2.36.0 (20140111.2315)
 -->
<!-- Title: Point.cpp Pages: 1 -->
<svg width="652pt" height="140pt"
 viewBox="0.00 0.00 652.00 140.00" xmlns="http://www.w3.org/2000/svg" xmlns:xlink="http://www.w3.org/1999/xlink">
<g id="graph0" class="graph" transform="scale(1 1) rotate(0) translate(4 136)">
<title>Point.cpp</title>
<polygon fill="white" stroke="none" points="-4,4 -4,-136 648,-136 648,4 -4,4"/>
<!-- Node1 -->
<g id="node1" class="node"><title>Node1</title>
<polygon fill="#bfbfbf" stroke="black" points="255,-112.5 255,-131.5 313,-131.5 313,-112.5 255,-112.5"/>
<text text-anchor="middle" x="284" y="-119.5" font-family="Helvetica,sans-Serif" font-size="10.00">Point.cpp</text>
</g>
<!-- Node2 -->
<g id="node2" class="node"><title>Node2</title>
<g id="a_node2"><a xlink:href="_point_8hpp.html" target="_top" xlink:title="Classe point. ">
<polygon fill="white" stroke="black" points="329.5,-56.5 329.5,-75.5 430.5,-75.5 430.5,-56.5 329.5,-56.5"/>
<text text-anchor="middle" x="380" y="-63.5" font-family="Helvetica,sans-Serif" font-size="10.00">../include/Point.hpp</text>
</a>
</g>
</g>
<!-- Node1&#45;&gt;Node2 -->
<g id="edge1" class="edge"><title>Node1&#45;&gt;Node2</title>
<path fill="none" stroke="midnightblue" d="M299.424,-112.324C314.54,-103.822 337.815,-90.7288 355.471,-80.7975"/>
<polygon fill="midnightblue" stroke="midnightblue" points="357.614,-83.6077 364.614,-75.6545 354.183,-77.5066 357.614,-83.6077"/>
</g>
<!-- Node4 -->
<g id="node4" class="node"><title>Node4</title>
<polygon fill="white" stroke="#bfbfbf" points="0,-0.5 0,-19.5 152,-19.5 152,-0.5 0,-0.5"/>
<text text-anchor="middle" x="76" y="-7.5" font-family="Helvetica,sans-Serif" font-size="10.00">boost/uuid/uuid_generators.hpp</text>
</g>
<!-- Node1&#45;&gt;Node4 -->
<g id="edge10" class="edge"><title>Node1&#45;&gt;Node4</title>
<path fill="none" stroke="midnightblue" d="M267.679,-112.368C231.53,-93.2515 144.506,-47.229 101.264,-24.361"/>
<polygon fill="midnightblue" stroke="midnightblue" points="102.722,-21.1725 92.2456,-19.5914 99.4493,-27.3604 102.722,-21.1725"/>
</g>
<!-- Node3 -->
<g id="node3" class="node"><title>Node3</title>
<polygon fill="white" stroke="#bfbfbf" points="170.5,-0.5 170.5,-19.5 271.5,-19.5 271.5,-0.5 170.5,-0.5"/>
<text text-anchor="middle" x="221" y="-7.5" font-family="Helvetica,sans-Serif" font-size="10.00">boost/uuid/uuid.hpp</text>
</g>
<!-- Node2&#45;&gt;Node3 -->
<g id="edge2" class="edge"><title>Node2&#45;&gt;Node3</title>
<path fill="none" stroke="midnightblue" d="M354.806,-56.4435C328.057,-47.3591 285.597,-32.9388 255.695,-22.7831"/>
<polygon fill="midnightblue" stroke="midnightblue" points="256.671,-19.4182 246.076,-19.5164 254.419,-26.0464 256.671,-19.4182"/>
</g>
<!-- Node2&#45;&gt;Node4 -->
<g id="edge3" class="edge"><title>Node2&#45;&gt;Node4</title>
<path fill="none" stroke="midnightblue" d="M331.83,-56.4435C278.131,-46.9049 191.314,-31.4834 133.946,-21.293"/>
<polygon fill="midnightblue" stroke="midnightblue" points="134.402,-17.8194 123.944,-19.5164 133.178,-24.7115 134.402,-17.8194"/>
</g>
<!-- Node5 -->
<g id="node5" class="node"><title>Node5</title>
<polygon fill="white" stroke="#bfbfbf" points="290,-0.5 290,-19.5 344,-19.5 344,-0.5 290,-0.5"/>
<text text-anchor="middle" x="317" y="-7.5" font-family="Helvetica,sans-Serif" font-size="10.00">iostream</text>
</g>
<!-- Node2&#45;&gt;Node5 -->
<g id="edge4" class="edge"><title>Node2&#45;&gt;Node5</title>
<path fill="none" stroke="midnightblue" d="M369.878,-56.324C360.474,-48.2631 346.256,-36.0765 334.931,-26.3695"/>
<polygon fill="midnightblue" stroke="midnightblue" points="337.177,-23.6844 327.306,-19.8339 332.621,-28.9993 337.177,-23.6844"/>
</g>
<!-- Node6 -->
<g id="node6" class="node"><title>Node6</title>
<polygon fill="white" stroke="#bfbfbf" points="362.5,-0.5 362.5,-19.5 397.5,-19.5 397.5,-0.5 362.5,-0.5"/>
<text text-anchor="middle" x="380" y="-7.5" font-family="Helvetica,sans-Serif" font-size="10.00">map</text>
</g>
<!-- Node2&#45;&gt;Node6 -->
<g id="edge5" class="edge"><title>Node2&#45;&gt;Node6</title>
<path fill="none" stroke="midnightblue" d="M380,-56.083C380,-49.0059 380,-38.8611 380,-29.9865"/>
<polygon fill="midnightblue" stroke="midnightblue" points="383.5,-29.751 380,-19.7511 376.5,-29.7511 383.5,-29.751"/>
</g>
<!-- Node7 -->
<g id="node7" class="node"><title>Node7</title>
<polygon fill="white" stroke="#bfbfbf" points="416,-0.5 416,-19.5 460,-19.5 460,-0.5 416,-0.5"/>
<text text-anchor="middle" x="438" y="-7.5" font-family="Helvetica,sans-Serif" font-size="10.00">vector</text>
</g>
<!-- Node2&#45;&gt;Node7 -->
<g id="edge6" class="edge"><title>Node2&#45;&gt;Node7</title>
<path fill="none" stroke="midnightblue" d="M389.319,-56.324C397.893,-48.3414 410.812,-36.3128 421.188,-26.6529"/>
<polygon fill="midnightblue" stroke="midnightblue" points="423.578,-29.2098 428.512,-19.8339 418.808,-24.0865 423.578,-29.2098"/>
</g>
<!-- Node8 -->
<g id="node8" class="node"><title>Node8</title>
<polygon fill="white" stroke="#bfbfbf" points="478.5,-0.5 478.5,-19.5 537.5,-19.5 537.5,-0.5 478.5,-0.5"/>
<text text-anchor="middle" x="508" y="-7.5" font-family="Helvetica,sans-Serif" font-size="10.00">functional</text>
</g>
<!-- Node2&#45;&gt;Node8 -->
<g id="edge7" class="edge"><title>Node2&#45;&gt;Node8</title>
<path fill="none" stroke="midnightblue" d="M400.282,-56.4435C421.347,-47.5566 454.517,-33.5632 478.486,-23.4514"/>
<polygon fill="midnightblue" stroke="midnightblue" points="479.96,-26.6283 487.813,-19.5164 477.239,-20.1787 479.96,-26.6283"/>
</g>
<!-- Node9 -->
<g id="node9" class="node"><title>Node9</title>
<g id="a_node9"><a xlink:href="_group_points_8hpp.html" target="_top" xlink:title="GroupPoints.hpp">
<polygon fill="white" stroke="black" points="555.5,-0.5 555.5,-19.5 644.5,-19.5 644.5,-0.5 555.5,-0.5"/>
<text text-anchor="middle" x="600" y="-7.5" font-family="Helvetica,sans-Serif" font-size="10.00">GroupPoints.hpp</text>
</a>
</g>
</g>
<!-- Node2&#45;&gt;Node9 -->
<g id="edge8" class="edge"><title>Node2&#45;&gt;Node9</title>
<path fill="none" stroke="midnightblue" d="M409.771,-56.4435C445.931,-47.0629 507.182,-31.9926 550.458,-21.8036"/>
<polygon fill="midnightblue" stroke="midnightblue" points="551.285,-25.2047 560.223,-19.5164 549.689,-18.3891 551.285,-25.2047"/>
</g>
<!-- Node9&#45;&gt;Node2 -->
<g id="edge9" class="edge"><title>Node9&#45;&gt;Node2</title>
<path fill="none" stroke="midnightblue" d="M570.383,-19.5164C534.295,-28.8809 473.054,-43.95 429.727,-54.1529"/>
<polygon fill="midnightblue" stroke="midnightblue" points="428.887,-50.7549 419.948,-56.4435 430.483,-57.5704 428.887,-50.7549"/>
</g>
</g>
</svg>
