<?xml version="1.0" encoding="UTF-8" standalone="no"?>
<!DOCTYPE svg PUBLIC "-//W3C//DTD SVG 1.1//EN"
 "http://www.w3.org/Graphics/SVG/1.1/DTD/svg11.dtd">
<!-- Generated by graphviz version 2.36.0 (20140111.2315)
 -->
<!-- Title: Point.hpp Pages: 1 -->
<!--zoomable 308 -->
<svg id="main" version="1.1" xmlns="http://www.w3.org/2000/svg" xmlns:xlink="http://www.w3.org/1999/xlink" xml:space="preserve" onload="init(evt)">
<style type="text/css"><![CDATA[
.edge:hover path { stroke: red; }
.edge:hover polygon { stroke: red; fill: red; }
]]></style>
<script type="text/javascript"><![CDATA[
var edges = document.getElementsByTagName('g');
if (edges && edges.length) {
  for (var i=0;i<edges.length;i++) {
    if (edges[i].id.substr(0,4)=='edge') {
      edges[i].setAttribute('class','edge');
    }
  }
}
]]></script>
        <defs>
                <circle id="rim" cx="0" cy="0" r="7"/>
                <circle id="rim2" cx="0" cy="0" r="3.5"/>
                <g id="zoomPlus">
                        <use xlink:href="#rim" fill="#404040">
                                <set attributeName="fill" to="#808080" begin="zoomplus.mouseover" end="zoomplus.mouseout"/>
                        </use>
                        <path d="M-4,0h8M0,-4v8" fill="none" stroke="white" stroke-width="1.5" pointer-events="none"/>
                </g>
                <g id="zoomMin">
                        <use xlink:href="#rim" fill="#404040">
                                <set attributeName="fill" to="#808080" begin="zoomminus.mouseover" end="zoomminus.mouseout"/>
                        </use>
                        <path d="M-4,0h8" fill="none" stroke="white" stroke-width="1.5" pointer-events="none"/>
                </g>
                <g id="dirArrow">
                        <path fill="none" stroke="white" stroke-width="1.5" d="M0,-3.0v7 M-2.5,-0.5L0,-3.0L2.5,-0.5"/>
                </g>
               <g id="resetDef">
                       <use xlink:href="#rim2" fill="#404040">
                               <set attributeName="fill" to="#808080" begin="reset.mouseover" end="reset.mouseout"/>
                       </use>
               </g>
        </defs>

<script type="text/javascript">
var viewWidth = 2281;
var viewHeight = 308;
var sectionId = 'dynsection-1';
</script>
<script xlink:href="svgpan.js"/>
<svg id="graph" class="graph">
<g id="viewport">
<title>Point.hpp</title>
<polygon fill="white" stroke="none" points="-4,4 -4,-304 2277,-304 2277,4 -4,4"/>
<!-- Node1 -->
<g id="node1" class="node"><title>Node1</title>
<polygon fill="#bfbfbf" stroke="black" points="2031,-280.5 2031,-299.5 2089,-299.5 2089,-280.5 2031,-280.5"/>
<text text-anchor="middle" x="2060" y="-287.5" font-family="Helvetica,sans-Serif" font-size="10.00">Point.hpp</text>
</g>
<!-- Node2 -->
<g id="node2" class="node"><title>Node2</title>
<g id="a_node2"><a xlink:href="_canvas_8hpp.html" target="_top" xlink:title="Canvas.hpp">
<polygon fill="white" stroke="black" points="1914.5,-224.5 1914.5,-243.5 1983.5,-243.5 1983.5,-224.5 1914.5,-224.5"/>
<text text-anchor="middle" x="1949" y="-231.5" font-family="Helvetica,sans-Serif" font-size="10.00">Canvas.hpp</text>
</a>
</g>
</g>
<!-- Node1&#45;&gt;Node2 -->
<g id="edge1" class="edge"><title>Node1&#45;&gt;Node2</title>
<path fill="none" stroke="midnightblue" d="M2032.99,-275.862C2012.41,-265.849 1984.66,-252.346 1966.79,-243.655"/>
<polygon fill="midnightblue" stroke="midnightblue" points="2031.64,-279.097 2042.17,-280.324 2034.7,-272.802 2031.64,-279.097"/>
</g>
<!-- Node35 -->
<g id="node35" class="node"><title>Node35</title>
<g id="a_node35"><a xlink:href="_window_8hpp.html" target="_top" xlink:title="Window.hpp">
<polygon fill="white" stroke="black" points="1995.5,-168.5 1995.5,-187.5 2066.5,-187.5 2066.5,-168.5 1995.5,-168.5"/>
<text text-anchor="middle" x="2031" y="-175.5" font-family="Helvetica,sans-Serif" font-size="10.00">Window.hpp</text>
</a>
</g>
</g>
<!-- Node1&#45;&gt;Node35 -->
<g id="edge62" class="edge"><title>Node1&#45;&gt;Node35</title>
<path fill="none" stroke="midnightblue" d="M2052.23,-270.693C2049.03,-262.619 2045.5,-252.95 2043,-244 2037.45,-224.103 2033.77,-200.051 2032.08,-187.524"/>
<polygon fill="midnightblue" stroke="midnightblue" points="2049.1,-272.271 2056.13,-280.192 2055.57,-269.612 2049.1,-272.271"/>
</g>
<!-- Node38 -->
<g id="node38" class="node"><title>Node38</title>
<g id="a_node38"><a xlink:href="_mouse_event_8hpp.html" target="_top" xlink:title="Classe MouseEvent. ">
<polygon fill="white" stroke="black" points="2052,-224.5 2052,-243.5 2142,-243.5 2142,-224.5 2052,-224.5"/>
<text text-anchor="middle" x="2097" y="-231.5" font-family="Helvetica,sans-Serif" font-size="10.00">MouseEvent.hpp</text>
</a>
</g>
</g>
<!-- Node1&#45;&gt;Node38 -->
<g id="edge63" class="edge"><title>Node1&#45;&gt;Node38</title>
<path fill="none" stroke="midnightblue" d="M2071.95,-271.566C2078.31,-262.275 2085.87,-251.248 2091,-243.751"/>
<polygon fill="midnightblue" stroke="midnightblue" points="2068.87,-269.855 2066.11,-280.083 2074.65,-273.812 2068.87,-269.855"/>
</g>
<!-- Node40 -->
<g id="node40" class="node"><title>Node40</title>
<g id="a_node40"><a xlink:href="_point_8cpp.html" target="_top" xlink:title="Point.cpp">
<polygon fill="white" stroke="black" points="2160,-224.5 2160,-243.5 2218,-243.5 2218,-224.5 2160,-224.5"/>
<text text-anchor="middle" x="2189" y="-231.5" font-family="Helvetica,sans-Serif" font-size="10.00">Point.cpp</text>
</a>
</g>
</g>
<!-- Node1&#45;&gt;Node40 -->
<g id="edge66" class="edge"><title>Node1&#45;&gt;Node40</title>
<path fill="none" stroke="midnightblue" d="M2089.85,-276.503C2114.04,-266.38 2147.46,-252.388 2168.66,-243.516"/>
<polygon fill="midnightblue" stroke="midnightblue" points="2088.31,-273.354 2080.44,-280.444 2091.02,-279.811 2088.31,-273.354"/>
</g>
<!-- Node3 -->
<g id="node3" class="node"><title>Node3</title>
<g id="a_node3"><a xlink:href="_graphics_item_8hpp.html" target="_top" xlink:title="Classe GraphicsItem. ">
<polygon fill="white" stroke="black" points="1560,-168.5 1560,-187.5 1654,-187.5 1654,-168.5 1560,-168.5"/>
<text text-anchor="middle" x="1607" y="-175.5" font-family="Helvetica,sans-Serif" font-size="10.00">GraphicsItem.hpp</text>
</a>
</g>
</g>
<!-- Node2&#45;&gt;Node3 -->
<g id="edge2" class="edge"><title>Node2&#45;&gt;Node3</title>
<path fill="none" stroke="midnightblue" d="M1904.43,-225.963C1839.76,-215.752 1720.43,-196.91 1654.27,-186.464"/>
<polygon fill="midnightblue" stroke="midnightblue" points="1903.9,-229.422 1914.33,-227.525 1904.99,-222.508 1903.9,-229.422"/>
</g>
<!-- Node2&#45;&gt;Node35 -->
<g id="edge58" class="edge"><title>Node2&#45;&gt;Node35</title>
<path fill="none" stroke="midnightblue" d="M1970.83,-218.622C1985.81,-208.757 2005.2,-195.992 2017.86,-187.655"/>
<polygon fill="midnightblue" stroke="midnightblue" points="1968.6,-215.901 1962.17,-224.324 1972.45,-221.747 1968.6,-215.901"/>
</g>
<!-- Node37 -->
<g id="node37" class="node"><title>Node37</title>
<g id="a_node37"><a xlink:href="_canvas_8cpp.html" target="_top" xlink:title="Canvas.cpp">
<polygon fill="white" stroke="black" points="1908.5,-168.5 1908.5,-187.5 1977.5,-187.5 1977.5,-168.5 1908.5,-168.5"/>
<text text-anchor="middle" x="1943" y="-175.5" font-family="Helvetica,sans-Serif" font-size="10.00">Canvas.cpp</text>
</a>
</g>
</g>
<!-- Node2&#45;&gt;Node37 -->
<g id="edge61" class="edge"><title>Node2&#45;&gt;Node37</title>
<path fill="none" stroke="midnightblue" d="M1946.9,-214.101C1945.9,-205.136 1944.76,-194.858 1943.97,-187.751"/>
<polygon fill="midnightblue" stroke="midnightblue" points="1943.43,-214.531 1948.01,-224.083 1950.38,-213.758 1943.43,-214.531"/>
</g>
<!-- Node4 -->
<g id="node4" class="node"><title>Node4</title>
<g id="a_node4"><a xlink:href="_graphics_point_8hpp.html" target="_top" xlink:title="GraphicsPoint.hpp">
<polygon fill="white" stroke="black" points="480.5,-112.5 480.5,-131.5 577.5,-131.5 577.5,-112.5 480.5,-112.5"/>
<text text-anchor="middle" x="529" y="-119.5" font-family="Helvetica,sans-Serif" font-size="10.00">GraphicsPoint.hpp</text>
</a>
</g>
</g>
<!-- Node3&#45;&gt;Node4 -->
<g id="edge3" class="edge"><title>Node3&#45;&gt;Node4</title>
<path fill="none" stroke="midnightblue" d="M1549.96,-174.143C1360.55,-164.655 754.507,-134.296 577.795,-125.444"/>
<polygon fill="midnightblue" stroke="midnightblue" points="1549.82,-177.64 1559.99,-174.645 1550.17,-170.649 1549.82,-177.64"/>
</g>
<!-- Node16 -->
<g id="node16" class="node"><title>Node16</title>
<g id="a_node16"><a xlink:href="_graphics_animation_8hpp.html" target="_top" xlink:title="GraphicsAnimation.hpp">
<polygon fill="white" stroke="black" points="1849,-112.5 1849,-131.5 1967,-131.5 1967,-112.5 1849,-112.5"/>
<text text-anchor="middle" x="1908" y="-119.5" font-family="Helvetica,sans-Serif" font-size="10.00">GraphicsAnimation.hpp</text>
</a>
</g>
</g>
<!-- Node3&#45;&gt;Node16 -->
<g id="edge22" class="edge"><title>Node3&#45;&gt;Node16</title>
<path fill="none" stroke="midnightblue" d="M1663.93,-166.787C1720.73,-156.597 1807,-141.12 1860.31,-131.556"/>
<polygon fill="midnightblue" stroke="midnightblue" points="1663.26,-163.352 1654.03,-168.562 1664.49,-170.242 1663.26,-163.352"/>
</g>
<!-- Node20 -->
<g id="node20" class="node"><title>Node20</title>
<g id="a_node20"><a xlink:href="_graphics_shape_8hpp.html" target="_top" xlink:title="Classe GraphicsShape. ">
<polygon fill="white" stroke="black" points="1374,-112.5 1374,-131.5 1476,-131.5 1476,-112.5 1374,-112.5"/>
<text text-anchor="middle" x="1425" y="-119.5" font-family="Helvetica,sans-Serif" font-size="10.00">GraphicsShape.hpp</text>
</a>
</g>
</g>
<!-- Node3&#45;&gt;Node20 -->
<g id="edge27" class="edge"><title>Node3&#45;&gt;Node20</title>
<path fill="none" stroke="midnightblue" d="M1568.47,-165.568C1534.14,-155.381 1484.67,-140.703 1453.7,-131.516"/>
<polygon fill="midnightblue" stroke="midnightblue" points="1567.58,-168.954 1578.16,-168.444 1569.57,-162.244 1567.58,-168.954"/>
</g>
<!-- Node27 -->
<g id="node27" class="node"><title>Node27</title>
<g id="a_node27"><a xlink:href="_graphics_rectangle_8hpp.html" target="_top" xlink:title="GraphicsRectangle.hpp">
<polygon fill="white" stroke="black" points="710.5,-56.5 710.5,-75.5 829.5,-75.5 829.5,-56.5 710.5,-56.5"/>
<text text-anchor="middle" x="770" y="-63.5" font-family="Helvetica,sans-Serif" font-size="10.00">GraphicsRectangle.hpp</text>
</a>
</g>
</g>
<!-- Node3&#45;&gt;Node27 -->
<g id="edge44" class="edge"><title>Node3&#45;&gt;Node27</title>
<path fill="none" stroke="midnightblue" d="M1550.01,-171.767C1469.14,-164.144 1316.52,-149.023 1187,-132 1053.88,-114.503 897.668,-88.7497 819.636,-75.5254"/>
<polygon fill="midnightblue" stroke="midnightblue" points="1549.7,-175.254 1559.99,-172.704 1550.36,-168.284 1549.7,-175.254"/>
</g>
<!-- Node28 -->
<g id="node28" class="node"><title>Node28</title>
<g id="a_node28"><a xlink:href="_graphics_square_8hpp.html" target="_top" xlink:title="GraphicsSquare.hpp">
<polygon fill="white" stroke="black" points="847.5,-56.5 847.5,-75.5 952.5,-75.5 952.5,-56.5 847.5,-56.5"/>
<text text-anchor="middle" x="900" y="-63.5" font-family="Helvetica,sans-Serif" font-size="10.00">GraphicsSquare.hpp</text>
</a>
</g>
</g>
<!-- Node3&#45;&gt;Node28 -->
<g id="edge47" class="edge"><title>Node3&#45;&gt;Node28</title>
<path fill="none" stroke="midnightblue" d="M1549.71,-168.086C1415.43,-147.194 1082,-95.317 952.553,-75.1766"/>
<polygon fill="midnightblue" stroke="midnightblue" points="1549.37,-171.576 1559.79,-169.655 1550.45,-164.659 1549.37,-171.576"/>
</g>
<!-- Node29 -->
<g id="node29" class="node"><title>Node29</title>
<g id="a_node29"><a xlink:href="_graphics_text_8hpp.html" target="_top" xlink:title="Classe GraphicsText. ">
<polygon fill="white" stroke="black" points="1735,-112.5 1735,-131.5 1829,-131.5 1829,-112.5 1735,-112.5"/>
<text text-anchor="middle" x="1782" y="-119.5" font-family="Helvetica,sans-Serif" font-size="10.00">GraphicsText.hpp</text>
</a>
</g>
</g>
<!-- Node3&#45;&gt;Node29 -->
<g id="edge50" class="edge"><title>Node3&#45;&gt;Node29</title>
<path fill="none" stroke="midnightblue" d="M1644.47,-165.436C1677.47,-155.255 1724.76,-140.664 1754.4,-131.516"/>
<polygon fill="midnightblue" stroke="midnightblue" points="1643.25,-162.151 1634.73,-168.444 1645.32,-168.839 1643.25,-162.151"/>
</g>
<!-- Node31 -->
<g id="node31" class="node"><title>Node31</title>
<g id="a_node31"><a xlink:href="_main_window_8hpp.html" target="_top" xlink:title="MainWindow.hpp">
<polygon fill="white" stroke="black" points="1985,-112.5 1985,-131.5 2077,-131.5 2077,-112.5 1985,-112.5"/>
<text text-anchor="middle" x="2031" y="-119.5" font-family="Helvetica,sans-Serif" font-size="10.00">MainWindow.hpp</text>
</a>
</g>
</g>
<!-- Node3&#45;&gt;Node31 -->
<g id="edge53" class="edge"><title>Node3&#45;&gt;Node31</title>
<path fill="none" stroke="midnightblue" d="M1664.57,-170.716C1737.25,-162.614 1866.08,-147.689 1976,-132 1978.87,-131.59 1981.83,-131.152 1984.81,-130.699"/>
<polygon fill="midnightblue" stroke="midnightblue" points="1663.82,-167.279 1654.26,-171.862 1664.59,-174.236 1663.82,-167.279"/>
</g>
<!-- Node33 -->
<g id="node33" class="node"><title>Node33</title>
<g id="a_node33"><a xlink:href="_tools_windows_8hpp.html" target="_top" xlink:title="ToolsWindows.hpp">
<polygon fill="white" stroke="black" points="1500,-112.5 1500,-131.5 1600,-131.5 1600,-112.5 1500,-112.5"/>
<text text-anchor="middle" x="1550" y="-119.5" font-family="Helvetica,sans-Serif" font-size="10.00">ToolsWindows.hpp</text>
</a>
</g>
</g>
<!-- Node3&#45;&gt;Node33 -->
<g id="edge56" class="edge"><title>Node3&#45;&gt;Node33</title>
<path fill="none" stroke="midnightblue" d="M1590.38,-161.253C1580.27,-151.673 1567.72,-139.791 1559.32,-131.834"/>
<polygon fill="midnightblue" stroke="midnightblue" points="1588.18,-163.987 1597.84,-168.324 1592.99,-158.906 1588.18,-163.987"/>
</g>
<!-- Node34 -->
<g id="node34" class="node"><title>Node34</title>
<g id="a_node34"><a xlink:href="_graphics_item_8cpp.html" target="_top" xlink:title="GraphicsItem.cpp">
<polygon fill="white" stroke="black" points="1618,-112.5 1618,-131.5 1712,-131.5 1712,-112.5 1618,-112.5"/>
<text text-anchor="middle" x="1665" y="-119.5" font-family="Helvetica,sans-Serif" font-size="10.00">GraphicsItem.cpp</text>
</a>
</g>
</g>
<!-- Node3&#45;&gt;Node34 -->
<g id="edge57" class="edge"><title>Node3&#45;&gt;Node34</title>
<path fill="none" stroke="midnightblue" d="M1623.91,-161.253C1634.2,-151.673 1646.97,-139.791 1655.51,-131.834"/>
<polygon fill="midnightblue" stroke="midnightblue" points="1621.25,-158.948 1616.32,-168.324 1626.02,-164.071 1621.25,-158.948"/>
</g>
<!-- Node5 -->
<g id="node5" class="node"><title>Node5</title>
<g id="a_node5"><a xlink:href="_graphics_anchor_8hpp.html" target="_top" xlink:title="GraphicsAnchor.hpp">
<polygon fill="white" stroke="black" points="318.5,-56.5 318.5,-75.5 423.5,-75.5 423.5,-56.5 318.5,-56.5"/>
<text text-anchor="middle" x="371" y="-63.5" font-family="Helvetica,sans-Serif" font-size="10.00">GraphicsAnchor.hpp</text>
</a>
</g>
</g>
<!-- Node4&#45;&gt;Node5 -->
<g id="edge4" class="edge"><title>Node4&#45;&gt;Node5</title>
<path fill="none" stroke="midnightblue" d="M494.392,-109.172C464.641,-99.0039 422.453,-84.5852 395.918,-75.5164"/>
<polygon fill="midnightblue" stroke="midnightblue" points="493.37,-112.521 503.964,-112.444 495.634,-105.898 493.37,-112.521"/>
</g>
<!-- Node7 -->
<g id="node7" class="node"><title>Node7</title>
<g id="a_node7"><a xlink:href="_graphics_circle_8cpp.html" target="_top" xlink:title="GraphicsCircle.cpp">
<polygon fill="white" stroke="black" points="749,-0.5 749,-19.5 849,-19.5 849,-0.5 749,-0.5"/>
<text text-anchor="middle" x="799" y="-7.5" font-family="Helvetica,sans-Serif" font-size="10.00">GraphicsCircle.cpp</text>
</a>
</g>
</g>
<!-- Node4&#45;&gt;Node7 -->
<g id="edge13" class="edge"><title>Node4&#45;&gt;Node7</title>
<path fill="none" stroke="midnightblue" d="M554.865,-107.891C582.506,-94.1231 627.79,-72.2543 668,-56 703.114,-41.8057 744.607,-28.0439 771.338,-19.5552"/>
<polygon fill="midnightblue" stroke="midnightblue" points="553.235,-104.793 545.861,-112.401 556.369,-111.052 553.235,-104.793"/>
</g>
<!-- Node8 -->
<g id="node8" class="node"><title>Node8</title>
<g id="a_node8"><a xlink:href="_graphics_ellipse_8cpp.html" target="_top" xlink:title="GraphicsEllipse.cpp">
<polygon fill="white" stroke="black" points="867,-0.5 867,-19.5 971,-19.5 971,-0.5 867,-0.5"/>
<text text-anchor="middle" x="919" y="-7.5" font-family="Helvetica,sans-Serif" font-size="10.00">GraphicsEllipse.cpp</text>
</a>
</g>
</g>
<!-- Node4&#45;&gt;Node8 -->
<g id="edge14" class="edge"><title>Node4&#45;&gt;Node8</title>
<path fill="none" stroke="midnightblue" d="M567.444,-109.408C594.054,-101.018 630.102,-88.9219 661,-76 679.337,-68.3313 682.22,-62.5085 701,-56 731.672,-45.3703 815.972,-29.3122 870.304,-19.5283"/>
<polygon fill="midnightblue" stroke="midnightblue" points="566.242,-106.116 557.738,-112.436 568.327,-112.799 566.242,-106.116"/>
</g>
<!-- Node9 -->
<g id="node9" class="node"><title>Node9</title>
<g id="a_node9"><a xlink:href="_graphics_line_8cpp.html" target="_top" xlink:title="GraphicsLine.cpp">
<polygon fill="white" stroke="black" points="639,-0.5 639,-19.5 731,-19.5 731,-0.5 639,-0.5"/>
<text text-anchor="middle" x="685" y="-7.5" font-family="Helvetica,sans-Serif" font-size="10.00">GraphicsLine.cpp</text>
</a>
</g>
</g>
<!-- Node4&#45;&gt;Node9 -->
<g id="edge15" class="edge"><title>Node4&#45;&gt;Node9</title>
<path fill="none" stroke="midnightblue" d="M549.681,-106.417C582.676,-83.1513 646.213,-38.3501 672.816,-19.5914"/>
<polygon fill="midnightblue" stroke="midnightblue" points="547.397,-103.745 541.241,-112.368 551.431,-109.466 547.397,-103.745"/>
</g>
<!-- Node10 -->
<g id="node10" class="node"><title>Node10</title>
<g id="a_node10"><a xlink:href="_graphics_polygon_8cpp.html" target="_top" xlink:title="GraphicsPolygon.cpp">
<polygon fill="white" stroke="black" points="383,-0.5 383,-19.5 493,-19.5 493,-0.5 383,-0.5"/>
<text text-anchor="middle" x="438" y="-7.5" font-family="Helvetica,sans-Serif" font-size="10.00">GraphicsPolygon.cpp</text>
</a>
</g>
</g>
<!-- Node4&#45;&gt;Node10 -->
<g id="edge17" class="edge"><title>Node4&#45;&gt;Node10</title>
<path fill="none" stroke="midnightblue" d="M470.151,-117.174C412.026,-112.023 328.999,-100.503 309,-76 284.342,-45.7883 337.236,-28.2966 382.566,-19.2191"/>
<polygon fill="midnightblue" stroke="midnightblue" points="470.073,-120.68 480.332,-118.034 470.662,-113.705 470.073,-120.68"/>
</g>
<!-- Node11 -->
<g id="node11" class="node"><title>Node11</title>
<g id="a_node11"><a xlink:href="_graphics_rectangle_8cpp.html" target="_top" xlink:title="GraphicsRectangle.cpp">
<polygon fill="white" stroke="black" points="-0.5,-0.5 -0.5,-19.5 118.5,-19.5 118.5,-0.5 -0.5,-0.5"/>
<text text-anchor="middle" x="59" y="-7.5" font-family="Helvetica,sans-Serif" font-size="10.00">GraphicsRectangle.cpp</text>
</a>
</g>
</g>
<!-- Node4&#45;&gt;Node11 -->
<g id="edge18" class="edge"><title>Node4&#45;&gt;Node11</title>
<path fill="none" stroke="midnightblue" d="M470.199,-111.417C421.635,-103.147 351.022,-90.3007 290,-76 215.77,-58.604 129.625,-32.8638 86.5304,-19.5983"/>
<polygon fill="midnightblue" stroke="midnightblue" points="469.772,-114.895 480.216,-113.112 470.939,-107.993 469.772,-114.895"/>
</g>
<!-- Node12 -->
<g id="node12" class="node"><title>Node12</title>
<g id="a_node12"><a xlink:href="_graphics_square_8cpp.html" target="_top" xlink:title="GraphicsSquare.cpp">
<polygon fill="white" stroke="black" points="259.5,-0.5 259.5,-19.5 364.5,-19.5 364.5,-0.5 259.5,-0.5"/>
<text text-anchor="middle" x="312" y="-7.5" font-family="Helvetica,sans-Serif" font-size="10.00">GraphicsSquare.cpp</text>
</a>
</g>
</g>
<!-- Node4&#45;&gt;Node12 -->
<g id="edge19" class="edge"><title>Node4&#45;&gt;Node12</title>
<path fill="none" stroke="midnightblue" d="M469.991,-117.763C409.157,-113.047 320.269,-101.833 299,-76 285.541,-59.6525 298.145,-33.2254 306.3,-19.6533"/>
<polygon fill="midnightblue" stroke="midnightblue" points="470.019,-121.275 480.249,-118.518 470.533,-114.294 470.019,-121.275"/>
</g>
<!-- Node13 -->
<g id="node13" class="node"><title>Node13</title>
<g id="a_node13"><a xlink:href="_graphics_triangle_8cpp.html" target="_top" xlink:title="GraphicsTriangle.cpp">
<polygon fill="white" stroke="black" points="511.5,-0.5 511.5,-19.5 620.5,-19.5 620.5,-0.5 511.5,-0.5"/>
<text text-anchor="middle" x="566" y="-7.5" font-family="Helvetica,sans-Serif" font-size="10.00">GraphicsTriangle.cpp</text>
</a>
</g>
</g>
<!-- Node4&#45;&gt;Node13 -->
<g id="edge20" class="edge"><title>Node4&#45;&gt;Node13</title>
<path fill="none" stroke="midnightblue" d="M502.153,-107.26C481.592,-94.8103 458.671,-75.4821 471,-56 482.906,-37.186 505.04,-26.0841 524.949,-19.6165"/>
<polygon fill="midnightblue" stroke="midnightblue" points="500.584,-110.395 511.004,-112.313 504.055,-104.315 500.584,-110.395"/>
</g>
<!-- Node14 -->
<g id="node14" class="node"><title>Node14</title>
<g id="a_node14"><a xlink:href="_graphics_point_8cpp.html" target="_top" xlink:title="GraphicsPoint.cpp">
<polygon fill="white" stroke="black" points="480.5,-56.5 480.5,-75.5 577.5,-75.5 577.5,-56.5 480.5,-56.5"/>
<text text-anchor="middle" x="529" y="-63.5" font-family="Helvetica,sans-Serif" font-size="10.00">GraphicsPoint.cpp</text>
</a>
</g>
</g>
<!-- Node4&#45;&gt;Node14 -->
<g id="edge16" class="edge"><title>Node4&#45;&gt;Node14</title>
<path fill="none" stroke="midnightblue" d="M529,-101.805C529,-92.9102 529,-82.7798 529,-75.7511"/>
<polygon fill="midnightblue" stroke="midnightblue" points="525.5,-102.083 529,-112.083 532.5,-102.083 525.5,-102.083"/>
</g>
<!-- Node15 -->
<g id="node15" class="node"><title>Node15</title>
<g id="a_node15"><a xlink:href="_main_window_8cpp.html" target="_top" xlink:title="MainWindow.cpp">
<polygon fill="white" stroke="black" points="1265,-0.5 1265,-19.5 1357,-19.5 1357,-0.5 1265,-0.5"/>
<text text-anchor="middle" x="1311" y="-7.5" font-family="Helvetica,sans-Serif" font-size="10.00">MainWindow.cpp</text>
</a>
</g>
</g>
<!-- Node4&#45;&gt;Node15 -->
<g id="edge21" class="edge"><title>Node4&#45;&gt;Node15</title>
<path fill="none" stroke="midnightblue" d="M587.915,-121.668C672.328,-121.112 831.764,-114.4 961,-76 979.673,-70.4517 981.442,-61.9197 1000,-56 1091.09,-26.9455 1203.21,-16.5821 1264.88,-12.935"/>
<polygon fill="midnightblue" stroke="midnightblue" points="587.738,-118.168 577.751,-121.707 587.765,-125.168 587.738,-118.168"/>
</g>
<!-- Node6 -->
<g id="node6" class="node"><title>Node6</title>
<g id="a_node6"><a xlink:href="_graphics_anchor_8cpp.html" target="_top" xlink:title="GraphicsAnchor.cpp">
<polygon fill="white" stroke="black" points="136.5,-0.5 136.5,-19.5 241.5,-19.5 241.5,-0.5 136.5,-0.5"/>
<text text-anchor="middle" x="189" y="-7.5" font-family="Helvetica,sans-Serif" font-size="10.00">GraphicsAnchor.cpp</text>
</a>
</g>
</g>
<!-- Node5&#45;&gt;Node6 -->
<g id="edge5" class="edge"><title>Node5&#45;&gt;Node6</title>
<path fill="none" stroke="midnightblue" d="M332.469,-53.5677C298.136,-43.381 248.667,-28.7034 217.704,-19.5164"/>
<polygon fill="midnightblue" stroke="midnightblue" points="331.579,-56.9544 342.162,-56.4435 333.57,-50.2436 331.579,-56.9544"/>
</g>
<!-- Node5&#45;&gt;Node7 -->
<g id="edge6" class="edge"><title>Node5&#45;&gt;Node7</title>
<path fill="none" stroke="midnightblue" d="M433.63,-57.9425C507.097,-49.5295 632.524,-34.7473 740,-20 742.874,-19.6056 745.826,-19.1898 748.803,-18.762"/>
<polygon fill="midnightblue" stroke="midnightblue" points="433.153,-54.4741 423.615,-59.0867 433.948,-61.4288 433.153,-54.4741"/>
</g>
<!-- Node5&#45;&gt;Node8 -->
<g id="edge7" class="edge"><title>Node5&#45;&gt;Node8</title>
<path fill="none" stroke="midnightblue" d="M433.912,-59.2784C560.828,-47.7232 837.269,-22.4852 858,-20 860.87,-19.656 863.813,-19.2844 866.782,-18.8949"/>
<polygon fill="midnightblue" stroke="midnightblue" points="433.214,-55.8274 423.572,-60.2197 433.848,-62.7986 433.214,-55.8274"/>
</g>
<!-- Node5&#45;&gt;Node9 -->
<g id="edge8" class="edge"><title>Node5&#45;&gt;Node9</title>
<path fill="none" stroke="midnightblue" d="M430.93,-54.6936C491.47,-44.2822 583.704,-28.4204 638.802,-18.9449"/>
<polygon fill="midnightblue" stroke="midnightblue" points="430.016,-51.2992 420.754,-56.4435 431.203,-58.198 430.016,-51.2992"/>
</g>
<!-- Node5&#45;&gt;Node10 -->
<g id="edge9" class="edge"><title>Node5&#45;&gt;Node10</title>
<path fill="none" stroke="midnightblue" d="M389.835,-49.8197C401.838,-40.1452 416.972,-27.9481 427.039,-19.8339"/>
<polygon fill="midnightblue" stroke="midnightblue" points="387.354,-47.3236 381.765,-56.324 391.747,-52.7738 387.354,-47.3236"/>
</g>
<!-- Node5&#45;&gt;Node11 -->
<g id="edge10" class="edge"><title>Node5&#45;&gt;Node11</title>
<path fill="none" stroke="midnightblue" d="M311.648,-54.7275C252.689,-44.523 163.337,-29.0583 108.206,-19.5164"/>
<polygon fill="midnightblue" stroke="midnightblue" points="311.112,-58.1868 321.563,-56.4435 312.306,-51.2893 311.112,-58.1868"/>
</g>
<!-- Node5&#45;&gt;Node12 -->
<g id="edge11" class="edge"><title>Node5&#45;&gt;Node12</title>
<path fill="none" stroke="midnightblue" d="M354.105,-49.5372C343.585,-39.9087 330.431,-27.8694 321.652,-19.8339"/>
<polygon fill="midnightblue" stroke="midnightblue" points="351.781,-52.1542 361.521,-56.324 356.507,-46.9905 351.781,-52.1542"/>
</g>
<!-- Node5&#45;&gt;Node13 -->
<g id="edge12" class="edge"><title>Node5&#45;&gt;Node13</title>
<path fill="none" stroke="midnightblue" d="M411.81,-53.6986C448.613,-43.507 501.929,-28.7429 535.246,-19.5164"/>
<polygon fill="midnightblue" stroke="midnightblue" points="410.602,-50.4016 401.898,-56.4435 412.47,-57.1477 410.602,-50.4016"/>
</g>
<!-- Node17 -->
<g id="node17" class="node"><title>Node17</title>
<g id="a_node17"><a xlink:href="_graphics_blink_animation_8hpp.html" target="_top" xlink:title="GraphicsBlinkAnimation.hpp">
<polygon fill="white" stroke="black" points="2059,-56.5 2059,-75.5 2199,-75.5 2199,-56.5 2059,-56.5"/>
<text text-anchor="middle" x="2129" y="-63.5" font-family="Helvetica,sans-Serif" font-size="10.00">GraphicsBlinkAnimation.hpp</text>
</a>
</g>
</g>
<!-- Node16&#45;&gt;Node17 -->
<g id="edge23" class="edge"><title>Node16&#45;&gt;Node17</title>
<path fill="none" stroke="midnightblue" d="M1952.92,-110.024C1994.67,-99.8232 2055.98,-84.8414 2094.15,-75.5164"/>
<polygon fill="midnightblue" stroke="midnightblue" points="1951.9,-106.67 1943.02,-112.444 1953.56,-113.47 1951.9,-106.67"/>
</g>
<!-- Node19 -->
<g id="node19" class="node"><title>Node19</title>
<g id="a_node19"><a xlink:href="_graphics_animation_8cpp.html" target="_top" xlink:title="GraphicsAnimation.cpp">
<polygon fill="white" stroke="black" points="1885,-56.5 1885,-75.5 2003,-75.5 2003,-56.5 1885,-56.5"/>
<text text-anchor="middle" x="1944" y="-63.5" font-family="Helvetica,sans-Serif" font-size="10.00">GraphicsAnimation.cpp</text>
</a>
</g>
</g>
<!-- Node16&#45;&gt;Node19 -->
<g id="edge26" class="edge"><title>Node16&#45;&gt;Node19</title>
<path fill="none" stroke="midnightblue" d="M1919.62,-103.566C1925.82,-94.2747 1933.17,-83.2484 1938.17,-75.7511"/>
<polygon fill="midnightblue" stroke="midnightblue" points="1916.58,-101.821 1913.94,-112.083 1922.4,-105.704 1916.58,-101.821"/>
</g>
<!-- Node17&#45;&gt;Node15 -->
<g id="edge25" class="edge"><title>Node17&#45;&gt;Node15</title>
<path fill="none" stroke="midnightblue" d="M2048.85,-56.3309C2047.56,-56.2177 2046.27,-56.1073 2045,-56 1785.15,-34.1257 1472.7,-18.5108 1357,-13.0916"/>
<polygon fill="midnightblue" stroke="midnightblue" points="2048.62,-59.8241 2058.9,-57.2478 2049.26,-52.8531 2048.62,-59.8241"/>
</g>
<!-- Node18 -->
<g id="node18" class="node"><title>Node18</title>
<g id="a_node18"><a xlink:href="_graphics_blink_animation_8cpp.html" target="_top" xlink:title="GraphicsBlinkAnimation.cpp">
<polygon fill="white" stroke="black" points="2059,-0.5 2059,-19.5 2199,-19.5 2199,-0.5 2059,-0.5"/>
<text text-anchor="middle" x="2129" y="-7.5" font-family="Helvetica,sans-Serif" font-size="10.00">GraphicsBlinkAnimation.cpp</text>
</a>
</g>
</g>
<!-- Node17&#45;&gt;Node18 -->
<g id="edge24" class="edge"><title>Node17&#45;&gt;Node18</title>
<path fill="none" stroke="midnightblue" d="M2129,-45.8045C2129,-36.9102 2129,-26.7798 2129,-19.7511"/>
<polygon fill="midnightblue" stroke="midnightblue" points="2125.5,-46.083 2129,-56.083 2132.5,-46.083 2125.5,-46.083"/>
</g>
<!-- Node21 -->
<g id="node21" class="node"><title>Node21</title>
<g id="a_node21"><a xlink:href="_graphics_circle_8hpp.html" target="_top" xlink:title="GraphicsCircle.hpp">
<polygon fill="white" stroke="black" points="1375,-56.5 1375,-75.5 1475,-75.5 1475,-56.5 1375,-56.5"/>
<text text-anchor="middle" x="1425" y="-63.5" font-family="Helvetica,sans-Serif" font-size="10.00">GraphicsCircle.hpp</text>
</a>
</g>
</g>
<!-- Node20&#45;&gt;Node21 -->
<g id="edge28" class="edge"><title>Node20&#45;&gt;Node21</title>
<path fill="none" stroke="midnightblue" d="M1425,-101.805C1425,-92.9102 1425,-82.7798 1425,-75.7511"/>
<polygon fill="midnightblue" stroke="midnightblue" points="1421.5,-102.083 1425,-112.083 1428.5,-102.083 1421.5,-102.083"/>
</g>
<!-- Node22 -->
<g id="node22" class="node"><title>Node22</title>
<g id="a_node22"><a xlink:href="_graphics_ellipse_8hpp.html" target="_top" xlink:title="GraphicsEllipse.hpp">
<polygon fill="white" stroke="black" points="1613,-56.5 1613,-75.5 1717,-75.5 1717,-56.5 1613,-56.5"/>
<text text-anchor="middle" x="1665" y="-63.5" font-family="Helvetica,sans-Serif" font-size="10.00">GraphicsEllipse.hpp</text>
</a>
</g>
</g>
<!-- Node20&#45;&gt;Node22 -->
<g id="edge31" class="edge"><title>Node20&#45;&gt;Node22</title>
<path fill="none" stroke="midnightblue" d="M1472.92,-110.217C1518.27,-100.013 1585.44,-84.9006 1627.15,-75.5164"/>
<polygon fill="midnightblue" stroke="midnightblue" points="1472.02,-106.834 1463.03,-112.444 1473.55,-113.663 1472.02,-106.834"/>
</g>
<!-- Node23 -->
<g id="node23" class="node"><title>Node23</title>
<g id="a_node23"><a xlink:href="_graphics_line_8hpp.html" target="_top" xlink:title="GraphicsLine.hpp">
<polygon fill="white" stroke="black" points="1265,-56.5 1265,-75.5 1357,-75.5 1357,-56.5 1265,-56.5"/>
<text text-anchor="middle" x="1311" y="-63.5" font-family="Helvetica,sans-Serif" font-size="10.00">GraphicsLine.hpp</text>
</a>
</g>
</g>
<!-- Node20&#45;&gt;Node23 -->
<g id="edge34" class="edge"><title>Node20&#45;&gt;Node23</title>
<path fill="none" stroke="midnightblue" d="M1397.76,-108.096C1376.46,-98.0073 1347.46,-84.2697 1328.98,-75.5164"/>
<polygon fill="midnightblue" stroke="midnightblue" points="1396.4,-111.326 1406.94,-112.444 1399.4,-105 1396.4,-111.326"/>
</g>
<!-- Node24 -->
<g id="node24" class="node"><title>Node24</title>
<g id="a_node24"><a xlink:href="_graphics_polygon_8hpp.html" target="_top" xlink:title="GraphicsPolygon.hpp">
<polygon fill="white" stroke="black" points="1009,-56.5 1009,-75.5 1119,-75.5 1119,-56.5 1009,-56.5"/>
<text text-anchor="middle" x="1064" y="-63.5" font-family="Helvetica,sans-Serif" font-size="10.00">GraphicsPolygon.hpp</text>
</a>
</g>
</g>
<!-- Node20&#45;&gt;Node24 -->
<g id="edge37" class="edge"><title>Node20&#45;&gt;Node24</title>
<path fill="none" stroke="midnightblue" d="M1363.43,-111.79C1294.81,-101.525 1184.85,-85.0774 1119.01,-75.228"/>
<polygon fill="midnightblue" stroke="midnightblue" points="1363.25,-115.302 1373.66,-113.32 1364.29,-108.38 1363.25,-115.302"/>
</g>
<!-- Node25 -->
<g id="node25" class="node"><title>Node25</title>
<g id="a_node25"><a xlink:href="_graphics_triangle_8hpp.html" target="_top" xlink:title="Classe GraphicsTriangle. ">
<polygon fill="white" stroke="black" points="1137.5,-56.5 1137.5,-75.5 1246.5,-75.5 1246.5,-56.5 1137.5,-56.5"/>
<text text-anchor="middle" x="1192" y="-63.5" font-family="Helvetica,sans-Serif" font-size="10.00">GraphicsTriangle.hpp</text>
</a>
</g>
</g>
<!-- Node20&#45;&gt;Node25 -->
<g id="edge40" class="edge"><title>Node20&#45;&gt;Node25</title>
<path fill="none" stroke="midnightblue" d="M1378.2,-110.153C1334.17,-99.95 1269.15,-84.8809 1228.75,-75.5164"/>
<polygon fill="midnightblue" stroke="midnightblue" points="1377.55,-113.595 1388.08,-112.444 1379.13,-106.776 1377.55,-113.595"/>
</g>
<!-- Node26 -->
<g id="node26" class="node"><title>Node26</title>
<g id="a_node26"><a xlink:href="_graphics_shape_8cpp.html" target="_top" xlink:title="GraphicsShape.cpp">
<polygon fill="white" stroke="black" points="1493,-56.5 1493,-75.5 1595,-75.5 1595,-56.5 1493,-56.5"/>
<text text-anchor="middle" x="1544" y="-63.5" font-family="Helvetica,sans-Serif" font-size="10.00">GraphicsShape.cpp</text>
</a>
</g>
</g>
<!-- Node20&#45;&gt;Node26 -->
<g id="edge43" class="edge"><title>Node20&#45;&gt;Node26</title>
<path fill="none" stroke="midnightblue" d="M1453.14,-108.232C1475.4,-98.1312 1505.86,-84.3091 1525.23,-75.5164"/>
<polygon fill="midnightblue" stroke="midnightblue" points="1451.52,-105.124 1443.86,-112.444 1454.41,-111.498 1451.52,-105.124"/>
</g>
<!-- Node21&#45;&gt;Node7 -->
<g id="edge29" class="edge"><title>Node21&#45;&gt;Node7</title>
<path fill="none" stroke="midnightblue" d="M1364.66,-55.9411C1139.31,-31.3203 1079.65,-44.719 858,-20 855.117,-19.6784 852.158,-19.3196 849.176,-18.9354"/>
<polygon fill="midnightblue" stroke="midnightblue" points="1364.5,-59.4444 1374.82,-57.0646 1365.27,-52.4868 1364.5,-59.4444"/>
</g>
<!-- Node21&#45;&gt;Node15 -->
<g id="edge30" class="edge"><title>Node21&#45;&gt;Node15</title>
<path fill="none" stroke="midnightblue" d="M1397.76,-52.096C1376.46,-42.0073 1347.46,-28.2697 1328.98,-19.5164"/>
<polygon fill="midnightblue" stroke="midnightblue" points="1396.4,-55.3257 1406.94,-56.4435 1399.4,-48.9995 1396.4,-55.3257"/>
</g>
<!-- Node22&#45;&gt;Node8 -->
<g id="edge32" class="edge"><title>Node22&#45;&gt;Node8</title>
<path fill="none" stroke="midnightblue" d="M1603.3,-56.0322C1603.2,-56.0214 1603.1,-56.0107 1603,-56 1367.77,-31.2281 1085.51,-17.7968 971.032,-13.0283"/>
<polygon fill="midnightblue" stroke="midnightblue" points="1602.61,-59.475 1612.94,-57.1408 1603.41,-52.5208 1602.61,-59.475"/>
</g>
<!-- Node22&#45;&gt;Node15 -->
<g id="edge33" class="edge"><title>Node22&#45;&gt;Node15</title>
<path fill="none" stroke="midnightblue" d="M1602.73,-55.5009C1532.54,-44.7937 1420.05,-27.6349 1357.24,-18.0535"/>
<polygon fill="midnightblue" stroke="midnightblue" points="1602.35,-58.984 1612.77,-57.0321 1603.41,-52.0641 1602.35,-58.984"/>
</g>
<!-- Node23&#45;&gt;Node9 -->
<g id="edge35" class="edge"><title>Node23&#45;&gt;Node9</title>
<path fill="none" stroke="midnightblue" d="M1254.9,-56.1145C1025.35,-30.2362 964.678,-46.1789 740,-20 737.117,-19.6641 734.154,-19.2833 731.17,-18.8727"/>
<polygon fill="midnightblue" stroke="midnightblue" points="1254.57,-59.5989 1264.9,-57.2557 1255.36,-52.644 1254.57,-59.5989"/>
</g>
<!-- Node23&#45;&gt;Node15 -->
<g id="edge36" class="edge"><title>Node23&#45;&gt;Node15</title>
<path fill="none" stroke="midnightblue" d="M1311,-45.8045C1311,-36.9102 1311,-26.7798 1311,-19.7511"/>
<polygon fill="midnightblue" stroke="midnightblue" points="1307.5,-46.083 1311,-56.083 1314.5,-46.083 1307.5,-46.083"/>
</g>
<!-- Node24&#45;&gt;Node10 -->
<g id="edge38" class="edge"><title>Node24&#45;&gt;Node10</title>
<path fill="none" stroke="midnightblue" d="M998.979,-59.2303C986.381,-58.1373 973.28,-57.0181 961,-56 757.073,-39.0938 705.412,-42.2581 502,-20 499.1,-19.6827 496.129,-19.337 493.131,-18.9719"/>
<polygon fill="midnightblue" stroke="midnightblue" points="998.684,-62.7177 1008.95,-60.0987 999.291,-55.7441 998.684,-62.7177"/>
</g>
<!-- Node24&#45;&gt;Node15 -->
<g id="edge39" class="edge"><title>Node24&#45;&gt;Node15</title>
<path fill="none" stroke="midnightblue" d="M1113.03,-54.2815C1159.7,-44.0769 1229.03,-28.9203 1272.05,-19.5164"/>
<polygon fill="midnightblue" stroke="midnightblue" points="1112.16,-50.8884 1103.14,-56.4435 1113.65,-57.7269 1112.16,-50.8884"/>
</g>
<!-- Node25&#45;&gt;Node13 -->
<g id="edge41" class="edge"><title>Node25&#45;&gt;Node13</title>
<path fill="none" stroke="midnightblue" d="M1127.23,-55.9936C905.638,-32.8483 847.434,-43.1207 630,-20 626.987,-19.6797 623.898,-19.3268 620.783,-18.9518"/>
<polygon fill="midnightblue" stroke="midnightblue" points="1126.91,-59.4791 1137.22,-57.0482 1127.64,-52.5178 1126.91,-59.4791"/>
</g>
<!-- Node25&#45;&gt;Node15 -->
<g id="edge42" class="edge"><title>Node25&#45;&gt;Node15</title>
<path fill="none" stroke="midnightblue" d="M1220.14,-52.2321C1242.4,-42.1312 1272.86,-28.3091 1292.23,-19.5164"/>
<polygon fill="midnightblue" stroke="midnightblue" points="1218.52,-49.124 1210.86,-56.4435 1221.41,-55.4984 1218.52,-49.124"/>
</g>
<!-- Node27&#45;&gt;Node11 -->
<g id="edge45" class="edge"><title>Node27&#45;&gt;Node11</title>
<path fill="none" stroke="midnightblue" d="M700.051,-61.5218C581.814,-55.3251 334.985,-41.0213 127,-20 124.275,-19.7246 121.491,-19.426 118.68,-19.1106"/>
<polygon fill="midnightblue" stroke="midnightblue" points="699.889,-65.018 710.058,-62.0429 700.253,-58.0274 699.889,-65.018"/>
</g>
<!-- Node27&#45;&gt;Node15 -->
<g id="edge46" class="edge"><title>Node27&#45;&gt;Node15</title>
<path fill="none" stroke="midnightblue" d="M839.845,-55.8235C1001.92,-37.5597 1182.04,-21.8076 1264.95,-14.8154"/>
<polygon fill="midnightblue" stroke="midnightblue" points="839.231,-52.3705 829.689,-56.9739 840.019,-59.326 839.231,-52.3705"/>
</g>
<!-- Node28&#45;&gt;Node12 -->
<g id="edge48" class="edge"><title>Node28&#45;&gt;Node12</title>
<path fill="none" stroke="midnightblue" d="M837.312,-56.0016C630.737,-33.4267 576.362,-42.5124 374,-20 370.973,-19.6633 367.867,-19.2925 364.734,-18.8993"/>
<polygon fill="midnightblue" stroke="midnightblue" points="836.942,-59.4818 847.266,-57.1007 837.71,-52.5241 836.942,-59.4818"/>
</g>
<!-- Node28&#45;&gt;Node15 -->
<g id="edge49" class="edge"><title>Node28&#45;&gt;Node15</title>
<path fill="none" stroke="midnightblue" d="M962.589,-56.5856C964.074,-56.3882 965.546,-56.1928 967,-56 1073.58,-41.8706 1198.78,-25.567 1264.81,-16.9906"/>
<polygon fill="midnightblue" stroke="midnightblue" points="962.115,-53.1178 952.665,-57.9082 963.039,-60.0564 962.115,-53.1178"/>
</g>
<!-- Node29&#45;&gt;Node15 -->
<g id="edge52" class="edge"><title>Node29&#45;&gt;Node15</title>
<path fill="none" stroke="midnightblue" d="M1807.54,-107.211C1829.01,-93.9008 1853.87,-73.2799 1838,-56 1805.78,-20.9135 1479.56,-13.1411 1357.11,-11.4555"/>
<polygon fill="midnightblue" stroke="midnightblue" points="1805.51,-104.344 1798.67,-112.437 1809.06,-110.375 1805.51,-104.344"/>
</g>
<!-- Node30 -->
<g id="node30" class="node"><title>Node30</title>
<g id="a_node30"><a xlink:href="_graphics_text_8cpp.html" target="_top" xlink:title="GraphicsText.cpp">
<polygon fill="white" stroke="black" points="1735,-56.5 1735,-75.5 1829,-75.5 1829,-56.5 1735,-56.5"/>
<text text-anchor="middle" x="1782" y="-63.5" font-family="Helvetica,sans-Serif" font-size="10.00">GraphicsText.cpp</text>
</a>
</g>
</g>
<!-- Node29&#45;&gt;Node30 -->
<g id="edge51" class="edge"><title>Node29&#45;&gt;Node30</title>
<path fill="none" stroke="midnightblue" d="M1782,-101.805C1782,-92.9102 1782,-82.7798 1782,-75.7511"/>
<polygon fill="midnightblue" stroke="midnightblue" points="1778.5,-102.083 1782,-112.083 1785.5,-102.083 1778.5,-102.083"/>
</g>
<!-- Node31&#45;&gt;Node15 -->
<g id="edge55" class="edge"><title>Node31&#45;&gt;Node15</title>
<path fill="none" stroke="midnightblue" d="M2030.97,-101.929C2029.82,-86.9615 2025.6,-66.893 2012,-56 1961.04,-15.192 1504.9,-11.1674 1357.04,-10.9426"/>
<polygon fill="midnightblue" stroke="midnightblue" points="2027.48,-102.281 2031.34,-112.144 2034.47,-102.021 2027.48,-102.281"/>
</g>
<!-- Node32 -->
<g id="node32" class="node"><title>Node32</title>
<g id="a_node32"><a xlink:href="main_8cpp.html" target="_top" xlink:title="main.cpp">
<polygon fill="white" stroke="black" points="2217,-56.5 2217,-75.5 2273,-75.5 2273,-56.5 2217,-56.5"/>
<text text-anchor="middle" x="2245" y="-63.5" font-family="Helvetica,sans-Serif" font-size="10.00">main.cpp</text>
</a>
</g>
</g>
<!-- Node31&#45;&gt;Node32 -->
<g id="edge54" class="edge"><title>Node31&#45;&gt;Node32</title>
<path fill="none" stroke="midnightblue" d="M2074.7,-109.973C2117.18,-99.2528 2180.45,-83.2882 2216.72,-74.1368"/>
<polygon fill="midnightblue" stroke="midnightblue" points="2073.75,-106.603 2064.91,-112.444 2075.46,-113.39 2073.75,-106.603"/>
</g>
<!-- Node35&#45;&gt;Node31 -->
<g id="edge59" class="edge"><title>Node35&#45;&gt;Node31</title>
<path fill="none" stroke="midnightblue" d="M2031,-157.805C2031,-148.91 2031,-138.78 2031,-131.751"/>
<polygon fill="midnightblue" stroke="midnightblue" points="2027.5,-158.083 2031,-168.083 2034.5,-158.083 2027.5,-158.083"/>
</g>
<!-- Node36 -->
<g id="node36" class="node"><title>Node36</title>
<g id="a_node36"><a xlink:href="_window_8cpp.html" target="_top" xlink:title="Window.cpp">
<polygon fill="white" stroke="black" points="2095.5,-112.5 2095.5,-131.5 2166.5,-131.5 2166.5,-112.5 2095.5,-112.5"/>
<text text-anchor="middle" x="2131" y="-119.5" font-family="Helvetica,sans-Serif" font-size="10.00">Window.cpp</text>
</a>
</g>
</g>
<!-- Node35&#45;&gt;Node36 -->
<g id="edge60" class="edge"><title>Node35&#45;&gt;Node36</title>
<path fill="none" stroke="midnightblue" d="M2056.09,-163.453C2074.55,-153.483 2099.1,-140.228 2114.97,-131.655"/>
<polygon fill="midnightblue" stroke="midnightblue" points="2054.2,-160.493 2047.07,-168.324 2057.53,-166.652 2054.2,-160.493"/>
</g>
<!-- Node38&#45;&gt;Node35 -->
<g id="edge64" class="edge"><title>Node38&#45;&gt;Node35</title>
<path fill="none" stroke="midnightblue" d="M2078.45,-217.82C2066.62,-208.145 2051.71,-195.948 2041.8,-187.834"/>
<polygon fill="midnightblue" stroke="midnightblue" points="2076.44,-220.7 2086.4,-224.324 2080.87,-215.283 2076.44,-220.7"/>
</g>
<!-- Node39 -->
<g id="node39" class="node"><title>Node39</title>
<g id="a_node39"><a xlink:href="_mouse_event_8cpp.html" target="_top" xlink:title="MouseEvent.cpp">
<polygon fill="white" stroke="black" points="2085,-168.5 2085,-187.5 2175,-187.5 2175,-168.5 2085,-168.5"/>
<text text-anchor="middle" x="2130" y="-175.5" font-family="Helvetica,sans-Serif" font-size="10.00">MouseEvent.cpp</text>
</a>
</g>
</g>
<!-- Node38&#45;&gt;Node39 -->
<g id="edge65" class="edge"><title>Node38&#45;&gt;Node39</title>
<path fill="none" stroke="midnightblue" d="M2107.83,-215.275C2113.47,-206.045 2120.12,-195.17 2124.65,-187.751"/>
<polygon fill="midnightblue" stroke="midnightblue" points="2104.68,-213.725 2102.45,-224.083 2110.65,-217.375 2104.68,-213.725"/>
</g>
</g>
</svg>
        <g id="navigator" transform="translate(0 0)" fill="#404254">
                <rect fill="#f2f5e9" fill-opacity="0.5" stroke="#606060" stroke-width=".5" x="0" y="0" width="60" height="60"/>
                <use id="zoomplus" xlink:href="#zoomPlus" x="17" y="9" onmousedown="handleZoom(evt,'in')"/>
                <use id="zoomminus" xlink:href="#zoomMin" x="42" y="9" onmousedown="handleZoom(evt,'out')"/>
                <use id="reset" xlink:href="#resetDef" x="30" y="36" onmousedown="handleReset()"/>
                <g id="arrowUp" xlink:href="#dirArrow" transform="translate(30 24)" onmousedown="handlePan(0,-1)">
                  <use xlink:href="#rim" fill="#404040">
                        <set attributeName="fill" to="#808080" begin="arrowUp.mouseover" end="arrowUp.mouseout"/>
                  </use>
                  <path fill="none" stroke="white" stroke-width="1.5" d="M0,-3.0v7 M-2.5,-0.5L0,-3.0L2.5,-0.5"/>
                </g>
                <g id="arrowRight" xlink:href="#dirArrow" transform="rotate(90) translate(36 -43)" onmousedown="handlePan(1,0)">
                  <use xlink:href="#rim" fill="#404040">
                        <set attributeName="fill" to="#808080" begin="arrowRight.mouseover" end="arrowRight.mouseout"/>
                  </use>
                  <path fill="none" stroke="white" stroke-width="1.5" d="M0,-3.0v7 M-2.5,-0.5L0,-3.0L2.5,-0.5"/>
                </g>
                <g id="arrowDown" xlink:href="#dirArrow" transform="rotate(180) translate(-30 -48)" onmousedown="handlePan(0,1)">
                  <use xlink:href="#rim" fill="#404040">
                        <set attributeName="fill" to="#808080" begin="arrowDown.mouseover" end="arrowDown.mouseout"/>
                  </use>
                  <path fill="none" stroke="white" stroke-width="1.5" d="M0,-3.0v7 M-2.5,-0.5L0,-3.0L2.5,-0.5"/>
                </g>
                <g id="arrowLeft" xlink:href="#dirArrow" transform="rotate(270) translate(-36 17)" onmousedown="handlePan(-1,0)">
                  <use xlink:href="#rim" fill="#404040">
                        <set attributeName="fill" to="#808080" begin="arrowLeft.mouseover" end="arrowLeft.mouseout"/>
                  </use>
                  <path fill="none" stroke="white" stroke-width="1.5" d="M0,-3.0v7 M-2.5,-0.5L0,-3.0L2.5,-0.5"/>
                </g>
        </g>
        <svg viewBox="0 0 15 15" width="100%" height="30px" preserveAspectRatio="xMaxYMin meet">
         <g id="arrow_out" transform="scale(0.3 0.3)">
          <a xlink:href="_point_8hpp__dep__incl_org.svg" target="_base">
           <rect id="button" ry="5" rx="5" y="6" x="6" height="38" width="38"
                fill="#f2f5e9" fill-opacity="0.5" stroke="#606060" stroke-width="1.0"/>
           <path id="arrow"
             d="M 11.500037,31.436501 C 11.940474,20.09759 22.043105,11.32322 32.158766,21.979434 L 37.068811,17.246167 C 37.068811,17.246167 37.088388,32 37.088388,32 L 22.160133,31.978069 C 22.160133,31.978069 26.997745,27.140456 26.997745,27.140456 C 18.528582,18.264221 13.291696,25.230495 11.500037,31.436501 z"
             style="fill:#404040;"/>
          </a>
         </g>
        </svg>
</svg>
