<?xml version="1.0" encoding="UTF-8" standalone="no"?>
<!DOCTYPE svg PUBLIC "-//W3C//DTD SVG 1.1//EN"
 "http://www.w3.org/Graphics/SVG/1.1/DTD/svg11.dtd">
<!-- Generated by graphviz version 2.36.0 (20140111.2315)
 -->
<!-- Title: Point.hpp Pages: 1 -->
<svg width="690pt" height="84pt"
 viewBox="0.00 0.00 690.00 84.00" xmlns="http://www.w3.org/2000/svg" xmlns:xlink="http://www.w3.org/1999/xlink">
<g id="graph0" class="graph" transform="scale(1 1) rotate(0) translate(4 80)">
<title>Point.hpp</title>
<polygon fill="white" stroke="none" points="-4,4 -4,-80 686,-80 686,4 -4,4"/>
<!-- Node1 -->
<g id="node1" class="node"><title>Node1</title>
<polygon fill="#bfbfbf" stroke="black" points="433,-56.5 433,-75.5 491,-75.5 491,-56.5 433,-56.5"/>
<text text-anchor="middle" x="462" y="-63.5" font-family="Helvetica,sans-Serif" font-size="10.00">Point.hpp</text>
</g>
<!-- Node2 -->
<g id="node2" class="node"><title>Node2</title>
<polygon fill="white" stroke="#bfbfbf" points="-0.5,-0.5 -0.5,-19.5 100.5,-19.5 100.5,-0.5 -0.5,-0.5"/>
<text text-anchor="middle" x="50" y="-7.5" font-family="Helvetica,sans-Serif" font-size="10.00">boost/uuid/uuid.hpp</text>
</g>
<!-- Node1&#45;&gt;Node2 -->
<g id="edge1" class="edge"><title>Node1&#45;&gt;Node2</title>
<path fill="none" stroke="midnightblue" d="M432.766,-61.4808C373.992,-54.3586 237.077,-37.532 110.949,-20.1053"/>
<polygon fill="midnightblue" stroke="midnightblue" points="111.114,-16.5947 100.728,-18.6884 110.152,-23.5284 111.114,-16.5947"/>
</g>
<!-- Node3 -->
<g id="node3" class="node"><title>Node3</title>
<polygon fill="white" stroke="#bfbfbf" points="119,-0.5 119,-19.5 271,-19.5 271,-0.5 119,-0.5"/>
<text text-anchor="middle" x="195" y="-7.5" font-family="Helvetica,sans-Serif" font-size="10.00">boost/uuid/uuid_generators.hpp</text>
</g>
<!-- Node1&#45;&gt;Node3 -->
<g id="edge2" class="edge"><title>Node1&#45;&gt;Node3</title>
<path fill="none" stroke="midnightblue" d="M432.918,-59.1183C388.385,-50.1115 302.637,-32.7693 247.165,-21.5501"/>
<polygon fill="midnightblue" stroke="midnightblue" points="247.671,-18.0818 237.176,-19.5299 246.283,-24.9429 247.671,-18.0818"/>
</g>
<!-- Node4 -->
<g id="node4" class="node"><title>Node4</title>
<polygon fill="white" stroke="#bfbfbf" points="289.5,-0.5 289.5,-19.5 416.5,-19.5 416.5,-0.5 289.5,-0.5"/>
<text text-anchor="middle" x="353" y="-7.5" font-family="Helvetica,sans-Serif" font-size="10.00">boost/signals2/signal.hpp</text>
</g>
<!-- Node1&#45;&gt;Node4 -->
<g id="edge3" class="edge"><title>Node1&#45;&gt;Node4</title>
<path fill="none" stroke="midnightblue" d="M444.487,-56.324C426.928,-47.6247 399.669,-34.1202 379.469,-24.113"/>
<polygon fill="midnightblue" stroke="midnightblue" points="380.984,-20.9575 370.469,-19.6545 377.876,-27.23 380.984,-20.9575"/>
</g>
<!-- Node5 -->
<g id="node5" class="node"><title>Node5</title>
<polygon fill="white" stroke="#bfbfbf" points="435,-0.5 435,-19.5 489,-19.5 489,-0.5 435,-0.5"/>
<text text-anchor="middle" x="462" y="-7.5" font-family="Helvetica,sans-Serif" font-size="10.00">iostream</text>
</g>
<!-- Node1&#45;&gt;Node5 -->
<g id="edge4" class="edge"><title>Node1&#45;&gt;Node5</title>
<path fill="none" stroke="midnightblue" d="M462,-56.083C462,-49.0059 462,-38.8611 462,-29.9865"/>
<polygon fill="midnightblue" stroke="midnightblue" points="465.5,-29.751 462,-19.7511 458.5,-29.7511 465.5,-29.751"/>
</g>
<!-- Node6 -->
<g id="node6" class="node"><title>Node6</title>
<polygon fill="white" stroke="#bfbfbf" points="507.5,-0.5 507.5,-19.5 542.5,-19.5 542.5,-0.5 507.5,-0.5"/>
<text text-anchor="middle" x="525" y="-7.5" font-family="Helvetica,sans-Serif" font-size="10.00">map</text>
</g>
<!-- Node1&#45;&gt;Node6 -->
<g id="edge5" class="edge"><title>Node1&#45;&gt;Node6</title>
<path fill="none" stroke="midnightblue" d="M472.122,-56.324C481.526,-48.2631 495.744,-36.0765 507.069,-26.3695"/>
<polygon fill="midnightblue" stroke="midnightblue" points="509.379,-28.9993 514.694,-19.8339 504.823,-23.6844 509.379,-28.9993"/>
</g>
<!-- Node7 -->
<g id="node7" class="node"><title>Node7</title>
<polygon fill="white" stroke="#bfbfbf" points="561,-0.5 561,-19.5 605,-19.5 605,-0.5 561,-0.5"/>
<text text-anchor="middle" x="583" y="-7.5" font-family="Helvetica,sans-Serif" font-size="10.00">vector</text>
</g>
<!-- Node1&#45;&gt;Node7 -->
<g id="edge6" class="edge"><title>Node1&#45;&gt;Node7</title>
<path fill="none" stroke="midnightblue" d="M481.173,-56.4435C500.909,-47.6356 531.885,-33.8116 554.493,-23.722"/>
<polygon fill="midnightblue" stroke="midnightblue" points="556.211,-26.788 563.917,-19.5164 553.359,-20.3957 556.211,-26.788"/>
</g>
<!-- Node8 -->
<g id="node8" class="node"><title>Node8</title>
<polygon fill="white" stroke="#bfbfbf" points="623.5,-0.5 623.5,-19.5 682.5,-19.5 682.5,-0.5 623.5,-0.5"/>
<text text-anchor="middle" x="653" y="-7.5" font-family="Helvetica,sans-Serif" font-size="10.00">functional</text>
</g>
<!-- Node1&#45;&gt;Node8 -->
<g id="edge7" class="edge"><title>Node1&#45;&gt;Node8</title>
<path fill="none" stroke="midnightblue" d="M491.009,-56.7986C523.728,-47.5482 577.118,-32.4535 613.595,-22.1407"/>
<polygon fill="midnightblue" stroke="midnightblue" points="614.733,-25.4563 623.403,-19.3676 612.828,-18.7203 614.733,-25.4563"/>
</g>
</g>
</svg>
