<?xml version="1.0" encoding="UTF-8" standalone="no"?>
<!DOCTYPE svg PUBLIC "-//W3C//DTD SVG 1.1//EN"
 "http://www.w3.org/Graphics/SVG/1.1/DTD/svg11.dtd">
<!-- Generated by graphviz version 2.36.0 (20140111.2315)
 -->
<!-- Title: Point.cpp Pages: 1 -->
<svg width="545pt" height="140pt"
 viewBox="0.00 0.00 545.00 140.00" xmlns="http://www.w3.org/2000/svg" xmlns:xlink="http://www.w3.org/1999/xlink">
<g id="graph0" class="graph" transform="scale(1 1) rotate(0) translate(4 136)">
<title>Point.cpp</title>
<polygon fill="white" stroke="none" points="-4,4 -4,-136 541,-136 541,4 -4,4"/>
<!-- Node1 -->
<g id="node1" class="node"><title>Node1</title>
<polygon fill="#bfbfbf" stroke="black" points="208,-112.5 208,-131.5 266,-131.5 266,-112.5 208,-112.5"/>
<text text-anchor="middle" x="237" y="-119.5" font-family="Helvetica,sans-Serif" font-size="10.00">Point.cpp</text>
</g>
<!-- Node2 -->
<g id="node2" class="node"><title>Node2</title>
<g id="a_node2"><a xlink:href="_point_8hpp.html" target="_top" xlink:title="Classe point. ">
<polygon fill="white" stroke="black" points="266.5,-56.5 266.5,-75.5 367.5,-75.5 367.5,-56.5 266.5,-56.5"/>
<text text-anchor="middle" x="317" y="-63.5" font-family="Helvetica,sans-Serif" font-size="10.00">../include/Point.hpp</text>
</a>
</g>
</g>
<!-- Node1&#45;&gt;Node2 -->
<g id="edge1" class="edge"><title>Node1&#45;&gt;Node2</title>
<path fill="none" stroke="midnightblue" d="M249.853,-112.324C262.216,-103.979 281.13,-91.2122 295.737,-81.3524"/>
<polygon fill="midnightblue" stroke="midnightblue" points="297.848,-84.1503 304.179,-75.6545 293.932,-78.3483 297.848,-84.1503"/>
</g>
<!-- Node4 -->
<g id="node4" class="node"><title>Node4</title>
<polygon fill="white" stroke="#bfbfbf" points="0,-0.5 0,-19.5 152,-19.5 152,-0.5 0,-0.5"/>
<text text-anchor="middle" x="76" y="-7.5" font-family="Helvetica,sans-Serif" font-size="10.00">boost/uuid/uuid_generators.hpp</text>
</g>
<!-- Node1&#45;&gt;Node4 -->
<g id="edge8" class="edge"><title>Node1&#45;&gt;Node4</title>
<path fill="none" stroke="midnightblue" d="M224.367,-112.368C196.739,-93.4924 130.718,-48.385 96.8373,-25.2367"/>
<polygon fill="midnightblue" stroke="midnightblue" points="98.8061,-22.3429 88.5747,-19.5914 94.8571,-28.1227 98.8061,-22.3429"/>
</g>
<!-- Node3 -->
<g id="node3" class="node"><title>Node3</title>
<polygon fill="white" stroke="#bfbfbf" points="170.5,-0.5 170.5,-19.5 271.5,-19.5 271.5,-0.5 170.5,-0.5"/>
<text text-anchor="middle" x="221" y="-7.5" font-family="Helvetica,sans-Serif" font-size="10.00">boost/uuid/uuid.hpp</text>
</g>
<!-- Node2&#45;&gt;Node3 -->
<g id="edge2" class="edge"><title>Node2&#45;&gt;Node3</title>
<path fill="none" stroke="midnightblue" d="M301.576,-56.324C286.46,-47.8215 263.185,-34.7288 245.529,-24.7975"/>
<polygon fill="midnightblue" stroke="midnightblue" points="246.817,-21.5066 236.386,-19.6545 243.386,-27.6077 246.817,-21.5066"/>
</g>
<!-- Node2&#45;&gt;Node4 -->
<g id="edge3" class="edge"><title>Node2&#45;&gt;Node4</title>
<path fill="none" stroke="midnightblue" d="M278.813,-56.4435C236.859,-47.0431 169.406,-31.9291 123.929,-21.7393"/>
<polygon fill="midnightblue" stroke="midnightblue" points="124.532,-18.2876 114.009,-19.5164 123.001,-25.1183 124.532,-18.2876"/>
</g>
<!-- Node5 -->
<g id="node5" class="node"><title>Node5</title>
<polygon fill="white" stroke="#bfbfbf" points="290,-0.5 290,-19.5 344,-19.5 344,-0.5 290,-0.5"/>
<text text-anchor="middle" x="317" y="-7.5" font-family="Helvetica,sans-Serif" font-size="10.00">iostream</text>
</g>
<!-- Node2&#45;&gt;Node5 -->
<g id="edge4" class="edge"><title>Node2&#45;&gt;Node5</title>
<path fill="none" stroke="midnightblue" d="M317,-56.083C317,-49.0059 317,-38.8611 317,-29.9865"/>
<polygon fill="midnightblue" stroke="midnightblue" points="320.5,-29.751 317,-19.7511 313.5,-29.7511 320.5,-29.751"/>
</g>
<!-- Node6 -->
<g id="node6" class="node"><title>Node6</title>
<polygon fill="white" stroke="#bfbfbf" points="362.5,-0.5 362.5,-19.5 397.5,-19.5 397.5,-0.5 362.5,-0.5"/>
<text text-anchor="middle" x="380" y="-7.5" font-family="Helvetica,sans-Serif" font-size="10.00">map</text>
</g>
<!-- Node2&#45;&gt;Node6 -->
<g id="edge5" class="edge"><title>Node2&#45;&gt;Node6</title>
<path fill="none" stroke="midnightblue" d="M327.122,-56.324C336.526,-48.2631 350.744,-36.0765 362.069,-26.3695"/>
<polygon fill="midnightblue" stroke="midnightblue" points="364.379,-28.9993 369.694,-19.8339 359.823,-23.6844 364.379,-28.9993"/>
</g>
<!-- Node7 -->
<g id="node7" class="node"><title>Node7</title>
<polygon fill="white" stroke="#bfbfbf" points="416,-0.5 416,-19.5 460,-19.5 460,-0.5 416,-0.5"/>
<text text-anchor="middle" x="438" y="-7.5" font-family="Helvetica,sans-Serif" font-size="10.00">vector</text>
</g>
<!-- Node2&#45;&gt;Node7 -->
<g id="edge6" class="edge"><title>Node2&#45;&gt;Node7</title>
<path fill="none" stroke="midnightblue" d="M336.173,-56.4435C355.909,-47.6356 386.885,-33.8116 409.493,-23.722"/>
<polygon fill="midnightblue" stroke="midnightblue" points="411.211,-26.788 418.917,-19.5164 408.359,-20.3957 411.211,-26.788"/>
</g>
<!-- Node8 -->
<g id="node8" class="node"><title>Node8</title>
<polygon fill="white" stroke="#bfbfbf" points="478.5,-0.5 478.5,-19.5 537.5,-19.5 537.5,-0.5 478.5,-0.5"/>
<text text-anchor="middle" x="508" y="-7.5" font-family="Helvetica,sans-Serif" font-size="10.00">functional</text>
</g>
<!-- Node2&#45;&gt;Node8 -->
<g id="edge7" class="edge"><title>Node2&#45;&gt;Node8</title>
<path fill="none" stroke="midnightblue" d="M347.265,-56.4435C380.051,-47.1739 432.489,-32.3487 468.5,-22.1675"/>
<polygon fill="midnightblue" stroke="midnightblue" points="469.521,-25.5162 478.191,-19.4275 467.616,-18.7802 469.521,-25.5162"/>
</g>
</g>
</svg>
