<?xml version="1.0" encoding="UTF-8" standalone="no"?>
<!DOCTYPE svg PUBLIC "-//W3C//DTD SVG 1.1//EN"
 "http://www.w3.org/Graphics/SVG/1.1/DTD/svg11.dtd">
<!-- Generated by graphviz version 2.36.0 (20140111.2315)
 -->
<!-- Title: ToolsWindow.hpp Pages: 1 -->
<!--zoomable 476 -->
<svg id="main" version="1.1" xmlns="http://www.w3.org/2000/svg" xmlns:xlink="http://www.w3.org/1999/xlink" xml:space="preserve" onload="init(evt)">
<style type="text/css"><![CDATA[
.edge:hover path { stroke: red; }
.edge:hover polygon { stroke: red; fill: red; }
]]></style>
<script type="text/javascript"><![CDATA[
var edges = document.getElementsByTagName('g');
if (edges && edges.length) {
  for (var i=0;i<edges.length;i++) {
    if (edges[i].id.substr(0,4)=='edge') {
      edges[i].setAttribute('class','edge');
    }
  }
}
]]></script>
        <defs>
                <circle id="rim" cx="0" cy="0" r="7"/>
                <circle id="rim2" cx="0" cy="0" r="3.5"/>
                <g id="zoomPlus">
                        <use xlink:href="#rim" fill="#404040">
                                <set attributeName="fill" to="#808080" begin="zoomplus.mouseover" end="zoomplus.mouseout"/>
                        </use>
                        <path d="M-4,0h8M0,-4v8" fill="none" stroke="white" stroke-width="1.5" pointer-events="none"/>
                </g>
                <g id="zoomMin">
                        <use xlink:href="#rim" fill="#404040">
                                <set attributeName="fill" to="#808080" begin="zoomminus.mouseover" end="zoomminus.mouseout"/>
                        </use>
                        <path d="M-4,0h8" fill="none" stroke="white" stroke-width="1.5" pointer-events="none"/>
                </g>
                <g id="dirArrow">
                        <path fill="none" stroke="white" stroke-width="1.5" d="M0,-3.0v7 M-2.5,-0.5L0,-3.0L2.5,-0.5"/>
                </g>
               <g id="resetDef">
                       <use xlink:href="#rim2" fill="#404040">
                               <set attributeName="fill" to="#808080" begin="reset.mouseover" end="reset.mouseout"/>
                       </use>
               </g>
        </defs>

<script type="text/javascript">
var viewWidth = 1151;
var viewHeight = 476;
var sectionId = 'dynsection-0';
</script>
<script xlink:href="svgpan.js"/>
<svg id="graph" class="graph">
<g id="viewport">
<title>ToolsWindow.hpp</title>
<polygon fill="white" stroke="none" points="-4,4 -4,-472 1147,-472 1147,4 -4,4"/>
<!-- Node1 -->
<g id="node1" class="node"><title>Node1</title>
<polygon fill="#bfbfbf" stroke="black" points="488.5,-448.5 488.5,-467.5 583.5,-467.5 583.5,-448.5 488.5,-448.5"/>
<text text-anchor="middle" x="536" y="-455.5" font-family="Helvetica,sans-Serif" font-size="10.00">ToolsWindow.hpp</text>
</g>
<!-- Node2 -->
<g id="node2" class="node"><title>Node2</title>
<g id="a_node2"><a xlink:href="_layout_8hpp_source.html" target="_top" xlink:title="Layout.hpp">
<polygon fill="white" stroke="black" points="503.5,-392.5 503.5,-411.5 568.5,-411.5 568.5,-392.5 503.5,-392.5"/>
<text text-anchor="middle" x="536" y="-399.5" font-family="Helvetica,sans-Serif" font-size="10.00">Layout.hpp</text>
</a>
</g>
</g>
<!-- Node1&#45;&gt;Node2 -->
<g id="edge1" class="edge"><title>Node1&#45;&gt;Node2</title>
<path fill="none" stroke="midnightblue" d="M536,-448.083C536,-441.006 536,-430.861 536,-421.986"/>
<polygon fill="midnightblue" stroke="midnightblue" points="539.5,-421.751 536,-411.751 532.5,-421.751 539.5,-421.751"/>
</g>
<!-- Node3 -->
<g id="node3" class="node"><title>Node3</title>
<g id="a_node3"><a xlink:href="_widget_8hpp_source.html" target="_top" xlink:title="Widget.hpp">
<polygon fill="white" stroke="black" points="503,-336.5 503,-355.5 569,-355.5 569,-336.5 503,-336.5"/>
<text text-anchor="middle" x="536" y="-343.5" font-family="Helvetica,sans-Serif" font-size="10.00">Widget.hpp</text>
</a>
</g>
</g>
<!-- Node2&#45;&gt;Node3 -->
<g id="edge2" class="edge"><title>Node2&#45;&gt;Node3</title>
<path fill="none" stroke="midnightblue" d="M536,-392.083C536,-385.006 536,-374.861 536,-365.986"/>
<polygon fill="midnightblue" stroke="midnightblue" points="539.5,-365.751 536,-355.751 532.5,-365.751 539.5,-365.751"/>
</g>
<!-- Node4 -->
<g id="node4" class="node"><title>Node4</title>
<polygon fill="white" stroke="#bfbfbf" points="356,-224.5 356,-243.5 400,-243.5 400,-224.5 356,-224.5"/>
<text text-anchor="middle" x="378" y="-231.5" font-family="Helvetica,sans-Serif" font-size="10.00">cmath</text>
</g>
<!-- Node3&#45;&gt;Node4 -->
<g id="edge3" class="edge"><title>Node3&#45;&gt;Node4</title>
<path fill="none" stroke="midnightblue" d="M502.765,-342.902C471.331,-339.147 424.929,-328.742 397,-300 385.104,-287.758 380.59,-268.495 378.911,-254.112"/>
<polygon fill="midnightblue" stroke="midnightblue" points="382.377,-253.538 378.086,-243.851 375.399,-254.099 382.377,-253.538"/>
</g>
<!-- Node5 -->
<g id="node5" class="node"><title>Node5</title>
<polygon fill="white" stroke="#bfbfbf" points="543.5,-280.5 543.5,-299.5 670.5,-299.5 670.5,-280.5 543.5,-280.5"/>
<text text-anchor="middle" x="607" y="-287.5" font-family="Helvetica,sans-Serif" font-size="10.00">boost/signals2/signal.hpp</text>
</g>
<!-- Node3&#45;&gt;Node5 -->
<g id="edge4" class="edge"><title>Node3&#45;&gt;Node5</title>
<path fill="none" stroke="midnightblue" d="M547.407,-336.324C558.109,-328.185 574.341,-315.839 587.163,-306.087"/>
<polygon fill="midnightblue" stroke="midnightblue" points="589.544,-308.673 595.385,-299.834 585.307,-303.102 589.544,-308.673"/>
</g>
<!-- Node6 -->
<g id="node6" class="node"><title>Node6</title>
<polygon fill="white" stroke="#bfbfbf" points="689,-280.5 689,-299.5 769,-299.5 769,-280.5 689,-280.5"/>
<text text-anchor="middle" x="729" y="-287.5" font-family="Helvetica,sans-Serif" font-size="10.00">boost/bind.hpp</text>
</g>
<!-- Node3&#45;&gt;Node6 -->
<g id="edge5" class="edge"><title>Node3&#45;&gt;Node6</title>
<path fill="none" stroke="midnightblue" d="M566.581,-336.444C599.615,-327.201 652.388,-312.436 688.766,-302.257"/>
<polygon fill="midnightblue" stroke="midnightblue" points="689.875,-305.582 698.562,-299.516 687.988,-298.84 689.875,-305.582"/>
</g>
<!-- Node7 -->
<g id="node7" class="node"><title>Node7</title>
<g id="a_node7"><a xlink:href="_graphics_rectangle_8hpp_source.html" target="_top" xlink:title="GraphicsRectangle.hpp">
<polygon fill="white" stroke="black" points="406.5,-280.5 406.5,-299.5 525.5,-299.5 525.5,-280.5 406.5,-280.5"/>
<text text-anchor="middle" x="466" y="-287.5" font-family="Helvetica,sans-Serif" font-size="10.00">GraphicsRectangle.hpp</text>
</a>
</g>
</g>
<!-- Node3&#45;&gt;Node7 -->
<g id="edge6" class="edge"><title>Node3&#45;&gt;Node7</title>
<path fill="none" stroke="midnightblue" d="M524.753,-336.324C514.203,-328.185 498.199,-315.839 485.558,-306.087"/>
<polygon fill="midnightblue" stroke="midnightblue" points="487.507,-303.171 477.451,-299.834 483.231,-308.713 487.507,-303.171"/>
</g>
<!-- Node7&#45;&gt;Node4 -->
<g id="edge7" class="edge"><title>Node7&#45;&gt;Node4</title>
<path fill="none" stroke="midnightblue" d="M451.861,-280.324C438.134,-271.9 417.064,-258.971 400.936,-249.074"/>
<polygon fill="midnightblue" stroke="midnightblue" points="402.457,-245.902 392.104,-243.655 398.796,-251.868 402.457,-245.902"/>
</g>
<!-- Node8 -->
<g id="node8" class="node"><title>Node8</title>
<g id="a_node8"><a xlink:href="_graphics_item_8hpp_source.html" target="_top" xlink:title="GraphicsItem.hpp">
<polygon fill="white" stroke="black" points="419,-224.5 419,-243.5 513,-243.5 513,-224.5 419,-224.5"/>
<text text-anchor="middle" x="466" y="-231.5" font-family="Helvetica,sans-Serif" font-size="10.00">GraphicsItem.hpp</text>
</a>
</g>
</g>
<!-- Node7&#45;&gt;Node8 -->
<g id="edge8" class="edge"><title>Node7&#45;&gt;Node8</title>
<path fill="none" stroke="midnightblue" d="M466,-280.083C466,-273.006 466,-262.861 466,-253.986"/>
<polygon fill="midnightblue" stroke="midnightblue" points="469.5,-253.751 466,-243.751 462.5,-253.751 469.5,-253.751"/>
</g>
<!-- Node9 -->
<g id="node9" class="node"><title>Node9</title>
<polygon fill="white" stroke="#bfbfbf" points="0,-56.5 0,-75.5 44,-75.5 44,-56.5 0,-56.5"/>
<text text-anchor="middle" x="22" y="-63.5" font-family="Helvetica,sans-Serif" font-size="10.00">vector</text>
</g>
<!-- Node8&#45;&gt;Node9 -->
<g id="edge9" class="edge"><title>Node8&#45;&gt;Node9</title>
<path fill="none" stroke="midnightblue" d="M418.956,-225.58C344.184,-213.731 205.535,-191.508 195,-188 143.701,-170.917 130.629,-163.936 87,-132 67.5909,-117.793 48.5055,-97.784 36.0902,-83.7296"/>
<polygon fill="midnightblue" stroke="midnightblue" points="38.4673,-81.1276 29.2786,-75.8532 33.1726,-85.7065 38.4673,-81.1276"/>
</g>
<!-- Node10 -->
<g id="node10" class="node"><title>Node10</title>
<polygon fill="white" stroke="#bfbfbf" points="448.5,-168.5 448.5,-187.5 483.5,-187.5 483.5,-168.5 448.5,-168.5"/>
<text text-anchor="middle" x="466" y="-175.5" font-family="Helvetica,sans-Serif" font-size="10.00">map</text>
</g>
<!-- Node8&#45;&gt;Node10 -->
<g id="edge10" class="edge"><title>Node8&#45;&gt;Node10</title>
<path fill="none" stroke="midnightblue" d="M466,-224.083C466,-217.006 466,-206.861 466,-197.986"/>
<polygon fill="midnightblue" stroke="midnightblue" points="469.5,-197.751 466,-187.751 462.5,-197.751 469.5,-197.751"/>
</g>
<!-- Node11 -->
<g id="node11" class="node"><title>Node11</title>
<polygon fill="white" stroke="#bfbfbf" points="62,-56.5 62,-75.5 114,-75.5 114,-56.5 62,-56.5"/>
<text text-anchor="middle" x="88" y="-63.5" font-family="Helvetica,sans-Serif" font-size="10.00">memory</text>
</g>
<!-- Node8&#45;&gt;Node11 -->
<g id="edge11" class="edge"><title>Node8&#45;&gt;Node11</title>
<path fill="none" stroke="midnightblue" d="M425.608,-224.46C335.032,-204.946 121.886,-156.862 100,-132 88.9912,-119.494 86.6097,-100.267 86.6107,-85.9638"/>
<polygon fill="midnightblue" stroke="midnightblue" points="90.1156,-85.8989 87.0029,-75.7717 83.1208,-85.6296 90.1156,-85.8989"/>
</g>
<!-- Node12 -->
<g id="node12" class="node"><title>Node12</title>
<polygon fill="white" stroke="#bfbfbf" points="502,-168.5 502,-187.5 564,-187.5 564,-168.5 502,-168.5"/>
<text text-anchor="middle" x="533" y="-175.5" font-family="Helvetica,sans-Serif" font-size="10.00">type_traits</text>
</g>
<!-- Node8&#45;&gt;Node12 -->
<g id="edge12" class="edge"><title>Node8&#45;&gt;Node12</title>
<path fill="none" stroke="midnightblue" d="M476.765,-224.324C486.766,-216.263 501.887,-204.077 513.93,-194.369"/>
<polygon fill="midnightblue" stroke="midnightblue" points="516.45,-196.834 522.039,-187.834 512.057,-191.384 516.45,-196.834"/>
</g>
<!-- Node13 -->
<g id="node13" class="node"><title>Node13</title>
<g id="a_node13"><a xlink:href="_color_8hpp.html" target="_top" xlink:title="Classe Color. ">
<polygon fill="white" stroke="black" points="482.5,-112.5 482.5,-131.5 541.5,-131.5 541.5,-112.5 482.5,-112.5"/>
<text text-anchor="middle" x="512" y="-119.5" font-family="Helvetica,sans-Serif" font-size="10.00">Color.hpp</text>
</a>
</g>
</g>
<!-- Node8&#45;&gt;Node13 -->
<g id="edge13" class="edge"><title>Node8&#45;&gt;Node13</title>
<path fill="none" stroke="midnightblue" d="M457.439,-224.293C445.982,-211.538 428.278,-187.205 439,-168 447.156,-153.391 462.22,-142.936 476.554,-135.804"/>
<polygon fill="midnightblue" stroke="midnightblue" points="478.146,-138.924 485.789,-131.586 475.238,-132.557 478.146,-138.924"/>
</g>
<!-- Node17 -->
<g id="node17" class="node"><title>Node17</title>
<g id="a_node17"><a xlink:href="_canvas_8hpp_source.html" target="_top" xlink:title="Canvas.hpp">
<polygon fill="white" stroke="black" points="284.5,-168.5 284.5,-187.5 353.5,-187.5 353.5,-168.5 284.5,-168.5"/>
<text text-anchor="middle" x="319" y="-175.5" font-family="Helvetica,sans-Serif" font-size="10.00">Canvas.hpp</text>
</a>
</g>
</g>
<!-- Node8&#45;&gt;Node17 -->
<g id="edge17" class="edge"><title>Node8&#45;&gt;Node17</title>
<path fill="none" stroke="midnightblue" d="M442.707,-224.444C418.193,-215.438 379.404,-201.189 351.8,-191.049"/>
<polygon fill="midnightblue" stroke="midnightblue" points="352.777,-187.679 342.184,-187.516 350.363,-194.25 352.777,-187.679"/>
</g>
<!-- Node24 -->
<g id="node24" class="node"><title>Node24</title>
<g id="a_node24"><a xlink:href="_event_8hpp.html" target="_top" xlink:title="Classe Event. ">
<polygon fill="white" stroke="black" points="403.5,-112.5 403.5,-131.5 464.5,-131.5 464.5,-112.5 403.5,-112.5"/>
<text text-anchor="middle" x="434" y="-119.5" font-family="Helvetica,sans-Serif" font-size="10.00">Event.hpp</text>
</a>
</g>
</g>
<!-- Node8&#45;&gt;Node24 -->
<g id="edge30" class="edge"><title>Node8&#45;&gt;Node24</title>
<path fill="none" stroke="midnightblue" d="M446.704,-224.48C432.571,-217.081 414.443,-204.887 406,-188 397.886,-171.773 408.447,-152.64 418.84,-139.353"/>
<polygon fill="midnightblue" stroke="midnightblue" points="421.653,-141.447 425.447,-131.554 416.312,-136.922 421.653,-141.447"/>
</g>
<!-- Node25 -->
<g id="node25" class="node"><title>Node25</title>
<polygon fill="white" stroke="#bfbfbf" points="582.5,-168.5 582.5,-187.5 683.5,-187.5 683.5,-168.5 582.5,-168.5"/>
<text text-anchor="middle" x="633" y="-175.5" font-family="Helvetica,sans-Serif" font-size="10.00">boost/uuid/uuid.hpp</text>
</g>
<!-- Node8&#45;&gt;Node25 -->
<g id="edge33" class="edge"><title>Node8&#45;&gt;Node25</title>
<path fill="none" stroke="midnightblue" d="M492.462,-224.444C520.678,-215.32 565.54,-200.813 596.968,-190.651"/>
<polygon fill="midnightblue" stroke="midnightblue" points="598.224,-193.923 606.662,-187.516 596.07,-187.263 598.224,-193.923"/>
</g>
<!-- Node26 -->
<g id="node26" class="node"><title>Node26</title>
<polygon fill="white" stroke="#bfbfbf" points="702,-168.5 702,-187.5 854,-187.5 854,-168.5 702,-168.5"/>
<text text-anchor="middle" x="778" y="-175.5" font-family="Helvetica,sans-Serif" font-size="10.00">boost/uuid/uuid_generators.hpp</text>
</g>
<!-- Node8&#45;&gt;Node26 -->
<g id="edge34" class="edge"><title>Node8&#45;&gt;Node26</title>
<path fill="none" stroke="midnightblue" d="M513.047,-224.857C568.003,-215.346 658.99,-199.598 718.724,-189.259"/>
<polygon fill="midnightblue" stroke="midnightblue" points="719.507,-192.676 728.764,-187.522 718.314,-185.778 719.507,-192.676"/>
</g>
<!-- Node27 -->
<g id="node27" class="node"><title>Node27</title>
<polygon fill="white" stroke="#bfbfbf" points="872,-168.5 872,-187.5 986,-187.5 986,-168.5 872,-168.5"/>
<text text-anchor="middle" x="929" y="-175.5" font-family="Helvetica,sans-Serif" font-size="10.00">boost/uuid/uuid_io.hpp</text>
</g>
<!-- Node8&#45;&gt;Node27 -->
<g id="edge35" class="edge"><title>Node8&#45;&gt;Node27</title>
<path fill="none" stroke="midnightblue" d="M513.098,-228.011C585.594,-220.254 729.167,-204.589 861.458,-188.169"/>
<polygon fill="midnightblue" stroke="midnightblue" points="862.282,-191.594 871.773,-186.884 861.417,-184.647 862.282,-191.594"/>
</g>
<!-- Node28 -->
<g id="node28" class="node"><title>Node28</title>
<polygon fill="white" stroke="#bfbfbf" points="1004.5,-168.5 1004.5,-187.5 1143.5,-187.5 1143.5,-168.5 1004.5,-168.5"/>
<text text-anchor="middle" x="1074" y="-175.5" font-family="Helvetica,sans-Serif" font-size="10.00">boost/core/noncopyable.hpp</text>
</g>
<!-- Node8&#45;&gt;Node28 -->
<g id="edge36" class="edge"><title>Node8&#45;&gt;Node28</title>
<path fill="none" stroke="midnightblue" d="M513.103,-229.447C603.895,-222.501 809.682,-206.277 994.07,-188.066"/>
<polygon fill="midnightblue" stroke="midnightblue" points="994.619,-191.529 1004.22,-187.059 993.928,-184.563 994.619,-191.529"/>
</g>
<!-- Node14 -->
<g id="node14" class="node"><title>Node14</title>
<polygon fill="white" stroke="#bfbfbf" points="551,-56.5 551,-75.5 597,-75.5 597,-56.5 551,-56.5"/>
<text text-anchor="middle" x="574" y="-63.5" font-family="Helvetica,sans-Serif" font-size="10.00">cstdint</text>
</g>
<!-- Node13&#45;&gt;Node14 -->
<g id="edge14" class="edge"><title>Node13&#45;&gt;Node14</title>
<path fill="none" stroke="midnightblue" d="M521.961,-112.324C531.127,-104.341 544.937,-92.3128 556.028,-82.6529"/>
<polygon fill="midnightblue" stroke="midnightblue" points="558.615,-85.041 563.857,-75.8339 554.018,-79.7624 558.615,-85.041"/>
</g>
<!-- Node15 -->
<g id="node15" class="node"><title>Node15</title>
<polygon fill="white" stroke="#bfbfbf" points="491.5,-56.5 491.5,-75.5 532.5,-75.5 532.5,-56.5 491.5,-56.5"/>
<text text-anchor="middle" x="512" y="-63.5" font-family="Helvetica,sans-Serif" font-size="10.00">string</text>
</g>
<!-- Node13&#45;&gt;Node15 -->
<g id="edge15" class="edge"><title>Node13&#45;&gt;Node15</title>
<path fill="none" stroke="midnightblue" d="M512,-112.083C512,-105.006 512,-94.8611 512,-85.9865"/>
<polygon fill="midnightblue" stroke="midnightblue" points="515.5,-85.751 512,-75.7511 508.5,-85.7511 515.5,-85.751"/>
</g>
<!-- Node16 -->
<g id="node16" class="node"><title>Node16</title>
<polygon fill="white" stroke="#bfbfbf" points="365,-56.5 365,-75.5 473,-75.5 473,-56.5 365,-56.5"/>
<text text-anchor="middle" x="419" y="-63.5" font-family="Helvetica,sans-Serif" font-size="10.00">ez&#45;lib/ez&#45;draw++.hpp</text>
</g>
<!-- Node13&#45;&gt;Node16 -->
<g id="edge16" class="edge"><title>Node13&#45;&gt;Node16</title>
<path fill="none" stroke="midnightblue" d="M497.058,-112.324C482.415,-103.822 459.866,-90.7288 442.762,-80.7975"/>
<polygon fill="midnightblue" stroke="midnightblue" points="444.31,-77.6491 433.905,-75.6545 440.795,-83.7027 444.31,-77.6491"/>
</g>
<!-- Node17&#45;&gt;Node13 -->
<g id="edge20" class="edge"><title>Node17&#45;&gt;Node13</title>
<path fill="none" stroke="midnightblue" d="M349.581,-168.444C382.809,-159.147 436.009,-144.262 472.406,-134.078"/>
<polygon fill="midnightblue" stroke="midnightblue" points="473.509,-137.404 482.196,-131.339 471.623,-130.663 473.509,-137.404"/>
</g>
<!-- Node17&#45;&gt;Node16 -->
<g id="edge19" class="edge"><title>Node17&#45;&gt;Node16</title>
<path fill="none" stroke="midnightblue" d="M326.847,-168.368C343.569,-149.974 382.935,-106.671 404.407,-83.0519"/>
<polygon fill="midnightblue" stroke="midnightblue" points="407.053,-85.3452 411.19,-75.5914 401.873,-80.6365 407.053,-85.3452"/>
</g>
<!-- Node18 -->
<g id="node18" class="node"><title>Node18</title>
<polygon fill="white" stroke="#bfbfbf" points="185,-112.5 185,-131.5 273,-131.5 273,-112.5 185,-112.5"/>
<text text-anchor="middle" x="229" y="-119.5" font-family="Helvetica,sans-Serif" font-size="10.00">boost/locale.hpp</text>
</g>
<!-- Node17&#45;&gt;Node18 -->
<g id="edge18" class="edge"><title>Node17&#45;&gt;Node18</title>
<path fill="none" stroke="midnightblue" d="M304.54,-168.324C290.5,-159.9 268.952,-146.971 252.457,-137.074"/>
<polygon fill="midnightblue" stroke="midnightblue" points="253.8,-133.798 243.424,-131.655 250.198,-139.801 253.8,-133.798"/>
</g>
<!-- Node19 -->
<g id="node19" class="node"><title>Node19</title>
<g id="a_node19"><a xlink:href="_point_8hpp.html" target="_top" xlink:title="Classe point. ">
<polygon fill="white" stroke="black" points="109,-112.5 109,-131.5 167,-131.5 167,-112.5 109,-112.5"/>
<text text-anchor="middle" x="138" y="-119.5" font-family="Helvetica,sans-Serif" font-size="10.00">Point.hpp</text>
</a>
</g>
</g>
<!-- Node17&#45;&gt;Node19 -->
<g id="edge21" class="edge"><title>Node17&#45;&gt;Node19</title>
<path fill="none" stroke="midnightblue" d="M290.32,-168.444C259.473,-159.241 210.272,-144.562 176.171,-134.388"/>
<polygon fill="midnightblue" stroke="midnightblue" points="177.129,-131.021 166.546,-131.516 175.128,-137.729 177.129,-131.021"/>
</g>
<!-- Node23 -->
<g id="node23" class="node"><title>Node23</title>
<g id="a_node23"><a xlink:href="_font_8hpp_source.html" target="_top" xlink:title="Font.hpp">
<polygon fill="white" stroke="black" points="291.5,-112.5 291.5,-131.5 346.5,-131.5 346.5,-112.5 291.5,-112.5"/>
<text text-anchor="middle" x="319" y="-119.5" font-family="Helvetica,sans-Serif" font-size="10.00">Font.hpp</text>
</a>
</g>
</g>
<!-- Node17&#45;&gt;Node23 -->
<g id="edge28" class="edge"><title>Node17&#45;&gt;Node23</title>
<path fill="none" stroke="midnightblue" d="M319,-168.083C319,-161.006 319,-150.861 319,-141.986"/>
<polygon fill="midnightblue" stroke="midnightblue" points="322.5,-141.751 319,-131.751 315.5,-141.751 322.5,-141.751"/>
</g>
<!-- Node19&#45;&gt;Node9 -->
<g id="edge23" class="edge"><title>Node19&#45;&gt;Node9</title>
<path fill="none" stroke="midnightblue" d="M119.619,-112.444C100.784,-103.675 71.2688,-89.9355 49.6207,-79.8579"/>
<polygon fill="midnightblue" stroke="midnightblue" points="50.8375,-76.5637 40.2946,-75.5164 47.8833,-82.9098 50.8375,-76.5637"/>
</g>
<!-- Node19&#45;&gt;Node11 -->
<g id="edge24" class="edge"><title>Node19&#45;&gt;Node11</title>
<path fill="none" stroke="midnightblue" d="M129.744,-112.083C122.535,-104.298 111.89,-92.8015 103.154,-83.3665"/>
<polygon fill="midnightblue" stroke="midnightblue" points="105.465,-80.7108 96.1028,-75.7511 100.329,-85.4666 105.465,-80.7108"/>
</g>
<!-- Node20 -->
<g id="node20" class="node"><title>Node20</title>
<polygon fill="white" stroke="#bfbfbf" points="292,-56.5 292,-75.5 346,-75.5 346,-56.5 292,-56.5"/>
<text text-anchor="middle" x="319" y="-63.5" font-family="Helvetica,sans-Serif" font-size="10.00">iostream</text>
</g>
<!-- Node19&#45;&gt;Node20 -->
<g id="edge22" class="edge"><title>Node19&#45;&gt;Node20</title>
<path fill="none" stroke="midnightblue" d="M166.68,-112.444C197.98,-103.105 248.18,-88.1287 282.324,-77.9421"/>
<polygon fill="midnightblue" stroke="midnightblue" points="283.35,-81.2883 291.932,-75.0755 281.349,-74.5805 283.35,-81.2883"/>
</g>
<!-- Node21 -->
<g id="node21" class="node"><title>Node21</title>
<g id="a_node21"><a xlink:href="_group_points_8hpp_source.html" target="_top" xlink:title="GroupPoints.hpp">
<polygon fill="white" stroke="black" points="132.5,-56.5 132.5,-75.5 221.5,-75.5 221.5,-56.5 132.5,-56.5"/>
<text text-anchor="middle" x="177" y="-63.5" font-family="Helvetica,sans-Serif" font-size="10.00">GroupPoints.hpp</text>
</a>
</g>
</g>
<!-- Node19&#45;&gt;Node21 -->
<g id="edge25" class="edge"><title>Node19&#45;&gt;Node21</title>
<path fill="none" stroke="midnightblue" d="M139.274,-112.083C143.254,-104.298 151.192,-92.8015 158.918,-83.3665"/>
<polygon fill="midnightblue" stroke="midnightblue" points="161.622,-85.5914 165.549,-75.7511 156.343,-80.9948 161.622,-85.5914"/>
</g>
<!-- Node21&#45;&gt;Node19 -->
<g id="edge27" class="edge"><title>Node21&#45;&gt;Node19</title>
<path fill="none" stroke="midnightblue" d="M175.811,-75.7511C171.887,-83.4827 163.976,-94.9673 156.247,-104.431"/>
<polygon fill="midnightblue" stroke="midnightblue" points="153.518,-102.236 149.606,-112.083 158.804,-106.825 153.518,-102.236"/>
</g>
<!-- Node22 -->
<g id="node22" class="node"><title>Node22</title>
<polygon fill="white" stroke="#bfbfbf" points="147.5,-0.5 147.5,-19.5 206.5,-19.5 206.5,-0.5 147.5,-0.5"/>
<text text-anchor="middle" x="177" y="-7.5" font-family="Helvetica,sans-Serif" font-size="10.00">functional</text>
</g>
<!-- Node21&#45;&gt;Node22 -->
<g id="edge26" class="edge"><title>Node21&#45;&gt;Node22</title>
<path fill="none" stroke="midnightblue" d="M177,-56.083C177,-49.0059 177,-38.8611 177,-29.9865"/>
<polygon fill="midnightblue" stroke="midnightblue" points="180.5,-29.751 177,-19.7511 173.5,-29.7511 180.5,-29.751"/>
</g>
<!-- Node23&#45;&gt;Node20 -->
<g id="edge29" class="edge"><title>Node23&#45;&gt;Node20</title>
<path fill="none" stroke="midnightblue" d="M319,-112.083C319,-105.006 319,-94.8611 319,-85.9865"/>
<polygon fill="midnightblue" stroke="midnightblue" points="322.5,-85.751 319,-75.7511 315.5,-85.7511 322.5,-85.751"/>
</g>
<!-- Node24&#45;&gt;Node16 -->
<g id="edge32" class="edge"><title>Node24&#45;&gt;Node16</title>
<path fill="none" stroke="midnightblue" d="M431.523,-112.083C429.514,-104.849 426.614,-94.4087 424.11,-85.3968"/>
<polygon fill="midnightblue" stroke="midnightblue" points="427.48,-84.4495 421.431,-75.7511 420.735,-86.323 427.48,-84.4495"/>
</g>
<!-- Node24&#45;&gt;Node20 -->
<g id="edge31" class="edge"><title>Node24&#45;&gt;Node20</title>
<path fill="none" stroke="midnightblue" d="M415.778,-112.444C397.104,-103.675 367.844,-89.9355 346.383,-79.8579"/>
<polygon fill="midnightblue" stroke="midnightblue" points="347.676,-76.5988 337.137,-75.5164 344.701,-82.935 347.676,-76.5988"/>
</g>
</g>
</svg>
        <g id="navigator" transform="translate(0 0)" fill="#404254">
                <rect fill="#f2f5e9" fill-opacity="0.5" stroke="#606060" stroke-width=".5" x="0" y="0" width="60" height="60"/>
                <use id="zoomplus" xlink:href="#zoomPlus" x="17" y="9" onmousedown="handleZoom(evt,'in')"/>
                <use id="zoomminus" xlink:href="#zoomMin" x="42" y="9" onmousedown="handleZoom(evt,'out')"/>
                <use id="reset" xlink:href="#resetDef" x="30" y="36" onmousedown="handleReset()"/>
                <g id="arrowUp" xlink:href="#dirArrow" transform="translate(30 24)" onmousedown="handlePan(0,-1)">
                  <use xlink:href="#rim" fill="#404040">
                        <set attributeName="fill" to="#808080" begin="arrowUp.mouseover" end="arrowUp.mouseout"/>
                  </use>
                  <path fill="none" stroke="white" stroke-width="1.5" d="M0,-3.0v7 M-2.5,-0.5L0,-3.0L2.5,-0.5"/>
                </g>
                <g id="arrowRight" xlink:href="#dirArrow" transform="rotate(90) translate(36 -43)" onmousedown="handlePan(1,0)">
                  <use xlink:href="#rim" fill="#404040">
                        <set attributeName="fill" to="#808080" begin="arrowRight.mouseover" end="arrowRight.mouseout"/>
                  </use>
                  <path fill="none" stroke="white" stroke-width="1.5" d="M0,-3.0v7 M-2.5,-0.5L0,-3.0L2.5,-0.5"/>
                </g>
                <g id="arrowDown" xlink:href="#dirArrow" transform="rotate(180) translate(-30 -48)" onmousedown="handlePan(0,1)">
                  <use xlink:href="#rim" fill="#404040">
                        <set attributeName="fill" to="#808080" begin="arrowDown.mouseover" end="arrowDown.mouseout"/>
                  </use>
                  <path fill="none" stroke="white" stroke-width="1.5" d="M0,-3.0v7 M-2.5,-0.5L0,-3.0L2.5,-0.5"/>
                </g>
                <g id="arrowLeft" xlink:href="#dirArrow" transform="rotate(270) translate(-36 17)" onmousedown="handlePan(-1,0)">
                  <use xlink:href="#rim" fill="#404040">
                        <set attributeName="fill" to="#808080" begin="arrowLeft.mouseover" end="arrowLeft.mouseout"/>
                  </use>
                  <path fill="none" stroke="white" stroke-width="1.5" d="M0,-3.0v7 M-2.5,-0.5L0,-3.0L2.5,-0.5"/>
                </g>
        </g>
        <svg viewBox="0 0 15 15" width="100%" height="30px" preserveAspectRatio="xMaxYMin meet">
         <g id="arrow_out" transform="scale(0.3 0.3)">
          <a xlink:href="_tools_window_8hpp__incl_org.svg" target="_base">
           <rect id="button" ry="5" rx="5" y="6" x="6" height="38" width="38"
                fill="#f2f5e9" fill-opacity="0.5" stroke="#606060" stroke-width="1.0"/>
           <path id="arrow"
             d="M 11.500037,31.436501 C 11.940474,20.09759 22.043105,11.32322 32.158766,21.979434 L 37.068811,17.246167 C 37.068811,17.246167 37.088388,32 37.088388,32 L 22.160133,31.978069 C 22.160133,31.978069 26.997745,27.140456 26.997745,27.140456 C 18.528582,18.264221 13.291696,25.230495 11.500037,31.436501 z"
             style="fill:#404040;"/>
          </a>
         </g>
        </svg>
</svg>
