<?xml version="1.0" encoding="UTF-8" standalone="no"?>
<!DOCTYPE svg PUBLIC "-//W3C//DTD SVG 1.1//EN"
 "http://www.w3.org/Graphics/SVG/1.1/DTD/svg11.dtd">
<!-- Generated by graphviz version 2.36.0 (20140111.2315)
 -->
<!-- Title: Widget.cpp Pages: 1 -->
<svg width="583pt" height="308pt"
 viewBox="0.00 0.00 583.00 308.00" xmlns="http://www.w3.org/2000/svg" xmlns:xlink="http://www.w3.org/1999/xlink">
<g id="graph0" class="graph" transform="scale(1 1) rotate(0) translate(4 304)">
<title>Widget.cpp</title>
<polygon fill="white" stroke="none" points="-4,4 -4,-304 579,-304 579,4 -4,4"/>
<!-- Node1 -->
<g id="node1" class="node"><title>Node1</title>
<polygon fill="#bfbfbf" stroke="black" points="152,-280.5 152,-299.5 218,-299.5 218,-280.5 152,-280.5"/>
<text text-anchor="middle" x="185" y="-287.5" font-family="Helvetica,sans-Serif" font-size="10.00">Widget.cpp</text>
</g>
<!-- Node2 -->
<g id="node2" class="node"><title>Node2</title>
<g id="a_node2"><a xlink:href="_widget_8hpp.html" target="_top" xlink:title="../include/Widget.hpp">
<polygon fill="white" stroke="black" points="130.5,-224.5 130.5,-243.5 239.5,-243.5 239.5,-224.5 130.5,-224.5"/>
<text text-anchor="middle" x="185" y="-231.5" font-family="Helvetica,sans-Serif" font-size="10.00">../include/Widget.hpp</text>
</a>
</g>
</g>
<!-- Node1&#45;&gt;Node2 -->
<g id="edge1" class="edge"><title>Node1&#45;&gt;Node2</title>
<path fill="none" stroke="midnightblue" d="M185,-280.083C185,-273.006 185,-262.861 185,-253.986"/>
<polygon fill="midnightblue" stroke="midnightblue" points="188.5,-253.751 185,-243.751 181.5,-253.751 188.5,-253.751"/>
</g>
<!-- Node3 -->
<g id="node3" class="node"><title>Node3</title>
<polygon fill="white" stroke="#bfbfbf" points="-0.5,-168.5 -0.5,-187.5 126.5,-187.5 126.5,-168.5 -0.5,-168.5"/>
<text text-anchor="middle" x="63" y="-175.5" font-family="Helvetica,sans-Serif" font-size="10.00">boost/signals2/signal.hpp</text>
</g>
<!-- Node2&#45;&gt;Node3 -->
<g id="edge2" class="edge"><title>Node2&#45;&gt;Node3</title>
<path fill="none" stroke="midnightblue" d="M165.669,-224.444C145.68,-215.596 114.257,-201.687 91.4361,-191.586"/>
<polygon fill="midnightblue" stroke="midnightblue" points="92.8018,-188.363 82.2408,-187.516 89.9685,-194.764 92.8018,-188.363"/>
</g>
<!-- Node4 -->
<g id="node4" class="node"><title>Node4</title>
<polygon fill="white" stroke="#bfbfbf" points="145,-168.5 145,-187.5 225,-187.5 225,-168.5 145,-168.5"/>
<text text-anchor="middle" x="185" y="-175.5" font-family="Helvetica,sans-Serif" font-size="10.00">boost/bind.hpp</text>
</g>
<!-- Node2&#45;&gt;Node4 -->
<g id="edge3" class="edge"><title>Node2&#45;&gt;Node4</title>
<path fill="none" stroke="midnightblue" d="M185,-224.083C185,-217.006 185,-206.861 185,-197.986"/>
<polygon fill="midnightblue" stroke="midnightblue" points="188.5,-197.751 185,-187.751 181.5,-197.751 188.5,-197.751"/>
</g>
<!-- Node5 -->
<g id="node5" class="node"><title>Node5</title>
<g id="a_node5"><a xlink:href="_graphics_item_8hpp.html" target="_top" xlink:title="Classe GraphicsItem. ">
<polygon fill="white" stroke="black" points="243,-168.5 243,-187.5 337,-187.5 337,-168.5 243,-168.5"/>
<text text-anchor="middle" x="290" y="-175.5" font-family="Helvetica,sans-Serif" font-size="10.00">GraphicsItem.hpp</text>
</a>
</g>
</g>
<!-- Node2&#45;&gt;Node5 -->
<g id="edge4" class="edge"><title>Node2&#45;&gt;Node5</title>
<path fill="none" stroke="midnightblue" d="M201.87,-224.324C218.709,-215.664 244.807,-202.242 264.238,-192.249"/>
<polygon fill="midnightblue" stroke="midnightblue" points="265.88,-195.341 273.172,-187.655 262.678,-189.116 265.88,-195.341"/>
</g>
<!-- Node6 -->
<g id="node6" class="node"><title>Node6</title>
<polygon fill="white" stroke="#bfbfbf" points="47,-0.5 47,-19.5 91,-19.5 91,-0.5 47,-0.5"/>
<text text-anchor="middle" x="69" y="-7.5" font-family="Helvetica,sans-Serif" font-size="10.00">vector</text>
</g>
<!-- Node5&#45;&gt;Node6 -->
<g id="edge5" class="edge"><title>Node5&#45;&gt;Node6</title>
<path fill="none" stroke="midnightblue" d="M254.451,-168.487C229.777,-161.423 196.982,-149.646 172,-132 131.04,-103.069 96.3164,-54.2161 79.6247,-28.3201"/>
<polygon fill="midnightblue" stroke="midnightblue" points="82.4275,-26.2029 74.1349,-19.6086 76.5053,-29.9349 82.4275,-26.2029"/>
</g>
<!-- Node7 -->
<g id="node7" class="node"><title>Node7</title>
<polygon fill="white" stroke="#bfbfbf" points="457,-112.5 457,-131.5 487,-131.5 487,-112.5 457,-112.5"/>
<text text-anchor="middle" x="472" y="-119.5" font-family="Helvetica,sans-Serif" font-size="10.00">set</text>
</g>
<!-- Node5&#45;&gt;Node7 -->
<g id="edge6" class="edge"><title>Node5&#45;&gt;Node7</title>
<path fill="none" stroke="midnightblue" d="M322.062,-168.481C353.924,-159.858 404.098,-145.854 447,-132 447.102,-131.967 447.203,-131.934 447.305,-131.901"/>
<polygon fill="midnightblue" stroke="midnightblue" points="448.657,-135.138 456.985,-128.588 446.39,-128.515 448.657,-135.138"/>
</g>
<!-- Node8 -->
<g id="node8" class="node"><title>Node8</title>
<polygon fill="white" stroke="#bfbfbf" points="109,-0.5 109,-19.5 161,-19.5 161,-0.5 109,-0.5"/>
<text text-anchor="middle" x="135" y="-7.5" font-family="Helvetica,sans-Serif" font-size="10.00">memory</text>
</g>
<!-- Node5&#45;&gt;Node8 -->
<g id="edge7" class="edge"><title>Node5&#45;&gt;Node8</title>
<path fill="none" stroke="midnightblue" d="M266.794,-168.44C233.398,-154.721 172.952,-124.335 147,-76 139.281,-61.6245 136.435,-43.1659 135.43,-29.5947"/>
<polygon fill="midnightblue" stroke="midnightblue" points="138.923,-29.3637 134.952,-19.5412 131.931,-29.6962 138.923,-29.3637"/>
</g>
<!-- Node9 -->
<g id="node9" class="node"><title>Node9</title>
<g id="a_node9"><a xlink:href="_color_8hpp.html" target="_top" xlink:title="Classe Color. ">
<polygon fill="white" stroke="black" points="379.5,-112.5 379.5,-131.5 438.5,-131.5 438.5,-112.5 379.5,-112.5"/>
<text text-anchor="middle" x="409" y="-119.5" font-family="Helvetica,sans-Serif" font-size="10.00">Color.hpp</text>
</a>
</g>
</g>
<!-- Node5&#45;&gt;Node9 -->
<g id="edge8" class="edge"><title>Node5&#45;&gt;Node9</title>
<path fill="none" stroke="midnightblue" d="M308.856,-168.444C328.266,-159.636 358.73,-145.812 380.965,-135.722"/>
<polygon fill="midnightblue" stroke="midnightblue" points="382.572,-138.836 390.232,-131.516 379.68,-132.462 382.572,-138.836"/>
</g>
<!-- Node13 -->
<g id="node13" class="node"><title>Node13</title>
<g id="a_node13"><a xlink:href="_canvas_8hpp.html" target="_top" xlink:title="Canvas.hpp">
<polygon fill="white" stroke="black" points="213.5,-112.5 213.5,-131.5 282.5,-131.5 282.5,-112.5 213.5,-112.5"/>
<text text-anchor="middle" x="248" y="-119.5" font-family="Helvetica,sans-Serif" font-size="10.00">Canvas.hpp</text>
</a>
</g>
</g>
<!-- Node5&#45;&gt;Node13 -->
<g id="edge12" class="edge"><title>Node5&#45;&gt;Node13</title>
<path fill="none" stroke="midnightblue" d="M283.065,-168.083C277.071,-160.377 268.248,-149.033 260.952,-139.653"/>
<polygon fill="midnightblue" stroke="midnightblue" points="263.709,-137.496 254.806,-131.751 258.183,-141.793 263.709,-137.496"/>
</g>
<!-- Node18 -->
<g id="node18" class="node"><title>Node18</title>
<g id="a_node18"><a xlink:href="_event_8hpp.html" target="_top" xlink:title="Classe Event. ">
<polygon fill="white" stroke="black" points="300.5,-112.5 300.5,-131.5 361.5,-131.5 361.5,-112.5 300.5,-112.5"/>
<text text-anchor="middle" x="331" y="-119.5" font-family="Helvetica,sans-Serif" font-size="10.00">Event.hpp</text>
</a>
</g>
</g>
<!-- Node5&#45;&gt;Node18 -->
<g id="edge21" class="edge"><title>Node5&#45;&gt;Node18</title>
<path fill="none" stroke="midnightblue" d="M296.77,-168.083C302.562,-160.455 311.058,-149.264 318.138,-139.941"/>
<polygon fill="midnightblue" stroke="midnightblue" points="321.096,-141.832 324.356,-131.751 315.521,-137.599 321.096,-141.832"/>
</g>
<!-- Node10 -->
<g id="node10" class="node"><title>Node10</title>
<polygon fill="white" stroke="#bfbfbf" points="470,-56.5 470,-75.5 516,-75.5 516,-56.5 470,-56.5"/>
<text text-anchor="middle" x="493" y="-63.5" font-family="Helvetica,sans-Serif" font-size="10.00">cstdint</text>
</g>
<!-- Node9&#45;&gt;Node10 -->
<g id="edge9" class="edge"><title>Node9&#45;&gt;Node10</title>
<path fill="none" stroke="midnightblue" d="M422.496,-112.324C435.6,-103.9 455.712,-90.9709 471.107,-81.0741"/>
<polygon fill="midnightblue" stroke="midnightblue" points="473.018,-84.0063 479.537,-75.6545 469.233,-78.118 473.018,-84.0063"/>
</g>
<!-- Node11 -->
<g id="node11" class="node"><title>Node11</title>
<polygon fill="white" stroke="#bfbfbf" points="534.5,-56.5 534.5,-75.5 575.5,-75.5 575.5,-56.5 534.5,-56.5"/>
<text text-anchor="middle" x="555" y="-63.5" font-family="Helvetica,sans-Serif" font-size="10.00">string</text>
</g>
<!-- Node9&#45;&gt;Node11 -->
<g id="edge10" class="edge"><title>Node9&#45;&gt;Node11</title>
<path fill="none" stroke="midnightblue" d="M432.134,-112.444C457.198,-103.173 497.286,-88.3464 524.813,-78.1652"/>
<polygon fill="midnightblue" stroke="midnightblue" points="526.17,-81.395 534.335,-74.6433 523.742,-74.8297 526.17,-81.395"/>
</g>
<!-- Node12 -->
<g id="node12" class="node"><title>Node12</title>
<polygon fill="white" stroke="#bfbfbf" points="344,-56.5 344,-75.5 452,-75.5 452,-56.5 344,-56.5"/>
<text text-anchor="middle" x="398" y="-63.5" font-family="Helvetica,sans-Serif" font-size="10.00">ez&#45;lib/ez&#45;draw++.hpp</text>
</g>
<!-- Node9&#45;&gt;Node12 -->
<g id="edge11" class="edge"><title>Node9&#45;&gt;Node12</title>
<path fill="none" stroke="midnightblue" d="M407.184,-112.083C405.726,-104.927 403.629,-94.6353 401.807,-85.6911"/>
<polygon fill="midnightblue" stroke="midnightblue" points="405.208,-84.8512 399.783,-75.7511 398.349,-86.2485 405.208,-84.8512"/>
</g>
<!-- Node13&#45;&gt;Node12 -->
<g id="edge13" class="edge"><title>Node13&#45;&gt;Node12</title>
<path fill="none" stroke="midnightblue" d="M271.768,-112.444C296.893,-103.399 336.711,-89.064 364.9,-78.9158"/>
<polygon fill="midnightblue" stroke="midnightblue" points="366.12,-82.1968 374.343,-75.5164 363.749,-75.6106 366.12,-82.1968"/>
</g>
<!-- Node14 -->
<g id="node14" class="node"><title>Node14</title>
<g id="a_node14"><a xlink:href="_point_8hpp.html" target="_top" xlink:title="Classe point. ">
<polygon fill="white" stroke="black" points="156,-56.5 156,-75.5 214,-75.5 214,-56.5 156,-56.5"/>
<text text-anchor="middle" x="185" y="-63.5" font-family="Helvetica,sans-Serif" font-size="10.00">Point.hpp</text>
</a>
</g>
</g>
<!-- Node13&#45;&gt;Node14 -->
<g id="edge14" class="edge"><title>Node13&#45;&gt;Node14</title>
<path fill="none" stroke="midnightblue" d="M237.878,-112.324C228.474,-104.263 214.256,-92.0765 202.931,-82.3695"/>
<polygon fill="midnightblue" stroke="midnightblue" points="205.177,-79.6844 195.306,-75.8339 200.621,-84.9993 205.177,-79.6844"/>
</g>
<!-- Node17 -->
<g id="node17" class="node"><title>Node17</title>
<g id="a_node17"><a xlink:href="_font_8hpp.html" target="_top" xlink:title="Font.hpp">
<polygon fill="white" stroke="black" points="232.5,-56.5 232.5,-75.5 287.5,-75.5 287.5,-56.5 232.5,-56.5"/>
<text text-anchor="middle" x="260" y="-63.5" font-family="Helvetica,sans-Serif" font-size="10.00">Font.hpp</text>
</a>
</g>
</g>
<!-- Node13&#45;&gt;Node17 -->
<g id="edge19" class="edge"><title>Node13&#45;&gt;Node17</title>
<path fill="none" stroke="midnightblue" d="M249.982,-112.083C251.572,-104.927 253.859,-94.6353 255.846,-85.6911"/>
<polygon fill="midnightblue" stroke="midnightblue" points="259.303,-86.2722 258.055,-75.7511 252.469,-84.7537 259.303,-86.2722"/>
</g>
<!-- Node14&#45;&gt;Node6 -->
<g id="edge16" class="edge"><title>Node14&#45;&gt;Node6</title>
<path fill="none" stroke="midnightblue" d="M166.619,-56.4435C147.784,-47.6751 118.269,-33.9355 96.6207,-23.8579"/>
<polygon fill="midnightblue" stroke="midnightblue" points="97.8375,-20.5637 87.2946,-19.5164 94.8833,-26.9098 97.8375,-20.5637"/>
</g>
<!-- Node14&#45;&gt;Node8 -->
<g id="edge18" class="edge"><title>Node14&#45;&gt;Node8</title>
<path fill="none" stroke="midnightblue" d="M176.744,-56.083C169.535,-48.2982 158.89,-36.8015 150.154,-27.3665"/>
<polygon fill="midnightblue" stroke="midnightblue" points="152.465,-24.7108 143.103,-19.7511 147.329,-29.4666 152.465,-24.7108"/>
</g>
<!-- Node15 -->
<g id="node15" class="node"><title>Node15</title>
<polygon fill="white" stroke="#bfbfbf" points="257,-0.5 257,-19.5 311,-19.5 311,-0.5 257,-0.5"/>
<text text-anchor="middle" x="284" y="-7.5" font-family="Helvetica,sans-Serif" font-size="10.00">iostream</text>
</g>
<!-- Node14&#45;&gt;Node15 -->
<g id="edge15" class="edge"><title>Node14&#45;&gt;Node15</title>
<path fill="none" stroke="midnightblue" d="M200.906,-56.324C216.638,-47.7428 240.942,-34.486 259.209,-24.5224"/>
<polygon fill="midnightblue" stroke="midnightblue" points="261.03,-27.5157 268.133,-19.6545 257.678,-21.3704 261.03,-27.5157"/>
</g>
<!-- Node16 -->
<g id="node16" class="node"><title>Node16</title>
<polygon fill="white" stroke="#bfbfbf" points="179.5,-0.5 179.5,-19.5 238.5,-19.5 238.5,-0.5 179.5,-0.5"/>
<text text-anchor="middle" x="209" y="-7.5" font-family="Helvetica,sans-Serif" font-size="10.00">functional</text>
</g>
<!-- Node14&#45;&gt;Node16 -->
<g id="edge17" class="edge"><title>Node14&#45;&gt;Node16</title>
<path fill="none" stroke="midnightblue" d="M188.963,-56.083C192.213,-48.77 196.919,-38.1814 200.954,-29.1034"/>
<polygon fill="midnightblue" stroke="midnightblue" points="204.248,-30.3107 205.111,-19.7511 197.851,-27.4677 204.248,-30.3107"/>
</g>
<!-- Node17&#45;&gt;Node15 -->
<g id="edge20" class="edge"><title>Node17&#45;&gt;Node15</title>
<path fill="none" stroke="midnightblue" d="M263.963,-56.083C267.213,-48.77 271.919,-38.1814 275.954,-29.1034"/>
<polygon fill="midnightblue" stroke="midnightblue" points="279.248,-30.3107 280.111,-19.7511 272.851,-27.4677 279.248,-30.3107"/>
</g>
<!-- Node18&#45;&gt;Node12 -->
<g id="edge23" class="edge"><title>Node18&#45;&gt;Node12</title>
<path fill="none" stroke="midnightblue" d="M341.765,-112.324C351.766,-104.263 366.887,-92.0765 378.93,-82.3695"/>
<polygon fill="midnightblue" stroke="midnightblue" points="381.45,-84.8343 387.039,-75.8339 377.057,-79.3841 381.45,-84.8343"/>
</g>
<!-- Node18&#45;&gt;Node15 -->
<g id="edge22" class="edge"><title>Node18&#45;&gt;Node15</title>
<path fill="none" stroke="midnightblue" d="M327.312,-112.368C319.659,-94.4563 301.913,-52.9233 291.669,-28.9482"/>
<polygon fill="midnightblue" stroke="midnightblue" points="294.819,-27.412 287.671,-19.5914 288.382,-30.1624 294.819,-27.412"/>
</g>
</g>
</svg>
