<?xml version="1.0" encoding="UTF-8" standalone="no"?>
<!DOCTYPE svg PUBLIC "-//W3C//DTD SVG 1.1//EN"
 "http://www.w3.org/Graphics/SVG/1.1/DTD/svg11.dtd">
<!-- Generated by graphviz version 2.36.0 (20140111.2315)
 -->
<!-- Title: Widget.cpp Pages: 1 -->
<!--zoomable 308 -->
<svg id="main" version="1.1" xmlns="http://www.w3.org/2000/svg" xmlns:xlink="http://www.w3.org/1999/xlink" xml:space="preserve" onload="init(evt)">
<style type="text/css"><![CDATA[
.edge:hover path { stroke: red; }
.edge:hover polygon { stroke: red; fill: red; }
]]></style>
<script type="text/javascript"><![CDATA[
var edges = document.getElementsByTagName('g');
if (edges && edges.length) {
  for (var i=0;i<edges.length;i++) {
    if (edges[i].id.substr(0,4)=='edge') {
      edges[i].setAttribute('class','edge');
    }
  }
}
]]></script>
        <defs>
                <circle id="rim" cx="0" cy="0" r="7"/>
                <circle id="rim2" cx="0" cy="0" r="3.5"/>
                <g id="zoomPlus">
                        <use xlink:href="#rim" fill="#404040">
                                <set attributeName="fill" to="#808080" begin="zoomplus.mouseover" end="zoomplus.mouseout"/>
                        </use>
                        <path d="M-4,0h8M0,-4v8" fill="none" stroke="white" stroke-width="1.5" pointer-events="none"/>
                </g>
                <g id="zoomMin">
                        <use xlink:href="#rim" fill="#404040">
                                <set attributeName="fill" to="#808080" begin="zoomminus.mouseover" end="zoomminus.mouseout"/>
                        </use>
                        <path d="M-4,0h8" fill="none" stroke="white" stroke-width="1.5" pointer-events="none"/>
                </g>
                <g id="dirArrow">
                        <path fill="none" stroke="white" stroke-width="1.5" d="M0,-3.0v7 M-2.5,-0.5L0,-3.0L2.5,-0.5"/>
                </g>
               <g id="resetDef">
                       <use xlink:href="#rim2" fill="#404040">
                               <set attributeName="fill" to="#808080" begin="reset.mouseover" end="reset.mouseout"/>
                       </use>
               </g>
        </defs>

<script type="text/javascript">
var viewWidth = 690;
var viewHeight = 308;
var sectionId = 'dynsection-0';
</script>
<script xlink:href="svgpan.js"/>
<svg id="graph" class="graph">
<g id="viewport">
<title>Widget.cpp</title>
<polygon fill="white" stroke="none" points="-4,4 -4,-304 686,-304 686,4 -4,4"/>
<!-- Node1 -->
<g id="node1" class="node"><title>Node1</title>
<polygon fill="#bfbfbf" stroke="black" points="314,-280.5 314,-299.5 380,-299.5 380,-280.5 314,-280.5"/>
<text text-anchor="middle" x="347" y="-287.5" font-family="Helvetica,sans-Serif" font-size="10.00">Widget.cpp</text>
</g>
<!-- Node2 -->
<g id="node2" class="node"><title>Node2</title>
<g id="a_node2"><a xlink:href="_widget_8hpp.html" target="_top" xlink:title="../include/Widget.hpp">
<polygon fill="white" stroke="black" points="292.5,-224.5 292.5,-243.5 401.5,-243.5 401.5,-224.5 292.5,-224.5"/>
<text text-anchor="middle" x="347" y="-231.5" font-family="Helvetica,sans-Serif" font-size="10.00">../include/Widget.hpp</text>
</a>
</g>
</g>
<!-- Node1&#45;&gt;Node2 -->
<g id="edge1" class="edge"><title>Node1&#45;&gt;Node2</title>
<path fill="none" stroke="midnightblue" d="M347,-280.083C347,-273.006 347,-262.861 347,-253.986"/>
<polygon fill="midnightblue" stroke="midnightblue" points="350.5,-253.751 347,-243.751 343.5,-253.751 350.5,-253.751"/>
</g>
<!-- Node3 -->
<g id="node3" class="node"><title>Node3</title>
<polygon fill="white" stroke="#bfbfbf" points="-0.5,-0.5 -0.5,-19.5 126.5,-19.5 126.5,-0.5 -0.5,-0.5"/>
<text text-anchor="middle" x="63" y="-7.5" font-family="Helvetica,sans-Serif" font-size="10.00">boost/signals2/signal.hpp</text>
</g>
<!-- Node2&#45;&gt;Node3 -->
<g id="edge2" class="edge"><title>Node2&#45;&gt;Node3</title>
<path fill="none" stroke="midnightblue" d="M335.431,-224.48C312.097,-207.25 257.796,-166.934 213,-132 164.94,-94.5202 109.329,-49.1154 81.2456,-26.0397"/>
<polygon fill="midnightblue" stroke="midnightblue" points="83.3987,-23.2789 73.4526,-19.6286 78.9515,-28.6847 83.3987,-23.2789"/>
</g>
<!-- Node4 -->
<g id="node4" class="node"><title>Node4</title>
<polygon fill="white" stroke="#bfbfbf" points="412,-168.5 412,-187.5 492,-187.5 492,-168.5 412,-168.5"/>
<text text-anchor="middle" x="452" y="-175.5" font-family="Helvetica,sans-Serif" font-size="10.00">boost/bind.hpp</text>
</g>
<!-- Node2&#45;&gt;Node4 -->
<g id="edge3" class="edge"><title>Node2&#45;&gt;Node4</title>
<path fill="none" stroke="midnightblue" d="M363.87,-224.324C380.709,-215.664 406.807,-202.242 426.238,-192.249"/>
<polygon fill="midnightblue" stroke="midnightblue" points="427.88,-195.341 435.172,-187.655 424.678,-189.116 427.88,-195.341"/>
</g>
<!-- Node5 -->
<g id="node5" class="node"><title>Node5</title>
<g id="a_node5"><a xlink:href="_graphics_item_8hpp.html" target="_top" xlink:title="Classe GraphicsItem. ">
<polygon fill="white" stroke="black" points="300,-168.5 300,-187.5 394,-187.5 394,-168.5 300,-168.5"/>
<text text-anchor="middle" x="347" y="-175.5" font-family="Helvetica,sans-Serif" font-size="10.00">GraphicsItem.hpp</text>
</a>
</g>
</g>
<!-- Node2&#45;&gt;Node5 -->
<g id="edge4" class="edge"><title>Node2&#45;&gt;Node5</title>
<path fill="none" stroke="midnightblue" d="M347,-224.083C347,-217.006 347,-206.861 347,-197.986"/>
<polygon fill="midnightblue" stroke="midnightblue" points="350.5,-197.751 347,-187.751 343.5,-197.751 350.5,-197.751"/>
</g>
<!-- Node6 -->
<g id="node6" class="node"><title>Node6</title>
<polygon fill="white" stroke="#bfbfbf" points="145,-0.5 145,-19.5 189,-19.5 189,-0.5 145,-0.5"/>
<text text-anchor="middle" x="167" y="-7.5" font-family="Helvetica,sans-Serif" font-size="10.00">vector</text>
</g>
<!-- Node5&#45;&gt;Node6 -->
<g id="edge5" class="edge"><title>Node5&#45;&gt;Node6</title>
<path fill="none" stroke="midnightblue" d="M308.521,-168.475C285.136,-161.728 255.867,-150.317 235,-132 202.516,-103.485 182.169,-55.5242 172.899,-29.3679"/>
<polygon fill="midnightblue" stroke="midnightblue" points="176.119,-27.9655 169.601,-19.6133 169.488,-30.2075 176.119,-27.9655"/>
</g>
<!-- Node7 -->
<g id="node7" class="node"><title>Node7</title>
<polygon fill="white" stroke="#bfbfbf" points="332,-112.5 332,-131.5 362,-131.5 362,-112.5 332,-112.5"/>
<text text-anchor="middle" x="347" y="-119.5" font-family="Helvetica,sans-Serif" font-size="10.00">set</text>
</g>
<!-- Node5&#45;&gt;Node7 -->
<g id="edge6" class="edge"><title>Node5&#45;&gt;Node7</title>
<path fill="none" stroke="midnightblue" d="M347,-168.083C347,-161.006 347,-150.861 347,-141.986"/>
<polygon fill="midnightblue" stroke="midnightblue" points="350.5,-141.751 347,-131.751 343.5,-141.751 350.5,-141.751"/>
</g>
<!-- Node8 -->
<g id="node8" class="node"><title>Node8</title>
<polygon fill="white" stroke="#bfbfbf" points="380,-112.5 380,-131.5 432,-131.5 432,-112.5 380,-112.5"/>
<text text-anchor="middle" x="406" y="-119.5" font-family="Helvetica,sans-Serif" font-size="10.00">memory</text>
</g>
<!-- Node5&#45;&gt;Node8 -->
<g id="edge7" class="edge"><title>Node5&#45;&gt;Node8</title>
<path fill="none" stroke="midnightblue" d="M356.479,-168.324C365.201,-160.341 378.343,-148.313 388.898,-138.653"/>
<polygon fill="midnightblue" stroke="midnightblue" points="391.334,-141.167 396.348,-131.834 386.608,-136.004 391.334,-141.167"/>
</g>
<!-- Node9 -->
<g id="node9" class="node"><title>Node9</title>
<g id="a_node9"><a xlink:href="_color_8hpp.html" target="_top" xlink:title="Classe Color. ">
<polygon fill="white" stroke="black" points="450.5,-112.5 450.5,-131.5 509.5,-131.5 509.5,-112.5 450.5,-112.5"/>
<text text-anchor="middle" x="480" y="-119.5" font-family="Helvetica,sans-Serif" font-size="10.00">Color.hpp</text>
</a>
</g>
</g>
<!-- Node5&#45;&gt;Node9 -->
<g id="edge8" class="edge"><title>Node5&#45;&gt;Node9</title>
<path fill="none" stroke="midnightblue" d="M368.074,-168.444C390.06,-159.517 424.734,-145.439 449.664,-135.317"/>
<polygon fill="midnightblue" stroke="midnightblue" points="451.076,-138.521 459.024,-131.516 448.442,-132.035 451.076,-138.521"/>
</g>
<!-- Node13 -->
<g id="node13" class="node"><title>Node13</title>
<g id="a_node13"><a xlink:href="_canvas_8hpp.html" target="_top" xlink:title="Canvas.hpp">
<polygon fill="white" stroke="black" points="244.5,-112.5 244.5,-131.5 313.5,-131.5 313.5,-112.5 244.5,-112.5"/>
<text text-anchor="middle" x="279" y="-119.5" font-family="Helvetica,sans-Serif" font-size="10.00">Canvas.hpp</text>
</a>
</g>
</g>
<!-- Node5&#45;&gt;Node13 -->
<g id="edge12" class="edge"><title>Node5&#45;&gt;Node13</title>
<path fill="none" stroke="midnightblue" d="M336.075,-168.324C325.825,-160.185 310.279,-147.839 297.999,-138.087"/>
<polygon fill="midnightblue" stroke="midnightblue" points="300.132,-135.312 290.124,-131.834 295.779,-140.794 300.132,-135.312"/>
</g>
<!-- Node21 -->
<g id="node21" class="node"><title>Node21</title>
<g id="a_node21"><a xlink:href="_event_8hpp.html" target="_top" xlink:title="Classe Event. ">
<polygon fill="white" stroke="black" points="542.5,-112.5 542.5,-131.5 603.5,-131.5 603.5,-112.5 542.5,-112.5"/>
<text text-anchor="middle" x="573" y="-119.5" font-family="Helvetica,sans-Serif" font-size="10.00">Event.hpp</text>
</a>
</g>
</g>
<!-- Node5&#45;&gt;Node21 -->
<g id="edge24" class="edge"><title>Node5&#45;&gt;Node21</title>
<path fill="none" stroke="midnightblue" d="M382.81,-168.444C423.601,-158.697 490.096,-142.809 532.676,-132.635"/>
<polygon fill="midnightblue" stroke="midnightblue" points="533.518,-136.032 542.431,-130.304 531.891,-129.224 533.518,-136.032"/>
</g>
<!-- Node10 -->
<g id="node10" class="node"><title>Node10</title>
<polygon fill="white" stroke="#bfbfbf" points="395,-56.5 395,-75.5 441,-75.5 441,-56.5 395,-56.5"/>
<text text-anchor="middle" x="418" y="-63.5" font-family="Helvetica,sans-Serif" font-size="10.00">cstdint</text>
</g>
<!-- Node9&#45;&gt;Node10 -->
<g id="edge9" class="edge"><title>Node9&#45;&gt;Node10</title>
<path fill="none" stroke="midnightblue" d="M470.039,-112.324C460.873,-104.341 447.063,-92.3128 435.972,-82.6529"/>
<polygon fill="midnightblue" stroke="midnightblue" points="437.982,-79.7624 428.143,-75.8339 433.385,-85.041 437.982,-79.7624"/>
</g>
<!-- Node11 -->
<g id="node11" class="node"><title>Node11</title>
<polygon fill="white" stroke="#bfbfbf" points="459.5,-56.5 459.5,-75.5 500.5,-75.5 500.5,-56.5 459.5,-56.5"/>
<text text-anchor="middle" x="480" y="-63.5" font-family="Helvetica,sans-Serif" font-size="10.00">string</text>
</g>
<!-- Node9&#45;&gt;Node11 -->
<g id="edge10" class="edge"><title>Node9&#45;&gt;Node11</title>
<path fill="none" stroke="midnightblue" d="M480,-112.083C480,-105.006 480,-94.8611 480,-85.9865"/>
<polygon fill="midnightblue" stroke="midnightblue" points="483.5,-85.751 480,-75.7511 476.5,-85.7511 483.5,-85.751"/>
</g>
<!-- Node12 -->
<g id="node12" class="node"><title>Node12</title>
<polygon fill="white" stroke="#bfbfbf" points="519,-56.5 519,-75.5 627,-75.5 627,-56.5 519,-56.5"/>
<text text-anchor="middle" x="573" y="-63.5" font-family="Helvetica,sans-Serif" font-size="10.00">ez&#45;lib/ez&#45;draw++.hpp</text>
</g>
<!-- Node9&#45;&gt;Node12 -->
<g id="edge11" class="edge"><title>Node9&#45;&gt;Node12</title>
<path fill="none" stroke="midnightblue" d="M494.942,-112.324C509.585,-103.822 532.134,-90.7288 549.238,-80.7975"/>
<polygon fill="midnightblue" stroke="midnightblue" points="551.205,-83.7027 558.095,-75.6545 547.69,-77.6491 551.205,-83.7027"/>
</g>
<!-- Node13&#45;&gt;Node12 -->
<g id="edge13" class="edge"><title>Node13&#45;&gt;Node12</title>
<path fill="none" stroke="midnightblue" d="M313.572,-113.848C316.757,-113.213 319.937,-112.589 323,-112 388.028,-99.4987 462.781,-86.181 513.479,-77.3055"/>
<polygon fill="midnightblue" stroke="midnightblue" points="514.355,-80.7054 523.603,-75.536 513.15,-73.8099 514.355,-80.7054"/>
</g>
<!-- Node14 -->
<g id="node14" class="node"><title>Node14</title>
<g id="a_node14"><a xlink:href="_point_8hpp.html" target="_top" xlink:title="Classe point. ">
<polygon fill="white" stroke="black" points="245,-56.5 245,-75.5 303,-75.5 303,-56.5 245,-56.5"/>
<text text-anchor="middle" x="274" y="-63.5" font-family="Helvetica,sans-Serif" font-size="10.00">Point.hpp</text>
</a>
</g>
</g>
<!-- Node13&#45;&gt;Node14 -->
<g id="edge14" class="edge"><title>Node13&#45;&gt;Node14</title>
<path fill="none" stroke="midnightblue" d="M278.174,-112.083C277.519,-105.006 276.58,-94.8611 275.758,-85.9865"/>
<polygon fill="midnightblue" stroke="midnightblue" points="279.217,-85.3858 274.81,-75.7511 272.247,-86.0312 279.217,-85.3858"/>
</g>
<!-- Node20 -->
<g id="node20" class="node"><title>Node20</title>
<g id="a_node20"><a xlink:href="_font_8hpp.html" target="_top" xlink:title="Font.hpp">
<polygon fill="white" stroke="black" points="321.5,-56.5 321.5,-75.5 376.5,-75.5 376.5,-56.5 321.5,-56.5"/>
<text text-anchor="middle" x="349" y="-63.5" font-family="Helvetica,sans-Serif" font-size="10.00">Font.hpp</text>
</a>
</g>
</g>
<!-- Node13&#45;&gt;Node20 -->
<g id="edge22" class="edge"><title>Node13&#45;&gt;Node20</title>
<path fill="none" stroke="midnightblue" d="M290.247,-112.324C300.797,-104.185 316.801,-91.8395 329.442,-82.0874"/>
<polygon fill="midnightblue" stroke="midnightblue" points="331.769,-84.7132 337.549,-75.8339 327.493,-79.1707 331.769,-84.7132"/>
</g>
<!-- Node14&#45;&gt;Node3 -->
<g id="edge17" class="edge"><title>Node14&#45;&gt;Node3</title>
<path fill="none" stroke="midnightblue" d="M244.661,-57.4915C208.675,-48.2818 147.374,-32.5934 106.048,-22.0171"/>
<polygon fill="midnightblue" stroke="midnightblue" points="106.815,-18.6005 96.259,-19.5118 105.079,-25.3819 106.815,-18.6005"/>
</g>
<!-- Node14&#45;&gt;Node6 -->
<g id="edge20" class="edge"><title>Node14&#45;&gt;Node6</title>
<path fill="none" stroke="midnightblue" d="M256.809,-56.324C239.649,-47.6641 213.054,-34.2424 193.253,-24.249"/>
<polygon fill="midnightblue" stroke="midnightblue" points="194.653,-21.0354 184.149,-19.6545 191.499,-27.2847 194.653,-21.0354"/>
</g>
<!-- Node15 -->
<g id="node15" class="node"><title>Node15</title>
<polygon fill="white" stroke="#bfbfbf" points="207.5,-0.5 207.5,-19.5 308.5,-19.5 308.5,-0.5 207.5,-0.5"/>
<text text-anchor="middle" x="258" y="-7.5" font-family="Helvetica,sans-Serif" font-size="10.00">boost/uuid/uuid.hpp</text>
</g>
<!-- Node14&#45;&gt;Node15 -->
<g id="edge15" class="edge"><title>Node14&#45;&gt;Node15</title>
<path fill="none" stroke="midnightblue" d="M271.358,-56.083C269.214,-48.8486 266.121,-38.4087 263.451,-29.3968"/>
<polygon fill="midnightblue" stroke="midnightblue" points="266.79,-28.3447 260.593,-19.7511 260.078,-30.3334 266.79,-28.3447"/>
</g>
<!-- Node16 -->
<g id="node16" class="node"><title>Node16</title>
<polygon fill="white" stroke="#bfbfbf" points="327,-0.5 327,-19.5 479,-19.5 479,-0.5 327,-0.5"/>
<text text-anchor="middle" x="403" y="-7.5" font-family="Helvetica,sans-Serif" font-size="10.00">boost/uuid/uuid_generators.hpp</text>
</g>
<!-- Node14&#45;&gt;Node16 -->
<g id="edge16" class="edge"><title>Node14&#45;&gt;Node16</title>
<path fill="none" stroke="midnightblue" d="M294.44,-56.4435C315.67,-47.5566 349.099,-33.5632 373.255,-23.4514"/>
<polygon fill="midnightblue" stroke="midnightblue" points="374.782,-26.6064 382.655,-19.5164 372.079,-20.1493 374.782,-26.6064"/>
</g>
<!-- Node17 -->
<g id="node17" class="node"><title>Node17</title>
<polygon fill="white" stroke="#bfbfbf" points="628,-0.5 628,-19.5 682,-19.5 682,-0.5 628,-0.5"/>
<text text-anchor="middle" x="655" y="-7.5" font-family="Helvetica,sans-Serif" font-size="10.00">iostream</text>
</g>
<!-- Node14&#45;&gt;Node17 -->
<g id="edge18" class="edge"><title>Node14&#45;&gt;Node17</title>
<path fill="none" stroke="midnightblue" d="M303.389,-57.6856C306.289,-57.0703 309.196,-56.4953 312,-56 443.69,-32.7388 481.463,-43.6824 617.624,-19.8356"/>
<polygon fill="midnightblue" stroke="midnightblue" points="618.369,-23.258 627.6,-18.0576 617.141,-16.3666 618.369,-23.258"/>
</g>
<!-- Node18 -->
<g id="node18" class="node"><title>Node18</title>
<polygon fill="white" stroke="#bfbfbf" points="497.5,-0.5 497.5,-19.5 532.5,-19.5 532.5,-0.5 497.5,-0.5"/>
<text text-anchor="middle" x="515" y="-7.5" font-family="Helvetica,sans-Serif" font-size="10.00">map</text>
</g>
<!-- Node14&#45;&gt;Node18 -->
<g id="edge19" class="edge"><title>Node14&#45;&gt;Node18</title>
<path fill="none" stroke="midnightblue" d="M303.025,-58.0285C306.053,-57.3304 309.087,-56.6427 312,-56 386.921,-39.4695 409.157,-40.5448 487.53,-19.8475"/>
<polygon fill="midnightblue" stroke="midnightblue" points="488.618,-23.1795 497.373,-17.2128 486.808,-16.4175 488.618,-23.1795"/>
</g>
<!-- Node19 -->
<g id="node19" class="node"><title>Node19</title>
<polygon fill="white" stroke="#bfbfbf" points="550.5,-0.5 550.5,-19.5 609.5,-19.5 609.5,-0.5 550.5,-0.5"/>
<text text-anchor="middle" x="580" y="-7.5" font-family="Helvetica,sans-Serif" font-size="10.00">functional</text>
</g>
<!-- Node14&#45;&gt;Node19 -->
<g id="edge21" class="edge"><title>Node14&#45;&gt;Node19</title>
<path fill="none" stroke="midnightblue" d="M303.41,-57.7995C306.306,-57.1612 309.206,-56.5496 312,-56 409.931,-36.7347 438.108,-39.4009 540.128,-20.0411"/>
<polygon fill="midnightblue" stroke="midnightblue" points="541.077,-23.4228 550.236,-18.0974 539.755,-16.5488 541.077,-23.4228"/>
</g>
<!-- Node20&#45;&gt;Node17 -->
<g id="edge23" class="edge"><title>Node20&#45;&gt;Node17</title>
<path fill="none" stroke="midnightblue" d="M376.824,-57.9646C379.912,-57.2636 383.017,-56.5931 386,-56 488.342,-35.6507 515.658,-40.3493 618,-20 618.101,-19.9799 618.203,-19.9596 618.304,-19.9393"/>
<polygon fill="midnightblue" stroke="midnightblue" points="618.944,-23.382 627.981,-17.8519 617.468,-16.5394 618.944,-23.382"/>
</g>
<!-- Node21&#45;&gt;Node12 -->
<g id="edge26" class="edge"><title>Node21&#45;&gt;Node12</title>
<path fill="none" stroke="midnightblue" d="M573,-112.083C573,-105.006 573,-94.8611 573,-85.9865"/>
<polygon fill="midnightblue" stroke="midnightblue" points="576.5,-85.751 573,-75.7511 569.5,-85.7511 576.5,-85.751"/>
</g>
<!-- Node21&#45;&gt;Node17 -->
<g id="edge25" class="edge"><title>Node21&#45;&gt;Node17</title>
<path fill="none" stroke="midnightblue" d="M591.028,-112.391C605.226,-104.726 624.483,-92.2196 636,-76 645.679,-62.3699 650.467,-43.8287 652.812,-30.0367"/>
<polygon fill="midnightblue" stroke="midnightblue" points="656.328,-30.1716 654.261,-19.7804 649.396,-29.1926 656.328,-30.1716"/>
</g>
</g>
</svg>
        <g id="navigator" transform="translate(0 0)" fill="#404254">
                <rect fill="#f2f5e9" fill-opacity="0.5" stroke="#606060" stroke-width=".5" x="0" y="0" width="60" height="60"/>
                <use id="zoomplus" xlink:href="#zoomPlus" x="17" y="9" onmousedown="handleZoom(evt,'in')"/>
                <use id="zoomminus" xlink:href="#zoomMin" x="42" y="9" onmousedown="handleZoom(evt,'out')"/>
                <use id="reset" xlink:href="#resetDef" x="30" y="36" onmousedown="handleReset()"/>
                <g id="arrowUp" xlink:href="#dirArrow" transform="translate(30 24)" onmousedown="handlePan(0,-1)">
                  <use xlink:href="#rim" fill="#404040">
                        <set attributeName="fill" to="#808080" begin="arrowUp.mouseover" end="arrowUp.mouseout"/>
                  </use>
                  <path fill="none" stroke="white" stroke-width="1.5" d="M0,-3.0v7 M-2.5,-0.5L0,-3.0L2.5,-0.5"/>
                </g>
                <g id="arrowRight" xlink:href="#dirArrow" transform="rotate(90) translate(36 -43)" onmousedown="handlePan(1,0)">
                  <use xlink:href="#rim" fill="#404040">
                        <set attributeName="fill" to="#808080" begin="arrowRight.mouseover" end="arrowRight.mouseout"/>
                  </use>
                  <path fill="none" stroke="white" stroke-width="1.5" d="M0,-3.0v7 M-2.5,-0.5L0,-3.0L2.5,-0.5"/>
                </g>
                <g id="arrowDown" xlink:href="#dirArrow" transform="rotate(180) translate(-30 -48)" onmousedown="handlePan(0,1)">
                  <use xlink:href="#rim" fill="#404040">
                        <set attributeName="fill" to="#808080" begin="arrowDown.mouseover" end="arrowDown.mouseout"/>
                  </use>
                  <path fill="none" stroke="white" stroke-width="1.5" d="M0,-3.0v7 M-2.5,-0.5L0,-3.0L2.5,-0.5"/>
                </g>
                <g id="arrowLeft" xlink:href="#dirArrow" transform="rotate(270) translate(-36 17)" onmousedown="handlePan(-1,0)">
                  <use xlink:href="#rim" fill="#404040">
                        <set attributeName="fill" to="#808080" begin="arrowLeft.mouseover" end="arrowLeft.mouseout"/>
                  </use>
                  <path fill="none" stroke="white" stroke-width="1.5" d="M0,-3.0v7 M-2.5,-0.5L0,-3.0L2.5,-0.5"/>
                </g>
        </g>
        <svg viewBox="0 0 15 15" width="100%" height="30px" preserveAspectRatio="xMaxYMin meet">
         <g id="arrow_out" transform="scale(0.3 0.3)">
          <a xlink:href="_widget_8cpp__incl_org.svg" target="_base">
           <rect id="button" ry="5" rx="5" y="6" x="6" height="38" width="38"
                fill="#f2f5e9" fill-opacity="0.5" stroke="#606060" stroke-width="1.0"/>
           <path id="arrow"
             d="M 11.500037,31.436501 C 11.940474,20.09759 22.043105,11.32322 32.158766,21.979434 L 37.068811,17.246167 C 37.068811,17.246167 37.088388,32 37.088388,32 L 22.160133,31.978069 C 22.160133,31.978069 26.997745,27.140456 26.997745,27.140456 C 18.528582,18.264221 13.291696,25.230495 11.500037,31.436501 z"
             style="fill:#404040;"/>
          </a>
         </g>
        </svg>
</svg>
