<?xml version="1.0" encoding="UTF-8" standalone="no"?>
<!DOCTYPE svg PUBLIC "-//W3C//DTD SVG 1.1//EN"
 "http://www.w3.org/Graphics/SVG/1.1/DTD/svg11.dtd">
<!-- Generated by graphviz version 2.36.0 (20140111.2315)
 -->
<!-- Title: Window.cpp Pages: 1 -->
<svg width="453pt" height="308pt"
 viewBox="0.00 0.00 453.12 308.00" xmlns="http://www.w3.org/2000/svg" xmlns:xlink="http://www.w3.org/1999/xlink">
<g id="graph0" class="graph" transform="scale(1 1) rotate(0) translate(4 304)">
<title>Window.cpp</title>
<polygon fill="white" stroke="none" points="-4,4 -4,-304 449.117,-304 449.117,4 -4,4"/>
<!-- Node1 -->
<g id="node1" class="node"><title>Node1</title>
<polygon fill="#bfbfbf" stroke="black" points="154.617,-280.5 154.617,-299.5 225.617,-299.5 225.617,-280.5 154.617,-280.5"/>
<text text-anchor="middle" x="190.117" y="-287.5" font-family="Helvetica,sans-Serif" font-size="10.00">Window.cpp</text>
</g>
<!-- Node2 -->
<g id="node2" class="node"><title>Node2</title>
<g id="a_node2"><a xlink:href="_window_8hpp.html" target="_top" xlink:title="../include/Window.hpp">
<polygon fill="white" stroke="black" points="133.617,-224.5 133.617,-243.5 246.617,-243.5 246.617,-224.5 133.617,-224.5"/>
<text text-anchor="middle" x="190.117" y="-231.5" font-family="Helvetica,sans-Serif" font-size="10.00">../include/Window.hpp</text>
</a>
</g>
</g>
<!-- Node1&#45;&gt;Node2 -->
<g id="edge1" class="edge"><title>Node1&#45;&gt;Node2</title>
<path fill="none" stroke="midnightblue" d="M190.117,-280.083C190.117,-273.006 190.117,-262.861 190.117,-253.986"/>
<polygon fill="midnightblue" stroke="midnightblue" points="193.617,-253.751 190.117,-243.751 186.617,-253.751 193.617,-253.751"/>
</g>
<!-- Node3 -->
<g id="node3" class="node"><title>Node3</title>
<polygon fill="white" stroke="#bfbfbf" points="16.6174,-112.5 16.6174,-131.5 57.6174,-131.5 57.6174,-112.5 16.6174,-112.5"/>
<text text-anchor="middle" x="37.1174" y="-119.5" font-family="Helvetica,sans-Serif" font-size="10.00">string</text>
</g>
<!-- Node2&#45;&gt;Node3 -->
<g id="edge2" class="edge"><title>Node2&#45;&gt;Node3</title>
<path fill="none" stroke="midnightblue" d="M133.299,-228.22C104.431,-222.825 71.1107,-211.525 50.1174,-188 38.9925,-175.534 36.3049,-156.301 36.0627,-141.986"/>
<polygon fill="midnightblue" stroke="midnightblue" points="39.5661,-141.855 36.2782,-131.783 32.5677,-141.707 39.5661,-141.855"/>
</g>
<!-- Node4 -->
<g id="node4" class="node"><title>Node4</title>
<polygon fill="white" stroke="#bfbfbf" points="389.117,-168.5 389.117,-187.5 435.117,-187.5 435.117,-168.5 389.117,-168.5"/>
<text text-anchor="middle" x="412.117" y="-175.5" font-family="Helvetica,sans-Serif" font-size="10.00">chrono</text>
</g>
<!-- Node2&#45;&gt;Node4 -->
<g id="edge3" class="edge"><title>Node2&#45;&gt;Node4</title>
<path fill="none" stroke="midnightblue" d="M225.294,-224.444C267.56,-214.163 337.922,-197.047 379.17,-187.014"/>
<polygon fill="midnightblue" stroke="midnightblue" points="380.106,-190.389 388.995,-184.624 378.451,-183.587 380.106,-190.389"/>
</g>
<!-- Node5 -->
<g id="node5" class="node"><title>Node5</title>
<polygon fill="white" stroke="#bfbfbf" points="26.1174,-56.5 26.1174,-75.5 134.117,-75.5 134.117,-56.5 26.1174,-56.5"/>
<text text-anchor="middle" x="80.1174" y="-63.5" font-family="Helvetica,sans-Serif" font-size="10.00">ez&#45;lib/ez&#45;draw++.hpp</text>
</g>
<!-- Node2&#45;&gt;Node5 -->
<g id="edge4" class="edge"><title>Node2&#45;&gt;Node5</title>
<path fill="none" stroke="midnightblue" d="M133.393,-227.427C101.845,-221.819 63.5384,-210.568 36.1174,-188 8.20277,-165.025 -10.5062,-143.567 7.11739,-112 15.2736,-97.3909 30.337,-86.9362 44.6714,-79.8038"/>
<polygon fill="midnightblue" stroke="midnightblue" points="46.2638,-82.9244 53.9059,-75.5863 43.3557,-76.557 46.2638,-82.9244"/>
</g>
<!-- Node6 -->
<g id="node6" class="node"><title>Node6</title>
<g id="a_node6"><a xlink:href="_point_8hpp.html" target="_top" xlink:title="Classe point. ">
<polygon fill="white" stroke="black" points="278.117,-112.5 278.117,-131.5 336.117,-131.5 336.117,-112.5 278.117,-112.5"/>
<text text-anchor="middle" x="307.117" y="-119.5" font-family="Helvetica,sans-Serif" font-size="10.00">Point.hpp</text>
</a>
</g>
</g>
<!-- Node2&#45;&gt;Node6 -->
<g id="edge5" class="edge"><title>Node2&#45;&gt;Node6</title>
<path fill="none" stroke="midnightblue" d="M246.876,-232.085C280.345,-228.244 320.297,-217.216 342.117,-188 353.765,-172.404 339.274,-152.436 325.559,-138.772"/>
<polygon fill="midnightblue" stroke="midnightblue" points="327.89,-136.16 318.19,-131.898 323.115,-141.278 327.89,-136.16"/>
</g>
<!-- Node12 -->
<g id="node12" class="node"><title>Node12</title>
<g id="a_node12"><a xlink:href="_canvas_8hpp.html" target="_top" xlink:title="Canvas.hpp">
<polygon fill="white" stroke="black" points="155.617,-168.5 155.617,-187.5 224.617,-187.5 224.617,-168.5 155.617,-168.5"/>
<text text-anchor="middle" x="190.117" y="-175.5" font-family="Helvetica,sans-Serif" font-size="10.00">Canvas.hpp</text>
</a>
</g>
</g>
<!-- Node2&#45;&gt;Node12 -->
<g id="edge12" class="edge"><title>Node2&#45;&gt;Node12</title>
<path fill="none" stroke="midnightblue" d="M190.117,-224.083C190.117,-217.006 190.117,-206.861 190.117,-197.986"/>
<polygon fill="midnightblue" stroke="midnightblue" points="193.617,-197.751 190.117,-187.751 186.617,-197.751 193.617,-197.751"/>
</g>
<!-- Node14 -->
<g id="node14" class="node"><title>Node14</title>
<g id="a_node14"><a xlink:href="_mouse_event_8hpp.html" target="_top" xlink:title="Classe MouseEvent. ">
<polygon fill="white" stroke="black" points="243.117,-168.5 243.117,-187.5 333.117,-187.5 333.117,-168.5 243.117,-168.5"/>
<text text-anchor="middle" x="288.117" y="-175.5" font-family="Helvetica,sans-Serif" font-size="10.00">MouseEvent.hpp</text>
</a>
</g>
</g>
<!-- Node2&#45;&gt;Node14 -->
<g id="edge17" class="edge"><title>Node2&#45;&gt;Node14</title>
<path fill="none" stroke="midnightblue" d="M205.863,-224.324C221.436,-215.743 245.495,-202.486 263.577,-192.522"/>
<polygon fill="midnightblue" stroke="midnightblue" points="265.342,-195.546 272.411,-187.655 261.964,-189.415 265.342,-195.546"/>
</g>
<!-- Node16 -->
<g id="node16" class="node"><title>Node16</title>
<g id="a_node16"><a xlink:href="_key_event_8hpp.html" target="_top" xlink:title="Classe KeyEvent. ">
<polygon fill="white" stroke="black" points="59.1174,-168.5 59.1174,-187.5 137.117,-187.5 137.117,-168.5 59.1174,-168.5"/>
<text text-anchor="middle" x="98.1174" y="-175.5" font-family="Helvetica,sans-Serif" font-size="10.00">KeyEvent.hpp</text>
</a>
</g>
</g>
<!-- Node2&#45;&gt;Node16 -->
<g id="edge22" class="edge"><title>Node2&#45;&gt;Node16</title>
<path fill="none" stroke="midnightblue" d="M175.336,-224.324C160.85,-215.822 138.544,-202.729 121.624,-192.797"/>
<polygon fill="midnightblue" stroke="midnightblue" points="123.258,-189.698 112.862,-187.655 119.715,-195.735 123.258,-189.698"/>
</g>
<!-- Node7 -->
<g id="node7" class="node"><title>Node7</title>
<polygon fill="white" stroke="#bfbfbf" points="152.117,-56.5 152.117,-75.5 206.117,-75.5 206.117,-56.5 152.117,-56.5"/>
<text text-anchor="middle" x="179.117" y="-63.5" font-family="Helvetica,sans-Serif" font-size="10.00">iostream</text>
</g>
<!-- Node6&#45;&gt;Node7 -->
<g id="edge6" class="edge"><title>Node6&#45;&gt;Node7</title>
<path fill="none" stroke="midnightblue" d="M286.835,-112.444C265.77,-103.557 232.601,-89.5632 208.632,-79.4514"/>
<polygon fill="midnightblue" stroke="midnightblue" points="209.879,-76.1787 199.304,-75.5164 207.158,-82.6283 209.879,-76.1787"/>
</g>
<!-- Node8 -->
<g id="node8" class="node"><title>Node8</title>
<polygon fill="white" stroke="#bfbfbf" points="224.117,-56.5 224.117,-75.5 268.117,-75.5 268.117,-56.5 224.117,-56.5"/>
<text text-anchor="middle" x="246.117" y="-63.5" font-family="Helvetica,sans-Serif" font-size="10.00">vector</text>
</g>
<!-- Node6&#45;&gt;Node8 -->
<g id="edge7" class="edge"><title>Node6&#45;&gt;Node8</title>
<path fill="none" stroke="midnightblue" d="M297.317,-112.324C288.299,-104.341 274.711,-92.3128 263.799,-82.6529"/>
<polygon fill="midnightblue" stroke="midnightblue" points="265.904,-79.8416 256.096,-75.8339 261.264,-85.083 265.904,-79.8416"/>
</g>
<!-- Node9 -->
<g id="node9" class="node"><title>Node9</title>
<polygon fill="white" stroke="#bfbfbf" points="286.117,-56.5 286.117,-75.5 338.117,-75.5 338.117,-56.5 286.117,-56.5"/>
<text text-anchor="middle" x="312.117" y="-63.5" font-family="Helvetica,sans-Serif" font-size="10.00">memory</text>
</g>
<!-- Node6&#45;&gt;Node9 -->
<g id="edge8" class="edge"><title>Node6&#45;&gt;Node9</title>
<path fill="none" stroke="midnightblue" d="M307.943,-112.083C308.598,-105.006 309.538,-94.8611 310.359,-85.9865"/>
<polygon fill="midnightblue" stroke="midnightblue" points="313.87,-86.0312 311.307,-75.7511 306.9,-85.3858 313.87,-86.0312"/>
</g>
<!-- Node10 -->
<g id="node10" class="node"><title>Node10</title>
<g id="a_node10"><a xlink:href="_group_points_8hpp.html" target="_top" xlink:title="GroupPoints.hpp">
<polygon fill="white" stroke="black" points="356.617,-56.5 356.617,-75.5 445.617,-75.5 445.617,-56.5 356.617,-56.5"/>
<text text-anchor="middle" x="401.117" y="-63.5" font-family="Helvetica,sans-Serif" font-size="10.00">GroupPoints.hpp</text>
</a>
</g>
</g>
<!-- Node6&#45;&gt;Node10 -->
<g id="edge9" class="edge"><title>Node6&#45;&gt;Node10</title>
<path fill="none" stroke="midnightblue" d="M317.105,-112.324C330.245,-103.703 353.196,-90.3643 371.896,-80.3855"/>
<polygon fill="midnightblue" stroke="midnightblue" points="373.703,-83.3904 380.942,-75.6545 370.459,-77.1875 373.703,-83.3904"/>
</g>
<!-- Node10&#45;&gt;Node6 -->
<g id="edge11" class="edge"><title>Node10&#45;&gt;Node6</title>
<path fill="none" stroke="midnightblue" d="M391.162,-75.6545C378.039,-84.2672 355.092,-97.6052 336.386,-107.59"/>
<polygon fill="midnightblue" stroke="midnightblue" points="334.573,-104.587 327.335,-112.324 337.818,-110.79 334.573,-104.587"/>
</g>
<!-- Node11 -->
<g id="node11" class="node"><title>Node11</title>
<polygon fill="white" stroke="#bfbfbf" points="371.617,-0.5 371.617,-19.5 430.617,-19.5 430.617,-0.5 371.617,-0.5"/>
<text text-anchor="middle" x="401.117" y="-7.5" font-family="Helvetica,sans-Serif" font-size="10.00">functional</text>
</g>
<!-- Node10&#45;&gt;Node11 -->
<g id="edge10" class="edge"><title>Node10&#45;&gt;Node11</title>
<path fill="none" stroke="midnightblue" d="M401.117,-56.083C401.117,-49.0059 401.117,-38.8611 401.117,-29.9865"/>
<polygon fill="midnightblue" stroke="midnightblue" points="404.617,-29.751 401.117,-19.7511 397.617,-29.7511 404.617,-29.751"/>
</g>
<!-- Node12&#45;&gt;Node5 -->
<g id="edge13" class="edge"><title>Node12&#45;&gt;Node5</title>
<path fill="none" stroke="midnightblue" d="M163.131,-168.427C144.595,-161.308 120.628,-149.489 105.117,-132 93.4696,-118.867 86.9925,-99.7235 83.5675,-85.6112"/>
<polygon fill="midnightblue" stroke="midnightblue" points="86.9385,-84.6361 81.4347,-75.583 80.0917,-86.0924 86.9385,-84.6361"/>
</g>
<!-- Node12&#45;&gt;Node6 -->
<g id="edge14" class="edge"><title>Node12&#45;&gt;Node6</title>
<path fill="none" stroke="midnightblue" d="M208.656,-168.444C227.74,-159.636 257.692,-145.812 279.553,-135.722"/>
<polygon fill="midnightblue" stroke="midnightblue" points="281.052,-138.885 288.665,-131.516 278.119,-132.529 281.052,-138.885"/>
</g>
<!-- Node13 -->
<g id="node13" class="node"><title>Node13</title>
<g id="a_node13"><a xlink:href="_font_8hpp.html" target="_top" xlink:title="Font.hpp">
<polygon fill="white" stroke="black" points="193.617,-112.5 193.617,-131.5 248.617,-131.5 248.617,-112.5 193.617,-112.5"/>
<text text-anchor="middle" x="221.117" y="-119.5" font-family="Helvetica,sans-Serif" font-size="10.00">Font.hpp</text>
</a>
</g>
</g>
<!-- Node12&#45;&gt;Node13 -->
<g id="edge15" class="edge"><title>Node12&#45;&gt;Node13</title>
<path fill="none" stroke="midnightblue" d="M195.236,-168.083C199.525,-160.613 205.776,-149.724 211.06,-140.52"/>
<polygon fill="midnightblue" stroke="midnightblue" points="214.15,-142.166 216.094,-131.751 208.08,-138.681 214.15,-142.166"/>
</g>
<!-- Node13&#45;&gt;Node7 -->
<g id="edge16" class="edge"><title>Node13&#45;&gt;Node7</title>
<path fill="none" stroke="midnightblue" d="M214.182,-112.083C208.188,-104.377 199.366,-93.0333 192.07,-83.6531"/>
<polygon fill="midnightblue" stroke="midnightblue" points="194.826,-81.4958 185.924,-75.7511 189.3,-85.7934 194.826,-81.4958"/>
</g>
<!-- Node14&#45;&gt;Node6 -->
<g id="edge21" class="edge"><title>Node14&#45;&gt;Node6</title>
<path fill="none" stroke="midnightblue" d="M291.255,-168.083C293.8,-160.849 297.474,-150.409 300.644,-141.397"/>
<polygon fill="midnightblue" stroke="midnightblue" points="304.021,-142.346 304.038,-131.751 297.418,-140.023 304.021,-142.346"/>
</g>
<!-- Node15 -->
<g id="node15" class="node"><title>Node15</title>
<g id="a_node15"><a xlink:href="_event_8hpp.html" target="_top" xlink:title="Classe Event. ">
<polygon fill="white" stroke="black" points="114.617,-112.5 114.617,-131.5 175.617,-131.5 175.617,-112.5 114.617,-112.5"/>
<text text-anchor="middle" x="145.117" y="-119.5" font-family="Helvetica,sans-Serif" font-size="10.00">Event.hpp</text>
</a>
</g>
</g>
<!-- Node14&#45;&gt;Node15 -->
<g id="edge18" class="edge"><title>Node14&#45;&gt;Node15</title>
<path fill="none" stroke="midnightblue" d="M265.459,-168.444C241.715,-159.478 204.208,-145.314 177.379,-135.183"/>
<polygon fill="midnightblue" stroke="midnightblue" points="178.262,-131.775 167.67,-131.516 175.789,-138.324 178.262,-131.775"/>
</g>
<!-- Node15&#45;&gt;Node5 -->
<g id="edge20" class="edge"><title>Node15&#45;&gt;Node5</title>
<path fill="none" stroke="midnightblue" d="M134.674,-112.324C124.971,-104.263 110.302,-92.0765 98.6177,-82.3695"/>
<polygon fill="midnightblue" stroke="midnightblue" points="100.679,-79.532 90.7508,-75.8339 96.2061,-84.9163 100.679,-79.532"/>
</g>
<!-- Node15&#45;&gt;Node7 -->
<g id="edge19" class="edge"><title>Node15&#45;&gt;Node7</title>
<path fill="none" stroke="midnightblue" d="M150.732,-112.083C155.485,-104.534 162.435,-93.4948 168.269,-84.2298"/>
<polygon fill="midnightblue" stroke="midnightblue" points="171.241,-86.0783 173.607,-75.7511 165.317,-82.3486 171.241,-86.0783"/>
</g>
<!-- Node16&#45;&gt;Node3 -->
<g id="edge23" class="edge"><title>Node16&#45;&gt;Node3</title>
<path fill="none" stroke="midnightblue" d="M88.3167,-168.324C79.2993,-160.341 65.7114,-148.313 54.7994,-138.653"/>
<polygon fill="midnightblue" stroke="midnightblue" points="56.904,-135.842 47.0964,-131.834 52.2641,-141.083 56.904,-135.842"/>
</g>
<!-- Node16&#45;&gt;Node15 -->
<g id="edge24" class="edge"><title>Node16&#45;&gt;Node15</title>
<path fill="none" stroke="midnightblue" d="M105.878,-168.083C112.654,-160.298 122.661,-148.801 130.872,-139.367"/>
<polygon fill="midnightblue" stroke="midnightblue" points="133.576,-141.592 137.501,-131.751 128.295,-136.996 133.576,-141.592"/>
</g>
</g>
</svg>
