<?xml version="1.0" encoding="UTF-8" standalone="no"?>
<!DOCTYPE svg PUBLIC "-//W3C//DTD SVG 1.1//EN"
 "http://www.w3.org/Graphics/SVG/1.1/DTD/svg11.dtd">
<!-- Generated by graphviz version 2.36.0 (20140111.2315)
 -->
<!-- Title: Window.hpp Pages: 1 -->
<svg width="448pt" height="196pt"
 viewBox="0.00 0.00 448.37 196.00" xmlns="http://www.w3.org/2000/svg" xmlns:xlink="http://www.w3.org/1999/xlink">
<g id="graph0" class="graph" transform="scale(1 1) rotate(0) translate(4 192)">
<title>Window.hpp</title>
<polygon fill="white" stroke="none" points="-4,4 -4,-192 444.372,-192 444.372,4 -4,4"/>
<!-- Node1 -->
<g id="node1" class="node"><title>Node1</title>
<polygon fill="#bfbfbf" stroke="black" points="154.872,-168.5 154.872,-187.5 225.872,-187.5 225.872,-168.5 154.872,-168.5"/>
<text text-anchor="middle" x="190.372" y="-175.5" font-family="Helvetica,sans-Serif" font-size="10.00">Window.hpp</text>
</g>
<!-- Node2 -->
<g id="node2" class="node"><title>Node2</title>
<polygon fill="white" stroke="#bfbfbf" points="16.8724,-56.5 16.8724,-75.5 57.8724,-75.5 57.8724,-56.5 16.8724,-56.5"/>
<text text-anchor="middle" x="37.3724" y="-63.5" font-family="Helvetica,sans-Serif" font-size="10.00">string</text>
</g>
<!-- Node1&#45;&gt;Node2 -->
<g id="edge1" class="edge"><title>Node1&#45;&gt;Node2</title>
<path fill="none" stroke="midnightblue" d="M154.805,-175.334C122.781,-171.86 76.8053,-161.62 50.3724,-132 39.2475,-119.534 36.5599,-100.301 36.3177,-85.9859"/>
<polygon fill="midnightblue" stroke="midnightblue" points="39.8211,-85.8552 36.5332,-75.7835 32.8227,-85.7073 39.8211,-85.8552"/>
</g>
<!-- Node3 -->
<g id="node3" class="node"><title>Node3</title>
<polygon fill="white" stroke="#bfbfbf" points="389.372,-112.5 389.372,-131.5 435.372,-131.5 435.372,-112.5 389.372,-112.5"/>
<text text-anchor="middle" x="412.372" y="-119.5" font-family="Helvetica,sans-Serif" font-size="10.00">chrono</text>
</g>
<!-- Node1&#45;&gt;Node3 -->
<g id="edge2" class="edge"><title>Node1&#45;&gt;Node3</title>
<path fill="none" stroke="midnightblue" d="M225.549,-168.444C267.815,-158.163 338.177,-141.047 379.425,-131.014"/>
<polygon fill="midnightblue" stroke="midnightblue" points="380.361,-134.389 389.25,-128.624 378.706,-127.587 380.361,-134.389"/>
</g>
<!-- Node4 -->
<g id="node4" class="node"><title>Node4</title>
<polygon fill="white" stroke="#bfbfbf" points="32.3724,-0.5 32.3724,-19.5 140.372,-19.5 140.372,-0.5 32.3724,-0.5"/>
<text text-anchor="middle" x="86.3724" y="-7.5" font-family="Helvetica,sans-Serif" font-size="10.00">ez&#45;lib/ez&#45;draw++.hpp</text>
</g>
<!-- Node1&#45;&gt;Node4 -->
<g id="edge3" class="edge"><title>Node1&#45;&gt;Node4</title>
<path fill="none" stroke="midnightblue" d="M154.564,-174.522C120.73,-170.487 70.2455,-159.879 36.3724,-132 8.45778,-109.025 -10.7952,-87.257 7.3724,-56 16.1086,-40.9696 31.9507,-30.5428 47.1672,-23.5405"/>
<polygon fill="midnightblue" stroke="midnightblue" points="48.6347,-26.7202 56.4917,-19.6125 45.9172,-20.2692 48.6347,-26.7202"/>
</g>
<!-- Node5 -->
<g id="node5" class="node"><title>Node5</title>
<g id="a_node5"><a xlink:href="_point_8hpp.html" target="_top" xlink:title="Classe point. ">
<polygon fill="white" stroke="black" points="267.372,-56.5 267.372,-75.5 325.372,-75.5 325.372,-56.5 267.372,-56.5"/>
<text text-anchor="middle" x="296.372" y="-63.5" font-family="Helvetica,sans-Serif" font-size="10.00">Point.hpp</text>
</a>
</g>
</g>
<!-- Node1&#45;&gt;Node5 -->
<g id="edge4" class="edge"><title>Node1&#45;&gt;Node5</title>
<path fill="none" stroke="midnightblue" d="M226.012,-177.703C261.912,-176.253 315.694,-167.721 342.372,-132 355.169,-114.866 335.706,-94.7059 318.296,-81.4326"/>
<polygon fill="midnightblue" stroke="midnightblue" points="320.227,-78.5102 310.065,-75.5132 316.14,-84.1932 320.227,-78.5102"/>
</g>
<!-- Node10 -->
<g id="node10" class="node"><title>Node10</title>
<g id="a_node10"><a xlink:href="_canvas_8hpp.html" target="_top" xlink:title="Canvas.hpp">
<polygon fill="white" stroke="black" points="155.872,-112.5 155.872,-131.5 224.872,-131.5 224.872,-112.5 155.872,-112.5"/>
<text text-anchor="middle" x="190.372" y="-119.5" font-family="Helvetica,sans-Serif" font-size="10.00">Canvas.hpp</text>
</a>
</g>
</g>
<!-- Node1&#45;&gt;Node10 -->
<g id="edge9" class="edge"><title>Node1&#45;&gt;Node10</title>
<path fill="none" stroke="midnightblue" d="M190.372,-168.083C190.372,-161.006 190.372,-150.861 190.372,-141.986"/>
<polygon fill="midnightblue" stroke="midnightblue" points="193.873,-141.751 190.372,-131.751 186.873,-141.751 193.873,-141.751"/>
</g>
<!-- Node12 -->
<g id="node12" class="node"><title>Node12</title>
<g id="a_node12"><a xlink:href="_mouse_event_8hpp.html" target="_top" xlink:title="Classe MouseEvent. ">
<polygon fill="white" stroke="black" points="243.372,-112.5 243.372,-131.5 333.372,-131.5 333.372,-112.5 243.372,-112.5"/>
<text text-anchor="middle" x="288.372" y="-119.5" font-family="Helvetica,sans-Serif" font-size="10.00">MouseEvent.hpp</text>
</a>
</g>
</g>
<!-- Node1&#45;&gt;Node12 -->
<g id="edge14" class="edge"><title>Node1&#45;&gt;Node12</title>
<path fill="none" stroke="midnightblue" d="M206.118,-168.324C221.691,-159.743 245.75,-146.486 263.832,-136.522"/>
<polygon fill="midnightblue" stroke="midnightblue" points="265.597,-139.546 272.666,-131.655 262.219,-133.415 265.597,-139.546"/>
</g>
<!-- Node14 -->
<g id="node14" class="node"><title>Node14</title>
<g id="a_node14"><a xlink:href="_key_event_8hpp.html" target="_top" xlink:title="Classe KeyEvent. ">
<polygon fill="white" stroke="black" points="59.3724,-112.5 59.3724,-131.5 137.372,-131.5 137.372,-112.5 59.3724,-112.5"/>
<text text-anchor="middle" x="98.3724" y="-119.5" font-family="Helvetica,sans-Serif" font-size="10.00">KeyEvent.hpp</text>
</a>
</g>
</g>
<!-- Node1&#45;&gt;Node14 -->
<g id="edge19" class="edge"><title>Node1&#45;&gt;Node14</title>
<path fill="none" stroke="midnightblue" d="M175.591,-168.324C161.105,-159.822 138.799,-146.729 121.879,-136.797"/>
<polygon fill="midnightblue" stroke="midnightblue" points="123.513,-133.698 113.117,-131.655 119.97,-139.735 123.513,-133.698"/>
</g>
<!-- Node6 -->
<g id="node6" class="node"><title>Node6</title>
<polygon fill="white" stroke="#bfbfbf" points="176.372,-0.5 176.372,-19.5 230.372,-19.5 230.372,-0.5 176.372,-0.5"/>
<text text-anchor="middle" x="203.372" y="-7.5" font-family="Helvetica,sans-Serif" font-size="10.00">iostream</text>
</g>
<!-- Node5&#45;&gt;Node6 -->
<g id="edge5" class="edge"><title>Node5&#45;&gt;Node6</title>
<path fill="none" stroke="midnightblue" d="M281.43,-56.324C266.787,-47.8215 244.239,-34.7288 227.135,-24.7975"/>
<polygon fill="midnightblue" stroke="midnightblue" points="228.683,-21.6491 218.277,-19.6545 225.168,-27.7027 228.683,-21.6491"/>
</g>
<!-- Node7 -->
<g id="node7" class="node"><title>Node7</title>
<polygon fill="white" stroke="#bfbfbf" points="248.372,-0.5 248.372,-19.5 292.372,-19.5 292.372,-0.5 248.372,-0.5"/>
<text text-anchor="middle" x="270.372" y="-7.5" font-family="Helvetica,sans-Serif" font-size="10.00">vector</text>
</g>
<!-- Node5&#45;&gt;Node7 -->
<g id="edge6" class="edge"><title>Node5&#45;&gt;Node7</title>
<path fill="none" stroke="midnightblue" d="M292.079,-56.083C288.52,-48.6913 283.35,-37.9533 278.948,-28.8111"/>
<polygon fill="midnightblue" stroke="midnightblue" points="282.078,-27.2427 274.586,-19.7511 275.771,-30.2795 282.078,-27.2427"/>
</g>
<!-- Node8 -->
<g id="node8" class="node"><title>Node8</title>
<polygon fill="white" stroke="#bfbfbf" points="310.872,-0.5 310.872,-19.5 369.872,-19.5 369.872,-0.5 310.872,-0.5"/>
<text text-anchor="middle" x="340.372" y="-7.5" font-family="Helvetica,sans-Serif" font-size="10.00">functional</text>
</g>
<!-- Node5&#45;&gt;Node8 -->
<g id="edge7" class="edge"><title>Node5&#45;&gt;Node8</title>
<path fill="none" stroke="midnightblue" d="M303.638,-56.083C309.917,-48.3768 319.16,-37.0333 326.803,-27.6531"/>
<polygon fill="midnightblue" stroke="midnightblue" points="329.638,-29.7143 333.242,-19.7511 324.212,-25.2926 329.638,-29.7143"/>
</g>
<!-- Node9 -->
<g id="node9" class="node"><title>Node9</title>
<polygon fill="white" stroke="#bfbfbf" points="388.372,-0.5 388.372,-19.5 440.372,-19.5 440.372,-0.5 388.372,-0.5"/>
<text text-anchor="middle" x="414.372" y="-7.5" font-family="Helvetica,sans-Serif" font-size="10.00">memory</text>
</g>
<!-- Node5&#45;&gt;Node9 -->
<g id="edge8" class="edge"><title>Node5&#45;&gt;Node9</title>
<path fill="none" stroke="midnightblue" d="M315.07,-56.4435C334.317,-47.6356 364.525,-33.8116 386.573,-23.722"/>
<polygon fill="midnightblue" stroke="midnightblue" points="388.126,-26.8603 395.762,-19.5164 385.213,-20.4951 388.126,-26.8603"/>
</g>
<!-- Node10&#45;&gt;Node4 -->
<g id="edge10" class="edge"><title>Node10&#45;&gt;Node4</title>
<path fill="none" stroke="midnightblue" d="M161.719,-112.361C143.157,-105.369 119.83,-93.7276 105.372,-76 94.5843,-62.7717 89.9216,-43.6409 87.9064,-29.5576"/>
<polygon fill="midnightblue" stroke="midnightblue" points="91.3777,-29.105 86.7913,-19.5543 84.4208,-29.8805 91.3777,-29.105"/>
</g>
<!-- Node10&#45;&gt;Node5 -->
<g id="edge11" class="edge"><title>Node10&#45;&gt;Node5</title>
<path fill="none" stroke="midnightblue" d="M207.403,-112.324C224.402,-103.664 250.749,-90.2424 270.365,-80.249"/>
<polygon fill="midnightblue" stroke="midnightblue" points="272.062,-83.3125 279.384,-75.6545 268.885,-77.0752 272.062,-83.3125"/>
</g>
<!-- Node11 -->
<g id="node11" class="node"><title>Node11</title>
<g id="a_node11"><a xlink:href="_font_8hpp.html" target="_top" xlink:title="Font.hpp">
<polygon fill="white" stroke="black" points="193.872,-56.5 193.872,-75.5 248.872,-75.5 248.872,-56.5 193.872,-56.5"/>
<text text-anchor="middle" x="221.372" y="-63.5" font-family="Helvetica,sans-Serif" font-size="10.00">Font.hpp</text>
</a>
</g>
</g>
<!-- Node10&#45;&gt;Node11 -->
<g id="edge12" class="edge"><title>Node10&#45;&gt;Node11</title>
<path fill="none" stroke="midnightblue" d="M195.491,-112.083C199.78,-104.613 206.031,-93.7244 211.315,-84.5199"/>
<polygon fill="midnightblue" stroke="midnightblue" points="214.405,-86.1662 216.349,-75.7511 208.335,-82.6811 214.405,-86.1662"/>
</g>
<!-- Node11&#45;&gt;Node6 -->
<g id="edge13" class="edge"><title>Node11&#45;&gt;Node6</title>
<path fill="none" stroke="midnightblue" d="M218.4,-56.083C215.989,-48.8486 212.509,-38.4087 209.505,-29.3968"/>
<polygon fill="midnightblue" stroke="midnightblue" points="212.772,-28.1311 206.289,-19.7511 206.131,-30.3447 212.772,-28.1311"/>
</g>
<!-- Node12&#45;&gt;Node5 -->
<g id="edge18" class="edge"><title>Node12&#45;&gt;Node5</title>
<path fill="none" stroke="midnightblue" d="M289.693,-112.083C290.754,-104.927 292.278,-94.6353 293.603,-85.6911"/>
<polygon fill="midnightblue" stroke="midnightblue" points="297.073,-86.1561 295.076,-75.7511 290.148,-85.1302 297.073,-86.1561"/>
</g>
<!-- Node13 -->
<g id="node13" class="node"><title>Node13</title>
<g id="a_node13"><a xlink:href="_event_8hpp.html" target="_top" xlink:title="Classe Event. ">
<polygon fill="white" stroke="black" points="114.872,-56.5 114.872,-75.5 175.872,-75.5 175.872,-56.5 114.872,-56.5"/>
<text text-anchor="middle" x="145.372" y="-63.5" font-family="Helvetica,sans-Serif" font-size="10.00">Event.hpp</text>
</a>
</g>
</g>
<!-- Node12&#45;&gt;Node13 -->
<g id="edge15" class="edge"><title>Node12&#45;&gt;Node13</title>
<path fill="none" stroke="midnightblue" d="M265.714,-112.444C241.97,-103.478 204.463,-89.314 177.634,-79.1827"/>
<polygon fill="midnightblue" stroke="midnightblue" points="178.517,-75.7749 167.925,-75.5164 176.044,-82.3235 178.517,-75.7749"/>
</g>
<!-- Node13&#45;&gt;Node4 -->
<g id="edge17" class="edge"><title>Node13&#45;&gt;Node4</title>
<path fill="none" stroke="midnightblue" d="M135.893,-56.324C127.171,-48.3414 114.029,-36.3128 103.475,-26.6529"/>
<polygon fill="midnightblue" stroke="midnightblue" points="105.764,-24.0036 96.0243,-19.8339 101.038,-29.1674 105.764,-24.0036"/>
</g>
<!-- Node13&#45;&gt;Node6 -->
<g id="edge16" class="edge"><title>Node13&#45;&gt;Node6</title>
<path fill="none" stroke="midnightblue" d="M154.691,-56.324C163.265,-48.3414 176.185,-36.3128 186.56,-26.6529"/>
<polygon fill="midnightblue" stroke="midnightblue" points="188.95,-29.2098 193.884,-19.8339 184.18,-24.0865 188.95,-29.2098"/>
</g>
<!-- Node14&#45;&gt;Node2 -->
<g id="edge20" class="edge"><title>Node14&#45;&gt;Node2</title>
<path fill="none" stroke="midnightblue" d="M88.5717,-112.324C79.5543,-104.341 65.9664,-92.3128 55.0544,-82.6529"/>
<polygon fill="midnightblue" stroke="midnightblue" points="57.159,-79.8416 47.3514,-75.8339 52.5191,-85.083 57.159,-79.8416"/>
</g>
<!-- Node14&#45;&gt;Node13 -->
<g id="edge21" class="edge"><title>Node14&#45;&gt;Node13</title>
<path fill="none" stroke="midnightblue" d="M106.133,-112.083C112.909,-104.298 122.916,-92.8015 131.127,-83.3665"/>
<polygon fill="midnightblue" stroke="midnightblue" points="133.831,-85.592 137.756,-75.7511 128.55,-80.9963 133.831,-85.592"/>
</g>
</g>
</svg>
