<?xml version="1.0" encoding="UTF-8" standalone="no"?>
<!DOCTYPE svg PUBLIC "-//W3C//DTD SVG 1.1//EN"
 "http://www.w3.org/Graphics/SVG/1.1/DTD/svg11.dtd">
<!-- Generated by graphviz version 2.36.0 (20140111.2315)
 -->
<!-- Title: Window.hpp Pages: 1 -->
<!--zoomable 252 -->
<svg id="main" version="1.1" xmlns="http://www.w3.org/2000/svg" xmlns:xlink="http://www.w3.org/1999/xlink" xml:space="preserve" onload="init(evt)">
<style type="text/css"><![CDATA[
.edge:hover path { stroke: red; }
.edge:hover polygon { stroke: red; fill: red; }
]]></style>
<script type="text/javascript"><![CDATA[
var edges = document.getElementsByTagName('g');
if (edges && edges.length) {
  for (var i=0;i<edges.length;i++) {
    if (edges[i].id.substr(0,4)=='edge') {
      edges[i].setAttribute('class','edge');
    }
  }
}
]]></script>
        <defs>
                <circle id="rim" cx="0" cy="0" r="7"/>
                <circle id="rim2" cx="0" cy="0" r="3.5"/>
                <g id="zoomPlus">
                        <use xlink:href="#rim" fill="#404040">
                                <set attributeName="fill" to="#808080" begin="zoomplus.mouseover" end="zoomplus.mouseout"/>
                        </use>
                        <path d="M-4,0h8M0,-4v8" fill="none" stroke="white" stroke-width="1.5" pointer-events="none"/>
                </g>
                <g id="zoomMin">
                        <use xlink:href="#rim" fill="#404040">
                                <set attributeName="fill" to="#808080" begin="zoomminus.mouseover" end="zoomminus.mouseout"/>
                        </use>
                        <path d="M-4,0h8" fill="none" stroke="white" stroke-width="1.5" pointer-events="none"/>
                </g>
                <g id="dirArrow">
                        <path fill="none" stroke="white" stroke-width="1.5" d="M0,-3.0v7 M-2.5,-0.5L0,-3.0L2.5,-0.5"/>
                </g>
               <g id="resetDef">
                       <use xlink:href="#rim2" fill="#404040">
                               <set attributeName="fill" to="#808080" begin="reset.mouseover" end="reset.mouseout"/>
                       </use>
               </g>
        </defs>

<script type="text/javascript">
var viewWidth = 539;
var viewHeight = 252;
var sectionId = 'dynsection-0';
</script>
<script xlink:href="svgpan.js"/>
<svg id="graph" class="graph">
<g id="viewport">
<title>Window.hpp</title>
<polygon fill="white" stroke="none" points="-4,4 -4,-248 535.374,-248 535.374,4 -4,4"/>
<!-- Node1 -->
<g id="node1" class="node"><title>Node1</title>
<polygon fill="#bfbfbf" stroke="black" points="153.874,-224.5 153.874,-243.5 224.874,-243.5 224.874,-224.5 153.874,-224.5"/>
<text text-anchor="middle" x="189.374" y="-231.5" font-family="Helvetica,sans-Serif" font-size="10.00">Window.hpp</text>
</g>
<!-- Node2 -->
<g id="node2" class="node"><title>Node2</title>
<polygon fill="white" stroke="#bfbfbf" points="15.8738,-112.5 15.8738,-131.5 56.8738,-131.5 56.8738,-112.5 15.8738,-112.5"/>
<text text-anchor="middle" x="36.3738" y="-119.5" font-family="Helvetica,sans-Serif" font-size="10.00">string</text>
</g>
<!-- Node1&#45;&gt;Node2 -->
<g id="edge1" class="edge"><title>Node1&#45;&gt;Node2</title>
<path fill="none" stroke="midnightblue" d="M153.807,-231.334C121.782,-227.86 75.8068,-217.62 49.3738,-188 38.249,-175.534 35.5614,-156.301 35.3191,-141.986"/>
<polygon fill="midnightblue" stroke="midnightblue" points="38.8226,-141.855 35.5346,-131.783 31.8241,-141.707 38.8226,-141.855"/>
</g>
<!-- Node3 -->
<g id="node3" class="node"><title>Node3</title>
<polygon fill="white" stroke="#bfbfbf" points="388.374,-168.5 388.374,-187.5 434.374,-187.5 434.374,-168.5 388.374,-168.5"/>
<text text-anchor="middle" x="411.374" y="-175.5" font-family="Helvetica,sans-Serif" font-size="10.00">chrono</text>
</g>
<!-- Node1&#45;&gt;Node3 -->
<g id="edge2" class="edge"><title>Node1&#45;&gt;Node3</title>
<path fill="none" stroke="midnightblue" d="M224.55,-224.444C266.817,-214.163 337.179,-197.047 378.427,-187.014"/>
<polygon fill="midnightblue" stroke="midnightblue" points="379.362,-190.389 388.252,-184.624 377.708,-183.587 379.362,-190.389"/>
</g>
<!-- Node4 -->
<g id="node4" class="node"><title>Node4</title>
<polygon fill="white" stroke="#bfbfbf" points="11.3738,-56.5 11.3738,-75.5 119.374,-75.5 119.374,-56.5 11.3738,-56.5"/>
<text text-anchor="middle" x="65.3738" y="-63.5" font-family="Helvetica,sans-Serif" font-size="10.00">ez&#45;lib/ez&#45;draw++.hpp</text>
</g>
<!-- Node1&#45;&gt;Node4 -->
<g id="edge3" class="edge"><title>Node1&#45;&gt;Node4</title>
<path fill="none" stroke="midnightblue" d="M153.566,-230.522C119.731,-226.487 69.2469,-215.879 35.3738,-188 7.45923,-165.025 -9.66354,-144.402 6.37385,-112 12.9768,-98.6595 25.6388,-88.1941 37.5451,-80.7262"/>
<polygon fill="midnightblue" stroke="midnightblue" points="39.4917,-83.6435 46.3897,-75.6018 35.9824,-77.5866 39.4917,-83.6435"/>
</g>
<!-- Node5 -->
<g id="node5" class="node"><title>Node5</title>
<g id="a_node5"><a xlink:href="_point_8hpp.html" target="_top" xlink:title="Classe point. ">
<polygon fill="white" stroke="black" points="286.374,-112.5 286.374,-131.5 344.374,-131.5 344.374,-112.5 286.374,-112.5"/>
<text text-anchor="middle" x="315.374" y="-119.5" font-family="Helvetica,sans-Serif" font-size="10.00">Point.hpp</text>
</a>
</g>
</g>
<!-- Node1&#45;&gt;Node5 -->
<g id="edge4" class="edge"><title>Node1&#45;&gt;Node5</title>
<path fill="none" stroke="midnightblue" d="M225.014,-233.703C260.913,-232.253 314.695,-223.721 341.374,-188 352.335,-173.323 341.378,-153.398 330.511,-139.491"/>
<polygon fill="midnightblue" stroke="midnightblue" points="333.074,-137.102 323.953,-131.711 327.722,-141.613 333.074,-137.102"/>
</g>
<!-- Node12 -->
<g id="node12" class="node"><title>Node12</title>
<g id="a_node12"><a xlink:href="_canvas_8hpp.html" target="_top" xlink:title="Canvas.hpp">
<polygon fill="white" stroke="black" points="154.874,-168.5 154.874,-187.5 223.874,-187.5 223.874,-168.5 154.874,-168.5"/>
<text text-anchor="middle" x="189.374" y="-175.5" font-family="Helvetica,sans-Serif" font-size="10.00">Canvas.hpp</text>
</a>
</g>
</g>
<!-- Node1&#45;&gt;Node12 -->
<g id="edge12" class="edge"><title>Node1&#45;&gt;Node12</title>
<path fill="none" stroke="midnightblue" d="M189.374,-224.083C189.374,-217.006 189.374,-206.861 189.374,-197.986"/>
<polygon fill="midnightblue" stroke="midnightblue" points="192.874,-197.751 189.374,-187.751 185.874,-197.751 192.874,-197.751"/>
</g>
<!-- Node14 -->
<g id="node14" class="node"><title>Node14</title>
<g id="a_node14"><a xlink:href="_mouse_event_8hpp.html" target="_top" xlink:title="Classe MouseEvent. ">
<polygon fill="white" stroke="black" points="242.374,-168.5 242.374,-187.5 332.374,-187.5 332.374,-168.5 242.374,-168.5"/>
<text text-anchor="middle" x="287.374" y="-175.5" font-family="Helvetica,sans-Serif" font-size="10.00">MouseEvent.hpp</text>
</a>
</g>
</g>
<!-- Node1&#45;&gt;Node14 -->
<g id="edge17" class="edge"><title>Node1&#45;&gt;Node14</title>
<path fill="none" stroke="midnightblue" d="M205.119,-224.324C220.693,-215.743 244.751,-202.486 262.833,-192.522"/>
<polygon fill="midnightblue" stroke="midnightblue" points="264.598,-195.546 271.668,-187.655 261.22,-189.415 264.598,-195.546"/>
</g>
<!-- Node16 -->
<g id="node16" class="node"><title>Node16</title>
<g id="a_node16"><a xlink:href="_key_event_8hpp.html" target="_top" xlink:title="Classe KeyEvent. ">
<polygon fill="white" stroke="black" points="58.3738,-168.5 58.3738,-187.5 136.374,-187.5 136.374,-168.5 58.3738,-168.5"/>
<text text-anchor="middle" x="97.3738" y="-175.5" font-family="Helvetica,sans-Serif" font-size="10.00">KeyEvent.hpp</text>
</a>
</g>
</g>
<!-- Node1&#45;&gt;Node16 -->
<g id="edge22" class="edge"><title>Node1&#45;&gt;Node16</title>
<path fill="none" stroke="midnightblue" d="M174.592,-224.324C160.107,-215.822 137.801,-202.729 120.881,-192.797"/>
<polygon fill="midnightblue" stroke="midnightblue" points="122.514,-189.698 112.119,-187.655 118.971,-195.735 122.514,-189.698"/>
</g>
<!-- Node6 -->
<g id="node6" class="node"><title>Node6</title>
<polygon fill="white" stroke="#bfbfbf" points="377.874,-56.5 377.874,-75.5 478.874,-75.5 478.874,-56.5 377.874,-56.5"/>
<text text-anchor="middle" x="428.374" y="-63.5" font-family="Helvetica,sans-Serif" font-size="10.00">boost/uuid/uuid.hpp</text>
</g>
<!-- Node5&#45;&gt;Node6 -->
<g id="edge5" class="edge"><title>Node5&#45;&gt;Node6</title>
<path fill="none" stroke="midnightblue" d="M333.279,-112.444C351.628,-103.675 380.379,-89.9355 401.467,-79.8579"/>
<polygon fill="midnightblue" stroke="midnightblue" points="403.039,-82.9862 410.552,-75.5164 400.021,-76.6703 403.039,-82.9862"/>
</g>
<!-- Node7 -->
<g id="node7" class="node"><title>Node7</title>
<polygon fill="white" stroke="#bfbfbf" points="137.374,-56.5 137.374,-75.5 191.374,-75.5 191.374,-56.5 137.374,-56.5"/>
<text text-anchor="middle" x="164.374" y="-63.5" font-family="Helvetica,sans-Serif" font-size="10.00">iostream</text>
</g>
<!-- Node5&#45;&gt;Node7 -->
<g id="edge6" class="edge"><title>Node5&#45;&gt;Node7</title>
<path fill="none" stroke="midnightblue" d="M291.447,-112.444C266.155,-103.399 226.071,-89.064 197.694,-78.9158"/>
<polygon fill="midnightblue" stroke="midnightblue" points="198.783,-75.5882 188.188,-75.5164 196.426,-82.1794 198.783,-75.5882"/>
</g>
<!-- Node8 -->
<g id="node8" class="node"><title>Node8</title>
<polygon fill="white" stroke="#bfbfbf" points="496.874,-56.5 496.874,-75.5 531.874,-75.5 531.874,-56.5 496.874,-56.5"/>
<text text-anchor="middle" x="514.374" y="-63.5" font-family="Helvetica,sans-Serif" font-size="10.00">map</text>
</g>
<!-- Node5&#45;&gt;Node8 -->
<g id="edge7" class="edge"><title>Node5&#45;&gt;Node8</title>
<path fill="none" stroke="midnightblue" d="M344.446,-114.014C376.9,-106.081 431.167,-92.414 487.005,-75.9574"/>
<polygon fill="midnightblue" stroke="midnightblue" points="488.119,-79.2776 496.708,-73.0738 486.125,-72.5677 488.119,-79.2776"/>
</g>
<!-- Node9 -->
<g id="node9" class="node"><title>Node9</title>
<polygon fill="white" stroke="#bfbfbf" points="209.374,-56.5 209.374,-75.5 253.374,-75.5 253.374,-56.5 209.374,-56.5"/>
<text text-anchor="middle" x="231.374" y="-63.5" font-family="Helvetica,sans-Serif" font-size="10.00">vector</text>
</g>
<!-- Node5&#45;&gt;Node9 -->
<g id="edge8" class="edge"><title>Node5&#45;&gt;Node9</title>
<path fill="none" stroke="midnightblue" d="M301.878,-112.324C288.774,-103.9 268.662,-90.9709 253.267,-81.0741"/>
<polygon fill="midnightblue" stroke="midnightblue" points="255.141,-78.118 244.836,-75.6545 251.356,-84.0063 255.141,-78.118"/>
</g>
<!-- Node10 -->
<g id="node10" class="node"><title>Node10</title>
<g id="a_node10"><a xlink:href="_group_points_8hpp.html" target="_top" xlink:title="GroupPoints.hpp">
<polygon fill="white" stroke="black" points="270.874,-56.5 270.874,-75.5 359.874,-75.5 359.874,-56.5 270.874,-56.5"/>
<text text-anchor="middle" x="315.374" y="-63.5" font-family="Helvetica,sans-Serif" font-size="10.00">GroupPoints.hpp</text>
</a>
</g>
</g>
<!-- Node5&#45;&gt;Node10 -->
<g id="edge9" class="edge"><title>Node5&#45;&gt;Node10</title>
<path fill="none" stroke="midnightblue" d="M310.208,-112.083C308.698,-104.927 308.268,-94.6353 308.916,-85.6911"/>
<polygon fill="midnightblue" stroke="midnightblue" points="312.389,-86.1262 310.243,-75.7511 305.451,-85.2002 312.389,-86.1262"/>
</g>
<!-- Node10&#45;&gt;Node5 -->
<g id="edge11" class="edge"><title>Node10&#45;&gt;Node5</title>
<path fill="none" stroke="midnightblue" d="M320.505,-75.7511C322.031,-82.8579 322.478,-93.1357 321.846,-102.101"/>
<polygon fill="midnightblue" stroke="midnightblue" points="318.367,-101.713 320.54,-112.083 325.308,-102.622 318.367,-101.713"/>
</g>
<!-- Node11 -->
<g id="node11" class="node"><title>Node11</title>
<polygon fill="white" stroke="#bfbfbf" points="285.874,-0.5 285.874,-19.5 344.874,-19.5 344.874,-0.5 285.874,-0.5"/>
<text text-anchor="middle" x="315.374" y="-7.5" font-family="Helvetica,sans-Serif" font-size="10.00">functional</text>
</g>
<!-- Node10&#45;&gt;Node11 -->
<g id="edge10" class="edge"><title>Node10&#45;&gt;Node11</title>
<path fill="none" stroke="midnightblue" d="M315.374,-56.083C315.374,-49.0059 315.374,-38.8611 315.374,-29.9865"/>
<polygon fill="midnightblue" stroke="midnightblue" points="318.874,-29.751 315.374,-19.7511 311.874,-29.7511 318.874,-29.751"/>
</g>
<!-- Node12&#45;&gt;Node4 -->
<g id="edge13" class="edge"><title>Node12&#45;&gt;Node4</title>
<path fill="none" stroke="midnightblue" d="M165.202,-168.35C146.881,-160.88 121.946,-148.656 104.374,-132 90.232,-118.595 79.4026,-98.9533 72.7847,-84.7727"/>
<polygon fill="midnightblue" stroke="midnightblue" points="75.9658,-83.3121 68.723,-75.5796 69.5629,-86.1411 75.9658,-83.3121"/>
</g>
<!-- Node12&#45;&gt;Node5 -->
<g id="edge14" class="edge"><title>Node12&#45;&gt;Node5</title>
<path fill="none" stroke="midnightblue" d="M209.339,-168.444C229.983,-159.596 262.436,-145.687 286.005,-135.586"/>
<polygon fill="midnightblue" stroke="midnightblue" points="287.689,-138.673 295.502,-131.516 284.932,-132.239 287.689,-138.673"/>
</g>
<!-- Node13 -->
<g id="node13" class="node"><title>Node13</title>
<g id="a_node13"><a xlink:href="_font_8hpp.html" target="_top" xlink:title="Font.hpp">
<polygon fill="white" stroke="black" points="192.874,-112.5 192.874,-131.5 247.874,-131.5 247.874,-112.5 192.874,-112.5"/>
<text text-anchor="middle" x="220.374" y="-119.5" font-family="Helvetica,sans-Serif" font-size="10.00">Font.hpp</text>
</a>
</g>
</g>
<!-- Node12&#45;&gt;Node13 -->
<g id="edge15" class="edge"><title>Node12&#45;&gt;Node13</title>
<path fill="none" stroke="midnightblue" d="M194.493,-168.083C198.781,-160.613 205.032,-149.724 210.316,-140.52"/>
<polygon fill="midnightblue" stroke="midnightblue" points="213.407,-142.166 215.35,-131.751 207.336,-138.681 213.407,-142.166"/>
</g>
<!-- Node13&#45;&gt;Node7 -->
<g id="edge16" class="edge"><title>Node13&#45;&gt;Node7</title>
<path fill="none" stroke="midnightblue" d="M211.376,-112.324C203.179,-104.42 190.868,-92.5482 180.902,-82.9377"/>
<polygon fill="midnightblue" stroke="midnightblue" points="183.163,-80.2558 173.535,-75.8339 178.304,-85.2947 183.163,-80.2558"/>
</g>
<!-- Node14&#45;&gt;Node5 -->
<g id="edge21" class="edge"><title>Node14&#45;&gt;Node5</title>
<path fill="none" stroke="midnightblue" d="M291.997,-168.083C295.83,-160.691 301.398,-149.953 306.138,-140.811"/>
<polygon fill="midnightblue" stroke="midnightblue" points="309.34,-142.24 310.836,-131.751 303.126,-139.018 309.34,-142.24"/>
</g>
<!-- Node15 -->
<g id="node15" class="node"><title>Node15</title>
<g id="a_node15"><a xlink:href="_event_8hpp.html" target="_top" xlink:title="Classe Event. ">
<polygon fill="white" stroke="black" points="113.874,-112.5 113.874,-131.5 174.874,-131.5 174.874,-112.5 113.874,-112.5"/>
<text text-anchor="middle" x="144.374" y="-119.5" font-family="Helvetica,sans-Serif" font-size="10.00">Event.hpp</text>
</a>
</g>
</g>
<!-- Node14&#45;&gt;Node15 -->
<g id="edge18" class="edge"><title>Node14&#45;&gt;Node15</title>
<path fill="none" stroke="midnightblue" d="M264.715,-168.444C240.972,-159.478 203.465,-145.314 176.635,-135.183"/>
<polygon fill="midnightblue" stroke="midnightblue" points="177.518,-131.775 166.927,-131.516 175.045,-138.324 177.518,-131.775"/>
</g>
<!-- Node15&#45;&gt;Node4 -->
<g id="edge20" class="edge"><title>Node15&#45;&gt;Node4</title>
<path fill="none" stroke="midnightblue" d="M131.681,-112.324C119.473,-103.979 100.795,-91.2122 86.3709,-81.3524"/>
<polygon fill="midnightblue" stroke="midnightblue" points="88.2658,-78.4082 78.0351,-75.6545 84.3156,-84.1871 88.2658,-78.4082"/>
</g>
<!-- Node15&#45;&gt;Node7 -->
<g id="edge19" class="edge"><title>Node15&#45;&gt;Node7</title>
<path fill="none" stroke="midnightblue" d="M147.676,-112.083C150.356,-104.849 154.222,-94.4087 157.56,-85.3968"/>
<polygon fill="midnightblue" stroke="midnightblue" points="160.942,-86.3442 161.133,-75.7511 154.377,-83.9129 160.942,-86.3442"/>
</g>
<!-- Node16&#45;&gt;Node2 -->
<g id="edge23" class="edge"><title>Node16&#45;&gt;Node2</title>
<path fill="none" stroke="midnightblue" d="M87.5731,-168.324C78.5558,-160.341 64.9679,-148.313 54.0558,-138.653"/>
<polygon fill="midnightblue" stroke="midnightblue" points="56.1605,-135.842 46.3529,-131.834 51.5206,-141.083 56.1605,-135.842"/>
</g>
<!-- Node16&#45;&gt;Node15 -->
<g id="edge24" class="edge"><title>Node16&#45;&gt;Node15</title>
<path fill="none" stroke="midnightblue" d="M105.135,-168.083C111.911,-160.298 121.917,-148.801 130.129,-139.367"/>
<polygon fill="midnightblue" stroke="midnightblue" points="132.832,-141.592 136.757,-131.751 127.552,-136.996 132.832,-141.592"/>
</g>
</g>
</svg>
        <g id="navigator" transform="translate(0 0)" fill="#404254">
                <rect fill="#f2f5e9" fill-opacity="0.5" stroke="#606060" stroke-width=".5" x="0" y="0" width="60" height="60"/>
                <use id="zoomplus" xlink:href="#zoomPlus" x="17" y="9" onmousedown="handleZoom(evt,'in')"/>
                <use id="zoomminus" xlink:href="#zoomMin" x="42" y="9" onmousedown="handleZoom(evt,'out')"/>
                <use id="reset" xlink:href="#resetDef" x="30" y="36" onmousedown="handleReset()"/>
                <g id="arrowUp" xlink:href="#dirArrow" transform="translate(30 24)" onmousedown="handlePan(0,-1)">
                  <use xlink:href="#rim" fill="#404040">
                        <set attributeName="fill" to="#808080" begin="arrowUp.mouseover" end="arrowUp.mouseout"/>
                  </use>
                  <path fill="none" stroke="white" stroke-width="1.5" d="M0,-3.0v7 M-2.5,-0.5L0,-3.0L2.5,-0.5"/>
                </g>
                <g id="arrowRight" xlink:href="#dirArrow" transform="rotate(90) translate(36 -43)" onmousedown="handlePan(1,0)">
                  <use xlink:href="#rim" fill="#404040">
                        <set attributeName="fill" to="#808080" begin="arrowRight.mouseover" end="arrowRight.mouseout"/>
                  </use>
                  <path fill="none" stroke="white" stroke-width="1.5" d="M0,-3.0v7 M-2.5,-0.5L0,-3.0L2.5,-0.5"/>
                </g>
                <g id="arrowDown" xlink:href="#dirArrow" transform="rotate(180) translate(-30 -48)" onmousedown="handlePan(0,1)">
                  <use xlink:href="#rim" fill="#404040">
                        <set attributeName="fill" to="#808080" begin="arrowDown.mouseover" end="arrowDown.mouseout"/>
                  </use>
                  <path fill="none" stroke="white" stroke-width="1.5" d="M0,-3.0v7 M-2.5,-0.5L0,-3.0L2.5,-0.5"/>
                </g>
                <g id="arrowLeft" xlink:href="#dirArrow" transform="rotate(270) translate(-36 17)" onmousedown="handlePan(-1,0)">
                  <use xlink:href="#rim" fill="#404040">
                        <set attributeName="fill" to="#808080" begin="arrowLeft.mouseover" end="arrowLeft.mouseout"/>
                  </use>
                  <path fill="none" stroke="white" stroke-width="1.5" d="M0,-3.0v7 M-2.5,-0.5L0,-3.0L2.5,-0.5"/>
                </g>
        </g>
        <svg viewBox="0 0 15 15" width="100%" height="30px" preserveAspectRatio="xMaxYMin meet">
         <g id="arrow_out" transform="scale(0.3 0.3)">
          <a xlink:href="_window_8hpp__incl_org.svg" target="_base">
           <rect id="button" ry="5" rx="5" y="6" x="6" height="38" width="38"
                fill="#f2f5e9" fill-opacity="0.5" stroke="#606060" stroke-width="1.0"/>
           <path id="arrow"
             d="M 11.500037,31.436501 C 11.940474,20.09759 22.043105,11.32322 32.158766,21.979434 L 37.068811,17.246167 C 37.068811,17.246167 37.088388,32 37.088388,32 L 22.160133,31.978069 C 22.160133,31.978069 26.997745,27.140456 26.997745,27.140456 C 18.528582,18.264221 13.291696,25.230495 11.500037,31.436501 z"
             style="fill:#404040;"/>
          </a>
         </g>
        </svg>
</svg>
