<?xml version="1.0" encoding="UTF-8" standalone="no"?>
<!DOCTYPE svg PUBLIC "-//W3C//DTD SVG 1.1//EN"
 "http://www.w3.org/Graphics/SVG/1.1/DTD/svg11.dtd">
<!-- Generated by graphviz version 2.36.0 (20140111.2315)
 -->
<!-- Title: Window.hpp Pages: 1 -->
<svg width="452pt" height="196pt"
 viewBox="0.00 0.00 452.35 196.00" xmlns="http://www.w3.org/2000/svg" xmlns:xlink="http://www.w3.org/1999/xlink">
<g id="graph0" class="graph" transform="scale(1 1) rotate(0) translate(4 192)">
<title>Window.hpp</title>
<polygon fill="white" stroke="none" points="-4,4 -4,-192 448.353,-192 448.353,4 -4,4"/>
<!-- Node1 -->
<g id="node1" class="node"><title>Node1</title>
<polygon fill="#bfbfbf" stroke="black" points="118.853,-168.5 118.853,-187.5 189.853,-187.5 189.853,-168.5 118.853,-168.5"/>
<text text-anchor="middle" x="154.353" y="-175.5" font-family="Helvetica,sans-Serif" font-size="10.00">Window.hpp</text>
</g>
<!-- Node2 -->
<g id="node2" class="node"><title>Node2</title>
<polygon fill="white" stroke="#bfbfbf" points="96.8528,-56.5 96.8528,-75.5 137.853,-75.5 137.853,-56.5 96.8528,-56.5"/>
<text text-anchor="middle" x="117.353" y="-63.5" font-family="Helvetica,sans-Serif" font-size="10.00">string</text>
</g>
<!-- Node1&#45;&gt;Node2 -->
<g id="edge1" class="edge"><title>Node1&#45;&gt;Node2</title>
<path fill="none" stroke="midnightblue" d="M139.983,-168.33C128.473,-160.469 113.164,-147.722 106.353,-132 99.8907,-117.084 103.985,-98.7111 108.911,-85.3086"/>
<polygon fill="midnightblue" stroke="midnightblue" points="112.262,-86.3649 112.855,-75.7866 105.795,-83.6865 112.262,-86.3649"/>
</g>
<!-- Node3 -->
<g id="node3" class="node"><title>Node3</title>
<polygon fill="white" stroke="#bfbfbf" points="13.3528,-112.5 13.3528,-131.5 59.3528,-131.5 59.3528,-112.5 13.3528,-112.5"/>
<text text-anchor="middle" x="36.3528" y="-119.5" font-family="Helvetica,sans-Serif" font-size="10.00">chrono</text>
</g>
<!-- Node1&#45;&gt;Node3 -->
<g id="edge2" class="edge"><title>Node1&#45;&gt;Node3</title>
<path fill="none" stroke="midnightblue" d="M135.655,-168.444C116.408,-159.636 86.2004,-145.812 64.1527,-135.722"/>
<polygon fill="midnightblue" stroke="midnightblue" points="65.5124,-132.495 54.9628,-131.516 62.5994,-138.86 65.5124,-132.495"/>
</g>
<!-- Node4 -->
<g id="node4" class="node"><title>Node4</title>
<polygon fill="white" stroke="#bfbfbf" points="156.353,-0.5 156.353,-19.5 264.353,-19.5 264.353,-0.5 156.353,-0.5"/>
<text text-anchor="middle" x="210.353" y="-7.5" font-family="Helvetica,sans-Serif" font-size="10.00">ez&#45;lib/ez&#45;draw++.hpp</text>
</g>
<!-- Node1&#45;&gt;Node4 -->
<g id="edge3" class="edge"><title>Node1&#45;&gt;Node4</title>
<path fill="none" stroke="midnightblue" d="M118.77,-175.345C67.0986,-171.37 -20.0277,-157.86 4.35284,-112 32.078,-59.8484 96.8001,-34.226 146.357,-21.8971"/>
<polygon fill="midnightblue" stroke="midnightblue" points="147.438,-25.2381 156.367,-19.5339 145.83,-18.4254 147.438,-25.2381"/>
</g>
<!-- Node5 -->
<g id="node5" class="node"><title>Node5</title>
<g id="a_node5"><a xlink:href="_point_8hpp.html" target="_top" xlink:title="Classe point. ">
<polygon fill="white" stroke="black" points="275.353,-56.5 275.353,-75.5 333.353,-75.5 333.353,-56.5 275.353,-56.5"/>
<text text-anchor="middle" x="304.353" y="-63.5" font-family="Helvetica,sans-Serif" font-size="10.00">Point.hpp</text>
</a>
</g>
</g>
<!-- Node1&#45;&gt;Node5 -->
<g id="edge4" class="edge"><title>Node1&#45;&gt;Node5</title>
<path fill="none" stroke="midnightblue" d="M190.098,-171.72C231.505,-164.788 295.906,-151.203 310.353,-132 320.342,-118.721 316.921,-99.3306 312.173,-85.185"/>
<polygon fill="midnightblue" stroke="midnightblue" points="315.337,-83.6593 308.485,-75.5784 308.802,-86.1685 315.337,-83.6593"/>
</g>
<!-- Node7 -->
<g id="node7" class="node"><title>Node7</title>
<g id="a_node7"><a xlink:href="_canvas_8hpp.html" target="_top" xlink:title="Canvas.hpp">
<polygon fill="white" stroke="black" points="357.853,-112.5 357.853,-131.5 426.853,-131.5 426.853,-112.5 357.853,-112.5"/>
<text text-anchor="middle" x="392.353" y="-119.5" font-family="Helvetica,sans-Serif" font-size="10.00">Canvas.hpp</text>
</a>
</g>
</g>
<!-- Node1&#45;&gt;Node7 -->
<g id="edge6" class="edge"><title>Node1&#45;&gt;Node7</title>
<path fill="none" stroke="midnightblue" d="M189.984,-168.916C232.059,-159.369 302.076,-143.483 347.725,-133.126"/>
<polygon fill="midnightblue" stroke="midnightblue" points="348.663,-136.502 357.641,-130.876 347.115,-129.675 348.663,-136.502"/>
</g>
<!-- Node9 -->
<g id="node9" class="node"><title>Node9</title>
<g id="a_node9"><a xlink:href="_mouse_event_8hpp.html" target="_top" xlink:title="Classe MouseEvent. ">
<polygon fill="white" stroke="black" points="211.353,-112.5 211.353,-131.5 301.353,-131.5 301.353,-112.5 211.353,-112.5"/>
<text text-anchor="middle" x="256.353" y="-119.5" font-family="Helvetica,sans-Serif" font-size="10.00">MouseEvent.hpp</text>
</a>
</g>
</g>
<!-- Node1&#45;&gt;Node9 -->
<g id="edge11" class="edge"><title>Node1&#45;&gt;Node9</title>
<path fill="none" stroke="midnightblue" d="M170.741,-168.324C187.024,-159.703 212.22,-146.364 231.069,-136.386"/>
<polygon fill="midnightblue" stroke="midnightblue" points="232.805,-139.427 240.005,-131.655 229.53,-133.24 232.805,-139.427"/>
</g>
<!-- Node11 -->
<g id="node11" class="node"><title>Node11</title>
<g id="a_node11"><a xlink:href="_key_event_8hpp.html" target="_top" xlink:title="Classe KeyEvent. ">
<polygon fill="white" stroke="black" points="115.353,-112.5 115.353,-131.5 193.353,-131.5 193.353,-112.5 115.353,-112.5"/>
<text text-anchor="middle" x="154.353" y="-119.5" font-family="Helvetica,sans-Serif" font-size="10.00">KeyEvent.hpp</text>
</a>
</g>
</g>
<!-- Node1&#45;&gt;Node11 -->
<g id="edge16" class="edge"><title>Node1&#45;&gt;Node11</title>
<path fill="none" stroke="midnightblue" d="M154.353,-168.083C154.353,-161.006 154.353,-150.861 154.353,-141.986"/>
<polygon fill="midnightblue" stroke="midnightblue" points="157.853,-141.751 154.353,-131.751 150.853,-141.751 157.853,-141.751"/>
</g>
<!-- Node6 -->
<g id="node6" class="node"><title>Node6</title>
<polygon fill="white" stroke="#bfbfbf" points="282.353,-0.5 282.353,-19.5 336.353,-19.5 336.353,-0.5 282.353,-0.5"/>
<text text-anchor="middle" x="309.353" y="-7.5" font-family="Helvetica,sans-Serif" font-size="10.00">iostream</text>
</g>
<!-- Node5&#45;&gt;Node6 -->
<g id="edge5" class="edge"><title>Node5&#45;&gt;Node6</title>
<path fill="none" stroke="midnightblue" d="M305.178,-56.083C305.834,-49.0059 306.773,-38.8611 307.595,-29.9865"/>
<polygon fill="midnightblue" stroke="midnightblue" points="311.106,-30.0312 308.543,-19.7511 304.135,-29.3858 311.106,-30.0312"/>
</g>
<!-- Node7&#45;&gt;Node4 -->
<g id="edge7" class="edge"><title>Node7&#45;&gt;Node4</title>
<path fill="none" stroke="midnightblue" d="M387.623,-112.097C379.798,-98.1832 362.861,-71.2961 341.353,-56 318.603,-39.8205 289.547,-29.0612 264.583,-22.1334"/>
<polygon fill="midnightblue" stroke="midnightblue" points="265.444,-18.7409 254.882,-19.5734 263.658,-25.5092 265.444,-18.7409"/>
</g>
<!-- Node7&#45;&gt;Node5 -->
<g id="edge8" class="edge"><title>Node7&#45;&gt;Node5</title>
<path fill="none" stroke="midnightblue" d="M378.214,-112.324C364.487,-103.9 343.417,-90.9709 327.288,-81.0741"/>
<polygon fill="midnightblue" stroke="midnightblue" points="328.81,-77.9016 318.456,-75.6545 325.149,-83.8678 328.81,-77.9016"/>
</g>
<!-- Node8 -->
<g id="node8" class="node"><title>Node8</title>
<g id="a_node8"><a xlink:href="_font_8hpp.html" target="_top" xlink:title="Font.hpp">
<polygon fill="white" stroke="black" points="389.853,-56.5 389.853,-75.5 444.853,-75.5 444.853,-56.5 389.853,-56.5"/>
<text text-anchor="middle" x="417.353" y="-63.5" font-family="Helvetica,sans-Serif" font-size="10.00">Font.hpp</text>
</a>
</g>
</g>
<!-- Node7&#45;&gt;Node8 -->
<g id="edge9" class="edge"><title>Node7&#45;&gt;Node8</title>
<path fill="none" stroke="midnightblue" d="M396.481,-112.083C399.867,-104.77 404.769,-94.1814 408.972,-85.1034"/>
<polygon fill="midnightblue" stroke="midnightblue" points="412.276,-86.2962 413.301,-75.7511 405.924,-83.3553 412.276,-86.2962"/>
</g>
<!-- Node8&#45;&gt;Node6 -->
<g id="edge10" class="edge"><title>Node8&#45;&gt;Node6</title>
<path fill="none" stroke="midnightblue" d="M400.001,-56.324C382.681,-47.6641 355.838,-34.2424 335.851,-24.249"/>
<polygon fill="midnightblue" stroke="midnightblue" points="337.171,-20.9962 326.662,-19.6545 334.041,-27.2572 337.171,-20.9962"/>
</g>
<!-- Node9&#45;&gt;Node5 -->
<g id="edge15" class="edge"><title>Node9&#45;&gt;Node5</title>
<path fill="none" stroke="midnightblue" d="M264.279,-112.083C271.199,-104.298 281.418,-92.8015 289.805,-83.3665"/>
<polygon fill="midnightblue" stroke="midnightblue" points="292.546,-85.5505 296.574,-75.7511 287.314,-80.8999 292.546,-85.5505"/>
</g>
<!-- Node10 -->
<g id="node10" class="node"><title>Node10</title>
<g id="a_node10"><a xlink:href="_event_8hpp.html" target="_top" xlink:title="Classe Event. ">
<polygon fill="white" stroke="black" points="185.853,-56.5 185.853,-75.5 246.853,-75.5 246.853,-56.5 185.853,-56.5"/>
<text text-anchor="middle" x="216.353" y="-63.5" font-family="Helvetica,sans-Serif" font-size="10.00">Event.hpp</text>
</a>
</g>
</g>
<!-- Node9&#45;&gt;Node10 -->
<g id="edge12" class="edge"><title>Node9&#45;&gt;Node10</title>
<path fill="none" stroke="midnightblue" d="M249.748,-112.083C244.098,-104.455 235.808,-93.2645 228.902,-83.9408"/>
<polygon fill="midnightblue" stroke="midnightblue" points="231.6,-81.7034 222.835,-75.7511 225.975,-85.87 231.6,-81.7034"/>
</g>
<!-- Node10&#45;&gt;Node4 -->
<g id="edge14" class="edge"><title>Node10&#45;&gt;Node4</title>
<path fill="none" stroke="midnightblue" d="M215.362,-56.083C214.567,-48.9272 213.423,-38.6353 212.43,-29.6911"/>
<polygon fill="midnightblue" stroke="midnightblue" points="215.908,-29.3034 211.325,-19.7511 208.951,-30.0765 215.908,-29.3034"/>
</g>
<!-- Node10&#45;&gt;Node6 -->
<g id="edge13" class="edge"><title>Node10&#45;&gt;Node6</title>
<path fill="none" stroke="midnightblue" d="M231.295,-56.324C245.938,-47.8215 268.486,-34.7288 285.591,-24.7975"/>
<polygon fill="midnightblue" stroke="midnightblue" points="287.557,-27.7027 294.448,-19.6545 284.042,-21.6491 287.557,-27.7027"/>
</g>
<!-- Node11&#45;&gt;Node2 -->
<g id="edge17" class="edge"><title>Node11&#45;&gt;Node2</title>
<path fill="none" stroke="midnightblue" d="M148.243,-112.083C143.071,-104.534 135.507,-93.4948 129.158,-84.2298"/>
<polygon fill="midnightblue" stroke="midnightblue" points="131.889,-82.0221 123.349,-75.7511 126.114,-85.9787 131.889,-82.0221"/>
</g>
<!-- Node11&#45;&gt;Node10 -->
<g id="edge18" class="edge"><title>Node11&#45;&gt;Node10</title>
<path fill="none" stroke="midnightblue" d="M164.314,-112.324C173.479,-104.341 187.29,-92.3128 198.381,-82.6529"/>
<polygon fill="midnightblue" stroke="midnightblue" points="200.968,-85.041 206.21,-75.8339 196.371,-79.7624 200.968,-85.041"/>
</g>
</g>
</svg>
