<?xml version="1.0" encoding="UTF-8" standalone="no"?>
<!DOCTYPE svg PUBLIC "-//W3C//DTD SVG 1.1//EN"
 "http://www.w3.org/Graphics/SVG/1.1/DTD/svg11.dtd">
<!-- Generated by graphviz version 2.36.0 (20140111.2315)
 -->
<!-- Title: GraphicsItem::setParent Pages: 1 -->
<svg width="658pt" height="142pt"
 viewBox="0.00 0.00 658.00 142.00" xmlns="http://www.w3.org/2000/svg" xmlns:xlink="http://www.w3.org/1999/xlink">
<g id="graph0" class="graph" transform="scale(1 1) rotate(0) translate(4 138)">
<title>GraphicsItem::setParent</title>
<polygon fill="white" stroke="none" points="-4,4 -4,-138 654,-138 654,4 -4,4"/>
<!-- Node1 -->
<g id="node1" class="node"><title>Node1</title>
<polygon fill="#bfbfbf" stroke="black" points="0.5,-57.5 0.5,-76.5 123.5,-76.5 123.5,-57.5 0.5,-57.5"/>
<text text-anchor="middle" x="62" y="-64.5" font-family="Helvetica,sans-Serif" font-size="10.00">GraphicsItem::setParent</text>
</g>
<!-- Node2 -->
<g id="node2" class="node"><title>Node2</title>
<g id="a_node2"><a xlink:href="class_graphics_item.html#aeaf0a8de33aa83d5fa5ac8889e7e4392" target="_top" xlink:title="GraphicsItem::parent">
<polygon fill="white" stroke="black" points="168,-114.5 168,-133.5 276,-133.5 276,-114.5 168,-114.5"/>
<text text-anchor="middle" x="222" y="-121.5" font-family="Helvetica,sans-Serif" font-size="10.00">GraphicsItem::parent</text>
</a>
</g>
</g>
<!-- Node1&#45;&gt;Node2 -->
<g id="edge1" class="edge"><title>Node1&#45;&gt;Node2</title>
<path fill="none" stroke="midnightblue" d="M85.9532,-76.5271C105.5,-84.5109 134.402,-96.0124 160,-105 166.113,-107.146 172.611,-109.302 179.002,-111.352"/>
<polygon fill="midnightblue" stroke="midnightblue" points="178.294,-114.798 188.883,-114.468 180.399,-108.122 178.294,-114.798"/>
</g>
<!-- Node3 -->
<g id="node3" class="node"><title>Node3</title>
<g id="a_node3"><a xlink:href="class_point.html#a3f64672809f4a0b463274e0c43e028f9" target="_top" xlink:title="Point::setOriginDynamic">
<polygon fill="white" stroke="black" points="160.5,-76.5 160.5,-95.5 283.5,-95.5 283.5,-76.5 160.5,-76.5"/>
<text text-anchor="middle" x="222" y="-83.5" font-family="Helvetica,sans-Serif" font-size="10.00">Point::setOriginDynamic</text>
</a>
</g>
</g>
<!-- Node1&#45;&gt;Node3 -->
<g id="edge2" class="edge"><title>Node1&#45;&gt;Node3</title>
<path fill="none" stroke="midnightblue" d="M123.635,-74.2916C132.361,-75.3408 141.403,-76.4282 150.303,-77.4984"/>
<polygon fill="midnightblue" stroke="midnightblue" points="149.92,-80.9775 160.266,-78.6966 150.756,-74.0276 149.92,-80.9775"/>
</g>
<!-- Node8 -->
<g id="node8" class="node"><title>Node8</title>
<g id="a_node8"><a xlink:href="class_graphics_item.html#a01a34e70b5ac17f7c6f50bcfe4301ed6" target="_top" xlink:title="GraphicsItem::position">
<polygon fill="white" stroke="black" points="164.5,-38.5 164.5,-57.5 279.5,-57.5 279.5,-38.5 164.5,-38.5"/>
<text text-anchor="middle" x="222" y="-45.5" font-family="Helvetica,sans-Serif" font-size="10.00">GraphicsItem::position</text>
</a>
</g>
</g>
<!-- Node1&#45;&gt;Node8 -->
<g id="edge7" class="edge"><title>Node1&#45;&gt;Node8</title>
<path fill="none" stroke="midnightblue" d="M123.635,-59.7084C133.686,-58.4997 144.158,-57.2405 154.348,-56.0151"/>
<polygon fill="midnightblue" stroke="midnightblue" points="154.908,-59.4731 164.419,-54.8041 154.072,-52.5231 154.908,-59.4731"/>
</g>
<!-- Node9 -->
<g id="node9" class="node"><title>Node9</title>
<g id="a_node9"><a xlink:href="class_point.html#a705786eadfef64005ee52395dfef5de2" target="_top" xlink:title="Point::setOriginStatic">
<polygon fill="white" stroke="black" points="167,-0.5 167,-19.5 277,-19.5 277,-0.5 167,-0.5"/>
<text text-anchor="middle" x="222" y="-7.5" font-family="Helvetica,sans-Serif" font-size="10.00">Point::setOriginStatic</text>
</a>
</g>
</g>
<!-- Node1&#45;&gt;Node9 -->
<g id="edge8" class="edge"><title>Node1&#45;&gt;Node9</title>
<path fill="none" stroke="midnightblue" d="M85.9532,-57.4729C105.5,-49.4891 134.402,-37.9876 160,-29 166.113,-26.8538 172.611,-24.6979 179.002,-22.6485"/>
<polygon fill="midnightblue" stroke="midnightblue" points="180.399,-25.8778 188.883,-19.5322 178.294,-19.2019 180.399,-25.8778"/>
</g>
<!-- Node4 -->
<g id="node4" class="node"><title>Node4</title>
<g id="a_node4"><a xlink:href="class_point.html#a4342967313bdfb5a0120d00399ad7cc0" target="_top" xlink:title="Point::originChanged">
<polygon fill="white" stroke="black" points="320.5,-19.5 320.5,-38.5 427.5,-38.5 427.5,-19.5 320.5,-19.5"/>
<text text-anchor="middle" x="374" y="-26.5" font-family="Helvetica,sans-Serif" font-size="10.00">Point::originChanged</text>
</a>
</g>
</g>
<!-- Node3&#45;&gt;Node4 -->
<g id="edge3" class="edge"><title>Node3&#45;&gt;Node4</title>
<path fill="none" stroke="midnightblue" d="M255.813,-76.4504C264.998,-73.5961 274.944,-70.3339 284,-67 303.901,-59.6735 325.815,-50.3334 342.918,-42.7466"/>
<polygon fill="midnightblue" stroke="midnightblue" points="344.683,-45.7912 352.38,-38.5108 341.823,-39.4021 344.683,-45.7912"/>
</g>
<!-- Node7 -->
<g id="node7" class="node"><title>Node7</title>
<g id="a_node7"><a xlink:href="class_point.html#a6cd48f7546776ab3d245ba3ecaea1112" target="_top" xlink:title="Point::changed">
<polygon fill="white" stroke="black" points="333,-76.5 333,-95.5 415,-95.5 415,-76.5 333,-76.5"/>
<text text-anchor="middle" x="374" y="-83.5" font-family="Helvetica,sans-Serif" font-size="10.00">Point::changed</text>
</a>
</g>
</g>
<!-- Node3&#45;&gt;Node7 -->
<g id="edge6" class="edge"><title>Node3&#45;&gt;Node7</title>
<path fill="none" stroke="midnightblue" d="M283.578,-86C296.537,-86 310.093,-86 322.618,-86"/>
<polygon fill="midnightblue" stroke="midnightblue" points="322.861,-89.5001 332.861,-86 322.861,-82.5001 322.861,-89.5001"/>
</g>
<!-- Node5 -->
<g id="node5" class="node"><title>Node5</title>
<g id="a_node5"><a xlink:href="class_point.html#a04ce786cebfd535bc380833a71405930" target="_top" xlink:title="Point::absolute">
<polygon fill="white" stroke="black" points="464,-19.5 464,-38.5 546,-38.5 546,-19.5 464,-19.5"/>
<text text-anchor="middle" x="505" y="-26.5" font-family="Helvetica,sans-Serif" font-size="10.00">Point::absolute</text>
</a>
</g>
</g>
<!-- Node4&#45;&gt;Node5 -->
<g id="edge4" class="edge"><title>Node4&#45;&gt;Node5</title>
<path fill="none" stroke="midnightblue" d="M427.841,-29C436.35,-29 445.138,-29 453.587,-29"/>
<polygon fill="midnightblue" stroke="midnightblue" points="453.684,-32.5001 463.684,-29 453.684,-25.5001 453.684,-32.5001"/>
</g>
<!-- Node6 -->
<g id="node6" class="node"><title>Node6</title>
<g id="a_node6"><a xlink:href="class_point.html#ad92f2337b839a94ce97dcdb439b4325a" target="_top" xlink:title="Constructeur par défaut de la classe Point. ">
<polygon fill="white" stroke="black" points="582,-19.5 582,-38.5 650,-38.5 650,-19.5 582,-19.5"/>
<text text-anchor="middle" x="616" y="-26.5" font-family="Helvetica,sans-Serif" font-size="10.00">Point::Point</text>
</a>
</g>
</g>
<!-- Node5&#45;&gt;Node6 -->
<g id="edge5" class="edge"><title>Node5&#45;&gt;Node6</title>
<path fill="none" stroke="midnightblue" d="M546.278,-29C554.465,-29 563.112,-29 571.408,-29"/>
<polygon fill="midnightblue" stroke="midnightblue" points="571.667,-32.5001 581.667,-29 571.667,-25.5001 571.667,-32.5001"/>
</g>
<!-- Node9&#45;&gt;Node4 -->
<g id="edge9" class="edge"><title>Node9&#45;&gt;Node4</title>
<path fill="none" stroke="midnightblue" d="M277.153,-16.8594C287.947,-18.2267 299.367,-19.6731 310.417,-21.0728"/>
<polygon fill="midnightblue" stroke="midnightblue" points="310.071,-24.5569 320.432,-22.3414 310.951,-17.6124 310.071,-24.5569"/>
</g>
</g>
</svg>
