<?xml version="1.0" encoding="UTF-8" standalone="no"?>
<!DOCTYPE svg PUBLIC "-//W3C//DTD SVG 1.1//EN"
 "http://www.w3.org/Graphics/SVG/1.1/DTD/svg11.dtd">
<!-- Generated by graphviz version 2.36.0 (20140111.2315)
 -->
<!-- Title: LineEdit Pages: 1 -->
<!--zoomable 1142 -->
<svg id="main" version="1.1" xmlns="http://www.w3.org/2000/svg" xmlns:xlink="http://www.w3.org/1999/xlink" xml:space="preserve" onload="init(evt)">
<style type="text/css"><![CDATA[
.edge:hover path { stroke: red; }
.edge:hover polygon { stroke: red; fill: red; }
]]></style>
<script type="text/javascript"><![CDATA[
var edges = document.getElementsByTagName('g');
if (edges && edges.length) {
  for (var i=0;i<edges.length;i++) {
    if (edges[i].id.substr(0,4)=='edge') {
      edges[i].setAttribute('class','edge');
    }
  }
}
]]></script>
        <defs>
                <circle id="rim" cx="0" cy="0" r="7"/>
                <circle id="rim2" cx="0" cy="0" r="3.5"/>
                <g id="zoomPlus">
                        <use xlink:href="#rim" fill="#404040">
                                <set attributeName="fill" to="#808080" begin="zoomplus.mouseover" end="zoomplus.mouseout"/>
                        </use>
                        <path d="M-4,0h8M0,-4v8" fill="none" stroke="white" stroke-width="1.5" pointer-events="none"/>
                </g>
                <g id="zoomMin">
                        <use xlink:href="#rim" fill="#404040">
                                <set attributeName="fill" to="#808080" begin="zoomminus.mouseover" end="zoomminus.mouseout"/>
                        </use>
                        <path d="M-4,0h8" fill="none" stroke="white" stroke-width="1.5" pointer-events="none"/>
                </g>
                <g id="dirArrow">
                        <path fill="none" stroke="white" stroke-width="1.5" d="M0,-3.0v7 M-2.5,-0.5L0,-3.0L2.5,-0.5"/>
                </g>
               <g id="resetDef">
                       <use xlink:href="#rim2" fill="#404040">
                               <set attributeName="fill" to="#808080" begin="reset.mouseover" end="reset.mouseout"/>
                       </use>
               </g>
        </defs>

<script type="text/javascript">
var viewWidth = 449;
var viewHeight = 1142;
var sectionId = 'dynsection-1';
</script>
<script xlink:href="svgpan.js"/>
<svg id="graph" class="graph">
<g id="viewport">
<title>LineEdit</title>
<polygon fill="white" stroke="none" points="-4,4 -4,-1138 445,-1138 445,4 -4,4"/>
<!-- Node1 -->
<g id="node1" class="node"><title>Node1</title>
<polygon fill="#bfbfbf" stroke="black" points="81.5,-0.5 81.5,-101.5 182.5,-101.5 182.5,-0.5 81.5,-0.5"/>
<text text-anchor="middle" x="132" y="-89.5" font-family="Helvetica,sans-Serif" font-size="10.00">LineEdit</text>
<polyline fill="none" stroke="black" points="81.5,-82.5 182.5,-82.5 "/>
<text text-anchor="start" x="89.5" y="-70.5" font-family="Helvetica,sans-Serif" font-size="10.00">&#45; m_textChanged</text>
<polyline fill="none" stroke="black" points="81.5,-63.5 182.5,-63.5 "/>
<text text-anchor="start" x="89.5" y="-51.5" font-family="Helvetica,sans-Serif" font-size="10.00">+ LineEdit()</text>
<text text-anchor="start" x="89.5" y="-40.5" font-family="Helvetica,sans-Serif" font-size="10.00">+ text()</text>
<text text-anchor="start" x="89.5" y="-29.5" font-family="Helvetica,sans-Serif" font-size="10.00">+ setText()</text>
<text text-anchor="start" x="89.5" y="-18.5" font-family="Helvetica,sans-Serif" font-size="10.00">+ textChanged()</text>
<text text-anchor="start" x="89.5" y="-7.5" font-family="Helvetica,sans-Serif" font-size="10.00"># meHandleEvent()</text>
</g>
<!-- Node2 -->
<g id="node2" class="node"><title>Node2</title>
<g id="a_node2"><a xlink:href="class_widget.html" target="_top" xlink:title="{Widget\n||+ Widget()\l}">
<polygon fill="white" stroke="black" points="0,-260.5 0,-317.5 62,-317.5 62,-260.5 0,-260.5"/>
<text text-anchor="middle" x="31" y="-305.5" font-family="Helvetica,sans-Serif" font-size="10.00">Widget</text>
<polyline fill="none" stroke="black" points="0,-298.5 62,-298.5 "/>
<text text-anchor="middle" x="31" y="-286.5" font-family="Helvetica,sans-Serif" font-size="10.00"> </text>
<polyline fill="none" stroke="black" points="0,-279.5 62,-279.5 "/>
<text text-anchor="start" x="8" y="-267.5" font-family="Helvetica,sans-Serif" font-size="10.00">+ Widget()</text>
</a>
</g>
</g>
<!-- Node2&#45;&gt;Node1 -->
<g id="edge1" class="edge"><title>Node2&#45;&gt;Node1</title>
<path fill="none" stroke="midnightblue" d="M39.6726,-250.503C48.5142,-215.63 63.9222,-162.77 85,-120 87.9817,-113.95 91.4527,-107.829 95.1329,-101.868"/>
<polygon fill="none" stroke="midnightblue" points="36.2586,-249.729 37.247,-260.278 43.0525,-251.415 36.2586,-249.729"/>
</g>
<!-- Node3 -->
<g id="node3" class="node"><title>Node3</title>
<g id="a_node3"><a xlink:href="class_graphics_item.html" target="_top" xlink:title="{GraphicsItem\n|&#45; m_children\l&#45; m_z\l&#45; m_thick\l&#45; m_isFill\l&#45; m_isVisible\l|+ GraphicsItem()\l+ ~GraphicsItem()\l+ parent()\l+ setParent()\l+ type()\l+ children()\l+ relative()\l+ relative()\l+ absolute()\l+ setRelative()\let 16 de plus...\l+ focusItem()\l+ setFocusItem()\l# meDraw()\l# meUpdate()\l# meHandleEvent()\l# meIsOver()\l}">
<polygon fill="white" stroke="black" points="128.5,-564.5 128.5,-841.5 229.5,-841.5 229.5,-564.5 128.5,-564.5"/>
<text text-anchor="middle" x="179" y="-829.5" font-family="Helvetica,sans-Serif" font-size="10.00">GraphicsItem</text>
<polyline fill="none" stroke="black" points="128.5,-822.5 229.5,-822.5 "/>
<text text-anchor="start" x="136.5" y="-810.5" font-family="Helvetica,sans-Serif" font-size="10.00">&#45; m_children</text>
<text text-anchor="start" x="136.5" y="-799.5" font-family="Helvetica,sans-Serif" font-size="10.00">&#45; m_z</text>
<text text-anchor="start" x="136.5" y="-788.5" font-family="Helvetica,sans-Serif" font-size="10.00">&#45; m_thick</text>
<text text-anchor="start" x="136.5" y="-777.5" font-family="Helvetica,sans-Serif" font-size="10.00">&#45; m_isFill</text>
<text text-anchor="start" x="136.5" y="-766.5" font-family="Helvetica,sans-Serif" font-size="10.00">&#45; m_isVisible</text>
<polyline fill="none" stroke="black" points="128.5,-759.5 229.5,-759.5 "/>
<text text-anchor="start" x="136.5" y="-747.5" font-family="Helvetica,sans-Serif" font-size="10.00">+ GraphicsItem()</text>
<text text-anchor="start" x="136.5" y="-736.5" font-family="Helvetica,sans-Serif" font-size="10.00">+ ~GraphicsItem()</text>
<text text-anchor="start" x="136.5" y="-725.5" font-family="Helvetica,sans-Serif" font-size="10.00">+ parent()</text>
<text text-anchor="start" x="136.5" y="-714.5" font-family="Helvetica,sans-Serif" font-size="10.00">+ setParent()</text>
<text text-anchor="start" x="136.5" y="-703.5" font-family="Helvetica,sans-Serif" font-size="10.00">+ type()</text>
<text text-anchor="start" x="136.5" y="-692.5" font-family="Helvetica,sans-Serif" font-size="10.00">+ children()</text>
<text text-anchor="start" x="136.5" y="-681.5" font-family="Helvetica,sans-Serif" font-size="10.00">+ relative()</text>
<text text-anchor="start" x="136.5" y="-670.5" font-family="Helvetica,sans-Serif" font-size="10.00">+ relative()</text>
<text text-anchor="start" x="136.5" y="-659.5" font-family="Helvetica,sans-Serif" font-size="10.00">+ absolute()</text>
<text text-anchor="start" x="136.5" y="-648.5" font-family="Helvetica,sans-Serif" font-size="10.00">+ setRelative()</text>
<text text-anchor="start" x="136.5" y="-637.5" font-family="Helvetica,sans-Serif" font-size="10.00">et 16 de plus...</text>
<text text-anchor="start" x="136.5" y="-626.5" font-family="Helvetica,sans-Serif" font-size="10.00">+ focusItem()</text>
<text text-anchor="start" x="136.5" y="-615.5" font-family="Helvetica,sans-Serif" font-size="10.00">+ setFocusItem()</text>
<text text-anchor="start" x="136.5" y="-604.5" font-family="Helvetica,sans-Serif" font-size="10.00"># meDraw()</text>
<text text-anchor="start" x="136.5" y="-593.5" font-family="Helvetica,sans-Serif" font-size="10.00"># meUpdate()</text>
<text text-anchor="start" x="136.5" y="-582.5" font-family="Helvetica,sans-Serif" font-size="10.00"># meHandleEvent()</text>
<text text-anchor="start" x="136.5" y="-571.5" font-family="Helvetica,sans-Serif" font-size="10.00"># meIsOver()</text>
</a>
</g>
</g>
<!-- Node3&#45;&gt;Node2 -->
<g id="edge2" class="edge"><title>Node3&#45;&gt;Node2</title>
<path fill="none" stroke="midnightblue" d="M121.983,-568.573C120.681,-567.016 119.354,-565.491 118,-564 107.03,-551.92 99.8651,-554.604 86,-546 65.8892,-533.52 53.5649,-536.651 42,-516 6.39478,-452.422 16.6137,-362.319 24.9423,-317.514"/>
<polygon fill="none" stroke="midnightblue" points="119.353,-570.892 128.276,-576.605 124.864,-566.575 119.353,-570.892"/>
</g>
<!-- Node3&#45;&gt;Node3 -->
<g id="edge3" class="edge"><title>Node3&#45;&gt;Node3</title>
<path fill="none" stroke="#404040" d="M229.711,-732.122C239.803,-728.844 247,-719.137 247,-703 247,-693.167 244.328,-685.721 239.956,-680.663"/>
<polygon fill="none" stroke="#404040" points="239.716,-680.504 232.505,-680.526 229.711,-673.878 236.922,-673.856 239.716,-680.504"/>
<text text-anchor="middle" x="279" y="-706" font-family="Helvetica,sans-Serif" font-size="10.00"> &#45;m_focusItem</text>
<text text-anchor="middle" x="279" y="-695" font-family="Helvetica,sans-Serif" font-size="10.00">&#45;m_parent</text>
</g>
<!-- Node7 -->
<g id="node7" class="node"><title>Node7</title>
<g id="a_node7"><a xlink:href="class_graphics_shape.html" target="_top" xlink:title="{GraphicsShape\n|# m_points\l|+ GraphicsShape()\l+ type()\l# meDraw()\l}">
<polygon fill="white" stroke="black" points="159,-386.5 159,-465.5 257,-465.5 257,-386.5 159,-386.5"/>
<text text-anchor="middle" x="208" y="-453.5" font-family="Helvetica,sans-Serif" font-size="10.00">GraphicsShape</text>
<polyline fill="none" stroke="black" points="159,-446.5 257,-446.5 "/>
<text text-anchor="start" x="167" y="-434.5" font-family="Helvetica,sans-Serif" font-size="10.00"># m_points</text>
<polyline fill="none" stroke="black" points="159,-427.5 257,-427.5 "/>
<text text-anchor="start" x="167" y="-415.5" font-family="Helvetica,sans-Serif" font-size="10.00">+ GraphicsShape()</text>
<text text-anchor="start" x="167" y="-404.5" font-family="Helvetica,sans-Serif" font-size="10.00">+ type()</text>
<text text-anchor="start" x="167" y="-393.5" font-family="Helvetica,sans-Serif" font-size="10.00"># meDraw()</text>
</a>
</g>
</g>
<!-- Node3&#45;&gt;Node7 -->
<g id="edge9" class="edge"><title>Node3&#45;&gt;Node7</title>
<path fill="none" stroke="midnightblue" d="M194.615,-553.93C198.064,-521.224 201.428,-489.321 203.921,-465.68"/>
<polygon fill="none" stroke="midnightblue" points="191.111,-553.785 193.542,-564.097 198.072,-554.519 191.111,-553.785"/>
</g>
<!-- Node8 -->
<g id="node8" class="node"><title>Node8</title>
<g id="a_node8"><a xlink:href="class_graphics_text.html" target="_top" xlink:title="Permet la creation de text. ">
<polygon fill="white" stroke="black" points="51,-337 51,-515 141,-515 141,-337 51,-337"/>
<text text-anchor="middle" x="96" y="-503" font-family="Helvetica,sans-Serif" font-size="10.00">GraphicsText</text>
<polyline fill="none" stroke="black" points="51,-496 141,-496 "/>
<text text-anchor="start" x="59" y="-484" font-family="Helvetica,sans-Serif" font-size="10.00">&#45; m_text</text>
<text text-anchor="start" x="59" y="-473" font-family="Helvetica,sans-Serif" font-size="10.00">&#45; m_align</text>
<polyline fill="none" stroke="black" points="51,-466 141,-466 "/>
<text text-anchor="start" x="59" y="-454" font-family="Helvetica,sans-Serif" font-size="10.00">+ GraphicsText()</text>
<text text-anchor="start" x="59" y="-443" font-family="Helvetica,sans-Serif" font-size="10.00">+ GraphicsText()</text>
<text text-anchor="start" x="59" y="-432" font-family="Helvetica,sans-Serif" font-size="10.00">+ text()</text>
<text text-anchor="start" x="59" y="-421" font-family="Helvetica,sans-Serif" font-size="10.00">+ setText()</text>
<text text-anchor="start" x="59" y="-410" font-family="Helvetica,sans-Serif" font-size="10.00">+ font()</text>
<text text-anchor="start" x="59" y="-399" font-family="Helvetica,sans-Serif" font-size="10.00">+ setFont()</text>
<text text-anchor="start" x="59" y="-388" font-family="Helvetica,sans-Serif" font-size="10.00">+ align()</text>
<text text-anchor="start" x="59" y="-377" font-family="Helvetica,sans-Serif" font-size="10.00">+ setAlign()</text>
<text text-anchor="start" x="59" y="-366" font-family="Helvetica,sans-Serif" font-size="10.00">+ type()</text>
<text text-anchor="start" x="59" y="-355" font-family="Helvetica,sans-Serif" font-size="10.00"># meDraw()</text>
<text text-anchor="start" x="59" y="-344" font-family="Helvetica,sans-Serif" font-size="10.00"># meIsOver()</text>
</a>
</g>
</g>
<!-- Node3&#45;&gt;Node8 -->
<g id="edge11" class="edge"><title>Node3&#45;&gt;Node8</title>
<path fill="none" stroke="midnightblue" d="M137.271,-554.74C135.174,-547.722 133.077,-540.78 131,-534 129.111,-527.833 127.128,-521.478 125.105,-515.086"/>
<polygon fill="none" stroke="midnightblue" points="133.924,-555.763 140.129,-564.35 140.634,-553.768 133.924,-555.763"/>
</g>
<!-- Node10 -->
<g id="node10" class="node"><title>Node10</title>
<g id="a_node10"><a xlink:href="class_graphics_rectangle.html" target="_top" xlink:title="Permet la creation d&#39;un rectangle. ">
<polygon fill="white" stroke="black" points="274.5,-348 274.5,-504 389.5,-504 389.5,-348 274.5,-348"/>
<text text-anchor="middle" x="332" y="-492" font-family="Helvetica,sans-Serif" font-size="10.00">GraphicsRectangle</text>
<polyline fill="none" stroke="black" points="274.5,-485 389.5,-485 "/>
<text text-anchor="middle" x="332" y="-473" font-family="Helvetica,sans-Serif" font-size="10.00"> </text>
<polyline fill="none" stroke="black" points="274.5,-466 389.5,-466 "/>
<text text-anchor="start" x="282.5" y="-454" font-family="Helvetica,sans-Serif" font-size="10.00">+ GraphicsRectangle()</text>
<text text-anchor="start" x="282.5" y="-443" font-family="Helvetica,sans-Serif" font-size="10.00">+ topLeft()</text>
<text text-anchor="start" x="282.5" y="-432" font-family="Helvetica,sans-Serif" font-size="10.00">+ bottomRight()</text>
<text text-anchor="start" x="282.5" y="-421" font-family="Helvetica,sans-Serif" font-size="10.00">+ type()</text>
<text text-anchor="start" x="282.5" y="-410" font-family="Helvetica,sans-Serif" font-size="10.00">+ width()</text>
<text text-anchor="start" x="282.5" y="-399" font-family="Helvetica,sans-Serif" font-size="10.00">+ setWidth()</text>
<text text-anchor="start" x="282.5" y="-388" font-family="Helvetica,sans-Serif" font-size="10.00">+ height()</text>
<text text-anchor="start" x="282.5" y="-377" font-family="Helvetica,sans-Serif" font-size="10.00">+ setHeight()</text>
<text text-anchor="start" x="282.5" y="-366" font-family="Helvetica,sans-Serif" font-size="10.00"># meDraw()</text>
<text text-anchor="start" x="282.5" y="-355" font-family="Helvetica,sans-Serif" font-size="10.00"># meIsOver()</text>
</a>
</g>
</g>
<!-- Node3&#45;&gt;Node10 -->
<g id="edge14" class="edge"><title>Node3&#45;&gt;Node10</title>
<path fill="none" stroke="midnightblue" d="M234.533,-602.186C252.468,-569.95 272.069,-534.719 288.96,-504.359"/>
<polygon fill="none" stroke="midnightblue" points="231.325,-600.752 229.522,-611.193 237.442,-604.156 231.325,-600.752"/>
</g>
<!-- Node4 -->
<g id="node4" class="node"><title>Node4</title>
<g id="a_node4"><a xlink:href="class_point.html" target="_top" xlink:title="Représente un point (x, y) ">
<polygon fill="white" stroke="black" points="261.5,-900.5 261.5,-1133.5 376.5,-1133.5 376.5,-900.5 261.5,-900.5"/>
<text text-anchor="middle" x="319" y="-1121.5" font-family="Helvetica,sans-Serif" font-size="10.00">Point</text>
<polyline fill="none" stroke="black" points="261.5,-1114.5 376.5,-1114.5 "/>
<text text-anchor="start" x="269.5" y="-1102.5" font-family="Helvetica,sans-Serif" font-size="10.00">&#45; m_x</text>
<text text-anchor="start" x="269.5" y="-1091.5" font-family="Helvetica,sans-Serif" font-size="10.00">&#45; m_y</text>
<text text-anchor="start" x="269.5" y="-1080.5" font-family="Helvetica,sans-Serif" font-size="10.00">&#45; m_groupId</text>
<text text-anchor="start" x="269.5" y="-1069.5" font-family="Helvetica,sans-Serif" font-size="10.00">&#45; m_joinType</text>
<text text-anchor="start" x="269.5" y="-1058.5" font-family="Helvetica,sans-Serif" font-size="10.00">&#45; m_correctorsFixed</text>
<text text-anchor="start" x="269.5" y="-1047.5" font-family="Helvetica,sans-Serif" font-size="10.00">&#45; m_correctorsVariable</text>
<text text-anchor="start" x="269.5" y="-1036.5" font-family="Helvetica,sans-Serif" font-size="10.00">&#45; m_groups</text>
<polyline fill="none" stroke="black" points="261.5,-1029.5 376.5,-1029.5 "/>
<text text-anchor="start" x="269.5" y="-1017.5" font-family="Helvetica,sans-Serif" font-size="10.00">+ Point()</text>
<text text-anchor="start" x="269.5" y="-1006.5" font-family="Helvetica,sans-Serif" font-size="10.00">+ Point()</text>
<text text-anchor="start" x="269.5" y="-995.5" font-family="Helvetica,sans-Serif" font-size="10.00">+ Point()</text>
<text text-anchor="start" x="269.5" y="-984.5" font-family="Helvetica,sans-Serif" font-size="10.00">+ Point()</text>
<text text-anchor="start" x="269.5" y="-973.5" font-family="Helvetica,sans-Serif" font-size="10.00">+ ~Point()</text>
<text text-anchor="start" x="269.5" y="-962.5" font-family="Helvetica,sans-Serif" font-size="10.00">+ operator=()</text>
<text text-anchor="start" x="269.5" y="-951.5" font-family="Helvetica,sans-Serif" font-size="10.00">+ setParent()</text>
<text text-anchor="start" x="269.5" y="-940.5" font-family="Helvetica,sans-Serif" font-size="10.00">+ absolute()</text>
<text text-anchor="start" x="269.5" y="-929.5" font-family="Helvetica,sans-Serif" font-size="10.00">+ setAbsolute()</text>
<text text-anchor="start" x="269.5" y="-918.5" font-family="Helvetica,sans-Serif" font-size="10.00">+ setAbsolute()</text>
<text text-anchor="start" x="269.5" y="-907.5" font-family="Helvetica,sans-Serif" font-size="10.00">et 10 de plus...</text>
</a>
</g>
</g>
<!-- Node4&#45;&gt;Node3 -->
<g id="edge4" class="edge"><title>Node4&#45;&gt;Node3</title>
<path fill="none" stroke="#404040" d="M261.341,-920.491C254.464,-907.733 247.827,-894.677 242,-882 237.673,-872.586 233.454,-862.784 229.382,-852.832"/>
<polygon fill="none" stroke="#404040" points="229.322,-852.682 223.374,-848.604 224.85,-841.546 230.798,-845.623 229.322,-852.682"/>
<text text-anchor="middle" x="288" y="-874" font-family="Helvetica,sans-Serif" font-size="10.00"> &#45;m_positionAbsolute</text>
<text text-anchor="middle" x="288" y="-863" font-family="Helvetica,sans-Serif" font-size="10.00">&#45;m_position</text>
</g>
<!-- Node4&#45;&gt;Node4 -->
<g id="edge5" class="edge"><title>Node4&#45;&gt;Node4</title>
<path fill="none" stroke="#404040" d="M376.544,-1042.77C386.822,-1039.42 394,-1030.83 394,-1017 394,-1008.57 391.334,-1002.09 386.926,-997.555"/>
<polygon fill="none" stroke="#404040" points="386.793,-997.473 379.588,-997.768 376.544,-991.231 383.75,-990.936 386.793,-997.473"/>
<text text-anchor="middle" x="417.5" y="-1014.5" font-family="Helvetica,sans-Serif" font-size="10.00"> &#45;m_parent</text>
</g>
<!-- Node4&#45;&gt;Node10 -->
<g id="edge15" class="edge"><title>Node4&#45;&gt;Node10</title>
<path fill="none" stroke="#404040" d="M332.774,-900.219C333.252,-894.062 333.667,-887.96 334,-882 341.075,-755.19 338.475,-608.192 335.561,-516.385"/>
<polygon fill="none" stroke="#404040" points="335.56,-516.353 331.366,-510.487 335.167,-504.359 339.361,-510.225 335.56,-516.353"/>
<text text-anchor="middle" x="374.5" y="-706" font-family="Helvetica,sans-Serif" font-size="10.00"> &#45;m_bottomRight</text>
<text text-anchor="middle" x="374.5" y="-695" font-family="Helvetica,sans-Serif" font-size="10.00">&#45;m_topLeft</text>
</g>
<!-- Node5 -->
<g id="node5" class="node"><title>Node5</title>
<g id="a_node5"><a xlink:href="class_color.html" target="_top" xlink:title="Permet la gestion des coulours des différentes *entitées. ">
<polygon fill="white" stroke="black" points="138.5,-933.5 138.5,-1100.5 215.5,-1100.5 215.5,-933.5 138.5,-933.5"/>
<text text-anchor="middle" x="177" y="-1088.5" font-family="Helvetica,sans-Serif" font-size="10.00">Color</text>
<polyline fill="none" stroke="black" points="138.5,-1081.5 215.5,-1081.5 "/>
<text text-anchor="start" x="146.5" y="-1069.5" font-family="Helvetica,sans-Serif" font-size="10.00">&#45; m_color</text>
<polyline fill="none" stroke="black" points="138.5,-1062.5 215.5,-1062.5 "/>
<text text-anchor="start" x="146.5" y="-1050.5" font-family="Helvetica,sans-Serif" font-size="10.00">+ Color()</text>
<text text-anchor="start" x="146.5" y="-1039.5" font-family="Helvetica,sans-Serif" font-size="10.00">+ Color()</text>
<text text-anchor="start" x="146.5" y="-1028.5" font-family="Helvetica,sans-Serif" font-size="10.00">+ Color()</text>
<text text-anchor="start" x="146.5" y="-1017.5" font-family="Helvetica,sans-Serif" font-size="10.00">+ Color()</text>
<text text-anchor="start" x="146.5" y="-1006.5" font-family="Helvetica,sans-Serif" font-size="10.00">+ red()</text>
<text text-anchor="start" x="146.5" y="-995.5" font-family="Helvetica,sans-Serif" font-size="10.00">+ setRed()</text>
<text text-anchor="start" x="146.5" y="-984.5" font-family="Helvetica,sans-Serif" font-size="10.00">+ green()</text>
<text text-anchor="start" x="146.5" y="-973.5" font-family="Helvetica,sans-Serif" font-size="10.00">+ setGreen()</text>
<text text-anchor="start" x="146.5" y="-962.5" font-family="Helvetica,sans-Serif" font-size="10.00">+ blue()</text>
<text text-anchor="start" x="146.5" y="-951.5" font-family="Helvetica,sans-Serif" font-size="10.00">+ setBlue()</text>
<text text-anchor="start" x="146.5" y="-940.5" font-family="Helvetica,sans-Serif" font-size="10.00">et 9 de plus...</text>
</a>
</g>
</g>
<!-- Node5&#45;&gt;Node3 -->
<g id="edge6" class="edge"><title>Node5&#45;&gt;Node3</title>
<path fill="none" stroke="#404040" d="M177.531,-933.209C177.687,-908.755 177.864,-881.197 178.039,-853.89"/>
<polygon fill="none" stroke="#404040" points="178.04,-853.794 174.078,-847.768 178.117,-841.794 182.078,-847.82 178.04,-853.794"/>
<text text-anchor="middle" x="198.5" y="-868.5" font-family="Helvetica,sans-Serif" font-size="10.00"> &#45;m_color</text>
</g>
<!-- Node6 -->
<g id="node6" class="node"><title>Node6</title>
<g id="a_node6"><a xlink:href="class_graphics_line.html" target="_top" xlink:title="{GraphicsLine\n||+ GraphicsLine()\l+ first()\l+ second()\l+ type()\l}">
<polygon fill="white" stroke="black" points="155.5,-151 155.5,-241 244.5,-241 244.5,-151 155.5,-151"/>
<text text-anchor="middle" x="200" y="-229" font-family="Helvetica,sans-Serif" font-size="10.00">GraphicsLine</text>
<polyline fill="none" stroke="black" points="155.5,-222 244.5,-222 "/>
<text text-anchor="middle" x="200" y="-210" font-family="Helvetica,sans-Serif" font-size="10.00"> </text>
<polyline fill="none" stroke="black" points="155.5,-203 244.5,-203 "/>
<text text-anchor="start" x="163.5" y="-191" font-family="Helvetica,sans-Serif" font-size="10.00">+ GraphicsLine()</text>
<text text-anchor="start" x="163.5" y="-180" font-family="Helvetica,sans-Serif" font-size="10.00">+ first()</text>
<text text-anchor="start" x="163.5" y="-169" font-family="Helvetica,sans-Serif" font-size="10.00">+ second()</text>
<text text-anchor="start" x="163.5" y="-158" font-family="Helvetica,sans-Serif" font-size="10.00">+ type()</text>
</a>
</g>
</g>
<!-- Node6&#45;&gt;Node1 -->
<g id="edge7" class="edge"><title>Node6&#45;&gt;Node1</title>
<path fill="none" stroke="#404040" d="M179.043,-150.928C173.308,-138.869 166.99,-125.582 160.896,-112.766"/>
<polygon fill="none" stroke="#404040" points="160.772,-112.505 154.583,-108.804 155.618,-101.668 161.807,-105.369 160.772,-112.505"/>
<text text-anchor="middle" x="186.5" y="-123.5" font-family="Helvetica,sans-Serif" font-size="10.00"> &#45;m_line</text>
</g>
<!-- Node7&#45;&gt;Node6 -->
<g id="edge8" class="edge"><title>Node7&#45;&gt;Node6</title>
<path fill="none" stroke="midnightblue" d="M206.29,-376.266C204.886,-336.264 202.916,-280.094 201.556,-241.341"/>
<polygon fill="none" stroke="midnightblue" points="202.794,-376.452 206.643,-386.323 209.79,-376.206 202.794,-376.452"/>
</g>
<!-- Node8&#45;&gt;Node1 -->
<g id="edge10" class="edge"><title>Node8&#45;&gt;Node1</title>
<path fill="none" stroke="#404040" d="M96.0658,-336.996C97.119,-282.837 100.316,-212.129 109,-150 110.669,-138.058 113.11,-125.433 115.784,-113.363"/>
<polygon fill="none" stroke="#404040" points="115.818,-113.215 113.27,-106.469 118.517,-101.522 121.065,-108.268 115.818,-113.215"/>
<text text-anchor="middle" x="127.5" y="-193.5" font-family="Helvetica,sans-Serif" font-size="10.00"> &#45;m_text</text>
</g>
<!-- Node9 -->
<g id="node9" class="node"><title>Node9</title>
<g id="a_node9"><a xlink:href="class_font.html" target="_top" xlink:title="{Font\n|&#45; m_id\l&#45; m_width\l&#45; m_height\l|+ Font()\l+ set()\l+ id()\l+ width()\l+ height()\l}">
<polygon fill="white" stroke="black" points="48,-641.5 48,-764.5 110,-764.5 110,-641.5 48,-641.5"/>
<text text-anchor="middle" x="79" y="-752.5" font-family="Helvetica,sans-Serif" font-size="10.00">Font</text>
<polyline fill="none" stroke="black" points="48,-745.5 110,-745.5 "/>
<text text-anchor="start" x="56" y="-733.5" font-family="Helvetica,sans-Serif" font-size="10.00">&#45; m_id</text>
<text text-anchor="start" x="56" y="-722.5" font-family="Helvetica,sans-Serif" font-size="10.00">&#45; m_width</text>
<text text-anchor="start" x="56" y="-711.5" font-family="Helvetica,sans-Serif" font-size="10.00">&#45; m_height</text>
<polyline fill="none" stroke="black" points="48,-704.5 110,-704.5 "/>
<text text-anchor="start" x="56" y="-692.5" font-family="Helvetica,sans-Serif" font-size="10.00">+ Font()</text>
<text text-anchor="start" x="56" y="-681.5" font-family="Helvetica,sans-Serif" font-size="10.00">+ set()</text>
<text text-anchor="start" x="56" y="-670.5" font-family="Helvetica,sans-Serif" font-size="10.00">+ id()</text>
<text text-anchor="start" x="56" y="-659.5" font-family="Helvetica,sans-Serif" font-size="10.00">+ width()</text>
<text text-anchor="start" x="56" y="-648.5" font-family="Helvetica,sans-Serif" font-size="10.00">+ height()</text>
</a>
</g>
</g>
<!-- Node9&#45;&gt;Node8 -->
<g id="edge12" class="edge"><title>Node9&#45;&gt;Node8</title>
<path fill="none" stroke="#404040" d="M82.7518,-641.31C84.8164,-607.912 87.4313,-565.612 89.7914,-527.433"/>
<polygon fill="none" stroke="#404040" points="89.8072,-527.175 86.1851,-520.94 90.5477,-515.198 94.1699,-521.434 89.8072,-527.175"/>
<text text-anchor="middle" x="108.5" y="-537.5" font-family="Helvetica,sans-Serif" font-size="10.00"> &#45;m_font</text>
</g>
<!-- Node10&#45;&gt;Node1 -->
<g id="edge13" class="edge"><title>Node10&#45;&gt;Node1</title>
<path fill="none" stroke="#404040" d="M322.649,-347.999C312.691,-289.75 292.63,-209.847 253,-150 237.404,-126.448 214.38,-105.794 192.59,-89.5975"/>
<polygon fill="none" stroke="#404040" points="192.435,-89.4861 185.228,-89.2268 182.696,-82.475 189.902,-82.7343 192.435,-89.4861"/>
<text text-anchor="middle" x="325" y="-193.5" font-family="Helvetica,sans-Serif" font-size="10.00"> &#45;m_rectangle</text>
</g>
</g>
</svg>
        <g id="navigator" transform="translate(0 0)" fill="#404254">
                <rect fill="#f2f5e9" fill-opacity="0.5" stroke="#606060" stroke-width=".5" x="0" y="0" width="60" height="60"/>
                <use id="zoomplus" xlink:href="#zoomPlus" x="17" y="9" onmousedown="handleZoom(evt,'in')"/>
                <use id="zoomminus" xlink:href="#zoomMin" x="42" y="9" onmousedown="handleZoom(evt,'out')"/>
                <use id="reset" xlink:href="#resetDef" x="30" y="36" onmousedown="handleReset()"/>
                <g id="arrowUp" xlink:href="#dirArrow" transform="translate(30 24)" onmousedown="handlePan(0,-1)">
                  <use xlink:href="#rim" fill="#404040">
                        <set attributeName="fill" to="#808080" begin="arrowUp.mouseover" end="arrowUp.mouseout"/>
                  </use>
                  <path fill="none" stroke="white" stroke-width="1.5" d="M0,-3.0v7 M-2.5,-0.5L0,-3.0L2.5,-0.5"/>
                </g>
                <g id="arrowRight" xlink:href="#dirArrow" transform="rotate(90) translate(36 -43)" onmousedown="handlePan(1,0)">
                  <use xlink:href="#rim" fill="#404040">
                        <set attributeName="fill" to="#808080" begin="arrowRight.mouseover" end="arrowRight.mouseout"/>
                  </use>
                  <path fill="none" stroke="white" stroke-width="1.5" d="M0,-3.0v7 M-2.5,-0.5L0,-3.0L2.5,-0.5"/>
                </g>
                <g id="arrowDown" xlink:href="#dirArrow" transform="rotate(180) translate(-30 -48)" onmousedown="handlePan(0,1)">
                  <use xlink:href="#rim" fill="#404040">
                        <set attributeName="fill" to="#808080" begin="arrowDown.mouseover" end="arrowDown.mouseout"/>
                  </use>
                  <path fill="none" stroke="white" stroke-width="1.5" d="M0,-3.0v7 M-2.5,-0.5L0,-3.0L2.5,-0.5"/>
                </g>
                <g id="arrowLeft" xlink:href="#dirArrow" transform="rotate(270) translate(-36 17)" onmousedown="handlePan(-1,0)">
                  <use xlink:href="#rim" fill="#404040">
                        <set attributeName="fill" to="#808080" begin="arrowLeft.mouseover" end="arrowLeft.mouseout"/>
                  </use>
                  <path fill="none" stroke="white" stroke-width="1.5" d="M0,-3.0v7 M-2.5,-0.5L0,-3.0L2.5,-0.5"/>
                </g>
        </g>
        <svg viewBox="0 0 15 15" width="100%" height="30px" preserveAspectRatio="xMaxYMin meet">
         <g id="arrow_out" transform="scale(0.3 0.3)">
          <a xlink:href="class_line_edit__coll__graph_org.svg" target="_base">
           <rect id="button" ry="5" rx="5" y="6" x="6" height="38" width="38"
                fill="#f2f5e9" fill-opacity="0.5" stroke="#606060" stroke-width="1.0"/>
           <path id="arrow"
             d="M 11.500037,31.436501 C 11.940474,20.09759 22.043105,11.32322 32.158766,21.979434 L 37.068811,17.246167 C 37.068811,17.246167 37.088388,32 37.088388,32 L 22.160133,31.978069 C 22.160133,31.978069 26.997745,27.140456 26.997745,27.140456 C 18.528582,18.264221 13.291696,25.230495 11.500037,31.436501 z"
             style="fill:#404040;"/>
          </a>
         </g>
        </svg>
</svg>
