<?xml version="1.0" encoding="UTF-8" standalone="no"?>
<!DOCTYPE svg PUBLIC "-//W3C//DTD SVG 1.1//EN"
 "http://www.w3.org/Graphics/SVG/1.1/DTD/svg11.dtd">
<!-- Generated by graphviz version 2.36.0 (20140111.2315)
 -->
<!-- Title: LineEdit::setText Pages: 1 -->
<!--zoomable 310 -->
<svg id="main" version="1.1" xmlns="http://www.w3.org/2000/svg" xmlns:xlink="http://www.w3.org/1999/xlink" xml:space="preserve" onload="init(evt)">
<style type="text/css"><![CDATA[
.edge:hover path { stroke: red; }
.edge:hover polygon { stroke: red; fill: red; }
]]></style>
<script type="text/javascript"><![CDATA[
var edges = document.getElementsByTagName('g');
if (edges && edges.length) {
  for (var i=0;i<edges.length;i++) {
    if (edges[i].id.substr(0,4)=='edge') {
      edges[i].setAttribute('class','edge');
    }
  }
}
]]></script>
        <defs>
                <circle id="rim" cx="0" cy="0" r="7"/>
                <circle id="rim2" cx="0" cy="0" r="3.5"/>
                <g id="zoomPlus">
                        <use xlink:href="#rim" fill="#404040">
                                <set attributeName="fill" to="#808080" begin="zoomplus.mouseover" end="zoomplus.mouseout"/>
                        </use>
                        <path d="M-4,0h8M0,-4v8" fill="none" stroke="white" stroke-width="1.5" pointer-events="none"/>
                </g>
                <g id="zoomMin">
                        <use xlink:href="#rim" fill="#404040">
                                <set attributeName="fill" to="#808080" begin="zoomminus.mouseover" end="zoomminus.mouseout"/>
                        </use>
                        <path d="M-4,0h8" fill="none" stroke="white" stroke-width="1.5" pointer-events="none"/>
                </g>
                <g id="dirArrow">
                        <path fill="none" stroke="white" stroke-width="1.5" d="M0,-3.0v7 M-2.5,-0.5L0,-3.0L2.5,-0.5"/>
                </g>
               <g id="resetDef">
                       <use xlink:href="#rim2" fill="#404040">
                               <set attributeName="fill" to="#808080" begin="reset.mouseover" end="reset.mouseout"/>
                       </use>
               </g>
        </defs>

<script type="text/javascript">
var viewWidth = 974;
var viewHeight = 310;
var sectionId = 'dynsection-4';
</script>
<script xlink:href="svgpan.js"/>
<svg id="graph" class="graph">
<g id="viewport">
<title>LineEdit::setText</title>
<polygon fill="white" stroke="none" points="-4,4 -4,-305.884 970,-305.884 970,4 -4,4"/>
<!-- Node1 -->
<g id="node1" class="node"><title>Node1</title>
<polygon fill="#bfbfbf" stroke="black" points="0.5,-82.5 0.5,-101.5 91.5,-101.5 91.5,-82.5 0.5,-82.5"/>
<text text-anchor="middle" x="46" y="-89.5" font-family="Helvetica,sans-Serif" font-size="10.00">LineEdit::setText</text>
</g>
<!-- Node2 -->
<g id="node2" class="node"><title>Node2</title>
<g id="a_node2"><a xlink:href="class_graphics_text.html#ac42bb0e20251eb0dc2305be760714130" target="_top" xlink:title="Modifie le contenu de GraphicsText. ">
<polygon fill="white" stroke="black" points="128,-164.5 128,-183.5 242,-183.5 242,-164.5 128,-164.5"/>
<text text-anchor="middle" x="185" y="-171.5" font-family="Helvetica,sans-Serif" font-size="10.00">GraphicsText::setText</text>
</a>
</g>
</g>
<!-- Node1&#45;&gt;Node2 -->
<g id="edge1" class="edge"><title>Node1&#45;&gt;Node2</title>
<path fill="none" stroke="midnightblue" d="M58.8019,-101.705C74.1055,-113.987 101.932,-135.311 128,-150 134.652,-153.749 142.006,-157.291 149.136,-160.446"/>
<polygon fill="midnightblue" stroke="midnightblue" points="148.062,-163.793 158.633,-164.491 150.804,-157.353 148.062,-163.793"/>
</g>
<!-- Node3 -->
<g id="node3" class="node"><title>Node3</title>
<g id="a_node3"><a xlink:href="class_graphics_text.html#aeb38c8c0df9473cde331540d9904d352" target="_top" xlink:title="Recupere le contenu de GraphicsText. ">
<polygon fill="white" stroke="black" points="280,-145.5 280,-164.5 378,-164.5 378,-145.5 280,-145.5"/>
<text text-anchor="middle" x="329" y="-152.5" font-family="Helvetica,sans-Serif" font-size="10.00">GraphicsText::text</text>
</a>
</g>
</g>
<!-- Node1&#45;&gt;Node3 -->
<g id="edge26" class="edge"><title>Node1&#45;&gt;Node3</title>
<path fill="none" stroke="midnightblue" d="M76.8185,-101.577C92.0394,-106.276 110.906,-111.811 128,-116 175.354,-127.604 229.688,-138.018 269.761,-145.159"/>
<polygon fill="midnightblue" stroke="midnightblue" points="269.172,-148.609 279.629,-146.903 270.39,-141.716 269.172,-148.609"/>
</g>
<!-- Node4 -->
<g id="node4" class="node"><title>Node4</title>
<g id="a_node4"><a xlink:href="class_graphics_rectangle.html#a3efd2295cd742f75de829851bf7ca3dd" target="_top" xlink:title="GraphicsRectangle::\lsetWidth">
<polygon fill="white" stroke="black" points="132,-77 132,-107 238,-107 238,-77 132,-77"/>
<text text-anchor="start" x="140" y="-95" font-family="Helvetica,sans-Serif" font-size="10.00">GraphicsRectangle::</text>
<text text-anchor="middle" x="185" y="-84" font-family="Helvetica,sans-Serif" font-size="10.00">setWidth</text>
</a>
</g>
</g>
<!-- Node1&#45;&gt;Node4 -->
<g id="edge3" class="edge"><title>Node1&#45;&gt;Node4</title>
<path fill="none" stroke="midnightblue" d="M91.8589,-92C101.457,-92 111.762,-92 121.879,-92"/>
<polygon fill="midnightblue" stroke="midnightblue" points="121.901,-95.5001 131.901,-92 121.901,-88.5001 121.901,-95.5001"/>
</g>
<!-- Node16 -->
<g id="node16" class="node"><title>Node16</title>
<g id="a_node16"><a xlink:href="class_graphics_text.html#aaafb8f8246e4d3b0d5dd8ac5cc8586cc" target="_top" xlink:title="GraphicsText::font">
<polygon fill="white" stroke="black" points="136,-38.5 136,-57.5 234,-57.5 234,-38.5 136,-38.5"/>
<text text-anchor="middle" x="185" y="-45.5" font-family="Helvetica,sans-Serif" font-size="10.00">GraphicsText::font</text>
</a>
</g>
</g>
<!-- Node1&#45;&gt;Node16 -->
<g id="edge24" class="edge"><title>Node1&#45;&gt;Node16</title>
<path fill="none" stroke="midnightblue" d="M76.727,-82.4527C96.6545,-76.0526 123.11,-67.556 144.762,-60.6021"/>
<polygon fill="midnightblue" stroke="midnightblue" points="145.88,-63.919 154.331,-57.5287 143.74,-57.2543 145.88,-63.919"/>
</g>
<!-- Node17 -->
<g id="node17" class="node"><title>Node17</title>
<g id="a_node17"><a xlink:href="class_font.html#ad96d9cd6356edf670103542dbe4336c3" target="_top" xlink:title="Font::width">
<polygon fill="white" stroke="black" points="152.5,-0.5 152.5,-19.5 217.5,-19.5 217.5,-0.5 152.5,-0.5"/>
<text text-anchor="middle" x="185" y="-7.5" font-family="Helvetica,sans-Serif" font-size="10.00">Font::width</text>
</a>
</g>
</g>
<!-- Node1&#45;&gt;Node17 -->
<g id="edge25" class="edge"><title>Node1&#45;&gt;Node17</title>
<path fill="none" stroke="midnightblue" d="M57.201,-82.2064C71.8268,-68.6216 100.081,-44.0378 128,-29 132.627,-26.5079 137.642,-24.2528 142.706,-22.2395"/>
<polygon fill="midnightblue" stroke="midnightblue" points="144.237,-25.4054 152.413,-18.6672 141.82,-18.8361 144.237,-25.4054"/>
</g>
<!-- Node2&#45;&gt;Node3 -->
<g id="edge2" class="edge"><title>Node2&#45;&gt;Node3</title>
<path fill="none" stroke="midnightblue" d="M242.122,-166.491C251.134,-165.285 260.481,-164.034 269.546,-162.821"/>
<polygon fill="midnightblue" stroke="midnightblue" points="270.181,-166.268 279.628,-161.472 269.252,-159.33 270.181,-166.268"/>
</g>
<!-- Node5 -->
<g id="node5" class="node"><title>Node5</title>
<g id="a_node5"><a xlink:href="class_point.html#a7f5e36e2e1bd0fa1564c1e4d5d74355c" target="_top" xlink:title="Point::setRelativeX">
<polygon fill="white" stroke="black" points="278.5,-82.5 278.5,-101.5 379.5,-101.5 379.5,-82.5 278.5,-82.5"/>
<text text-anchor="middle" x="329" y="-89.5" font-family="Helvetica,sans-Serif" font-size="10.00">Point::setRelativeX</text>
</a>
</g>
</g>
<!-- Node4&#45;&gt;Node5 -->
<g id="edge4" class="edge"><title>Node4&#45;&gt;Node5</title>
<path fill="none" stroke="midnightblue" d="M238.069,-92C247.821,-92 258.087,-92 268.055,-92"/>
<polygon fill="midnightblue" stroke="midnightblue" points="268.301,-95.5001 278.301,-92 268.301,-88.5001 268.301,-95.5001"/>
</g>
<!-- Node6 -->
<g id="node6" class="node"><title>Node6</title>
<g id="a_node6"><a xlink:href="class_point.html#a9abe56cf3f067305623a1d805460a84f" target="_top" xlink:title="Point::setRelative">
<polygon fill="white" stroke="black" points="416.5,-167.5 416.5,-186.5 511.5,-186.5 511.5,-167.5 416.5,-167.5"/>
<text text-anchor="middle" x="464" y="-174.5" font-family="Helvetica,sans-Serif" font-size="10.00">Point::setRelative</text>
</a>
</g>
</g>
<!-- Node5&#45;&gt;Node6 -->
<g id="edge5" class="edge"><title>Node5&#45;&gt;Node6</title>
<path fill="none" stroke="midnightblue" d="M344.998,-101.585C367.948,-116.252 411.982,-144.395 439.288,-161.846"/>
<polygon fill="midnightblue" stroke="midnightblue" points="437.541,-164.883 447.852,-167.319 441.311,-158.985 437.541,-164.883"/>
</g>
<!-- Node9 -->
<g id="node9" class="node"><title>Node9</title>
<g id="a_node9"><a xlink:href="class_point.html#a2aa897aa68c2f3e6df3a46738f27a0ac" target="_top" xlink:title="recupere la valeur de l&#39;absisse du Point. ">
<polygon fill="white" stroke="black" points="671,-54.5 671,-73.5 721,-73.5 721,-54.5 671,-54.5"/>
<text text-anchor="middle" x="696" y="-61.5" font-family="Helvetica,sans-Serif" font-size="10.00">Point::x</text>
</a>
</g>
</g>
<!-- Node5&#45;&gt;Node9 -->
<g id="edge22" class="edge"><title>Node5&#45;&gt;Node9</title>
<path fill="none" stroke="midnightblue" d="M379.605,-88.1947C454.753,-82.4299 595.561,-71.6282 660.534,-66.6439"/>
<polygon fill="midnightblue" stroke="midnightblue" points="660.953,-70.1222 670.656,-65.8675 660.418,-63.1427 660.953,-70.1222"/>
</g>
<!-- Node15 -->
<g id="node15" class="node"><title>Node15</title>
<g id="a_node15"><a xlink:href="class_point.html#a2df1f1705c57a0089ee2956315b214ba" target="_top" xlink:title="Point::relativeY">
<polygon fill="white" stroke="black" points="422.5,-44.5 422.5,-63.5 505.5,-63.5 505.5,-44.5 422.5,-44.5"/>
<text text-anchor="middle" x="464" y="-51.5" font-family="Helvetica,sans-Serif" font-size="10.00">Point::relativeY</text>
</a>
</g>
</g>
<!-- Node5&#45;&gt;Node15 -->
<g id="edge23" class="edge"><title>Node5&#45;&gt;Node15</title>
<path fill="none" stroke="midnightblue" d="M363.562,-82.411C380.573,-77.5506 401.432,-71.5909 419.645,-66.3873"/>
<polygon fill="midnightblue" stroke="midnightblue" points="420.796,-69.6986 429.449,-63.5859 418.872,-62.9679 420.796,-69.6986"/>
</g>
<!-- Node7 -->
<g id="node7" class="node"><title>Node7</title>
<g id="a_node7"><a xlink:href="class_point.html#a43923c490fb5439d7d8a041e86520c34" target="_top" xlink:title="permet la modification des valeurs du point. ">
<polygon fill="white" stroke="black" points="548.5,-167.5 548.5,-186.5 607.5,-186.5 607.5,-167.5 548.5,-167.5"/>
<text text-anchor="middle" x="578" y="-174.5" font-family="Helvetica,sans-Serif" font-size="10.00">Point::set</text>
</a>
</g>
</g>
<!-- Node6&#45;&gt;Node7 -->
<g id="edge6" class="edge"><title>Node6&#45;&gt;Node7</title>
<path fill="none" stroke="midnightblue" d="M511.525,-177C520.413,-177 529.628,-177 538.241,-177"/>
<polygon fill="midnightblue" stroke="midnightblue" points="538.384,-180.5 548.384,-177 538.384,-173.5 538.384,-180.5"/>
</g>
<!-- Node10 -->
<g id="node10" class="node"><title>Node10</title>
<g id="a_node10"><a xlink:href="class_point.html#afa7d33502738b0b3df186a91e11ff2a8" target="_top" xlink:title="Point::origin">
<polygon fill="white" stroke="black" points="784,-224.5 784,-243.5 852,-243.5 852,-224.5 784,-224.5"/>
<text text-anchor="middle" x="818" y="-231.5" font-family="Helvetica,sans-Serif" font-size="10.00">Point::origin</text>
</a>
</g>
</g>
<!-- Node6&#45;&gt;Node10 -->
<g id="edge21" class="edge"><title>Node6&#45;&gt;Node10</title>
<path fill="none" stroke="midnightblue" d="M475.224,-186.597C501.018,-210.067 571.84,-269.973 644,-291 688.377,-303.931 704.505,-306.642 748,-291 769.795,-283.162 789.602,-265.126 802.348,-251.426"/>
<polygon fill="midnightblue" stroke="midnightblue" points="805.292,-253.383 809.326,-243.586 800.063,-248.729 805.292,-253.383"/>
</g>
<!-- Node8 -->
<g id="node8" class="node"><title>Node8</title>
<g id="a_node8"><a xlink:href="class_point.html#a64a5fe8c9b1d1a1543aaa64031537380" target="_top" xlink:title="Point::isAlone">
<polygon fill="white" stroke="black" points="888.5,-138.5 888.5,-157.5 965.5,-157.5 965.5,-138.5 888.5,-138.5"/>
<text text-anchor="middle" x="927" y="-145.5" font-family="Helvetica,sans-Serif" font-size="10.00">Point::isAlone</text>
</a>
</g>
</g>
<!-- Node7&#45;&gt;Node8 -->
<g id="edge7" class="edge"><title>Node7&#45;&gt;Node8</title>
<path fill="none" stroke="midnightblue" d="M591.05,-167.283C603.469,-157.945 623.813,-144.468 644,-139 723.894,-117.36 821.186,-128.21 878.096,-138.086"/>
<polygon fill="midnightblue" stroke="midnightblue" points="877.778,-141.585 888.239,-139.911 879.017,-134.696 877.778,-141.585"/>
</g>
<!-- Node7&#45;&gt;Node9 -->
<g id="edge8" class="edge"><title>Node7&#45;&gt;Node9</title>
<path fill="none" stroke="midnightblue" d="M587.015,-167.418C598.909,-153.396 622.18,-126.706 644,-106 653.555,-96.9326 664.801,-87.5481 674.298,-79.9559"/>
<polygon fill="midnightblue" stroke="midnightblue" points="676.741,-82.4866 682.429,-73.5478 672.408,-76.9888 676.741,-82.4866"/>
</g>
<!-- Node7&#45;&gt;Node10 -->
<g id="edge14" class="edge"><title>Node7&#45;&gt;Node10</title>
<path fill="none" stroke="midnightblue" d="M582.25,-186.785C589.552,-206.969 609.383,-252.85 644,-271 684.937,-292.463 703.171,-282.261 748,-271 764.867,-266.763 782.11,-257.519 795.139,-249.331"/>
<polygon fill="midnightblue" stroke="midnightblue" points="797.372,-252.053 803.816,-243.643 793.534,-246.198 797.372,-252.053"/>
</g>
<!-- Node12 -->
<g id="node12" class="node"><title>Node12</title>
<g id="a_node12"><a xlink:href="class_point.html#a2226d8a3fb283b0b3c1f69106df144ba" target="_top" xlink:title="Fonction recuperant le valeur de l&#39;ordonée. ">
<polygon fill="white" stroke="black" points="671,-224.5 671,-243.5 721,-243.5 721,-224.5 671,-224.5"/>
<text text-anchor="middle" x="696" y="-231.5" font-family="Helvetica,sans-Serif" font-size="10.00">Point::y</text>
</a>
</g>
</g>
<!-- Node7&#45;&gt;Node12 -->
<g id="edge15" class="edge"><title>Node7&#45;&gt;Node12</title>
<path fill="none" stroke="midnightblue" d="M593.578,-186.504C606.499,-194.686 626.048,-206.486 644,-215 649.469,-217.594 655.395,-220.079 661.206,-222.348"/>
<polygon fill="midnightblue" stroke="midnightblue" points="660.185,-225.703 670.777,-225.943 662.646,-219.15 660.185,-225.703"/>
</g>
<!-- Node13 -->
<g id="node13" class="node"><title>Node13</title>
<g id="a_node13"><a xlink:href="jquery_8js.html#a2335e57f79b6acfb6de59c235dc8a83e" target="_top" xlink:title="p">
<polygon fill="white" stroke="black" points="681.5,-148.5 681.5,-167.5 710.5,-167.5 710.5,-148.5 681.5,-148.5"/>
<text text-anchor="middle" x="696" y="-155.5" font-family="Helvetica,sans-Serif" font-size="10.00">p</text>
</a>
</g>
</g>
<!-- Node7&#45;&gt;Node13 -->
<g id="edge19" class="edge"><title>Node7&#45;&gt;Node13</title>
<path fill="none" stroke="midnightblue" d="M607.674,-172.303C627.304,-169.088 653.015,-164.877 671.447,-161.858"/>
<polygon fill="midnightblue" stroke="midnightblue" points="672.055,-165.305 681.358,-160.235 670.923,-158.397 672.055,-165.305"/>
</g>
<!-- Node14 -->
<g id="node14" class="node"><title>Node14</title>
<g id="a_node14"><a xlink:href="class_group_points.html#a5d0d00417a192136922c27c8ce8ff98f" target="_top" xlink:title="GroupPoints::points">
<polygon fill="white" stroke="black" points="644.5,-186.5 644.5,-205.5 747.5,-205.5 747.5,-186.5 644.5,-186.5"/>
<text text-anchor="middle" x="696" y="-193.5" font-family="Helvetica,sans-Serif" font-size="10.00">GroupPoints::points</text>
</a>
</g>
</g>
<!-- Node7&#45;&gt;Node14 -->
<g id="edge20" class="edge"><title>Node7&#45;&gt;Node14</title>
<path fill="none" stroke="midnightblue" d="M607.674,-181.697C615.755,-183.02 624.865,-184.512 634.075,-186.021"/>
<polygon fill="midnightblue" stroke="midnightblue" points="633.628,-189.494 644.063,-187.657 634.76,-182.586 633.628,-189.494"/>
</g>
<!-- Node9&#45;&gt;Node8 -->
<g id="edge9" class="edge"><title>Node9&#45;&gt;Node8</title>
<path fill="none" stroke="midnightblue" d="M721.249,-68.5933C752.292,-74.9165 807.397,-87.6437 852,-106 869.818,-113.333 888.688,-124.096 902.914,-132.891"/>
<polygon fill="midnightblue" stroke="midnightblue" points="901.209,-135.953 911.534,-138.33 904.945,-130.033 901.209,-135.953"/>
</g>
<!-- Node9&#45;&gt;Node9 -->
<g id="edge13" class="edge"><title>Node9&#45;&gt;Node9</title>
<path fill="none" stroke="midnightblue" d="M677.813,-73.7571C668.965,-82.5653 675.027,-92 696,-92 709.436,-92 716.752,-88.128 717.949,-83.0292"/>
<polygon fill="midnightblue" stroke="midnightblue" points="721.19,-81.7074 714.187,-73.7571 714.704,-84.3393 721.19,-81.7074"/>
</g>
<!-- Node9&#45;&gt;Node10 -->
<g id="edge10" class="edge"><title>Node9&#45;&gt;Node10</title>
<path fill="none" stroke="midnightblue" d="M703.796,-73.627C723.184,-101.094 778.994,-180.159 804.279,-215.979"/>
<polygon fill="midnightblue" stroke="midnightblue" points="801.653,-218.327 810.279,-224.479 807.372,-214.29 801.653,-218.327"/>
</g>
<!-- Node10&#45;&gt;Node8 -->
<g id="edge11" class="edge"><title>Node10&#45;&gt;Node8</title>
<path fill="none" stroke="midnightblue" d="M830.86,-224.468C849.017,-209.874 883.921,-181.82 906.029,-164.052"/>
<polygon fill="midnightblue" stroke="midnightblue" points="908.485,-166.568 914.087,-157.575 904.1,-161.111 908.485,-166.568"/>
</g>
<!-- Node11 -->
<g id="node11" class="node"><title>Node11</title>
<g id="a_node11"><a xlink:href="class_point.html#a97edc6e6415d6ccc6efcff5fcbc97f15" target="_top" xlink:title="Constructeur par défaut de la classe Point. ">
<polygon fill="white" stroke="black" points="893,-224.5 893,-243.5 961,-243.5 961,-224.5 893,-224.5"/>
<text text-anchor="middle" x="927" y="-231.5" font-family="Helvetica,sans-Serif" font-size="10.00">Point::Point</text>
</a>
</g>
</g>
<!-- Node10&#45;&gt;Node11 -->
<g id="edge12" class="edge"><title>Node10&#45;&gt;Node11</title>
<path fill="none" stroke="midnightblue" d="M852.269,-234C861.831,-234 872.403,-234 882.485,-234"/>
<polygon fill="midnightblue" stroke="midnightblue" points="882.752,-237.5 892.752,-234 882.752,-230.5 882.752,-237.5"/>
</g>
<!-- Node12&#45;&gt;Node8 -->
<g id="edge16" class="edge"><title>Node12&#45;&gt;Node8</title>
<path fill="none" stroke="midnightblue" d="M721.133,-225.028C729.628,-221.865 739.24,-218.28 748,-215 797.746,-196.371 855.264,-174.697 891.14,-161.161"/>
<polygon fill="midnightblue" stroke="midnightblue" points="892.54,-164.374 900.66,-157.569 890.068,-157.825 892.54,-164.374"/>
</g>
<!-- Node12&#45;&gt;Node10 -->
<g id="edge17" class="edge"><title>Node12&#45;&gt;Node10</title>
<path fill="none" stroke="midnightblue" d="M721.284,-234C736.283,-234 755.964,-234 773.578,-234"/>
<polygon fill="midnightblue" stroke="midnightblue" points="773.658,-237.5 783.658,-234 773.658,-230.5 773.658,-237.5"/>
</g>
<!-- Node12&#45;&gt;Node12 -->
<g id="edge18" class="edge"><title>Node12&#45;&gt;Node12</title>
<path fill="none" stroke="midnightblue" d="M677.813,-243.757C668.965,-252.565 675.027,-262 696,-262 709.436,-262 716.752,-258.128 717.949,-253.029"/>
<polygon fill="midnightblue" stroke="midnightblue" points="721.19,-251.707 714.187,-243.757 714.704,-254.339 721.19,-251.707"/>
</g>
</g>
</svg>
        <g id="navigator" transform="translate(0 0)" fill="#404254">
                <rect fill="#f2f5e9" fill-opacity="0.5" stroke="#606060" stroke-width=".5" x="0" y="0" width="60" height="60"/>
                <use id="zoomplus" xlink:href="#zoomPlus" x="17" y="9" onmousedown="handleZoom(evt,'in')"/>
                <use id="zoomminus" xlink:href="#zoomMin" x="42" y="9" onmousedown="handleZoom(evt,'out')"/>
                <use id="reset" xlink:href="#resetDef" x="30" y="36" onmousedown="handleReset()"/>
                <g id="arrowUp" xlink:href="#dirArrow" transform="translate(30 24)" onmousedown="handlePan(0,-1)">
                  <use xlink:href="#rim" fill="#404040">
                        <set attributeName="fill" to="#808080" begin="arrowUp.mouseover" end="arrowUp.mouseout"/>
                  </use>
                  <path fill="none" stroke="white" stroke-width="1.5" d="M0,-3.0v7 M-2.5,-0.5L0,-3.0L2.5,-0.5"/>
                </g>
                <g id="arrowRight" xlink:href="#dirArrow" transform="rotate(90) translate(36 -43)" onmousedown="handlePan(1,0)">
                  <use xlink:href="#rim" fill="#404040">
                        <set attributeName="fill" to="#808080" begin="arrowRight.mouseover" end="arrowRight.mouseout"/>
                  </use>
                  <path fill="none" stroke="white" stroke-width="1.5" d="M0,-3.0v7 M-2.5,-0.5L0,-3.0L2.5,-0.5"/>
                </g>
                <g id="arrowDown" xlink:href="#dirArrow" transform="rotate(180) translate(-30 -48)" onmousedown="handlePan(0,1)">
                  <use xlink:href="#rim" fill="#404040">
                        <set attributeName="fill" to="#808080" begin="arrowDown.mouseover" end="arrowDown.mouseout"/>
                  </use>
                  <path fill="none" stroke="white" stroke-width="1.5" d="M0,-3.0v7 M-2.5,-0.5L0,-3.0L2.5,-0.5"/>
                </g>
                <g id="arrowLeft" xlink:href="#dirArrow" transform="rotate(270) translate(-36 17)" onmousedown="handlePan(-1,0)">
                  <use xlink:href="#rim" fill="#404040">
                        <set attributeName="fill" to="#808080" begin="arrowLeft.mouseover" end="arrowLeft.mouseout"/>
                  </use>
                  <path fill="none" stroke="white" stroke-width="1.5" d="M0,-3.0v7 M-2.5,-0.5L0,-3.0L2.5,-0.5"/>
                </g>
        </g>
        <svg viewBox="0 0 15 15" width="100%" height="30px" preserveAspectRatio="xMaxYMin meet">
         <g id="arrow_out" transform="scale(0.3 0.3)">
          <a xlink:href="class_line_edit_a636e2ac65a70dd82fcf02f863da5c446_cgraph_org.svg" target="_base">
           <rect id="button" ry="5" rx="5" y="6" x="6" height="38" width="38"
                fill="#f2f5e9" fill-opacity="0.5" stroke="#606060" stroke-width="1.0"/>
           <path id="arrow"
             d="M 11.500037,31.436501 C 11.940474,20.09759 22.043105,11.32322 32.158766,21.979434 L 37.068811,17.246167 C 37.068811,17.246167 37.088388,32 37.088388,32 L 22.160133,31.978069 C 22.160133,31.978069 26.997745,27.140456 26.997745,27.140456 C 18.528582,18.264221 13.291696,25.230495 11.500037,31.436501 z"
             style="fill:#404040;"/>
          </a>
         </g>
        </svg>
</svg>
