<?xml version="1.0" encoding="UTF-8" standalone="no"?>
<!DOCTYPE svg PUBLIC "-//W3C//DTD SVG 1.1//EN"
 "http://www.w3.org/Graphics/SVG/1.1/DTD/svg11.dtd">
<!-- Generated by graphviz version 2.36.0 (20140111.2315)
 -->
<!-- Title: Point::setOrigin Pages: 1 -->
<!--zoomable 133 -->
<svg id="main" version="1.1" xmlns="http://www.w3.org/2000/svg" xmlns:xlink="http://www.w3.org/1999/xlink" xml:space="preserve" onload="init(evt)">
<style type="text/css"><![CDATA[
.edge:hover path { stroke: red; }
.edge:hover polygon { stroke: red; fill: red; }
]]></style>
<script type="text/javascript"><![CDATA[
var edges = document.getElementsByTagName('g');
if (edges && edges.length) {
  for (var i=0;i<edges.length;i++) {
    if (edges[i].id.substr(0,4)=='edge') {
      edges[i].setAttribute('class','edge');
    }
  }
}
]]></script>
        <defs>
                <circle id="rim" cx="0" cy="0" r="7"/>
                <circle id="rim2" cx="0" cy="0" r="3.5"/>
                <g id="zoomPlus">
                        <use xlink:href="#rim" fill="#404040">
                                <set attributeName="fill" to="#808080" begin="zoomplus.mouseover" end="zoomplus.mouseout"/>
                        </use>
                        <path d="M-4,0h8M0,-4v8" fill="none" stroke="white" stroke-width="1.5" pointer-events="none"/>
                </g>
                <g id="zoomMin">
                        <use xlink:href="#rim" fill="#404040">
                                <set attributeName="fill" to="#808080" begin="zoomminus.mouseover" end="zoomminus.mouseout"/>
                        </use>
                        <path d="M-4,0h8" fill="none" stroke="white" stroke-width="1.5" pointer-events="none"/>
                </g>
                <g id="dirArrow">
                        <path fill="none" stroke="white" stroke-width="1.5" d="M0,-3.0v7 M-2.5,-0.5L0,-3.0L2.5,-0.5"/>
                </g>
               <g id="resetDef">
                       <use xlink:href="#rim2" fill="#404040">
                               <set attributeName="fill" to="#808080" begin="reset.mouseover" end="reset.mouseout"/>
                       </use>
               </g>
        </defs>

<script type="text/javascript">
var viewWidth = 678;
var viewHeight = 133;
var sectionId = 'dynsection-22';
</script>
<script xlink:href="svgpan.js"/>
<svg id="graph" class="graph">
<g id="viewport">
<title>Point::setOrigin</title>
<polygon fill="white" stroke="none" points="-4,4 -4,-128.517 674,-128.517 674,4 -4,4"/>
<!-- Node1 -->
<g id="node1" class="node"><title>Node1</title>
<polygon fill="#bfbfbf" stroke="black" points="0,-67.0172 0,-86.0172 84,-86.0172 84,-67.0172 0,-67.0172"/>
<text text-anchor="middle" x="42" y="-74.0172" font-family="Helvetica,sans-Serif" font-size="10.00">Point::setOrigin</text>
</g>
<!-- Node2 -->
<g id="node2" class="node"><title>Node2</title>
<g id="a_node2"><a xlink:href="class_point.html#ad92f2337b839a94ce97dcdb439b4325a" target="_top" xlink:title="Constructeur par défaut de la classe Point. ">
<polygon fill="white" stroke="black" points="120,-86.0172 120,-105.017 188,-105.017 188,-86.0172 120,-86.0172"/>
<text text-anchor="middle" x="154" y="-93.0172" font-family="Helvetica,sans-Serif" font-size="10.00">Point::Point</text>
</a>
</g>
</g>
<!-- Node1&#45;&gt;Node2 -->
<g id="edge1" class="edge"><title>Node1&#45;&gt;Node2</title>
<path fill="none" stroke="midnightblue" d="M84.2729,-83.6462C92.5943,-85.0835 101.364,-86.5982 109.751,-88.0468"/>
<polygon fill="midnightblue" stroke="midnightblue" points="109.285,-91.5183 119.735,-89.7715 110.477,-84.6204 109.285,-91.5183"/>
</g>
<!-- Node3 -->
<g id="node3" class="node"><title>Node3</title>
<g id="a_node3"><a xlink:href="class_point.html#a4fa7ffadfb6c9de033bfef5decdaa66e" target="_top" xlink:title="Point::join">
<polygon fill="white" stroke="black" points="124,-48.0172 124,-67.0172 184,-67.0172 184,-48.0172 124,-48.0172"/>
<text text-anchor="middle" x="154" y="-55.0172" font-family="Helvetica,sans-Serif" font-size="10.00">Point::join</text>
</a>
</g>
</g>
<!-- Node1&#45;&gt;Node3 -->
<g id="edge2" class="edge"><title>Node1&#45;&gt;Node3</title>
<path fill="none" stroke="midnightblue" d="M84.2729,-69.3883C93.9431,-67.7179 104.218,-65.9432 113.795,-64.289"/>
<polygon fill="midnightblue" stroke="midnightblue" points="114.593,-67.7031 123.851,-62.552 113.402,-60.8052 114.593,-67.7031"/>
</g>
<!-- Node4 -->
<g id="node4" class="node"><title>Node4</title>
<g id="a_node4"><a xlink:href="class_point.html#a498f108de0c0351dfb3177c681a7a1f2" target="_top" xlink:title="Point::beAlone">
<polygon fill="white" stroke="black" points="238,-105.017 238,-124.017 318,-124.017 318,-105.017 238,-105.017"/>
<text text-anchor="middle" x="278" y="-112.017" font-family="Helvetica,sans-Serif" font-size="10.00">Point::beAlone</text>
</a>
</g>
</g>
<!-- Node3&#45;&gt;Node4 -->
<g id="edge3" class="edge"><title>Node3&#45;&gt;Node4</title>
<path fill="none" stroke="midnightblue" d="M171.68,-67.1038C188.645,-76.7814 213.84,-90.9337 224,-95.5172 228.497,-97.5459 233.28,-99.5132 238.063,-101.364"/>
<polygon fill="midnightblue" stroke="midnightblue" points="237.194,-104.775 247.786,-104.984 239.635,-98.215 237.194,-104.775"/>
</g>
<!-- Node5 -->
<g id="node5" class="node"><title>Node5</title>
<g id="a_node5"><a xlink:href="class_point.html#a6cd48f7546776ab3d245ba3ecaea1112" target="_top" xlink:title="Point::changed">
<polygon fill="white" stroke="black" points="237,-67.0172 237,-86.0172 319,-86.0172 319,-67.0172 237,-67.0172"/>
<text text-anchor="middle" x="278" y="-74.0172" font-family="Helvetica,sans-Serif" font-size="10.00">Point::changed</text>
</a>
</g>
</g>
<!-- Node3&#45;&gt;Node5 -->
<g id="edge4" class="edge"><title>Node3&#45;&gt;Node5</title>
<path fill="none" stroke="midnightblue" d="M184.222,-62.0682C197.052,-64.0663 212.484,-66.4696 227.047,-68.7376"/>
<polygon fill="midnightblue" stroke="midnightblue" points="226.528,-72.1989 236.947,-70.2795 227.605,-65.2822 226.528,-72.1989"/>
</g>
<!-- Node6 -->
<g id="node6" class="node"><title>Node6</title>
<g id="a_node6"><a xlink:href="class_point.html#aa346b22aa03d377bfc90b5b1e11f074c" target="_top" xlink:title="Point::friendChanged">
<polygon fill="white" stroke="black" points="224,-29.0172 224,-48.0172 332,-48.0172 332,-29.0172 224,-29.0172"/>
<text text-anchor="middle" x="278" y="-36.0172" font-family="Helvetica,sans-Serif" font-size="10.00">Point::friendChanged</text>
</a>
</g>
</g>
<!-- Node3&#45;&gt;Node6 -->
<g id="edge5" class="edge"><title>Node3&#45;&gt;Node6</title>
<path fill="none" stroke="midnightblue" d="M184.222,-52.9662C193.197,-51.5685 203.445,-49.9725 213.778,-48.3633"/>
<polygon fill="midnightblue" stroke="midnightblue" points="214.33,-51.8196 223.672,-46.8224 213.253,-44.903 214.33,-51.8196"/>
</g>
<!-- Node11 -->
<g id="node11" class="node"><title>Node11</title>
<g id="a_node11"><a xlink:href="class_point.html#a04ce786cebfd535bc380833a71405930" target="_top" xlink:title="Point::absolute">
<polygon fill="white" stroke="black" points="502,-1.01721 502,-20.0172 584,-20.0172 584,-1.01721 502,-1.01721"/>
<text text-anchor="middle" x="543" y="-8.01721" font-family="Helvetica,sans-Serif" font-size="10.00">Point::absolute</text>
</a>
</g>
</g>
<!-- Node3&#45;&gt;Node11 -->
<g id="edge13" class="edge"><title>Node3&#45;&gt;Node11</title>
<path fill="none" stroke="midnightblue" d="M167.925,-47.919C181.213,-38.6725 202.888,-25.2659 224,-19.5172 315.874,5.49923 428.226,0.902966 491.807,-4.76656"/>
<polygon fill="midnightblue" stroke="midnightblue" points="491.677,-8.26966 501.96,-5.71849 492.331,-1.30022 491.677,-8.26966"/>
</g>
<!-- Node7 -->
<g id="node7" class="node"><title>Node7</title>
<g id="a_node7"><a xlink:href="class_point.html#ab536377f38dbf8fd36875838648a1825" target="_top" xlink:title="Point::setAbsolute">
<polygon fill="white" stroke="black" points="368.5,-29.0172 368.5,-48.0172 465.5,-48.0172 465.5,-29.0172 368.5,-29.0172"/>
<text text-anchor="middle" x="417" y="-36.0172" font-family="Helvetica,sans-Serif" font-size="10.00">Point::setAbsolute</text>
</a>
</g>
</g>
<!-- Node6&#45;&gt;Node7 -->
<g id="edge6" class="edge"><title>Node6&#45;&gt;Node7</title>
<path fill="none" stroke="midnightblue" d="M332.36,-38.5172C340.799,-38.5172 349.562,-38.5172 358.099,-38.5172"/>
<polygon fill="midnightblue" stroke="midnightblue" points="358.363,-42.0173 368.363,-38.5172 358.363,-35.0173 358.363,-42.0173"/>
</g>
<!-- Node8 -->
<g id="node8" class="node"><title>Node8</title>
<g id="a_node8"><a xlink:href="class_point.html#a43923c490fb5439d7d8a041e86520c34" target="_top" xlink:title="permet la modification des valeurs du point. ">
<polygon fill="white" stroke="black" points="513.5,-62.0172 513.5,-81.0172 572.5,-81.0172 572.5,-62.0172 513.5,-62.0172"/>
<text text-anchor="middle" x="543" y="-69.0172" font-family="Helvetica,sans-Serif" font-size="10.00">Point::set</text>
</a>
</g>
</g>
<!-- Node6&#45;&gt;Node8 -->
<g id="edge12" class="edge"><title>Node6&#45;&gt;Node8</title>
<path fill="none" stroke="midnightblue" d="M318.232,-48.043C333.663,-51.4872 351.585,-55.1151 368,-57.5172 414.062,-64.2578 467.494,-67.9498 502.867,-69.8249"/>
<polygon fill="midnightblue" stroke="midnightblue" points="503.073,-73.3397 513.237,-70.3498 503.427,-66.3486 503.073,-73.3397"/>
</g>
<!-- Node7&#45;&gt;Node8 -->
<g id="edge7" class="edge"><title>Node7&#45;&gt;Node8</title>
<path fill="none" stroke="midnightblue" d="M453.866,-48.0622C469.356,-52.1845 487.51,-57.0159 503.303,-61.2189"/>
<polygon fill="midnightblue" stroke="midnightblue" points="502.725,-64.6868 513.289,-63.8764 504.526,-57.9223 502.725,-64.6868"/>
</g>
<!-- Node7&#45;&gt;Node11 -->
<g id="edge10" class="edge"><title>Node7&#45;&gt;Node11</title>
<path fill="none" stroke="midnightblue" d="M460.327,-28.9595C470.535,-26.6544 481.537,-24.1701 492.058,-21.7945"/>
<polygon fill="midnightblue" stroke="midnightblue" points="492.971,-25.1764 501.955,-19.5597 491.429,-18.3483 492.971,-25.1764"/>
</g>
<!-- Node9 -->
<g id="node9" class="node"><title>Node9</title>
<g id="a_node9"><a xlink:href="class_point.html#a2aa897aa68c2f3e6df3a46738f27a0ac" target="_top" xlink:title="recupere la valeur de l&#39;absisse du Point. ">
<polygon fill="white" stroke="black" points="620,-81.0172 620,-100.017 670,-100.017 670,-81.0172 620,-81.0172"/>
<text text-anchor="middle" x="645" y="-88.0172" font-family="Helvetica,sans-Serif" font-size="10.00">Point::x</text>
</a>
</g>
</g>
<!-- Node8&#45;&gt;Node9 -->
<g id="edge8" class="edge"><title>Node8&#45;&gt;Node9</title>
<path fill="none" stroke="midnightblue" d="M572.656,-76.9618C584.173,-79.15 597.549,-81.6916 609.587,-83.9787"/>
<polygon fill="midnightblue" stroke="midnightblue" points="609.262,-87.4796 619.74,-85.9078 610.569,-80.6026 609.262,-87.4796"/>
</g>
<!-- Node10 -->
<g id="node10" class="node"><title>Node10</title>
<g id="a_node10"><a xlink:href="class_point.html#a2226d8a3fb283b0b3c1f69106df144ba" target="_top" xlink:title="Fonction recuperant le valeur de l&#39;ordonée. ">
<polygon fill="white" stroke="black" points="620,-43.0172 620,-62.0172 670,-62.0172 670,-43.0172 620,-43.0172"/>
<text text-anchor="middle" x="645" y="-50.0172" font-family="Helvetica,sans-Serif" font-size="10.00">Point::y</text>
</a>
</g>
</g>
<!-- Node8&#45;&gt;Node10 -->
<g id="edge9" class="edge"><title>Node8&#45;&gt;Node10</title>
<path fill="none" stroke="midnightblue" d="M572.656,-66.0726C584.173,-63.8844 597.549,-61.3428 609.587,-59.0557"/>
<polygon fill="midnightblue" stroke="midnightblue" points="610.569,-62.4318 619.74,-57.1266 609.262,-55.5548 610.569,-62.4318"/>
</g>
<!-- Node11&#45;&gt;Node11 -->
<g id="edge11" class="edge"><title>Node11&#45;&gt;Node11</title>
<path fill="none" stroke="midnightblue" d="M527.279,-20.2743C519.631,-29.0825 524.871,-38.5172 543,-38.5172 554.331,-38.5172 560.627,-34.8318 561.888,-29.9172"/>
<polygon fill="midnightblue" stroke="midnightblue" points="565.167,-28.683 558.721,-20.2743 558.516,-30.8671 565.167,-28.683"/>
</g>
</g>
</svg>
        <g id="navigator" transform="translate(0 0)" fill="#404254">
                <rect fill="#f2f5e9" fill-opacity="0.5" stroke="#606060" stroke-width=".5" x="0" y="0" width="60" height="60"/>
                <use id="zoomplus" xlink:href="#zoomPlus" x="17" y="9" onmousedown="handleZoom(evt,'in')"/>
                <use id="zoomminus" xlink:href="#zoomMin" x="42" y="9" onmousedown="handleZoom(evt,'out')"/>
                <use id="reset" xlink:href="#resetDef" x="30" y="36" onmousedown="handleReset()"/>
                <g id="arrowUp" xlink:href="#dirArrow" transform="translate(30 24)" onmousedown="handlePan(0,-1)">
                  <use xlink:href="#rim" fill="#404040">
                        <set attributeName="fill" to="#808080" begin="arrowUp.mouseover" end="arrowUp.mouseout"/>
                  </use>
                  <path fill="none" stroke="white" stroke-width="1.5" d="M0,-3.0v7 M-2.5,-0.5L0,-3.0L2.5,-0.5"/>
                </g>
                <g id="arrowRight" xlink:href="#dirArrow" transform="rotate(90) translate(36 -43)" onmousedown="handlePan(1,0)">
                  <use xlink:href="#rim" fill="#404040">
                        <set attributeName="fill" to="#808080" begin="arrowRight.mouseover" end="arrowRight.mouseout"/>
                  </use>
                  <path fill="none" stroke="white" stroke-width="1.5" d="M0,-3.0v7 M-2.5,-0.5L0,-3.0L2.5,-0.5"/>
                </g>
                <g id="arrowDown" xlink:href="#dirArrow" transform="rotate(180) translate(-30 -48)" onmousedown="handlePan(0,1)">
                  <use xlink:href="#rim" fill="#404040">
                        <set attributeName="fill" to="#808080" begin="arrowDown.mouseover" end="arrowDown.mouseout"/>
                  </use>
                  <path fill="none" stroke="white" stroke-width="1.5" d="M0,-3.0v7 M-2.5,-0.5L0,-3.0L2.5,-0.5"/>
                </g>
                <g id="arrowLeft" xlink:href="#dirArrow" transform="rotate(270) translate(-36 17)" onmousedown="handlePan(-1,0)">
                  <use xlink:href="#rim" fill="#404040">
                        <set attributeName="fill" to="#808080" begin="arrowLeft.mouseover" end="arrowLeft.mouseout"/>
                  </use>
                  <path fill="none" stroke="white" stroke-width="1.5" d="M0,-3.0v7 M-2.5,-0.5L0,-3.0L2.5,-0.5"/>
                </g>
        </g>
        <svg viewBox="0 0 15 15" width="100%" height="30px" preserveAspectRatio="xMaxYMin meet">
         <g id="arrow_out" transform="scale(0.3 0.3)">
          <a xlink:href="class_point_a124214ff8c077246f7d6d58b07dc063b_cgraph_org.svg" target="_base">
           <rect id="button" ry="5" rx="5" y="6" x="6" height="38" width="38"
                fill="#f2f5e9" fill-opacity="0.5" stroke="#606060" stroke-width="1.0"/>
           <path id="arrow"
             d="M 11.500037,31.436501 C 11.940474,20.09759 22.043105,11.32322 32.158766,21.979434 L 37.068811,17.246167 C 37.068811,17.246167 37.088388,32 37.088388,32 L 22.160133,31.978069 C 22.160133,31.978069 26.997745,27.140456 26.997745,27.140456 C 18.528582,18.264221 13.291696,25.230495 11.500037,31.436501 z"
             style="fill:#404040;"/>
          </a>
         </g>
        </svg>
</svg>
