<?xml version="1.0" encoding="UTF-8" standalone="no"?>
<!DOCTYPE svg PUBLIC "-//W3C//DTD SVG 1.1//EN"
 "http://www.w3.org/Graphics/SVG/1.1/DTD/svg11.dtd">
<!-- Generated by graphviz version 2.36.0 (20140111.2315)
 -->
<!-- Title: MainWindow Pages: 1 -->
<svg width="108pt" height="498pt"
 viewBox="0.00 0.00 108.00 498.00" xmlns="http://www.w3.org/2000/svg" xmlns:xlink="http://www.w3.org/1999/xlink">
<g id="graph0" class="graph" transform="scale(1 1) rotate(0) translate(4 494)">
<title>MainWindow</title>
<polygon fill="white" stroke="none" points="-4,4 -4,-494 104,-494 104,4 -4,4"/>
<!-- Node1 -->
<g id="node1" class="node"><title>Node1</title>
<polygon fill="#bfbfbf" stroke="black" points="-1,-1 -1,-113 101,-113 101,-1 -1,-1"/>
<text text-anchor="middle" x="50" y="-101" font-family="Helvetica,sans-Serif" font-size="10.00">MainWindow</text>
<polyline fill="none" stroke="black" points="-1,-94 101,-94 "/>
<text text-anchor="middle" x="50" y="-82" font-family="Helvetica,sans-Serif" font-size="10.00"> </text>
<polyline fill="none" stroke="black" points="-1,-75 101,-75 "/>
<text text-anchor="start" x="7" y="-63" font-family="Helvetica,sans-Serif" font-size="10.00">+ MainWindow()</text>
<text text-anchor="start" x="7" y="-52" font-family="Helvetica,sans-Serif" font-size="10.00"># drawEvent()</text>
<text text-anchor="start" x="7" y="-41" font-family="Helvetica,sans-Serif" font-size="10.00"># resizeEvent()</text>
<text text-anchor="start" x="7" y="-30" font-family="Helvetica,sans-Serif" font-size="10.00"># updateEvent()</text>
<text text-anchor="start" x="7" y="-19" font-family="Helvetica,sans-Serif" font-size="10.00"># handleEvent()</text>
<text text-anchor="start" x="7" y="-8" font-family="Helvetica,sans-Serif" font-size="10.00"># createRectangle()</text>
</g>
<!-- Node2 -->
<g id="node2" class="node"><title>Node2</title>
<g id="a_node2"><a xlink:href="class_window.html" target="_top" xlink:title="Représente une fenêtre. ">
<polygon fill="white" stroke="black" points="-1,-151 -1,-395 101,-395 101,-151 -1,-151"/>
<text text-anchor="middle" x="50" y="-383" font-family="Helvetica,sans-Serif" font-size="10.00">Window</text>
<polyline fill="none" stroke="black" points="-1,-376 101,-376 "/>
<text text-anchor="middle" x="50" y="-364" font-family="Helvetica,sans-Serif" font-size="10.00"> </text>
<polyline fill="none" stroke="black" points="-1,-357 101,-357 "/>
<text text-anchor="start" x="7" y="-345" font-family="Helvetica,sans-Serif" font-size="10.00">+ Window()</text>
<text text-anchor="start" x="7" y="-334" font-family="Helvetica,sans-Serif" font-size="10.00">+ ~Window()</text>
<text text-anchor="start" x="7" y="-323" font-family="Helvetica,sans-Serif" font-size="10.00">+ doubleBuffer()</text>
<text text-anchor="start" x="7" y="-312" font-family="Helvetica,sans-Serif" font-size="10.00">+ setDoubleBuffer()</text>
<text text-anchor="start" x="7" y="-301" font-family="Helvetica,sans-Serif" font-size="10.00">+ width()</text>
<text text-anchor="start" x="7" y="-290" font-family="Helvetica,sans-Serif" font-size="10.00">+ setWidth()</text>
<text text-anchor="start" x="7" y="-279" font-family="Helvetica,sans-Serif" font-size="10.00">+ height()</text>
<text text-anchor="start" x="7" y="-268" font-family="Helvetica,sans-Serif" font-size="10.00">+ setHeight()</text>
<text text-anchor="start" x="7" y="-257" font-family="Helvetica,sans-Serif" font-size="10.00">+ resize()</text>
<text text-anchor="start" x="7" y="-246" font-family="Helvetica,sans-Serif" font-size="10.00">+ isVisible()</text>
<text text-anchor="start" x="7" y="-235" font-family="Helvetica,sans-Serif" font-size="10.00">+ setVisible()</text>
<text text-anchor="start" x="7" y="-224" font-family="Helvetica,sans-Serif" font-size="10.00">+ drawRequest()</text>
<text text-anchor="start" x="7" y="-213" font-family="Helvetica,sans-Serif" font-size="10.00">+ canvas()</text>
<text text-anchor="start" x="7" y="-202" font-family="Helvetica,sans-Serif" font-size="10.00"># drawEvent()</text>
<text text-anchor="start" x="7" y="-191" font-family="Helvetica,sans-Serif" font-size="10.00"># resizeEvent()</text>
<text text-anchor="start" x="7" y="-180" font-family="Helvetica,sans-Serif" font-size="10.00"># closeEvent()</text>
<text text-anchor="start" x="7" y="-169" font-family="Helvetica,sans-Serif" font-size="10.00"># handleEvent()</text>
<text text-anchor="start" x="7" y="-158" font-family="Helvetica,sans-Serif" font-size="10.00"># updateEvent()</text>
</a>
</g>
</g>
<!-- Node2&#45;&gt;Node1 -->
<g id="edge1" class="edge"><title>Node2&#45;&gt;Node1</title>
<path fill="none" stroke="midnightblue" d="M50,-140.834C50,-131.228 50,-121.896 50,-113.171"/>
<polygon fill="none" stroke="midnightblue" points="46.5001,-140.93 50,-150.93 53.5001,-140.93 46.5001,-140.93"/>
</g>
<!-- Node3 -->
<g id="node3" class="node"><title>Node3</title>
<polygon fill="white" stroke="#bfbfbf" points="17.5,-432.5 17.5,-489.5 82.5,-489.5 82.5,-432.5 17.5,-432.5"/>
<text text-anchor="middle" x="50" y="-477.5" font-family="Helvetica,sans-Serif" font-size="10.00">EZWindow</text>
<polyline fill="none" stroke="#bfbfbf" points="17.5,-470.5 82.5,-470.5 "/>
<text text-anchor="middle" x="50" y="-458.5" font-family="Helvetica,sans-Serif" font-size="10.00"> </text>
<polyline fill="none" stroke="#bfbfbf" points="17.5,-451.5 82.5,-451.5 "/>
<text text-anchor="middle" x="50" y="-439.5" font-family="Helvetica,sans-Serif" font-size="10.00"> </text>
</g>
<!-- Node3&#45;&gt;Node2 -->
<g id="edge2" class="edge"><title>Node3&#45;&gt;Node2</title>
<path fill="none" stroke="#8b1a1a" d="M50,-421.933C50,-413.741 50,-404.663 50,-395.15"/>
<polygon fill="none" stroke="#8b1a1a" points="46.5001,-422.154 50,-432.154 53.5001,-422.154 46.5001,-422.154"/>
</g>
</g>
</svg>
