<?xml version="1.0" encoding="UTF-8" standalone="no"?>
<!DOCTYPE svg PUBLIC "-//W3C//DTD SVG 1.1//EN"
 "http://www.w3.org/Graphics/SVG/1.1/DTD/svg11.dtd">
<!-- Generated by graphviz version 2.36.0 (20140111.2315)
 -->
<!-- Title: GraphicsItem::meIsOver Pages: 1 -->
<svg width="620pt" height="66pt"
 viewBox="0.00 0.00 620.00 66.00" xmlns="http://www.w3.org/2000/svg" xmlns:xlink="http://www.w3.org/1999/xlink">
<g id="graph0" class="graph" transform="scale(1 1) rotate(0) translate(4 62)">
<title>GraphicsItem::meIsOver</title>
<polygon fill="white" stroke="none" points="-4,4 -4,-62 616,-62 616,4 -4,4"/>
<!-- Node1 -->
<g id="node1" class="node"><title>Node1</title>
<polygon fill="#bfbfbf" stroke="black" points="0,-19.5 0,-38.5 124,-38.5 124,-19.5 0,-19.5"/>
<text text-anchor="middle" x="62" y="-26.5" font-family="Helvetica,sans-Serif" font-size="10.00">GraphicsItem::meIsOver</text>
</g>
<!-- Node2 -->
<g id="node2" class="node"><title>Node2</title>
<g id="a_node2"><a xlink:href="class_graphics_item.html#a853ecc7b1940b8bce18600a3f3d6cda7" target="_top" xlink:title="GraphicsItem::isOver">
<polygon fill="white" stroke="black" points="160,-19.5 160,-38.5 270,-38.5 270,-19.5 160,-19.5"/>
<text text-anchor="middle" x="215" y="-26.5" font-family="Helvetica,sans-Serif" font-size="10.00">GraphicsItem::isOver</text>
</a>
</g>
</g>
<!-- Node1&#45;&gt;Node2 -->
<g id="edge1" class="edge"><title>Node1&#45;&gt;Node2</title>
<path fill="none" stroke="midnightblue" d="M134.424,-29C142.997,-29 151.642,-29 159.912,-29"/>
<polygon fill="midnightblue" stroke="midnightblue" points="134.418,-25.5001 124.417,-29 134.417,-32.5001 134.418,-25.5001"/>
</g>
<!-- Node3 -->
<g id="node3" class="node"><title>Node3</title>
<g id="a_node3"><a xlink:href="class_button.html#ac8d84bc467ce5a7ac5791df121fe32dd" target="_top" xlink:title="Button::meHandleEvent">
<polygon fill="white" stroke="black" points="313.5,-38.5 313.5,-57.5 434.5,-57.5 434.5,-38.5 313.5,-38.5"/>
<text text-anchor="middle" x="374" y="-45.5" font-family="Helvetica,sans-Serif" font-size="10.00">Button::meHandleEvent</text>
</a>
</g>
</g>
<!-- Node2&#45;&gt;Node3 -->
<g id="edge2" class="edge"><title>Node2&#45;&gt;Node3</title>
<path fill="none" stroke="midnightblue" d="M280.049,-36.7511C291.107,-38.0894 302.562,-39.4757 313.495,-40.7987"/>
<polygon fill="midnightblue" stroke="midnightblue" points="280.379,-33.2656 270.03,-35.5387 279.538,-40.2149 280.379,-33.2656"/>
</g>
<!-- Node4 -->
<g id="node4" class="node"><title>Node4</title>
<g id="a_node4"><a xlink:href="class_graphics_item.html#ad6c62fa07246bc1d7b9eae6340a246e2" target="_top" xlink:title="GraphicsItem::handleEvent">
<polygon fill="white" stroke="black" points="306.5,-0.5 306.5,-19.5 441.5,-19.5 441.5,-0.5 306.5,-0.5"/>
<text text-anchor="middle" x="374" y="-7.5" font-family="Helvetica,sans-Serif" font-size="10.00">GraphicsItem::handleEvent</text>
</a>
</g>
</g>
<!-- Node2&#45;&gt;Node4 -->
<g id="edge3" class="edge"><title>Node2&#45;&gt;Node4</title>
<path fill="none" stroke="midnightblue" d="M280.074,-21.2458C288.748,-20.1961 297.665,-19.1169 306.382,-18.062"/>
<polygon fill="midnightblue" stroke="midnightblue" points="279.538,-17.7851 270.03,-22.4613 280.379,-24.7344 279.538,-17.7851"/>
</g>
<!-- Node5 -->
<g id="node5" class="node"><title>Node5</title>
<g id="a_node5"><a xlink:href="class_main_window.html#a0c74824ef8e6256455545f2659610b31" target="_top" xlink:title="MainWindow::handleEvent">
<polygon fill="white" stroke="black" points="478.5,-0.5 478.5,-19.5 611.5,-19.5 611.5,-0.5 478.5,-0.5"/>
<text text-anchor="middle" x="545" y="-7.5" font-family="Helvetica,sans-Serif" font-size="10.00">MainWindow::handleEvent</text>
</a>
</g>
</g>
<!-- Node4&#45;&gt;Node5 -->
<g id="edge4" class="edge"><title>Node4&#45;&gt;Node5</title>
<path fill="none" stroke="midnightblue" d="M452.009,-10C460.773,-10 469.645,-10 478.244,-10"/>
<polygon fill="midnightblue" stroke="midnightblue" points="451.793,-6.5001 441.793,-10 451.793,-13.5001 451.793,-6.5001"/>
</g>
</g>
</svg>
