<?xml version="1.0" encoding="UTF-8" standalone="no"?>
<!DOCTYPE svg PUBLIC "-//W3C//DTD SVG 1.1//EN"
 "http://www.w3.org/Graphics/SVG/1.1/DTD/svg11.dtd">
<!-- Generated by graphviz version 2.36.0 (20140111.2315)
 -->
<!-- Title: Point::setAbsolute Pages: 1 -->
<!--zoomable 134 -->
<svg id="main" version="1.1" xmlns="http://www.w3.org/2000/svg" xmlns:xlink="http://www.w3.org/1999/xlink" xml:space="preserve" onload="init(evt)">
<style type="text/css"><![CDATA[
.edge:hover path { stroke: red; }
.edge:hover polygon { stroke: red; fill: red; }
]]></style>
<script type="text/javascript"><![CDATA[
var edges = document.getElementsByTagName('g');
if (edges && edges.length) {
  for (var i=0;i<edges.length;i++) {
    if (edges[i].id.substr(0,4)=='edge') {
      edges[i].setAttribute('class','edge');
    }
  }
}
]]></script>
        <defs>
                <circle id="rim" cx="0" cy="0" r="7"/>
                <circle id="rim2" cx="0" cy="0" r="3.5"/>
                <g id="zoomPlus">
                        <use xlink:href="#rim" fill="#404040">
                                <set attributeName="fill" to="#808080" begin="zoomplus.mouseover" end="zoomplus.mouseout"/>
                        </use>
                        <path d="M-4,0h8M0,-4v8" fill="none" stroke="white" stroke-width="1.5" pointer-events="none"/>
                </g>
                <g id="zoomMin">
                        <use xlink:href="#rim" fill="#404040">
                                <set attributeName="fill" to="#808080" begin="zoomminus.mouseover" end="zoomminus.mouseout"/>
                        </use>
                        <path d="M-4,0h8" fill="none" stroke="white" stroke-width="1.5" pointer-events="none"/>
                </g>
                <g id="dirArrow">
                        <path fill="none" stroke="white" stroke-width="1.5" d="M0,-3.0v7 M-2.5,-0.5L0,-3.0L2.5,-0.5"/>
                </g>
               <g id="resetDef">
                       <use xlink:href="#rim2" fill="#404040">
                               <set attributeName="fill" to="#808080" begin="reset.mouseover" end="reset.mouseout"/>
                       </use>
               </g>
        </defs>

<script type="text/javascript">
var viewWidth = 648;
var viewHeight = 134;
var sectionId = 'dynsection-13';
</script>
<script xlink:href="svgpan.js"/>
<svg id="graph" class="graph">
<g id="viewport">
<title>Point::setAbsolute</title>
<polygon fill="white" stroke="none" points="-4,4 -4,-130 644,-130 644,4 -4,4"/>
<!-- Node1 -->
<g id="node1" class="node"><title>Node1</title>
<polygon fill="#bfbfbf" stroke="black" points="0.5,-68.5 0.5,-87.5 97.5,-87.5 97.5,-68.5 0.5,-68.5"/>
<text text-anchor="middle" x="49" y="-75.5" font-family="Helvetica,sans-Serif" font-size="10.00">Point::setAbsolute</text>
</g>
<!-- Node2 -->
<g id="node2" class="node"><title>Node2</title>
<g id="a_node2"><a xlink:href="class_graphics_item.html#a53a0964502bdc810a0684c9bb9b08f86" target="_top" xlink:title="GraphicsItem::setAbsolute">
<polygon fill="white" stroke="black" points="134.5,-106.5 134.5,-125.5 267.5,-125.5 267.5,-106.5 134.5,-106.5"/>
<text text-anchor="middle" x="201" y="-113.5" font-family="Helvetica,sans-Serif" font-size="10.00">GraphicsItem::setAbsolute</text>
</a>
</g>
</g>
<!-- Node1&#45;&gt;Node2 -->
<g id="edge1" class="edge"><title>Node1&#45;&gt;Node2</title>
<path fill="none" stroke="midnightblue" d="M97.811,-90.1121C118.702,-95.4044 142.847,-101.521 162.421,-106.48"/>
<polygon fill="midnightblue" stroke="midnightblue" points="98.4047,-86.652 87.8513,-87.589 96.6856,-93.4377 98.4047,-86.652"/>
</g>
<!-- Node4 -->
<g id="node4" class="node"><title>Node4</title>
<g id="a_node4"><a xlink:href="class_point.html#ac5f7b13934e6e617bd656b8bcf17c3cf" target="_top" xlink:title="Point::setAbsolute">
<polygon fill="white" stroke="black" points="152.5,-68.5 152.5,-87.5 249.5,-87.5 249.5,-68.5 152.5,-68.5"/>
<text text-anchor="middle" x="201" y="-75.5" font-family="Helvetica,sans-Serif" font-size="10.00">Point::setAbsolute</text>
</a>
</g>
</g>
<!-- Node1&#45;&gt;Node4 -->
<g id="edge3" class="edge"><title>Node1&#45;&gt;Node4</title>
<path fill="none" stroke="midnightblue" d="M108.296,-78C122.871,-78 138.332,-78 152.324,-78"/>
<polygon fill="midnightblue" stroke="midnightblue" points="107.873,-74.5001 97.8734,-78 107.873,-81.5001 107.873,-74.5001"/>
</g>
<!-- Node5 -->
<g id="node5" class="node"><title>Node5</title>
<g id="a_node5"><a xlink:href="class_point.html#a01845c4f4d50ea06ae0d659acdfd44a7" target="_top" xlink:title="Point::setParent">
<polygon fill="white" stroke="black" points="157.5,-30.5 157.5,-49.5 244.5,-49.5 244.5,-30.5 157.5,-30.5"/>
<text text-anchor="middle" x="201" y="-37.5" font-family="Helvetica,sans-Serif" font-size="10.00">Point::setParent</text>
</a>
</g>
</g>
<!-- Node1&#45;&gt;Node5 -->
<g id="edge4" class="edge"><title>Node1&#45;&gt;Node5</title>
<path fill="none" stroke="midnightblue" d="M97.811,-65.8879C118.702,-60.5956 142.847,-54.4787 162.421,-49.5201"/>
<polygon fill="midnightblue" stroke="midnightblue" points="96.6856,-62.5623 87.8513,-68.411 98.4047,-69.348 96.6856,-62.5623"/>
</g>
<!-- Node3 -->
<g id="node3" class="node"><title>Node3</title>
<g id="a_node3"><a xlink:href="class_graphics_point.html#aaceb83d2bd068629dccfde4aee9c60f5" target="_top" xlink:title="GraphicsPoint::meHandleEvent">
<polygon fill="white" stroke="black" points="304,-106.5 304,-125.5 458,-125.5 458,-106.5 304,-106.5"/>
<text text-anchor="middle" x="381" y="-113.5" font-family="Helvetica,sans-Serif" font-size="10.00">GraphicsPoint::meHandleEvent</text>
</a>
</g>
</g>
<!-- Node2&#45;&gt;Node3 -->
<g id="edge2" class="edge"><title>Node2&#45;&gt;Node3</title>
<path fill="none" stroke="midnightblue" d="M277.596,-116C286.262,-116 295.102,-116 303.776,-116"/>
<polygon fill="midnightblue" stroke="midnightblue" points="277.522,-112.5 267.522,-116 277.522,-119.5 277.522,-112.5"/>
</g>
<!-- Node6 -->
<g id="node6" class="node"><title>Node6</title>
<g id="a_node6"><a xlink:href="class_graphics_item.html#a8bcbe86ba1854edffd7fbed0b4bc8cd5" target="_top" xlink:title="GraphicsItem::setParent">
<polygon fill="white" stroke="black" points="319.5,-49.5 319.5,-68.5 442.5,-68.5 442.5,-49.5 319.5,-49.5"/>
<text text-anchor="middle" x="381" y="-56.5" font-family="Helvetica,sans-Serif" font-size="10.00">GraphicsItem::setParent</text>
</a>
</g>
</g>
<!-- Node5&#45;&gt;Node6 -->
<g id="edge5" class="edge"><title>Node5&#45;&gt;Node6</title>
<path fill="none" stroke="midnightblue" d="M254.625,-45.6173C274.899,-47.7814 298.215,-50.2701 319.199,-52.51"/>
<polygon fill="midnightblue" stroke="midnightblue" points="254.95,-42.1322 244.635,-44.551 254.207,-49.0927 254.95,-42.1322"/>
</g>
<!-- Node8 -->
<g id="node8" class="node"><title>Node8</title>
<g id="a_node8"><a xlink:href="class_graphics_rectangle.html#a4a5a09ece70c878e36694e3d07ed513f" target="_top" xlink:title="Constructeur par default de la classe GraphicsRectangle. ">
<polygon fill="white" stroke="black" points="328,-0 328,-30 434,-30 434,-0 328,-0"/>
<text text-anchor="start" x="336" y="-18" font-family="Helvetica,sans-Serif" font-size="10.00">GraphicsRectangle::</text>
<text text-anchor="middle" x="381" y="-7" font-family="Helvetica,sans-Serif" font-size="10.00">GraphicsRectangle</text>
</a>
</g>
</g>
<!-- Node5&#45;&gt;Node8 -->
<g id="edge7" class="edge"><title>Node5&#45;&gt;Node8</title>
<path fill="none" stroke="midnightblue" d="M254.612,-32.6106C277.729,-29.364 304.802,-25.5616 327.863,-22.3226"/>
<polygon fill="midnightblue" stroke="midnightblue" points="254.051,-29.155 244.635,-34.0119 255.025,-36.0869 254.051,-29.155"/>
</g>
<!-- Node7 -->
<g id="node7" class="node"><title>Node7</title>
<g id="a_node7"><a xlink:href="class_graphics_item.html#ad76d7190cfa332054ae66d505fb37bb1" target="_top" xlink:title="GraphicsItem::~GraphicsItem">
<polygon fill="white" stroke="black" points="494,-49.5 494,-68.5 640,-68.5 640,-49.5 494,-49.5"/>
<text text-anchor="middle" x="567" y="-56.5" font-family="Helvetica,sans-Serif" font-size="10.00">GraphicsItem::~GraphicsItem</text>
</a>
</g>
</g>
<!-- Node6&#45;&gt;Node7 -->
<g id="edge6" class="edge"><title>Node6&#45;&gt;Node7</title>
<path fill="none" stroke="midnightblue" d="M452.693,-59C466.21,-59 480.376,-59 493.936,-59"/>
<polygon fill="midnightblue" stroke="midnightblue" points="452.503,-55.5001 442.503,-59 452.503,-62.5001 452.503,-55.5001"/>
</g>
</g>
</svg>
        <g id="navigator" transform="translate(0 0)" fill="#404254">
                <rect fill="#f2f5e9" fill-opacity="0.5" stroke="#606060" stroke-width=".5" x="0" y="0" width="60" height="60"/>
                <use id="zoomplus" xlink:href="#zoomPlus" x="17" y="9" onmousedown="handleZoom(evt,'in')"/>
                <use id="zoomminus" xlink:href="#zoomMin" x="42" y="9" onmousedown="handleZoom(evt,'out')"/>
                <use id="reset" xlink:href="#resetDef" x="30" y="36" onmousedown="handleReset()"/>
                <g id="arrowUp" xlink:href="#dirArrow" transform="translate(30 24)" onmousedown="handlePan(0,-1)">
                  <use xlink:href="#rim" fill="#404040">
                        <set attributeName="fill" to="#808080" begin="arrowUp.mouseover" end="arrowUp.mouseout"/>
                  </use>
                  <path fill="none" stroke="white" stroke-width="1.5" d="M0,-3.0v7 M-2.5,-0.5L0,-3.0L2.5,-0.5"/>
                </g>
                <g id="arrowRight" xlink:href="#dirArrow" transform="rotate(90) translate(36 -43)" onmousedown="handlePan(1,0)">
                  <use xlink:href="#rim" fill="#404040">
                        <set attributeName="fill" to="#808080" begin="arrowRight.mouseover" end="arrowRight.mouseout"/>
                  </use>
                  <path fill="none" stroke="white" stroke-width="1.5" d="M0,-3.0v7 M-2.5,-0.5L0,-3.0L2.5,-0.5"/>
                </g>
                <g id="arrowDown" xlink:href="#dirArrow" transform="rotate(180) translate(-30 -48)" onmousedown="handlePan(0,1)">
                  <use xlink:href="#rim" fill="#404040">
                        <set attributeName="fill" to="#808080" begin="arrowDown.mouseover" end="arrowDown.mouseout"/>
                  </use>
                  <path fill="none" stroke="white" stroke-width="1.5" d="M0,-3.0v7 M-2.5,-0.5L0,-3.0L2.5,-0.5"/>
                </g>
                <g id="arrowLeft" xlink:href="#dirArrow" transform="rotate(270) translate(-36 17)" onmousedown="handlePan(-1,0)">
                  <use xlink:href="#rim" fill="#404040">
                        <set attributeName="fill" to="#808080" begin="arrowLeft.mouseover" end="arrowLeft.mouseout"/>
                  </use>
                  <path fill="none" stroke="white" stroke-width="1.5" d="M0,-3.0v7 M-2.5,-0.5L0,-3.0L2.5,-0.5"/>
                </g>
        </g>
        <svg viewBox="0 0 15 15" width="100%" height="30px" preserveAspectRatio="xMaxYMin meet">
         <g id="arrow_out" transform="scale(0.3 0.3)">
          <a xlink:href="class_point_ab536377f38dbf8fd36875838648a1825_icgraph_org.svg" target="_base">
           <rect id="button" ry="5" rx="5" y="6" x="6" height="38" width="38"
                fill="#f2f5e9" fill-opacity="0.5" stroke="#606060" stroke-width="1.0"/>
           <path id="arrow"
             d="M 11.500037,31.436501 C 11.940474,20.09759 22.043105,11.32322 32.158766,21.979434 L 37.068811,17.246167 C 37.068811,17.246167 37.088388,32 37.088388,32 L 22.160133,31.978069 C 22.160133,31.978069 26.997745,27.140456 26.997745,27.140456 C 18.528582,18.264221 13.291696,25.230495 11.500037,31.436501 z"
             style="fill:#404040;"/>
          </a>
         </g>
        </svg>
</svg>
