<?xml version="1.0" encoding="UTF-8" standalone="no"?>
<!DOCTYPE svg PUBLIC "-//W3C//DTD SVG 1.1//EN"
 "http://www.w3.org/Graphics/SVG/1.1/DTD/svg11.dtd">
<!-- Generated by graphviz version 2.36.0 (20140111.2315)
 -->
<!-- Title: LineEdit::meHandleEvent Pages: 1 -->
<!--zoomable 534 -->
<svg id="main" version="1.1" xmlns="http://www.w3.org/2000/svg" xmlns:xlink="http://www.w3.org/1999/xlink" xml:space="preserve" onload="init(evt)">
<style type="text/css"><![CDATA[
.edge:hover path { stroke: red; }
.edge:hover polygon { stroke: red; fill: red; }
]]></style>
<script type="text/javascript"><![CDATA[
var edges = document.getElementsByTagName('g');
if (edges && edges.length) {
  for (var i=0;i<edges.length;i++) {
    if (edges[i].id.substr(0,4)=='edge') {
      edges[i].setAttribute('class','edge');
    }
  }
}
]]></script>
        <defs>
                <circle id="rim" cx="0" cy="0" r="7"/>
                <circle id="rim2" cx="0" cy="0" r="3.5"/>
                <g id="zoomPlus">
                        <use xlink:href="#rim" fill="#404040">
                                <set attributeName="fill" to="#808080" begin="zoomplus.mouseover" end="zoomplus.mouseout"/>
                        </use>
                        <path d="M-4,0h8M0,-4v8" fill="none" stroke="white" stroke-width="1.5" pointer-events="none"/>
                </g>
                <g id="zoomMin">
                        <use xlink:href="#rim" fill="#404040">
                                <set attributeName="fill" to="#808080" begin="zoomminus.mouseover" end="zoomminus.mouseout"/>
                        </use>
                        <path d="M-4,0h8" fill="none" stroke="white" stroke-width="1.5" pointer-events="none"/>
                </g>
                <g id="dirArrow">
                        <path fill="none" stroke="white" stroke-width="1.5" d="M0,-3.0v7 M-2.5,-0.5L0,-3.0L2.5,-0.5"/>
                </g>
               <g id="resetDef">
                       <use xlink:href="#rim2" fill="#404040">
                               <set attributeName="fill" to="#808080" begin="reset.mouseover" end="reset.mouseout"/>
                       </use>
               </g>
        </defs>

<script type="text/javascript">
var viewWidth = 828;
var viewHeight = 534;
var sectionId = 'dynsection-3';
</script>
<script xlink:href="svgpan.js"/>
<svg id="graph" class="graph">
<g id="viewport">
<title>LineEdit::meHandleEvent</title>
<polygon fill="white" stroke="none" points="-4,4 -4,-530 824,-530 824,4 -4,4"/>
<!-- Node1 -->
<g id="node1" class="node"><title>Node1</title>
<polygon fill="#bfbfbf" stroke="black" points="0,-373.5 0,-392.5 128,-392.5 128,-373.5 0,-373.5"/>
<text text-anchor="middle" x="64" y="-380.5" font-family="Helvetica,sans-Serif" font-size="10.00">LineEdit::meHandleEvent</text>
</g>
<!-- Node2 -->
<g id="node2" class="node"><title>Node2</title>
<g id="a_node2"><a xlink:href="class_event.html#af0c720ee042e454bc655288e00ed1e49" target="_top" xlink:title="Event::type">
<polygon fill="white" stroke="black" points="192.5,-506.5 192.5,-525.5 259.5,-525.5 259.5,-506.5 192.5,-506.5"/>
<text text-anchor="middle" x="226" y="-513.5" font-family="Helvetica,sans-Serif" font-size="10.00">Event::type</text>
</a>
</g>
</g>
<!-- Node1&#45;&gt;Node2 -->
<g id="edge1" class="edge"><title>Node1&#45;&gt;Node2</title>
<path fill="none" stroke="midnightblue" d="M70.6379,-392.534C84.0179,-414.338 119.895,-468.177 164,-497 169.739,-500.751 176.264,-503.798 182.859,-506.263"/>
<polygon fill="midnightblue" stroke="midnightblue" points="181.896,-509.631 192.49,-509.471 184.108,-502.99 181.896,-509.631"/>
</g>
<!-- Node3 -->
<g id="node3" class="node"><title>Node3</title>
<g id="a_node3"><a xlink:href="class_graphics_item.html#a1f3b7de02ad675cd54aa46feec7de2eb" target="_top" xlink:title="GraphicsItem::hasFocus">
<polygon fill="white" stroke="black" points="164,-468.5 164,-487.5 288,-487.5 288,-468.5 164,-468.5"/>
<text text-anchor="middle" x="226" y="-475.5" font-family="Helvetica,sans-Serif" font-size="10.00">GraphicsItem::hasFocus</text>
</a>
</g>
</g>
<!-- Node1&#45;&gt;Node3 -->
<g id="edge2" class="edge"><title>Node1&#45;&gt;Node3</title>
<path fill="none" stroke="midnightblue" d="M74.8596,-392.522C91.7843,-408.393 128.029,-440.349 164,-459 168.268,-461.213 172.84,-463.221 177.489,-465.031"/>
<polygon fill="midnightblue" stroke="midnightblue" points="176.477,-468.386 187.072,-468.468 178.84,-461.797 176.477,-468.386"/>
</g>
<!-- Node4 -->
<g id="node4" class="node"><title>Node4</title>
<g id="a_node4"><a xlink:href="class_key_event.html#a91553e020f3621736e1709d27984fdc0" target="_top" xlink:title="KeyEvent::state">
<polygon fill="white" stroke="black" points="182.5,-430.5 182.5,-449.5 269.5,-449.5 269.5,-430.5 182.5,-430.5"/>
<text text-anchor="middle" x="226" y="-437.5" font-family="Helvetica,sans-Serif" font-size="10.00">KeyEvent::state</text>
</a>
</g>
</g>
<!-- Node1&#45;&gt;Node4 -->
<g id="edge3" class="edge"><title>Node1&#45;&gt;Node4</title>
<path fill="none" stroke="midnightblue" d="M88.8467,-392.65C108.801,-400.605 138.087,-412.002 164,-421 170.12,-423.125 176.623,-425.27 183.015,-427.314"/>
<polygon fill="midnightblue" stroke="midnightblue" points="182.308,-430.761 192.898,-430.427 184.411,-424.084 182.308,-430.761"/>
</g>
<!-- Node5 -->
<g id="node5" class="node"><title>Node5</title>
<g id="a_node5"><a xlink:href="class_line_edit.html#a8677c9516beb229fdb289e48c9b8dd15" target="_top" xlink:title="LineEdit::text">
<polygon fill="white" stroke="black" points="189,-392.5 189,-411.5 263,-411.5 263,-392.5 189,-392.5"/>
<text text-anchor="middle" x="226" y="-399.5" font-family="Helvetica,sans-Serif" font-size="10.00">LineEdit::text</text>
</a>
</g>
</g>
<!-- Node1&#45;&gt;Node5 -->
<g id="edge4" class="edge"><title>Node1&#45;&gt;Node5</title>
<path fill="none" stroke="midnightblue" d="M128.236,-390.509C145.146,-392.517 163.103,-394.65 178.897,-396.525"/>
<polygon fill="midnightblue" stroke="midnightblue" points="178.588,-400.013 188.931,-397.717 179.413,-393.062 178.588,-400.013"/>
</g>
<!-- Node6 -->
<g id="node6" class="node"><title>Node6</title>
<g id="a_node6"><a xlink:href="class_graphics_text.html#aeb38c8c0df9473cde331540d9904d352" target="_top" xlink:title="Recupere le contenu de GraphicsText. ">
<polygon fill="white" stroke="black" points="491,-335.5 491,-354.5 589,-354.5 589,-335.5 491,-335.5"/>
<text text-anchor="middle" x="540" y="-342.5" font-family="Helvetica,sans-Serif" font-size="10.00">GraphicsText::text</text>
</a>
</g>
</g>
<!-- Node1&#45;&gt;Node6 -->
<g id="edge6" class="edge"><title>Node1&#45;&gt;Node6</title>
<path fill="none" stroke="midnightblue" d="M128.434,-377.915C220.887,-370.503 391.346,-356.837 480.767,-349.668"/>
<polygon fill="midnightblue" stroke="midnightblue" points="481.309,-353.136 490.998,-348.848 480.75,-346.159 481.309,-353.136"/>
</g>
<!-- Node7 -->
<g id="node7" class="node"><title>Node7</title>
<g id="a_node7"><a xlink:href="class_key_event.html#a1516b65dbdf9635764288d7f35901eec" target="_top" xlink:title="KeyEvent::key">
<polygon fill="white" stroke="black" points="185.5,-316.5 185.5,-335.5 266.5,-335.5 266.5,-316.5 185.5,-316.5"/>
<text text-anchor="middle" x="226" y="-323.5" font-family="Helvetica,sans-Serif" font-size="10.00">KeyEvent::key</text>
</a>
</g>
</g>
<!-- Node1&#45;&gt;Node7 -->
<g id="edge7" class="edge"><title>Node1&#45;&gt;Node7</title>
<path fill="none" stroke="midnightblue" d="M91.7804,-373.459C118.316,-364.006 159.148,-349.46 188.613,-338.963"/>
<polygon fill="midnightblue" stroke="midnightblue" points="189.887,-342.225 198.132,-335.572 187.538,-335.631 189.887,-342.225"/>
</g>
<!-- Node8 -->
<g id="node8" class="node"><title>Node8</title>
<g id="a_node8"><a xlink:href="class_line_edit.html#a636e2ac65a70dd82fcf02f863da5c446" target="_top" xlink:title="LineEdit::setText">
<polygon fill="white" stroke="black" points="180.5,-190.5 180.5,-209.5 271.5,-209.5 271.5,-190.5 180.5,-190.5"/>
<text text-anchor="middle" x="226" y="-197.5" font-family="Helvetica,sans-Serif" font-size="10.00">LineEdit::setText</text>
</a>
</g>
</g>
<!-- Node1&#45;&gt;Node8 -->
<g id="edge8" class="edge"><title>Node1&#45;&gt;Node8</title>
<path fill="none" stroke="midnightblue" d="M73.377,-373.419C98.9621,-344.156 176.357,-255.636 209.579,-217.637"/>
<polygon fill="midnightblue" stroke="midnightblue" points="212.371,-219.762 216.318,-209.93 207.101,-215.155 212.371,-219.762"/>
</g>
<!-- Node21 -->
<g id="node21" class="node"><title>Node21</title>
<g id="a_node21"><a xlink:href="class_key_event.html#a79345d47767acbcafc7d8435b70f048a" target="_top" xlink:title="KeyEvent::keyString">
<polygon fill="white" stroke="black" points="172.5,-152.5 172.5,-171.5 279.5,-171.5 279.5,-152.5 172.5,-152.5"/>
<text text-anchor="middle" x="226" y="-159.5" font-family="Helvetica,sans-Serif" font-size="10.00">KeyEvent::keyString</text>
</a>
</g>
</g>
<!-- Node1&#45;&gt;Node21 -->
<g id="edge25" class="edge"><title>Node1&#45;&gt;Node21</title>
<path fill="none" stroke="midnightblue" d="M66.8984,-373.32C73.7489,-340.98 100.241,-235.639 164,-181 165.99,-179.295 168.132,-177.743 170.381,-176.329"/>
<polygon fill="midnightblue" stroke="midnightblue" points="172.269,-179.291 179.493,-171.54 169.013,-173.095 172.269,-179.291"/>
</g>
<!-- Node5&#45;&gt;Node6 -->
<g id="edge5" class="edge"><title>Node5&#45;&gt;Node6</title>
<path fill="none" stroke="midnightblue" d="M263.203,-400.116C305.523,-397.401 377.481,-391.186 438,-378 460.716,-373.051 485.545,-364.976 504.9,-358.054"/>
<polygon fill="midnightblue" stroke="midnightblue" points="506.286,-361.274 514.483,-354.561 503.889,-354.697 506.286,-361.274"/>
</g>
<!-- Node8&#45;&gt;Node6 -->
<g id="edge19" class="edge"><title>Node8&#45;&gt;Node6</title>
<path fill="none" stroke="midnightblue" d="M232.593,-209.64C245.592,-231.085 280.104,-282.754 324,-307 372.328,-333.695 435.261,-342.314 480.536,-344.785"/>
<polygon fill="midnightblue" stroke="midnightblue" points="480.629,-348.293 490.779,-345.256 480.951,-341.3 480.629,-348.293"/>
</g>
<!-- Node9 -->
<g id="node9" class="node"><title>Node9</title>
<g id="a_node9"><a xlink:href="class_graphics_text.html#ac42bb0e20251eb0dc2305be760714130" target="_top" xlink:title="Modifie le contenu de GraphicsText. ">
<polygon fill="white" stroke="black" points="324,-278.5 324,-297.5 438,-297.5 438,-278.5 324,-278.5"/>
<text text-anchor="middle" x="381" y="-285.5" font-family="Helvetica,sans-Serif" font-size="10.00">GraphicsText::setText</text>
</a>
</g>
</g>
<!-- Node8&#45;&gt;Node9 -->
<g id="edge9" class="edge"><title>Node8&#45;&gt;Node9</title>
<path fill="none" stroke="midnightblue" d="M238.584,-209.687C256.136,-223.989 290.934,-250.902 324,-268 328.694,-270.427 333.75,-272.683 338.835,-274.74"/>
<polygon fill="midnightblue" stroke="midnightblue" points="337.972,-278.156 348.563,-278.441 340.461,-271.614 337.972,-278.156"/>
</g>
<!-- Node10 -->
<g id="node10" class="node"><title>Node10</title>
<g id="a_node10"><a xlink:href="class_graphics_rectangle.html#a3efd2295cd742f75de829851bf7ca3dd" target="_top" xlink:title="GraphicsRectangle::\lsetWidth">
<polygon fill="white" stroke="black" points="328,-229 328,-259 434,-259 434,-229 328,-229"/>
<text text-anchor="start" x="336" y="-247" font-family="Helvetica,sans-Serif" font-size="10.00">GraphicsRectangle::</text>
<text text-anchor="middle" x="381" y="-236" font-family="Helvetica,sans-Serif" font-size="10.00">setWidth</text>
</a>
</g>
</g>
<!-- Node8&#45;&gt;Node10 -->
<g id="edge11" class="edge"><title>Node8&#45;&gt;Node10</title>
<path fill="none" stroke="midnightblue" d="M260.199,-209.547C277.193,-214.434 298.437,-220.544 318.298,-226.256"/>
<polygon fill="midnightblue" stroke="midnightblue" points="317.335,-229.62 327.913,-229.021 319.269,-222.893 317.335,-229.62"/>
</g>
<!-- Node15 -->
<g id="node15" class="node"><title>Node15</title>
<g id="a_node15"><a xlink:href="class_graphics_text.html#aaafb8f8246e4d3b0d5dd8ac5cc8586cc" target="_top" xlink:title="GraphicsText::font">
<polygon fill="white" stroke="black" points="332,-190.5 332,-209.5 430,-209.5 430,-190.5 332,-190.5"/>
<text text-anchor="middle" x="381" y="-197.5" font-family="Helvetica,sans-Serif" font-size="10.00">GraphicsText::font</text>
</a>
</g>
</g>
<!-- Node8&#45;&gt;Node15 -->
<g id="edge17" class="edge"><title>Node8&#45;&gt;Node15</title>
<path fill="none" stroke="midnightblue" d="M271.665,-200C287.296,-200 305.086,-200 321.667,-200"/>
<polygon fill="midnightblue" stroke="midnightblue" points="321.805,-203.5 331.805,-200 321.805,-196.5 321.805,-203.5"/>
</g>
<!-- Node16 -->
<g id="node16" class="node"><title>Node16</title>
<g id="a_node16"><a xlink:href="class_font.html#ad96d9cd6356edf670103542dbe4336c3" target="_top" xlink:title="Font::width">
<polygon fill="white" stroke="black" points="348.5,-152.5 348.5,-171.5 413.5,-171.5 413.5,-152.5 348.5,-152.5"/>
<text text-anchor="middle" x="381" y="-159.5" font-family="Helvetica,sans-Serif" font-size="10.00">Font::width</text>
</a>
</g>
</g>
<!-- Node8&#45;&gt;Node16 -->
<g id="edge18" class="edge"><title>Node8&#45;&gt;Node16</title>
<path fill="none" stroke="midnightblue" d="M265.608,-190.411C287.718,-184.92 315.476,-178.026 338.111,-172.404"/>
<polygon fill="midnightblue" stroke="midnightblue" points="339.251,-175.727 348.112,-169.92 337.564,-168.933 339.251,-175.727"/>
</g>
<!-- Node17 -->
<g id="node17" class="node"><title>Node17</title>
<g id="a_node17"><a xlink:href="class_graphics_line.html#acf2f14c815ca5b10567cc73e97a925d2" target="_top" xlink:title="GraphicsLine::first">
<polygon fill="white" stroke="black" points="333,-114.5 333,-133.5 429,-133.5 429,-114.5 333,-114.5"/>
<text text-anchor="middle" x="381" y="-121.5" font-family="Helvetica,sans-Serif" font-size="10.00">GraphicsLine::first</text>
</a>
</g>
</g>
<!-- Node8&#45;&gt;Node17 -->
<g id="edge20" class="edge"><title>Node8&#45;&gt;Node17</title>
<path fill="none" stroke="midnightblue" d="M267.98,-190.42C274.936,-187.914 281.881,-184.813 288,-181 307.746,-168.698 304.411,-155.55 324,-143 327.123,-140.999 330.48,-139.185 333.942,-137.544"/>
<polygon fill="midnightblue" stroke="midnightblue" points="335.421,-140.719 343.265,-133.598 332.692,-134.273 335.421,-140.719"/>
</g>
<!-- Node18 -->
<g id="node18" class="node"><title>Node18</title>
<g id="a_node18"><a xlink:href="class_graphics_item.html#ad48630477e3701e874e19287440a9c8f" target="_top" xlink:title="GraphicsItem::setRelative">
<polygon fill="white" stroke="black" points="474.5,-106.5 474.5,-125.5 605.5,-125.5 605.5,-106.5 474.5,-106.5"/>
<text text-anchor="middle" x="540" y="-113.5" font-family="Helvetica,sans-Serif" font-size="10.00">GraphicsItem::setRelative</text>
</a>
</g>
</g>
<!-- Node8&#45;&gt;Node18 -->
<g id="edge21" class="edge"><title>Node8&#45;&gt;Node18</title>
<path fill="none" stroke="midnightblue" d="M271.621,-190.922C277.555,-188.388 283.227,-185.146 288,-181 316.218,-156.491 292.417,-124.987 324,-105 379.641,-69.7889 460.523,-88.251 505.554,-103.188"/>
<polygon fill="midnightblue" stroke="midnightblue" points="504.535,-106.539 515.129,-106.492 506.818,-99.9215 504.535,-106.539"/>
</g>
<!-- Node19 -->
<g id="node19" class="node"><title>Node19</title>
<g id="a_node19"><a xlink:href="class_graphics_line.html#adcb8718946ae9b3478d56efd70e1d2c2" target="_top" xlink:title="GraphicsLine::second">
<polygon fill="white" stroke="black" points="325.5,-38.5 325.5,-57.5 436.5,-57.5 436.5,-38.5 325.5,-38.5"/>
<text text-anchor="middle" x="381" y="-45.5" font-family="Helvetica,sans-Serif" font-size="10.00">GraphicsLine::second</text>
</a>
</g>
</g>
<!-- Node8&#45;&gt;Node19 -->
<g id="edge23" class="edge"><title>Node8&#45;&gt;Node19</title>
<path fill="none" stroke="midnightblue" d="M271.792,-191.578C277.772,-188.952 283.412,-185.51 288,-181 324.381,-145.233 289.507,-109.591 324,-72 327.486,-68.2006 331.676,-64.9779 336.174,-62.2501"/>
<polygon fill="midnightblue" stroke="midnightblue" points="337.854,-65.3214 345.101,-57.5927 334.616,-59.1152 337.854,-65.3214"/>
</g>
<!-- Node20 -->
<g id="node20" class="node"><title>Node20</title>
<g id="a_node20"><a xlink:href="class_font.html#a9f5b8e83d5efd7d4df3c905864cf9c70" target="_top" xlink:title="Font::height">
<polygon fill="white" stroke="black" points="347,-0.5 347,-19.5 415,-19.5 415,-0.5 347,-0.5"/>
<text text-anchor="middle" x="381" y="-7.5" font-family="Helvetica,sans-Serif" font-size="10.00">Font::height</text>
</a>
</g>
</g>
<!-- Node8&#45;&gt;Node20 -->
<g id="edge24" class="edge"><title>Node8&#45;&gt;Node20</title>
<path fill="none" stroke="midnightblue" d="M271.535,-192.2C277.697,-189.495 283.46,-185.866 288,-181 335.358,-130.236 277.284,-80.3553 324,-29 327.756,-24.8705 332.444,-21.638 337.497,-19.1079"/>
<polygon fill="midnightblue" stroke="midnightblue" points="338.938,-22.2997 346.865,-15.27 336.285,-15.8221 338.938,-22.2997"/>
</g>
<!-- Node9&#45;&gt;Node6 -->
<g id="edge10" class="edge"><title>Node9&#45;&gt;Node6</title>
<path fill="none" stroke="midnightblue" d="M408.278,-297.541C434.203,-306.953 474.035,-321.414 502.917,-331.9"/>
<polygon fill="midnightblue" stroke="midnightblue" points="502.042,-335.306 512.636,-335.428 504.431,-328.726 502.042,-335.306"/>
</g>
<!-- Node11 -->
<g id="node11" class="node"><title>Node11</title>
<g id="a_node11"><a xlink:href="class_point.html#a62fd0fb2c699d6d4699d3be73762ffa2" target="_top" xlink:title="Point::setX">
<polygon fill="white" stroke="black" points="507.5,-174.5 507.5,-193.5 572.5,-193.5 572.5,-174.5 507.5,-174.5"/>
<text text-anchor="middle" x="540" y="-181.5" font-family="Helvetica,sans-Serif" font-size="10.00">Point::setX</text>
</a>
</g>
</g>
<!-- Node10&#45;&gt;Node11 -->
<g id="edge12" class="edge"><title>Node10&#45;&gt;Node11</title>
<path fill="none" stroke="midnightblue" d="M421.618,-228.859C447.166,-219.096 480.066,-206.522 504.532,-197.172"/>
<polygon fill="midnightblue" stroke="midnightblue" points="506.031,-200.346 514.123,-193.507 503.532,-193.808 506.031,-200.346"/>
</g>
<!-- Node12 -->
<g id="node12" class="node"><title>Node12</title>
<g id="a_node12"><a xlink:href="class_point.html#a43923c490fb5439d7d8a041e86520c34" target="_top" xlink:title="permet la modification des valeurs du point. ">
<polygon fill="white" stroke="black" points="642.5,-140.5 642.5,-159.5 701.5,-159.5 701.5,-140.5 642.5,-140.5"/>
<text text-anchor="middle" x="672" y="-147.5" font-family="Helvetica,sans-Serif" font-size="10.00">Point::set</text>
</a>
</g>
</g>
<!-- Node11&#45;&gt;Node12 -->
<g id="edge13" class="edge"><title>Node11&#45;&gt;Node12</title>
<path fill="none" stroke="midnightblue" d="M572.802,-175.683C590.77,-170.983 613.365,-165.074 632.349,-160.109"/>
<polygon fill="midnightblue" stroke="midnightblue" points="633.399,-163.452 642.188,-157.535 631.628,-156.68 633.399,-163.452"/>
</g>
<!-- Node13 -->
<g id="node13" class="node"><title>Node13</title>
<g id="a_node13"><a xlink:href="jquery_8js.html#a2335e57f79b6acfb6de59c235dc8a83e" target="_top" xlink:title="p">
<polygon fill="white" stroke="black" points="764.5,-168.5 764.5,-187.5 793.5,-187.5 793.5,-168.5 764.5,-168.5"/>
<text text-anchor="middle" x="779" y="-175.5" font-family="Helvetica,sans-Serif" font-size="10.00">p</text>
</a>
</g>
</g>
<!-- Node12&#45;&gt;Node13 -->
<g id="edge14" class="edge"><title>Node12&#45;&gt;Node13</title>
<path fill="none" stroke="midnightblue" d="M701.692,-157.651C718.268,-162.072 738.862,-167.563 754.477,-171.727"/>
<polygon fill="midnightblue" stroke="midnightblue" points="753.817,-175.173 764.381,-174.368 755.62,-168.41 753.817,-175.173"/>
</g>
<!-- Node14 -->
<g id="node14" class="node"><title>Node14</title>
<g id="a_node14"><a xlink:href="class_point.html#a04ce786cebfd535bc380833a71405930" target="_top" xlink:title="Point::absolute">
<polygon fill="white" stroke="black" points="738,-112.5 738,-131.5 820,-131.5 820,-112.5 738,-112.5"/>
<text text-anchor="middle" x="779" y="-119.5" font-family="Helvetica,sans-Serif" font-size="10.00">Point::absolute</text>
</a>
</g>
</g>
<!-- Node12&#45;&gt;Node14 -->
<g id="edge15" class="edge"><title>Node12&#45;&gt;Node14</title>
<path fill="none" stroke="midnightblue" d="M701.692,-142.349C711.171,-139.821 721.963,-136.943 732.387,-134.163"/>
<polygon fill="midnightblue" stroke="midnightblue" points="733.453,-137.502 742.214,-131.543 731.649,-130.738 733.453,-137.502"/>
</g>
<!-- Node14&#45;&gt;Node14 -->
<g id="edge16" class="edge"><title>Node14&#45;&gt;Node14</title>
<path fill="none" stroke="midnightblue" d="M762.662,-131.757C754.714,-140.565 760.16,-150 779,-150 790.775,-150 797.318,-146.315 798.629,-141.4"/>
<polygon fill="midnightblue" stroke="midnightblue" points="801.88,-140.091 795.338,-131.757 795.255,-142.352 801.88,-140.091"/>
</g>
<!-- Node18&#45;&gt;Node12 -->
<g id="edge22" class="edge"><title>Node18&#45;&gt;Node12</title>
<path fill="none" stroke="midnightblue" d="M577.558,-125.561C594.634,-130.027 614.972,-135.346 632.306,-139.88"/>
<polygon fill="midnightblue" stroke="midnightblue" points="631.558,-143.302 642.119,-142.446 633.33,-136.53 631.558,-143.302"/>
</g>
</g>
</svg>
        <g id="navigator" transform="translate(0 0)" fill="#404254">
                <rect fill="#f2f5e9" fill-opacity="0.5" stroke="#606060" stroke-width=".5" x="0" y="0" width="60" height="60"/>
                <use id="zoomplus" xlink:href="#zoomPlus" x="17" y="9" onmousedown="handleZoom(evt,'in')"/>
                <use id="zoomminus" xlink:href="#zoomMin" x="42" y="9" onmousedown="handleZoom(evt,'out')"/>
                <use id="reset" xlink:href="#resetDef" x="30" y="36" onmousedown="handleReset()"/>
                <g id="arrowUp" xlink:href="#dirArrow" transform="translate(30 24)" onmousedown="handlePan(0,-1)">
                  <use xlink:href="#rim" fill="#404040">
                        <set attributeName="fill" to="#808080" begin="arrowUp.mouseover" end="arrowUp.mouseout"/>
                  </use>
                  <path fill="none" stroke="white" stroke-width="1.5" d="M0,-3.0v7 M-2.5,-0.5L0,-3.0L2.5,-0.5"/>
                </g>
                <g id="arrowRight" xlink:href="#dirArrow" transform="rotate(90) translate(36 -43)" onmousedown="handlePan(1,0)">
                  <use xlink:href="#rim" fill="#404040">
                        <set attributeName="fill" to="#808080" begin="arrowRight.mouseover" end="arrowRight.mouseout"/>
                  </use>
                  <path fill="none" stroke="white" stroke-width="1.5" d="M0,-3.0v7 M-2.5,-0.5L0,-3.0L2.5,-0.5"/>
                </g>
                <g id="arrowDown" xlink:href="#dirArrow" transform="rotate(180) translate(-30 -48)" onmousedown="handlePan(0,1)">
                  <use xlink:href="#rim" fill="#404040">
                        <set attributeName="fill" to="#808080" begin="arrowDown.mouseover" end="arrowDown.mouseout"/>
                  </use>
                  <path fill="none" stroke="white" stroke-width="1.5" d="M0,-3.0v7 M-2.5,-0.5L0,-3.0L2.5,-0.5"/>
                </g>
                <g id="arrowLeft" xlink:href="#dirArrow" transform="rotate(270) translate(-36 17)" onmousedown="handlePan(-1,0)">
                  <use xlink:href="#rim" fill="#404040">
                        <set attributeName="fill" to="#808080" begin="arrowLeft.mouseover" end="arrowLeft.mouseout"/>
                  </use>
                  <path fill="none" stroke="white" stroke-width="1.5" d="M0,-3.0v7 M-2.5,-0.5L0,-3.0L2.5,-0.5"/>
                </g>
        </g>
        <svg viewBox="0 0 15 15" width="100%" height="30px" preserveAspectRatio="xMaxYMin meet">
         <g id="arrow_out" transform="scale(0.3 0.3)">
          <a xlink:href="class_line_edit_a8d5e79e8a895901381e301d41d3d4343_cgraph_org.svg" target="_base">
           <rect id="button" ry="5" rx="5" y="6" x="6" height="38" width="38"
                fill="#f2f5e9" fill-opacity="0.5" stroke="#606060" stroke-width="1.0"/>
           <path id="arrow"
             d="M 11.500037,31.436501 C 11.940474,20.09759 22.043105,11.32322 32.158766,21.979434 L 37.068811,17.246167 C 37.068811,17.246167 37.088388,32 37.088388,32 L 22.160133,31.978069 C 22.160133,31.978069 26.997745,27.140456 26.997745,27.140456 C 18.528582,18.264221 13.291696,25.230495 11.500037,31.436501 z"
             style="fill:#404040;"/>
          </a>
         </g>
        </svg>
</svg>
