<?xml version="1.0" encoding="UTF-8" standalone="no"?>
<!DOCTYPE svg PUBLIC "-//W3C//DTD SVG 1.1//EN"
 "http://www.w3.org/Graphics/SVG/1.1/DTD/svg11.dtd">
<!-- Generated by graphviz version 2.36.0 (20140111.2315)
 -->
<!-- Title: Label::setText Pages: 1 -->
<!--zoomable 241 -->
<svg id="main" version="1.1" xmlns="http://www.w3.org/2000/svg" xmlns:xlink="http://www.w3.org/1999/xlink" xml:space="preserve" onload="init(evt)">
<style type="text/css"><![CDATA[
.edge:hover path { stroke: red; }
.edge:hover polygon { stroke: red; fill: red; }
]]></style>
<script type="text/javascript"><![CDATA[
var edges = document.getElementsByTagName('g');
if (edges && edges.length) {
  for (var i=0;i<edges.length;i++) {
    if (edges[i].id.substr(0,4)=='edge') {
      edges[i].setAttribute('class','edge');
    }
  }
}
]]></script>
        <defs>
                <circle id="rim" cx="0" cy="0" r="7"/>
                <circle id="rim2" cx="0" cy="0" r="3.5"/>
                <g id="zoomPlus">
                        <use xlink:href="#rim" fill="#404040">
                                <set attributeName="fill" to="#808080" begin="zoomplus.mouseover" end="zoomplus.mouseout"/>
                        </use>
                        <path d="M-4,0h8M0,-4v8" fill="none" stroke="white" stroke-width="1.5" pointer-events="none"/>
                </g>
                <g id="zoomMin">
                        <use xlink:href="#rim" fill="#404040">
                                <set attributeName="fill" to="#808080" begin="zoomminus.mouseover" end="zoomminus.mouseout"/>
                        </use>
                        <path d="M-4,0h8" fill="none" stroke="white" stroke-width="1.5" pointer-events="none"/>
                </g>
                <g id="dirArrow">
                        <path fill="none" stroke="white" stroke-width="1.5" d="M0,-3.0v7 M-2.5,-0.5L0,-3.0L2.5,-0.5"/>
                </g>
               <g id="resetDef">
                       <use xlink:href="#rim2" fill="#404040">
                               <set attributeName="fill" to="#808080" begin="reset.mouseover" end="reset.mouseout"/>
                       </use>
               </g>
        </defs>

<script type="text/javascript">
var viewWidth = 530;
var viewHeight = 241;
var sectionId = 'dynsection-7';
</script>
<script xlink:href="svgpan.js"/>
<svg id="graph" class="graph">
<g id="viewport">
<title>Label::setText</title>
<polygon fill="white" stroke="none" points="-4,4 -4,-236.815 526,-236.815 526,4 -4,4"/>
<!-- Node1 -->
<g id="node1" class="node"><title>Node1</title>
<polygon fill="#bfbfbf" stroke="black" points="0.5,-114.5 0.5,-133.5 79.5,-133.5 79.5,-114.5 0.5,-114.5"/>
<text text-anchor="middle" x="40" y="-121.5" font-family="Helvetica,sans-Serif" font-size="10.00">Label::setText</text>
</g>
<!-- Node2 -->
<g id="node2" class="node"><title>Node2</title>
<g id="a_node2"><a xlink:href="class_graphics_text.html#aeb38c8c0df9473cde331540d9904d352" target="_top" xlink:title="Recupere le contenu de GraphicsText. ">
<polygon fill="white" stroke="black" points="266,-190.5 266,-209.5 364,-209.5 364,-190.5 266,-190.5"/>
<text text-anchor="middle" x="315" y="-197.5" font-family="Helvetica,sans-Serif" font-size="10.00">GraphicsText::text</text>
</a>
</g>
</g>
<!-- Node1&#45;&gt;Node2 -->
<g id="edge1" class="edge"><title>Node1&#45;&gt;Node2</title>
<path fill="none" stroke="midnightblue" d="M45.0392,-133.626C54.1688,-153.949 78.5582,-200.856 116,-219 169.686,-245.016 241.082,-227.267 281.838,-212.973"/>
<polygon fill="midnightblue" stroke="midnightblue" points="283.071,-216.249 291.267,-209.534 280.673,-209.672 283.071,-216.249"/>
</g>
<!-- Node3 -->
<g id="node3" class="node"><title>Node3</title>
<g id="a_node3"><a xlink:href="class_label.html#a4411eb587fb2c0a019579ae8c3390043" target="_top" xlink:title="Label::text">
<polygon fill="white" stroke="black" points="142,-190.5 142,-209.5 204,-209.5 204,-190.5 142,-190.5"/>
<text text-anchor="middle" x="173" y="-197.5" font-family="Helvetica,sans-Serif" font-size="10.00">Label::text</text>
</a>
</g>
</g>
<!-- Node1&#45;&gt;Node3 -->
<g id="edge2" class="edge"><title>Node1&#45;&gt;Node3</title>
<path fill="none" stroke="midnightblue" d="M51.4208,-133.688C65.2538,-146.112 90.8713,-167.646 116,-181 121.169,-183.747 126.813,-186.213 132.465,-188.387"/>
<polygon fill="midnightblue" stroke="midnightblue" points="131.305,-191.689 141.9,-191.767 133.666,-185.099 131.305,-191.689"/>
</g>
<!-- Node4 -->
<g id="node4" class="node"><title>Node4</title>
<g id="a_node4"><a xlink:href="class_graphics_text.html#ac42bb0e20251eb0dc2305be760714130" target="_top" xlink:title="Modifie le contenu de GraphicsText. ">
<polygon fill="white" stroke="black" points="116,-152.5 116,-171.5 230,-171.5 230,-152.5 116,-152.5"/>
<text text-anchor="middle" x="173" y="-159.5" font-family="Helvetica,sans-Serif" font-size="10.00">GraphicsText::setText</text>
</a>
</g>
</g>
<!-- Node1&#45;&gt;Node4 -->
<g id="edge4" class="edge"><title>Node1&#45;&gt;Node4</title>
<path fill="none" stroke="midnightblue" d="M74.0568,-133.589C90.8125,-138.449 111.358,-144.409 129.297,-149.613"/>
<polygon fill="midnightblue" stroke="midnightblue" points="128.375,-152.99 138.954,-152.414 130.325,-146.267 128.375,-152.99"/>
</g>
<!-- Node5 -->
<g id="node5" class="node"><title>Node5</title>
<g id="a_node5"><a xlink:href="class_widget.html#a5c2eba0b8b25042bec8898435798c67e" target="_top" xlink:title="Widget::setWidth">
<polygon fill="white" stroke="black" points="127,-38.5 127,-57.5 219,-57.5 219,-38.5 127,-38.5"/>
<text text-anchor="middle" x="173" y="-45.5" font-family="Helvetica,sans-Serif" font-size="10.00">Widget::setWidth</text>
</a>
</g>
</g>
<!-- Node1&#45;&gt;Node5 -->
<g id="edge6" class="edge"><title>Node1&#45;&gt;Node5</title>
<path fill="none" stroke="midnightblue" d="M51.4208,-114.312C65.2538,-101.888 90.8713,-80.3544 116,-67 119.983,-64.8831 124.249,-62.9332 128.583,-61.1552"/>
<polygon fill="midnightblue" stroke="midnightblue" points="129.991,-64.3643 138.095,-57.5398 127.504,-57.8209 129.991,-64.3643"/>
</g>
<!-- Node8 -->
<g id="node8" class="node"><title>Node8</title>
<g id="a_node8"><a xlink:href="class_label.html#abd832d1488ddb8c4c66aee954722d07c" target="_top" xlink:title="Label::minimumWidth">
<polygon fill="white" stroke="black" points="117.5,-114.5 117.5,-133.5 228.5,-133.5 228.5,-114.5 117.5,-114.5"/>
<text text-anchor="middle" x="173" y="-121.5" font-family="Helvetica,sans-Serif" font-size="10.00">Label::minimumWidth</text>
</a>
</g>
</g>
<!-- Node1&#45;&gt;Node8 -->
<g id="edge9" class="edge"><title>Node1&#45;&gt;Node8</title>
<path fill="none" stroke="midnightblue" d="M79.5958,-124C88.2421,-124 97.6454,-124 107.034,-124"/>
<polygon fill="midnightblue" stroke="midnightblue" points="107.18,-127.5 117.18,-124 107.18,-120.5 107.18,-127.5"/>
</g>
<!-- Node11 -->
<g id="node11" class="node"><title>Node11</title>
<g id="a_node11"><a xlink:href="class_widget.html#a596592adeb0032ab07347c68ebd39639" target="_top" xlink:title="Widget::setHeight">
<polygon fill="white" stroke="black" points="125.5,-0.5 125.5,-19.5 220.5,-19.5 220.5,-0.5 125.5,-0.5"/>
<text text-anchor="middle" x="173" y="-7.5" font-family="Helvetica,sans-Serif" font-size="10.00">Widget::setHeight</text>
</a>
</g>
</g>
<!-- Node1&#45;&gt;Node11 -->
<g id="edge13" class="edge"><title>Node1&#45;&gt;Node11</title>
<path fill="none" stroke="midnightblue" d="M46.0441,-114.415C56.5319,-95.384 82.5271,-52.6349 116,-29 118.726,-27.0754 121.662,-25.3333 124.711,-23.7583"/>
<polygon fill="midnightblue" stroke="midnightblue" points="126.427,-26.824 134.101,-19.5194 123.546,-20.444 126.427,-26.824"/>
</g>
<!-- Node14 -->
<g id="node14" class="node"><title>Node14</title>
<g id="a_node14"><a xlink:href="class_label.html#a34427ae6ed59703ae99299e74c3214f9" target="_top" xlink:title="Label::minimumHeight">
<polygon fill="white" stroke="black" points="116,-76.5 116,-95.5 230,-95.5 230,-76.5 116,-76.5"/>
<text text-anchor="middle" x="173" y="-83.5" font-family="Helvetica,sans-Serif" font-size="10.00">Label::minimumHeight</text>
</a>
</g>
</g>
<!-- Node1&#45;&gt;Node14 -->
<g id="edge16" class="edge"><title>Node1&#45;&gt;Node14</title>
<path fill="none" stroke="midnightblue" d="M74.0568,-114.411C90.8125,-109.551 111.358,-103.591 129.297,-98.3873"/>
<polygon fill="midnightblue" stroke="midnightblue" points="130.325,-101.733 138.954,-95.5859 128.375,-95.0105 130.325,-101.733"/>
</g>
<!-- Node3&#45;&gt;Node2 -->
<g id="edge3" class="edge"><title>Node3&#45;&gt;Node2</title>
<path fill="none" stroke="midnightblue" d="M204.034,-200C219.078,-200 237.827,-200 255.558,-200"/>
<polygon fill="midnightblue" stroke="midnightblue" points="255.844,-203.5 265.844,-200 255.844,-196.5 255.844,-203.5"/>
</g>
<!-- Node4&#45;&gt;Node2 -->
<g id="edge5" class="edge"><title>Node4&#45;&gt;Node2</title>
<path fill="none" stroke="midnightblue" d="M209.328,-171.589C227.401,-176.494 249.598,-182.52 268.895,-187.757"/>
<polygon fill="midnightblue" stroke="midnightblue" points="268.116,-191.172 278.683,-190.414 269.949,-184.417 268.116,-191.172"/>
</g>
<!-- Node6 -->
<g id="node6" class="node"><title>Node6</title>
<g id="a_node6"><a xlink:href="class_widget.html#a285c18a864b1e9c982b10d5a7cc6113c" target="_top" xlink:title="Widget::width">
<polygon fill="white" stroke="black" points="276.5,-38.5 276.5,-57.5 353.5,-57.5 353.5,-38.5 276.5,-38.5"/>
<text text-anchor="middle" x="315" y="-45.5" font-family="Helvetica,sans-Serif" font-size="10.00">Widget::width</text>
</a>
</g>
</g>
<!-- Node5&#45;&gt;Node6 -->
<g id="edge7" class="edge"><title>Node5&#45;&gt;Node6</title>
<path fill="none" stroke="midnightblue" d="M219.068,-48C234.005,-48 250.685,-48 265.846,-48"/>
<polygon fill="midnightblue" stroke="midnightblue" points="266.059,-51.5001 276.059,-48 266.059,-44.5001 266.059,-51.5001"/>
</g>
<!-- Node7 -->
<g id="node7" class="node"><title>Node7</title>
<g id="a_node7"><a xlink:href="class_widget.html#a64bd53454b3127bbaf26eaad6db28928" target="_top" xlink:title="Widget::minimumWidth">
<polygon fill="white" stroke="black" points="401.5,-38.5 401.5,-57.5 520.5,-57.5 520.5,-38.5 401.5,-38.5"/>
<text text-anchor="middle" x="461" y="-45.5" font-family="Helvetica,sans-Serif" font-size="10.00">Widget::minimumWidth</text>
</a>
</g>
</g>
<!-- Node6&#45;&gt;Node7 -->
<g id="edge8" class="edge"><title>Node6&#45;&gt;Node7</title>
<path fill="none" stroke="midnightblue" d="M353.834,-48C365.275,-48 378.214,-48 391.026,-48"/>
<polygon fill="midnightblue" stroke="midnightblue" points="391.242,-51.5001 401.241,-48 391.241,-44.5001 391.242,-51.5001"/>
</g>
<!-- Node8&#45;&gt;Node2 -->
<g id="edge12" class="edge"><title>Node8&#45;&gt;Node2</title>
<path fill="none" stroke="midnightblue" d="M210.735,-133.598C217.415,-136.128 224.122,-139.234 230,-143 249.589,-155.55 246.729,-167.967 266,-181 268.747,-182.858 271.702,-184.575 274.749,-186.155"/>
<polygon fill="midnightblue" stroke="midnightblue" points="273.5,-189.434 284.044,-190.479 276.453,-183.087 273.5,-189.434"/>
</g>
<!-- Node9 -->
<g id="node9" class="node"><title>Node9</title>
<g id="a_node9"><a xlink:href="class_graphics_text.html#aaafb8f8246e4d3b0d5dd8ac5cc8586cc" target="_top" xlink:title="GraphicsText::font">
<polygon fill="white" stroke="black" points="266,-114.5 266,-133.5 364,-133.5 364,-114.5 266,-114.5"/>
<text text-anchor="middle" x="315" y="-121.5" font-family="Helvetica,sans-Serif" font-size="10.00">GraphicsText::font</text>
</a>
</g>
</g>
<!-- Node8&#45;&gt;Node9 -->
<g id="edge10" class="edge"><title>Node8&#45;&gt;Node9</title>
<path fill="none" stroke="midnightblue" d="M228.529,-124C237.454,-124 246.732,-124 255.744,-124"/>
<polygon fill="midnightblue" stroke="midnightblue" points="255.771,-127.5 265.771,-124 255.771,-120.5 255.771,-127.5"/>
</g>
<!-- Node10 -->
<g id="node10" class="node"><title>Node10</title>
<g id="a_node10"><a xlink:href="class_font.html#ad96d9cd6356edf670103542dbe4336c3" target="_top" xlink:title="Font::width">
<polygon fill="white" stroke="black" points="282.5,-152.5 282.5,-171.5 347.5,-171.5 347.5,-152.5 282.5,-152.5"/>
<text text-anchor="middle" x="315" y="-159.5" font-family="Helvetica,sans-Serif" font-size="10.00">Font::width</text>
</a>
</g>
</g>
<!-- Node8&#45;&gt;Node10 -->
<g id="edge11" class="edge"><title>Node8&#45;&gt;Node10</title>
<path fill="none" stroke="midnightblue" d="M209.328,-133.589C228.454,-138.78 252.199,-145.226 272.237,-150.664"/>
<polygon fill="midnightblue" stroke="midnightblue" points="271.467,-154.082 282.035,-153.324 273.301,-147.326 271.467,-154.082"/>
</g>
<!-- Node12 -->
<g id="node12" class="node"><title>Node12</title>
<g id="a_node12"><a xlink:href="class_widget.html#a5122729ed923e75463ee8f8bbcdb0cfa" target="_top" xlink:title="Widget::height">
<polygon fill="white" stroke="black" points="275,-0.5 275,-19.5 355,-19.5 355,-0.5 275,-0.5"/>
<text text-anchor="middle" x="315" y="-7.5" font-family="Helvetica,sans-Serif" font-size="10.00">Widget::height</text>
</a>
</g>
</g>
<!-- Node11&#45;&gt;Node12 -->
<g id="edge14" class="edge"><title>Node11&#45;&gt;Node12</title>
<path fill="none" stroke="midnightblue" d="M220.618,-10C234.7,-10 250.207,-10 264.472,-10"/>
<polygon fill="midnightblue" stroke="midnightblue" points="264.601,-13.5001 274.6,-10 264.6,-6.5001 264.601,-13.5001"/>
</g>
<!-- Node13 -->
<g id="node13" class="node"><title>Node13</title>
<g id="a_node13"><a xlink:href="class_widget.html#a037c4fd4ada38dfc4af381642eb66127" target="_top" xlink:title="Widget::minimumHeight">
<polygon fill="white" stroke="black" points="400,-0.5 400,-19.5 522,-19.5 522,-0.5 400,-0.5"/>
<text text-anchor="middle" x="461" y="-7.5" font-family="Helvetica,sans-Serif" font-size="10.00">Widget::minimumHeight</text>
</a>
</g>
</g>
<!-- Node12&#45;&gt;Node13 -->
<g id="edge15" class="edge"><title>Node12&#45;&gt;Node13</title>
<path fill="none" stroke="midnightblue" d="M355.349,-10C365.976,-10 377.807,-10 389.581,-10"/>
<polygon fill="midnightblue" stroke="midnightblue" points="389.883,-13.5001 399.883,-10 389.883,-6.5001 389.883,-13.5001"/>
</g>
<!-- Node14&#45;&gt;Node9 -->
<g id="edge17" class="edge"><title>Node14&#45;&gt;Node9</title>
<path fill="none" stroke="midnightblue" d="M209.328,-95.589C227.401,-100.494 249.598,-106.52 268.895,-111.757"/>
<polygon fill="midnightblue" stroke="midnightblue" points="268.116,-115.172 278.683,-114.414 269.949,-108.417 268.116,-115.172"/>
</g>
<!-- Node15 -->
<g id="node15" class="node"><title>Node15</title>
<g id="a_node15"><a xlink:href="class_font.html#a9f5b8e83d5efd7d4df3c905864cf9c70" target="_top" xlink:title="Font::height">
<polygon fill="white" stroke="black" points="281,-76.5 281,-95.5 349,-95.5 349,-76.5 281,-76.5"/>
<text text-anchor="middle" x="315" y="-83.5" font-family="Helvetica,sans-Serif" font-size="10.00">Font::height</text>
</a>
</g>
</g>
<!-- Node14&#45;&gt;Node15 -->
<g id="edge18" class="edge"><title>Node14&#45;&gt;Node15</title>
<path fill="none" stroke="midnightblue" d="M230.137,-86C243.568,-86 257.709,-86 270.473,-86"/>
<polygon fill="midnightblue" stroke="midnightblue" points="270.825,-89.5001 280.825,-86 270.825,-82.5001 270.825,-89.5001"/>
</g>
</g>
</svg>
        <g id="navigator" transform="translate(0 0)" fill="#404254">
                <rect fill="#f2f5e9" fill-opacity="0.5" stroke="#606060" stroke-width=".5" x="0" y="0" width="60" height="60"/>
                <use id="zoomplus" xlink:href="#zoomPlus" x="17" y="9" onmousedown="handleZoom(evt,'in')"/>
                <use id="zoomminus" xlink:href="#zoomMin" x="42" y="9" onmousedown="handleZoom(evt,'out')"/>
                <use id="reset" xlink:href="#resetDef" x="30" y="36" onmousedown="handleReset()"/>
                <g id="arrowUp" xlink:href="#dirArrow" transform="translate(30 24)" onmousedown="handlePan(0,-1)">
                  <use xlink:href="#rim" fill="#404040">
                        <set attributeName="fill" to="#808080" begin="arrowUp.mouseover" end="arrowUp.mouseout"/>
                  </use>
                  <path fill="none" stroke="white" stroke-width="1.5" d="M0,-3.0v7 M-2.5,-0.5L0,-3.0L2.5,-0.5"/>
                </g>
                <g id="arrowRight" xlink:href="#dirArrow" transform="rotate(90) translate(36 -43)" onmousedown="handlePan(1,0)">
                  <use xlink:href="#rim" fill="#404040">
                        <set attributeName="fill" to="#808080" begin="arrowRight.mouseover" end="arrowRight.mouseout"/>
                  </use>
                  <path fill="none" stroke="white" stroke-width="1.5" d="M0,-3.0v7 M-2.5,-0.5L0,-3.0L2.5,-0.5"/>
                </g>
                <g id="arrowDown" xlink:href="#dirArrow" transform="rotate(180) translate(-30 -48)" onmousedown="handlePan(0,1)">
                  <use xlink:href="#rim" fill="#404040">
                        <set attributeName="fill" to="#808080" begin="arrowDown.mouseover" end="arrowDown.mouseout"/>
                  </use>
                  <path fill="none" stroke="white" stroke-width="1.5" d="M0,-3.0v7 M-2.5,-0.5L0,-3.0L2.5,-0.5"/>
                </g>
                <g id="arrowLeft" xlink:href="#dirArrow" transform="rotate(270) translate(-36 17)" onmousedown="handlePan(-1,0)">
                  <use xlink:href="#rim" fill="#404040">
                        <set attributeName="fill" to="#808080" begin="arrowLeft.mouseover" end="arrowLeft.mouseout"/>
                  </use>
                  <path fill="none" stroke="white" stroke-width="1.5" d="M0,-3.0v7 M-2.5,-0.5L0,-3.0L2.5,-0.5"/>
                </g>
        </g>
        <svg viewBox="0 0 15 15" width="100%" height="30px" preserveAspectRatio="xMaxYMin meet">
         <g id="arrow_out" transform="scale(0.3 0.3)">
          <a xlink:href="class_label_a2bd65842919bc965ff8482407b34f097_cgraph_org.svg" target="_base">
           <rect id="button" ry="5" rx="5" y="6" x="6" height="38" width="38"
                fill="#f2f5e9" fill-opacity="0.5" stroke="#606060" stroke-width="1.0"/>
           <path id="arrow"
             d="M 11.500037,31.436501 C 11.940474,20.09759 22.043105,11.32322 32.158766,21.979434 L 37.068811,17.246167 C 37.068811,17.246167 37.088388,32 37.088388,32 L 22.160133,31.978069 C 22.160133,31.978069 26.997745,27.140456 26.997745,27.140456 C 18.528582,18.264221 13.291696,25.230495 11.500037,31.436501 z"
             style="fill:#404040;"/>
          </a>
         </g>
        </svg>
</svg>
