<?xml version="1.0" encoding="UTF-8" standalone="no"?>
<!DOCTYPE svg PUBLIC "-//W3C//DTD SVG 1.1//EN"
 "http://www.w3.org/Graphics/SVG/1.1/DTD/svg11.dtd">
<!-- Generated by graphviz version 2.36.0 (20140111.2315)
 -->
<!-- Title: GraphicsItem::setRelative Pages: 1 -->
<svg width="486pt" height="161pt"
 viewBox="0.00 0.00 486.00 161.00" xmlns="http://www.w3.org/2000/svg" xmlns:xlink="http://www.w3.org/1999/xlink">
<g id="graph0" class="graph" transform="scale(1 1) rotate(0) translate(4 157)">
<title>GraphicsItem::setRelative</title>
<polygon fill="white" stroke="none" points="-4,4 -4,-157 482,-157 482,4 -4,4"/>
<!-- Node1 -->
<g id="node1" class="node"><title>Node1</title>
<polygon fill="#bfbfbf" stroke="black" points="0.5,-76.5 0.5,-95.5 131.5,-95.5 131.5,-76.5 0.5,-76.5"/>
<text text-anchor="middle" x="66" y="-83.5" font-family="Helvetica,sans-Serif" font-size="10.00">GraphicsItem::setRelative</text>
</g>
<!-- Node2 -->
<g id="node2" class="node"><title>Node2</title>
<g id="a_node2"><a xlink:href="class_graphics_anchor.html#a902a4032ae818bbe9a0b6fdb84fe341d" target="_top" xlink:title="GraphicsAnchor::setRelative">
<polygon fill="white" stroke="black" points="170,-133.5 170,-152.5 312,-152.5 312,-133.5 170,-133.5"/>
<text text-anchor="middle" x="241" y="-140.5" font-family="Helvetica,sans-Serif" font-size="10.00">GraphicsAnchor::setRelative</text>
</a>
</g>
</g>
<!-- Node1&#45;&gt;Node2 -->
<g id="edge1" class="edge"><title>Node1&#45;&gt;Node2</title>
<path fill="none" stroke="midnightblue" d="M99.8291,-99.3206C119.441,-107.034 144.945,-116.642 168,-124 178.592,-127.38 190.193,-130.634 200.929,-133.464"/>
<polygon fill="midnightblue" stroke="midnightblue" points="101.02,-96.0277 90.4338,-95.5932 98.4383,-102.534 101.02,-96.0277"/>
</g>
<!-- Node3 -->
<g id="node3" class="node"><title>Node3</title>
<g id="a_node3"><a xlink:href="class_graphics_anchor.html#a1dc0e27c411d6b4b11d70bd4d8ae1699" target="_top" xlink:title="GraphicsAnchor::setAbsolute">
<polygon fill="white" stroke="black" points="169,-95.5 169,-114.5 313,-114.5 313,-95.5 169,-95.5"/>
<text text-anchor="middle" x="241" y="-102.5" font-family="Helvetica,sans-Serif" font-size="10.00">GraphicsAnchor::setAbsolute</text>
</a>
</g>
</g>
<!-- Node1&#45;&gt;Node3 -->
<g id="edge2" class="edge"><title>Node1&#45;&gt;Node3</title>
<path fill="none" stroke="midnightblue" d="M141.935,-94.2298C150.895,-95.2138 160.023,-96.2164 168.926,-97.1942"/>
<polygon fill="midnightblue" stroke="midnightblue" points="142.233,-90.7417 131.911,-93.129 141.469,-97.6998 142.233,-90.7417"/>
</g>
<!-- Node4 -->
<g id="node4" class="node"><title>Node4</title>
<g id="a_node4"><a xlink:href="class_graphics_point.html#ac1242633c38521d881c9aa3548676dd4" target="_top" xlink:title="GraphicsPoint::GraphicsPoint">
<polygon fill="white" stroke="black" points="168,-57.5 168,-76.5 314,-76.5 314,-57.5 168,-57.5"/>
<text text-anchor="middle" x="241" y="-64.5" font-family="Helvetica,sans-Serif" font-size="10.00">GraphicsPoint::GraphicsPoint</text>
</a>
</g>
</g>
<!-- Node1&#45;&gt;Node4 -->
<g id="edge3" class="edge"><title>Node1&#45;&gt;Node4</title>
<path fill="none" stroke="midnightblue" d="M141.893,-77.7747C150.475,-76.8322 159.212,-75.8727 167.758,-74.9341"/>
<polygon fill="midnightblue" stroke="midnightblue" points="141.469,-74.3002 131.911,-78.871 142.233,-81.2583 141.469,-74.3002"/>
</g>
<!-- Node5 -->
<g id="node5" class="node"><title>Node5</title>
<g id="a_node5"><a xlink:href="class_line_edit.html#a636e2ac65a70dd82fcf02f863da5c446" target="_top" xlink:title="LineEdit::setText">
<polygon fill="white" stroke="black" points="195.5,-19.5 195.5,-38.5 286.5,-38.5 286.5,-19.5 195.5,-19.5"/>
<text text-anchor="middle" x="241" y="-26.5" font-family="Helvetica,sans-Serif" font-size="10.00">LineEdit::setText</text>
</a>
</g>
</g>
<!-- Node1&#45;&gt;Node5 -->
<g id="edge4" class="edge"><title>Node1&#45;&gt;Node5</title>
<path fill="none" stroke="midnightblue" d="M99.8291,-72.6794C119.441,-64.9657 144.945,-55.358 168,-48 178.592,-44.6197 190.193,-41.3663 200.929,-38.536"/>
<polygon fill="midnightblue" stroke="midnightblue" points="98.4383,-69.4657 90.4338,-76.4068 101.02,-75.9723 98.4383,-69.4657"/>
</g>
<!-- Node6 -->
<g id="node6" class="node"><title>Node6</title>
<g id="a_node6"><a xlink:href="class_line_edit.html#a04e1cd86821efe7570868ae397978186" target="_top" xlink:title="LineEdit::LineEdit">
<polygon fill="white" stroke="black" points="367.5,-38.5 367.5,-57.5 460.5,-57.5 460.5,-38.5 367.5,-38.5"/>
<text text-anchor="middle" x="414" y="-45.5" font-family="Helvetica,sans-Serif" font-size="10.00">LineEdit::LineEdit</text>
</a>
</g>
</g>
<!-- Node5&#45;&gt;Node6 -->
<g id="edge5" class="edge"><title>Node5&#45;&gt;Node6</title>
<path fill="none" stroke="midnightblue" d="M297.111,-35.1235C319.839,-37.6488 345.861,-40.5401 367.48,-42.9423"/>
<polygon fill="midnightblue" stroke="midnightblue" points="297.254,-31.6178 286.928,-33.992 296.481,-38.575 297.254,-31.6178"/>
</g>
<!-- Node7 -->
<g id="node7" class="node"><title>Node7</title>
<g id="a_node7"><a xlink:href="class_line_edit.html#a8d5e79e8a895901381e301d41d3d4343" target="_top" xlink:title="LineEdit::meHandleEvent">
<polygon fill="white" stroke="black" points="350,-0.5 350,-19.5 478,-19.5 478,-0.5 350,-0.5"/>
<text text-anchor="middle" x="414" y="-7.5" font-family="Helvetica,sans-Serif" font-size="10.00">LineEdit::meHandleEvent</text>
</a>
</g>
</g>
<!-- Node5&#45;&gt;Node7 -->
<g id="edge6" class="edge"><title>Node5&#45;&gt;Node7</title>
<path fill="none" stroke="midnightblue" d="M297.114,-22.8762C313.889,-21.0123 332.459,-18.949 349.728,-17.0302"/>
<polygon fill="midnightblue" stroke="midnightblue" points="296.481,-19.425 286.928,-24.008 297.254,-26.3822 296.481,-19.425"/>
</g>
</g>
</svg>
