<?xml version="1.0" encoding="UTF-8" standalone="no"?>
<!DOCTYPE svg PUBLIC "-//W3C//DTD SVG 1.1//EN"
 "http://www.w3.org/Graphics/SVG/1.1/DTD/svg11.dtd">
<!-- Generated by graphviz version 2.36.0 (20140111.2315)
 -->
<!-- Title: GroupPoints::points Pages: 1 -->
<!--zoomable 303 -->
<svg id="main" version="1.1" xmlns="http://www.w3.org/2000/svg" xmlns:xlink="http://www.w3.org/1999/xlink" xml:space="preserve" onload="init(evt)">
<style type="text/css"><![CDATA[
.edge:hover path { stroke: red; }
.edge:hover polygon { stroke: red; fill: red; }
]]></style>
<script type="text/javascript"><![CDATA[
var edges = document.getElementsByTagName('g');
if (edges && edges.length) {
  for (var i=0;i<edges.length;i++) {
    if (edges[i].id.substr(0,4)=='edge') {
      edges[i].setAttribute('class','edge');
    }
  }
}
]]></script>
        <defs>
                <circle id="rim" cx="0" cy="0" r="7"/>
                <circle id="rim2" cx="0" cy="0" r="3.5"/>
                <g id="zoomPlus">
                        <use xlink:href="#rim" fill="#404040">
                                <set attributeName="fill" to="#808080" begin="zoomplus.mouseover" end="zoomplus.mouseout"/>
                        </use>
                        <path d="M-4,0h8M0,-4v8" fill="none" stroke="white" stroke-width="1.5" pointer-events="none"/>
                </g>
                <g id="zoomMin">
                        <use xlink:href="#rim" fill="#404040">
                                <set attributeName="fill" to="#808080" begin="zoomminus.mouseover" end="zoomminus.mouseout"/>
                        </use>
                        <path d="M-4,0h8" fill="none" stroke="white" stroke-width="1.5" pointer-events="none"/>
                </g>
                <g id="dirArrow">
                        <path fill="none" stroke="white" stroke-width="1.5" d="M0,-3.0v7 M-2.5,-0.5L0,-3.0L2.5,-0.5"/>
                </g>
               <g id="resetDef">
                       <use xlink:href="#rim2" fill="#404040">
                               <set attributeName="fill" to="#808080" begin="reset.mouseover" end="reset.mouseout"/>
                       </use>
               </g>
        </defs>

<script type="text/javascript">
var viewWidth = 1014;
var viewHeight = 303;
var sectionId = 'dynsection-2';
</script>
<script xlink:href="svgpan.js"/>
<svg id="graph" class="graph">
<g id="viewport">
<title>GroupPoints::points</title>
<polygon fill="white" stroke="none" points="-4,4 -4,-299 1010,-299 1010,4 -4,4"/>
<!-- Node1 -->
<g id="node1" class="node"><title>Node1</title>
<polygon fill="#bfbfbf" stroke="black" points="0.5,-142.5 0.5,-161.5 103.5,-161.5 103.5,-142.5 0.5,-142.5"/>
<text text-anchor="middle" x="52" y="-149.5" font-family="Helvetica,sans-Serif" font-size="10.00">GroupPoints::points</text>
</g>
<!-- Node2 -->
<g id="node2" class="node"><title>Node2</title>
<g id="a_node2"><a xlink:href="class_point.html#a43923c490fb5439d7d8a041e86520c34" target="_top" xlink:title="Modifie les coordonnées du point par rapport à son origine. ">
<polygon fill="white" stroke="black" points="140.5,-142.5 140.5,-161.5 199.5,-161.5 199.5,-142.5 140.5,-142.5"/>
<text text-anchor="middle" x="170" y="-149.5" font-family="Helvetica,sans-Serif" font-size="10.00">Point::set</text>
</a>
</g>
</g>
<!-- Node1&#45;&gt;Node2 -->
<g id="edge1" class="edge"><title>Node1&#45;&gt;Node2</title>
<path fill="none" stroke="midnightblue" d="M113.62,-152C122.916,-152 132.123,-152 140.282,-152"/>
<polygon fill="midnightblue" stroke="midnightblue" points="113.542,-148.5 103.542,-152 113.542,-155.5 113.542,-148.5"/>
</g>
<!-- Node3 -->
<g id="node3" class="node"><title>Node3</title>
<g id="a_node3"><a xlink:href="class_graphics_point.html#ac1242633c38521d881c9aa3548676dd4" target="_top" xlink:title="GraphicsPoint::GraphicsPoint">
<polygon fill="white" stroke="black" points="240,-275.5 240,-294.5 386,-294.5 386,-275.5 240,-275.5"/>
<text text-anchor="middle" x="313" y="-282.5" font-family="Helvetica,sans-Serif" font-size="10.00">GraphicsPoint::GraphicsPoint</text>
</a>
</g>
</g>
<!-- Node2&#45;&gt;Node3 -->
<g id="edge2" class="edge"><title>Node2&#45;&gt;Node3</title>
<path fill="none" stroke="midnightblue" d="M176.734,-171.397C185.335,-197.038 204.072,-241.789 236,-266 241.093,-269.862 246.878,-272.947 252.929,-275.409"/>
<polygon fill="midnightblue" stroke="midnightblue" points="180.016,-170.169 173.659,-161.694 173.343,-172.284 180.016,-170.169"/>
</g>
<!-- Node4 -->
<g id="node4" class="node"><title>Node4</title>
<g id="a_node4"><a xlink:href="class_graphics_point.html#aaceb83d2bd068629dccfde4aee9c60f5" target="_top" xlink:title="GraphicsPoint::meHandleEvent">
<polygon fill="white" stroke="black" points="236,-237.5 236,-256.5 390,-256.5 390,-237.5 236,-237.5"/>
<text text-anchor="middle" x="313" y="-244.5" font-family="Helvetica,sans-Serif" font-size="10.00">GraphicsPoint::meHandleEvent</text>
</a>
</g>
</g>
<!-- Node2&#45;&gt;Node4 -->
<g id="edge3" class="edge"><title>Node2&#45;&gt;Node4</title>
<path fill="none" stroke="midnightblue" d="M183.442,-170.301C195.233,-186.335 214.327,-209.179 236,-223 245.683,-229.175 257.076,-233.869 268.053,-237.393"/>
<polygon fill="midnightblue" stroke="midnightblue" points="186.025,-167.892 177.38,-161.766 180.318,-171.945 186.025,-167.892"/>
</g>
<!-- Node5 -->
<g id="node5" class="node"><title>Node5</title>
<g id="a_node5"><a xlink:href="class_main_window.html#a34c4b4207b46d11a4100c9b19f0e81bb" target="_top" xlink:title="MainWindow::MainWindow">
<polygon fill="white" stroke="black" points="564.5,-161.5 564.5,-180.5 699.5,-180.5 699.5,-161.5 564.5,-161.5"/>
<text text-anchor="middle" x="632" y="-168.5" font-family="Helvetica,sans-Serif" font-size="10.00">MainWindow::MainWindow</text>
</a>
</g>
</g>
<!-- Node2&#45;&gt;Node5 -->
<g id="edge4" class="edge"><title>Node2&#45;&gt;Node5</title>
<path fill="none" stroke="midnightblue" d="M204.306,-164.999C214.353,-168.448 225.503,-171.815 236,-174 363.246,-200.482 398.568,-201.838 528,-190 548.281,-188.145 570.531,-184.276 589.145,-180.511"/>
<polygon fill="midnightblue" stroke="midnightblue" points="205.287,-161.633 194.692,-161.564 202.932,-168.224 205.287,-161.633"/>
</g>
<!-- Node6 -->
<g id="node6" class="node"><title>Node6</title>
<g id="a_node6"><a xlink:href="class_point.html#a9abe56cf3f067305623a1d805460a84f" target="_top" xlink:title="Modifie les coordonnées du point indépendamment de son origine. ">
<polygon fill="white" stroke="black" points="265.5,-85.5 265.5,-104.5 360.5,-104.5 360.5,-85.5 265.5,-85.5"/>
<text text-anchor="middle" x="313" y="-92.5" font-family="Helvetica,sans-Serif" font-size="10.00">Point::setRelative</text>
</a>
</g>
</g>
<!-- Node2&#45;&gt;Node6 -->
<g id="edge5" class="edge"><title>Node2&#45;&gt;Node6</title>
<path fill="none" stroke="midnightblue" d="M193.431,-136.748C205.595,-129.036 221.145,-120.054 236,-114 245.194,-110.253 255.325,-107.098 265.11,-104.502"/>
<polygon fill="midnightblue" stroke="midnightblue" points="191.328,-133.94 184.856,-142.328 195.146,-139.807 191.328,-133.94"/>
</g>
<!-- Node14 -->
<g id="node14" class="node"><title>Node14</title>
<g id="a_node14"><a xlink:href="class_point.html#a4fa7ffadfb6c9de033bfef5decdaa66e" target="_top" xlink:title="Rejoint le groupe d&#39;un point. ">
<polygon fill="white" stroke="black" points="447,-161.5 447,-180.5 507,-180.5 507,-161.5 447,-161.5"/>
<text text-anchor="middle" x="477" y="-168.5" font-family="Helvetica,sans-Serif" font-size="10.00">Point::join</text>
</a>
</g>
</g>
<!-- Node2&#45;&gt;Node14 -->
<g id="edge15" class="edge"><title>Node2&#45;&gt;Node14</title>
<path fill="none" stroke="midnightblue" d="M209.834,-154.419C271.741,-158.276 391.437,-165.732 446.713,-169.176"/>
<polygon fill="midnightblue" stroke="midnightblue" points="209.892,-150.916 199.694,-153.787 209.457,-157.903 209.892,-150.916"/>
</g>
<!-- Node15 -->
<g id="node15" class="node"><title>Node15</title>
<g id="a_node15"><a xlink:href="class_point.html#a498f108de0c0351dfb3177c681a7a1f2" target="_top" xlink:title="Quitte le groupe auquel le point appartient. ">
<polygon fill="white" stroke="black" points="273,-123.5 273,-142.5 353,-142.5 353,-123.5 273,-123.5"/>
<text text-anchor="middle" x="313" y="-130.5" font-family="Helvetica,sans-Serif" font-size="10.00">Point::beAlone</text>
</a>
</g>
</g>
<!-- Node2&#45;&gt;Node15 -->
<g id="edge17" class="edge"><title>Node2&#45;&gt;Node15</title>
<path fill="none" stroke="midnightblue" d="M209.669,-146.789C229.307,-144.143 253.115,-140.935 272.823,-138.279"/>
<polygon fill="midnightblue" stroke="midnightblue" points="208.976,-143.351 199.533,-148.155 209.911,-150.288 208.976,-143.351"/>
</g>
<!-- Node17 -->
<g id="node17" class="node"><title>Node17</title>
<g id="a_node17"><a xlink:href="class_point.html#a62fd0fb2c699d6d4699d3be73762ffa2" target="_top" xlink:title="Modifie l&#39;abscisse du point par rapport à son origine. ">
<polygon fill="white" stroke="black" points="280.5,-47.5 280.5,-66.5 345.5,-66.5 345.5,-47.5 280.5,-47.5"/>
<text text-anchor="middle" x="313" y="-54.5" font-family="Helvetica,sans-Serif" font-size="10.00">Point::setX</text>
</a>
</g>
</g>
<!-- Node2&#45;&gt;Node17 -->
<g id="edge20" class="edge"><title>Node2&#45;&gt;Node17</title>
<path fill="none" stroke="midnightblue" d="M181.894,-133.667C193.228,-116.204 212.581,-90.4916 236,-76 249.3,-67.77 265.988,-63.1 280.335,-60.4524"/>
<polygon fill="midnightblue" stroke="midnightblue" points="178.771,-132.06 176.447,-142.397 184.71,-135.766 178.771,-132.06"/>
</g>
<!-- Node18 -->
<g id="node18" class="node"><title>Node18</title>
<g id="a_node18"><a xlink:href="class_point.html#a3cdf750fa08f24c2aaaf7ada42df5ad8" target="_top" xlink:title="Modifie l&#39;ordonnée du point par rapport à son origine. ">
<polygon fill="white" stroke="black" points="280.5,-9.5 280.5,-28.5 345.5,-28.5 345.5,-9.5 280.5,-9.5"/>
<text text-anchor="middle" x="313" y="-16.5" font-family="Helvetica,sans-Serif" font-size="10.00">Point::setY</text>
</a>
</g>
</g>
<!-- Node2&#45;&gt;Node18 -->
<g id="edge21" class="edge"><title>Node2&#45;&gt;Node18</title>
<path fill="none" stroke="midnightblue" d="M176.734,-132.603C185.335,-106.962 204.072,-62.2106 236,-38 248.679,-28.3853 265.644,-23.5903 280.328,-21.2179"/>
<polygon fill="midnightblue" stroke="midnightblue" points="173.343,-131.716 173.659,-142.306 180.016,-133.831 173.343,-131.716"/>
</g>
<!-- Node6&#45;&gt;Node5 -->
<g id="edge6" class="edge"><title>Node6&#45;&gt;Node5</title>
<path fill="none" stroke="midnightblue" d="M370.745,-93.6927C414.596,-94.1853 476.326,-98.1849 528,-114 562.786,-124.646 598.994,-148.045 617.829,-161.315"/>
<polygon fill="midnightblue" stroke="midnightblue" points="370.577,-90.1919 360.558,-93.6376 370.539,-97.1918 370.577,-90.1919"/>
</g>
<!-- Node7 -->
<g id="node7" class="node"><title>Node7</title>
<g id="a_node7"><a xlink:href="class_point.html#a7f5e36e2e1bd0fa1564c1e4d5d74355c" target="_top" xlink:title="Modifie l&#39;abscisse du point indépendamment de son origine. ">
<polygon fill="white" stroke="black" points="426.5,-47.5 426.5,-66.5 527.5,-66.5 527.5,-47.5 426.5,-47.5"/>
<text text-anchor="middle" x="477" y="-54.5" font-family="Helvetica,sans-Serif" font-size="10.00">Point::setRelativeX</text>
</a>
</g>
</g>
<!-- Node6&#45;&gt;Node7 -->
<g id="edge7" class="edge"><title>Node6&#45;&gt;Node7</title>
<path fill="none" stroke="midnightblue" d="M364.715,-83.1039C387.486,-77.7626 413.987,-71.5463 435.415,-66.5201"/>
<polygon fill="midnightblue" stroke="midnightblue" points="363.816,-79.7197 354.879,-85.411 365.415,-86.5347 363.816,-79.7197"/>
</g>
<!-- Node12 -->
<g id="node12" class="node"><title>Node12</title>
<g id="a_node12"><a xlink:href="class_point.html#abb67fd238634ebc25e4bdb3ab4cca9b6" target="_top" xlink:title="Modifie l&#39;ordonnée du point indépendamment de son origine. ">
<polygon fill="white" stroke="black" points="581.5,-5.5 581.5,-24.5 682.5,-24.5 682.5,-5.5 581.5,-5.5"/>
<text text-anchor="middle" x="632" y="-12.5" font-family="Helvetica,sans-Serif" font-size="10.00">Point::setRelativeY</text>
</a>
</g>
</g>
<!-- Node6&#45;&gt;Node12 -->
<g id="edge12" class="edge"><title>Node6&#45;&gt;Node12</title>
<path fill="none" stroke="midnightblue" d="M370.606,-84.701C377.375,-82.3645 384.003,-79.503 390,-76 410.088,-64.2652 405.175,-48.3714 426,-38 474.728,-13.7319 537.862,-10.1738 581.116,-11.288"/>
<polygon fill="midnightblue" stroke="midnightblue" points="369.176,-81.4791 360.645,-87.7623 371.232,-88.1702 369.176,-81.4791"/>
</g>
<!-- Node8 -->
<g id="node8" class="node"><title>Node8</title>
<g id="a_node8"><a xlink:href="class_graphics_rectangle.html#a3efd2295cd742f75de829851bf7ca3dd" target="_top" xlink:title="GraphicsRectangle::\lsetWidth">
<polygon fill="white" stroke="black" points="579,-44 579,-74 685,-74 685,-44 579,-44"/>
<text text-anchor="start" x="587" y="-62" font-family="Helvetica,sans-Serif" font-size="10.00">GraphicsRectangle::</text>
<text text-anchor="middle" x="632" y="-51" font-family="Helvetica,sans-Serif" font-size="10.00">setWidth</text>
</a>
</g>
</g>
<!-- Node7&#45;&gt;Node8 -->
<g id="edge8" class="edge"><title>Node7&#45;&gt;Node8</title>
<path fill="none" stroke="midnightblue" d="M537.874,-57.7827C551.438,-57.96 565.734,-58.1469 578.944,-58.3195"/>
<polygon fill="midnightblue" stroke="midnightblue" points="537.72,-54.2804 527.675,-57.6493 537.628,-61.2798 537.72,-54.2804"/>
</g>
<!-- Node9 -->
<g id="node9" class="node"><title>Node9</title>
<g id="a_node9"><a xlink:href="class_line_edit.html#a636e2ac65a70dd82fcf02f863da5c446" target="_top" xlink:title="LineEdit::setText">
<polygon fill="white" stroke="black" points="743.5,-49.5 743.5,-68.5 834.5,-68.5 834.5,-49.5 743.5,-49.5"/>
<text text-anchor="middle" x="789" y="-56.5" font-family="Helvetica,sans-Serif" font-size="10.00">LineEdit::setText</text>
</a>
</g>
</g>
<!-- Node8&#45;&gt;Node9 -->
<g id="edge9" class="edge"><title>Node8&#45;&gt;Node9</title>
<path fill="none" stroke="midnightblue" d="M695.427,-59C711.469,-59 728.408,-59 743.349,-59"/>
<polygon fill="midnightblue" stroke="midnightblue" points="695.044,-55.5001 685.044,-59 695.044,-62.5001 695.044,-55.5001"/>
</g>
<!-- Node10 -->
<g id="node10" class="node"><title>Node10</title>
<g id="a_node10"><a xlink:href="class_line_edit.html#a04e1cd86821efe7570868ae397978186" target="_top" xlink:title="LineEdit::LineEdit">
<polygon fill="white" stroke="black" points="895.5,-8.5 895.5,-27.5 988.5,-27.5 988.5,-8.5 895.5,-8.5"/>
<text text-anchor="middle" x="942" y="-15.5" font-family="Helvetica,sans-Serif" font-size="10.00">LineEdit::LineEdit</text>
</a>
</g>
</g>
<!-- Node9&#45;&gt;Node10 -->
<g id="edge10" class="edge"><title>Node9&#45;&gt;Node10</title>
<path fill="none" stroke="midnightblue" d="M834.784,-46.84C857.513,-40.6686 884.719,-33.2815 905.907,-27.5286"/>
<polygon fill="midnightblue" stroke="midnightblue" points="833.755,-43.4926 825.022,-49.4907 835.59,-50.248 833.755,-43.4926"/>
</g>
<!-- Node11 -->
<g id="node11" class="node"><title>Node11</title>
<g id="a_node11"><a xlink:href="class_line_edit.html#a8d5e79e8a895901381e301d41d3d4343" target="_top" xlink:title="LineEdit::meHandleEvent">
<polygon fill="white" stroke="black" points="878,-49.5 878,-68.5 1006,-68.5 1006,-49.5 878,-49.5"/>
<text text-anchor="middle" x="942" y="-56.5" font-family="Helvetica,sans-Serif" font-size="10.00">LineEdit::meHandleEvent</text>
</a>
</g>
</g>
<!-- Node9&#45;&gt;Node11 -->
<g id="edge11" class="edge"><title>Node9&#45;&gt;Node11</title>
<path fill="none" stroke="midnightblue" d="M844.931,-59C855.62,-59 866.905,-59 877.835,-59"/>
<polygon fill="midnightblue" stroke="midnightblue" points="844.896,-55.5001 834.896,-59 844.896,-62.5001 844.896,-55.5001"/>
</g>
<!-- Node13 -->
<g id="node13" class="node"><title>Node13</title>
<g id="a_node13"><a xlink:href="class_graphics_rectangle.html#aea349ac359e4f2227f1da772c1a26ab6" target="_top" xlink:title="GraphicsRectangle::\lsetHeight">
<polygon fill="white" stroke="black" points="736,-0 736,-30 842,-30 842,-0 736,-0"/>
<text text-anchor="start" x="744" y="-18" font-family="Helvetica,sans-Serif" font-size="10.00">GraphicsRectangle::</text>
<text text-anchor="middle" x="789" y="-7" font-family="Helvetica,sans-Serif" font-size="10.00">setHeight</text>
</a>
</g>
</g>
<!-- Node12&#45;&gt;Node13 -->
<g id="edge13" class="edge"><title>Node12&#45;&gt;Node13</title>
<path fill="none" stroke="midnightblue" d="M693.002,-15C707.119,-15 722.053,-15 735.796,-15"/>
<polygon fill="midnightblue" stroke="midnightblue" points="692.896,-11.5001 682.896,-15 692.896,-18.5001 692.896,-11.5001"/>
</g>
<!-- Node13&#45;&gt;Node10 -->
<g id="edge14" class="edge"><title>Node13&#45;&gt;Node10</title>
<path fill="none" stroke="midnightblue" d="M852.643,-16.2446C866.921,-16.5282 881.831,-16.8245 895.248,-17.091"/>
<polygon fill="midnightblue" stroke="midnightblue" points="852.456,-12.7403 842.389,-16.0408 852.317,-19.7389 852.456,-12.7403"/>
</g>
<!-- Node14&#45;&gt;Node5 -->
<g id="edge16" class="edge"><title>Node14&#45;&gt;Node5</title>
<path fill="none" stroke="midnightblue" d="M517.551,-171C531.802,-171 548.305,-171 564.235,-171"/>
<polygon fill="midnightblue" stroke="midnightblue" points="517.138,-167.5 507.138,-171 517.138,-174.5 517.138,-167.5"/>
</g>
<!-- Node15&#45;&gt;Node14 -->
<g id="edge19" class="edge"><title>Node15&#45;&gt;Node14</title>
<path fill="none" stroke="midnightblue" d="M363,-144.494C390.347,-150.909 423.493,-158.684 446.792,-164.149"/>
<polygon fill="midnightblue" stroke="midnightblue" points="363.751,-141.075 353.216,-142.199 362.152,-147.89 363.751,-141.075"/>
</g>
<!-- Node16 -->
<g id="node16" class="node"><title>Node16</title>
<g id="a_node16"><a xlink:href="class_point.html#a395fa04b4ec126b66fc053f829a30cc1" target="_top" xlink:title="Destructeur. ">
<polygon fill="white" stroke="black" points="440,-123.5 440,-142.5 514,-142.5 514,-123.5 440,-123.5"/>
<text text-anchor="middle" x="477" y="-130.5" font-family="Helvetica,sans-Serif" font-size="10.00">Point::~Point</text>
</a>
</g>
</g>
<!-- Node15&#45;&gt;Node16 -->
<g id="edge18" class="edge"><title>Node15&#45;&gt;Node16</title>
<path fill="none" stroke="midnightblue" d="M363.468,-133C388.126,-133 417.404,-133 439.915,-133"/>
<polygon fill="midnightblue" stroke="midnightblue" points="363.216,-129.5 353.216,-133 363.216,-136.5 363.216,-129.5"/>
</g>
</g>
</svg>
        <g id="navigator" transform="translate(0 0)" fill="#404254">
                <rect fill="#f2f5e9" fill-opacity="0.5" stroke="#606060" stroke-width=".5" x="0" y="0" width="60" height="60"/>
                <use id="zoomplus" xlink:href="#zoomPlus" x="17" y="9" onmousedown="handleZoom(evt,'in')"/>
                <use id="zoomminus" xlink:href="#zoomMin" x="42" y="9" onmousedown="handleZoom(evt,'out')"/>
                <use id="reset" xlink:href="#resetDef" x="30" y="36" onmousedown="handleReset()"/>
                <g id="arrowUp" xlink:href="#dirArrow" transform="translate(30 24)" onmousedown="handlePan(0,-1)">
                  <use xlink:href="#rim" fill="#404040">
                        <set attributeName="fill" to="#808080" begin="arrowUp.mouseover" end="arrowUp.mouseout"/>
                  </use>
                  <path fill="none" stroke="white" stroke-width="1.5" d="M0,-3.0v7 M-2.5,-0.5L0,-3.0L2.5,-0.5"/>
                </g>
                <g id="arrowRight" xlink:href="#dirArrow" transform="rotate(90) translate(36 -43)" onmousedown="handlePan(1,0)">
                  <use xlink:href="#rim" fill="#404040">
                        <set attributeName="fill" to="#808080" begin="arrowRight.mouseover" end="arrowRight.mouseout"/>
                  </use>
                  <path fill="none" stroke="white" stroke-width="1.5" d="M0,-3.0v7 M-2.5,-0.5L0,-3.0L2.5,-0.5"/>
                </g>
                <g id="arrowDown" xlink:href="#dirArrow" transform="rotate(180) translate(-30 -48)" onmousedown="handlePan(0,1)">
                  <use xlink:href="#rim" fill="#404040">
                        <set attributeName="fill" to="#808080" begin="arrowDown.mouseover" end="arrowDown.mouseout"/>
                  </use>
                  <path fill="none" stroke="white" stroke-width="1.5" d="M0,-3.0v7 M-2.5,-0.5L0,-3.0L2.5,-0.5"/>
                </g>
                <g id="arrowLeft" xlink:href="#dirArrow" transform="rotate(270) translate(-36 17)" onmousedown="handlePan(-1,0)">
                  <use xlink:href="#rim" fill="#404040">
                        <set attributeName="fill" to="#808080" begin="arrowLeft.mouseover" end="arrowLeft.mouseout"/>
                  </use>
                  <path fill="none" stroke="white" stroke-width="1.5" d="M0,-3.0v7 M-2.5,-0.5L0,-3.0L2.5,-0.5"/>
                </g>
        </g>
        <svg viewBox="0 0 15 15" width="100%" height="30px" preserveAspectRatio="xMaxYMin meet">
         <g id="arrow_out" transform="scale(0.3 0.3)">
          <a xlink:href="class_group_points_a5d0d00417a192136922c27c8ce8ff98f_icgraph_org.svg" target="_base">
           <rect id="button" ry="5" rx="5" y="6" x="6" height="38" width="38"
                fill="#f2f5e9" fill-opacity="0.5" stroke="#606060" stroke-width="1.0"/>
           <path id="arrow"
             d="M 11.500037,31.436501 C 11.940474,20.09759 22.043105,11.32322 32.158766,21.979434 L 37.068811,17.246167 C 37.068811,17.246167 37.088388,32 37.088388,32 L 22.160133,31.978069 C 22.160133,31.978069 26.997745,27.140456 26.997745,27.140456 C 18.528582,18.264221 13.291696,25.230495 11.500037,31.436501 z"
             style="fill:#404040;"/>
          </a>
         </g>
        </svg>
</svg>
