<?xml version="1.0" encoding="UTF-8" standalone="no"?>
<!DOCTYPE svg PUBLIC "-//W3C//DTD SVG 1.1//EN"
 "http://www.w3.org/Graphics/SVG/1.1/DTD/svg11.dtd">
<!-- Generated by graphviz version 2.36.0 (20140111.2315)
 -->
<!-- Title: GraphicsTriangle Pages: 1 -->
<!--zoomable 594 -->
<svg id="main" version="1.1" xmlns="http://www.w3.org/2000/svg" xmlns:xlink="http://www.w3.org/1999/xlink" xml:space="preserve" onload="init(evt)">
<style type="text/css"><![CDATA[
.edge:hover path { stroke: red; }
.edge:hover polygon { stroke: red; fill: red; }
]]></style>
<script type="text/javascript"><![CDATA[
var edges = document.getElementsByTagName('g');
if (edges && edges.length) {
  for (var i=0;i<edges.length;i++) {
    if (edges[i].id.substr(0,4)=='edge') {
      edges[i].setAttribute('class','edge');
    }
  }
}
]]></script>
        <defs>
                <circle id="rim" cx="0" cy="0" r="7"/>
                <circle id="rim2" cx="0" cy="0" r="3.5"/>
                <g id="zoomPlus">
                        <use xlink:href="#rim" fill="#404040">
                                <set attributeName="fill" to="#808080" begin="zoomplus.mouseover" end="zoomplus.mouseout"/>
                        </use>
                        <path d="M-4,0h8M0,-4v8" fill="none" stroke="white" stroke-width="1.5" pointer-events="none"/>
                </g>
                <g id="zoomMin">
                        <use xlink:href="#rim" fill="#404040">
                                <set attributeName="fill" to="#808080" begin="zoomminus.mouseover" end="zoomminus.mouseout"/>
                        </use>
                        <path d="M-4,0h8" fill="none" stroke="white" stroke-width="1.5" pointer-events="none"/>
                </g>
                <g id="dirArrow">
                        <path fill="none" stroke="white" stroke-width="1.5" d="M0,-3.0v7 M-2.5,-0.5L0,-3.0L2.5,-0.5"/>
                </g>
               <g id="resetDef">
                       <use xlink:href="#rim2" fill="#404040">
                               <set attributeName="fill" to="#808080" begin="reset.mouseover" end="reset.mouseout"/>
                       </use>
               </g>
        </defs>

<script type="text/javascript">
var viewWidth = 235;
var viewHeight = 594;
var sectionId = 'dynsection-1';
</script>
<script xlink:href="svgpan.js"/>
<svg id="graph" class="graph">
<g id="viewport">
<title>GraphicsTriangle</title>
<polygon fill="white" stroke="none" points="-4,4 -4,-590 231,-590 231,4 -4,4"/>
<!-- Node1 -->
<g id="node1" class="node"><title>Node1</title>
<polygon fill="#bfbfbf" stroke="black" points="77.5,-1 77.5,-91 182.5,-91 182.5,-1 77.5,-1"/>
<text text-anchor="middle" x="130" y="-79" font-family="Helvetica,sans-Serif" font-size="10.00">GraphicsTriangle</text>
<polyline fill="none" stroke="black" points="77.5,-72 182.5,-72 "/>
<text text-anchor="middle" x="130" y="-60" font-family="Helvetica,sans-Serif" font-size="10.00"> </text>
<polyline fill="none" stroke="black" points="77.5,-53 182.5,-53 "/>
<text text-anchor="start" x="85.5" y="-41" font-family="Helvetica,sans-Serif" font-size="10.00">+ GraphicsTriangle()</text>
<text text-anchor="start" x="85.5" y="-30" font-family="Helvetica,sans-Serif" font-size="10.00">+ first()</text>
<text text-anchor="start" x="85.5" y="-19" font-family="Helvetica,sans-Serif" font-size="10.00">+ second()</text>
<text text-anchor="start" x="85.5" y="-8" font-family="Helvetica,sans-Serif" font-size="10.00">+ third()</text>
</g>
<!-- Node2 -->
<g id="node2" class="node"><title>Node2</title>
<g id="a_node2"><a xlink:href="class_graphics_shape.html" target="_top" xlink:title="Une forme. ">
<polygon fill="white" stroke="black" points="81,-129 81,-197 179,-197 179,-129 81,-129"/>
<text text-anchor="middle" x="130" y="-185" font-family="Helvetica,sans-Serif" font-size="10.00">GraphicsShape</text>
<polyline fill="none" stroke="black" points="81,-178 179,-178 "/>
<text text-anchor="start" x="89" y="-166" font-family="Helvetica,sans-Serif" font-size="10.00"># m_points</text>
<polyline fill="none" stroke="black" points="81,-159 179,-159 "/>
<text text-anchor="start" x="89" y="-147" font-family="Helvetica,sans-Serif" font-size="10.00">+ GraphicsShape()</text>
<text text-anchor="start" x="89" y="-136" font-family="Helvetica,sans-Serif" font-size="10.00"># meDraw()</text>
</a>
</g>
</g>
<!-- Node2&#45;&gt;Node1 -->
<g id="edge1" class="edge"><title>Node2&#45;&gt;Node1</title>
<path fill="none" stroke="midnightblue" d="M130,-118.555C130,-109.646 130,-100.257 130,-91.3181"/>
<polygon fill="none" stroke="midnightblue" points="126.5,-118.737 130,-128.737 133.5,-118.737 126.5,-118.737"/>
</g>
<!-- Node3 -->
<g id="node3" class="node"><title>Node3</title>
<g id="a_node3"><a xlink:href="class_graphics_item.html" target="_top" xlink:title="Classe de baseLa classe GraphicsItem est la base de tout les éléments graphiques. ...">
<polygon fill="white" stroke="black" points="79.5,-235 79.5,-479 180.5,-479 180.5,-235 79.5,-235"/>
<text text-anchor="middle" x="130" y="-467" font-family="Helvetica,sans-Serif" font-size="10.00">GraphicsItem</text>
<polyline fill="none" stroke="black" points="79.5,-460 180.5,-460 "/>
<text text-anchor="middle" x="130" y="-448" font-family="Helvetica,sans-Serif" font-size="10.00"> </text>
<polyline fill="none" stroke="black" points="79.5,-441 180.5,-441 "/>
<text text-anchor="start" x="87.5" y="-429" font-family="Helvetica,sans-Serif" font-size="10.00">+ GraphicsItem()</text>
<text text-anchor="start" x="87.5" y="-418" font-family="Helvetica,sans-Serif" font-size="10.00">+ ~GraphicsItem()</text>
<text text-anchor="start" x="87.5" y="-407" font-family="Helvetica,sans-Serif" font-size="10.00">+ id()</text>
<text text-anchor="start" x="87.5" y="-396" font-family="Helvetica,sans-Serif" font-size="10.00">+ parentId()</text>
<text text-anchor="start" x="87.5" y="-385" font-family="Helvetica,sans-Serif" font-size="10.00">+ parent()</text>
<text text-anchor="start" x="87.5" y="-374" font-family="Helvetica,sans-Serif" font-size="10.00">+ setParent()</text>
<text text-anchor="start" x="87.5" y="-363" font-family="Helvetica,sans-Serif" font-size="10.00">+ children()</text>
<text text-anchor="start" x="87.5" y="-352" font-family="Helvetica,sans-Serif" font-size="10.00">+ position()</text>
<text text-anchor="start" x="87.5" y="-341" font-family="Helvetica,sans-Serif" font-size="10.00">+ position()</text>
<text text-anchor="start" x="87.5" y="-330" font-family="Helvetica,sans-Serif" font-size="10.00">+ color()</text>
<text text-anchor="start" x="87.5" y="-319" font-family="Helvetica,sans-Serif" font-size="10.00">et 19 de plus...</text>
<text text-anchor="start" x="87.5" y="-308" font-family="Helvetica,sans-Serif" font-size="10.00">+ focusItem()</text>
<text text-anchor="start" x="87.5" y="-297" font-family="Helvetica,sans-Serif" font-size="10.00">+ setFocusItem()</text>
<text text-anchor="start" x="87.5" y="-286" font-family="Helvetica,sans-Serif" font-size="10.00">+ make()</text>
<text text-anchor="start" x="87.5" y="-275" font-family="Helvetica,sans-Serif" font-size="10.00"># meDraw()</text>
<text text-anchor="start" x="87.5" y="-264" font-family="Helvetica,sans-Serif" font-size="10.00"># meUpdate()</text>
<text text-anchor="start" x="87.5" y="-253" font-family="Helvetica,sans-Serif" font-size="10.00"># meHandleEvent()</text>
<text text-anchor="start" x="87.5" y="-242" font-family="Helvetica,sans-Serif" font-size="10.00"># meIsOver()</text>
</a>
</g>
</g>
<!-- Node3&#45;&gt;Node2 -->
<g id="edge2" class="edge"><title>Node3&#45;&gt;Node2</title>
<path fill="none" stroke="midnightblue" d="M130,-224.773C130,-214.775 130,-205.369 130,-197.081"/>
<polygon fill="none" stroke="midnightblue" points="126.5,-224.948 130,-234.948 133.5,-224.948 126.5,-224.948"/>
</g>
<!-- Node4 -->
<g id="node4" class="node"><title>Node4</title>
<polygon fill="white" stroke="#bfbfbf" points="-0.5,-517 -0.5,-585 138.5,-585 138.5,-517 -0.5,-517"/>
<text text-anchor="start" x="7.5" y="-573" font-family="Helvetica,sans-Serif" font-size="10.00">std::enable_shared</text>
<text text-anchor="middle" x="69" y="-562" font-family="Helvetica,sans-Serif" font-size="10.00">_from_this&lt; GraphicsItem &gt;</text>
<polyline fill="none" stroke="#bfbfbf" points="-0.5,-555 138.5,-555 "/>
<text text-anchor="middle" x="69" y="-543" font-family="Helvetica,sans-Serif" font-size="10.00"> </text>
<polyline fill="none" stroke="#bfbfbf" points="-0.5,-536 138.5,-536 "/>
<text text-anchor="middle" x="69" y="-524" font-family="Helvetica,sans-Serif" font-size="10.00"> </text>
</g>
<!-- Node4&#45;&gt;Node3 -->
<g id="edge3" class="edge"><title>Node4&#45;&gt;Node3</title>
<path fill="none" stroke="midnightblue" d="M82.588,-507.231C85.343,-498.56 88.3672,-489.041 91.5134,-479.138"/>
<polygon fill="none" stroke="midnightblue" points="79.1786,-506.404 79.4863,-516.994 85.85,-508.523 79.1786,-506.404"/>
</g>
<!-- Node5 -->
<g id="node5" class="node"><title>Node5</title>
<polygon fill="white" stroke="#bfbfbf" points="156.5,-522.5 156.5,-579.5 227.5,-579.5 227.5,-522.5 156.5,-522.5"/>
<text text-anchor="middle" x="192" y="-567.5" font-family="Helvetica,sans-Serif" font-size="10.00">noncopyable</text>
<polyline fill="none" stroke="#bfbfbf" points="156.5,-560.5 227.5,-560.5 "/>
<text text-anchor="middle" x="192" y="-548.5" font-family="Helvetica,sans-Serif" font-size="10.00"> </text>
<polyline fill="none" stroke="#bfbfbf" points="156.5,-541.5 227.5,-541.5 "/>
<text text-anchor="middle" x="192" y="-529.5" font-family="Helvetica,sans-Serif" font-size="10.00"> </text>
</g>
<!-- Node5&#45;&gt;Node3 -->
<g id="edge4" class="edge"><title>Node5&#45;&gt;Node3</title>
<path fill="none" stroke="#8b1a1a" d="M180.033,-512.94C176.787,-502.889 173.087,-491.431 169.202,-479.401"/>
<polygon fill="none" stroke="#8b1a1a" points="176.713,-514.05 183.117,-522.491 183.375,-511.899 176.713,-514.05"/>
</g>
</g>
</svg>
        <g id="navigator" transform="translate(0 0)" fill="#404254">
                <rect fill="#f2f5e9" fill-opacity="0.5" stroke="#606060" stroke-width=".5" x="0" y="0" width="60" height="60"/>
                <use id="zoomplus" xlink:href="#zoomPlus" x="17" y="9" onmousedown="handleZoom(evt,'in')"/>
                <use id="zoomminus" xlink:href="#zoomMin" x="42" y="9" onmousedown="handleZoom(evt,'out')"/>
                <use id="reset" xlink:href="#resetDef" x="30" y="36" onmousedown="handleReset()"/>
                <g id="arrowUp" xlink:href="#dirArrow" transform="translate(30 24)" onmousedown="handlePan(0,-1)">
                  <use xlink:href="#rim" fill="#404040">
                        <set attributeName="fill" to="#808080" begin="arrowUp.mouseover" end="arrowUp.mouseout"/>
                  </use>
                  <path fill="none" stroke="white" stroke-width="1.5" d="M0,-3.0v7 M-2.5,-0.5L0,-3.0L2.5,-0.5"/>
                </g>
                <g id="arrowRight" xlink:href="#dirArrow" transform="rotate(90) translate(36 -43)" onmousedown="handlePan(1,0)">
                  <use xlink:href="#rim" fill="#404040">
                        <set attributeName="fill" to="#808080" begin="arrowRight.mouseover" end="arrowRight.mouseout"/>
                  </use>
                  <path fill="none" stroke="white" stroke-width="1.5" d="M0,-3.0v7 M-2.5,-0.5L0,-3.0L2.5,-0.5"/>
                </g>
                <g id="arrowDown" xlink:href="#dirArrow" transform="rotate(180) translate(-30 -48)" onmousedown="handlePan(0,1)">
                  <use xlink:href="#rim" fill="#404040">
                        <set attributeName="fill" to="#808080" begin="arrowDown.mouseover" end="arrowDown.mouseout"/>
                  </use>
                  <path fill="none" stroke="white" stroke-width="1.5" d="M0,-3.0v7 M-2.5,-0.5L0,-3.0L2.5,-0.5"/>
                </g>
                <g id="arrowLeft" xlink:href="#dirArrow" transform="rotate(270) translate(-36 17)" onmousedown="handlePan(-1,0)">
                  <use xlink:href="#rim" fill="#404040">
                        <set attributeName="fill" to="#808080" begin="arrowLeft.mouseover" end="arrowLeft.mouseout"/>
                  </use>
                  <path fill="none" stroke="white" stroke-width="1.5" d="M0,-3.0v7 M-2.5,-0.5L0,-3.0L2.5,-0.5"/>
                </g>
        </g>
        <svg viewBox="0 0 15 15" width="100%" height="30px" preserveAspectRatio="xMaxYMin meet">
         <g id="arrow_out" transform="scale(0.3 0.3)">
          <a xlink:href="class_graphics_triangle__coll__graph_org.svg" target="_base">
           <rect id="button" ry="5" rx="5" y="6" x="6" height="38" width="38"
                fill="#f2f5e9" fill-opacity="0.5" stroke="#606060" stroke-width="1.0"/>
           <path id="arrow"
             d="M 11.500037,31.436501 C 11.940474,20.09759 22.043105,11.32322 32.158766,21.979434 L 37.068811,17.246167 C 37.068811,17.246167 37.088388,32 37.088388,32 L 22.160133,31.978069 C 22.160133,31.978069 26.997745,27.140456 26.997745,27.140456 C 18.528582,18.264221 13.291696,25.230495 11.500037,31.436501 z"
             style="fill:#404040;"/>
          </a>
         </g>
        </svg>
</svg>
