<?xml version="1.0" encoding="UTF-8" standalone="no"?>
<!DOCTYPE svg PUBLIC "-//W3C//DTD SVG 1.1//EN"
 "http://www.w3.org/Graphics/SVG/1.1/DTD/svg11.dtd">
<!-- Generated by graphviz version 2.36.0 (20140111.2315)
 -->
<!-- Title: Canvas::drawCircle Pages: 1 -->
<svg width="366pt" height="140pt"
 viewBox="0.00 0.00 366.00 140.00" xmlns="http://www.w3.org/2000/svg" xmlns:xlink="http://www.w3.org/1999/xlink">
<g id="graph0" class="graph" transform="scale(1 1) rotate(0) translate(4 136)">
<title>Canvas::drawCircle</title>
<polygon fill="white" stroke="none" points="-4,4 -4,-136 362,-136 362,4 -4,4"/>
<!-- Node1 -->
<g id="node1" class="node"><title>Node1</title>
<polygon fill="#bfbfbf" stroke="black" points="0.5,-56.5 0.5,-75.5 103.5,-75.5 103.5,-56.5 0.5,-56.5"/>
<text text-anchor="middle" x="52" y="-63.5" font-family="Helvetica,sans-Serif" font-size="10.00">Canvas::drawCircle</text>
</g>
<!-- Node2 -->
<g id="node2" class="node"><title>Node2</title>
<g id="a_node2"><a xlink:href="class_canvas.html#a5d6c1ffe1d0279d24d13fb7956cc99a9" target="_top" xlink:title="Canvas::drawCircle">
<polygon fill="white" stroke="black" points="140.5,-112.5 140.5,-131.5 243.5,-131.5 243.5,-112.5 140.5,-112.5"/>
<text text-anchor="middle" x="192" y="-119.5" font-family="Helvetica,sans-Serif" font-size="10.00">Canvas::drawCircle</text>
</a>
</g>
</g>
<!-- Node1&#45;&gt;Node2 -->
<g id="edge1" class="edge"><title>Node1&#45;&gt;Node2</title>
<path fill="none" stroke="midnightblue" d="M74.6963,-75.5515C92.2284,-83.1912 117.588,-94.0647 140,-103 144.867,-104.94 150.019,-106.932 155.103,-108.861"/>
<polygon fill="midnightblue" stroke="midnightblue" points="154.113,-112.227 164.705,-112.464 156.572,-105.674 154.113,-112.227"/>
</g>
<!-- Node3 -->
<g id="node3" class="node"><title>Node3</title>
<g id="a_node3"><a xlink:href="class_point.html#a2aa897aa68c2f3e6df3a46738f27a0ac" target="_top" xlink:title="recupere la valeur de l&#39;absisse du Point. ">
<polygon fill="white" stroke="black" points="167,-56.5 167,-75.5 217,-75.5 217,-56.5 167,-56.5"/>
<text text-anchor="middle" x="192" y="-63.5" font-family="Helvetica,sans-Serif" font-size="10.00">Point::x</text>
</a>
</g>
</g>
<!-- Node1&#45;&gt;Node3 -->
<g id="edge2" class="edge"><title>Node1&#45;&gt;Node3</title>
<path fill="none" stroke="midnightblue" d="M103.603,-66C121.103,-66 140.306,-66 156.244,-66"/>
<polygon fill="midnightblue" stroke="midnightblue" points="156.696,-69.5001 166.696,-66 156.696,-62.5001 156.696,-69.5001"/>
</g>
<!-- Node5 -->
<g id="node5" class="node"><title>Node5</title>
<g id="a_node5"><a xlink:href="class_point.html#a2226d8a3fb283b0b3c1f69106df144ba" target="_top" xlink:title="Fonction recuperant le valeur de l&#39;ordonée. ">
<polygon fill="white" stroke="black" points="167,-0.5 167,-19.5 217,-19.5 217,-0.5 167,-0.5"/>
<text text-anchor="middle" x="192" y="-7.5" font-family="Helvetica,sans-Serif" font-size="10.00">Point::y</text>
</a>
</g>
</g>
<!-- Node1&#45;&gt;Node5 -->
<g id="edge5" class="edge"><title>Node1&#45;&gt;Node5</title>
<path fill="none" stroke="midnightblue" d="M76.723,-56.3733C99.1737,-47.2629 133.074,-33.5062 158.125,-23.3404"/>
<polygon fill="midnightblue" stroke="midnightblue" points="159.636,-26.5045 167.587,-19.5011 157.004,-20.0182 159.636,-26.5045"/>
</g>
<!-- Node3&#45;&gt;Node3 -->
<g id="edge4" class="edge"><title>Node3&#45;&gt;Node3</title>
<path fill="none" stroke="midnightblue" d="M172.58,-75.7571C163.132,-84.5653 169.605,-94 192,-94 206.346,-94 214.159,-90.128 215.437,-85.0292"/>
<polygon fill="midnightblue" stroke="midnightblue" points="218.607,-83.5415 211.42,-75.7571 212.184,-86.3243 218.607,-83.5415"/>
</g>
<!-- Node4 -->
<g id="node4" class="node"><title>Node4</title>
<g id="a_node4"><a xlink:href="class_point.html#a64a5fe8c9b1d1a1543aaa64031537380" target="_top" xlink:title="Point::isAlone">
<polygon fill="white" stroke="black" points="280.5,-28.5 280.5,-47.5 357.5,-47.5 357.5,-28.5 280.5,-28.5"/>
<text text-anchor="middle" x="319" y="-35.5" font-family="Helvetica,sans-Serif" font-size="10.00">Point::isAlone</text>
</a>
</g>
</g>
<!-- Node3&#45;&gt;Node4 -->
<g id="edge3" class="edge"><title>Node3&#45;&gt;Node4</title>
<path fill="none" stroke="midnightblue" d="M217.101,-60.6013C232.186,-57.2224 252.143,-52.752 270.324,-48.6795"/>
<polygon fill="midnightblue" stroke="midnightblue" points="271.206,-52.0687 280.199,-46.4674 269.676,-45.2379 271.206,-52.0687"/>
</g>
<!-- Node5&#45;&gt;Node4 -->
<g id="edge6" class="edge"><title>Node5&#45;&gt;Node4</title>
<path fill="none" stroke="midnightblue" d="M217.101,-15.3987C232.186,-18.7776 252.143,-23.248 270.324,-27.3205"/>
<polygon fill="midnightblue" stroke="midnightblue" points="269.676,-30.7621 280.199,-29.5326 271.206,-23.9313 269.676,-30.7621"/>
</g>
<!-- Node5&#45;&gt;Node5 -->
<g id="edge7" class="edge"><title>Node5&#45;&gt;Node5</title>
<path fill="none" stroke="midnightblue" d="M172.58,-19.7571C163.132,-28.5653 169.605,-38 192,-38 206.346,-38 214.159,-34.128 215.437,-29.0292"/>
<polygon fill="midnightblue" stroke="midnightblue" points="218.607,-27.5415 211.42,-19.7571 212.184,-30.3243 218.607,-27.5415"/>
</g>
</g>
</svg>
