<?xml version="1.0" encoding="UTF-8" standalone="no"?>
<!DOCTYPE svg PUBLIC "-//W3C//DTD SVG 1.1//EN"
 "http://www.w3.org/Graphics/SVG/1.1/DTD/svg11.dtd">
<!-- Generated by graphviz version 2.36.0 (20140111.2315)
 -->
<!-- Title: ToolsWindow Pages: 1 -->
<!--zoomable 758 -->
<svg id="main" version="1.1" xmlns="http://www.w3.org/2000/svg" xmlns:xlink="http://www.w3.org/1999/xlink" xml:space="preserve" onload="init(evt)">
<style type="text/css"><![CDATA[
.edge:hover path { stroke: red; }
.edge:hover polygon { stroke: red; fill: red; }
]]></style>
<script type="text/javascript"><![CDATA[
var edges = document.getElementsByTagName('g');
if (edges && edges.length) {
  for (var i=0;i<edges.length;i++) {
    if (edges[i].id.substr(0,4)=='edge') {
      edges[i].setAttribute('class','edge');
    }
  }
}
]]></script>
        <defs>
                <circle id="rim" cx="0" cy="0" r="7"/>
                <circle id="rim2" cx="0" cy="0" r="3.5"/>
                <g id="zoomPlus">
                        <use xlink:href="#rim" fill="#404040">
                                <set attributeName="fill" to="#808080" begin="zoomplus.mouseover" end="zoomplus.mouseout"/>
                        </use>
                        <path d="M-4,0h8M0,-4v8" fill="none" stroke="white" stroke-width="1.5" pointer-events="none"/>
                </g>
                <g id="zoomMin">
                        <use xlink:href="#rim" fill="#404040">
                                <set attributeName="fill" to="#808080" begin="zoomminus.mouseover" end="zoomminus.mouseout"/>
                        </use>
                        <path d="M-4,0h8" fill="none" stroke="white" stroke-width="1.5" pointer-events="none"/>
                </g>
                <g id="dirArrow">
                        <path fill="none" stroke="white" stroke-width="1.5" d="M0,-3.0v7 M-2.5,-0.5L0,-3.0L2.5,-0.5"/>
                </g>
               <g id="resetDef">
                       <use xlink:href="#rim2" fill="#404040">
                               <set attributeName="fill" to="#808080" begin="reset.mouseover" end="reset.mouseout"/>
                       </use>
               </g>
        </defs>

<script type="text/javascript">
var viewWidth = 235;
var viewHeight = 758;
var sectionId = 'dynsection-0';
</script>
<script xlink:href="svgpan.js"/>
<svg id="graph" class="graph">
<g id="viewport">
<title>ToolsWindow</title>
<polygon fill="white" stroke="none" points="-4,4 -4,-754 231,-754 231,4 -4,4"/>
<!-- Node1 -->
<g id="node1" class="node"><title>Node1</title>
<polygon fill="#bfbfbf" stroke="black" points="80,-1 80,-91 180,-91 180,-1 80,-1"/>
<text text-anchor="middle" x="130" y="-79" font-family="Helvetica,sans-Serif" font-size="10.00">ToolsWindow</text>
<polyline fill="none" stroke="black" points="80,-72 180,-72 "/>
<text text-anchor="middle" x="130" y="-60" font-family="Helvetica,sans-Serif" font-size="10.00"> </text>
<polyline fill="none" stroke="black" points="80,-53 180,-53 "/>
<text text-anchor="start" x="88" y="-41" font-family="Helvetica,sans-Serif" font-size="10.00">+ ToolsWindow()</text>
<text text-anchor="start" x="88" y="-30" font-family="Helvetica,sans-Serif" font-size="10.00">+ minimumWidth()</text>
<text text-anchor="start" x="88" y="-19" font-family="Helvetica,sans-Serif" font-size="10.00">+ minimumHeight()</text>
<text text-anchor="start" x="88" y="-8" font-family="Helvetica,sans-Serif" font-size="10.00"># meDraw()</text>
</g>
<!-- Node2 -->
<g id="node2" class="node"><title>Node2</title>
<g id="a_node2"><a xlink:href="class_widget.html" target="_top" xlink:title="Classe de base. ">
<polygon fill="white" stroke="black" points="57,-128.5 57,-361.5 203,-361.5 203,-128.5 57,-128.5"/>
<text text-anchor="middle" x="130" y="-349.5" font-family="Helvetica,sans-Serif" font-size="10.00">Widget</text>
<polyline fill="none" stroke="black" points="57,-342.5 203,-342.5 "/>
<text text-anchor="start" x="65" y="-330.5" font-family="Helvetica,sans-Serif" font-size="10.00"># m_minimumWidthChanged</text>
<text text-anchor="start" x="65" y="-319.5" font-family="Helvetica,sans-Serif" font-size="10.00"># m_minimumHeightChanged</text>
<polyline fill="none" stroke="black" points="57,-312.5 203,-312.5 "/>
<text text-anchor="start" x="65" y="-300.5" font-family="Helvetica,sans-Serif" font-size="10.00">+ Widget()</text>
<text text-anchor="start" x="65" y="-289.5" font-family="Helvetica,sans-Serif" font-size="10.00">+ width()</text>
<text text-anchor="start" x="65" y="-278.5" font-family="Helvetica,sans-Serif" font-size="10.00">+ setWidth()</text>
<text text-anchor="start" x="65" y="-267.5" font-family="Helvetica,sans-Serif" font-size="10.00">+ height()</text>
<text text-anchor="start" x="65" y="-256.5" font-family="Helvetica,sans-Serif" font-size="10.00">+ setHeight()</text>
<text text-anchor="start" x="65" y="-245.5" font-family="Helvetica,sans-Serif" font-size="10.00">+ minimumWidth()</text>
<text text-anchor="start" x="65" y="-234.5" font-family="Helvetica,sans-Serif" font-size="10.00">+ minimumHeight()</text>
<text text-anchor="start" x="65" y="-223.5" font-family="Helvetica,sans-Serif" font-size="10.00">+ widthChanged()</text>
<text text-anchor="start" x="65" y="-212.5" font-family="Helvetica,sans-Serif" font-size="10.00">+ heightChanged()</text>
<text text-anchor="start" x="65" y="-201.5" font-family="Helvetica,sans-Serif" font-size="10.00">+ minimumWidthChanged()</text>
<text text-anchor="start" x="65" y="-190.5" font-family="Helvetica,sans-Serif" font-size="10.00">+ minimumHeightChanged()</text>
<text text-anchor="start" x="65" y="-179.5" font-family="Helvetica,sans-Serif" font-size="10.00"># meIsOver()</text>
<text text-anchor="start" x="65" y="-168.5" font-family="Helvetica,sans-Serif" font-size="10.00">* widthChanged()</text>
<text text-anchor="start" x="65" y="-157.5" font-family="Helvetica,sans-Serif" font-size="10.00">* heightChanged()</text>
<text text-anchor="start" x="65" y="-146.5" font-family="Helvetica,sans-Serif" font-size="10.00">* minimumWidthChanged()</text>
<text text-anchor="start" x="65" y="-135.5" font-family="Helvetica,sans-Serif" font-size="10.00">* minimumHeightChanged()</text>
</a>
</g>
</g>
<!-- Node2&#45;&gt;Node1 -->
<g id="edge1" class="edge"><title>Node2&#45;&gt;Node1</title>
<path fill="none" stroke="midnightblue" d="M130,-118.259C130,-108.769 130,-99.6455 130,-91.2797"/>
<polygon fill="none" stroke="midnightblue" points="126.5,-118.265 130,-128.265 133.5,-118.265 126.5,-118.265"/>
</g>
<!-- Node3 -->
<g id="node3" class="node"><title>Node3</title>
<g id="a_node3"><a xlink:href="class_graphics_item.html" target="_top" xlink:title="Classe de baseLa classe GraphicsItem est la base de tout les éléments graphiques. ...">
<polygon fill="white" stroke="black" points="79.5,-399 79.5,-643 180.5,-643 180.5,-399 79.5,-399"/>
<text text-anchor="middle" x="130" y="-631" font-family="Helvetica,sans-Serif" font-size="10.00">GraphicsItem</text>
<polyline fill="none" stroke="black" points="79.5,-624 180.5,-624 "/>
<text text-anchor="middle" x="130" y="-612" font-family="Helvetica,sans-Serif" font-size="10.00"> </text>
<polyline fill="none" stroke="black" points="79.5,-605 180.5,-605 "/>
<text text-anchor="start" x="87.5" y="-593" font-family="Helvetica,sans-Serif" font-size="10.00">+ GraphicsItem()</text>
<text text-anchor="start" x="87.5" y="-582" font-family="Helvetica,sans-Serif" font-size="10.00">+ ~GraphicsItem()</text>
<text text-anchor="start" x="87.5" y="-571" font-family="Helvetica,sans-Serif" font-size="10.00">+ id()</text>
<text text-anchor="start" x="87.5" y="-560" font-family="Helvetica,sans-Serif" font-size="10.00">+ parentId()</text>
<text text-anchor="start" x="87.5" y="-549" font-family="Helvetica,sans-Serif" font-size="10.00">+ parent()</text>
<text text-anchor="start" x="87.5" y="-538" font-family="Helvetica,sans-Serif" font-size="10.00">+ setParent()</text>
<text text-anchor="start" x="87.5" y="-527" font-family="Helvetica,sans-Serif" font-size="10.00">+ children()</text>
<text text-anchor="start" x="87.5" y="-516" font-family="Helvetica,sans-Serif" font-size="10.00">+ position()</text>
<text text-anchor="start" x="87.5" y="-505" font-family="Helvetica,sans-Serif" font-size="10.00">+ position()</text>
<text text-anchor="start" x="87.5" y="-494" font-family="Helvetica,sans-Serif" font-size="10.00">+ color()</text>
<text text-anchor="start" x="87.5" y="-483" font-family="Helvetica,sans-Serif" font-size="10.00">et 19 de plus...</text>
<text text-anchor="start" x="87.5" y="-472" font-family="Helvetica,sans-Serif" font-size="10.00">+ focusItem()</text>
<text text-anchor="start" x="87.5" y="-461" font-family="Helvetica,sans-Serif" font-size="10.00">+ setFocusItem()</text>
<text text-anchor="start" x="87.5" y="-450" font-family="Helvetica,sans-Serif" font-size="10.00">+ make()</text>
<text text-anchor="start" x="87.5" y="-439" font-family="Helvetica,sans-Serif" font-size="10.00"># meDraw()</text>
<text text-anchor="start" x="87.5" y="-428" font-family="Helvetica,sans-Serif" font-size="10.00"># meUpdate()</text>
<text text-anchor="start" x="87.5" y="-417" font-family="Helvetica,sans-Serif" font-size="10.00"># meHandleEvent()</text>
<text text-anchor="start" x="87.5" y="-406" font-family="Helvetica,sans-Serif" font-size="10.00"># meIsOver()</text>
</a>
</g>
</g>
<!-- Node3&#45;&gt;Node2 -->
<g id="edge2" class="edge"><title>Node3&#45;&gt;Node2</title>
<path fill="none" stroke="midnightblue" d="M130,-388.495C130,-379.505 130,-370.483 130,-361.585"/>
<polygon fill="none" stroke="midnightblue" points="126.5,-388.623 130,-398.623 133.5,-388.623 126.5,-388.623"/>
</g>
<!-- Node4 -->
<g id="node4" class="node"><title>Node4</title>
<polygon fill="white" stroke="#bfbfbf" points="-0.5,-681 -0.5,-749 138.5,-749 138.5,-681 -0.5,-681"/>
<text text-anchor="start" x="7.5" y="-737" font-family="Helvetica,sans-Serif" font-size="10.00">std::enable_shared</text>
<text text-anchor="middle" x="69" y="-726" font-family="Helvetica,sans-Serif" font-size="10.00">_from_this&lt; GraphicsItem &gt;</text>
<polyline fill="none" stroke="#bfbfbf" points="-0.5,-719 138.5,-719 "/>
<text text-anchor="middle" x="69" y="-707" font-family="Helvetica,sans-Serif" font-size="10.00"> </text>
<polyline fill="none" stroke="#bfbfbf" points="-0.5,-700 138.5,-700 "/>
<text text-anchor="middle" x="69" y="-688" font-family="Helvetica,sans-Serif" font-size="10.00"> </text>
</g>
<!-- Node4&#45;&gt;Node3 -->
<g id="edge3" class="edge"><title>Node4&#45;&gt;Node3</title>
<path fill="none" stroke="midnightblue" d="M82.588,-671.231C85.343,-662.56 88.3672,-653.041 91.5134,-643.138"/>
<polygon fill="none" stroke="midnightblue" points="79.1786,-670.404 79.4863,-680.994 85.85,-672.523 79.1786,-670.404"/>
</g>
<!-- Node5 -->
<g id="node5" class="node"><title>Node5</title>
<polygon fill="white" stroke="#bfbfbf" points="156.5,-686.5 156.5,-743.5 227.5,-743.5 227.5,-686.5 156.5,-686.5"/>
<text text-anchor="middle" x="192" y="-731.5" font-family="Helvetica,sans-Serif" font-size="10.00">noncopyable</text>
<polyline fill="none" stroke="#bfbfbf" points="156.5,-724.5 227.5,-724.5 "/>
<text text-anchor="middle" x="192" y="-712.5" font-family="Helvetica,sans-Serif" font-size="10.00"> </text>
<polyline fill="none" stroke="#bfbfbf" points="156.5,-705.5 227.5,-705.5 "/>
<text text-anchor="middle" x="192" y="-693.5" font-family="Helvetica,sans-Serif" font-size="10.00"> </text>
</g>
<!-- Node5&#45;&gt;Node3 -->
<g id="edge4" class="edge"><title>Node5&#45;&gt;Node3</title>
<path fill="none" stroke="#8b1a1a" d="M180.033,-676.94C176.787,-666.889 173.087,-655.431 169.202,-643.401"/>
<polygon fill="none" stroke="#8b1a1a" points="176.713,-678.05 183.117,-686.491 183.375,-675.899 176.713,-678.05"/>
</g>
</g>
</svg>
        <g id="navigator" transform="translate(0 0)" fill="#404254">
                <rect fill="#f2f5e9" fill-opacity="0.5" stroke="#606060" stroke-width=".5" x="0" y="0" width="60" height="60"/>
                <use id="zoomplus" xlink:href="#zoomPlus" x="17" y="9" onmousedown="handleZoom(evt,'in')"/>
                <use id="zoomminus" xlink:href="#zoomMin" x="42" y="9" onmousedown="handleZoom(evt,'out')"/>
                <use id="reset" xlink:href="#resetDef" x="30" y="36" onmousedown="handleReset()"/>
                <g id="arrowUp" xlink:href="#dirArrow" transform="translate(30 24)" onmousedown="handlePan(0,-1)">
                  <use xlink:href="#rim" fill="#404040">
                        <set attributeName="fill" to="#808080" begin="arrowUp.mouseover" end="arrowUp.mouseout"/>
                  </use>
                  <path fill="none" stroke="white" stroke-width="1.5" d="M0,-3.0v7 M-2.5,-0.5L0,-3.0L2.5,-0.5"/>
                </g>
                <g id="arrowRight" xlink:href="#dirArrow" transform="rotate(90) translate(36 -43)" onmousedown="handlePan(1,0)">
                  <use xlink:href="#rim" fill="#404040">
                        <set attributeName="fill" to="#808080" begin="arrowRight.mouseover" end="arrowRight.mouseout"/>
                  </use>
                  <path fill="none" stroke="white" stroke-width="1.5" d="M0,-3.0v7 M-2.5,-0.5L0,-3.0L2.5,-0.5"/>
                </g>
                <g id="arrowDown" xlink:href="#dirArrow" transform="rotate(180) translate(-30 -48)" onmousedown="handlePan(0,1)">
                  <use xlink:href="#rim" fill="#404040">
                        <set attributeName="fill" to="#808080" begin="arrowDown.mouseover" end="arrowDown.mouseout"/>
                  </use>
                  <path fill="none" stroke="white" stroke-width="1.5" d="M0,-3.0v7 M-2.5,-0.5L0,-3.0L2.5,-0.5"/>
                </g>
                <g id="arrowLeft" xlink:href="#dirArrow" transform="rotate(270) translate(-36 17)" onmousedown="handlePan(-1,0)">
                  <use xlink:href="#rim" fill="#404040">
                        <set attributeName="fill" to="#808080" begin="arrowLeft.mouseover" end="arrowLeft.mouseout"/>
                  </use>
                  <path fill="none" stroke="white" stroke-width="1.5" d="M0,-3.0v7 M-2.5,-0.5L0,-3.0L2.5,-0.5"/>
                </g>
        </g>
        <svg viewBox="0 0 15 15" width="100%" height="30px" preserveAspectRatio="xMaxYMin meet">
         <g id="arrow_out" transform="scale(0.3 0.3)">
          <a xlink:href="class_tools_window__inherit__graph_org.svg" target="_base">
           <rect id="button" ry="5" rx="5" y="6" x="6" height="38" width="38"
                fill="#f2f5e9" fill-opacity="0.5" stroke="#606060" stroke-width="1.0"/>
           <path id="arrow"
             d="M 11.500037,31.436501 C 11.940474,20.09759 22.043105,11.32322 32.158766,21.979434 L 37.068811,17.246167 C 37.068811,17.246167 37.088388,32 37.088388,32 L 22.160133,31.978069 C 22.160133,31.978069 26.997745,27.140456 26.997745,27.140456 C 18.528582,18.264221 13.291696,25.230495 11.500037,31.436501 z"
             style="fill:#404040;"/>
          </a>
         </g>
        </svg>
</svg>
