<?xml version="1.0" encoding="UTF-8" standalone="no"?>
<!DOCTYPE svg PUBLIC "-//W3C//DTD SVG 1.1//EN"
 "http://www.w3.org/Graphics/SVG/1.1/DTD/svg11.dtd">
<!-- Generated by graphviz version 2.36.0 (20140111.2315)
 -->
<!-- Title: Color::Color Pages: 1 -->
<svg width="184pt" height="66pt"
 viewBox="0.00 0.00 184.00 66.00" xmlns="http://www.w3.org/2000/svg" xmlns:xlink="http://www.w3.org/1999/xlink">
<g id="graph0" class="graph" transform="scale(1 1) rotate(0) translate(4 62)">
<title>Color::Color</title>
<polygon fill="white" stroke="none" points="-4,4 -4,-62 180,-62 180,4 -4,4"/>
<!-- Node1 -->
<g id="node1" class="node"><title>Node1</title>
<polygon fill="#bfbfbf" stroke="black" points="0.5,-19.5 0.5,-38.5 69.5,-38.5 69.5,-19.5 0.5,-19.5"/>
<text text-anchor="middle" x="35" y="-26.5" font-family="Helvetica,sans-Serif" font-size="10.00">Color::Color</text>
</g>
<!-- Node2 -->
<g id="node2" class="node"><title>Node2</title>
<g id="a_node2"><a xlink:href="class_color.html#a0936edb38b2c1c3d2de4214aad6a7ee2" target="_top" xlink:title="Construit une couleur avec une couleur prédéfinie. ">
<polygon fill="white" stroke="black" points="106.5,-38.5 106.5,-57.5 175.5,-57.5 175.5,-38.5 106.5,-38.5"/>
<text text-anchor="middle" x="141" y="-45.5" font-family="Helvetica,sans-Serif" font-size="10.00">Color::Color</text>
</a>
</g>
</g>
<!-- Node1&#45;&gt;Node2 -->
<g id="edge1" class="edge"><title>Node1&#45;&gt;Node2</title>
<path fill="none" stroke="midnightblue" d="M69.7658,-35.1688C78.2983,-36.7276 87.5807,-38.4234 96.5181,-40.0562"/>
<polygon fill="midnightblue" stroke="midnightblue" points="95.9374,-43.508 106.404,-41.8622 97.1955,-36.6219 95.9374,-43.508"/>
</g>
<!-- Node3 -->
<g id="node3" class="node"><title>Node3</title>
<g id="a_node3"><a xlink:href="class_color.html#a651f880388f41a65d692194c3cf2b2e2" target="_top" xlink:title="Recupere la valeur de la couleur en hexadecimal. ">
<polygon fill="white" stroke="black" points="107.5,-0.5 107.5,-19.5 174.5,-19.5 174.5,-0.5 107.5,-0.5"/>
<text text-anchor="middle" x="141" y="-7.5" font-family="Helvetica,sans-Serif" font-size="10.00">Color::hexa</text>
</a>
</g>
</g>
<!-- Node1&#45;&gt;Node3 -->
<g id="edge2" class="edge"><title>Node1&#45;&gt;Node3</title>
<path fill="none" stroke="midnightblue" d="M69.7658,-22.8312C78.6514,-21.2079 88.3502,-19.436 97.6257,-17.7415"/>
<polygon fill="midnightblue" stroke="midnightblue" points="98.2578,-21.184 107.466,-15.9437 96.9997,-14.298 98.2578,-21.184"/>
</g>
</g>
</svg>
