<?xml version="1.0" encoding="UTF-8" standalone="no"?>
<!DOCTYPE svg PUBLIC "-//W3C//DTD SVG 1.1//EN"
 "http://www.w3.org/Graphics/SVG/1.1/DTD/svg11.dtd">
<!-- Generated by graphviz version 2.36.0 (20140111.2315)
 -->
<!-- Title: Point::x Pages: 1 -->
<svg width="938pt" height="752pt"
 viewBox="0.00 0.00 938.00 752.00" xmlns="http://www.w3.org/2000/svg" xmlns:xlink="http://www.w3.org/1999/xlink">
<g id="graph0" class="graph" transform="scale(1 1) rotate(0) translate(4 748)">
<title>Point::x</title>
<polygon fill="white" stroke="none" points="-4,4 -4,-748 934,-748 934,4 -4,4"/>
<!-- Node1 -->
<g id="node1" class="node"><title>Node1</title>
<polygon fill="#bfbfbf" stroke="black" points="0,-427.5 0,-446.5 50,-446.5 50,-427.5 0,-427.5"/>
<text text-anchor="middle" x="25" y="-434.5" font-family="Helvetica,sans-Serif" font-size="10.00">Point::x</text>
</g>
<!-- Node2 -->
<g id="node2" class="node"><title>Node2</title>
<g id="a_node2"><a xlink:href="class_canvas.html#a4830e2b1c25e309489c489bad59ea9e1" target="_top" xlink:title="Canvas::drawPoint">
<polygon fill="white" stroke="black" points="102,-724.5 102,-743.5 202,-743.5 202,-724.5 102,-724.5"/>
<text text-anchor="middle" x="152" y="-731.5" font-family="Helvetica,sans-Serif" font-size="10.00">Canvas::drawPoint</text>
</a>
</g>
</g>
<!-- Node1&#45;&gt;Node2 -->
<g id="edge1" class="edge"><title>Node1&#45;&gt;Node2</title>
<path fill="none" stroke="midnightblue" d="M27.6922,-457.001C32.9272,-514.244 50.6754,-677.043 86,-715 90.4053,-719.734 95.9179,-723.31 101.859,-726.009"/>
<polygon fill="midnightblue" stroke="midnightblue" points="31.1529,-456.402 26.7867,-446.749 24.1801,-457.018 31.1529,-456.402"/>
</g>
<!-- Node3 -->
<g id="node3" class="node"><title>Node3</title>
<g id="a_node3"><a xlink:href="class_canvas.html#aa379d9765fc40e770309001da99832c3" target="_top" xlink:title="Canvas::drawLine">
<polygon fill="white" stroke="black" points="104.5,-686.5 104.5,-705.5 199.5,-705.5 199.5,-686.5 104.5,-686.5"/>
<text text-anchor="middle" x="152" y="-693.5" font-family="Helvetica,sans-Serif" font-size="10.00">Canvas::drawLine</text>
</a>
</g>
</g>
<!-- Node1&#45;&gt;Node3 -->
<g id="edge2" class="edge"><title>Node1&#45;&gt;Node3</title>
<path fill="none" stroke="midnightblue" d="M28.4258,-456.946C35.0963,-508.621 55.2836,-645.049 86,-677 91.0518,-682.255 97.4691,-686.079 104.294,-688.857"/>
<polygon fill="midnightblue" stroke="midnightblue" points="31.8651,-456.243 27.1456,-446.757 24.9197,-457.115 31.8651,-456.243"/>
</g>
<!-- Node4 -->
<g id="node4" class="node"><title>Node4</title>
<g id="a_node4"><a xlink:href="class_canvas.html#a347a381b7cd7381a84f49a8bdd77244c" target="_top" xlink:title="Canvas::drawRectangle">
<polygon fill="white" stroke="black" points="91,-648.5 91,-667.5 213,-667.5 213,-648.5 91,-648.5"/>
<text text-anchor="middle" x="152" y="-655.5" font-family="Helvetica,sans-Serif" font-size="10.00">Canvas::drawRectangle</text>
</a>
</g>
</g>
<!-- Node1&#45;&gt;Node4 -->
<g id="edge3" class="edge"><title>Node1&#45;&gt;Node4</title>
<path fill="none" stroke="midnightblue" d="M25.9674,-456.686C27.0021,-496.779 35.1606,-588.381 86,-639 89.9158,-642.899 94.5847,-646.006 99.5982,-648.482"/>
<polygon fill="midnightblue" stroke="midnightblue" points="29.4663,-456.567 25.835,-446.614 22.4669,-456.659 29.4663,-456.567"/>
</g>
<!-- Node5 -->
<g id="node5" class="node"><title>Node5</title>
<g id="a_node5"><a xlink:href="class_canvas.html#a02f659c0cb7809f6dbb18746eb547778" target="_top" xlink:title="Canvas::drawCircle">
<polygon fill="white" stroke="black" points="100.5,-610.5 100.5,-629.5 203.5,-629.5 203.5,-610.5 100.5,-610.5"/>
<text text-anchor="middle" x="152" y="-617.5" font-family="Helvetica,sans-Serif" font-size="10.00">Canvas::drawCircle</text>
</a>
</g>
</g>
<!-- Node1&#45;&gt;Node5 -->
<g id="edge4" class="edge"><title>Node1&#45;&gt;Node5</title>
<path fill="none" stroke="midnightblue" d="M27.6006,-456.954C31.4406,-491.362 44.2333,-561.916 86,-601 90.2064,-604.936 95.184,-608.062 100.483,-610.543"/>
<polygon fill="midnightblue" stroke="midnightblue" points="31.0618,-456.384 26.6126,-446.769 24.0945,-457.06 31.0618,-456.384"/>
</g>
<!-- Node6 -->
<g id="node6" class="node"><title>Node6</title>
<g id="a_node6"><a xlink:href="class_canvas.html#a7790d284aece3ffb4455af3846521e5b" target="_top" xlink:title="Canvas::drawTriangle">
<polygon fill="white" stroke="black" points="96,-572.5 96,-591.5 208,-591.5 208,-572.5 96,-572.5"/>
<text text-anchor="middle" x="152" y="-579.5" font-family="Helvetica,sans-Serif" font-size="10.00">Canvas::drawTriangle</text>
</a>
</g>
</g>
<!-- Node1&#45;&gt;Node6 -->
<g id="edge5" class="edge"><title>Node1&#45;&gt;Node6</title>
<path fill="none" stroke="midnightblue" d="M30.0238,-456.571C36.7486,-484.316 52.9255,-534.836 86,-563 90.5652,-566.887 95.8911,-569.98 101.494,-572.44"/>
<polygon fill="midnightblue" stroke="midnightblue" points="33.3719,-455.506 27.7631,-446.518 26.5424,-457.042 33.3719,-455.506"/>
</g>
<!-- Node7 -->
<g id="node7" class="node"><title>Node7</title>
<g id="a_node7"><a xlink:href="class_canvas.html#a34af1e9202967cbb4088e18296af8296" target="_top" xlink:title="Canvas::drawText">
<polygon fill="white" stroke="black" points="103.5,-534.5 103.5,-553.5 200.5,-553.5 200.5,-534.5 103.5,-534.5"/>
<text text-anchor="middle" x="152" y="-541.5" font-family="Helvetica,sans-Serif" font-size="10.00">Canvas::drawText</text>
</a>
</g>
</g>
<!-- Node1&#45;&gt;Node7 -->
<g id="edge6" class="edge"><title>Node1&#45;&gt;Node7</title>
<path fill="none" stroke="midnightblue" d="M34.1109,-455.891C43.6673,-475.939 61.4149,-507.136 86,-525 91.3262,-528.87 97.4326,-531.956 103.723,-534.416"/>
<polygon fill="midnightblue" stroke="midnightblue" points="37.1912,-454.21 29.8673,-446.554 30.8184,-457.106 37.1912,-454.21"/>
</g>
<!-- Node8 -->
<g id="node8" class="node"><title>Node8</title>
<g id="a_node8"><a xlink:href="class_graphics_circle.html#a8533b7a4eb72f0063e98d8ad94210f16" target="_top" xlink:title="GraphicsCircle::meDraw">
<polygon fill="white" stroke="black" points="90,-496.5 90,-515.5 214,-515.5 214,-496.5 90,-496.5"/>
<text text-anchor="middle" x="152" y="-503.5" font-family="Helvetica,sans-Serif" font-size="10.00">GraphicsCircle::meDraw</text>
</a>
</g>
</g>
<!-- Node1&#45;&gt;Node8 -->
<g id="edge7" class="edge"><title>Node1&#45;&gt;Node8</title>
<path fill="none" stroke="midnightblue" d="M42.7671,-453.704C54.1404,-464.234 69.9722,-477.417 86,-486 93.8062,-490.18 102.618,-493.628 111.175,-496.413"/>
<polygon fill="midnightblue" stroke="midnightblue" points="44.9845,-450.982 35.3345,-446.608 40.1509,-456.045 44.9845,-450.982"/>
</g>
<!-- Node9 -->
<g id="node9" class="node"><title>Node9</title>
<g id="a_node9"><a xlink:href="class_graphics_rectangle.html#ab7b6075e46e61d99dc9569219f1079bd" target="_top" xlink:title="GraphicsRectangle::\lwidth">
<polygon fill="white" stroke="black" points="99,-447 99,-477 205,-477 205,-447 99,-447"/>
<text text-anchor="start" x="107" y="-465" font-family="Helvetica,sans-Serif" font-size="10.00">GraphicsRectangle::</text>
<text text-anchor="middle" x="152" y="-454" font-family="Helvetica,sans-Serif" font-size="10.00">width</text>
</a>
</g>
</g>
<!-- Node1&#45;&gt;Node9 -->
<g id="edge8" class="edge"><title>Node1&#45;&gt;Node9</title>
<path fill="none" stroke="midnightblue" d="M60.0756,-443.815C72.0081,-446.202 85.6969,-448.939 98.7695,-451.554"/>
<polygon fill="midnightblue" stroke="midnightblue" points="60.5935,-440.349 50.1013,-441.82 59.2206,-447.214 60.5935,-440.349"/>
</g>
<!-- Node10 -->
<g id="node10" class="node"><title>Node10</title>
<g id="a_node10"><a xlink:href="class_graphics_square.html#a14374df804233349ce8654bbe41531e7" target="_top" xlink:title="GraphicsSquare::Graphics\lSquare">
<polygon fill="white" stroke="black" points="86.5,-398 86.5,-428 217.5,-428 217.5,-398 86.5,-398"/>
<text text-anchor="start" x="94.5" y="-416" font-family="Helvetica,sans-Serif" font-size="10.00">GraphicsSquare::Graphics</text>
<text text-anchor="middle" x="152" y="-405" font-family="Helvetica,sans-Serif" font-size="10.00">Square</text>
</a>
</g>
</g>
<!-- Node1&#45;&gt;Node10 -->
<g id="edge9" class="edge"><title>Node1&#45;&gt;Node10</title>
<path fill="none" stroke="midnightblue" d="M60.0181,-430.469C68.2473,-428.889 77.3146,-427.148 86.4404,-425.395"/>
<polygon fill="midnightblue" stroke="midnightblue" points="59.2619,-427.05 50.1013,-432.373 60.5819,-433.924 59.2619,-427.05"/>
</g>
<!-- Node11 -->
<g id="node11" class="node"><title>Node11</title>
<g id="a_node11"><a xlink:href="class_point.html#ac5f7b13934e6e617bd656b8bcf17c3cf" target="_top" xlink:title="Point::setAbsolute">
<polygon fill="white" stroke="black" points="446.5,-378.5 446.5,-397.5 543.5,-397.5 543.5,-378.5 446.5,-378.5"/>
<text text-anchor="middle" x="495" y="-385.5" font-family="Helvetica,sans-Serif" font-size="10.00">Point::setAbsolute</text>
</a>
</g>
</g>
<!-- Node1&#45;&gt;Node11 -->
<g id="edge10" class="edge"><title>Node1&#45;&gt;Node11</title>
<path fill="none" stroke="midnightblue" d="M41.3258,-419.802C52.4628,-408.665 68.5851,-395.133 86,-389 88.1009,-388.26 339.045,-388.066 446.286,-388.016"/>
<polygon fill="midnightblue" stroke="midnightblue" points="38.5044,-417.69 34.1503,-427.349 43.5774,-422.514 38.5044,-417.69"/>
</g>
<!-- Node12 -->
<g id="node12" class="node"><title>Node12</title>
<g id="a_node12"><a xlink:href="class_point.html#a43923c490fb5439d7d8a041e86520c34" target="_top" xlink:title="permet la modification des valeurs du point. ">
<polygon fill="white" stroke="black" points="122.5,-321.5 122.5,-340.5 181.5,-340.5 181.5,-321.5 122.5,-321.5"/>
<text text-anchor="middle" x="152" y="-328.5" font-family="Helvetica,sans-Serif" font-size="10.00">Point::set</text>
</a>
</g>
</g>
<!-- Node1&#45;&gt;Node12 -->
<g id="edge11" class="edge"><title>Node1&#45;&gt;Node12</title>
<path fill="none" stroke="midnightblue" d="M35.2791,-418.59C45.4304,-400.148 63.3214,-372.112 86,-355 96.6588,-346.957 110.295,-341.377 122.322,-337.636"/>
<polygon fill="midnightblue" stroke="midnightblue" points="32.156,-417.009 30.5729,-427.485 38.3433,-420.283 32.156,-417.009"/>
</g>
<!-- Node31 -->
<g id="node31" class="node"><title>Node31</title>
<g id="a_node31"><a xlink:href="_point_8cpp.html#a872cb140a1e5f546a31b4b3d891b765a" target="_top" xlink:title="Surchage de l&#39;operateur ==. ">
<polygon fill="white" stroke="black" points="120,-283.5 120,-302.5 184,-302.5 184,-283.5 120,-283.5"/>
<text text-anchor="middle" x="152" y="-290.5" font-family="Helvetica,sans-Serif" font-size="10.00">operator==</text>
</a>
</g>
</g>
<!-- Node1&#45;&gt;Node31 -->
<g id="edge35" class="edge"><title>Node1&#45;&gt;Node31</title>
<path fill="none" stroke="midnightblue" d="M30.1701,-417.175C37.0104,-389.563 53.2573,-339.794 86,-312 95.5009,-303.935 108.278,-299.291 119.989,-296.618"/>
<polygon fill="midnightblue" stroke="midnightblue" points="26.6924,-416.681 27.86,-427.212 33.514,-418.251 26.6924,-416.681"/>
</g>
<!-- Node32 -->
<g id="node32" class="node"><title>Node32</title>
<g id="a_node32"><a xlink:href="_point_8cpp.html#a4158330ef851082d91a82eefd03aa183" target="_top" xlink:title="Surchage de l&#39;operateur +. ">
<polygon fill="white" stroke="black" points="123,-245.5 123,-264.5 181,-264.5 181,-245.5 123,-245.5"/>
<text text-anchor="middle" x="152" y="-252.5" font-family="Helvetica,sans-Serif" font-size="10.00">operator+</text>
</a>
</g>
</g>
<!-- Node1&#45;&gt;Node32 -->
<g id="edge36" class="edge"><title>Node1&#45;&gt;Node32</title>
<path fill="none" stroke="midnightblue" d="M27.6392,-417.165C31.5385,-382.962 44.4194,-312.833 86,-274 95.9673,-264.691 110.248,-259.918 122.886,-257.48"/>
<polygon fill="midnightblue" stroke="midnightblue" points="24.1392,-416.992 26.6327,-427.289 31.1048,-417.685 24.1392,-416.992"/>
</g>
<!-- Node33 -->
<g id="node33" class="node"><title>Node33</title>
<g id="a_node33"><a xlink:href="_point_8cpp.html#af304a4bde169f417ea02e56d3d4b7258" target="_top" xlink:title="Surchage de l&#39;operateur &#45;. ">
<polygon fill="white" stroke="black" points="124.5,-207.5 124.5,-226.5 179.5,-226.5 179.5,-207.5 124.5,-207.5"/>
<text text-anchor="middle" x="152" y="-214.5" font-family="Helvetica,sans-Serif" font-size="10.00">operator&#45;</text>
</a>
</g>
</g>
<!-- Node1&#45;&gt;Node33 -->
<g id="edge37" class="edge"><title>Node1&#45;&gt;Node33</title>
<path fill="none" stroke="midnightblue" d="M25.9998,-417.409C27.0943,-377.51 35.3576,-286.354 86,-236 96.0879,-225.969 111.161,-221.176 124.253,-218.91"/>
<polygon fill="midnightblue" stroke="midnightblue" points="22.4999,-417.382 25.8516,-427.433 29.4992,-417.485 22.4999,-417.382"/>
</g>
<!-- Node34 -->
<g id="node34" class="node"><title>Node34</title>
<g id="a_node34"><a xlink:href="_point_8cpp.html#aab55cf13db83c55c46a961b2b2441960" target="_top" xlink:title="Surchage de l&#39;operateur &lt;&lt;. ">
<polygon fill="white" stroke="black" points="120,-169.5 120,-188.5 184,-188.5 184,-169.5 120,-169.5"/>
<text text-anchor="middle" x="152" y="-176.5" font-family="Helvetica,sans-Serif" font-size="10.00">operator&lt;&lt;</text>
</a>
</g>
</g>
<!-- Node1&#45;&gt;Node34 -->
<g id="edge38" class="edge"><title>Node1&#45;&gt;Node34</title>
<path fill="none" stroke="midnightblue" d="M28.4376,-417.137C35.137,-365.674 55.3884,-229.811 86,-198 94.8044,-188.851 107.749,-184.04 119.773,-181.535"/>
<polygon fill="midnightblue" stroke="midnightblue" points="24.9368,-416.922 27.1515,-427.283 31.8813,-417.803 24.9368,-416.922"/>
</g>
<!-- Node35 -->
<g id="node35" class="node"><title>Node35</title>
<g id="a_node35"><a xlink:href="_point_8cpp.html#a4e1acba0f26daf714b7816d3c1994a74" target="_top" xlink:title="Surchage de l&#39;operateur &lt;. ">
<polygon fill="white" stroke="black" points="123,-131.5 123,-150.5 181,-150.5 181,-131.5 123,-131.5"/>
<text text-anchor="middle" x="152" y="-138.5" font-family="Helvetica,sans-Serif" font-size="10.00">operator&lt;</text>
</a>
</g>
</g>
<!-- Node1&#45;&gt;Node35 -->
<g id="edge39" class="edge"><title>Node1&#45;&gt;Node35</title>
<path fill="none" stroke="midnightblue" d="M27.7025,-417.07C32.9657,-360.031 50.7828,-197.814 86,-160 95.4551,-149.848 110.004,-145.018 122.942,-142.761"/>
<polygon fill="midnightblue" stroke="midnightblue" points="24.1937,-417.015 26.7919,-427.286 31.166,-417.636 24.1937,-417.015"/>
</g>
<!-- Node13 -->
<g id="node13" class="node"><title>Node13</title>
<g id="a_node13"><a xlink:href="class_graphics_item.html#ad48630477e3701e874e19287440a9c8f" target="_top" xlink:title="GraphicsItem::setRelative">
<polygon fill="white" stroke="black" points="254.5,-169.5 254.5,-188.5 385.5,-188.5 385.5,-169.5 254.5,-169.5"/>
<text text-anchor="middle" x="320" y="-176.5" font-family="Helvetica,sans-Serif" font-size="10.00">GraphicsItem::setRelative</text>
</a>
</g>
</g>
<!-- Node12&#45;&gt;Node13 -->
<g id="edge12" class="edge"><title>Node12&#45;&gt;Node13</title>
<path fill="none" stroke="midnightblue" d="M191.353,-325.325C200.822,-322.51 210.414,-318.299 218,-312 245.22,-289.399 232.896,-269.396 254,-241 269.535,-220.097 292.463,-200.082 306.527,-188.691"/>
<polygon fill="midnightblue" stroke="midnightblue" points="190.458,-321.941 181.619,-327.782 192.171,-328.728 190.458,-321.941"/>
</g>
<!-- Node20 -->
<g id="node20" class="node"><title>Node20</title>
<g id="a_node20"><a xlink:href="class_main_window.html#a34c4b4207b46d11a4100c9b19f0e81bb" target="_top" xlink:title="MainWindow::MainWindow">
<polygon fill="white" stroke="black" points="794.5,-264.5 794.5,-283.5 929.5,-283.5 929.5,-264.5 794.5,-264.5"/>
<text text-anchor="middle" x="862" y="-271.5" font-family="Helvetica,sans-Serif" font-size="10.00">MainWindow::MainWindow</text>
</a>
</g>
</g>
<!-- Node12&#45;&gt;Node20 -->
<g id="edge19" class="edge"><title>Node12&#45;&gt;Node20</title>
<path fill="none" stroke="midnightblue" d="M191.477,-320.836C200.28,-318.213 209.535,-315.213 218,-312 234.543,-305.721 237.008,-299.937 254,-295 443.605,-239.91 680.591,-254.175 794.204,-265.811"/>
<polygon fill="midnightblue" stroke="midnightblue" points="190.433,-317.495 181.796,-323.63 192.374,-324.22 190.433,-317.495"/>
</g>
<!-- Node21 -->
<g id="node21" class="node"><title>Node21</title>
<g id="a_node21"><a xlink:href="class_point.html#a2a77e4f4e0521de921e7066052530763" target="_top" xlink:title="Point::operator=">
<polygon fill="white" stroke="black" points="277,-359.5 277,-378.5 363,-378.5 363,-359.5 277,-359.5"/>
<text text-anchor="middle" x="320" y="-366.5" font-family="Helvetica,sans-Serif" font-size="10.00">Point::operator=</text>
</a>
</g>
</g>
<!-- Node12&#45;&gt;Node21 -->
<g id="edge20" class="edge"><title>Node12&#45;&gt;Node21</title>
<path fill="none" stroke="midnightblue" d="M191.331,-339.774C217.104,-345.674 251.062,-353.448 277.477,-359.495"/>
<polygon fill="midnightblue" stroke="midnightblue" points="192.065,-336.352 181.536,-337.532 190.503,-343.176 192.065,-336.352"/>
</g>
<!-- Node22 -->
<g id="node22" class="node"><title>Node22</title>
<g id="a_node22"><a xlink:href="class_point.html#ab536377f38dbf8fd36875838648a1825" target="_top" xlink:title="Point::setAbsolute">
<polygon fill="white" stroke="black" points="271.5,-321.5 271.5,-340.5 368.5,-340.5 368.5,-321.5 271.5,-321.5"/>
<text text-anchor="middle" x="320" y="-328.5" font-family="Helvetica,sans-Serif" font-size="10.00">Point::setAbsolute</text>
</a>
</g>
</g>
<!-- Node12&#45;&gt;Node22 -->
<g id="edge21" class="edge"><title>Node12&#45;&gt;Node22</title>
<path fill="none" stroke="midnightblue" d="M191.605,-331C215.394,-331 246.077,-331 271.37,-331"/>
<polygon fill="midnightblue" stroke="midnightblue" points="191.536,-327.5 181.536,-331 191.536,-334.5 191.536,-327.5"/>
</g>
<!-- Node25 -->
<g id="node25" class="node"><title>Node25</title>
<g id="a_node25"><a xlink:href="class_point.html#aa346b22aa03d377bfc90b5b1e11f074c" target="_top" xlink:title="Point::friendChanged">
<polygon fill="white" stroke="black" points="441,-283.5 441,-302.5 549,-302.5 549,-283.5 441,-283.5"/>
<text text-anchor="middle" x="495" y="-290.5" font-family="Helvetica,sans-Serif" font-size="10.00">Point::friendChanged</text>
</a>
</g>
</g>
<!-- Node12&#45;&gt;Node25 -->
<g id="edge28" class="edge"><title>Node12&#45;&gt;Node25</title>
<path fill="none" stroke="midnightblue" d="M191.557,-322.744C210.323,-318.983 233.258,-314.764 254,-312 318.011,-303.47 392.174,-298.316 440.921,-295.569"/>
<polygon fill="midnightblue" stroke="midnightblue" points="190.7,-319.347 181.601,-324.774 192.099,-326.206 190.7,-319.347"/>
</g>
<!-- Node27 -->
<g id="node27" class="node"><title>Node27</title>
<g id="a_node27"><a xlink:href="class_point.html#a62fd0fb2c699d6d4699d3be73762ffa2" target="_top" xlink:title="Point::setX">
<polygon fill="white" stroke="black" points="287.5,-90.5 287.5,-109.5 352.5,-109.5 352.5,-90.5 287.5,-90.5"/>
<text text-anchor="middle" x="320" y="-97.5" font-family="Helvetica,sans-Serif" font-size="10.00">Point::setX</text>
</a>
</g>
</g>
<!-- Node12&#45;&gt;Node27 -->
<g id="edge29" class="edge"><title>Node12&#45;&gt;Node27</title>
<path fill="none" stroke="midnightblue" d="M191.68,-326.701C201.397,-323.892 211.031,-319.34 218,-312 265.802,-261.654 218.966,-219.936 254,-160 266.555,-138.521 289.249,-120.199 304.223,-109.64"/>
<polygon fill="midnightblue" stroke="midnightblue" points="190.577,-323.365 181.632,-329.042 192.165,-330.182 190.577,-323.365"/>
</g>
<!-- Node29 -->
<g id="node29" class="node"><title>Node29</title>
<g id="a_node29"><a xlink:href="class_point.html#a3cdf750fa08f24c2aaaf7ada42df5ad8" target="_top" xlink:title="Point::setY">
<polygon fill="white" stroke="black" points="287.5,-8.5 287.5,-27.5 352.5,-27.5 352.5,-8.5 287.5,-8.5"/>
<text text-anchor="middle" x="320" y="-15.5" font-family="Helvetica,sans-Serif" font-size="10.00">Point::setY</text>
</a>
</g>
</g>
<!-- Node12&#45;&gt;Node29 -->
<g id="edge32" class="edge"><title>Node12&#45;&gt;Node29</title>
<path fill="none" stroke="midnightblue" d="M191.504,-327.213C201.416,-324.423 211.193,-319.753 218,-312 286.554,-233.918 206.22,-173.269 254,-81 265.851,-58.1133 289.194,-38.6949 304.441,-27.6938"/>
<polygon fill="midnightblue" stroke="midnightblue" points="190.645,-323.819 181.652,-329.421 192.176,-330.649 190.645,-323.819"/>
</g>
<!-- Node14 -->
<g id="node14" class="node"><title>Node14</title>
<g id="a_node14"><a xlink:href="class_graphics_anchor.html#a902a4032ae818bbe9a0b6fdb84fe341d" target="_top" xlink:title="GraphicsAnchor::setRelative">
<polygon fill="white" stroke="black" points="424,-131.5 424,-150.5 566,-150.5 566,-131.5 424,-131.5"/>
<text text-anchor="middle" x="495" y="-138.5" font-family="Helvetica,sans-Serif" font-size="10.00">GraphicsAnchor::setRelative</text>
</a>
</g>
</g>
<!-- Node13&#45;&gt;Node14 -->
<g id="edge13" class="edge"><title>Node13&#45;&gt;Node14</title>
<path fill="none" stroke="midnightblue" d="M374.505,-167.247C398.967,-161.874 427.571,-155.591 450.659,-150.52"/>
<polygon fill="midnightblue" stroke="midnightblue" points="373.671,-163.847 364.655,-169.411 375.173,-170.684 373.671,-163.847"/>
</g>
<!-- Node15 -->
<g id="node15" class="node"><title>Node15</title>
<g id="a_node15"><a xlink:href="class_graphics_anchor.html#a1dc0e27c411d6b4b11d70bd4d8ae1699" target="_top" xlink:title="GraphicsAnchor::setAbsolute">
<polygon fill="white" stroke="black" points="423,-93.5 423,-112.5 567,-112.5 567,-93.5 423,-93.5"/>
<text text-anchor="middle" x="495" y="-100.5" font-family="Helvetica,sans-Serif" font-size="10.00">GraphicsAnchor::setAbsolute</text>
</a>
</g>
</g>
<!-- Node13&#45;&gt;Node15 -->
<g id="edge14" class="edge"><title>Node13&#45;&gt;Node15</title>
<path fill="none" stroke="midnightblue" d="M343.79,-163.893C363.725,-151.236 393.819,-133.449 422,-122 430.983,-118.35 440.882,-115.209 450.39,-112.59"/>
<polygon fill="midnightblue" stroke="midnightblue" points="341.64,-161.115 335.131,-169.475 345.433,-166.998 341.64,-161.115"/>
</g>
<!-- Node16 -->
<g id="node16" class="node"><title>Node16</title>
<g id="a_node16"><a xlink:href="class_graphics_point.html#ac1242633c38521d881c9aa3548676dd4" target="_top" xlink:title="GraphicsPoint::GraphicsPoint">
<polygon fill="white" stroke="black" points="422,-207.5 422,-226.5 568,-226.5 568,-207.5 422,-207.5"/>
<text text-anchor="middle" x="495" y="-214.5" font-family="Helvetica,sans-Serif" font-size="10.00">GraphicsPoint::GraphicsPoint</text>
</a>
</g>
</g>
<!-- Node13&#45;&gt;Node16 -->
<g id="edge15" class="edge"><title>Node13&#45;&gt;Node16</title>
<path fill="none" stroke="midnightblue" d="M374.505,-190.753C398.967,-196.126 427.571,-202.409 450.659,-207.48"/>
<polygon fill="midnightblue" stroke="midnightblue" points="375.173,-187.316 364.655,-188.589 373.671,-194.153 375.173,-187.316"/>
</g>
<!-- Node17 -->
<g id="node17" class="node"><title>Node17</title>
<g id="a_node17"><a xlink:href="class_line_edit.html#a636e2ac65a70dd82fcf02f863da5c446" target="_top" xlink:title="LineEdit::setText">
<polygon fill="white" stroke="black" points="635.5,-49.5 635.5,-68.5 726.5,-68.5 726.5,-49.5 635.5,-49.5"/>
<text text-anchor="middle" x="681" y="-56.5" font-family="Helvetica,sans-Serif" font-size="10.00">LineEdit::setText</text>
</a>
</g>
</g>
<!-- Node13&#45;&gt;Node17 -->
<g id="edge16" class="edge"><title>Node13&#45;&gt;Node17</title>
<path fill="none" stroke="midnightblue" d="M395.814,-185.543C446.406,-187.069 513.644,-183.321 568,-160 615.883,-139.456 657.001,-89.821 672.937,-68.7363"/>
<polygon fill="midnightblue" stroke="midnightblue" points="395.73,-182.037 385.605,-185.157 395.465,-189.032 395.73,-182.037"/>
</g>
<!-- Node18 -->
<g id="node18" class="node"><title>Node18</title>
<g id="a_node18"><a xlink:href="class_line_edit.html#a04e1cd86821efe7570868ae397978186" target="_top" xlink:title="LineEdit::LineEdit">
<polygon fill="white" stroke="black" points="815.5,-8.5 815.5,-27.5 908.5,-27.5 908.5,-8.5 815.5,-8.5"/>
<text text-anchor="middle" x="862" y="-15.5" font-family="Helvetica,sans-Serif" font-size="10.00">LineEdit::LineEdit</text>
</a>
</g>
</g>
<!-- Node17&#45;&gt;Node18 -->
<g id="edge17" class="edge"><title>Node17&#45;&gt;Node18</title>
<path fill="none" stroke="midnightblue" d="M733.284,-47.2533C760.582,-41.0007 793.72,-33.4105 819.399,-27.5286"/>
<polygon fill="midnightblue" stroke="midnightblue" points="732.482,-43.8463 723.516,-49.4907 734.045,-50.6696 732.482,-43.8463"/>
</g>
<!-- Node19 -->
<g id="node19" class="node"><title>Node19</title>
<g id="a_node19"><a xlink:href="class_line_edit.html#a8d5e79e8a895901381e301d41d3d4343" target="_top" xlink:title="LineEdit::meHandleEvent">
<polygon fill="white" stroke="black" points="798,-49.5 798,-68.5 926,-68.5 926,-49.5 798,-49.5"/>
<text text-anchor="middle" x="862" y="-56.5" font-family="Helvetica,sans-Serif" font-size="10.00">LineEdit::meHandleEvent</text>
</a>
</g>
</g>
<!-- Node17&#45;&gt;Node19 -->
<g id="edge18" class="edge"><title>Node17&#45;&gt;Node19</title>
<path fill="none" stroke="midnightblue" d="M736.85,-59C756.168,-59 778.032,-59 797.97,-59"/>
<polygon fill="midnightblue" stroke="midnightblue" points="736.708,-55.5001 726.708,-59 736.707,-62.5001 736.708,-55.5001"/>
</g>
<!-- Node22&#45;&gt;Node11 -->
<g id="edge24" class="edge"><title>Node22&#45;&gt;Node11</title>
<path fill="none" stroke="midnightblue" d="M364.498,-343.362C371.701,-345.51 379.075,-347.771 386,-350 414.192,-359.073 446.153,-370.457 467.945,-378.389"/>
<polygon fill="midnightblue" stroke="midnightblue" points="365.423,-339.986 354.842,-340.517 363.445,-346.701 365.423,-339.986"/>
</g>
<!-- Node23 -->
<g id="node23" class="node"><title>Node23</title>
<g id="a_node23"><a xlink:href="class_graphics_item.html#a53a0964502bdc810a0684c9bb9b08f86" target="_top" xlink:title="GraphicsItem::setAbsolute">
<polygon fill="white" stroke="black" points="428.5,-321.5 428.5,-340.5 561.5,-340.5 561.5,-321.5 428.5,-321.5"/>
<text text-anchor="middle" x="495" y="-328.5" font-family="Helvetica,sans-Serif" font-size="10.00">GraphicsItem::setAbsolute</text>
</a>
</g>
</g>
<!-- Node22&#45;&gt;Node23 -->
<g id="edge22" class="edge"><title>Node22&#45;&gt;Node23</title>
<path fill="none" stroke="midnightblue" d="M378.911,-331C394.758,-331 412.047,-331 428.295,-331"/>
<polygon fill="midnightblue" stroke="midnightblue" points="378.731,-327.5 368.731,-331 378.731,-334.5 378.731,-327.5"/>
</g>
<!-- Node22&#45;&gt;Node25 -->
<g id="edge25" class="edge"><title>Node22&#45;&gt;Node25</title>
<path fill="none" stroke="midnightblue" d="M374.505,-319.247C398.967,-313.874 427.571,-307.591 450.659,-302.52"/>
<polygon fill="midnightblue" stroke="midnightblue" points="373.671,-315.847 364.655,-321.411 375.173,-322.684 373.671,-315.847"/>
</g>
<!-- Node24 -->
<g id="node24" class="node"><title>Node24</title>
<g id="a_node24"><a xlink:href="class_graphics_point.html#aaceb83d2bd068629dccfde4aee9c60f5" target="_top" xlink:title="GraphicsPoint::meHandleEvent">
<polygon fill="white" stroke="black" points="604,-321.5 604,-340.5 758,-340.5 758,-321.5 604,-321.5"/>
<text text-anchor="middle" x="681" y="-328.5" font-family="Helvetica,sans-Serif" font-size="10.00">GraphicsPoint::meHandleEvent</text>
</a>
</g>
</g>
<!-- Node23&#45;&gt;Node24 -->
<g id="edge23" class="edge"><title>Node23&#45;&gt;Node24</title>
<path fill="none" stroke="midnightblue" d="M571.676,-331C582.25,-331 593.12,-331 603.705,-331"/>
<polygon fill="midnightblue" stroke="midnightblue" points="571.649,-327.5 561.649,-331 571.649,-334.5 571.649,-327.5"/>
</g>
<!-- Node26 -->
<g id="node26" class="node"><title>Node26</title>
<g id="a_node26"><a xlink:href="class_point.html#a4fa7ffadfb6c9de033bfef5decdaa66e" target="_top" xlink:title="Point::join">
<polygon fill="white" stroke="black" points="651,-283.5 651,-302.5 711,-302.5 711,-283.5 651,-283.5"/>
<text text-anchor="middle" x="681" y="-290.5" font-family="Helvetica,sans-Serif" font-size="10.00">Point::join</text>
</a>
</g>
</g>
<!-- Node25&#45;&gt;Node26 -->
<g id="edge26" class="edge"><title>Node25&#45;&gt;Node26</title>
<path fill="none" stroke="midnightblue" d="M559.541,-293C590.583,-293 626.42,-293 650.883,-293"/>
<polygon fill="midnightblue" stroke="midnightblue" points="559.22,-289.5 549.22,-293 559.22,-296.5 559.22,-289.5"/>
</g>
<!-- Node26&#45;&gt;Node20 -->
<g id="edge27" class="edge"><title>Node26&#45;&gt;Node20</title>
<path fill="none" stroke="midnightblue" d="M721.174,-288.842C742.58,-286.57 769.678,-283.693 794.306,-281.079"/>
<polygon fill="midnightblue" stroke="midnightblue" points="720.733,-285.369 711.158,-289.905 721.471,-292.33 720.733,-285.369"/>
</g>
<!-- Node28 -->
<g id="node28" class="node"><title>Node28</title>
<g id="a_node28"><a xlink:href="class_graphics_rectangle.html#a3efd2295cd742f75de829851bf7ca3dd" target="_top" xlink:title="GraphicsRectangle::\lsetWidth">
<polygon fill="white" stroke="black" points="442,-44 442,-74 548,-74 548,-44 442,-44"/>
<text text-anchor="start" x="450" y="-62" font-family="Helvetica,sans-Serif" font-size="10.00">GraphicsRectangle::</text>
<text text-anchor="middle" x="495" y="-51" font-family="Helvetica,sans-Serif" font-size="10.00">setWidth</text>
</a>
</g>
</g>
<!-- Node27&#45;&gt;Node28 -->
<g id="edge30" class="edge"><title>Node27&#45;&gt;Node28</title>
<path fill="none" stroke="midnightblue" d="M362.508,-90.1629C386.294,-84.5257 416.37,-77.3978 441.753,-71.3822"/>
<polygon fill="midnightblue" stroke="midnightblue" points="361.654,-86.7682 352.731,-92.48 363.268,-93.5795 361.654,-86.7682"/>
</g>
<!-- Node28&#45;&gt;Node17 -->
<g id="edge31" class="edge"><title>Node28&#45;&gt;Node17</title>
<path fill="none" stroke="midnightblue" d="M558.467,-59C583.736,-59 612.331,-59 635.433,-59"/>
<polygon fill="midnightblue" stroke="midnightblue" points="558.235,-55.5001 548.235,-59 558.235,-62.5001 558.235,-55.5001"/>
</g>
<!-- Node30 -->
<g id="node30" class="node"><title>Node30</title>
<g id="a_node30"><a xlink:href="class_graphics_rectangle.html#aea349ac359e4f2227f1da772c1a26ab6" target="_top" xlink:title="GraphicsRectangle::\lsetHeight">
<polygon fill="white" stroke="black" points="628,-0 628,-30 734,-30 734,-0 628,-0"/>
<text text-anchor="start" x="636" y="-18" font-family="Helvetica,sans-Serif" font-size="10.00">GraphicsRectangle::</text>
<text text-anchor="middle" x="681" y="-7" font-family="Helvetica,sans-Serif" font-size="10.00">setHeight</text>
</a>
</g>
</g>
<!-- Node29&#45;&gt;Node30 -->
<g id="edge33" class="edge"><title>Node29&#45;&gt;Node30</title>
<path fill="none" stroke="midnightblue" d="M362.942,-17.6495C428.752,-17.0996 556.136,-16.0351 627.786,-15.4363"/>
<polygon fill="midnightblue" stroke="midnightblue" points="362.515,-14.1529 352.544,-17.7364 362.573,-21.1526 362.515,-14.1529"/>
</g>
<!-- Node30&#45;&gt;Node18 -->
<g id="edge34" class="edge"><title>Node30&#45;&gt;Node18</title>
<path fill="none" stroke="midnightblue" d="M744.417,-16.0461C767.761,-16.4373 793.819,-16.8741 815.368,-17.2352"/>
<polygon fill="midnightblue" stroke="midnightblue" points="744.313,-12.544 734.255,-15.8758 744.195,-19.543 744.313,-12.544"/>
</g>
</g>
</svg>
