<?xml version="1.0" encoding="UTF-8" standalone="no"?>
<!DOCTYPE svg PUBLIC "-//W3C//DTD SVG 1.1//EN"
 "http://www.w3.org/Graphics/SVG/1.1/DTD/svg11.dtd">
<!-- Generated by graphviz version 2.36.0 (20140111.2315)
 -->
<!-- Title: Color::setRed Pages: 1 -->
<svg width="646pt" height="142pt"
 viewBox="0.00 0.00 646.00 142.00" xmlns="http://www.w3.org/2000/svg" xmlns:xlink="http://www.w3.org/1999/xlink">
<g id="graph0" class="graph" transform="scale(1 1) rotate(0) translate(4 138)">
<title>Color::setRed</title>
<polygon fill="white" stroke="none" points="-4,4 -4,-138 642,-138 642,4 -4,4"/>
<!-- Node1 -->
<g id="node1" class="node"><title>Node1</title>
<polygon fill="#bfbfbf" stroke="black" points="0.5,-57.5 0.5,-76.5 77.5,-76.5 77.5,-57.5 0.5,-57.5"/>
<text text-anchor="middle" x="39" y="-64.5" font-family="Helvetica,sans-Serif" font-size="10.00">Color::setRed</text>
</g>
<!-- Node2 -->
<g id="node2" class="node"><title>Node2</title>
<g id="a_node2"><a xlink:href="class_color.html#a5a3f8aa2c7079231d10fbf3c2c87bf61" target="_top" xlink:title="Recupere la valeur de la premier couleur ( systeme RGB ). ">
<polygon fill="white" stroke="black" points="114.5,-57.5 114.5,-76.5 173.5,-76.5 173.5,-57.5 114.5,-57.5"/>
<text text-anchor="middle" x="144" y="-64.5" font-family="Helvetica,sans-Serif" font-size="10.00">Color::red</text>
</a>
</g>
</g>
<!-- Node1&#45;&gt;Node2 -->
<g id="edge1" class="edge"><title>Node1&#45;&gt;Node2</title>
<path fill="none" stroke="midnightblue" d="M87.8424,-67C96.8745,-67 106.057,-67 114.272,-67"/>
<polygon fill="midnightblue" stroke="midnightblue" points="87.7686,-63.5001 77.7685,-67 87.7685,-70.5001 87.7686,-63.5001"/>
</g>
<!-- Node3 -->
<g id="node3" class="node"><title>Node3</title>
<g id="a_node3"><a xlink:href="class_color.html#ac99b62f877393bbadfeee7170eb31ecd" target="_top" xlink:title="Recupere la valeur de teinte ( systeme HSV ). ">
<polygon fill="white" stroke="black" points="210,-57.5 210,-76.5 272,-76.5 272,-57.5 210,-57.5"/>
<text text-anchor="middle" x="241" y="-64.5" font-family="Helvetica,sans-Serif" font-size="10.00">Color::hue</text>
</a>
</g>
</g>
<!-- Node2&#45;&gt;Node3 -->
<g id="edge2" class="edge"><title>Node2&#45;&gt;Node3</title>
<path fill="none" stroke="midnightblue" d="M183.532,-67C192.305,-67 201.502,-67 209.866,-67"/>
<polygon fill="midnightblue" stroke="midnightblue" points="183.503,-63.5001 173.503,-67 183.503,-70.5001 183.503,-63.5001"/>
</g>
<!-- Node6 -->
<g id="node6" class="node"><title>Node6</title>
<g id="a_node6"><a xlink:href="class_color.html#a9e232063ef1dfe5e98970700db822561" target="_top" xlink:title="Recupere la valeur de saturation ( system HSV ). ">
<polygon fill="white" stroke="black" points="408.5,-95.5 408.5,-114.5 497.5,-114.5 497.5,-95.5 408.5,-95.5"/>
<text text-anchor="middle" x="453" y="-102.5" font-family="Helvetica,sans-Serif" font-size="10.00">Color::saturation</text>
</a>
</g>
</g>
<!-- Node2&#45;&gt;Node6 -->
<g id="edge15" class="edge"><title>Node2&#45;&gt;Node6</title>
<path fill="none" stroke="midnightblue" d="M182.581,-79.4095C191.485,-81.9518 201.01,-84.3513 210,-86 278.603,-98.5806 359.646,-102.836 408.373,-104.272"/>
<polygon fill="midnightblue" stroke="midnightblue" points="183.434,-76.0119 172.851,-76.5109 181.436,-82.7205 183.434,-76.0119"/>
</g>
<!-- Node9 -->
<g id="node9" class="node"><title>Node9</title>
<g id="a_node9"><a xlink:href="class_color.html#ae8cb1f2e0c1424555e2f606ba9d21e57" target="_top" xlink:title="Recupere la valeur de la valeur ( system HSV ). ">
<polygon fill="white" stroke="black" points="418.5,-19.5 418.5,-38.5 487.5,-38.5 487.5,-19.5 418.5,-19.5"/>
<text text-anchor="middle" x="453" y="-26.5" font-family="Helvetica,sans-Serif" font-size="10.00">Color::value</text>
</a>
</g>
</g>
<!-- Node2&#45;&gt;Node9 -->
<g id="edge16" class="edge"><title>Node2&#45;&gt;Node9</title>
<path fill="none" stroke="midnightblue" d="M182.581,-54.5905C191.485,-52.0482 201.01,-49.6487 210,-48 283.577,-34.5072 371.464,-30.5909 418.446,-29.4578"/>
<polygon fill="midnightblue" stroke="midnightblue" points="181.436,-51.2795 172.851,-57.4891 183.434,-57.9881 181.436,-51.2795"/>
</g>
<!-- Node4 -->
<g id="node4" class="node"><title>Node4</title>
<g id="a_node4"><a xlink:href="class_color.html#ab8c3999a34eecf3ee1bfaced2b458cd6" target="_top" xlink:title="Recupere la valeur de la troisieme couleur ( systeme RGB ). ">
<polygon fill="white" stroke="black" points="308,-57.5 308,-76.5 372,-76.5 372,-57.5 308,-57.5"/>
<text text-anchor="middle" x="340" y="-64.5" font-family="Helvetica,sans-Serif" font-size="10.00">Color::blue</text>
</a>
</g>
</g>
<!-- Node3&#45;&gt;Node4 -->
<g id="edge3" class="edge"><title>Node3&#45;&gt;Node4</title>
<path fill="none" stroke="midnightblue" d="M282.318,-60.3361C290.848,-60.155 299.726,-60.2596 307.854,-60.6497"/>
<polygon fill="midnightblue" stroke="midnightblue" points="282.028,-56.8441 272.16,-60.6987 282.278,-63.8397 282.028,-56.8441"/>
</g>
<!-- Node8 -->
<g id="node8" class="node"><title>Node8</title>
<g id="a_node8"><a xlink:href="class_color.html#a1b673b9755fa01412ea14a2f9c040185" target="_top" xlink:title="Modifie la valeur de la valeur ( system HSV ). ">
<polygon fill="white" stroke="black" points="544,-114.5 544,-133.5 628,-133.5 628,-114.5 544,-114.5"/>
<text text-anchor="middle" x="586" y="-121.5" font-family="Helvetica,sans-Serif" font-size="10.00">Color::setValue</text>
</a>
</g>
</g>
<!-- Node3&#45;&gt;Node8 -->
<g id="edge14" class="edge"><title>Node3&#45;&gt;Node8</title>
<path fill="none" stroke="midnightblue" d="M272.062,-80.715C304.725,-94.8025 358.836,-115.794 408,-124 454.071,-131.689 507.832,-130.248 543.91,-127.807"/>
<polygon fill="midnightblue" stroke="midnightblue" points="273.207,-77.3954 262.643,-76.5864 270.397,-83.8066 273.207,-77.3954"/>
</g>
<!-- Node10 -->
<g id="node10" class="node"><title>Node10</title>
<g id="a_node10"><a xlink:href="class_color.html#a237de6ef93ddb2985d87a6fb630a0828" target="_top" xlink:title="Modifie la valeur de la saturation ( system HSV ). ">
<polygon fill="white" stroke="black" points="534,-0.5 534,-19.5 638,-19.5 638,-0.5 534,-0.5"/>
<text text-anchor="middle" x="586" y="-7.5" font-family="Helvetica,sans-Serif" font-size="10.00">Color::setSaturation</text>
</a>
</g>
</g>
<!-- Node3&#45;&gt;Node10 -->
<g id="edge13" class="edge"><title>Node3&#45;&gt;Node10</title>
<path fill="none" stroke="midnightblue" d="M272.062,-53.285C304.725,-39.1975 358.836,-18.2057 408,-10 449.979,-2.9935 498.343,-3.56825 533.896,-5.57189"/>
<polygon fill="midnightblue" stroke="midnightblue" points="270.397,-50.1934 262.643,-57.4136 273.207,-56.6046 270.397,-50.1934"/>
</g>
<!-- Node4&#45;&gt;Node3 -->
<g id="edge6" class="edge"><title>Node4&#45;&gt;Node3</title>
<path fill="none" stroke="midnightblue" d="M297.641,-73.6845C289.085,-73.8424 280.226,-73.7147 272.16,-73.3013"/>
<polygon fill="midnightblue" stroke="midnightblue" points="297.974,-77.1756 307.854,-73.3503 297.745,-70.1794 297.974,-77.1756"/>
</g>
<!-- Node5 -->
<g id="node5" class="node"><title>Node5</title>
<g id="a_node5"><a xlink:href="class_color.html#ae752d55b3758a7181fd3c201ab87ca3b" target="_top" xlink:title="Modifie la valeur de la troisieme couleur ( systeme RGB ). ">
<polygon fill="white" stroke="black" points="413.5,-57.5 413.5,-76.5 492.5,-76.5 492.5,-57.5 413.5,-57.5"/>
<text text-anchor="middle" x="453" y="-64.5" font-family="Helvetica,sans-Serif" font-size="10.00">Color::setBlue</text>
</a>
</g>
</g>
<!-- Node4&#45;&gt;Node5 -->
<g id="edge4" class="edge"><title>Node4&#45;&gt;Node5</title>
<path fill="none" stroke="midnightblue" d="M382.396,-60.4476C392.453,-60.1601 403.172,-60.1863 413.108,-60.5261"/>
<polygon fill="midnightblue" stroke="midnightblue" points="382.065,-56.958 372.215,-60.8607 382.349,-63.9523 382.065,-56.958"/>
</g>
<!-- Node4&#45;&gt;Node6 -->
<g id="edge7" class="edge"><title>Node4&#45;&gt;Node6</title>
<path fill="none" stroke="midnightblue" d="M378.891,-79.9718C393.68,-85.0344 410.329,-90.7341 423.999,-95.4141"/>
<polygon fill="midnightblue" stroke="midnightblue" points="379.605,-76.5166 369.01,-76.589 377.337,-83.1393 379.605,-76.5166"/>
</g>
<!-- Node4&#45;&gt;Node9 -->
<g id="edge10" class="edge"><title>Node4&#45;&gt;Node9</title>
<path fill="none" stroke="midnightblue" d="M378.891,-54.0282C393.68,-48.9656 410.329,-43.2659 423.999,-38.5859"/>
<polygon fill="midnightblue" stroke="midnightblue" points="377.337,-50.8607 369.01,-57.411 379.605,-57.4834 377.337,-50.8607"/>
</g>
<!-- Node5&#45;&gt;Node4 -->
<g id="edge5" class="edge"><title>Node5&#45;&gt;Node4</title>
<path fill="none" stroke="midnightblue" d="M402.856,-73.7105C392.448,-73.8404 381.737,-73.65 372.215,-73.1393"/>
<polygon fill="midnightblue" stroke="midnightblue" points="403.192,-77.2038 413.108,-73.4739 403.03,-70.2056 403.192,-77.2038"/>
</g>
<!-- Node7 -->
<g id="node7" class="node"><title>Node7</title>
<g id="a_node7"><a xlink:href="class_color.html#a600727550b0b99ab9c67226be5aa70cb" target="_top" xlink:title="Modifie la valeur de la teinte ( systeme HSV ). ">
<polygon fill="white" stroke="black" points="547.5,-38.5 547.5,-57.5 624.5,-57.5 624.5,-38.5 547.5,-38.5"/>
<text text-anchor="middle" x="586" y="-45.5" font-family="Helvetica,sans-Serif" font-size="10.00">Color::setHue</text>
</a>
</g>
</g>
<!-- Node6&#45;&gt;Node7 -->
<g id="edge8" class="edge"><title>Node6&#45;&gt;Node7</title>
<path fill="none" stroke="midnightblue" d="M485.79,-91.291C489.9,-89.5135 494.05,-87.7153 498,-86 520.223,-76.3485 545.611,-65.2515 563.201,-57.5514"/>
<polygon fill="midnightblue" stroke="midnightblue" points="484.183,-88.1727 476.392,-95.3523 486.96,-94.5985 484.183,-88.1727"/>
</g>
<!-- Node6&#45;&gt;Node8 -->
<g id="edge9" class="edge"><title>Node6&#45;&gt;Node8</title>
<path fill="none" stroke="midnightblue" d="M507.597,-112.774C519.674,-114.525 532.31,-116.358 543.787,-118.023"/>
<polygon fill="midnightblue" stroke="midnightblue" points="508.02,-109.298 497.621,-111.327 507.015,-116.226 508.02,-109.298"/>
</g>
<!-- Node9&#45;&gt;Node7 -->
<g id="edge11" class="edge"><title>Node9&#45;&gt;Node7</title>
<path fill="none" stroke="midnightblue" d="M497.915,-35.3693C513.899,-37.6876 531.813,-40.2859 547.219,-42.5203"/>
<polygon fill="midnightblue" stroke="midnightblue" points="498.135,-31.8647 487.736,-33.893 497.13,-38.7922 498.135,-31.8647"/>
</g>
<!-- Node9&#45;&gt;Node10 -->
<g id="edge12" class="edge"><title>Node9&#45;&gt;Node10</title>
<path fill="none" stroke="midnightblue" d="M497.972,-22.6224C509.475,-20.954 521.974,-19.1412 533.817,-17.4235"/>
<polygon fill="midnightblue" stroke="midnightblue" points="497.13,-19.2078 487.736,-24.107 498.135,-26.1353 497.13,-19.2078"/>
</g>
</g>
</svg>
