<?xml version="1.0" encoding="UTF-8" standalone="no"?>
<!DOCTYPE svg PUBLIC "-//W3C//DTD SVG 1.1//EN"
 "http://www.w3.org/Graphics/SVG/1.1/DTD/svg11.dtd">
<!-- Generated by graphviz version 2.36.0 (20140111.2315)
 -->
<!-- Title: Point::set Pages: 1 -->
<svg width="186pt" height="84pt"
 viewBox="0.00 0.00 186.00 84.00" xmlns="http://www.w3.org/2000/svg" xmlns:xlink="http://www.w3.org/1999/xlink">
<g id="graph0" class="graph" transform="scale(1 1) rotate(0) translate(4 80)">
<title>Point::set</title>
<polygon fill="white" stroke="none" points="-4,4 -4,-80 182,-80 182,4 -4,4"/>
<!-- Node1 -->
<g id="node1" class="node"><title>Node1</title>
<polygon fill="#bfbfbf" stroke="black" points="0.5,-28.5 0.5,-47.5 59.5,-47.5 59.5,-28.5 0.5,-28.5"/>
<text text-anchor="middle" x="30" y="-35.5" font-family="Helvetica,sans-Serif" font-size="10.00">Point::set</text>
</g>
<!-- Node2 -->
<g id="node2" class="node"><title>Node2</title>
<g id="a_node2"><a xlink:href="jquery_8js.html#a2335e57f79b6acfb6de59c235dc8a83e" target="_top" xlink:title="p">
<polygon fill="white" stroke="black" points="122.5,-56.5 122.5,-75.5 151.5,-75.5 151.5,-56.5 122.5,-56.5"/>
<text text-anchor="middle" x="137" y="-63.5" font-family="Helvetica,sans-Serif" font-size="10.00">p</text>
</a>
</g>
</g>
<!-- Node1&#45;&gt;Node2 -->
<g id="edge1" class="edge"><title>Node1&#45;&gt;Node2</title>
<path fill="none" stroke="midnightblue" d="M59.6917,-45.6511C76.2682,-50.0715 96.8623,-55.5633 112.477,-59.7272"/>
<polygon fill="midnightblue" stroke="midnightblue" points="111.817,-63.1733 122.381,-62.3682 113.62,-56.4097 111.817,-63.1733"/>
</g>
<!-- Node3 -->
<g id="node3" class="node"><title>Node3</title>
<g id="a_node3"><a xlink:href="class_point.html#a04ce786cebfd535bc380833a71405930" target="_top" xlink:title="Point::absolute">
<polygon fill="white" stroke="black" points="96,-0.5 96,-19.5 178,-19.5 178,-0.5 96,-0.5"/>
<text text-anchor="middle" x="137" y="-7.5" font-family="Helvetica,sans-Serif" font-size="10.00">Point::absolute</text>
</a>
</g>
</g>
<!-- Node1&#45;&gt;Node3 -->
<g id="edge2" class="edge"><title>Node1&#45;&gt;Node3</title>
<path fill="none" stroke="midnightblue" d="M59.6917,-30.3489C69.1706,-27.8212 79.9633,-24.9431 90.3873,-22.1634"/>
<polygon fill="midnightblue" stroke="midnightblue" points="91.4531,-25.5016 100.214,-19.543 89.6494,-18.7379 91.4531,-25.5016"/>
</g>
<!-- Node3&#45;&gt;Node3 -->
<g id="edge3" class="edge"><title>Node3&#45;&gt;Node3</title>
<path fill="none" stroke="midnightblue" d="M120.662,-19.7571C112.714,-28.5653 118.16,-38 137,-38 148.775,-38 155.318,-34.3146 156.629,-29.4"/>
<polygon fill="midnightblue" stroke="midnightblue" points="159.88,-28.0906 153.338,-19.7571 153.255,-30.3516 159.88,-28.0906"/>
</g>
</g>
</svg>
