<?xml version="1.0" encoding="UTF-8" standalone="no"?>
<!DOCTYPE svg PUBLIC "-//W3C//DTD SVG 1.1//EN"
 "http://www.w3.org/Graphics/SVG/1.1/DTD/svg11.dtd">
<!-- Generated by graphviz version 2.36.0 (20140111.2315)
 -->
<!-- Title: Point::origin Pages: 1 -->
<!--zoomable 521 -->
<svg id="main" version="1.1" xmlns="http://www.w3.org/2000/svg" xmlns:xlink="http://www.w3.org/1999/xlink" xml:space="preserve" onload="init(evt)">
<style type="text/css"><![CDATA[
.edge:hover path { stroke: red; }
.edge:hover polygon { stroke: red; fill: red; }
]]></style>
<script type="text/javascript"><![CDATA[
var edges = document.getElementsByTagName('g');
if (edges && edges.length) {
  for (var i=0;i<edges.length;i++) {
    if (edges[i].id.substr(0,4)=='edge') {
      edges[i].setAttribute('class','edge');
    }
  }
}
]]></script>
        <defs>
                <circle id="rim" cx="0" cy="0" r="7"/>
                <circle id="rim2" cx="0" cy="0" r="3.5"/>
                <g id="zoomPlus">
                        <use xlink:href="#rim" fill="#404040">
                                <set attributeName="fill" to="#808080" begin="zoomplus.mouseover" end="zoomplus.mouseout"/>
                        </use>
                        <path d="M-4,0h8M0,-4v8" fill="none" stroke="white" stroke-width="1.5" pointer-events="none"/>
                </g>
                <g id="zoomMin">
                        <use xlink:href="#rim" fill="#404040">
                                <set attributeName="fill" to="#808080" begin="zoomminus.mouseover" end="zoomminus.mouseout"/>
                        </use>
                        <path d="M-4,0h8" fill="none" stroke="white" stroke-width="1.5" pointer-events="none"/>
                </g>
                <g id="dirArrow">
                        <path fill="none" stroke="white" stroke-width="1.5" d="M0,-3.0v7 M-2.5,-0.5L0,-3.0L2.5,-0.5"/>
                </g>
               <g id="resetDef">
                       <use xlink:href="#rim2" fill="#404040">
                               <set attributeName="fill" to="#808080" begin="reset.mouseover" end="reset.mouseout"/>
                       </use>
               </g>
        </defs>

<script type="text/javascript">
var viewWidth = 598;
var viewHeight = 521;
var sectionId = 'dynsection-6';
</script>
<script xlink:href="svgpan.js"/>
<svg id="graph" class="graph">
<g id="viewport">
<title>Point::origin</title>
<polygon fill="white" stroke="none" points="-4,4 -4,-516.538 594,-516.538 594,4 -4,4"/>
<!-- Node1 -->
<g id="node1" class="node"><title>Node1</title>
<polygon fill="#bfbfbf" stroke="black" points="0,-294.038 0,-313.038 68,-313.038 68,-294.038 0,-294.038"/>
<text text-anchor="middle" x="34" y="-301.038" font-family="Helvetica,sans-Serif" font-size="10.00">Point::origin</text>
</g>
<!-- Node2 -->
<g id="node2" class="node"><title>Node2</title>
<g id="a_node2"><a xlink:href="class_point.html#a0b2ea5baf36174499da121e666931e10" target="_top" xlink:title="Modifie l&#39;origine du point. ">
<polygon fill="white" stroke="black" points="104,-493.038 104,-512.038 188,-512.038 188,-493.038 104,-493.038"/>
<text text-anchor="middle" x="146" y="-500.038" font-family="Helvetica,sans-Serif" font-size="10.00">Point::setOrigin</text>
</a>
</g>
</g>
<!-- Node1&#45;&gt;Node2 -->
<g id="edge1" class="edge"><title>Node1&#45;&gt;Node2</title>
<path fill="none" stroke="midnightblue" d="M38.3989,-323.32C45.2744,-358.237 63.737,-431.542 104,-478.538 109.044,-484.426 115.912,-489.226 122.584,-492.943"/>
<polygon fill="midnightblue" stroke="midnightblue" points="41.8266,-322.607 36.5608,-313.414 34.9441,-323.885 41.8266,-322.607"/>
</g>
<!-- Node3 -->
<g id="node3" class="node"><title>Node3</title>
<g id="a_node3"><a xlink:href="class_point.html#a9abe56cf3f067305623a1d805460a84f" target="_top" xlink:title="Modifie les coordonnées du point indépendamment de son origine. ">
<polygon fill="white" stroke="black" points="356.5,-379.038 356.5,-398.038 451.5,-398.038 451.5,-379.038 356.5,-379.038"/>
<text text-anchor="middle" x="404" y="-386.038" font-family="Helvetica,sans-Serif" font-size="10.00">Point::setRelative</text>
</a>
</g>
</g>
<!-- Node1&#45;&gt;Node3 -->
<g id="edge2" class="edge"><title>Node1&#45;&gt;Node3</title>
<path fill="none" stroke="midnightblue" d="M59.3375,-318.753C94.2294,-339.576 161.203,-375.923 224,-389.538 268.19,-399.119 319.971,-397.486 356.44,-394.292"/>
<polygon fill="midnightblue" stroke="midnightblue" points="60.7432,-315.512 50.377,-313.323 57.1154,-321.499 60.7432,-315.512"/>
</g>
<!-- Node6 -->
<g id="node6" class="node"><title>Node6</title>
<g id="a_node6"><a xlink:href="class_point.html#a2aa897aa68c2f3e6df3a46738f27a0ac" target="_top" xlink:title="Donne l&#39;abscisse du point par rapport à son origine. ">
<polygon fill="white" stroke="black" points="121,-238.038 121,-257.038 171,-257.038 171,-238.038 121,-238.038"/>
<text text-anchor="middle" x="146" y="-245.038" font-family="Helvetica,sans-Serif" font-size="10.00">Point::x</text>
</a>
</g>
</g>
<!-- Node1&#45;&gt;Node6 -->
<g id="edge5" class="edge"><title>Node1&#45;&gt;Node6</title>
<path fill="none" stroke="midnightblue" d="M63.2914,-289.135C83.0111,-279.096 108.78,-265.977 126.059,-257.181"/>
<polygon fill="midnightblue" stroke="midnightblue" points="61.4843,-286.128 54.1605,-293.784 64.6601,-292.366 61.4843,-286.128"/>
</g>
<!-- Node7 -->
<g id="node7" class="node"><title>Node7</title>
<g id="a_node7"><a xlink:href="class_point.html#a43923c490fb5439d7d8a041e86520c34" target="_top" xlink:title="Modifie les coordonnées du point par rapport à son origine. ">
<polygon fill="white" stroke="black" points="242.5,-285.038 242.5,-304.038 301.5,-304.038 301.5,-285.038 242.5,-285.038"/>
<text text-anchor="middle" x="272" y="-292.038" font-family="Helvetica,sans-Serif" font-size="10.00">Point::set</text>
</a>
</g>
</g>
<!-- Node1&#45;&gt;Node7 -->
<g id="edge36" class="edge"><title>Node1&#45;&gt;Node7</title>
<path fill="none" stroke="midnightblue" d="M78.0835,-301.895C125.757,-300.077 201.251,-297.198 242.232,-295.635"/>
<polygon fill="midnightblue" stroke="midnightblue" points="77.9226,-298.399 68.0633,-302.277 78.1894,-305.394 77.9226,-298.399"/>
</g>
<!-- Node20 -->
<g id="node20" class="node"><title>Node20</title>
<g id="a_node20"><a xlink:href="class_point.html#a2226d8a3fb283b0b3c1f69106df144ba" target="_top" xlink:title="Donne l&#39;ordonnée du point par rapport à son origine. ">
<polygon fill="white" stroke="black" points="121,-133.038 121,-152.038 171,-152.038 171,-133.038 121,-133.038"/>
<text text-anchor="middle" x="146" y="-140.038" font-family="Helvetica,sans-Serif" font-size="10.00">Point::y</text>
</a>
</g>
</g>
<!-- Node1&#45;&gt;Node20 -->
<g id="edge26" class="edge"><title>Node1&#45;&gt;Node20</title>
<path fill="none" stroke="midnightblue" d="M47.3795,-285.419C70.6929,-251.297 120.379,-178.575 138.344,-152.281"/>
<polygon fill="midnightblue" stroke="midnightblue" points="44.303,-283.718 41.5516,-293.949 50.0828,-287.667 44.303,-283.718"/>
</g>
<!-- Node4 -->
<g id="node4" class="node"><title>Node4</title>
<g id="a_node4"><a xlink:href="class_point.html#a7f5e36e2e1bd0fa1564c1e4d5d74355c" target="_top" xlink:title="Modifie l&#39;abscisse du point indépendamment de son origine. ">
<polygon fill="white" stroke="black" points="488.5,-417.038 488.5,-436.038 589.5,-436.038 589.5,-417.038 488.5,-417.038"/>
<text text-anchor="middle" x="539" y="-424.038" font-family="Helvetica,sans-Serif" font-size="10.00">Point::setRelativeX</text>
</a>
</g>
</g>
<!-- Node3&#45;&gt;Node4 -->
<g id="edge3" class="edge"><title>Node3&#45;&gt;Node4</title>
<path fill="none" stroke="midnightblue" d="M448.367,-400.929C466.581,-406.133 487.439,-412.092 504.449,-416.952"/>
<polygon fill="midnightblue" stroke="midnightblue" points="449.138,-397.509 438.562,-398.127 447.215,-404.24 449.138,-397.509"/>
</g>
<!-- Node5 -->
<g id="node5" class="node"><title>Node5</title>
<g id="a_node5"><a xlink:href="class_point.html#abb67fd238634ebc25e4bdb3ab4cca9b6" target="_top" xlink:title="Modifie l&#39;ordonnée du point indépendamment de son origine. ">
<polygon fill="white" stroke="black" points="488.5,-379.038 488.5,-398.038 589.5,-398.038 589.5,-379.038 488.5,-379.038"/>
<text text-anchor="middle" x="539" y="-386.038" font-family="Helvetica,sans-Serif" font-size="10.00">Point::setRelativeY</text>
</a>
</g>
</g>
<!-- Node3&#45;&gt;Node5 -->
<g id="edge4" class="edge"><title>Node3&#45;&gt;Node5</title>
<path fill="none" stroke="midnightblue" d="M461.686,-388.538C470.473,-388.538 479.493,-388.538 488.115,-388.538"/>
<polygon fill="midnightblue" stroke="midnightblue" points="461.517,-385.038 451.517,-388.538 461.517,-392.038 461.517,-385.038"/>
</g>
<!-- Node6&#45;&gt;Node4 -->
<g id="edge22" class="edge"><title>Node6&#45;&gt;Node4</title>
<path fill="none" stroke="midnightblue" d="M151.489,-266.9C159.871,-298.318 181.074,-359.872 224,-389.538 303.476,-444.463 422.086,-441.355 488.457,-434.048"/>
<polygon fill="midnightblue" stroke="midnightblue" points="154.871,-265.994 149.045,-257.145 148.081,-267.696 154.871,-265.994"/>
</g>
<!-- Node6&#45;&gt;Node6 -->
<g id="edge6" class="edge"><title>Node6&#45;&gt;Node6</title>
<path fill="none" stroke="midnightblue" d="M125.26,-266.938C126.645,-271.853 133.559,-275.538 146,-275.538 165.906,-275.538 171.66,-266.103 163.262,-257.295"/>
<polygon fill="midnightblue" stroke="midnightblue" points="128.638,-267.89 128.738,-257.295 122.053,-265.515 128.638,-267.89"/>
</g>
<!-- Node6&#45;&gt;Node7 -->
<g id="edge7" class="edge"><title>Node6&#45;&gt;Node7</title>
<path fill="none" stroke="midnightblue" d="M180.767,-260.337C201.209,-268.085 226.858,-277.807 245.579,-284.903"/>
<polygon fill="midnightblue" stroke="midnightblue" points="181.794,-256.983 171.203,-256.712 179.313,-263.529 181.794,-256.983"/>
</g>
<!-- Node9 -->
<g id="node9" class="node"><title>Node9</title>
<g id="a_node9"><a xlink:href="class_point.html#a498f108de0c0351dfb3177c681a7a1f2" target="_top" xlink:title="Quitte le groupe auquel le point appartient. ">
<polygon fill="white" stroke="black" points="364,-247.038 364,-266.038 444,-266.038 444,-247.038 364,-247.038"/>
<text text-anchor="middle" x="404" y="-254.038" font-family="Helvetica,sans-Serif" font-size="10.00">Point::beAlone</text>
</a>
</g>
</g>
<!-- Node6&#45;&gt;Node9 -->
<g id="edge16" class="edge"><title>Node6&#45;&gt;Node9</title>
<path fill="none" stroke="midnightblue" d="M181.148,-248.739C228.524,-250.404 313.981,-253.409 363.871,-255.163"/>
<polygon fill="midnightblue" stroke="midnightblue" points="181.201,-245.238 171.084,-248.385 180.955,-252.234 181.201,-245.238"/>
</g>
<!-- Node13 -->
<g id="node13" class="node"><title>Node13</title>
<g id="a_node13"><a xlink:href="class_point.html#a3cdf750fa08f24c2aaaf7ada42df5ad8" target="_top" xlink:title="Modifie l&#39;ordonnée du point par rapport à son origine. ">
<polygon fill="white" stroke="black" points="371.5,-332.038 371.5,-351.038 436.5,-351.038 436.5,-332.038 371.5,-332.038"/>
<text text-anchor="middle" x="404" y="-339.038" font-family="Helvetica,sans-Serif" font-size="10.00">Point::setY</text>
</a>
</g>
</g>
<!-- Node6&#45;&gt;Node13 -->
<g id="edge25" class="edge"><title>Node6&#45;&gt;Node13</title>
<path fill="none" stroke="midnightblue" d="M152.61,-266.814C162.058,-295.279 184.13,-347.555 224,-369.538 277.161,-398.85 351.904,-368.051 385.472,-351.116"/>
<polygon fill="midnightblue" stroke="midnightblue" points="155.923,-265.682 149.597,-257.183 149.243,-267.772 155.923,-265.682"/>
</g>
<!-- Node14 -->
<g id="node14" class="node"><title>Node14</title>
<g id="a_node14"><a xlink:href="_point_8hpp.html#a872cb140a1e5f546a31b4b3d891b765a" target="_top" xlink:title="Surchage de l&#39;operateur ==. ">
<polygon fill="white" stroke="black" points="240,-133.038 240,-152.038 304,-152.038 304,-133.038 240,-133.038"/>
<text text-anchor="middle" x="272" y="-140.038" font-family="Helvetica,sans-Serif" font-size="10.00">operator==</text>
</a>
</g>
</g>
<!-- Node6&#45;&gt;Node14 -->
<g id="edge17" class="edge"><title>Node6&#45;&gt;Node14</title>
<path fill="none" stroke="midnightblue" d="M159.23,-229.569C173.028,-210.463 197.082,-180.446 224,-161.538 229.185,-157.896 235.172,-154.799 241.098,-152.23"/>
<polygon fill="midnightblue" stroke="midnightblue" points="156.207,-227.784 153.313,-237.976 161.931,-231.813 156.207,-227.784"/>
</g>
<!-- Node15 -->
<g id="node15" class="node"><title>Node15</title>
<g id="a_node15"><a xlink:href="_point_8hpp.html#a4158330ef851082d91a82eefd03aa183" target="_top" xlink:title="Surchage de l&#39;operateur +. ">
<polygon fill="white" stroke="black" points="243,-95.0382 243,-114.038 301,-114.038 301,-95.0382 243,-95.0382"/>
<text text-anchor="middle" x="272" y="-102.038" font-family="Helvetica,sans-Serif" font-size="10.00">operator+</text>
</a>
</g>
</g>
<!-- Node6&#45;&gt;Node15 -->
<g id="edge18" class="edge"><title>Node6&#45;&gt;Node15</title>
<path fill="none" stroke="midnightblue" d="M158.145,-228.92C178.343,-195.277 219.346,-127.455 224,-123.538 229.387,-119.004 235.997,-115.449 242.539,-112.702"/>
<polygon fill="midnightblue" stroke="midnightblue" points="154.968,-227.413 152.827,-237.79 160.971,-231.013 154.968,-227.413"/>
</g>
<!-- Node16 -->
<g id="node16" class="node"><title>Node16</title>
<g id="a_node16"><a xlink:href="_point_8hpp.html#af304a4bde169f417ea02e56d3d4b7258" target="_top" xlink:title="Surchage de l&#39;operateur &#45;. ">
<polygon fill="white" stroke="black" points="244.5,-57.0382 244.5,-76.0382 299.5,-76.0382 299.5,-57.0382 244.5,-57.0382"/>
<text text-anchor="middle" x="272" y="-64.0382" font-family="Helvetica,sans-Serif" font-size="10.00">operator&#45;</text>
</a>
</g>
</g>
<!-- Node6&#45;&gt;Node16 -->
<g id="edge19" class="edge"><title>Node6&#45;&gt;Node16</title>
<path fill="none" stroke="midnightblue" d="M159.407,-228.993C168.062,-215.597 179.532,-196.883 188,-179.538 207.627,-139.336 192.659,-117.462 224,-85.5382 229.549,-79.8858 237.006,-75.8594 244.342,-73.0143"/>
<polygon fill="midnightblue" stroke="midnightblue" points="156.246,-227.431 153.686,-237.712 162.098,-231.271 156.246,-227.431"/>
</g>
<!-- Node17 -->
<g id="node17" class="node"><title>Node17</title>
<g id="a_node17"><a xlink:href="_point_8hpp.html#aab55cf13db83c55c46a961b2b2441960" target="_top" xlink:title="Surchage de l&#39;operateur &lt;&lt;. ">
<polygon fill="white" stroke="black" points="240,-209.038 240,-228.038 304,-228.038 304,-209.038 240,-209.038"/>
<text text-anchor="middle" x="272" y="-216.038" font-family="Helvetica,sans-Serif" font-size="10.00">operator&lt;&lt;</text>
</a>
</g>
</g>
<!-- Node6&#45;&gt;Node17 -->
<g id="edge20" class="edge"><title>Node6&#45;&gt;Node17</title>
<path fill="none" stroke="midnightblue" d="M181.184,-239.544C199.515,-235.256 221.94,-230.012 239.796,-225.836"/>
<polygon fill="midnightblue" stroke="midnightblue" points="180.143,-236.192 171.203,-241.878 181.737,-243.009 180.143,-236.192"/>
</g>
<!-- Node18 -->
<g id="node18" class="node"><title>Node18</title>
<g id="a_node18"><a xlink:href="_point_8hpp.html#a4e1acba0f26daf714b7816d3c1994a74" target="_top" xlink:title="Surchage de l&#39;operateur &lt;. ">
<polygon fill="white" stroke="black" points="243,-171.038 243,-190.038 301,-190.038 301,-171.038 243,-171.038"/>
<text text-anchor="middle" x="272" y="-178.038" font-family="Helvetica,sans-Serif" font-size="10.00">operator&lt;</text>
</a>
</g>
</g>
<!-- Node6&#45;&gt;Node18 -->
<g id="edge21" class="edge"><title>Node6&#45;&gt;Node18</title>
<path fill="none" stroke="midnightblue" d="M169.372,-232.15C184.426,-222.16 204.933,-209.243 224,-199.538 230.589,-196.185 237.914,-192.986 244.783,-190.202"/>
<polygon fill="midnightblue" stroke="midnightblue" points="167.111,-229.452 160.765,-237.937 171.017,-235.261 167.111,-229.452"/>
</g>
<!-- Node19 -->
<g id="node19" class="node"><title>Node19</title>
<g id="a_node19"><a xlink:href="class_point.html#a61727372965e26cbd7e661157d959ae9" target="_top" xlink:title="Modifie les coordonnées du point indépendamment de son origine. ">
<polygon fill="white" stroke="black" points="224.5,-323.038 224.5,-342.038 319.5,-342.038 319.5,-323.038 224.5,-323.038"/>
<text text-anchor="middle" x="272" y="-330.038" font-family="Helvetica,sans-Serif" font-size="10.00">Point::setRelative</text>
</a>
</g>
</g>
<!-- Node6&#45;&gt;Node19 -->
<g id="edge23" class="edge"><title>Node6&#45;&gt;Node19</title>
<path fill="none" stroke="midnightblue" d="M163.514,-264.516C178.314,-279.006 201.153,-299.644 224,-313.538 229.865,-317.105 236.52,-320.263 242.938,-322.929"/>
<polygon fill="midnightblue" stroke="midnightblue" points="165.719,-261.772 156.17,-257.181 160.772,-266.724 165.719,-261.772"/>
</g>
<!-- Node7&#45;&gt;Node3 -->
<g id="edge8" class="edge"><title>Node7&#45;&gt;Node3</title>
<path fill="none" stroke="midnightblue" d="M310.881,-307.709C314.092,-309.455 317.183,-311.394 320,-313.538 340.936,-329.476 336.344,-343.046 356,-360.538 364.089,-367.736 374.293,-374.076 383.126,-378.895"/>
<polygon fill="midnightblue" stroke="midnightblue" points="312.178,-304.449 301.647,-303.29 309.157,-310.764 312.178,-304.449"/>
</g>
<!-- Node8 -->
<g id="node8" class="node"><title>Node8</title>
<g id="a_node8"><a xlink:href="class_point.html#a4fa7ffadfb6c9de033bfef5decdaa66e" target="_top" xlink:title="Rejoint le groupe d&#39;un point. ">
<polygon fill="white" stroke="black" points="509,-285.038 509,-304.038 569,-304.038 569,-285.038 509,-285.038"/>
<text text-anchor="middle" x="539" y="-292.038" font-family="Helvetica,sans-Serif" font-size="10.00">Point::join</text>
</a>
</g>
</g>
<!-- Node7&#45;&gt;Node8 -->
<g id="edge9" class="edge"><title>Node7&#45;&gt;Node8</title>
<path fill="none" stroke="midnightblue" d="M311.733,-294.538C365.269,-294.538 460.693,-294.538 508.702,-294.538"/>
<polygon fill="midnightblue" stroke="midnightblue" points="311.611,-291.038 301.611,-294.538 311.611,-298.038 311.611,-291.038"/>
</g>
<!-- Node7&#45;&gt;Node9 -->
<g id="edge10" class="edge"><title>Node7&#45;&gt;Node9</title>
<path fill="none" stroke="midnightblue" d="M311.264,-283.353C330.054,-277.861 352.454,-271.313 370.416,-266.063"/>
<polygon fill="midnightblue" stroke="midnightblue" points="310.145,-280.034 301.529,-286.199 312.109,-286.753 310.145,-280.034"/>
</g>
<!-- Node12 -->
<g id="node12" class="node"><title>Node12</title>
<g id="a_node12"><a xlink:href="class_point.html#a62fd0fb2c699d6d4699d3be73762ffa2" target="_top" xlink:title="Modifie l&#39;abscisse du point par rapport à son origine. ">
<polygon fill="white" stroke="black" points="371.5,-95.0382 371.5,-114.038 436.5,-114.038 436.5,-95.0382 371.5,-95.0382"/>
<text text-anchor="middle" x="404" y="-102.038" font-family="Helvetica,sans-Serif" font-size="10.00">Point::setX</text>
</a>
</g>
</g>
<!-- Node7&#45;&gt;Node12 -->
<g id="edge14" class="edge"><title>Node7&#45;&gt;Node12</title>
<path fill="none" stroke="midnightblue" d="M288.378,-277.117C297.873,-266.069 310.09,-251.31 320,-237.538 351.953,-193.132 384.897,-136.467 397.578,-114.168"/>
<polygon fill="midnightblue" stroke="midnightblue" points="285.65,-274.921 281.732,-284.765 290.933,-279.513 285.65,-274.921"/>
</g>
<!-- Node7&#45;&gt;Node13 -->
<g id="edge15" class="edge"><title>Node7&#45;&gt;Node13</title>
<path fill="none" stroke="midnightblue" d="M308.989,-307.55C330.299,-315.254 356.843,-324.851 376.285,-331.88"/>
<polygon fill="midnightblue" stroke="midnightblue" points="309.902,-304.158 299.307,-304.049 307.522,-310.741 309.902,-304.158"/>
</g>
<!-- Node9&#45;&gt;Node8 -->
<g id="edge13" class="edge"><title>Node9&#45;&gt;Node8</title>
<path fill="none" stroke="midnightblue" d="M448.323,-268.916C468.194,-274.594 491.222,-281.173 508.967,-286.243"/>
<polygon fill="midnightblue" stroke="midnightblue" points="449.138,-265.509 438.562,-266.127 447.215,-272.24 449.138,-265.509"/>
</g>
<!-- Node10 -->
<g id="node10" class="node"><title>Node10</title>
<g id="a_node10"><a xlink:href="class_point.html#a395fa04b4ec126b66fc053f829a30cc1" target="_top" xlink:title="Destructeur. ">
<polygon fill="white" stroke="black" points="502,-209.038 502,-228.038 576,-228.038 576,-209.038 502,-209.038"/>
<text text-anchor="middle" x="539" y="-216.038" font-family="Helvetica,sans-Serif" font-size="10.00">Point::~Point</text>
</a>
</g>
</g>
<!-- Node9&#45;&gt;Node10 -->
<g id="edge11" class="edge"><title>Node9&#45;&gt;Node10</title>
<path fill="none" stroke="midnightblue" d="M448.367,-244.148C466.581,-238.944 487.439,-232.984 504.449,-228.124"/>
<polygon fill="midnightblue" stroke="midnightblue" points="447.215,-240.837 438.562,-246.949 449.138,-247.567 447.215,-240.837"/>
</g>
<!-- Node11 -->
<g id="node11" class="node"><title>Node11</title>
<g id="a_node11"><a xlink:href="class_point.html#a2a77e4f4e0521de921e7066052530763" target="_top" xlink:title="Opérateur d&#39;affectation. ">
<polygon fill="white" stroke="black" points="496,-247.038 496,-266.038 582,-266.038 582,-247.038 496,-247.038"/>
<text text-anchor="middle" x="539" y="-254.038" font-family="Helvetica,sans-Serif" font-size="10.00">Point::operator=</text>
</a>
</g>
</g>
<!-- Node9&#45;&gt;Node11 -->
<g id="edge12" class="edge"><title>Node9&#45;&gt;Node11</title>
<path fill="none" stroke="midnightblue" d="M454.368,-256.538C468.002,-256.538 482.666,-256.538 495.849,-256.538"/>
<polygon fill="midnightblue" stroke="midnightblue" points="454.185,-253.038 444.185,-256.538 454.185,-260.038 454.185,-253.038"/>
</g>
<!-- Node19&#45;&gt;Node19 -->
<g id="edge24" class="edge"><title>Node19&#45;&gt;Node19</title>
<path fill="none" stroke="midnightblue" d="M248.563,-351.567C249.841,-356.666 257.654,-360.538 272,-360.538 294.395,-360.538 300.868,-351.103 291.42,-342.295"/>
<polygon fill="midnightblue" stroke="midnightblue" points="251.816,-352.863 252.58,-342.295 245.393,-350.08 251.816,-352.863"/>
</g>
<!-- Node20&#45;&gt;Node7 -->
<g id="edge28" class="edge"><title>Node20&#45;&gt;Node7</title>
<path fill="none" stroke="midnightblue" d="M161.176,-160.119C176.591,-179.214 201.976,-210.599 224,-237.538 237.638,-254.221 253.618,-273.555 262.992,-284.877"/>
<polygon fill="midnightblue" stroke="midnightblue" points="163.847,-157.855 154.843,-152.27 158.399,-162.25 163.847,-157.855"/>
</g>
<!-- Node20&#45;&gt;Node9 -->
<g id="edge29" class="edge"><title>Node20&#45;&gt;Node9</title>
<path fill="none" stroke="midnightblue" d="M155.686,-123.831C167.48,-100.942 190.946,-63.2949 224,-47.5382 262.514,-29.1783 284.699,-23.5743 320,-47.5382 328.964,-53.6231 384.798,-206.325 399.471,-246.78"/>
<polygon fill="midnightblue" stroke="midnightblue" points="152.496,-122.386 151.223,-132.904 158.777,-125.475 152.496,-122.386"/>
</g>
<!-- Node20&#45;&gt;Node12 -->
<g id="edge35" class="edge"><title>Node20&#45;&gt;Node12</title>
<path fill="none" stroke="midnightblue" d="M152.067,-123.175C160.982,-93.552 182.583,-37.9567 224,-14.5382 261.141,6.46231 280.919,2.58331 320,-14.5382 358.159,-31.2557 386.54,-75.1309 397.748,-94.779"/>
<polygon fill="midnightblue" stroke="midnightblue" points="148.696,-122.231 149.343,-132.806 155.432,-124.136 148.696,-122.231"/>
</g>
<!-- Node20&#45;&gt;Node14 -->
<g id="edge30" class="edge"><title>Node20&#45;&gt;Node14</title>
<path fill="none" stroke="midnightblue" d="M181.44,-142.538C199.724,-142.538 222.023,-142.538 239.796,-142.538"/>
<polygon fill="midnightblue" stroke="midnightblue" points="181.203,-139.038 171.203,-142.538 181.203,-146.038 181.203,-139.038"/>
</g>
<!-- Node20&#45;&gt;Node15 -->
<g id="edge31" class="edge"><title>Node20&#45;&gt;Node15</title>
<path fill="none" stroke="midnightblue" d="M180.906,-132.148C200.385,-126.178 224.556,-118.771 242.957,-113.132"/>
<polygon fill="midnightblue" stroke="midnightblue" points="179.738,-128.845 171.203,-135.121 181.789,-135.537 179.738,-128.845"/>
</g>
<!-- Node20&#45;&gt;Node16 -->
<g id="edge32" class="edge"><title>Node20&#45;&gt;Node16</title>
<path fill="none" stroke="midnightblue" d="M166.128,-126.234C181.168,-113.959 203.016,-97.2951 224,-85.5382 230.296,-82.0106 237.381,-78.7934 244.103,-76.0498"/>
<polygon fill="midnightblue" stroke="midnightblue" points="163.576,-123.803 158.118,-132.884 168.047,-129.189 163.576,-123.803"/>
</g>
<!-- Node20&#45;&gt;Node17 -->
<g id="edge33" class="edge"><title>Node20&#45;&gt;Node17</title>
<path fill="none" stroke="midnightblue" d="M166.128,-158.843C181.168,-171.117 203.016,-187.781 224,-199.538 230.296,-203.066 237.381,-206.283 244.103,-209.027"/>
<polygon fill="midnightblue" stroke="midnightblue" points="168.047,-155.887 158.118,-152.193 163.576,-161.273 168.047,-155.887"/>
</g>
<!-- Node20&#45;&gt;Node18 -->
<g id="edge34" class="edge"><title>Node20&#45;&gt;Node18</title>
<path fill="none" stroke="midnightblue" d="M180.906,-152.929C200.385,-158.898 224.556,-166.305 242.957,-171.944"/>
<polygon fill="midnightblue" stroke="midnightblue" points="181.789,-149.539 171.203,-149.955 179.738,-156.232 181.789,-149.539"/>
</g>
<!-- Node20&#45;&gt;Node20 -->
<g id="edge27" class="edge"><title>Node20&#45;&gt;Node20</title>
<path fill="none" stroke="midnightblue" d="M125.26,-161.938C126.645,-166.853 133.559,-170.538 146,-170.538 165.906,-170.538 171.66,-161.103 163.262,-152.295"/>
<polygon fill="midnightblue" stroke="midnightblue" points="128.638,-162.89 128.738,-152.295 122.053,-160.515 128.638,-162.89"/>
</g>
</g>
</svg>
        <g id="navigator" transform="translate(0 0)" fill="#404254">
                <rect fill="#f2f5e9" fill-opacity="0.5" stroke="#606060" stroke-width=".5" x="0" y="0" width="60" height="60"/>
                <use id="zoomplus" xlink:href="#zoomPlus" x="17" y="9" onmousedown="handleZoom(evt,'in')"/>
                <use id="zoomminus" xlink:href="#zoomMin" x="42" y="9" onmousedown="handleZoom(evt,'out')"/>
                <use id="reset" xlink:href="#resetDef" x="30" y="36" onmousedown="handleReset()"/>
                <g id="arrowUp" xlink:href="#dirArrow" transform="translate(30 24)" onmousedown="handlePan(0,-1)">
                  <use xlink:href="#rim" fill="#404040">
                        <set attributeName="fill" to="#808080" begin="arrowUp.mouseover" end="arrowUp.mouseout"/>
                  </use>
                  <path fill="none" stroke="white" stroke-width="1.5" d="M0,-3.0v7 M-2.5,-0.5L0,-3.0L2.5,-0.5"/>
                </g>
                <g id="arrowRight" xlink:href="#dirArrow" transform="rotate(90) translate(36 -43)" onmousedown="handlePan(1,0)">
                  <use xlink:href="#rim" fill="#404040">
                        <set attributeName="fill" to="#808080" begin="arrowRight.mouseover" end="arrowRight.mouseout"/>
                  </use>
                  <path fill="none" stroke="white" stroke-width="1.5" d="M0,-3.0v7 M-2.5,-0.5L0,-3.0L2.5,-0.5"/>
                </g>
                <g id="arrowDown" xlink:href="#dirArrow" transform="rotate(180) translate(-30 -48)" onmousedown="handlePan(0,1)">
                  <use xlink:href="#rim" fill="#404040">
                        <set attributeName="fill" to="#808080" begin="arrowDown.mouseover" end="arrowDown.mouseout"/>
                  </use>
                  <path fill="none" stroke="white" stroke-width="1.5" d="M0,-3.0v7 M-2.5,-0.5L0,-3.0L2.5,-0.5"/>
                </g>
                <g id="arrowLeft" xlink:href="#dirArrow" transform="rotate(270) translate(-36 17)" onmousedown="handlePan(-1,0)">
                  <use xlink:href="#rim" fill="#404040">
                        <set attributeName="fill" to="#808080" begin="arrowLeft.mouseover" end="arrowLeft.mouseout"/>
                  </use>
                  <path fill="none" stroke="white" stroke-width="1.5" d="M0,-3.0v7 M-2.5,-0.5L0,-3.0L2.5,-0.5"/>
                </g>
        </g>
        <svg viewBox="0 0 15 15" width="100%" height="30px" preserveAspectRatio="xMaxYMin meet">
         <g id="arrow_out" transform="scale(0.3 0.3)">
          <a xlink:href="class_point_afa7d33502738b0b3df186a91e11ff2a8_icgraph_org.svg" target="_base">
           <rect id="button" ry="5" rx="5" y="6" x="6" height="38" width="38"
                fill="#f2f5e9" fill-opacity="0.5" stroke="#606060" stroke-width="1.0"/>
           <path id="arrow"
             d="M 11.500037,31.436501 C 11.940474,20.09759 22.043105,11.32322 32.158766,21.979434 L 37.068811,17.246167 C 37.068811,17.246167 37.088388,32 37.088388,32 L 22.160133,31.978069 C 22.160133,31.978069 26.997745,27.140456 26.997745,27.140456 C 18.528582,18.264221 13.291696,25.230495 11.500037,31.436501 z"
             style="fill:#404040;"/>
          </a>
         </g>
        </svg>
</svg>
