<?xml version="1.0" encoding="UTF-8" standalone="no"?>
<!DOCTYPE svg PUBLIC "-//W3C//DTD SVG 1.1//EN"
 "http://www.w3.org/Graphics/SVG/1.1/DTD/svg11.dtd">
<!-- Generated by graphviz version 2.36.0 (20140111.2315)
 -->
<!-- Title: GraphicsBlinkAnimation Pages: 1 -->
<!--zoomable 670 -->
<svg id="main" version="1.1" xmlns="http://www.w3.org/2000/svg" xmlns:xlink="http://www.w3.org/1999/xlink" xml:space="preserve" onload="init(evt)">
<style type="text/css"><![CDATA[
.edge:hover path { stroke: red; }
.edge:hover polygon { stroke: red; fill: red; }
]]></style>
<script type="text/javascript"><![CDATA[
var edges = document.getElementsByTagName('g');
if (edges && edges.length) {
  for (var i=0;i<edges.length;i++) {
    if (edges[i].id.substr(0,4)=='edge') {
      edges[i].setAttribute('class','edge');
    }
  }
}
]]></script>
        <defs>
                <circle id="rim" cx="0" cy="0" r="7"/>
                <circle id="rim2" cx="0" cy="0" r="3.5"/>
                <g id="zoomPlus">
                        <use xlink:href="#rim" fill="#404040">
                                <set attributeName="fill" to="#808080" begin="zoomplus.mouseover" end="zoomplus.mouseout"/>
                        </use>
                        <path d="M-4,0h8M0,-4v8" fill="none" stroke="white" stroke-width="1.5" pointer-events="none"/>
                </g>
                <g id="zoomMin">
                        <use xlink:href="#rim" fill="#404040">
                                <set attributeName="fill" to="#808080" begin="zoomminus.mouseover" end="zoomminus.mouseout"/>
                        </use>
                        <path d="M-4,0h8" fill="none" stroke="white" stroke-width="1.5" pointer-events="none"/>
                </g>
                <g id="dirArrow">
                        <path fill="none" stroke="white" stroke-width="1.5" d="M0,-3.0v7 M-2.5,-0.5L0,-3.0L2.5,-0.5"/>
                </g>
               <g id="resetDef">
                       <use xlink:href="#rim2" fill="#404040">
                               <set attributeName="fill" to="#808080" begin="reset.mouseover" end="reset.mouseout"/>
                       </use>
               </g>
        </defs>

<script type="text/javascript">
var viewWidth = 144;
var viewHeight = 670;
var sectionId = 'dynsection-1';
</script>
<script xlink:href="svgpan.js"/>
<svg id="graph" class="graph">
<g id="viewport">
<title>GraphicsBlinkAnimation</title>
<polygon fill="white" stroke="none" points="-4,4 -4,-666 140,-666 140,4 -4,4"/>
<!-- Node1 -->
<g id="node1" class="node"><title>Node1</title>
<polygon fill="#bfbfbf" stroke="black" points="0,-1 0,-157 136,-157 136,-1 0,-1"/>
<text text-anchor="middle" x="68" y="-145" font-family="Helvetica,sans-Serif" font-size="10.00">GraphicsBlinkAnimation</text>
<polyline fill="none" stroke="black" points="0,-138 136,-138 "/>
<text text-anchor="middle" x="68" y="-126" font-family="Helvetica,sans-Serif" font-size="10.00"> </text>
<polyline fill="none" stroke="black" points="0,-119 136,-119 "/>
<text text-anchor="start" x="8" y="-107" font-family="Helvetica,sans-Serif" font-size="10.00">+ GraphicsBlinkAnimation()</text>
<text text-anchor="start" x="8" y="-96" font-family="Helvetica,sans-Serif" font-size="10.00">+ GraphicsBlinkAnimation()</text>
<text text-anchor="start" x="8" y="-85" font-family="Helvetica,sans-Serif" font-size="10.00">+ blinkFrequency()</text>
<text text-anchor="start" x="8" y="-74" font-family="Helvetica,sans-Serif" font-size="10.00">+ setBlinkFrequency()</text>
<text text-anchor="start" x="8" y="-63" font-family="Helvetica,sans-Serif" font-size="10.00">+ becomeColor()</text>
<text text-anchor="start" x="8" y="-52" font-family="Helvetica,sans-Serif" font-size="10.00">+ setBecomeColor()</text>
<text text-anchor="start" x="8" y="-41" font-family="Helvetica,sans-Serif" font-size="10.00">+ becomeInvisible()</text>
<text text-anchor="start" x="8" y="-30" font-family="Helvetica,sans-Serif" font-size="10.00">+ setBecomeInvisible()</text>
<text text-anchor="start" x="8" y="-19" font-family="Helvetica,sans-Serif" font-size="10.00">+ type()</text>
<text text-anchor="start" x="8" y="-8" font-family="Helvetica,sans-Serif" font-size="10.00"># meUpdate()</text>
</g>
<!-- Node2 -->
<g id="node2" class="node"><title>Node2</title>
<g id="a_node2"><a xlink:href="class_graphics_animation.html" target="_top" xlink:title="Classe de base pour les animations. ">
<polygon fill="white" stroke="black" points="11,-195 11,-285 125,-285 125,-195 11,-195"/>
<text text-anchor="middle" x="68" y="-273" font-family="Helvetica,sans-Serif" font-size="10.00">GraphicsAnimation</text>
<polyline fill="none" stroke="black" points="11,-266 125,-266 "/>
<text text-anchor="middle" x="68" y="-254" font-family="Helvetica,sans-Serif" font-size="10.00"> </text>
<polyline fill="none" stroke="black" points="11,-247 125,-247 "/>
<text text-anchor="start" x="19" y="-235" font-family="Helvetica,sans-Serif" font-size="10.00">+ GraphicsAnimation()</text>
<text text-anchor="start" x="19" y="-224" font-family="Helvetica,sans-Serif" font-size="10.00">+ GraphicsAnimation()</text>
<text text-anchor="start" x="19" y="-213" font-family="Helvetica,sans-Serif" font-size="10.00">+ GraphicsAnimation()</text>
<text text-anchor="start" x="19" y="-202" font-family="Helvetica,sans-Serif" font-size="10.00">+ type()</text>
</a>
</g>
</g>
<!-- Node2&#45;&gt;Node1 -->
<g id="edge1" class="edge"><title>Node2&#45;&gt;Node1</title>
<path fill="none" stroke="midnightblue" d="M68,-184.592C68,-175.768 68,-166.485 68,-157.242"/>
<polygon fill="none" stroke="midnightblue" points="64.5001,-184.71 68,-194.71 71.5001,-184.71 64.5001,-184.71"/>
</g>
<!-- Node3 -->
<g id="node3" class="node"><title>Node3</title>
<g id="a_node3"><a xlink:href="class_graphics_item.html" target="_top" xlink:title="Classe de base. ">
<polygon fill="white" stroke="black" points="17.5,-323 17.5,-567 118.5,-567 118.5,-323 17.5,-323"/>
<text text-anchor="middle" x="68" y="-555" font-family="Helvetica,sans-Serif" font-size="10.00">GraphicsItem</text>
<polyline fill="none" stroke="black" points="17.5,-548 118.5,-548 "/>
<text text-anchor="middle" x="68" y="-536" font-family="Helvetica,sans-Serif" font-size="10.00"> </text>
<polyline fill="none" stroke="black" points="17.5,-529 118.5,-529 "/>
<text text-anchor="start" x="25.5" y="-517" font-family="Helvetica,sans-Serif" font-size="10.00">+ GraphicsItem()</text>
<text text-anchor="start" x="25.5" y="-506" font-family="Helvetica,sans-Serif" font-size="10.00">+ GraphicsItem()</text>
<text text-anchor="start" x="25.5" y="-495" font-family="Helvetica,sans-Serif" font-size="10.00">+ GraphicsItem()</text>
<text text-anchor="start" x="25.5" y="-484" font-family="Helvetica,sans-Serif" font-size="10.00">+ ~GraphicsItem()</text>
<text text-anchor="start" x="25.5" y="-473" font-family="Helvetica,sans-Serif" font-size="10.00">+ id()</text>
<text text-anchor="start" x="25.5" y="-462" font-family="Helvetica,sans-Serif" font-size="10.00">+ parentId()</text>
<text text-anchor="start" x="25.5" y="-451" font-family="Helvetica,sans-Serif" font-size="10.00">+ parent()</text>
<text text-anchor="start" x="25.5" y="-440" font-family="Helvetica,sans-Serif" font-size="10.00">+ setParent()</text>
<text text-anchor="start" x="25.5" y="-429" font-family="Helvetica,sans-Serif" font-size="10.00">+ setParent()</text>
<text text-anchor="start" x="25.5" y="-418" font-family="Helvetica,sans-Serif" font-size="10.00">+ setParent()</text>
<text text-anchor="start" x="25.5" y="-407" font-family="Helvetica,sans-Serif" font-size="10.00">et 21 de plus...</text>
<text text-anchor="start" x="25.5" y="-396" font-family="Helvetica,sans-Serif" font-size="10.00">+ focusItem()</text>
<text text-anchor="start" x="25.5" y="-385" font-family="Helvetica,sans-Serif" font-size="10.00">+ setFocusItem()</text>
<text text-anchor="start" x="25.5" y="-374" font-family="Helvetica,sans-Serif" font-size="10.00">+ make()</text>
<text text-anchor="start" x="25.5" y="-363" font-family="Helvetica,sans-Serif" font-size="10.00"># meDraw()</text>
<text text-anchor="start" x="25.5" y="-352" font-family="Helvetica,sans-Serif" font-size="10.00"># meUpdate()</text>
<text text-anchor="start" x="25.5" y="-341" font-family="Helvetica,sans-Serif" font-size="10.00"># meHandleEvent()</text>
<text text-anchor="start" x="25.5" y="-330" font-family="Helvetica,sans-Serif" font-size="10.00"># meIsOver()</text>
</a>
</g>
</g>
<!-- Node3&#45;&gt;Node2 -->
<g id="edge2" class="edge"><title>Node3&#45;&gt;Node2</title>
<path fill="none" stroke="midnightblue" d="M68,-312.718C68,-302.99 68,-293.663 68,-285.14"/>
<polygon fill="none" stroke="midnightblue" points="64.5001,-312.983 68,-322.983 71.5001,-312.983 64.5001,-312.983"/>
</g>
<!-- Node4 -->
<g id="node4" class="node"><title>Node4</title>
<polygon fill="white" stroke="#bfbfbf" points="17.5,-604.5 17.5,-661.5 118.5,-661.5 118.5,-604.5 17.5,-604.5"/>
<text text-anchor="middle" x="68" y="-649.5" font-family="Helvetica,sans-Serif" font-size="10.00">boost::noncopyable</text>
<polyline fill="none" stroke="#bfbfbf" points="17.5,-642.5 118.5,-642.5 "/>
<text text-anchor="middle" x="68" y="-630.5" font-family="Helvetica,sans-Serif" font-size="10.00"> </text>
<polyline fill="none" stroke="#bfbfbf" points="17.5,-623.5 118.5,-623.5 "/>
<text text-anchor="middle" x="68" y="-611.5" font-family="Helvetica,sans-Serif" font-size="10.00"> </text>
</g>
<!-- Node4&#45;&gt;Node3 -->
<g id="edge3" class="edge"><title>Node4&#45;&gt;Node3</title>
<path fill="none" stroke="#8b1a1a" d="M68,-593.933C68,-585.741 68,-576.663 68,-567.15"/>
<polygon fill="none" stroke="#8b1a1a" points="64.5001,-594.154 68,-604.154 71.5001,-594.154 64.5001,-594.154"/>
</g>
</g>
</svg>
        <g id="navigator" transform="translate(0 0)" fill="#404254">
                <rect fill="#f2f5e9" fill-opacity="0.5" stroke="#606060" stroke-width=".5" x="0" y="0" width="60" height="60"/>
                <use id="zoomplus" xlink:href="#zoomPlus" x="17" y="9" onmousedown="handleZoom(evt,'in')"/>
                <use id="zoomminus" xlink:href="#zoomMin" x="42" y="9" onmousedown="handleZoom(evt,'out')"/>
                <use id="reset" xlink:href="#resetDef" x="30" y="36" onmousedown="handleReset()"/>
                <g id="arrowUp" xlink:href="#dirArrow" transform="translate(30 24)" onmousedown="handlePan(0,-1)">
                  <use xlink:href="#rim" fill="#404040">
                        <set attributeName="fill" to="#808080" begin="arrowUp.mouseover" end="arrowUp.mouseout"/>
                  </use>
                  <path fill="none" stroke="white" stroke-width="1.5" d="M0,-3.0v7 M-2.5,-0.5L0,-3.0L2.5,-0.5"/>
                </g>
                <g id="arrowRight" xlink:href="#dirArrow" transform="rotate(90) translate(36 -43)" onmousedown="handlePan(1,0)">
                  <use xlink:href="#rim" fill="#404040">
                        <set attributeName="fill" to="#808080" begin="arrowRight.mouseover" end="arrowRight.mouseout"/>
                  </use>
                  <path fill="none" stroke="white" stroke-width="1.5" d="M0,-3.0v7 M-2.5,-0.5L0,-3.0L2.5,-0.5"/>
                </g>
                <g id="arrowDown" xlink:href="#dirArrow" transform="rotate(180) translate(-30 -48)" onmousedown="handlePan(0,1)">
                  <use xlink:href="#rim" fill="#404040">
                        <set attributeName="fill" to="#808080" begin="arrowDown.mouseover" end="arrowDown.mouseout"/>
                  </use>
                  <path fill="none" stroke="white" stroke-width="1.5" d="M0,-3.0v7 M-2.5,-0.5L0,-3.0L2.5,-0.5"/>
                </g>
                <g id="arrowLeft" xlink:href="#dirArrow" transform="rotate(270) translate(-36 17)" onmousedown="handlePan(-1,0)">
                  <use xlink:href="#rim" fill="#404040">
                        <set attributeName="fill" to="#808080" begin="arrowLeft.mouseover" end="arrowLeft.mouseout"/>
                  </use>
                  <path fill="none" stroke="white" stroke-width="1.5" d="M0,-3.0v7 M-2.5,-0.5L0,-3.0L2.5,-0.5"/>
                </g>
        </g>
        <svg viewBox="0 0 15 15" width="100%" height="30px" preserveAspectRatio="xMaxYMin meet">
         <g id="arrow_out" transform="scale(0.3 0.3)">
          <a xlink:href="class_graphics_blink_animation__coll__graph_org.svg" target="_base">
           <rect id="button" ry="5" rx="5" y="6" x="6" height="38" width="38"
                fill="#f2f5e9" fill-opacity="0.5" stroke="#606060" stroke-width="1.0"/>
           <path id="arrow"
             d="M 11.500037,31.436501 C 11.940474,20.09759 22.043105,11.32322 32.158766,21.979434 L 37.068811,17.246167 C 37.068811,17.246167 37.088388,32 37.088388,32 L 22.160133,31.978069 C 22.160133,31.978069 26.997745,27.140456 26.997745,27.140456 C 18.528582,18.264221 13.291696,25.230495 11.500037,31.436501 z"
             style="fill:#404040;"/>
          </a>
         </g>
        </svg>
</svg>
