<?xml version="1.0" encoding="UTF-8" standalone="no"?>
<!DOCTYPE svg PUBLIC "-//W3C//DTD SVG 1.1//EN"
 "http://www.w3.org/Graphics/SVG/1.1/DTD/svg11.dtd">
<!-- Generated by graphviz version 2.36.0 (20140111.2315)
 -->
<!-- Title: Color::saturation Pages: 1 -->
<!--zoomable 97 -->
<svg id="main" version="1.1" xmlns="http://www.w3.org/2000/svg" xmlns:xlink="http://www.w3.org/1999/xlink" xml:space="preserve" onload="init(evt)">
<style type="text/css"><![CDATA[
.edge:hover path { stroke: red; }
.edge:hover polygon { stroke: red; fill: red; }
]]></style>
<script type="text/javascript"><![CDATA[
var edges = document.getElementsByTagName('g');
if (edges && edges.length) {
  for (var i=0;i<edges.length;i++) {
    if (edges[i].id.substr(0,4)=='edge') {
      edges[i].setAttribute('class','edge');
    }
  }
}
]]></script>
        <defs>
                <circle id="rim" cx="0" cy="0" r="7"/>
                <circle id="rim2" cx="0" cy="0" r="3.5"/>
                <g id="zoomPlus">
                        <use xlink:href="#rim" fill="#404040">
                                <set attributeName="fill" to="#808080" begin="zoomplus.mouseover" end="zoomplus.mouseout"/>
                        </use>
                        <path d="M-4,0h8M0,-4v8" fill="none" stroke="white" stroke-width="1.5" pointer-events="none"/>
                </g>
                <g id="zoomMin">
                        <use xlink:href="#rim" fill="#404040">
                                <set attributeName="fill" to="#808080" begin="zoomminus.mouseover" end="zoomminus.mouseout"/>
                        </use>
                        <path d="M-4,0h8" fill="none" stroke="white" stroke-width="1.5" pointer-events="none"/>
                </g>
                <g id="dirArrow">
                        <path fill="none" stroke="white" stroke-width="1.5" d="M0,-3.0v7 M-2.5,-0.5L0,-3.0L2.5,-0.5"/>
                </g>
               <g id="resetDef">
                       <use xlink:href="#rim2" fill="#404040">
                               <set attributeName="fill" to="#808080" begin="reset.mouseover" end="reset.mouseout"/>
                       </use>
               </g>
        </defs>

<script type="text/javascript">
var viewWidth = 542;
var viewHeight = 97;
var sectionId = 'dynsection-14';
</script>
<script xlink:href="svgpan.js"/>
<svg id="graph" class="graph">
<g id="viewport">
<title>Color::saturation</title>
<polygon fill="white" stroke="none" points="-4,4 -4,-92.9477 538,-92.9477 538,4 -4,4"/>
<!-- Node1 -->
<g id="node1" class="node"><title>Node1</title>
<polygon fill="#bfbfbf" stroke="black" points="0.5,-31.4477 0.5,-50.4477 89.5,-50.4477 89.5,-31.4477 0.5,-31.4477"/>
<text text-anchor="middle" x="45" y="-38.4477" font-family="Helvetica,sans-Serif" font-size="10.00">Color::saturation</text>
</g>
<!-- Node2 -->
<g id="node2" class="node"><title>Node2</title>
<g id="a_node2"><a xlink:href="class_color.html#a5a3f8aa2c7079231d10fbf3c2c87bf61" target="_top" xlink:title="Recupere la valeur de la premier couleur ( systeme RGB ). ">
<polygon fill="white" stroke="black" points="347.5,-69.4477 347.5,-88.4477 406.5,-88.4477 406.5,-69.4477 347.5,-69.4477"/>
<text text-anchor="middle" x="377" y="-76.4477" font-family="Helvetica,sans-Serif" font-size="10.00">Color::red</text>
</a>
</g>
</g>
<!-- Node1&#45;&gt;Node2 -->
<g id="edge1" class="edge"><title>Node1&#45;&gt;Node2</title>
<path fill="none" stroke="midnightblue" d="M84.576,-50.4836C97.6934,-53.6264 112.459,-57.0548 126,-59.9477 170.241,-69.3992 180.96,-74.7068 226,-78.9477 263.688,-82.4963 306.939,-82.015 337.284,-80.9362"/>
<polygon fill="midnightblue" stroke="midnightblue" points="337.594,-84.4268 347.448,-80.5353 337.318,-77.4322 337.594,-84.4268"/>
</g>
<!-- Node4 -->
<g id="node4" class="node"><title>Node4</title>
<g id="a_node4"><a xlink:href="class_color.html#abeb092c67b007163b357bd6327189394" target="_top" xlink:title="Recupere la valeur de la deuxieme couleur ( systeme RGB ). ">
<polygon fill="white" stroke="black" points="342,-12.4477 342,-31.4477 412,-31.4477 412,-12.4477 342,-12.4477"/>
<text text-anchor="middle" x="377" y="-19.4477" font-family="Helvetica,sans-Serif" font-size="10.00">Color::green</text>
</a>
</g>
</g>
<!-- Node1&#45;&gt;Node4 -->
<g id="edge3" class="edge"><title>Node1&#45;&gt;Node4</title>
<path fill="none" stroke="midnightblue" d="M75.2102,-31.3453C123.285,-16.7414 222.12,8.23372 306,-2.94775 316.485,-4.34542 327.626,-6.87152 337.863,-9.63504"/>
<polygon fill="midnightblue" stroke="midnightblue" points="337.166,-13.0754 347.742,-12.4447 339.081,-6.34244 337.166,-13.0754"/>
</g>
<!-- Node6 -->
<g id="node6" class="node"><title>Node6</title>
<g id="a_node6"><a xlink:href="class_color.html#ab8c3999a34eecf3ee1bfaced2b458cd6" target="_top" xlink:title="Recupere la valeur de la troisieme couleur ( systeme RGB ). ">
<polygon fill="white" stroke="black" points="126,-31.4477 126,-50.4477 190,-50.4477 190,-31.4477 126,-31.4477"/>
<text text-anchor="middle" x="158" y="-38.4477" font-family="Helvetica,sans-Serif" font-size="10.00">Color::blue</text>
</a>
</g>
</g>
<!-- Node1&#45;&gt;Node6 -->
<g id="edge5" class="edge"><title>Node1&#45;&gt;Node6</title>
<path fill="none" stroke="midnightblue" d="M89.5516,-40.9477C98.1876,-40.9477 107.229,-40.9477 115.784,-40.9477"/>
<polygon fill="midnightblue" stroke="midnightblue" points="115.919,-44.4478 125.919,-40.9477 115.919,-37.4478 115.919,-44.4478"/>
</g>
<!-- Node3 -->
<g id="node3" class="node"><title>Node3</title>
<g id="a_node3"><a xlink:href="class_color.html#a8ff299417275579e8ae4a065d8dfcf8d" target="_top" xlink:title="Modifie la valeur de la premier couleur ( systeme RGB ). ">
<polygon fill="white" stroke="black" points="452.5,-69.4477 452.5,-88.4477 529.5,-88.4477 529.5,-69.4477 452.5,-69.4477"/>
<text text-anchor="middle" x="491" y="-76.4477" font-family="Helvetica,sans-Serif" font-size="10.00">Color::setRed</text>
</a>
</g>
</g>
<!-- Node2&#45;&gt;Node3 -->
<g id="edge2" class="edge"><title>Node2&#45;&gt;Node3</title>
<path fill="none" stroke="midnightblue" d="M406.552,-78.9477C417.388,-78.9477 430.044,-78.9477 442.178,-78.9477"/>
<polygon fill="midnightblue" stroke="midnightblue" points="442.195,-82.4478 452.195,-78.9477 442.195,-75.4478 442.195,-82.4478"/>
</g>
<!-- Node5 -->
<g id="node5" class="node"><title>Node5</title>
<g id="a_node5"><a xlink:href="class_color.html#a1c17c3206b193c4a0ffabc13a6155e3d" target="_top" xlink:title="Modifie la valeur de la seconde couleur ( systeme RGB ). ">
<polygon fill="white" stroke="black" points="448,-12.4477 448,-31.4477 534,-31.4477 534,-12.4477 448,-12.4477"/>
<text text-anchor="middle" x="491" y="-19.4477" font-family="Helvetica,sans-Serif" font-size="10.00">Color::setGreen</text>
</a>
</g>
</g>
<!-- Node4&#45;&gt;Node5 -->
<g id="edge4" class="edge"><title>Node4&#45;&gt;Node5</title>
<path fill="none" stroke="midnightblue" d="M412.212,-21.9477C420.258,-21.9477 429.014,-21.9477 437.653,-21.9477"/>
<polygon fill="midnightblue" stroke="midnightblue" points="437.693,-25.4478 447.693,-21.9477 437.692,-18.4478 437.693,-25.4478"/>
</g>
<!-- Node7 -->
<g id="node7" class="node"><title>Node7</title>
<g id="a_node7"><a xlink:href="class_color.html#ae752d55b3758a7181fd3c201ab87ca3b" target="_top" xlink:title="Modifie la valeur de la troisieme couleur ( systeme RGB ). ">
<polygon fill="white" stroke="black" points="226.5,-12.4477 226.5,-31.4477 305.5,-31.4477 305.5,-12.4477 226.5,-12.4477"/>
<text text-anchor="middle" x="266" y="-19.4477" font-family="Helvetica,sans-Serif" font-size="10.00">Color::setBlue</text>
</a>
</g>
</g>
<!-- Node6&#45;&gt;Node7 -->
<g id="edge6" class="edge"><title>Node6&#45;&gt;Node7</title>
<path fill="none" stroke="midnightblue" d="M180.963,-31.4182C191.196,-28.7156 203.813,-26.0744 216.13,-23.9757"/>
<polygon fill="midnightblue" stroke="midnightblue" points="217.021,-27.3781 226.347,-22.3509 215.922,-20.4649 217.021,-27.3781"/>
</g>
<!-- Node8 -->
<g id="node8" class="node"><title>Node8</title>
<g id="a_node8"><a xlink:href="class_color.html#ac99b62f877393bbadfeee7170eb31ecd" target="_top" xlink:title="Recupere la valeur de teinte ( systeme HSV ). ">
<polygon fill="white" stroke="black" points="235,-50.4477 235,-69.4477 297,-69.4477 297,-50.4477 235,-50.4477"/>
<text text-anchor="middle" x="266" y="-57.4477" font-family="Helvetica,sans-Serif" font-size="10.00">Color::hue</text>
</a>
</g>
</g>
<!-- Node6&#45;&gt;Node8 -->
<g id="edge8" class="edge"><title>Node6&#45;&gt;Node8</title>
<path fill="none" stroke="midnightblue" d="M190.23,-40.3295C203.759,-42.0529 219.578,-44.8783 233.173,-47.9964"/>
<polygon fill="midnightblue" stroke="midnightblue" points="232.515,-51.4387 243.061,-50.4246 234.184,-44.6406 232.515,-51.4387"/>
</g>
<!-- Node7&#45;&gt;Node6 -->
<g id="edge7" class="edge"><title>Node7&#45;&gt;Node6</title>
<path fill="none" stroke="midnightblue" d="M243.061,-31.4709C230.774,-34.7173 215.045,-37.8754 200.524,-40.1121"/>
<polygon fill="midnightblue" stroke="midnightblue" points="199.642,-36.7018 190.23,-41.5659 200.621,-43.633 199.642,-36.7018"/>
</g>
<!-- Node8&#45;&gt;Node2 -->
<g id="edge9" class="edge"><title>Node8&#45;&gt;Node2</title>
<path fill="none" stroke="midnightblue" d="M297.073,-65.1899C309.404,-67.3393 323.839,-69.8555 336.968,-72.144"/>
<polygon fill="midnightblue" stroke="midnightblue" points="336.7,-75.6499 347.152,-73.9192 337.902,-68.7539 336.7,-75.6499"/>
</g>
<!-- Node8&#45;&gt;Node4 -->
<g id="edge10" class="edge"><title>Node8&#45;&gt;Node4</title>
<path fill="none" stroke="midnightblue" d="M294.505,-50.3587C307.931,-45.6783 324.28,-39.9786 338.801,-34.9162"/>
<polygon fill="midnightblue" stroke="midnightblue" points="340.213,-38.1306 348.503,-31.5337 337.909,-31.5208 340.213,-38.1306"/>
</g>
<!-- Node8&#45;&gt;Node6 -->
<g id="edge11" class="edge"><title>Node8&#45;&gt;Node6</title>
<path fill="none" stroke="midnightblue" d="M234.625,-60.6738C220.976,-58.97 204.862,-56.1103 191.024,-52.9441"/>
<polygon fill="midnightblue" stroke="midnightblue" points="191.509,-49.4595 180.963,-50.4773 189.842,-56.2581 191.509,-49.4595"/>
</g>
</g>
</svg>
        <g id="navigator" transform="translate(0 0)" fill="#404254">
                <rect fill="#f2f5e9" fill-opacity="0.5" stroke="#606060" stroke-width=".5" x="0" y="0" width="60" height="60"/>
                <use id="zoomplus" xlink:href="#zoomPlus" x="17" y="9" onmousedown="handleZoom(evt,'in')"/>
                <use id="zoomminus" xlink:href="#zoomMin" x="42" y="9" onmousedown="handleZoom(evt,'out')"/>
                <use id="reset" xlink:href="#resetDef" x="30" y="36" onmousedown="handleReset()"/>
                <g id="arrowUp" xlink:href="#dirArrow" transform="translate(30 24)" onmousedown="handlePan(0,-1)">
                  <use xlink:href="#rim" fill="#404040">
                        <set attributeName="fill" to="#808080" begin="arrowUp.mouseover" end="arrowUp.mouseout"/>
                  </use>
                  <path fill="none" stroke="white" stroke-width="1.5" d="M0,-3.0v7 M-2.5,-0.5L0,-3.0L2.5,-0.5"/>
                </g>
                <g id="arrowRight" xlink:href="#dirArrow" transform="rotate(90) translate(36 -43)" onmousedown="handlePan(1,0)">
                  <use xlink:href="#rim" fill="#404040">
                        <set attributeName="fill" to="#808080" begin="arrowRight.mouseover" end="arrowRight.mouseout"/>
                  </use>
                  <path fill="none" stroke="white" stroke-width="1.5" d="M0,-3.0v7 M-2.5,-0.5L0,-3.0L2.5,-0.5"/>
                </g>
                <g id="arrowDown" xlink:href="#dirArrow" transform="rotate(180) translate(-30 -48)" onmousedown="handlePan(0,1)">
                  <use xlink:href="#rim" fill="#404040">
                        <set attributeName="fill" to="#808080" begin="arrowDown.mouseover" end="arrowDown.mouseout"/>
                  </use>
                  <path fill="none" stroke="white" stroke-width="1.5" d="M0,-3.0v7 M-2.5,-0.5L0,-3.0L2.5,-0.5"/>
                </g>
                <g id="arrowLeft" xlink:href="#dirArrow" transform="rotate(270) translate(-36 17)" onmousedown="handlePan(-1,0)">
                  <use xlink:href="#rim" fill="#404040">
                        <set attributeName="fill" to="#808080" begin="arrowLeft.mouseover" end="arrowLeft.mouseout"/>
                  </use>
                  <path fill="none" stroke="white" stroke-width="1.5" d="M0,-3.0v7 M-2.5,-0.5L0,-3.0L2.5,-0.5"/>
                </g>
        </g>
        <svg viewBox="0 0 15 15" width="100%" height="30px" preserveAspectRatio="xMaxYMin meet">
         <g id="arrow_out" transform="scale(0.3 0.3)">
          <a xlink:href="class_color_a9e232063ef1dfe5e98970700db822561_cgraph_org.svg" target="_base">
           <rect id="button" ry="5" rx="5" y="6" x="6" height="38" width="38"
                fill="#f2f5e9" fill-opacity="0.5" stroke="#606060" stroke-width="1.0"/>
           <path id="arrow"
             d="M 11.500037,31.436501 C 11.940474,20.09759 22.043105,11.32322 32.158766,21.979434 L 37.068811,17.246167 C 37.068811,17.246167 37.088388,32 37.088388,32 L 22.160133,31.978069 C 22.160133,31.978069 26.997745,27.140456 26.997745,27.140456 C 18.528582,18.264221 13.291696,25.230495 11.500037,31.436501 z"
             style="fill:#404040;"/>
          </a>
         </g>
        </svg>
</svg>
