<?xml version="1.0" encoding="UTF-8" standalone="no"?>
<!DOCTYPE svg PUBLIC "-//W3C//DTD SVG 1.1//EN"
 "http://www.w3.org/Graphics/SVG/1.1/DTD/svg11.dtd">
<!-- Generated by graphviz version 2.36.0 (20140111.2315)
 -->
<!-- Title: GraphicsItem::absolute Pages: 1 -->
<svg width="838pt" height="605pt"
 viewBox="0.00 0.00 838.00 605.00" xmlns="http://www.w3.org/2000/svg" xmlns:xlink="http://www.w3.org/1999/xlink">
<g id="graph0" class="graph" transform="scale(1 1) rotate(0) translate(4 601)">
<title>GraphicsItem::absolute</title>
<polygon fill="white" stroke="none" points="-4,4 -4,-601 834,-601 834,4 -4,4"/>
<!-- Node1 -->
<g id="node1" class="node"><title>Node1</title>
<polygon fill="#bfbfbf" stroke="black" points="0,-311.5 0,-330.5 118,-330.5 118,-311.5 0,-311.5"/>
<text text-anchor="middle" x="59" y="-318.5" font-family="Helvetica,sans-Serif" font-size="10.00">GraphicsItem::absolute</text>
</g>
<!-- Node1&#45;&gt;Node1 -->
<g id="edge4" class="edge"><title>Node1&#45;&gt;Node1</title>
<path fill="none" stroke="midnightblue" d="M27.9371,-339.275C28.8228,-344.741 39.1771,-349 59,-349 88.5039,-349 97.0324,-339.565 84.5854,-330.757"/>
<polygon fill="midnightblue" stroke="midnightblue" points="30.9495,-341.061 33.4146,-330.757 25.0618,-337.275 30.9495,-341.061"/>
</g>
<!-- Node2 -->
<g id="node2" class="node"><title>Node2</title>
<g id="a_node2"><a xlink:href="class_graphics_anchor.html#a1dc0e27c411d6b4b11d70bd4d8ae1699" target="_top" xlink:title="GraphicsAnchor::setAbsolute">
<polygon fill="white" stroke="black" points="154,-577.5 154,-596.5 298,-596.5 298,-577.5 154,-577.5"/>
<text text-anchor="middle" x="226" y="-584.5" font-family="Helvetica,sans-Serif" font-size="10.00">GraphicsAnchor::setAbsolute</text>
</a>
</g>
</g>
<!-- Node1&#45;&gt;Node2 -->
<g id="edge1" class="edge"><title>Node1&#45;&gt;Node2</title>
<path fill="none" stroke="midnightblue" d="M61.5441,-340.503C66.3059,-387.101 84.9372,-505.656 154,-568 158.262,-571.848 163.22,-574.93 168.497,-577.396"/>
<polygon fill="midnightblue" stroke="midnightblue" points="65.027,-340.155 60.6286,-330.516 58.0562,-340.794 65.027,-340.155"/>
</g>
<!-- Node3 -->
<g id="node3" class="node"><title>Node3</title>
<g id="a_node3"><a xlink:href="class_graphics_circle.html#a8533b7a4eb72f0063e98d8ad94210f16" target="_top" xlink:title="GraphicsCircle::meDraw">
<polygon fill="white" stroke="black" points="164,-539.5 164,-558.5 288,-558.5 288,-539.5 164,-539.5"/>
<text text-anchor="middle" x="226" y="-546.5" font-family="Helvetica,sans-Serif" font-size="10.00">GraphicsCircle::meDraw</text>
</a>
</g>
</g>
<!-- Node1&#45;&gt;Node3 -->
<g id="edge2" class="edge"><title>Node1&#45;&gt;Node3</title>
<path fill="none" stroke="midnightblue" d="M63.0645,-340.552C70.6116,-381.986 94.0364,-478.998 154,-530 158.568,-533.886 163.852,-536.985 169.435,-539.456"/>
<polygon fill="midnightblue" stroke="midnightblue" points="66.5046,-339.904 61.3731,-330.635 59.6043,-341.081 66.5046,-339.904"/>
</g>
<!-- Node4 -->
<g id="node4" class="node"><title>Node4</title>
<g id="a_node4"><a xlink:href="class_graphics_ellipse.html#a14ace83491f74618a2ae3916355bd5a6" target="_top" xlink:title="GraphicsEllipse::meDraw">
<polygon fill="white" stroke="black" points="162,-501.5 162,-520.5 290,-520.5 290,-501.5 162,-501.5"/>
<text text-anchor="middle" x="226" y="-508.5" font-family="Helvetica,sans-Serif" font-size="10.00">GraphicsEllipse::meDraw</text>
</a>
</g>
</g>
<!-- Node1&#45;&gt;Node4 -->
<g id="edge3" class="edge"><title>Node1&#45;&gt;Node4</title>
<path fill="none" stroke="midnightblue" d="M65.2174,-340.631C75.7517,-376.368 103.017,-452.036 154,-492 158.921,-495.857 164.559,-498.934 170.46,-501.388"/>
<polygon fill="midnightblue" stroke="midnightblue" points="68.5582,-339.582 62.4775,-330.906 61.8205,-341.48 68.5582,-339.582"/>
</g>
<!-- Node5 -->
<g id="node5" class="node"><title>Node5</title>
<g id="a_node5"><a xlink:href="class_graphics_item.html#a3c84a47a2ccceebf2a2c8f5c4d5d609d" target="_top" xlink:title="GraphicsItem::setAbsolute">
<polygon fill="white" stroke="black" points="159.5,-463.5 159.5,-482.5 292.5,-482.5 292.5,-463.5 159.5,-463.5"/>
<text text-anchor="middle" x="226" y="-470.5" font-family="Helvetica,sans-Serif" font-size="10.00">GraphicsItem::setAbsolute</text>
</a>
</g>
</g>
<!-- Node1&#45;&gt;Node5 -->
<g id="edge5" class="edge"><title>Node1&#45;&gt;Node5</title>
<path fill="none" stroke="midnightblue" d="M68.9443,-339.618C83.1818,-367.354 113.573,-419.421 154,-449 162.506,-455.223 172.737,-459.911 182.75,-463.412"/>
<polygon fill="midnightblue" stroke="midnightblue" points="72.0358,-337.975 64.4411,-330.587 65.7714,-341.098 72.0358,-337.975"/>
</g>
<!-- Node7 -->
<g id="node7" class="node"><title>Node7</title>
<g id="a_node7"><a xlink:href="class_main_window.html#a34c4b4207b46d11a4100c9b19f0e81bb" target="_top" xlink:title="MainWindow::MainWindow">
<polygon fill="white" stroke="black" points="343.5,-425.5 343.5,-444.5 478.5,-444.5 478.5,-425.5 343.5,-425.5"/>
<text text-anchor="middle" x="411" y="-432.5" font-family="Helvetica,sans-Serif" font-size="10.00">MainWindow::MainWindow</text>
</a>
</g>
</g>
<!-- Node1&#45;&gt;Node7 -->
<g id="edge25" class="edge"><title>Node1&#45;&gt;Node7</title>
<path fill="none" stroke="midnightblue" d="M71.7033,-339.122C87.3889,-361.646 117.524,-399.166 154,-416 213.787,-443.593 289.836,-445.664 343.46,-442.482"/>
<polygon fill="midnightblue" stroke="midnightblue" points="74.557,-337.094 66.064,-330.76 68.7534,-341.008 74.557,-337.094"/>
</g>
<!-- Node8 -->
<g id="node8" class="node"><title>Node8</title>
<g id="a_node8"><a xlink:href="class_graphics_item.html#a6616ded9057686f175bdbaa4c62218dc" target="_top" xlink:title="GraphicsItem::meIsOver">
<polygon fill="white" stroke="black" points="164,-387.5 164,-406.5 288,-406.5 288,-387.5 164,-387.5"/>
<text text-anchor="middle" x="226" y="-394.5" font-family="Helvetica,sans-Serif" font-size="10.00">GraphicsItem::meIsOver</text>
</a>
</g>
</g>
<!-- Node1&#45;&gt;Node8 -->
<g id="edge8" class="edge"><title>Node1&#45;&gt;Node8</title>
<path fill="none" stroke="midnightblue" d="M81.3147,-336.347C99.7775,-349.035 127.6,-366.736 154,-378 162.685,-381.706 172.281,-384.857 181.537,-387.464"/>
<polygon fill="midnightblue" stroke="midnightblue" points="83.252,-333.431 73.0503,-330.572 79.2421,-339.169 83.252,-333.431"/>
</g>
<!-- Node13 -->
<g id="node13" class="node"><title>Node13</title>
<g id="a_node13"><a xlink:href="class_graphics_point.html#a7c4ac7621b7bed96a192fa77d299a2cb" target="_top" xlink:title="GraphicsPoint::meDraw">
<polygon fill="white" stroke="black" points="165.5,-349.5 165.5,-368.5 286.5,-368.5 286.5,-349.5 165.5,-349.5"/>
<text text-anchor="middle" x="226" y="-356.5" font-family="Helvetica,sans-Serif" font-size="10.00">GraphicsPoint::meDraw</text>
</a>
</g>
</g>
<!-- Node1&#45;&gt;Node13 -->
<g id="edge13" class="edge"><title>Node1&#45;&gt;Node13</title>
<path fill="none" stroke="midnightblue" d="M111.654,-332.896C134.846,-338.237 161.838,-344.454 183.663,-349.48"/>
<polygon fill="midnightblue" stroke="midnightblue" points="112.167,-329.423 101.636,-330.589 110.596,-336.244 112.167,-329.423"/>
</g>
<!-- Node14 -->
<g id="node14" class="node"><title>Node14</title>
<g id="a_node14"><a xlink:href="class_graphics_point.html#af3b01336f2559f13ddfdedd249203965" target="_top" xlink:title="GraphicsPoint::meIsOver">
<polygon fill="white" stroke="black" points="162.5,-311.5 162.5,-330.5 289.5,-330.5 289.5,-311.5 162.5,-311.5"/>
<text text-anchor="middle" x="226" y="-318.5" font-family="Helvetica,sans-Serif" font-size="10.00">GraphicsPoint::meIsOver</text>
</a>
</g>
</g>
<!-- Node1&#45;&gt;Node14 -->
<g id="edge14" class="edge"><title>Node1&#45;&gt;Node14</title>
<path fill="none" stroke="midnightblue" d="M128.371,-321C139.613,-321 151.215,-321 162.31,-321"/>
<polygon fill="midnightblue" stroke="midnightblue" points="128.173,-317.5 118.173,-321 128.173,-324.5 128.173,-317.5"/>
</g>
<!-- Node15 -->
<g id="node15" class="node"><title>Node15</title>
<g id="a_node15"><a xlink:href="class_graphics_rectangle.html#a3770ea3d1c51fc6c35aac4fd9ff46977" target="_top" xlink:title="GraphicsRectangle::\lmeDraw">
<polygon fill="white" stroke="black" points="173,-262 173,-292 279,-292 279,-262 173,-262"/>
<text text-anchor="start" x="181" y="-280" font-family="Helvetica,sans-Serif" font-size="10.00">GraphicsRectangle::</text>
<text text-anchor="middle" x="226" y="-269" font-family="Helvetica,sans-Serif" font-size="10.00">meDraw</text>
</a>
</g>
</g>
<!-- Node1&#45;&gt;Node15 -->
<g id="edge15" class="edge"><title>Node1&#45;&gt;Node15</title>
<path fill="none" stroke="midnightblue" d="M105.7,-308.813C126.571,-303.248 151.396,-296.628 172.981,-290.872"/>
<polygon fill="midnightblue" stroke="midnightblue" points="104.563,-305.494 95.8025,-311.453 106.367,-312.258 104.563,-305.494"/>
</g>
<!-- Node16 -->
<g id="node16" class="node"><title>Node16</title>
<g id="a_node16"><a xlink:href="class_graphics_rectangle.html#a22185d1ef775a5f7cc420771d9aea915" target="_top" xlink:title="GraphicsRectangle::\lmeIsOver">
<polygon fill="white" stroke="black" points="173,-213 173,-243 279,-243 279,-213 173,-213"/>
<text text-anchor="start" x="181" y="-231" font-family="Helvetica,sans-Serif" font-size="10.00">GraphicsRectangle::</text>
<text text-anchor="middle" x="226" y="-220" font-family="Helvetica,sans-Serif" font-size="10.00">meIsOver</text>
</a>
</g>
</g>
<!-- Node1&#45;&gt;Node16 -->
<g id="edge16" class="edge"><title>Node1&#45;&gt;Node16</title>
<path fill="none" stroke="midnightblue" d="M79.2414,-304.52C97.5151,-289.511 126.245,-267.534 154,-253 160.946,-249.362 168.536,-246.057 176.087,-243.127"/>
<polygon fill="midnightblue" stroke="midnightblue" points="76.5948,-302.17 71.1608,-311.265 81.0806,-307.544 76.5948,-302.17"/>
</g>
<!-- Node17 -->
<g id="node17" class="node"><title>Node17</title>
<g id="a_node17"><a xlink:href="class_graphics_rectangle.html#ab7b6075e46e61d99dc9569219f1079bd" target="_top" xlink:title="GraphicsRectangle::\lwidth">
<polygon fill="white" stroke="black" points="173,-164 173,-194 279,-194 279,-164 173,-164"/>
<text text-anchor="start" x="181" y="-182" font-family="Helvetica,sans-Serif" font-size="10.00">GraphicsRectangle::</text>
<text text-anchor="middle" x="226" y="-171" font-family="Helvetica,sans-Serif" font-size="10.00">width</text>
</a>
</g>
</g>
<!-- Node1&#45;&gt;Node17 -->
<g id="edge17" class="edge"><title>Node1&#45;&gt;Node17</title>
<path fill="none" stroke="midnightblue" d="M70.262,-302.599C85.4118,-277.02 116.103,-230.842 154,-204 159.759,-199.921 166.247,-196.451 172.901,-193.514"/>
<polygon fill="midnightblue" stroke="midnightblue" points="67.2014,-300.9 65.234,-311.311 73.2641,-304.399 67.2014,-300.9"/>
</g>
<!-- Node18 -->
<g id="node18" class="node"><title>Node18</title>
<g id="a_node18"><a xlink:href="class_graphics_rectangle.html#ab1a0b1219fdc7694c6f5902c19f9e429" target="_top" xlink:title="GraphicsRectangle::\lheight">
<polygon fill="white" stroke="black" points="173,-115 173,-145 279,-145 279,-115 173,-115"/>
<text text-anchor="start" x="181" y="-133" font-family="Helvetica,sans-Serif" font-size="10.00">GraphicsRectangle::</text>
<text text-anchor="middle" x="226" y="-122" font-family="Helvetica,sans-Serif" font-size="10.00">height</text>
</a>
</g>
</g>
<!-- Node1&#45;&gt;Node18 -->
<g id="edge18" class="edge"><title>Node1&#45;&gt;Node18</title>
<path fill="none" stroke="midnightblue" d="M65.9935,-301.367C77.4949,-266.885 105.881,-195.288 154,-155 159.611,-150.302 166.165,-146.463 172.98,-143.332"/>
<polygon fill="midnightblue" stroke="midnightblue" points="62.5703,-300.581 62.849,-311.172 69.2358,-302.718 62.5703,-300.581"/>
</g>
<!-- Node22 -->
<g id="node22" class="node"><title>Node22</title>
<g id="a_node22"><a xlink:href="class_graphics_square.html#a82bd4ef147f786810f98337b8995cac1" target="_top" xlink:title="GraphicsSquare::meDraw">
<polygon fill="white" stroke="black" points="161.5,-76.5 161.5,-95.5 290.5,-95.5 290.5,-76.5 161.5,-76.5"/>
<text text-anchor="middle" x="226" y="-83.5" font-family="Helvetica,sans-Serif" font-size="10.00">GraphicsSquare::meDraw</text>
</a>
</g>
</g>
<!-- Node1&#45;&gt;Node22 -->
<g id="edge22" class="edge"><title>Node1&#45;&gt;Node22</title>
<path fill="none" stroke="midnightblue" d="M62.8918,-301.232C70.1436,-258.904 93.0917,-159.056 154,-106 159.021,-101.626 164.932,-98.2039 171.164,-95.5272"/>
<polygon fill="midnightblue" stroke="midnightblue" points="59.4326,-300.699 61.3079,-311.126 66.3446,-301.805 59.4326,-300.699"/>
</g>
<!-- Node23 -->
<g id="node23" class="node"><title>Node23</title>
<g id="a_node23"><a xlink:href="class_graphics_square.html#a5de4bab7d8b802d901df241db3687f5d" target="_top" xlink:title="GraphicsSquare::meIsOver">
<polygon fill="white" stroke="black" points="158.5,-38.5 158.5,-57.5 293.5,-57.5 293.5,-38.5 158.5,-38.5"/>
<text text-anchor="middle" x="226" y="-45.5" font-family="Helvetica,sans-Serif" font-size="10.00">GraphicsSquare::meIsOver</text>
</a>
</g>
</g>
<!-- Node1&#45;&gt;Node23 -->
<g id="edge23" class="edge"><title>Node1&#45;&gt;Node23</title>
<path fill="none" stroke="midnightblue" d="M61.3307,-301.284C65.6354,-253.624 83.3585,-131.361 154,-67 158.245,-63.1328 163.191,-60.0381 168.461,-57.5638"/>
<polygon fill="midnightblue" stroke="midnightblue" points="57.8239,-301.23 60.5174,-311.477 64.8017,-301.787 57.8239,-301.23"/>
</g>
<!-- Node24 -->
<g id="node24" class="node"><title>Node24</title>
<g id="a_node24"><a xlink:href="class_graphics_text.html#a7b6432edbdd3b02d5c76761ac069aa57" target="_top" xlink:title="GraphicsText::meDraw">
<polygon fill="white" stroke="black" points="167,-0.5 167,-19.5 285,-19.5 285,-0.5 167,-0.5"/>
<text text-anchor="middle" x="226" y="-7.5" font-family="Helvetica,sans-Serif" font-size="10.00">GraphicsText::meDraw</text>
</a>
</g>
</g>
<!-- Node1&#45;&gt;Node24 -->
<g id="edge24" class="edge"><title>Node1&#45;&gt;Node24</title>
<path fill="none" stroke="midnightblue" d="M60.2386,-301.219C61.9842,-248.758 74.1929,-104.916 154,-29 158.068,-25.1304 162.835,-22.0297 167.941,-19.5479"/>
<polygon fill="midnightblue" stroke="midnightblue" points="56.7394,-301.148 60.0007,-311.228 63.7374,-301.314 56.7394,-301.148"/>
</g>
<!-- Node6 -->
<g id="node6" class="node"><title>Node6</title>
<g id="a_node6"><a xlink:href="class_graphics_point.html#aaceb83d2bd068629dccfde4aee9c60f5" target="_top" xlink:title="GraphicsPoint::meHandleEvent">
<polygon fill="white" stroke="black" points="334,-463.5 334,-482.5 488,-482.5 488,-463.5 334,-463.5"/>
<text text-anchor="middle" x="411" y="-470.5" font-family="Helvetica,sans-Serif" font-size="10.00">GraphicsPoint::meHandleEvent</text>
</a>
</g>
</g>
<!-- Node5&#45;&gt;Node6 -->
<g id="edge6" class="edge"><title>Node5&#45;&gt;Node6</title>
<path fill="none" stroke="midnightblue" d="M302.68,-473C312.921,-473 323.434,-473 333.686,-473"/>
<polygon fill="midnightblue" stroke="midnightblue" points="302.55,-469.5 292.55,-473 302.55,-476.5 302.55,-469.5"/>
</g>
<!-- Node5&#45;&gt;Node7 -->
<g id="edge7" class="edge"><title>Node5&#45;&gt;Node7</title>
<path fill="none" stroke="midnightblue" d="M283.253,-461.319C309.205,-455.93 339.622,-449.614 364.153,-444.52"/>
<polygon fill="midnightblue" stroke="midnightblue" points="282.258,-457.951 273.179,-463.411 283.681,-464.805 282.258,-457.951"/>
</g>
<!-- Node9 -->
<g id="node9" class="node"><title>Node9</title>
<g id="a_node9"><a xlink:href="class_graphics_item.html#a853ecc7b1940b8bce18600a3f3d6cda7" target="_top" xlink:title="GraphicsItem::isOver">
<polygon fill="white" stroke="black" points="356,-387.5 356,-406.5 466,-406.5 466,-387.5 356,-387.5"/>
<text text-anchor="middle" x="411" y="-394.5" font-family="Helvetica,sans-Serif" font-size="10.00">GraphicsItem::isOver</text>
</a>
</g>
</g>
<!-- Node8&#45;&gt;Node9 -->
<g id="edge9" class="edge"><title>Node8&#45;&gt;Node9</title>
<path fill="none" stroke="midnightblue" d="M298.372,-397C317.516,-397 337.897,-397 355.934,-397"/>
<polygon fill="midnightblue" stroke="midnightblue" points="298.191,-393.5 288.191,-397 298.191,-400.5 298.191,-393.5"/>
</g>
<!-- Node10 -->
<g id="node10" class="node"><title>Node10</title>
<g id="a_node10"><a xlink:href="class_button.html#ac8d84bc467ce5a7ac5791df121fe32dd" target="_top" xlink:title="Button::meHandleEvent">
<polygon fill="white" stroke="black" points="531.5,-406.5 531.5,-425.5 652.5,-425.5 652.5,-406.5 531.5,-406.5"/>
<text text-anchor="middle" x="592" y="-413.5" font-family="Helvetica,sans-Serif" font-size="10.00">Button::meHandleEvent</text>
</a>
</g>
</g>
<!-- Node9&#45;&gt;Node10 -->
<g id="edge10" class="edge"><title>Node9&#45;&gt;Node10</title>
<path fill="none" stroke="midnightblue" d="M476.285,-403.824C494.25,-405.73 513.69,-407.794 531.372,-409.671"/>
<polygon fill="midnightblue" stroke="midnightblue" points="476.505,-400.327 466.192,-402.752 475.766,-407.288 476.505,-400.327"/>
</g>
<!-- Node11 -->
<g id="node11" class="node"><title>Node11</title>
<g id="a_node11"><a xlink:href="class_graphics_item.html#ad6c62fa07246bc1d7b9eae6340a246e2" target="_top" xlink:title="GraphicsItem::handleEvent">
<polygon fill="white" stroke="black" points="524.5,-368.5 524.5,-387.5 659.5,-387.5 659.5,-368.5 524.5,-368.5"/>
<text text-anchor="middle" x="592" y="-375.5" font-family="Helvetica,sans-Serif" font-size="10.00">GraphicsItem::handleEvent</text>
</a>
</g>
</g>
<!-- Node9&#45;&gt;Node11 -->
<g id="edge11" class="edge"><title>Node9&#45;&gt;Node11</title>
<path fill="none" stroke="midnightblue" d="M476.27,-390.178C491.886,-388.52 508.618,-386.745 524.341,-385.076"/>
<polygon fill="midnightblue" stroke="midnightblue" points="475.766,-386.712 466.192,-391.248 476.505,-393.673 475.766,-386.712"/>
</g>
<!-- Node12 -->
<g id="node12" class="node"><title>Node12</title>
<g id="a_node12"><a xlink:href="class_main_window.html#a0c74824ef8e6256455545f2659610b31" target="_top" xlink:title="MainWindow::handleEvent">
<polygon fill="white" stroke="black" points="696.5,-368.5 696.5,-387.5 829.5,-387.5 829.5,-368.5 696.5,-368.5"/>
<text text-anchor="middle" x="763" y="-375.5" font-family="Helvetica,sans-Serif" font-size="10.00">MainWindow::handleEvent</text>
</a>
</g>
</g>
<!-- Node11&#45;&gt;Node12 -->
<g id="edge12" class="edge"><title>Node11&#45;&gt;Node12</title>
<path fill="none" stroke="midnightblue" d="M670.009,-378C678.773,-378 687.645,-378 696.244,-378"/>
<polygon fill="midnightblue" stroke="midnightblue" points="669.793,-374.5 659.793,-378 669.793,-381.5 669.793,-374.5"/>
</g>
<!-- Node19 -->
<g id="node19" class="node"><title>Node19</title>
<g id="a_node19"><a xlink:href="class_graphics_rectangle.html#aea349ac359e4f2227f1da772c1a26ab6" target="_top" xlink:title="GraphicsRectangle::\lsetHeight">
<polygon fill="white" stroke="black" points="358,-115 358,-145 464,-145 464,-115 358,-115"/>
<text text-anchor="start" x="366" y="-133" font-family="Helvetica,sans-Serif" font-size="10.00">GraphicsRectangle::</text>
<text text-anchor="middle" x="411" y="-122" font-family="Helvetica,sans-Serif" font-size="10.00">setHeight</text>
</a>
</g>
</g>
<!-- Node18&#45;&gt;Node19 -->
<g id="edge19" class="edge"><title>Node18&#45;&gt;Node19</title>
<path fill="none" stroke="midnightblue" d="M289.469,-130C311.736,-130 336.562,-130 357.868,-130"/>
<polygon fill="midnightblue" stroke="midnightblue" points="289.44,-126.5 279.44,-130 289.44,-133.5 289.44,-126.5"/>
</g>
<!-- Node20 -->
<g id="node20" class="node"><title>Node20</title>
<g id="a_node20"><a xlink:href="class_button.html#a533e3a3815061a3cbf7ae2539af4b206" target="_top" xlink:title="Constructeur de la classe Button. ">
<polygon fill="white" stroke="black" points="552,-139.5 552,-158.5 632,-158.5 632,-139.5 552,-139.5"/>
<text text-anchor="middle" x="592" y="-146.5" font-family="Helvetica,sans-Serif" font-size="10.00">Button::Button</text>
</a>
</g>
</g>
<!-- Node19&#45;&gt;Node20 -->
<g id="edge20" class="edge"><title>Node19&#45;&gt;Node20</title>
<path fill="none" stroke="midnightblue" d="M474.307,-136.614C500.046,-139.346 529.1,-142.43 551.779,-144.837"/>
<polygon fill="midnightblue" stroke="midnightblue" points="474.569,-133.122 464.255,-135.547 473.83,-140.083 474.569,-133.122"/>
</g>
<!-- Node21 -->
<g id="node21" class="node"><title>Node21</title>
<g id="a_node21"><a xlink:href="class_line_edit.html#a04e1cd86821efe7570868ae397978186" target="_top" xlink:title="LineEdit::LineEdit">
<polygon fill="white" stroke="black" points="545.5,-101.5 545.5,-120.5 638.5,-120.5 638.5,-101.5 545.5,-101.5"/>
<text text-anchor="middle" x="592" y="-108.5" font-family="Helvetica,sans-Serif" font-size="10.00">LineEdit::LineEdit</text>
</a>
</g>
</g>
<!-- Node19&#45;&gt;Node21 -->
<g id="edge21" class="edge"><title>Node19&#45;&gt;Node21</title>
<path fill="none" stroke="midnightblue" d="M474.417,-123.375C497.761,-120.897 523.819,-118.131 545.368,-115.844"/>
<polygon fill="midnightblue" stroke="midnightblue" points="473.83,-119.917 464.255,-124.453 474.569,-126.878 473.83,-119.917"/>
</g>
</g>
</svg>
