<?xml version="1.0" encoding="UTF-8" standalone="no"?>
<!DOCTYPE svg PUBLIC "-//W3C//DTD SVG 1.1//EN"
 "http://www.w3.org/Graphics/SVG/1.1/DTD/svg11.dtd">
<!-- Generated by graphviz version 2.36.0 (20140111.2315)
 -->
<!-- Title: GraphicsText::GraphicsText Pages: 1 -->
<svg width="324pt" height="66pt"
 viewBox="0.00 0.00 324.00 66.00" xmlns="http://www.w3.org/2000/svg" xmlns:xlink="http://www.w3.org/1999/xlink">
<g id="graph0" class="graph" transform="scale(1 1) rotate(0) translate(4 62)">
<title>GraphicsText::GraphicsText</title>
<polygon fill="white" stroke="none" points="-4,4 -4,-62 320,-62 320,4 -4,4"/>
<!-- Node1 -->
<g id="node1" class="node"><title>Node1</title>
<polygon fill="#bfbfbf" stroke="black" points="0,-19.5 0,-38.5 140,-38.5 140,-19.5 0,-19.5"/>
<text text-anchor="middle" x="70" y="-26.5" font-family="Helvetica,sans-Serif" font-size="10.00">GraphicsText::GraphicsText</text>
</g>
<!-- Node2 -->
<g id="node2" class="node"><title>Node2</title>
<g id="a_node2"><a xlink:href="class_graphics_text.html#aeb38c8c0df9473cde331540d9904d352" target="_top" xlink:title="Recupere le contenu de GraphicsText. ">
<polygon fill="white" stroke="black" points="197,-38.5 197,-57.5 295,-57.5 295,-38.5 197,-38.5"/>
<text text-anchor="middle" x="246" y="-45.5" font-family="Helvetica,sans-Serif" font-size="10.00">GraphicsText::text</text>
</a>
</g>
</g>
<!-- Node1&#45;&gt;Node2 -->
<g id="edge1" class="edge"><title>Node1&#45;&gt;Node2</title>
<path fill="none" stroke="midnightblue" d="M140.019,-36.5366C155.515,-38.2286 171.806,-40.0076 186.809,-41.6458"/>
<polygon fill="midnightblue" stroke="midnightblue" points="186.643,-45.1484 196.964,-42.7547 187.403,-38.1898 186.643,-45.1484"/>
</g>
<!-- Node3 -->
<g id="node3" class="node"><title>Node3</title>
<g id="a_node3"><a xlink:href="class_graphics_text.html#a53507c83f656e27df86ac7240f9637b8" target="_top" xlink:title="Constructeur de GraphicsText par default. ">
<polygon fill="white" stroke="black" points="176,-0.5 176,-19.5 316,-19.5 316,-0.5 176,-0.5"/>
<text text-anchor="middle" x="246" y="-7.5" font-family="Helvetica,sans-Serif" font-size="10.00">GraphicsText::GraphicsText</text>
</a>
</g>
</g>
<!-- Node1&#45;&gt;Node3 -->
<g id="edge2" class="edge"><title>Node1&#45;&gt;Node3</title>
<path fill="none" stroke="midnightblue" d="M140.019,-21.4634C148.476,-20.54 157.169,-19.5907 165.761,-18.6526"/>
<polygon fill="midnightblue" stroke="midnightblue" points="166.219,-22.1235 175.779,-17.5586 165.459,-15.1648 166.219,-22.1235"/>
</g>
</g>
</svg>
