<?xml version="1.0" encoding="UTF-8" standalone="no"?>
<!DOCTYPE svg PUBLIC "-//W3C//DTD SVG 1.1//EN"
 "http://www.w3.org/Graphics/SVG/1.1/DTD/svg11.dtd">
<!-- Generated by graphviz version 2.36.0 (20140111.2315)
 -->
<!-- Title: Point::setRelativeY Pages: 1 -->
<svg width="642pt" height="192pt"
 viewBox="0.00 0.00 642.00 191.82" xmlns="http://www.w3.org/2000/svg" xmlns:xlink="http://www.w3.org/1999/xlink">
<g id="graph0" class="graph" transform="scale(1 1) rotate(0) translate(4 187.824)">
<title>Point::setRelativeY</title>
<polygon fill="white" stroke="none" points="-4,4 -4,-187.824 638,-187.824 638,4 -4,4"/>
<!-- Node1 -->
<g id="node1" class="node"><title>Node1</title>
<polygon fill="#bfbfbf" stroke="black" points="0.5,-114.674 0.5,-133.674 101.5,-133.674 101.5,-114.674 0.5,-114.674"/>
<text text-anchor="middle" x="51" y="-121.674" font-family="Helvetica,sans-Serif" font-size="10.00">Point::setRelativeY</text>
</g>
<!-- Node2 -->
<g id="node2" class="node"><title>Node2</title>
<g id="a_node2"><a xlink:href="class_point.html#a9abe56cf3f067305623a1d805460a84f" target="_top" xlink:title="Modifie les coordonnées du point indépendamment de son origine. ">
<polygon fill="white" stroke="black" points="138.5,-133.674 138.5,-152.674 233.5,-152.674 233.5,-133.674 138.5,-133.674"/>
<text text-anchor="middle" x="186" y="-140.674" font-family="Helvetica,sans-Serif" font-size="10.00">Point::setRelative</text>
</a>
</g>
</g>
<!-- Node1&#45;&gt;Node2 -->
<g id="edge1" class="edge"><title>Node1&#45;&gt;Node2</title>
<path fill="none" stroke="midnightblue" d="M101.524,-131.248C110.124,-132.477 119.129,-133.763 127.911,-135.018"/>
<polygon fill="midnightblue" stroke="midnightblue" points="127.685,-138.521 138.08,-136.471 128.675,-131.592 127.685,-138.521"/>
</g>
<!-- Node10 -->
<g id="node10" class="node"><title>Node10</title>
<g id="a_node10"><a xlink:href="class_point.html#a4af1612ff97e961cdd93d3e46d68b796" target="_top" xlink:title="Donne l&#39;abscisse du point indépendamment de son origine. ">
<polygon fill="white" stroke="black" points="144.5,-95.6736 144.5,-114.674 227.5,-114.674 227.5,-95.6736 144.5,-95.6736"/>
<text text-anchor="middle" x="186" y="-102.674" font-family="Helvetica,sans-Serif" font-size="10.00">Point::relativeX</text>
</a>
</g>
</g>
<!-- Node1&#45;&gt;Node10 -->
<g id="edge17" class="edge"><title>Node1&#45;&gt;Node10</title>
<path fill="none" stroke="midnightblue" d="M101.524,-117.099C112.158,-115.58 123.413,-113.972 134.098,-112.445"/>
<polygon fill="midnightblue" stroke="midnightblue" points="134.725,-115.891 144.129,-111.012 133.735,-108.962 134.725,-115.891"/>
</g>
<!-- Node3 -->
<g id="node3" class="node"><title>Node3</title>
<g id="a_node3"><a xlink:href="class_point.html#a43923c490fb5439d7d8a041e86520c34" target="_top" xlink:title="Modifie les coordonnées du point par rapport à son origine. ">
<polygon fill="white" stroke="black" points="270.5,-86.6736 270.5,-105.674 329.5,-105.674 329.5,-86.6736 270.5,-86.6736"/>
<text text-anchor="middle" x="300" y="-93.6736" font-family="Helvetica,sans-Serif" font-size="10.00">Point::set</text>
</a>
</g>
</g>
<!-- Node2&#45;&gt;Node3 -->
<g id="edge2" class="edge"><title>Node2&#45;&gt;Node3</title>
<path fill="none" stroke="midnightblue" d="M210.953,-133.612C218.356,-130.624 226.528,-127.293 234,-124.174 245.025,-119.571 257.052,-114.425 267.73,-109.813"/>
<polygon fill="midnightblue" stroke="midnightblue" points="269.304,-112.945 277.089,-105.758 266.522,-106.522 269.304,-112.945"/>
</g>
<!-- Node5 -->
<g id="node5" class="node"><title>Node5</title>
<g id="a_node5"><a xlink:href="class_point.html#afa7d33502738b0b3df186a91e11ff2a8" target="_top" xlink:title="Donne l&#39;origine du point. ">
<polygon fill="white" stroke="black" points="452,-134.674 452,-153.674 520,-153.674 520,-134.674 452,-134.674"/>
<text text-anchor="middle" x="486" y="-141.674" font-family="Helvetica,sans-Serif" font-size="10.00">Point::origin</text>
</a>
</g>
</g>
<!-- Node2&#45;&gt;Node5 -->
<g id="edge16" class="edge"><title>Node2&#45;&gt;Node5</title>
<path fill="none" stroke="midnightblue" d="M210.967,-152.778C252.905,-168.269 342.166,-195.377 416,-178.174 432.222,-174.394 449.016,-166.226 461.974,-158.844"/>
<polygon fill="midnightblue" stroke="midnightblue" points="463.857,-161.796 470.668,-153.681 460.283,-155.778 463.857,-161.796"/>
</g>
<!-- Node4 -->
<g id="node4" class="node"><title>Node4</title>
<g id="a_node4"><a xlink:href="class_point.html#a64a5fe8c9b1d1a1543aaa64031537380" target="_top" xlink:title="Indique si le point n&#39;appartient pas à un groupe. ">
<polygon fill="white" stroke="black" points="556.5,-77.6736 556.5,-96.6736 633.5,-96.6736 633.5,-77.6736 556.5,-77.6736"/>
<text text-anchor="middle" x="595" y="-84.6736" font-family="Helvetica,sans-Serif" font-size="10.00">Point::isAlone</text>
</a>
</g>
</g>
<!-- Node3&#45;&gt;Node4 -->
<g id="edge3" class="edge"><title>Node3&#45;&gt;Node4</title>
<path fill="none" stroke="midnightblue" d="M304.906,-86.4411C313.022,-67.7212 333.69,-27.1402 366,-11.1736 439.532,25.1639 534.573,-39.1161 574.734,-70.9159"/>
<polygon fill="midnightblue" stroke="midnightblue" points="572.686,-73.7607 582.658,-77.3386 577.094,-68.3228 572.686,-73.7607"/>
</g>
<!-- Node3&#45;&gt;Node5 -->
<g id="edge4" class="edge"><title>Node3&#45;&gt;Node5</title>
<path fill="none" stroke="midnightblue" d="M307.095,-106.04C317.161,-121.273 338.871,-149.936 366,-161.174 394.3,-172.896 429.267,-165.588 453.953,-157.218"/>
<polygon fill="midnightblue" stroke="midnightblue" points="455.32,-160.445 463.527,-153.745 452.933,-153.865 455.32,-160.445"/>
</g>
<!-- Node7 -->
<g id="node7" class="node"><title>Node7</title>
<g id="a_node7"><a xlink:href="class_point.html#a2aa897aa68c2f3e6df3a46738f27a0ac" target="_top" xlink:title="Donne l&#39;abscisse du point par rapport à son origine. ">
<polygon fill="white" stroke="black" points="366,-58.6736 366,-77.6736 416,-77.6736 416,-58.6736 366,-58.6736"/>
<text text-anchor="middle" x="391" y="-65.6736" font-family="Helvetica,sans-Serif" font-size="10.00">Point::x</text>
</a>
</g>
</g>
<!-- Node3&#45;&gt;Node7 -->
<g id="edge7" class="edge"><title>Node3&#45;&gt;Node7</title>
<path fill="none" stroke="midnightblue" d="M329.65,-87.1601C338.142,-84.4885 347.519,-81.5383 356.3,-78.7759"/>
<polygon fill="midnightblue" stroke="midnightblue" points="357.392,-82.1015 365.88,-75.7617 355.291,-75.4242 357.392,-82.1015"/>
</g>
<!-- Node8 -->
<g id="node8" class="node"><title>Node8</title>
<g id="a_node8"><a xlink:href="class_point.html#a2226d8a3fb283b0b3c1f69106df144ba" target="_top" xlink:title="Donne l&#39;ordonnée du point par rapport à son origine. ">
<polygon fill="white" stroke="black" points="366,-114.674 366,-133.674 416,-133.674 416,-114.674 366,-114.674"/>
<text text-anchor="middle" x="391" y="-121.674" font-family="Helvetica,sans-Serif" font-size="10.00">Point::y</text>
</a>
</g>
</g>
<!-- Node3&#45;&gt;Node8 -->
<g id="edge11" class="edge"><title>Node3&#45;&gt;Node8</title>
<path fill="none" stroke="midnightblue" d="M329.65,-105.187C338.142,-107.859 347.519,-110.809 356.3,-113.571"/>
<polygon fill="midnightblue" stroke="midnightblue" points="355.291,-116.923 365.88,-116.585 357.392,-110.246 355.291,-116.923"/>
</g>
<!-- Node9 -->
<g id="node9" class="node"><title>Node9</title>
<g id="a_node9"><a xlink:href="jquery_8js.html#a2335e57f79b6acfb6de59c235dc8a83e" target="_top" xlink:title="p">
<polygon fill="white" stroke="black" points="376.5,-20.6736 376.5,-39.6736 405.5,-39.6736 405.5,-20.6736 376.5,-20.6736"/>
<text text-anchor="middle" x="391" y="-27.6736" font-family="Helvetica,sans-Serif" font-size="10.00">p</text>
</a>
</g>
</g>
<!-- Node3&#45;&gt;Node9 -->
<g id="edge15" class="edge"><title>Node3&#45;&gt;Node9</title>
<path fill="none" stroke="midnightblue" d="M314.132,-86.435C328.544,-75.7478 351.886,-58.438 368.877,-45.8374"/>
<polygon fill="midnightblue" stroke="midnightblue" points="371.156,-48.5054 377.103,-39.7375 366.986,-42.8827 371.156,-48.5054"/>
</g>
<!-- Node5&#45;&gt;Node4 -->
<g id="edge5" class="edge"><title>Node5&#45;&gt;Node4</title>
<path fill="none" stroke="midnightblue" d="M505.151,-134.504C522.163,-125.442 547.805,-111.782 567.176,-101.463"/>
<polygon fill="midnightblue" stroke="midnightblue" points="568.937,-104.491 576.117,-96.7 565.646,-98.3126 568.937,-104.491"/>
</g>
<!-- Node6 -->
<g id="node6" class="node"><title>Node6</title>
<g id="a_node6"><a xlink:href="class_point.html#a97edc6e6415d6ccc6efcff5fcbc97f15" target="_top" xlink:title="Construit un point avec les coordonnées nulles. ">
<polygon fill="white" stroke="black" points="561,-134.674 561,-153.674 629,-153.674 629,-134.674 561,-134.674"/>
<text text-anchor="middle" x="595" y="-141.674" font-family="Helvetica,sans-Serif" font-size="10.00">Point::Point</text>
</a>
</g>
</g>
<!-- Node5&#45;&gt;Node6 -->
<g id="edge6" class="edge"><title>Node5&#45;&gt;Node6</title>
<path fill="none" stroke="midnightblue" d="M520.269,-144.174C529.831,-144.174 540.403,-144.174 550.485,-144.174"/>
<polygon fill="midnightblue" stroke="midnightblue" points="550.752,-147.674 560.752,-144.174 550.752,-140.674 550.752,-147.674"/>
</g>
<!-- Node7&#45;&gt;Node4 -->
<g id="edge8" class="edge"><title>Node7&#45;&gt;Node4</title>
<path fill="none" stroke="midnightblue" d="M416.366,-70.4654C448.482,-73.4862 505.677,-78.866 546.491,-82.7049"/>
<polygon fill="midnightblue" stroke="midnightblue" points="546.206,-86.1934 556.49,-83.6454 546.862,-79.2242 546.206,-86.1934"/>
</g>
<!-- Node7&#45;&gt;Node5 -->
<g id="edge9" class="edge"><title>Node7&#45;&gt;Node5</title>
<path fill="none" stroke="midnightblue" d="M403.779,-77.799C419.292,-90.4764 446.783,-112.943 465.441,-128.19"/>
<polygon fill="midnightblue" stroke="midnightblue" points="463.359,-131.009 473.317,-134.626 467.789,-125.588 463.359,-131.009"/>
</g>
<!-- Node7&#45;&gt;Node7 -->
<g id="edge10" class="edge"><title>Node7&#45;&gt;Node7</title>
<path fill="none" stroke="midnightblue" d="M377.128,-77.9306C370.38,-86.7388 375.004,-96.1736 391,-96.1736 400.998,-96.1736 406.553,-92.4881 407.666,-87.5736"/>
<polygon fill="midnightblue" stroke="midnightblue" points="411.017,-86.5614 404.872,-77.9306 404.293,-88.5096 411.017,-86.5614"/>
</g>
<!-- Node8&#45;&gt;Node4 -->
<g id="edge12" class="edge"><title>Node8&#45;&gt;Node4</title>
<path fill="none" stroke="midnightblue" d="M416.366,-119.71C448.482,-113.828 505.677,-103.352 546.491,-95.8756"/>
<polygon fill="midnightblue" stroke="midnightblue" points="547.284,-99.2887 556.49,-94.0442 546.023,-92.4033 547.284,-99.2887"/>
</g>
<!-- Node8&#45;&gt;Node5 -->
<g id="edge13" class="edge"><title>Node8&#45;&gt;Node5</title>
<path fill="none" stroke="midnightblue" d="M416.435,-129.428C424.333,-131.127 433.337,-133.063 442.164,-134.962"/>
<polygon fill="midnightblue" stroke="midnightblue" points="441.474,-138.393 451.987,-137.074 442.946,-131.55 441.474,-138.393"/>
</g>
<!-- Node8&#45;&gt;Node8 -->
<g id="edge14" class="edge"><title>Node8&#45;&gt;Node8</title>
<path fill="none" stroke="midnightblue" d="M377.128,-133.931C370.38,-142.739 375.004,-152.174 391,-152.174 400.998,-152.174 406.553,-148.488 407.666,-143.574"/>
<polygon fill="midnightblue" stroke="midnightblue" points="411.017,-142.561 404.872,-133.931 404.293,-144.51 411.017,-142.561"/>
</g>
</g>
</svg>
