<?xml version="1.0" encoding="UTF-8" standalone="no"?>
<!DOCTYPE svg PUBLIC "-//W3C//DTD SVG 1.1//EN"
 "http://www.w3.org/Graphics/SVG/1.1/DTD/svg11.dtd">
<!-- Generated by graphviz version 2.36.0 (20140111.2315)
 -->
<!-- Title: GraphicsCircle::radius Pages: 1 -->
<svg width="294pt" height="115pt"
 viewBox="0.00 0.00 294.00 115.00" xmlns="http://www.w3.org/2000/svg" xmlns:xlink="http://www.w3.org/1999/xlink">
<g id="graph0" class="graph" transform="scale(1 1) rotate(0) translate(4 111)">
<title>GraphicsCircle::radius</title>
<polygon fill="white" stroke="none" points="-4,4 -4,-111 290,-111 290,4 -4,4"/>
<!-- Node1 -->
<g id="node1" class="node"><title>Node1</title>
<polygon fill="#bfbfbf" stroke="black" points="0.5,-38.5 0.5,-57.5 113.5,-57.5 113.5,-38.5 0.5,-38.5"/>
<text text-anchor="middle" x="57" y="-45.5" font-family="Helvetica,sans-Serif" font-size="10.00">GraphicsCircle::radius</text>
</g>
<!-- Node2 -->
<g id="node2" class="node"><title>Node2</title>
<g id="a_node2"><a xlink:href="class_graphics_circle.html#a0891443aab157c94f76ad425b7327b84" target="_top" xlink:title="GraphicsCircle::Graphics\lCircle">
<polygon fill="white" stroke="black" points="155,-77 155,-107 281,-107 281,-77 155,-77"/>
<text text-anchor="start" x="163" y="-95" font-family="Helvetica,sans-Serif" font-size="10.00">GraphicsCircle::Graphics</text>
<text text-anchor="middle" x="218" y="-84" font-family="Helvetica,sans-Serif" font-size="10.00">Circle</text>
</a>
</g>
</g>
<!-- Node1&#45;&gt;Node2 -->
<g id="edge1" class="edge"><title>Node1&#45;&gt;Node2</title>
<path fill="none" stroke="midnightblue" d="M102.232,-60.2402C120.926,-65.4134 142.883,-71.4897 162.559,-76.9346"/>
<polygon fill="midnightblue" stroke="midnightblue" points="103.072,-56.8413 92.5006,-57.5473 101.205,-63.5877 103.072,-56.8413"/>
</g>
<!-- Node3 -->
<g id="node3" class="node"><title>Node3</title>
<g id="a_node3"><a xlink:href="class_graphics_circle.html#a8533b7a4eb72f0063e98d8ad94210f16" target="_top" xlink:title="GraphicsCircle::meDraw">
<polygon fill="white" stroke="black" points="156,-38.5 156,-57.5 280,-57.5 280,-38.5 156,-38.5"/>
<text text-anchor="middle" x="218" y="-45.5" font-family="Helvetica,sans-Serif" font-size="10.00">GraphicsCircle::meDraw</text>
</a>
</g>
</g>
<!-- Node1&#45;&gt;Node3 -->
<g id="edge2" class="edge"><title>Node1&#45;&gt;Node3</title>
<path fill="none" stroke="midnightblue" d="M123.723,-48C134.407,-48 145.434,-48 155.999,-48"/>
<polygon fill="midnightblue" stroke="midnightblue" points="123.611,-44.5001 113.61,-48 123.61,-51.5001 123.611,-44.5001"/>
</g>
<!-- Node4 -->
<g id="node4" class="node"><title>Node4</title>
<g id="a_node4"><a xlink:href="class_main_window.html#a34c4b4207b46d11a4100c9b19f0e81bb" target="_top" xlink:title="MainWindow::MainWindow">
<polygon fill="white" stroke="black" points="150.5,-0.5 150.5,-19.5 285.5,-19.5 285.5,-0.5 150.5,-0.5"/>
<text text-anchor="middle" x="218" y="-7.5" font-family="Helvetica,sans-Serif" font-size="10.00">MainWindow::MainWindow</text>
</a>
</g>
</g>
<!-- Node1&#45;&gt;Node4 -->
<g id="edge3" class="edge"><title>Node1&#45;&gt;Node4</title>
<path fill="none" stroke="midnightblue" d="M108.077,-36.032C130.358,-30.7069 156.229,-24.5238 177.166,-19.5201"/>
<polygon fill="midnightblue" stroke="midnightblue" points="107.035,-32.6823 98.1224,-38.411 108.662,-39.4906 107.035,-32.6823"/>
</g>
</g>
</svg>
