<?xml version="1.0" encoding="UTF-8" standalone="no"?>
<!DOCTYPE svg PUBLIC "-//W3C//DTD SVG 1.1//EN"
 "http://www.w3.org/Graphics/SVG/1.1/DTD/svg11.dtd">
<!-- Generated by graphviz version 2.36.0 (20140111.2315)
 -->
<!-- Title: LineEdit::LineEdit Pages: 1 -->
<!--zoomable 241 -->
<svg id="main" version="1.1" xmlns="http://www.w3.org/2000/svg" xmlns:xlink="http://www.w3.org/1999/xlink" xml:space="preserve" onload="init(evt)">
<style type="text/css"><![CDATA[
.edge:hover path { stroke: red; }
.edge:hover polygon { stroke: red; fill: red; }
]]></style>
<script type="text/javascript"><![CDATA[
var edges = document.getElementsByTagName('g');
if (edges && edges.length) {
  for (var i=0;i<edges.length;i++) {
    if (edges[i].id.substr(0,4)=='edge') {
      edges[i].setAttribute('class','edge');
    }
  }
}
]]></script>
        <defs>
                <circle id="rim" cx="0" cy="0" r="7"/>
                <circle id="rim2" cx="0" cy="0" r="3.5"/>
                <g id="zoomPlus">
                        <use xlink:href="#rim" fill="#404040">
                                <set attributeName="fill" to="#808080" begin="zoomplus.mouseover" end="zoomplus.mouseout"/>
                        </use>
                        <path d="M-4,0h8M0,-4v8" fill="none" stroke="white" stroke-width="1.5" pointer-events="none"/>
                </g>
                <g id="zoomMin">
                        <use xlink:href="#rim" fill="#404040">
                                <set attributeName="fill" to="#808080" begin="zoomminus.mouseover" end="zoomminus.mouseout"/>
                        </use>
                        <path d="M-4,0h8" fill="none" stroke="white" stroke-width="1.5" pointer-events="none"/>
                </g>
                <g id="dirArrow">
                        <path fill="none" stroke="white" stroke-width="1.5" d="M0,-3.0v7 M-2.5,-0.5L0,-3.0L2.5,-0.5"/>
                </g>
               <g id="resetDef">
                       <use xlink:href="#rim2" fill="#404040">
                               <set attributeName="fill" to="#808080" begin="reset.mouseover" end="reset.mouseout"/>
                       </use>
               </g>
        </defs>

<script type="text/javascript">
var viewWidth = 710;
var viewHeight = 241;
var sectionId = 'dynsection-2';
</script>
<script xlink:href="svgpan.js"/>
<svg id="graph" class="graph">
<g id="viewport">
<title>LineEdit::LineEdit</title>
<polygon fill="white" stroke="none" points="-4,4 -4,-237 706,-237 706,4 -4,4"/>
<!-- Node1 -->
<g id="node1" class="node"><title>Node1</title>
<polygon fill="#bfbfbf" stroke="black" points="0.5,-145.5 0.5,-164.5 93.5,-164.5 93.5,-145.5 0.5,-145.5"/>
<text text-anchor="middle" x="47" y="-152.5" font-family="Helvetica,sans-Serif" font-size="10.00">LineEdit::LineEdit</text>
</g>
<!-- Node2 -->
<g id="node2" class="node"><title>Node2</title>
<g id="a_node2"><a xlink:href="class_graphics_rectangle.html#aea349ac359e4f2227f1da772c1a26ab6" target="_top" xlink:title="GraphicsRectangle::\lsetHeight">
<polygon fill="white" stroke="black" points="130,-203 130,-233 236,-233 236,-203 130,-203"/>
<text text-anchor="start" x="138" y="-221" font-family="Helvetica,sans-Serif" font-size="10.00">GraphicsRectangle::</text>
<text text-anchor="middle" x="183" y="-210" font-family="Helvetica,sans-Serif" font-size="10.00">setHeight</text>
</a>
</g>
</g>
<!-- Node1&#45;&gt;Node2 -->
<g id="edge1" class="edge"><title>Node1&#45;&gt;Node2</title>
<path fill="none" stroke="midnightblue" d="M68.3517,-164.568C87.4837,-173.563 116.69,-187.295 140.704,-198.585"/>
<polygon fill="midnightblue" stroke="midnightblue" points="139.418,-201.848 149.957,-202.935 142.396,-195.513 139.418,-201.848"/>
</g>
<!-- Node7 -->
<g id="node7" class="node"><title>Node7</title>
<g id="a_node7"><a xlink:href="class_graphics_text.html#aaafb8f8246e4d3b0d5dd8ac5cc8586cc" target="_top" xlink:title="GraphicsText::font">
<polygon fill="white" stroke="black" points="280,-164.5 280,-183.5 378,-183.5 378,-164.5 280,-164.5"/>
<text text-anchor="middle" x="329" y="-171.5" font-family="Helvetica,sans-Serif" font-size="10.00">GraphicsText::font</text>
</a>
</g>
</g>
<!-- Node1&#45;&gt;Node7 -->
<g id="edge6" class="edge"><title>Node1&#45;&gt;Node7</title>
<path fill="none" stroke="midnightblue" d="M93.61,-158.095C141.552,-161.348 217.136,-166.477 269.452,-170.027"/>
<polygon fill="midnightblue" stroke="midnightblue" points="269.376,-173.53 279.59,-170.715 269.85,-166.546 269.376,-173.53"/>
</g>
<!-- Node8 -->
<g id="node8" class="node"><title>Node8</title>
<g id="a_node8"><a xlink:href="class_font.html#a9f5b8e83d5efd7d4df3c905864cf9c70" target="_top" xlink:title="Font::height">
<polygon fill="white" stroke="black" points="149,-126.5 149,-145.5 217,-145.5 217,-126.5 149,-126.5"/>
<text text-anchor="middle" x="183" y="-133.5" font-family="Helvetica,sans-Serif" font-size="10.00">Font::height</text>
</a>
</g>
</g>
<!-- Node1&#45;&gt;Node8 -->
<g id="edge7" class="edge"><title>Node1&#45;&gt;Node8</title>
<path fill="none" stroke="midnightblue" d="M93.7404,-148.514C108.261,-146.456 124.267,-144.186 138.616,-142.151"/>
<polygon fill="midnightblue" stroke="midnightblue" points="139.318,-145.587 148.727,-140.718 138.335,-138.656 139.318,-145.587"/>
</g>
<!-- Node9 -->
<g id="node9" class="node"><title>Node9</title>
<g id="a_node9"><a xlink:href="class_line_edit.html#a636e2ac65a70dd82fcf02f863da5c446" target="_top" xlink:title="LineEdit::setText">
<polygon fill="white" stroke="black" points="137.5,-88.5 137.5,-107.5 228.5,-107.5 228.5,-88.5 137.5,-88.5"/>
<text text-anchor="middle" x="183" y="-95.5" font-family="Helvetica,sans-Serif" font-size="10.00">LineEdit::setText</text>
</a>
</g>
</g>
<!-- Node1&#45;&gt;Node9 -->
<g id="edge8" class="edge"><title>Node1&#45;&gt;Node9</title>
<path fill="none" stroke="midnightblue" d="M67.3472,-145.476C83.8365,-137.495 108.251,-125.994 130,-117 134.817,-115.008 139.927,-113.007 144.989,-111.091"/>
<polygon fill="midnightblue" stroke="midnightblue" points="146.419,-114.294 154.577,-107.534 143.984,-107.731 146.419,-114.294"/>
</g>
<!-- Node3 -->
<g id="node3" class="node"><title>Node3</title>
<g id="a_node3"><a xlink:href="class_point.html#a3cdf750fa08f24c2aaaf7ada42df5ad8" target="_top" xlink:title="Point::setY">
<polygon fill="white" stroke="black" points="438.5,-176.5 438.5,-195.5 503.5,-195.5 503.5,-176.5 438.5,-176.5"/>
<text text-anchor="middle" x="471" y="-183.5" font-family="Helvetica,sans-Serif" font-size="10.00">Point::setY</text>
</a>
</g>
</g>
<!-- Node2&#45;&gt;Node3 -->
<g id="edge2" class="edge"><title>Node2&#45;&gt;Node3</title>
<path fill="none" stroke="midnightblue" d="M236.124,-212.168C291.293,-205.995 377.273,-196.375 428.178,-190.679"/>
<polygon fill="midnightblue" stroke="midnightblue" points="428.63,-194.151 438.179,-189.56 427.852,-187.194 428.63,-194.151"/>
</g>
<!-- Node4 -->
<g id="node4" class="node"><title>Node4</title>
<g id="a_node4"><a xlink:href="class_point.html#a43923c490fb5439d7d8a041e86520c34" target="_top" xlink:title="permet la modification des valeurs du point. ">
<polygon fill="white" stroke="black" points="556.5,-122.5 556.5,-141.5 615.5,-141.5 615.5,-122.5 556.5,-122.5"/>
<text text-anchor="middle" x="586" y="-129.5" font-family="Helvetica,sans-Serif" font-size="10.00">Point::set</text>
</a>
</g>
</g>
<!-- Node3&#45;&gt;Node4 -->
<g id="edge3" class="edge"><title>Node3&#45;&gt;Node4</title>
<path fill="none" stroke="midnightblue" d="M491.942,-176.47C509.584,-168.04 535.559,-155.627 555.586,-146.056"/>
<polygon fill="midnightblue" stroke="midnightblue" points="557.364,-149.086 564.877,-141.616 554.345,-142.77 557.364,-149.086"/>
</g>
<!-- Node5 -->
<g id="node5" class="node"><title>Node5</title>
<g id="a_node5"><a xlink:href="class_point.html#a2aa897aa68c2f3e6df3a46738f27a0ac" target="_top" xlink:title="recupere la valeur de l&#39;absisse du Point. ">
<polygon fill="white" stroke="black" points="652,-141.5 652,-160.5 702,-160.5 702,-141.5 652,-141.5"/>
<text text-anchor="middle" x="677" y="-148.5" font-family="Helvetica,sans-Serif" font-size="10.00">Point::x</text>
</a>
</g>
</g>
<!-- Node4&#45;&gt;Node5 -->
<g id="edge4" class="edge"><title>Node4&#45;&gt;Node5</title>
<path fill="none" stroke="midnightblue" d="M615.65,-138.116C624.05,-139.91 633.318,-141.888 642.016,-143.745"/>
<polygon fill="midnightblue" stroke="midnightblue" points="641.37,-147.186 651.88,-145.851 642.832,-140.34 641.37,-147.186"/>
</g>
<!-- Node6 -->
<g id="node6" class="node"><title>Node6</title>
<g id="a_node6"><a xlink:href="class_point.html#a2226d8a3fb283b0b3c1f69106df144ba" target="_top" xlink:title="Fonction recuperant le valeur de l&#39;ordonée. ">
<polygon fill="white" stroke="black" points="652,-103.5 652,-122.5 702,-122.5 702,-103.5 652,-103.5"/>
<text text-anchor="middle" x="677" y="-110.5" font-family="Helvetica,sans-Serif" font-size="10.00">Point::y</text>
</a>
</g>
</g>
<!-- Node4&#45;&gt;Node6 -->
<g id="edge5" class="edge"><title>Node4&#45;&gt;Node6</title>
<path fill="none" stroke="midnightblue" d="M615.65,-125.884C624.05,-124.09 633.318,-122.112 642.016,-120.255"/>
<polygon fill="midnightblue" stroke="midnightblue" points="642.832,-123.66 651.88,-118.149 641.37,-116.814 642.832,-123.66"/>
</g>
<!-- Node9&#45;&gt;Node7 -->
<g id="edge14" class="edge"><title>Node9&#45;&gt;Node7</title>
<path fill="none" stroke="midnightblue" d="M217.284,-107.555C223.757,-110.122 230.297,-113.252 236,-117 255.442,-129.776 252.411,-142.45 272,-155 275.123,-157.001 278.48,-158.815 281.942,-160.456"/>
<polygon fill="midnightblue" stroke="midnightblue" points="280.692,-163.727 291.265,-164.402 283.421,-157.281 280.692,-163.727"/>
</g>
<!-- Node10 -->
<g id="node10" class="node"><title>Node10</title>
<g id="a_node10"><a xlink:href="class_graphics_text.html#ac42bb0e20251eb0dc2305be760714130" target="_top" xlink:title="Modifie le contenu de GraphicsText. ">
<polygon fill="white" stroke="black" points="272,-126.5 272,-145.5 386,-145.5 386,-126.5 272,-126.5"/>
<text text-anchor="middle" x="329" y="-133.5" font-family="Helvetica,sans-Serif" font-size="10.00">GraphicsText::setText</text>
</a>
</g>
</g>
<!-- Node9&#45;&gt;Node10 -->
<g id="edge9" class="edge"><title>Node9&#45;&gt;Node10</title>
<path fill="none" stroke="midnightblue" d="M220.337,-107.589C239.083,-112.536 262.143,-118.621 282.107,-123.889"/>
<polygon fill="midnightblue" stroke="midnightblue" points="281.362,-127.312 291.924,-126.48 283.148,-120.544 281.362,-127.312"/>
</g>
<!-- Node11 -->
<g id="node11" class="node"><title>Node11</title>
<g id="a_node11"><a xlink:href="class_graphics_text.html#aeb38c8c0df9473cde331540d9904d352" target="_top" xlink:title="Recupere le contenu de GraphicsText. ">
<polygon fill="white" stroke="black" points="422,-107.5 422,-126.5 520,-126.5 520,-107.5 422,-107.5"/>
<text text-anchor="middle" x="471" y="-114.5" font-family="Helvetica,sans-Serif" font-size="10.00">GraphicsText::text</text>
</a>
</g>
</g>
<!-- Node9&#45;&gt;Node11 -->
<g id="edge16" class="edge"><title>Node9&#45;&gt;Node11</title>
<path fill="none" stroke="midnightblue" d="M228.688,-100.969C277.983,-104.244 357.49,-109.526 411.664,-113.125"/>
<polygon fill="midnightblue" stroke="midnightblue" points="411.597,-116.628 421.807,-113.798 412.061,-109.643 411.597,-116.628"/>
</g>
<!-- Node12 -->
<g id="node12" class="node"><title>Node12</title>
<g id="a_node12"><a xlink:href="class_graphics_rectangle.html#a3efd2295cd742f75de829851bf7ca3dd" target="_top" xlink:title="GraphicsRectangle::\lsetWidth">
<polygon fill="white" stroke="black" points="276,-39 276,-69 382,-69 382,-39 276,-39"/>
<text text-anchor="start" x="284" y="-57" font-family="Helvetica,sans-Serif" font-size="10.00">GraphicsRectangle::</text>
<text text-anchor="middle" x="329" y="-46" font-family="Helvetica,sans-Serif" font-size="10.00">setWidth</text>
</a>
</g>
</g>
<!-- Node9&#45;&gt;Node12 -->
<g id="edge11" class="edge"><title>Node9&#45;&gt;Node12</title>
<path fill="none" stroke="midnightblue" d="M215.246,-88.4527C230.952,-83.6536 250.516,-77.6757 268.916,-72.0534"/>
<polygon fill="midnightblue" stroke="midnightblue" points="270.154,-75.3349 278.695,-69.0654 268.109,-68.6404 270.154,-75.3349"/>
</g>
<!-- Node14 -->
<g id="node14" class="node"><title>Node14</title>
<g id="a_node14"><a xlink:href="class_font.html#ad96d9cd6356edf670103542dbe4336c3" target="_top" xlink:title="Font::width">
<polygon fill="white" stroke="black" points="296.5,-0.5 296.5,-19.5 361.5,-19.5 361.5,-0.5 296.5,-0.5"/>
<text text-anchor="middle" x="329" y="-7.5" font-family="Helvetica,sans-Serif" font-size="10.00">Font::width</text>
</a>
</g>
</g>
<!-- Node9&#45;&gt;Node14 -->
<g id="edge15" class="edge"><title>Node9&#45;&gt;Node14</title>
<path fill="none" stroke="midnightblue" d="M193.764,-88.4927C209.212,-73.9026 240.754,-45.9091 272,-29 276.622,-26.4988 281.634,-24.2383 286.696,-22.2221"/>
<polygon fill="midnightblue" stroke="midnightblue" points="288.229,-25.3877 296.403,-18.647 285.809,-18.8191 288.229,-25.3877"/>
</g>
<!-- Node10&#45;&gt;Node11 -->
<g id="edge10" class="edge"><title>Node10&#45;&gt;Node11</title>
<path fill="none" stroke="midnightblue" d="M386.137,-128.381C394.666,-127.224 403.482,-126.027 412.049,-124.865"/>
<polygon fill="midnightblue" stroke="midnightblue" points="412.522,-128.333 421.961,-123.52 411.581,-121.396 412.522,-128.333"/>
</g>
<!-- Node13 -->
<g id="node13" class="node"><title>Node13</title>
<g id="a_node13"><a xlink:href="class_point.html#a62fd0fb2c699d6d4699d3be73762ffa2" target="_top" xlink:title="Point::setX">
<polygon fill="white" stroke="black" points="438.5,-56.5 438.5,-75.5 503.5,-75.5 503.5,-56.5 438.5,-56.5"/>
<text text-anchor="middle" x="471" y="-63.5" font-family="Helvetica,sans-Serif" font-size="10.00">Point::setX</text>
</a>
</g>
</g>
<!-- Node12&#45;&gt;Node13 -->
<g id="edge12" class="edge"><title>Node12&#45;&gt;Node13</title>
<path fill="none" stroke="midnightblue" d="M382.131,-58.4684C397.27,-59.766 413.604,-61.1661 428.034,-62.4029"/>
<polygon fill="midnightblue" stroke="midnightblue" points="427.898,-65.904 438.161,-63.2709 428.496,-58.9296 427.898,-65.904"/>
</g>
<!-- Node13&#45;&gt;Node4 -->
<g id="edge13" class="edge"><title>Node13&#45;&gt;Node4</title>
<path fill="none" stroke="midnightblue" d="M488.674,-75.7385C507.475,-86.7199 538.248,-104.693 559.944,-117.366"/>
<polygon fill="midnightblue" stroke="midnightblue" points="558.225,-120.415 568.625,-122.436 561.756,-114.37 558.225,-120.415"/>
</g>
</g>
</svg>
        <g id="navigator" transform="translate(0 0)" fill="#404254">
                <rect fill="#f2f5e9" fill-opacity="0.5" stroke="#606060" stroke-width=".5" x="0" y="0" width="60" height="60"/>
                <use id="zoomplus" xlink:href="#zoomPlus" x="17" y="9" onmousedown="handleZoom(evt,'in')"/>
                <use id="zoomminus" xlink:href="#zoomMin" x="42" y="9" onmousedown="handleZoom(evt,'out')"/>
                <use id="reset" xlink:href="#resetDef" x="30" y="36" onmousedown="handleReset()"/>
                <g id="arrowUp" xlink:href="#dirArrow" transform="translate(30 24)" onmousedown="handlePan(0,-1)">
                  <use xlink:href="#rim" fill="#404040">
                        <set attributeName="fill" to="#808080" begin="arrowUp.mouseover" end="arrowUp.mouseout"/>
                  </use>
                  <path fill="none" stroke="white" stroke-width="1.5" d="M0,-3.0v7 M-2.5,-0.5L0,-3.0L2.5,-0.5"/>
                </g>
                <g id="arrowRight" xlink:href="#dirArrow" transform="rotate(90) translate(36 -43)" onmousedown="handlePan(1,0)">
                  <use xlink:href="#rim" fill="#404040">
                        <set attributeName="fill" to="#808080" begin="arrowRight.mouseover" end="arrowRight.mouseout"/>
                  </use>
                  <path fill="none" stroke="white" stroke-width="1.5" d="M0,-3.0v7 M-2.5,-0.5L0,-3.0L2.5,-0.5"/>
                </g>
                <g id="arrowDown" xlink:href="#dirArrow" transform="rotate(180) translate(-30 -48)" onmousedown="handlePan(0,1)">
                  <use xlink:href="#rim" fill="#404040">
                        <set attributeName="fill" to="#808080" begin="arrowDown.mouseover" end="arrowDown.mouseout"/>
                  </use>
                  <path fill="none" stroke="white" stroke-width="1.5" d="M0,-3.0v7 M-2.5,-0.5L0,-3.0L2.5,-0.5"/>
                </g>
                <g id="arrowLeft" xlink:href="#dirArrow" transform="rotate(270) translate(-36 17)" onmousedown="handlePan(-1,0)">
                  <use xlink:href="#rim" fill="#404040">
                        <set attributeName="fill" to="#808080" begin="arrowLeft.mouseover" end="arrowLeft.mouseout"/>
                  </use>
                  <path fill="none" stroke="white" stroke-width="1.5" d="M0,-3.0v7 M-2.5,-0.5L0,-3.0L2.5,-0.5"/>
                </g>
        </g>
        <svg viewBox="0 0 15 15" width="100%" height="30px" preserveAspectRatio="xMaxYMin meet">
         <g id="arrow_out" transform="scale(0.3 0.3)">
          <a xlink:href="class_line_edit_a04e1cd86821efe7570868ae397978186_cgraph_org.svg" target="_base">
           <rect id="button" ry="5" rx="5" y="6" x="6" height="38" width="38"
                fill="#f2f5e9" fill-opacity="0.5" stroke="#606060" stroke-width="1.0"/>
           <path id="arrow"
             d="M 11.500037,31.436501 C 11.940474,20.09759 22.043105,11.32322 32.158766,21.979434 L 37.068811,17.246167 C 37.068811,17.246167 37.088388,32 37.088388,32 L 22.160133,31.978069 C 22.160133,31.978069 26.997745,27.140456 26.997745,27.140456 C 18.528582,18.264221 13.291696,25.230495 11.500037,31.436501 z"
             style="fill:#404040;"/>
          </a>
         </g>
        </svg>
</svg>
