<?xml version="1.0" encoding="UTF-8" standalone="no"?>
<!DOCTYPE svg PUBLIC "-//W3C//DTD SVG 1.1//EN"
 "http://www.w3.org/Graphics/SVG/1.1/DTD/svg11.dtd">
<!-- Generated by graphviz version 2.36.0 (20140111.2315)
 -->
<!-- Title: LineEdit::setText Pages: 1 -->
<!--zoomable 205 -->
<svg id="main" version="1.1" xmlns="http://www.w3.org/2000/svg" xmlns:xlink="http://www.w3.org/1999/xlink" xml:space="preserve" onload="init(evt)">
<style type="text/css"><![CDATA[
.edge:hover path { stroke: red; }
.edge:hover polygon { stroke: red; fill: red; }
]]></style>
<script type="text/javascript"><![CDATA[
var edges = document.getElementsByTagName('g');
if (edges && edges.length) {
  for (var i=0;i<edges.length;i++) {
    if (edges[i].id.substr(0,4)=='edge') {
      edges[i].setAttribute('class','edge');
    }
  }
}
]]></script>
        <defs>
                <circle id="rim" cx="0" cy="0" r="7"/>
                <circle id="rim2" cx="0" cy="0" r="3.5"/>
                <g id="zoomPlus">
                        <use xlink:href="#rim" fill="#404040">
                                <set attributeName="fill" to="#808080" begin="zoomplus.mouseover" end="zoomplus.mouseout"/>
                        </use>
                        <path d="M-4,0h8M0,-4v8" fill="none" stroke="white" stroke-width="1.5" pointer-events="none"/>
                </g>
                <g id="zoomMin">
                        <use xlink:href="#rim" fill="#404040">
                                <set attributeName="fill" to="#808080" begin="zoomminus.mouseover" end="zoomminus.mouseout"/>
                        </use>
                        <path d="M-4,0h8" fill="none" stroke="white" stroke-width="1.5" pointer-events="none"/>
                </g>
                <g id="dirArrow">
                        <path fill="none" stroke="white" stroke-width="1.5" d="M0,-3.0v7 M-2.5,-0.5L0,-3.0L2.5,-0.5"/>
                </g>
               <g id="resetDef">
                       <use xlink:href="#rim2" fill="#404040">
                               <set attributeName="fill" to="#808080" begin="reset.mouseover" end="reset.mouseout"/>
                       </use>
               </g>
        </defs>

<script type="text/javascript">
var viewWidth = 680;
var viewHeight = 205;
var sectionId = 'dynsection-4';
</script>
<script xlink:href="svgpan.js"/>
<svg id="graph" class="graph">
<g id="viewport">
<title>LineEdit::setText</title>
<polygon fill="white" stroke="none" points="-4,4 -4,-200.568 676,-200.568 676,4 -4,4"/>
<!-- Node1 -->
<g id="node1" class="node"><title>Node1</title>
<polygon fill="#bfbfbf" stroke="black" points="0.5,-82.5 0.5,-101.5 91.5,-101.5 91.5,-82.5 0.5,-82.5"/>
<text text-anchor="middle" x="46" y="-89.5" font-family="Helvetica,sans-Serif" font-size="10.00">LineEdit::setText</text>
</g>
<!-- Node2 -->
<g id="node2" class="node"><title>Node2</title>
<g id="a_node2"><a xlink:href="class_graphics_text.html#ac42bb0e20251eb0dc2305be760714130" target="_top" xlink:title="Modifie le contenu de GraphicsText. ">
<polygon fill="white" stroke="black" points="128,-164.5 128,-183.5 242,-183.5 242,-164.5 128,-164.5"/>
<text text-anchor="middle" x="185" y="-171.5" font-family="Helvetica,sans-Serif" font-size="10.00">GraphicsText::setText</text>
</a>
</g>
</g>
<!-- Node1&#45;&gt;Node2 -->
<g id="edge1" class="edge"><title>Node1&#45;&gt;Node2</title>
<path fill="none" stroke="midnightblue" d="M58.8019,-101.705C74.1055,-113.987 101.932,-135.311 128,-150 134.652,-153.749 142.006,-157.291 149.136,-160.446"/>
<polygon fill="midnightblue" stroke="midnightblue" points="148.062,-163.793 158.633,-164.491 150.804,-157.353 148.062,-163.793"/>
</g>
<!-- Node3 -->
<g id="node3" class="node"><title>Node3</title>
<g id="a_node3"><a xlink:href="class_graphics_text.html#aeb38c8c0df9473cde331540d9904d352" target="_top" xlink:title="Recupere le contenu de GraphicsText. ">
<polygon fill="white" stroke="black" points="278,-145.5 278,-164.5 376,-164.5 376,-145.5 278,-145.5"/>
<text text-anchor="middle" x="327" y="-152.5" font-family="Helvetica,sans-Serif" font-size="10.00">GraphicsText::text</text>
</a>
</g>
</g>
<!-- Node1&#45;&gt;Node3 -->
<g id="edge17" class="edge"><title>Node1&#45;&gt;Node3</title>
<path fill="none" stroke="midnightblue" d="M76.8218,-101.563C92.0436,-106.258 110.91,-111.795 128,-116 174.632,-127.474 228.09,-137.842 267.697,-144.998"/>
<polygon fill="midnightblue" stroke="midnightblue" points="267.251,-148.474 277.711,-146.793 268.486,-141.584 267.251,-148.474"/>
</g>
<!-- Node4 -->
<g id="node4" class="node"><title>Node4</title>
<g id="a_node4"><a xlink:href="class_graphics_rectangle.html#a3efd2295cd742f75de829851bf7ca3dd" target="_top" xlink:title="GraphicsRectangle::\lsetWidth">
<polygon fill="white" stroke="black" points="132,-77 132,-107 238,-107 238,-77 132,-77"/>
<text text-anchor="start" x="140" y="-95" font-family="Helvetica,sans-Serif" font-size="10.00">GraphicsRectangle::</text>
<text text-anchor="middle" x="185" y="-84" font-family="Helvetica,sans-Serif" font-size="10.00">setWidth</text>
</a>
</g>
</g>
<!-- Node1&#45;&gt;Node4 -->
<g id="edge3" class="edge"><title>Node1&#45;&gt;Node4</title>
<path fill="none" stroke="midnightblue" d="M91.8589,-92C101.457,-92 111.762,-92 121.879,-92"/>
<polygon fill="midnightblue" stroke="midnightblue" points="121.901,-95.5001 131.901,-92 121.901,-88.5001 121.901,-95.5001"/>
</g>
<!-- Node11 -->
<g id="node11" class="node"><title>Node11</title>
<g id="a_node11"><a xlink:href="class_graphics_text.html#aaafb8f8246e4d3b0d5dd8ac5cc8586cc" target="_top" xlink:title="GraphicsText::font">
<polygon fill="white" stroke="black" points="136,-38.5 136,-57.5 234,-57.5 234,-38.5 136,-38.5"/>
<text text-anchor="middle" x="185" y="-45.5" font-family="Helvetica,sans-Serif" font-size="10.00">GraphicsText::font</text>
</a>
</g>
</g>
<!-- Node1&#45;&gt;Node11 -->
<g id="edge15" class="edge"><title>Node1&#45;&gt;Node11</title>
<path fill="none" stroke="midnightblue" d="M76.727,-82.4527C96.6545,-76.0526 123.11,-67.556 144.762,-60.6021"/>
<polygon fill="midnightblue" stroke="midnightblue" points="145.88,-63.919 154.331,-57.5287 143.74,-57.2543 145.88,-63.919"/>
</g>
<!-- Node12 -->
<g id="node12" class="node"><title>Node12</title>
<g id="a_node12"><a xlink:href="class_font.html#ad96d9cd6356edf670103542dbe4336c3" target="_top" xlink:title="Font::width">
<polygon fill="white" stroke="black" points="152.5,-0.5 152.5,-19.5 217.5,-19.5 217.5,-0.5 152.5,-0.5"/>
<text text-anchor="middle" x="185" y="-7.5" font-family="Helvetica,sans-Serif" font-size="10.00">Font::width</text>
</a>
</g>
</g>
<!-- Node1&#45;&gt;Node12 -->
<g id="edge16" class="edge"><title>Node1&#45;&gt;Node12</title>
<path fill="none" stroke="midnightblue" d="M57.201,-82.2064C71.8268,-68.6216 100.081,-44.0378 128,-29 132.627,-26.5079 137.642,-24.2528 142.706,-22.2395"/>
<polygon fill="midnightblue" stroke="midnightblue" points="144.237,-25.4054 152.413,-18.6672 141.82,-18.8361 144.237,-25.4054"/>
</g>
<!-- Node2&#45;&gt;Node3 -->
<g id="edge2" class="edge"><title>Node2&#45;&gt;Node3</title>
<path fill="none" stroke="midnightblue" d="M242.137,-166.381C250.666,-165.224 259.482,-164.027 268.049,-162.865"/>
<polygon fill="midnightblue" stroke="midnightblue" points="268.522,-166.333 277.961,-161.52 267.581,-159.396 268.522,-166.333"/>
</g>
<!-- Node5 -->
<g id="node5" class="node"><title>Node5</title>
<g id="a_node5"><a xlink:href="class_point.html#a62fd0fb2c699d6d4699d3be73762ffa2" target="_top" xlink:title="Point::setX">
<polygon fill="white" stroke="black" points="294.5,-82.5 294.5,-101.5 359.5,-101.5 359.5,-82.5 294.5,-82.5"/>
<text text-anchor="middle" x="327" y="-89.5" font-family="Helvetica,sans-Serif" font-size="10.00">Point::setX</text>
</a>
</g>
</g>
<!-- Node4&#45;&gt;Node5 -->
<g id="edge4" class="edge"><title>Node4&#45;&gt;Node5</title>
<path fill="none" stroke="midnightblue" d="M238.131,-92C253.27,-92 269.604,-92 284.034,-92"/>
<polygon fill="midnightblue" stroke="midnightblue" points="284.161,-95.5001 294.161,-92 284.161,-88.5001 284.161,-95.5001"/>
</g>
<!-- Node6 -->
<g id="node6" class="node"><title>Node6</title>
<g id="a_node6"><a xlink:href="class_point.html#a43923c490fb5439d7d8a041e86520c34" target="_top" xlink:title="permet la modification des valeurs du point. ">
<polygon fill="white" stroke="black" points="412.5,-106.5 412.5,-125.5 471.5,-125.5 471.5,-106.5 412.5,-106.5"/>
<text text-anchor="middle" x="442" y="-113.5" font-family="Helvetica,sans-Serif" font-size="10.00">Point::set</text>
</a>
</g>
</g>
<!-- Node5&#45;&gt;Node6 -->
<g id="edge5" class="edge"><title>Node5&#45;&gt;Node6</title>
<path fill="none" stroke="midnightblue" d="M359.778,-98.7492C372.886,-101.533 388.207,-104.787 401.987,-107.714"/>
<polygon fill="midnightblue" stroke="midnightblue" points="401.654,-111.221 412.163,-109.875 403.109,-104.374 401.654,-111.221"/>
</g>
<!-- Node9 -->
<g id="node9" class="node"><title>Node9</title>
<g id="a_node9"><a xlink:href="class_point.html#a2226d8a3fb283b0b3c1f69106df144ba" target="_top" xlink:title="Fonction recuperant le valeur de l&#39;ordonée. ">
<polygon fill="white" stroke="black" points="508,-50.5 508,-69.5 558,-69.5 558,-50.5 508,-50.5"/>
<text text-anchor="middle" x="533" y="-57.5" font-family="Helvetica,sans-Serif" font-size="10.00">Point::y</text>
</a>
</g>
</g>
<!-- Node5&#45;&gt;Node9 -->
<g id="edge14" class="edge"><title>Node5&#45;&gt;Node9</title>
<path fill="none" stroke="midnightblue" d="M359.875,-87C397.365,-81.1193 459.35,-71.3961 497.814,-65.3626"/>
<polygon fill="midnightblue" stroke="midnightblue" points="498.662,-68.7724 507.999,-63.7649 497.577,-61.8569 498.662,-68.7724"/>
</g>
<!-- Node7 -->
<g id="node7" class="node"><title>Node7</title>
<g id="a_node7"><a xlink:href="class_point.html#a64a5fe8c9b1d1a1543aaa64031537380" target="_top" xlink:title="Point::isAlone">
<polygon fill="white" stroke="black" points="594.5,-144.5 594.5,-163.5 671.5,-163.5 671.5,-144.5 594.5,-144.5"/>
<text text-anchor="middle" x="633" y="-151.5" font-family="Helvetica,sans-Serif" font-size="10.00">Point::isAlone</text>
</a>
</g>
</g>
<!-- Node6&#45;&gt;Node7 -->
<g id="edge6" class="edge"><title>Node6&#45;&gt;Node7</title>
<path fill="none" stroke="midnightblue" d="M447.795,-125.673C456.84,-142.675 478.22,-177.402 508,-191 542.581,-206.791 585.625,-185.539 610.834,-169.317"/>
<polygon fill="midnightblue" stroke="midnightblue" points="612.922,-172.131 619.266,-163.645 609.015,-166.322 612.922,-172.131"/>
</g>
<!-- Node8 -->
<g id="node8" class="node"><title>Node8</title>
<g id="a_node8"><a xlink:href="class_point.html#a2aa897aa68c2f3e6df3a46738f27a0ac" target="_top" xlink:title="recupere la valeur de l&#39;absisse du Point. ">
<polygon fill="white" stroke="black" points="508,-144.5 508,-163.5 558,-163.5 558,-144.5 508,-144.5"/>
<text text-anchor="middle" x="533" y="-151.5" font-family="Helvetica,sans-Serif" font-size="10.00">Point::x</text>
</a>
</g>
</g>
<!-- Node6&#45;&gt;Node8 -->
<g id="edge7" class="edge"><title>Node6&#45;&gt;Node8</title>
<path fill="none" stroke="midnightblue" d="M465.458,-125.589C475.999,-130.089 488.747,-135.532 500.252,-140.445"/>
<polygon fill="midnightblue" stroke="midnightblue" points="498.978,-143.706 509.549,-144.414 501.726,-137.268 498.978,-143.706"/>
</g>
<!-- Node6&#45;&gt;Node9 -->
<g id="edge10" class="edge"><title>Node6&#45;&gt;Node9</title>
<path fill="none" stroke="midnightblue" d="M458.503,-106.246C472.158,-97.6534 492.266,-85.0014 507.999,-75.1018"/>
<polygon fill="midnightblue" stroke="midnightblue" points="510.075,-77.9307 516.675,-69.6427 506.347,-72.006 510.075,-77.9307"/>
</g>
<!-- Node10 -->
<g id="node10" class="node"><title>Node10</title>
<g id="a_node10"><a xlink:href="jquery_8js.html#a2335e57f79b6acfb6de59c235dc8a83e" target="_top" xlink:title="p">
<polygon fill="white" stroke="black" points="518.5,-106.5 518.5,-125.5 547.5,-125.5 547.5,-106.5 518.5,-106.5"/>
<text text-anchor="middle" x="533" y="-113.5" font-family="Helvetica,sans-Serif" font-size="10.00">p</text>
</a>
</g>
</g>
<!-- Node6&#45;&gt;Node10 -->
<g id="edge13" class="edge"><title>Node6&#45;&gt;Node10</title>
<path fill="none" stroke="midnightblue" d="M471.65,-116C483.388,-116 496.819,-116 508.026,-116"/>
<polygon fill="midnightblue" stroke="midnightblue" points="508.347,-119.5 518.347,-116 508.346,-112.5 508.347,-119.5"/>
</g>
<!-- Node8&#45;&gt;Node7 -->
<g id="edge8" class="edge"><title>Node8&#45;&gt;Node7</title>
<path fill="none" stroke="midnightblue" d="M558.225,-154C566.132,-154 575.207,-154 584.226,-154"/>
<polygon fill="midnightblue" stroke="midnightblue" points="584.321,-157.5 594.321,-154 584.321,-150.5 584.321,-157.5"/>
</g>
<!-- Node8&#45;&gt;Node8 -->
<g id="edge9" class="edge"><title>Node8&#45;&gt;Node8</title>
<path fill="none" stroke="midnightblue" d="M519.128,-163.757C512.38,-172.565 517.004,-182 533,-182 542.998,-182 548.553,-178.315 549.666,-173.4"/>
<polygon fill="midnightblue" stroke="midnightblue" points="553.017,-172.388 546.872,-163.757 546.293,-174.336 553.017,-172.388"/>
</g>
<!-- Node9&#45;&gt;Node7 -->
<g id="edge11" class="edge"><title>Node9&#45;&gt;Node7</title>
<path fill="none" stroke="midnightblue" d="M544.119,-69.7056C560.783,-85.6902 594.194,-117.737 614.678,-137.385"/>
<polygon fill="midnightblue" stroke="midnightblue" points="612.443,-140.091 622.082,-144.487 617.288,-135.039 612.443,-140.091"/>
</g>
<!-- Node9&#45;&gt;Node9 -->
<g id="edge12" class="edge"><title>Node9&#45;&gt;Node9</title>
<path fill="none" stroke="midnightblue" d="M519.128,-69.7571C512.38,-78.5653 517.004,-88 533,-88 542.998,-88 548.553,-84.3146 549.666,-79.4"/>
<polygon fill="midnightblue" stroke="midnightblue" points="553.017,-78.3878 546.872,-69.7571 546.293,-80.3361 553.017,-78.3878"/>
</g>
</g>
</svg>
        <g id="navigator" transform="translate(0 0)" fill="#404254">
                <rect fill="#f2f5e9" fill-opacity="0.5" stroke="#606060" stroke-width=".5" x="0" y="0" width="60" height="60"/>
                <use id="zoomplus" xlink:href="#zoomPlus" x="17" y="9" onmousedown="handleZoom(evt,'in')"/>
                <use id="zoomminus" xlink:href="#zoomMin" x="42" y="9" onmousedown="handleZoom(evt,'out')"/>
                <use id="reset" xlink:href="#resetDef" x="30" y="36" onmousedown="handleReset()"/>
                <g id="arrowUp" xlink:href="#dirArrow" transform="translate(30 24)" onmousedown="handlePan(0,-1)">
                  <use xlink:href="#rim" fill="#404040">
                        <set attributeName="fill" to="#808080" begin="arrowUp.mouseover" end="arrowUp.mouseout"/>
                  </use>
                  <path fill="none" stroke="white" stroke-width="1.5" d="M0,-3.0v7 M-2.5,-0.5L0,-3.0L2.5,-0.5"/>
                </g>
                <g id="arrowRight" xlink:href="#dirArrow" transform="rotate(90) translate(36 -43)" onmousedown="handlePan(1,0)">
                  <use xlink:href="#rim" fill="#404040">
                        <set attributeName="fill" to="#808080" begin="arrowRight.mouseover" end="arrowRight.mouseout"/>
                  </use>
                  <path fill="none" stroke="white" stroke-width="1.5" d="M0,-3.0v7 M-2.5,-0.5L0,-3.0L2.5,-0.5"/>
                </g>
                <g id="arrowDown" xlink:href="#dirArrow" transform="rotate(180) translate(-30 -48)" onmousedown="handlePan(0,1)">
                  <use xlink:href="#rim" fill="#404040">
                        <set attributeName="fill" to="#808080" begin="arrowDown.mouseover" end="arrowDown.mouseout"/>
                  </use>
                  <path fill="none" stroke="white" stroke-width="1.5" d="M0,-3.0v7 M-2.5,-0.5L0,-3.0L2.5,-0.5"/>
                </g>
                <g id="arrowLeft" xlink:href="#dirArrow" transform="rotate(270) translate(-36 17)" onmousedown="handlePan(-1,0)">
                  <use xlink:href="#rim" fill="#404040">
                        <set attributeName="fill" to="#808080" begin="arrowLeft.mouseover" end="arrowLeft.mouseout"/>
                  </use>
                  <path fill="none" stroke="white" stroke-width="1.5" d="M0,-3.0v7 M-2.5,-0.5L0,-3.0L2.5,-0.5"/>
                </g>
        </g>
        <svg viewBox="0 0 15 15" width="100%" height="30px" preserveAspectRatio="xMaxYMin meet">
         <g id="arrow_out" transform="scale(0.3 0.3)">
          <a xlink:href="class_line_edit_a636e2ac65a70dd82fcf02f863da5c446_cgraph_org.svg" target="_base">
           <rect id="button" ry="5" rx="5" y="6" x="6" height="38" width="38"
                fill="#f2f5e9" fill-opacity="0.5" stroke="#606060" stroke-width="1.0"/>
           <path id="arrow"
             d="M 11.500037,31.436501 C 11.940474,20.09759 22.043105,11.32322 32.158766,21.979434 L 37.068811,17.246167 C 37.068811,17.246167 37.088388,32 37.088388,32 L 22.160133,31.978069 C 22.160133,31.978069 26.997745,27.140456 26.997745,27.140456 C 18.528582,18.264221 13.291696,25.230495 11.500037,31.436501 z"
             style="fill:#404040;"/>
          </a>
         </g>
        </svg>
</svg>
