<?xml version="1.0" encoding="UTF-8" standalone="no"?>
<!DOCTYPE svg PUBLIC "-//W3C//DTD SVG 1.1//EN"
 "http://www.w3.org/Graphics/SVG/1.1/DTD/svg11.dtd">
<!-- Generated by graphviz version 2.36.0 (20140111.2315)
 -->
<!-- Title: GraphicsItem::setPositionCorrector Pages: 1 -->
<svg width="446pt" height="38pt"
 viewBox="0.00 0.00 446.00 38.00" xmlns="http://www.w3.org/2000/svg" xmlns:xlink="http://www.w3.org/1999/xlink">
<g id="graph0" class="graph" transform="scale(1 1) rotate(0) translate(4 34)">
<title>GraphicsItem::setPositionCorrector</title>
<polygon fill="white" stroke="none" points="-4,4 -4,-34 442,-34 442,4 -4,4"/>
<!-- Node1 -->
<g id="node1" class="node"><title>Node1</title>
<polygon fill="#bfbfbf" stroke="black" points="0,-0 0,-30 130,-30 130,-0 0,-0"/>
<text text-anchor="start" x="8" y="-18" font-family="Helvetica,sans-Serif" font-size="10.00">GraphicsItem::setPosition</text>
<text text-anchor="middle" x="65" y="-7" font-family="Helvetica,sans-Serif" font-size="10.00">Corrector</text>
</g>
<!-- Node2 -->
<g id="node2" class="node"><title>Node2</title>
<g id="a_node2"><a xlink:href="class_graphics_item.html#ab1266d26ff6aa338959c0796ef915fc4" target="_top" xlink:title="GraphicsItem::setAnchor">
<polygon fill="white" stroke="black" points="166.5,-5.5 166.5,-24.5 291.5,-24.5 291.5,-5.5 166.5,-5.5"/>
<text text-anchor="middle" x="229" y="-12.5" font-family="Helvetica,sans-Serif" font-size="10.00">GraphicsItem::setAnchor</text>
</a>
</g>
</g>
<!-- Node1&#45;&gt;Node2 -->
<g id="edge1" class="edge"><title>Node1&#45;&gt;Node2</title>
<path fill="none" stroke="midnightblue" d="M130.027,-15C138.608,-15 147.456,-15 156.161,-15"/>
<polygon fill="midnightblue" stroke="midnightblue" points="156.289,-18.5001 166.289,-15 156.289,-11.5001 156.289,-18.5001"/>
</g>
<!-- Node3 -->
<g id="node3" class="node"><title>Node3</title>
<g id="a_node3"><a xlink:href="class_graphics_item.html#a742f444cb7d1a142dec52ee777dd51c3" target="_top" xlink:title="GraphicsItem::anchor">
<polygon fill="white" stroke="black" points="328,-5.5 328,-24.5 438,-24.5 438,-5.5 328,-5.5"/>
<text text-anchor="middle" x="383" y="-12.5" font-family="Helvetica,sans-Serif" font-size="10.00">GraphicsItem::anchor</text>
</a>
</g>
</g>
<!-- Node2&#45;&gt;Node3 -->
<g id="edge2" class="edge"><title>Node2&#45;&gt;Node3</title>
<path fill="none" stroke="midnightblue" d="M291.824,-15C300.239,-15 308.893,-15 317.356,-15"/>
<polygon fill="midnightblue" stroke="midnightblue" points="317.554,-18.5001 327.554,-15 317.554,-11.5001 317.554,-18.5001"/>
</g>
</g>
</svg>
