<?xml version="1.0" encoding="UTF-8" standalone="no"?>
<!DOCTYPE svg PUBLIC "-//W3C//DTD SVG 1.1//EN"
 "http://www.w3.org/Graphics/SVG/1.1/DTD/svg11.dtd">
<!-- Generated by graphviz version 2.36.0 (20140111.2315)
 -->
<!-- Title: GraphicsText Pages: 1 -->
<svg width="409pt" height="774pt"
 viewBox="0.00 0.00 409.00 774.00" xmlns="http://www.w3.org/2000/svg" xmlns:xlink="http://www.w3.org/1999/xlink">
<g id="graph0" class="graph" transform="scale(1 1) rotate(0) translate(4 770)">
<title>GraphicsText</title>
<polygon fill="white" stroke="none" points="-4,4 -4,-770 405,-770 405,4 -4,4"/>
<!-- Node1 -->
<g id="node1" class="node"><title>Node1</title>
<polygon fill="#bfbfbf" stroke="black" points="279,-1 279,-179 369,-179 369,-1 279,-1"/>
<text text-anchor="middle" x="324" y="-167" font-family="Helvetica,sans-Serif" font-size="10.00">GraphicsText</text>
<polyline fill="none" stroke="black" points="279,-160 369,-160 "/>
<text text-anchor="start" x="287" y="-148" font-family="Helvetica,sans-Serif" font-size="10.00">&#45; m_text</text>
<text text-anchor="start" x="287" y="-137" font-family="Helvetica,sans-Serif" font-size="10.00">&#45; m_align</text>
<polyline fill="none" stroke="black" points="279,-130 369,-130 "/>
<text text-anchor="start" x="287" y="-118" font-family="Helvetica,sans-Serif" font-size="10.00">+ GraphicsText()</text>
<text text-anchor="start" x="287" y="-107" font-family="Helvetica,sans-Serif" font-size="10.00">+ GraphicsText()</text>
<text text-anchor="start" x="287" y="-96" font-family="Helvetica,sans-Serif" font-size="10.00">+ text()</text>
<text text-anchor="start" x="287" y="-85" font-family="Helvetica,sans-Serif" font-size="10.00">+ setText()</text>
<text text-anchor="start" x="287" y="-74" font-family="Helvetica,sans-Serif" font-size="10.00">+ font()</text>
<text text-anchor="start" x="287" y="-63" font-family="Helvetica,sans-Serif" font-size="10.00">+ setFont()</text>
<text text-anchor="start" x="287" y="-52" font-family="Helvetica,sans-Serif" font-size="10.00">+ align()</text>
<text text-anchor="start" x="287" y="-41" font-family="Helvetica,sans-Serif" font-size="10.00">+ setAlign()</text>
<text text-anchor="start" x="287" y="-30" font-family="Helvetica,sans-Serif" font-size="10.00">+ type()</text>
<text text-anchor="start" x="287" y="-19" font-family="Helvetica,sans-Serif" font-size="10.00"># meDraw()</text>
<text text-anchor="start" x="287" y="-8" font-family="Helvetica,sans-Serif" font-size="10.00"># meIsOver()</text>
</g>
<!-- Node2 -->
<g id="node2" class="node"><title>Node2</title>
<g id="a_node2"><a xlink:href="class_graphics_item.html" target="_top" xlink:title="{GraphicsItem\n|&#45; m_children\l&#45; m_z\l&#45; m_thick\l&#45; m_isFill\l&#45; m_isVisible\l|+ GraphicsItem()\l+ ~GraphicsItem()\l+ parent()\l+ setParent()\l+ type()\l+ children()\l+ position()\l+ position()\l+ color()\l+ z()\let 13 de plus...\l+ focusItem()\l+ setFocusItem()\l# meDraw()\l# meUpdate()\l# meHandleEvent()\l# meIsOver()\l}">
<polygon fill="white" stroke="black" points="137.5,-228.5 137.5,-505.5 238.5,-505.5 238.5,-228.5 137.5,-228.5"/>
<text text-anchor="middle" x="188" y="-493.5" font-family="Helvetica,sans-Serif" font-size="10.00">GraphicsItem</text>
<polyline fill="none" stroke="black" points="137.5,-486.5 238.5,-486.5 "/>
<text text-anchor="start" x="145.5" y="-474.5" font-family="Helvetica,sans-Serif" font-size="10.00">&#45; m_children</text>
<text text-anchor="start" x="145.5" y="-463.5" font-family="Helvetica,sans-Serif" font-size="10.00">&#45; m_z</text>
<text text-anchor="start" x="145.5" y="-452.5" font-family="Helvetica,sans-Serif" font-size="10.00">&#45; m_thick</text>
<text text-anchor="start" x="145.5" y="-441.5" font-family="Helvetica,sans-Serif" font-size="10.00">&#45; m_isFill</text>
<text text-anchor="start" x="145.5" y="-430.5" font-family="Helvetica,sans-Serif" font-size="10.00">&#45; m_isVisible</text>
<polyline fill="none" stroke="black" points="137.5,-423.5 238.5,-423.5 "/>
<text text-anchor="start" x="145.5" y="-411.5" font-family="Helvetica,sans-Serif" font-size="10.00">+ GraphicsItem()</text>
<text text-anchor="start" x="145.5" y="-400.5" font-family="Helvetica,sans-Serif" font-size="10.00">+ ~GraphicsItem()</text>
<text text-anchor="start" x="145.5" y="-389.5" font-family="Helvetica,sans-Serif" font-size="10.00">+ parent()</text>
<text text-anchor="start" x="145.5" y="-378.5" font-family="Helvetica,sans-Serif" font-size="10.00">+ setParent()</text>
<text text-anchor="start" x="145.5" y="-367.5" font-family="Helvetica,sans-Serif" font-size="10.00">+ type()</text>
<text text-anchor="start" x="145.5" y="-356.5" font-family="Helvetica,sans-Serif" font-size="10.00">+ children()</text>
<text text-anchor="start" x="145.5" y="-345.5" font-family="Helvetica,sans-Serif" font-size="10.00">+ position()</text>
<text text-anchor="start" x="145.5" y="-334.5" font-family="Helvetica,sans-Serif" font-size="10.00">+ position()</text>
<text text-anchor="start" x="145.5" y="-323.5" font-family="Helvetica,sans-Serif" font-size="10.00">+ color()</text>
<text text-anchor="start" x="145.5" y="-312.5" font-family="Helvetica,sans-Serif" font-size="10.00">+ z()</text>
<text text-anchor="start" x="145.5" y="-301.5" font-family="Helvetica,sans-Serif" font-size="10.00">et 13 de plus...</text>
<text text-anchor="start" x="145.5" y="-290.5" font-family="Helvetica,sans-Serif" font-size="10.00">+ focusItem()</text>
<text text-anchor="start" x="145.5" y="-279.5" font-family="Helvetica,sans-Serif" font-size="10.00">+ setFocusItem()</text>
<text text-anchor="start" x="145.5" y="-268.5" font-family="Helvetica,sans-Serif" font-size="10.00"># meDraw()</text>
<text text-anchor="start" x="145.5" y="-257.5" font-family="Helvetica,sans-Serif" font-size="10.00"># meUpdate()</text>
<text text-anchor="start" x="145.5" y="-246.5" font-family="Helvetica,sans-Serif" font-size="10.00"># meHandleEvent()</text>
<text text-anchor="start" x="145.5" y="-235.5" font-family="Helvetica,sans-Serif" font-size="10.00"># meIsOver()</text>
</a>
</g>
</g>
<!-- Node2&#45;&gt;Node1 -->
<g id="edge1" class="edge"><title>Node2&#45;&gt;Node1</title>
<path fill="none" stroke="midnightblue" d="M243.185,-254.414C255.597,-229.314 268.601,-203.019 280.46,-179.04"/>
<polygon fill="none" stroke="midnightblue" points="239.937,-253.085 238.641,-263.6 246.212,-256.188 239.937,-253.085"/>
</g>
<!-- Node2&#45;&gt;Node2 -->
<g id="edge2" class="edge"><title>Node2&#45;&gt;Node2</title>
<path fill="none" stroke="#404040" d="M238.711,-396.122C248.803,-392.844 256,-383.137 256,-367 256,-357.167 253.328,-349.721 248.956,-344.663"/>
<polygon fill="none" stroke="#404040" points="248.716,-344.504 241.505,-344.526 238.711,-337.878 245.922,-337.856 248.716,-344.504"/>
<text text-anchor="middle" x="288" y="-370" font-family="Helvetica,sans-Serif" font-size="10.00"> &#45;m_focusItem</text>
<text text-anchor="middle" x="288" y="-359" font-family="Helvetica,sans-Serif" font-size="10.00">&#45;m_parent</text>
</g>
<!-- Node3 -->
<g id="node3" class="node"><title>Node3</title>
<g id="a_node3"><a xlink:href="class_point.html" target="_top" xlink:title="Représente un point avec une abscisse, une ordonnée et une origine. ">
<polygon fill="white" stroke="black" points="-0.5,-554.5 -0.5,-765.5 114.5,-765.5 114.5,-554.5 -0.5,-554.5"/>
<text text-anchor="middle" x="57" y="-753.5" font-family="Helvetica,sans-Serif" font-size="10.00">Point</text>
<polyline fill="none" stroke="black" points="-0.5,-746.5 114.5,-746.5 "/>
<text text-anchor="start" x="7.5" y="-734.5" font-family="Helvetica,sans-Serif" font-size="10.00">&#45; m_x</text>
<text text-anchor="start" x="7.5" y="-723.5" font-family="Helvetica,sans-Serif" font-size="10.00">&#45; m_y</text>
<text text-anchor="start" x="7.5" y="-712.5" font-family="Helvetica,sans-Serif" font-size="10.00">&#45; m_group</text>
<text text-anchor="start" x="7.5" y="-701.5" font-family="Helvetica,sans-Serif" font-size="10.00">&#45; m_correctorsFixed</text>
<text text-anchor="start" x="7.5" y="-690.5" font-family="Helvetica,sans-Serif" font-size="10.00">&#45; m_correctorsVariable</text>
<polyline fill="none" stroke="black" points="-0.5,-683.5 114.5,-683.5 "/>
<text text-anchor="start" x="7.5" y="-671.5" font-family="Helvetica,sans-Serif" font-size="10.00">+ Point()</text>
<text text-anchor="start" x="7.5" y="-660.5" font-family="Helvetica,sans-Serif" font-size="10.00">+ Point()</text>
<text text-anchor="start" x="7.5" y="-649.5" font-family="Helvetica,sans-Serif" font-size="10.00">+ Point()</text>
<text text-anchor="start" x="7.5" y="-638.5" font-family="Helvetica,sans-Serif" font-size="10.00">+ Point()</text>
<text text-anchor="start" x="7.5" y="-627.5" font-family="Helvetica,sans-Serif" font-size="10.00">+ ~Point()</text>
<text text-anchor="start" x="7.5" y="-616.5" font-family="Helvetica,sans-Serif" font-size="10.00">+ operator=()</text>
<text text-anchor="start" x="7.5" y="-605.5" font-family="Helvetica,sans-Serif" font-size="10.00">+ origin()</text>
<text text-anchor="start" x="7.5" y="-594.5" font-family="Helvetica,sans-Serif" font-size="10.00">+ setOrigin()</text>
<text text-anchor="start" x="7.5" y="-583.5" font-family="Helvetica,sans-Serif" font-size="10.00">+ relative()</text>
<text text-anchor="start" x="7.5" y="-572.5" font-family="Helvetica,sans-Serif" font-size="10.00">+ relativeX()</text>
<text text-anchor="start" x="7.5" y="-561.5" font-family="Helvetica,sans-Serif" font-size="10.00">et 16 de plus...</text>
</a>
</g>
</g>
<!-- Node3&#45;&gt;Node2 -->
<g id="edge3" class="edge"><title>Node3&#45;&gt;Node2</title>
<path fill="none" stroke="#404040" d="M104.109,-554.353C113.249,-534.05 122.909,-512.591 132.295,-491.743"/>
<polygon fill="none" stroke="#404040" points="132.398,-491.513 131.213,-484.4 137.324,-480.571 138.508,-487.684 132.398,-491.513"/>
<text text-anchor="middle" x="142" y="-527.5" font-family="Helvetica,sans-Serif" font-size="10.00"> &#45;m_position</text>
</g>
<!-- Node3&#45;&gt;Node3 -->
<g id="edge4" class="edge"><title>Node3&#45;&gt;Node3</title>
<path fill="none" stroke="#404040" d="M114.544,-682.945C124.822,-679.963 132,-672.314 132,-660 132,-652.688 129.469,-647.022 125.262,-643"/>
<polygon fill="none" stroke="#404040" points="125.038,-642.876 117.851,-643.463 114.544,-637.055 121.732,-636.467 125.038,-642.876"/>
<text text-anchor="middle" x="153.5" y="-657.5" font-family="Helvetica,sans-Serif" font-size="10.00"> &#45;m_origin</text>
</g>
<!-- Node4 -->
<g id="node4" class="node"><title>Node4</title>
<g id="a_node4"><a xlink:href="class_color.html" target="_top" xlink:title="Permet la gestion des coulours des différentes *entitées. ">
<polygon fill="white" stroke="black" points="193.5,-576.5 193.5,-743.5 270.5,-743.5 270.5,-576.5 193.5,-576.5"/>
<text text-anchor="middle" x="232" y="-731.5" font-family="Helvetica,sans-Serif" font-size="10.00">Color</text>
<polyline fill="none" stroke="black" points="193.5,-724.5 270.5,-724.5 "/>
<text text-anchor="start" x="201.5" y="-712.5" font-family="Helvetica,sans-Serif" font-size="10.00">&#45; m_color</text>
<polyline fill="none" stroke="black" points="193.5,-705.5 270.5,-705.5 "/>
<text text-anchor="start" x="201.5" y="-693.5" font-family="Helvetica,sans-Serif" font-size="10.00">+ Color()</text>
<text text-anchor="start" x="201.5" y="-682.5" font-family="Helvetica,sans-Serif" font-size="10.00">+ Color()</text>
<text text-anchor="start" x="201.5" y="-671.5" font-family="Helvetica,sans-Serif" font-size="10.00">+ Color()</text>
<text text-anchor="start" x="201.5" y="-660.5" font-family="Helvetica,sans-Serif" font-size="10.00">+ Color()</text>
<text text-anchor="start" x="201.5" y="-649.5" font-family="Helvetica,sans-Serif" font-size="10.00">+ red()</text>
<text text-anchor="start" x="201.5" y="-638.5" font-family="Helvetica,sans-Serif" font-size="10.00">+ setRed()</text>
<text text-anchor="start" x="201.5" y="-627.5" font-family="Helvetica,sans-Serif" font-size="10.00">+ green()</text>
<text text-anchor="start" x="201.5" y="-616.5" font-family="Helvetica,sans-Serif" font-size="10.00">+ setGreen()</text>
<text text-anchor="start" x="201.5" y="-605.5" font-family="Helvetica,sans-Serif" font-size="10.00">+ blue()</text>
<text text-anchor="start" x="201.5" y="-594.5" font-family="Helvetica,sans-Serif" font-size="10.00">+ setBlue()</text>
<text text-anchor="start" x="201.5" y="-583.5" font-family="Helvetica,sans-Serif" font-size="10.00">et 9 de plus...</text>
</a>
</g>
</g>
<!-- Node4&#45;&gt;Node2 -->
<g id="edge5" class="edge"><title>Node4&#45;&gt;Node2</title>
<path fill="none" stroke="#404040" d="M219.509,-576.389C216.716,-557.918 213.67,-537.773 210.608,-517.524"/>
<polygon fill="none" stroke="#404040" points="210.6,-517.466 205.748,-512.131 208.806,-505.601 213.658,-510.935 210.6,-517.466"/>
<text text-anchor="middle" x="233.5" y="-527.5" font-family="Helvetica,sans-Serif" font-size="10.00"> &#45;m_color</text>
</g>
<!-- Node5 -->
<g id="node5" class="node"><title>Node5</title>
<g id="a_node5"><a xlink:href="class_font.html" target="_top" xlink:title="{Font\n|&#45; m_id\l&#45; m_width\l&#45; m_height\l|+ Font()\l+ set()\l+ id()\l+ width()\l+ height()\l}">
<polygon fill="white" stroke="black" points="339,-305.5 339,-428.5 401,-428.5 401,-305.5 339,-305.5"/>
<text text-anchor="middle" x="370" y="-416.5" font-family="Helvetica,sans-Serif" font-size="10.00">Font</text>
<polyline fill="none" stroke="black" points="339,-409.5 401,-409.5 "/>
<text text-anchor="start" x="347" y="-397.5" font-family="Helvetica,sans-Serif" font-size="10.00">&#45; m_id</text>
<text text-anchor="start" x="347" y="-386.5" font-family="Helvetica,sans-Serif" font-size="10.00">&#45; m_width</text>
<text text-anchor="start" x="347" y="-375.5" font-family="Helvetica,sans-Serif" font-size="10.00">&#45; m_height</text>
<polyline fill="none" stroke="black" points="339,-368.5 401,-368.5 "/>
<text text-anchor="start" x="347" y="-356.5" font-family="Helvetica,sans-Serif" font-size="10.00">+ Font()</text>
<text text-anchor="start" x="347" y="-345.5" font-family="Helvetica,sans-Serif" font-size="10.00">+ set()</text>
<text text-anchor="start" x="347" y="-334.5" font-family="Helvetica,sans-Serif" font-size="10.00">+ id()</text>
<text text-anchor="start" x="347" y="-323.5" font-family="Helvetica,sans-Serif" font-size="10.00">+ width()</text>
<text text-anchor="start" x="347" y="-312.5" font-family="Helvetica,sans-Serif" font-size="10.00">+ height()</text>
</a>
</g>
</g>
<!-- Node5&#45;&gt;Node1 -->
<g id="edge6" class="edge"><title>Node5&#45;&gt;Node1</title>
<path fill="none" stroke="#404040" d="M359.848,-305.31C354.262,-271.912 347.186,-229.612 340.8,-191.433"/>
<polygon fill="none" stroke="#404040" points="340.733,-191.034 335.798,-185.776 338.753,-179.198 343.688,-184.456 340.733,-191.034"/>
<text text-anchor="middle" x="361.5" y="-201.5" font-family="Helvetica,sans-Serif" font-size="10.00"> &#45;m_font</text>
</g>
</g>
</svg>
