<?xml version="1.0" encoding="UTF-8" standalone="no"?>
<!DOCTYPE svg PUBLIC "-//W3C//DTD SVG 1.1//EN"
 "http://www.w3.org/Graphics/SVG/1.1/DTD/svg11.dtd">
<!-- Generated by graphviz version 2.36.0 (20140111.2315)
 -->
<!-- Title: GraphicsShape Pages: 1 -->
<svg width="576pt" height="714pt"
 viewBox="0.00 0.00 576.00 714.00" xmlns="http://www.w3.org/2000/svg" xmlns:xlink="http://www.w3.org/1999/xlink">
<g id="graph0" class="graph" transform="scale(1 1) rotate(0) translate(4 710)">
<title>GraphicsShape</title>
<polygon fill="white" stroke="none" points="-4,4 -4,-710 572,-710 572,4 -4,4"/>
<!-- Node1 -->
<g id="node1" class="node"><title>Node1</title>
<polygon fill="#bfbfbf" stroke="black" points="228,-216.5 228,-317.5 326,-317.5 326,-216.5 228,-216.5"/>
<text text-anchor="middle" x="277" y="-305.5" font-family="Helvetica,sans-Serif" font-size="10.00">GraphicsShape</text>
<polyline fill="none" stroke="black" points="228,-298.5 326,-298.5 "/>
<text text-anchor="start" x="236" y="-286.5" font-family="Helvetica,sans-Serif" font-size="10.00"># m_points</text>
<polyline fill="none" stroke="black" points="228,-279.5 326,-279.5 "/>
<text text-anchor="start" x="236" y="-267.5" font-family="Helvetica,sans-Serif" font-size="10.00">+ GraphicsShape()</text>
<text text-anchor="start" x="236" y="-256.5" font-family="Helvetica,sans-Serif" font-size="10.00">+ GraphicsShape()</text>
<text text-anchor="start" x="236" y="-245.5" font-family="Helvetica,sans-Serif" font-size="10.00">+ GraphicsShape()</text>
<text text-anchor="start" x="236" y="-234.5" font-family="Helvetica,sans-Serif" font-size="10.00">+ type()</text>
<text text-anchor="start" x="236" y="-223.5" font-family="Helvetica,sans-Serif" font-size="10.00"># meDraw()</text>
</g>
<!-- Node5 -->
<g id="node5" class="node"><title>Node5</title>
<g id="a_node5"><a xlink:href="class_graphics_circle.html" target="_top" xlink:title="Un cercle. ">
<polygon fill="white" stroke="black" points="0,-1 0,-179 96,-179 96,-1 0,-1"/>
<text text-anchor="middle" x="48" y="-167" font-family="Helvetica,sans-Serif" font-size="10.00">GraphicsCircle</text>
<polyline fill="none" stroke="black" points="0,-160 96,-160 "/>
<text text-anchor="middle" x="48" y="-148" font-family="Helvetica,sans-Serif" font-size="10.00"> </text>
<polyline fill="none" stroke="black" points="0,-141 96,-141 "/>
<text text-anchor="start" x="8" y="-129" font-family="Helvetica,sans-Serif" font-size="10.00">+ GraphicsCircle()</text>
<text text-anchor="start" x="8" y="-118" font-family="Helvetica,sans-Serif" font-size="10.00">+ GraphicsCircle()</text>
<text text-anchor="start" x="8" y="-107" font-family="Helvetica,sans-Serif" font-size="10.00">+ GraphicsCircle()</text>
<text text-anchor="start" x="8" y="-96" font-family="Helvetica,sans-Serif" font-size="10.00">+ center()</text>
<text text-anchor="start" x="8" y="-85" font-family="Helvetica,sans-Serif" font-size="10.00">+ center()</text>
<text text-anchor="start" x="8" y="-74" font-family="Helvetica,sans-Serif" font-size="10.00">+ radiusPt()</text>
<text text-anchor="start" x="8" y="-63" font-family="Helvetica,sans-Serif" font-size="10.00">+ radiusPt()</text>
<text text-anchor="start" x="8" y="-52" font-family="Helvetica,sans-Serif" font-size="10.00">+ radius()</text>
<text text-anchor="start" x="8" y="-41" font-family="Helvetica,sans-Serif" font-size="10.00">+ setRadius()</text>
<text text-anchor="start" x="8" y="-30" font-family="Helvetica,sans-Serif" font-size="10.00">+ type()</text>
<text text-anchor="start" x="8" y="-19" font-family="Helvetica,sans-Serif" font-size="10.00"># meDraw()</text>
<text text-anchor="start" x="8" y="-8" font-family="Helvetica,sans-Serif" font-size="10.00"># meIsOver()</text>
</a>
</g>
</g>
<!-- Node1&#45;&gt;Node5 -->
<g id="edge4" class="edge"><title>Node1&#45;&gt;Node5</title>
<path fill="none" stroke="midnightblue" d="M218.617,-245.966C182.912,-231.626 137.929,-209.612 105,-180 101.998,-177.301 99.0918,-174.408 96.286,-171.376"/>
<polygon fill="none" stroke="midnightblue" points="217.364,-249.234 227.951,-249.626 219.919,-242.717 217.364,-249.234"/>
</g>
<!-- Node6 -->
<g id="node6" class="node"><title>Node6</title>
<g id="a_node6"><a xlink:href="class_graphics_ellipse.html" target="_top" xlink:title="Une ellipse. ">
<polygon fill="white" stroke="black" points="114,-12 114,-168 214,-168 214,-12 114,-12"/>
<text text-anchor="middle" x="164" y="-156" font-family="Helvetica,sans-Serif" font-size="10.00">GraphicsEllipse</text>
<polyline fill="none" stroke="black" points="114,-149 214,-149 "/>
<text text-anchor="middle" x="164" y="-137" font-family="Helvetica,sans-Serif" font-size="10.00"> </text>
<polyline fill="none" stroke="black" points="114,-130 214,-130 "/>
<text text-anchor="start" x="122" y="-118" font-family="Helvetica,sans-Serif" font-size="10.00">+ GraphicsEllipse()</text>
<text text-anchor="start" x="122" y="-107" font-family="Helvetica,sans-Serif" font-size="10.00">+ GraphicsEllipse()</text>
<text text-anchor="start" x="122" y="-96" font-family="Helvetica,sans-Serif" font-size="10.00">+ GraphicsEllipse()</text>
<text text-anchor="start" x="122" y="-85" font-family="Helvetica,sans-Serif" font-size="10.00">+ center()</text>
<text text-anchor="start" x="122" y="-74" font-family="Helvetica,sans-Serif" font-size="10.00">+ center()</text>
<text text-anchor="start" x="122" y="-63" font-family="Helvetica,sans-Serif" font-size="10.00">+ radius()</text>
<text text-anchor="start" x="122" y="-52" font-family="Helvetica,sans-Serif" font-size="10.00">+ radius()</text>
<text text-anchor="start" x="122" y="-41" font-family="Helvetica,sans-Serif" font-size="10.00">+ type()</text>
<text text-anchor="start" x="122" y="-30" font-family="Helvetica,sans-Serif" font-size="10.00"># meDraw()</text>
<text text-anchor="start" x="122" y="-19" font-family="Helvetica,sans-Serif" font-size="10.00"># meIsOver()</text>
</a>
</g>
</g>
<!-- Node1&#45;&gt;Node6 -->
<g id="edge5" class="edge"><title>Node1&#45;&gt;Node6</title>
<path fill="none" stroke="midnightblue" d="M239.374,-207.73C231.212,-195.089 222.455,-181.528 213.903,-168.283"/>
<polygon fill="none" stroke="midnightblue" points="236.556,-209.818 244.921,-216.32 242.437,-206.021 236.556,-209.818"/>
</g>
<!-- Node7 -->
<g id="node7" class="node"><title>Node7</title>
<g id="a_node7"><a xlink:href="class_graphics_line.html" target="_top" xlink:title="Une ligne. ">
<polygon fill="white" stroke="black" points="232.5,-23 232.5,-157 321.5,-157 321.5,-23 232.5,-23"/>
<text text-anchor="middle" x="277" y="-145" font-family="Helvetica,sans-Serif" font-size="10.00">GraphicsLine</text>
<polyline fill="none" stroke="black" points="232.5,-138 321.5,-138 "/>
<text text-anchor="middle" x="277" y="-126" font-family="Helvetica,sans-Serif" font-size="10.00"> </text>
<polyline fill="none" stroke="black" points="232.5,-119 321.5,-119 "/>
<text text-anchor="start" x="240.5" y="-107" font-family="Helvetica,sans-Serif" font-size="10.00">+ GraphicsLine()</text>
<text text-anchor="start" x="240.5" y="-96" font-family="Helvetica,sans-Serif" font-size="10.00">+ GraphicsLine()</text>
<text text-anchor="start" x="240.5" y="-85" font-family="Helvetica,sans-Serif" font-size="10.00">+ GraphicsLine()</text>
<text text-anchor="start" x="240.5" y="-74" font-family="Helvetica,sans-Serif" font-size="10.00">+ first()</text>
<text text-anchor="start" x="240.5" y="-63" font-family="Helvetica,sans-Serif" font-size="10.00">+ first()</text>
<text text-anchor="start" x="240.5" y="-52" font-family="Helvetica,sans-Serif" font-size="10.00">+ second()</text>
<text text-anchor="start" x="240.5" y="-41" font-family="Helvetica,sans-Serif" font-size="10.00">+ second()</text>
<text text-anchor="start" x="240.5" y="-30" font-family="Helvetica,sans-Serif" font-size="10.00">+ type()</text>
</a>
</g>
</g>
<!-- Node1&#45;&gt;Node7 -->
<g id="edge6" class="edge"><title>Node1&#45;&gt;Node7</title>
<path fill="none" stroke="midnightblue" d="M277,-206.164C277,-190.377 277,-173.251 277,-157.152"/>
<polygon fill="none" stroke="midnightblue" points="273.5,-206.32 277,-216.32 280.5,-206.32 273.5,-206.32"/>
</g>
<!-- Node8 -->
<g id="node8" class="node"><title>Node8</title>
<g id="a_node8"><a xlink:href="class_graphics_polygon.html" target="_top" xlink:title="Un polygone. ">
<polygon fill="white" stroke="black" points="339,-23 339,-157 445,-157 445,-23 339,-23"/>
<text text-anchor="middle" x="392" y="-145" font-family="Helvetica,sans-Serif" font-size="10.00">GraphicsPolygon</text>
<polyline fill="none" stroke="black" points="339,-138 445,-138 "/>
<text text-anchor="middle" x="392" y="-126" font-family="Helvetica,sans-Serif" font-size="10.00"> </text>
<polyline fill="none" stroke="black" points="339,-119 445,-119 "/>
<text text-anchor="start" x="347" y="-107" font-family="Helvetica,sans-Serif" font-size="10.00">+ GraphicsPolygon()</text>
<text text-anchor="start" x="347" y="-96" font-family="Helvetica,sans-Serif" font-size="10.00">+ GraphicsPolygon()</text>
<text text-anchor="start" x="347" y="-85" font-family="Helvetica,sans-Serif" font-size="10.00">+ GraphicsPolygon()</text>
<text text-anchor="start" x="347" y="-74" font-family="Helvetica,sans-Serif" font-size="10.00">+ newPoint()</text>
<text text-anchor="start" x="347" y="-63" font-family="Helvetica,sans-Serif" font-size="10.00">+ popPoint()</text>
<text text-anchor="start" x="347" y="-52" font-family="Helvetica,sans-Serif" font-size="10.00">+ nbPoints()</text>
<text text-anchor="start" x="347" y="-41" font-family="Helvetica,sans-Serif" font-size="10.00">+ setNbPoints()</text>
<text text-anchor="start" x="347" y="-30" font-family="Helvetica,sans-Serif" font-size="10.00">+ type()</text>
</a>
</g>
</g>
<!-- Node1&#45;&gt;Node8 -->
<g id="edge7" class="edge"><title>Node1&#45;&gt;Node8</title>
<path fill="none" stroke="midnightblue" d="M315.139,-207.962C325.837,-191.683 337.546,-173.864 348.529,-157.152"/>
<polygon fill="none" stroke="midnightblue" points="312.214,-206.041 309.647,-216.32 318.064,-209.885 312.214,-206.041"/>
</g>
<!-- Node9 -->
<g id="node9" class="node"><title>Node9</title>
<g id="a_node9"><a xlink:href="class_graphics_triangle.html" target="_top" xlink:title="Un triangle quelconque. ">
<polygon fill="white" stroke="black" points="463.5,-28.5 463.5,-151.5 568.5,-151.5 568.5,-28.5 463.5,-28.5"/>
<text text-anchor="middle" x="516" y="-139.5" font-family="Helvetica,sans-Serif" font-size="10.00">GraphicsTriangle</text>
<polyline fill="none" stroke="black" points="463.5,-132.5 568.5,-132.5 "/>
<text text-anchor="middle" x="516" y="-120.5" font-family="Helvetica,sans-Serif" font-size="10.00"> </text>
<polyline fill="none" stroke="black" points="463.5,-113.5 568.5,-113.5 "/>
<text text-anchor="start" x="471.5" y="-101.5" font-family="Helvetica,sans-Serif" font-size="10.00">+ GraphicsTriangle()</text>
<text text-anchor="start" x="471.5" y="-90.5" font-family="Helvetica,sans-Serif" font-size="10.00">+ GraphicsTriangle()</text>
<text text-anchor="start" x="471.5" y="-79.5" font-family="Helvetica,sans-Serif" font-size="10.00">+ GraphicsTriangle()</text>
<text text-anchor="start" x="471.5" y="-68.5" font-family="Helvetica,sans-Serif" font-size="10.00">+ first()</text>
<text text-anchor="start" x="471.5" y="-57.5" font-family="Helvetica,sans-Serif" font-size="10.00">+ second()</text>
<text text-anchor="start" x="471.5" y="-46.5" font-family="Helvetica,sans-Serif" font-size="10.00">+ third()</text>
<text text-anchor="start" x="471.5" y="-35.5" font-family="Helvetica,sans-Serif" font-size="10.00">+ type()</text>
</a>
</g>
</g>
<!-- Node1&#45;&gt;Node9 -->
<g id="edge8" class="edge"><title>Node1&#45;&gt;Node9</title>
<path fill="none" stroke="midnightblue" d="M335.896,-245.844C372.31,-231.403 418.514,-209.323 453,-180 462.519,-171.906 471.317,-162.071 479.133,-151.929"/>
<polygon fill="none" stroke="midnightblue" points="334.442,-242.654 326.383,-249.532 336.972,-249.18 334.442,-242.654"/>
</g>
<!-- Node2 -->
<g id="node2" class="node"><title>Node2</title>
<g id="a_node2"><a xlink:href="class_graphics_item.html" target="_top" xlink:title="Classe de base. ">
<polygon fill="white" stroke="black" points="226.5,-355 226.5,-599 327.5,-599 327.5,-355 226.5,-355"/>
<text text-anchor="middle" x="277" y="-587" font-family="Helvetica,sans-Serif" font-size="10.00">GraphicsItem</text>
<polyline fill="none" stroke="black" points="226.5,-580 327.5,-580 "/>
<text text-anchor="middle" x="277" y="-568" font-family="Helvetica,sans-Serif" font-size="10.00"> </text>
<polyline fill="none" stroke="black" points="226.5,-561 327.5,-561 "/>
<text text-anchor="start" x="234.5" y="-549" font-family="Helvetica,sans-Serif" font-size="10.00">+ GraphicsItem()</text>
<text text-anchor="start" x="234.5" y="-538" font-family="Helvetica,sans-Serif" font-size="10.00">+ GraphicsItem()</text>
<text text-anchor="start" x="234.5" y="-527" font-family="Helvetica,sans-Serif" font-size="10.00">+ GraphicsItem()</text>
<text text-anchor="start" x="234.5" y="-516" font-family="Helvetica,sans-Serif" font-size="10.00">+ ~GraphicsItem()</text>
<text text-anchor="start" x="234.5" y="-505" font-family="Helvetica,sans-Serif" font-size="10.00">+ id()</text>
<text text-anchor="start" x="234.5" y="-494" font-family="Helvetica,sans-Serif" font-size="10.00">+ parentId()</text>
<text text-anchor="start" x="234.5" y="-483" font-family="Helvetica,sans-Serif" font-size="10.00">+ parent()</text>
<text text-anchor="start" x="234.5" y="-472" font-family="Helvetica,sans-Serif" font-size="10.00">+ setParent()</text>
<text text-anchor="start" x="234.5" y="-461" font-family="Helvetica,sans-Serif" font-size="10.00">+ setParent()</text>
<text text-anchor="start" x="234.5" y="-450" font-family="Helvetica,sans-Serif" font-size="10.00">+ setParent()</text>
<text text-anchor="start" x="234.5" y="-439" font-family="Helvetica,sans-Serif" font-size="10.00">et 22 de plus...</text>
<text text-anchor="start" x="234.5" y="-428" font-family="Helvetica,sans-Serif" font-size="10.00">+ focusItem()</text>
<text text-anchor="start" x="234.5" y="-417" font-family="Helvetica,sans-Serif" font-size="10.00">+ setFocusItem()</text>
<text text-anchor="start" x="234.5" y="-406" font-family="Helvetica,sans-Serif" font-size="10.00">+ make()</text>
<text text-anchor="start" x="234.5" y="-395" font-family="Helvetica,sans-Serif" font-size="10.00"># meDraw()</text>
<text text-anchor="start" x="234.5" y="-384" font-family="Helvetica,sans-Serif" font-size="10.00"># meUpdate()</text>
<text text-anchor="start" x="234.5" y="-373" font-family="Helvetica,sans-Serif" font-size="10.00"># meHandleEvent()</text>
<text text-anchor="start" x="234.5" y="-362" font-family="Helvetica,sans-Serif" font-size="10.00"># meIsOver()</text>
</a>
</g>
</g>
<!-- Node2&#45;&gt;Node1 -->
<g id="edge1" class="edge"><title>Node2&#45;&gt;Node1</title>
<path fill="none" stroke="midnightblue" d="M277,-344.429C277,-335.06 277,-326.014 277,-317.624"/>
<polygon fill="none" stroke="midnightblue" points="273.5,-344.705 277,-354.705 280.5,-344.705 273.5,-344.705"/>
</g>
<!-- Node3 -->
<g id="node3" class="node"><title>Node3</title>
<polygon fill="white" stroke="#bfbfbf" points="138.5,-637 138.5,-705 277.5,-705 277.5,-637 138.5,-637"/>
<text text-anchor="start" x="146.5" y="-693" font-family="Helvetica,sans-Serif" font-size="10.00">std::enable_shared</text>
<text text-anchor="middle" x="208" y="-682" font-family="Helvetica,sans-Serif" font-size="10.00">_from_this&lt; GraphicsItem &gt;</text>
<polyline fill="none" stroke="#bfbfbf" points="138.5,-675 277.5,-675 "/>
<text text-anchor="middle" x="208" y="-663" font-family="Helvetica,sans-Serif" font-size="10.00"> </text>
<polyline fill="none" stroke="#bfbfbf" points="138.5,-656 277.5,-656 "/>
<text text-anchor="middle" x="208" y="-644" font-family="Helvetica,sans-Serif" font-size="10.00"> </text>
</g>
<!-- Node3&#45;&gt;Node2 -->
<g id="edge2" class="edge"><title>Node3&#45;&gt;Node2</title>
<path fill="none" stroke="midnightblue" d="M223.268,-627.514C226.412,-618.767 229.869,-609.148 233.466,-599.138"/>
<polygon fill="none" stroke="midnightblue" points="219.95,-626.4 219.862,-636.994 226.537,-628.767 219.95,-626.4"/>
</g>
<!-- Node4 -->
<g id="node4" class="node"><title>Node4</title>
<polygon fill="white" stroke="#bfbfbf" points="295.5,-642.5 295.5,-699.5 396.5,-699.5 396.5,-642.5 295.5,-642.5"/>
<text text-anchor="middle" x="346" y="-687.5" font-family="Helvetica,sans-Serif" font-size="10.00">boost::noncopyable</text>
<polyline fill="none" stroke="#bfbfbf" points="295.5,-680.5 396.5,-680.5 "/>
<text text-anchor="middle" x="346" y="-668.5" font-family="Helvetica,sans-Serif" font-size="10.00"> </text>
<polyline fill="none" stroke="#bfbfbf" points="295.5,-661.5 396.5,-661.5 "/>
<text text-anchor="middle" x="346" y="-649.5" font-family="Helvetica,sans-Serif" font-size="10.00"> </text>
</g>
<!-- Node4&#45;&gt;Node2 -->
<g id="edge3" class="edge"><title>Node4&#45;&gt;Node2</title>
<path fill="none" stroke="#8b1a1a" d="M332.681,-632.94C329.069,-622.889 324.952,-611.431 320.628,-599.401"/>
<polygon fill="none" stroke="#8b1a1a" points="329.438,-634.264 336.114,-642.491 336.026,-631.897 329.438,-634.264"/>
</g>
</g>
</svg>
