<?xml version="1.0" encoding="UTF-8" standalone="no"?>
<!DOCTYPE svg PUBLIC "-//W3C//DTD SVG 1.1//EN"
 "http://www.w3.org/Graphics/SVG/1.1/DTD/svg11.dtd">
<!-- Generated by graphviz version 2.36.0 (20140111.2315)
 -->
<!-- Title: GraphicsAnimation Pages: 1 -->
<svg width="235pt" height="488pt"
 viewBox="0.00 0.00 235.00 488.00" xmlns="http://www.w3.org/2000/svg" xmlns:xlink="http://www.w3.org/1999/xlink">
<g id="graph0" class="graph" transform="scale(1 1) rotate(0) translate(4 484)">
<title>GraphicsAnimation</title>
<polygon fill="white" stroke="none" points="-4,4 -4,-484 231,-484 231,4 -4,4"/>
<!-- Node1 -->
<g id="node1" class="node"><title>Node1</title>
<polygon fill="#bfbfbf" stroke="black" points="73,-1 73,-91 187,-91 187,-1 73,-1"/>
<text text-anchor="middle" x="130" y="-79" font-family="Helvetica,sans-Serif" font-size="10.00">GraphicsAnimation</text>
<polyline fill="none" stroke="black" points="73,-72 187,-72 "/>
<text text-anchor="middle" x="130" y="-60" font-family="Helvetica,sans-Serif" font-size="10.00"> </text>
<polyline fill="none" stroke="black" points="73,-53 187,-53 "/>
<text text-anchor="start" x="81" y="-41" font-family="Helvetica,sans-Serif" font-size="10.00">+ GraphicsAnimation()</text>
<text text-anchor="start" x="81" y="-30" font-family="Helvetica,sans-Serif" font-size="10.00">+ GraphicsAnimation()</text>
<text text-anchor="start" x="81" y="-19" font-family="Helvetica,sans-Serif" font-size="10.00">+ GraphicsAnimation()</text>
<text text-anchor="start" x="81" y="-8" font-family="Helvetica,sans-Serif" font-size="10.00">+ type()</text>
</g>
<!-- Node2 -->
<g id="node2" class="node"><title>Node2</title>
<g id="a_node2"><a xlink:href="class_graphics_item.html" target="_top" xlink:title="Classe de baseLa classe GraphicsItem est la base de tout les éléments graphiques. ...">
<polygon fill="white" stroke="black" points="79.5,-129 79.5,-373 180.5,-373 180.5,-129 79.5,-129"/>
<text text-anchor="middle" x="130" y="-361" font-family="Helvetica,sans-Serif" font-size="10.00">GraphicsItem</text>
<polyline fill="none" stroke="black" points="79.5,-354 180.5,-354 "/>
<text text-anchor="middle" x="130" y="-342" font-family="Helvetica,sans-Serif" font-size="10.00"> </text>
<polyline fill="none" stroke="black" points="79.5,-335 180.5,-335 "/>
<text text-anchor="start" x="87.5" y="-323" font-family="Helvetica,sans-Serif" font-size="10.00">+ GraphicsItem()</text>
<text text-anchor="start" x="87.5" y="-312" font-family="Helvetica,sans-Serif" font-size="10.00">+ GraphicsItem()</text>
<text text-anchor="start" x="87.5" y="-301" font-family="Helvetica,sans-Serif" font-size="10.00">+ GraphicsItem()</text>
<text text-anchor="start" x="87.5" y="-290" font-family="Helvetica,sans-Serif" font-size="10.00">+ ~GraphicsItem()</text>
<text text-anchor="start" x="87.5" y="-279" font-family="Helvetica,sans-Serif" font-size="10.00">+ id()</text>
<text text-anchor="start" x="87.5" y="-268" font-family="Helvetica,sans-Serif" font-size="10.00">+ parentId()</text>
<text text-anchor="start" x="87.5" y="-257" font-family="Helvetica,sans-Serif" font-size="10.00">+ parent()</text>
<text text-anchor="start" x="87.5" y="-246" font-family="Helvetica,sans-Serif" font-size="10.00">+ setParent()</text>
<text text-anchor="start" x="87.5" y="-235" font-family="Helvetica,sans-Serif" font-size="10.00">+ setParent()</text>
<text text-anchor="start" x="87.5" y="-224" font-family="Helvetica,sans-Serif" font-size="10.00">+ setParent()</text>
<text text-anchor="start" x="87.5" y="-213" font-family="Helvetica,sans-Serif" font-size="10.00">et 23 de plus...</text>
<text text-anchor="start" x="87.5" y="-202" font-family="Helvetica,sans-Serif" font-size="10.00">+ focusItem()</text>
<text text-anchor="start" x="87.5" y="-191" font-family="Helvetica,sans-Serif" font-size="10.00">+ setFocusItem()</text>
<text text-anchor="start" x="87.5" y="-180" font-family="Helvetica,sans-Serif" font-size="10.00">+ make()</text>
<text text-anchor="start" x="87.5" y="-169" font-family="Helvetica,sans-Serif" font-size="10.00"># meDraw()</text>
<text text-anchor="start" x="87.5" y="-158" font-family="Helvetica,sans-Serif" font-size="10.00"># meUpdate()</text>
<text text-anchor="start" x="87.5" y="-147" font-family="Helvetica,sans-Serif" font-size="10.00"># meHandleEvent()</text>
<text text-anchor="start" x="87.5" y="-136" font-family="Helvetica,sans-Serif" font-size="10.00"># meIsOver()</text>
</a>
</g>
</g>
<!-- Node2&#45;&gt;Node1 -->
<g id="edge1" class="edge"><title>Node2&#45;&gt;Node1</title>
<path fill="none" stroke="midnightblue" d="M130,-118.718C130,-108.99 130,-99.6634 130,-91.1399"/>
<polygon fill="none" stroke="midnightblue" points="126.5,-118.983 130,-128.983 133.5,-118.983 126.5,-118.983"/>
</g>
<!-- Node3 -->
<g id="node3" class="node"><title>Node3</title>
<polygon fill="white" stroke="#bfbfbf" points="-0.5,-411 -0.5,-479 138.5,-479 138.5,-411 -0.5,-411"/>
<text text-anchor="start" x="7.5" y="-467" font-family="Helvetica,sans-Serif" font-size="10.00">std::enable_shared</text>
<text text-anchor="middle" x="69" y="-456" font-family="Helvetica,sans-Serif" font-size="10.00">_from_this&lt; GraphicsItem &gt;</text>
<polyline fill="none" stroke="#bfbfbf" points="-0.5,-449 138.5,-449 "/>
<text text-anchor="middle" x="69" y="-437" font-family="Helvetica,sans-Serif" font-size="10.00"> </text>
<polyline fill="none" stroke="#bfbfbf" points="-0.5,-430 138.5,-430 "/>
<text text-anchor="middle" x="69" y="-418" font-family="Helvetica,sans-Serif" font-size="10.00"> </text>
</g>
<!-- Node3&#45;&gt;Node2 -->
<g id="edge2" class="edge"><title>Node3&#45;&gt;Node2</title>
<path fill="none" stroke="midnightblue" d="M82.588,-401.231C85.343,-392.56 88.3672,-383.041 91.5134,-373.138"/>
<polygon fill="none" stroke="midnightblue" points="79.1786,-400.404 79.4863,-410.994 85.85,-402.523 79.1786,-400.404"/>
</g>
<!-- Node4 -->
<g id="node4" class="node"><title>Node4</title>
<polygon fill="white" stroke="#bfbfbf" points="156.5,-416.5 156.5,-473.5 227.5,-473.5 227.5,-416.5 156.5,-416.5"/>
<text text-anchor="middle" x="192" y="-461.5" font-family="Helvetica,sans-Serif" font-size="10.00">noncopyable</text>
<polyline fill="none" stroke="#bfbfbf" points="156.5,-454.5 227.5,-454.5 "/>
<text text-anchor="middle" x="192" y="-442.5" font-family="Helvetica,sans-Serif" font-size="10.00"> </text>
<polyline fill="none" stroke="#bfbfbf" points="156.5,-435.5 227.5,-435.5 "/>
<text text-anchor="middle" x="192" y="-423.5" font-family="Helvetica,sans-Serif" font-size="10.00"> </text>
</g>
<!-- Node4&#45;&gt;Node2 -->
<g id="edge3" class="edge"><title>Node4&#45;&gt;Node2</title>
<path fill="none" stroke="#8b1a1a" d="M180.033,-406.94C176.787,-396.889 173.087,-385.431 169.202,-373.401"/>
<polygon fill="none" stroke="#8b1a1a" points="176.713,-408.05 183.117,-416.491 183.375,-405.899 176.713,-408.05"/>
</g>
</g>
</svg>
