<?xml version="1.0" encoding="UTF-8" standalone="no"?>
<!DOCTYPE svg PUBLIC "-//W3C//DTD SVG 1.1//EN"
 "http://www.w3.org/Graphics/SVG/1.1/DTD/svg11.dtd">
<!-- Generated by graphviz version 2.36.0 (20140111.2315)
 -->
<!-- Title: GraphicsRectangle Pages: 1 -->
<svg width="122pt" height="586pt"
 viewBox="0.00 0.00 122.00 586.00" xmlns="http://www.w3.org/2000/svg" xmlns:xlink="http://www.w3.org/1999/xlink">
<g id="graph0" class="graph" transform="scale(1 1) rotate(0) translate(4 582)">
<title>GraphicsRectangle</title>
<polygon fill="white" stroke="none" points="-4,4 -4,-582 118,-582 118,4 -4,4"/>
<!-- Node1 -->
<g id="node1" class="node"><title>Node1</title>
<polygon fill="#bfbfbf" stroke="black" points="-0.5,-1 -0.5,-201 114.5,-201 114.5,-1 -0.5,-1"/>
<text text-anchor="middle" x="57" y="-189" font-family="Helvetica,sans-Serif" font-size="10.00">GraphicsRectangle</text>
<polyline fill="none" stroke="black" points="-0.5,-182 114.5,-182 "/>
<text text-anchor="middle" x="57" y="-170" font-family="Helvetica,sans-Serif" font-size="10.00"> </text>
<polyline fill="none" stroke="black" points="-0.5,-163 114.5,-163 "/>
<text text-anchor="start" x="7.5" y="-151" font-family="Helvetica,sans-Serif" font-size="10.00">+ GraphicsRectangle()</text>
<text text-anchor="start" x="7.5" y="-140" font-family="Helvetica,sans-Serif" font-size="10.00">+ GraphicsRectangle()</text>
<text text-anchor="start" x="7.5" y="-129" font-family="Helvetica,sans-Serif" font-size="10.00">+ GraphicsRectangle()</text>
<text text-anchor="start" x="7.5" y="-118" font-family="Helvetica,sans-Serif" font-size="10.00">+ topLeft()</text>
<text text-anchor="start" x="7.5" y="-107" font-family="Helvetica,sans-Serif" font-size="10.00">+ topLeft()</text>
<text text-anchor="start" x="7.5" y="-96" font-family="Helvetica,sans-Serif" font-size="10.00">+ bottomRight()</text>
<text text-anchor="start" x="7.5" y="-85" font-family="Helvetica,sans-Serif" font-size="10.00">+ bottomRight()</text>
<text text-anchor="start" x="7.5" y="-74" font-family="Helvetica,sans-Serif" font-size="10.00">+ width()</text>
<text text-anchor="start" x="7.5" y="-63" font-family="Helvetica,sans-Serif" font-size="10.00">+ setWidth()</text>
<text text-anchor="start" x="7.5" y="-52" font-family="Helvetica,sans-Serif" font-size="10.00">+ height()</text>
<text text-anchor="start" x="7.5" y="-41" font-family="Helvetica,sans-Serif" font-size="10.00">+ setHeight()</text>
<text text-anchor="start" x="7.5" y="-30" font-family="Helvetica,sans-Serif" font-size="10.00">+ type()</text>
<text text-anchor="start" x="7.5" y="-19" font-family="Helvetica,sans-Serif" font-size="10.00"># meDraw()</text>
<text text-anchor="start" x="7.5" y="-8" font-family="Helvetica,sans-Serif" font-size="10.00"># meIsOver()</text>
</g>
<!-- Node2 -->
<g id="node2" class="node"><title>Node2</title>
<g id="a_node2"><a xlink:href="class_graphics_item.html" target="_top" xlink:title="Classe de base. ">
<polygon fill="white" stroke="black" points="6.5,-239 6.5,-483 107.5,-483 107.5,-239 6.5,-239"/>
<text text-anchor="middle" x="57" y="-471" font-family="Helvetica,sans-Serif" font-size="10.00">GraphicsItem</text>
<polyline fill="none" stroke="black" points="6.5,-464 107.5,-464 "/>
<text text-anchor="middle" x="57" y="-452" font-family="Helvetica,sans-Serif" font-size="10.00"> </text>
<polyline fill="none" stroke="black" points="6.5,-445 107.5,-445 "/>
<text text-anchor="start" x="14.5" y="-433" font-family="Helvetica,sans-Serif" font-size="10.00">+ GraphicsItem()</text>
<text text-anchor="start" x="14.5" y="-422" font-family="Helvetica,sans-Serif" font-size="10.00">+ GraphicsItem()</text>
<text text-anchor="start" x="14.5" y="-411" font-family="Helvetica,sans-Serif" font-size="10.00">+ GraphicsItem()</text>
<text text-anchor="start" x="14.5" y="-400" font-family="Helvetica,sans-Serif" font-size="10.00">+ ~GraphicsItem()</text>
<text text-anchor="start" x="14.5" y="-389" font-family="Helvetica,sans-Serif" font-size="10.00">+ id()</text>
<text text-anchor="start" x="14.5" y="-378" font-family="Helvetica,sans-Serif" font-size="10.00">+ parentId()</text>
<text text-anchor="start" x="14.5" y="-367" font-family="Helvetica,sans-Serif" font-size="10.00">+ parent()</text>
<text text-anchor="start" x="14.5" y="-356" font-family="Helvetica,sans-Serif" font-size="10.00">+ setParent()</text>
<text text-anchor="start" x="14.5" y="-345" font-family="Helvetica,sans-Serif" font-size="10.00">+ setParent()</text>
<text text-anchor="start" x="14.5" y="-334" font-family="Helvetica,sans-Serif" font-size="10.00">+ setParent()</text>
<text text-anchor="start" x="14.5" y="-323" font-family="Helvetica,sans-Serif" font-size="10.00">et 19 de plus...</text>
<text text-anchor="start" x="14.5" y="-312" font-family="Helvetica,sans-Serif" font-size="10.00">+ focusItem()</text>
<text text-anchor="start" x="14.5" y="-301" font-family="Helvetica,sans-Serif" font-size="10.00">+ setFocusItem()</text>
<text text-anchor="start" x="14.5" y="-290" font-family="Helvetica,sans-Serif" font-size="10.00">+ make()</text>
<text text-anchor="start" x="14.5" y="-279" font-family="Helvetica,sans-Serif" font-size="10.00"># meDraw()</text>
<text text-anchor="start" x="14.5" y="-268" font-family="Helvetica,sans-Serif" font-size="10.00"># meUpdate()</text>
<text text-anchor="start" x="14.5" y="-257" font-family="Helvetica,sans-Serif" font-size="10.00"># meHandleEvent()</text>
<text text-anchor="start" x="14.5" y="-246" font-family="Helvetica,sans-Serif" font-size="10.00"># meIsOver()</text>
</a>
</g>
</g>
<!-- Node2&#45;&gt;Node1 -->
<g id="edge1" class="edge"><title>Node2&#45;&gt;Node1</title>
<path fill="none" stroke="midnightblue" d="M57,-228.8C57,-219.459 57,-210.134 57,-201.02"/>
<polygon fill="none" stroke="midnightblue" points="53.5001,-228.932 57,-238.932 60.5001,-228.932 53.5001,-228.932"/>
</g>
<!-- Node3 -->
<g id="node3" class="node"><title>Node3</title>
<polygon fill="white" stroke="#bfbfbf" points="6.5,-520.5 6.5,-577.5 107.5,-577.5 107.5,-520.5 6.5,-520.5"/>
<text text-anchor="middle" x="57" y="-565.5" font-family="Helvetica,sans-Serif" font-size="10.00">boost::noncopyable</text>
<polyline fill="none" stroke="#bfbfbf" points="6.5,-558.5 107.5,-558.5 "/>
<text text-anchor="middle" x="57" y="-546.5" font-family="Helvetica,sans-Serif" font-size="10.00"> </text>
<polyline fill="none" stroke="#bfbfbf" points="6.5,-539.5 107.5,-539.5 "/>
<text text-anchor="middle" x="57" y="-527.5" font-family="Helvetica,sans-Serif" font-size="10.00"> </text>
</g>
<!-- Node3&#45;&gt;Node2 -->
<g id="edge2" class="edge"><title>Node3&#45;&gt;Node2</title>
<path fill="none" stroke="#8b1a1a" d="M57,-509.933C57,-501.741 57,-492.663 57,-483.15"/>
<polygon fill="none" stroke="#8b1a1a" points="53.5001,-510.154 57,-520.154 60.5001,-510.154 53.5001,-510.154"/>
</g>
</g>
</svg>
