<?xml version="1.0" encoding="UTF-8" standalone="no"?>
<!DOCTYPE svg PUBLIC "-//W3C//DTD SVG 1.1//EN"
 "http://www.w3.org/Graphics/SVG/1.1/DTD/svg11.dtd">
<!-- Generated by graphviz version 2.36.0 (20140111.2315)
 -->
<!-- Title: GraphicsShape Pages: 1 -->
<svg width="576pt" height="648pt"
 viewBox="0.00 0.00 576.00 648.00" xmlns="http://www.w3.org/2000/svg" xmlns:xlink="http://www.w3.org/1999/xlink">
<g id="graph0" class="graph" transform="scale(1 1) rotate(0) translate(4 644)">
<title>GraphicsShape</title>
<polygon fill="white" stroke="none" points="-4,4 -4,-644 572,-644 572,4 -4,4"/>
<!-- Node1 -->
<g id="node1" class="node"><title>Node1</title>
<polygon fill="#bfbfbf" stroke="black" points="228,-183 228,-251 326,-251 326,-183 228,-183"/>
<text text-anchor="middle" x="277" y="-239" font-family="Helvetica,sans-Serif" font-size="10.00">GraphicsShape</text>
<polyline fill="none" stroke="black" points="228,-232 326,-232 "/>
<text text-anchor="start" x="236" y="-220" font-family="Helvetica,sans-Serif" font-size="10.00"># m_points</text>
<polyline fill="none" stroke="black" points="228,-213 326,-213 "/>
<text text-anchor="start" x="236" y="-201" font-family="Helvetica,sans-Serif" font-size="10.00">+ GraphicsShape()</text>
<text text-anchor="start" x="236" y="-190" font-family="Helvetica,sans-Serif" font-size="10.00"># meDraw()</text>
</g>
<!-- Node5 -->
<g id="node5" class="node"><title>Node5</title>
<g id="a_node5"><a xlink:href="class_graphics_circle.html" target="_top" xlink:title="Un cercle. ">
<polygon fill="white" stroke="black" points="0,-0.5 0,-145.5 96,-145.5 96,-0.5 0,-0.5"/>
<text text-anchor="middle" x="48" y="-133.5" font-family="Helvetica,sans-Serif" font-size="10.00">GraphicsCircle</text>
<polyline fill="none" stroke="black" points="0,-126.5 96,-126.5 "/>
<text text-anchor="middle" x="48" y="-114.5" font-family="Helvetica,sans-Serif" font-size="10.00"> </text>
<polyline fill="none" stroke="black" points="0,-107.5 96,-107.5 "/>
<text text-anchor="start" x="8" y="-95.5" font-family="Helvetica,sans-Serif" font-size="10.00">+ GraphicsCircle()</text>
<text text-anchor="start" x="8" y="-84.5" font-family="Helvetica,sans-Serif" font-size="10.00">+ center()</text>
<text text-anchor="start" x="8" y="-73.5" font-family="Helvetica,sans-Serif" font-size="10.00">+ center()</text>
<text text-anchor="start" x="8" y="-62.5" font-family="Helvetica,sans-Serif" font-size="10.00">+ radiusPt()</text>
<text text-anchor="start" x="8" y="-51.5" font-family="Helvetica,sans-Serif" font-size="10.00">+ radiusPt()</text>
<text text-anchor="start" x="8" y="-40.5" font-family="Helvetica,sans-Serif" font-size="10.00">+ radius()</text>
<text text-anchor="start" x="8" y="-29.5" font-family="Helvetica,sans-Serif" font-size="10.00">+ setRadius()</text>
<text text-anchor="start" x="8" y="-18.5" font-family="Helvetica,sans-Serif" font-size="10.00"># meDraw()</text>
<text text-anchor="start" x="8" y="-7.5" font-family="Helvetica,sans-Serif" font-size="10.00"># meIsOver()</text>
</a>
</g>
</g>
<!-- Node1&#45;&gt;Node5 -->
<g id="edge4" class="edge"><title>Node1&#45;&gt;Node5</title>
<path fill="none" stroke="midnightblue" d="M218.318,-200.406C183.14,-189.133 138.822,-171.384 105,-146 101.94,-143.703 98.9523,-141.204 96.0509,-138.561"/>
<polygon fill="none" stroke="midnightblue" points="217.393,-203.784 227.982,-203.415 219.475,-197.1 217.393,-203.784"/>
</g>
<!-- Node6 -->
<g id="node6" class="node"><title>Node6</title>
<g id="a_node6"><a xlink:href="class_graphics_ellipse.html" target="_top" xlink:title="Une ellipse. ">
<polygon fill="white" stroke="black" points="114,-11.5 114,-134.5 214,-134.5 214,-11.5 114,-11.5"/>
<text text-anchor="middle" x="164" y="-122.5" font-family="Helvetica,sans-Serif" font-size="10.00">GraphicsEllipse</text>
<polyline fill="none" stroke="black" points="114,-115.5 214,-115.5 "/>
<text text-anchor="middle" x="164" y="-103.5" font-family="Helvetica,sans-Serif" font-size="10.00"> </text>
<polyline fill="none" stroke="black" points="114,-96.5 214,-96.5 "/>
<text text-anchor="start" x="122" y="-84.5" font-family="Helvetica,sans-Serif" font-size="10.00">+ GraphicsEllipse()</text>
<text text-anchor="start" x="122" y="-73.5" font-family="Helvetica,sans-Serif" font-size="10.00">+ center()</text>
<text text-anchor="start" x="122" y="-62.5" font-family="Helvetica,sans-Serif" font-size="10.00">+ center()</text>
<text text-anchor="start" x="122" y="-51.5" font-family="Helvetica,sans-Serif" font-size="10.00">+ radius()</text>
<text text-anchor="start" x="122" y="-40.5" font-family="Helvetica,sans-Serif" font-size="10.00">+ radius()</text>
<text text-anchor="start" x="122" y="-29.5" font-family="Helvetica,sans-Serif" font-size="10.00"># meDraw()</text>
<text text-anchor="start" x="122" y="-18.5" font-family="Helvetica,sans-Serif" font-size="10.00"># meIsOver()</text>
</a>
</g>
</g>
<!-- Node1&#45;&gt;Node6 -->
<g id="edge5" class="edge"><title>Node1&#45;&gt;Node6</title>
<path fill="none" stroke="midnightblue" d="M244.147,-174.715C234.18,-162.191 223.016,-148.162 212.26,-134.645"/>
<polygon fill="none" stroke="midnightblue" points="241.541,-177.062 250.507,-182.707 247.018,-172.703 241.541,-177.062"/>
</g>
<!-- Node7 -->
<g id="node7" class="node"><title>Node7</title>
<g id="a_node7"><a xlink:href="class_graphics_line.html" target="_top" xlink:title="Une ligne. ">
<polygon fill="white" stroke="black" points="232.5,-22.5 232.5,-123.5 321.5,-123.5 321.5,-22.5 232.5,-22.5"/>
<text text-anchor="middle" x="277" y="-111.5" font-family="Helvetica,sans-Serif" font-size="10.00">GraphicsLine</text>
<polyline fill="none" stroke="black" points="232.5,-104.5 321.5,-104.5 "/>
<text text-anchor="middle" x="277" y="-92.5" font-family="Helvetica,sans-Serif" font-size="10.00"> </text>
<polyline fill="none" stroke="black" points="232.5,-85.5 321.5,-85.5 "/>
<text text-anchor="start" x="240.5" y="-73.5" font-family="Helvetica,sans-Serif" font-size="10.00">+ GraphicsLine()</text>
<text text-anchor="start" x="240.5" y="-62.5" font-family="Helvetica,sans-Serif" font-size="10.00">+ first()</text>
<text text-anchor="start" x="240.5" y="-51.5" font-family="Helvetica,sans-Serif" font-size="10.00">+ first()</text>
<text text-anchor="start" x="240.5" y="-40.5" font-family="Helvetica,sans-Serif" font-size="10.00">+ second()</text>
<text text-anchor="start" x="240.5" y="-29.5" font-family="Helvetica,sans-Serif" font-size="10.00">+ second()</text>
</a>
</g>
</g>
<!-- Node1&#45;&gt;Node7 -->
<g id="edge6" class="edge"><title>Node1&#45;&gt;Node7</title>
<path fill="none" stroke="midnightblue" d="M277,-172.378C277,-156.921 277,-139.419 277,-123.508"/>
<polygon fill="none" stroke="midnightblue" points="273.5,-172.707 277,-182.707 280.5,-172.707 273.5,-172.707"/>
</g>
<!-- Node8 -->
<g id="node8" class="node"><title>Node8</title>
<g id="a_node8"><a xlink:href="class_graphics_polygon.html" target="_top" xlink:title="Un polygone. ">
<polygon fill="white" stroke="black" points="339,-22.5 339,-123.5 445,-123.5 445,-22.5 339,-22.5"/>
<text text-anchor="middle" x="392" y="-111.5" font-family="Helvetica,sans-Serif" font-size="10.00">GraphicsPolygon</text>
<polyline fill="none" stroke="black" points="339,-104.5 445,-104.5 "/>
<text text-anchor="middle" x="392" y="-92.5" font-family="Helvetica,sans-Serif" font-size="10.00"> </text>
<polyline fill="none" stroke="black" points="339,-85.5 445,-85.5 "/>
<text text-anchor="start" x="347" y="-73.5" font-family="Helvetica,sans-Serif" font-size="10.00">+ GraphicsPolygon()</text>
<text text-anchor="start" x="347" y="-62.5" font-family="Helvetica,sans-Serif" font-size="10.00">+ newPoint()</text>
<text text-anchor="start" x="347" y="-51.5" font-family="Helvetica,sans-Serif" font-size="10.00">+ popPoint()</text>
<text text-anchor="start" x="347" y="-40.5" font-family="Helvetica,sans-Serif" font-size="10.00">+ nbPoints()</text>
<text text-anchor="start" x="347" y="-29.5" font-family="Helvetica,sans-Serif" font-size="10.00">+ setNbPoints()</text>
</a>
</g>
</g>
<!-- Node1&#45;&gt;Node8 -->
<g id="edge7" class="edge"><title>Node1&#45;&gt;Node8</title>
<path fill="none" stroke="midnightblue" d="M310.534,-174.592C323.48,-158.607 338.4,-140.184 351.905,-123.508"/>
<polygon fill="none" stroke="midnightblue" points="307.536,-172.733 303.962,-182.707 312.976,-177.139 307.536,-172.733"/>
</g>
<!-- Node9 -->
<g id="node9" class="node"><title>Node9</title>
<g id="a_node9"><a xlink:href="class_graphics_triangle.html" target="_top" xlink:title="Un triangle quelconque. ">
<polygon fill="white" stroke="black" points="463.5,-28 463.5,-118 568.5,-118 568.5,-28 463.5,-28"/>
<text text-anchor="middle" x="516" y="-106" font-family="Helvetica,sans-Serif" font-size="10.00">GraphicsTriangle</text>
<polyline fill="none" stroke="black" points="463.5,-99 568.5,-99 "/>
<text text-anchor="middle" x="516" y="-87" font-family="Helvetica,sans-Serif" font-size="10.00"> </text>
<polyline fill="none" stroke="black" points="463.5,-80 568.5,-80 "/>
<text text-anchor="start" x="471.5" y="-68" font-family="Helvetica,sans-Serif" font-size="10.00">+ GraphicsTriangle()</text>
<text text-anchor="start" x="471.5" y="-57" font-family="Helvetica,sans-Serif" font-size="10.00">+ first()</text>
<text text-anchor="start" x="471.5" y="-46" font-family="Helvetica,sans-Serif" font-size="10.00">+ second()</text>
<text text-anchor="start" x="471.5" y="-35" font-family="Helvetica,sans-Serif" font-size="10.00">+ third()</text>
</a>
</g>
</g>
<!-- Node1&#45;&gt;Node9 -->
<g id="edge8" class="edge"><title>Node1&#45;&gt;Node9</title>
<path fill="none" stroke="midnightblue" d="M336.233,-200.176C372.127,-188.779 417.654,-170.982 453,-146 463.987,-138.235 474.328,-128.176 483.332,-118.051"/>
<polygon fill="none" stroke="midnightblue" points="334.902,-196.925 326.381,-203.222 336.969,-203.612 334.902,-196.925"/>
</g>
<!-- Node2 -->
<g id="node2" class="node"><title>Node2</title>
<g id="a_node2"><a xlink:href="class_graphics_item.html" target="_top" xlink:title="Classe de baseLa classe GraphicsItem est la base de tout les éléments graphiques. ...">
<polygon fill="white" stroke="black" points="226.5,-289 226.5,-533 327.5,-533 327.5,-289 226.5,-289"/>
<text text-anchor="middle" x="277" y="-521" font-family="Helvetica,sans-Serif" font-size="10.00">GraphicsItem</text>
<polyline fill="none" stroke="black" points="226.5,-514 327.5,-514 "/>
<text text-anchor="middle" x="277" y="-502" font-family="Helvetica,sans-Serif" font-size="10.00"> </text>
<polyline fill="none" stroke="black" points="226.5,-495 327.5,-495 "/>
<text text-anchor="start" x="234.5" y="-483" font-family="Helvetica,sans-Serif" font-size="10.00">+ GraphicsItem()</text>
<text text-anchor="start" x="234.5" y="-472" font-family="Helvetica,sans-Serif" font-size="10.00">+ ~GraphicsItem()</text>
<text text-anchor="start" x="234.5" y="-461" font-family="Helvetica,sans-Serif" font-size="10.00">+ id()</text>
<text text-anchor="start" x="234.5" y="-450" font-family="Helvetica,sans-Serif" font-size="10.00">+ parentId()</text>
<text text-anchor="start" x="234.5" y="-439" font-family="Helvetica,sans-Serif" font-size="10.00">+ parent()</text>
<text text-anchor="start" x="234.5" y="-428" font-family="Helvetica,sans-Serif" font-size="10.00">+ setParent()</text>
<text text-anchor="start" x="234.5" y="-417" font-family="Helvetica,sans-Serif" font-size="10.00">+ children()</text>
<text text-anchor="start" x="234.5" y="-406" font-family="Helvetica,sans-Serif" font-size="10.00">+ position()</text>
<text text-anchor="start" x="234.5" y="-395" font-family="Helvetica,sans-Serif" font-size="10.00">+ position()</text>
<text text-anchor="start" x="234.5" y="-384" font-family="Helvetica,sans-Serif" font-size="10.00">+ color()</text>
<text text-anchor="start" x="234.5" y="-373" font-family="Helvetica,sans-Serif" font-size="10.00">et 19 de plus...</text>
<text text-anchor="start" x="234.5" y="-362" font-family="Helvetica,sans-Serif" font-size="10.00">+ focusItem()</text>
<text text-anchor="start" x="234.5" y="-351" font-family="Helvetica,sans-Serif" font-size="10.00">+ setFocusItem()</text>
<text text-anchor="start" x="234.5" y="-340" font-family="Helvetica,sans-Serif" font-size="10.00">+ make()</text>
<text text-anchor="start" x="234.5" y="-329" font-family="Helvetica,sans-Serif" font-size="10.00"># meDraw()</text>
<text text-anchor="start" x="234.5" y="-318" font-family="Helvetica,sans-Serif" font-size="10.00"># meUpdate()</text>
<text text-anchor="start" x="234.5" y="-307" font-family="Helvetica,sans-Serif" font-size="10.00"># meHandleEvent()</text>
<text text-anchor="start" x="234.5" y="-296" font-family="Helvetica,sans-Serif" font-size="10.00"># meIsOver()</text>
</a>
</g>
</g>
<!-- Node2&#45;&gt;Node1 -->
<g id="edge1" class="edge"><title>Node2&#45;&gt;Node1</title>
<path fill="none" stroke="midnightblue" d="M277,-278.773C277,-268.775 277,-259.369 277,-251.081"/>
<polygon fill="none" stroke="midnightblue" points="273.5,-278.948 277,-288.948 280.5,-278.948 273.5,-278.948"/>
</g>
<!-- Node3 -->
<g id="node3" class="node"><title>Node3</title>
<polygon fill="white" stroke="#bfbfbf" points="146.5,-571 146.5,-639 285.5,-639 285.5,-571 146.5,-571"/>
<text text-anchor="start" x="154.5" y="-627" font-family="Helvetica,sans-Serif" font-size="10.00">std::enable_shared</text>
<text text-anchor="middle" x="216" y="-616" font-family="Helvetica,sans-Serif" font-size="10.00">_from_this&lt; GraphicsItem &gt;</text>
<polyline fill="none" stroke="#bfbfbf" points="146.5,-609 285.5,-609 "/>
<text text-anchor="middle" x="216" y="-597" font-family="Helvetica,sans-Serif" font-size="10.00"> </text>
<polyline fill="none" stroke="#bfbfbf" points="146.5,-590 285.5,-590 "/>
<text text-anchor="middle" x="216" y="-578" font-family="Helvetica,sans-Serif" font-size="10.00"> </text>
</g>
<!-- Node3&#45;&gt;Node2 -->
<g id="edge2" class="edge"><title>Node3&#45;&gt;Node2</title>
<path fill="none" stroke="midnightblue" d="M229.588,-561.231C232.343,-552.56 235.367,-543.041 238.513,-533.138"/>
<polygon fill="none" stroke="midnightblue" points="226.179,-560.404 226.486,-570.994 232.85,-562.523 226.179,-560.404"/>
</g>
<!-- Node4 -->
<g id="node4" class="node"><title>Node4</title>
<polygon fill="white" stroke="#bfbfbf" points="303.5,-576.5 303.5,-633.5 374.5,-633.5 374.5,-576.5 303.5,-576.5"/>
<text text-anchor="middle" x="339" y="-621.5" font-family="Helvetica,sans-Serif" font-size="10.00">noncopyable</text>
<polyline fill="none" stroke="#bfbfbf" points="303.5,-614.5 374.5,-614.5 "/>
<text text-anchor="middle" x="339" y="-602.5" font-family="Helvetica,sans-Serif" font-size="10.00"> </text>
<polyline fill="none" stroke="#bfbfbf" points="303.5,-595.5 374.5,-595.5 "/>
<text text-anchor="middle" x="339" y="-583.5" font-family="Helvetica,sans-Serif" font-size="10.00"> </text>
</g>
<!-- Node4&#45;&gt;Node2 -->
<g id="edge3" class="edge"><title>Node4&#45;&gt;Node2</title>
<path fill="none" stroke="#8b1a1a" d="M327.033,-566.94C323.787,-556.889 320.087,-545.431 316.202,-533.401"/>
<polygon fill="none" stroke="#8b1a1a" points="323.713,-568.05 330.117,-576.491 330.375,-565.899 323.713,-568.05"/>
</g>
</g>
</svg>
