<?xml version="1.0" encoding="UTF-8" standalone="no"?>
<!DOCTYPE svg PUBLIC "-//W3C//DTD SVG 1.1//EN"
 "http://www.w3.org/Graphics/SVG/1.1/DTD/svg11.dtd">
<!-- Generated by graphviz version 2.36.0 (20140111.2315)
 -->
<!-- Title: GroupPoints Pages: 1 -->
<svg width="108pt" height="194pt"
 viewBox="0.00 0.00 108.00 194.00" xmlns="http://www.w3.org/2000/svg" xmlns:xlink="http://www.w3.org/1999/xlink">
<g id="graph0" class="graph" transform="scale(1 1) rotate(0) translate(4 190)">
<title>GroupPoints</title>
<polygon fill="white" stroke="none" points="-4,4 -4,-190 104,-190 104,4 -4,4"/>
<!-- Node1 -->
<g id="node1" class="node"><title>Node1</title>
<polygon fill="#bfbfbf" stroke="black" points="7,-1 7,-91 93,-91 93,-1 7,-1"/>
<text text-anchor="middle" x="50" y="-79" font-family="Helvetica,sans-Serif" font-size="10.00">GroupPoints</text>
<polyline fill="none" stroke="black" points="7,-72 93,-72 "/>
<text text-anchor="middle" x="50" y="-60" font-family="Helvetica,sans-Serif" font-size="10.00"> </text>
<polyline fill="none" stroke="black" points="7,-53 93,-53 "/>
<text text-anchor="start" x="15" y="-41" font-family="Helvetica,sans-Serif" font-size="10.00">+ GroupPoints()</text>
<text text-anchor="start" x="15" y="-30" font-family="Helvetica,sans-Serif" font-size="10.00">+ origin()</text>
<text text-anchor="start" x="15" y="-19" font-family="Helvetica,sans-Serif" font-size="10.00">+ setOrigin()</text>
<text text-anchor="start" x="15" y="-8" font-family="Helvetica,sans-Serif" font-size="10.00">+ points()</text>
</g>
<!-- Node2 -->
<g id="node2" class="node"><title>Node2</title>
<polygon fill="white" stroke="#bfbfbf" points="-0.5,-128.5 -0.5,-185.5 100.5,-185.5 100.5,-128.5 -0.5,-128.5"/>
<text text-anchor="middle" x="50" y="-173.5" font-family="Helvetica,sans-Serif" font-size="10.00">boost::noncopyable</text>
<polyline fill="none" stroke="#bfbfbf" points="-0.5,-166.5 100.5,-166.5 "/>
<text text-anchor="middle" x="50" y="-154.5" font-family="Helvetica,sans-Serif" font-size="10.00"> </text>
<polyline fill="none" stroke="#bfbfbf" points="-0.5,-147.5 100.5,-147.5 "/>
<text text-anchor="middle" x="50" y="-135.5" font-family="Helvetica,sans-Serif" font-size="10.00"> </text>
</g>
<!-- Node2&#45;&gt;Node1 -->
<g id="edge1" class="edge"><title>Node2&#45;&gt;Node1</title>
<path fill="none" stroke="#8b1a1a" d="M50,-118.484C50,-109.643 50,-100.139 50,-91.0399"/>
<polygon fill="none" stroke="#8b1a1a" points="46.5001,-118.495 50,-128.495 53.5001,-118.495 46.5001,-118.495"/>
</g>
</g>
</svg>
