<?xml version="1.0" encoding="UTF-8" standalone="no"?>
<!DOCTYPE svg PUBLIC "-//W3C//DTD SVG 1.1//EN"
 "http://www.w3.org/Graphics/SVG/1.1/DTD/svg11.dtd">
<!-- Generated by graphviz version 2.36.0 (20140111.2315)
 -->
<!-- Title: Canvas::drawTriangle Pages: 1 -->
<svg width="382pt" height="140pt"
 viewBox="0.00 0.00 382.00 140.00" xmlns="http://www.w3.org/2000/svg" xmlns:xlink="http://www.w3.org/1999/xlink">
<g id="graph0" class="graph" transform="scale(1 1) rotate(0) translate(4 136)">
<title>Canvas::drawTriangle</title>
<polygon fill="white" stroke="none" points="-4,4 -4,-136 378,-136 378,4 -4,4"/>
<!-- Node1 -->
<g id="node1" class="node"><title>Node1</title>
<polygon fill="#bfbfbf" stroke="black" points="0,-56.5 0,-75.5 112,-75.5 112,-56.5 0,-56.5"/>
<text text-anchor="middle" x="56" y="-63.5" font-family="Helvetica,sans-Serif" font-size="10.00">Canvas::drawTriangle</text>
</g>
<!-- Node2 -->
<g id="node2" class="node"><title>Node2</title>
<g id="a_node2"><a xlink:href="class_canvas.html#ac42421486032c41210f676db45ce622c" target="_top" xlink:title="Canvas::drawTriangle">
<polygon fill="white" stroke="black" points="148,-112.5 148,-131.5 260,-131.5 260,-112.5 148,-112.5"/>
<text text-anchor="middle" x="204" y="-119.5" font-family="Helvetica,sans-Serif" font-size="10.00">Canvas::drawTriangle</text>
</a>
</g>
</g>
<!-- Node1&#45;&gt;Node2 -->
<g id="edge1" class="edge"><title>Node1&#45;&gt;Node2</title>
<path fill="none" stroke="midnightblue" d="M79.6798,-75.6156C98.01,-83.2915 124.532,-94.1825 148,-103 153.319,-104.999 158.957,-107.036 164.515,-108.999"/>
<polygon fill="midnightblue" stroke="midnightblue" points="163.755,-112.441 174.35,-112.428 166.059,-105.831 163.755,-112.441"/>
</g>
<!-- Node3 -->
<g id="node3" class="node"><title>Node3</title>
<g id="a_node3"><a xlink:href="class_point.html#a2aa897aa68c2f3e6df3a46738f27a0ac" target="_top" xlink:title="recupere la valeur de l&#39;absisse du Point. ">
<polygon fill="white" stroke="black" points="179,-56.5 179,-75.5 229,-75.5 229,-56.5 179,-56.5"/>
<text text-anchor="middle" x="204" y="-63.5" font-family="Helvetica,sans-Serif" font-size="10.00">Point::x</text>
</a>
</g>
</g>
<!-- Node1&#45;&gt;Node3 -->
<g id="edge2" class="edge"><title>Node1&#45;&gt;Node3</title>
<path fill="none" stroke="midnightblue" d="M112.196,-66C131.009,-66 151.501,-66 168.25,-66"/>
<polygon fill="midnightblue" stroke="midnightblue" points="168.661,-69.5001 178.66,-66 168.66,-62.5001 168.661,-69.5001"/>
</g>
<!-- Node5 -->
<g id="node5" class="node"><title>Node5</title>
<g id="a_node5"><a xlink:href="class_point.html#a2226d8a3fb283b0b3c1f69106df144ba" target="_top" xlink:title="Fonction recuperant le valeur de l&#39;ordonée. ">
<polygon fill="white" stroke="black" points="179,-0.5 179,-19.5 229,-19.5 229,-0.5 179,-0.5"/>
<text text-anchor="middle" x="204" y="-7.5" font-family="Helvetica,sans-Serif" font-size="10.00">Point::y</text>
</a>
</g>
</g>
<!-- Node1&#45;&gt;Node5 -->
<g id="edge5" class="edge"><title>Node1&#45;&gt;Node5</title>
<path fill="none" stroke="midnightblue" d="M82.0983,-56.3733C106.1,-47.1671 142.471,-33.2165 169.052,-23.021"/>
<polygon fill="midnightblue" stroke="midnightblue" points="170.631,-26.1642 178.714,-19.315 168.124,-19.6285 170.631,-26.1642"/>
</g>
<!-- Node3&#45;&gt;Node3 -->
<g id="edge4" class="edge"><title>Node3&#45;&gt;Node3</title>
<path fill="none" stroke="midnightblue" d="M183.963,-75.7571C174.216,-84.5653 180.895,-94 204,-94 218.802,-94 226.862,-90.128 228.181,-85.0292"/>
<polygon fill="midnightblue" stroke="midnightblue" points="231.313,-83.4582 224.037,-75.7571 224.922,-86.3148 231.313,-83.4582"/>
</g>
<!-- Node4 -->
<g id="node4" class="node"><title>Node4</title>
<g id="a_node4"><a xlink:href="class_point.html#a64a5fe8c9b1d1a1543aaa64031537380" target="_top" xlink:title="Point::isAlone">
<polygon fill="white" stroke="black" points="296.5,-28.5 296.5,-47.5 373.5,-47.5 373.5,-28.5 296.5,-28.5"/>
<text text-anchor="middle" x="335" y="-35.5" font-family="Helvetica,sans-Serif" font-size="10.00">Point::isAlone</text>
</a>
</g>
</g>
<!-- Node3&#45;&gt;Node4 -->
<g id="edge3" class="edge"><title>Node3&#45;&gt;Node4</title>
<path fill="none" stroke="midnightblue" d="M229.264,-60.7334C245.361,-57.2395 267.025,-52.5372 286.473,-48.316"/>
<polygon fill="midnightblue" stroke="midnightblue" points="287.369,-51.703 296.399,-46.1614 285.885,-44.8622 287.369,-51.703"/>
</g>
<!-- Node5&#45;&gt;Node4 -->
<g id="edge6" class="edge"><title>Node5&#45;&gt;Node4</title>
<path fill="none" stroke="midnightblue" d="M229.264,-15.2666C245.361,-18.7605 267.025,-23.4628 286.473,-27.684"/>
<polygon fill="midnightblue" stroke="midnightblue" points="285.885,-31.1378 296.399,-29.8386 287.369,-24.297 285.885,-31.1378"/>
</g>
<!-- Node5&#45;&gt;Node5 -->
<g id="edge7" class="edge"><title>Node5&#45;&gt;Node5</title>
<path fill="none" stroke="midnightblue" d="M183.963,-19.7571C174.216,-28.5653 180.895,-38 204,-38 218.802,-38 226.862,-34.128 228.181,-29.0292"/>
<polygon fill="midnightblue" stroke="midnightblue" points="231.313,-27.4582 224.037,-19.7571 224.922,-30.3148 231.313,-27.4582"/>
</g>
</g>
</svg>
