<?xml version="1.0" encoding="UTF-8" standalone="no"?>
<!DOCTYPE svg PUBLIC "-//W3C//DTD SVG 1.1//EN"
 "http://www.w3.org/Graphics/SVG/1.1/DTD/svg11.dtd">
<!-- Generated by graphviz version 2.36.0 (20140111.2315)
 -->
<!-- Title: GraphicsEllipse::meDraw Pages: 1 -->
<svg width="290pt" height="142pt"
 viewBox="0.00 0.00 290.00 142.00" xmlns="http://www.w3.org/2000/svg" xmlns:xlink="http://www.w3.org/1999/xlink">
<g id="graph0" class="graph" transform="scale(1 1) rotate(0) translate(4 138)">
<title>GraphicsEllipse::meDraw</title>
<polygon fill="white" stroke="none" points="-4,4 -4,-138 286,-138 286,4 -4,4"/>
<!-- Node1 -->
<g id="node1" class="node"><title>Node1</title>
<polygon fill="#bfbfbf" stroke="black" points="0,-57.5 0,-76.5 128,-76.5 128,-57.5 0,-57.5"/>
<text text-anchor="middle" x="64" y="-64.5" font-family="Helvetica,sans-Serif" font-size="10.00">GraphicsEllipse::meDraw</text>
</g>
<!-- Node2 -->
<g id="node2" class="node"><title>Node2</title>
<g id="a_node2"><a xlink:href="class_canvas.html#a5d6c1ffe1d0279d24d13fb7956cc99a9" target="_top" xlink:title="Canvas::drawCircle">
<polygon fill="white" stroke="black" points="171.5,-114.5 171.5,-133.5 274.5,-133.5 274.5,-114.5 171.5,-114.5"/>
<text text-anchor="middle" x="223" y="-121.5" font-family="Helvetica,sans-Serif" font-size="10.00">Canvas::drawCircle</text>
</a>
</g>
</g>
<!-- Node1&#45;&gt;Node2 -->
<g id="edge1" class="edge"><title>Node1&#45;&gt;Node2</title>
<path fill="none" stroke="midnightblue" d="M88.8815,-76.551C108.856,-84.4469 138.153,-95.8124 164,-105 169.756,-107.046 175.862,-109.134 181.867,-111.142"/>
<polygon fill="midnightblue" stroke="midnightblue" points="181.207,-114.61 191.8,-114.423 183.402,-107.963 181.207,-114.61"/>
</g>
<!-- Node3 -->
<g id="node3" class="node"><title>Node3</title>
<g id="a_node3"><a xlink:href="class_graphics_ellipse.html#a7c0d9094b07c745e450d822f2b8a029b" target="_top" xlink:title="GraphicsEllipse::center">
<polygon fill="white" stroke="black" points="164,-76.5 164,-95.5 282,-95.5 282,-76.5 164,-76.5"/>
<text text-anchor="middle" x="223" y="-83.5" font-family="Helvetica,sans-Serif" font-size="10.00">GraphicsEllipse::center</text>
</a>
</g>
</g>
<!-- Node1&#45;&gt;Node3 -->
<g id="edge2" class="edge"><title>Node1&#45;&gt;Node3</title>
<path fill="none" stroke="midnightblue" d="M128.405,-74.6733C136.755,-75.6837 145.341,-76.7228 153.767,-77.7425"/>
<polygon fill="midnightblue" stroke="midnightblue" points="153.59,-81.2465 163.938,-78.9734 154.431,-74.2972 153.59,-81.2465"/>
</g>
<!-- Node4 -->
<g id="node4" class="node"><title>Node4</title>
<g id="a_node4"><a xlink:href="class_graphics_ellipse.html#ad04234267bde2f53934eb6329bab545a" target="_top" xlink:title="GraphicsEllipse::radius">
<polygon fill="white" stroke="black" points="164.5,-38.5 164.5,-57.5 281.5,-57.5 281.5,-38.5 164.5,-38.5"/>
<text text-anchor="middle" x="223" y="-45.5" font-family="Helvetica,sans-Serif" font-size="10.00">GraphicsEllipse::radius</text>
</a>
</g>
</g>
<!-- Node1&#45;&gt;Node4 -->
<g id="edge3" class="edge"><title>Node1&#45;&gt;Node4</title>
<path fill="none" stroke="midnightblue" d="M128.405,-59.3267C136.969,-58.2904 145.782,-57.2239 154.415,-56.1791"/>
<polygon fill="midnightblue" stroke="midnightblue" points="154.934,-59.6419 164.441,-54.9657 154.093,-52.6926 154.934,-59.6419"/>
</g>
<!-- Node5 -->
<g id="node5" class="node"><title>Node5</title>
<g id="a_node5"><a xlink:href="class_graphics_item.html#a349439f069cfa6ade361ebdcd6f43434" target="_top" xlink:title="GraphicsItem::isFill">
<polygon fill="white" stroke="black" points="172.5,-0.5 172.5,-19.5 273.5,-19.5 273.5,-0.5 172.5,-0.5"/>
<text text-anchor="middle" x="223" y="-7.5" font-family="Helvetica,sans-Serif" font-size="10.00">GraphicsItem::isFill</text>
</a>
</g>
</g>
<!-- Node1&#45;&gt;Node5 -->
<g id="edge4" class="edge"><title>Node1&#45;&gt;Node5</title>
<path fill="none" stroke="midnightblue" d="M88.8815,-57.449C108.856,-49.5531 138.153,-38.1876 164,-29 169.756,-26.9538 175.862,-24.8656 181.867,-22.858"/>
<polygon fill="midnightblue" stroke="midnightblue" points="183.402,-26.037 191.8,-19.5772 181.207,-19.3902 183.402,-26.037"/>
</g>
</g>
</svg>
