<?xml version="1.0" encoding="UTF-8" standalone="no"?>
<!DOCTYPE svg PUBLIC "-//W3C//DTD SVG 1.1//EN"
 "http://www.w3.org/Graphics/SVG/1.1/DTD/svg11.dtd">
<!-- Generated by graphviz version 2.36.0 (20140111.2315)
 -->
<!-- Title: GraphicsRectangle Pages: 1 -->
<svg width="323pt" height="852pt"
 viewBox="0.00 0.00 323.00 852.00" xmlns="http://www.w3.org/2000/svg" xmlns:xlink="http://www.w3.org/1999/xlink">
<g id="graph0" class="graph" transform="scale(1 1) rotate(0) translate(4 848)">
<title>GraphicsRectangle</title>
<polygon fill="white" stroke="none" points="-4,4 -4,-848 319,-848 319,4 -4,4"/>
<!-- Node1 -->
<g id="node1" class="node"><title>Node1</title>
<polygon fill="#bfbfbf" stroke="black" points="24.5,-1 24.5,-157 139.5,-157 139.5,-1 24.5,-1"/>
<text text-anchor="middle" x="82" y="-145" font-family="Helvetica,sans-Serif" font-size="10.00">GraphicsRectangle</text>
<polyline fill="none" stroke="black" points="24.5,-138 139.5,-138 "/>
<text text-anchor="middle" x="82" y="-126" font-family="Helvetica,sans-Serif" font-size="10.00"> </text>
<polyline fill="none" stroke="black" points="24.5,-119 139.5,-119 "/>
<text text-anchor="start" x="32.5" y="-107" font-family="Helvetica,sans-Serif" font-size="10.00">+ GraphicsRectangle()</text>
<text text-anchor="start" x="32.5" y="-96" font-family="Helvetica,sans-Serif" font-size="10.00">+ topLeft()</text>
<text text-anchor="start" x="32.5" y="-85" font-family="Helvetica,sans-Serif" font-size="10.00">+ bottomRight()</text>
<text text-anchor="start" x="32.5" y="-74" font-family="Helvetica,sans-Serif" font-size="10.00">+ type()</text>
<text text-anchor="start" x="32.5" y="-63" font-family="Helvetica,sans-Serif" font-size="10.00">+ width()</text>
<text text-anchor="start" x="32.5" y="-52" font-family="Helvetica,sans-Serif" font-size="10.00">+ setWidth()</text>
<text text-anchor="start" x="32.5" y="-41" font-family="Helvetica,sans-Serif" font-size="10.00">+ height()</text>
<text text-anchor="start" x="32.5" y="-30" font-family="Helvetica,sans-Serif" font-size="10.00">+ setHeight()</text>
<text text-anchor="start" x="32.5" y="-19" font-family="Helvetica,sans-Serif" font-size="10.00"># meDraw()</text>
<text text-anchor="start" x="32.5" y="-8" font-family="Helvetica,sans-Serif" font-size="10.00"># meIsOver()</text>
</g>
<!-- Node2 -->
<g id="node2" class="node"><title>Node2</title>
<g id="a_node2"><a xlink:href="class_graphics_item.html" target="_top" xlink:title="{GraphicsItem\n|&#45; m_children\l&#45; m_z\l&#45; m_thick\l&#45; m_isFill\l&#45; m_isVisible\l|+ GraphicsItem()\l+ ~GraphicsItem()\l+ parent()\l+ setParent()\l+ type()\l+ children()\l+ relative()\l+ relative()\l+ absolute()\l+ setRelative()\let 16 de plus...\l+ focusItem()\l+ setFocusItem()\l# meDraw()\l# meUpdate()\l# meHandleEvent()\l# meIsOver()\l}">
<polygon fill="white" stroke="black" points="132.5,-196.5 132.5,-473.5 233.5,-473.5 233.5,-196.5 132.5,-196.5"/>
<text text-anchor="middle" x="183" y="-461.5" font-family="Helvetica,sans-Serif" font-size="10.00">GraphicsItem</text>
<polyline fill="none" stroke="black" points="132.5,-454.5 233.5,-454.5 "/>
<text text-anchor="start" x="140.5" y="-442.5" font-family="Helvetica,sans-Serif" font-size="10.00">&#45; m_children</text>
<text text-anchor="start" x="140.5" y="-431.5" font-family="Helvetica,sans-Serif" font-size="10.00">&#45; m_z</text>
<text text-anchor="start" x="140.5" y="-420.5" font-family="Helvetica,sans-Serif" font-size="10.00">&#45; m_thick</text>
<text text-anchor="start" x="140.5" y="-409.5" font-family="Helvetica,sans-Serif" font-size="10.00">&#45; m_isFill</text>
<text text-anchor="start" x="140.5" y="-398.5" font-family="Helvetica,sans-Serif" font-size="10.00">&#45; m_isVisible</text>
<polyline fill="none" stroke="black" points="132.5,-391.5 233.5,-391.5 "/>
<text text-anchor="start" x="140.5" y="-379.5" font-family="Helvetica,sans-Serif" font-size="10.00">+ GraphicsItem()</text>
<text text-anchor="start" x="140.5" y="-368.5" font-family="Helvetica,sans-Serif" font-size="10.00">+ ~GraphicsItem()</text>
<text text-anchor="start" x="140.5" y="-357.5" font-family="Helvetica,sans-Serif" font-size="10.00">+ parent()</text>
<text text-anchor="start" x="140.5" y="-346.5" font-family="Helvetica,sans-Serif" font-size="10.00">+ setParent()</text>
<text text-anchor="start" x="140.5" y="-335.5" font-family="Helvetica,sans-Serif" font-size="10.00">+ type()</text>
<text text-anchor="start" x="140.5" y="-324.5" font-family="Helvetica,sans-Serif" font-size="10.00">+ children()</text>
<text text-anchor="start" x="140.5" y="-313.5" font-family="Helvetica,sans-Serif" font-size="10.00">+ relative()</text>
<text text-anchor="start" x="140.5" y="-302.5" font-family="Helvetica,sans-Serif" font-size="10.00">+ relative()</text>
<text text-anchor="start" x="140.5" y="-291.5" font-family="Helvetica,sans-Serif" font-size="10.00">+ absolute()</text>
<text text-anchor="start" x="140.5" y="-280.5" font-family="Helvetica,sans-Serif" font-size="10.00">+ setRelative()</text>
<text text-anchor="start" x="140.5" y="-269.5" font-family="Helvetica,sans-Serif" font-size="10.00">et 16 de plus...</text>
<text text-anchor="start" x="140.5" y="-258.5" font-family="Helvetica,sans-Serif" font-size="10.00">+ focusItem()</text>
<text text-anchor="start" x="140.5" y="-247.5" font-family="Helvetica,sans-Serif" font-size="10.00">+ setFocusItem()</text>
<text text-anchor="start" x="140.5" y="-236.5" font-family="Helvetica,sans-Serif" font-size="10.00"># meDraw()</text>
<text text-anchor="start" x="140.5" y="-225.5" font-family="Helvetica,sans-Serif" font-size="10.00"># meUpdate()</text>
<text text-anchor="start" x="140.5" y="-214.5" font-family="Helvetica,sans-Serif" font-size="10.00"># meHandleEvent()</text>
<text text-anchor="start" x="140.5" y="-203.5" font-family="Helvetica,sans-Serif" font-size="10.00"># meIsOver()</text>
</a>
</g>
</g>
<!-- Node2&#45;&gt;Node1 -->
<g id="edge1" class="edge"><title>Node2&#45;&gt;Node1</title>
<path fill="none" stroke="midnightblue" d="M128.59,-197.167C123.166,-183.526 117.802,-170.037 112.751,-157.335"/>
<polygon fill="none" stroke="midnightblue" points="125.405,-198.629 132.352,-206.628 131.909,-196.042 125.405,-198.629"/>
</g>
<!-- Node2&#45;&gt;Node2 -->
<g id="edge2" class="edge"><title>Node2&#45;&gt;Node2</title>
<path fill="none" stroke="#404040" d="M233.711,-363.403C243.803,-360.206 251,-350.738 251,-335 251,-325.409 248.328,-318.148 243.956,-313.214"/>
<polygon fill="none" stroke="#404040" points="243.791,-313.108 236.581,-313.213 233.711,-306.597 240.921,-306.492 243.791,-313.108"/>
<text text-anchor="middle" x="283" y="-338" font-family="Helvetica,sans-Serif" font-size="10.00"> &#45;m_focusItem</text>
<text text-anchor="middle" x="283" y="-327" font-family="Helvetica,sans-Serif" font-size="10.00">&#45;m_parent</text>
</g>
<!-- Node3 -->
<g id="node3" class="node"><title>Node3</title>
<g id="a_node3"><a xlink:href="class_point.html" target="_top" xlink:title="Représente un point (x, y) ">
<polygon fill="white" stroke="black" points="-0.5,-533 -0.5,-843 114.5,-843 114.5,-533 -0.5,-533"/>
<text text-anchor="middle" x="57" y="-831" font-family="Helvetica,sans-Serif" font-size="10.00">Point</text>
<polyline fill="none" stroke="black" points="-0.5,-824 114.5,-824 "/>
<text text-anchor="start" x="7.5" y="-812" font-family="Helvetica,sans-Serif" font-size="10.00">&#45; m_originX</text>
<text text-anchor="start" x="7.5" y="-801" font-family="Helvetica,sans-Serif" font-size="10.00">&#45; m_originY</text>
<text text-anchor="start" x="7.5" y="-790" font-family="Helvetica,sans-Serif" font-size="10.00">&#45; m_originConnection</text>
<text text-anchor="start" x="7.5" y="-779" font-family="Helvetica,sans-Serif" font-size="10.00">&#45; m_x</text>
<text text-anchor="start" x="7.5" y="-768" font-family="Helvetica,sans-Serif" font-size="10.00">&#45; m_y</text>
<text text-anchor="start" x="7.5" y="-757" font-family="Helvetica,sans-Serif" font-size="10.00">&#45; m_groupId</text>
<text text-anchor="start" x="7.5" y="-746" font-family="Helvetica,sans-Serif" font-size="10.00">&#45; m_joinType</text>
<text text-anchor="start" x="7.5" y="-735" font-family="Helvetica,sans-Serif" font-size="10.00">&#45; m_changed</text>
<text text-anchor="start" x="7.5" y="-724" font-family="Helvetica,sans-Serif" font-size="10.00">&#45; m_friends</text>
<text text-anchor="start" x="7.5" y="-713" font-family="Helvetica,sans-Serif" font-size="10.00">&#45; m_correctorsFixed</text>
<text text-anchor="start" x="7.5" y="-702" font-family="Helvetica,sans-Serif" font-size="10.00">&#45; m_correctorsVariable</text>
<text text-anchor="start" x="7.5" y="-691" font-family="Helvetica,sans-Serif" font-size="10.00">&#45; m_groups</text>
<polyline fill="none" stroke="black" points="-0.5,-684 114.5,-684 "/>
<text text-anchor="start" x="7.5" y="-672" font-family="Helvetica,sans-Serif" font-size="10.00">+ Point()</text>
<text text-anchor="start" x="7.5" y="-661" font-family="Helvetica,sans-Serif" font-size="10.00">+ Point()</text>
<text text-anchor="start" x="7.5" y="-650" font-family="Helvetica,sans-Serif" font-size="10.00">+ Point()</text>
<text text-anchor="start" x="7.5" y="-639" font-family="Helvetica,sans-Serif" font-size="10.00">+ Point()</text>
<text text-anchor="start" x="7.5" y="-628" font-family="Helvetica,sans-Serif" font-size="10.00">+ ~Point()</text>
<text text-anchor="start" x="7.5" y="-617" font-family="Helvetica,sans-Serif" font-size="10.00">+ operator=()</text>
<text text-anchor="start" x="7.5" y="-606" font-family="Helvetica,sans-Serif" font-size="10.00">+ origin()</text>
<text text-anchor="start" x="7.5" y="-595" font-family="Helvetica,sans-Serif" font-size="10.00">+ setOriginStatic()</text>
<text text-anchor="start" x="7.5" y="-584" font-family="Helvetica,sans-Serif" font-size="10.00">+ setOriginDynamic()</text>
<text text-anchor="start" x="7.5" y="-573" font-family="Helvetica,sans-Serif" font-size="10.00">+ absolute()</text>
<text text-anchor="start" x="7.5" y="-562" font-family="Helvetica,sans-Serif" font-size="10.00">et 15 de plus...</text>
<text text-anchor="start" x="7.5" y="-551" font-family="Helvetica,sans-Serif" font-size="10.00">&#45; originChanged()</text>
<text text-anchor="start" x="7.5" y="-540" font-family="Helvetica,sans-Serif" font-size="10.00">&#45; friendChanged()</text>
</a>
</g>
</g>
<!-- Node3&#45;&gt;Node1 -->
<g id="edge5" class="edge"><title>Node3&#45;&gt;Node1</title>
<path fill="none" stroke="#404040" d="M43.1189,-532.869C37.2561,-435.775 34.8292,-308.043 50,-196 51.1987,-187.147 52.8897,-178.016 54.8753,-168.945"/>
<polygon fill="none" stroke="#404040" points="54.9156,-168.771 52.3814,-162.02 57.6384,-157.084 60.1727,-163.836 54.9156,-168.771"/>
<text text-anchor="middle" x="86.5" y="-338" font-family="Helvetica,sans-Serif" font-size="10.00"> &#45;m_bottomRight</text>
<text text-anchor="middle" x="86.5" y="-327" font-family="Helvetica,sans-Serif" font-size="10.00">&#45;m_topLeft</text>
</g>
<!-- Node3&#45;&gt;Node2 -->
<g id="edge3" class="edge"><title>Node3&#45;&gt;Node2</title>
<path fill="none" stroke="#404040" d="M70.4541,-532.742C75.3848,-518.323 81.7704,-504.464 90,-492 98.1514,-479.654 108.247,-485.124 118,-474 120.495,-471.155 122.913,-468.197 125.257,-465.148"/>
<polygon fill="none" stroke="#404040" points="125.464,-464.861 125.731,-457.655 132.486,-455.129 132.219,-462.335 125.464,-464.861"/>
<text text-anchor="middle" x="136" y="-506" font-family="Helvetica,sans-Serif" font-size="10.00"> &#45;m_positionAbsolute</text>
<text text-anchor="middle" x="136" y="-495" font-family="Helvetica,sans-Serif" font-size="10.00">&#45;m_position</text>
</g>
<!-- Node4 -->
<g id="node4" class="node"><title>Node4</title>
<g id="a_node4"><a xlink:href="class_color.html" target="_top" xlink:title="Permet la gestion des coulours des différentes *entitées. ">
<polygon fill="white" stroke="black" points="150.5,-604.5 150.5,-771.5 227.5,-771.5 227.5,-604.5 150.5,-604.5"/>
<text text-anchor="middle" x="189" y="-759.5" font-family="Helvetica,sans-Serif" font-size="10.00">Color</text>
<polyline fill="none" stroke="black" points="150.5,-752.5 227.5,-752.5 "/>
<text text-anchor="start" x="158.5" y="-740.5" font-family="Helvetica,sans-Serif" font-size="10.00">&#45; m_color</text>
<polyline fill="none" stroke="black" points="150.5,-733.5 227.5,-733.5 "/>
<text text-anchor="start" x="158.5" y="-721.5" font-family="Helvetica,sans-Serif" font-size="10.00">+ Color()</text>
<text text-anchor="start" x="158.5" y="-710.5" font-family="Helvetica,sans-Serif" font-size="10.00">+ Color()</text>
<text text-anchor="start" x="158.5" y="-699.5" font-family="Helvetica,sans-Serif" font-size="10.00">+ Color()</text>
<text text-anchor="start" x="158.5" y="-688.5" font-family="Helvetica,sans-Serif" font-size="10.00">+ Color()</text>
<text text-anchor="start" x="158.5" y="-677.5" font-family="Helvetica,sans-Serif" font-size="10.00">+ red()</text>
<text text-anchor="start" x="158.5" y="-666.5" font-family="Helvetica,sans-Serif" font-size="10.00">+ setRed()</text>
<text text-anchor="start" x="158.5" y="-655.5" font-family="Helvetica,sans-Serif" font-size="10.00">+ green()</text>
<text text-anchor="start" x="158.5" y="-644.5" font-family="Helvetica,sans-Serif" font-size="10.00">+ setGreen()</text>
<text text-anchor="start" x="158.5" y="-633.5" font-family="Helvetica,sans-Serif" font-size="10.00">+ blue()</text>
<text text-anchor="start" x="158.5" y="-622.5" font-family="Helvetica,sans-Serif" font-size="10.00">+ setBlue()</text>
<text text-anchor="start" x="158.5" y="-611.5" font-family="Helvetica,sans-Serif" font-size="10.00">et 9 de plus...</text>
</a>
</g>
</g>
<!-- Node4&#45;&gt;Node2 -->
<g id="edge4" class="edge"><title>Node4&#45;&gt;Node2</title>
<path fill="none" stroke="#404040" d="M187.586,-604.262C186.982,-568.92 186.257,-526.535 185.564,-486.004"/>
<polygon fill="none" stroke="#404040" points="185.56,-485.778 181.458,-479.848 185.355,-473.78 189.457,-479.711 185.56,-485.778"/>
<text text-anchor="middle" x="206.5" y="-500.5" font-family="Helvetica,sans-Serif" font-size="10.00"> &#45;m_color</text>
</g>
</g>
</svg>
