<?xml version="1.0" encoding="UTF-8" standalone="no"?>
<!DOCTYPE svg PUBLIC "-//W3C//DTD SVG 1.1//EN"
 "http://www.w3.org/Graphics/SVG/1.1/DTD/svg11.dtd">
<!-- Generated by graphviz version 2.36.0 (20140111.2315)
 -->
<!-- Title: Point::beAlone Pages: 1 -->
<svg width="370pt" height="66pt"
 viewBox="0.00 0.00 370.00 66.00" xmlns="http://www.w3.org/2000/svg" xmlns:xlink="http://www.w3.org/1999/xlink">
<g id="graph0" class="graph" transform="scale(1 1) rotate(0) translate(4 62)">
<title>Point::beAlone</title>
<polygon fill="white" stroke="none" points="-4,4 -4,-62 366,-62 366,4 -4,4"/>
<!-- Node1 -->
<g id="node1" class="node"><title>Node1</title>
<polygon fill="#bfbfbf" stroke="black" points="0,-19.5 0,-38.5 80,-38.5 80,-19.5 0,-19.5"/>
<text text-anchor="middle" x="40" y="-26.5" font-family="Helvetica,sans-Serif" font-size="10.00">Point::beAlone</text>
</g>
<!-- Node2 -->
<g id="node2" class="node"><title>Node2</title>
<g id="a_node2"><a xlink:href="class_point.html#a395fa04b4ec126b66fc053f829a30cc1" target="_top" xlink:title="Point::~Point">
<polygon fill="white" stroke="black" points="116,-38.5 116,-57.5 190,-57.5 190,-38.5 116,-38.5"/>
<text text-anchor="middle" x="153" y="-45.5" font-family="Helvetica,sans-Serif" font-size="10.00">Point::~Point</text>
</a>
</g>
</g>
<!-- Node1&#45;&gt;Node2 -->
<g id="edge1" class="edge"><title>Node1&#45;&gt;Node2</title>
<path fill="none" stroke="midnightblue" d="M90.128,-37.4093C98.7661,-38.8879 107.613,-40.4022 115.816,-41.8064"/>
<polygon fill="midnightblue" stroke="midnightblue" points="90.5816,-33.9361 80.1344,-35.6987 89.4006,-40.8358 90.5816,-33.9361"/>
</g>
<!-- Node3 -->
<g id="node3" class="node"><title>Node3</title>
<g id="a_node3"><a xlink:href="class_point.html#a80b80bd3597857a8b237143232d61754" target="_top" xlink:title="Point::join">
<polygon fill="white" stroke="black" points="123,-0.5 123,-19.5 183,-19.5 183,-0.5 123,-0.5"/>
<text text-anchor="middle" x="153" y="-7.5" font-family="Helvetica,sans-Serif" font-size="10.00">Point::join</text>
</a>
</g>
</g>
<!-- Node1&#45;&gt;Node3 -->
<g id="edge2" class="edge"><title>Node1&#45;&gt;Node3</title>
<path fill="none" stroke="midnightblue" d="M90.2552,-20.5689C101.438,-18.6547 112.964,-16.6819 122.984,-14.9666"/>
<polygon fill="midnightblue" stroke="midnightblue" points="89.4006,-17.1642 80.1344,-22.3013 90.5816,-24.0639 89.4006,-17.1642"/>
</g>
<!-- Node4 -->
<g id="node4" class="node"><title>Node4</title>
<g id="a_node4"><a xlink:href="class_main_window.html#a34c4b4207b46d11a4100c9b19f0e81bb" target="_top" xlink:title="MainWindow::MainWindow">
<polygon fill="white" stroke="black" points="226.5,-0.5 226.5,-19.5 361.5,-19.5 361.5,-0.5 226.5,-0.5"/>
<text text-anchor="middle" x="294" y="-7.5" font-family="Helvetica,sans-Serif" font-size="10.00">MainWindow::MainWindow</text>
</a>
</g>
</g>
<!-- Node3&#45;&gt;Node4 -->
<g id="edge3" class="edge"><title>Node3&#45;&gt;Node4</title>
<path fill="none" stroke="midnightblue" d="M193.424,-10C203.72,-10 215.108,-10 226.394,-10"/>
<polygon fill="midnightblue" stroke="midnightblue" points="193.139,-6.5001 183.139,-10 193.139,-13.5001 193.139,-6.5001"/>
</g>
</g>
</svg>
