<?xml version="1.0" encoding="UTF-8" standalone="no"?>
<!DOCTYPE svg PUBLIC "-//W3C//DTD SVG 1.1//EN"
 "http://www.w3.org/Graphics/SVG/1.1/DTD/svg11.dtd">
<!-- Generated by graphviz version 2.36.0 (20140111.2315)
 -->
<!-- Title: Widget Pages: 1 -->
<svg width="573pt" height="740pt"
 viewBox="0.00 0.00 573.00 740.00" xmlns="http://www.w3.org/2000/svg" xmlns:xlink="http://www.w3.org/1999/xlink">
<g id="graph0" class="graph" transform="scale(1 1) rotate(0) translate(4 736)">
<title>Widget</title>
<polygon fill="white" stroke="none" points="-4,4 -4,-736 569,-736 569,4 -4,4"/>
<!-- Node1 -->
<g id="node1" class="node"><title>Node1</title>
<polygon fill="#bfbfbf" stroke="black" points="214,-239 214,-461 360,-461 360,-239 214,-239"/>
<text text-anchor="middle" x="287" y="-449" font-family="Helvetica,sans-Serif" font-size="10.00">Widget</text>
<polyline fill="none" stroke="black" points="214,-442 360,-442 "/>
<text text-anchor="start" x="222" y="-430" font-family="Helvetica,sans-Serif" font-size="10.00"># m_minimumWidthChanged</text>
<text text-anchor="start" x="222" y="-419" font-family="Helvetica,sans-Serif" font-size="10.00"># m_minimumHeightChanged</text>
<polyline fill="none" stroke="black" points="214,-412 360,-412 "/>
<text text-anchor="start" x="222" y="-400" font-family="Helvetica,sans-Serif" font-size="10.00">+ Widget()</text>
<text text-anchor="start" x="222" y="-389" font-family="Helvetica,sans-Serif" font-size="10.00">+ width()</text>
<text text-anchor="start" x="222" y="-378" font-family="Helvetica,sans-Serif" font-size="10.00">+ setWidth()</text>
<text text-anchor="start" x="222" y="-367" font-family="Helvetica,sans-Serif" font-size="10.00">+ height()</text>
<text text-anchor="start" x="222" y="-356" font-family="Helvetica,sans-Serif" font-size="10.00">+ setHeight()</text>
<text text-anchor="start" x="222" y="-345" font-family="Helvetica,sans-Serif" font-size="10.00">+ minimumWidth()</text>
<text text-anchor="start" x="222" y="-334" font-family="Helvetica,sans-Serif" font-size="10.00">+ minimumHeight()</text>
<text text-anchor="start" x="222" y="-323" font-family="Helvetica,sans-Serif" font-size="10.00">+ widthChanged()</text>
<text text-anchor="start" x="222" y="-312" font-family="Helvetica,sans-Serif" font-size="10.00">+ heightChanged()</text>
<text text-anchor="start" x="222" y="-301" font-family="Helvetica,sans-Serif" font-size="10.00">+ minimumWidthChanged()</text>
<text text-anchor="start" x="222" y="-290" font-family="Helvetica,sans-Serif" font-size="10.00">+ minimumHeightChanged()</text>
<text text-anchor="start" x="222" y="-279" font-family="Helvetica,sans-Serif" font-size="10.00">* widthChanged()</text>
<text text-anchor="start" x="222" y="-268" font-family="Helvetica,sans-Serif" font-size="10.00">* heightChanged()</text>
<text text-anchor="start" x="222" y="-257" font-family="Helvetica,sans-Serif" font-size="10.00">* minimumWidthChanged()</text>
<text text-anchor="start" x="222" y="-246" font-family="Helvetica,sans-Serif" font-size="10.00">* minimumHeightChanged()</text>
</g>
<!-- Node3 -->
<g id="node3" class="node"><title>Node3</title>
<g id="a_node3"><a xlink:href="class_button.html" target="_top" xlink:title="Faire une action après un clic. ">
<polygon fill="white" stroke="black" points="-0.5,-28.5 -0.5,-173.5 100.5,-173.5 100.5,-28.5 -0.5,-28.5"/>
<text text-anchor="middle" x="50" y="-161.5" font-family="Helvetica,sans-Serif" font-size="10.00">Button</text>
<polyline fill="none" stroke="black" points="-0.5,-154.5 100.5,-154.5 "/>
<text text-anchor="middle" x="50" y="-142.5" font-family="Helvetica,sans-Serif" font-size="10.00"> </text>
<polyline fill="none" stroke="black" points="-0.5,-135.5 100.5,-135.5 "/>
<text text-anchor="start" x="7.5" y="-123.5" font-family="Helvetica,sans-Serif" font-size="10.00">+ Button()</text>
<text text-anchor="start" x="7.5" y="-112.5" font-family="Helvetica,sans-Serif" font-size="10.00">+ Button()</text>
<text text-anchor="start" x="7.5" y="-101.5" font-family="Helvetica,sans-Serif" font-size="10.00">+ text()</text>
<text text-anchor="start" x="7.5" y="-90.5" font-family="Helvetica,sans-Serif" font-size="10.00">+ setText()</text>
<text text-anchor="start" x="7.5" y="-79.5" font-family="Helvetica,sans-Serif" font-size="10.00">+ minimumWidth()</text>
<text text-anchor="start" x="7.5" y="-68.5" font-family="Helvetica,sans-Serif" font-size="10.00">+ minimumHeight()</text>
<text text-anchor="start" x="7.5" y="-57.5" font-family="Helvetica,sans-Serif" font-size="10.00">+ clicked()</text>
<text text-anchor="start" x="7.5" y="-46.5" font-family="Helvetica,sans-Serif" font-size="10.00"># meHandleEvent()</text>
<text text-anchor="start" x="7.5" y="-35.5" font-family="Helvetica,sans-Serif" font-size="10.00">* clicked()</text>
</a>
</g>
</g>
<!-- Node1&#45;&gt;Node3 -->
<g id="edge2" class="edge"><title>Node1&#45;&gt;Node3</title>
<path fill="none" stroke="midnightblue" d="M205.555,-290.822C173.582,-265.672 137.934,-234.56 110,-202 102.552,-193.318 95.4684,-183.597 88.9519,-173.719"/>
<polygon fill="none" stroke="midnightblue" points="203.557,-293.702 213.598,-297.084 207.858,-288.179 203.557,-293.702"/>
</g>
<!-- Node4 -->
<g id="node4" class="node"><title>Node4</title>
<g id="a_node4"><a xlink:href="class_label.html" target="_top" xlink:title="Afficher du texte. ">
<polygon fill="white" stroke="black" points="119,-1 119,-201 219,-201 219,-1 119,-1"/>
<text text-anchor="middle" x="169" y="-189" font-family="Helvetica,sans-Serif" font-size="10.00">Label</text>
<polyline fill="none" stroke="black" points="119,-182 219,-182 "/>
<text text-anchor="middle" x="169" y="-170" font-family="Helvetica,sans-Serif" font-size="10.00"> </text>
<polyline fill="none" stroke="black" points="119,-163 219,-163 "/>
<text text-anchor="start" x="127" y="-151" font-family="Helvetica,sans-Serif" font-size="10.00">+ Label()</text>
<text text-anchor="start" x="127" y="-140" font-family="Helvetica,sans-Serif" font-size="10.00">+ Label()</text>
<text text-anchor="start" x="127" y="-129" font-family="Helvetica,sans-Serif" font-size="10.00">+ text()</text>
<text text-anchor="start" x="127" y="-118" font-family="Helvetica,sans-Serif" font-size="10.00">+ setText()</text>
<text text-anchor="start" x="127" y="-107" font-family="Helvetica,sans-Serif" font-size="10.00">+ font()</text>
<text text-anchor="start" x="127" y="-96" font-family="Helvetica,sans-Serif" font-size="10.00">+ setFont()</text>
<text text-anchor="start" x="127" y="-85" font-family="Helvetica,sans-Serif" font-size="10.00">+ align()</text>
<text text-anchor="start" x="127" y="-74" font-family="Helvetica,sans-Serif" font-size="10.00">+ setAlign()</text>
<text text-anchor="start" x="127" y="-63" font-family="Helvetica,sans-Serif" font-size="10.00">+ minimumWidth()</text>
<text text-anchor="start" x="127" y="-52" font-family="Helvetica,sans-Serif" font-size="10.00">+ minimumHeight()</text>
<text text-anchor="start" x="127" y="-41" font-family="Helvetica,sans-Serif" font-size="10.00">+ textChanged()</text>
<text text-anchor="start" x="127" y="-30" font-family="Helvetica,sans-Serif" font-size="10.00">+ fontChanged()</text>
<text text-anchor="start" x="127" y="-19" font-family="Helvetica,sans-Serif" font-size="10.00">* textChanged()</text>
<text text-anchor="start" x="127" y="-8" font-family="Helvetica,sans-Serif" font-size="10.00">* fontChanged()</text>
</a>
</g>
</g>
<!-- Node1&#45;&gt;Node4 -->
<g id="edge3" class="edge"><title>Node1&#45;&gt;Node4</title>
<path fill="none" stroke="midnightblue" d="M229.996,-229.678C225.41,-220.079 220.808,-210.446 216.301,-201.012"/>
<polygon fill="none" stroke="midnightblue" points="226.916,-231.349 234.384,-238.864 233.232,-228.332 226.916,-231.349"/>
</g>
<!-- Node5 -->
<g id="node5" class="node"><title>Node5</title>
<g id="a_node5"><a xlink:href="class_layout.html" target="_top" xlink:title="Organiser les widgets. ">
<polygon fill="white" stroke="black" points="237,-17.5 237,-184.5 337,-184.5 337,-17.5 237,-17.5"/>
<text text-anchor="middle" x="287" y="-172.5" font-family="Helvetica,sans-Serif" font-size="10.00">Layout</text>
<polyline fill="none" stroke="black" points="237,-165.5 337,-165.5 "/>
<text text-anchor="middle" x="287" y="-153.5" font-family="Helvetica,sans-Serif" font-size="10.00"> </text>
<polyline fill="none" stroke="black" points="237,-146.5 337,-146.5 "/>
<text text-anchor="start" x="245" y="-134.5" font-family="Helvetica,sans-Serif" font-size="10.00">+ Layout()</text>
<text text-anchor="start" x="245" y="-123.5" font-family="Helvetica,sans-Serif" font-size="10.00">+ Layout()</text>
<text text-anchor="start" x="245" y="-112.5" font-family="Helvetica,sans-Serif" font-size="10.00">+ orientation()</text>
<text text-anchor="start" x="245" y="-101.5" font-family="Helvetica,sans-Serif" font-size="10.00">+ setOrientation()</text>
<text text-anchor="start" x="245" y="-90.5" font-family="Helvetica,sans-Serif" font-size="10.00">+ spacing()</text>
<text text-anchor="start" x="245" y="-79.5" font-family="Helvetica,sans-Serif" font-size="10.00">+ setSpacing()</text>
<text text-anchor="start" x="245" y="-68.5" font-family="Helvetica,sans-Serif" font-size="10.00">+ push_back()</text>
<text text-anchor="start" x="245" y="-57.5" font-family="Helvetica,sans-Serif" font-size="10.00">+ pop_back()</text>
<text text-anchor="start" x="245" y="-46.5" font-family="Helvetica,sans-Serif" font-size="10.00">+ size()</text>
<text text-anchor="start" x="245" y="-35.5" font-family="Helvetica,sans-Serif" font-size="10.00">+ minimumWidth()</text>
<text text-anchor="start" x="245" y="-24.5" font-family="Helvetica,sans-Serif" font-size="10.00">+ minimumHeight()</text>
</a>
</g>
</g>
<!-- Node1&#45;&gt;Node5 -->
<g id="edge4" class="edge"><title>Node1&#45;&gt;Node5</title>
<path fill="none" stroke="midnightblue" d="M287,-228.557C287,-213.641 287,-198.665 287,-184.501"/>
<polygon fill="none" stroke="midnightblue" points="283.5,-228.864 287,-238.864 290.5,-228.864 283.5,-228.864"/>
</g>
<!-- Node6 -->
<g id="node6" class="node"><title>Node6</title>
<g id="a_node6"><a xlink:href="class_line_edit.html" target="_top" xlink:title="Saisir du texte. ">
<polygon fill="white" stroke="black" points="355.5,-34 355.5,-168 456.5,-168 456.5,-34 355.5,-34"/>
<text text-anchor="middle" x="406" y="-156" font-family="Helvetica,sans-Serif" font-size="10.00">LineEdit</text>
<polyline fill="none" stroke="black" points="355.5,-149 456.5,-149 "/>
<text text-anchor="middle" x="406" y="-137" font-family="Helvetica,sans-Serif" font-size="10.00"> </text>
<polyline fill="none" stroke="black" points="355.5,-130 456.5,-130 "/>
<text text-anchor="start" x="363.5" y="-118" font-family="Helvetica,sans-Serif" font-size="10.00">+ LineEdit()</text>
<text text-anchor="start" x="363.5" y="-107" font-family="Helvetica,sans-Serif" font-size="10.00">+ text()</text>
<text text-anchor="start" x="363.5" y="-96" font-family="Helvetica,sans-Serif" font-size="10.00">+ setText()</text>
<text text-anchor="start" x="363.5" y="-85" font-family="Helvetica,sans-Serif" font-size="10.00">+ minimumWidth()</text>
<text text-anchor="start" x="363.5" y="-74" font-family="Helvetica,sans-Serif" font-size="10.00">+ minimumHeight()</text>
<text text-anchor="start" x="363.5" y="-63" font-family="Helvetica,sans-Serif" font-size="10.00">+ textChanged()</text>
<text text-anchor="start" x="363.5" y="-52" font-family="Helvetica,sans-Serif" font-size="10.00"># meHandleEvent()</text>
<text text-anchor="start" x="363.5" y="-41" font-family="Helvetica,sans-Serif" font-size="10.00">* textChanged()</text>
</a>
</g>
</g>
<!-- Node1&#45;&gt;Node6 -->
<g id="edge5" class="edge"><title>Node1&#45;&gt;Node6</title>
<path fill="none" stroke="midnightblue" d="M344.443,-229.769C354.687,-208.507 365.012,-187.076 374.202,-168.001"/>
<polygon fill="none" stroke="midnightblue" points="341.249,-228.336 340.062,-238.864 347.555,-231.374 341.249,-228.336"/>
</g>
<!-- Node7 -->
<g id="node7" class="node"><title>Node7</title>
<g id="a_node7"><a xlink:href="class_tools_window.html" target="_top" xlink:title="Barre d&#39;outils pour créer des formes. ">
<polygon fill="white" stroke="black" points="474.5,-72.5 474.5,-129.5 565.5,-129.5 565.5,-72.5 474.5,-72.5"/>
<text text-anchor="middle" x="520" y="-117.5" font-family="Helvetica,sans-Serif" font-size="10.00">ToolsWindow</text>
<polyline fill="none" stroke="black" points="474.5,-110.5 565.5,-110.5 "/>
<text text-anchor="middle" x="520" y="-98.5" font-family="Helvetica,sans-Serif" font-size="10.00"> </text>
<polyline fill="none" stroke="black" points="474.5,-91.5 565.5,-91.5 "/>
<text text-anchor="start" x="482.5" y="-79.5" font-family="Helvetica,sans-Serif" font-size="10.00">+ ToolsWindow()</text>
</a>
</g>
</g>
<!-- Node1&#45;&gt;Node7 -->
<g id="edge6" class="edge"><title>Node1&#45;&gt;Node7</title>
<path fill="none" stroke="midnightblue" d="M368.305,-292.385C400.877,-267.163 437.192,-235.578 465,-202 483.325,-179.873 498.536,-150.73 508.282,-129.618"/>
<polygon fill="none" stroke="midnightblue" points="365.925,-289.799 360.112,-298.657 370.18,-295.357 365.925,-289.799"/>
</g>
<!-- Node2 -->
<g id="node2" class="node"><title>Node2</title>
<g id="a_node2"><a xlink:href="class_graphics_item.html" target="_top" xlink:title="Classe de base. ">
<polygon fill="white" stroke="black" points="236.5,-498.5 236.5,-731.5 337.5,-731.5 337.5,-498.5 236.5,-498.5"/>
<text text-anchor="middle" x="287" y="-719.5" font-family="Helvetica,sans-Serif" font-size="10.00">GraphicsItem</text>
<polyline fill="none" stroke="black" points="236.5,-712.5 337.5,-712.5 "/>
<text text-anchor="middle" x="287" y="-700.5" font-family="Helvetica,sans-Serif" font-size="10.00"> </text>
<polyline fill="none" stroke="black" points="236.5,-693.5 337.5,-693.5 "/>
<text text-anchor="start" x="244.5" y="-681.5" font-family="Helvetica,sans-Serif" font-size="10.00">+ GraphicsItem()</text>
<text text-anchor="start" x="244.5" y="-670.5" font-family="Helvetica,sans-Serif" font-size="10.00">+ ~GraphicsItem()</text>
<text text-anchor="start" x="244.5" y="-659.5" font-family="Helvetica,sans-Serif" font-size="10.00">+ parent()</text>
<text text-anchor="start" x="244.5" y="-648.5" font-family="Helvetica,sans-Serif" font-size="10.00">+ setParent()</text>
<text text-anchor="start" x="244.5" y="-637.5" font-family="Helvetica,sans-Serif" font-size="10.00">+ type()</text>
<text text-anchor="start" x="244.5" y="-626.5" font-family="Helvetica,sans-Serif" font-size="10.00">+ children()</text>
<text text-anchor="start" x="244.5" y="-615.5" font-family="Helvetica,sans-Serif" font-size="10.00">+ position()</text>
<text text-anchor="start" x="244.5" y="-604.5" font-family="Helvetica,sans-Serif" font-size="10.00">+ position()</text>
<text text-anchor="start" x="244.5" y="-593.5" font-family="Helvetica,sans-Serif" font-size="10.00">+ color()</text>
<text text-anchor="start" x="244.5" y="-582.5" font-family="Helvetica,sans-Serif" font-size="10.00">+ z()</text>
<text text-anchor="start" x="244.5" y="-571.5" font-family="Helvetica,sans-Serif" font-size="10.00">et 13 de plus...</text>
<text text-anchor="start" x="244.5" y="-560.5" font-family="Helvetica,sans-Serif" font-size="10.00">+ focusItem()</text>
<text text-anchor="start" x="244.5" y="-549.5" font-family="Helvetica,sans-Serif" font-size="10.00">+ setFocusItem()</text>
<text text-anchor="start" x="244.5" y="-538.5" font-family="Helvetica,sans-Serif" font-size="10.00"># meDraw()</text>
<text text-anchor="start" x="244.5" y="-527.5" font-family="Helvetica,sans-Serif" font-size="10.00"># meUpdate()</text>
<text text-anchor="start" x="244.5" y="-516.5" font-family="Helvetica,sans-Serif" font-size="10.00"># meHandleEvent()</text>
<text text-anchor="start" x="244.5" y="-505.5" font-family="Helvetica,sans-Serif" font-size="10.00"># meIsOver()</text>
</a>
</g>
</g>
<!-- Node2&#45;&gt;Node1 -->
<g id="edge1" class="edge"><title>Node2&#45;&gt;Node1</title>
<path fill="none" stroke="midnightblue" d="M287,-488.168C287,-479.206 287,-470.209 287,-461.344"/>
<polygon fill="none" stroke="midnightblue" points="283.5,-488.262 287,-498.262 290.5,-488.262 283.5,-488.262"/>
</g>
</g>
</svg>
