<?xml version="1.0" encoding="UTF-8" standalone="no"?>
<!DOCTYPE svg PUBLIC "-//W3C//DTD SVG 1.1//EN"
 "http://www.w3.org/Graphics/SVG/1.1/DTD/svg11.dtd">
<!-- Generated by graphviz version 2.36.0 (20140111.2315)
 -->
<!-- Title: Canvas::drawRectangle Pages: 1 -->
<svg width="296pt" height="116pt"
 viewBox="0.00 0.00 296.00 116.00" xmlns="http://www.w3.org/2000/svg" xmlns:xlink="http://www.w3.org/1999/xlink">
<g id="graph0" class="graph" transform="scale(1 1) rotate(0) translate(4 112)">
<title>Canvas::drawRectangle</title>
<polygon fill="white" stroke="none" points="-4,4 -4,-112 292,-112 292,4 -4,4"/>
<!-- Node1 -->
<g id="node1" class="node"><title>Node1</title>
<polygon fill="#bfbfbf" stroke="black" points="0,-44.5 0,-63.5 122,-63.5 122,-44.5 0,-44.5"/>
<text text-anchor="middle" x="61" y="-51.5" font-family="Helvetica,sans-Serif" font-size="10.00">Canvas::drawRectangle</text>
</g>
<!-- Node2 -->
<g id="node2" class="node"><title>Node2</title>
<g id="a_node2"><a xlink:href="class_canvas.html#a347a381b7cd7381a84f49a8bdd77244c" target="_top" xlink:title="Canvas::drawRectangle">
<polygon fill="white" stroke="black" points="162,-88.5 162,-107.5 284,-107.5 284,-88.5 162,-88.5"/>
<text text-anchor="middle" x="223" y="-95.5" font-family="Helvetica,sans-Serif" font-size="10.00">Canvas::drawRectangle</text>
</a>
</g>
</g>
<!-- Node1&#45;&gt;Node2 -->
<g id="edge1" class="edge"><title>Node1&#45;&gt;Node2</title>
<path fill="none" stroke="midnightblue" d="M106.538,-66.2478C132.082,-73.2724 163.673,-81.96 187.35,-88.4713"/>
<polygon fill="midnightblue" stroke="midnightblue" points="107.288,-62.8243 96.7176,-63.5473 105.432,-69.5737 107.288,-62.8243"/>
</g>
<!-- Node3 -->
<g id="node3" class="node"><title>Node3</title>
<g id="a_node3"><a xlink:href="class_graphics_rectangle.html#a3770ea3d1c51fc6c35aac4fd9ff46977" target="_top" xlink:title="GraphicsRectangle::\lmeDraw">
<polygon fill="white" stroke="black" points="170,-39 170,-69 276,-69 276,-39 170,-39"/>
<text text-anchor="start" x="178" y="-57" font-family="Helvetica,sans-Serif" font-size="10.00">GraphicsRectangle::</text>
<text text-anchor="middle" x="223" y="-46" font-family="Helvetica,sans-Serif" font-size="10.00">meDraw</text>
</a>
</g>
</g>
<!-- Node1&#45;&gt;Node3 -->
<g id="edge2" class="edge"><title>Node1&#45;&gt;Node3</title>
<path fill="none" stroke="midnightblue" d="M132.087,-54C144.744,-54 157.736,-54 169.772,-54"/>
<polygon fill="midnightblue" stroke="midnightblue" points="132.033,-50.5001 122.033,-54 132.033,-57.5001 132.033,-50.5001"/>
</g>
<!-- Node4 -->
<g id="node4" class="node"><title>Node4</title>
<g id="a_node4"><a xlink:href="class_graphics_square.html#a82bd4ef147f786810f98337b8995cac1" target="_top" xlink:title="GraphicsSquare::meDraw">
<polygon fill="white" stroke="black" points="158.5,-0.5 158.5,-19.5 287.5,-19.5 287.5,-0.5 158.5,-0.5"/>
<text text-anchor="middle" x="223" y="-7.5" font-family="Helvetica,sans-Serif" font-size="10.00">GraphicsSquare::meDraw</text>
</a>
</g>
</g>
<!-- Node1&#45;&gt;Node4 -->
<g id="edge3" class="edge"><title>Node1&#45;&gt;Node4</title>
<path fill="none" stroke="midnightblue" d="M106.538,-41.7522C132.082,-34.7276 163.673,-26.04 187.35,-19.5287"/>
<polygon fill="midnightblue" stroke="midnightblue" points="105.432,-38.4263 96.7176,-44.4527 107.288,-45.1757 105.432,-38.4263"/>
</g>
</g>
</svg>
