<?xml version="1.0" encoding="UTF-8" standalone="no"?>
<!DOCTYPE svg PUBLIC "-//W3C//DTD SVG 1.1//EN"
 "http://www.w3.org/Graphics/SVG/1.1/DTD/svg11.dtd">
<!-- Generated by graphviz version 2.36.0 (20140111.2315)
 -->
<!-- Title: Point::y Pages: 1 -->
<!--zoomable 648 -->
<svg id="main" version="1.1" xmlns="http://www.w3.org/2000/svg" xmlns:xlink="http://www.w3.org/1999/xlink" xml:space="preserve" onload="init(evt)">
<style type="text/css"><![CDATA[
.edge:hover path { stroke: red; }
.edge:hover polygon { stroke: red; fill: red; }
]]></style>
<script type="text/javascript"><![CDATA[
var edges = document.getElementsByTagName('g');
if (edges && edges.length) {
  for (var i=0;i<edges.length;i++) {
    if (edges[i].id.substr(0,4)=='edge') {
      edges[i].setAttribute('class','edge');
    }
  }
}
]]></script>
        <defs>
                <circle id="rim" cx="0" cy="0" r="7"/>
                <circle id="rim2" cx="0" cy="0" r="3.5"/>
                <g id="zoomPlus">
                        <use xlink:href="#rim" fill="#404040">
                                <set attributeName="fill" to="#808080" begin="zoomplus.mouseover" end="zoomplus.mouseout"/>
                        </use>
                        <path d="M-4,0h8M0,-4v8" fill="none" stroke="white" stroke-width="1.5" pointer-events="none"/>
                </g>
                <g id="zoomMin">
                        <use xlink:href="#rim" fill="#404040">
                                <set attributeName="fill" to="#808080" begin="zoomminus.mouseover" end="zoomminus.mouseout"/>
                        </use>
                        <path d="M-4,0h8" fill="none" stroke="white" stroke-width="1.5" pointer-events="none"/>
                </g>
                <g id="dirArrow">
                        <path fill="none" stroke="white" stroke-width="1.5" d="M0,-3.0v7 M-2.5,-0.5L0,-3.0L2.5,-0.5"/>
                </g>
               <g id="resetDef">
                       <use xlink:href="#rim2" fill="#404040">
                               <set attributeName="fill" to="#808080" begin="reset.mouseover" end="reset.mouseout"/>
                       </use>
               </g>
        </defs>

<script type="text/javascript">
var viewWidth = 1032;
var viewHeight = 648;
var sectionId = 'dynsection-33';
</script>
<script xlink:href="svgpan.js"/>
<svg id="graph" class="graph">
<g id="viewport">
<title>Point::y</title>
<polygon fill="white" stroke="none" points="-4,4 -4,-644 1028,-644 1028,4 -4,4"/>
<!-- Node1 -->
<g id="node1" class="node"><title>Node1</title>
<polygon fill="#bfbfbf" stroke="black" points="0,-304.5 0,-323.5 50,-323.5 50,-304.5 0,-304.5"/>
<text text-anchor="middle" x="25" y="-311.5" font-family="Helvetica,sans-Serif" font-size="10.00">Point::y</text>
</g>
<!-- Node1&#45;&gt;Node1 -->
<g id="edge13" class="edge"><title>Node1&#45;&gt;Node1</title>
<path fill="none" stroke="midnightblue" d="M1.5626,-333.029C2.84104,-338.128 10.6535,-342 25,-342 47.3945,-342 53.868,-332.565 44.4203,-323.757"/>
<polygon fill="midnightblue" stroke="midnightblue" points="4.8158,-334.324 5.57974,-323.757 -1.60729,-331.541 4.8158,-334.324"/>
</g>
<!-- Node2 -->
<g id="node2" class="node"><title>Node2</title>
<g id="a_node2"><a xlink:href="class_canvas.html#a4830e2b1c25e309489c489bad59ea9e1" target="_top" xlink:title="Canvas::drawPoint">
<polygon fill="white" stroke="black" points="102,-620.5 102,-639.5 202,-639.5 202,-620.5 102,-620.5"/>
<text text-anchor="middle" x="152" y="-627.5" font-family="Helvetica,sans-Serif" font-size="10.00">Canvas::drawPoint</text>
</a>
</g>
</g>
<!-- Node1&#45;&gt;Node2 -->
<g id="edge1" class="edge"><title>Node1&#45;&gt;Node2</title>
<path fill="none" stroke="midnightblue" d="M27.3754,-333.795C31.9111,-393.458 48.3105,-569.961 86,-611 90.3739,-615.763 95.8686,-619.356 101.801,-622.062"/>
<polygon fill="midnightblue" stroke="midnightblue" points="30.8633,-333.501 26.6437,-323.783 23.8819,-334.011 30.8633,-333.501"/>
</g>
<!-- Node3 -->
<g id="node3" class="node"><title>Node3</title>
<g id="a_node3"><a xlink:href="class_canvas.html#aa379d9765fc40e770309001da99832c3" target="_top" xlink:title="Canvas::drawLine">
<polygon fill="white" stroke="black" points="104.5,-582.5 104.5,-601.5 199.5,-601.5 199.5,-582.5 104.5,-582.5"/>
<text text-anchor="middle" x="152" y="-589.5" font-family="Helvetica,sans-Serif" font-size="10.00">Canvas::drawLine</text>
</a>
</g>
</g>
<!-- Node1&#45;&gt;Node3 -->
<g id="edge2" class="edge"><title>Node1&#45;&gt;Node3</title>
<path fill="none" stroke="midnightblue" d="M28.0039,-333.705C33.9081,-387.99 52.9294,-537.998 86,-573 91.006,-578.298 97.3998,-582.145 104.216,-584.932"/>
<polygon fill="midnightblue" stroke="midnightblue" points="31.4731,-333.228 26.9428,-323.65 24.5117,-333.962 31.4731,-333.228"/>
</g>
<!-- Node4 -->
<g id="node4" class="node"><title>Node4</title>
<g id="a_node4"><a xlink:href="class_canvas.html#a347a381b7cd7381a84f49a8bdd77244c" target="_top" xlink:title="Canvas::drawRectangle">
<polygon fill="white" stroke="black" points="91,-544.5 91,-563.5 213,-563.5 213,-544.5 91,-544.5"/>
<text text-anchor="middle" x="152" y="-551.5" font-family="Helvetica,sans-Serif" font-size="10.00">Canvas::drawRectangle</text>
</a>
</g>
</g>
<!-- Node1&#45;&gt;Node4 -->
<g id="edge3" class="edge"><title>Node1&#45;&gt;Node4</title>
<path fill="none" stroke="midnightblue" d="M25.3583,-333.734C25.0856,-376.537 30.6608,-478.583 86,-535 89.7871,-538.861 94.3119,-541.948 99.1871,-544.414"/>
<polygon fill="midnightblue" stroke="midnightblue" points="28.8613,-333.599 25.547,-323.536 21.8625,-333.47 28.8613,-333.599"/>
</g>
<!-- Node5 -->
<g id="node5" class="node"><title>Node5</title>
<g id="a_node5"><a xlink:href="class_canvas.html#a02f659c0cb7809f6dbb18746eb547778" target="_top" xlink:title="Canvas::drawCircle">
<polygon fill="white" stroke="black" points="100.5,-506.5 100.5,-525.5 203.5,-525.5 203.5,-506.5 100.5,-506.5"/>
<text text-anchor="middle" x="152" y="-513.5" font-family="Helvetica,sans-Serif" font-size="10.00">Canvas::drawCircle</text>
</a>
</g>
</g>
<!-- Node1&#45;&gt;Node5 -->
<g id="edge4" class="edge"><title>Node1&#45;&gt;Node5</title>
<path fill="none" stroke="midnightblue" d="M26.688,-333.621C29.0747,-370.87 39.6293,-452.11 86,-497 90.1391,-501.007 95.0751,-504.176 100.351,-506.681"/>
<polygon fill="midnightblue" stroke="midnightblue" points="30.18,-333.372 26.1789,-323.562 23.1889,-333.726 30.18,-333.372"/>
</g>
<!-- Node6 -->
<g id="node6" class="node"><title>Node6</title>
<g id="a_node6"><a xlink:href="class_canvas.html#a7790d284aece3ffb4455af3846521e5b" target="_top" xlink:title="Canvas::drawTriangle">
<polygon fill="white" stroke="black" points="96,-468.5 96,-487.5 208,-487.5 208,-468.5 96,-468.5"/>
<text text-anchor="middle" x="152" y="-475.5" font-family="Helvetica,sans-Serif" font-size="10.00">Canvas::drawTriangle</text>
</a>
</g>
</g>
<!-- Node1&#45;&gt;Node6 -->
<g id="edge5" class="edge"><title>Node1&#45;&gt;Node6</title>
<path fill="none" stroke="midnightblue" d="M28.6845,-333.829C33.9616,-365.024 48.6203,-425.452 86,-459 90.2874,-462.848 95.3149,-465.919 100.642,-468.369"/>
<polygon fill="midnightblue" stroke="midnightblue" points="32.1163,-333.117 27.1401,-323.763 25.1972,-334.178 32.1163,-333.117"/>
</g>
<!-- Node7 -->
<g id="node7" class="node"><title>Node7</title>
<g id="a_node7"><a xlink:href="class_canvas.html#a34af1e9202967cbb4088e18296af8296" target="_top" xlink:title="Canvas::drawText">
<polygon fill="white" stroke="black" points="103.5,-430.5 103.5,-449.5 200.5,-449.5 200.5,-430.5 103.5,-430.5"/>
<text text-anchor="middle" x="152" y="-437.5" font-family="Helvetica,sans-Serif" font-size="10.00">Canvas::drawText</text>
</a>
</g>
</g>
<!-- Node1&#45;&gt;Node7 -->
<g id="edge6" class="edge"><title>Node1&#45;&gt;Node7</title>
<path fill="none" stroke="midnightblue" d="M31.8,-333.395C39.9889,-357.463 57.239,-398.117 86,-421 91.1522,-425.099 97.1606,-428.314 103.404,-430.836"/>
<polygon fill="midnightblue" stroke="midnightblue" points="35.0539,-332.08 28.6664,-323.627 28.3885,-334.218 35.0539,-332.08"/>
</g>
<!-- Node8 -->
<g id="node8" class="node"><title>Node8</title>
<g id="a_node8"><a xlink:href="class_graphics_circle.html#a8cf19074ff1c6b75b0be7becee5746aa" target="_top" xlink:title="GraphicsCircle::radius">
<polygon fill="white" stroke="black" points="95.5,-392.5 95.5,-411.5 208.5,-411.5 208.5,-392.5 95.5,-392.5"/>
<text text-anchor="middle" x="152" y="-399.5" font-family="Helvetica,sans-Serif" font-size="10.00">GraphicsCircle::radius</text>
</a>
</g>
</g>
<!-- Node1&#45;&gt;Node8 -->
<g id="edge7" class="edge"><title>Node1&#45;&gt;Node8</title>
<path fill="none" stroke="midnightblue" d="M37.9808,-332.514C48.8042,-347.846 66.0628,-369.132 86,-382 92.6464,-386.29 100.266,-389.704 107.894,-392.407"/>
<polygon fill="midnightblue" stroke="midnightblue" points="40.6209,-330.171 32.1069,-323.866 34.8302,-334.105 40.6209,-330.171"/>
</g>
<!-- Node10 -->
<g id="node10" class="node"><title>Node10</title>
<g id="a_node10"><a xlink:href="class_graphics_rectangle.html#ab1a0b1219fdc7694c6f5902c19f9e429" target="_top" xlink:title="GraphicsRectangle::\lheight">
<polygon fill="white" stroke="black" points="99,-343 99,-373 205,-373 205,-343 99,-343"/>
<text text-anchor="start" x="107" y="-361" font-family="Helvetica,sans-Serif" font-size="10.00">GraphicsRectangle::</text>
<text text-anchor="middle" x="152" y="-350" font-family="Helvetica,sans-Serif" font-size="10.00">height</text>
</a>
</g>
</g>
<!-- Node1&#45;&gt;Node10 -->
<g id="edge9" class="edge"><title>Node1&#45;&gt;Node10</title>
<path fill="none" stroke="midnightblue" d="M59.9144,-325.938C74.8081,-331.18 92.4622,-337.395 108.244,-342.95"/>
<polygon fill="midnightblue" stroke="midnightblue" points="60.6961,-322.503 50.1013,-322.484 58.3718,-329.105 60.6961,-322.503"/>
</g>
<!-- Node11 -->
<g id="node11" class="node"><title>Node11</title>
<g id="a_node11"><a xlink:href="class_graphics_square.html#a103156e077166c50383d380a0bfb0cbc" target="_top" xlink:title="GraphicsSquare::corrector">
<polygon fill="white" stroke="black" points="86.5,-304.5 86.5,-323.5 217.5,-323.5 217.5,-304.5 86.5,-304.5"/>
<text text-anchor="middle" x="152" y="-311.5" font-family="Helvetica,sans-Serif" font-size="10.00">GraphicsSquare::corrector</text>
</a>
</g>
</g>
<!-- Node1&#45;&gt;Node11 -->
<g id="edge10" class="edge"><title>Node1&#45;&gt;Node11</title>
<path fill="none" stroke="midnightblue" d="M60.2927,-314C68.4488,-314 77.416,-314 86.4404,-314"/>
<polygon fill="midnightblue" stroke="midnightblue" points="60.1013,-310.5 50.1013,-314 60.1012,-317.5 60.1013,-310.5"/>
</g>
<!-- Node14 -->
<g id="node14" class="node"><title>Node14</title>
<g id="a_node14"><a xlink:href="class_point.html#a43923c490fb5439d7d8a041e86520c34" target="_top" xlink:title="Modifie les coordonnées du point par rapport à son origine. ">
<polygon fill="white" stroke="black" points="122.5,-266.5 122.5,-285.5 181.5,-285.5 181.5,-266.5 122.5,-266.5"/>
<text text-anchor="middle" x="152" y="-273.5" font-family="Helvetica,sans-Serif" font-size="10.00">Point::set</text>
</a>
</g>
</g>
<!-- Node1&#45;&gt;Node14 -->
<g id="edge14" class="edge"><title>Node1&#45;&gt;Node14</title>
<path fill="none" stroke="midnightblue" d="M59.8424,-303.138C68.3683,-300.442 77.5104,-297.585 86,-295 97.9221,-291.37 111.115,-287.489 122.483,-284.187"/>
<polygon fill="midnightblue" stroke="midnightblue" points="58.6635,-299.84 50.1926,-306.204 60.783,-306.512 58.6635,-299.84"/>
</g>
<!-- Node27 -->
<g id="node27" class="node"><title>Node27</title>
<g id="a_node27"><a xlink:href="class_point.html#a498f108de0c0351dfb3177c681a7a1f2" target="_top" xlink:title="Quitte le groupe auquel le point appartient. ">
<polygon fill="white" stroke="black" points="291,-152.5 291,-171.5 371,-171.5 371,-152.5 291,-152.5"/>
<text text-anchor="middle" x="331" y="-159.5" font-family="Helvetica,sans-Serif" font-size="10.00">Point::beAlone</text>
</a>
</g>
</g>
<!-- Node1&#45;&gt;Node27 -->
<g id="edge38" class="edge"><title>Node1&#45;&gt;Node27</title>
<path fill="none" stroke="midnightblue" d="M40.4965,-296.564C51.7582,-284.008 68.3823,-267.497 86,-257 139.006,-225.418 164.715,-245.108 218,-214 236.744,-203.057 234.884,-191.281 254,-181 265.259,-174.944 278.497,-170.774 290.742,-167.921"/>
<polygon fill="midnightblue" stroke="midnightblue" points="37.8302,-294.296 33.9137,-304.141 43.1144,-298.887 37.8302,-294.296"/>
</g>
<!-- Node30 -->
<g id="node30" class="node"><title>Node30</title>
<g id="a_node30"><a xlink:href="class_point.html#a62fd0fb2c699d6d4699d3be73762ffa2" target="_top" xlink:title="Modifie l&#39;abscisse du point par rapport à son origine. ">
<polygon fill="white" stroke="black" points="298.5,-114.5 298.5,-133.5 363.5,-133.5 363.5,-114.5 298.5,-114.5"/>
<text text-anchor="middle" x="331" y="-121.5" font-family="Helvetica,sans-Serif" font-size="10.00">Point::setX</text>
</a>
</g>
</g>
<!-- Node1&#45;&gt;Node30 -->
<g id="edge44" class="edge"><title>Node1&#45;&gt;Node30</title>
<path fill="none" stroke="midnightblue" d="M32.3914,-294.69C40.9471,-271.894 58.3344,-234.499 86,-214 134.588,-177.999 165.784,-211.503 218,-181 238.088,-169.265 233.912,-154.735 254,-143 267.388,-135.179 283.923,-130.556 298.148,-127.834"/>
<polygon fill="midnightblue" stroke="midnightblue" points="29.0282,-293.703 28.9852,-304.297 35.6258,-296.042 29.0282,-293.703"/>
</g>
<!-- Node32 -->
<g id="node32" class="node"><title>Node32</title>
<g id="a_node32"><a xlink:href="_point_8cpp.html#a872cb140a1e5f546a31b4b3d891b765a" target="_top" xlink:title="Surchage de l&#39;operateur ==. ">
<polygon fill="white" stroke="black" points="120,-152.5 120,-171.5 184,-171.5 184,-152.5 120,-152.5"/>
<text text-anchor="middle" x="152" y="-159.5" font-family="Helvetica,sans-Serif" font-size="10.00">operator==</text>
</a>
</g>
</g>
<!-- Node1&#45;&gt;Node32 -->
<g id="edge39" class="edge"><title>Node1&#45;&gt;Node32</title>
<path fill="none" stroke="midnightblue" d="M30.2044,-294.431C37.1504,-266.628 53.5961,-215.771 86,-186 95.3898,-177.373 108.148,-171.776 119.875,-168.178"/>
<polygon fill="midnightblue" stroke="midnightblue" points="26.7202,-293.961 27.8575,-304.495 33.5373,-295.551 26.7202,-293.961"/>
</g>
<!-- Node33 -->
<g id="node33" class="node"><title>Node33</title>
<g id="a_node33"><a xlink:href="_point_8cpp.html#a4158330ef851082d91a82eefd03aa183" target="_top" xlink:title="Surchage de l&#39;operateur +. ">
<polygon fill="white" stroke="black" points="123,-114.5 123,-133.5 181,-133.5 181,-114.5 123,-114.5"/>
<text text-anchor="middle" x="152" y="-121.5" font-family="Helvetica,sans-Serif" font-size="10.00">operator+</text>
</a>
</g>
</g>
<!-- Node1&#45;&gt;Node33 -->
<g id="edge40" class="edge"><title>Node1&#45;&gt;Node33</title>
<path fill="none" stroke="midnightblue" d="M27.238,-294.186C30.5339,-258.712 42.5341,-184.218 86,-143 95.896,-133.616 110.17,-128.835 122.822,-126.412"/>
<polygon fill="midnightblue" stroke="midnightblue" points="23.7421,-293.996 26.4448,-304.241 30.7204,-294.547 23.7421,-293.996"/>
</g>
<!-- Node34 -->
<g id="node34" class="node"><title>Node34</title>
<g id="a_node34"><a xlink:href="_point_8cpp.html#af304a4bde169f417ea02e56d3d4b7258" target="_top" xlink:title="Surchage de l&#39;operateur &#45;. ">
<polygon fill="white" stroke="black" points="124.5,-76.5 124.5,-95.5 179.5,-95.5 179.5,-76.5 124.5,-76.5"/>
<text text-anchor="middle" x="152" y="-83.5" font-family="Helvetica,sans-Serif" font-size="10.00">operator&#45;</text>
</a>
</g>
</g>
<!-- Node1&#45;&gt;Node34 -->
<g id="edge41" class="edge"><title>Node1&#45;&gt;Node34</title>
<path fill="none" stroke="midnightblue" d="M25.7368,-293.913C26.3242,-252.602 33.6676,-157.585 86,-105 96.035,-94.9165 111.105,-90.1204 124.209,-87.8662"/>
<polygon fill="midnightblue" stroke="midnightblue" points="22.2366,-294.055 25.7185,-304.061 29.2366,-294.068 22.2366,-294.055"/>
</g>
<!-- Node35 -->
<g id="node35" class="node"><title>Node35</title>
<g id="a_node35"><a xlink:href="_point_8cpp.html#aab55cf13db83c55c46a961b2b2441960" target="_top" xlink:title="Surchage de l&#39;operateur &lt;&lt;. ">
<polygon fill="white" stroke="black" points="120,-38.5 120,-57.5 184,-57.5 184,-38.5 120,-38.5"/>
<text text-anchor="middle" x="152" y="-45.5" font-family="Helvetica,sans-Serif" font-size="10.00">operator&lt;&lt;</text>
</a>
</g>
</g>
<!-- Node1&#45;&gt;Node35 -->
<g id="edge42" class="edge"><title>Node1&#45;&gt;Node35</title>
<path fill="none" stroke="midnightblue" d="M28.2593,-294.169C34.64,-241.535 54.4125,-100.078 86,-67 94.7692,-57.817 107.708,-53.0006 119.738,-50.5008"/>
<polygon fill="midnightblue" stroke="midnightblue" points="24.7667,-293.901 27.0716,-304.242 31.7185,-294.721 24.7667,-293.901"/>
</g>
<!-- Node36 -->
<g id="node36" class="node"><title>Node36</title>
<g id="a_node36"><a xlink:href="_point_8cpp.html#a4e1acba0f26daf714b7816d3c1994a74" target="_top" xlink:title="Surchage de l&#39;operateur &lt;. ">
<polygon fill="white" stroke="black" points="123,-0.5 123,-19.5 181,-19.5 181,-0.5 123,-0.5"/>
<text text-anchor="middle" x="152" y="-7.5" font-family="Helvetica,sans-Serif" font-size="10.00">operator&lt;</text>
</a>
</g>
</g>
<!-- Node1&#45;&gt;Node36 -->
<g id="edge43" class="edge"><title>Node1&#45;&gt;Node36</title>
<path fill="none" stroke="midnightblue" d="M27.5548,-294.254C32.5084,-236.272 49.7679,-68.1308 86,-29 95.4255,-18.8204 109.972,-13.9883 122.916,-11.7368"/>
<polygon fill="midnightblue" stroke="midnightblue" points="24.0593,-294.057 26.7262,-304.311 31.0357,-294.632 24.0593,-294.057"/>
</g>
<!-- Node9 -->
<g id="node9" class="node"><title>Node9</title>
<g id="a_node9"><a xlink:href="class_graphics_circle.html#a8533b7a4eb72f0063e98d8ad94210f16" target="_top" xlink:title="GraphicsCircle::meDraw">
<polygon fill="white" stroke="black" points="269,-506.5 269,-525.5 393,-525.5 393,-506.5 269,-506.5"/>
<text text-anchor="middle" x="331" y="-513.5" font-family="Helvetica,sans-Serif" font-size="10.00">GraphicsCircle::meDraw</text>
</a>
</g>
</g>
<!-- Node8&#45;&gt;Node9 -->
<g id="edge8" class="edge"><title>Node8&#45;&gt;Node9</title>
<path fill="none" stroke="midnightblue" d="M211.605,-416.348C213.855,-417.756 216,-419.302 218,-421 246.188,-444.928 225.491,-472.456 254,-496 259.26,-500.344 265.364,-503.754 271.783,-506.429"/>
<polygon fill="midnightblue" stroke="midnightblue" points="212.977,-413.116 202.495,-411.574 209.727,-419.316 212.977,-413.116"/>
</g>
<!-- Node12 -->
<g id="node12" class="node"><title>Node12</title>
<g id="a_node12"><a xlink:href="class_graphics_square.html#a14374df804233349ce8654bbe41531e7" target="_top" xlink:title="GraphicsSquare::Graphics\lSquare">
<polygon fill="white" stroke="black" points="265.5,-457 265.5,-487 396.5,-487 396.5,-457 265.5,-457"/>
<text text-anchor="start" x="273.5" y="-475" font-family="Helvetica,sans-Serif" font-size="10.00">GraphicsSquare::Graphics</text>
<text text-anchor="middle" x="331" y="-464" font-family="Helvetica,sans-Serif" font-size="10.00">Square</text>
</a>
</g>
</g>
<!-- Node11&#45;&gt;Node12 -->
<g id="edge11" class="edge"><title>Node11&#45;&gt;Node12</title>
<path fill="none" stroke="midnightblue" d="M211.798,-328.847C214.008,-330.398 216.091,-332.11 218,-334 255.456,-371.086 216.904,-409.554 254,-447 257.812,-450.848 262.227,-454.104 266.972,-456.859"/>
<polygon fill="midnightblue" stroke="midnightblue" points="213.146,-325.585 202.733,-323.63 209.654,-331.652 213.146,-325.585"/>
</g>
<!-- Node13 -->
<g id="node13" class="node"><title>Node13</title>
<g id="a_node13"><a xlink:href="_graphics_square_8cpp.html#a394e0ac33c0ff6b1968c93f37df22952" target="_top" xlink:title="m_bottomRight">
<polygon fill="white" stroke="black" points="289.5,-418.5 289.5,-437.5 372.5,-437.5 372.5,-418.5 289.5,-418.5"/>
<text text-anchor="middle" x="331" y="-425.5" font-family="Helvetica,sans-Serif" font-size="10.00">m_bottomRight</text>
</a>
</g>
</g>
<!-- Node11&#45;&gt;Node13 -->
<g id="edge12" class="edge"><title>Node11&#45;&gt;Node13</title>
<path fill="none" stroke="midnightblue" d="M209.721,-328.11C212.662,-329.85 215.45,-331.804 218,-334 246.019,-358.126 225.346,-385.632 254,-409 263.908,-417.08 276.786,-421.788 289.118,-424.511"/>
<polygon fill="midnightblue" stroke="midnightblue" points="211.032,-324.852 200.523,-323.506 207.899,-331.112 211.032,-324.852"/>
</g>
<!-- Node15 -->
<g id="node15" class="node"><title>Node15</title>
<g id="a_node15"><a xlink:href="class_graphics_point.html#ac1242633c38521d881c9aa3548676dd4" target="_top" xlink:title="GraphicsPoint::GraphicsPoint">
<polygon fill="white" stroke="black" points="258,-228.5 258,-247.5 404,-247.5 404,-228.5 258,-228.5"/>
<text text-anchor="middle" x="331" y="-235.5" font-family="Helvetica,sans-Serif" font-size="10.00">GraphicsPoint::GraphicsPoint</text>
</a>
</g>
</g>
<!-- Node14&#45;&gt;Node15 -->
<g id="edge15" class="edge"><title>Node14&#45;&gt;Node15</title>
<path fill="none" stroke="midnightblue" d="M191.928,-267.643C219.586,-261.705 256.779,-253.72 285.595,-247.533"/>
<polygon fill="midnightblue" stroke="midnightblue" points="190.875,-264.289 181.832,-269.81 192.344,-271.133 190.875,-264.289"/>
</g>
<!-- Node16 -->
<g id="node16" class="node"><title>Node16</title>
<g id="a_node16"><a xlink:href="class_graphics_point.html#aaceb83d2bd068629dccfde4aee9c60f5" target="_top" xlink:title="GraphicsPoint::meHandleEvent">
<polygon fill="white" stroke="black" points="254,-190.5 254,-209.5 408,-209.5 408,-190.5 254,-190.5"/>
<text text-anchor="middle" x="331" y="-197.5" font-family="Helvetica,sans-Serif" font-size="10.00">GraphicsPoint::meHandleEvent</text>
</a>
</g>
</g>
<!-- Node14&#45;&gt;Node16 -->
<g id="edge16" class="edge"><title>Node14&#45;&gt;Node16</title>
<path fill="none" stroke="midnightblue" d="M191.259,-264.68C200.345,-261.241 209.78,-257.015 218,-252 236.529,-240.695 234.884,-229.281 254,-219 261.187,-215.135 269.18,-212.037 277.206,-209.561"/>
<polygon fill="midnightblue" stroke="midnightblue" points="189.865,-261.461 181.611,-268.103 192.206,-268.058 189.865,-261.461"/>
</g>
<!-- Node17 -->
<g id="node17" class="node"><title>Node17</title>
<g id="a_node17"><a xlink:href="class_main_window.html#a34c4b4207b46d11a4100c9b19f0e81bb" target="_top" xlink:title="MainWindow::MainWindow">
<polygon fill="white" stroke="black" points="724.5,-380.5 724.5,-399.5 859.5,-399.5 859.5,-380.5 724.5,-380.5"/>
<text text-anchor="middle" x="792" y="-387.5" font-family="Helvetica,sans-Serif" font-size="10.00">MainWindow::MainWindow</text>
</a>
</g>
</g>
<!-- Node14&#45;&gt;Node17 -->
<g id="edge17" class="edge"><title>Node14&#45;&gt;Node17</title>
<path fill="none" stroke="midnightblue" d="M191.444,-285.554C200.313,-288.218 209.604,-291.388 218,-295 235.016,-302.319 236.491,-309.954 254,-316 339.62,-345.567 600.113,-372.51 724.074,-384.057"/>
<polygon fill="midnightblue" stroke="midnightblue" points="192.259,-282.147 181.682,-282.765 190.336,-288.877 192.259,-282.147"/>
</g>
<!-- Node18 -->
<g id="node18" class="node"><title>Node18</title>
<g id="a_node18"><a xlink:href="class_point.html#a9abe56cf3f067305623a1d805460a84f" target="_top" xlink:title="Modifie les coordonnées du point indépendamment de son origine. ">
<polygon fill="white" stroke="black" points="283.5,-380.5 283.5,-399.5 378.5,-399.5 378.5,-380.5 283.5,-380.5"/>
<text text-anchor="middle" x="331" y="-387.5" font-family="Helvetica,sans-Serif" font-size="10.00">Point::setRelative</text>
</a>
</g>
</g>
<!-- Node14&#45;&gt;Node18 -->
<g id="edge18" class="edge"><title>Node14&#45;&gt;Node18</title>
<path fill="none" stroke="midnightblue" d="M191.353,-281.675C200.822,-284.49 210.414,-288.701 218,-295 245.22,-317.601 227.024,-343.107 254,-366 262.334,-373.073 272.762,-378.066 283.198,-381.589"/>
<polygon fill="midnightblue" stroke="midnightblue" points="192.171,-278.272 181.619,-279.218 190.458,-285.059 192.171,-278.272"/>
</g>
<!-- Node26 -->
<g id="node26" class="node"><title>Node26</title>
<g id="a_node26"><a xlink:href="class_point.html#a4fa7ffadfb6c9de033bfef5decdaa66e" target="_top" xlink:title="Rejoint le groupe d&#39;un point. ">
<polygon fill="white" stroke="black" points="465,-304.5 465,-323.5 525,-323.5 525,-304.5 465,-304.5"/>
<text text-anchor="middle" x="495" y="-311.5" font-family="Helvetica,sans-Serif" font-size="10.00">Point::join</text>
</a>
</g>
</g>
<!-- Node14&#45;&gt;Node26 -->
<g id="edge30" class="edge"><title>Node14&#45;&gt;Node26</title>
<path fill="none" stroke="midnightblue" d="M191.557,-284.256C210.323,-288.017 233.258,-292.236 254,-295 329.611,-305.076 419.389,-310.442 464.708,-312.692"/>
<polygon fill="midnightblue" stroke="midnightblue" points="192.099,-280.794 181.601,-282.226 190.7,-287.653 192.099,-280.794"/>
</g>
<!-- Node14&#45;&gt;Node27 -->
<g id="edge32" class="edge"><title>Node14&#45;&gt;Node27</title>
<path fill="none" stroke="midnightblue" d="M191.424,-267.141C200.892,-263.599 210.466,-258.71 218,-252 244.421,-228.469 226.34,-203.061 254,-181 264.42,-172.689 278,-167.957 290.793,-165.281"/>
<polygon fill="midnightblue" stroke="midnightblue" points="190.079,-263.899 181.685,-270.363 192.278,-270.545 190.079,-263.899"/>
</g>
<!-- Node14&#45;&gt;Node30 -->
<g id="edge36" class="edge"><title>Node14&#45;&gt;Node30</title>
<path fill="none" stroke="midnightblue" d="M173.428,-259.711C187.2,-248.012 205.135,-231.31 218,-214 239.104,-185.604 226.34,-165.061 254,-143 266.547,-132.993 283.674,-128.175 298.494,-125.887"/>
<polygon fill="midnightblue" stroke="midnightblue" points="170.935,-257.231 165.473,-266.309 175.404,-262.618 170.935,-257.231"/>
</g>
<!-- Node31 -->
<g id="node31" class="node"><title>Node31</title>
<g id="a_node31"><a xlink:href="class_point.html#a3cdf750fa08f24c2aaaf7ada42df5ad8" target="_top" xlink:title="Modifie l&#39;ordonnée du point par rapport à son origine. ">
<polygon fill="white" stroke="black" points="298.5,-266.5 298.5,-285.5 363.5,-285.5 363.5,-266.5 298.5,-266.5"/>
<text text-anchor="middle" x="331" y="-273.5" font-family="Helvetica,sans-Serif" font-size="10.00">Point::setY</text>
</a>
</g>
</g>
<!-- Node14&#45;&gt;Node31 -->
<g id="edge37" class="edge"><title>Node14&#45;&gt;Node31</title>
<path fill="none" stroke="midnightblue" d="M192.156,-276C224.146,-276 268.778,-276 298.492,-276"/>
<polygon fill="midnightblue" stroke="midnightblue" points="191.832,-272.5 181.832,-276 191.832,-279.5 191.832,-272.5"/>
</g>
<!-- Node18&#45;&gt;Node17 -->
<g id="edge19" class="edge"><title>Node18&#45;&gt;Node17</title>
<path fill="none" stroke="midnightblue" d="M388.778,-390C473.839,-390 633.994,-390 724.436,-390"/>
<polygon fill="midnightblue" stroke="midnightblue" points="388.537,-386.5 378.537,-390 388.537,-393.5 388.537,-386.5"/>
</g>
<!-- Node19 -->
<g id="node19" class="node"><title>Node19</title>
<g id="a_node19"><a xlink:href="class_point.html#a7f5e36e2e1bd0fa1564c1e4d5d74355c" target="_top" xlink:title="Modifie l&#39;abscisse du point indépendamment de son origine. ">
<polygon fill="white" stroke="black" points="444.5,-467.5 444.5,-486.5 545.5,-486.5 545.5,-467.5 444.5,-467.5"/>
<text text-anchor="middle" x="495" y="-474.5" font-family="Helvetica,sans-Serif" font-size="10.00">Point::setRelativeX</text>
</a>
</g>
</g>
<!-- Node18&#45;&gt;Node19 -->
<g id="edge20" class="edge"><title>Node18&#45;&gt;Node19</title>
<path fill="none" stroke="midnightblue" d="M388.736,-400.082C395.483,-402.455 402.071,-405.384 408,-409 428.704,-421.626 425.033,-434.89 444,-450 452.488,-456.762 462.913,-462.698 472.043,-467.269"/>
<polygon fill="midnightblue" stroke="midnightblue" points="389.382,-396.618 378.794,-396.989 387.302,-403.302 389.382,-396.618"/>
</g>
<!-- Node24 -->
<g id="node24" class="node"><title>Node24</title>
<g id="a_node24"><a xlink:href="class_point.html#abb67fd238634ebc25e4bdb3ab4cca9b6" target="_top" xlink:title="Modifie l&#39;ordonnée du point indépendamment de son origine. ">
<polygon fill="white" stroke="black" points="444.5,-421.5 444.5,-440.5 545.5,-440.5 545.5,-421.5 444.5,-421.5"/>
<text text-anchor="middle" x="495" y="-428.5" font-family="Helvetica,sans-Serif" font-size="10.00">Point::setRelativeY</text>
</a>
</g>
</g>
<!-- Node18&#45;&gt;Node24 -->
<g id="edge26" class="edge"><title>Node18&#45;&gt;Node24</title>
<path fill="none" stroke="midnightblue" d="M380.135,-401.992C389.385,-404.308 398.995,-406.723 408,-409 423.987,-413.043 441.634,-417.55 456.76,-421.426"/>
<polygon fill="midnightblue" stroke="midnightblue" points="380.834,-398.559 370.284,-399.528 379.135,-405.349 380.834,-398.559"/>
</g>
<!-- Node20 -->
<g id="node20" class="node"><title>Node20</title>
<g id="a_node20"><a xlink:href="class_graphics_rectangle.html#a3efd2295cd742f75de829851bf7ca3dd" target="_top" xlink:title="GraphicsRectangle::\lsetWidth">
<polygon fill="white" stroke="black" points="582,-468 582,-498 688,-498 688,-468 582,-468"/>
<text text-anchor="start" x="590" y="-486" font-family="Helvetica,sans-Serif" font-size="10.00">GraphicsRectangle::</text>
<text text-anchor="middle" x="635" y="-475" font-family="Helvetica,sans-Serif" font-size="10.00">setWidth</text>
</a>
</g>
</g>
<!-- Node19&#45;&gt;Node20 -->
<g id="edge21" class="edge"><title>Node19&#45;&gt;Node20</title>
<path fill="none" stroke="midnightblue" d="M555.88,-479.603C564.553,-479.981 573.423,-480.366 581.926,-480.736"/>
<polygon fill="midnightblue" stroke="midnightblue" points="555.964,-476.104 545.821,-479.166 555.66,-483.097 555.964,-476.104"/>
</g>
<!-- Node20&#45;&gt;Node17 -->
<g id="edge25" class="edge"><title>Node20&#45;&gt;Node17</title>
<path fill="none" stroke="midnightblue" d="M678.072,-463.38C681.46,-461.616 684.806,-459.811 688,-458 721.365,-439.081 758.428,-413.373 777.706,-399.62"/>
<polygon fill="midnightblue" stroke="midnightblue" points="676.424,-460.291 669.079,-467.927 679.583,-466.538 676.424,-460.291"/>
</g>
<!-- Node21 -->
<g id="node21" class="node"><title>Node21</title>
<g id="a_node21"><a xlink:href="class_line_edit.html#a636e2ac65a70dd82fcf02f863da5c446" target="_top" xlink:title="LineEdit::setText">
<polygon fill="white" stroke="black" points="746.5,-471.5 746.5,-490.5 837.5,-490.5 837.5,-471.5 746.5,-471.5"/>
<text text-anchor="middle" x="792" y="-478.5" font-family="Helvetica,sans-Serif" font-size="10.00">LineEdit::setText</text>
</a>
</g>
</g>
<!-- Node20&#45;&gt;Node21 -->
<g id="edge22" class="edge"><title>Node20&#45;&gt;Node21</title>
<path fill="none" stroke="midnightblue" d="M698.427,-482.194C714.469,-481.987 731.408,-481.769 746.349,-481.576"/>
<polygon fill="midnightblue" stroke="midnightblue" points="697.998,-478.7 688.044,-482.328 698.088,-485.699 697.998,-478.7"/>
</g>
<!-- Node22 -->
<g id="node22" class="node"><title>Node22</title>
<g id="a_node22"><a xlink:href="class_line_edit.html#a04e1cd86821efe7570868ae397978186" target="_top" xlink:title="LineEdit::LineEdit">
<polygon fill="white" stroke="black" points="913.5,-428.5 913.5,-447.5 1006.5,-447.5 1006.5,-428.5 913.5,-428.5"/>
<text text-anchor="middle" x="960" y="-435.5" font-family="Helvetica,sans-Serif" font-size="10.00">LineEdit::LineEdit</text>
</a>
</g>
</g>
<!-- Node21&#45;&gt;Node22 -->
<g id="edge23" class="edge"><title>Node21&#45;&gt;Node22</title>
<path fill="none" stroke="midnightblue" d="M839.543,-468.944C865.702,-462.168 897.891,-453.829 922.262,-447.516"/>
<polygon fill="midnightblue" stroke="midnightblue" points="838.644,-465.561 829.841,-471.457 840.399,-472.337 838.644,-465.561"/>
</g>
<!-- Node23 -->
<g id="node23" class="node"><title>Node23</title>
<g id="a_node23"><a xlink:href="class_line_edit.html#a8d5e79e8a895901381e301d41d3d4343" target="_top" xlink:title="LineEdit::meHandleEvent">
<polygon fill="white" stroke="black" points="896,-471.5 896,-490.5 1024,-490.5 1024,-471.5 896,-471.5"/>
<text text-anchor="middle" x="960" y="-478.5" font-family="Helvetica,sans-Serif" font-size="10.00">LineEdit::meHandleEvent</text>
</a>
</g>
</g>
<!-- Node21&#45;&gt;Node23 -->
<g id="edge24" class="edge"><title>Node21&#45;&gt;Node23</title>
<path fill="none" stroke="midnightblue" d="M848.255,-481C863.551,-481 880.268,-481 895.971,-481"/>
<polygon fill="midnightblue" stroke="midnightblue" points="847.922,-477.5 837.922,-481 847.922,-484.5 847.922,-477.5"/>
</g>
<!-- Node25 -->
<g id="node25" class="node"><title>Node25</title>
<g id="a_node25"><a xlink:href="class_graphics_rectangle.html#aea349ac359e4f2227f1da772c1a26ab6" target="_top" xlink:title="GraphicsRectangle::\lsetHeight">
<polygon fill="white" stroke="black" points="582,-419 582,-449 688,-449 688,-419 582,-419"/>
<text text-anchor="start" x="590" y="-437" font-family="Helvetica,sans-Serif" font-size="10.00">GraphicsRectangle::</text>
<text text-anchor="middle" x="635" y="-426" font-family="Helvetica,sans-Serif" font-size="10.00">setHeight</text>
</a>
</g>
</g>
<!-- Node24&#45;&gt;Node25 -->
<g id="edge27" class="edge"><title>Node24&#45;&gt;Node25</title>
<path fill="none" stroke="midnightblue" d="M555.88,-432.302C564.553,-432.49 573.423,-432.683 581.926,-432.868"/>
<polygon fill="midnightblue" stroke="midnightblue" points="555.895,-428.801 545.821,-432.083 555.743,-435.8 555.895,-428.801"/>
</g>
<!-- Node25&#45;&gt;Node17 -->
<g id="edge29" class="edge"><title>Node25&#45;&gt;Node17</title>
<path fill="none" stroke="midnightblue" d="M697.862,-416.439C718.159,-410.677 739.949,-404.492 757.346,-399.553"/>
<polygon fill="midnightblue" stroke="midnightblue" points="696.708,-413.128 688.044,-419.226 698.62,-419.862 696.708,-413.128"/>
</g>
<!-- Node25&#45;&gt;Node22 -->
<g id="edge28" class="edge"><title>Node25&#45;&gt;Node22</title>
<path fill="none" stroke="midnightblue" d="M698.456,-434.773C761.436,-435.553 857.152,-436.739 913.351,-437.435"/>
<polygon fill="midnightblue" stroke="midnightblue" points="698.297,-431.271 688.255,-434.647 698.21,-438.271 698.297,-431.271"/>
</g>
<!-- Node26&#45;&gt;Node17 -->
<g id="edge31" class="edge"><title>Node26&#45;&gt;Node17</title>
<path fill="none" stroke="midnightblue" d="M535.263,-314.991C574.653,-316.887 636.676,-322.352 688,-338 721.148,-348.107 756.533,-368.301 775.993,-380.333"/>
<polygon fill="midnightblue" stroke="midnightblue" points="535.409,-311.494 525.269,-314.563 535.11,-318.487 535.409,-311.494"/>
</g>
<!-- Node27&#45;&gt;Node26 -->
<g id="edge35" class="edge"><title>Node27&#45;&gt;Node26</title>
<path fill="none" stroke="midnightblue" d="M381.006,-168.509C390.541,-171.309 400.036,-175.304 408,-181 453.848,-213.793 481.415,-279.352 490.579,-304.172"/>
<polygon fill="midnightblue" stroke="midnightblue" points="381.67,-165.066 371.117,-166.002 379.95,-171.852 381.67,-165.066"/>
</g>
<!-- Node28 -->
<g id="node28" class="node"><title>Node28</title>
<g id="a_node28"><a xlink:href="class_point.html#a395fa04b4ec126b66fc053f829a30cc1" target="_top" xlink:title="Destructeur. ">
<polygon fill="white" stroke="black" points="458,-171.5 458,-190.5 532,-190.5 532,-171.5 458,-171.5"/>
<text text-anchor="middle" x="495" y="-178.5" font-family="Helvetica,sans-Serif" font-size="10.00">Point::~Point</text>
</a>
</g>
</g>
<!-- Node27&#45;&gt;Node28 -->
<g id="edge33" class="edge"><title>Node27&#45;&gt;Node28</title>
<path fill="none" stroke="midnightblue" d="M381.468,-167.802C406.126,-170.694 435.404,-174.128 457.915,-176.768"/>
<polygon fill="midnightblue" stroke="midnightblue" points="381.555,-164.288 371.216,-166.599 380.74,-171.24 381.555,-164.288"/>
</g>
<!-- Node29 -->
<g id="node29" class="node"><title>Node29</title>
<g id="a_node29"><a xlink:href="class_point.html#a2a77e4f4e0521de921e7066052530763" target="_top" xlink:title="Opérateur d&#39;affectation. ">
<polygon fill="white" stroke="black" points="452,-133.5 452,-152.5 538,-152.5 538,-133.5 452,-133.5"/>
<text text-anchor="middle" x="495" y="-140.5" font-family="Helvetica,sans-Serif" font-size="10.00">Point::operator=</text>
</a>
</g>
</g>
<!-- Node27&#45;&gt;Node29 -->
<g id="edge34" class="edge"><title>Node27&#45;&gt;Node29</title>
<path fill="none" stroke="midnightblue" d="M381.252,-156.224C403.759,-153.584 430.151,-150.488 451.74,-147.956"/>
<polygon fill="midnightblue" stroke="midnightblue" points="380.74,-152.76 371.216,-157.401 381.555,-159.712 380.74,-152.76"/>
</g>
</g>
</svg>
        <g id="navigator" transform="translate(0 0)" fill="#404254">
                <rect fill="#f2f5e9" fill-opacity="0.5" stroke="#606060" stroke-width=".5" x="0" y="0" width="60" height="60"/>
                <use id="zoomplus" xlink:href="#zoomPlus" x="17" y="9" onmousedown="handleZoom(evt,'in')"/>
                <use id="zoomminus" xlink:href="#zoomMin" x="42" y="9" onmousedown="handleZoom(evt,'out')"/>
                <use id="reset" xlink:href="#resetDef" x="30" y="36" onmousedown="handleReset()"/>
                <g id="arrowUp" xlink:href="#dirArrow" transform="translate(30 24)" onmousedown="handlePan(0,-1)">
                  <use xlink:href="#rim" fill="#404040">
                        <set attributeName="fill" to="#808080" begin="arrowUp.mouseover" end="arrowUp.mouseout"/>
                  </use>
                  <path fill="none" stroke="white" stroke-width="1.5" d="M0,-3.0v7 M-2.5,-0.5L0,-3.0L2.5,-0.5"/>
                </g>
                <g id="arrowRight" xlink:href="#dirArrow" transform="rotate(90) translate(36 -43)" onmousedown="handlePan(1,0)">
                  <use xlink:href="#rim" fill="#404040">
                        <set attributeName="fill" to="#808080" begin="arrowRight.mouseover" end="arrowRight.mouseout"/>
                  </use>
                  <path fill="none" stroke="white" stroke-width="1.5" d="M0,-3.0v7 M-2.5,-0.5L0,-3.0L2.5,-0.5"/>
                </g>
                <g id="arrowDown" xlink:href="#dirArrow" transform="rotate(180) translate(-30 -48)" onmousedown="handlePan(0,1)">
                  <use xlink:href="#rim" fill="#404040">
                        <set attributeName="fill" to="#808080" begin="arrowDown.mouseover" end="arrowDown.mouseout"/>
                  </use>
                  <path fill="none" stroke="white" stroke-width="1.5" d="M0,-3.0v7 M-2.5,-0.5L0,-3.0L2.5,-0.5"/>
                </g>
                <g id="arrowLeft" xlink:href="#dirArrow" transform="rotate(270) translate(-36 17)" onmousedown="handlePan(-1,0)">
                  <use xlink:href="#rim" fill="#404040">
                        <set attributeName="fill" to="#808080" begin="arrowLeft.mouseover" end="arrowLeft.mouseout"/>
                  </use>
                  <path fill="none" stroke="white" stroke-width="1.5" d="M0,-3.0v7 M-2.5,-0.5L0,-3.0L2.5,-0.5"/>
                </g>
        </g>
        <svg viewBox="0 0 15 15" width="100%" height="30px" preserveAspectRatio="xMaxYMin meet">
         <g id="arrow_out" transform="scale(0.3 0.3)">
          <a xlink:href="class_point_a2226d8a3fb283b0b3c1f69106df144ba_icgraph_org.svg" target="_base">
           <rect id="button" ry="5" rx="5" y="6" x="6" height="38" width="38"
                fill="#f2f5e9" fill-opacity="0.5" stroke="#606060" stroke-width="1.0"/>
           <path id="arrow"
             d="M 11.500037,31.436501 C 11.940474,20.09759 22.043105,11.32322 32.158766,21.979434 L 37.068811,17.246167 C 37.068811,17.246167 37.088388,32 37.088388,32 L 22.160133,31.978069 C 22.160133,31.978069 26.997745,27.140456 26.997745,27.140456 C 18.528582,18.264221 13.291696,25.230495 11.500037,31.436501 z"
             style="fill:#404040;"/>
          </a>
         </g>
        </svg>
</svg>
