<?xml version="1.0" encoding="UTF-8" standalone="no"?>
<!DOCTYPE svg PUBLIC "-//W3C//DTD SVG 1.1//EN"
 "http://www.w3.org/Graphics/SVG/1.1/DTD/svg11.dtd">
<!-- Generated by graphviz version 2.36.0 (20140111.2315)
 -->
<!-- Title: Point::setY Pages: 1 -->
<!--zoomable 254 -->
<svg id="main" version="1.1" xmlns="http://www.w3.org/2000/svg" xmlns:xlink="http://www.w3.org/1999/xlink" xml:space="preserve" onload="init(evt)">
<style type="text/css"><![CDATA[
.edge:hover path { stroke: red; }
.edge:hover polygon { stroke: red; fill: red; }
]]></style>
<script type="text/javascript"><![CDATA[
var edges = document.getElementsByTagName('g');
if (edges && edges.length) {
  for (var i=0;i<edges.length;i++) {
    if (edges[i].id.substr(0,4)=='edge') {
      edges[i].setAttribute('class','edge');
    }
  }
}
]]></script>
        <defs>
                <circle id="rim" cx="0" cy="0" r="7"/>
                <circle id="rim2" cx="0" cy="0" r="3.5"/>
                <g id="zoomPlus">
                        <use xlink:href="#rim" fill="#404040">
                                <set attributeName="fill" to="#808080" begin="zoomplus.mouseover" end="zoomplus.mouseout"/>
                        </use>
                        <path d="M-4,0h8M0,-4v8" fill="none" stroke="white" stroke-width="1.5" pointer-events="none"/>
                </g>
                <g id="zoomMin">
                        <use xlink:href="#rim" fill="#404040">
                                <set attributeName="fill" to="#808080" begin="zoomminus.mouseover" end="zoomminus.mouseout"/>
                        </use>
                        <path d="M-4,0h8" fill="none" stroke="white" stroke-width="1.5" pointer-events="none"/>
                </g>
                <g id="dirArrow">
                        <path fill="none" stroke="white" stroke-width="1.5" d="M0,-3.0v7 M-2.5,-0.5L0,-3.0L2.5,-0.5"/>
                </g>
               <g id="resetDef">
                       <use xlink:href="#rim2" fill="#404040">
                               <set attributeName="fill" to="#808080" begin="reset.mouseover" end="reset.mouseout"/>
                       </use>
               </g>
        </defs>

<script type="text/javascript">
var viewWidth = 528;
var viewHeight = 254;
var sectionId = 'dynsection-28';
</script>
<script xlink:href="svgpan.js"/>
<svg id="graph" class="graph">
<g id="viewport">
<title>Point::setY</title>
<polygon fill="white" stroke="none" points="-4,4 -4,-250 524,-250 524,4 -4,4"/>
<!-- Node1 -->
<g id="node1" class="node"><title>Node1</title>
<polygon fill="#bfbfbf" stroke="black" points="0.5,-147.5 0.5,-166.5 65.5,-166.5 65.5,-147.5 0.5,-147.5"/>
<text text-anchor="middle" x="33" y="-154.5" font-family="Helvetica,sans-Serif" font-size="10.00">Point::setY</text>
</g>
<!-- Node2 -->
<g id="node2" class="node"><title>Node2</title>
<g id="a_node2"><a xlink:href="class_point.html#a43923c490fb5439d7d8a041e86520c34" target="_top" xlink:title="permet la modification des valeurs du point. ">
<polygon fill="white" stroke="black" points="102.5,-114.5 102.5,-133.5 161.5,-133.5 161.5,-114.5 102.5,-114.5"/>
<text text-anchor="middle" x="132" y="-121.5" font-family="Helvetica,sans-Serif" font-size="10.00">Point::set</text>
</a>
</g>
</g>
<!-- Node1&#45;&gt;Node2 -->
<g id="edge1" class="edge"><title>Node1&#45;&gt;Node2</title>
<path fill="none" stroke="midnightblue" d="M62.0564,-147.455C71.8088,-144.137 82.9111,-140.36 93.3139,-136.821"/>
<polygon fill="midnightblue" stroke="midnightblue" points="94.6668,-140.058 103.007,-133.524 92.4122,-133.431 94.6668,-140.058"/>
</g>
<!-- Node4 -->
<g id="node4" class="node"><title>Node4</title>
<g id="a_node4"><a xlink:href="class_point.html#a2aa897aa68c2f3e6df3a46738f27a0ac" target="_top" xlink:title="recupere la valeur de l&#39;absisse du Point. ">
<polygon fill="white" stroke="black" points="225,-208.5 225,-227.5 275,-227.5 275,-208.5 225,-208.5"/>
<text text-anchor="middle" x="250" y="-215.5" font-family="Helvetica,sans-Serif" font-size="10.00">Point::x</text>
</a>
</g>
</g>
<!-- Node1&#45;&gt;Node4 -->
<g id="edge16" class="edge"><title>Node1&#45;&gt;Node4</title>
<path fill="none" stroke="midnightblue" d="M65.724,-166.001C105.674,-177.335 174.033,-196.73 215.02,-208.359"/>
<polygon fill="midnightblue" stroke="midnightblue" points="214.241,-211.776 224.816,-211.139 216.152,-205.042 214.241,-211.776"/>
</g>
<!-- Node3 -->
<g id="node3" class="node"><title>Node3</title>
<g id="a_node3"><a xlink:href="class_point.html#a64a5fe8c9b1d1a1543aaa64031537380" target="_top" xlink:title="Point::isAlone">
<polygon fill="white" stroke="black" points="442.5,-117.5 442.5,-136.5 519.5,-136.5 519.5,-117.5 442.5,-117.5"/>
<text text-anchor="middle" x="481" y="-124.5" font-family="Helvetica,sans-Serif" font-size="10.00">Point::isAlone</text>
</a>
</g>
</g>
<!-- Node2&#45;&gt;Node3 -->
<g id="edge2" class="edge"><title>Node2&#45;&gt;Node3</title>
<path fill="none" stroke="midnightblue" d="M159.189,-114.499C170.894,-110.736 184.965,-106.866 198,-105 279.916,-93.273 376.178,-106.517 432.406,-116.939"/>
<polygon fill="midnightblue" stroke="midnightblue" points="431.949,-120.415 442.427,-118.845 433.257,-113.538 431.949,-120.415"/>
</g>
<!-- Node2&#45;&gt;Node4 -->
<g id="edge3" class="edge"><title>Node2&#45;&gt;Node4</title>
<path fill="none" stroke="midnightblue" d="M140.045,-133.701C151.059,-148.323 173.631,-176.19 198,-194 203.34,-197.903 209.416,-201.418 215.466,-204.478"/>
<polygon fill="midnightblue" stroke="midnightblue" points="214.307,-207.801 224.844,-208.902 217.294,-201.47 214.307,-207.801"/>
</g>
<!-- Node5 -->
<g id="node5" class="node"><title>Node5</title>
<g id="a_node5"><a xlink:href="class_point.html#afa7d33502738b0b3df186a91e11ff2a8" target="_top" xlink:title="Point::origin">
<polygon fill="white" stroke="black" points="338,-159.5 338,-178.5 406,-178.5 406,-159.5 338,-159.5"/>
<text text-anchor="middle" x="372" y="-166.5" font-family="Helvetica,sans-Serif" font-size="10.00">Point::origin</text>
</a>
</g>
</g>
<!-- Node2&#45;&gt;Node5 -->
<g id="edge9" class="edge"><title>Node2&#45;&gt;Node5</title>
<path fill="none" stroke="midnightblue" d="M145.62,-133.607C158.152,-142.537 178.293,-155.294 198,-161 240.846,-173.406 292.132,-174.12 327.686,-172.527"/>
<polygon fill="midnightblue" stroke="midnightblue" points="327.931,-176.019 337.732,-171.996 327.562,-169.029 327.931,-176.019"/>
</g>
<!-- Node7 -->
<g id="node7" class="node"><title>Node7</title>
<g id="a_node7"><a xlink:href="class_point.html#a2226d8a3fb283b0b3c1f69106df144ba" target="_top" xlink:title="Fonction recuperant le valeur de l&#39;ordonée. ">
<polygon fill="white" stroke="black" points="225,-114.5 225,-133.5 275,-133.5 275,-114.5 225,-114.5"/>
<text text-anchor="middle" x="250" y="-121.5" font-family="Helvetica,sans-Serif" font-size="10.00">Point::y</text>
</a>
</g>
</g>
<!-- Node2&#45;&gt;Node7 -->
<g id="edge10" class="edge"><title>Node2&#45;&gt;Node7</title>
<path fill="none" stroke="midnightblue" d="M161.674,-124C177.787,-124 197.997,-124 214.915,-124"/>
<polygon fill="midnightblue" stroke="midnightblue" points="214.958,-127.5 224.958,-124 214.958,-120.5 214.958,-127.5"/>
</g>
<!-- Node8 -->
<g id="node8" class="node"><title>Node8</title>
<g id="a_node8"><a xlink:href="jquery_8js.html#a2335e57f79b6acfb6de59c235dc8a83e" target="_top" xlink:title="p">
<polygon fill="white" stroke="black" points="235.5,-0.5 235.5,-19.5 264.5,-19.5 264.5,-0.5 235.5,-0.5"/>
<text text-anchor="middle" x="250" y="-7.5" font-family="Helvetica,sans-Serif" font-size="10.00">p</text>
</a>
</g>
</g>
<!-- Node2&#45;&gt;Node8 -->
<g id="edge14" class="edge"><title>Node2&#45;&gt;Node8</title>
<path fill="none" stroke="midnightblue" d="M137.084,-114.478C145.657,-95.5607 167.303,-53.0058 198,-29 206.004,-22.7411 216.282,-18.3879 225.511,-15.4438"/>
<polygon fill="midnightblue" stroke="midnightblue" points="226.628,-18.7655 235.31,-12.692 224.736,-12.0263 226.628,-18.7655"/>
</g>
<!-- Node9 -->
<g id="node9" class="node"><title>Node9</title>
<g id="a_node9"><a xlink:href="class_group_points.html#a5d0d00417a192136922c27c8ce8ff98f" target="_top" xlink:title="GroupPoints::points">
<polygon fill="white" stroke="black" points="198.5,-38.5 198.5,-57.5 301.5,-57.5 301.5,-38.5 198.5,-38.5"/>
<text text-anchor="middle" x="250" y="-45.5" font-family="Helvetica,sans-Serif" font-size="10.00">GroupPoints::points</text>
</a>
</g>
</g>
<!-- Node2&#45;&gt;Node9 -->
<g id="edge15" class="edge"><title>Node2&#45;&gt;Node9</title>
<path fill="none" stroke="midnightblue" d="M143.457,-114.343C155.841,-103.222 177.395,-84.8407 198,-72 203.859,-68.3489 210.362,-64.8874 216.708,-61.7885"/>
<polygon fill="midnightblue" stroke="midnightblue" points="218.232,-64.9397 225.803,-57.5276 215.262,-58.601 218.232,-64.9397"/>
</g>
<!-- Node4&#45;&gt;Node3 -->
<g id="edge4" class="edge"><title>Node4&#45;&gt;Node3</title>
<path fill="none" stroke="midnightblue" d="M275.103,-217.82C306.957,-216.619 363.947,-211.072 406,-188 426.396,-176.81 423.886,-164.599 442,-150 445.541,-147.146 449.466,-144.387 453.412,-141.83"/>
<polygon fill="midnightblue" stroke="midnightblue" points="455.247,-144.811 461.939,-136.597 451.586,-138.844 455.247,-144.811"/>
</g>
<!-- Node4&#45;&gt;Node4 -->
<g id="edge8" class="edge"><title>Node4&#45;&gt;Node4</title>
<path fill="none" stroke="midnightblue" d="M231.813,-227.757C222.965,-236.565 229.027,-246 250,-246 263.436,-246 270.752,-242.128 271.949,-237.029"/>
<polygon fill="midnightblue" stroke="midnightblue" points="275.19,-235.707 268.187,-227.757 268.704,-238.339 275.19,-235.707"/>
</g>
<!-- Node4&#45;&gt;Node5 -->
<g id="edge5" class="edge"><title>Node4&#45;&gt;Node5</title>
<path fill="none" stroke="midnightblue" d="M274.422,-208.436C292.593,-201.016 318.002,-190.641 338.197,-182.395"/>
<polygon fill="midnightblue" stroke="midnightblue" points="339.702,-185.561 347.637,-178.54 337.056,-179.08 339.702,-185.561"/>
</g>
<!-- Node5&#45;&gt;Node3 -->
<g id="edge6" class="edge"><title>Node5&#45;&gt;Node3</title>
<path fill="none" stroke="midnightblue" d="M397.28,-159.47C411.679,-153.817 430.152,-146.566 445.987,-140.351"/>
<polygon fill="midnightblue" stroke="midnightblue" points="447.416,-143.55 455.446,-136.638 444.858,-137.034 447.416,-143.55"/>
</g>
<!-- Node6 -->
<g id="node6" class="node"><title>Node6</title>
<g id="a_node6"><a xlink:href="class_point.html#a97edc6e6415d6ccc6efcff5fcbc97f15" target="_top" xlink:title="Constructeur par défaut de la classe Point. ">
<polygon fill="white" stroke="black" points="447,-159.5 447,-178.5 515,-178.5 515,-159.5 447,-159.5"/>
<text text-anchor="middle" x="481" y="-166.5" font-family="Helvetica,sans-Serif" font-size="10.00">Point::Point</text>
</a>
</g>
</g>
<!-- Node5&#45;&gt;Node6 -->
<g id="edge7" class="edge"><title>Node5&#45;&gt;Node6</title>
<path fill="none" stroke="midnightblue" d="M406.269,-169C415.831,-169 426.403,-169 436.485,-169"/>
<polygon fill="midnightblue" stroke="midnightblue" points="436.752,-172.5 446.752,-169 436.752,-165.5 436.752,-172.5"/>
</g>
<!-- Node7&#45;&gt;Node3 -->
<g id="edge11" class="edge"><title>Node7&#45;&gt;Node3</title>
<path fill="none" stroke="midnightblue" d="M275.074,-124.315C312.198,-124.802 384.139,-125.744 432.131,-126.373"/>
<polygon fill="midnightblue" stroke="midnightblue" points="432.24,-129.875 442.285,-126.506 432.331,-122.875 432.24,-129.875"/>
</g>
<!-- Node7&#45;&gt;Node5 -->
<g id="edge12" class="edge"><title>Node7&#45;&gt;Node5</title>
<path fill="none" stroke="midnightblue" d="M275.284,-133.106C292.743,-139.654 316.545,-148.579 336.046,-155.892"/>
<polygon fill="midnightblue" stroke="midnightblue" points="334.918,-159.207 345.51,-159.441 337.375,-152.653 334.918,-159.207"/>
</g>
<!-- Node7&#45;&gt;Node7 -->
<g id="edge13" class="edge"><title>Node7&#45;&gt;Node7</title>
<path fill="none" stroke="midnightblue" d="M231.813,-133.757C222.965,-142.565 229.027,-152 250,-152 263.436,-152 270.752,-148.128 271.949,-143.029"/>
<polygon fill="midnightblue" stroke="midnightblue" points="275.19,-141.707 268.187,-133.757 268.704,-144.339 275.19,-141.707"/>
</g>
</g>
</svg>
        <g id="navigator" transform="translate(0 0)" fill="#404254">
                <rect fill="#f2f5e9" fill-opacity="0.5" stroke="#606060" stroke-width=".5" x="0" y="0" width="60" height="60"/>
                <use id="zoomplus" xlink:href="#zoomPlus" x="17" y="9" onmousedown="handleZoom(evt,'in')"/>
                <use id="zoomminus" xlink:href="#zoomMin" x="42" y="9" onmousedown="handleZoom(evt,'out')"/>
                <use id="reset" xlink:href="#resetDef" x="30" y="36" onmousedown="handleReset()"/>
                <g id="arrowUp" xlink:href="#dirArrow" transform="translate(30 24)" onmousedown="handlePan(0,-1)">
                  <use xlink:href="#rim" fill="#404040">
                        <set attributeName="fill" to="#808080" begin="arrowUp.mouseover" end="arrowUp.mouseout"/>
                  </use>
                  <path fill="none" stroke="white" stroke-width="1.5" d="M0,-3.0v7 M-2.5,-0.5L0,-3.0L2.5,-0.5"/>
                </g>
                <g id="arrowRight" xlink:href="#dirArrow" transform="rotate(90) translate(36 -43)" onmousedown="handlePan(1,0)">
                  <use xlink:href="#rim" fill="#404040">
                        <set attributeName="fill" to="#808080" begin="arrowRight.mouseover" end="arrowRight.mouseout"/>
                  </use>
                  <path fill="none" stroke="white" stroke-width="1.5" d="M0,-3.0v7 M-2.5,-0.5L0,-3.0L2.5,-0.5"/>
                </g>
                <g id="arrowDown" xlink:href="#dirArrow" transform="rotate(180) translate(-30 -48)" onmousedown="handlePan(0,1)">
                  <use xlink:href="#rim" fill="#404040">
                        <set attributeName="fill" to="#808080" begin="arrowDown.mouseover" end="arrowDown.mouseout"/>
                  </use>
                  <path fill="none" stroke="white" stroke-width="1.5" d="M0,-3.0v7 M-2.5,-0.5L0,-3.0L2.5,-0.5"/>
                </g>
                <g id="arrowLeft" xlink:href="#dirArrow" transform="rotate(270) translate(-36 17)" onmousedown="handlePan(-1,0)">
                  <use xlink:href="#rim" fill="#404040">
                        <set attributeName="fill" to="#808080" begin="arrowLeft.mouseover" end="arrowLeft.mouseout"/>
                  </use>
                  <path fill="none" stroke="white" stroke-width="1.5" d="M0,-3.0v7 M-2.5,-0.5L0,-3.0L2.5,-0.5"/>
                </g>
        </g>
        <svg viewBox="0 0 15 15" width="100%" height="30px" preserveAspectRatio="xMaxYMin meet">
         <g id="arrow_out" transform="scale(0.3 0.3)">
          <a xlink:href="class_point_a3cdf750fa08f24c2aaaf7ada42df5ad8_cgraph_org.svg" target="_base">
           <rect id="button" ry="5" rx="5" y="6" x="6" height="38" width="38"
                fill="#f2f5e9" fill-opacity="0.5" stroke="#606060" stroke-width="1.0"/>
           <path id="arrow"
             d="M 11.500037,31.436501 C 11.940474,20.09759 22.043105,11.32322 32.158766,21.979434 L 37.068811,17.246167 C 37.068811,17.246167 37.088388,32 37.088388,32 L 22.160133,31.978069 C 22.160133,31.978069 26.997745,27.140456 26.997745,27.140456 C 18.528582,18.264221 13.291696,25.230495 11.500037,31.436501 z"
             style="fill:#404040;"/>
          </a>
         </g>
        </svg>
</svg>
