<?xml version="1.0" encoding="UTF-8" standalone="no"?>
<!DOCTYPE svg PUBLIC "-//W3C//DTD SVG 1.1//EN"
 "http://www.w3.org/Graphics/SVG/1.1/DTD/svg11.dtd">
<!-- Generated by graphviz version 2.36.0 (20140111.2315)
 -->
<!-- Title: MainWindow::MainWindow Pages: 1 -->
<svg width="762pt" height="238pt"
 viewBox="0.00 0.00 762.00 238.10" xmlns="http://www.w3.org/2000/svg" xmlns:xlink="http://www.w3.org/1999/xlink">
<g id="graph0" class="graph" transform="scale(1 1) rotate(0) translate(4 234.102)">
<title>MainWindow::MainWindow</title>
<polygon fill="white" stroke="none" points="-4,4 -4,-234.102 758,-234.102 758,4 -4,4"/>
<!-- Node1 -->
<g id="node1" class="node"><title>Node1</title>
<polygon fill="#bfbfbf" stroke="black" points="0.5,-103.602 0.5,-122.602 135.5,-122.602 135.5,-103.602 0.5,-103.602"/>
<text text-anchor="middle" x="68" y="-110.602" font-family="Helvetica,sans-Serif" font-size="10.00">MainWindow::MainWindow</text>
</g>
<!-- Node2 -->
<g id="node2" class="node"><title>Node2</title>
<g id="a_node2"><a xlink:href="class_graphics_item.html#aed0cec95681d8c30111700df153bea9f" target="_top" xlink:title="GraphicsItem::relative">
<polygon fill="white" stroke="black" points="172.5,-210.602 172.5,-229.602 285.5,-229.602 285.5,-210.602 172.5,-210.602"/>
<text text-anchor="middle" x="229" y="-217.602" font-family="Helvetica,sans-Serif" font-size="10.00">GraphicsItem::relative</text>
</a>
</g>
</g>
<!-- Node1&#45;&gt;Node2 -->
<g id="edge1" class="edge"><title>Node1&#45;&gt;Node2</title>
<path fill="none" stroke="midnightblue" d="M79.1103,-122.848C96.7973,-139.516 135.004,-173.846 172,-196.102 178.356,-199.926 185.432,-203.455 192.356,-206.565"/>
<polygon fill="midnightblue" stroke="midnightblue" points="191.052,-209.814 201.623,-210.534 193.808,-203.38 191.052,-209.814"/>
</g>
<!-- Node3 -->
<g id="node3" class="node"><title>Node3</title>
<g id="a_node3"><a xlink:href="class_point.html#a43923c490fb5439d7d8a041e86520c34" target="_top" xlink:title="permet la modification des valeurs du point. ">
<polygon fill="white" stroke="black" points="604.5,-85.6019 604.5,-104.602 663.5,-104.602 663.5,-85.6019 604.5,-85.6019"/>
<text text-anchor="middle" x="634" y="-92.6019" font-family="Helvetica,sans-Serif" font-size="10.00">Point::set</text>
</a>
</g>
</g>
<!-- Node1&#45;&gt;Node3 -->
<g id="edge2" class="edge"><title>Node1&#45;&gt;Node3</title>
<path fill="none" stroke="midnightblue" d="M83.5882,-122.628C102.885,-134.605 138.39,-154.515 172,-162.102 330.174,-197.808 523.361,-136.487 599.694,-108.219"/>
<polygon fill="midnightblue" stroke="midnightblue" points="601.127,-111.42 609.255,-104.623 598.663,-104.868 601.127,-111.42"/>
</g>
<!-- Node6 -->
<g id="node6" class="node"><title>Node6</title>
<g id="a_node6"><a xlink:href="class_graphics_rectangle.html#adae2b3c26a2d3ae81e98cbb525b14753" target="_top" xlink:title="recupere les coordonnées. ">
<polygon fill="white" stroke="black" points="176,-123.102 176,-153.102 282,-153.102 282,-123.102 176,-123.102"/>
<text text-anchor="start" x="184" y="-141.102" font-family="Helvetica,sans-Serif" font-size="10.00">GraphicsRectangle::</text>
<text text-anchor="middle" x="229" y="-130.102" font-family="Helvetica,sans-Serif" font-size="10.00">topLeft</text>
</a>
</g>
</g>
<!-- Node1&#45;&gt;Node6 -->
<g id="edge5" class="edge"><title>Node1&#45;&gt;Node6</title>
<path fill="none" stroke="midnightblue" d="M129.565,-122.625C141.495,-124.5 154.029,-126.471 166.005,-128.354"/>
<polygon fill="midnightblue" stroke="midnightblue" points="165.486,-131.816 175.908,-129.911 166.573,-124.901 165.486,-131.816"/>
</g>
<!-- Node7 -->
<g id="node7" class="node"><title>Node7</title>
<g id="a_node7"><a xlink:href="class_graphics_rectangle.html#a4aa5825911d76e0d00fd9d08cddd3676" target="_top" xlink:title="GraphicsRectangle::\lbottomRight">
<polygon fill="white" stroke="black" points="176,-74.1019 176,-104.102 282,-104.102 282,-74.1019 176,-74.1019"/>
<text text-anchor="start" x="184" y="-92.1019" font-family="Helvetica,sans-Serif" font-size="10.00">GraphicsRectangle::</text>
<text text-anchor="middle" x="229" y="-81.1019" font-family="Helvetica,sans-Serif" font-size="10.00">bottomRight</text>
</a>
</g>
</g>
<!-- Node1&#45;&gt;Node7 -->
<g id="edge6" class="edge"><title>Node1&#45;&gt;Node7</title>
<path fill="none" stroke="midnightblue" d="M132.298,-103.548C143.371,-101.876 154.881,-100.139 165.921,-98.4724"/>
<polygon fill="midnightblue" stroke="midnightblue" points="166.535,-101.919 175.9,-96.966 165.49,-94.9978 166.535,-101.919"/>
</g>
<!-- Node8 -->
<g id="node8" class="node"><title>Node8</title>
<g id="a_node8"><a xlink:href="class_point.html#a4fa7ffadfb6c9de033bfef5decdaa66e" target="_top" xlink:title="Point::join">
<polygon fill="white" stroke="black" points="199,-35.6019 199,-54.6019 259,-54.6019 259,-35.6019 199,-35.6019"/>
<text text-anchor="middle" x="229" y="-42.6019" font-family="Helvetica,sans-Serif" font-size="10.00">Point::join</text>
</a>
</g>
</g>
<!-- Node1&#45;&gt;Node8 -->
<g id="edge7" class="edge"><title>Node1&#45;&gt;Node8</title>
<path fill="none" stroke="midnightblue" d="M87.3154,-103.587C107.688,-93.1937 141.725,-76.3902 172,-64.1019 177.546,-61.851 183.47,-59.64 189.312,-57.5674"/>
<polygon fill="midnightblue" stroke="midnightblue" points="190.676,-60.7993 198.986,-54.2274 188.391,-54.1826 190.676,-60.7993"/>
</g>
<!-- Node14 -->
<g id="node14" class="node"><title>Node14</title>
<g id="a_node14"><a xlink:href="class_point.html#a04ce786cebfd535bc380833a71405930" target="_top" xlink:title="Point::absolute">
<polygon fill="white" stroke="black" points="474,-9.60193 474,-28.6019 556,-28.6019 556,-9.60193 474,-9.60193"/>
<text text-anchor="middle" x="515" y="-16.6019" font-family="Helvetica,sans-Serif" font-size="10.00">Point::absolute</text>
</a>
</g>
</g>
<!-- Node1&#45;&gt;Node14 -->
<g id="edge18" class="edge"><title>Node1&#45;&gt;Node14</title>
<path fill="none" stroke="midnightblue" d="M76.4836,-103.383C91.887,-84.2623 129.297,-42.2207 172,-26.1019 270.033,10.9017 395.394,0.22271 463.843,-9.98855"/>
<polygon fill="midnightblue" stroke="midnightblue" points="463.505,-13.4779 473.923,-11.5509 464.578,-6.56047 463.505,-13.4779"/>
</g>
<!-- Node4 -->
<g id="node4" class="node"><title>Node4</title>
<g id="a_node4"><a xlink:href="class_point.html#a2aa897aa68c2f3e6df3a46738f27a0ac" target="_top" xlink:title="recupere la valeur de l&#39;absisse du Point. ">
<polygon fill="white" stroke="black" points="704,-104.602 704,-123.602 754,-123.602 754,-104.602 704,-104.602"/>
<text text-anchor="middle" x="729" y="-111.602" font-family="Helvetica,sans-Serif" font-size="10.00">Point::x</text>
</a>
</g>
</g>
<!-- Node3&#45;&gt;Node4 -->
<g id="edge3" class="edge"><title>Node3&#45;&gt;Node4</title>
<path fill="none" stroke="midnightblue" d="M663.662,-100.958C673.248,-102.916 684.026,-105.118 693.98,-107.152"/>
<polygon fill="midnightblue" stroke="midnightblue" points="693.472,-110.62 703.97,-109.193 694.873,-103.762 693.472,-110.62"/>
</g>
<!-- Node5 -->
<g id="node5" class="node"><title>Node5</title>
<g id="a_node5"><a xlink:href="class_point.html#a2226d8a3fb283b0b3c1f69106df144ba" target="_top" xlink:title="Fonction recuperant le valeur de l&#39;ordonée. ">
<polygon fill="white" stroke="black" points="704,-66.6019 704,-85.6019 754,-85.6019 754,-66.6019 704,-66.6019"/>
<text text-anchor="middle" x="729" y="-73.6019" font-family="Helvetica,sans-Serif" font-size="10.00">Point::y</text>
</a>
</g>
</g>
<!-- Node3&#45;&gt;Node5 -->
<g id="edge4" class="edge"><title>Node3&#45;&gt;Node5</title>
<path fill="none" stroke="midnightblue" d="M663.662,-89.2463C673.248,-87.2879 684.026,-85.0859 693.98,-83.0523"/>
<polygon fill="midnightblue" stroke="midnightblue" points="694.873,-86.4422 703.97,-81.0113 693.472,-79.5839 694.873,-86.4422"/>
</g>
<!-- Node9 -->
<g id="node9" class="node"><title>Node9</title>
<g id="a_node9"><a xlink:href="class_point.html#a498f108de0c0351dfb3177c681a7a1f2" target="_top" xlink:title="Point::beAlone">
<polygon fill="white" stroke="black" points="336,-123.602 336,-142.602 416,-142.602 416,-123.602 336,-123.602"/>
<text text-anchor="middle" x="376" y="-130.602" font-family="Helvetica,sans-Serif" font-size="10.00">Point::beAlone</text>
</a>
</g>
</g>
<!-- Node8&#45;&gt;Node9 -->
<g id="edge8" class="edge"><title>Node8&#45;&gt;Node9</title>
<path fill="none" stroke="midnightblue" d="M259.285,-51.3116C268.426,-54.1894 278.159,-58.3013 286,-64.1019 308.014,-80.3875 300.126,-97.6285 322,-114.102 324.458,-115.953 327.114,-117.637 329.88,-119.165"/>
<polygon fill="midnightblue" stroke="midnightblue" points="328.461,-122.367 338.991,-123.538 331.49,-116.056 328.461,-122.367"/>
</g>
<!-- Node10 -->
<g id="node10" class="node"><title>Node10</title>
<g id="a_node10"><a xlink:href="class_point.html#a6cd48f7546776ab3d245ba3ecaea1112" target="_top" xlink:title="Point::changed">
<polygon fill="white" stroke="black" points="335,-85.6019 335,-104.602 417,-104.602 417,-85.6019 335,-85.6019"/>
<text text-anchor="middle" x="376" y="-92.6019" font-family="Helvetica,sans-Serif" font-size="10.00">Point::changed</text>
</a>
</g>
</g>
<!-- Node8&#45;&gt;Node10 -->
<g id="edge9" class="edge"><title>Node8&#45;&gt;Node10</title>
<path fill="none" stroke="midnightblue" d="M258.217,-54.6259C267.111,-57.6415 276.971,-60.9977 286,-64.1019 303.17,-70.0049 322.178,-76.6152 338.203,-82.2104"/>
<polygon fill="midnightblue" stroke="midnightblue" points="337.158,-85.5527 347.753,-85.5476 339.468,-78.9446 337.158,-85.5527"/>
</g>
<!-- Node11 -->
<g id="node11" class="node"><title>Node11</title>
<g id="a_node11"><a xlink:href="class_point.html#aa346b22aa03d377bfc90b5b1e11f074c" target="_top" xlink:title="Point::friendChanged">
<polygon fill="white" stroke="black" points="322,-47.6019 322,-66.6019 430,-66.6019 430,-47.6019 322,-47.6019"/>
<text text-anchor="middle" x="376" y="-54.6019" font-family="Helvetica,sans-Serif" font-size="10.00">Point::friendChanged</text>
</a>
</g>
</g>
<!-- Node8&#45;&gt;Node11 -->
<g id="edge10" class="edge"><title>Node8&#45;&gt;Node11</title>
<path fill="none" stroke="midnightblue" d="M259.343,-47.5303C274.494,-48.7842 293.6,-50.3654 311.894,-51.8793"/>
<polygon fill="midnightblue" stroke="midnightblue" points="311.688,-55.3742 321.943,-52.711 312.266,-48.3981 311.688,-55.3742"/>
</g>
<!-- Node8&#45;&gt;Node14 -->
<g id="edge17" class="edge"><title>Node8&#45;&gt;Node14</title>
<path fill="none" stroke="midnightblue" d="M259.058,-42.4417C307.203,-38.0341 404.091,-29.164 463.58,-23.7178"/>
<polygon fill="midnightblue" stroke="midnightblue" points="464.234,-27.1727 473.873,-22.7756 463.595,-20.2019 464.234,-27.1727"/>
</g>
<!-- Node11&#45;&gt;Node3 -->
<g id="edge16" class="edge"><title>Node11&#45;&gt;Node3</title>
<path fill="none" stroke="midnightblue" d="M417.605,-66.6381C432.735,-69.9621 450.095,-73.5057 466,-76.1019 509.716,-83.2378 560.305,-88.5915 594.246,-91.7676"/>
<polygon fill="midnightblue" stroke="midnightblue" points="593.941,-95.2542 604.219,-92.6829 594.581,-88.2835 593.941,-95.2542"/>
</g>
<!-- Node12 -->
<g id="node12" class="node"><title>Node12</title>
<g id="a_node12"><a xlink:href="class_point.html#ab536377f38dbf8fd36875838648a1825" target="_top" xlink:title="Point::setAbsolute">
<polygon fill="white" stroke="black" points="466.5,-47.6019 466.5,-66.6019 563.5,-66.6019 563.5,-47.6019 466.5,-47.6019"/>
<text text-anchor="middle" x="515" y="-54.6019" font-family="Helvetica,sans-Serif" font-size="10.00">Point::setAbsolute</text>
</a>
</g>
</g>
<!-- Node11&#45;&gt;Node12 -->
<g id="edge11" class="edge"><title>Node11&#45;&gt;Node12</title>
<path fill="none" stroke="midnightblue" d="M430.36,-57.1019C438.799,-57.1019 447.562,-57.1019 456.099,-57.1019"/>
<polygon fill="midnightblue" stroke="midnightblue" points="456.363,-60.602 466.363,-57.1019 456.363,-53.602 456.363,-60.602"/>
</g>
<!-- Node11&#45;&gt;Node14 -->
<g id="edge14" class="edge"><title>Node11&#45;&gt;Node14</title>
<path fill="none" stroke="midnightblue" d="M411.571,-47.5129C429.175,-42.63 450.779,-36.6376 469.601,-31.417"/>
<polygon fill="midnightblue" stroke="midnightblue" points="470.739,-34.7334 479.44,-28.6879 468.868,-27.9881 470.739,-34.7334"/>
</g>
<!-- Node12&#45;&gt;Node3 -->
<g id="edge12" class="edge"><title>Node12&#45;&gt;Node3</title>
<path fill="none" stroke="midnightblue" d="M545.524,-66.6909C560.436,-71.5342 578.709,-77.4689 594.69,-82.6595"/>
<polygon fill="midnightblue" stroke="midnightblue" points="593.702,-86.0185 604.294,-85.7787 595.865,-79.3608 593.702,-86.0185"/>
</g>
<!-- Node13 -->
<g id="node13" class="node"><title>Node13</title>
<g id="a_node13"><a xlink:href="class_point.html#ad92f2337b839a94ce97dcdb439b4325a" target="_top" xlink:title="Constructeur par défaut de la classe Point. ">
<polygon fill="white" stroke="black" points="600,-28.6019 600,-47.6019 668,-47.6019 668,-28.6019 600,-28.6019"/>
<text text-anchor="middle" x="634" y="-35.6019" font-family="Helvetica,sans-Serif" font-size="10.00">Point::Point</text>
</a>
</g>
</g>
<!-- Node12&#45;&gt;Node13 -->
<g id="edge13" class="edge"><title>Node12&#45;&gt;Node13</title>
<path fill="none" stroke="midnightblue" d="M563.588,-49.3739C572.224,-47.9715 581.189,-46.5157 589.693,-45.1347"/>
<polygon fill="midnightblue" stroke="midnightblue" points="590.476,-48.5535 599.785,-43.4957 589.354,-41.644 590.476,-48.5535"/>
</g>
<!-- Node14&#45;&gt;Node13 -->
<g id="edge15" class="edge"><title>Node14&#45;&gt;Node13</title>
<path fill="none" stroke="midnightblue" d="M556.265,-25.6407C566.985,-27.3815 578.612,-29.2697 589.497,-31.0373"/>
<polygon fill="midnightblue" stroke="midnightblue" points="589.219,-34.538 599.651,-32.6863 590.341,-27.6285 589.219,-34.538"/>
</g>
</g>
</svg>
