<?xml version="1.0" encoding="UTF-8" standalone="no"?>
<!DOCTYPE svg PUBLIC "-//W3C//DTD SVG 1.1//EN"
 "http://www.w3.org/Graphics/SVG/1.1/DTD/svg11.dtd">
<!-- Generated by graphviz version 2.36.0 (20140111.2315)
 -->
<!-- Title: Widget::Widget Pages: 1 -->
<svg width="564pt" height="280pt"
 viewBox="0.00 0.00 564.00 280.00" xmlns="http://www.w3.org/2000/svg" xmlns:xlink="http://www.w3.org/1999/xlink">
<g id="graph0" class="graph" transform="scale(1 1) rotate(0) translate(4 276)">
<title>Widget::Widget</title>
<polygon fill="white" stroke="none" points="-4,4 -4,-276 560,-276 560,4 -4,4"/>
<!-- Node1 -->
<g id="node1" class="node"><title>Node1</title>
<polygon fill="#bfbfbf" stroke="black" points="0,-123.5 0,-142.5 84,-142.5 84,-123.5 0,-123.5"/>
<text text-anchor="middle" x="42" y="-130.5" font-family="Helvetica,sans-Serif" font-size="10.00">Widget::Widget</text>
</g>
<!-- Node2 -->
<g id="node2" class="node"><title>Node2</title>
<g id="a_node2"><a xlink:href="class_widget.html#a8dce9d5665f68ca9cf374de4f5dce4be" target="_top" xlink:title="Widget::widthChanged">
<polygon fill="white" stroke="black" points="122,-246.5 122,-265.5 238,-265.5 238,-246.5 122,-246.5"/>
<text text-anchor="middle" x="180" y="-253.5" font-family="Helvetica,sans-Serif" font-size="10.00">Widget::widthChanged</text>
</a>
</g>
</g>
<!-- Node1&#45;&gt;Node2 -->
<g id="edge1" class="edge"><title>Node1&#45;&gt;Node2</title>
<path fill="none" stroke="midnightblue" d="M47.7125,-142.774C57.995,-163.097 84.4046,-210.165 120,-236 123.255,-238.363 126.809,-240.461 130.507,-242.321"/>
<polygon fill="midnightblue" stroke="midnightblue" points="129.345,-245.634 139.907,-246.473 132.174,-239.231 129.345,-245.634"/>
</g>
<!-- Node3 -->
<g id="node3" class="node"><title>Node3</title>
<g id="a_node3"><a xlink:href="class_graphics_rectangle.html#a3efd2295cd742f75de829851bf7ca3dd" target="_top" xlink:title="GraphicsRectangle::\lsetWidth">
<polygon fill="white" stroke="black" points="127,-197 127,-227 233,-227 233,-197 127,-197"/>
<text text-anchor="start" x="135" y="-215" font-family="Helvetica,sans-Serif" font-size="10.00">GraphicsRectangle::</text>
<text text-anchor="middle" x="180" y="-204" font-family="Helvetica,sans-Serif" font-size="10.00">setWidth</text>
</a>
</g>
</g>
<!-- Node1&#45;&gt;Node3 -->
<g id="edge2" class="edge"><title>Node1&#45;&gt;Node3</title>
<path fill="none" stroke="midnightblue" d="M58.8487,-142.648C74.3618,-152.049 98.7006,-166.685 120,-179 127.215,-183.172 134.968,-187.569 142.404,-191.745"/>
<polygon fill="midnightblue" stroke="midnightblue" points="141.154,-195.056 151.59,-196.882 144.571,-188.946 141.154,-195.056"/>
</g>
<!-- Node7 -->
<g id="node7" class="node"><title>Node7</title>
<g id="a_node7"><a xlink:href="class_widget.html#a285c18a864b1e9c982b10d5a7cc6113c" target="_top" xlink:title="Widget::width">
<polygon fill="white" stroke="black" points="141.5,-101.5 141.5,-120.5 218.5,-120.5 218.5,-101.5 141.5,-101.5"/>
<text text-anchor="middle" x="180" y="-108.5" font-family="Helvetica,sans-Serif" font-size="10.00">Widget::width</text>
</a>
</g>
</g>
<!-- Node1&#45;&gt;Node7 -->
<g id="edge7" class="edge"><title>Node1&#45;&gt;Node7</title>
<path fill="none" stroke="midnightblue" d="M84.1736,-126.34C98.9105,-123.956 115.65,-121.248 130.919,-118.778"/>
<polygon fill="midnightblue" stroke="midnightblue" points="131.9,-122.165 141.212,-117.113 130.782,-115.255 131.9,-122.165"/>
</g>
<!-- Node9 -->
<g id="node9" class="node"><title>Node9</title>
<g id="a_node9"><a xlink:href="class_widget.html#a7925a19f1009e7125ab34b6d8188e07a" target="_top" xlink:title="Widget::heightChanged">
<polygon fill="white" stroke="black" points="120.5,-63.5 120.5,-82.5 239.5,-82.5 239.5,-63.5 120.5,-63.5"/>
<text text-anchor="middle" x="180" y="-70.5" font-family="Helvetica,sans-Serif" font-size="10.00">Widget::heightChanged</text>
</a>
</g>
</g>
<!-- Node1&#45;&gt;Node9 -->
<g id="edge9" class="edge"><title>Node1&#45;&gt;Node9</title>
<path fill="none" stroke="midnightblue" d="M59.1089,-123.335C74.409,-114.42 98.2426,-101.21 120,-92 125.141,-89.824 130.621,-87.7497 136.091,-85.8253"/>
<polygon fill="midnightblue" stroke="midnightblue" points="137.496,-89.0454 145.853,-82.5335 135.259,-82.4124 137.496,-89.0454"/>
</g>
<!-- Node10 -->
<g id="node10" class="node"><title>Node10</title>
<g id="a_node10"><a xlink:href="class_graphics_rectangle.html#aea349ac359e4f2227f1da772c1a26ab6" target="_top" xlink:title="GraphicsRectangle::\lsetHeight">
<polygon fill="white" stroke="black" points="127,-140 127,-170 233,-170 233,-140 127,-140"/>
<text text-anchor="start" x="135" y="-158" font-family="Helvetica,sans-Serif" font-size="10.00">GraphicsRectangle::</text>
<text text-anchor="middle" x="180" y="-147" font-family="Helvetica,sans-Serif" font-size="10.00">setHeight</text>
</a>
</g>
</g>
<!-- Node1&#45;&gt;Node10 -->
<g id="edge10" class="edge"><title>Node1&#45;&gt;Node10</title>
<path fill="none" stroke="midnightblue" d="M84.1736,-139.66C94.4689,-141.326 105.741,-143.149 116.807,-144.939"/>
<polygon fill="midnightblue" stroke="midnightblue" points="116.447,-148.427 126.878,-146.568 117.565,-141.516 116.447,-148.427"/>
</g>
<!-- Node14 -->
<g id="node14" class="node"><title>Node14</title>
<g id="a_node14"><a xlink:href="class_widget.html#a5122729ed923e75463ee8f8bbcdb0cfa" target="_top" xlink:title="Widget::height">
<polygon fill="white" stroke="black" points="140,-9.5 140,-28.5 220,-28.5 220,-9.5 140,-9.5"/>
<text text-anchor="middle" x="180" y="-16.5" font-family="Helvetica,sans-Serif" font-size="10.00">Widget::height</text>
</a>
</g>
</g>
<!-- Node1&#45;&gt;Node14 -->
<g id="edge19" class="edge"><title>Node1&#45;&gt;Node14</title>
<path fill="none" stroke="midnightblue" d="M50.8441,-123.452C64.0438,-107.753 92.0073,-76.0327 120,-54 129.601,-46.4429 140.983,-39.3217 151.176,-33.5007"/>
<polygon fill="midnightblue" stroke="midnightblue" points="153.067,-36.4541 160.117,-28.5453 149.674,-30.3315 153.067,-36.4541"/>
</g>
<!-- Node4 -->
<g id="node4" class="node"><title>Node4</title>
<g id="a_node4"><a xlink:href="class_graphics_item.html#ab1266d26ff6aa338959c0796ef915fc4" target="_top" xlink:title="GraphicsItem::setAnchor">
<polygon fill="white" stroke="black" points="276.5,-202.5 276.5,-221.5 401.5,-221.5 401.5,-202.5 276.5,-202.5"/>
<text text-anchor="middle" x="339" y="-209.5" font-family="Helvetica,sans-Serif" font-size="10.00">GraphicsItem::setAnchor</text>
</a>
</g>
</g>
<!-- Node3&#45;&gt;Node4 -->
<g id="edge3" class="edge"><title>Node3&#45;&gt;Node4</title>
<path fill="none" stroke="midnightblue" d="M233.279,-212C243.864,-212 255.169,-212 266.29,-212"/>
<polygon fill="midnightblue" stroke="midnightblue" points="266.426,-215.5 276.426,-212 266.426,-208.5 266.426,-215.5"/>
</g>
<!-- Node5 -->
<g id="node5" class="node"><title>Node5</title>
<g id="a_node5"><a xlink:href="class_graphics_item.html#a742f444cb7d1a142dec52ee777dd51c3" target="_top" xlink:title="GraphicsItem::anchor">
<polygon fill="white" stroke="black" points="442,-189.5 442,-208.5 552,-208.5 552,-189.5 442,-189.5"/>
<text text-anchor="middle" x="497" y="-196.5" font-family="Helvetica,sans-Serif" font-size="10.00">GraphicsItem::anchor</text>
</a>
</g>
</g>
<!-- Node3&#45;&gt;Node5 -->
<g id="edge5" class="edge"><title>Node3&#45;&gt;Node5</title>
<path fill="none" stroke="midnightblue" d="M233.484,-224.419C247.237,-227.144 262.108,-229.624 276,-231 331.727,-236.518 346.752,-240.146 402,-231 423.669,-227.413 447.052,-219.47 465.076,-212.396"/>
<polygon fill="midnightblue" stroke="midnightblue" points="466.534,-215.582 474.493,-208.588 463.91,-209.092 466.534,-215.582"/>
</g>
<!-- Node6 -->
<g id="node6" class="node"><title>Node6</title>
<g id="a_node6"><a xlink:href="class_point.html#a2226d8a3fb283b0b3c1f69106df144ba" target="_top" xlink:title="Fonction recuperant le valeur de l&#39;ordonée. ">
<polygon fill="white" stroke="black" points="472,-252.5 472,-271.5 522,-271.5 522,-252.5 472,-252.5"/>
<text text-anchor="middle" x="497" y="-259.5" font-family="Helvetica,sans-Serif" font-size="10.00">Point::y</text>
</a>
</g>
</g>
<!-- Node3&#45;&gt;Node6 -->
<g id="edge6" class="edge"><title>Node3&#45;&gt;Node6</title>
<path fill="none" stroke="midnightblue" d="M214.601,-227.046C232.471,-234.36 255.03,-242.519 276,-247 340.676,-260.821 418.248,-262.819 461.858,-262.658"/>
<polygon fill="midnightblue" stroke="midnightblue" points="461.954,-266.157 471.926,-262.579 461.899,-259.157 461.954,-266.157"/>
</g>
<!-- Node4&#45;&gt;Node5 -->
<g id="edge4" class="edge"><title>Node4&#45;&gt;Node5</title>
<path fill="none" stroke="midnightblue" d="M401.655,-206.862C411.516,-206.04 421.741,-205.188 431.662,-204.361"/>
<polygon fill="midnightblue" stroke="midnightblue" points="432.188,-207.83 441.863,-203.511 431.607,-200.854 432.188,-207.83"/>
</g>
<!-- Node8 -->
<g id="node8" class="node"><title>Node8</title>
<g id="a_node8"><a xlink:href="class_widget.html#a64bd53454b3127bbaf26eaad6db28928" target="_top" xlink:title="Widget::minimumWidth">
<polygon fill="white" stroke="black" points="279.5,-38.5 279.5,-57.5 398.5,-57.5 398.5,-38.5 279.5,-38.5"/>
<text text-anchor="middle" x="339" y="-45.5" font-family="Helvetica,sans-Serif" font-size="10.00">Widget::minimumWidth</text>
</a>
</g>
</g>
<!-- Node7&#45;&gt;Node8 -->
<g id="edge8" class="edge"><title>Node7&#45;&gt;Node8</title>
<path fill="none" stroke="midnightblue" d="M214.498,-101.467C222.942,-98.7234 231.905,-95.5119 240,-92 256.791,-84.7155 259.426,-79.7666 276,-72 284.038,-68.2334 292.842,-64.5639 301.226,-61.2731"/>
<polygon fill="midnightblue" stroke="midnightblue" points="302.72,-64.4487 310.805,-57.6008 300.215,-57.9126 302.72,-64.4487"/>
</g>
<!-- Node10&#45;&gt;Node4 -->
<g id="edge11" class="edge"><title>Node10&#45;&gt;Node4</title>
<path fill="none" stroke="midnightblue" d="M216.822,-170.147C234.503,-177.413 256.231,-186.031 276,-193 282.132,-195.162 288.652,-197.315 295.074,-199.354"/>
<polygon fill="midnightblue" stroke="midnightblue" points="294.425,-202.817 305.013,-202.448 296.505,-196.134 294.425,-202.817"/>
</g>
<!-- Node10&#45;&gt;Node5 -->
<g id="edge12" class="edge"><title>Node10&#45;&gt;Node5</title>
<path fill="none" stroke="midnightblue" d="M219.632,-139.987C226.534,-136.924 233.57,-133.545 240,-130 257.059,-120.595 257.411,-110.822 276,-105 329.441,-88.2641 353.468,-77.0599 402,-105 429.615,-120.898 415.223,-144.717 438,-167 445.199,-174.043 454.261,-180.013 463.068,-184.819"/>
<polygon fill="midnightblue" stroke="midnightblue" points="461.566,-187.981 472.065,-189.402 464.743,-181.744 461.566,-187.981"/>
</g>
<!-- Node11 -->
<g id="node11" class="node"><title>Node11</title>
<g id="a_node11"><a xlink:href="class_point.html#a2aa897aa68c2f3e6df3a46738f27a0ac" target="_top" xlink:title="recupere la valeur de l&#39;absisse du Point. ">
<polygon fill="white" stroke="black" points="314,-164.5 314,-183.5 364,-183.5 364,-164.5 314,-164.5"/>
<text text-anchor="middle" x="339" y="-171.5" font-family="Helvetica,sans-Serif" font-size="10.00">Point::x</text>
</a>
</g>
</g>
<!-- Node10&#45;&gt;Node11 -->
<g id="edge13" class="edge"><title>Node10&#45;&gt;Node11</title>
<path fill="none" stroke="midnightblue" d="M233.279,-161.327C256.371,-164.121 282.883,-167.33 303.454,-169.819"/>
<polygon fill="midnightblue" stroke="midnightblue" points="303.271,-173.323 313.62,-171.049 304.112,-166.373 303.271,-173.323"/>
</g>
<!-- Node12 -->
<g id="node12" class="node"><title>Node12</title>
<g id="a_node12"><a xlink:href="class_graphics_rectangle.html#ab1a0b1219fdc7694c6f5902c19f9e429" target="_top" xlink:title="GraphicsRectangle::\lheight">
<polygon fill="white" stroke="black" points="286,-115 286,-145 392,-145 392,-115 286,-115"/>
<text text-anchor="start" x="294" y="-133" font-family="Helvetica,sans-Serif" font-size="10.00">GraphicsRectangle::</text>
<text text-anchor="middle" x="339" y="-122" font-family="Helvetica,sans-Serif" font-size="10.00">height</text>
</a>
</g>
</g>
<!-- Node10&#45;&gt;Node12 -->
<g id="edge14" class="edge"><title>Node10&#45;&gt;Node12</title>
<path fill="none" stroke="midnightblue" d="M233.279,-146.675C246.917,-144.504 261.748,-142.142 275.843,-139.898"/>
<polygon fill="midnightblue" stroke="midnightblue" points="276.624,-143.317 285.95,-138.288 275.524,-136.404 276.624,-143.317"/>
</g>
<!-- Node12&#45;&gt;Node5 -->
<g id="edge18" class="edge"><title>Node12&#45;&gt;Node5</title>
<path fill="none" stroke="midnightblue" d="M378.171,-145.011C386.082,-148.228 394.338,-151.665 402,-155 424.089,-164.614 448.743,-176.187 467.26,-185.051"/>
<polygon fill="midnightblue" stroke="midnightblue" points="465.808,-188.236 476.337,-189.414 468.84,-181.927 465.808,-188.236"/>
</g>
<!-- Node12&#45;&gt;Node6 -->
<g id="edge17" class="edge"><title>Node12&#45;&gt;Node6</title>
<path fill="none" stroke="midnightblue" d="M387.335,-145.1C392.598,-147.906 397.628,-151.185 402,-155 426.299,-176.203 416.724,-193.765 438,-218 447.672,-229.017 460.486,-239.084 471.61,-246.799"/>
<polygon fill="midnightblue" stroke="midnightblue" points="469.817,-249.81 480.076,-252.456 473.706,-243.99 469.817,-249.81"/>
</g>
<!-- Node13 -->
<g id="node13" class="node"><title>Node13</title>
<g id="a_node13"><a xlink:href="class_graphics_item.html#acddeaf58963ddb0de93b7c1b27512af7" target="_top" xlink:title="GraphicsItem::absolute">
<polygon fill="white" stroke="black" points="438,-120.5 438,-139.5 556,-139.5 556,-120.5 438,-120.5"/>
<text text-anchor="middle" x="497" y="-127.5" font-family="Helvetica,sans-Serif" font-size="10.00">GraphicsItem::absolute</text>
</a>
</g>
</g>
<!-- Node12&#45;&gt;Node13 -->
<g id="edge15" class="edge"><title>Node12&#45;&gt;Node13</title>
<path fill="none" stroke="midnightblue" d="M392.38,-130C403.676,-130 415.778,-130 427.583,-130"/>
<polygon fill="midnightblue" stroke="midnightblue" points="427.853,-133.5 437.853,-130 427.853,-126.5 427.853,-133.5"/>
</g>
<!-- Node13&#45;&gt;Node13 -->
<g id="edge16" class="edge"><title>Node13&#45;&gt;Node13</title>
<path fill="none" stroke="midnightblue" d="M472.648,-139.757C460.801,-148.565 468.918,-158 497,-158 515.429,-158 525.26,-153.937 526.492,-148.654"/>
<polygon fill="midnightblue" stroke="midnightblue" points="529.386,-146.665 521.352,-139.757 523.324,-150.167 529.386,-146.665"/>
</g>
<!-- Node15 -->
<g id="node15" class="node"><title>Node15</title>
<g id="a_node15"><a xlink:href="class_widget.html#a037c4fd4ada38dfc4af381642eb66127" target="_top" xlink:title="Widget::minimumHeight">
<polygon fill="white" stroke="black" points="278,-0.5 278,-19.5 400,-19.5 400,-0.5 278,-0.5"/>
<text text-anchor="middle" x="339" y="-7.5" font-family="Helvetica,sans-Serif" font-size="10.00">Widget::minimumHeight</text>
</a>
</g>
</g>
<!-- Node14&#45;&gt;Node15 -->
<g id="edge20" class="edge"><title>Node14&#45;&gt;Node15</title>
<path fill="none" stroke="midnightblue" d="M220.213,-16.7521C234.654,-15.9243 251.485,-14.9595 267.829,-14.0225"/>
<polygon fill="midnightblue" stroke="midnightblue" points="268.134,-17.5109 277.917,-13.4443 267.733,-10.5224 268.134,-17.5109"/>
</g>
</g>
</svg>
