<?xml version="1.0" encoding="UTF-8" standalone="no"?>
<!DOCTYPE svg PUBLIC "-//W3C//DTD SVG 1.1//EN"
 "http://www.w3.org/Graphics/SVG/1.1/DTD/svg11.dtd">
<!-- Generated by graphviz version 2.36.0 (20140111.2315)
 -->
<!-- Title: LineEdit::setText Pages: 1 -->
<!--zoomable 204 -->
<svg id="main" version="1.1" xmlns="http://www.w3.org/2000/svg" xmlns:xlink="http://www.w3.org/1999/xlink" xml:space="preserve" onload="init(evt)">
<style type="text/css"><![CDATA[
.edge:hover path { stroke: red; }
.edge:hover polygon { stroke: red; fill: red; }
]]></style>
<script type="text/javascript"><![CDATA[
var edges = document.getElementsByTagName('g');
if (edges && edges.length) {
  for (var i=0;i<edges.length;i++) {
    if (edges[i].id.substr(0,4)=='edge') {
      edges[i].setAttribute('class','edge');
    }
  }
}
]]></script>
        <defs>
                <circle id="rim" cx="0" cy="0" r="7"/>
                <circle id="rim2" cx="0" cy="0" r="3.5"/>
                <g id="zoomPlus">
                        <use xlink:href="#rim" fill="#404040">
                                <set attributeName="fill" to="#808080" begin="zoomplus.mouseover" end="zoomplus.mouseout"/>
                        </use>
                        <path d="M-4,0h8M0,-4v8" fill="none" stroke="white" stroke-width="1.5" pointer-events="none"/>
                </g>
                <g id="zoomMin">
                        <use xlink:href="#rim" fill="#404040">
                                <set attributeName="fill" to="#808080" begin="zoomminus.mouseover" end="zoomminus.mouseout"/>
                        </use>
                        <path d="M-4,0h8" fill="none" stroke="white" stroke-width="1.5" pointer-events="none"/>
                </g>
                <g id="dirArrow">
                        <path fill="none" stroke="white" stroke-width="1.5" d="M0,-3.0v7 M-2.5,-0.5L0,-3.0L2.5,-0.5"/>
                </g>
               <g id="resetDef">
                       <use xlink:href="#rim2" fill="#404040">
                               <set attributeName="fill" to="#808080" begin="reset.mouseover" end="reset.mouseout"/>
                       </use>
               </g>
        </defs>

<script type="text/javascript">
var viewWidth = 920;
var viewHeight = 204;
var sectionId = 'dynsection-4';
</script>
<script xlink:href="svgpan.js"/>
<svg id="graph" class="graph">
<g id="viewport">
<title>LineEdit::setText</title>
<polygon fill="white" stroke="none" points="-4,4 -4,-200 916,-200 916,4 -4,4"/>
<!-- Node1 -->
<g id="node1" class="node"><title>Node1</title>
<polygon fill="#bfbfbf" stroke="black" points="0.5,-82.5 0.5,-101.5 91.5,-101.5 91.5,-82.5 0.5,-82.5"/>
<text text-anchor="middle" x="46" y="-89.5" font-family="Helvetica,sans-Serif" font-size="10.00">LineEdit::setText</text>
</g>
<!-- Node2 -->
<g id="node2" class="node"><title>Node2</title>
<g id="a_node2"><a xlink:href="class_graphics_text.html#ac42bb0e20251eb0dc2305be760714130" target="_top" xlink:title="Modifie le contenu de GraphicsText. ">
<polygon fill="white" stroke="black" points="128,-164.5 128,-183.5 242,-183.5 242,-164.5 128,-164.5"/>
<text text-anchor="middle" x="185" y="-171.5" font-family="Helvetica,sans-Serif" font-size="10.00">GraphicsText::setText</text>
</a>
</g>
</g>
<!-- Node1&#45;&gt;Node2 -->
<g id="edge1" class="edge"><title>Node1&#45;&gt;Node2</title>
<path fill="none" stroke="midnightblue" d="M58.8019,-101.705C74.1055,-113.987 101.932,-135.311 128,-150 134.652,-153.749 142.006,-157.291 149.136,-160.446"/>
<polygon fill="midnightblue" stroke="midnightblue" points="148.062,-163.793 158.633,-164.491 150.804,-157.353 148.062,-163.793"/>
</g>
<!-- Node3 -->
<g id="node3" class="node"><title>Node3</title>
<g id="a_node3"><a xlink:href="class_graphics_text.html#aeb38c8c0df9473cde331540d9904d352" target="_top" xlink:title="Recupere le contenu de GraphicsText. ">
<polygon fill="white" stroke="black" points="280,-145.5 280,-164.5 378,-164.5 378,-145.5 280,-145.5"/>
<text text-anchor="middle" x="329" y="-152.5" font-family="Helvetica,sans-Serif" font-size="10.00">GraphicsText::text</text>
</a>
</g>
</g>
<!-- Node1&#45;&gt;Node3 -->
<g id="edge25" class="edge"><title>Node1&#45;&gt;Node3</title>
<path fill="none" stroke="midnightblue" d="M76.8185,-101.577C92.0394,-106.276 110.906,-111.811 128,-116 175.354,-127.604 229.688,-138.018 269.761,-145.159"/>
<polygon fill="midnightblue" stroke="midnightblue" points="269.172,-148.609 279.629,-146.903 270.39,-141.716 269.172,-148.609"/>
</g>
<!-- Node4 -->
<g id="node4" class="node"><title>Node4</title>
<g id="a_node4"><a xlink:href="class_graphics_rectangle.html#a3efd2295cd742f75de829851bf7ca3dd" target="_top" xlink:title="GraphicsRectangle::\lsetWidth">
<polygon fill="white" stroke="black" points="132,-77 132,-107 238,-107 238,-77 132,-77"/>
<text text-anchor="start" x="140" y="-95" font-family="Helvetica,sans-Serif" font-size="10.00">GraphicsRectangle::</text>
<text text-anchor="middle" x="185" y="-84" font-family="Helvetica,sans-Serif" font-size="10.00">setWidth</text>
</a>
</g>
</g>
<!-- Node1&#45;&gt;Node4 -->
<g id="edge3" class="edge"><title>Node1&#45;&gt;Node4</title>
<path fill="none" stroke="midnightblue" d="M91.8589,-92C101.457,-92 111.762,-92 121.879,-92"/>
<polygon fill="midnightblue" stroke="midnightblue" points="121.901,-95.5001 131.901,-92 121.901,-88.5001 121.901,-95.5001"/>
</g>
<!-- Node15 -->
<g id="node15" class="node"><title>Node15</title>
<g id="a_node15"><a xlink:href="class_graphics_text.html#aaafb8f8246e4d3b0d5dd8ac5cc8586cc" target="_top" xlink:title="GraphicsText::font">
<polygon fill="white" stroke="black" points="136,-38.5 136,-57.5 234,-57.5 234,-38.5 136,-38.5"/>
<text text-anchor="middle" x="185" y="-45.5" font-family="Helvetica,sans-Serif" font-size="10.00">GraphicsText::font</text>
</a>
</g>
</g>
<!-- Node1&#45;&gt;Node15 -->
<g id="edge23" class="edge"><title>Node1&#45;&gt;Node15</title>
<path fill="none" stroke="midnightblue" d="M76.727,-82.4527C96.6545,-76.0526 123.11,-67.556 144.762,-60.6021"/>
<polygon fill="midnightblue" stroke="midnightblue" points="145.88,-63.919 154.331,-57.5287 143.74,-57.2543 145.88,-63.919"/>
</g>
<!-- Node16 -->
<g id="node16" class="node"><title>Node16</title>
<g id="a_node16"><a xlink:href="class_font.html#ad96d9cd6356edf670103542dbe4336c3" target="_top" xlink:title="Font::width">
<polygon fill="white" stroke="black" points="152.5,-0.5 152.5,-19.5 217.5,-19.5 217.5,-0.5 152.5,-0.5"/>
<text text-anchor="middle" x="185" y="-7.5" font-family="Helvetica,sans-Serif" font-size="10.00">Font::width</text>
</a>
</g>
</g>
<!-- Node1&#45;&gt;Node16 -->
<g id="edge24" class="edge"><title>Node1&#45;&gt;Node16</title>
<path fill="none" stroke="midnightblue" d="M57.201,-82.2064C71.8268,-68.6216 100.081,-44.0378 128,-29 132.627,-26.5079 137.642,-24.2528 142.706,-22.2395"/>
<polygon fill="midnightblue" stroke="midnightblue" points="144.237,-25.4054 152.413,-18.6672 141.82,-18.8361 144.237,-25.4054"/>
</g>
<!-- Node2&#45;&gt;Node3 -->
<g id="edge2" class="edge"><title>Node2&#45;&gt;Node3</title>
<path fill="none" stroke="midnightblue" d="M242.122,-166.491C251.134,-165.285 260.481,-164.034 269.546,-162.821"/>
<polygon fill="midnightblue" stroke="midnightblue" points="270.181,-166.268 279.628,-161.472 269.252,-159.33 270.181,-166.268"/>
</g>
<!-- Node5 -->
<g id="node5" class="node"><title>Node5</title>
<g id="a_node5"><a xlink:href="class_point.html#a7f5e36e2e1bd0fa1564c1e4d5d74355c" target="_top" xlink:title="Modifie l&#39;abscisse du point indépendamment de son origine. ">
<polygon fill="white" stroke="black" points="278.5,-82.5 278.5,-101.5 379.5,-101.5 379.5,-82.5 278.5,-82.5"/>
<text text-anchor="middle" x="329" y="-89.5" font-family="Helvetica,sans-Serif" font-size="10.00">Point::setRelativeX</text>
</a>
</g>
</g>
<!-- Node4&#45;&gt;Node5 -->
<g id="edge4" class="edge"><title>Node4&#45;&gt;Node5</title>
<path fill="none" stroke="midnightblue" d="M238.069,-92C247.821,-92 258.087,-92 268.055,-92"/>
<polygon fill="midnightblue" stroke="midnightblue" points="268.301,-95.5001 278.301,-92 268.301,-88.5001 268.301,-95.5001"/>
</g>
<!-- Node6 -->
<g id="node6" class="node"><title>Node6</title>
<g id="a_node6"><a xlink:href="class_point.html#a9abe56cf3f067305623a1d805460a84f" target="_top" xlink:title="Modifie les coordonnées du point indépendamment de son origine. ">
<polygon fill="white" stroke="black" points="416.5,-82.5 416.5,-101.5 511.5,-101.5 511.5,-82.5 416.5,-82.5"/>
<text text-anchor="middle" x="464" y="-89.5" font-family="Helvetica,sans-Serif" font-size="10.00">Point::setRelative</text>
</a>
</g>
</g>
<!-- Node5&#45;&gt;Node6 -->
<g id="edge5" class="edge"><title>Node5&#45;&gt;Node6</title>
<path fill="none" stroke="midnightblue" d="M379.524,-92C388.124,-92 397.129,-92 405.911,-92"/>
<polygon fill="midnightblue" stroke="midnightblue" points="406.08,-95.5001 416.08,-92 406.08,-88.5001 406.08,-95.5001"/>
</g>
<!-- Node11 -->
<g id="node11" class="node"><title>Node11</title>
<g id="a_node11"><a xlink:href="class_point.html#a2aa897aa68c2f3e6df3a46738f27a0ac" target="_top" xlink:title="Donne l&#39;abscisse du point par rapport à son origine. ">
<polygon fill="white" stroke="black" points="644,-158.5 644,-177.5 694,-177.5 694,-158.5 644,-158.5"/>
<text text-anchor="middle" x="669" y="-165.5" font-family="Helvetica,sans-Serif" font-size="10.00">Point::x</text>
</a>
</g>
</g>
<!-- Node5&#45;&gt;Node11 -->
<g id="edge21" class="edge"><title>Node5&#45;&gt;Node11</title>
<path fill="none" stroke="midnightblue" d="M372.466,-101.548C440.179,-116.774 571.306,-146.258 633.571,-160.259"/>
<polygon fill="midnightblue" stroke="midnightblue" points="633.136,-163.748 643.66,-162.527 634.671,-156.919 633.136,-163.748"/>
</g>
<!-- Node14 -->
<g id="node14" class="node"><title>Node14</title>
<g id="a_node14"><a xlink:href="class_point.html#a2df1f1705c57a0089ee2956315b214ba" target="_top" xlink:title="Donne l&#39;ordonnée du point indépendamment de son origine. ">
<polygon fill="white" stroke="black" points="422.5,-44.5 422.5,-63.5 505.5,-63.5 505.5,-44.5 422.5,-44.5"/>
<text text-anchor="middle" x="464" y="-51.5" font-family="Helvetica,sans-Serif" font-size="10.00">Point::relativeY</text>
</a>
</g>
</g>
<!-- Node5&#45;&gt;Node14 -->
<g id="edge22" class="edge"><title>Node5&#45;&gt;Node14</title>
<path fill="none" stroke="midnightblue" d="M363.562,-82.411C380.573,-77.5506 401.432,-71.5909 419.645,-66.3873"/>
<polygon fill="midnightblue" stroke="midnightblue" points="420.796,-69.6986 429.449,-63.5859 418.872,-62.9679 420.796,-69.6986"/>
</g>
<!-- Node7 -->
<g id="node7" class="node"><title>Node7</title>
<g id="a_node7"><a xlink:href="class_point.html#a43923c490fb5439d7d8a041e86520c34" target="_top" xlink:title="Modifie les coordonnées du point par rapport à son origine. ">
<polygon fill="white" stroke="black" points="548.5,-82.5 548.5,-101.5 607.5,-101.5 607.5,-82.5 548.5,-82.5"/>
<text text-anchor="middle" x="578" y="-89.5" font-family="Helvetica,sans-Serif" font-size="10.00">Point::set</text>
</a>
</g>
</g>
<!-- Node6&#45;&gt;Node7 -->
<g id="edge6" class="edge"><title>Node6&#45;&gt;Node7</title>
<path fill="none" stroke="midnightblue" d="M511.525,-92C520.413,-92 529.628,-92 538.241,-92"/>
<polygon fill="midnightblue" stroke="midnightblue" points="538.384,-95.5001 548.384,-92 538.384,-88.5001 538.384,-95.5001"/>
</g>
<!-- Node9 -->
<g id="node9" class="node"><title>Node9</title>
<g id="a_node9"><a xlink:href="class_point.html#afa7d33502738b0b3df186a91e11ff2a8" target="_top" xlink:title="Donne l&#39;origine du point. ">
<polygon fill="white" stroke="black" points="730,-26.5 730,-45.5 798,-45.5 798,-26.5 730,-26.5"/>
<text text-anchor="middle" x="764" y="-33.5" font-family="Helvetica,sans-Serif" font-size="10.00">Point::origin</text>
</a>
</g>
</g>
<!-- Node6&#45;&gt;Node9 -->
<g id="edge20" class="edge"><title>Node6&#45;&gt;Node9</title>
<path fill="none" stroke="midnightblue" d="M490.049,-82.3353C497.193,-79.4544 504.95,-76.2071 512,-73 571.886,-45.7573 580.015,-21.3091 644,-6 665.612,-0.829063 672.243,-1.4749 694,-6 708.981,-9.11582 724.699,-15.6616 737.343,-21.8459"/>
<polygon fill="midnightblue" stroke="midnightblue" points="735.851,-25.0141 746.35,-26.4419 739.033,-18.779 735.851,-25.0141"/>
</g>
<!-- Node8 -->
<g id="node8" class="node"><title>Node8</title>
<g id="a_node8"><a xlink:href="class_point.html#a64a5fe8c9b1d1a1543aaa64031537380" target="_top" xlink:title="Indique si le point n&#39;appartient pas à un groupe. ">
<polygon fill="white" stroke="black" points="834.5,-92.5 834.5,-111.5 911.5,-111.5 911.5,-92.5 834.5,-92.5"/>
<text text-anchor="middle" x="873" y="-99.5" font-family="Helvetica,sans-Serif" font-size="10.00">Point::isAlone</text>
</a>
</g>
</g>
<!-- Node7&#45;&gt;Node8 -->
<g id="edge7" class="edge"><title>Node7&#45;&gt;Node8</title>
<path fill="none" stroke="midnightblue" d="M605.189,-101.501C616.894,-105.264 630.965,-109.134 644,-111 705.795,-119.846 777.904,-114.392 824.216,-108.89"/>
<polygon fill="midnightblue" stroke="midnightblue" points="824.77,-112.348 834.265,-107.647 823.911,-105.401 824.77,-112.348"/>
</g>
<!-- Node7&#45;&gt;Node9 -->
<g id="edge8" class="edge"><title>Node7&#45;&gt;Node9</title>
<path fill="none" stroke="midnightblue" d="M583.795,-82.3268C592.84,-65.3248 614.22,-30.5984 644,-17 672.898,-3.8045 709.381,-12.947 734.284,-22.5708"/>
<polygon fill="midnightblue" stroke="midnightblue" points="732.964,-25.8125 743.544,-26.3776 735.626,-19.3383 732.964,-25.8125"/>
</g>
<!-- Node7&#45;&gt;Node11 -->
<g id="edge11" class="edge"><title>Node7&#45;&gt;Node11</title>
<path fill="none" stroke="midnightblue" d="M590.272,-101.625C604.984,-114.189 630.954,-136.365 648.798,-151.602"/>
<polygon fill="midnightblue" stroke="midnightblue" points="646.942,-154.62 656.82,-158.453 651.488,-149.297 646.942,-154.62"/>
</g>
<!-- Node12 -->
<g id="node12" class="node"><title>Node12</title>
<g id="a_node12"><a xlink:href="class_point.html#a2226d8a3fb283b0b3c1f69106df144ba" target="_top" xlink:title="Donne l&#39;ordonnée du point par rapport à son origine. ">
<polygon fill="white" stroke="black" points="644,-26.5 644,-45.5 694,-45.5 694,-26.5 644,-26.5"/>
<text text-anchor="middle" x="669" y="-33.5" font-family="Helvetica,sans-Serif" font-size="10.00">Point::y</text>
</a>
</g>
</g>
<!-- Node7&#45;&gt;Node12 -->
<g id="edge15" class="edge"><title>Node7&#45;&gt;Node12</title>
<path fill="none" stroke="midnightblue" d="M594.503,-82.2455C608.158,-73.6534 628.266,-61.0014 643.999,-51.1018"/>
<polygon fill="midnightblue" stroke="midnightblue" points="646.075,-53.9307 652.675,-45.6427 642.347,-48.006 646.075,-53.9307"/>
</g>
<!-- Node13 -->
<g id="node13" class="node"><title>Node13</title>
<g id="a_node13"><a xlink:href="jquery_8js.html#a2335e57f79b6acfb6de59c235dc8a83e" target="_top" xlink:title="p">
<polygon fill="white" stroke="black" points="654.5,-82.5 654.5,-101.5 683.5,-101.5 683.5,-82.5 654.5,-82.5"/>
<text text-anchor="middle" x="669" y="-89.5" font-family="Helvetica,sans-Serif" font-size="10.00">p</text>
</a>
</g>
</g>
<!-- Node7&#45;&gt;Node13 -->
<g id="edge19" class="edge"><title>Node7&#45;&gt;Node13</title>
<path fill="none" stroke="midnightblue" d="M607.65,-92C619.388,-92 632.819,-92 644.026,-92"/>
<polygon fill="midnightblue" stroke="midnightblue" points="644.347,-95.5001 654.347,-92 644.346,-88.5001 644.347,-95.5001"/>
</g>
<!-- Node9&#45;&gt;Node8 -->
<g id="edge9" class="edge"><title>Node9&#45;&gt;Node8</title>
<path fill="none" stroke="midnightblue" d="M780.788,-45.7385C798.432,-56.6218 827.211,-74.373 847.722,-87.0249"/>
<polygon fill="midnightblue" stroke="midnightblue" points="846.146,-90.1651 856.495,-92.4361 849.821,-84.2073 846.146,-90.1651"/>
</g>
<!-- Node10 -->
<g id="node10" class="node"><title>Node10</title>
<g id="a_node10"><a xlink:href="class_point.html#a97edc6e6415d6ccc6efcff5fcbc97f15" target="_top" xlink:title="Construit un point avec les coordonnées nulles. ">
<polygon fill="white" stroke="black" points="839,-26.5 839,-45.5 907,-45.5 907,-26.5 839,-26.5"/>
<text text-anchor="middle" x="873" y="-33.5" font-family="Helvetica,sans-Serif" font-size="10.00">Point::Point</text>
</a>
</g>
</g>
<!-- Node9&#45;&gt;Node10 -->
<g id="edge10" class="edge"><title>Node9&#45;&gt;Node10</title>
<path fill="none" stroke="midnightblue" d="M798.269,-36C807.831,-36 818.403,-36 828.485,-36"/>
<polygon fill="midnightblue" stroke="midnightblue" points="828.752,-39.5001 838.752,-36 828.752,-32.5001 828.752,-39.5001"/>
</g>
<!-- Node11&#45;&gt;Node8 -->
<g id="edge12" class="edge"><title>Node11&#45;&gt;Node8</title>
<path fill="none" stroke="midnightblue" d="M694.22,-165.866C720.441,-163.008 763.179,-156.742 798,-144 816.435,-137.254 835.672,-126.194 849.91,-117.117"/>
<polygon fill="midnightblue" stroke="midnightblue" points="852.036,-119.908 858.486,-111.503 848.202,-114.052 852.036,-119.908"/>
</g>
<!-- Node11&#45;&gt;Node9 -->
<g id="edge13" class="edge"><title>Node11&#45;&gt;Node9</title>
<path fill="none" stroke="midnightblue" d="M676.99,-158.079C692.551,-135.993 730.241,-82.4971 750.164,-54.2192"/>
<polygon fill="midnightblue" stroke="midnightblue" points="753.283,-55.8685 756.182,-45.6778 747.561,-51.8368 753.283,-55.8685"/>
</g>
<!-- Node11&#45;&gt;Node11 -->
<g id="edge14" class="edge"><title>Node11&#45;&gt;Node11</title>
<path fill="none" stroke="midnightblue" d="M655.128,-177.757C648.38,-186.565 653.004,-196 669,-196 678.998,-196 684.553,-192.315 685.666,-187.4"/>
<polygon fill="midnightblue" stroke="midnightblue" points="689.017,-186.388 682.872,-177.757 682.293,-188.336 689.017,-186.388"/>
</g>
<!-- Node12&#45;&gt;Node8 -->
<g id="edge16" class="edge"><title>Node12&#45;&gt;Node8</title>
<path fill="none" stroke="midnightblue" d="M694.366,-43.9611C728.78,-55.2053 791.989,-75.8579 832.985,-89.2524"/>
<polygon fill="midnightblue" stroke="midnightblue" points="832.051,-92.6294 842.643,-92.4083 834.225,-85.9755 832.051,-92.6294"/>
</g>
<!-- Node12&#45;&gt;Node9 -->
<g id="edge17" class="edge"><title>Node12&#45;&gt;Node9</title>
<path fill="none" stroke="midnightblue" d="M694.435,-36C702.248,-36 711.144,-36 719.88,-36"/>
<polygon fill="midnightblue" stroke="midnightblue" points="719.987,-39.5001 729.987,-36 719.987,-32.5001 719.987,-39.5001"/>
</g>
<!-- Node12&#45;&gt;Node12 -->
<g id="edge18" class="edge"><title>Node12&#45;&gt;Node12</title>
<path fill="none" stroke="midnightblue" d="M655.128,-45.7571C648.38,-54.5653 653.004,-64 669,-64 678.998,-64 684.553,-60.3146 685.666,-55.4"/>
<polygon fill="midnightblue" stroke="midnightblue" points="689.017,-54.3878 682.872,-45.7571 682.293,-56.3361 689.017,-54.3878"/>
</g>
</g>
</svg>
        <g id="navigator" transform="translate(0 0)" fill="#404254">
                <rect fill="#f2f5e9" fill-opacity="0.5" stroke="#606060" stroke-width=".5" x="0" y="0" width="60" height="60"/>
                <use id="zoomplus" xlink:href="#zoomPlus" x="17" y="9" onmousedown="handleZoom(evt,'in')"/>
                <use id="zoomminus" xlink:href="#zoomMin" x="42" y="9" onmousedown="handleZoom(evt,'out')"/>
                <use id="reset" xlink:href="#resetDef" x="30" y="36" onmousedown="handleReset()"/>
                <g id="arrowUp" xlink:href="#dirArrow" transform="translate(30 24)" onmousedown="handlePan(0,-1)">
                  <use xlink:href="#rim" fill="#404040">
                        <set attributeName="fill" to="#808080" begin="arrowUp.mouseover" end="arrowUp.mouseout"/>
                  </use>
                  <path fill="none" stroke="white" stroke-width="1.5" d="M0,-3.0v7 M-2.5,-0.5L0,-3.0L2.5,-0.5"/>
                </g>
                <g id="arrowRight" xlink:href="#dirArrow" transform="rotate(90) translate(36 -43)" onmousedown="handlePan(1,0)">
                  <use xlink:href="#rim" fill="#404040">
                        <set attributeName="fill" to="#808080" begin="arrowRight.mouseover" end="arrowRight.mouseout"/>
                  </use>
                  <path fill="none" stroke="white" stroke-width="1.5" d="M0,-3.0v7 M-2.5,-0.5L0,-3.0L2.5,-0.5"/>
                </g>
                <g id="arrowDown" xlink:href="#dirArrow" transform="rotate(180) translate(-30 -48)" onmousedown="handlePan(0,1)">
                  <use xlink:href="#rim" fill="#404040">
                        <set attributeName="fill" to="#808080" begin="arrowDown.mouseover" end="arrowDown.mouseout"/>
                  </use>
                  <path fill="none" stroke="white" stroke-width="1.5" d="M0,-3.0v7 M-2.5,-0.5L0,-3.0L2.5,-0.5"/>
                </g>
                <g id="arrowLeft" xlink:href="#dirArrow" transform="rotate(270) translate(-36 17)" onmousedown="handlePan(-1,0)">
                  <use xlink:href="#rim" fill="#404040">
                        <set attributeName="fill" to="#808080" begin="arrowLeft.mouseover" end="arrowLeft.mouseout"/>
                  </use>
                  <path fill="none" stroke="white" stroke-width="1.5" d="M0,-3.0v7 M-2.5,-0.5L0,-3.0L2.5,-0.5"/>
                </g>
        </g>
        <svg viewBox="0 0 15 15" width="100%" height="30px" preserveAspectRatio="xMaxYMin meet">
         <g id="arrow_out" transform="scale(0.3 0.3)">
          <a xlink:href="class_line_edit_a636e2ac65a70dd82fcf02f863da5c446_cgraph_org.svg" target="_base">
           <rect id="button" ry="5" rx="5" y="6" x="6" height="38" width="38"
                fill="#f2f5e9" fill-opacity="0.5" stroke="#606060" stroke-width="1.0"/>
           <path id="arrow"
             d="M 11.500037,31.436501 C 11.940474,20.09759 22.043105,11.32322 32.158766,21.979434 L 37.068811,17.246167 C 37.068811,17.246167 37.088388,32 37.088388,32 L 22.160133,31.978069 C 22.160133,31.978069 26.997745,27.140456 26.997745,27.140456 C 18.528582,18.264221 13.291696,25.230495 11.500037,31.436501 z"
             style="fill:#404040;"/>
          </a>
         </g>
        </svg>
</svg>
