<?xml version="1.0" encoding="UTF-8" standalone="no"?>
<!DOCTYPE svg PUBLIC "-//W3C//DTD SVG 1.1//EN"
 "http://www.w3.org/Graphics/SVG/1.1/DTD/svg11.dtd">
<!-- Generated by graphviz version 2.36.0 (20140111.2315)
 -->
<!-- Title: Point::set Pages: 1 -->
<svg width="268pt" height="102pt"
 viewBox="0.00 0.00 268.00 102.00" xmlns="http://www.w3.org/2000/svg" xmlns:xlink="http://www.w3.org/1999/xlink">
<g id="graph0" class="graph" transform="scale(1 1) rotate(0) translate(4 98)">
<title>Point::set</title>
<polygon fill="white" stroke="none" points="-4,4 -4,-98 264,-98 264,4 -4,4"/>
<!-- Node1 -->
<g id="node1" class="node"><title>Node1</title>
<polygon fill="#bfbfbf" stroke="black" points="0.5,-28.5 0.5,-47.5 59.5,-47.5 59.5,-28.5 0.5,-28.5"/>
<text text-anchor="middle" x="30" y="-35.5" font-family="Helvetica,sans-Serif" font-size="10.00">Point::set</text>
</g>
<!-- Node1&#45;&gt;Node1 -->
<g id="edge1" class="edge"><title>Node1&#45;&gt;Node1</title>
<path fill="none" stroke="midnightblue" d="M16.1284,-47.7571C9.38004,-56.5653 14.0039,-66 30,-66 39.9976,-66 45.5528,-62.3146 46.6659,-57.4"/>
<polygon fill="midnightblue" stroke="midnightblue" points="50.0166,-56.3878 43.8716,-47.7571 43.2932,-58.3361 50.0166,-56.3878"/>
</g>
<!-- Node2 -->
<g id="node2" class="node"><title>Node2</title>
<g id="a_node2"><a xlink:href="class_point.html#a2aa897aa68c2f3e6df3a46738f27a0ac" target="_top" xlink:title="recupere la valeur de l&#39;absisse du Point. ">
<polygon fill="white" stroke="black" points="96,-56.5 96,-75.5 146,-75.5 146,-56.5 96,-56.5"/>
<text text-anchor="middle" x="121" y="-63.5" font-family="Helvetica,sans-Serif" font-size="10.00">Point::x</text>
</a>
</g>
</g>
<!-- Node1&#45;&gt;Node2 -->
<g id="edge2" class="edge"><title>Node1&#45;&gt;Node2</title>
<path fill="none" stroke="midnightblue" d="M59.6501,-47.0135C68.1418,-49.6851 77.5193,-52.6353 86.2998,-55.3977"/>
<polygon fill="midnightblue" stroke="midnightblue" points="85.291,-58.7494 95.8805,-58.4118 87.3918,-52.072 85.291,-58.7494"/>
</g>
<!-- Node4 -->
<g id="node4" class="node"><title>Node4</title>
<g id="a_node4"><a xlink:href="class_point.html#a2226d8a3fb283b0b3c1f69106df144ba" target="_top" xlink:title="Fonction recuperant le valeur de l&#39;ordonée. ">
<polygon fill="white" stroke="black" points="96,-0.5 96,-19.5 146,-19.5 146,-0.5 96,-0.5"/>
<text text-anchor="middle" x="121" y="-7.5" font-family="Helvetica,sans-Serif" font-size="10.00">Point::y</text>
</a>
</g>
</g>
<!-- Node1&#45;&gt;Node4 -->
<g id="edge5" class="edge"><title>Node1&#45;&gt;Node4</title>
<path fill="none" stroke="midnightblue" d="M59.6501,-28.9865C68.1418,-26.3149 77.5193,-23.3647 86.2998,-20.6023"/>
<polygon fill="midnightblue" stroke="midnightblue" points="87.3918,-23.928 95.8805,-17.5882 85.291,-17.2506 87.3918,-23.928"/>
</g>
<!-- Node2&#45;&gt;Node2 -->
<g id="edge4" class="edge"><title>Node2&#45;&gt;Node2</title>
<path fill="none" stroke="midnightblue" d="M107.128,-75.7571C100.38,-84.5653 105.004,-94 121,-94 130.998,-94 136.553,-90.3146 137.666,-85.4"/>
<polygon fill="midnightblue" stroke="midnightblue" points="141.017,-84.3878 134.872,-75.7571 134.293,-86.3361 141.017,-84.3878"/>
</g>
<!-- Node3 -->
<g id="node3" class="node"><title>Node3</title>
<g id="a_node3"><a xlink:href="class_point.html#a64a5fe8c9b1d1a1543aaa64031537380" target="_top" xlink:title="Point::isAlone">
<polygon fill="white" stroke="black" points="182.5,-28.5 182.5,-47.5 259.5,-47.5 259.5,-28.5 182.5,-28.5"/>
<text text-anchor="middle" x="221" y="-35.5" font-family="Helvetica,sans-Serif" font-size="10.00">Point::isAlone</text>
</a>
</g>
</g>
<!-- Node2&#45;&gt;Node3 -->
<g id="edge3" class="edge"><title>Node2&#45;&gt;Node3</title>
<path fill="none" stroke="midnightblue" d="M146.225,-59.0786C155.417,-56.4524 166.187,-53.375 176.614,-50.3959"/>
<polygon fill="midnightblue" stroke="midnightblue" points="177.789,-53.7003 186.443,-47.5877 175.866,-46.9696 177.789,-53.7003"/>
</g>
<!-- Node4&#45;&gt;Node3 -->
<g id="edge6" class="edge"><title>Node4&#45;&gt;Node3</title>
<path fill="none" stroke="midnightblue" d="M146.225,-16.9214C155.417,-19.5476 166.187,-22.625 176.614,-25.6041"/>
<polygon fill="midnightblue" stroke="midnightblue" points="175.866,-29.0304 186.443,-28.4123 177.789,-22.2997 175.866,-29.0304"/>
</g>
<!-- Node4&#45;&gt;Node4 -->
<g id="edge7" class="edge"><title>Node4&#45;&gt;Node4</title>
<path fill="none" stroke="midnightblue" d="M107.128,-19.7571C100.38,-28.5653 105.004,-38 121,-38 130.998,-38 136.553,-34.3146 137.666,-29.4"/>
<polygon fill="midnightblue" stroke="midnightblue" points="141.017,-28.3878 134.872,-19.7571 134.293,-30.3361 141.017,-28.3878"/>
</g>
</g>
</svg>
