<?xml version="1.0" encoding="UTF-8" standalone="no"?>
<!DOCTYPE svg PUBLIC "-//W3C//DTD SVG 1.1//EN"
 "http://www.w3.org/Graphics/SVG/1.1/DTD/svg11.dtd">
<!-- Generated by graphviz version 2.36.0 (20140111.2315)
 -->
<!-- Title: Point::isAlone Pages: 1 -->
<!--zoomable 966 -->
<svg id="main" version="1.1" xmlns="http://www.w3.org/2000/svg" xmlns:xlink="http://www.w3.org/1999/xlink" xml:space="preserve" onload="init(evt)">
<style type="text/css"><![CDATA[
.edge:hover path { stroke: red; }
.edge:hover polygon { stroke: red; fill: red; }
]]></style>
<script type="text/javascript"><![CDATA[
var edges = document.getElementsByTagName('g');
if (edges && edges.length) {
  for (var i=0;i<edges.length;i++) {
    if (edges[i].id.substr(0,4)=='edge') {
      edges[i].setAttribute('class','edge');
    }
  }
}
]]></script>
        <defs>
                <circle id="rim" cx="0" cy="0" r="7"/>
                <circle id="rim2" cx="0" cy="0" r="3.5"/>
                <g id="zoomPlus">
                        <use xlink:href="#rim" fill="#404040">
                                <set attributeName="fill" to="#808080" begin="zoomplus.mouseover" end="zoomplus.mouseout"/>
                        </use>
                        <path d="M-4,0h8M0,-4v8" fill="none" stroke="white" stroke-width="1.5" pointer-events="none"/>
                </g>
                <g id="zoomMin">
                        <use xlink:href="#rim" fill="#404040">
                                <set attributeName="fill" to="#808080" begin="zoomminus.mouseover" end="zoomminus.mouseout"/>
                        </use>
                        <path d="M-4,0h8" fill="none" stroke="white" stroke-width="1.5" pointer-events="none"/>
                </g>
                <g id="dirArrow">
                        <path fill="none" stroke="white" stroke-width="1.5" d="M0,-3.0v7 M-2.5,-0.5L0,-3.0L2.5,-0.5"/>
                </g>
               <g id="resetDef">
                       <use xlink:href="#rim2" fill="#404040">
                               <set attributeName="fill" to="#808080" begin="reset.mouseover" end="reset.mouseout"/>
                       </use>
               </g>
        </defs>

<script type="text/javascript">
var viewWidth = 1146;
var viewHeight = 966;
var sectionId = 'dynsection-5';
</script>
<script xlink:href="svgpan.js"/>
<svg id="graph" class="graph">
<g id="viewport">
<title>Point::isAlone</title>
<polygon fill="white" stroke="none" points="-4,4 -4,-962 1142,-962 1142,4 -4,4"/>
<!-- Node1 -->
<g id="node1" class="node"><title>Node1</title>
<polygon fill="#bfbfbf" stroke="black" points="0.5,-508.5 0.5,-527.5 77.5,-527.5 77.5,-508.5 0.5,-508.5"/>
<text text-anchor="middle" x="39" y="-515.5" font-family="Helvetica,sans-Serif" font-size="10.00">Point::isAlone</text>
</g>
<!-- Node2 -->
<g id="node2" class="node"><title>Node2</title>
<g id="a_node2"><a xlink:href="class_point.html#afa7d33502738b0b3df186a91e11ff2a8" target="_top" xlink:title="Point::origin">
<polygon fill="white" stroke="black" points="114,-546.5 114,-565.5 182,-565.5 182,-546.5 114,-546.5"/>
<text text-anchor="middle" x="148" y="-553.5" font-family="Helvetica,sans-Serif" font-size="10.00">Point::origin</text>
</a>
</g>
</g>
<!-- Node1&#45;&gt;Node2 -->
<g id="edge1" class="edge"><title>Node1&#45;&gt;Node2</title>
<path fill="none" stroke="midnightblue" d="M76.5258,-530.972C90.7812,-536.034 106.83,-541.734 120.008,-546.414"/>
<polygon fill="midnightblue" stroke="midnightblue" points="77.5953,-527.638 67.0006,-527.589 75.2527,-534.234 77.5953,-527.638"/>
</g>
<!-- Node3 -->
<g id="node3" class="node"><title>Node3</title>
<g id="a_node3"><a xlink:href="class_point.html#a0b2ea5baf36174499da121e666931e10" target="_top" xlink:title="Point::setOrigin">
<polygon fill="white" stroke="black" points="218,-659.5 218,-678.5 302,-678.5 302,-659.5 218,-659.5"/>
<text text-anchor="middle" x="260" y="-666.5" font-family="Helvetica,sans-Serif" font-size="10.00">Point::setOrigin</text>
</a>
</g>
</g>
<!-- Node1&#45;&gt;Node3 -->
<g id="edge64" class="edge"><title>Node1&#45;&gt;Node3</title>
<path fill="none" stroke="midnightblue" d="M45.4237,-537.197C54.5447,-565.699 75.8104,-618.67 114,-645 144.355,-665.929 186.64,-670.878 217.716,-671.218"/>
<polygon fill="midnightblue" stroke="midnightblue" points="48.7592,-536.135 42.5127,-527.577 42.0593,-538.163 48.7592,-536.135"/>
</g>
<!-- Node7 -->
<g id="node7" class="node"><title>Node7</title>
<g id="a_node7"><a xlink:href="class_point.html#a2aa897aa68c2f3e6df3a46738f27a0ac" target="_top" xlink:title="recupere la valeur de l&#39;absisse du Point. ">
<polygon fill="white" stroke="black" points="235,-527.5 235,-546.5 285,-546.5 285,-527.5 235,-527.5"/>
<text text-anchor="middle" x="260" y="-534.5" font-family="Helvetica,sans-Serif" font-size="10.00">Point::x</text>
</a>
</g>
</g>
<!-- Node1&#45;&gt;Node7 -->
<g id="edge65" class="edge"><title>Node1&#45;&gt;Node7</title>
<path fill="none" stroke="midnightblue" d="M87.8341,-522.15C133.159,-526.082 199.4,-531.829 234.713,-534.893"/>
<polygon fill="midnightblue" stroke="midnightblue" points="87.9126,-518.644 77.6474,-521.266 87.3075,-525.618 87.9126,-518.644"/>
</g>
<!-- Node16 -->
<g id="node16" class="node"><title>Node16</title>
<g id="a_node16"><a xlink:href="class_point.html#a43923c490fb5439d7d8a041e86520c34" target="_top" xlink:title="permet la modification des valeurs du point. ">
<polygon fill="white" stroke="black" points="374.5,-824.5 374.5,-843.5 433.5,-843.5 433.5,-824.5 374.5,-824.5"/>
<text text-anchor="middle" x="404" y="-831.5" font-family="Helvetica,sans-Serif" font-size="10.00">Point::set</text>
</a>
</g>
</g>
<!-- Node1&#45;&gt;Node16 -->
<g id="edge67" class="edge"><title>Node1&#45;&gt;Node16</title>
<path fill="none" stroke="midnightblue" d="M58.514,-534.601C72.8967,-546.899 93.742,-563.456 114,-575 133.54,-586.135 287.449,-632.852 302,-650 350.282,-706.9 287.451,-759.104 338,-814 347.277,-824.075 361.493,-829.126 374.267,-831.638"/>
<polygon fill="midnightblue" stroke="midnightblue" points="60.6856,-531.851 50.8458,-527.923 56.0883,-537.13 60.6856,-531.851"/>
</g>
<!-- Node20 -->
<g id="node20" class="node"><title>Node20</title>
<g id="a_node20"><a xlink:href="class_point.html#a4fa7ffadfb6c9de033bfef5decdaa66e" target="_top" xlink:title="Point::join">
<polygon fill="white" stroke="black" points="719,-616.5 719,-635.5 779,-635.5 779,-616.5 719,-616.5"/>
<text text-anchor="middle" x="749" y="-623.5" font-family="Helvetica,sans-Serif" font-size="10.00">Point::join</text>
</a>
</g>
</g>
<!-- Node1&#45;&gt;Node20 -->
<g id="edge68" class="edge"><title>Node1&#45;&gt;Node20</title>
<path fill="none" stroke="midnightblue" d="M42.2835,-498.348C48.5728,-448.689 68.7681,-314.873 114,-213 160.473,-108.333 144.48,-0 259,-0 259,-0 259,-0 405,-0 436.817,-0 448.176,-6.84688 470,-30 658.909,-230.415 499.026,-414.505 696,-607 702.255,-613.113 710.634,-617.281 718.836,-620.114"/>
<polygon fill="midnightblue" stroke="midnightblue" points="38.7982,-498.016 41.0617,-508.366 45.7467,-498.863 38.7982,-498.016"/>
</g>
<!-- Node21 -->
<g id="node21" class="node"><title>Node21</title>
<g id="a_node21"><a xlink:href="class_point.html#a498f108de0c0351dfb3177c681a7a1f2" target="_top" xlink:title="Point::beAlone">
<polygon fill="white" stroke="black" points="543,-578.5 543,-597.5 623,-597.5 623,-578.5 543,-578.5"/>
<text text-anchor="middle" x="583" y="-585.5" font-family="Helvetica,sans-Serif" font-size="10.00">Point::beAlone</text>
</a>
</g>
</g>
<!-- Node1&#45;&gt;Node21 -->
<g id="edge69" class="edge"><title>Node1&#45;&gt;Node21</title>
<path fill="none" stroke="midnightblue" d="M46.9408,-498.56C85.3159,-393.879 276.794,92.2742 470,-64 554.444,-132.302 578.021,-511.945 581.513,-578.151"/>
<polygon fill="midnightblue" stroke="midnightblue" points="43.5656,-497.601 43.4485,-508.195 50.1467,-499.986 43.5656,-497.601"/>
</g>
<!-- Node36 -->
<g id="node36" class="node"><title>Node36</title>
<g id="a_node36"><a xlink:href="class_point.html#a2226d8a3fb283b0b3c1f69106df144ba" target="_top" xlink:title="Fonction recuperant le valeur de l&#39;ordonée. ">
<polygon fill="white" stroke="black" points="235,-432.5 235,-451.5 285,-451.5 285,-432.5 235,-432.5"/>
<text text-anchor="middle" x="260" y="-439.5" font-family="Helvetica,sans-Serif" font-size="10.00">Point::y</text>
</a>
</g>
</g>
<!-- Node1&#45;&gt;Node36 -->
<g id="edge66" class="edge"><title>Node1&#45;&gt;Node36</title>
<path fill="none" stroke="midnightblue" d="M77.424,-505.013C122.459,-489.384 196.757,-463.6 234.845,-450.383"/>
<polygon fill="midnightblue" stroke="midnightblue" points="76.0363,-501.789 67.7365,-508.375 78.3313,-508.403 76.0363,-501.789"/>
</g>
<!-- Node2&#45;&gt;Node3 -->
<g id="edge2" class="edge"><title>Node2&#45;&gt;Node3</title>
<path fill="none" stroke="midnightblue" d="M165.546,-572.997C188.962,-597.052 230.994,-640.23 249.645,-659.39"/>
<polygon fill="midnightblue" stroke="midnightblue" points="167.862,-570.359 158.379,-565.634 162.846,-575.241 167.862,-570.359"/>
</g>
<!-- Node2&#45;&gt;Node7 -->
<g id="edge6" class="edge"><title>Node2&#45;&gt;Node7</title>
<path fill="none" stroke="midnightblue" d="M192.263,-548.527C206.71,-546.032 222.291,-543.341 234.762,-541.187"/>
<polygon fill="midnightblue" stroke="midnightblue" points="191.262,-545.148 182.004,-550.299 192.453,-552.046 191.262,-545.148"/>
</g>
<!-- Node2&#45;&gt;Node16 -->
<g id="edge63" class="edge"><title>Node2&#45;&gt;Node16</title>
<path fill="none" stroke="midnightblue" d="M192.032,-568.055C232.049,-580.133 287.596,-599.408 302,-617 358.386,-685.867 278.876,-747.469 338,-814 347.176,-824.326 361.542,-829.391 374.437,-831.847"/>
<polygon fill="midnightblue" stroke="midnightblue" points="192.809,-564.635 182.227,-565.145 190.817,-571.346 192.809,-564.635"/>
</g>
<!-- Node2&#45;&gt;Node36 -->
<g id="edge44" class="edge"><title>Node2&#45;&gt;Node36</title>
<path fill="none" stroke="midnightblue" d="M165.546,-538.853C188.962,-514.585 230.994,-471.025 249.645,-451.695"/>
<polygon fill="midnightblue" stroke="midnightblue" points="162.804,-536.654 158.379,-546.28 167.841,-541.515 162.804,-536.654"/>
</g>
<!-- Node4 -->
<g id="node4" class="node"><title>Node4</title>
<g id="a_node4"><a xlink:href="class_graphics_item.html#a8bcbe86ba1854edffd7fbed0b4bc8cd5" target="_top" xlink:title="GraphicsItem::setParent">
<polygon fill="white" stroke="black" points="342.5,-900.5 342.5,-919.5 465.5,-919.5 465.5,-900.5 342.5,-900.5"/>
<text text-anchor="middle" x="404" y="-907.5" font-family="Helvetica,sans-Serif" font-size="10.00">GraphicsItem::setParent</text>
</a>
</g>
</g>
<!-- Node3&#45;&gt;Node4 -->
<g id="edge3" class="edge"><title>Node3&#45;&gt;Node4</title>
<path fill="none" stroke="midnightblue" d="M262.512,-688.785C266.762,-730.809 282.429,-829.717 338,-886 344.254,-892.334 352.324,-897.012 360.637,-900.462"/>
<polygon fill="midnightblue" stroke="midnightblue" points="265.99,-688.384 261.609,-678.738 259.018,-689.011 265.99,-688.384"/>
</g>
<!-- Node5 -->
<g id="node5" class="node"><title>Node5</title>
<g id="a_node5"><a xlink:href="class_graphics_item.html#a96c30111512bd4f198e9414b70bb3ccc" target="_top" xlink:title="GraphicsItem::GraphicsItem">
<polygon fill="white" stroke="black" points="513,-900.5 513,-919.5 653,-919.5 653,-900.5 513,-900.5"/>
<text text-anchor="middle" x="583" y="-907.5" font-family="Helvetica,sans-Serif" font-size="10.00">GraphicsItem::GraphicsItem</text>
</a>
</g>
</g>
<!-- Node4&#45;&gt;Node5 -->
<g id="edge4" class="edge"><title>Node4&#45;&gt;Node5</title>
<path fill="none" stroke="midnightblue" d="M475.972,-910C488.101,-910 500.687,-910 512.769,-910"/>
<polygon fill="midnightblue" stroke="midnightblue" points="475.913,-906.5 465.913,-910 475.913,-913.5 475.913,-906.5"/>
</g>
<!-- Node6 -->
<g id="node6" class="node"><title>Node6</title>
<g id="a_node6"><a xlink:href="class_graphics_item.html#ad76d7190cfa332054ae66d505fb37bb1" target="_top" xlink:title="GraphicsItem::~GraphicsItem">
<polygon fill="white" stroke="black" points="510,-938.5 510,-957.5 656,-957.5 656,-938.5 510,-938.5"/>
<text text-anchor="middle" x="583" y="-945.5" font-family="Helvetica,sans-Serif" font-size="10.00">GraphicsItem::~GraphicsItem</text>
</a>
</g>
</g>
<!-- Node4&#45;&gt;Node6 -->
<g id="edge5" class="edge"><title>Node4&#45;&gt;Node6</title>
<path fill="none" stroke="midnightblue" d="M459.742,-921.753C484.77,-927.126 514.035,-933.409 537.657,-938.48"/>
<polygon fill="midnightblue" stroke="midnightblue" points="460.176,-918.266 449.665,-919.589 458.707,-925.11 460.176,-918.266"/>
</g>
<!-- Node7&#45;&gt;Node7 -->
<g id="edge15" class="edge"><title>Node7&#45;&gt;Node7</title>
<path fill="none" stroke="midnightblue" d="M239.26,-556.4C240.645,-561.315 247.559,-565 260,-565 279.906,-565 285.66,-555.565 277.262,-546.757"/>
<polygon fill="midnightblue" stroke="midnightblue" points="242.638,-557.351 242.738,-546.757 236.053,-554.977 242.638,-557.351"/>
</g>
<!-- Node8 -->
<g id="node8" class="node"><title>Node8</title>
<g id="a_node8"><a xlink:href="class_canvas.html#a4830e2b1c25e309489c489bad59ea9e1" target="_top" xlink:title="Canvas::drawPoint">
<polygon fill="white" stroke="black" points="354,-470.5 354,-489.5 454,-489.5 454,-470.5 354,-470.5"/>
<text text-anchor="middle" x="404" y="-477.5" font-family="Helvetica,sans-Serif" font-size="10.00">Canvas::drawPoint</text>
</a>
</g>
</g>
<!-- Node7&#45;&gt;Node8 -->
<g id="edge7" class="edge"><title>Node7&#45;&gt;Node8</title>
<path fill="none" stroke="midnightblue" d="M287.323,-522.587C301.965,-514.935 320.68,-505.746 338,-499 346.983,-495.501 356.881,-492.294 366.185,-489.551"/>
<polygon fill="midnightblue" stroke="midnightblue" points="285.537,-519.573 278.345,-527.353 288.819,-525.756 285.537,-519.573"/>
</g>
<!-- Node9 -->
<g id="node9" class="node"><title>Node9</title>
<g id="a_node9"><a xlink:href="class_canvas.html#aa379d9765fc40e770309001da99832c3" target="_top" xlink:title="Canvas::drawLine">
<polygon fill="white" stroke="black" points="356.5,-432.5 356.5,-451.5 451.5,-451.5 451.5,-432.5 356.5,-432.5"/>
<text text-anchor="middle" x="404" y="-439.5" font-family="Helvetica,sans-Serif" font-size="10.00">Canvas::drawLine</text>
</a>
</g>
</g>
<!-- Node7&#45;&gt;Node9 -->
<g id="edge8" class="edge"><title>Node7&#45;&gt;Node9</title>
<path fill="none" stroke="midnightblue" d="M274.635,-519.134C288.717,-501.869 312.218,-476.163 338,-461 344.486,-457.186 351.791,-454.091 359.101,-451.594"/>
<polygon fill="midnightblue" stroke="midnightblue" points="271.637,-517.283 268.168,-527.293 277.122,-521.631 271.637,-517.283"/>
</g>
<!-- Node10 -->
<g id="node10" class="node"><title>Node10</title>
<g id="a_node10"><a xlink:href="class_canvas.html#a347a381b7cd7381a84f49a8bdd77244c" target="_top" xlink:title="Canvas::drawRectangle">
<polygon fill="white" stroke="black" points="343,-394.5 343,-413.5 465,-413.5 465,-394.5 343,-394.5"/>
<text text-anchor="middle" x="404" y="-401.5" font-family="Helvetica,sans-Serif" font-size="10.00">Canvas::drawRectangle</text>
</a>
</g>
</g>
<!-- Node7&#45;&gt;Node10 -->
<g id="edge9" class="edge"><title>Node7&#45;&gt;Node10</title>
<path fill="none" stroke="midnightblue" d="M274.029,-519.003C282.192,-507.622 292.86,-492.553 302,-479 318.544,-454.469 314.301,-440.715 338,-423 343.179,-419.128 349.133,-416.043 355.29,-413.586"/>
<polygon fill="midnightblue" stroke="midnightblue" points="271.101,-517.08 268.097,-527.24 276.781,-521.171 271.101,-517.08"/>
</g>
<!-- Node11 -->
<g id="node11" class="node"><title>Node11</title>
<g id="a_node11"><a xlink:href="class_canvas.html#a02f659c0cb7809f6dbb18746eb547778" target="_top" xlink:title="Canvas::drawCircle">
<polygon fill="white" stroke="black" points="352.5,-356.5 352.5,-375.5 455.5,-375.5 455.5,-356.5 352.5,-356.5"/>
<text text-anchor="middle" x="404" y="-363.5" font-family="Helvetica,sans-Serif" font-size="10.00">Canvas::drawCircle</text>
</a>
</g>
</g>
<!-- Node7&#45;&gt;Node11 -->
<g id="edge10" class="edge"><title>Node7&#45;&gt;Node11</title>
<path fill="none" stroke="midnightblue" d="M275.339,-519.207C283.835,-508.099 294.391,-493.247 302,-479 323.076,-439.539 305.106,-415.321 338,-385 342.236,-381.095 347.232,-377.99 352.541,-375.52"/>
<polygon fill="midnightblue" stroke="midnightblue" points="272.468,-517.197 269.064,-527.23 277.982,-521.51 272.468,-517.197"/>
</g>
<!-- Node12 -->
<g id="node12" class="node"><title>Node12</title>
<g id="a_node12"><a xlink:href="class_canvas.html#a7790d284aece3ffb4455af3846521e5b" target="_top" xlink:title="Canvas::drawTriangle">
<polygon fill="white" stroke="black" points="348,-318.5 348,-337.5 460,-337.5 460,-318.5 348,-318.5"/>
<text text-anchor="middle" x="404" y="-325.5" font-family="Helvetica,sans-Serif" font-size="10.00">Canvas::drawTriangle</text>
</a>
</g>
</g>
<!-- Node7&#45;&gt;Node12 -->
<g id="edge11" class="edge"><title>Node7&#45;&gt;Node12</title>
<path fill="none" stroke="midnightblue" d="M275.853,-519.465C284.536,-508.452 295.109,-493.608 302,-479 327.945,-424.003 295.393,-390.387 338,-347 341.789,-343.141 346.316,-340.056 351.192,-337.59"/>
<polygon fill="midnightblue" stroke="midnightblue" points="272.995,-517.432 269.401,-527.399 278.426,-521.849 272.995,-517.432"/>
</g>
<!-- Node13 -->
<g id="node13" class="node"><title>Node13</title>
<g id="a_node13"><a xlink:href="class_canvas.html#a34af1e9202967cbb4088e18296af8296" target="_top" xlink:title="Canvas::drawText">
<polygon fill="white" stroke="black" points="355.5,-280.5 355.5,-299.5 452.5,-299.5 452.5,-280.5 355.5,-280.5"/>
<text text-anchor="middle" x="404" y="-287.5" font-family="Helvetica,sans-Serif" font-size="10.00">Canvas::drawText</text>
</a>
</g>
</g>
<!-- Node7&#45;&gt;Node13 -->
<g id="edge12" class="edge"><title>Node7&#45;&gt;Node13</title>
<path fill="none" stroke="midnightblue" d="M276.156,-519.603C284.949,-508.639 295.532,-493.8 302,-479 332.927,-408.232 285.495,-365.638 338,-309 342.796,-303.827 348.914,-300.035 355.471,-297.261"/>
<polygon fill="midnightblue" stroke="midnightblue" points="273.301,-517.562 269.6,-527.49 278.684,-522.037 273.301,-517.562"/>
</g>
<!-- Node14 -->
<g id="node14" class="node"><title>Node14</title>
<g id="a_node14"><a xlink:href="class_graphics_rectangle.html#ab7b6075e46e61d99dc9569219f1079bd" target="_top" xlink:title="GraphicsRectangle::\lwidth">
<polygon fill="white" stroke="black" points="351,-775 351,-805 457,-805 457,-775 351,-775"/>
<text text-anchor="start" x="359" y="-793" font-family="Helvetica,sans-Serif" font-size="10.00">GraphicsRectangle::</text>
<text text-anchor="middle" x="404" y="-782" font-family="Helvetica,sans-Serif" font-size="10.00">width</text>
</a>
</g>
</g>
<!-- Node7&#45;&gt;Node14 -->
<g id="edge13" class="edge"><title>Node7&#45;&gt;Node14</title>
<path fill="none" stroke="midnightblue" d="M281.601,-553.568C289.108,-560.642 296.978,-569.466 302,-579 340.227,-651.567 287.236,-695.577 338,-760 342.769,-766.053 349.041,-770.933 355.808,-774.854"/>
<polygon fill="midnightblue" stroke="midnightblue" points="283.56,-550.628 273.749,-546.628 278.924,-555.873 283.56,-550.628"/>
</g>
<!-- Node15 -->
<g id="node15" class="node"><title>Node15</title>
<g id="a_node15"><a xlink:href="class_graphics_square.html#a14374df804233349ce8654bbe41531e7" target="_top" xlink:title="GraphicsSquare::Graphics\lSquare">
<polygon fill="white" stroke="black" points="338.5,-231 338.5,-261 469.5,-261 469.5,-231 338.5,-231"/>
<text text-anchor="start" x="346.5" y="-249" font-family="Helvetica,sans-Serif" font-size="10.00">GraphicsSquare::Graphics</text>
<text text-anchor="middle" x="404" y="-238" font-family="Helvetica,sans-Serif" font-size="10.00">Square</text>
</a>
</g>
</g>
<!-- Node7&#45;&gt;Node15 -->
<g id="edge14" class="edge"><title>Node7&#45;&gt;Node15</title>
<path fill="none" stroke="midnightblue" d="M276.675,-519.29C285.474,-508.397 295.884,-493.739 302,-479 337.96,-392.346 278.462,-343.506 338,-271 341.146,-267.169 344.951,-263.924 349.124,-261.175"/>
<polygon fill="midnightblue" stroke="midnightblue" points="273.827,-517.24 270.076,-527.149 279.187,-521.741 273.827,-517.24"/>
</g>
<!-- Node7&#45;&gt;Node16 -->
<g id="edge16" class="edge"><title>Node7&#45;&gt;Node16</title>
<path fill="none" stroke="midnightblue" d="M281.821,-553.455C289.358,-560.514 297.19,-569.357 302,-579 349.162,-673.553 268.953,-734.018 338,-814 347.027,-824.457 361.38,-829.533 374.305,-831.962"/>
<polygon fill="midnightblue" stroke="midnightblue" points="283.747,-550.491 273.915,-546.543 279.14,-555.76 283.747,-550.491"/>
</g>
<!-- Node7&#45;&gt;Node21 -->
<g id="edge33" class="edge"><title>Node7&#45;&gt;Node21</title>
<path fill="none" stroke="midnightblue" d="M280.711,-553.601C288.226,-560.772 296.338,-569.656 302,-579 328.66,-622.993 296.352,-658.808 338,-689 385.499,-723.433 420.881,-721.08 470,-689 503.324,-667.236 475.585,-632.673 506,-607 516.289,-598.315 529.986,-593.506 542.917,-590.874"/>
<polygon fill="midnightblue" stroke="midnightblue" points="282.694,-550.674 272.934,-546.552 277.993,-555.861 282.694,-550.674"/>
</g>
<!-- Node28 -->
<g id="node28" class="node"><title>Node28</title>
<g id="a_node28"><a xlink:href="class_point.html#a3cdf750fa08f24c2aaaf7ada42df5ad8" target="_top" xlink:title="Point::setY">
<polygon fill="white" stroke="black" points="550.5,-862.5 550.5,-881.5 615.5,-881.5 615.5,-862.5 550.5,-862.5"/>
<text text-anchor="middle" x="583" y="-869.5" font-family="Helvetica,sans-Serif" font-size="10.00">Point::setY</text>
</a>
</g>
</g>
<!-- Node7&#45;&gt;Node28 -->
<g id="edge43" class="edge"><title>Node7&#45;&gt;Node28</title>
<path fill="none" stroke="midnightblue" d="M269.072,-556.08C278.197,-578.289 292.954,-616.239 302,-650 325.715,-738.508 270.118,-791.452 338,-853 368.376,-880.541 491.634,-877.354 550.46,-874.118"/>
<polygon fill="midnightblue" stroke="midnightblue" points="272.28,-554.679 265.206,-546.792 265.818,-557.369 272.28,-554.679"/>
</g>
<!-- Node30 -->
<g id="node30" class="node"><title>Node30</title>
<g id="a_node30"><a xlink:href="_point_8cpp.html#a872cb140a1e5f546a31b4b3d891b765a" target="_top" xlink:title="Surchage de l&#39;operateur ==. ">
<polygon fill="white" stroke="black" points="372,-546.5 372,-565.5 436,-565.5 436,-546.5 372,-546.5"/>
<text text-anchor="middle" x="404" y="-553.5" font-family="Helvetica,sans-Serif" font-size="10.00">operator==</text>
</a>
</g>
</g>
<!-- Node7&#45;&gt;Node30 -->
<g id="edge34" class="edge"><title>Node7&#45;&gt;Node30</title>
<path fill="none" stroke="midnightblue" d="M295.234,-541.581C318.554,-544.701 349.182,-548.799 371.824,-551.829"/>
<polygon fill="midnightblue" stroke="midnightblue" points="295.464,-538.08 285.088,-540.223 294.536,-545.018 295.464,-538.08"/>
</g>
<!-- Node31 -->
<g id="node31" class="node"><title>Node31</title>
<g id="a_node31"><a xlink:href="_point_8cpp.html#a4158330ef851082d91a82eefd03aa183" target="_top" xlink:title="Surchage de l&#39;operateur +. ">
<polygon fill="white" stroke="black" points="375,-508.5 375,-527.5 433,-527.5 433,-508.5 375,-508.5"/>
<text text-anchor="middle" x="404" y="-515.5" font-family="Helvetica,sans-Serif" font-size="10.00">operator+</text>
</a>
</g>
</g>
<!-- Node7&#45;&gt;Node31 -->
<g id="edge35" class="edge"><title>Node7&#45;&gt;Node31</title>
<path fill="none" stroke="midnightblue" d="M295.004,-532.45C319.419,-529.183 351.932,-524.833 374.884,-521.762"/>
<polygon fill="midnightblue" stroke="midnightblue" points="294.536,-528.982 285.088,-533.777 295.464,-535.92 294.536,-528.982"/>
</g>
<!-- Node32 -->
<g id="node32" class="node"><title>Node32</title>
<g id="a_node32"><a xlink:href="_point_8cpp.html#af304a4bde169f417ea02e56d3d4b7258" target="_top" xlink:title="Surchage de l&#39;operateur &#45;. ">
<polygon fill="white" stroke="black" points="376.5,-660.5 376.5,-679.5 431.5,-679.5 431.5,-660.5 376.5,-660.5"/>
<text text-anchor="middle" x="404" y="-667.5" font-family="Helvetica,sans-Serif" font-size="10.00">operator&#45;</text>
</a>
</g>
</g>
<!-- Node7&#45;&gt;Node32 -->
<g id="edge36" class="edge"><title>Node7&#45;&gt;Node32</title>
<path fill="none" stroke="midnightblue" d="M279.725,-553.753C287.219,-561.044 295.578,-569.976 302,-579 322.744,-608.149 310.539,-628.068 338,-651 348.739,-659.968 363.539,-664.704 376.304,-667.205"/>
<polygon fill="midnightblue" stroke="midnightblue" points="281.751,-550.853 272.066,-546.558 276.958,-555.955 281.751,-550.853"/>
</g>
<!-- Node33 -->
<g id="node33" class="node"><title>Node33</title>
<g id="a_node33"><a xlink:href="_point_8cpp.html#aab55cf13db83c55c46a961b2b2441960" target="_top" xlink:title="Surchage de l&#39;operateur &lt;&lt;. ">
<polygon fill="white" stroke="black" points="372,-622.5 372,-641.5 436,-641.5 436,-622.5 372,-622.5"/>
<text text-anchor="middle" x="404" y="-629.5" font-family="Helvetica,sans-Serif" font-size="10.00">operator&lt;&lt;</text>
</a>
</g>
</g>
<!-- Node7&#45;&gt;Node33 -->
<g id="edge37" class="edge"><title>Node7&#45;&gt;Node33</title>
<path fill="none" stroke="midnightblue" d="M277.689,-553.886C299.242,-575.632 334.431,-610.901 338,-613 348.337,-619.079 360.756,-623.33 371.956,-626.245"/>
<polygon fill="midnightblue" stroke="midnightblue" points="279.972,-551.217 270.449,-546.573 274.997,-556.142 279.972,-551.217"/>
</g>
<!-- Node34 -->
<g id="node34" class="node"><title>Node34</title>
<g id="a_node34"><a xlink:href="_point_8cpp.html#a4e1acba0f26daf714b7816d3c1994a74" target="_top" xlink:title="Surchage de l&#39;operateur &lt;. ">
<polygon fill="white" stroke="black" points="375,-584.5 375,-603.5 433,-603.5 433,-584.5 375,-584.5"/>
<text text-anchor="middle" x="404" y="-591.5" font-family="Helvetica,sans-Serif" font-size="10.00">operator&lt;</text>
</a>
</g>
</g>
<!-- Node7&#45;&gt;Node34 -->
<g id="edge38" class="edge"><title>Node7&#45;&gt;Node34</title>
<path fill="none" stroke="midnightblue" d="M287.323,-551.413C301.965,-559.065 320.68,-568.254 338,-575 349.832,-579.608 363.249,-583.71 374.808,-586.912"/>
<polygon fill="midnightblue" stroke="midnightblue" points="288.819,-548.244 278.345,-546.647 285.537,-554.427 288.819,-548.244"/>
</g>
<!-- Node35 -->
<g id="node35" class="node"><title>Node35</title>
<g id="a_node35"><a xlink:href="class_point.html#a9abe56cf3f067305623a1d805460a84f" target="_top" xlink:title="Point::setRelative">
<polygon fill="white" stroke="black" points="535.5,-616.5 535.5,-635.5 630.5,-635.5 630.5,-616.5 535.5,-616.5"/>
<text text-anchor="middle" x="583" y="-623.5" font-family="Helvetica,sans-Serif" font-size="10.00">Point::setRelative</text>
</a>
</g>
</g>
<!-- Node7&#45;&gt;Node35 -->
<g id="edge39" class="edge"><title>Node7&#45;&gt;Node35</title>
<path fill="none" stroke="midnightblue" d="M281.305,-553.73C288.772,-560.826 296.691,-569.623 302,-579 333.017,-633.785 288.146,-677.554 338,-716 384.457,-751.826 417.527,-742.237 470,-716 493.851,-704.074 485.883,-685.505 506,-668 521.922,-654.146 543.158,-642.884 559.135,-635.522"/>
<polygon fill="midnightblue" stroke="midnightblue" points="283.306,-550.823 273.525,-546.751 278.632,-556.034 283.306,-550.823"/>
</g>
<!-- Node17 -->
<g id="node17" class="node"><title>Node17</title>
<g id="a_node17"><a xlink:href="class_graphics_point.html#ac1242633c38521d881c9aa3548676dd4" target="_top" xlink:title="GraphicsPoint::GraphicsPoint">
<polygon fill="white" stroke="black" points="510,-824.5 510,-843.5 656,-843.5 656,-824.5 510,-824.5"/>
<text text-anchor="middle" x="583" y="-831.5" font-family="Helvetica,sans-Serif" font-size="10.00">GraphicsPoint::GraphicsPoint</text>
</a>
</g>
</g>
<!-- Node16&#45;&gt;Node17 -->
<g id="edge17" class="edge"><title>Node16&#45;&gt;Node17</title>
<path fill="none" stroke="midnightblue" d="M444.026,-834C463.299,-834 487.183,-834 509.634,-834"/>
<polygon fill="midnightblue" stroke="midnightblue" points="443.832,-830.5 433.832,-834 443.832,-837.5 443.832,-830.5"/>
</g>
<!-- Node18 -->
<g id="node18" class="node"><title>Node18</title>
<g id="a_node18"><a xlink:href="class_graphics_point.html#aaceb83d2bd068629dccfde4aee9c60f5" target="_top" xlink:title="GraphicsPoint::meHandleEvent">
<polygon fill="white" stroke="black" points="506,-786.5 506,-805.5 660,-805.5 660,-786.5 506,-786.5"/>
<text text-anchor="middle" x="583" y="-793.5" font-family="Helvetica,sans-Serif" font-size="10.00">GraphicsPoint::meHandleEvent</text>
</a>
</g>
</g>
<!-- Node16&#45;&gt;Node18 -->
<g id="edge18" class="edge"><title>Node16&#45;&gt;Node18</title>
<path fill="none" stroke="midnightblue" d="M443.928,-825.643C471.586,-819.705 508.779,-811.72 537.595,-805.533"/>
<polygon fill="midnightblue" stroke="midnightblue" points="442.875,-822.289 433.832,-827.81 444.344,-829.133 442.875,-822.289"/>
</g>
<!-- Node19 -->
<g id="node19" class="node"><title>Node19</title>
<g id="a_node19"><a xlink:href="class_main_window.html#a34c4b4207b46d11a4100c9b19f0e81bb" target="_top" xlink:title="MainWindow::MainWindow">
<polygon fill="white" stroke="black" points="838.5,-654.5 838.5,-673.5 973.5,-673.5 973.5,-654.5 838.5,-654.5"/>
<text text-anchor="middle" x="906" y="-661.5" font-family="Helvetica,sans-Serif" font-size="10.00">MainWindow::MainWindow</text>
</a>
</g>
</g>
<!-- Node16&#45;&gt;Node19 -->
<g id="edge19" class="edge"><title>Node16&#45;&gt;Node19</title>
<path fill="none" stroke="midnightblue" d="M443.465,-827.797C452.933,-824.835 462.496,-820.461 470,-814 498.019,-789.874 476.667,-761.51 506,-739 532.036,-719.02 731.384,-688.414 838.08,-673.219"/>
<polygon fill="midnightblue" stroke="midnightblue" points="442.481,-824.437 433.723,-830.399 444.287,-831.2 442.481,-824.437"/>
</g>
<!-- Node16&#45;&gt;Node20 -->
<g id="edge20" class="edge"><title>Node16&#45;&gt;Node20</title>
<path fill="none" stroke="midnightblue" d="M443.533,-828.575C453.165,-825.612 462.792,-821.042 470,-814 506.191,-778.641 469.349,-740.881 506,-706 557.476,-657.009 592.891,-686.373 660,-663 683.477,-654.823 709.654,-643.526 727.307,-635.572"/>
<polygon fill="midnightblue" stroke="midnightblue" points="442.416,-825.248 433.595,-831.117 444.151,-832.03 442.416,-825.248"/>
</g>
<!-- Node16&#45;&gt;Node21 -->
<g id="edge22" class="edge"><title>Node16&#45;&gt;Node21</title>
<path fill="none" stroke="midnightblue" d="M443.449,-829.512C453.36,-826.568 463.151,-821.774 470,-814 531.731,-743.934 442.416,-675.389 506,-607 515.446,-596.84 529.43,-591.76 542.836,-589.325"/>
<polygon fill="midnightblue" stroke="midnightblue" points="442.506,-826.139 433.602,-831.881 444.144,-832.945 442.506,-826.139"/>
</g>
<!-- Node23 -->
<g id="node23" class="node"><title>Node23</title>
<g id="a_node23"><a xlink:href="class_point.html#a62fd0fb2c699d6d4699d3be73762ffa2" target="_top" xlink:title="Point::setX">
<polygon fill="white" stroke="black" points="550.5,-748.5 550.5,-767.5 615.5,-767.5 615.5,-748.5 550.5,-748.5"/>
<text text-anchor="middle" x="583" y="-755.5" font-family="Helvetica,sans-Serif" font-size="10.00">Point::setX</text>
</a>
</g>
</g>
<!-- Node16&#45;&gt;Node23 -->
<g id="edge25" class="edge"><title>Node16&#45;&gt;Node23</title>
<path fill="none" stroke="midnightblue" d="M443.482,-825.631C452.561,-822.733 461.937,-818.93 470,-814 489.575,-802.031 486.112,-788.441 506,-777 519.439,-769.269 535.98,-764.655 550.196,-761.916"/>
<polygon fill="midnightblue" stroke="midnightblue" points="442.452,-822.285 433.822,-828.431 444.401,-829.008 442.452,-822.285"/>
</g>
<!-- Node16&#45;&gt;Node28 -->
<g id="edge30" class="edge"><title>Node16&#45;&gt;Node28</title>
<path fill="none" stroke="midnightblue" d="M443.74,-842.317C475.758,-849.191 520.648,-858.828 550.492,-865.236"/>
<polygon fill="midnightblue" stroke="midnightblue" points="444.344,-838.867 433.832,-840.19 442.875,-845.711 444.344,-838.867"/>
</g>
<!-- Node20&#45;&gt;Node19 -->
<g id="edge21" class="edge"><title>Node20&#45;&gt;Node19</title>
<path fill="none" stroke="midnightblue" d="M789.146,-635.597C812.68,-641.367 842.522,-648.683 866.025,-654.445"/>
<polygon fill="midnightblue" stroke="midnightblue" points="789.7,-632.129 779.154,-633.148 788.033,-638.928 789.7,-632.129"/>
</g>
<!-- Node21&#45;&gt;Node20 -->
<g id="edge24" class="edge"><title>Node21&#45;&gt;Node20</title>
<path fill="none" stroke="midnightblue" d="M633.255,-599.413C661.15,-605.876 695.093,-613.741 718.797,-619.233"/>
<polygon fill="midnightblue" stroke="midnightblue" points="633.814,-595.95 623.282,-597.102 632.234,-602.769 633.814,-595.95"/>
</g>
<!-- Node22 -->
<g id="node22" class="node"><title>Node22</title>
<g id="a_node22"><a xlink:href="class_point.html#a395fa04b4ec126b66fc053f829a30cc1" target="_top" xlink:title="Point::~Point">
<polygon fill="white" stroke="black" points="712,-578.5 712,-597.5 786,-597.5 786,-578.5 712,-578.5"/>
<text text-anchor="middle" x="749" y="-585.5" font-family="Helvetica,sans-Serif" font-size="10.00">Point::~Point</text>
</a>
</g>
</g>
<!-- Node21&#45;&gt;Node22 -->
<g id="edge23" class="edge"><title>Node21&#45;&gt;Node22</title>
<path fill="none" stroke="midnightblue" d="M633.402,-588C658.64,-588 688.799,-588 711.841,-588"/>
<polygon fill="midnightblue" stroke="midnightblue" points="633.282,-584.5 623.282,-588 633.282,-591.5 633.282,-584.5"/>
</g>
<!-- Node24 -->
<g id="node24" class="node"><title>Node24</title>
<g id="a_node24"><a xlink:href="class_graphics_rectangle.html#a3efd2295cd742f75de829851bf7ca3dd" target="_top" xlink:title="GraphicsRectangle::\lsetWidth">
<polygon fill="white" stroke="black" points="696,-781 696,-811 802,-811 802,-781 696,-781"/>
<text text-anchor="start" x="704" y="-799" font-family="Helvetica,sans-Serif" font-size="10.00">GraphicsRectangle::</text>
<text text-anchor="middle" x="749" y="-788" font-family="Helvetica,sans-Serif" font-size="10.00">setWidth</text>
</a>
</g>
</g>
<!-- Node23&#45;&gt;Node24 -->
<g id="edge26" class="edge"><title>Node23&#45;&gt;Node24</title>
<path fill="none" stroke="midnightblue" d="M625.374,-767.587C646.755,-772.541 673.066,-778.637 695.828,-783.911"/>
<polygon fill="midnightblue" stroke="midnightblue" points="626.153,-764.174 615.621,-765.327 624.573,-770.994 626.153,-764.174"/>
</g>
<!-- Node25 -->
<g id="node25" class="node"><title>Node25</title>
<g id="a_node25"><a xlink:href="class_line_edit.html#a636e2ac65a70dd82fcf02f863da5c446" target="_top" xlink:title="LineEdit::setText">
<polygon fill="white" stroke="black" points="860.5,-790.5 860.5,-809.5 951.5,-809.5 951.5,-790.5 860.5,-790.5"/>
<text text-anchor="middle" x="906" y="-797.5" font-family="Helvetica,sans-Serif" font-size="10.00">LineEdit::setText</text>
</a>
</g>
</g>
<!-- Node24&#45;&gt;Node25 -->
<g id="edge27" class="edge"><title>Node24&#45;&gt;Node25</title>
<path fill="none" stroke="midnightblue" d="M812.427,-797.611C828.469,-798.025 845.408,-798.462 860.349,-798.848"/>
<polygon fill="midnightblue" stroke="midnightblue" points="812.131,-794.102 802.044,-797.343 811.95,-801.1 812.131,-794.102"/>
</g>
<!-- Node26 -->
<g id="node26" class="node"><title>Node26</title>
<g id="a_node26"><a xlink:href="class_line_edit.html#a04e1cd86821efe7570868ae397978186" target="_top" xlink:title="LineEdit::LineEdit">
<polygon fill="white" stroke="black" points="1027.5,-835.5 1027.5,-854.5 1120.5,-854.5 1120.5,-835.5 1027.5,-835.5"/>
<text text-anchor="middle" x="1074" y="-842.5" font-family="Helvetica,sans-Serif" font-size="10.00">LineEdit::LineEdit</text>
</a>
</g>
</g>
<!-- Node25&#45;&gt;Node26 -->
<g id="edge28" class="edge"><title>Node25&#45;&gt;Node26</title>
<path fill="none" stroke="midnightblue" d="M952.175,-812.246C979.139,-819.556 1012.88,-828.702 1037.85,-835.47"/>
<polygon fill="midnightblue" stroke="midnightblue" points="952.772,-808.782 942.204,-809.543 950.94,-815.538 952.772,-808.782"/>
</g>
<!-- Node27 -->
<g id="node27" class="node"><title>Node27</title>
<g id="a_node27"><a xlink:href="class_line_edit.html#a8d5e79e8a895901381e301d41d3d4343" target="_top" xlink:title="LineEdit::meHandleEvent">
<polygon fill="white" stroke="black" points="1010,-790.5 1010,-809.5 1138,-809.5 1138,-790.5 1010,-790.5"/>
<text text-anchor="middle" x="1074" y="-797.5" font-family="Helvetica,sans-Serif" font-size="10.00">LineEdit::meHandleEvent</text>
</a>
</g>
</g>
<!-- Node25&#45;&gt;Node27 -->
<g id="edge29" class="edge"><title>Node25&#45;&gt;Node27</title>
<path fill="none" stroke="midnightblue" d="M962.255,-800C977.551,-800 994.268,-800 1009.97,-800"/>
<polygon fill="midnightblue" stroke="midnightblue" points="961.922,-796.5 951.922,-800 961.922,-803.5 961.922,-796.5"/>
</g>
<!-- Node29 -->
<g id="node29" class="node"><title>Node29</title>
<g id="a_node29"><a xlink:href="class_graphics_rectangle.html#aea349ac359e4f2227f1da772c1a26ab6" target="_top" xlink:title="GraphicsRectangle::\lsetHeight">
<polygon fill="white" stroke="black" points="853,-837 853,-867 959,-867 959,-837 853,-837"/>
<text text-anchor="start" x="861" y="-855" font-family="Helvetica,sans-Serif" font-size="10.00">GraphicsRectangle::</text>
<text text-anchor="middle" x="906" y="-844" font-family="Helvetica,sans-Serif" font-size="10.00">setHeight</text>
</a>
</g>
</g>
<!-- Node28&#45;&gt;Node29 -->
<g id="edge31" class="edge"><title>Node28&#45;&gt;Node29</title>
<path fill="none" stroke="midnightblue" d="M625.964,-869.385C684.209,-865.756 789.509,-859.196 852.768,-855.254"/>
<polygon fill="midnightblue" stroke="midnightblue" points="625.42,-865.912 615.657,-870.028 625.856,-872.899 625.42,-865.912"/>
</g>
<!-- Node29&#45;&gt;Node26 -->
<g id="edge32" class="edge"><title>Node29&#45;&gt;Node26</title>
<path fill="none" stroke="midnightblue" d="M969.269,-849.374C988.524,-848.562 1009.37,-847.683 1027.29,-846.928"/>
<polygon fill="midnightblue" stroke="midnightblue" points="968.912,-845.886 959.068,-849.804 969.207,-852.88 968.912,-845.886"/>
</g>
<!-- Node35&#45;&gt;Node19 -->
<g id="edge40" class="edge"><title>Node35&#45;&gt;Node19</title>
<path fill="none" stroke="midnightblue" d="M640.876,-636.525C658.502,-639.551 678.016,-642.661 696,-645 743.511,-651.18 797.358,-656.024 838.496,-659.275"/>
<polygon fill="midnightblue" stroke="midnightblue" points="641.195,-633.028 630.743,-634.76 639.994,-639.924 641.195,-633.028"/>
</g>
<!-- Node35&#45;&gt;Node20 -->
<g id="edge41" class="edge"><title>Node35&#45;&gt;Node20</title>
<path fill="none" stroke="midnightblue" d="M640.805,-626C667.122,-626 697.273,-626 718.881,-626"/>
<polygon fill="midnightblue" stroke="midnightblue" points="640.557,-622.5 630.557,-626 640.557,-629.5 640.557,-622.5"/>
</g>
<!-- Node35&#45;&gt;Node35 -->
<g id="edge42" class="edge"><title>Node35&#45;&gt;Node35</title>
<path fill="none" stroke="midnightblue" d="M551.937,-644.275C552.823,-649.741 563.177,-654 583,-654 612.504,-654 621.032,-644.565 608.585,-635.757"/>
<polygon fill="midnightblue" stroke="midnightblue" points="554.949,-646.061 557.415,-635.757 549.062,-642.275 554.949,-646.061"/>
</g>
<!-- Node36&#45;&gt;Node8 -->
<g id="edge45" class="edge"><title>Node36&#45;&gt;Node8</title>
<path fill="none" stroke="midnightblue" d="M294.928,-451.079C316.776,-456.926 345.133,-464.515 367.318,-470.451"/>
<polygon fill="midnightblue" stroke="midnightblue" points="295.653,-447.65 285.088,-448.446 293.844,-454.412 295.653,-447.65"/>
</g>
<!-- Node36&#45;&gt;Node9 -->
<g id="edge46" class="edge"><title>Node36&#45;&gt;Node9</title>
<path fill="none" stroke="midnightblue" d="M295.301,-442C313.623,-442 336.442,-442 356.353,-442"/>
<polygon fill="midnightblue" stroke="midnightblue" points="295.088,-438.5 285.088,-442 295.088,-445.5 295.088,-438.5"/>
</g>
<!-- Node36&#45;&gt;Node10 -->
<g id="edge47" class="edge"><title>Node36&#45;&gt;Node10</title>
<path fill="none" stroke="midnightblue" d="M294.928,-432.921C316.776,-427.074 345.133,-419.485 367.318,-413.549"/>
<polygon fill="midnightblue" stroke="midnightblue" points="293.844,-429.588 285.088,-435.554 295.653,-436.35 293.844,-429.588"/>
</g>
<!-- Node36&#45;&gt;Node11 -->
<g id="edge48" class="edge"><title>Node36&#45;&gt;Node11</title>
<path fill="none" stroke="midnightblue" d="M279.553,-425.311C294.428,-412.692 316.331,-395.758 338,-385 345.582,-381.236 354.041,-378.086 362.283,-375.503"/>
<polygon fill="midnightblue" stroke="midnightblue" points="276.917,-422.964 271.661,-432.163 281.507,-428.25 276.917,-422.964"/>
</g>
<!-- Node36&#45;&gt;Node12 -->
<g id="edge49" class="edge"><title>Node36&#45;&gt;Node12</title>
<path fill="none" stroke="midnightblue" d="M271.261,-423.466C284.11,-401.951 308.109,-366.885 338,-347 343.775,-343.158 350.341,-340.078 357.026,-337.612"/>
<polygon fill="midnightblue" stroke="midnightblue" points="268.133,-421.885 266.161,-432.295 274.194,-425.386 268.133,-421.885"/>
</g>
<!-- Node36&#45;&gt;Node13 -->
<g id="edge50" class="edge"><title>Node36&#45;&gt;Node13</title>
<path fill="none" stroke="midnightblue" d="M267.042,-422.492C277.05,-393.416 299.841,-338.935 338,-309 343.18,-304.936 349.204,-301.741 355.455,-299.229"/>
<polygon fill="midnightblue" stroke="midnightblue" points="263.62,-421.694 263.826,-432.287 270.271,-423.877 263.62,-421.694"/>
</g>
<!-- Node36&#45;&gt;Node15 -->
<g id="edge52" class="edge"><title>Node36&#45;&gt;Node15</title>
<path fill="none" stroke="midnightblue" d="M264.705,-422.456C272.323,-387.415 292.958,-313.591 338,-271 342.041,-267.179 346.729,-263.924 351.7,-261.154"/>
<polygon fill="midnightblue" stroke="midnightblue" points="261.25,-421.883 262.674,-432.382 268.107,-423.286 261.25,-421.883"/>
</g>
<!-- Node36&#45;&gt;Node16 -->
<g id="edge54" class="edge"><title>Node36&#45;&gt;Node16</title>
<path fill="none" stroke="midnightblue" d="M273.527,-460.479C282.962,-475.35 295.366,-497.139 302,-518 322.08,-581.147 295.482,-763.177 338,-814 346.94,-824.686 361.448,-829.77 374.492,-832.146"/>
<polygon fill="midnightblue" stroke="midnightblue" points="276.247,-458.242 267.847,-451.784 270.386,-462.07 276.247,-458.242"/>
</g>
<!-- Node36&#45;&gt;Node21 -->
<g id="edge55" class="edge"><title>Node36&#45;&gt;Node21</title>
<path fill="none" stroke="midnightblue" d="M262.245,-422.291C266.938,-355.076 286.019,-136.71 338,-95 383.757,-58.2837 424.151,-58.3988 470,-95 549.913,-158.794 577.138,-514.857 581.385,-578.322"/>
<polygon fill="midnightblue" stroke="midnightblue" points="258.746,-422.164 261.571,-432.375 265.73,-422.631 258.746,-422.164"/>
</g>
<!-- Node36&#45;&gt;Node23 -->
<g id="edge62" class="edge"><title>Node36&#45;&gt;Node23</title>
<path fill="none" stroke="midnightblue" d="M260.924,-422.024C261.97,-377.069 271.579,-268.195 338,-221 385.824,-187.019 426.865,-181.236 470,-221 542.457,-287.795 469.629,-571.41 506,-663 520.343,-699.12 553.33,-732.395 570.75,-748.254"/>
<polygon fill="midnightblue" stroke="midnightblue" points="257.422,-422.191 260.813,-432.228 264.421,-422.267 257.422,-422.191"/>
</g>
<!-- Node36&#45;&gt;Node30 -->
<g id="edge56" class="edge"><title>Node36&#45;&gt;Node30</title>
<path fill="none" stroke="midnightblue" d="M271.261,-460.534C284.11,-482.049 308.109,-517.115 338,-537 348.082,-543.707 360.574,-548.093 371.904,-550.94"/>
<polygon fill="midnightblue" stroke="midnightblue" points="274.194,-458.614 266.161,-451.705 268.133,-462.115 274.194,-458.614"/>
</g>
<!-- Node36&#45;&gt;Node31 -->
<g id="edge57" class="edge"><title>Node36&#45;&gt;Node31</title>
<path fill="none" stroke="midnightblue" d="M279.553,-458.689C294.428,-471.308 316.331,-488.242 338,-499 349.584,-504.751 363.214,-509.068 374.993,-512.121"/>
<polygon fill="midnightblue" stroke="midnightblue" points="281.507,-455.75 271.661,-451.837 276.917,-461.036 281.507,-455.75"/>
</g>
<!-- Node36&#45;&gt;Node32 -->
<g id="edge58" class="edge"><title>Node36&#45;&gt;Node32</title>
<path fill="none" stroke="midnightblue" d="M272.71,-460.771C281.693,-475.804 293.89,-497.667 302,-518 324.688,-574.88 295.134,-607.266 338,-651 348.04,-661.243 363.273,-666.039 376.469,-668.252"/>
<polygon fill="midnightblue" stroke="midnightblue" points="275.536,-458.684 267.346,-451.964 269.558,-462.325 275.536,-458.684"/>
</g>
<!-- Node36&#45;&gt;Node33 -->
<g id="edge59" class="edge"><title>Node36&#45;&gt;Node33</title>
<path fill="none" stroke="midnightblue" d="M271.873,-460.496C280.575,-475.673 292.803,-497.865 302,-518 320.76,-559.07 304.854,-582.339 338,-613 347.235,-621.542 360.105,-626.263 371.959,-628.865"/>
<polygon fill="midnightblue" stroke="midnightblue" points="274.775,-458.523 266.731,-451.628 268.719,-462.034 274.775,-458.523"/>
</g>
<!-- Node36&#45;&gt;Node34 -->
<g id="edge60" class="edge"><title>Node36&#45;&gt;Node34</title>
<path fill="none" stroke="midnightblue" d="M271.253,-460.539C291.016,-496.153 332.891,-570.992 338,-575 348.545,-583.272 362.588,-587.945 374.923,-590.583"/>
<polygon fill="midnightblue" stroke="midnightblue" points="274.223,-458.676 266.314,-451.626 268.1,-462.069 274.223,-458.676"/>
</g>
<!-- Node36&#45;&gt;Node35 -->
<g id="edge61" class="edge"><title>Node36&#45;&gt;Node35</title>
<path fill="none" stroke="midnightblue" d="M263.965,-422.092C272.565,-367.336 299.389,-216.641 338,-188 385.118,-153.048 426.777,-148.332 470,-188 538.852,-251.19 445.384,-535.87 506,-607 513.41,-615.695 524.14,-620.73 535.213,-623.57"/>
<polygon fill="midnightblue" stroke="midnightblue" points="260.464,-421.827 262.408,-432.242 267.384,-422.888 260.464,-421.827"/>
</g>
<!-- Node36&#45;&gt;Node36 -->
<g id="edge53" class="edge"><title>Node36&#45;&gt;Node36</title>
<path fill="none" stroke="midnightblue" d="M239.26,-461.4C240.645,-466.315 247.559,-470 260,-470 279.906,-470 285.66,-460.565 277.262,-451.757"/>
<polygon fill="midnightblue" stroke="midnightblue" points="242.638,-462.351 242.738,-451.757 236.053,-459.977 242.638,-462.351"/>
</g>
<!-- Node37 -->
<g id="node37" class="node"><title>Node37</title>
<g id="a_node37"><a xlink:href="class_graphics_rectangle.html#ab1a0b1219fdc7694c6f5902c19f9e429" target="_top" xlink:title="GraphicsRectangle::\lheight">
<polygon fill="white" stroke="black" points="351,-105 351,-135 457,-135 457,-105 351,-105"/>
<text text-anchor="start" x="359" y="-123" font-family="Helvetica,sans-Serif" font-size="10.00">GraphicsRectangle::</text>
<text text-anchor="middle" x="404" y="-112" font-family="Helvetica,sans-Serif" font-size="10.00">height</text>
</a>
</g>
</g>
<!-- Node36&#45;&gt;Node37 -->
<g id="edge51" class="edge"><title>Node36&#45;&gt;Node37</title>
<path fill="none" stroke="midnightblue" d="M260.72,-422.347C261.029,-371.295 268.606,-232.705 338,-150 343.113,-143.907 349.732,-138.985 356.784,-135.03"/>
<polygon fill="midnightblue" stroke="midnightblue" points="257.22,-422.378 260.752,-432.367 264.22,-422.356 257.22,-422.378"/>
</g>
</g>
</svg>
        <g id="navigator" transform="translate(0 0)" fill="#404254">
                <rect fill="#f2f5e9" fill-opacity="0.5" stroke="#606060" stroke-width=".5" x="0" y="0" width="60" height="60"/>
                <use id="zoomplus" xlink:href="#zoomPlus" x="17" y="9" onmousedown="handleZoom(evt,'in')"/>
                <use id="zoomminus" xlink:href="#zoomMin" x="42" y="9" onmousedown="handleZoom(evt,'out')"/>
                <use id="reset" xlink:href="#resetDef" x="30" y="36" onmousedown="handleReset()"/>
                <g id="arrowUp" xlink:href="#dirArrow" transform="translate(30 24)" onmousedown="handlePan(0,-1)">
                  <use xlink:href="#rim" fill="#404040">
                        <set attributeName="fill" to="#808080" begin="arrowUp.mouseover" end="arrowUp.mouseout"/>
                  </use>
                  <path fill="none" stroke="white" stroke-width="1.5" d="M0,-3.0v7 M-2.5,-0.5L0,-3.0L2.5,-0.5"/>
                </g>
                <g id="arrowRight" xlink:href="#dirArrow" transform="rotate(90) translate(36 -43)" onmousedown="handlePan(1,0)">
                  <use xlink:href="#rim" fill="#404040">
                        <set attributeName="fill" to="#808080" begin="arrowRight.mouseover" end="arrowRight.mouseout"/>
                  </use>
                  <path fill="none" stroke="white" stroke-width="1.5" d="M0,-3.0v7 M-2.5,-0.5L0,-3.0L2.5,-0.5"/>
                </g>
                <g id="arrowDown" xlink:href="#dirArrow" transform="rotate(180) translate(-30 -48)" onmousedown="handlePan(0,1)">
                  <use xlink:href="#rim" fill="#404040">
                        <set attributeName="fill" to="#808080" begin="arrowDown.mouseover" end="arrowDown.mouseout"/>
                  </use>
                  <path fill="none" stroke="white" stroke-width="1.5" d="M0,-3.0v7 M-2.5,-0.5L0,-3.0L2.5,-0.5"/>
                </g>
                <g id="arrowLeft" xlink:href="#dirArrow" transform="rotate(270) translate(-36 17)" onmousedown="handlePan(-1,0)">
                  <use xlink:href="#rim" fill="#404040">
                        <set attributeName="fill" to="#808080" begin="arrowLeft.mouseover" end="arrowLeft.mouseout"/>
                  </use>
                  <path fill="none" stroke="white" stroke-width="1.5" d="M0,-3.0v7 M-2.5,-0.5L0,-3.0L2.5,-0.5"/>
                </g>
        </g>
        <svg viewBox="0 0 15 15" width="100%" height="30px" preserveAspectRatio="xMaxYMin meet">
         <g id="arrow_out" transform="scale(0.3 0.3)">
          <a xlink:href="class_point_a64a5fe8c9b1d1a1543aaa64031537380_icgraph_org.svg" target="_base">
           <rect id="button" ry="5" rx="5" y="6" x="6" height="38" width="38"
                fill="#f2f5e9" fill-opacity="0.5" stroke="#606060" stroke-width="1.0"/>
           <path id="arrow"
             d="M 11.500037,31.436501 C 11.940474,20.09759 22.043105,11.32322 32.158766,21.979434 L 37.068811,17.246167 C 37.068811,17.246167 37.088388,32 37.088388,32 L 22.160133,31.978069 C 22.160133,31.978069 26.997745,27.140456 26.997745,27.140456 C 18.528582,18.264221 13.291696,25.230495 11.500037,31.436501 z"
             style="fill:#404040;"/>
          </a>
         </g>
        </svg>
</svg>
