<?xml version="1.0" encoding="UTF-8" standalone="no"?>
<!DOCTYPE svg PUBLIC "-//W3C//DTD SVG 1.1//EN"
 "http://www.w3.org/Graphics/SVG/1.1/DTD/svg11.dtd">
<!-- Generated by graphviz version 2.36.0 (20140111.2315)
 -->
<!-- Title: Point::beAlone Pages: 1 -->
<svg width="380pt" height="104pt"
 viewBox="0.00 0.00 380.00 104.00" xmlns="http://www.w3.org/2000/svg" xmlns:xlink="http://www.w3.org/1999/xlink">
<g id="graph0" class="graph" transform="scale(1 1) rotate(0) translate(4 100)">
<title>Point::beAlone</title>
<polygon fill="white" stroke="none" points="-4,4 -4,-100 376,-100 376,4 -4,4"/>
<!-- Node1 -->
<g id="node1" class="node"><title>Node1</title>
<polygon fill="#bfbfbf" stroke="black" points="0,-38.5 0,-57.5 80,-57.5 80,-38.5 0,-38.5"/>
<text text-anchor="middle" x="40" y="-45.5" font-family="Helvetica,sans-Serif" font-size="10.00">Point::beAlone</text>
</g>
<!-- Node2 -->
<g id="node2" class="node"><title>Node2</title>
<g id="a_node2"><a xlink:href="class_point.html#a395fa04b4ec126b66fc053f829a30cc1" target="_top" xlink:title="Point::~Point">
<polygon fill="white" stroke="black" points="121,-76.5 121,-95.5 195,-95.5 195,-76.5 121,-76.5"/>
<text text-anchor="middle" x="158" y="-83.5" font-family="Helvetica,sans-Serif" font-size="10.00">Point::~Point</text>
</a>
</g>
</g>
<!-- Node1&#45;&gt;Node2 -->
<g id="edge1" class="edge"><title>Node1&#45;&gt;Node2</title>
<path fill="none" stroke="midnightblue" d="M80.1528,-60.8259C95.7176,-65.9247 113.314,-71.6891 127.738,-76.4141"/>
<polygon fill="midnightblue" stroke="midnightblue" points="80.8644,-57.3761 70.2717,-57.589 78.6852,-64.0282 80.8644,-57.3761"/>
</g>
<!-- Node3 -->
<g id="node3" class="node"><title>Node3</title>
<g id="a_node3"><a xlink:href="class_point.html#a4fa7ffadfb6c9de033bfef5decdaa66e" target="_top" xlink:title="Point::join">
<polygon fill="white" stroke="black" points="128,-38.5 128,-57.5 188,-57.5 188,-38.5 128,-38.5"/>
<text text-anchor="middle" x="158" y="-45.5" font-family="Helvetica,sans-Serif" font-size="10.00">Point::join</text>
</a>
</g>
</g>
<!-- Node1&#45;&gt;Node3 -->
<g id="edge2" class="edge"><title>Node1&#45;&gt;Node3</title>
<path fill="none" stroke="midnightblue" d="M90.3073,-48C103.033,-48 116.33,-48 127.672,-48"/>
<polygon fill="midnightblue" stroke="midnightblue" points="90.2723,-44.5001 80.2723,-48 90.2723,-51.5001 90.2723,-44.5001"/>
</g>
<!-- Node6 -->
<g id="node6" class="node"><title>Node6</title>
<g id="a_node6"><a xlink:href="class_point.html#afc78333ec50c2cfb63b19db436064820" target="_top" xlink:title="Point::setOrigin">
<polygon fill="white" stroke="black" points="116,-0.5 116,-19.5 200,-19.5 200,-0.5 116,-0.5"/>
<text text-anchor="middle" x="158" y="-7.5" font-family="Helvetica,sans-Serif" font-size="10.00">Point::setOrigin</text>
</a>
</g>
</g>
<!-- Node1&#45;&gt;Node6 -->
<g id="edge5" class="edge"><title>Node1&#45;&gt;Node6</title>
<path fill="none" stroke="midnightblue" d="M80.1528,-35.1741C95.7176,-30.0753 113.314,-24.3109 127.738,-19.5859"/>
<polygon fill="midnightblue" stroke="midnightblue" points="78.6852,-31.9718 70.2717,-38.411 80.8644,-38.6239 78.6852,-31.9718"/>
</g>
<!-- Node4 -->
<g id="node4" class="node"><title>Node4</title>
<g id="a_node4"><a xlink:href="class_main_window.html#a34c4b4207b46d11a4100c9b19f0e81bb" target="_top" xlink:title="MainWindow::MainWindow">
<polygon fill="white" stroke="black" points="236.5,-57.5 236.5,-76.5 371.5,-76.5 371.5,-57.5 236.5,-57.5"/>
<text text-anchor="middle" x="304" y="-64.5" font-family="Helvetica,sans-Serif" font-size="10.00">MainWindow::MainWindow</text>
</a>
</g>
</g>
<!-- Node3&#45;&gt;Node4 -->
<g id="edge3" class="edge"><title>Node3&#45;&gt;Node4</title>
<path fill="none" stroke="midnightblue" d="M198.114,-53.1608C209.955,-54.7233 223.308,-56.4851 236.42,-58.2152"/>
<polygon fill="midnightblue" stroke="midnightblue" points="198.512,-49.6832 188.141,-51.8449 197.597,-56.6231 198.512,-49.6832"/>
</g>
<!-- Node5 -->
<g id="node5" class="node"><title>Node5</title>
<g id="a_node5"><a xlink:href="class_point.html#a124214ff8c077246f7d6d58b07dc063b" target="_top" xlink:title="Point::setOrigin">
<polygon fill="white" stroke="black" points="262,-19.5 262,-38.5 346,-38.5 346,-19.5 262,-19.5"/>
<text text-anchor="middle" x="304" y="-26.5" font-family="Helvetica,sans-Serif" font-size="10.00">Point::setOrigin</text>
</a>
</g>
</g>
<!-- Node3&#45;&gt;Node5 -->
<g id="edge4" class="edge"><title>Node3&#45;&gt;Node5</title>
<path fill="none" stroke="midnightblue" d="M198.327,-42.811C218.053,-40.2083 241.932,-37.0576 261.898,-34.4232"/>
<polygon fill="midnightblue" stroke="midnightblue" points="197.597,-39.3769 188.141,-44.1551 198.512,-46.3168 197.597,-39.3769"/>
</g>
</g>
</svg>
