<?xml version="1.0" encoding="UTF-8" standalone="no"?>
<!DOCTYPE svg PUBLIC "-//W3C//DTD SVG 1.1//EN"
 "http://www.w3.org/Graphics/SVG/1.1/DTD/svg11.dtd">
<!-- Generated by graphviz version 2.36.0 (20140111.2315)
 -->
<!-- Title: Button Pages: 1 -->
<svg width="320pt" height="958pt"
 viewBox="0.00 0.00 320.00 958.00" xmlns="http://www.w3.org/2000/svg" xmlns:xlink="http://www.w3.org/1999/xlink">
<g id="graph0" class="graph" transform="scale(1 1) rotate(0) translate(4 954)">
<title>Button</title>
<polygon fill="white" stroke="none" points="-4,4 -4,-954 316,-954 316,4 -4,4"/>
<!-- Node1 -->
<g id="node1" class="node"><title>Node1</title>
<polygon fill="#bfbfbf" stroke="black" points="88.5,-1 88.5,-157 189.5,-157 189.5,-1 88.5,-1"/>
<text text-anchor="middle" x="139" y="-145" font-family="Helvetica,sans-Serif" font-size="10.00">Button</text>
<polyline fill="none" stroke="black" points="88.5,-138 189.5,-138 "/>
<text text-anchor="start" x="96.5" y="-126" font-family="Helvetica,sans-Serif" font-size="10.00">&#45; m_textChanged</text>
<text text-anchor="start" x="96.5" y="-115" font-family="Helvetica,sans-Serif" font-size="10.00">&#45; m_clicked_left</text>
<text text-anchor="start" x="96.5" y="-104" font-family="Helvetica,sans-Serif" font-size="10.00">&#45; m_clicked_right</text>
<polyline fill="none" stroke="black" points="88.5,-97 189.5,-97 "/>
<text text-anchor="start" x="96.5" y="-85" font-family="Helvetica,sans-Serif" font-size="10.00">+ Button()</text>
<text text-anchor="start" x="96.5" y="-74" font-family="Helvetica,sans-Serif" font-size="10.00">+ Button()</text>
<text text-anchor="start" x="96.5" y="-63" font-family="Helvetica,sans-Serif" font-size="10.00">+ text()</text>
<text text-anchor="start" x="96.5" y="-52" font-family="Helvetica,sans-Serif" font-size="10.00">+ setText()</text>
<text text-anchor="start" x="96.5" y="-41" font-family="Helvetica,sans-Serif" font-size="10.00">+ textChanged()</text>
<text text-anchor="start" x="96.5" y="-30" font-family="Helvetica,sans-Serif" font-size="10.00">+ clicked_left()</text>
<text text-anchor="start" x="96.5" y="-19" font-family="Helvetica,sans-Serif" font-size="10.00">+ clicked_right()</text>
<text text-anchor="start" x="96.5" y="-8" font-family="Helvetica,sans-Serif" font-size="10.00"># meHandleEvent()</text>
</g>
<!-- Node2 -->
<g id="node2" class="node"><title>Node2</title>
<g id="a_node2"><a xlink:href="class_widget.html" target="_top" xlink:title="{Widget\n||+ Widget()\l}">
<polygon fill="white" stroke="black" points="108,-267.5 108,-324.5 170,-324.5 170,-267.5 108,-267.5"/>
<text text-anchor="middle" x="139" y="-312.5" font-family="Helvetica,sans-Serif" font-size="10.00">Widget</text>
<polyline fill="none" stroke="black" points="108,-305.5 170,-305.5 "/>
<text text-anchor="middle" x="139" y="-293.5" font-family="Helvetica,sans-Serif" font-size="10.00"> </text>
<polyline fill="none" stroke="black" points="108,-286.5 170,-286.5 "/>
<text text-anchor="start" x="116" y="-274.5" font-family="Helvetica,sans-Serif" font-size="10.00">+ Widget()</text>
</a>
</g>
</g>
<!-- Node2&#45;&gt;Node1 -->
<g id="edge1" class="edge"><title>Node2&#45;&gt;Node1</title>
<path fill="none" stroke="midnightblue" d="M139,-257.294C139,-229.63 139,-191.104 139,-157.03"/>
<polygon fill="none" stroke="midnightblue" points="135.5,-257.333 139,-267.333 142.5,-257.333 135.5,-257.333"/>
</g>
<!-- Node3 -->
<g id="node3" class="node"><title>Node3</title>
<g id="a_node3"><a xlink:href="class_graphics_item.html" target="_top" xlink:title="{GraphicsItem\n|&#45; m_children\l&#45; m_positionCorrector\l&#45; m_z\l&#45; m_thick\l&#45; m_isFill\l&#45; m_isVisible\l|+ GraphicsItem()\l+ ~GraphicsItem()\l+ parent()\l+ setParent()\l+ type()\l+ children()\l+ anchor()\l+ setAnchor()\l+ absolute()\l+ setAbsolute()\let 17 de plus...\l+ focusItem()\l+ setFocusItem()\l# meDraw()\l# meUpdate()\l# meHandleEvent()\l# meIsOver()\l}">
<polygon fill="white" stroke="black" points="120,-445 120,-733 230,-733 230,-445 120,-445"/>
<text text-anchor="middle" x="175" y="-721" font-family="Helvetica,sans-Serif" font-size="10.00">GraphicsItem</text>
<polyline fill="none" stroke="black" points="120,-714 230,-714 "/>
<text text-anchor="start" x="128" y="-702" font-family="Helvetica,sans-Serif" font-size="10.00">&#45; m_children</text>
<text text-anchor="start" x="128" y="-691" font-family="Helvetica,sans-Serif" font-size="10.00">&#45; m_positionCorrector</text>
<text text-anchor="start" x="128" y="-680" font-family="Helvetica,sans-Serif" font-size="10.00">&#45; m_z</text>
<text text-anchor="start" x="128" y="-669" font-family="Helvetica,sans-Serif" font-size="10.00">&#45; m_thick</text>
<text text-anchor="start" x="128" y="-658" font-family="Helvetica,sans-Serif" font-size="10.00">&#45; m_isFill</text>
<text text-anchor="start" x="128" y="-647" font-family="Helvetica,sans-Serif" font-size="10.00">&#45; m_isVisible</text>
<polyline fill="none" stroke="black" points="120,-640 230,-640 "/>
<text text-anchor="start" x="128" y="-628" font-family="Helvetica,sans-Serif" font-size="10.00">+ GraphicsItem()</text>
<text text-anchor="start" x="128" y="-617" font-family="Helvetica,sans-Serif" font-size="10.00">+ ~GraphicsItem()</text>
<text text-anchor="start" x="128" y="-606" font-family="Helvetica,sans-Serif" font-size="10.00">+ parent()</text>
<text text-anchor="start" x="128" y="-595" font-family="Helvetica,sans-Serif" font-size="10.00">+ setParent()</text>
<text text-anchor="start" x="128" y="-584" font-family="Helvetica,sans-Serif" font-size="10.00">+ type()</text>
<text text-anchor="start" x="128" y="-573" font-family="Helvetica,sans-Serif" font-size="10.00">+ children()</text>
<text text-anchor="start" x="128" y="-562" font-family="Helvetica,sans-Serif" font-size="10.00">+ anchor()</text>
<text text-anchor="start" x="128" y="-551" font-family="Helvetica,sans-Serif" font-size="10.00">+ setAnchor()</text>
<text text-anchor="start" x="128" y="-540" font-family="Helvetica,sans-Serif" font-size="10.00">+ absolute()</text>
<text text-anchor="start" x="128" y="-529" font-family="Helvetica,sans-Serif" font-size="10.00">+ setAbsolute()</text>
<text text-anchor="start" x="128" y="-518" font-family="Helvetica,sans-Serif" font-size="10.00">et 17 de plus...</text>
<text text-anchor="start" x="128" y="-507" font-family="Helvetica,sans-Serif" font-size="10.00">+ focusItem()</text>
<text text-anchor="start" x="128" y="-496" font-family="Helvetica,sans-Serif" font-size="10.00">+ setFocusItem()</text>
<text text-anchor="start" x="128" y="-485" font-family="Helvetica,sans-Serif" font-size="10.00"># meDraw()</text>
<text text-anchor="start" x="128" y="-474" font-family="Helvetica,sans-Serif" font-size="10.00"># meUpdate()</text>
<text text-anchor="start" x="128" y="-463" font-family="Helvetica,sans-Serif" font-size="10.00"># meHandleEvent()</text>
<text text-anchor="start" x="128" y="-452" font-family="Helvetica,sans-Serif" font-size="10.00"># meIsOver()</text>
</a>
</g>
</g>
<!-- Node3&#45;&gt;Node2 -->
<g id="edge2" class="edge"><title>Node3&#45;&gt;Node2</title>
<path fill="none" stroke="midnightblue" d="M156.003,-434.444C150.769,-392.13 145.647,-350.726 142.416,-324.609"/>
<polygon fill="none" stroke="midnightblue" points="152.562,-435.137 157.264,-444.631 159.509,-434.277 152.562,-435.137"/>
</g>
<!-- Node3&#45;&gt;Node3 -->
<g id="edge3" class="edge"><title>Node3&#45;&gt;Node3</title>
<path fill="none" stroke="#404040" d="M230.073,-618.993C240.574,-615.404 248,-605.406 248,-589 248,-578.746 245.099,-570.996 240.36,-565.748"/>
<polygon fill="none" stroke="#404040" points="240.11,-565.585 232.899,-565.642 230.073,-559.007 237.284,-558.95 240.11,-565.585"/>
<text text-anchor="middle" x="280" y="-592" font-family="Helvetica,sans-Serif" font-size="10.00"> &#45;m_focusItem</text>
<text text-anchor="middle" x="280" y="-581" font-family="Helvetica,sans-Serif" font-size="10.00">&#45;m_parent</text>
</g>
<!-- Node6 -->
<g id="node6" class="node"><title>Node6</title>
<g id="a_node6"><a xlink:href="class_graphics_text.html" target="_top" xlink:title="Permet la creation de text. ">
<polygon fill="white" stroke="black" points="0,-207 0,-385 90,-385 90,-207 0,-207"/>
<text text-anchor="middle" x="45" y="-373" font-family="Helvetica,sans-Serif" font-size="10.00">GraphicsText</text>
<polyline fill="none" stroke="black" points="0,-366 90,-366 "/>
<text text-anchor="start" x="8" y="-354" font-family="Helvetica,sans-Serif" font-size="10.00">&#45; m_text</text>
<text text-anchor="start" x="8" y="-343" font-family="Helvetica,sans-Serif" font-size="10.00">&#45; m_align</text>
<polyline fill="none" stroke="black" points="0,-336 90,-336 "/>
<text text-anchor="start" x="8" y="-324" font-family="Helvetica,sans-Serif" font-size="10.00">+ GraphicsText()</text>
<text text-anchor="start" x="8" y="-313" font-family="Helvetica,sans-Serif" font-size="10.00">+ GraphicsText()</text>
<text text-anchor="start" x="8" y="-302" font-family="Helvetica,sans-Serif" font-size="10.00">+ text()</text>
<text text-anchor="start" x="8" y="-291" font-family="Helvetica,sans-Serif" font-size="10.00">+ setText()</text>
<text text-anchor="start" x="8" y="-280" font-family="Helvetica,sans-Serif" font-size="10.00">+ font()</text>
<text text-anchor="start" x="8" y="-269" font-family="Helvetica,sans-Serif" font-size="10.00">+ setFont()</text>
<text text-anchor="start" x="8" y="-258" font-family="Helvetica,sans-Serif" font-size="10.00">+ align()</text>
<text text-anchor="start" x="8" y="-247" font-family="Helvetica,sans-Serif" font-size="10.00">+ setAlign()</text>
<text text-anchor="start" x="8" y="-236" font-family="Helvetica,sans-Serif" font-size="10.00">+ type()</text>
<text text-anchor="start" x="8" y="-225" font-family="Helvetica,sans-Serif" font-size="10.00"># meDraw()</text>
<text text-anchor="start" x="8" y="-214" font-family="Helvetica,sans-Serif" font-size="10.00"># meIsOver()</text>
</a>
</g>
</g>
<!-- Node3&#45;&gt;Node6 -->
<g id="edge7" class="edge"><title>Node3&#45;&gt;Node6</title>
<path fill="none" stroke="midnightblue" d="M115.668,-455.187C105.086,-431.501 94.303,-407.363 84.4509,-385.309"/>
<polygon fill="none" stroke="midnightblue" points="112.594,-456.887 119.868,-464.59 118.985,-454.032 112.594,-456.887"/>
</g>
<!-- Node8 -->
<g id="node8" class="node"><title>Node8</title>
<g id="a_node8"><a xlink:href="class_graphics_rectangle.html" target="_top" xlink:title="Permet la creation d&#39;un rectangle. ">
<polygon fill="white" stroke="black" points="187.5,-218 187.5,-374 302.5,-374 302.5,-218 187.5,-218"/>
<text text-anchor="middle" x="245" y="-362" font-family="Helvetica,sans-Serif" font-size="10.00">GraphicsRectangle</text>
<polyline fill="none" stroke="black" points="187.5,-355 302.5,-355 "/>
<text text-anchor="middle" x="245" y="-343" font-family="Helvetica,sans-Serif" font-size="10.00"> </text>
<polyline fill="none" stroke="black" points="187.5,-336 302.5,-336 "/>
<text text-anchor="start" x="195.5" y="-324" font-family="Helvetica,sans-Serif" font-size="10.00">+ GraphicsRectangle()</text>
<text text-anchor="start" x="195.5" y="-313" font-family="Helvetica,sans-Serif" font-size="10.00">+ topLeft()</text>
<text text-anchor="start" x="195.5" y="-302" font-family="Helvetica,sans-Serif" font-size="10.00">+ bottomRight()</text>
<text text-anchor="start" x="195.5" y="-291" font-family="Helvetica,sans-Serif" font-size="10.00">+ type()</text>
<text text-anchor="start" x="195.5" y="-280" font-family="Helvetica,sans-Serif" font-size="10.00">+ width()</text>
<text text-anchor="start" x="195.5" y="-269" font-family="Helvetica,sans-Serif" font-size="10.00">+ setWidth()</text>
<text text-anchor="start" x="195.5" y="-258" font-family="Helvetica,sans-Serif" font-size="10.00">+ height()</text>
<text text-anchor="start" x="195.5" y="-247" font-family="Helvetica,sans-Serif" font-size="10.00">+ setHeight()</text>
<text text-anchor="start" x="195.5" y="-236" font-family="Helvetica,sans-Serif" font-size="10.00">+ meDraw()</text>
<text text-anchor="start" x="195.5" y="-225" font-family="Helvetica,sans-Serif" font-size="10.00">+ meIsOver()</text>
</a>
</g>
</g>
<!-- Node3&#45;&gt;Node8 -->
<g id="edge10" class="edge"><title>Node3&#45;&gt;Node8</title>
<path fill="none" stroke="midnightblue" d="M209.596,-434.751C212.066,-424.335 214.549,-414.009 217,-404 219.375,-394.302 221.941,-384.128 224.521,-374.073"/>
<polygon fill="none" stroke="midnightblue" points="206.126,-434.219 207.234,-444.756 212.938,-435.828 206.126,-434.219"/>
</g>
<!-- Node3&#45;&gt;Node8 -->
<g id="edge11" class="edge"><title>Node3&#45;&gt;Node8</title>
<path fill="none" stroke="#404040" d="M212.412,-444.97C213.984,-438.564 215.52,-432.218 217,-426 220.079,-413.068 223.2,-399.372 226.186,-385.924"/>
<polygon fill="none" stroke="#404040" points="226.188,-385.914 223.573,-379.194 228.771,-374.195 231.386,-380.916 226.188,-385.914"/>
<text text-anchor="middle" x="258.5" y="-418" font-family="Helvetica,sans-Serif" font-size="10.00"> &#45;m_bottomRight</text>
<text text-anchor="middle" x="258.5" y="-407" font-family="Helvetica,sans-Serif" font-size="10.00">&#45;m_topLeft</text>
</g>
<!-- Node4 -->
<g id="node4" class="node"><title>Node4</title>
<g id="a_node4"><a xlink:href="class_point.html" target="_top" xlink:title="Représente un point (x, y) ">
<polygon fill="white" stroke="black" points="101,-788 101,-944 161,-944 161,-788 101,-788"/>
<text text-anchor="middle" x="131" y="-932" font-family="Helvetica,sans-Serif" font-size="10.00">Point</text>
<polyline fill="none" stroke="black" points="101,-925 161,-925 "/>
<text text-anchor="start" x="109" y="-913" font-family="Helvetica,sans-Serif" font-size="10.00">&#45; m_x</text>
<text text-anchor="start" x="109" y="-902" font-family="Helvetica,sans-Serif" font-size="10.00">&#45; m_y</text>
<polyline fill="none" stroke="black" points="101,-895 161,-895 "/>
<text text-anchor="start" x="109" y="-883" font-family="Helvetica,sans-Serif" font-size="10.00">+ Point()</text>
<text text-anchor="start" x="109" y="-872" font-family="Helvetica,sans-Serif" font-size="10.00">+ Point()</text>
<text text-anchor="start" x="109" y="-861" font-family="Helvetica,sans-Serif" font-size="10.00">+ Point()</text>
<text text-anchor="start" x="109" y="-850" font-family="Helvetica,sans-Serif" font-size="10.00">+ ~Point()</text>
<text text-anchor="start" x="109" y="-839" font-family="Helvetica,sans-Serif" font-size="10.00">+ x()</text>
<text text-anchor="start" x="109" y="-828" font-family="Helvetica,sans-Serif" font-size="10.00">+ y()</text>
<text text-anchor="start" x="109" y="-817" font-family="Helvetica,sans-Serif" font-size="10.00">+ x()</text>
<text text-anchor="start" x="109" y="-806" font-family="Helvetica,sans-Serif" font-size="10.00">+ y()</text>
<text text-anchor="start" x="109" y="-795" font-family="Helvetica,sans-Serif" font-size="10.00">+ set()</text>
</a>
</g>
</g>
<!-- Node4&#45;&gt;Node3 -->
<g id="edge4" class="edge"><title>Node4&#45;&gt;Node3</title>
<path fill="none" stroke="#404040" d="M142.451,-787.777C144.276,-775.794 146.167,-763.561 148,-752 148.368,-749.677 148.741,-747.335 149.117,-744.978"/>
<polygon fill="none" stroke="#404040" points="149.124,-744.936 146.126,-738.377 151.026,-733.087 154.024,-739.645 149.124,-744.936"/>
<text text-anchor="middle" x="172.5" y="-755.5" font-family="Helvetica,sans-Serif" font-size="10.00"> &#45;m_anchor</text>
</g>
<!-- Node5 -->
<g id="node5" class="node"><title>Node5</title>
<g id="a_node5"><a xlink:href="class_color.html" target="_top" xlink:title="Permet la gestion des coulours des différentes *entitées. ">
<polygon fill="white" stroke="black" points="179.5,-782.5 179.5,-949.5 256.5,-949.5 256.5,-782.5 179.5,-782.5"/>
<text text-anchor="middle" x="218" y="-937.5" font-family="Helvetica,sans-Serif" font-size="10.00">Color</text>
<polyline fill="none" stroke="black" points="179.5,-930.5 256.5,-930.5 "/>
<text text-anchor="start" x="187.5" y="-918.5" font-family="Helvetica,sans-Serif" font-size="10.00">&#45; m_color</text>
<polyline fill="none" stroke="black" points="179.5,-911.5 256.5,-911.5 "/>
<text text-anchor="start" x="187.5" y="-899.5" font-family="Helvetica,sans-Serif" font-size="10.00">+ Color()</text>
<text text-anchor="start" x="187.5" y="-888.5" font-family="Helvetica,sans-Serif" font-size="10.00">+ Color()</text>
<text text-anchor="start" x="187.5" y="-877.5" font-family="Helvetica,sans-Serif" font-size="10.00">+ Color()</text>
<text text-anchor="start" x="187.5" y="-866.5" font-family="Helvetica,sans-Serif" font-size="10.00">+ Color()</text>
<text text-anchor="start" x="187.5" y="-855.5" font-family="Helvetica,sans-Serif" font-size="10.00">+ red()</text>
<text text-anchor="start" x="187.5" y="-844.5" font-family="Helvetica,sans-Serif" font-size="10.00">+ setRed()</text>
<text text-anchor="start" x="187.5" y="-833.5" font-family="Helvetica,sans-Serif" font-size="10.00">+ green()</text>
<text text-anchor="start" x="187.5" y="-822.5" font-family="Helvetica,sans-Serif" font-size="10.00">+ setGreen()</text>
<text text-anchor="start" x="187.5" y="-811.5" font-family="Helvetica,sans-Serif" font-size="10.00">+ blue()</text>
<text text-anchor="start" x="187.5" y="-800.5" font-family="Helvetica,sans-Serif" font-size="10.00">+ setBlue()</text>
<text text-anchor="start" x="187.5" y="-789.5" font-family="Helvetica,sans-Serif" font-size="10.00">et 9 de plus...</text>
</a>
</g>
</g>
<!-- Node5&#45;&gt;Node3 -->
<g id="edge5" class="edge"><title>Node5&#45;&gt;Node3</title>
<path fill="none" stroke="#404040" d="M205.099,-782.491C203.224,-770.499 201.244,-757.839 199.232,-744.972"/>
<polygon fill="none" stroke="#404040" points="199.231,-744.966 194.352,-739.656 197.377,-733.11 202.256,-738.42 199.231,-744.966"/>
<text text-anchor="middle" x="222.5" y="-755.5" font-family="Helvetica,sans-Serif" font-size="10.00"> &#45;m_color</text>
</g>
<!-- Node6&#45;&gt;Node1 -->
<g id="edge6" class="edge"><title>Node6&#45;&gt;Node1</title>
<path fill="none" stroke="#404040" d="M83.5046,-206.931C89.0731,-194.194 94.8062,-181.082 100.377,-168.34"/>
<polygon fill="none" stroke="#404040" points="100.415,-168.252 99.1539,-161.152 105.223,-157.257 106.484,-164.357 100.415,-168.252"/>
<text text-anchor="middle" x="113.5" y="-179.5" font-family="Helvetica,sans-Serif" font-size="10.00"> &#45;m_text</text>
</g>
<!-- Node7 -->
<g id="node7" class="node"><title>Node7</title>
<g id="a_node7"><a xlink:href="class_font.html" target="_top" xlink:title="{Font\n|&#45; m_id\l&#45; m_width\l&#45; m_height\l|+ Font()\l+ set()\l+ id()\l+ width()\l+ height()\l}">
<polygon fill="white" stroke="black" points="14,-527.5 14,-650.5 76,-650.5 76,-527.5 14,-527.5"/>
<text text-anchor="middle" x="45" y="-638.5" font-family="Helvetica,sans-Serif" font-size="10.00">Font</text>
<polyline fill="none" stroke="black" points="14,-631.5 76,-631.5 "/>
<text text-anchor="start" x="22" y="-619.5" font-family="Helvetica,sans-Serif" font-size="10.00">&#45; m_id</text>
<text text-anchor="start" x="22" y="-608.5" font-family="Helvetica,sans-Serif" font-size="10.00">&#45; m_width</text>
<text text-anchor="start" x="22" y="-597.5" font-family="Helvetica,sans-Serif" font-size="10.00">&#45; m_height</text>
<polyline fill="none" stroke="black" points="14,-590.5 76,-590.5 "/>
<text text-anchor="start" x="22" y="-578.5" font-family="Helvetica,sans-Serif" font-size="10.00">+ Font()</text>
<text text-anchor="start" x="22" y="-567.5" font-family="Helvetica,sans-Serif" font-size="10.00">+ set()</text>
<text text-anchor="start" x="22" y="-556.5" font-family="Helvetica,sans-Serif" font-size="10.00">+ id()</text>
<text text-anchor="start" x="22" y="-545.5" font-family="Helvetica,sans-Serif" font-size="10.00">+ width()</text>
<text text-anchor="start" x="22" y="-534.5" font-family="Helvetica,sans-Serif" font-size="10.00">+ height()</text>
</a>
</g>
</g>
<!-- Node7&#45;&gt;Node6 -->
<g id="edge8" class="edge"><title>Node7&#45;&gt;Node6</title>
<path fill="none" stroke="#404040" d="M45,-527.351C45,-489.744 45,-440.512 45,-397.22"/>
<polygon fill="none" stroke="#404040" points="45.0001,-397.182 41,-391.182 45,-385.182 49,-391.182 45.0001,-397.182"/>
<text text-anchor="middle" x="63.5" y="-412.5" font-family="Helvetica,sans-Serif" font-size="10.00"> &#45;m_font</text>
</g>
<!-- Node8&#45;&gt;Node1 -->
<g id="edge9" class="edge"><title>Node8&#45;&gt;Node1</title>
<path fill="none" stroke="#404040" d="M207.031,-217.987C199.039,-201.777 190.55,-184.559 182.377,-167.982"/>
<polygon fill="none" stroke="#404040" points="182.367,-167.961 176.126,-164.348 177.06,-157.198 183.301,-160.81 182.367,-167.961"/>
<text text-anchor="middle" x="222" y="-179.5" font-family="Helvetica,sans-Serif" font-size="10.00"> &#45;m_rectangle</text>
</g>
</g>
</svg>
