<?xml version="1.0" encoding="UTF-8" standalone="no"?>
<!DOCTYPE svg PUBLIC "-//W3C//DTD SVG 1.1//EN"
 "http://www.w3.org/Graphics/SVG/1.1/DTD/svg11.dtd">
<!-- Generated by graphviz version 2.36.0 (20140111.2315)
 -->
<!-- Title: Point::operator= Pages: 1 -->
<svg width="610pt" height="228pt"
 viewBox="0.00 0.00 610.00 227.84" xmlns="http://www.w3.org/2000/svg" xmlns:xlink="http://www.w3.org/1999/xlink">
<g id="graph0" class="graph" transform="scale(1 1) rotate(0) translate(4 223.841)">
<title>Point::operator=</title>
<polygon fill="white" stroke="none" points="-4,4 -4,-223.841 606,-223.841 606,4 -4,4"/>
<!-- Node1 -->
<g id="node1" class="node"><title>Node1</title>
<polygon fill="#bfbfbf" stroke="black" points="0,-141.5 0,-160.5 86,-160.5 86,-141.5 0,-141.5"/>
<text text-anchor="middle" x="43" y="-148.5" font-family="Helvetica,sans-Serif" font-size="10.00">Point::operator=</text>
</g>
<!-- Node2 -->
<g id="node2" class="node"><title>Node2</title>
<g id="a_node2"><a xlink:href="class_point.html#a498f108de0c0351dfb3177c681a7a1f2" target="_top" xlink:title="Quitte le groupe auquel le point appartient. ">
<polygon fill="white" stroke="black" points="122,-141.5 122,-160.5 202,-160.5 202,-141.5 122,-141.5"/>
<text text-anchor="middle" x="162" y="-148.5" font-family="Helvetica,sans-Serif" font-size="10.00">Point::beAlone</text>
</a>
</g>
</g>
<!-- Node1&#45;&gt;Node2 -->
<g id="edge1" class="edge"><title>Node1&#45;&gt;Node2</title>
<path fill="none" stroke="midnightblue" d="M86.2397,-151C94.5229,-151 103.279,-151 111.767,-151"/>
<polygon fill="midnightblue" stroke="midnightblue" points="111.939,-154.5 121.939,-151 111.939,-147.5 111.939,-154.5"/>
</g>
<!-- Node3 -->
<g id="node3" class="node"><title>Node3</title>
<g id="a_node3"><a xlink:href="class_point.html#a64a5fe8c9b1d1a1543aaa64031537380" target="_top" xlink:title="Indique si le point n&#39;appartient pas à un groupe. ">
<polygon fill="white" stroke="black" points="524.5,-132.5 524.5,-151.5 601.5,-151.5 601.5,-132.5 524.5,-132.5"/>
<text text-anchor="middle" x="563" y="-139.5" font-family="Helvetica,sans-Serif" font-size="10.00">Point::isAlone</text>
</a>
</g>
</g>
<!-- Node2&#45;&gt;Node3 -->
<g id="edge2" class="edge"><title>Node2&#45;&gt;Node3</title>
<path fill="none" stroke="midnightblue" d="M177.744,-160.586C212.877,-182.277 304.536,-232.098 384,-217 441.271,-206.119 502.841,-175.431 536.463,-156.854"/>
<polygon fill="midnightblue" stroke="midnightblue" points="538.567,-159.687 545.571,-151.738 535.138,-153.584 538.567,-159.687"/>
</g>
<!-- Node4 -->
<g id="node4" class="node"><title>Node4</title>
<g id="a_node4"><a xlink:href="class_point.html#a2aa897aa68c2f3e6df3a46738f27a0ac" target="_top" xlink:title="Donne l&#39;abscisse du point par rapport à son origine. ">
<polygon fill="white" stroke="black" points="334,-170.5 334,-189.5 384,-189.5 384,-170.5 334,-170.5"/>
<text text-anchor="middle" x="359" y="-177.5" font-family="Helvetica,sans-Serif" font-size="10.00">Point::x</text>
</a>
</g>
</g>
<!-- Node2&#45;&gt;Node4 -->
<g id="edge3" class="edge"><title>Node2&#45;&gt;Node4</title>
<path fill="none" stroke="midnightblue" d="M202.461,-156.869C238.164,-162.178 290.191,-169.916 324.068,-174.954"/>
<polygon fill="midnightblue" stroke="midnightblue" points="323.555,-178.416 333.961,-176.425 324.585,-171.492 323.555,-178.416"/>
</g>
<!-- Node7 -->
<g id="node7" class="node"><title>Node7</title>
<g id="a_node7"><a xlink:href="class_point.html#a2226d8a3fb283b0b3c1f69106df144ba" target="_top" xlink:title="Donne l&#39;ordonnée du point par rapport à son origine. ">
<polygon fill="white" stroke="black" points="334,-114.5 334,-133.5 384,-133.5 384,-114.5 334,-114.5"/>
<text text-anchor="middle" x="359" y="-121.5" font-family="Helvetica,sans-Serif" font-size="10.00">Point::y</text>
</a>
</g>
</g>
<!-- Node2&#45;&gt;Node7 -->
<g id="edge9" class="edge"><title>Node2&#45;&gt;Node7</title>
<path fill="none" stroke="midnightblue" d="M202.461,-145.536C238.01,-140.614 289.743,-133.451 323.629,-128.759"/>
<polygon fill="midnightblue" stroke="midnightblue" points="324.535,-132.167 333.961,-127.328 323.575,-125.233 324.535,-132.167"/>
</g>
<!-- Node8 -->
<g id="node8" class="node"><title>Node8</title>
<g id="a_node8"><a xlink:href="class_point.html#a43923c490fb5439d7d8a041e86520c34" target="_top" xlink:title="Modifie les coordonnées du point par rapport à son origine. ">
<polygon fill="white" stroke="black" points="238.5,-80.5 238.5,-99.5 297.5,-99.5 297.5,-80.5 238.5,-80.5"/>
<text text-anchor="middle" x="268" y="-87.5" font-family="Helvetica,sans-Serif" font-size="10.00">Point::set</text>
</a>
</g>
</g>
<!-- Node2&#45;&gt;Node8 -->
<g id="edge13" class="edge"><title>Node2&#45;&gt;Node8</title>
<path fill="none" stroke="midnightblue" d="M179.25,-141.469C196.018,-131.634 222.399,-116.16 241.861,-104.745"/>
<polygon fill="midnightblue" stroke="midnightblue" points="243.666,-107.744 250.521,-99.6656 240.124,-101.706 243.666,-107.744"/>
</g>
<!-- Node4&#45;&gt;Node3 -->
<g id="edge4" class="edge"><title>Node4&#45;&gt;Node3</title>
<path fill="none" stroke="midnightblue" d="M384.366,-175.416C416.482,-169.375 473.677,-158.615 514.491,-150.937"/>
<polygon fill="midnightblue" stroke="midnightblue" points="515.309,-154.345 524.49,-149.056 514.015,-147.466 515.309,-154.345"/>
</g>
<!-- Node4&#45;&gt;Node4 -->
<g id="edge8" class="edge"><title>Node4&#45;&gt;Node4</title>
<path fill="none" stroke="midnightblue" d="M345.128,-189.757C338.38,-198.565 343.004,-208 359,-208 368.998,-208 374.553,-204.315 375.666,-199.4"/>
<polygon fill="midnightblue" stroke="midnightblue" points="379.017,-198.388 372.872,-189.757 372.293,-200.336 379.017,-198.388"/>
</g>
<!-- Node5 -->
<g id="node5" class="node"><title>Node5</title>
<g id="a_node5"><a xlink:href="class_point.html#afa7d33502738b0b3df186a91e11ff2a8" target="_top" xlink:title="Donne l&#39;origine du point. ">
<polygon fill="white" stroke="black" points="420,-94.5 420,-113.5 488,-113.5 488,-94.5 420,-94.5"/>
<text text-anchor="middle" x="454" y="-101.5" font-family="Helvetica,sans-Serif" font-size="10.00">Point::origin</text>
</a>
</g>
</g>
<!-- Node4&#45;&gt;Node5 -->
<g id="edge5" class="edge"><title>Node4&#45;&gt;Node5</title>
<path fill="none" stroke="midnightblue" d="M372.249,-170.383C376.03,-167.393 380.198,-164.074 384,-161 400.808,-147.407 419.726,-131.753 433.497,-120.294"/>
<polygon fill="midnightblue" stroke="midnightblue" points="435.899,-122.848 441.341,-113.757 431.418,-117.47 435.899,-122.848"/>
</g>
<!-- Node5&#45;&gt;Node3 -->
<g id="edge6" class="edge"><title>Node5&#45;&gt;Node3</title>
<path fill="none" stroke="midnightblue" d="M482.001,-113.589C495.18,-118.269 511.229,-123.969 525.484,-129.032"/>
<polygon fill="midnightblue" stroke="midnightblue" points="524.413,-132.366 535.008,-132.414 526.756,-125.769 524.413,-132.366"/>
</g>
<!-- Node6 -->
<g id="node6" class="node"><title>Node6</title>
<g id="a_node6"><a xlink:href="class_point.html#a97edc6e6415d6ccc6efcff5fcbc97f15" target="_top" xlink:title="Construit un point avec les coordonnées nulles. ">
<polygon fill="white" stroke="black" points="529,-94.5 529,-113.5 597,-113.5 597,-94.5 529,-94.5"/>
<text text-anchor="middle" x="563" y="-101.5" font-family="Helvetica,sans-Serif" font-size="10.00">Point::Point</text>
</a>
</g>
</g>
<!-- Node5&#45;&gt;Node6 -->
<g id="edge7" class="edge"><title>Node5&#45;&gt;Node6</title>
<path fill="none" stroke="midnightblue" d="M488.269,-104C497.831,-104 508.403,-104 518.485,-104"/>
<polygon fill="midnightblue" stroke="midnightblue" points="518.752,-107.5 528.752,-104 518.752,-100.5 518.752,-107.5"/>
</g>
<!-- Node7&#45;&gt;Node3 -->
<g id="edge10" class="edge"><title>Node7&#45;&gt;Node3</title>
<path fill="none" stroke="midnightblue" d="M384.366,-126.171C416.482,-129.033 473.677,-134.13 514.491,-137.767"/>
<polygon fill="midnightblue" stroke="midnightblue" points="514.219,-141.256 524.49,-138.658 514.84,-134.284 514.219,-141.256"/>
</g>
<!-- Node7&#45;&gt;Node5 -->
<g id="edge11" class="edge"><title>Node7&#45;&gt;Node5</title>
<path fill="none" stroke="midnightblue" d="M384.435,-118.745C392.333,-117.047 401.337,-115.11 410.164,-113.212"/>
<polygon fill="midnightblue" stroke="midnightblue" points="410.946,-116.624 419.987,-111.1 409.474,-109.78 410.946,-116.624"/>
</g>
<!-- Node7&#45;&gt;Node7 -->
<g id="edge12" class="edge"><title>Node7&#45;&gt;Node7</title>
<path fill="none" stroke="midnightblue" d="M345.128,-133.757C338.38,-142.565 343.004,-152 359,-152 368.998,-152 374.553,-148.315 375.666,-143.4"/>
<polygon fill="midnightblue" stroke="midnightblue" points="379.017,-142.388 372.872,-133.757 372.293,-144.336 379.017,-142.388"/>
</g>
<!-- Node8&#45;&gt;Node3 -->
<g id="edge14" class="edge"><title>Node8&#45;&gt;Node3</title>
<path fill="none" stroke="midnightblue" d="M297.736,-82.0466C341.012,-71.6389 424.591,-57.7258 488,-85 509.371,-94.1925 505.312,-109.143 524,-123 526.074,-124.538 528.291,-126.01 530.573,-127.406"/>
<polygon fill="midnightblue" stroke="midnightblue" points="529.094,-130.588 539.534,-132.39 532.496,-124.471 529.094,-130.588"/>
</g>
<!-- Node8&#45;&gt;Node4 -->
<g id="edge16" class="edge"><title>Node8&#45;&gt;Node4</title>
<path fill="none" stroke="midnightblue" d="M276.963,-99.6383C288.791,-113.73 311.981,-140.505 334,-161 334.963,-161.896 335.964,-162.797 336.986,-163.692"/>
<polygon fill="midnightblue" stroke="midnightblue" points="335.045,-166.629 344.981,-170.308 339.509,-161.236 335.045,-166.629"/>
</g>
<!-- Node8&#45;&gt;Node5 -->
<g id="edge15" class="edge"><title>Node8&#45;&gt;Node5</title>
<path fill="none" stroke="midnightblue" d="M297.75,-92.1875C327.703,-94.4665 374.992,-98.0646 409.515,-100.691"/>
<polygon fill="midnightblue" stroke="midnightblue" points="409.549,-104.204 419.786,-101.473 410.08,-97.2241 409.549,-104.204"/>
</g>
<!-- Node8&#45;&gt;Node7 -->
<g id="edge17" class="edge"><title>Node8&#45;&gt;Node7</title>
<path fill="none" stroke="midnightblue" d="M294.266,-99.6521C303.593,-103.215 314.317,-107.312 324.275,-111.116"/>
<polygon fill="midnightblue" stroke="midnightblue" points="323.306,-114.493 333.897,-114.792 325.804,-107.954 323.306,-114.493"/>
</g>
<!-- Node9 -->
<g id="node9" class="node"><title>Node9</title>
<g id="a_node9"><a xlink:href="jquery_8js.html#a2335e57f79b6acfb6de59c235dc8a83e" target="_top" xlink:title="p">
<polygon fill="white" stroke="black" points="344.5,-0.5 344.5,-19.5 373.5,-19.5 373.5,-0.5 344.5,-0.5"/>
<text text-anchor="middle" x="359" y="-7.5" font-family="Helvetica,sans-Serif" font-size="10.00">p</text>
</a>
</g>
</g>
<!-- Node8&#45;&gt;Node9 -->
<g id="edge18" class="edge"><title>Node8&#45;&gt;Node9</title>
<path fill="none" stroke="midnightblue" d="M279.913,-80.1904C294.807,-66.8031 321.7,-42.6293 339.704,-26.4458"/>
<polygon fill="midnightblue" stroke="midnightblue" points="342.178,-28.928 347.276,-19.6399 337.499,-23.722 342.178,-28.928"/>
</g>
</g>
</svg>
