<?xml version="1.0" encoding="UTF-8" standalone="no"?>
<!DOCTYPE svg PUBLIC "-//W3C//DTD SVG 1.1//EN"
 "http://www.w3.org/Graphics/SVG/1.1/DTD/svg11.dtd">
<!-- Generated by graphviz version 2.36.0 (20140111.2315)
 -->
<!-- Title: GraphicsRectangle::setHeight Pages: 1 -->
<svg width="512pt" height="178pt"
 viewBox="0.00 0.00 512.00 178.00" xmlns="http://www.w3.org/2000/svg" xmlns:xlink="http://www.w3.org/1999/xlink">
<g id="graph0" class="graph" transform="scale(1 1) rotate(0) translate(4 174)">
<title>GraphicsRectangle::setHeight</title>
<polygon fill="white" stroke="none" points="-4,4 -4,-174 508,-174 508,4 -4,4"/>
<!-- Node1 -->
<g id="node1" class="node"><title>Node1</title>
<polygon fill="#bfbfbf" stroke="black" points="0,-108 0,-138 106,-138 106,-108 0,-108"/>
<text text-anchor="start" x="8" y="-126" font-family="Helvetica,sans-Serif" font-size="10.00">GraphicsRectangle::</text>
<text text-anchor="middle" x="53" y="-115" font-family="Helvetica,sans-Serif" font-size="10.00">setHeight</text>
</g>
<!-- Node2 -->
<g id="node2" class="node"><title>Node2</title>
<g id="a_node2"><a xlink:href="class_point.html#a3cdf750fa08f24c2aaaf7ada42df5ad8" target="_top" xlink:title="Point::setY">
<polygon fill="white" stroke="black" points="142.5,-113.5 142.5,-132.5 207.5,-132.5 207.5,-113.5 142.5,-113.5"/>
<text text-anchor="middle" x="175" y="-120.5" font-family="Helvetica,sans-Serif" font-size="10.00">Point::setY</text>
</a>
</g>
</g>
<!-- Node1&#45;&gt;Node2 -->
<g id="edge1" class="edge"><title>Node1&#45;&gt;Node2</title>
<path fill="none" stroke="midnightblue" d="M106.285,-123C114.9,-123 123.731,-123 132.052,-123"/>
<polygon fill="midnightblue" stroke="midnightblue" points="132.263,-126.5 142.263,-123 132.263,-119.5 132.263,-126.5"/>
</g>
<!-- Node3 -->
<g id="node3" class="node"><title>Node3</title>
<g id="a_node3"><a xlink:href="class_point.html#a43923c490fb5439d7d8a041e86520c34" target="_top" xlink:title="permet la modification des valeurs du point. ">
<polygon fill="white" stroke="black" points="244.5,-94.5 244.5,-113.5 303.5,-113.5 303.5,-94.5 244.5,-94.5"/>
<text text-anchor="middle" x="274" y="-101.5" font-family="Helvetica,sans-Serif" font-size="10.00">Point::set</text>
</a>
</g>
</g>
<!-- Node2&#45;&gt;Node3 -->
<g id="edge2" class="edge"><title>Node2&#45;&gt;Node3</title>
<path fill="none" stroke="midnightblue" d="M207.761,-116.779C216.26,-115.114 225.54,-113.296 234.365,-111.568"/>
<polygon fill="midnightblue" stroke="midnightblue" points="235.301,-114.951 244.442,-109.594 233.956,-108.081 235.301,-114.951"/>
</g>
<!-- Node5 -->
<g id="node5" class="node"><title>Node5</title>
<g id="a_node5"><a xlink:href="class_point.html#a2aa897aa68c2f3e6df3a46738f27a0ac" target="_top" xlink:title="recupere la valeur de l&#39;absisse du Point. ">
<polygon fill="white" stroke="black" points="340,-132.5 340,-151.5 390,-151.5 390,-132.5 340,-132.5"/>
<text text-anchor="middle" x="365" y="-139.5" font-family="Helvetica,sans-Serif" font-size="10.00">Point::x</text>
</a>
</g>
</g>
<!-- Node2&#45;&gt;Node5 -->
<g id="edge11" class="edge"><title>Node2&#45;&gt;Node5</title>
<path fill="none" stroke="midnightblue" d="M207.892,-126.223C241.69,-129.639 294.878,-135.014 329.6,-138.523"/>
<polygon fill="midnightblue" stroke="midnightblue" points="329.44,-142.025 339.741,-139.548 330.144,-135.06 329.44,-142.025"/>
</g>
<!-- Node4 -->
<g id="node4" class="node"><title>Node4</title>
<g id="a_node4"><a xlink:href="class_point.html#a64a5fe8c9b1d1a1543aaa64031537380" target="_top" xlink:title="Point::isAlone">
<polygon fill="white" stroke="black" points="426.5,-94.5 426.5,-113.5 503.5,-113.5 503.5,-94.5 426.5,-94.5"/>
<text text-anchor="middle" x="465" y="-101.5" font-family="Helvetica,sans-Serif" font-size="10.00">Point::isAlone</text>
</a>
</g>
</g>
<!-- Node3&#45;&gt;Node4 -->
<g id="edge3" class="edge"><title>Node3&#45;&gt;Node4</title>
<path fill="none" stroke="midnightblue" d="M303.705,-104C333.499,-104 380.616,-104 416.071,-104"/>
<polygon fill="midnightblue" stroke="midnightblue" points="416.202,-107.5 426.202,-104 416.202,-100.5 416.202,-107.5"/>
</g>
<!-- Node3&#45;&gt;Node5 -->
<g id="edge4" class="edge"><title>Node3&#45;&gt;Node5</title>
<path fill="none" stroke="midnightblue" d="M297.458,-113.589C307.999,-118.089 320.747,-123.532 332.252,-128.445"/>
<polygon fill="midnightblue" stroke="midnightblue" points="330.978,-131.706 341.549,-132.414 333.726,-125.268 330.978,-131.706"/>
</g>
<!-- Node6 -->
<g id="node6" class="node"><title>Node6</title>
<g id="a_node6"><a xlink:href="class_point.html#a2226d8a3fb283b0b3c1f69106df144ba" target="_top" xlink:title="Fonction recuperant le valeur de l&#39;ordonée. ">
<polygon fill="white" stroke="black" points="340,-38.5 340,-57.5 390,-57.5 390,-38.5 340,-38.5"/>
<text text-anchor="middle" x="365" y="-45.5" font-family="Helvetica,sans-Serif" font-size="10.00">Point::y</text>
</a>
</g>
</g>
<!-- Node3&#45;&gt;Node6 -->
<g id="edge7" class="edge"><title>Node3&#45;&gt;Node6</title>
<path fill="none" stroke="midnightblue" d="M290.503,-94.2455C304.158,-85.6534 324.266,-73.0014 339.999,-63.1018"/>
<polygon fill="midnightblue" stroke="midnightblue" points="342.075,-65.9307 348.675,-57.6427 338.347,-60.006 342.075,-65.9307"/>
</g>
<!-- Node7 -->
<g id="node7" class="node"><title>Node7</title>
<g id="a_node7"><a xlink:href="jquery_8js.html#a2335e57f79b6acfb6de59c235dc8a83e" target="_top" xlink:title="p">
<polygon fill="white" stroke="black" points="350.5,-0.5 350.5,-19.5 379.5,-19.5 379.5,-0.5 350.5,-0.5"/>
<text text-anchor="middle" x="365" y="-7.5" font-family="Helvetica,sans-Serif" font-size="10.00">p</text>
</a>
</g>
</g>
<!-- Node3&#45;&gt;Node7 -->
<g id="edge10" class="edge"><title>Node3&#45;&gt;Node7</title>
<path fill="none" stroke="midnightblue" d="M282.473,-94.2562C294.046,-79.4389 317.338,-50.6761 340,-29 340.95,-28.0908 341.942,-27.1799 342.956,-26.276"/>
<polygon fill="midnightblue" stroke="midnightblue" points="345.486,-28.7241 350.924,-19.6317 341.003,-23.3479 345.486,-28.7241"/>
</g>
<!-- Node5&#45;&gt;Node4 -->
<g id="edge5" class="edge"><title>Node5&#45;&gt;Node4</title>
<path fill="none" stroke="midnightblue" d="M390.225,-132.607C402.149,-127.983 416.73,-122.329 429.77,-117.273"/>
<polygon fill="midnightblue" stroke="midnightblue" points="431.315,-120.428 439.373,-113.549 428.784,-113.901 431.315,-120.428"/>
</g>
<!-- Node5&#45;&gt;Node5 -->
<g id="edge6" class="edge"><title>Node5&#45;&gt;Node5</title>
<path fill="none" stroke="midnightblue" d="M351.128,-151.757C344.38,-160.565 349.004,-170 365,-170 374.998,-170 380.553,-166.315 381.666,-161.4"/>
<polygon fill="midnightblue" stroke="midnightblue" points="385.017,-160.388 378.872,-151.757 378.293,-162.336 385.017,-160.388"/>
</g>
<!-- Node6&#45;&gt;Node4 -->
<g id="edge8" class="edge"><title>Node6&#45;&gt;Node4</title>
<path fill="none" stroke="midnightblue" d="M383.07,-57.7545C398.247,-66.4269 420.662,-79.2355 438.056,-89.175"/>
<polygon fill="midnightblue" stroke="midnightblue" points="436.706,-92.4347 447.125,-94.3573 440.179,-86.357 436.706,-92.4347"/>
</g>
<!-- Node6&#45;&gt;Node6 -->
<g id="edge9" class="edge"><title>Node6&#45;&gt;Node6</title>
<path fill="none" stroke="midnightblue" d="M351.128,-57.7571C344.38,-66.5653 349.004,-76 365,-76 374.998,-76 380.553,-72.3146 381.666,-67.4"/>
<polygon fill="midnightblue" stroke="midnightblue" points="385.017,-66.3878 378.872,-57.7571 378.293,-68.3361 385.017,-66.3878"/>
</g>
</g>
</svg>
