<?xml version="1.0" encoding="UTF-8" standalone="no"?>
<!DOCTYPE svg PUBLIC "-//W3C//DTD SVG 1.1//EN"
 "http://www.w3.org/Graphics/SVG/1.1/DTD/svg11.dtd">
<!-- Generated by graphviz version 2.36.0 (20140111.2315)
 -->
<!-- Title: GraphicsItem::~GraphicsItem Pages: 1 -->
<svg width="684pt" height="104pt"
 viewBox="0.00 0.00 684.00 104.00" xmlns="http://www.w3.org/2000/svg" xmlns:xlink="http://www.w3.org/1999/xlink">
<g id="graph0" class="graph" transform="scale(1 1) rotate(0) translate(4 100)">
<title>GraphicsItem::~GraphicsItem</title>
<polygon fill="white" stroke="none" points="-4,4 -4,-100 680,-100 680,4 -4,4"/>
<!-- Node1 -->
<g id="node1" class="node"><title>Node1</title>
<polygon fill="#bfbfbf" stroke="black" points="0,-19.5 0,-38.5 146,-38.5 146,-19.5 0,-19.5"/>
<text text-anchor="middle" x="73" y="-26.5" font-family="Helvetica,sans-Serif" font-size="10.00">GraphicsItem::~GraphicsItem</text>
</g>
<!-- Node2 -->
<g id="node2" class="node"><title>Node2</title>
<g id="a_node2"><a xlink:href="class_graphics_item.html#a8bcbe86ba1854edffd7fbed0b4bc8cd5" target="_top" xlink:title="GraphicsItem::setParent">
<polygon fill="white" stroke="black" points="182.5,-38.5 182.5,-57.5 305.5,-57.5 305.5,-38.5 182.5,-38.5"/>
<text text-anchor="middle" x="244" y="-45.5" font-family="Helvetica,sans-Serif" font-size="10.00">GraphicsItem::setParent</text>
</a>
</g>
</g>
<!-- Node1&#45;&gt;Node2 -->
<g id="edge1" class="edge"><title>Node1&#45;&gt;Node2</title>
<path fill="none" stroke="midnightblue" d="M146.161,-37.1128C154.802,-38.0843 163.619,-39.0755 172.239,-40.0446"/>
<polygon fill="midnightblue" stroke="midnightblue" points="171.918,-43.5305 182.246,-41.1697 172.7,-36.5743 171.918,-43.5305"/>
</g>
<!-- Node9 -->
<g id="node9" class="node"><title>Node9</title>
<g id="a_node9"><a xlink:href="class_graphics_item.html#aa892caff547a0fd1969898ee0740b186" target="_top" xlink:title="GraphicsItem::type">
<polygon fill="white" stroke="black" points="194,-0.5 194,-19.5 294,-19.5 294,-0.5 194,-0.5"/>
<text text-anchor="middle" x="244" y="-7.5" font-family="Helvetica,sans-Serif" font-size="10.00">GraphicsItem::type</text>
</a>
</g>
</g>
<!-- Node1&#45;&gt;Node9 -->
<g id="edge9" class="edge"><title>Node1&#45;&gt;Node9</title>
<path fill="none" stroke="midnightblue" d="M146.161,-20.8872C158.637,-19.4846 171.48,-18.0407 183.57,-16.6815"/>
<polygon fill="midnightblue" stroke="midnightblue" points="183.977,-20.1578 193.523,-15.5624 183.195,-13.2017 183.977,-20.1578"/>
</g>
<!-- Node3 -->
<g id="node3" class="node"><title>Node3</title>
<g id="a_node3"><a xlink:href="class_graphics_item.html#aeaf0a8de33aa83d5fa5ac8889e7e4392" target="_top" xlink:title="GraphicsItem::parent">
<polygon fill="white" stroke="black" points="346,-76.5 346,-95.5 454,-95.5 454,-76.5 346,-76.5"/>
<text text-anchor="middle" x="400" y="-83.5" font-family="Helvetica,sans-Serif" font-size="10.00">GraphicsItem::parent</text>
</a>
</g>
</g>
<!-- Node2&#45;&gt;Node3 -->
<g id="edge2" class="edge"><title>Node2&#45;&gt;Node3</title>
<path fill="none" stroke="midnightblue" d="M283.861,-57.589C304.091,-62.5809 329.021,-68.7324 350.504,-74.0334"/>
<polygon fill="midnightblue" stroke="midnightblue" points="349.871,-77.4823 360.419,-76.4799 351.548,-70.6861 349.871,-77.4823"/>
</g>
<!-- Node4 -->
<g id="node4" class="node"><title>Node4</title>
<g id="a_node4"><a xlink:href="class_point.html#a0b2ea5baf36174499da121e666931e10" target="_top" xlink:title="Point::setOrigin">
<polygon fill="white" stroke="black" points="358,-38.5 358,-57.5 442,-57.5 442,-38.5 358,-38.5"/>
<text text-anchor="middle" x="400" y="-45.5" font-family="Helvetica,sans-Serif" font-size="10.00">Point::setOrigin</text>
</a>
</g>
</g>
<!-- Node2&#45;&gt;Node4 -->
<g id="edge3" class="edge"><title>Node2&#45;&gt;Node4</title>
<path fill="none" stroke="midnightblue" d="M305.865,-48C319.8,-48 334.473,-48 347.947,-48"/>
<polygon fill="midnightblue" stroke="midnightblue" points="347.984,-51.5001 357.984,-48 347.984,-44.5001 347.984,-51.5001"/>
</g>
<!-- Node8 -->
<g id="node8" class="node"><title>Node8</title>
<g id="a_node8"><a xlink:href="class_graphics_item.html#a01a34e70b5ac17f7c6f50bcfe4301ed6" target="_top" xlink:title="GraphicsItem::position">
<polygon fill="white" stroke="black" points="342.5,-0.5 342.5,-19.5 457.5,-19.5 457.5,-0.5 342.5,-0.5"/>
<text text-anchor="middle" x="400" y="-7.5" font-family="Helvetica,sans-Serif" font-size="10.00">GraphicsItem::position</text>
</a>
</g>
</g>
<!-- Node2&#45;&gt;Node8 -->
<g id="edge8" class="edge"><title>Node2&#45;&gt;Node8</title>
<path fill="none" stroke="midnightblue" d="M283.861,-38.411C304.091,-33.4191 329.021,-27.2676 350.504,-21.9666"/>
<polygon fill="midnightblue" stroke="midnightblue" points="351.548,-25.3139 360.419,-19.5201 349.871,-18.5177 351.548,-25.3139"/>
</g>
<!-- Node5 -->
<g id="node5" class="node"><title>Node5</title>
<g id="a_node5"><a xlink:href="class_point.html#a64a5fe8c9b1d1a1543aaa64031537380" target="_top" xlink:title="Point::isAlone">
<polygon fill="white" stroke="black" points="598.5,-57.5 598.5,-76.5 675.5,-76.5 675.5,-57.5 598.5,-57.5"/>
<text text-anchor="middle" x="637" y="-64.5" font-family="Helvetica,sans-Serif" font-size="10.00">Point::isAlone</text>
</a>
</g>
</g>
<!-- Node4&#45;&gt;Node5 -->
<g id="edge4" class="edge"><title>Node4&#45;&gt;Node5</title>
<path fill="none" stroke="midnightblue" d="M442.203,-51.3313C482.941,-54.6251 545.238,-59.6618 588.146,-63.131"/>
<polygon fill="midnightblue" stroke="midnightblue" points="588.092,-66.6379 598.341,-63.9553 588.656,-59.6607 588.092,-66.6379"/>
</g>
<!-- Node6 -->
<g id="node6" class="node"><title>Node6</title>
<g id="a_node6"><a xlink:href="class_point.html#afa7d33502738b0b3df186a91e11ff2a8" target="_top" xlink:title="Point::origin">
<polygon fill="white" stroke="black" points="494,-19.5 494,-38.5 562,-38.5 562,-19.5 494,-19.5"/>
<text text-anchor="middle" x="528" y="-26.5" font-family="Helvetica,sans-Serif" font-size="10.00">Point::origin</text>
</a>
</g>
</g>
<!-- Node4&#45;&gt;Node6 -->
<g id="edge5" class="edge"><title>Node4&#45;&gt;Node6</title>
<path fill="none" stroke="midnightblue" d="M442.257,-41.7787C455.526,-39.7779 470.261,-37.5558 483.674,-35.5333"/>
<polygon fill="midnightblue" stroke="midnightblue" points="484.261,-38.9845 493.627,-34.0324 483.217,-32.0627 484.261,-38.9845"/>
</g>
<!-- Node6&#45;&gt;Node5 -->
<g id="edge6" class="edge"><title>Node6&#45;&gt;Node5</title>
<path fill="none" stroke="midnightblue" d="M556.001,-38.589C569.18,-43.2694 585.229,-48.9692 599.484,-54.0315"/>
<polygon fill="midnightblue" stroke="midnightblue" points="598.413,-57.3656 609.008,-57.4141 600.756,-50.7692 598.413,-57.3656"/>
</g>
<!-- Node7 -->
<g id="node7" class="node"><title>Node7</title>
<g id="a_node7"><a xlink:href="class_point.html#a97edc6e6415d6ccc6efcff5fcbc97f15" target="_top" xlink:title="Constructeur par défaut de la classe Point. ">
<polygon fill="white" stroke="black" points="603,-19.5 603,-38.5 671,-38.5 671,-19.5 603,-19.5"/>
<text text-anchor="middle" x="637" y="-26.5" font-family="Helvetica,sans-Serif" font-size="10.00">Point::Point</text>
</a>
</g>
</g>
<!-- Node6&#45;&gt;Node7 -->
<g id="edge7" class="edge"><title>Node6&#45;&gt;Node7</title>
<path fill="none" stroke="midnightblue" d="M562.269,-29C571.831,-29 582.403,-29 592.485,-29"/>
<polygon fill="midnightblue" stroke="midnightblue" points="592.752,-32.5001 602.752,-29 592.752,-25.5001 592.752,-32.5001"/>
</g>
</g>
</svg>
