<?xml version="1.0" encoding="UTF-8" standalone="no"?>
<!DOCTYPE svg PUBLIC "-//W3C//DTD SVG 1.1//EN"
 "http://www.w3.org/Graphics/SVG/1.1/DTD/svg11.dtd">
<!-- Generated by graphviz version 2.36.0 (20140111.2315)
 -->
<!-- Title: Point::setOrigin Pages: 1 -->
<svg width="458pt" height="104pt"
 viewBox="0.00 0.00 458.00 104.00" xmlns="http://www.w3.org/2000/svg" xmlns:xlink="http://www.w3.org/1999/xlink">
<g id="graph0" class="graph" transform="scale(1 1) rotate(0) translate(4 100)">
<title>Point::setOrigin</title>
<polygon fill="white" stroke="none" points="-4,4 -4,-100 454,-100 454,4 -4,4"/>
<!-- Node1 -->
<g id="node1" class="node"><title>Node1</title>
<polygon fill="#bfbfbf" stroke="black" points="0,-57.5 0,-76.5 84,-76.5 84,-57.5 0,-57.5"/>
<text text-anchor="middle" x="42" y="-64.5" font-family="Helvetica,sans-Serif" font-size="10.00">Point::setOrigin</text>
</g>
<!-- Node2 -->
<g id="node2" class="node"><title>Node2</title>
<g id="a_node2"><a xlink:href="class_point.html#a4342967313bdfb5a0120d00399ad7cc0" target="_top" xlink:title="Point::originChanged">
<polygon fill="white" stroke="black" points="120.5,-57.5 120.5,-76.5 227.5,-76.5 227.5,-57.5 120.5,-57.5"/>
<text text-anchor="middle" x="174" y="-64.5" font-family="Helvetica,sans-Serif" font-size="10.00">Point::originChanged</text>
</a>
</g>
</g>
<!-- Node1&#45;&gt;Node2 -->
<g id="edge1" class="edge"><title>Node1&#45;&gt;Node2</title>
<path fill="none" stroke="midnightblue" d="M84.1328,-67C92.3665,-67 101.193,-67 109.972,-67"/>
<polygon fill="midnightblue" stroke="midnightblue" points="110.218,-70.5001 120.218,-67 110.218,-63.5001 110.218,-70.5001"/>
</g>
<!-- Node3 -->
<g id="node3" class="node"><title>Node3</title>
<g id="a_node3"><a xlink:href="class_point.html#a04ce786cebfd535bc380833a71405930" target="_top" xlink:title="Point::absolute">
<polygon fill="white" stroke="black" points="264,-76.5 264,-95.5 346,-95.5 346,-76.5 264,-76.5"/>
<text text-anchor="middle" x="305" y="-83.5" font-family="Helvetica,sans-Serif" font-size="10.00">Point::absolute</text>
</a>
</g>
</g>
<!-- Node2&#45;&gt;Node3 -->
<g id="edge2" class="edge"><title>Node2&#45;&gt;Node3</title>
<path fill="none" stroke="midnightblue" d="M227.841,-74.7828C236.35,-76.036 245.138,-77.3304 253.587,-78.5749"/>
<polygon fill="midnightblue" stroke="midnightblue" points="253.281,-82.0674 263.684,-80.062 254.301,-75.1421 253.281,-82.0674"/>
</g>
<!-- Node5 -->
<g id="node5" class="node"><title>Node5</title>
<g id="a_node5"><a xlink:href="class_point.html#a43923c490fb5439d7d8a041e86520c34" target="_top" xlink:title="permet la modification des valeurs du point. ">
<polygon fill="white" stroke="black" points="275.5,-38.5 275.5,-57.5 334.5,-57.5 334.5,-38.5 275.5,-38.5"/>
<text text-anchor="middle" x="305" y="-45.5" font-family="Helvetica,sans-Serif" font-size="10.00">Point::set</text>
</a>
</g>
</g>
<!-- Node2&#45;&gt;Node5 -->
<g id="edge4" class="edge"><title>Node2&#45;&gt;Node5</title>
<path fill="none" stroke="midnightblue" d="M227.841,-59.2172C240.434,-57.3624 253.641,-55.4173 265.453,-53.6775"/>
<polygon fill="midnightblue" stroke="midnightblue" points="266.041,-57.1287 275.424,-52.2088 265.021,-50.2034 266.041,-57.1287"/>
</g>
<!-- Node4 -->
<g id="node4" class="node"><title>Node4</title>
<g id="a_node4"><a xlink:href="class_point.html#ad92f2337b839a94ce97dcdb439b4325a" target="_top" xlink:title="Constructeur par défaut de la classe Point. ">
<polygon fill="white" stroke="black" points="382,-76.5 382,-95.5 450,-95.5 450,-76.5 382,-76.5"/>
<text text-anchor="middle" x="416" y="-83.5" font-family="Helvetica,sans-Serif" font-size="10.00">Point::Point</text>
</a>
</g>
</g>
<!-- Node3&#45;&gt;Node4 -->
<g id="edge3" class="edge"><title>Node3&#45;&gt;Node4</title>
<path fill="none" stroke="midnightblue" d="M346.278,-86C354.465,-86 363.112,-86 371.408,-86"/>
<polygon fill="midnightblue" stroke="midnightblue" points="371.667,-89.5001 381.667,-86 371.667,-82.5001 371.667,-89.5001"/>
</g>
<!-- Node6 -->
<g id="node6" class="node"><title>Node6</title>
<g id="a_node6"><a xlink:href="class_point.html#a2aa897aa68c2f3e6df3a46738f27a0ac" target="_top" xlink:title="recupere la valeur de l&#39;absisse du Point. ">
<polygon fill="white" stroke="black" points="391,-38.5 391,-57.5 441,-57.5 441,-38.5 391,-38.5"/>
<text text-anchor="middle" x="416" y="-45.5" font-family="Helvetica,sans-Serif" font-size="10.00">Point::x</text>
</a>
</g>
</g>
<!-- Node5&#45;&gt;Node6 -->
<g id="edge5" class="edge"><title>Node5&#45;&gt;Node6</title>
<path fill="none" stroke="midnightblue" d="M334.638,-48C348.749,-48 365.87,-48 380.677,-48"/>
<polygon fill="midnightblue" stroke="midnightblue" points="380.974,-51.5001 390.974,-48 380.974,-44.5001 380.974,-51.5001"/>
</g>
<!-- Node7 -->
<g id="node7" class="node"><title>Node7</title>
<g id="a_node7"><a xlink:href="class_point.html#a2226d8a3fb283b0b3c1f69106df144ba" target="_top" xlink:title="Fonction recuperant le valeur de l&#39;ordonée. ">
<polygon fill="white" stroke="black" points="391,-0.5 391,-19.5 441,-19.5 441,-0.5 391,-0.5"/>
<text text-anchor="middle" x="416" y="-7.5" font-family="Helvetica,sans-Serif" font-size="10.00">Point::y</text>
</a>
</g>
</g>
<!-- Node5&#45;&gt;Node7 -->
<g id="edge6" class="edge"><title>Node5&#45;&gt;Node7</title>
<path fill="none" stroke="midnightblue" d="M333.505,-38.411C347.991,-33.3609 365.881,-27.1242 381.205,-21.7818"/>
<polygon fill="midnightblue" stroke="midnightblue" points="382.553,-25.0186 390.843,-18.4216 380.248,-18.4087 382.553,-25.0186"/>
</g>
</g>
</svg>
