<?xml version="1.0" encoding="UTF-8" standalone="no"?>
<!DOCTYPE svg PUBLIC "-//W3C//DTD SVG 1.1//EN"
 "http://www.w3.org/Graphics/SVG/1.1/DTD/svg11.dtd">
<!-- Generated by graphviz version 2.36.0 (20140111.2315)
 -->
<!-- Title: ConfigPolygon Pages: 1 -->
<!--zoomable 940 -->
<svg id="main" version="1.1" xmlns="http://www.w3.org/2000/svg" xmlns:xlink="http://www.w3.org/1999/xlink" xml:space="preserve" onload="init(evt)">
<style type="text/css"><![CDATA[
.edge:hover path { stroke: red; }
.edge:hover polygon { stroke: red; fill: red; }
]]></style>
<script type="text/javascript"><![CDATA[
var edges = document.getElementsByTagName('g');
if (edges && edges.length) {
  for (var i=0;i<edges.length;i++) {
    if (edges[i].id.substr(0,4)=='edge') {
      edges[i].setAttribute('class','edge');
    }
  }
}
]]></script>
        <defs>
                <circle id="rim" cx="0" cy="0" r="7"/>
                <circle id="rim2" cx="0" cy="0" r="3.5"/>
                <g id="zoomPlus">
                        <use xlink:href="#rim" fill="#404040">
                                <set attributeName="fill" to="#808080" begin="zoomplus.mouseover" end="zoomplus.mouseout"/>
                        </use>
                        <path d="M-4,0h8M0,-4v8" fill="none" stroke="white" stroke-width="1.5" pointer-events="none"/>
                </g>
                <g id="zoomMin">
                        <use xlink:href="#rim" fill="#404040">
                                <set attributeName="fill" to="#808080" begin="zoomminus.mouseover" end="zoomminus.mouseout"/>
                        </use>
                        <path d="M-4,0h8" fill="none" stroke="white" stroke-width="1.5" pointer-events="none"/>
                </g>
                <g id="dirArrow">
                        <path fill="none" stroke="white" stroke-width="1.5" d="M0,-3.0v7 M-2.5,-0.5L0,-3.0L2.5,-0.5"/>
                </g>
               <g id="resetDef">
                       <use xlink:href="#rim2" fill="#404040">
                               <set attributeName="fill" to="#808080" begin="reset.mouseover" end="reset.mouseout"/>
                       </use>
               </g>
        </defs>

<script type="text/javascript">
var viewWidth = 265;
var viewHeight = 940;
var sectionId = 'dynsection-0';
</script>
<script xlink:href="svgpan.js"/>
<svg id="graph" class="graph">
<g id="viewport">
<title>ConfigPolygon</title>
<polygon fill="white" stroke="none" points="-4,4 -4,-936 261,-936 261,4 -4,4"/>
<!-- Node1 -->
<g id="node1" class="node"><title>Node1</title>
<polygon fill="#bfbfbf" stroke="black" points="87.5,-0.5 87.5,-79.5 188.5,-79.5 188.5,-0.5 87.5,-0.5"/>
<text text-anchor="middle" x="138" y="-67.5" font-family="Helvetica,sans-Serif" font-size="10.00">ConfigPolygon</text>
<polyline fill="none" stroke="black" points="87.5,-60.5 188.5,-60.5 "/>
<text text-anchor="middle" x="138" y="-48.5" font-family="Helvetica,sans-Serif" font-size="10.00"> </text>
<polyline fill="none" stroke="black" points="87.5,-41.5 188.5,-41.5 "/>
<text text-anchor="start" x="95.5" y="-29.5" font-family="Helvetica,sans-Serif" font-size="10.00">+ ConfigPolygon()</text>
<text text-anchor="start" x="95.5" y="-18.5" font-family="Helvetica,sans-Serif" font-size="10.00"># loadData()</text>
<text text-anchor="start" x="95.5" y="-7.5" font-family="Helvetica,sans-Serif" font-size="10.00"># meHandleEvent()</text>
</g>
<!-- Node2 -->
<g id="node2" class="node"><title>Node2</title>
<g id="a_node2"><a xlink:href="class_config_item.html" target="_top" xlink:title="IHM pour modifier un GraphicsItem. ">
<polygon fill="white" stroke="black" points="88,-117 88,-251 188,-251 188,-117 88,-117"/>
<text text-anchor="middle" x="138" y="-239" font-family="Helvetica,sans-Serif" font-size="10.00">ConfigItem</text>
<polyline fill="none" stroke="black" points="88,-232 188,-232 "/>
<text text-anchor="start" x="96" y="-220" font-family="Helvetica,sans-Serif" font-size="10.00"># m_target</text>
<text text-anchor="start" x="96" y="-209" font-family="Helvetica,sans-Serif" font-size="10.00"># m_layout</text>
<polyline fill="none" stroke="black" points="88,-202 188,-202 "/>
<text text-anchor="start" x="96" y="-190" font-family="Helvetica,sans-Serif" font-size="10.00">+ ConfigItem()</text>
<text text-anchor="start" x="96" y="-179" font-family="Helvetica,sans-Serif" font-size="10.00">+ target()</text>
<text text-anchor="start" x="96" y="-168" font-family="Helvetica,sans-Serif" font-size="10.00">+ setTarget()</text>
<text text-anchor="start" x="96" y="-157" font-family="Helvetica,sans-Serif" font-size="10.00">+ minimumWidth()</text>
<text text-anchor="start" x="96" y="-146" font-family="Helvetica,sans-Serif" font-size="10.00">+ minimumHeight()</text>
<text text-anchor="start" x="96" y="-135" font-family="Helvetica,sans-Serif" font-size="10.00"># meUpdate()</text>
<text text-anchor="start" x="96" y="-124" font-family="Helvetica,sans-Serif" font-size="10.00"># loadData()</text>
</a>
</g>
</g>
<!-- Node2&#45;&gt;Node1 -->
<g id="edge1" class="edge"><title>Node2&#45;&gt;Node1</title>
<path fill="none" stroke="midnightblue" d="M138,-106.816C138,-97.4566 138,-88.2179 138,-79.7552"/>
<polygon fill="none" stroke="midnightblue" points="134.5,-106.988 138,-116.989 141.5,-106.989 134.5,-106.988"/>
</g>
<!-- Node3 -->
<g id="node3" class="node"><title>Node3</title>
<g id="a_node3"><a xlink:href="class_widget.html" target="_top" xlink:title="Classe de base. ">
<polygon fill="white" stroke="black" points="65,-288.5 65,-543.5 211,-543.5 211,-288.5 65,-288.5"/>
<text text-anchor="middle" x="138" y="-531.5" font-family="Helvetica,sans-Serif" font-size="10.00">Widget</text>
<polyline fill="none" stroke="black" points="65,-524.5 211,-524.5 "/>
<text text-anchor="start" x="73" y="-512.5" font-family="Helvetica,sans-Serif" font-size="10.00"># m_minimumWidthChanged</text>
<text text-anchor="start" x="73" y="-501.5" font-family="Helvetica,sans-Serif" font-size="10.00"># m_minimumHeightChanged</text>
<polyline fill="none" stroke="black" points="65,-494.5 211,-494.5 "/>
<text text-anchor="start" x="73" y="-482.5" font-family="Helvetica,sans-Serif" font-size="10.00">+ Widget()</text>
<text text-anchor="start" x="73" y="-471.5" font-family="Helvetica,sans-Serif" font-size="10.00">+ Widget()</text>
<text text-anchor="start" x="73" y="-460.5" font-family="Helvetica,sans-Serif" font-size="10.00">+ Widget()</text>
<text text-anchor="start" x="73" y="-449.5" font-family="Helvetica,sans-Serif" font-size="10.00">+ width()</text>
<text text-anchor="start" x="73" y="-438.5" font-family="Helvetica,sans-Serif" font-size="10.00">+ setWidth()</text>
<text text-anchor="start" x="73" y="-427.5" font-family="Helvetica,sans-Serif" font-size="10.00">+ height()</text>
<text text-anchor="start" x="73" y="-416.5" font-family="Helvetica,sans-Serif" font-size="10.00">+ setHeight()</text>
<text text-anchor="start" x="73" y="-405.5" font-family="Helvetica,sans-Serif" font-size="10.00">+ minimumWidth()</text>
<text text-anchor="start" x="73" y="-394.5" font-family="Helvetica,sans-Serif" font-size="10.00">+ minimumHeight()</text>
<text text-anchor="start" x="73" y="-383.5" font-family="Helvetica,sans-Serif" font-size="10.00">+ widthChanged()</text>
<text text-anchor="start" x="73" y="-372.5" font-family="Helvetica,sans-Serif" font-size="10.00">+ heightChanged()</text>
<text text-anchor="start" x="73" y="-361.5" font-family="Helvetica,sans-Serif" font-size="10.00">+ minimumWidthChanged()</text>
<text text-anchor="start" x="73" y="-350.5" font-family="Helvetica,sans-Serif" font-size="10.00">+ minimumHeightChanged()</text>
<text text-anchor="start" x="73" y="-339.5" font-family="Helvetica,sans-Serif" font-size="10.00"># meIsOver()</text>
<text text-anchor="start" x="73" y="-328.5" font-family="Helvetica,sans-Serif" font-size="10.00">* widthChanged()</text>
<text text-anchor="start" x="73" y="-317.5" font-family="Helvetica,sans-Serif" font-size="10.00">* heightChanged()</text>
<text text-anchor="start" x="73" y="-306.5" font-family="Helvetica,sans-Serif" font-size="10.00">* minimumWidthChanged()</text>
<text text-anchor="start" x="73" y="-295.5" font-family="Helvetica,sans-Serif" font-size="10.00">* minimumHeightChanged()</text>
</a>
</g>
</g>
<!-- Node3&#45;&gt;Node2 -->
<g id="edge2" class="edge"><title>Node3&#45;&gt;Node2</title>
<path fill="none" stroke="midnightblue" d="M138,-278.073C138,-268.776 138,-259.679 138,-251.035"/>
<polygon fill="none" stroke="midnightblue" points="134.5,-278.226 138,-288.226 141.5,-278.226 134.5,-278.226"/>
</g>
<!-- Node4 -->
<g id="node4" class="node"><title>Node4</title>
<g id="a_node4"><a xlink:href="class_graphics_item.html" target="_top" xlink:title="Classe de baseLa classe GraphicsItem est la base de tout les éléments graphiques. ...">
<polygon fill="white" stroke="black" points="87.5,-581 87.5,-825 188.5,-825 188.5,-581 87.5,-581"/>
<text text-anchor="middle" x="138" y="-813" font-family="Helvetica,sans-Serif" font-size="10.00">GraphicsItem</text>
<polyline fill="none" stroke="black" points="87.5,-806 188.5,-806 "/>
<text text-anchor="middle" x="138" y="-794" font-family="Helvetica,sans-Serif" font-size="10.00"> </text>
<polyline fill="none" stroke="black" points="87.5,-787 188.5,-787 "/>
<text text-anchor="start" x="95.5" y="-775" font-family="Helvetica,sans-Serif" font-size="10.00">+ GraphicsItem()</text>
<text text-anchor="start" x="95.5" y="-764" font-family="Helvetica,sans-Serif" font-size="10.00">+ GraphicsItem()</text>
<text text-anchor="start" x="95.5" y="-753" font-family="Helvetica,sans-Serif" font-size="10.00">+ GraphicsItem()</text>
<text text-anchor="start" x="95.5" y="-742" font-family="Helvetica,sans-Serif" font-size="10.00">+ ~GraphicsItem()</text>
<text text-anchor="start" x="95.5" y="-731" font-family="Helvetica,sans-Serif" font-size="10.00">+ id()</text>
<text text-anchor="start" x="95.5" y="-720" font-family="Helvetica,sans-Serif" font-size="10.00">+ parentId()</text>
<text text-anchor="start" x="95.5" y="-709" font-family="Helvetica,sans-Serif" font-size="10.00">+ parent()</text>
<text text-anchor="start" x="95.5" y="-698" font-family="Helvetica,sans-Serif" font-size="10.00">+ setParent()</text>
<text text-anchor="start" x="95.5" y="-687" font-family="Helvetica,sans-Serif" font-size="10.00">+ setParent()</text>
<text text-anchor="start" x="95.5" y="-676" font-family="Helvetica,sans-Serif" font-size="10.00">+ setParent()</text>
<text text-anchor="start" x="95.5" y="-665" font-family="Helvetica,sans-Serif" font-size="10.00">et 22 de plus...</text>
<text text-anchor="start" x="95.5" y="-654" font-family="Helvetica,sans-Serif" font-size="10.00">+ focusItem()</text>
<text text-anchor="start" x="95.5" y="-643" font-family="Helvetica,sans-Serif" font-size="10.00">+ setFocusItem()</text>
<text text-anchor="start" x="95.5" y="-632" font-family="Helvetica,sans-Serif" font-size="10.00">+ make()</text>
<text text-anchor="start" x="95.5" y="-621" font-family="Helvetica,sans-Serif" font-size="10.00"># meDraw()</text>
<text text-anchor="start" x="95.5" y="-610" font-family="Helvetica,sans-Serif" font-size="10.00"># meUpdate()</text>
<text text-anchor="start" x="95.5" y="-599" font-family="Helvetica,sans-Serif" font-size="10.00"># meHandleEvent()</text>
<text text-anchor="start" x="95.5" y="-588" font-family="Helvetica,sans-Serif" font-size="10.00"># meIsOver()</text>
</a>
</g>
</g>
<!-- Node4&#45;&gt;Node3 -->
<g id="edge3" class="edge"><title>Node4&#45;&gt;Node3</title>
<path fill="none" stroke="midnightblue" d="M138,-570.614C138,-561.633 138,-552.592 138,-543.636"/>
<polygon fill="none" stroke="midnightblue" points="134.5,-570.721 138,-580.721 141.5,-570.721 134.5,-570.721"/>
</g>
<!-- Node5 -->
<g id="node5" class="node"><title>Node5</title>
<polygon fill="white" stroke="#bfbfbf" points="-0.5,-863 -0.5,-931 138.5,-931 138.5,-863 -0.5,-863"/>
<text text-anchor="start" x="7.5" y="-919" font-family="Helvetica,sans-Serif" font-size="10.00">std::enable_shared</text>
<text text-anchor="middle" x="69" y="-908" font-family="Helvetica,sans-Serif" font-size="10.00">_from_this&lt; GraphicsItem &gt;</text>
<polyline fill="none" stroke="#bfbfbf" points="-0.5,-901 138.5,-901 "/>
<text text-anchor="middle" x="69" y="-889" font-family="Helvetica,sans-Serif" font-size="10.00"> </text>
<polyline fill="none" stroke="#bfbfbf" points="-0.5,-882 138.5,-882 "/>
<text text-anchor="middle" x="69" y="-870" font-family="Helvetica,sans-Serif" font-size="10.00"> </text>
</g>
<!-- Node5&#45;&gt;Node4 -->
<g id="edge4" class="edge"><title>Node5&#45;&gt;Node4</title>
<path fill="none" stroke="midnightblue" d="M84.2685,-853.514C87.412,-844.767 90.8685,-835.148 94.466,-825.138"/>
<polygon fill="none" stroke="midnightblue" points="80.9498,-852.4 80.8615,-862.994 87.5373,-854.767 80.9498,-852.4"/>
</g>
<!-- Node6 -->
<g id="node6" class="node"><title>Node6</title>
<polygon fill="white" stroke="#bfbfbf" points="156.5,-868.5 156.5,-925.5 257.5,-925.5 257.5,-868.5 156.5,-868.5"/>
<text text-anchor="middle" x="207" y="-913.5" font-family="Helvetica,sans-Serif" font-size="10.00">boost::noncopyable</text>
<polyline fill="none" stroke="#bfbfbf" points="156.5,-906.5 257.5,-906.5 "/>
<text text-anchor="middle" x="207" y="-894.5" font-family="Helvetica,sans-Serif" font-size="10.00"> </text>
<polyline fill="none" stroke="#bfbfbf" points="156.5,-887.5 257.5,-887.5 "/>
<text text-anchor="middle" x="207" y="-875.5" font-family="Helvetica,sans-Serif" font-size="10.00"> </text>
</g>
<!-- Node6&#45;&gt;Node4 -->
<g id="edge5" class="edge"><title>Node6&#45;&gt;Node4</title>
<path fill="none" stroke="#8b1a1a" d="M193.681,-858.94C190.069,-848.889 185.952,-837.431 181.628,-825.401"/>
<polygon fill="none" stroke="#8b1a1a" points="190.438,-860.264 197.114,-868.491 197.026,-857.897 190.438,-860.264"/>
</g>
</g>
</svg>
        <g id="navigator" transform="translate(0 0)" fill="#404254">
                <rect fill="#f2f5e9" fill-opacity="0.5" stroke="#606060" stroke-width=".5" x="0" y="0" width="60" height="60"/>
                <use id="zoomplus" xlink:href="#zoomPlus" x="17" y="9" onmousedown="handleZoom(evt,'in')"/>
                <use id="zoomminus" xlink:href="#zoomMin" x="42" y="9" onmousedown="handleZoom(evt,'out')"/>
                <use id="reset" xlink:href="#resetDef" x="30" y="36" onmousedown="handleReset()"/>
                <g id="arrowUp" xlink:href="#dirArrow" transform="translate(30 24)" onmousedown="handlePan(0,-1)">
                  <use xlink:href="#rim" fill="#404040">
                        <set attributeName="fill" to="#808080" begin="arrowUp.mouseover" end="arrowUp.mouseout"/>
                  </use>
                  <path fill="none" stroke="white" stroke-width="1.5" d="M0,-3.0v7 M-2.5,-0.5L0,-3.0L2.5,-0.5"/>
                </g>
                <g id="arrowRight" xlink:href="#dirArrow" transform="rotate(90) translate(36 -43)" onmousedown="handlePan(1,0)">
                  <use xlink:href="#rim" fill="#404040">
                        <set attributeName="fill" to="#808080" begin="arrowRight.mouseover" end="arrowRight.mouseout"/>
                  </use>
                  <path fill="none" stroke="white" stroke-width="1.5" d="M0,-3.0v7 M-2.5,-0.5L0,-3.0L2.5,-0.5"/>
                </g>
                <g id="arrowDown" xlink:href="#dirArrow" transform="rotate(180) translate(-30 -48)" onmousedown="handlePan(0,1)">
                  <use xlink:href="#rim" fill="#404040">
                        <set attributeName="fill" to="#808080" begin="arrowDown.mouseover" end="arrowDown.mouseout"/>
                  </use>
                  <path fill="none" stroke="white" stroke-width="1.5" d="M0,-3.0v7 M-2.5,-0.5L0,-3.0L2.5,-0.5"/>
                </g>
                <g id="arrowLeft" xlink:href="#dirArrow" transform="rotate(270) translate(-36 17)" onmousedown="handlePan(-1,0)">
                  <use xlink:href="#rim" fill="#404040">
                        <set attributeName="fill" to="#808080" begin="arrowLeft.mouseover" end="arrowLeft.mouseout"/>
                  </use>
                  <path fill="none" stroke="white" stroke-width="1.5" d="M0,-3.0v7 M-2.5,-0.5L0,-3.0L2.5,-0.5"/>
                </g>
        </g>
        <svg viewBox="0 0 15 15" width="100%" height="30px" preserveAspectRatio="xMaxYMin meet">
         <g id="arrow_out" transform="scale(0.3 0.3)">
          <a xlink:href="class_config_polygon__inherit__graph_org.svg" target="_base">
           <rect id="button" ry="5" rx="5" y="6" x="6" height="38" width="38"
                fill="#f2f5e9" fill-opacity="0.5" stroke="#606060" stroke-width="1.0"/>
           <path id="arrow"
             d="M 11.500037,31.436501 C 11.940474,20.09759 22.043105,11.32322 32.158766,21.979434 L 37.068811,17.246167 C 37.068811,17.246167 37.088388,32 37.088388,32 L 22.160133,31.978069 C 22.160133,31.978069 26.997745,27.140456 26.997745,27.140456 C 18.528582,18.264221 13.291696,25.230495 11.500037,31.436501 z"
             style="fill:#404040;"/>
          </a>
         </g>
        </svg>
</svg>
