<?xml version="1.0" encoding="UTF-8" standalone="no"?>
<!DOCTYPE svg PUBLIC "-//W3C//DTD SVG 1.1//EN"
 "http://www.w3.org/Graphics/SVG/1.1/DTD/svg11.dtd">
<!-- Generated by graphviz version 2.36.0 (20140111.2315)
 -->
<!-- Title: GraphicsItem Pages: 1 -->
<!--zoomable 718 -->
<svg id="main" version="1.1" xmlns="http://www.w3.org/2000/svg" xmlns:xlink="http://www.w3.org/1999/xlink" xml:space="preserve" onload="init(evt)">
<style type="text/css"><![CDATA[
.edge:hover path { stroke: red; }
.edge:hover polygon { stroke: red; fill: red; }
]]></style>
<script type="text/javascript"><![CDATA[
var edges = document.getElementsByTagName('g');
if (edges && edges.length) {
  for (var i=0;i<edges.length;i++) {
    if (edges[i].id.substr(0,4)=='edge') {
      edges[i].setAttribute('class','edge');
    }
  }
}
]]></script>
        <defs>
                <circle id="rim" cx="0" cy="0" r="7"/>
                <circle id="rim2" cx="0" cy="0" r="3.5"/>
                <g id="zoomPlus">
                        <use xlink:href="#rim" fill="#404040">
                                <set attributeName="fill" to="#808080" begin="zoomplus.mouseover" end="zoomplus.mouseout"/>
                        </use>
                        <path d="M-4,0h8M0,-4v8" fill="none" stroke="white" stroke-width="1.5" pointer-events="none"/>
                </g>
                <g id="zoomMin">
                        <use xlink:href="#rim" fill="#404040">
                                <set attributeName="fill" to="#808080" begin="zoomminus.mouseover" end="zoomminus.mouseout"/>
                        </use>
                        <path d="M-4,0h8" fill="none" stroke="white" stroke-width="1.5" pointer-events="none"/>
                </g>
                <g id="dirArrow">
                        <path fill="none" stroke="white" stroke-width="1.5" d="M0,-3.0v7 M-2.5,-0.5L0,-3.0L2.5,-0.5"/>
                </g>
               <g id="resetDef">
                       <use xlink:href="#rim2" fill="#404040">
                               <set attributeName="fill" to="#808080" begin="reset.mouseover" end="reset.mouseout"/>
                       </use>
               </g>
        </defs>

<script type="text/javascript">
var viewWidth = 1320;
var viewHeight = 718;
var sectionId = 'dynsection-0';
</script>
<script xlink:href="svgpan.js"/>
<svg id="graph" class="graph">
<g id="viewport">
<title>GraphicsItem</title>
<polygon fill="white" stroke="none" points="-4,4 -4,-714 1316,-714 1316,4 -4,4"/>
<!-- Node1 -->
<g id="node1" class="node"><title>Node1</title>
<polygon fill="#bfbfbf" stroke="black" points="452.5,-476.5 452.5,-709.5 553.5,-709.5 553.5,-476.5 452.5,-476.5"/>
<text text-anchor="middle" x="503" y="-697.5" font-family="Helvetica,sans-Serif" font-size="10.00">GraphicsItem</text>
<polyline fill="none" stroke="black" points="452.5,-690.5 553.5,-690.5 "/>
<text text-anchor="middle" x="503" y="-678.5" font-family="Helvetica,sans-Serif" font-size="10.00"> </text>
<polyline fill="none" stroke="black" points="452.5,-671.5 553.5,-671.5 "/>
<text text-anchor="start" x="460.5" y="-659.5" font-family="Helvetica,sans-Serif" font-size="10.00">+ GraphicsItem()</text>
<text text-anchor="start" x="460.5" y="-648.5" font-family="Helvetica,sans-Serif" font-size="10.00">+ ~GraphicsItem()</text>
<text text-anchor="start" x="460.5" y="-637.5" font-family="Helvetica,sans-Serif" font-size="10.00">+ parent()</text>
<text text-anchor="start" x="460.5" y="-626.5" font-family="Helvetica,sans-Serif" font-size="10.00">+ setParent()</text>
<text text-anchor="start" x="460.5" y="-615.5" font-family="Helvetica,sans-Serif" font-size="10.00">+ type()</text>
<text text-anchor="start" x="460.5" y="-604.5" font-family="Helvetica,sans-Serif" font-size="10.00">+ children()</text>
<text text-anchor="start" x="460.5" y="-593.5" font-family="Helvetica,sans-Serif" font-size="10.00">+ position()</text>
<text text-anchor="start" x="460.5" y="-582.5" font-family="Helvetica,sans-Serif" font-size="10.00">+ position()</text>
<text text-anchor="start" x="460.5" y="-571.5" font-family="Helvetica,sans-Serif" font-size="10.00">+ color()</text>
<text text-anchor="start" x="460.5" y="-560.5" font-family="Helvetica,sans-Serif" font-size="10.00">+ z()</text>
<text text-anchor="start" x="460.5" y="-549.5" font-family="Helvetica,sans-Serif" font-size="10.00">et 13 de plus...</text>
<text text-anchor="start" x="460.5" y="-538.5" font-family="Helvetica,sans-Serif" font-size="10.00">+ focusItem()</text>
<text text-anchor="start" x="460.5" y="-527.5" font-family="Helvetica,sans-Serif" font-size="10.00">+ setFocusItem()</text>
<text text-anchor="start" x="460.5" y="-516.5" font-family="Helvetica,sans-Serif" font-size="10.00"># meDraw()</text>
<text text-anchor="start" x="460.5" y="-505.5" font-family="Helvetica,sans-Serif" font-size="10.00"># meUpdate()</text>
<text text-anchor="start" x="460.5" y="-494.5" font-family="Helvetica,sans-Serif" font-size="10.00"># meHandleEvent()</text>
<text text-anchor="start" x="460.5" y="-483.5" font-family="Helvetica,sans-Serif" font-size="10.00"># meIsOver()</text>
</g>
<!-- Node2 -->
<g id="node2" class="node"><title>Node2</title>
<g id="a_node2"><a xlink:href="class_graphics_animation.html" target="_top" xlink:title="Classe de base pour les animations. ">
<polygon fill="white" stroke="black" points="11,-294 11,-362 125,-362 125,-294 11,-294"/>
<text text-anchor="middle" x="68" y="-350" font-family="Helvetica,sans-Serif" font-size="10.00">GraphicsAnimation</text>
<polyline fill="none" stroke="black" points="11,-343 125,-343 "/>
<text text-anchor="middle" x="68" y="-331" font-family="Helvetica,sans-Serif" font-size="10.00"> </text>
<polyline fill="none" stroke="black" points="11,-324 125,-324 "/>
<text text-anchor="start" x="19" y="-312" font-family="Helvetica,sans-Serif" font-size="10.00">+ GraphicsAnimation()</text>
<text text-anchor="start" x="19" y="-301" font-family="Helvetica,sans-Serif" font-size="10.00">+ type()</text>
</a>
</g>
</g>
<!-- Node1&#45;&gt;Node2 -->
<g id="edge1" class="edge"><title>Node1&#45;&gt;Node2</title>
<path fill="none" stroke="midnightblue" d="M442.48,-579.637C363.756,-560.969 225.504,-519.058 134,-440 109.57,-418.893 91.7411,-386.41 80.8167,-362.028"/>
<polygon fill="none" stroke="midnightblue" points="441.713,-583.052 452.246,-581.906 443.297,-576.233 441.713,-583.052"/>
</g>
<!-- Node4 -->
<g id="node4" class="node"><title>Node4</title>
<g id="a_node4"><a xlink:href="class_graphics_point.html" target="_top" xlink:title="Un point. ">
<polygon fill="white" stroke="black" points="143.5,-261 143.5,-395 244.5,-395 244.5,-261 143.5,-261"/>
<text text-anchor="middle" x="194" y="-383" font-family="Helvetica,sans-Serif" font-size="10.00">GraphicsPoint</text>
<polyline fill="none" stroke="black" points="143.5,-376 244.5,-376 "/>
<text text-anchor="middle" x="194" y="-364" font-family="Helvetica,sans-Serif" font-size="10.00"> </text>
<polyline fill="none" stroke="black" points="143.5,-357 244.5,-357 "/>
<text text-anchor="start" x="151.5" y="-345" font-family="Helvetica,sans-Serif" font-size="10.00">+ GraphicsPoint()</text>
<text text-anchor="start" x="151.5" y="-334" font-family="Helvetica,sans-Serif" font-size="10.00">+ GraphicsPoint()</text>
<text text-anchor="start" x="151.5" y="-323" font-family="Helvetica,sans-Serif" font-size="10.00">+ radius()</text>
<text text-anchor="start" x="151.5" y="-312" font-family="Helvetica,sans-Serif" font-size="10.00">+ setRadius()</text>
<text text-anchor="start" x="151.5" y="-301" font-family="Helvetica,sans-Serif" font-size="10.00">+ type()</text>
<text text-anchor="start" x="151.5" y="-290" font-family="Helvetica,sans-Serif" font-size="10.00"># meDraw()</text>
<text text-anchor="start" x="151.5" y="-279" font-family="Helvetica,sans-Serif" font-size="10.00"># meHandleEvent()</text>
<text text-anchor="start" x="151.5" y="-268" font-family="Helvetica,sans-Serif" font-size="10.00"># meIsOver()</text>
</a>
</g>
</g>
<!-- Node1&#45;&gt;Node4 -->
<g id="edge3" class="edge"><title>Node1&#45;&gt;Node4</title>
<path fill="none" stroke="midnightblue" d="M443.235,-566.907C388.303,-541.45 307.383,-497.617 253,-440 240.716,-426.986 230.248,-410.92 221.694,-395.093"/>
<polygon fill="none" stroke="midnightblue" points="441.947,-570.167 452.498,-571.14 444.857,-563.8 441.947,-570.167"/>
</g>
<!-- Node5 -->
<g id="node5" class="node"><title>Node5</title>
<g id="a_node5"><a xlink:href="class_graphics_rectangle.html" target="_top" xlink:title="Un rectangle. ">
<polygon fill="white" stroke="black" points="262.5,-239 262.5,-417 377.5,-417 377.5,-239 262.5,-239"/>
<text text-anchor="middle" x="320" y="-405" font-family="Helvetica,sans-Serif" font-size="10.00">GraphicsRectangle</text>
<polyline fill="none" stroke="black" points="262.5,-398 377.5,-398 "/>
<text text-anchor="middle" x="320" y="-386" font-family="Helvetica,sans-Serif" font-size="10.00"> </text>
<polyline fill="none" stroke="black" points="262.5,-379 377.5,-379 "/>
<text text-anchor="start" x="270.5" y="-367" font-family="Helvetica,sans-Serif" font-size="10.00">+ GraphicsRectangle()</text>
<text text-anchor="start" x="270.5" y="-356" font-family="Helvetica,sans-Serif" font-size="10.00">+ topLeft()</text>
<text text-anchor="start" x="270.5" y="-345" font-family="Helvetica,sans-Serif" font-size="10.00">+ topLeft()</text>
<text text-anchor="start" x="270.5" y="-334" font-family="Helvetica,sans-Serif" font-size="10.00">+ bottomRight()</text>
<text text-anchor="start" x="270.5" y="-323" font-family="Helvetica,sans-Serif" font-size="10.00">+ bottomRight()</text>
<text text-anchor="start" x="270.5" y="-312" font-family="Helvetica,sans-Serif" font-size="10.00">+ width()</text>
<text text-anchor="start" x="270.5" y="-301" font-family="Helvetica,sans-Serif" font-size="10.00">+ setWidth()</text>
<text text-anchor="start" x="270.5" y="-290" font-family="Helvetica,sans-Serif" font-size="10.00">+ height()</text>
<text text-anchor="start" x="270.5" y="-279" font-family="Helvetica,sans-Serif" font-size="10.00">+ setHeight()</text>
<text text-anchor="start" x="270.5" y="-268" font-family="Helvetica,sans-Serif" font-size="10.00">+ type()</text>
<text text-anchor="start" x="270.5" y="-257" font-family="Helvetica,sans-Serif" font-size="10.00"># meDraw()</text>
<text text-anchor="start" x="270.5" y="-246" font-family="Helvetica,sans-Serif" font-size="10.00"># meIsOver()</text>
</a>
</g>
</g>
<!-- Node1&#45;&gt;Node5 -->
<g id="edge4" class="edge"><title>Node1&#45;&gt;Node5</title>
<path fill="none" stroke="midnightblue" d="M446.001,-521.592C426.317,-496.343 404.561,-467.351 386,-440 381.027,-432.672 376.018,-424.963 371.101,-417.164"/>
<polygon fill="none" stroke="midnightblue" points="443.391,-523.936 452.312,-529.651 448.902,-519.62 443.391,-523.936"/>
</g>
<!-- Node6 -->
<g id="node6" class="node"><title>Node6</title>
<g id="a_node6"><a xlink:href="class_graphics_shape.html" target="_top" xlink:title="Une forme. ">
<polygon fill="white" stroke="black" points="395,-288.5 395,-367.5 493,-367.5 493,-288.5 395,-288.5"/>
<text text-anchor="middle" x="444" y="-355.5" font-family="Helvetica,sans-Serif" font-size="10.00">GraphicsShape</text>
<polyline fill="none" stroke="black" points="395,-348.5 493,-348.5 "/>
<text text-anchor="start" x="403" y="-336.5" font-family="Helvetica,sans-Serif" font-size="10.00"># m_points</text>
<polyline fill="none" stroke="black" points="395,-329.5 493,-329.5 "/>
<text text-anchor="start" x="403" y="-317.5" font-family="Helvetica,sans-Serif" font-size="10.00">+ GraphicsShape()</text>
<text text-anchor="start" x="403" y="-306.5" font-family="Helvetica,sans-Serif" font-size="10.00">+ type()</text>
<text text-anchor="start" x="403" y="-295.5" font-family="Helvetica,sans-Serif" font-size="10.00"># meDraw()</text>
</a>
</g>
</g>
<!-- Node1&#45;&gt;Node6 -->
<g id="edge5" class="edge"><title>Node1&#45;&gt;Node6</title>
<path fill="none" stroke="midnightblue" d="M474.773,-466.174C466.731,-430.325 458.562,-393.912 452.664,-367.619"/>
<polygon fill="none" stroke="midnightblue" points="471.432,-467.27 477.036,-476.262 478.262,-465.738 471.432,-467.27"/>
</g>
<!-- Node12 -->
<g id="node12" class="node"><title>Node12</title>
<g id="a_node12"><a xlink:href="class_graphics_square.html" target="_top" xlink:title="Un carré ">
<polygon fill="white" stroke="black" points="511.5,-261 511.5,-395 612.5,-395 612.5,-261 511.5,-261"/>
<text text-anchor="middle" x="562" y="-383" font-family="Helvetica,sans-Serif" font-size="10.00">GraphicsSquare</text>
<polyline fill="none" stroke="black" points="511.5,-376 612.5,-376 "/>
<text text-anchor="middle" x="562" y="-364" font-family="Helvetica,sans-Serif" font-size="10.00"> </text>
<polyline fill="none" stroke="black" points="511.5,-357 612.5,-357 "/>
<text text-anchor="start" x="519.5" y="-345" font-family="Helvetica,sans-Serif" font-size="10.00">+ GraphicsSquare()</text>
<text text-anchor="start" x="519.5" y="-334" font-family="Helvetica,sans-Serif" font-size="10.00">+ topLeft()</text>
<text text-anchor="start" x="519.5" y="-323" font-family="Helvetica,sans-Serif" font-size="10.00">+ topLeft()</text>
<text text-anchor="start" x="519.5" y="-312" font-family="Helvetica,sans-Serif" font-size="10.00">+ bottomRight()</text>
<text text-anchor="start" x="519.5" y="-301" font-family="Helvetica,sans-Serif" font-size="10.00">+ bottomRight()</text>
<text text-anchor="start" x="519.5" y="-290" font-family="Helvetica,sans-Serif" font-size="10.00">+ type()</text>
<text text-anchor="start" x="519.5" y="-279" font-family="Helvetica,sans-Serif" font-size="10.00"># meDraw()</text>
<text text-anchor="start" x="519.5" y="-268" font-family="Helvetica,sans-Serif" font-size="10.00"># meIsOver()</text>
</a>
</g>
</g>
<!-- Node1&#45;&gt;Node12 -->
<g id="edge11" class="edge"><title>Node1&#45;&gt;Node12</title>
<path fill="none" stroke="midnightblue" d="M531.156,-466.492C536.672,-441.903 542.251,-417.034 547.119,-395.333"/>
<polygon fill="none" stroke="midnightblue" points="527.738,-465.738 528.964,-476.262 534.568,-467.27 527.738,-465.738"/>
</g>
<!-- Node13 -->
<g id="node13" class="node"><title>Node13</title>
<g id="a_node13"><a xlink:href="class_graphics_text.html" target="_top" xlink:title="Du texte. ">
<polygon fill="white" stroke="black" points="631,-244.5 631,-411.5 721,-411.5 721,-244.5 631,-244.5"/>
<text text-anchor="middle" x="676" y="-399.5" font-family="Helvetica,sans-Serif" font-size="10.00">GraphicsText</text>
<polyline fill="none" stroke="black" points="631,-392.5 721,-392.5 "/>
<text text-anchor="middle" x="676" y="-380.5" font-family="Helvetica,sans-Serif" font-size="10.00"> </text>
<polyline fill="none" stroke="black" points="631,-373.5 721,-373.5 "/>
<text text-anchor="start" x="639" y="-361.5" font-family="Helvetica,sans-Serif" font-size="10.00">+ GraphicsText()</text>
<text text-anchor="start" x="639" y="-350.5" font-family="Helvetica,sans-Serif" font-size="10.00">+ GraphicsText()</text>
<text text-anchor="start" x="639" y="-339.5" font-family="Helvetica,sans-Serif" font-size="10.00">+ text()</text>
<text text-anchor="start" x="639" y="-328.5" font-family="Helvetica,sans-Serif" font-size="10.00">+ setText()</text>
<text text-anchor="start" x="639" y="-317.5" font-family="Helvetica,sans-Serif" font-size="10.00">+ font()</text>
<text text-anchor="start" x="639" y="-306.5" font-family="Helvetica,sans-Serif" font-size="10.00">+ setFont()</text>
<text text-anchor="start" x="639" y="-295.5" font-family="Helvetica,sans-Serif" font-size="10.00">+ align()</text>
<text text-anchor="start" x="639" y="-284.5" font-family="Helvetica,sans-Serif" font-size="10.00">+ setAlign()</text>
<text text-anchor="start" x="639" y="-273.5" font-family="Helvetica,sans-Serif" font-size="10.00">+ type()</text>
<text text-anchor="start" x="639" y="-262.5" font-family="Helvetica,sans-Serif" font-size="10.00"># meDraw()</text>
<text text-anchor="start" x="639" y="-251.5" font-family="Helvetica,sans-Serif" font-size="10.00"># meIsOver()</text>
</a>
</g>
</g>
<!-- Node1&#45;&gt;Node13 -->
<g id="edge12" class="edge"><title>Node1&#45;&gt;Node13</title>
<path fill="none" stroke="midnightblue" d="M559.832,-524.81C580.309,-499.103 602.825,-468.984 621,-440 626.656,-430.981 632.181,-421.299 637.414,-411.549"/>
<polygon fill="none" stroke="midnightblue" points="557.078,-522.65 553.55,-532.64 562.538,-527.03 557.078,-522.65"/>
</g>
<!-- Node14 -->
<g id="node14" class="node"><title>Node14</title>
<g id="a_node14"><a xlink:href="class_tools_windows.html" target="_top" xlink:title="Permet la creation d&#39;un fenetre d&#39;édition des formes. ">
<polygon fill="white" stroke="black" points="739,-299.5 739,-356.5 835,-356.5 835,-299.5 739,-299.5"/>
<text text-anchor="middle" x="787" y="-344.5" font-family="Helvetica,sans-Serif" font-size="10.00">ToolsWindows</text>
<polyline fill="none" stroke="black" points="739,-337.5 835,-337.5 "/>
<text text-anchor="middle" x="787" y="-325.5" font-family="Helvetica,sans-Serif" font-size="10.00"> </text>
<polyline fill="none" stroke="black" points="739,-318.5 835,-318.5 "/>
<text text-anchor="start" x="747" y="-306.5" font-family="Helvetica,sans-Serif" font-size="10.00">+ ToolsWindows()</text>
</a>
</g>
</g>
<!-- Node1&#45;&gt;Node14 -->
<g id="edge13" class="edge"><title>Node1&#45;&gt;Node14</title>
<path fill="none" stroke="midnightblue" d="M562.57,-563.058C612.301,-536.541 682.488,-493.35 730,-440 751.899,-415.41 767.888,-380.889 777.264,-356.899"/>
<polygon fill="none" stroke="midnightblue" points="560.752,-560.06 553.532,-567.814 564.012,-566.255 560.752,-560.06"/>
</g>
<!-- Node15 -->
<g id="node15" class="node"><title>Node15</title>
<g id="a_node15"><a xlink:href="class_widget.html" target="_top" xlink:title="Classe de base. ">
<polygon fill="white" stroke="black" points="904,-217 904,-439 1050,-439 1050,-217 904,-217"/>
<text text-anchor="middle" x="977" y="-427" font-family="Helvetica,sans-Serif" font-size="10.00">Widget</text>
<polyline fill="none" stroke="black" points="904,-420 1050,-420 "/>
<text text-anchor="start" x="912" y="-408" font-family="Helvetica,sans-Serif" font-size="10.00"># m_minimumWidthChanged</text>
<text text-anchor="start" x="912" y="-397" font-family="Helvetica,sans-Serif" font-size="10.00"># m_minimumHeightChanged</text>
<polyline fill="none" stroke="black" points="904,-390 1050,-390 "/>
<text text-anchor="start" x="912" y="-378" font-family="Helvetica,sans-Serif" font-size="10.00">+ Widget()</text>
<text text-anchor="start" x="912" y="-367" font-family="Helvetica,sans-Serif" font-size="10.00">+ width()</text>
<text text-anchor="start" x="912" y="-356" font-family="Helvetica,sans-Serif" font-size="10.00">+ setWidth()</text>
<text text-anchor="start" x="912" y="-345" font-family="Helvetica,sans-Serif" font-size="10.00">+ height()</text>
<text text-anchor="start" x="912" y="-334" font-family="Helvetica,sans-Serif" font-size="10.00">+ setHeight()</text>
<text text-anchor="start" x="912" y="-323" font-family="Helvetica,sans-Serif" font-size="10.00">+ minimumWidth()</text>
<text text-anchor="start" x="912" y="-312" font-family="Helvetica,sans-Serif" font-size="10.00">+ minimumHeight()</text>
<text text-anchor="start" x="912" y="-301" font-family="Helvetica,sans-Serif" font-size="10.00">+ widthChanged()</text>
<text text-anchor="start" x="912" y="-290" font-family="Helvetica,sans-Serif" font-size="10.00">+ heightChanged()</text>
<text text-anchor="start" x="912" y="-279" font-family="Helvetica,sans-Serif" font-size="10.00">+ minimumWidthChanged()</text>
<text text-anchor="start" x="912" y="-268" font-family="Helvetica,sans-Serif" font-size="10.00">+ minimumHeightChanged()</text>
<text text-anchor="start" x="912" y="-257" font-family="Helvetica,sans-Serif" font-size="10.00">* widthChanged()</text>
<text text-anchor="start" x="912" y="-246" font-family="Helvetica,sans-Serif" font-size="10.00">* heightChanged()</text>
<text text-anchor="start" x="912" y="-235" font-family="Helvetica,sans-Serif" font-size="10.00">* minimumWidthChanged()</text>
<text text-anchor="start" x="912" y="-224" font-family="Helvetica,sans-Serif" font-size="10.00">* minimumHeightChanged()</text>
</a>
</g>
</g>
<!-- Node1&#45;&gt;Node15 -->
<g id="edge14" class="edge"><title>Node1&#45;&gt;Node15</title>
<path fill="none" stroke="midnightblue" d="M563.304,-570.928C633.48,-545.115 751.539,-497.633 844,-440 864.418,-427.273 885.064,-411.66 903.8,-396.208"/>
<polygon fill="none" stroke="midnightblue" points="561.92,-567.707 553.727,-574.425 564.321,-574.282 561.92,-567.707"/>
</g>
<!-- Node3 -->
<g id="node3" class="node"><title>Node3</title>
<g id="a_node3"><a xlink:href="class_graphics_blink_animation.html" target="_top" xlink:title="Faire clignoter sont parent. ">
<polygon fill="white" stroke="black" points="0,-12 0,-168 136,-168 136,-12 0,-12"/>
<text text-anchor="middle" x="68" y="-156" font-family="Helvetica,sans-Serif" font-size="10.00">GraphicsBlinkAnimation</text>
<polyline fill="none" stroke="black" points="0,-149 136,-149 "/>
<text text-anchor="middle" x="68" y="-137" font-family="Helvetica,sans-Serif" font-size="10.00"> </text>
<polyline fill="none" stroke="black" points="0,-130 136,-130 "/>
<text text-anchor="start" x="8" y="-118" font-family="Helvetica,sans-Serif" font-size="10.00">+ GraphicsBlinkAnimation()</text>
<text text-anchor="start" x="8" y="-107" font-family="Helvetica,sans-Serif" font-size="10.00">+ GraphicsBlinkAnimation()</text>
<text text-anchor="start" x="8" y="-96" font-family="Helvetica,sans-Serif" font-size="10.00">+ blinkFrequency()</text>
<text text-anchor="start" x="8" y="-85" font-family="Helvetica,sans-Serif" font-size="10.00">+ setBlinkFrequency()</text>
<text text-anchor="start" x="8" y="-74" font-family="Helvetica,sans-Serif" font-size="10.00">+ becomeColor()</text>
<text text-anchor="start" x="8" y="-63" font-family="Helvetica,sans-Serif" font-size="10.00">+ setBecomeColor()</text>
<text text-anchor="start" x="8" y="-52" font-family="Helvetica,sans-Serif" font-size="10.00">+ becomeInvisible()</text>
<text text-anchor="start" x="8" y="-41" font-family="Helvetica,sans-Serif" font-size="10.00">+ setBecomeInvisible()</text>
<text text-anchor="start" x="8" y="-30" font-family="Helvetica,sans-Serif" font-size="10.00">+ type()</text>
<text text-anchor="start" x="8" y="-19" font-family="Helvetica,sans-Serif" font-size="10.00"># meUpdate()</text>
</a>
</g>
</g>
<!-- Node2&#45;&gt;Node3 -->
<g id="edge2" class="edge"><title>Node2&#45;&gt;Node3</title>
<path fill="none" stroke="midnightblue" d="M68,-283.925C68,-251.63 68,-206.566 68,-168.112"/>
<polygon fill="none" stroke="midnightblue" points="64.5001,-283.937 68,-293.937 71.5001,-283.937 64.5001,-283.937"/>
</g>
<!-- Node7 -->
<g id="node7" class="node"><title>Node7</title>
<g id="a_node7"><a xlink:href="class_graphics_circle.html" target="_top" xlink:title="Un cercle. ">
<polygon fill="white" stroke="black" points="160,-12 160,-168 256,-168 256,-12 160,-12"/>
<text text-anchor="middle" x="208" y="-156" font-family="Helvetica,sans-Serif" font-size="10.00">GraphicsCircle</text>
<polyline fill="none" stroke="black" points="160,-149 256,-149 "/>
<text text-anchor="middle" x="208" y="-137" font-family="Helvetica,sans-Serif" font-size="10.00"> </text>
<polyline fill="none" stroke="black" points="160,-130 256,-130 "/>
<text text-anchor="start" x="168" y="-118" font-family="Helvetica,sans-Serif" font-size="10.00">+ GraphicsCircle()</text>
<text text-anchor="start" x="168" y="-107" font-family="Helvetica,sans-Serif" font-size="10.00">+ center()</text>
<text text-anchor="start" x="168" y="-96" font-family="Helvetica,sans-Serif" font-size="10.00">+ center()</text>
<text text-anchor="start" x="168" y="-85" font-family="Helvetica,sans-Serif" font-size="10.00">+ radiusPt()</text>
<text text-anchor="start" x="168" y="-74" font-family="Helvetica,sans-Serif" font-size="10.00">+ radiusPt()</text>
<text text-anchor="start" x="168" y="-63" font-family="Helvetica,sans-Serif" font-size="10.00">+ radius()</text>
<text text-anchor="start" x="168" y="-52" font-family="Helvetica,sans-Serif" font-size="10.00">+ setRadius()</text>
<text text-anchor="start" x="168" y="-41" font-family="Helvetica,sans-Serif" font-size="10.00">+ type()</text>
<text text-anchor="start" x="168" y="-30" font-family="Helvetica,sans-Serif" font-size="10.00"># meDraw()</text>
<text text-anchor="start" x="168" y="-19" font-family="Helvetica,sans-Serif" font-size="10.00"># meIsOver()</text>
</a>
</g>
</g>
<!-- Node6&#45;&gt;Node7 -->
<g id="edge6" class="edge"><title>Node6&#45;&gt;Node7</title>
<path fill="none" stroke="midnightblue" d="M428.673,-278.763C419.473,-256.822 405.66,-232.201 386,-216 342.7,-180.319 309.83,-213.739 265,-180 260.309,-176.469 255.899,-172.43 251.775,-168.066"/>
<polygon fill="none" stroke="midnightblue" points="425.513,-280.29 432.458,-288.292 432.019,-277.706 425.513,-280.29"/>
</g>
<!-- Node8 -->
<g id="node8" class="node"><title>Node8</title>
<g id="a_node8"><a xlink:href="class_graphics_ellipse.html" target="_top" xlink:title="Une ellipse. ">
<polygon fill="white" stroke="black" points="274,-23 274,-157 374,-157 374,-23 274,-23"/>
<text text-anchor="middle" x="324" y="-145" font-family="Helvetica,sans-Serif" font-size="10.00">GraphicsEllipse</text>
<polyline fill="none" stroke="black" points="274,-138 374,-138 "/>
<text text-anchor="middle" x="324" y="-126" font-family="Helvetica,sans-Serif" font-size="10.00"> </text>
<polyline fill="none" stroke="black" points="274,-119 374,-119 "/>
<text text-anchor="start" x="282" y="-107" font-family="Helvetica,sans-Serif" font-size="10.00">+ GraphicsEllipse()</text>
<text text-anchor="start" x="282" y="-96" font-family="Helvetica,sans-Serif" font-size="10.00">+ center()</text>
<text text-anchor="start" x="282" y="-85" font-family="Helvetica,sans-Serif" font-size="10.00">+ center()</text>
<text text-anchor="start" x="282" y="-74" font-family="Helvetica,sans-Serif" font-size="10.00">+ radius()</text>
<text text-anchor="start" x="282" y="-63" font-family="Helvetica,sans-Serif" font-size="10.00">+ radius()</text>
<text text-anchor="start" x="282" y="-52" font-family="Helvetica,sans-Serif" font-size="10.00">+ type()</text>
<text text-anchor="start" x="282" y="-41" font-family="Helvetica,sans-Serif" font-size="10.00"># meDraw()</text>
<text text-anchor="start" x="282" y="-30" font-family="Helvetica,sans-Serif" font-size="10.00"># meIsOver()</text>
</a>
</g>
</g>
<!-- Node6&#45;&gt;Node8 -->
<g id="edge7" class="edge"><title>Node6&#45;&gt;Node8</title>
<path fill="none" stroke="midnightblue" d="M419.71,-279.23C401.899,-244.202 377.489,-196.195 357.779,-157.432"/>
<polygon fill="none" stroke="midnightblue" points="416.666,-280.966 424.319,-288.294 422.906,-277.793 416.666,-280.966"/>
</g>
<!-- Node9 -->
<g id="node9" class="node"><title>Node9</title>
<g id="a_node9"><a xlink:href="class_graphics_line.html" target="_top" xlink:title="Une ligne. ">
<polygon fill="white" stroke="black" points="392.5,-34 392.5,-146 481.5,-146 481.5,-34 392.5,-34"/>
<text text-anchor="middle" x="437" y="-134" font-family="Helvetica,sans-Serif" font-size="10.00">GraphicsLine</text>
<polyline fill="none" stroke="black" points="392.5,-127 481.5,-127 "/>
<text text-anchor="middle" x="437" y="-115" font-family="Helvetica,sans-Serif" font-size="10.00"> </text>
<polyline fill="none" stroke="black" points="392.5,-108 481.5,-108 "/>
<text text-anchor="start" x="400.5" y="-96" font-family="Helvetica,sans-Serif" font-size="10.00">+ GraphicsLine()</text>
<text text-anchor="start" x="400.5" y="-85" font-family="Helvetica,sans-Serif" font-size="10.00">+ first()</text>
<text text-anchor="start" x="400.5" y="-74" font-family="Helvetica,sans-Serif" font-size="10.00">+ first()</text>
<text text-anchor="start" x="400.5" y="-63" font-family="Helvetica,sans-Serif" font-size="10.00">+ second()</text>
<text text-anchor="start" x="400.5" y="-52" font-family="Helvetica,sans-Serif" font-size="10.00">+ second()</text>
<text text-anchor="start" x="400.5" y="-41" font-family="Helvetica,sans-Serif" font-size="10.00">+ type()</text>
</a>
</g>
</g>
<!-- Node6&#45;&gt;Node9 -->
<g id="edge8" class="edge"><title>Node6&#45;&gt;Node9</title>
<path fill="none" stroke="midnightblue" d="M442.543,-277.869C441.402,-239.413 439.816,-185.943 438.633,-146.048"/>
<polygon fill="none" stroke="midnightblue" points="439.057,-278.402 442.852,-288.294 446.054,-278.194 439.057,-278.402"/>
</g>
<!-- Node10 -->
<g id="node10" class="node"><title>Node10</title>
<g id="a_node10"><a xlink:href="class_graphics_polygon.html" target="_top" xlink:title="Un polygone. ">
<polygon fill="white" stroke="black" points="499,-34 499,-146 605,-146 605,-34 499,-34"/>
<text text-anchor="middle" x="552" y="-134" font-family="Helvetica,sans-Serif" font-size="10.00">GraphicsPolygon</text>
<polyline fill="none" stroke="black" points="499,-127 605,-127 "/>
<text text-anchor="middle" x="552" y="-115" font-family="Helvetica,sans-Serif" font-size="10.00"> </text>
<polyline fill="none" stroke="black" points="499,-108 605,-108 "/>
<text text-anchor="start" x="507" y="-96" font-family="Helvetica,sans-Serif" font-size="10.00">+ GraphicsPolygon()</text>
<text text-anchor="start" x="507" y="-85" font-family="Helvetica,sans-Serif" font-size="10.00">+ newPoint()</text>
<text text-anchor="start" x="507" y="-74" font-family="Helvetica,sans-Serif" font-size="10.00">+ popPoint()</text>
<text text-anchor="start" x="507" y="-63" font-family="Helvetica,sans-Serif" font-size="10.00">+ nbPoints()</text>
<text text-anchor="start" x="507" y="-52" font-family="Helvetica,sans-Serif" font-size="10.00">+ setNbPoints()</text>
<text text-anchor="start" x="507" y="-41" font-family="Helvetica,sans-Serif" font-size="10.00">+ type()</text>
</a>
</g>
</g>
<!-- Node6&#45;&gt;Node10 -->
<g id="edge9" class="edge"><title>Node6&#45;&gt;Node10</title>
<path fill="none" stroke="midnightblue" d="M466.034,-278.852C483.664,-240.328 508.396,-186.284 526.809,-146.048"/>
<polygon fill="none" stroke="midnightblue" points="462.692,-277.744 461.713,-288.294 469.057,-280.657 462.692,-277.744"/>
</g>
<!-- Node11 -->
<g id="node11" class="node"><title>Node11</title>
<g id="a_node11"><a xlink:href="class_graphics_triangle.html" target="_top" xlink:title="Un triangle quelconque. ">
<polygon fill="white" stroke="black" points="623.5,-39.5 623.5,-140.5 728.5,-140.5 728.5,-39.5 623.5,-39.5"/>
<text text-anchor="middle" x="676" y="-128.5" font-family="Helvetica,sans-Serif" font-size="10.00">GraphicsTriangle</text>
<polyline fill="none" stroke="black" points="623.5,-121.5 728.5,-121.5 "/>
<text text-anchor="middle" x="676" y="-109.5" font-family="Helvetica,sans-Serif" font-size="10.00"> </text>
<polyline fill="none" stroke="black" points="623.5,-102.5 728.5,-102.5 "/>
<text text-anchor="start" x="631.5" y="-90.5" font-family="Helvetica,sans-Serif" font-size="10.00">+ GraphicsTriangle()</text>
<text text-anchor="start" x="631.5" y="-79.5" font-family="Helvetica,sans-Serif" font-size="10.00">+ first()</text>
<text text-anchor="start" x="631.5" y="-68.5" font-family="Helvetica,sans-Serif" font-size="10.00">+ second()</text>
<text text-anchor="start" x="631.5" y="-57.5" font-family="Helvetica,sans-Serif" font-size="10.00">+ third()</text>
<text text-anchor="start" x="631.5" y="-46.5" font-family="Helvetica,sans-Serif" font-size="10.00">+ type()</text>
</a>
</g>
</g>
<!-- Node6&#45;&gt;Node11 -->
<g id="edge10" class="edge"><title>Node6&#45;&gt;Node11</title>
<path fill="none" stroke="midnightblue" d="M459.503,-278.974C468.744,-257.081 482.54,-232.44 502,-216 541.618,-182.531 571.222,-210.731 613,-180 627.182,-169.568 639.374,-154.97 649.151,-140.609"/>
<polygon fill="none" stroke="midnightblue" points="456.166,-277.893 455.696,-288.477 462.664,-280.496 456.166,-277.893"/>
</g>
<!-- Node16 -->
<g id="node16" class="node"><title>Node16</title>
<g id="a_node16"><a xlink:href="class_button.html" target="_top" xlink:title="Faire une action après un clic. ">
<polygon fill="white" stroke="black" points="746.5,-17.5 746.5,-162.5 847.5,-162.5 847.5,-17.5 746.5,-17.5"/>
<text text-anchor="middle" x="797" y="-150.5" font-family="Helvetica,sans-Serif" font-size="10.00">Button</text>
<polyline fill="none" stroke="black" points="746.5,-143.5 847.5,-143.5 "/>
<text text-anchor="middle" x="797" y="-131.5" font-family="Helvetica,sans-Serif" font-size="10.00"> </text>
<polyline fill="none" stroke="black" points="746.5,-124.5 847.5,-124.5 "/>
<text text-anchor="start" x="754.5" y="-112.5" font-family="Helvetica,sans-Serif" font-size="10.00">+ Button()</text>
<text text-anchor="start" x="754.5" y="-101.5" font-family="Helvetica,sans-Serif" font-size="10.00">+ Button()</text>
<text text-anchor="start" x="754.5" y="-90.5" font-family="Helvetica,sans-Serif" font-size="10.00">+ text()</text>
<text text-anchor="start" x="754.5" y="-79.5" font-family="Helvetica,sans-Serif" font-size="10.00">+ setText()</text>
<text text-anchor="start" x="754.5" y="-68.5" font-family="Helvetica,sans-Serif" font-size="10.00">+ minimumWidth()</text>
<text text-anchor="start" x="754.5" y="-57.5" font-family="Helvetica,sans-Serif" font-size="10.00">+ minimumHeight()</text>
<text text-anchor="start" x="754.5" y="-46.5" font-family="Helvetica,sans-Serif" font-size="10.00">+ clicked()</text>
<text text-anchor="start" x="754.5" y="-35.5" font-family="Helvetica,sans-Serif" font-size="10.00"># meHandleEvent()</text>
<text text-anchor="start" x="754.5" y="-24.5" font-family="Helvetica,sans-Serif" font-size="10.00">* clicked()</text>
</a>
</g>
</g>
<!-- Node15&#45;&gt;Node16 -->
<g id="edge15" class="edge"><title>Node15&#45;&gt;Node16</title>
<path fill="none" stroke="midnightblue" d="M897.629,-232.356C883.807,-215.149 869.777,-197.2 857,-180 852.889,-174.465 848.712,-168.671 844.576,-162.808"/>
<polygon fill="none" stroke="midnightblue" points="894.957,-234.618 903.96,-240.204 900.406,-230.223 894.957,-234.618"/>
</g>
<!-- Node17 -->
<g id="node17" class="node"><title>Node17</title>
<g id="a_node17"><a xlink:href="class_label.html" target="_top" xlink:title="Afficher du texte. ">
<polygon fill="white" stroke="black" points="866,-1 866,-179 966,-179 966,-1 866,-1"/>
<text text-anchor="middle" x="916" y="-167" font-family="Helvetica,sans-Serif" font-size="10.00">Label</text>
<polyline fill="none" stroke="black" points="866,-160 966,-160 "/>
<text text-anchor="middle" x="916" y="-148" font-family="Helvetica,sans-Serif" font-size="10.00"> </text>
<polyline fill="none" stroke="black" points="866,-141 966,-141 "/>
<text text-anchor="start" x="874" y="-129" font-family="Helvetica,sans-Serif" font-size="10.00">+ Label()</text>
<text text-anchor="start" x="874" y="-118" font-family="Helvetica,sans-Serif" font-size="10.00">+ Label()</text>
<text text-anchor="start" x="874" y="-107" font-family="Helvetica,sans-Serif" font-size="10.00">+ text()</text>
<text text-anchor="start" x="874" y="-96" font-family="Helvetica,sans-Serif" font-size="10.00">+ setText()</text>
<text text-anchor="start" x="874" y="-85" font-family="Helvetica,sans-Serif" font-size="10.00">+ font()</text>
<text text-anchor="start" x="874" y="-74" font-family="Helvetica,sans-Serif" font-size="10.00">+ setFont()</text>
<text text-anchor="start" x="874" y="-63" font-family="Helvetica,sans-Serif" font-size="10.00">+ minimumWidth()</text>
<text text-anchor="start" x="874" y="-52" font-family="Helvetica,sans-Serif" font-size="10.00">+ minimumHeight()</text>
<text text-anchor="start" x="874" y="-41" font-family="Helvetica,sans-Serif" font-size="10.00">+ textChanged()</text>
<text text-anchor="start" x="874" y="-30" font-family="Helvetica,sans-Serif" font-size="10.00">+ fontChanged()</text>
<text text-anchor="start" x="874" y="-19" font-family="Helvetica,sans-Serif" font-size="10.00">* textChanged()</text>
<text text-anchor="start" x="874" y="-8" font-family="Helvetica,sans-Serif" font-size="10.00">* fontChanged()</text>
</a>
</g>
</g>
<!-- Node15&#45;&gt;Node17 -->
<g id="edge16" class="edge"><title>Node15&#45;&gt;Node17</title>
<path fill="none" stroke="midnightblue" d="M946.028,-207.173C943.602,-197.79 941.181,-188.423 938.825,-179.308"/>
<polygon fill="none" stroke="midnightblue" points="942.663,-208.14 948.554,-216.946 949.44,-206.388 942.663,-208.14"/>
</g>
<!-- Node18 -->
<g id="node18" class="node"><title>Node18</title>
<g id="a_node18"><a xlink:href="class_layout.html" target="_top" xlink:title="Organiser les widgets. ">
<polygon fill="white" stroke="black" points="984,-6.5 984,-173.5 1084,-173.5 1084,-6.5 984,-6.5"/>
<text text-anchor="middle" x="1034" y="-161.5" font-family="Helvetica,sans-Serif" font-size="10.00">Layout</text>
<polyline fill="none" stroke="black" points="984,-154.5 1084,-154.5 "/>
<text text-anchor="middle" x="1034" y="-142.5" font-family="Helvetica,sans-Serif" font-size="10.00"> </text>
<polyline fill="none" stroke="black" points="984,-135.5 1084,-135.5 "/>
<text text-anchor="start" x="992" y="-123.5" font-family="Helvetica,sans-Serif" font-size="10.00">+ Layout()</text>
<text text-anchor="start" x="992" y="-112.5" font-family="Helvetica,sans-Serif" font-size="10.00">+ Layout()</text>
<text text-anchor="start" x="992" y="-101.5" font-family="Helvetica,sans-Serif" font-size="10.00">+ orientation()</text>
<text text-anchor="start" x="992" y="-90.5" font-family="Helvetica,sans-Serif" font-size="10.00">+ setOrientation()</text>
<text text-anchor="start" x="992" y="-79.5" font-family="Helvetica,sans-Serif" font-size="10.00">+ spacing()</text>
<text text-anchor="start" x="992" y="-68.5" font-family="Helvetica,sans-Serif" font-size="10.00">+ setSpacing()</text>
<text text-anchor="start" x="992" y="-57.5" font-family="Helvetica,sans-Serif" font-size="10.00">+ push_back()</text>
<text text-anchor="start" x="992" y="-46.5" font-family="Helvetica,sans-Serif" font-size="10.00">+ pop_back()</text>
<text text-anchor="start" x="992" y="-35.5" font-family="Helvetica,sans-Serif" font-size="10.00">+ size()</text>
<text text-anchor="start" x="992" y="-24.5" font-family="Helvetica,sans-Serif" font-size="10.00">+ minimumWidth()</text>
<text text-anchor="start" x="992" y="-13.5" font-family="Helvetica,sans-Serif" font-size="10.00">+ minimumHeight()</text>
</a>
</g>
</g>
<!-- Node15&#45;&gt;Node18 -->
<g id="edge17" class="edge"><title>Node15&#45;&gt;Node18</title>
<path fill="none" stroke="midnightblue" d="M1005.97,-207.048C1008.69,-195.781 1011.41,-184.537 1014.02,-173.728"/>
<polygon fill="none" stroke="midnightblue" points="1002.53,-206.404 1003.58,-216.946 1009.33,-208.047 1002.53,-206.404"/>
</g>
<!-- Node19 -->
<g id="node19" class="node"><title>Node19</title>
<g id="a_node19"><a xlink:href="class_line_edit.html" target="_top" xlink:title="Saisir du texte. ">
<polygon fill="white" stroke="black" points="1102.5,-23 1102.5,-157 1203.5,-157 1203.5,-23 1102.5,-23"/>
<text text-anchor="middle" x="1153" y="-145" font-family="Helvetica,sans-Serif" font-size="10.00">LineEdit</text>
<polyline fill="none" stroke="black" points="1102.5,-138 1203.5,-138 "/>
<text text-anchor="middle" x="1153" y="-126" font-family="Helvetica,sans-Serif" font-size="10.00"> </text>
<polyline fill="none" stroke="black" points="1102.5,-119 1203.5,-119 "/>
<text text-anchor="start" x="1110.5" y="-107" font-family="Helvetica,sans-Serif" font-size="10.00">+ LineEdit()</text>
<text text-anchor="start" x="1110.5" y="-96" font-family="Helvetica,sans-Serif" font-size="10.00">+ text()</text>
<text text-anchor="start" x="1110.5" y="-85" font-family="Helvetica,sans-Serif" font-size="10.00">+ setText()</text>
<text text-anchor="start" x="1110.5" y="-74" font-family="Helvetica,sans-Serif" font-size="10.00">+ minimumWidth()</text>
<text text-anchor="start" x="1110.5" y="-63" font-family="Helvetica,sans-Serif" font-size="10.00">+ minimumHeight()</text>
<text text-anchor="start" x="1110.5" y="-52" font-family="Helvetica,sans-Serif" font-size="10.00">+ textChanged()</text>
<text text-anchor="start" x="1110.5" y="-41" font-family="Helvetica,sans-Serif" font-size="10.00"># meHandleEvent()</text>
<text text-anchor="start" x="1110.5" y="-30" font-family="Helvetica,sans-Serif" font-size="10.00">* textChanged()</text>
</a>
</g>
</g>
<!-- Node15&#45;&gt;Node19 -->
<g id="edge18" class="edge"><title>Node15&#45;&gt;Node19</title>
<path fill="none" stroke="midnightblue" d="M1056.62,-228.172C1069,-212.218 1081.49,-195.763 1093,-180 1098.38,-172.625 1103.91,-164.813 1109.31,-157.001"/>
<polygon fill="none" stroke="midnightblue" points="1053.55,-226.423 1050.17,-236.463 1059.07,-230.724 1053.55,-226.423"/>
</g>
<!-- Node20 -->
<g id="node20" class="node"><title>Node20</title>
<g id="a_node20"><a xlink:href="class_tools_window.html" target="_top" xlink:title="Barre d&#39;outils pour créer des formes. ">
<polygon fill="white" stroke="black" points="1221.5,-61.5 1221.5,-118.5 1312.5,-118.5 1312.5,-61.5 1221.5,-61.5"/>
<text text-anchor="middle" x="1267" y="-106.5" font-family="Helvetica,sans-Serif" font-size="10.00">ToolsWindow</text>
<polyline fill="none" stroke="black" points="1221.5,-99.5 1312.5,-99.5 "/>
<text text-anchor="middle" x="1267" y="-87.5" font-family="Helvetica,sans-Serif" font-size="10.00"> </text>
<polyline fill="none" stroke="black" points="1221.5,-80.5 1312.5,-80.5 "/>
<text text-anchor="start" x="1229.5" y="-68.5" font-family="Helvetica,sans-Serif" font-size="10.00">+ ToolsWindow()</text>
</a>
</g>
</g>
<!-- Node15&#45;&gt;Node20 -->
<g id="edge19" class="edge"><title>Node15&#45;&gt;Node20</title>
<path fill="none" stroke="midnightblue" d="M1058.99,-287.828C1107.4,-261.926 1167.67,-224.569 1212,-180 1229.8,-162.099 1244.49,-137.399 1254.19,-118.56"/>
<polygon fill="none" stroke="midnightblue" points="1057.31,-284.763 1050.1,-292.531 1060.58,-290.951 1057.31,-284.763"/>
</g>
</g>
</svg>
        <g id="navigator" transform="translate(0 0)" fill="#404254">
                <rect fill="#f2f5e9" fill-opacity="0.5" stroke="#606060" stroke-width=".5" x="0" y="0" width="60" height="60"/>
                <use id="zoomplus" xlink:href="#zoomPlus" x="17" y="9" onmousedown="handleZoom(evt,'in')"/>
                <use id="zoomminus" xlink:href="#zoomMin" x="42" y="9" onmousedown="handleZoom(evt,'out')"/>
                <use id="reset" xlink:href="#resetDef" x="30" y="36" onmousedown="handleReset()"/>
                <g id="arrowUp" xlink:href="#dirArrow" transform="translate(30 24)" onmousedown="handlePan(0,-1)">
                  <use xlink:href="#rim" fill="#404040">
                        <set attributeName="fill" to="#808080" begin="arrowUp.mouseover" end="arrowUp.mouseout"/>
                  </use>
                  <path fill="none" stroke="white" stroke-width="1.5" d="M0,-3.0v7 M-2.5,-0.5L0,-3.0L2.5,-0.5"/>
                </g>
                <g id="arrowRight" xlink:href="#dirArrow" transform="rotate(90) translate(36 -43)" onmousedown="handlePan(1,0)">
                  <use xlink:href="#rim" fill="#404040">
                        <set attributeName="fill" to="#808080" begin="arrowRight.mouseover" end="arrowRight.mouseout"/>
                  </use>
                  <path fill="none" stroke="white" stroke-width="1.5" d="M0,-3.0v7 M-2.5,-0.5L0,-3.0L2.5,-0.5"/>
                </g>
                <g id="arrowDown" xlink:href="#dirArrow" transform="rotate(180) translate(-30 -48)" onmousedown="handlePan(0,1)">
                  <use xlink:href="#rim" fill="#404040">
                        <set attributeName="fill" to="#808080" begin="arrowDown.mouseover" end="arrowDown.mouseout"/>
                  </use>
                  <path fill="none" stroke="white" stroke-width="1.5" d="M0,-3.0v7 M-2.5,-0.5L0,-3.0L2.5,-0.5"/>
                </g>
                <g id="arrowLeft" xlink:href="#dirArrow" transform="rotate(270) translate(-36 17)" onmousedown="handlePan(-1,0)">
                  <use xlink:href="#rim" fill="#404040">
                        <set attributeName="fill" to="#808080" begin="arrowLeft.mouseover" end="arrowLeft.mouseout"/>
                  </use>
                  <path fill="none" stroke="white" stroke-width="1.5" d="M0,-3.0v7 M-2.5,-0.5L0,-3.0L2.5,-0.5"/>
                </g>
        </g>
        <svg viewBox="0 0 15 15" width="100%" height="30px" preserveAspectRatio="xMaxYMin meet">
         <g id="arrow_out" transform="scale(0.3 0.3)">
          <a xlink:href="class_graphics_item__inherit__graph_org.svg" target="_base">
           <rect id="button" ry="5" rx="5" y="6" x="6" height="38" width="38"
                fill="#f2f5e9" fill-opacity="0.5" stroke="#606060" stroke-width="1.0"/>
           <path id="arrow"
             d="M 11.500037,31.436501 C 11.940474,20.09759 22.043105,11.32322 32.158766,21.979434 L 37.068811,17.246167 C 37.068811,17.246167 37.088388,32 37.088388,32 L 22.160133,31.978069 C 22.160133,31.978069 26.997745,27.140456 26.997745,27.140456 C 18.528582,18.264221 13.291696,25.230495 11.500037,31.436501 z"
             style="fill:#404040;"/>
          </a>
         </g>
        </svg>
</svg>
