<?xml version="1.0" encoding="UTF-8" standalone="no"?>
<!DOCTYPE svg PUBLIC "-//W3C//DTD SVG 1.1//EN"
 "http://www.w3.org/Graphics/SVG/1.1/DTD/svg11.dtd">
<!-- Generated by graphviz version 2.36.0 (20140111.2315)
 -->
<!-- Title: GraphicsItem::setColor Pages: 1 -->
<svg width="298pt" height="126pt"
 viewBox="0.00 0.00 298.00 126.00" xmlns="http://www.w3.org/2000/svg" xmlns:xlink="http://www.w3.org/1999/xlink">
<g id="graph0" class="graph" transform="scale(1 1) rotate(0) translate(4 122)">
<title>GraphicsItem::setColor</title>
<polygon fill="white" stroke="none" points="-4,4 -4,-122 294,-122 294,4 -4,4"/>
<!-- Node1 -->
<g id="node1" class="node"><title>Node1</title>
<polygon fill="#bfbfbf" stroke="black" points="0,-44.5 0,-63.5 118,-63.5 118,-44.5 0,-44.5"/>
<text text-anchor="middle" x="59" y="-51.5" font-family="Helvetica,sans-Serif" font-size="10.00">GraphicsItem::setColor</text>
</g>
<!-- Node2 -->
<g id="node2" class="node"><title>Node2</title>
<g id="a_node2"><a xlink:href="class_graphics_anchor.html#a84d9e284c053de2b861898e3586b0911" target="_top" xlink:title="GraphicsAnchor::Graphics\lAnchor">
<polygon fill="white" stroke="black" points="156.5,-88 156.5,-118 287.5,-118 287.5,-88 156.5,-88"/>
<text text-anchor="start" x="164.5" y="-106" font-family="Helvetica,sans-Serif" font-size="10.00">GraphicsAnchor::Graphics</text>
<text text-anchor="middle" x="222" y="-95" font-family="Helvetica,sans-Serif" font-size="10.00">Anchor</text>
</a>
</g>
</g>
<!-- Node1&#45;&gt;Node2 -->
<g id="edge1" class="edge"><title>Node1&#45;&gt;Node2</title>
<path fill="none" stroke="midnightblue" d="M101.211,-66.5426C122.665,-73.0719 149.051,-81.1024 171.593,-87.963"/>
<polygon fill="midnightblue" stroke="midnightblue" points="102.01,-63.1273 91.4246,-63.564 99.9723,-69.8241 102.01,-63.1273"/>
</g>
<!-- Node3 -->
<g id="node3" class="node"><title>Node3</title>
<g id="a_node3"><a xlink:href="class_graphics_blink_animation.html#a2a75e0463116fcb3f9050e5f74d9e8ec" target="_top" xlink:title="GraphicsBlinkAnimation\l::meUpdate">
<polygon fill="white" stroke="black" points="161.5,-39 161.5,-69 282.5,-69 282.5,-39 161.5,-39"/>
<text text-anchor="start" x="169.5" y="-57" font-family="Helvetica,sans-Serif" font-size="10.00">GraphicsBlinkAnimation</text>
<text text-anchor="middle" x="222" y="-46" font-family="Helvetica,sans-Serif" font-size="10.00">::meUpdate</text>
</a>
</g>
</g>
<!-- Node1&#45;&gt;Node3 -->
<g id="edge2" class="edge"><title>Node1&#45;&gt;Node3</title>
<path fill="none" stroke="midnightblue" d="M128.143,-54C139.175,-54 150.524,-54 161.336,-54"/>
<polygon fill="midnightblue" stroke="midnightblue" points="128.125,-50.5001 118.125,-54 128.125,-57.5001 128.125,-50.5001"/>
</g>
<!-- Node4 -->
<g id="node4" class="node"><title>Node4</title>
<g id="a_node4"><a xlink:href="class_main_window.html#a34c4b4207b46d11a4100c9b19f0e81bb" target="_top" xlink:title="MainWindow::MainWindow">
<polygon fill="white" stroke="black" points="154.5,-0.5 154.5,-19.5 289.5,-19.5 289.5,-0.5 154.5,-0.5"/>
<text text-anchor="middle" x="222" y="-7.5" font-family="Helvetica,sans-Serif" font-size="10.00">MainWindow::MainWindow</text>
</a>
</g>
</g>
<!-- Node1&#45;&gt;Node4 -->
<g id="edge3" class="edge"><title>Node1&#45;&gt;Node4</title>
<path fill="none" stroke="midnightblue" d="M104.816,-41.7522C130.52,-34.7276 162.308,-26.04 186.134,-19.5287"/>
<polygon fill="midnightblue" stroke="midnightblue" points="103.658,-38.4401 94.9346,-44.4527 105.504,-45.1925 103.658,-38.4401"/>
</g>
</g>
</svg>
