<?xml version="1.0" encoding="UTF-8" standalone="no"?>
<!DOCTYPE svg PUBLIC "-//W3C//DTD SVG 1.1//EN"
 "http://www.w3.org/Graphics/SVG/1.1/DTD/svg11.dtd">
<!-- Generated by graphviz version 2.36.0 (20140111.2315)
 -->
<!-- Title: GraphicsLine::second Pages: 1 -->
<svg width="458pt" height="85pt"
 viewBox="0.00 0.00 458.00 85.00" xmlns="http://www.w3.org/2000/svg" xmlns:xlink="http://www.w3.org/1999/xlink">
<g id="graph0" class="graph" transform="scale(1 1) rotate(0) translate(4 81)">
<title>GraphicsLine::second</title>
<polygon fill="white" stroke="none" points="-4,4 -4,-81 454,-81 454,4 -4,4"/>
<!-- Node1 -->
<g id="node1" class="node"><title>Node1</title>
<polygon fill="#bfbfbf" stroke="black" points="0.5,-38.5 0.5,-57.5 111.5,-57.5 111.5,-38.5 0.5,-38.5"/>
<text text-anchor="middle" x="56" y="-45.5" font-family="Helvetica,sans-Serif" font-size="10.00">GraphicsLine::second</text>
</g>
<!-- Node2 -->
<g id="node2" class="node"><title>Node2</title>
<g id="a_node2"><a xlink:href="class_graphics_line.html#a23cc57510dd6e5a58891deb16b79b3fe" target="_top" xlink:title="GraphicsLine::GraphicsLine">
<polygon fill="white" stroke="black" points="148.5,-57.5 148.5,-76.5 285.5,-76.5 285.5,-57.5 148.5,-57.5"/>
<text text-anchor="middle" x="217" y="-64.5" font-family="Helvetica,sans-Serif" font-size="10.00">GraphicsLine::GraphicsLine</text>
</a>
</g>
</g>
<!-- Node1&#45;&gt;Node2 -->
<g id="edge1" class="edge"><title>Node1&#45;&gt;Node2</title>
<path fill="none" stroke="midnightblue" d="M121.813,-55.7449C130.529,-56.7865 139.489,-57.8572 148.254,-58.9046"/>
<polygon fill="midnightblue" stroke="midnightblue" points="122.063,-52.2501 111.719,-54.5387 121.233,-59.2006 122.063,-52.2501"/>
</g>
<!-- Node3 -->
<g id="node3" class="node"><title>Node3</title>
<g id="a_node3"><a xlink:href="class_line_edit.html#a636e2ac65a70dd82fcf02f863da5c446" target="_top" xlink:title="LineEdit::setText">
<polygon fill="white" stroke="black" points="171.5,-19.5 171.5,-38.5 262.5,-38.5 262.5,-19.5 171.5,-19.5"/>
<text text-anchor="middle" x="217" y="-26.5" font-family="Helvetica,sans-Serif" font-size="10.00">LineEdit::setText</text>
</a>
</g>
</g>
<!-- Node1&#45;&gt;Node3 -->
<g id="edge2" class="edge"><title>Node1&#45;&gt;Node3</title>
<path fill="none" stroke="midnightblue" d="M121.938,-40.2401C138.578,-38.2516 156.1,-36.1579 171.45,-34.3236"/>
<polygon fill="midnightblue" stroke="midnightblue" points="121.233,-36.7994 111.719,-41.4613 122.063,-43.7499 121.233,-36.7994"/>
</g>
<!-- Node4 -->
<g id="node4" class="node"><title>Node4</title>
<g id="a_node4"><a xlink:href="class_line_edit.html#a04e1cd86821efe7570868ae397978186" target="_top" xlink:title="LineEdit::LineEdit">
<polygon fill="white" stroke="black" points="339.5,-38.5 339.5,-57.5 432.5,-57.5 432.5,-38.5 339.5,-38.5"/>
<text text-anchor="middle" x="386" y="-45.5" font-family="Helvetica,sans-Serif" font-size="10.00">LineEdit::LineEdit</text>
</a>
</g>
</g>
<!-- Node3&#45;&gt;Node4 -->
<g id="edge3" class="edge"><title>Node3&#45;&gt;Node4</title>
<path fill="none" stroke="midnightblue" d="M272.734,-35.2272C294.259,-37.6762 318.689,-40.4557 339.251,-42.795"/>
<polygon fill="midnightblue" stroke="midnightblue" points="273.085,-31.7446 262.753,-34.0917 272.293,-38.6997 273.085,-31.7446"/>
</g>
<!-- Node5 -->
<g id="node5" class="node"><title>Node5</title>
<g id="a_node5"><a xlink:href="class_line_edit.html#a8d5e79e8a895901381e301d41d3d4343" target="_top" xlink:title="LineEdit::meHandleEvent">
<polygon fill="white" stroke="black" points="322,-0.5 322,-19.5 450,-19.5 450,-0.5 322,-0.5"/>
<text text-anchor="middle" x="386" y="-7.5" font-family="Helvetica,sans-Serif" font-size="10.00">LineEdit::meHandleEvent</text>
</a>
</g>
</g>
<!-- Node3&#45;&gt;Node5 -->
<g id="edge4" class="edge"><title>Node3&#45;&gt;Node5</title>
<path fill="none" stroke="midnightblue" d="M272.821,-22.7629C288.522,-20.9766 305.762,-19.0151 321.917,-17.1772"/>
<polygon fill="midnightblue" stroke="midnightblue" points="272.293,-19.3003 262.753,-23.9083 273.085,-26.2554 272.293,-19.3003"/>
</g>
</g>
</svg>
