<?xml version="1.0" encoding="UTF-8" standalone="no"?>
<!DOCTYPE svg PUBLIC "-//W3C//DTD SVG 1.1//EN"
 "http://www.w3.org/Graphics/SVG/1.1/DTD/svg11.dtd">
<!-- Generated by graphviz version 2.36.0 (20140111.2315)
 -->
<!-- Title: LineEdit::meHandleEvent Pages: 1 -->
<svg width="580pt" height="382pt"
 viewBox="0.00 0.00 580.00 382.00" xmlns="http://www.w3.org/2000/svg" xmlns:xlink="http://www.w3.org/1999/xlink">
<g id="graph0" class="graph" transform="scale(1 1) rotate(0) translate(4 378)">
<title>LineEdit::meHandleEvent</title>
<polygon fill="white" stroke="none" points="-4,4 -4,-378 576,-378 576,4 -4,4"/>
<!-- Node1 -->
<g id="node1" class="node"><title>Node1</title>
<polygon fill="#bfbfbf" stroke="black" points="0,-221.5 0,-240.5 128,-240.5 128,-221.5 0,-221.5"/>
<text text-anchor="middle" x="64" y="-228.5" font-family="Helvetica,sans-Serif" font-size="10.00">LineEdit::meHandleEvent</text>
</g>
<!-- Node2 -->
<g id="node2" class="node"><title>Node2</title>
<g id="a_node2"><a xlink:href="class_event.html#af0c720ee042e454bc655288e00ed1e49" target="_top" xlink:title="Event::type">
<polygon fill="white" stroke="black" points="192.5,-354.5 192.5,-373.5 259.5,-373.5 259.5,-354.5 192.5,-354.5"/>
<text text-anchor="middle" x="226" y="-361.5" font-family="Helvetica,sans-Serif" font-size="10.00">Event::type</text>
</a>
</g>
</g>
<!-- Node1&#45;&gt;Node2 -->
<g id="edge1" class="edge"><title>Node1&#45;&gt;Node2</title>
<path fill="none" stroke="midnightblue" d="M70.6379,-240.534C84.0179,-262.338 119.895,-316.177 164,-345 169.739,-348.751 176.264,-351.798 182.859,-354.263"/>
<polygon fill="midnightblue" stroke="midnightblue" points="181.896,-357.631 192.49,-357.471 184.108,-350.99 181.896,-357.631"/>
</g>
<!-- Node3 -->
<g id="node3" class="node"><title>Node3</title>
<g id="a_node3"><a xlink:href="class_graphics_item.html#a1f3b7de02ad675cd54aa46feec7de2eb" target="_top" xlink:title="GraphicsItem::hasFocus">
<polygon fill="white" stroke="black" points="164,-316.5 164,-335.5 288,-335.5 288,-316.5 164,-316.5"/>
<text text-anchor="middle" x="226" y="-323.5" font-family="Helvetica,sans-Serif" font-size="10.00">GraphicsItem::hasFocus</text>
</a>
</g>
</g>
<!-- Node1&#45;&gt;Node3 -->
<g id="edge2" class="edge"><title>Node1&#45;&gt;Node3</title>
<path fill="none" stroke="midnightblue" d="M74.8596,-240.522C91.7843,-256.393 128.029,-288.349 164,-307 168.268,-309.213 172.84,-311.221 177.489,-313.031"/>
<polygon fill="midnightblue" stroke="midnightblue" points="176.477,-316.386 187.072,-316.468 178.84,-309.797 176.477,-316.386"/>
</g>
<!-- Node4 -->
<g id="node4" class="node"><title>Node4</title>
<g id="a_node4"><a xlink:href="class_key_event.html#a91553e020f3621736e1709d27984fdc0" target="_top" xlink:title="KeyEvent::state">
<polygon fill="white" stroke="black" points="182.5,-278.5 182.5,-297.5 269.5,-297.5 269.5,-278.5 182.5,-278.5"/>
<text text-anchor="middle" x="226" y="-285.5" font-family="Helvetica,sans-Serif" font-size="10.00">KeyEvent::state</text>
</a>
</g>
</g>
<!-- Node1&#45;&gt;Node4 -->
<g id="edge3" class="edge"><title>Node1&#45;&gt;Node4</title>
<path fill="none" stroke="midnightblue" d="M91.7804,-240.541C118.316,-249.994 159.148,-264.54 188.613,-275.037"/>
<polygon fill="midnightblue" stroke="midnightblue" points="187.538,-278.369 198.132,-278.428 189.887,-271.775 187.538,-278.369"/>
</g>
<!-- Node5 -->
<g id="node5" class="node"><title>Node5</title>
<g id="a_node5"><a xlink:href="class_line_edit.html#a8677c9516beb229fdb289e48c9b8dd15" target="_top" xlink:title="LineEdit::text">
<polygon fill="white" stroke="black" points="344,-240.5 344,-259.5 418,-259.5 418,-240.5 344,-240.5"/>
<text text-anchor="middle" x="381" y="-247.5" font-family="Helvetica,sans-Serif" font-size="10.00">LineEdit::text</text>
</a>
</g>
</g>
<!-- Node1&#45;&gt;Node5 -->
<g id="edge4" class="edge"><title>Node1&#45;&gt;Node5</title>
<path fill="none" stroke="midnightblue" d="M128.366,-234.822C189.127,-238.487 279.412,-243.933 333.705,-247.208"/>
<polygon fill="midnightblue" stroke="midnightblue" points="333.543,-250.704 343.736,-247.813 333.965,-243.717 333.543,-250.704"/>
</g>
<!-- Node6 -->
<g id="node6" class="node"><title>Node6</title>
<g id="a_node6"><a xlink:href="class_graphics_text.html#aeb38c8c0df9473cde331540d9904d352" target="_top" xlink:title="Recupere le contenu de GraphicsText. ">
<polygon fill="white" stroke="black" points="474,-183.5 474,-202.5 572,-202.5 572,-183.5 474,-183.5"/>
<text text-anchor="middle" x="523" y="-190.5" font-family="Helvetica,sans-Serif" font-size="10.00">GraphicsText::text</text>
</a>
</g>
</g>
<!-- Node1&#45;&gt;Node6 -->
<g id="edge6" class="edge"><title>Node1&#45;&gt;Node6</title>
<path fill="none" stroke="midnightblue" d="M128.064,-225.756C216.887,-218.37 377.594,-205.007 463.738,-197.845"/>
<polygon fill="midnightblue" stroke="midnightblue" points="464.188,-201.319 473.864,-197.003 463.608,-194.343 464.188,-201.319"/>
</g>
<!-- Node7 -->
<g id="node7" class="node"><title>Node7</title>
<g id="a_node7"><a xlink:href="class_key_event.html#a1516b65dbdf9635764288d7f35901eec" target="_top" xlink:title="KeyEvent::key">
<polygon fill="white" stroke="black" points="185.5,-164.5 185.5,-183.5 266.5,-183.5 266.5,-164.5 185.5,-164.5"/>
<text text-anchor="middle" x="226" y="-171.5" font-family="Helvetica,sans-Serif" font-size="10.00">KeyEvent::key</text>
</a>
</g>
</g>
<!-- Node1&#45;&gt;Node7 -->
<g id="edge7" class="edge"><title>Node1&#45;&gt;Node7</title>
<path fill="none" stroke="midnightblue" d="M91.7804,-221.459C118.316,-212.006 159.148,-197.46 188.613,-186.963"/>
<polygon fill="midnightblue" stroke="midnightblue" points="189.887,-190.225 198.132,-183.572 187.538,-183.631 189.887,-190.225"/>
</g>
<!-- Node8 -->
<g id="node8" class="node"><title>Node8</title>
<g id="a_node8"><a xlink:href="class_line_edit.html#a636e2ac65a70dd82fcf02f863da5c446" target="_top" xlink:title="LineEdit::setText">
<polygon fill="white" stroke="black" points="180.5,-126.5 180.5,-145.5 271.5,-145.5 271.5,-126.5 180.5,-126.5"/>
<text text-anchor="middle" x="226" y="-133.5" font-family="Helvetica,sans-Serif" font-size="10.00">LineEdit::setText</text>
</a>
</g>
</g>
<!-- Node1&#45;&gt;Node8 -->
<g id="edge8" class="edge"><title>Node1&#45;&gt;Node8</title>
<path fill="none" stroke="midnightblue" d="M74.8596,-221.478C91.7843,-205.607 128.029,-173.651 164,-155 168.268,-152.787 172.84,-150.779 177.489,-148.969"/>
<polygon fill="midnightblue" stroke="midnightblue" points="178.84,-152.203 187.072,-145.532 176.477,-145.614 178.84,-152.203"/>
</g>
<!-- Node13 -->
<g id="node13" class="node"><title>Node13</title>
<g id="a_node13"><a xlink:href="class_key_event.html#a79345d47767acbcafc7d8435b70f048a" target="_top" xlink:title="KeyEvent::keyString">
<polygon fill="white" stroke="black" points="172.5,-88.5 172.5,-107.5 279.5,-107.5 279.5,-88.5 172.5,-88.5"/>
<text text-anchor="middle" x="226" y="-95.5" font-family="Helvetica,sans-Serif" font-size="10.00">KeyEvent::keyString</text>
</a>
</g>
</g>
<!-- Node1&#45;&gt;Node13 -->
<g id="edge15" class="edge"><title>Node1&#45;&gt;Node13</title>
<path fill="none" stroke="midnightblue" d="M70.6379,-221.466C84.0179,-199.662 119.895,-145.823 164,-117 167.108,-114.969 170.445,-113.145 173.9,-111.507"/>
<polygon fill="midnightblue" stroke="midnightblue" points="175.367,-114.687 183.239,-107.596 172.663,-108.23 175.367,-114.687"/>
</g>
<!-- Node5&#45;&gt;Node6 -->
<g id="edge5" class="edge"><title>Node5&#45;&gt;Node6</title>
<path fill="none" stroke="midnightblue" d="M405.433,-240.459C428.349,-231.13 463.45,-216.838 489.147,-206.376"/>
<polygon fill="midnightblue" stroke="midnightblue" points="490.549,-209.584 498.491,-202.572 487.909,-203.101 490.549,-209.584"/>
</g>
<!-- Node8&#45;&gt;Node6 -->
<g id="edge14" class="edge"><title>Node8&#45;&gt;Node6</title>
<path fill="none" stroke="midnightblue" d="M271.905,-144.833C288.297,-148.047 306.985,-151.701 324,-155 371.1,-164.133 424.525,-174.379 464,-181.929"/>
<polygon fill="midnightblue" stroke="midnightblue" points="463.499,-185.397 473.978,-183.837 464.813,-178.521 463.499,-185.397"/>
</g>
<!-- Node9 -->
<g id="node9" class="node"><title>Node9</title>
<g id="a_node9"><a xlink:href="class_graphics_text.html#ac42bb0e20251eb0dc2305be760714130" target="_top" xlink:title="Modifie le contenu de GraphicsText. ">
<polygon fill="white" stroke="black" points="324,-126.5 324,-145.5 438,-145.5 438,-126.5 324,-126.5"/>
<text text-anchor="middle" x="381" y="-133.5" font-family="Helvetica,sans-Serif" font-size="10.00">GraphicsText::setText</text>
</a>
</g>
</g>
<!-- Node8&#45;&gt;Node9 -->
<g id="edge9" class="edge"><title>Node8&#45;&gt;Node9</title>
<path fill="none" stroke="midnightblue" d="M271.665,-136C284.796,-136 299.449,-136 313.63,-136"/>
<polygon fill="midnightblue" stroke="midnightblue" points="313.844,-139.5 323.844,-136 313.844,-132.5 313.844,-139.5"/>
</g>
<!-- Node10 -->
<g id="node10" class="node"><title>Node10</title>
<g id="a_node10"><a xlink:href="class_graphics_rectangle.html#a3efd2295cd742f75de829851bf7ca3dd" target="_top" xlink:title="GraphicsRectangle::\lsetWidth">
<polygon fill="white" stroke="black" points="328,-77 328,-107 434,-107 434,-77 328,-77"/>
<text text-anchor="start" x="336" y="-95" font-family="Helvetica,sans-Serif" font-size="10.00">GraphicsRectangle::</text>
<text text-anchor="middle" x="381" y="-84" font-family="Helvetica,sans-Serif" font-size="10.00">setWidth</text>
</a>
</g>
</g>
<!-- Node8&#45;&gt;Node10 -->
<g id="edge11" class="edge"><title>Node8&#45;&gt;Node10</title>
<path fill="none" stroke="midnightblue" d="M260.199,-126.453C277.193,-121.566 298.437,-115.456 318.298,-109.744"/>
<polygon fill="midnightblue" stroke="midnightblue" points="319.269,-113.107 327.913,-106.979 317.335,-106.38 319.269,-113.107"/>
</g>
<!-- Node11 -->
<g id="node11" class="node"><title>Node11</title>
<g id="a_node11"><a xlink:href="class_graphics_text.html#aaafb8f8246e4d3b0d5dd8ac5cc8586cc" target="_top" xlink:title="GraphicsText::font">
<polygon fill="white" stroke="black" points="332,-38.5 332,-57.5 430,-57.5 430,-38.5 332,-38.5"/>
<text text-anchor="middle" x="381" y="-45.5" font-family="Helvetica,sans-Serif" font-size="10.00">GraphicsText::font</text>
</a>
</g>
</g>
<!-- Node8&#45;&gt;Node11 -->
<g id="edge12" class="edge"><title>Node8&#45;&gt;Node11</title>
<path fill="none" stroke="midnightblue" d="M270.023,-126.484C276.381,-124.001 282.6,-120.891 288,-117 310.217,-100.992 301.986,-83.2856 324,-67 326.519,-65.1368 329.232,-63.4477 332.059,-61.9179"/>
<polygon fill="midnightblue" stroke="midnightblue" points="333.801,-64.9671 341.371,-57.5552 330.831,-58.6283 333.801,-64.9671"/>
</g>
<!-- Node12 -->
<g id="node12" class="node"><title>Node12</title>
<g id="a_node12"><a xlink:href="class_font.html#ad96d9cd6356edf670103542dbe4336c3" target="_top" xlink:title="Font::width">
<polygon fill="white" stroke="black" points="348.5,-0.5 348.5,-19.5 413.5,-19.5 413.5,-0.5 348.5,-0.5"/>
<text text-anchor="middle" x="381" y="-7.5" font-family="Helvetica,sans-Serif" font-size="10.00">Font::width</text>
</a>
</g>
</g>
<!-- Node8&#45;&gt;Node12 -->
<g id="edge13" class="edge"><title>Node8&#45;&gt;Node12</title>
<path fill="none" stroke="midnightblue" d="M271.517,-127.288C277.535,-124.702 283.259,-121.348 288,-117 319.143,-88.4374 293.219,-57.9519 324,-29 328.312,-24.9445 333.522,-21.752 339.007,-19.2394"/>
<polygon fill="midnightblue" stroke="midnightblue" points="340.317,-22.4854 348.388,-15.6207 337.798,-15.9545 340.317,-22.4854"/>
</g>
<!-- Node9&#45;&gt;Node6 -->
<g id="edge10" class="edge"><title>Node9&#45;&gt;Node6</title>
<path fill="none" stroke="midnightblue" d="M405.433,-145.541C428.349,-154.87 463.45,-169.162 489.147,-179.624"/>
<polygon fill="midnightblue" stroke="midnightblue" points="487.909,-182.899 498.491,-183.428 490.549,-176.416 487.909,-182.899"/>
</g>
</g>
</svg>
