<?xml version="1.0" encoding="UTF-8" standalone="no"?>
<!DOCTYPE svg PUBLIC "-//W3C//DTD SVG 1.1//EN"
 "http://www.w3.org/Graphics/SVG/1.1/DTD/svg11.dtd">
<!-- Generated by graphviz version 2.36.0 (20140111.2315)
 -->
<!-- Title: GraphicsAnchor::setAbsolute Pages: 1 -->
<svg width="542pt" height="104pt"
 viewBox="0.00 0.00 542.00 104.00" xmlns="http://www.w3.org/2000/svg" xmlns:xlink="http://www.w3.org/1999/xlink">
<g id="graph0" class="graph" transform="scale(1 1) rotate(0) translate(4 100)">
<title>GraphicsAnchor::setAbsolute</title>
<polygon fill="white" stroke="none" points="-4,4 -4,-100 538,-100 538,4 -4,4"/>
<!-- Node1 -->
<g id="node1" class="node"><title>Node1</title>
<polygon fill="#bfbfbf" stroke="black" points="0,-38.5 0,-57.5 144,-57.5 144,-38.5 0,-38.5"/>
<text text-anchor="middle" x="72" y="-45.5" font-family="Helvetica,sans-Serif" font-size="10.00">GraphicsAnchor::setAbsolute</text>
</g>
<!-- Node2 -->
<g id="node2" class="node"><title>Node2</title>
<g id="a_node2"><a xlink:href="class_graphics_item.html#aeaf0a8de33aa83d5fa5ac8889e7e4392" target="_top" xlink:title="GraphicsItem::parent">
<polygon fill="white" stroke="black" points="192,-76.5 192,-95.5 300,-95.5 300,-76.5 192,-76.5"/>
<text text-anchor="middle" x="246" y="-83.5" font-family="Helvetica,sans-Serif" font-size="10.00">GraphicsItem::parent</text>
</a>
</g>
</g>
<!-- Node1&#45;&gt;Node2 -->
<g id="edge1" class="edge"><title>Node1&#45;&gt;Node2</title>
<path fill="none" stroke="midnightblue" d="M116.403,-57.589C139.407,-62.6713 167.851,-68.9554 192.134,-74.3203"/>
<polygon fill="midnightblue" stroke="midnightblue" points="191.39,-77.7402 201.909,-76.4799 192.9,-70.905 191.39,-77.7402"/>
</g>
<!-- Node3 -->
<g id="node3" class="node"><title>Node3</title>
<g id="a_node3"><a xlink:href="class_graphics_item.html#ad48630477e3701e874e19287440a9c8f" target="_top" xlink:title="GraphicsItem::setRelative">
<polygon fill="white" stroke="black" points="180.5,-38.5 180.5,-57.5 311.5,-57.5 311.5,-38.5 180.5,-38.5"/>
<text text-anchor="middle" x="246" y="-45.5" font-family="Helvetica,sans-Serif" font-size="10.00">GraphicsItem::setRelative</text>
</a>
</g>
</g>
<!-- Node1&#45;&gt;Node3 -->
<g id="edge2" class="edge"><title>Node1&#45;&gt;Node3</title>
<path fill="none" stroke="midnightblue" d="M144.449,-48C153.007,-48 161.763,-48 170.364,-48"/>
<polygon fill="midnightblue" stroke="midnightblue" points="170.37,-51.5001 180.369,-48 170.369,-44.5001 170.37,-51.5001"/>
</g>
<!-- Node7 -->
<g id="node7" class="node"><title>Node7</title>
<g id="a_node7"><a xlink:href="class_graphics_item.html#acddeaf58963ddb0de93b7c1b27512af7" target="_top" xlink:title="GraphicsItem::absolute">
<polygon fill="white" stroke="black" points="187,-0.5 187,-19.5 305,-19.5 305,-0.5 187,-0.5"/>
<text text-anchor="middle" x="246" y="-7.5" font-family="Helvetica,sans-Serif" font-size="10.00">GraphicsItem::absolute</text>
</a>
</g>
</g>
<!-- Node1&#45;&gt;Node7 -->
<g id="edge6" class="edge"><title>Node1&#45;&gt;Node7</title>
<path fill="none" stroke="midnightblue" d="M116.403,-38.411C139.407,-33.3287 167.851,-27.0446 192.134,-21.6797"/>
<polygon fill="midnightblue" stroke="midnightblue" points="192.9,-25.095 201.909,-19.5201 191.39,-18.2598 192.9,-25.095"/>
</g>
<!-- Node4 -->
<g id="node4" class="node"><title>Node4</title>
<g id="a_node4"><a xlink:href="class_point.html#a43923c490fb5439d7d8a041e86520c34" target="_top" xlink:title="permet la modification des valeurs du point. ">
<polygon fill="white" stroke="black" points="359.5,-38.5 359.5,-57.5 418.5,-57.5 418.5,-38.5 359.5,-38.5"/>
<text text-anchor="middle" x="389" y="-45.5" font-family="Helvetica,sans-Serif" font-size="10.00">Point::set</text>
</a>
</g>
</g>
<!-- Node3&#45;&gt;Node4 -->
<g id="edge3" class="edge"><title>Node3&#45;&gt;Node4</title>
<path fill="none" stroke="midnightblue" d="M311.723,-48C324.471,-48 337.473,-48 349.046,-48"/>
<polygon fill="midnightblue" stroke="midnightblue" points="349.225,-51.5001 359.225,-48 349.225,-44.5001 349.225,-51.5001"/>
</g>
<!-- Node5 -->
<g id="node5" class="node"><title>Node5</title>
<g id="a_node5"><a xlink:href="class_point.html#a2aa897aa68c2f3e6df3a46738f27a0ac" target="_top" xlink:title="recupere la valeur de l&#39;absisse du Point. ">
<polygon fill="white" stroke="black" points="475,-76.5 475,-95.5 525,-95.5 525,-76.5 475,-76.5"/>
<text text-anchor="middle" x="500" y="-83.5" font-family="Helvetica,sans-Serif" font-size="10.00">Point::x</text>
</a>
</g>
</g>
<!-- Node4&#45;&gt;Node5 -->
<g id="edge4" class="edge"><title>Node4&#45;&gt;Node5</title>
<path fill="none" stroke="midnightblue" d="M417.505,-57.589C431.991,-62.6391 449.881,-68.8758 465.205,-74.2182"/>
<polygon fill="midnightblue" stroke="midnightblue" points="464.248,-77.5913 474.843,-77.5784 466.553,-70.9814 464.248,-77.5913"/>
</g>
<!-- Node6 -->
<g id="node6" class="node"><title>Node6</title>
<g id="a_node6"><a xlink:href="class_point.html#a2226d8a3fb283b0b3c1f69106df144ba" target="_top" xlink:title="Fonction recuperant le valeur de l&#39;ordonée. ">
<polygon fill="white" stroke="black" points="475,-38.5 475,-57.5 525,-57.5 525,-38.5 475,-38.5"/>
<text text-anchor="middle" x="500" y="-45.5" font-family="Helvetica,sans-Serif" font-size="10.00">Point::y</text>
</a>
</g>
</g>
<!-- Node4&#45;&gt;Node6 -->
<g id="edge5" class="edge"><title>Node4&#45;&gt;Node6</title>
<path fill="none" stroke="midnightblue" d="M418.638,-48C432.749,-48 449.87,-48 464.677,-48"/>
<polygon fill="midnightblue" stroke="midnightblue" points="464.974,-51.5001 474.974,-48 464.974,-44.5001 464.974,-51.5001"/>
</g>
<!-- Node8 -->
<g id="node8" class="node"><title>Node8</title>
<g id="a_node8"><a xlink:href="class_point.html#a04ce786cebfd535bc380833a71405930" target="_top" xlink:title="Point::absolute">
<polygon fill="white" stroke="black" points="348,-0.5 348,-19.5 430,-19.5 430,-0.5 348,-0.5"/>
<text text-anchor="middle" x="389" y="-7.5" font-family="Helvetica,sans-Serif" font-size="10.00">Point::absolute</text>
</a>
</g>
</g>
<!-- Node7&#45;&gt;Node8 -->
<g id="edge7" class="edge"><title>Node7&#45;&gt;Node8</title>
<path fill="none" stroke="midnightblue" d="M305.164,-10C315.86,-10 326.948,-10 337.399,-10"/>
<polygon fill="midnightblue" stroke="midnightblue" points="337.601,-13.5001 347.601,-10 337.601,-6.5001 337.601,-13.5001"/>
</g>
<!-- Node9 -->
<g id="node9" class="node"><title>Node9</title>
<g id="a_node9"><a xlink:href="class_point.html#ad92f2337b839a94ce97dcdb439b4325a" target="_top" xlink:title="Constructeur par défaut de la classe Point. ">
<polygon fill="white" stroke="black" points="466,-0.5 466,-19.5 534,-19.5 534,-0.5 466,-0.5"/>
<text text-anchor="middle" x="500" y="-7.5" font-family="Helvetica,sans-Serif" font-size="10.00">Point::Point</text>
</a>
</g>
</g>
<!-- Node8&#45;&gt;Node9 -->
<g id="edge8" class="edge"><title>Node8&#45;&gt;Node9</title>
<path fill="none" stroke="midnightblue" d="M430.278,-10C438.465,-10 447.112,-10 455.408,-10"/>
<polygon fill="midnightblue" stroke="midnightblue" points="455.667,-13.5001 465.667,-10 455.667,-6.5001 455.667,-13.5001"/>
</g>
</g>
</svg>
