<?xml version="1.0" encoding="UTF-8" standalone="no"?>
<!DOCTYPE svg PUBLIC "-//W3C//DTD SVG 1.1//EN"
 "http://www.w3.org/Graphics/SVG/1.1/DTD/svg11.dtd">
<!-- Generated by graphviz version 2.36.0 (20140111.2315)
 -->
<!-- Title: Button::setText Pages: 1 -->
<svg width="550pt" height="142pt"
 viewBox="0.00 0.00 550.00 142.00" xmlns="http://www.w3.org/2000/svg" xmlns:xlink="http://www.w3.org/1999/xlink">
<g id="graph0" class="graph" transform="scale(1 1) rotate(0) translate(4 138)">
<title>Button::setText</title>
<polygon fill="white" stroke="none" points="-4,4 -4,-138 546,-138 546,4 -4,4"/>
<!-- Node1 -->
<g id="node1" class="node"><title>Node1</title>
<polygon fill="#bfbfbf" stroke="black" points="0,-76.5 0,-95.5 84,-95.5 84,-76.5 0,-76.5"/>
<text text-anchor="middle" x="42" y="-83.5" font-family="Helvetica,sans-Serif" font-size="10.00">Button::setText</text>
</g>
<!-- Node2 -->
<g id="node2" class="node"><title>Node2</title>
<g id="a_node2"><a xlink:href="class_graphics_text.html#ac42bb0e20251eb0dc2305be760714130" target="_top" xlink:title="Modifie le contenu de GraphicsText. ">
<polygon fill="white" stroke="black" points="120,-106.5 120,-125.5 234,-125.5 234,-106.5 120,-106.5"/>
<text text-anchor="middle" x="177" y="-113.5" font-family="Helvetica,sans-Serif" font-size="10.00">GraphicsText::setText</text>
</a>
</g>
</g>
<!-- Node1&#45;&gt;Node2 -->
<g id="edge1" class="edge"><title>Node1&#45;&gt;Node2</title>
<path fill="none" stroke="midnightblue" d="M84.353,-95.3277C96.8707,-98.1513 110.783,-101.289 123.908,-104.25"/>
<polygon fill="midnightblue" stroke="midnightblue" points="123.23,-107.685 133.755,-106.471 124.77,-100.856 123.23,-107.685"/>
</g>
<!-- Node4 -->
<g id="node4" class="node"><title>Node4</title>
<g id="a_node4"><a xlink:href="class_graphics_rectangle.html#a3efd2295cd742f75de829851bf7ca3dd" target="_top" xlink:title="GraphicsRectangle::\lsetWidth">
<polygon fill="white" stroke="black" points="124,-41 124,-71 230,-71 230,-41 124,-41"/>
<text text-anchor="start" x="132" y="-59" font-family="Helvetica,sans-Serif" font-size="10.00">GraphicsRectangle::</text>
<text text-anchor="middle" x="177" y="-48" font-family="Helvetica,sans-Serif" font-size="10.00">setWidth</text>
</a>
</g>
</g>
<!-- Node1&#45;&gt;Node4 -->
<g id="edge3" class="edge"><title>Node1&#45;&gt;Node4</title>
<path fill="none" stroke="midnightblue" d="M84.353,-76.6723C93.7323,-74.5566 103.894,-72.2644 113.922,-70.0026"/>
<polygon fill="midnightblue" stroke="midnightblue" points="114.885,-73.3732 123.87,-67.7586 113.345,-66.5448 114.885,-73.3732"/>
</g>
<!-- Node3 -->
<g id="node3" class="node"><title>Node3</title>
<g id="a_node3"><a xlink:href="class_graphics_text.html#aeb38c8c0df9473cde331540d9904d352" target="_top" xlink:title="Recupere le contenu de GraphicsText. ">
<polygon fill="white" stroke="black" points="284,-114.5 284,-133.5 382,-133.5 382,-114.5 284,-114.5"/>
<text text-anchor="middle" x="333" y="-121.5" font-family="Helvetica,sans-Serif" font-size="10.00">GraphicsText::text</text>
</a>
</g>
</g>
<!-- Node2&#45;&gt;Node3 -->
<g id="edge2" class="edge"><title>Node2&#45;&gt;Node3</title>
<path fill="none" stroke="midnightblue" d="M234.033,-118.911C246.927,-119.581 260.669,-120.294 273.658,-120.969"/>
<polygon fill="midnightblue" stroke="midnightblue" points="273.714,-124.477 283.882,-121.5 274.077,-117.486 273.714,-124.477"/>
</g>
<!-- Node5 -->
<g id="node5" class="node"><title>Node5</title>
<g id="a_node5"><a xlink:href="class_graphics_item.html#ab1266d26ff6aa338959c0796ef915fc4" target="_top" xlink:title="GraphicsItem::setAnchor">
<polygon fill="white" stroke="black" points="270.5,-76.5 270.5,-95.5 395.5,-95.5 395.5,-76.5 270.5,-76.5"/>
<text text-anchor="middle" x="333" y="-83.5" font-family="Helvetica,sans-Serif" font-size="10.00">GraphicsItem::setAnchor</text>
</a>
</g>
</g>
<!-- Node4&#45;&gt;Node5 -->
<g id="edge4" class="edge"><title>Node4&#45;&gt;Node5</title>
<path fill="none" stroke="midnightblue" d="M230.137,-66.1566C243.9,-68.8376 258.849,-71.7498 272.948,-74.4964"/>
<polygon fill="midnightblue" stroke="midnightblue" points="272.551,-77.9847 283.035,-76.4614 273.889,-71.1138 272.551,-77.9847"/>
</g>
<!-- Node6 -->
<g id="node6" class="node"><title>Node6</title>
<g id="a_node6"><a xlink:href="class_graphics_item.html#a742f444cb7d1a142dec52ee777dd51c3" target="_top" xlink:title="GraphicsItem::anchor">
<polygon fill="white" stroke="black" points="432,-57.5 432,-76.5 542,-76.5 542,-57.5 432,-57.5"/>
<text text-anchor="middle" x="487" y="-64.5" font-family="Helvetica,sans-Serif" font-size="10.00">GraphicsItem::anchor</text>
</a>
</g>
</g>
<!-- Node4&#45;&gt;Node6 -->
<g id="edge6" class="edge"><title>Node4&#45;&gt;Node6</title>
<path fill="none" stroke="midnightblue" d="M230.248,-57.866C283.082,-59.7529 364.838,-62.6728 421.637,-64.7013"/>
<polygon fill="midnightblue" stroke="midnightblue" points="421.822,-68.2101 431.94,-65.0693 422.071,-61.2145 421.822,-68.2101"/>
</g>
<!-- Node7 -->
<g id="node7" class="node"><title>Node7</title>
<g id="a_node7"><a xlink:href="class_point.html#a2226d8a3fb283b0b3c1f69106df144ba" target="_top" xlink:title="Fonction recuperant le valeur de l&#39;ordonée. ">
<polygon fill="white" stroke="black" points="308,-0.5 308,-19.5 358,-19.5 358,-0.5 308,-0.5"/>
<text text-anchor="middle" x="333" y="-7.5" font-family="Helvetica,sans-Serif" font-size="10.00">Point::y</text>
</a>
</g>
</g>
<!-- Node4&#45;&gt;Node7 -->
<g id="edge7" class="edge"><title>Node4&#45;&gt;Node7</title>
<path fill="none" stroke="midnightblue" d="M228.425,-40.9379C251.238,-34.1237 277.598,-26.2499 298.016,-20.151"/>
<polygon fill="midnightblue" stroke="midnightblue" points="299.231,-23.4412 307.81,-17.2254 297.227,-16.734 299.231,-23.4412"/>
</g>
<!-- Node5&#45;&gt;Node6 -->
<g id="edge5" class="edge"><title>Node5&#45;&gt;Node6</title>
<path fill="none" stroke="midnightblue" d="M395.824,-78.272C404.239,-77.2202 412.893,-76.1383 421.356,-75.0805"/>
<polygon fill="midnightblue" stroke="midnightblue" points="422.065,-78.5192 431.554,-73.8058 421.197,-71.5732 422.065,-78.5192"/>
</g>
</g>
</svg>
