<?xml version="1.0" encoding="UTF-8" standalone="no"?>
<!DOCTYPE svg PUBLIC "-//W3C//DTD SVG 1.1//EN"
 "http://www.w3.org/Graphics/SVG/1.1/DTD/svg11.dtd">
<!-- Generated by graphviz version 2.36.0 (20140111.2315)
 -->
<!-- Title: Point::setRelative Pages: 1 -->
<svg width="408pt" height="66pt"
 viewBox="0.00 0.00 408.00 66.00" xmlns="http://www.w3.org/2000/svg" xmlns:xlink="http://www.w3.org/1999/xlink">
<g id="graph0" class="graph" transform="scale(1 1) rotate(0) translate(4 62)">
<title>Point::setRelative</title>
<polygon fill="white" stroke="none" points="-4,4 -4,-62 404,-62 404,4 -4,4"/>
<!-- Node1 -->
<g id="node1" class="node"><title>Node1</title>
<polygon fill="#bfbfbf" stroke="black" points="0.5,-19.5 0.5,-38.5 95.5,-38.5 95.5,-19.5 0.5,-19.5"/>
<text text-anchor="middle" x="48" y="-26.5" font-family="Helvetica,sans-Serif" font-size="10.00">Point::setRelative</text>
</g>
<!-- Node1&#45;&gt;Node1 -->
<g id="edge1" class="edge"><title>Node1&#45;&gt;Node1</title>
<path fill="none" stroke="midnightblue" d="M31.3541,-38.7571C23.256,-47.5653 28.8047,-57 48,-57 59.9971,-57 66.6634,-53.3146 67.999,-48.4"/>
<polygon fill="midnightblue" stroke="midnightblue" points="71.2362,-47.0528 64.6459,-38.7571 64.6245,-49.3519 71.2362,-47.0528"/>
</g>
<!-- Node2 -->
<g id="node2" class="node"><title>Node2</title>
<g id="a_node2"><a xlink:href="class_point.html#a2aa897aa68c2f3e6df3a46738f27a0ac" target="_top" xlink:title="Donne l&#39;abscisse du point par rapport à son origine. ">
<polygon fill="white" stroke="black" points="132,-19.5 132,-38.5 182,-38.5 182,-19.5 132,-19.5"/>
<text text-anchor="middle" x="157" y="-26.5" font-family="Helvetica,sans-Serif" font-size="10.00">Point::x</text>
</a>
</g>
</g>
<!-- Node1&#45;&gt;Node2 -->
<g id="edge2" class="edge"><title>Node1&#45;&gt;Node2</title>
<path fill="none" stroke="midnightblue" d="M95.6205,-29C104.411,-29 113.454,-29 121.778,-29"/>
<polygon fill="midnightblue" stroke="midnightblue" points="121.864,-32.5001 131.864,-29 121.864,-25.5001 121.864,-32.5001"/>
</g>
<!-- Node2&#45;&gt;Node2 -->
<g id="edge7" class="edge"><title>Node2&#45;&gt;Node2</title>
<path fill="none" stroke="midnightblue" d="M142.512,-38.7571C135.464,-47.5653 140.293,-57 157,-57 167.442,-57 173.244,-53.3146 174.407,-48.4"/>
<polygon fill="midnightblue" stroke="midnightblue" points="177.735,-47.3144 171.488,-38.7571 171.035,-49.3422 177.735,-47.3144"/>
</g>
<!-- Node3 -->
<g id="node3" class="node"><title>Node3</title>
<g id="a_node3"><a xlink:href="class_point.html#a64a5fe8c9b1d1a1543aaa64031537380" target="_top" xlink:title="Indique si le point n&#39;appartient pas à un groupe. ">
<polygon fill="white" stroke="black" points="322.5,-38.5 322.5,-57.5 399.5,-57.5 399.5,-38.5 322.5,-38.5"/>
<text text-anchor="middle" x="361" y="-45.5" font-family="Helvetica,sans-Serif" font-size="10.00">Point::isAlone</text>
</a>
</g>
</g>
<!-- Node2&#45;&gt;Node3 -->
<g id="edge3" class="edge"><title>Node2&#45;&gt;Node3</title>
<path fill="none" stroke="midnightblue" d="M182.366,-31.2918C214.482,-34.3127 271.677,-39.6924 312.491,-43.5314"/>
<polygon fill="midnightblue" stroke="midnightblue" points="312.206,-47.0199 322.49,-44.4718 312.862,-40.0506 312.206,-47.0199"/>
</g>
<!-- Node4 -->
<g id="node4" class="node"><title>Node4</title>
<g id="a_node4"><a xlink:href="class_point.html#afa7d33502738b0b3df186a91e11ff2a8" target="_top" xlink:title="Donne l&#39;origine du point. ">
<polygon fill="white" stroke="black" points="218,-0.5 218,-19.5 286,-19.5 286,-0.5 218,-0.5"/>
<text text-anchor="middle" x="252" y="-7.5" font-family="Helvetica,sans-Serif" font-size="10.00">Point::origin</text>
</a>
</g>
</g>
<!-- Node2&#45;&gt;Node4 -->
<g id="edge4" class="edge"><title>Node2&#45;&gt;Node4</title>
<path fill="none" stroke="midnightblue" d="M182.435,-24.008C190.333,-22.3943 199.337,-20.5547 208.164,-18.7514"/>
<polygon fill="midnightblue" stroke="midnightblue" points="208.89,-22.1756 217.987,-16.7447 207.488,-15.3172 208.89,-22.1756"/>
</g>
<!-- Node4&#45;&gt;Node3 -->
<g id="edge5" class="edge"><title>Node4&#45;&gt;Node3</title>
<path fill="none" stroke="midnightblue" d="M280.001,-19.589C293.18,-24.2694 309.229,-29.9692 323.484,-35.0315"/>
<polygon fill="midnightblue" stroke="midnightblue" points="322.413,-38.3656 333.008,-38.4141 324.756,-31.7692 322.413,-38.3656"/>
</g>
<!-- Node5 -->
<g id="node5" class="node"><title>Node5</title>
<g id="a_node5"><a xlink:href="class_point.html#a97edc6e6415d6ccc6efcff5fcbc97f15" target="_top" xlink:title="Construit un point avec les coordonnées nulles. ">
<polygon fill="white" stroke="black" points="327,-0.5 327,-19.5 395,-19.5 395,-0.5 327,-0.5"/>
<text text-anchor="middle" x="361" y="-7.5" font-family="Helvetica,sans-Serif" font-size="10.00">Point::Point</text>
</a>
</g>
</g>
<!-- Node4&#45;&gt;Node5 -->
<g id="edge6" class="edge"><title>Node4&#45;&gt;Node5</title>
<path fill="none" stroke="midnightblue" d="M286.269,-10C295.831,-10 306.403,-10 316.485,-10"/>
<polygon fill="midnightblue" stroke="midnightblue" points="316.752,-13.5001 326.752,-10 316.752,-6.5001 316.752,-13.5001"/>
</g>
</g>
</svg>
