<?xml version="1.0" encoding="UTF-8" standalone="no"?>
<!DOCTYPE svg PUBLIC "-//W3C//DTD SVG 1.1//EN"
 "http://www.w3.org/Graphics/SVG/1.1/DTD/svg11.dtd">
<!-- Generated by graphviz version 2.36.0 (20140111.2315)
 -->
<!-- Title: GraphicsShape Pages: 1 -->
<!--zoomable 696 -->
<svg id="main" version="1.1" xmlns="http://www.w3.org/2000/svg" xmlns:xlink="http://www.w3.org/1999/xlink" xml:space="preserve" onload="init(evt)">
<style type="text/css"><![CDATA[
.edge:hover path { stroke: red; }
.edge:hover polygon { stroke: red; fill: red; }
]]></style>
<script type="text/javascript"><![CDATA[
var edges = document.getElementsByTagName('g');
if (edges && edges.length) {
  for (var i=0;i<edges.length;i++) {
    if (edges[i].id.substr(0,4)=='edge') {
      edges[i].setAttribute('class','edge');
    }
  }
}
]]></script>
        <defs>
                <circle id="rim" cx="0" cy="0" r="7"/>
                <circle id="rim2" cx="0" cy="0" r="3.5"/>
                <g id="zoomPlus">
                        <use xlink:href="#rim" fill="#404040">
                                <set attributeName="fill" to="#808080" begin="zoomplus.mouseover" end="zoomplus.mouseout"/>
                        </use>
                        <path d="M-4,0h8M0,-4v8" fill="none" stroke="white" stroke-width="1.5" pointer-events="none"/>
                </g>
                <g id="zoomMin">
                        <use xlink:href="#rim" fill="#404040">
                                <set attributeName="fill" to="#808080" begin="zoomminus.mouseover" end="zoomminus.mouseout"/>
                        </use>
                        <path d="M-4,0h8" fill="none" stroke="white" stroke-width="1.5" pointer-events="none"/>
                </g>
                <g id="dirArrow">
                        <path fill="none" stroke="white" stroke-width="1.5" d="M0,-3.0v7 M-2.5,-0.5L0,-3.0L2.5,-0.5"/>
                </g>
               <g id="resetDef">
                       <use xlink:href="#rim2" fill="#404040">
                               <set attributeName="fill" to="#808080" begin="reset.mouseover" end="reset.mouseout"/>
                       </use>
               </g>
        </defs>

<script type="text/javascript">
var viewWidth = 318;
var viewHeight = 696;
var sectionId = 'dynsection-1';
</script>
<script xlink:href="svgpan.js"/>
<svg id="graph" class="graph">
<g id="viewport">
<title>GraphicsShape</title>
<polygon fill="white" stroke="none" points="-4,4 -4,-692 314,-692 314,4 -4,4"/>
<!-- Node1 -->
<g id="node1" class="node"><title>Node1</title>
<polygon fill="#bfbfbf" stroke="black" points="129,-0.5 129,-79.5 227,-79.5 227,-0.5 129,-0.5"/>
<text text-anchor="middle" x="178" y="-67.5" font-family="Helvetica,sans-Serif" font-size="10.00">GraphicsShape</text>
<polyline fill="none" stroke="black" points="129,-60.5 227,-60.5 "/>
<text text-anchor="start" x="137" y="-48.5" font-family="Helvetica,sans-Serif" font-size="10.00"># m_points</text>
<polyline fill="none" stroke="black" points="129,-41.5 227,-41.5 "/>
<text text-anchor="start" x="137" y="-29.5" font-family="Helvetica,sans-Serif" font-size="10.00">+ GraphicsShape()</text>
<text text-anchor="start" x="137" y="-18.5" font-family="Helvetica,sans-Serif" font-size="10.00">+ type()</text>
<text text-anchor="start" x="137" y="-7.5" font-family="Helvetica,sans-Serif" font-size="10.00"># meDraw()</text>
</g>
<!-- Node2 -->
<g id="node2" class="node"><title>Node2</title>
<g id="a_node2"><a xlink:href="class_graphics_item.html" target="_top" xlink:title="{GraphicsItem\n|&#45; m_children\l&#45; m_z\l&#45; m_thick\l&#45; m_isFill\l&#45; m_isVisible\l|+ GraphicsItem()\l+ ~GraphicsItem()\l+ parent()\l+ setParent()\l+ type()\l+ children()\l+ relative()\l+ relative()\l+ absolute()\l+ setRelative()\let 16 de plus...\l+ focusItem()\l+ setFocusItem()\l# meDraw()\l# meUpdate()\l# meHandleEvent()\l# meIsOver()\l}">
<polygon fill="white" stroke="black" points="127.5,-118.5 127.5,-395.5 228.5,-395.5 228.5,-118.5 127.5,-118.5"/>
<text text-anchor="middle" x="178" y="-383.5" font-family="Helvetica,sans-Serif" font-size="10.00">GraphicsItem</text>
<polyline fill="none" stroke="black" points="127.5,-376.5 228.5,-376.5 "/>
<text text-anchor="start" x="135.5" y="-364.5" font-family="Helvetica,sans-Serif" font-size="10.00">&#45; m_children</text>
<text text-anchor="start" x="135.5" y="-353.5" font-family="Helvetica,sans-Serif" font-size="10.00">&#45; m_z</text>
<text text-anchor="start" x="135.5" y="-342.5" font-family="Helvetica,sans-Serif" font-size="10.00">&#45; m_thick</text>
<text text-anchor="start" x="135.5" y="-331.5" font-family="Helvetica,sans-Serif" font-size="10.00">&#45; m_isFill</text>
<text text-anchor="start" x="135.5" y="-320.5" font-family="Helvetica,sans-Serif" font-size="10.00">&#45; m_isVisible</text>
<polyline fill="none" stroke="black" points="127.5,-313.5 228.5,-313.5 "/>
<text text-anchor="start" x="135.5" y="-301.5" font-family="Helvetica,sans-Serif" font-size="10.00">+ GraphicsItem()</text>
<text text-anchor="start" x="135.5" y="-290.5" font-family="Helvetica,sans-Serif" font-size="10.00">+ ~GraphicsItem()</text>
<text text-anchor="start" x="135.5" y="-279.5" font-family="Helvetica,sans-Serif" font-size="10.00">+ parent()</text>
<text text-anchor="start" x="135.5" y="-268.5" font-family="Helvetica,sans-Serif" font-size="10.00">+ setParent()</text>
<text text-anchor="start" x="135.5" y="-257.5" font-family="Helvetica,sans-Serif" font-size="10.00">+ type()</text>
<text text-anchor="start" x="135.5" y="-246.5" font-family="Helvetica,sans-Serif" font-size="10.00">+ children()</text>
<text text-anchor="start" x="135.5" y="-235.5" font-family="Helvetica,sans-Serif" font-size="10.00">+ relative()</text>
<text text-anchor="start" x="135.5" y="-224.5" font-family="Helvetica,sans-Serif" font-size="10.00">+ relative()</text>
<text text-anchor="start" x="135.5" y="-213.5" font-family="Helvetica,sans-Serif" font-size="10.00">+ absolute()</text>
<text text-anchor="start" x="135.5" y="-202.5" font-family="Helvetica,sans-Serif" font-size="10.00">+ setRelative()</text>
<text text-anchor="start" x="135.5" y="-191.5" font-family="Helvetica,sans-Serif" font-size="10.00">et 16 de plus...</text>
<text text-anchor="start" x="135.5" y="-180.5" font-family="Helvetica,sans-Serif" font-size="10.00">+ focusItem()</text>
<text text-anchor="start" x="135.5" y="-169.5" font-family="Helvetica,sans-Serif" font-size="10.00">+ setFocusItem()</text>
<text text-anchor="start" x="135.5" y="-158.5" font-family="Helvetica,sans-Serif" font-size="10.00"># meDraw()</text>
<text text-anchor="start" x="135.5" y="-147.5" font-family="Helvetica,sans-Serif" font-size="10.00"># meUpdate()</text>
<text text-anchor="start" x="135.5" y="-136.5" font-family="Helvetica,sans-Serif" font-size="10.00"># meHandleEvent()</text>
<text text-anchor="start" x="135.5" y="-125.5" font-family="Helvetica,sans-Serif" font-size="10.00"># meIsOver()</text>
</a>
</g>
</g>
<!-- Node2&#45;&gt;Node1 -->
<g id="edge1" class="edge"><title>Node2&#45;&gt;Node1</title>
<path fill="none" stroke="midnightblue" d="M178,-108.011C178,-97.877 178,-88.3051 178,-79.7375"/>
<polygon fill="none" stroke="midnightblue" points="174.5,-108.316 178,-118.316 181.5,-108.316 174.5,-108.316"/>
</g>
<!-- Node2&#45;&gt;Node2 -->
<g id="edge2" class="edge"><title>Node2&#45;&gt;Node2</title>
<path fill="none" stroke="#404040" d="M228.711,-285.403C238.803,-282.206 246,-272.738 246,-257 246,-247.409 243.328,-240.148 238.956,-235.214"/>
<polygon fill="none" stroke="#404040" points="238.791,-235.108 231.581,-235.213 228.711,-228.597 235.921,-228.492 238.791,-235.108"/>
<text text-anchor="middle" x="278" y="-260" font-family="Helvetica,sans-Serif" font-size="10.00"> &#45;m_focusItem</text>
<text text-anchor="middle" x="278" y="-249" font-family="Helvetica,sans-Serif" font-size="10.00">&#45;m_parent</text>
</g>
<!-- Node3 -->
<g id="node3" class="node"><title>Node3</title>
<g id="a_node3"><a xlink:href="class_point.html" target="_top" xlink:title="Représente un point (x, y) ">
<polygon fill="white" stroke="black" points="-0.5,-454.5 -0.5,-687.5 114.5,-687.5 114.5,-454.5 -0.5,-454.5"/>
<text text-anchor="middle" x="57" y="-675.5" font-family="Helvetica,sans-Serif" font-size="10.00">Point</text>
<polyline fill="none" stroke="black" points="-0.5,-668.5 114.5,-668.5 "/>
<text text-anchor="start" x="7.5" y="-656.5" font-family="Helvetica,sans-Serif" font-size="10.00">&#45; m_x</text>
<text text-anchor="start" x="7.5" y="-645.5" font-family="Helvetica,sans-Serif" font-size="10.00">&#45; m_y</text>
<text text-anchor="start" x="7.5" y="-634.5" font-family="Helvetica,sans-Serif" font-size="10.00">&#45; m_groupId</text>
<text text-anchor="start" x="7.5" y="-623.5" font-family="Helvetica,sans-Serif" font-size="10.00">&#45; m_joinType</text>
<text text-anchor="start" x="7.5" y="-612.5" font-family="Helvetica,sans-Serif" font-size="10.00">&#45; m_correctorsFixed</text>
<text text-anchor="start" x="7.5" y="-601.5" font-family="Helvetica,sans-Serif" font-size="10.00">&#45; m_correctorsVariable</text>
<text text-anchor="start" x="7.5" y="-590.5" font-family="Helvetica,sans-Serif" font-size="10.00">&#45; m_groups</text>
<polyline fill="none" stroke="black" points="-0.5,-583.5 114.5,-583.5 "/>
<text text-anchor="start" x="7.5" y="-571.5" font-family="Helvetica,sans-Serif" font-size="10.00">+ Point()</text>
<text text-anchor="start" x="7.5" y="-560.5" font-family="Helvetica,sans-Serif" font-size="10.00">+ Point()</text>
<text text-anchor="start" x="7.5" y="-549.5" font-family="Helvetica,sans-Serif" font-size="10.00">+ Point()</text>
<text text-anchor="start" x="7.5" y="-538.5" font-family="Helvetica,sans-Serif" font-size="10.00">+ Point()</text>
<text text-anchor="start" x="7.5" y="-527.5" font-family="Helvetica,sans-Serif" font-size="10.00">+ ~Point()</text>
<text text-anchor="start" x="7.5" y="-516.5" font-family="Helvetica,sans-Serif" font-size="10.00">+ operator=()</text>
<text text-anchor="start" x="7.5" y="-505.5" font-family="Helvetica,sans-Serif" font-size="10.00">+ setParent()</text>
<text text-anchor="start" x="7.5" y="-494.5" font-family="Helvetica,sans-Serif" font-size="10.00">+ absolute()</text>
<text text-anchor="start" x="7.5" y="-483.5" font-family="Helvetica,sans-Serif" font-size="10.00">+ setAbsolute()</text>
<text text-anchor="start" x="7.5" y="-472.5" font-family="Helvetica,sans-Serif" font-size="10.00">+ setAbsolute()</text>
<text text-anchor="start" x="7.5" y="-461.5" font-family="Helvetica,sans-Serif" font-size="10.00">et 10 de plus...</text>
</a>
</g>
</g>
<!-- Node3&#45;&gt;Node2 -->
<g id="edge3" class="edge"><title>Node3&#45;&gt;Node2</title>
<path fill="none" stroke="#404040" d="M96.0267,-454.224C100.925,-440.612 105.981,-426.962 111,-414 114.751,-404.314 118.738,-394.339 122.827,-384.338"/>
<polygon fill="none" stroke="#404040" points="122.906,-384.144 121.494,-377.073 127.478,-373.049 128.89,-380.12 122.906,-384.144"/>
<text text-anchor="middle" x="157" y="-428" font-family="Helvetica,sans-Serif" font-size="10.00"> &#45;m_positionAbsolute</text>
<text text-anchor="middle" x="157" y="-417" font-family="Helvetica,sans-Serif" font-size="10.00">&#45;m_position</text>
</g>
<!-- Node3&#45;&gt;Node3 -->
<g id="edge4" class="edge"><title>Node3&#45;&gt;Node3</title>
<path fill="none" stroke="#404040" d="M114.544,-596.769C124.822,-593.42 132,-584.83 132,-571 132,-562.572 129.334,-556.091 124.926,-551.555"/>
<polygon fill="none" stroke="#404040" points="124.793,-551.473 117.588,-551.768 114.544,-545.231 121.75,-544.936 124.793,-551.473"/>
<text text-anchor="middle" x="155.5" y="-568.5" font-family="Helvetica,sans-Serif" font-size="10.00"> &#45;m_parent</text>
</g>
<!-- Node4 -->
<g id="node4" class="node"><title>Node4</title>
<g id="a_node4"><a xlink:href="class_color.html" target="_top" xlink:title="Permet la gestion des coulours des différentes *entitées. ">
<polygon fill="white" stroke="black" points="197.5,-487.5 197.5,-654.5 274.5,-654.5 274.5,-487.5 197.5,-487.5"/>
<text text-anchor="middle" x="236" y="-642.5" font-family="Helvetica,sans-Serif" font-size="10.00">Color</text>
<polyline fill="none" stroke="black" points="197.5,-635.5 274.5,-635.5 "/>
<text text-anchor="start" x="205.5" y="-623.5" font-family="Helvetica,sans-Serif" font-size="10.00">&#45; m_color</text>
<polyline fill="none" stroke="black" points="197.5,-616.5 274.5,-616.5 "/>
<text text-anchor="start" x="205.5" y="-604.5" font-family="Helvetica,sans-Serif" font-size="10.00">+ Color()</text>
<text text-anchor="start" x="205.5" y="-593.5" font-family="Helvetica,sans-Serif" font-size="10.00">+ Color()</text>
<text text-anchor="start" x="205.5" y="-582.5" font-family="Helvetica,sans-Serif" font-size="10.00">+ Color()</text>
<text text-anchor="start" x="205.5" y="-571.5" font-family="Helvetica,sans-Serif" font-size="10.00">+ Color()</text>
<text text-anchor="start" x="205.5" y="-560.5" font-family="Helvetica,sans-Serif" font-size="10.00">+ red()</text>
<text text-anchor="start" x="205.5" y="-549.5" font-family="Helvetica,sans-Serif" font-size="10.00">+ setRed()</text>
<text text-anchor="start" x="205.5" y="-538.5" font-family="Helvetica,sans-Serif" font-size="10.00">+ green()</text>
<text text-anchor="start" x="205.5" y="-527.5" font-family="Helvetica,sans-Serif" font-size="10.00">+ setGreen()</text>
<text text-anchor="start" x="205.5" y="-516.5" font-family="Helvetica,sans-Serif" font-size="10.00">+ blue()</text>
<text text-anchor="start" x="205.5" y="-505.5" font-family="Helvetica,sans-Serif" font-size="10.00">+ setBlue()</text>
<text text-anchor="start" x="205.5" y="-494.5" font-family="Helvetica,sans-Serif" font-size="10.00">et 9 de plus...</text>
</a>
</g>
</g>
<!-- Node4&#45;&gt;Node2 -->
<g id="edge5" class="edge"><title>Node4&#45;&gt;Node2</title>
<path fill="none" stroke="#404040" d="M220.609,-487.209C216.063,-462.755 210.941,-435.197 205.864,-407.89"/>
<polygon fill="none" stroke="#404040" points="205.809,-407.592 200.78,-402.424 203.616,-395.794 208.645,-400.962 205.809,-407.592"/>
<text text-anchor="middle" x="230.5" y="-422.5" font-family="Helvetica,sans-Serif" font-size="10.00"> &#45;m_color</text>
</g>
</g>
</svg>
        <g id="navigator" transform="translate(0 0)" fill="#404254">
                <rect fill="#f2f5e9" fill-opacity="0.5" stroke="#606060" stroke-width=".5" x="0" y="0" width="60" height="60"/>
                <use id="zoomplus" xlink:href="#zoomPlus" x="17" y="9" onmousedown="handleZoom(evt,'in')"/>
                <use id="zoomminus" xlink:href="#zoomMin" x="42" y="9" onmousedown="handleZoom(evt,'out')"/>
                <use id="reset" xlink:href="#resetDef" x="30" y="36" onmousedown="handleReset()"/>
                <g id="arrowUp" xlink:href="#dirArrow" transform="translate(30 24)" onmousedown="handlePan(0,-1)">
                  <use xlink:href="#rim" fill="#404040">
                        <set attributeName="fill" to="#808080" begin="arrowUp.mouseover" end="arrowUp.mouseout"/>
                  </use>
                  <path fill="none" stroke="white" stroke-width="1.5" d="M0,-3.0v7 M-2.5,-0.5L0,-3.0L2.5,-0.5"/>
                </g>
                <g id="arrowRight" xlink:href="#dirArrow" transform="rotate(90) translate(36 -43)" onmousedown="handlePan(1,0)">
                  <use xlink:href="#rim" fill="#404040">
                        <set attributeName="fill" to="#808080" begin="arrowRight.mouseover" end="arrowRight.mouseout"/>
                  </use>
                  <path fill="none" stroke="white" stroke-width="1.5" d="M0,-3.0v7 M-2.5,-0.5L0,-3.0L2.5,-0.5"/>
                </g>
                <g id="arrowDown" xlink:href="#dirArrow" transform="rotate(180) translate(-30 -48)" onmousedown="handlePan(0,1)">
                  <use xlink:href="#rim" fill="#404040">
                        <set attributeName="fill" to="#808080" begin="arrowDown.mouseover" end="arrowDown.mouseout"/>
                  </use>
                  <path fill="none" stroke="white" stroke-width="1.5" d="M0,-3.0v7 M-2.5,-0.5L0,-3.0L2.5,-0.5"/>
                </g>
                <g id="arrowLeft" xlink:href="#dirArrow" transform="rotate(270) translate(-36 17)" onmousedown="handlePan(-1,0)">
                  <use xlink:href="#rim" fill="#404040">
                        <set attributeName="fill" to="#808080" begin="arrowLeft.mouseover" end="arrowLeft.mouseout"/>
                  </use>
                  <path fill="none" stroke="white" stroke-width="1.5" d="M0,-3.0v7 M-2.5,-0.5L0,-3.0L2.5,-0.5"/>
                </g>
        </g>
        <svg viewBox="0 0 15 15" width="100%" height="30px" preserveAspectRatio="xMaxYMin meet">
         <g id="arrow_out" transform="scale(0.3 0.3)">
          <a xlink:href="class_graphics_shape__coll__graph_org.svg" target="_base">
           <rect id="button" ry="5" rx="5" y="6" x="6" height="38" width="38"
                fill="#f2f5e9" fill-opacity="0.5" stroke="#606060" stroke-width="1.0"/>
           <path id="arrow"
             d="M 11.500037,31.436501 C 11.940474,20.09759 22.043105,11.32322 32.158766,21.979434 L 37.068811,17.246167 C 37.068811,17.246167 37.088388,32 37.088388,32 L 22.160133,31.978069 C 22.160133,31.978069 26.997745,27.140456 26.997745,27.140456 C 18.528582,18.264221 13.291696,25.230495 11.500037,31.436501 z"
             style="fill:#404040;"/>
          </a>
         </g>
        </svg>
</svg>
