<?xml version="1.0" encoding="UTF-8" standalone="no"?>
<!DOCTYPE svg PUBLIC "-//W3C//DTD SVG 1.1//EN"
 "http://www.w3.org/Graphics/SVG/1.1/DTD/svg11.dtd">
<!-- Generated by graphviz version 2.36.0 (20140111.2315)
 -->
<!-- Title: Event::type Pages: 1 -->
<svg width="436pt" height="142pt"
 viewBox="0.00 0.00 436.00 142.00" xmlns="http://www.w3.org/2000/svg" xmlns:xlink="http://www.w3.org/1999/xlink">
<g id="graph0" class="graph" transform="scale(1 1) rotate(0) translate(4 138)">
<title>Event::type</title>
<polygon fill="white" stroke="none" points="-4,4 -4,-138 432,-138 432,4 -4,4"/>
<!-- Node1 -->
<g id="node1" class="node"><title>Node1</title>
<polygon fill="#bfbfbf" stroke="black" points="0.5,-57.5 0.5,-76.5 67.5,-76.5 67.5,-57.5 0.5,-57.5"/>
<text text-anchor="middle" x="34" y="-64.5" font-family="Helvetica,sans-Serif" font-size="10.00">Event::type</text>
</g>
<!-- Node2 -->
<g id="node2" class="node"><title>Node2</title>
<g id="a_node2"><a xlink:href="class_button.html#ac8d84bc467ce5a7ac5791df121fe32dd" target="_top" xlink:title="Button::meHandleEvent">
<polygon fill="white" stroke="black" points="120.5,-114.5 120.5,-133.5 241.5,-133.5 241.5,-114.5 120.5,-114.5"/>
<text text-anchor="middle" x="181" y="-121.5" font-family="Helvetica,sans-Serif" font-size="10.00">Button::meHandleEvent</text>
</a>
</g>
</g>
<!-- Node1&#45;&gt;Node2 -->
<g id="edge1" class="edge"><title>Node1&#45;&gt;Node2</title>
<path fill="none" stroke="midnightblue" d="M58.5515,-81.9611C71.5546,-89.7039 88.2255,-98.8055 104,-105 113.368,-108.679 123.67,-111.818 133.584,-114.423"/>
<polygon fill="midnightblue" stroke="midnightblue" points="60.1571,-78.8408 49.7967,-76.6243 56.5135,-84.8179 60.1571,-78.8408"/>
</g>
<!-- Node3 -->
<g id="node3" class="node"><title>Node3</title>
<g id="a_node3"><a xlink:href="class_graphics_item.html#ad6c62fa07246bc1d7b9eae6340a246e2" target="_top" xlink:title="GraphicsItem::handleEvent">
<polygon fill="white" stroke="black" points="113.5,-76.5 113.5,-95.5 248.5,-95.5 248.5,-76.5 113.5,-76.5"/>
<text text-anchor="middle" x="181" y="-83.5" font-family="Helvetica,sans-Serif" font-size="10.00">GraphicsItem::handleEvent</text>
</a>
</g>
</g>
<!-- Node1&#45;&gt;Node3 -->
<g id="edge2" class="edge"><title>Node1&#45;&gt;Node3</title>
<path fill="none" stroke="midnightblue" d="M77.5205,-72.5717C88.7902,-74.0484 101.233,-75.6788 113.449,-77.2795"/>
<polygon fill="midnightblue" stroke="midnightblue" points="77.9108,-69.093 67.5408,-71.264 77.0013,-76.0336 77.9108,-69.093"/>
</g>
<!-- Node5 -->
<g id="node5" class="node"><title>Node5</title>
<g id="a_node5"><a xlink:href="class_graphics_point.html#aaceb83d2bd068629dccfde4aee9c60f5" target="_top" xlink:title="GraphicsPoint::meHandleEvent">
<polygon fill="white" stroke="black" points="104,-38.5 104,-57.5 258,-57.5 258,-38.5 104,-38.5"/>
<text text-anchor="middle" x="181" y="-45.5" font-family="Helvetica,sans-Serif" font-size="10.00">GraphicsPoint::meHandleEvent</text>
</a>
</g>
</g>
<!-- Node1&#45;&gt;Node5 -->
<g id="edge4" class="edge"><title>Node1&#45;&gt;Node5</title>
<path fill="none" stroke="midnightblue" d="M77.69,-61.4061C87.0165,-60.1841 97.1399,-58.8575 107.269,-57.5302"/>
<polygon fill="midnightblue" stroke="midnightblue" points="77.0013,-57.9664 67.5408,-62.736 77.9108,-64.907 77.0013,-57.9664"/>
</g>
<!-- Node6 -->
<g id="node6" class="node"><title>Node6</title>
<g id="a_node6"><a xlink:href="class_line_edit.html#a8d5e79e8a895901381e301d41d3d4343" target="_top" xlink:title="LineEdit::meHandleEvent">
<polygon fill="white" stroke="black" points="117,-0.5 117,-19.5 245,-19.5 245,-0.5 117,-0.5"/>
<text text-anchor="middle" x="181" y="-7.5" font-family="Helvetica,sans-Serif" font-size="10.00">LineEdit::meHandleEvent</text>
</a>
</g>
</g>
<!-- Node1&#45;&gt;Node6 -->
<g id="edge5" class="edge"><title>Node1&#45;&gt;Node6</title>
<path fill="none" stroke="midnightblue" d="M58.5515,-52.0389C71.5546,-44.2961 88.2255,-35.1945 104,-29 113.368,-25.3213 123.67,-22.1817 133.584,-19.577"/>
<polygon fill="midnightblue" stroke="midnightblue" points="56.5135,-49.1821 49.7967,-57.3757 60.1571,-55.1592 56.5135,-49.1821"/>
</g>
<!-- Node4 -->
<g id="node4" class="node"><title>Node4</title>
<g id="a_node4"><a xlink:href="class_main_window.html#a0c74824ef8e6256455545f2659610b31" target="_top" xlink:title="MainWindow::handleEvent">
<polygon fill="white" stroke="black" points="294.5,-76.5 294.5,-95.5 427.5,-95.5 427.5,-76.5 294.5,-76.5"/>
<text text-anchor="middle" x="361" y="-83.5" font-family="Helvetica,sans-Serif" font-size="10.00">MainWindow::handleEvent</text>
</a>
</g>
</g>
<!-- Node3&#45;&gt;Node4 -->
<g id="edge3" class="edge"><title>Node3&#45;&gt;Node4</title>
<path fill="none" stroke="midnightblue" d="M258.854,-86C270.709,-86 282.856,-86 294.434,-86"/>
<polygon fill="midnightblue" stroke="midnightblue" points="258.534,-82.5001 248.534,-86 258.534,-89.5001 258.534,-82.5001"/>
</g>
</g>
</svg>
