<?xml version="1.0" encoding="UTF-8" standalone="no"?>
<!DOCTYPE svg PUBLIC "-//W3C//DTD SVG 1.1//EN"
 "http://www.w3.org/Graphics/SVG/1.1/DTD/svg11.dtd">
<!-- Generated by graphviz version 2.36.0 (20140111.2315)
 -->
<!-- Title: Point::friendChanged Pages: 1 -->
<svg width="440pt" height="104pt"
 viewBox="0.00 0.00 440.00 104.00" xmlns="http://www.w3.org/2000/svg" xmlns:xlink="http://www.w3.org/1999/xlink">
<g id="graph0" class="graph" transform="scale(1 1) rotate(0) translate(4 100)">
<title>Point::friendChanged</title>
<polygon fill="white" stroke="none" points="-4,4 -4,-100 436,-100 436,4 -4,4"/>
<!-- Node1 -->
<g id="node1" class="node"><title>Node1</title>
<polygon fill="#bfbfbf" stroke="black" points="0,-38.5 0,-57.5 108,-57.5 108,-38.5 0,-38.5"/>
<text text-anchor="middle" x="54" y="-45.5" font-family="Helvetica,sans-Serif" font-size="10.00">Point::friendChanged</text>
</g>
<!-- Node2 -->
<g id="node2" class="node"><title>Node2</title>
<g id="a_node2"><a xlink:href="class_point.html#ab536377f38dbf8fd36875838648a1825" target="_top" xlink:title="Point::setAbsolute">
<polygon fill="white" stroke="black" points="144.5,-38.5 144.5,-57.5 241.5,-57.5 241.5,-38.5 144.5,-38.5"/>
<text text-anchor="middle" x="193" y="-45.5" font-family="Helvetica,sans-Serif" font-size="10.00">Point::setAbsolute</text>
</a>
</g>
</g>
<!-- Node1&#45;&gt;Node2 -->
<g id="edge1" class="edge"><title>Node1&#45;&gt;Node2</title>
<path fill="none" stroke="midnightblue" d="M108.36,-48C116.799,-48 125.562,-48 134.099,-48"/>
<polygon fill="midnightblue" stroke="midnightblue" points="134.363,-51.5001 144.363,-48 134.363,-44.5001 134.363,-51.5001"/>
</g>
<!-- Node3 -->
<g id="node3" class="node"><title>Node3</title>
<g id="a_node3"><a xlink:href="class_point.html#a43923c490fb5439d7d8a041e86520c34" target="_top" xlink:title="permet la modification des valeurs du point. ">
<polygon fill="white" stroke="black" points="282.5,-57.5 282.5,-76.5 341.5,-76.5 341.5,-57.5 282.5,-57.5"/>
<text text-anchor="middle" x="312" y="-64.5" font-family="Helvetica,sans-Serif" font-size="10.00">Point::set</text>
</a>
</g>
</g>
<!-- Node1&#45;&gt;Node3 -->
<g id="edge8" class="edge"><title>Node1&#45;&gt;Node3</title>
<path fill="none" stroke="midnightblue" d="M91.0962,-57.5088C107.167,-61.2736 126.402,-65.1425 144,-67 187.579,-71.5998 237.911,-70.7682 271.832,-69.3152"/>
<polygon fill="midnightblue" stroke="midnightblue" points="272.415,-72.7918 282.24,-68.8277 272.087,-65.7995 272.415,-72.7918"/>
</g>
<!-- Node7 -->
<g id="node7" class="node"><title>Node7</title>
<g id="a_node7"><a xlink:href="class_point.html#a04ce786cebfd535bc380833a71405930" target="_top" xlink:title="Point::absolute">
<polygon fill="white" stroke="black" points="152,-0.5 152,-19.5 234,-19.5 234,-0.5 152,-0.5"/>
<text text-anchor="middle" x="193" y="-7.5" font-family="Helvetica,sans-Serif" font-size="10.00">Point::absolute</text>
</a>
</g>
</g>
<!-- Node1&#45;&gt;Node7 -->
<g id="edge6" class="edge"><title>Node1&#45;&gt;Node7</title>
<path fill="none" stroke="midnightblue" d="M89.5709,-38.411C107.175,-33.5281 128.779,-27.5357 147.601,-22.315"/>
<polygon fill="midnightblue" stroke="midnightblue" points="148.739,-25.6315 157.44,-19.5859 146.868,-18.8862 148.739,-25.6315"/>
</g>
<!-- Node2&#45;&gt;Node3 -->
<g id="edge2" class="edge"><title>Node2&#45;&gt;Node3</title>
<path fill="none" stroke="midnightblue" d="M241.588,-55.728C251.825,-57.3903 262.523,-59.1277 272.369,-60.7266"/>
<polygon fill="midnightblue" stroke="midnightblue" points="271.834,-64.1856 282.266,-62.3338 272.957,-57.2761 271.834,-64.1856"/>
</g>
<!-- Node6 -->
<g id="node6" class="node"><title>Node6</title>
<g id="a_node6"><a xlink:href="class_point.html#ad92f2337b839a94ce97dcdb439b4325a" target="_top" xlink:title="Constructeur par défaut de la classe Point. ">
<polygon fill="white" stroke="black" points="278,-10.5 278,-29.5 346,-29.5 346,-10.5 278,-10.5"/>
<text text-anchor="middle" x="312" y="-17.5" font-family="Helvetica,sans-Serif" font-size="10.00">Point::Point</text>
</a>
</g>
</g>
<!-- Node2&#45;&gt;Node6 -->
<g id="edge5" class="edge"><title>Node2&#45;&gt;Node6</title>
<path fill="none" stroke="midnightblue" d="M233.938,-38.4423C244.885,-35.8223 256.801,-32.9708 267.916,-30.3107"/>
<polygon fill="midnightblue" stroke="midnightblue" points="268.938,-33.665 277.849,-27.9336 267.309,-26.8572 268.938,-33.665"/>
</g>
<!-- Node4 -->
<g id="node4" class="node"><title>Node4</title>
<g id="a_node4"><a xlink:href="class_point.html#a2aa897aa68c2f3e6df3a46738f27a0ac" target="_top" xlink:title="recupere la valeur de l&#39;absisse du Point. ">
<polygon fill="white" stroke="black" points="382,-76.5 382,-95.5 432,-95.5 432,-76.5 382,-76.5"/>
<text text-anchor="middle" x="407" y="-83.5" font-family="Helvetica,sans-Serif" font-size="10.00">Point::x</text>
</a>
</g>
</g>
<!-- Node3&#45;&gt;Node4 -->
<g id="edge3" class="edge"><title>Node3&#45;&gt;Node4</title>
<path fill="none" stroke="midnightblue" d="M341.662,-72.8557C351.248,-74.8141 362.026,-77.016 371.98,-79.0496"/>
<polygon fill="midnightblue" stroke="midnightblue" points="371.472,-82.518 381.97,-81.0906 372.873,-75.6597 371.472,-82.518"/>
</g>
<!-- Node5 -->
<g id="node5" class="node"><title>Node5</title>
<g id="a_node5"><a xlink:href="class_point.html#a2226d8a3fb283b0b3c1f69106df144ba" target="_top" xlink:title="Fonction recuperant le valeur de l&#39;ordonée. ">
<polygon fill="white" stroke="black" points="382,-38.5 382,-57.5 432,-57.5 432,-38.5 382,-38.5"/>
<text text-anchor="middle" x="407" y="-45.5" font-family="Helvetica,sans-Serif" font-size="10.00">Point::y</text>
</a>
</g>
</g>
<!-- Node3&#45;&gt;Node5 -->
<g id="edge4" class="edge"><title>Node3&#45;&gt;Node5</title>
<path fill="none" stroke="midnightblue" d="M341.662,-61.1443C351.248,-59.1859 362.026,-56.984 371.98,-54.9504"/>
<polygon fill="midnightblue" stroke="midnightblue" points="372.873,-58.3403 381.97,-52.9094 371.472,-51.482 372.873,-58.3403"/>
</g>
<!-- Node7&#45;&gt;Node6 -->
<g id="edge7" class="edge"><title>Node7&#45;&gt;Node6</title>
<path fill="none" stroke="midnightblue" d="M234.265,-13.4414C244.985,-14.3577 256.612,-15.3515 267.497,-16.2818"/>
<polygon fill="midnightblue" stroke="midnightblue" points="267.389,-19.7853 277.651,-17.1497 267.985,-12.8107 267.389,-19.7853"/>
</g>
</g>
</svg>
