<?xml version="1.0" encoding="UTF-8" standalone="no"?>
<!DOCTYPE svg PUBLIC "-//W3C//DTD SVG 1.1//EN"
 "http://www.w3.org/Graphics/SVG/1.1/DTD/svg11.dtd">
<!-- Generated by graphviz version 2.36.0 (20140111.2315)
 -->
<!-- Title: Color::green Pages: 1 -->
<svg width="344pt" height="104pt"
 viewBox="0.00 0.00 344.00 104.00" xmlns="http://www.w3.org/2000/svg" xmlns:xlink="http://www.w3.org/1999/xlink">
<g id="graph0" class="graph" transform="scale(1 1) rotate(0) translate(4 100)">
<title>Color::green</title>
<polygon fill="white" stroke="none" points="-4,4 -4,-100 340,-100 340,4 -4,4"/>
<!-- Node1 -->
<g id="node1" class="node"><title>Node1</title>
<polygon fill="#bfbfbf" stroke="black" points="0,-38.5 0,-57.5 70,-57.5 70,-38.5 0,-38.5"/>
<text text-anchor="middle" x="35" y="-45.5" font-family="Helvetica,sans-Serif" font-size="10.00">Color::green</text>
</g>
<!-- Node2 -->
<g id="node2" class="node"><title>Node2</title>
<g id="a_node2"><a xlink:href="class_color.html#ac99b62f877393bbadfeee7170eb31ecd" target="_top" xlink:title="Recupere la valeur de teinte ( systeme HSV ). ">
<polygon fill="white" stroke="black" points="120,-38.5 120,-57.5 182,-57.5 182,-38.5 120,-38.5"/>
<text text-anchor="middle" x="151" y="-45.5" font-family="Helvetica,sans-Serif" font-size="10.00">Color::hue</text>
</a>
</g>
</g>
<!-- Node1&#45;&gt;Node2 -->
<g id="edge1" class="edge"><title>Node1&#45;&gt;Node2</title>
<path fill="none" stroke="midnightblue" d="M80.4782,-48C93.6099,-48 107.674,-48 119.693,-48"/>
<polygon fill="midnightblue" stroke="midnightblue" points="80.2038,-44.5001 70.2038,-48 80.2037,-51.5001 80.2038,-44.5001"/>
</g>
<!-- Node5 -->
<g id="node5" class="node"><title>Node5</title>
<g id="a_node5"><a xlink:href="class_color.html#a9e232063ef1dfe5e98970700db822561" target="_top" xlink:title="Recupere la valeur de saturation ( system HSV ). ">
<polygon fill="white" stroke="black" points="106.5,-0.5 106.5,-19.5 195.5,-19.5 195.5,-0.5 106.5,-0.5"/>
<text text-anchor="middle" x="151" y="-7.5" font-family="Helvetica,sans-Serif" font-size="10.00">Color::saturation</text>
</a>
</g>
</g>
<!-- Node1&#45;&gt;Node5 -->
<g id="edge4" class="edge"><title>Node1&#45;&gt;Node5</title>
<path fill="none" stroke="midnightblue" d="M74.4778,-35.1741C89.7742,-30.0753 107.067,-24.3109 121.242,-19.5859"/>
<polygon fill="midnightblue" stroke="midnightblue" points="73.147,-31.9283 64.767,-38.411 75.3607,-38.569 73.147,-31.9283"/>
</g>
<!-- Node7 -->
<g id="node7" class="node"><title>Node7</title>
<g id="a_node7"><a xlink:href="class_color.html#ae8cb1f2e0c1424555e2f606ba9d21e57" target="_top" xlink:title="Recupere la valeur de la valeur ( system HSV ). ">
<polygon fill="white" stroke="black" points="116.5,-76.5 116.5,-95.5 185.5,-95.5 185.5,-76.5 116.5,-76.5"/>
<text text-anchor="middle" x="151" y="-83.5" font-family="Helvetica,sans-Serif" font-size="10.00">Color::value</text>
</a>
</g>
</g>
<!-- Node1&#45;&gt;Node7 -->
<g id="edge7" class="edge"><title>Node1&#45;&gt;Node7</title>
<path fill="none" stroke="midnightblue" d="M74.4778,-60.8259C89.7742,-65.9247 107.067,-71.6891 121.242,-76.4141"/>
<polygon fill="midnightblue" stroke="midnightblue" points="75.3607,-57.431 64.767,-57.589 73.147,-64.0717 75.3607,-57.431"/>
</g>
<!-- Node3 -->
<g id="node3" class="node"><title>Node3</title>
<g id="a_node3"><a xlink:href="class_color.html#a237de6ef93ddb2985d87a6fb630a0828" target="_top" xlink:title="Modifie la valeur de la saturation ( system HSV ). ">
<polygon fill="white" stroke="black" points="232,-76.5 232,-95.5 336,-95.5 336,-76.5 232,-76.5"/>
<text text-anchor="middle" x="284" y="-83.5" font-family="Helvetica,sans-Serif" font-size="10.00">Color::setSaturation</text>
</a>
</g>
</g>
<!-- Node2&#45;&gt;Node3 -->
<g id="edge2" class="edge"><title>Node2&#45;&gt;Node3</title>
<path fill="none" stroke="midnightblue" d="M191.713,-59.5198C210.3,-64.9116 232.185,-71.2598 249.866,-76.3887"/>
<polygon fill="midnightblue" stroke="midnightblue" points="192.633,-56.1425 182.054,-56.718 190.683,-62.8654 192.633,-56.1425"/>
</g>
<!-- Node4 -->
<g id="node4" class="node"><title>Node4</title>
<g id="a_node4"><a xlink:href="class_color.html#a1b673b9755fa01412ea14a2f9c040185" target="_top" xlink:title="Modifie la valeur de la valeur ( system HSV ). ">
<polygon fill="white" stroke="black" points="242,-0.5 242,-19.5 326,-19.5 326,-0.5 242,-0.5"/>
<text text-anchor="middle" x="284" y="-7.5" font-family="Helvetica,sans-Serif" font-size="10.00">Color::setValue</text>
</a>
</g>
</g>
<!-- Node2&#45;&gt;Node4 -->
<g id="edge3" class="edge"><title>Node2&#45;&gt;Node4</title>
<path fill="none" stroke="midnightblue" d="M191.713,-36.4802C210.3,-31.0884 232.185,-24.7402 249.866,-19.6113"/>
<polygon fill="midnightblue" stroke="midnightblue" points="190.683,-33.1346 182.054,-39.282 192.633,-39.8575 190.683,-33.1346"/>
</g>
<!-- Node5&#45;&gt;Node4 -->
<g id="edge6" class="edge"><title>Node5&#45;&gt;Node4</title>
<path fill="none" stroke="midnightblue" d="M205.959,-10C217.927,-10 230.425,-10 241.787,-10"/>
<polygon fill="midnightblue" stroke="midnightblue" points="205.621,-6.5001 195.621,-10 205.621,-13.5001 205.621,-6.5001"/>
</g>
<!-- Node6 -->
<g id="node6" class="node"><title>Node6</title>
<g id="a_node6"><a xlink:href="class_color.html#a600727550b0b99ab9c67226be5aa70cb" target="_top" xlink:title="Modifie la valeur de la teinte ( systeme HSV ). ">
<polygon fill="white" stroke="black" points="245.5,-38.5 245.5,-57.5 322.5,-57.5 322.5,-38.5 245.5,-38.5"/>
<text text-anchor="middle" x="284" y="-45.5" font-family="Helvetica,sans-Serif" font-size="10.00">Color::setHue</text>
</a>
</g>
</g>
<!-- Node5&#45;&gt;Node6 -->
<g id="edge5" class="edge"><title>Node5&#45;&gt;Node6</title>
<path fill="none" stroke="midnightblue" d="M194.715,-22.3906C212.655,-27.5945 233.2,-33.5541 249.954,-38.4141"/>
<polygon fill="midnightblue" stroke="midnightblue" points="195.636,-19.0136 185.057,-19.589 193.686,-25.7364 195.636,-19.0136"/>
</g>
<!-- Node7&#45;&gt;Node3 -->
<g id="edge9" class="edge"><title>Node7&#45;&gt;Node3</title>
<path fill="none" stroke="midnightblue" d="M195.972,-86C207.475,-86 219.974,-86 231.817,-86"/>
<polygon fill="midnightblue" stroke="midnightblue" points="195.736,-82.5001 185.736,-86 195.736,-89.5001 195.736,-82.5001"/>
</g>
<!-- Node7&#45;&gt;Node6 -->
<g id="edge8" class="edge"><title>Node7&#45;&gt;Node6</title>
<path fill="none" stroke="midnightblue" d="M194.715,-73.6094C212.655,-68.4055 233.2,-62.4459 249.954,-57.5859"/>
<polygon fill="midnightblue" stroke="midnightblue" points="193.686,-70.2636 185.057,-76.411 195.636,-76.9864 193.686,-70.2636"/>
</g>
</g>
</svg>
