<?xml version="1.0" encoding="UTF-8" standalone="no"?>
<!DOCTYPE svg PUBLIC "-//W3C//DTD SVG 1.1//EN"
 "http://www.w3.org/Graphics/SVG/1.1/DTD/svg11.dtd">
<!-- Generated by graphviz version 2.36.0 (20140111.2315)
 -->
<!-- Title: Button Pages: 1 -->
<!--zoomable 878 -->
<svg id="main" version="1.1" xmlns="http://www.w3.org/2000/svg" xmlns:xlink="http://www.w3.org/1999/xlink" xml:space="preserve" onload="init(evt)">
<style type="text/css"><![CDATA[
.edge:hover path { stroke: red; }
.edge:hover polygon { stroke: red; fill: red; }
]]></style>
<script type="text/javascript"><![CDATA[
var edges = document.getElementsByTagName('g');
if (edges && edges.length) {
  for (var i=0;i<edges.length;i++) {
    if (edges[i].id.substr(0,4)=='edge') {
      edges[i].setAttribute('class','edge');
    }
  }
}
]]></script>
        <defs>
                <circle id="rim" cx="0" cy="0" r="7"/>
                <circle id="rim2" cx="0" cy="0" r="3.5"/>
                <g id="zoomPlus">
                        <use xlink:href="#rim" fill="#404040">
                                <set attributeName="fill" to="#808080" begin="zoomplus.mouseover" end="zoomplus.mouseout"/>
                        </use>
                        <path d="M-4,0h8M0,-4v8" fill="none" stroke="white" stroke-width="1.5" pointer-events="none"/>
                </g>
                <g id="zoomMin">
                        <use xlink:href="#rim" fill="#404040">
                                <set attributeName="fill" to="#808080" begin="zoomminus.mouseover" end="zoomminus.mouseout"/>
                        </use>
                        <path d="M-4,0h8" fill="none" stroke="white" stroke-width="1.5" pointer-events="none"/>
                </g>
                <g id="dirArrow">
                        <path fill="none" stroke="white" stroke-width="1.5" d="M0,-3.0v7 M-2.5,-0.5L0,-3.0L2.5,-0.5"/>
                </g>
               <g id="resetDef">
                       <use xlink:href="#rim2" fill="#404040">
                               <set attributeName="fill" to="#808080" begin="reset.mouseover" end="reset.mouseout"/>
                       </use>
               </g>
        </defs>

<script type="text/javascript">
var viewWidth = 235;
var viewHeight = 878;
var sectionId = 'dynsection-1';
</script>
<script xlink:href="svgpan.js"/>
<svg id="graph" class="graph">
<g id="viewport">
<title>Button</title>
<polygon fill="white" stroke="none" points="-4,4 -4,-874 231,-874 231,4 -4,4"/>
<!-- Node1 -->
<g id="node1" class="node"><title>Node1</title>
<polygon fill="#bfbfbf" stroke="black" points="79.5,-0.5 79.5,-189.5 180.5,-189.5 180.5,-0.5 79.5,-0.5"/>
<text text-anchor="middle" x="130" y="-177.5" font-family="Helvetica,sans-Serif" font-size="10.00">Button</text>
<polyline fill="none" stroke="black" points="79.5,-170.5 180.5,-170.5 "/>
<text text-anchor="middle" x="130" y="-158.5" font-family="Helvetica,sans-Serif" font-size="10.00"> </text>
<polyline fill="none" stroke="black" points="79.5,-151.5 180.5,-151.5 "/>
<text text-anchor="start" x="87.5" y="-139.5" font-family="Helvetica,sans-Serif" font-size="10.00">+ Button()</text>
<text text-anchor="start" x="87.5" y="-128.5" font-family="Helvetica,sans-Serif" font-size="10.00">+ Button()</text>
<text text-anchor="start" x="87.5" y="-117.5" font-family="Helvetica,sans-Serif" font-size="10.00">+ Button()</text>
<text text-anchor="start" x="87.5" y="-106.5" font-family="Helvetica,sans-Serif" font-size="10.00">+ Button()</text>
<text text-anchor="start" x="87.5" y="-95.5" font-family="Helvetica,sans-Serif" font-size="10.00">+ Button()</text>
<text text-anchor="start" x="87.5" y="-84.5" font-family="Helvetica,sans-Serif" font-size="10.00">+ Button()</text>
<text text-anchor="start" x="87.5" y="-73.5" font-family="Helvetica,sans-Serif" font-size="10.00">+ text()</text>
<text text-anchor="start" x="87.5" y="-62.5" font-family="Helvetica,sans-Serif" font-size="10.00">+ setText()</text>
<text text-anchor="start" x="87.5" y="-51.5" font-family="Helvetica,sans-Serif" font-size="10.00">+ minimumWidth()</text>
<text text-anchor="start" x="87.5" y="-40.5" font-family="Helvetica,sans-Serif" font-size="10.00">+ minimumHeight()</text>
<text text-anchor="start" x="87.5" y="-29.5" font-family="Helvetica,sans-Serif" font-size="10.00">+ clicked()</text>
<text text-anchor="start" x="87.5" y="-18.5" font-family="Helvetica,sans-Serif" font-size="10.00"># meHandleEvent()</text>
<text text-anchor="start" x="87.5" y="-7.5" font-family="Helvetica,sans-Serif" font-size="10.00">* clicked()</text>
</g>
<!-- Node2 -->
<g id="node2" class="node"><title>Node2</title>
<g id="a_node2"><a xlink:href="class_widget.html" target="_top" xlink:title="Classe de base. ">
<polygon fill="white" stroke="black" points="57,-226.5 57,-481.5 203,-481.5 203,-226.5 57,-226.5"/>
<text text-anchor="middle" x="130" y="-469.5" font-family="Helvetica,sans-Serif" font-size="10.00">Widget</text>
<polyline fill="none" stroke="black" points="57,-462.5 203,-462.5 "/>
<text text-anchor="start" x="65" y="-450.5" font-family="Helvetica,sans-Serif" font-size="10.00"># m_minimumWidthChanged</text>
<text text-anchor="start" x="65" y="-439.5" font-family="Helvetica,sans-Serif" font-size="10.00"># m_minimumHeightChanged</text>
<polyline fill="none" stroke="black" points="57,-432.5 203,-432.5 "/>
<text text-anchor="start" x="65" y="-420.5" font-family="Helvetica,sans-Serif" font-size="10.00">+ Widget()</text>
<text text-anchor="start" x="65" y="-409.5" font-family="Helvetica,sans-Serif" font-size="10.00">+ Widget()</text>
<text text-anchor="start" x="65" y="-398.5" font-family="Helvetica,sans-Serif" font-size="10.00">+ Widget()</text>
<text text-anchor="start" x="65" y="-387.5" font-family="Helvetica,sans-Serif" font-size="10.00">+ width()</text>
<text text-anchor="start" x="65" y="-376.5" font-family="Helvetica,sans-Serif" font-size="10.00">+ setWidth()</text>
<text text-anchor="start" x="65" y="-365.5" font-family="Helvetica,sans-Serif" font-size="10.00">+ height()</text>
<text text-anchor="start" x="65" y="-354.5" font-family="Helvetica,sans-Serif" font-size="10.00">+ setHeight()</text>
<text text-anchor="start" x="65" y="-343.5" font-family="Helvetica,sans-Serif" font-size="10.00">+ minimumWidth()</text>
<text text-anchor="start" x="65" y="-332.5" font-family="Helvetica,sans-Serif" font-size="10.00">+ minimumHeight()</text>
<text text-anchor="start" x="65" y="-321.5" font-family="Helvetica,sans-Serif" font-size="10.00">+ widthChanged()</text>
<text text-anchor="start" x="65" y="-310.5" font-family="Helvetica,sans-Serif" font-size="10.00">+ heightChanged()</text>
<text text-anchor="start" x="65" y="-299.5" font-family="Helvetica,sans-Serif" font-size="10.00">+ minimumWidthChanged()</text>
<text text-anchor="start" x="65" y="-288.5" font-family="Helvetica,sans-Serif" font-size="10.00">+ minimumHeightChanged()</text>
<text text-anchor="start" x="65" y="-277.5" font-family="Helvetica,sans-Serif" font-size="10.00"># meIsOver()</text>
<text text-anchor="start" x="65" y="-266.5" font-family="Helvetica,sans-Serif" font-size="10.00">* widthChanged()</text>
<text text-anchor="start" x="65" y="-255.5" font-family="Helvetica,sans-Serif" font-size="10.00">* heightChanged()</text>
<text text-anchor="start" x="65" y="-244.5" font-family="Helvetica,sans-Serif" font-size="10.00">* minimumWidthChanged()</text>
<text text-anchor="start" x="65" y="-233.5" font-family="Helvetica,sans-Serif" font-size="10.00">* minimumHeightChanged()</text>
</a>
</g>
</g>
<!-- Node2&#45;&gt;Node1 -->
<g id="edge1" class="edge"><title>Node2&#45;&gt;Node1</title>
<path fill="none" stroke="midnightblue" d="M130,-216.201C130,-207.195 130,-198.244 130,-189.526"/>
<polygon fill="none" stroke="midnightblue" points="126.5,-216.382 130,-226.382 133.5,-216.382 126.5,-216.382"/>
</g>
<!-- Node3 -->
<g id="node3" class="node"><title>Node3</title>
<g id="a_node3"><a xlink:href="class_graphics_item.html" target="_top" xlink:title="Classe de baseLa classe GraphicsItem est la base de tout les éléments graphiques. ...">
<polygon fill="white" stroke="black" points="79.5,-519 79.5,-763 180.5,-763 180.5,-519 79.5,-519"/>
<text text-anchor="middle" x="130" y="-751" font-family="Helvetica,sans-Serif" font-size="10.00">GraphicsItem</text>
<polyline fill="none" stroke="black" points="79.5,-744 180.5,-744 "/>
<text text-anchor="middle" x="130" y="-732" font-family="Helvetica,sans-Serif" font-size="10.00"> </text>
<polyline fill="none" stroke="black" points="79.5,-725 180.5,-725 "/>
<text text-anchor="start" x="87.5" y="-713" font-family="Helvetica,sans-Serif" font-size="10.00">+ GraphicsItem()</text>
<text text-anchor="start" x="87.5" y="-702" font-family="Helvetica,sans-Serif" font-size="10.00">+ GraphicsItem()</text>
<text text-anchor="start" x="87.5" y="-691" font-family="Helvetica,sans-Serif" font-size="10.00">+ GraphicsItem()</text>
<text text-anchor="start" x="87.5" y="-680" font-family="Helvetica,sans-Serif" font-size="10.00">+ ~GraphicsItem()</text>
<text text-anchor="start" x="87.5" y="-669" font-family="Helvetica,sans-Serif" font-size="10.00">+ id()</text>
<text text-anchor="start" x="87.5" y="-658" font-family="Helvetica,sans-Serif" font-size="10.00">+ parentId()</text>
<text text-anchor="start" x="87.5" y="-647" font-family="Helvetica,sans-Serif" font-size="10.00">+ parent()</text>
<text text-anchor="start" x="87.5" y="-636" font-family="Helvetica,sans-Serif" font-size="10.00">+ setParent()</text>
<text text-anchor="start" x="87.5" y="-625" font-family="Helvetica,sans-Serif" font-size="10.00">+ setParent()</text>
<text text-anchor="start" x="87.5" y="-614" font-family="Helvetica,sans-Serif" font-size="10.00">+ setParent()</text>
<text text-anchor="start" x="87.5" y="-603" font-family="Helvetica,sans-Serif" font-size="10.00">et 22 de plus...</text>
<text text-anchor="start" x="87.5" y="-592" font-family="Helvetica,sans-Serif" font-size="10.00">+ focusItem()</text>
<text text-anchor="start" x="87.5" y="-581" font-family="Helvetica,sans-Serif" font-size="10.00">+ setFocusItem()</text>
<text text-anchor="start" x="87.5" y="-570" font-family="Helvetica,sans-Serif" font-size="10.00">+ make()</text>
<text text-anchor="start" x="87.5" y="-559" font-family="Helvetica,sans-Serif" font-size="10.00"># meDraw()</text>
<text text-anchor="start" x="87.5" y="-548" font-family="Helvetica,sans-Serif" font-size="10.00"># meUpdate()</text>
<text text-anchor="start" x="87.5" y="-537" font-family="Helvetica,sans-Serif" font-size="10.00"># meHandleEvent()</text>
<text text-anchor="start" x="87.5" y="-526" font-family="Helvetica,sans-Serif" font-size="10.00"># meIsOver()</text>
</a>
</g>
</g>
<!-- Node3&#45;&gt;Node2 -->
<g id="edge2" class="edge"><title>Node3&#45;&gt;Node2</title>
<path fill="none" stroke="midnightblue" d="M130,-508.614C130,-499.633 130,-490.592 130,-481.636"/>
<polygon fill="none" stroke="midnightblue" points="126.5,-508.721 130,-518.721 133.5,-508.721 126.5,-508.721"/>
</g>
<!-- Node4 -->
<g id="node4" class="node"><title>Node4</title>
<polygon fill="white" stroke="#bfbfbf" points="-0.5,-801 -0.5,-869 138.5,-869 138.5,-801 -0.5,-801"/>
<text text-anchor="start" x="7.5" y="-857" font-family="Helvetica,sans-Serif" font-size="10.00">std::enable_shared</text>
<text text-anchor="middle" x="69" y="-846" font-family="Helvetica,sans-Serif" font-size="10.00">_from_this&lt; GraphicsItem &gt;</text>
<polyline fill="none" stroke="#bfbfbf" points="-0.5,-839 138.5,-839 "/>
<text text-anchor="middle" x="69" y="-827" font-family="Helvetica,sans-Serif" font-size="10.00"> </text>
<polyline fill="none" stroke="#bfbfbf" points="-0.5,-820 138.5,-820 "/>
<text text-anchor="middle" x="69" y="-808" font-family="Helvetica,sans-Serif" font-size="10.00"> </text>
</g>
<!-- Node4&#45;&gt;Node3 -->
<g id="edge3" class="edge"><title>Node4&#45;&gt;Node3</title>
<path fill="none" stroke="midnightblue" d="M82.588,-791.231C85.343,-782.56 88.3672,-773.041 91.5134,-763.138"/>
<polygon fill="none" stroke="midnightblue" points="79.1786,-790.404 79.4863,-800.994 85.85,-792.523 79.1786,-790.404"/>
</g>
<!-- Node5 -->
<g id="node5" class="node"><title>Node5</title>
<polygon fill="white" stroke="#bfbfbf" points="156.5,-806.5 156.5,-863.5 227.5,-863.5 227.5,-806.5 156.5,-806.5"/>
<text text-anchor="middle" x="192" y="-851.5" font-family="Helvetica,sans-Serif" font-size="10.00">noncopyable</text>
<polyline fill="none" stroke="#bfbfbf" points="156.5,-844.5 227.5,-844.5 "/>
<text text-anchor="middle" x="192" y="-832.5" font-family="Helvetica,sans-Serif" font-size="10.00"> </text>
<polyline fill="none" stroke="#bfbfbf" points="156.5,-825.5 227.5,-825.5 "/>
<text text-anchor="middle" x="192" y="-813.5" font-family="Helvetica,sans-Serif" font-size="10.00"> </text>
</g>
<!-- Node5&#45;&gt;Node3 -->
<g id="edge4" class="edge"><title>Node5&#45;&gt;Node3</title>
<path fill="none" stroke="#8b1a1a" d="M180.033,-796.94C176.787,-786.889 173.087,-775.431 169.202,-763.401"/>
<polygon fill="none" stroke="#8b1a1a" points="176.713,-798.05 183.117,-806.491 183.375,-795.899 176.713,-798.05"/>
</g>
</g>
</svg>
        <g id="navigator" transform="translate(0 0)" fill="#404254">
                <rect fill="#f2f5e9" fill-opacity="0.5" stroke="#606060" stroke-width=".5" x="0" y="0" width="60" height="60"/>
                <use id="zoomplus" xlink:href="#zoomPlus" x="17" y="9" onmousedown="handleZoom(evt,'in')"/>
                <use id="zoomminus" xlink:href="#zoomMin" x="42" y="9" onmousedown="handleZoom(evt,'out')"/>
                <use id="reset" xlink:href="#resetDef" x="30" y="36" onmousedown="handleReset()"/>
                <g id="arrowUp" xlink:href="#dirArrow" transform="translate(30 24)" onmousedown="handlePan(0,-1)">
                  <use xlink:href="#rim" fill="#404040">
                        <set attributeName="fill" to="#808080" begin="arrowUp.mouseover" end="arrowUp.mouseout"/>
                  </use>
                  <path fill="none" stroke="white" stroke-width="1.5" d="M0,-3.0v7 M-2.5,-0.5L0,-3.0L2.5,-0.5"/>
                </g>
                <g id="arrowRight" xlink:href="#dirArrow" transform="rotate(90) translate(36 -43)" onmousedown="handlePan(1,0)">
                  <use xlink:href="#rim" fill="#404040">
                        <set attributeName="fill" to="#808080" begin="arrowRight.mouseover" end="arrowRight.mouseout"/>
                  </use>
                  <path fill="none" stroke="white" stroke-width="1.5" d="M0,-3.0v7 M-2.5,-0.5L0,-3.0L2.5,-0.5"/>
                </g>
                <g id="arrowDown" xlink:href="#dirArrow" transform="rotate(180) translate(-30 -48)" onmousedown="handlePan(0,1)">
                  <use xlink:href="#rim" fill="#404040">
                        <set attributeName="fill" to="#808080" begin="arrowDown.mouseover" end="arrowDown.mouseout"/>
                  </use>
                  <path fill="none" stroke="white" stroke-width="1.5" d="M0,-3.0v7 M-2.5,-0.5L0,-3.0L2.5,-0.5"/>
                </g>
                <g id="arrowLeft" xlink:href="#dirArrow" transform="rotate(270) translate(-36 17)" onmousedown="handlePan(-1,0)">
                  <use xlink:href="#rim" fill="#404040">
                        <set attributeName="fill" to="#808080" begin="arrowLeft.mouseover" end="arrowLeft.mouseout"/>
                  </use>
                  <path fill="none" stroke="white" stroke-width="1.5" d="M0,-3.0v7 M-2.5,-0.5L0,-3.0L2.5,-0.5"/>
                </g>
        </g>
        <svg viewBox="0 0 15 15" width="100%" height="30px" preserveAspectRatio="xMaxYMin meet">
         <g id="arrow_out" transform="scale(0.3 0.3)">
          <a xlink:href="class_button__coll__graph_org.svg" target="_base">
           <rect id="button" ry="5" rx="5" y="6" x="6" height="38" width="38"
                fill="#f2f5e9" fill-opacity="0.5" stroke="#606060" stroke-width="1.0"/>
           <path id="arrow"
             d="M 11.500037,31.436501 C 11.940474,20.09759 22.043105,11.32322 32.158766,21.979434 L 37.068811,17.246167 C 37.068811,17.246167 37.088388,32 37.088388,32 L 22.160133,31.978069 C 22.160133,31.978069 26.997745,27.140456 26.997745,27.140456 C 18.528582,18.264221 13.291696,25.230495 11.500037,31.436501 z"
             style="fill:#404040;"/>
          </a>
         </g>
        </svg>
</svg>
