<?xml version="1.0" encoding="UTF-8" standalone="no"?>
<!DOCTYPE svg PUBLIC "-//W3C//DTD SVG 1.1//EN"
 "http://www.w3.org/Graphics/SVG/1.1/DTD/svg11.dtd">
<!-- Generated by graphviz version 2.36.0 (20140111.2315)
 -->
<!-- Title: Color::hue Pages: 1 -->
<svg width="176pt" height="104pt"
 viewBox="0.00 0.00 176.00 104.00" xmlns="http://www.w3.org/2000/svg" xmlns:xlink="http://www.w3.org/1999/xlink">
<g id="graph0" class="graph" transform="scale(1 1) rotate(0) translate(4 100)">
<title>Color::hue</title>
<polygon fill="white" stroke="none" points="-4,4 -4,-100 172,-100 172,4 -4,4"/>
<!-- Node1 -->
<g id="node1" class="node"><title>Node1</title>
<polygon fill="#bfbfbf" stroke="black" points="0,-38.5 0,-57.5 62,-57.5 62,-38.5 0,-38.5"/>
<text text-anchor="middle" x="31" y="-45.5" font-family="Helvetica,sans-Serif" font-size="10.00">Color::hue</text>
</g>
<!-- Node2 -->
<g id="node2" class="node"><title>Node2</title>
<g id="a_node2"><a xlink:href="class_color.html#a5a3f8aa2c7079231d10fbf3c2c87bf61" target="_top" xlink:title="Recupere la valeur de la premier couleur ( systeme RGB ). ">
<polygon fill="white" stroke="black" points="103.5,-76.5 103.5,-95.5 162.5,-95.5 162.5,-76.5 103.5,-76.5"/>
<text text-anchor="middle" x="133" y="-83.5" font-family="Helvetica,sans-Serif" font-size="10.00">Color::red</text>
</a>
</g>
</g>
<!-- Node1&#45;&gt;Node2 -->
<g id="edge1" class="edge"><title>Node1&#45;&gt;Node2</title>
<path fill="none" stroke="midnightblue" d="M57.2342,-57.589C69.3142,-62.1794 83.9745,-67.7503 97.102,-72.7388"/>
<polygon fill="midnightblue" stroke="midnightblue" points="96.1827,-76.1336 106.774,-76.4141 98.6693,-69.5901 96.1827,-76.1336"/>
</g>
<!-- Node3 -->
<g id="node3" class="node"><title>Node3</title>
<g id="a_node3"><a xlink:href="class_color.html#abeb092c67b007163b357bd6327189394" target="_top" xlink:title="Recupere la valeur de la deuxieme couleur ( systeme RGB ). ">
<polygon fill="white" stroke="black" points="98,-38.5 98,-57.5 168,-57.5 168,-38.5 98,-38.5"/>
<text text-anchor="middle" x="133" y="-45.5" font-family="Helvetica,sans-Serif" font-size="10.00">Color::green</text>
</a>
</g>
</g>
<!-- Node1&#45;&gt;Node3 -->
<g id="edge2" class="edge"><title>Node1&#45;&gt;Node3</title>
<path fill="none" stroke="midnightblue" d="M62.0033,-48C70.1079,-48 79.0518,-48 87.7594,-48"/>
<polygon fill="midnightblue" stroke="midnightblue" points="87.8086,-51.5001 97.8086,-48 87.8086,-44.5001 87.8086,-51.5001"/>
</g>
<!-- Node4 -->
<g id="node4" class="node"><title>Node4</title>
<g id="a_node4"><a xlink:href="class_color.html#ab8c3999a34eecf3ee1bfaced2b458cd6" target="_top" xlink:title="Recupere la valeur de la troisieme couleur ( systeme RGB ). ">
<polygon fill="white" stroke="black" points="101,-0.5 101,-19.5 165,-19.5 165,-0.5 101,-0.5"/>
<text text-anchor="middle" x="133" y="-7.5" font-family="Helvetica,sans-Serif" font-size="10.00">Color::blue</text>
</a>
</g>
</g>
<!-- Node1&#45;&gt;Node4 -->
<g id="edge3" class="edge"><title>Node1&#45;&gt;Node4</title>
<path fill="none" stroke="midnightblue" d="M57.2342,-38.411C69.3142,-33.8206 83.9745,-28.2497 97.102,-23.2612"/>
<polygon fill="midnightblue" stroke="midnightblue" points="98.6693,-26.4099 106.774,-19.5859 96.1827,-19.8664 98.6693,-26.4099"/>
</g>
</g>
</svg>
