<?xml version="1.0" encoding="UTF-8" standalone="no"?>
<!DOCTYPE svg PUBLIC "-//W3C//DTD SVG 1.1//EN"
 "http://www.w3.org/Graphics/SVG/1.1/DTD/svg11.dtd">
<!-- Generated by graphviz version 2.36.0 (20140111.2315)
 -->
<!-- Title: Color::blue Pages: 1 -->
<svg width="338pt" height="142pt"
 viewBox="0.00 0.00 338.00 142.00" xmlns="http://www.w3.org/2000/svg" xmlns:xlink="http://www.w3.org/1999/xlink">
<g id="graph0" class="graph" transform="scale(1 1) rotate(0) translate(4 138)">
<title>Color::blue</title>
<polygon fill="white" stroke="none" points="-4,4 -4,-138 334,-138 334,4 -4,4"/>
<!-- Node1 -->
<g id="node1" class="node"><title>Node1</title>
<polygon fill="#bfbfbf" stroke="black" points="0,-57.5 0,-76.5 64,-76.5 64,-57.5 0,-57.5"/>
<text text-anchor="middle" x="32" y="-64.5" font-family="Helvetica,sans-Serif" font-size="10.00">Color::blue</text>
</g>
<!-- Node2 -->
<g id="node2" class="node"><title>Node2</title>
<g id="a_node2"><a xlink:href="class_color.html#ae752d55b3758a7181fd3c201ab87ca3b" target="_top" xlink:title="Modifie la valeur de la troisieme couleur ( systeme RGB ). ">
<polygon fill="white" stroke="black" points="105.5,-114.5 105.5,-133.5 184.5,-133.5 184.5,-114.5 105.5,-114.5"/>
<text text-anchor="middle" x="145" y="-121.5" font-family="Helvetica,sans-Serif" font-size="10.00">Color::setBlue</text>
</a>
</g>
</g>
<!-- Node1&#45;&gt;Node2 -->
<g id="edge1" class="edge"><title>Node1&#45;&gt;Node2</title>
<path fill="none" stroke="midnightblue" d="M71.8525,-81.2231C80.984,-86.1124 90.7517,-91.3974 100,-96 112.366,-102.154 127.195,-108.316 136.094,-114.342"/>
<polygon fill="midnightblue" stroke="midnightblue" points="73.4489,-78.108 62.9759,-76.5058 70.1639,-84.2893 73.4489,-78.108"/>
</g>
<!-- Node3 -->
<g id="node3" class="node"><title>Node3</title>
<g id="a_node3"><a xlink:href="class_color.html#ac99b62f877393bbadfeee7170eb31ecd" target="_top" xlink:title="Recupere la valeur de teinte ( systeme HSV ). ">
<polygon fill="white" stroke="black" points="114,-38.5 114,-57.5 176,-57.5 176,-38.5 114,-38.5"/>
<text text-anchor="middle" x="145" y="-45.5" font-family="Helvetica,sans-Serif" font-size="10.00">Color::hue</text>
</a>
</g>
</g>
<!-- Node1&#45;&gt;Node3 -->
<g id="edge3" class="edge"><title>Node1&#45;&gt;Node3</title>
<path fill="none" stroke="midnightblue" d="M66.0025,-55.1202C81.1775,-51.7833 99.0535,-48.7737 113.861,-47.0789"/>
<polygon fill="midnightblue" stroke="midnightblue" points="64.9336,-51.7759 55.9993,-57.4705 66.5347,-58.5903 64.9336,-51.7759"/>
</g>
<!-- Node6 -->
<g id="node6" class="node"><title>Node6</title>
<g id="a_node6"><a xlink:href="class_color.html#a9e232063ef1dfe5e98970700db822561" target="_top" xlink:title="Recupere la valeur de saturation ( system HSV ). ">
<polygon fill="white" stroke="black" points="100.5,-0.5 100.5,-19.5 189.5,-19.5 189.5,-0.5 100.5,-0.5"/>
<text text-anchor="middle" x="145" y="-7.5" font-family="Helvetica,sans-Serif" font-size="10.00">Color::saturation</text>
</a>
</g>
</g>
<!-- Node1&#45;&gt;Node6 -->
<g id="edge7" class="edge"><title>Node1&#45;&gt;Node6</title>
<path fill="none" stroke="midnightblue" d="M57.62,-52.1886C70.1361,-44.8774 85.6898,-36.1217 100,-29 106.555,-25.7377 113.803,-22.4731 120.493,-19.5933"/>
<polygon fill="midnightblue" stroke="midnightblue" points="55.5443,-49.3495 48.7118,-57.4469 59.1026,-55.3776 55.5443,-49.3495"/>
</g>
<!-- Node8 -->
<g id="node8" class="node"><title>Node8</title>
<g id="a_node8"><a xlink:href="class_color.html#ae8cb1f2e0c1424555e2f606ba9d21e57" target="_top" xlink:title="Recupere la valeur de la valeur ( system HSV ). ">
<polygon fill="white" stroke="black" points="110.5,-76.5 110.5,-95.5 179.5,-95.5 179.5,-76.5 110.5,-76.5"/>
<text text-anchor="middle" x="145" y="-83.5" font-family="Helvetica,sans-Serif" font-size="10.00">Color::value</text>
</a>
</g>
</g>
<!-- Node1&#45;&gt;Node8 -->
<g id="edge10" class="edge"><title>Node1&#45;&gt;Node8</title>
<path fill="none" stroke="midnightblue" d="M74.3346,-74.0753C86.1883,-76.1043 98.9658,-78.2914 110.301,-80.2317"/>
<polygon fill="midnightblue" stroke="midnightblue" points="74.6623,-70.5805 64.2151,-72.3431 73.4812,-77.4802 74.6623,-70.5805"/>
</g>
<!-- Node2&#45;&gt;Node1 -->
<g id="edge2" class="edge"><title>Node2&#45;&gt;Node1</title>
<path fill="none" stroke="midnightblue" d="M96.4064,-112.066C72.0589,-99.5168 50.5966,-86.3666 39.9064,-76.6837"/>
<polygon fill="midnightblue" stroke="midnightblue" points="94.9885,-115.271 105.493,-116.654 98.144,-109.022 94.9885,-115.271"/>
</g>
<!-- Node3&#45;&gt;Node1 -->
<g id="edge4" class="edge"><title>Node3&#45;&gt;Node1</title>
<path fill="none" stroke="midnightblue" d="M111.303,-59.8126C96.4278,-63.0957 78.9073,-66.0692 64.2151,-67.7962"/>
<polygon fill="midnightblue" stroke="midnightblue" points="112.18,-63.2017 121.111,-57.5017 110.575,-56.3883 112.18,-63.2017"/>
</g>
<!-- Node4 -->
<g id="node4" class="node"><title>Node4</title>
<g id="a_node4"><a xlink:href="class_color.html#a237de6ef93ddb2985d87a6fb630a0828" target="_top" xlink:title="Modifie la valeur de la saturation ( system HSV ). ">
<polygon fill="white" stroke="black" points="226,-76.5 226,-95.5 330,-95.5 330,-76.5 226,-76.5"/>
<text text-anchor="middle" x="278" y="-83.5" font-family="Helvetica,sans-Serif" font-size="10.00">Color::setSaturation</text>
</a>
</g>
</g>
<!-- Node3&#45;&gt;Node4 -->
<g id="edge5" class="edge"><title>Node3&#45;&gt;Node4</title>
<path fill="none" stroke="midnightblue" d="M185.713,-59.5198C204.3,-64.9116 226.185,-71.2598 243.866,-76.3887"/>
<polygon fill="midnightblue" stroke="midnightblue" points="186.633,-56.1425 176.054,-56.718 184.683,-62.8654 186.633,-56.1425"/>
</g>
<!-- Node5 -->
<g id="node5" class="node"><title>Node5</title>
<g id="a_node5"><a xlink:href="class_color.html#a1b673b9755fa01412ea14a2f9c040185" target="_top" xlink:title="Modifie la valeur de la valeur ( system HSV ). ">
<polygon fill="white" stroke="black" points="236,-0.5 236,-19.5 320,-19.5 320,-0.5 236,-0.5"/>
<text text-anchor="middle" x="278" y="-7.5" font-family="Helvetica,sans-Serif" font-size="10.00">Color::setValue</text>
</a>
</g>
</g>
<!-- Node3&#45;&gt;Node5 -->
<g id="edge6" class="edge"><title>Node3&#45;&gt;Node5</title>
<path fill="none" stroke="midnightblue" d="M185.713,-36.4802C204.3,-31.0884 226.185,-24.7402 243.866,-19.6113"/>
<polygon fill="midnightblue" stroke="midnightblue" points="184.683,-33.1346 176.054,-39.282 186.633,-39.8575 184.683,-33.1346"/>
</g>
<!-- Node6&#45;&gt;Node5 -->
<g id="edge9" class="edge"><title>Node6&#45;&gt;Node5</title>
<path fill="none" stroke="midnightblue" d="M199.959,-10C211.927,-10 224.425,-10 235.787,-10"/>
<polygon fill="midnightblue" stroke="midnightblue" points="199.621,-6.5001 189.621,-10 199.621,-13.5001 199.621,-6.5001"/>
</g>
<!-- Node7 -->
<g id="node7" class="node"><title>Node7</title>
<g id="a_node7"><a xlink:href="class_color.html#a600727550b0b99ab9c67226be5aa70cb" target="_top" xlink:title="Modifie la valeur de la teinte ( systeme HSV ). ">
<polygon fill="white" stroke="black" points="239.5,-38.5 239.5,-57.5 316.5,-57.5 316.5,-38.5 239.5,-38.5"/>
<text text-anchor="middle" x="278" y="-45.5" font-family="Helvetica,sans-Serif" font-size="10.00">Color::setHue</text>
</a>
</g>
</g>
<!-- Node6&#45;&gt;Node7 -->
<g id="edge8" class="edge"><title>Node6&#45;&gt;Node7</title>
<path fill="none" stroke="midnightblue" d="M188.715,-22.3906C206.655,-27.5945 227.2,-33.5541 243.954,-38.4141"/>
<polygon fill="midnightblue" stroke="midnightblue" points="189.636,-19.0136 179.057,-19.589 187.686,-25.7364 189.636,-19.0136"/>
</g>
<!-- Node8&#45;&gt;Node4 -->
<g id="edge12" class="edge"><title>Node8&#45;&gt;Node4</title>
<path fill="none" stroke="midnightblue" d="M189.972,-86C201.475,-86 213.974,-86 225.817,-86"/>
<polygon fill="midnightblue" stroke="midnightblue" points="189.736,-82.5001 179.736,-86 189.736,-89.5001 189.736,-82.5001"/>
</g>
<!-- Node8&#45;&gt;Node7 -->
<g id="edge11" class="edge"><title>Node8&#45;&gt;Node7</title>
<path fill="none" stroke="midnightblue" d="M188.715,-73.6094C206.655,-68.4055 227.2,-62.4459 243.954,-57.5859"/>
<polygon fill="midnightblue" stroke="midnightblue" points="187.686,-70.2636 179.057,-76.411 189.636,-76.9864 187.686,-70.2636"/>
</g>
</g>
</svg>
