<?xml version="1.0" encoding="UTF-8" standalone="no"?>
<!DOCTYPE svg PUBLIC "-//W3C//DTD SVG 1.1//EN"
 "http://www.w3.org/Graphics/SVG/1.1/DTD/svg11.dtd">
<!-- Generated by graphviz version 2.36.0 (20140111.2315)
 -->
<!-- Title: GraphicsItem::setAnchor Pages: 1 -->
<!--zoomable 252 -->
<svg id="main" version="1.1" xmlns="http://www.w3.org/2000/svg" xmlns:xlink="http://www.w3.org/1999/xlink" xml:space="preserve" onload="init(evt)">
<style type="text/css"><![CDATA[
.edge:hover path { stroke: red; }
.edge:hover polygon { stroke: red; fill: red; }
]]></style>
<script type="text/javascript"><![CDATA[
var edges = document.getElementsByTagName('g');
if (edges && edges.length) {
  for (var i=0;i<edges.length;i++) {
    if (edges[i].id.substr(0,4)=='edge') {
      edges[i].setAttribute('class','edge');
    }
  }
}
]]></script>
        <defs>
                <circle id="rim" cx="0" cy="0" r="7"/>
                <circle id="rim2" cx="0" cy="0" r="3.5"/>
                <g id="zoomPlus">
                        <use xlink:href="#rim" fill="#404040">
                                <set attributeName="fill" to="#808080" begin="zoomplus.mouseover" end="zoomplus.mouseout"/>
                        </use>
                        <path d="M-4,0h8M0,-4v8" fill="none" stroke="white" stroke-width="1.5" pointer-events="none"/>
                </g>
                <g id="zoomMin">
                        <use xlink:href="#rim" fill="#404040">
                                <set attributeName="fill" to="#808080" begin="zoomminus.mouseover" end="zoomminus.mouseout"/>
                        </use>
                        <path d="M-4,0h8" fill="none" stroke="white" stroke-width="1.5" pointer-events="none"/>
                </g>
                <g id="dirArrow">
                        <path fill="none" stroke="white" stroke-width="1.5" d="M0,-3.0v7 M-2.5,-0.5L0,-3.0L2.5,-0.5"/>
                </g>
               <g id="resetDef">
                       <use xlink:href="#rim2" fill="#404040">
                               <set attributeName="fill" to="#808080" begin="reset.mouseover" end="reset.mouseout"/>
                       </use>
               </g>
        </defs>

<script type="text/javascript">
var viewWidth = 510;
var viewHeight = 252;
var sectionId = 'dynsection-25';
</script>
<script xlink:href="svgpan.js"/>
<svg id="graph" class="graph">
<g id="viewport">
<title>GraphicsItem::setAnchor</title>
<polygon fill="white" stroke="none" points="-4,4 -4,-248 506,-248 506,4 -4,4"/>
<!-- Node1 -->
<g id="node1" class="node"><title>Node1</title>
<polygon fill="#bfbfbf" stroke="black" points="0.5,-107.5 0.5,-126.5 125.5,-126.5 125.5,-107.5 0.5,-107.5"/>
<text text-anchor="middle" x="63" y="-114.5" font-family="Helvetica,sans-Serif" font-size="10.00">GraphicsItem::setAnchor</text>
</g>
<!-- Node2 -->
<g id="node2" class="node"><title>Node2</title>
<g id="a_node2"><a xlink:href="class_graphics_anchor.html#a0f45fbafec1062f51bf51bd7ed344aa2" target="_top" xlink:title="GraphicsAnchor::setAnchor">
<polygon fill="white" stroke="black" points="166.5,-202.5 166.5,-221.5 303.5,-221.5 303.5,-202.5 166.5,-202.5"/>
<text text-anchor="middle" x="235" y="-209.5" font-family="Helvetica,sans-Serif" font-size="10.00">GraphicsAnchor::setAnchor</text>
</a>
</g>
</g>
<!-- Node1&#45;&gt;Node2 -->
<g id="edge1" class="edge"><title>Node1&#45;&gt;Node2</title>
<path fill="none" stroke="midnightblue" d="M80.9814,-133.682C99.4486,-150.93 130.555,-177.467 162,-193 169.766,-196.836 178.399,-199.966 186.912,-202.496"/>
<polygon fill="midnightblue" stroke="midnightblue" points="83.3078,-131.064 73.6532,-126.701 78.4795,-136.133 83.3078,-131.064"/>
</g>
<!-- Node3 -->
<g id="node3" class="node"><title>Node3</title>
<g id="a_node3"><a xlink:href="class_graphics_anchor.html#a1dc0e27c411d6b4b11d70bd4d8ae1699" target="_top" xlink:title="GraphicsAnchor::setAbsolute">
<polygon fill="white" stroke="black" points="163,-164.5 163,-183.5 307,-183.5 307,-164.5 163,-164.5"/>
<text text-anchor="middle" x="235" y="-171.5" font-family="Helvetica,sans-Serif" font-size="10.00">GraphicsAnchor::setAbsolute</text>
</a>
</g>
</g>
<!-- Node1&#45;&gt;Node3 -->
<g id="edge2" class="edge"><title>Node1&#45;&gt;Node3</title>
<path fill="none" stroke="midnightblue" d="M96.0782,-130.484C115.06,-138.2 139.682,-147.754 162,-155 172.452,-158.394 183.9,-161.628 194.532,-164.435"/>
<polygon fill="midnightblue" stroke="midnightblue" points="97.2885,-127.198 86.7084,-126.639 94.631,-133.674 97.2885,-127.198"/>
</g>
<!-- Node4 -->
<g id="node4" class="node"><title>Node4</title>
<g id="a_node4"><a xlink:href="class_graphics_item.html#a3c84a47a2ccceebf2a2c8f5c4d5d609d" target="_top" xlink:title="GraphicsItem::setAbsolute">
<polygon fill="white" stroke="black" points="168.5,-126.5 168.5,-145.5 301.5,-145.5 301.5,-126.5 168.5,-126.5"/>
<text text-anchor="middle" x="235" y="-133.5" font-family="Helvetica,sans-Serif" font-size="10.00">GraphicsItem::setAbsolute</text>
</a>
</g>
</g>
<!-- Node1&#45;&gt;Node4 -->
<g id="edge3" class="edge"><title>Node1&#45;&gt;Node4</title>
<path fill="none" stroke="midnightblue" d="M136.059,-125.054C146.816,-126.256 157.857,-127.49 168.469,-128.676"/>
<polygon fill="midnightblue" stroke="midnightblue" points="136.182,-121.546 125.855,-123.913 135.404,-128.502 136.182,-121.546"/>
</g>
<!-- Node7 -->
<g id="node7" class="node"><title>Node7</title>
<g id="a_node7"><a xlink:href="class_main_window.html#a34c4b4207b46d11a4100c9b19f0e81bb" target="_top" xlink:title="MainWindow::MainWindow">
<polygon fill="white" stroke="black" points="355.5,-88.5 355.5,-107.5 490.5,-107.5 490.5,-88.5 355.5,-88.5"/>
<text text-anchor="middle" x="423" y="-95.5" font-family="Helvetica,sans-Serif" font-size="10.00">MainWindow::MainWindow</text>
</a>
</g>
</g>
<!-- Node1&#45;&gt;Node7 -->
<g id="edge11" class="edge"><title>Node1&#45;&gt;Node7</title>
<path fill="none" stroke="midnightblue" d="M135.573,-113.201C199.686,-109.799 292.983,-104.847 355.496,-101.53"/>
<polygon fill="midnightblue" stroke="midnightblue" points="135.343,-109.709 125.542,-113.734 135.714,-116.699 135.343,-109.709"/>
</g>
<!-- Node9 -->
<g id="node9" class="node"><title>Node9</title>
<g id="a_node9"><a xlink:href="class_graphics_item.html#aaa2937af237da890e836326ed882140d" target="_top" xlink:title="GraphicsItem::setPosition\lCorrector">
<polygon fill="white" stroke="black" points="170,-39 170,-69 300,-69 300,-39 170,-39"/>
<text text-anchor="start" x="178" y="-57" font-family="Helvetica,sans-Serif" font-size="10.00">GraphicsItem::setPosition</text>
<text text-anchor="middle" x="235" y="-46" font-family="Helvetica,sans-Serif" font-size="10.00">Corrector</text>
</a>
</g>
</g>
<!-- Node1&#45;&gt;Node9 -->
<g id="edge8" class="edge"><title>Node1&#45;&gt;Node9</title>
<path fill="none" stroke="midnightblue" d="M99.3925,-103.884C126.774,-93.7366 164.722,-79.6736 193.348,-69.065"/>
<polygon fill="midnightblue" stroke="midnightblue" points="97.9799,-100.675 89.8193,-107.432 100.412,-107.239 97.9799,-100.675"/>
</g>
<!-- Node11 -->
<g id="node11" class="node"><title>Node11</title>
<g id="a_node11"><a xlink:href="class_graphics_point.html#a8a4fca2ba81721420e4bdf318cc73c26" target="_top" xlink:title="GraphicsPoint::GraphicsPoint">
<polygon fill="white" stroke="black" points="162,-0.5 162,-19.5 308,-19.5 308,-0.5 162,-0.5"/>
<text text-anchor="middle" x="235" y="-7.5" font-family="Helvetica,sans-Serif" font-size="10.00">GraphicsPoint::GraphicsPoint</text>
</a>
</g>
</g>
<!-- Node1&#45;&gt;Node11 -->
<g id="edge10" class="edge"><title>Node1&#45;&gt;Node11</title>
<path fill="none" stroke="midnightblue" d="M78.5181,-99.732C96.2227,-79.7767 128.016,-47.3386 162,-29 169.168,-25.1322 177.168,-22.0173 185.157,-19.5192"/>
<polygon fill="midnightblue" stroke="midnightblue" points="75.7379,-97.5957 71.8277,-107.443 81.025,-102.183 75.7379,-97.5957"/>
</g>
<!-- Node5 -->
<g id="node5" class="node"><title>Node5</title>
<g id="a_node5"><a xlink:href="class_graphics_rectangle.html#a3efd2295cd742f75de829851bf7ca3dd" target="_top" xlink:title="GraphicsRectangle::\lsetWidth">
<polygon fill="white" stroke="black" points="370,-214 370,-244 476,-244 476,-214 370,-214"/>
<text text-anchor="start" x="378" y="-232" font-family="Helvetica,sans-Serif" font-size="10.00">GraphicsRectangle::</text>
<text text-anchor="middle" x="423" y="-221" font-family="Helvetica,sans-Serif" font-size="10.00">setWidth</text>
</a>
</g>
</g>
<!-- Node4&#45;&gt;Node5 -->
<g id="edge4" class="edge"><title>Node4&#45;&gt;Node5</title>
<path fill="none" stroke="midnightblue" d="M298.723,-149.638C301.962,-151.232 305.079,-153.012 308,-155 330.34,-170.205 322.064,-188.218 344,-204 351.734,-209.564 360.762,-213.928 369.878,-217.339"/>
<polygon fill="midnightblue" stroke="midnightblue" points="299.905,-146.338 289.334,-145.622 297.151,-152.773 299.905,-146.338"/>
</g>
<!-- Node6 -->
<g id="node6" class="node"><title>Node6</title>
<g id="a_node6"><a xlink:href="class_graphics_rectangle.html#aea349ac359e4f2227f1da772c1a26ab6" target="_top" xlink:title="GraphicsRectangle::\lsetHeight">
<polygon fill="white" stroke="black" points="370,-165 370,-195 476,-195 476,-165 370,-165"/>
<text text-anchor="start" x="378" y="-183" font-family="Helvetica,sans-Serif" font-size="10.00">GraphicsRectangle::</text>
<text text-anchor="middle" x="423" y="-172" font-family="Helvetica,sans-Serif" font-size="10.00">setHeight</text>
</a>
</g>
</g>
<!-- Node4&#45;&gt;Node6 -->
<g id="edge5" class="edge"><title>Node4&#45;&gt;Node6</title>
<path fill="none" stroke="midnightblue" d="M286.323,-147.904C312.151,-154.014 343.587,-161.451 369.694,-167.626"/>
<polygon fill="midnightblue" stroke="midnightblue" points="286.896,-144.443 276.359,-145.547 285.285,-151.255 286.896,-144.443"/>
</g>
<!-- Node4&#45;&gt;Node7 -->
<g id="edge6" class="edge"><title>Node4&#45;&gt;Node7</title>
<path fill="none" stroke="midnightblue" d="M292.825,-124.39C319.279,-118.986 350.358,-112.636 375.402,-107.52"/>
<polygon fill="midnightblue" stroke="midnightblue" points="292.033,-120.98 282.936,-126.411 293.434,-127.838 292.033,-120.98"/>
</g>
<!-- Node8 -->
<g id="node8" class="node"><title>Node8</title>
<g id="a_node8"><a xlink:href="class_main_window.html#a9d757a20b89a70d185449618234a770b" target="_top" xlink:title="MainWindow::mouseMoveEvent">
<polygon fill="white" stroke="black" points="344,-126.5 344,-145.5 502,-145.5 502,-126.5 344,-126.5"/>
<text text-anchor="middle" x="423" y="-133.5" font-family="Helvetica,sans-Serif" font-size="10.00">MainWindow::mouseMoveEvent</text>
</a>
</g>
</g>
<!-- Node4&#45;&gt;Node8 -->
<g id="edge7" class="edge"><title>Node4&#45;&gt;Node8</title>
<path fill="none" stroke="midnightblue" d="M311.666,-136C322.309,-136 333.267,-136 343.954,-136"/>
<polygon fill="midnightblue" stroke="midnightblue" points="311.577,-132.5 301.577,-136 311.577,-139.5 311.577,-132.5"/>
</g>
<!-- Node10 -->
<g id="node10" class="node"><title>Node10</title>
<g id="a_node10"><a xlink:href="class_graphics_square.html#a14374df804233349ce8654bbe41531e7" target="_top" xlink:title="GraphicsSquare::Graphics\lSquare">
<polygon fill="white" stroke="black" points="357.5,-39 357.5,-69 488.5,-69 488.5,-39 357.5,-39"/>
<text text-anchor="start" x="365.5" y="-57" font-family="Helvetica,sans-Serif" font-size="10.00">GraphicsSquare::Graphics</text>
<text text-anchor="middle" x="423" y="-46" font-family="Helvetica,sans-Serif" font-size="10.00">Square</text>
</a>
</g>
</g>
<!-- Node9&#45;&gt;Node10 -->
<g id="edge9" class="edge"><title>Node9&#45;&gt;Node10</title>
<path fill="none" stroke="midnightblue" d="M310.126,-54C325.709,-54 342.031,-54 357.24,-54"/>
<polygon fill="midnightblue" stroke="midnightblue" points="310.011,-50.5001 300.011,-54 310.011,-57.5001 310.011,-50.5001"/>
</g>
</g>
</svg>
        <g id="navigator" transform="translate(0 0)" fill="#404254">
                <rect fill="#f2f5e9" fill-opacity="0.5" stroke="#606060" stroke-width=".5" x="0" y="0" width="60" height="60"/>
                <use id="zoomplus" xlink:href="#zoomPlus" x="17" y="9" onmousedown="handleZoom(evt,'in')"/>
                <use id="zoomminus" xlink:href="#zoomMin" x="42" y="9" onmousedown="handleZoom(evt,'out')"/>
                <use id="reset" xlink:href="#resetDef" x="30" y="36" onmousedown="handleReset()"/>
                <g id="arrowUp" xlink:href="#dirArrow" transform="translate(30 24)" onmousedown="handlePan(0,-1)">
                  <use xlink:href="#rim" fill="#404040">
                        <set attributeName="fill" to="#808080" begin="arrowUp.mouseover" end="arrowUp.mouseout"/>
                  </use>
                  <path fill="none" stroke="white" stroke-width="1.5" d="M0,-3.0v7 M-2.5,-0.5L0,-3.0L2.5,-0.5"/>
                </g>
                <g id="arrowRight" xlink:href="#dirArrow" transform="rotate(90) translate(36 -43)" onmousedown="handlePan(1,0)">
                  <use xlink:href="#rim" fill="#404040">
                        <set attributeName="fill" to="#808080" begin="arrowRight.mouseover" end="arrowRight.mouseout"/>
                  </use>
                  <path fill="none" stroke="white" stroke-width="1.5" d="M0,-3.0v7 M-2.5,-0.5L0,-3.0L2.5,-0.5"/>
                </g>
                <g id="arrowDown" xlink:href="#dirArrow" transform="rotate(180) translate(-30 -48)" onmousedown="handlePan(0,1)">
                  <use xlink:href="#rim" fill="#404040">
                        <set attributeName="fill" to="#808080" begin="arrowDown.mouseover" end="arrowDown.mouseout"/>
                  </use>
                  <path fill="none" stroke="white" stroke-width="1.5" d="M0,-3.0v7 M-2.5,-0.5L0,-3.0L2.5,-0.5"/>
                </g>
                <g id="arrowLeft" xlink:href="#dirArrow" transform="rotate(270) translate(-36 17)" onmousedown="handlePan(-1,0)">
                  <use xlink:href="#rim" fill="#404040">
                        <set attributeName="fill" to="#808080" begin="arrowLeft.mouseover" end="arrowLeft.mouseout"/>
                  </use>
                  <path fill="none" stroke="white" stroke-width="1.5" d="M0,-3.0v7 M-2.5,-0.5L0,-3.0L2.5,-0.5"/>
                </g>
        </g>
        <svg viewBox="0 0 15 15" width="100%" height="30px" preserveAspectRatio="xMaxYMin meet">
         <g id="arrow_out" transform="scale(0.3 0.3)">
          <a xlink:href="class_graphics_item_ab1266d26ff6aa338959c0796ef915fc4_icgraph_org.svg" target="_base">
           <rect id="button" ry="5" rx="5" y="6" x="6" height="38" width="38"
                fill="#f2f5e9" fill-opacity="0.5" stroke="#606060" stroke-width="1.0"/>
           <path id="arrow"
             d="M 11.500037,31.436501 C 11.940474,20.09759 22.043105,11.32322 32.158766,21.979434 L 37.068811,17.246167 C 37.068811,17.246167 37.088388,32 37.088388,32 L 22.160133,31.978069 C 22.160133,31.978069 26.997745,27.140456 26.997745,27.140456 C 18.528582,18.264221 13.291696,25.230495 11.500037,31.436501 z"
             style="fill:#404040;"/>
          </a>
         </g>
        </svg>
</svg>
