<?xml version="1.0" encoding="UTF-8" standalone="no"?>
<!DOCTYPE svg PUBLIC "-//W3C//DTD SVG 1.1//EN"
 "http://www.w3.org/Graphics/SVG/1.1/DTD/svg11.dtd">
<!-- Generated by graphviz version 2.36.0 (20140111.2315)
 -->
<!-- Title: GraphicsCircle::center Pages: 1 -->
<svg width="284pt" height="77pt"
 viewBox="0.00 0.00 284.00 77.00" xmlns="http://www.w3.org/2000/svg" xmlns:xlink="http://www.w3.org/1999/xlink">
<g id="graph0" class="graph" transform="scale(1 1) rotate(0) translate(4 73)">
<title>GraphicsCircle::center</title>
<polygon fill="white" stroke="none" points="-4,4 -4,-73 280,-73 280,4 -4,4"/>
<!-- Node1 -->
<g id="node1" class="node"><title>Node1</title>
<polygon fill="#bfbfbf" stroke="black" points="0,-22.5 0,-41.5 114,-41.5 114,-22.5 0,-22.5"/>
<text text-anchor="middle" x="57" y="-29.5" font-family="Helvetica,sans-Serif" font-size="10.00">GraphicsCircle::center</text>
</g>
<!-- Node2 -->
<g id="node2" class="node"><title>Node2</title>
<g id="a_node2"><a xlink:href="class_graphics_circle.html#a0891443aab157c94f76ad425b7327b84" target="_top" xlink:title="GraphicsCircle::Graphics\lCircle">
<polygon fill="white" stroke="black" points="150,-39 150,-69 276,-69 276,-39 150,-39"/>
<text text-anchor="start" x="158" y="-57" font-family="Helvetica,sans-Serif" font-size="10.00">GraphicsCircle::Graphics</text>
<text text-anchor="middle" x="213" y="-46" font-family="Helvetica,sans-Serif" font-size="10.00">Circle</text>
</a>
</g>
</g>
<!-- Node1&#45;&gt;Node2 -->
<g id="edge1" class="edge"><title>Node1&#45;&gt;Node2</title>
<path fill="none" stroke="midnightblue" d="M123.967,-41.4238C132.523,-42.6462 141.265,-43.895 149.759,-45.1084"/>
<polygon fill="midnightblue" stroke="midnightblue" points="124.428,-37.9542 114.033,-40.0047 123.438,-44.8839 124.428,-37.9542"/>
</g>
<!-- Node3 -->
<g id="node3" class="node"><title>Node3</title>
<g id="a_node3"><a xlink:href="class_graphics_circle.html#a8533b7a4eb72f0063e98d8ad94210f16" target="_top" xlink:title="GraphicsCircle::meDraw">
<polygon fill="white" stroke="black" points="151,-0.5 151,-19.5 275,-19.5 275,-0.5 151,-0.5"/>
<text text-anchor="middle" x="213" y="-7.5" font-family="Helvetica,sans-Serif" font-size="10.00">GraphicsCircle::meDraw</text>
</a>
</g>
</g>
<!-- Node1&#45;&gt;Node3 -->
<g id="edge2" class="edge"><title>Node1&#45;&gt;Node3</title>
<path fill="none" stroke="midnightblue" d="M123.977,-22.5747C132.883,-21.3024 141.99,-20.0015 150.808,-18.7418"/>
<polygon fill="midnightblue" stroke="midnightblue" points="123.438,-19.1161 114.033,-23.9953 124.428,-26.0458 123.438,-19.1161"/>
</g>
</g>
</svg>
