<?xml version="1.0" encoding="UTF-8" standalone="no"?>
<!DOCTYPE svg PUBLIC "-//W3C//DTD SVG 1.1//EN"
 "http://www.w3.org/Graphics/SVG/1.1/DTD/svg11.dtd">
<!-- Generated by graphviz version 2.36.0 (20140111.2315)
 -->
<!-- Title: Point::~Point Pages: 1 -->
<svg width="652pt" height="272pt"
 viewBox="0.00 0.00 652.00 271.51" xmlns="http://www.w3.org/2000/svg" xmlns:xlink="http://www.w3.org/1999/xlink">
<g id="graph0" class="graph" transform="scale(1 1) rotate(0) translate(4 267.508)">
<title>Point::~Point</title>
<polygon fill="white" stroke="none" points="-4,4 -4,-267.508 648,-267.508 648,4 -4,4"/>
<!-- Node1 -->
<g id="node1" class="node"><title>Node1</title>
<polygon fill="#bfbfbf" stroke="black" points="0,-160.5 0,-179.5 74,-179.5 74,-160.5 0,-160.5"/>
<text text-anchor="middle" x="37" y="-167.5" font-family="Helvetica,sans-Serif" font-size="10.00">Point::~Point</text>
</g>
<!-- Node2 -->
<g id="node2" class="node"><title>Node2</title>
<g id="a_node2"><a xlink:href="class_point.html#a498f108de0c0351dfb3177c681a7a1f2" target="_top" xlink:title="Quitte le groupe auquel le point appartient. ">
<polygon fill="white" stroke="black" points="110,-160.5 110,-179.5 190,-179.5 190,-160.5 110,-160.5"/>
<text text-anchor="middle" x="150" y="-167.5" font-family="Helvetica,sans-Serif" font-size="10.00">Point::beAlone</text>
</a>
</g>
</g>
<!-- Node1&#45;&gt;Node2 -->
<g id="edge1" class="edge"><title>Node1&#45;&gt;Node2</title>
<path fill="none" stroke="midnightblue" d="M74.0385,-170C82.1394,-170 90.8736,-170 99.4185,-170"/>
<polygon fill="midnightblue" stroke="midnightblue" points="99.6923,-173.5 109.692,-170 99.6922,-166.5 99.6923,-173.5"/>
</g>
<!-- Node3 -->
<g id="node3" class="node"><title>Node3</title>
<g id="a_node3"><a xlink:href="class_point.html#a64a5fe8c9b1d1a1543aaa64031537380" target="_top" xlink:title="Indique si le point n&#39;appartient pas à un groupe. ">
<polygon fill="white" stroke="black" points="566.5,-94.5 566.5,-113.5 643.5,-113.5 643.5,-94.5 566.5,-94.5"/>
<text text-anchor="middle" x="605" y="-101.5" font-family="Helvetica,sans-Serif" font-size="10.00">Point::isAlone</text>
</a>
</g>
</g>
<!-- Node2&#45;&gt;Node3 -->
<g id="edge2" class="edge"><title>Node2&#45;&gt;Node3</title>
<path fill="none" stroke="midnightblue" d="M163.672,-179.639C202.859,-208.224 325.497,-288.501 426,-255 500.464,-230.179 564.145,-156.477 590.733,-122.07"/>
<polygon fill="midnightblue" stroke="midnightblue" points="593.709,-123.937 596.953,-113.85 588.128,-119.712 593.709,-123.937"/>
</g>
<!-- Node4 -->
<g id="node4" class="node"><title>Node4</title>
<g id="a_node4"><a xlink:href="class_point.html#a2aa897aa68c2f3e6df3a46738f27a0ac" target="_top" xlink:title="Donne l&#39;abscisse du point par rapport à son origine. ">
<polygon fill="white" stroke="black" points="349,-208.5 349,-227.5 399,-227.5 399,-208.5 349,-208.5"/>
<text text-anchor="middle" x="374" y="-215.5" font-family="Helvetica,sans-Serif" font-size="10.00">Point::x</text>
</a>
</g>
</g>
<!-- Node2&#45;&gt;Node4 -->
<g id="edge3" class="edge"><title>Node2&#45;&gt;Node4</title>
<path fill="none" stroke="midnightblue" d="M190.178,-178.471C232.432,-187.607 299.018,-202.004 339.1,-210.67"/>
<polygon fill="midnightblue" stroke="midnightblue" points="338.417,-214.103 348.931,-212.796 339.897,-207.262 338.417,-214.103"/>
</g>
<!-- Node7 -->
<g id="node7" class="node"><title>Node7</title>
<g id="a_node7"><a xlink:href="class_point.html#a2226d8a3fb283b0b3c1f69106df144ba" target="_top" xlink:title="Donne l&#39;ordonnée du point par rapport à son origine. ">
<polygon fill="white" stroke="black" points="349,-0.5 349,-19.5 399,-19.5 399,-0.5 349,-0.5"/>
<text text-anchor="middle" x="374" y="-7.5" font-family="Helvetica,sans-Serif" font-size="10.00">Point::y</text>
</a>
</g>
</g>
<!-- Node2&#45;&gt;Node7 -->
<g id="edge9" class="edge"><title>Node2&#45;&gt;Node7</title>
<path fill="none" stroke="midnightblue" d="M164.222,-160.47C201.152,-133.855 305.666,-58.5293 351.269,-25.6622"/>
<polygon fill="midnightblue" stroke="midnightblue" points="353.5,-28.3683 359.566,-19.6819 349.407,-22.6895 353.5,-28.3683"/>
</g>
<!-- Node8 -->
<g id="node8" class="node"><title>Node8</title>
<g id="a_node8"><a xlink:href="class_point.html#a43923c490fb5439d7d8a041e86520c34" target="_top" xlink:title="Modifie les coordonnées du point par rapport à son origine. ">
<polygon fill="white" stroke="black" points="226.5,-132.5 226.5,-151.5 285.5,-151.5 285.5,-132.5 226.5,-132.5"/>
<text text-anchor="middle" x="256" y="-139.5" font-family="Helvetica,sans-Serif" font-size="10.00">Point::set</text>
</a>
</g>
</g>
<!-- Node2&#45;&gt;Node8 -->
<g id="edge13" class="edge"><title>Node2&#45;&gt;Node8</title>
<path fill="none" stroke="midnightblue" d="M186.5,-160.442C196.108,-157.856 206.555,-155.043 216.328,-152.412"/>
<polygon fill="midnightblue" stroke="midnightblue" points="217.459,-155.732 226.205,-149.753 215.639,-148.973 217.459,-155.732"/>
</g>
<!-- Node4&#45;&gt;Node3 -->
<g id="edge4" class="edge"><title>Node4&#45;&gt;Node3</title>
<path fill="none" stroke="midnightblue" d="M399.137,-209.758C407.719,-206.631 417.386,-202.882 426,-199 482.046,-173.74 544.903,-138.466 578.892,-118.78"/>
<polygon fill="midnightblue" stroke="midnightblue" points="580.803,-121.718 587.684,-113.662 577.281,-115.668 580.803,-121.718"/>
</g>
<!-- Node4&#45;&gt;Node4 -->
<g id="edge8" class="edge"><title>Node4&#45;&gt;Node4</title>
<path fill="none" stroke="midnightblue" d="M355.813,-227.757C346.965,-236.565 353.027,-246 374,-246 387.436,-246 394.752,-242.128 395.949,-237.029"/>
<polygon fill="midnightblue" stroke="midnightblue" points="399.19,-235.707 392.187,-227.757 392.704,-238.339 399.19,-235.707"/>
</g>
<!-- Node5 -->
<g id="node5" class="node"><title>Node5</title>
<g id="a_node5"><a xlink:href="class_point.html#afa7d33502738b0b3df186a91e11ff2a8" target="_top" xlink:title="Donne l&#39;origine du point. ">
<polygon fill="white" stroke="black" points="462,-56.5 462,-75.5 530,-75.5 530,-56.5 462,-56.5"/>
<text text-anchor="middle" x="496" y="-63.5" font-family="Helvetica,sans-Serif" font-size="10.00">Point::origin</text>
</a>
</g>
</g>
<!-- Node4&#45;&gt;Node5 -->
<g id="edge5" class="edge"><title>Node4&#45;&gt;Node5</title>
<path fill="none" stroke="midnightblue" d="M399.025,-212.992C408.277,-210.118 418.429,-205.7 426,-199 461.411,-167.664 481.323,-113.771 489.893,-85.1549"/>
<polygon fill="midnightblue" stroke="midnightblue" points="493.263,-86.1007 492.631,-75.5247 486.529,-84.1865 493.263,-86.1007"/>
</g>
<!-- Node5&#45;&gt;Node3 -->
<g id="edge6" class="edge"><title>Node5&#45;&gt;Node3</title>
<path fill="none" stroke="midnightblue" d="M524.001,-75.589C537.18,-80.2694 553.229,-85.9692 567.484,-91.0315"/>
<polygon fill="midnightblue" stroke="midnightblue" points="566.413,-94.3656 577.008,-94.4141 568.756,-87.7692 566.413,-94.3656"/>
</g>
<!-- Node6 -->
<g id="node6" class="node"><title>Node6</title>
<g id="a_node6"><a xlink:href="class_point.html#a97edc6e6415d6ccc6efcff5fcbc97f15" target="_top" xlink:title="Construit un point avec les coordonnées nulles. ">
<polygon fill="white" stroke="black" points="571,-56.5 571,-75.5 639,-75.5 639,-56.5 571,-56.5"/>
<text text-anchor="middle" x="605" y="-63.5" font-family="Helvetica,sans-Serif" font-size="10.00">Point::Point</text>
</a>
</g>
</g>
<!-- Node5&#45;&gt;Node6 -->
<g id="edge7" class="edge"><title>Node5&#45;&gt;Node6</title>
<path fill="none" stroke="midnightblue" d="M530.269,-66C539.831,-66 550.403,-66 560.485,-66"/>
<polygon fill="midnightblue" stroke="midnightblue" points="560.752,-69.5001 570.752,-66 560.752,-62.5001 560.752,-69.5001"/>
</g>
<!-- Node7&#45;&gt;Node3 -->
<g id="edge10" class="edge"><title>Node7&#45;&gt;Node3</title>
<path fill="none" stroke="midnightblue" d="M399.138,-11.5009C431.032,-14.3971 488.066,-22.802 530,-47 550.15,-58.6276 547.312,-71.1433 566,-85 568.074,-86.5376 570.291,-88.01 572.573,-89.4061"/>
<polygon fill="midnightblue" stroke="midnightblue" points="571.094,-92.5884 581.534,-94.3903 574.496,-86.4709 571.094,-92.5884"/>
</g>
<!-- Node7&#45;&gt;Node5 -->
<g id="edge11" class="edge"><title>Node7&#45;&gt;Node5</title>
<path fill="none" stroke="midnightblue" d="M395.629,-19.6267C414.892,-28.6162 443.849,-42.1294 465.542,-52.2529"/>
<polygon fill="midnightblue" stroke="midnightblue" points="464.098,-55.4416 474.64,-56.4989 467.059,-49.0983 464.098,-55.4416"/>
</g>
<!-- Node7&#45;&gt;Node7 -->
<g id="edge12" class="edge"><title>Node7&#45;&gt;Node7</title>
<path fill="none" stroke="midnightblue" d="M355.813,-19.7571C346.965,-28.5653 353.027,-38 374,-38 387.436,-38 394.752,-34.128 395.949,-29.0292"/>
<polygon fill="midnightblue" stroke="midnightblue" points="399.19,-27.7074 392.187,-19.7571 392.704,-30.3393 399.19,-27.7074"/>
</g>
<!-- Node8&#45;&gt;Node3 -->
<g id="edge14" class="edge"><title>Node8&#45;&gt;Node3</title>
<path fill="none" stroke="midnightblue" d="M284.839,-132.419C296.227,-128.881 309.614,-125.201 322,-123 403.413,-108.536 499.834,-104.881 556.23,-104.073"/>
<polygon fill="midnightblue" stroke="midnightblue" points="556.324,-107.572 566.282,-103.953 556.24,-100.572 556.324,-107.572"/>
</g>
<!-- Node8&#45;&gt;Node4 -->
<g id="edge15" class="edge"><title>Node8&#45;&gt;Node4</title>
<path fill="none" stroke="midnightblue" d="M265.833,-151.677C277.607,-164.091 299.577,-185.612 322,-199 327.301,-202.165 333.219,-204.952 339.093,-207.348"/>
<polygon fill="midnightblue" stroke="midnightblue" points="338.229,-210.763 348.821,-211.009 340.694,-204.211 338.229,-210.763"/>
</g>
<!-- Node8&#45;&gt;Node5 -->
<g id="edge16" class="edge"><title>Node8&#45;&gt;Node5</title>
<path fill="none" stroke="midnightblue" d="M265.625,-132.471C277.174,-120.389 298.901,-99.9378 322,-90 363.576,-72.1125 415.484,-66.925 451.54,-65.7088"/>
<polygon fill="midnightblue" stroke="midnightblue" points="451.819,-69.2031 461.729,-65.4563 451.645,-62.2052 451.819,-69.2031"/>
</g>
<!-- Node8&#45;&gt;Node7 -->
<g id="edge17" class="edge"><title>Node8&#45;&gt;Node7</title>
<path fill="none" stroke="midnightblue" d="M262.736,-132.463C273.274,-115.344 296.94,-78.7028 322,-52 330.894,-42.5228 341.907,-33.2067 351.42,-25.7659"/>
<polygon fill="midnightblue" stroke="midnightblue" points="353.798,-28.3539 359.631,-19.5089 349.555,-22.7862 353.798,-28.3539"/>
</g>
<!-- Node9 -->
<g id="node9" class="node"><title>Node9</title>
<g id="a_node9"><a xlink:href="jquery_8js.html#a2335e57f79b6acfb6de59c235dc8a83e" target="_top" xlink:title="p">
<polygon fill="white" stroke="black" points="359.5,-170.5 359.5,-189.5 388.5,-189.5 388.5,-170.5 359.5,-170.5"/>
<text text-anchor="middle" x="374" y="-177.5" font-family="Helvetica,sans-Serif" font-size="10.00">p</text>
</a>
</g>
</g>
<!-- Node8&#45;&gt;Node9 -->
<g id="edge18" class="edge"><title>Node8&#45;&gt;Node9</title>
<path fill="none" stroke="midnightblue" d="M285.674,-151.393C305.395,-157.854 331.255,-166.325 349.705,-172.369"/>
<polygon fill="midnightblue" stroke="midnightblue" points="348.765,-175.744 359.358,-175.531 350.944,-169.092 348.765,-175.744"/>
</g>
<!-- Node10 -->
<g id="node10" class="node"><title>Node10</title>
<g id="a_node10"><a xlink:href="class_group_points.html#a5d0d00417a192136922c27c8ce8ff98f" target="_top" xlink:title="GroupPoints::points">
<polygon fill="white" stroke="black" points="322.5,-132.5 322.5,-151.5 425.5,-151.5 425.5,-132.5 322.5,-132.5"/>
<text text-anchor="middle" x="374" y="-139.5" font-family="Helvetica,sans-Serif" font-size="10.00">GroupPoints::points</text>
</a>
</g>
</g>
<!-- Node8&#45;&gt;Node10 -->
<g id="edge19" class="edge"><title>Node8&#45;&gt;Node10</title>
<path fill="none" stroke="midnightblue" d="M285.674,-142C293.669,-142 302.672,-142 311.781,-142"/>
<polygon fill="midnightblue" stroke="midnightblue" points="312.063,-145.5 322.063,-142 312.063,-138.5 312.063,-145.5"/>
</g>
</g>
</svg>
