<?xml version="1.0" encoding="UTF-8" standalone="no"?>
<!DOCTYPE svg PUBLIC "-//W3C//DTD SVG 1.1//EN"
 "http://www.w3.org/Graphics/SVG/1.1/DTD/svg11.dtd">
<!-- Generated by graphviz version 2.36.0 (20140111.2315)
 -->
<!-- Title: GraphicsAnchor::GraphicsAnchor Pages: 1 -->
<svg width="432pt" height="38pt"
 viewBox="0.00 0.00 432.00 38.00" xmlns="http://www.w3.org/2000/svg" xmlns:xlink="http://www.w3.org/1999/xlink">
<g id="graph0" class="graph" transform="scale(1 1) rotate(0) translate(4 34)">
<title>GraphicsAnchor::GraphicsAnchor</title>
<polygon fill="white" stroke="none" points="-4,4 -4,-34 428,-34 428,4 -4,4"/>
<!-- Node1 -->
<g id="node1" class="node"><title>Node1</title>
<polygon fill="#bfbfbf" stroke="black" points="0.5,-0 0.5,-30 131.5,-30 131.5,-0 0.5,-0"/>
<text text-anchor="start" x="8.5" y="-18" font-family="Helvetica,sans-Serif" font-size="10.00">GraphicsAnchor::Graphics</text>
<text text-anchor="middle" x="66" y="-7" font-family="Helvetica,sans-Serif" font-size="10.00">Anchor</text>
</g>
<!-- Node2 -->
<g id="node2" class="node"><title>Node2</title>
<g id="a_node2"><a xlink:href="class_graphics_item.html#ac2a3edbc5d5628a75918d512314f33c3" target="_top" xlink:title="GraphicsItem::setColor">
<polygon fill="white" stroke="black" points="168,-5.5 168,-24.5 286,-24.5 286,-5.5 168,-5.5"/>
<text text-anchor="middle" x="227" y="-12.5" font-family="Helvetica,sans-Serif" font-size="10.00">GraphicsItem::setColor</text>
</a>
</g>
</g>
<!-- Node1&#45;&gt;Node2 -->
<g id="edge1" class="edge"><title>Node1&#45;&gt;Node2</title>
<path fill="none" stroke="midnightblue" d="M131.671,-15C140.261,-15 149.09,-15 157.738,-15"/>
<polygon fill="midnightblue" stroke="midnightblue" points="157.782,-18.5001 167.782,-15 157.782,-11.5001 157.782,-18.5001"/>
</g>
<!-- Node3 -->
<g id="node3" class="node"><title>Node3</title>
<g id="a_node3"><a xlink:href="class_graphics_item.html#a29aeb3047cd596ecedf48f565293dbc2" target="_top" xlink:title="GraphicsItem::color">
<polygon fill="white" stroke="black" points="322,-5.5 322,-24.5 424,-24.5 424,-5.5 322,-5.5"/>
<text text-anchor="middle" x="373" y="-12.5" font-family="Helvetica,sans-Serif" font-size="10.00">GraphicsItem::color</text>
</a>
</g>
</g>
<!-- Node2&#45;&gt;Node3 -->
<g id="edge2" class="edge"><title>Node2&#45;&gt;Node3</title>
<path fill="none" stroke="midnightblue" d="M286.155,-15C294.59,-15 303.289,-15 311.764,-15"/>
<polygon fill="midnightblue" stroke="midnightblue" points="311.958,-18.5001 321.958,-15 311.958,-11.5001 311.958,-18.5001"/>
</g>
</g>
</svg>
