<?xml version="1.0" encoding="UTF-8" standalone="no"?>
<!DOCTYPE svg PUBLIC "-//W3C//DTD SVG 1.1//EN"
 "http://www.w3.org/Graphics/SVG/1.1/DTD/svg11.dtd">
<!-- Generated by graphviz version 2.36.0 (20140111.2315)
 -->
<!-- Title: Color::red Pages: 1 -->
<!--zoomable 142 -->
<svg id="main" version="1.1" xmlns="http://www.w3.org/2000/svg" xmlns:xlink="http://www.w3.org/1999/xlink" xml:space="preserve" onload="init(evt)">
<style type="text/css"><![CDATA[
.edge:hover path { stroke: red; }
.edge:hover polygon { stroke: red; fill: red; }
]]></style>
<script type="text/javascript"><![CDATA[
var edges = document.getElementsByTagName('g');
if (edges && edges.length) {
  for (var i=0;i<edges.length;i++) {
    if (edges[i].id.substr(0,4)=='edge') {
      edges[i].setAttribute('class','edge');
    }
  }
}
]]></script>
        <defs>
                <circle id="rim" cx="0" cy="0" r="7"/>
                <circle id="rim2" cx="0" cy="0" r="3.5"/>
                <g id="zoomPlus">
                        <use xlink:href="#rim" fill="#404040">
                                <set attributeName="fill" to="#808080" begin="zoomplus.mouseover" end="zoomplus.mouseout"/>
                        </use>
                        <path d="M-4,0h8M0,-4v8" fill="none" stroke="white" stroke-width="1.5" pointer-events="none"/>
                </g>
                <g id="zoomMin">
                        <use xlink:href="#rim" fill="#404040">
                                <set attributeName="fill" to="#808080" begin="zoomminus.mouseover" end="zoomminus.mouseout"/>
                        </use>
                        <path d="M-4,0h8" fill="none" stroke="white" stroke-width="1.5" pointer-events="none"/>
                </g>
                <g id="dirArrow">
                        <path fill="none" stroke="white" stroke-width="1.5" d="M0,-3.0v7 M-2.5,-0.5L0,-3.0L2.5,-0.5"/>
                </g>
               <g id="resetDef">
                       <use xlink:href="#rim2" fill="#404040">
                               <set attributeName="fill" to="#808080" begin="reset.mouseover" end="reset.mouseout"/>
                       </use>
               </g>
        </defs>

<script type="text/javascript">
var viewWidth = 532;
var viewHeight = 142;
var sectionId = 'dynsection-13';
</script>
<script xlink:href="svgpan.js"/>
<svg id="graph" class="graph">
<g id="viewport">
<title>Color::red</title>
<polygon fill="white" stroke="none" points="-4,4 -4,-138 528,-138 528,4 -4,4"/>
<!-- Node1 -->
<g id="node1" class="node"><title>Node1</title>
<polygon fill="#bfbfbf" stroke="black" points="0.5,-57.5 0.5,-76.5 59.5,-76.5 59.5,-57.5 0.5,-57.5"/>
<text text-anchor="middle" x="30" y="-64.5" font-family="Helvetica,sans-Serif" font-size="10.00">Color::red</text>
</g>
<!-- Node2 -->
<g id="node2" class="node"><title>Node2</title>
<g id="a_node2"><a xlink:href="class_color.html#ac99b62f877393bbadfeee7170eb31ecd" target="_top" xlink:title="Recupere la valeur de teinte ( systeme HSV ). ">
<polygon fill="white" stroke="black" points="96,-57.5 96,-76.5 158,-76.5 158,-57.5 96,-57.5"/>
<text text-anchor="middle" x="127" y="-64.5" font-family="Helvetica,sans-Serif" font-size="10.00">Color::hue</text>
</a>
</g>
</g>
<!-- Node1&#45;&gt;Node2 -->
<g id="edge1" class="edge"><title>Node1&#45;&gt;Node2</title>
<path fill="none" stroke="midnightblue" d="M69.5323,-67C78.3055,-67 87.5022,-67 95.866,-67"/>
<polygon fill="midnightblue" stroke="midnightblue" points="69.5032,-63.5001 59.5031,-67 69.5031,-70.5001 69.5032,-63.5001"/>
</g>
<!-- Node5 -->
<g id="node5" class="node"><title>Node5</title>
<g id="a_node5"><a xlink:href="class_color.html#a9e232063ef1dfe5e98970700db822561" target="_top" xlink:title="Recupere la valeur de saturation ( system HSV ). ">
<polygon fill="white" stroke="black" points="294.5,-95.5 294.5,-114.5 383.5,-114.5 383.5,-95.5 294.5,-95.5"/>
<text text-anchor="middle" x="339" y="-102.5" font-family="Helvetica,sans-Serif" font-size="10.00">Color::saturation</text>
</a>
</g>
</g>
<!-- Node1&#45;&gt;Node5 -->
<g id="edge14" class="edge"><title>Node1&#45;&gt;Node5</title>
<path fill="none" stroke="midnightblue" d="M68.5805,-79.4095C77.4855,-81.9518 87.0098,-84.3513 96,-86 164.603,-98.5806 245.646,-102.836 294.373,-104.272"/>
<polygon fill="midnightblue" stroke="midnightblue" points="69.4343,-76.0119 58.8512,-76.5109 67.4356,-82.7205 69.4343,-76.0119"/>
</g>
<!-- Node8 -->
<g id="node8" class="node"><title>Node8</title>
<g id="a_node8"><a xlink:href="class_color.html#ae8cb1f2e0c1424555e2f606ba9d21e57" target="_top" xlink:title="Recupere la valeur de la valeur ( system HSV ). ">
<polygon fill="white" stroke="black" points="304.5,-19.5 304.5,-38.5 373.5,-38.5 373.5,-19.5 304.5,-19.5"/>
<text text-anchor="middle" x="339" y="-26.5" font-family="Helvetica,sans-Serif" font-size="10.00">Color::value</text>
</a>
</g>
</g>
<!-- Node1&#45;&gt;Node8 -->
<g id="edge15" class="edge"><title>Node1&#45;&gt;Node8</title>
<path fill="none" stroke="midnightblue" d="M68.5805,-54.5905C77.4855,-52.0482 87.0098,-49.6487 96,-48 169.577,-34.5072 257.464,-30.5909 304.446,-29.4578"/>
<polygon fill="midnightblue" stroke="midnightblue" points="67.4356,-51.2795 58.8512,-57.4891 69.4343,-57.9881 67.4356,-51.2795"/>
</g>
<!-- Node3 -->
<g id="node3" class="node"><title>Node3</title>
<g id="a_node3"><a xlink:href="class_color.html#ab8c3999a34eecf3ee1bfaced2b458cd6" target="_top" xlink:title="Recupere la valeur de la troisieme couleur ( systeme RGB ). ">
<polygon fill="white" stroke="black" points="194,-57.5 194,-76.5 258,-76.5 258,-57.5 194,-57.5"/>
<text text-anchor="middle" x="226" y="-64.5" font-family="Helvetica,sans-Serif" font-size="10.00">Color::blue</text>
</a>
</g>
</g>
<!-- Node2&#45;&gt;Node3 -->
<g id="edge2" class="edge"><title>Node2&#45;&gt;Node3</title>
<path fill="none" stroke="midnightblue" d="M168.318,-60.3361C176.848,-60.155 185.726,-60.2596 193.854,-60.6497"/>
<polygon fill="midnightblue" stroke="midnightblue" points="168.028,-56.8441 158.16,-60.6987 168.278,-63.8397 168.028,-56.8441"/>
</g>
<!-- Node7 -->
<g id="node7" class="node"><title>Node7</title>
<g id="a_node7"><a xlink:href="class_color.html#a1b673b9755fa01412ea14a2f9c040185" target="_top" xlink:title="Modifie la valeur de la valeur ( system HSV ). ">
<polygon fill="white" stroke="black" points="430,-114.5 430,-133.5 514,-133.5 514,-114.5 430,-114.5"/>
<text text-anchor="middle" x="472" y="-121.5" font-family="Helvetica,sans-Serif" font-size="10.00">Color::setValue</text>
</a>
</g>
</g>
<!-- Node2&#45;&gt;Node7 -->
<g id="edge13" class="edge"><title>Node2&#45;&gt;Node7</title>
<path fill="none" stroke="midnightblue" d="M158.062,-80.715C190.725,-94.8025 244.836,-115.794 294,-124 340.071,-131.689 393.832,-130.248 429.91,-127.807"/>
<polygon fill="midnightblue" stroke="midnightblue" points="159.207,-77.3954 148.643,-76.5864 156.397,-83.8066 159.207,-77.3954"/>
</g>
<!-- Node9 -->
<g id="node9" class="node"><title>Node9</title>
<g id="a_node9"><a xlink:href="class_color.html#a237de6ef93ddb2985d87a6fb630a0828" target="_top" xlink:title="Modifie la valeur de la saturation ( system HSV ). ">
<polygon fill="white" stroke="black" points="420,-0.5 420,-19.5 524,-19.5 524,-0.5 420,-0.5"/>
<text text-anchor="middle" x="472" y="-7.5" font-family="Helvetica,sans-Serif" font-size="10.00">Color::setSaturation</text>
</a>
</g>
</g>
<!-- Node2&#45;&gt;Node9 -->
<g id="edge12" class="edge"><title>Node2&#45;&gt;Node9</title>
<path fill="none" stroke="midnightblue" d="M158.062,-53.285C190.725,-39.1975 244.836,-18.2057 294,-10 335.979,-2.9935 384.343,-3.56825 419.896,-5.57189"/>
<polygon fill="midnightblue" stroke="midnightblue" points="156.397,-50.1934 148.643,-57.4136 159.207,-56.6046 156.397,-50.1934"/>
</g>
<!-- Node3&#45;&gt;Node2 -->
<g id="edge5" class="edge"><title>Node3&#45;&gt;Node2</title>
<path fill="none" stroke="midnightblue" d="M183.641,-73.6845C175.085,-73.8424 166.226,-73.7147 158.16,-73.3013"/>
<polygon fill="midnightblue" stroke="midnightblue" points="183.974,-77.1756 193.854,-73.3503 183.745,-70.1794 183.974,-77.1756"/>
</g>
<!-- Node4 -->
<g id="node4" class="node"><title>Node4</title>
<g id="a_node4"><a xlink:href="class_color.html#ae752d55b3758a7181fd3c201ab87ca3b" target="_top" xlink:title="Modifie la valeur de la troisieme couleur ( systeme RGB ). ">
<polygon fill="white" stroke="black" points="299.5,-57.5 299.5,-76.5 378.5,-76.5 378.5,-57.5 299.5,-57.5"/>
<text text-anchor="middle" x="339" y="-64.5" font-family="Helvetica,sans-Serif" font-size="10.00">Color::setBlue</text>
</a>
</g>
</g>
<!-- Node3&#45;&gt;Node4 -->
<g id="edge3" class="edge"><title>Node3&#45;&gt;Node4</title>
<path fill="none" stroke="midnightblue" d="M268.396,-60.4476C278.453,-60.1601 289.172,-60.1863 299.108,-60.5261"/>
<polygon fill="midnightblue" stroke="midnightblue" points="268.065,-56.958 258.215,-60.8607 268.349,-63.9523 268.065,-56.958"/>
</g>
<!-- Node3&#45;&gt;Node5 -->
<g id="edge6" class="edge"><title>Node3&#45;&gt;Node5</title>
<path fill="none" stroke="midnightblue" d="M264.891,-79.9718C279.68,-85.0344 296.329,-90.7341 309.999,-95.4141"/>
<polygon fill="midnightblue" stroke="midnightblue" points="265.605,-76.5166 255.01,-76.589 263.337,-83.1393 265.605,-76.5166"/>
</g>
<!-- Node3&#45;&gt;Node8 -->
<g id="edge9" class="edge"><title>Node3&#45;&gt;Node8</title>
<path fill="none" stroke="midnightblue" d="M264.891,-54.0282C279.68,-48.9656 296.329,-43.2659 309.999,-38.5859"/>
<polygon fill="midnightblue" stroke="midnightblue" points="263.337,-50.8607 255.01,-57.411 265.605,-57.4834 263.337,-50.8607"/>
</g>
<!-- Node4&#45;&gt;Node3 -->
<g id="edge4" class="edge"><title>Node4&#45;&gt;Node3</title>
<path fill="none" stroke="midnightblue" d="M288.856,-73.7105C278.448,-73.8404 267.737,-73.65 258.215,-73.1393"/>
<polygon fill="midnightblue" stroke="midnightblue" points="289.192,-77.2038 299.108,-73.4739 289.03,-70.2056 289.192,-77.2038"/>
</g>
<!-- Node6 -->
<g id="node6" class="node"><title>Node6</title>
<g id="a_node6"><a xlink:href="class_color.html#a600727550b0b99ab9c67226be5aa70cb" target="_top" xlink:title="Modifie la valeur de la teinte ( systeme HSV ). ">
<polygon fill="white" stroke="black" points="433.5,-38.5 433.5,-57.5 510.5,-57.5 510.5,-38.5 433.5,-38.5"/>
<text text-anchor="middle" x="472" y="-45.5" font-family="Helvetica,sans-Serif" font-size="10.00">Color::setHue</text>
</a>
</g>
</g>
<!-- Node5&#45;&gt;Node6 -->
<g id="edge7" class="edge"><title>Node5&#45;&gt;Node6</title>
<path fill="none" stroke="midnightblue" d="M371.79,-91.291C375.9,-89.5135 380.05,-87.7153 384,-86 406.223,-76.3485 431.611,-65.2515 449.201,-57.5514"/>
<polygon fill="midnightblue" stroke="midnightblue" points="370.183,-88.1727 362.392,-95.3523 372.96,-94.5985 370.183,-88.1727"/>
</g>
<!-- Node5&#45;&gt;Node7 -->
<g id="edge8" class="edge"><title>Node5&#45;&gt;Node7</title>
<path fill="none" stroke="midnightblue" d="M393.597,-112.774C405.674,-114.525 418.31,-116.358 429.787,-118.023"/>
<polygon fill="midnightblue" stroke="midnightblue" points="394.02,-109.298 383.621,-111.327 393.015,-116.226 394.02,-109.298"/>
</g>
<!-- Node8&#45;&gt;Node6 -->
<g id="edge10" class="edge"><title>Node8&#45;&gt;Node6</title>
<path fill="none" stroke="midnightblue" d="M383.915,-35.3693C399.899,-37.6876 417.813,-40.2859 433.219,-42.5203"/>
<polygon fill="midnightblue" stroke="midnightblue" points="384.135,-31.8647 373.736,-33.893 383.13,-38.7922 384.135,-31.8647"/>
</g>
<!-- Node8&#45;&gt;Node9 -->
<g id="edge11" class="edge"><title>Node8&#45;&gt;Node9</title>
<path fill="none" stroke="midnightblue" d="M383.972,-22.6224C395.475,-20.954 407.974,-19.1412 419.817,-17.4235"/>
<polygon fill="midnightblue" stroke="midnightblue" points="383.13,-19.2078 373.736,-24.107 384.135,-26.1353 383.13,-19.2078"/>
</g>
</g>
</svg>
        <g id="navigator" transform="translate(0 0)" fill="#404254">
                <rect fill="#f2f5e9" fill-opacity="0.5" stroke="#606060" stroke-width=".5" x="0" y="0" width="60" height="60"/>
                <use id="zoomplus" xlink:href="#zoomPlus" x="17" y="9" onmousedown="handleZoom(evt,'in')"/>
                <use id="zoomminus" xlink:href="#zoomMin" x="42" y="9" onmousedown="handleZoom(evt,'out')"/>
                <use id="reset" xlink:href="#resetDef" x="30" y="36" onmousedown="handleReset()"/>
                <g id="arrowUp" xlink:href="#dirArrow" transform="translate(30 24)" onmousedown="handlePan(0,-1)">
                  <use xlink:href="#rim" fill="#404040">
                        <set attributeName="fill" to="#808080" begin="arrowUp.mouseover" end="arrowUp.mouseout"/>
                  </use>
                  <path fill="none" stroke="white" stroke-width="1.5" d="M0,-3.0v7 M-2.5,-0.5L0,-3.0L2.5,-0.5"/>
                </g>
                <g id="arrowRight" xlink:href="#dirArrow" transform="rotate(90) translate(36 -43)" onmousedown="handlePan(1,0)">
                  <use xlink:href="#rim" fill="#404040">
                        <set attributeName="fill" to="#808080" begin="arrowRight.mouseover" end="arrowRight.mouseout"/>
                  </use>
                  <path fill="none" stroke="white" stroke-width="1.5" d="M0,-3.0v7 M-2.5,-0.5L0,-3.0L2.5,-0.5"/>
                </g>
                <g id="arrowDown" xlink:href="#dirArrow" transform="rotate(180) translate(-30 -48)" onmousedown="handlePan(0,1)">
                  <use xlink:href="#rim" fill="#404040">
                        <set attributeName="fill" to="#808080" begin="arrowDown.mouseover" end="arrowDown.mouseout"/>
                  </use>
                  <path fill="none" stroke="white" stroke-width="1.5" d="M0,-3.0v7 M-2.5,-0.5L0,-3.0L2.5,-0.5"/>
                </g>
                <g id="arrowLeft" xlink:href="#dirArrow" transform="rotate(270) translate(-36 17)" onmousedown="handlePan(-1,0)">
                  <use xlink:href="#rim" fill="#404040">
                        <set attributeName="fill" to="#808080" begin="arrowLeft.mouseover" end="arrowLeft.mouseout"/>
                  </use>
                  <path fill="none" stroke="white" stroke-width="1.5" d="M0,-3.0v7 M-2.5,-0.5L0,-3.0L2.5,-0.5"/>
                </g>
        </g>
        <svg viewBox="0 0 15 15" width="100%" height="30px" preserveAspectRatio="xMaxYMin meet">
         <g id="arrow_out" transform="scale(0.3 0.3)">
          <a xlink:href="class_color_a5a3f8aa2c7079231d10fbf3c2c87bf61_icgraph_org.svg" target="_base">
           <rect id="button" ry="5" rx="5" y="6" x="6" height="38" width="38"
                fill="#f2f5e9" fill-opacity="0.5" stroke="#606060" stroke-width="1.0"/>
           <path id="arrow"
             d="M 11.500037,31.436501 C 11.940474,20.09759 22.043105,11.32322 32.158766,21.979434 L 37.068811,17.246167 C 37.068811,17.246167 37.088388,32 37.088388,32 L 22.160133,31.978069 C 22.160133,31.978069 26.997745,27.140456 26.997745,27.140456 C 18.528582,18.264221 13.291696,25.230495 11.500037,31.436501 z"
             style="fill:#404040;"/>
          </a>
         </g>
        </svg>
</svg>
