<?xml version="1.0" encoding="UTF-8" standalone="no"?>
<!DOCTYPE svg PUBLIC "-//W3C//DTD SVG 1.1//EN"
 "http://www.w3.org/Graphics/SVG/1.1/DTD/svg11.dtd">
<!-- Generated by graphviz version 2.36.0 (20140111.2315)
 -->
<!-- Title: GraphicsItem Pages: 1 -->
<svg width="969pt" height="804pt"
 viewBox="0.00 0.00 969.00 804.00" xmlns="http://www.w3.org/2000/svg" xmlns:xlink="http://www.w3.org/1999/xlink">
<g id="graph0" class="graph" transform="scale(1 1) rotate(0) translate(4 800)">
<title>GraphicsItem</title>
<polygon fill="white" stroke="none" points="-4,4 -4,-800 965,-800 965,4 -4,4"/>
<!-- Node1 -->
<g id="node1" class="node"><title>Node1</title>
<polygon fill="#bfbfbf" stroke="black" points="469.5,-474.5 469.5,-795.5 570.5,-795.5 570.5,-474.5 469.5,-474.5"/>
<text text-anchor="middle" x="520" y="-783.5" font-family="Helvetica,sans-Serif" font-size="10.00">GraphicsItem</text>
<polyline fill="none" stroke="black" points="469.5,-776.5 570.5,-776.5 "/>
<text text-anchor="start" x="477.5" y="-764.5" font-family="Helvetica,sans-Serif" font-size="10.00">&#45; m_parent</text>
<text text-anchor="start" x="477.5" y="-753.5" font-family="Helvetica,sans-Serif" font-size="10.00">&#45; m_children</text>
<text text-anchor="start" x="477.5" y="-742.5" font-family="Helvetica,sans-Serif" font-size="10.00">&#45; m_position</text>
<text text-anchor="start" x="477.5" y="-731.5" font-family="Helvetica,sans-Serif" font-size="10.00">&#45; m_z</text>
<text text-anchor="start" x="477.5" y="-720.5" font-family="Helvetica,sans-Serif" font-size="10.00">&#45; m_color</text>
<text text-anchor="start" x="477.5" y="-709.5" font-family="Helvetica,sans-Serif" font-size="10.00">&#45; m_thick</text>
<text text-anchor="start" x="477.5" y="-698.5" font-family="Helvetica,sans-Serif" font-size="10.00">&#45; m_isFill</text>
<text text-anchor="start" x="477.5" y="-687.5" font-family="Helvetica,sans-Serif" font-size="10.00">&#45; m_isVisible</text>
<text text-anchor="start" x="477.5" y="-676.5" font-family="Helvetica,sans-Serif" font-size="10.00">&#45; m_focusItem</text>
<polyline fill="none" stroke="black" points="469.5,-669.5 570.5,-669.5 "/>
<text text-anchor="start" x="477.5" y="-657.5" font-family="Helvetica,sans-Serif" font-size="10.00">+ GraphicsItem()</text>
<text text-anchor="start" x="477.5" y="-646.5" font-family="Helvetica,sans-Serif" font-size="10.00">+ ~GraphicsItem()</text>
<text text-anchor="start" x="477.5" y="-635.5" font-family="Helvetica,sans-Serif" font-size="10.00">+ parent()</text>
<text text-anchor="start" x="477.5" y="-624.5" font-family="Helvetica,sans-Serif" font-size="10.00">+ setParent()</text>
<text text-anchor="start" x="477.5" y="-613.5" font-family="Helvetica,sans-Serif" font-size="10.00">+ type()</text>
<text text-anchor="start" x="477.5" y="-602.5" font-family="Helvetica,sans-Serif" font-size="10.00">+ children()</text>
<text text-anchor="start" x="477.5" y="-591.5" font-family="Helvetica,sans-Serif" font-size="10.00">+ position()</text>
<text text-anchor="start" x="477.5" y="-580.5" font-family="Helvetica,sans-Serif" font-size="10.00">+ position()</text>
<text text-anchor="start" x="477.5" y="-569.5" font-family="Helvetica,sans-Serif" font-size="10.00">+ color()</text>
<text text-anchor="start" x="477.5" y="-558.5" font-family="Helvetica,sans-Serif" font-size="10.00">+ z()</text>
<text text-anchor="start" x="477.5" y="-547.5" font-family="Helvetica,sans-Serif" font-size="10.00">et 13 de plus...</text>
<text text-anchor="start" x="477.5" y="-536.5" font-family="Helvetica,sans-Serif" font-size="10.00">+ focusItem()</text>
<text text-anchor="start" x="477.5" y="-525.5" font-family="Helvetica,sans-Serif" font-size="10.00">+ setFocusItem()</text>
<text text-anchor="start" x="477.5" y="-514.5" font-family="Helvetica,sans-Serif" font-size="10.00"># meDraw()</text>
<text text-anchor="start" x="477.5" y="-503.5" font-family="Helvetica,sans-Serif" font-size="10.00"># meUpdate()</text>
<text text-anchor="start" x="477.5" y="-492.5" font-family="Helvetica,sans-Serif" font-size="10.00"># meHandleEvent()</text>
<text text-anchor="start" x="477.5" y="-481.5" font-family="Helvetica,sans-Serif" font-size="10.00"># meIsOver()</text>
</g>
<!-- Node2 -->
<g id="node2" class="node"><title>Node2</title>
<g id="a_node2"><a xlink:href="class_graphics_animation.html" target="_top" xlink:title="{GraphicsAnimation\n||+ GraphicsAnimation()\l+ type()\l}">
<polygon fill="white" stroke="black" points="16,-309 16,-377 130,-377 130,-309 16,-309"/>
<text text-anchor="middle" x="73" y="-365" font-family="Helvetica,sans-Serif" font-size="10.00">GraphicsAnimation</text>
<polyline fill="none" stroke="black" points="16,-358 130,-358 "/>
<text text-anchor="middle" x="73" y="-346" font-family="Helvetica,sans-Serif" font-size="10.00"> </text>
<polyline fill="none" stroke="black" points="16,-339 130,-339 "/>
<text text-anchor="start" x="24" y="-327" font-family="Helvetica,sans-Serif" font-size="10.00">+ GraphicsAnimation()</text>
<text text-anchor="start" x="24" y="-316" font-family="Helvetica,sans-Serif" font-size="10.00">+ type()</text>
</a>
</g>
</g>
<!-- Node1&#45;&gt;Node2 -->
<g id="edge1" class="edge"><title>Node1&#45;&gt;Node2</title>
<path fill="none" stroke="midnightblue" d="M459.58,-611.511C381.716,-580.564 244.753,-519.314 147,-438 126.242,-420.733 107.484,-396.763 94.0474,-377.35"/>
<polygon fill="none" stroke="midnightblue" points="458.652,-614.907 469.239,-615.314 461.217,-608.393 458.652,-614.907"/>
</g>
<!-- Node4 -->
<g id="node4" class="node"><title>Node4</title>
<g id="a_node4"><a xlink:href="class_graphics_point.html" target="_top" xlink:title="{GraphicsPoint\n|&#45; m_radius\l|+ GraphicsPoint()\l+ GraphicsPoint()\l+ radius()\l+ setRadius()\l+ type()\l# meDraw()\l# meHandleEvent()\l# meIsOver()\l}">
<polygon fill="white" stroke="black" points="156.5,-276 156.5,-410 257.5,-410 257.5,-276 156.5,-276"/>
<text text-anchor="middle" x="207" y="-398" font-family="Helvetica,sans-Serif" font-size="10.00">GraphicsPoint</text>
<polyline fill="none" stroke="black" points="156.5,-391 257.5,-391 "/>
<text text-anchor="start" x="164.5" y="-379" font-family="Helvetica,sans-Serif" font-size="10.00">&#45; m_radius</text>
<polyline fill="none" stroke="black" points="156.5,-372 257.5,-372 "/>
<text text-anchor="start" x="164.5" y="-360" font-family="Helvetica,sans-Serif" font-size="10.00">+ GraphicsPoint()</text>
<text text-anchor="start" x="164.5" y="-349" font-family="Helvetica,sans-Serif" font-size="10.00">+ GraphicsPoint()</text>
<text text-anchor="start" x="164.5" y="-338" font-family="Helvetica,sans-Serif" font-size="10.00">+ radius()</text>
<text text-anchor="start" x="164.5" y="-327" font-family="Helvetica,sans-Serif" font-size="10.00">+ setRadius()</text>
<text text-anchor="start" x="164.5" y="-316" font-family="Helvetica,sans-Serif" font-size="10.00">+ type()</text>
<text text-anchor="start" x="164.5" y="-305" font-family="Helvetica,sans-Serif" font-size="10.00"># meDraw()</text>
<text text-anchor="start" x="164.5" y="-294" font-family="Helvetica,sans-Serif" font-size="10.00"># meHandleEvent()</text>
<text text-anchor="start" x="164.5" y="-283" font-family="Helvetica,sans-Serif" font-size="10.00"># meIsOver()</text>
</a>
</g>
</g>
<!-- Node1&#45;&gt;Node4 -->
<g id="edge3" class="edge"><title>Node1&#45;&gt;Node4</title>
<path fill="none" stroke="midnightblue" d="M460.833,-595.609C407.252,-559.081 328.051,-500.543 270,-438 262.115,-429.505 254.518,-419.932 247.495,-410.23"/>
<polygon fill="none" stroke="midnightblue" points="458.963,-598.57 469.205,-601.28 462.888,-592.774 458.963,-598.57"/>
</g>
<!-- Node6 -->
<g id="node6" class="node"><title>Node6</title>
<g id="a_node6"><a xlink:href="class_graphics_rectangle.html" target="_top" xlink:title="Permet la creation d&#39;un rectangle. ">
<polygon fill="white" stroke="black" points="279.5,-259.5 279.5,-426.5 394.5,-426.5 394.5,-259.5 279.5,-259.5"/>
<text text-anchor="middle" x="337" y="-414.5" font-family="Helvetica,sans-Serif" font-size="10.00">GraphicsRectangle</text>
<polyline fill="none" stroke="black" points="279.5,-407.5 394.5,-407.5 "/>
<text text-anchor="start" x="287.5" y="-395.5" font-family="Helvetica,sans-Serif" font-size="10.00">&#45; m_topLeft</text>
<text text-anchor="start" x="287.5" y="-384.5" font-family="Helvetica,sans-Serif" font-size="10.00">&#45; m_bottomRight</text>
<polyline fill="none" stroke="black" points="279.5,-377.5 394.5,-377.5 "/>
<text text-anchor="start" x="287.5" y="-365.5" font-family="Helvetica,sans-Serif" font-size="10.00">+ GraphicsRectangle()</text>
<text text-anchor="start" x="287.5" y="-354.5" font-family="Helvetica,sans-Serif" font-size="10.00">+ topLeft()</text>
<text text-anchor="start" x="287.5" y="-343.5" font-family="Helvetica,sans-Serif" font-size="10.00">+ bottomRight()</text>
<text text-anchor="start" x="287.5" y="-332.5" font-family="Helvetica,sans-Serif" font-size="10.00">+ type()</text>
<text text-anchor="start" x="287.5" y="-321.5" font-family="Helvetica,sans-Serif" font-size="10.00">+ width()</text>
<text text-anchor="start" x="287.5" y="-310.5" font-family="Helvetica,sans-Serif" font-size="10.00">+ setWidth()</text>
<text text-anchor="start" x="287.5" y="-299.5" font-family="Helvetica,sans-Serif" font-size="10.00">+ height()</text>
<text text-anchor="start" x="287.5" y="-288.5" font-family="Helvetica,sans-Serif" font-size="10.00">+ setHeight()</text>
<text text-anchor="start" x="287.5" y="-277.5" font-family="Helvetica,sans-Serif" font-size="10.00"># meDraw()</text>
<text text-anchor="start" x="287.5" y="-266.5" font-family="Helvetica,sans-Serif" font-size="10.00"># meIsOver()</text>
</a>
</g>
</g>
<!-- Node1&#45;&gt;Node6 -->
<g id="edge5" class="edge"><title>Node1&#45;&gt;Node6</title>
<path fill="none" stroke="midnightblue" d="M463.93,-545.145C440.102,-507.386 412.484,-463.619 389.106,-426.572"/>
<polygon fill="none" stroke="midnightblue" points="460.971,-547.015 469.267,-553.604 466.891,-543.279 460.971,-547.015"/>
</g>
<!-- Node7 -->
<g id="node7" class="node"><title>Node7</title>
<g id="a_node7"><a xlink:href="class_graphics_shape.html" target="_top" xlink:title="{GraphicsShape\n|# m_points\l|+ GraphicsShape()\l+ type()\l# meDraw()\l}">
<polygon fill="white" stroke="black" points="412,-303.5 412,-382.5 510,-382.5 510,-303.5 412,-303.5"/>
<text text-anchor="middle" x="461" y="-370.5" font-family="Helvetica,sans-Serif" font-size="10.00">GraphicsShape</text>
<polyline fill="none" stroke="black" points="412,-363.5 510,-363.5 "/>
<text text-anchor="start" x="420" y="-351.5" font-family="Helvetica,sans-Serif" font-size="10.00"># m_points</text>
<polyline fill="none" stroke="black" points="412,-344.5 510,-344.5 "/>
<text text-anchor="start" x="420" y="-332.5" font-family="Helvetica,sans-Serif" font-size="10.00">+ GraphicsShape()</text>
<text text-anchor="start" x="420" y="-321.5" font-family="Helvetica,sans-Serif" font-size="10.00">+ type()</text>
<text text-anchor="start" x="420" y="-310.5" font-family="Helvetica,sans-Serif" font-size="10.00"># meDraw()</text>
</a>
</g>
</g>
<!-- Node1&#45;&gt;Node7 -->
<g id="edge6" class="edge"><title>Node1&#45;&gt;Node7</title>
<path fill="none" stroke="midnightblue" d="M485.453,-464.192C479.239,-433.648 473.333,-404.618 468.882,-382.742"/>
<polygon fill="none" stroke="midnightblue" points="482.056,-465.054 487.48,-474.155 488.916,-463.658 482.056,-465.054"/>
</g>
<!-- Node13 -->
<g id="node13" class="node"><title>Node13</title>
<g id="a_node13"><a xlink:href="class_graphics_square.html" target="_top" xlink:title="{GraphicsSquare\n|&#45; m_topLeft\l&#45; m_bottomRight\l|+ GraphicsSquare()\l+ topLeft()\l+ bottomRight()\l+ type()\l# meDraw()\l# meIsOver()\l}">
<polygon fill="white" stroke="black" points="528.5,-281.5 528.5,-404.5 629.5,-404.5 629.5,-281.5 528.5,-281.5"/>
<text text-anchor="middle" x="579" y="-392.5" font-family="Helvetica,sans-Serif" font-size="10.00">GraphicsSquare</text>
<polyline fill="none" stroke="black" points="528.5,-385.5 629.5,-385.5 "/>
<text text-anchor="start" x="536.5" y="-373.5" font-family="Helvetica,sans-Serif" font-size="10.00">&#45; m_topLeft</text>
<text text-anchor="start" x="536.5" y="-362.5" font-family="Helvetica,sans-Serif" font-size="10.00">&#45; m_bottomRight</text>
<polyline fill="none" stroke="black" points="528.5,-355.5 629.5,-355.5 "/>
<text text-anchor="start" x="536.5" y="-343.5" font-family="Helvetica,sans-Serif" font-size="10.00">+ GraphicsSquare()</text>
<text text-anchor="start" x="536.5" y="-332.5" font-family="Helvetica,sans-Serif" font-size="10.00">+ topLeft()</text>
<text text-anchor="start" x="536.5" y="-321.5" font-family="Helvetica,sans-Serif" font-size="10.00">+ bottomRight()</text>
<text text-anchor="start" x="536.5" y="-310.5" font-family="Helvetica,sans-Serif" font-size="10.00">+ type()</text>
<text text-anchor="start" x="536.5" y="-299.5" font-family="Helvetica,sans-Serif" font-size="10.00"># meDraw()</text>
<text text-anchor="start" x="536.5" y="-288.5" font-family="Helvetica,sans-Serif" font-size="10.00"># meIsOver()</text>
</a>
</g>
</g>
<!-- Node1&#45;&gt;Node13 -->
<g id="edge12" class="edge"><title>Node1&#45;&gt;Node13</title>
<path fill="none" stroke="midnightblue" d="M554.572,-464.07C558.87,-442.943 563.02,-422.545 566.642,-404.741"/>
<polygon fill="none" stroke="midnightblue" points="551.084,-463.658 552.52,-474.155 557.944,-465.054 551.084,-463.658"/>
</g>
<!-- Node14 -->
<g id="node14" class="node"><title>Node14</title>
<g id="a_node14"><a xlink:href="class_graphics_text.html" target="_top" xlink:title="Permet la creation de text. ">
<polygon fill="white" stroke="black" points="648,-248.5 648,-437.5 738,-437.5 738,-248.5 648,-248.5"/>
<text text-anchor="middle" x="693" y="-425.5" font-family="Helvetica,sans-Serif" font-size="10.00">GraphicsText</text>
<polyline fill="none" stroke="black" points="648,-418.5 738,-418.5 "/>
<text text-anchor="start" x="656" y="-406.5" font-family="Helvetica,sans-Serif" font-size="10.00">&#45; m_text</text>
<text text-anchor="start" x="656" y="-395.5" font-family="Helvetica,sans-Serif" font-size="10.00">&#45; m_font</text>
<text text-anchor="start" x="656" y="-384.5" font-family="Helvetica,sans-Serif" font-size="10.00">&#45; m_align</text>
<polyline fill="none" stroke="black" points="648,-377.5 738,-377.5 "/>
<text text-anchor="start" x="656" y="-365.5" font-family="Helvetica,sans-Serif" font-size="10.00">+ GraphicsText()</text>
<text text-anchor="start" x="656" y="-354.5" font-family="Helvetica,sans-Serif" font-size="10.00">+ GraphicsText()</text>
<text text-anchor="start" x="656" y="-343.5" font-family="Helvetica,sans-Serif" font-size="10.00">+ text()</text>
<text text-anchor="start" x="656" y="-332.5" font-family="Helvetica,sans-Serif" font-size="10.00">+ setText()</text>
<text text-anchor="start" x="656" y="-321.5" font-family="Helvetica,sans-Serif" font-size="10.00">+ font()</text>
<text text-anchor="start" x="656" y="-310.5" font-family="Helvetica,sans-Serif" font-size="10.00">+ setFont()</text>
<text text-anchor="start" x="656" y="-299.5" font-family="Helvetica,sans-Serif" font-size="10.00">+ align()</text>
<text text-anchor="start" x="656" y="-288.5" font-family="Helvetica,sans-Serif" font-size="10.00">+ setAlign()</text>
<text text-anchor="start" x="656" y="-277.5" font-family="Helvetica,sans-Serif" font-size="10.00">+ type()</text>
<text text-anchor="start" x="656" y="-266.5" font-family="Helvetica,sans-Serif" font-size="10.00"># meDraw()</text>
<text text-anchor="start" x="656" y="-255.5" font-family="Helvetica,sans-Serif" font-size="10.00"># meIsOver()</text>
</a>
</g>
</g>
<!-- Node1&#45;&gt;Node14 -->
<g id="edge13" class="edge"><title>Node1&#45;&gt;Node14</title>
<path fill="none" stroke="midnightblue" d="M575.978,-541.558C595.673,-508.892 617.902,-471.862 638,-438 641.233,-432.553 644.562,-426.922 647.906,-421.248"/>
<polygon fill="none" stroke="midnightblue" points="572.93,-539.834 570.762,-550.205 578.924,-543.45 572.93,-539.834"/>
</g>
<!-- Node15 -->
<g id="node15" class="node"><title>Node15</title>
<g id="a_node15"><a xlink:href="class_tools_windows.html" target="_top" xlink:title="Permet la creation d&#39;un fenetre d&#39;édition des formes. ">
<polygon fill="white" stroke="black" points="756,-314.5 756,-371.5 852,-371.5 852,-314.5 756,-314.5"/>
<text text-anchor="middle" x="804" y="-359.5" font-family="Helvetica,sans-Serif" font-size="10.00">ToolsWindows</text>
<polyline fill="none" stroke="black" points="756,-352.5 852,-352.5 "/>
<text text-anchor="middle" x="804" y="-340.5" font-family="Helvetica,sans-Serif" font-size="10.00"> </text>
<polyline fill="none" stroke="black" points="756,-333.5 852,-333.5 "/>
<text text-anchor="start" x="764" y="-321.5" font-family="Helvetica,sans-Serif" font-size="10.00">+ ToolsWindows()</text>
</a>
</g>
</g>
<!-- Node1&#45;&gt;Node15 -->
<g id="edge14" class="edge"><title>Node1&#45;&gt;Node15</title>
<path fill="none" stroke="midnightblue" d="M578.755,-591.569C627.464,-554.555 696.633,-497.576 747,-438 764.25,-417.595 779.68,-391.395 790.122,-371.841"/>
<polygon fill="none" stroke="midnightblue" points="576.388,-588.971 570.515,-597.79 580.605,-594.558 576.388,-588.971"/>
</g>
<!-- Node16 -->
<g id="node16" class="node"><title>Node16</title>
<g id="a_node16"><a xlink:href="class_widget.html" target="_top" xlink:title="{Widget\n||+ Widget()\l}">
<polygon fill="white" stroke="black" points="878,-314.5 878,-371.5 940,-371.5 940,-314.5 878,-314.5"/>
<text text-anchor="middle" x="909" y="-359.5" font-family="Helvetica,sans-Serif" font-size="10.00">Widget</text>
<polyline fill="none" stroke="black" points="878,-352.5 940,-352.5 "/>
<text text-anchor="middle" x="909" y="-340.5" font-family="Helvetica,sans-Serif" font-size="10.00"> </text>
<polyline fill="none" stroke="black" points="878,-333.5 940,-333.5 "/>
<text text-anchor="start" x="886" y="-321.5" font-family="Helvetica,sans-Serif" font-size="10.00">+ Widget()</text>
</a>
</g>
</g>
<!-- Node1&#45;&gt;Node16 -->
<g id="edge15" class="edge"><title>Node1&#45;&gt;Node16</title>
<path fill="none" stroke="midnightblue" d="M580.172,-611.911C654.245,-582.165 780.134,-522.975 861,-438 879.064,-419.018 891.924,-391.912 899.758,-371.681"/>
<polygon fill="none" stroke="midnightblue" points="578.523,-608.8 570.517,-615.739 581.103,-615.307 578.523,-608.8"/>
</g>
<!-- Node3 -->
<g id="node3" class="node"><title>Node3</title>
<g id="a_node3"><a xlink:href="class_graphics_blink_animation.html" target="_top" xlink:title="{GraphicsBlinkAnimation\n|&#45; m_blinkFrequency\l&#45; m_elapsedTime\l&#45; m_becomeColor\l&#45; m_parentColor\l&#45; m_colorApplied\l&#45; m_becomeInvisible\l|+ GraphicsBlinkAnimation()\l+ GraphicsBlinkAnimation()\l+ blinkFrequency()\l+ setBlinkFrequency()\l+ becomeColor()\l+ setBecomeColor()\l+ becomeInvisible()\l+ setBecomeInvisible()\l+ type()\l# meUpdate()\l}">
<polygon fill="white" stroke="black" points="0,-0.5 0,-211.5 136,-211.5 136,-0.5 0,-0.5"/>
<text text-anchor="middle" x="68" y="-199.5" font-family="Helvetica,sans-Serif" font-size="10.00">GraphicsBlinkAnimation</text>
<polyline fill="none" stroke="black" points="0,-192.5 136,-192.5 "/>
<text text-anchor="start" x="8" y="-180.5" font-family="Helvetica,sans-Serif" font-size="10.00">&#45; m_blinkFrequency</text>
<text text-anchor="start" x="8" y="-169.5" font-family="Helvetica,sans-Serif" font-size="10.00">&#45; m_elapsedTime</text>
<text text-anchor="start" x="8" y="-158.5" font-family="Helvetica,sans-Serif" font-size="10.00">&#45; m_becomeColor</text>
<text text-anchor="start" x="8" y="-147.5" font-family="Helvetica,sans-Serif" font-size="10.00">&#45; m_parentColor</text>
<text text-anchor="start" x="8" y="-136.5" font-family="Helvetica,sans-Serif" font-size="10.00">&#45; m_colorApplied</text>
<text text-anchor="start" x="8" y="-125.5" font-family="Helvetica,sans-Serif" font-size="10.00">&#45; m_becomeInvisible</text>
<polyline fill="none" stroke="black" points="0,-118.5 136,-118.5 "/>
<text text-anchor="start" x="8" y="-106.5" font-family="Helvetica,sans-Serif" font-size="10.00">+ GraphicsBlinkAnimation()</text>
<text text-anchor="start" x="8" y="-95.5" font-family="Helvetica,sans-Serif" font-size="10.00">+ GraphicsBlinkAnimation()</text>
<text text-anchor="start" x="8" y="-84.5" font-family="Helvetica,sans-Serif" font-size="10.00">+ blinkFrequency()</text>
<text text-anchor="start" x="8" y="-73.5" font-family="Helvetica,sans-Serif" font-size="10.00">+ setBlinkFrequency()</text>
<text text-anchor="start" x="8" y="-62.5" font-family="Helvetica,sans-Serif" font-size="10.00">+ becomeColor()</text>
<text text-anchor="start" x="8" y="-51.5" font-family="Helvetica,sans-Serif" font-size="10.00">+ setBecomeColor()</text>
<text text-anchor="start" x="8" y="-40.5" font-family="Helvetica,sans-Serif" font-size="10.00">+ becomeInvisible()</text>
<text text-anchor="start" x="8" y="-29.5" font-family="Helvetica,sans-Serif" font-size="10.00">+ setBecomeInvisible()</text>
<text text-anchor="start" x="8" y="-18.5" font-family="Helvetica,sans-Serif" font-size="10.00">+ type()</text>
<text text-anchor="start" x="8" y="-7.5" font-family="Helvetica,sans-Serif" font-size="10.00"># meUpdate()</text>
</a>
</g>
</g>
<!-- Node2&#45;&gt;Node3 -->
<g id="edge2" class="edge"><title>Node2&#45;&gt;Node3</title>
<path fill="none" stroke="midnightblue" d="M72.0802,-298.769C71.5572,-274.188 70.8778,-242.257 70.2239,-211.525"/>
<polygon fill="none" stroke="midnightblue" points="68.5822,-298.905 72.2942,-308.829 75.5806,-298.756 68.5822,-298.905"/>
</g>
<!-- Node5 -->
<g id="node5" class="node"><title>Node5</title>
<g id="a_node5"><a xlink:href="class_graphics_anchor.html" target="_top" xlink:title="{GraphicsAnchor\n||+ GraphicsAnchor()\l+ type()\l}">
<polygon fill="white" stroke="black" points="154.5,-72 154.5,-140 255.5,-140 255.5,-72 154.5,-72"/>
<text text-anchor="middle" x="205" y="-128" font-family="Helvetica,sans-Serif" font-size="10.00">GraphicsAnchor</text>
<polyline fill="none" stroke="black" points="154.5,-121 255.5,-121 "/>
<text text-anchor="middle" x="205" y="-109" font-family="Helvetica,sans-Serif" font-size="10.00"> </text>
<polyline fill="none" stroke="black" points="154.5,-102 255.5,-102 "/>
<text text-anchor="start" x="162.5" y="-90" font-family="Helvetica,sans-Serif" font-size="10.00">+ GraphicsAnchor()</text>
<text text-anchor="start" x="162.5" y="-79" font-family="Helvetica,sans-Serif" font-size="10.00">+ type()</text>
</a>
</g>
</g>
<!-- Node4&#45;&gt;Node5 -->
<g id="edge4" class="edge"><title>Node4&#45;&gt;Node5</title>
<path fill="none" stroke="midnightblue" d="M206.352,-265.873C205.991,-223.406 205.559,-172.673 205.282,-140.158"/>
<polygon fill="none" stroke="midnightblue" points="202.852,-265.944 206.438,-275.914 209.852,-265.885 202.852,-265.944"/>
</g>
<!-- Node8 -->
<g id="node8" class="node"><title>Node8</title>
<g id="a_node8"><a xlink:href="class_graphics_circle.html" target="_top" xlink:title="{GraphicsCircle\n||+ GraphicsCircle()\l+ center()\l+ radius()\l+ type()\l# meDraw()\l# meIsOver()\l}">
<polygon fill="white" stroke="black" points="274,-50 274,-162 370,-162 370,-50 274,-50"/>
<text text-anchor="middle" x="322" y="-150" font-family="Helvetica,sans-Serif" font-size="10.00">GraphicsCircle</text>
<polyline fill="none" stroke="black" points="274,-143 370,-143 "/>
<text text-anchor="middle" x="322" y="-131" font-family="Helvetica,sans-Serif" font-size="10.00"> </text>
<polyline fill="none" stroke="black" points="274,-124 370,-124 "/>
<text text-anchor="start" x="282" y="-112" font-family="Helvetica,sans-Serif" font-size="10.00">+ GraphicsCircle()</text>
<text text-anchor="start" x="282" y="-101" font-family="Helvetica,sans-Serif" font-size="10.00">+ center()</text>
<text text-anchor="start" x="282" y="-90" font-family="Helvetica,sans-Serif" font-size="10.00">+ radius()</text>
<text text-anchor="start" x="282" y="-79" font-family="Helvetica,sans-Serif" font-size="10.00">+ type()</text>
<text text-anchor="start" x="282" y="-68" font-family="Helvetica,sans-Serif" font-size="10.00"># meDraw()</text>
<text text-anchor="start" x="282" y="-57" font-family="Helvetica,sans-Serif" font-size="10.00"># meIsOver()</text>
</a>
</g>
</g>
<!-- Node7&#45;&gt;Node8 -->
<g id="edge7" class="edge"><title>Node7&#45;&gt;Node8</title>
<path fill="none" stroke="midnightblue" d="M432.299,-294.76C423.056,-279.742 412.695,-263.111 403,-248 392.616,-231.815 388.931,-228.467 379,-212 369.359,-196.014 359.452,-178.291 350.658,-162.027"/>
<polygon fill="none" stroke="midnightblue" points="429.384,-296.701 437.599,-303.392 435.35,-293.039 429.384,-296.701"/>
</g>
<!-- Node9 -->
<g id="node9" class="node"><title>Node9</title>
<g id="a_node9"><a xlink:href="class_graphics_ellipse.html" target="_top" xlink:title="{GraphicsEllipse\n||+ GraphicsEllipse()\l+ center()\l+ radius()\l+ type()\l# meDraw()\l# meIsOver()\l}">
<polygon fill="white" stroke="black" points="388,-50 388,-162 488,-162 488,-50 388,-50"/>
<text text-anchor="middle" x="438" y="-150" font-family="Helvetica,sans-Serif" font-size="10.00">GraphicsEllipse</text>
<polyline fill="none" stroke="black" points="388,-143 488,-143 "/>
<text text-anchor="middle" x="438" y="-131" font-family="Helvetica,sans-Serif" font-size="10.00"> </text>
<polyline fill="none" stroke="black" points="388,-124 488,-124 "/>
<text text-anchor="start" x="396" y="-112" font-family="Helvetica,sans-Serif" font-size="10.00">+ GraphicsEllipse()</text>
<text text-anchor="start" x="396" y="-101" font-family="Helvetica,sans-Serif" font-size="10.00">+ center()</text>
<text text-anchor="start" x="396" y="-90" font-family="Helvetica,sans-Serif" font-size="10.00">+ radius()</text>
<text text-anchor="start" x="396" y="-79" font-family="Helvetica,sans-Serif" font-size="10.00">+ type()</text>
<text text-anchor="start" x="396" y="-68" font-family="Helvetica,sans-Serif" font-size="10.00"># meDraw()</text>
<text text-anchor="start" x="396" y="-57" font-family="Helvetica,sans-Serif" font-size="10.00"># meIsOver()</text>
</a>
</g>
</g>
<!-- Node7&#45;&gt;Node9 -->
<g id="edge8" class="edge"><title>Node7&#45;&gt;Node9</title>
<path fill="none" stroke="midnightblue" d="M456.215,-293.114C452.481,-254.959 447.293,-201.946 443.408,-162.255"/>
<polygon fill="none" stroke="midnightblue" points="452.77,-293.846 457.228,-303.458 459.737,-293.164 452.77,-293.846"/>
</g>
<!-- Node10 -->
<g id="node10" class="node"><title>Node10</title>
<g id="a_node10"><a xlink:href="class_graphics_line.html" target="_top" xlink:title="{GraphicsLine\n||+ GraphicsLine()\l+ first()\l+ second()\l+ type()\l}">
<polygon fill="white" stroke="black" points="506.5,-61 506.5,-151 595.5,-151 595.5,-61 506.5,-61"/>
<text text-anchor="middle" x="551" y="-139" font-family="Helvetica,sans-Serif" font-size="10.00">GraphicsLine</text>
<polyline fill="none" stroke="black" points="506.5,-132 595.5,-132 "/>
<text text-anchor="middle" x="551" y="-120" font-family="Helvetica,sans-Serif" font-size="10.00"> </text>
<polyline fill="none" stroke="black" points="506.5,-113 595.5,-113 "/>
<text text-anchor="start" x="514.5" y="-101" font-family="Helvetica,sans-Serif" font-size="10.00">+ GraphicsLine()</text>
<text text-anchor="start" x="514.5" y="-90" font-family="Helvetica,sans-Serif" font-size="10.00">+ first()</text>
<text text-anchor="start" x="514.5" y="-79" font-family="Helvetica,sans-Serif" font-size="10.00">+ second()</text>
<text text-anchor="start" x="514.5" y="-68" font-family="Helvetica,sans-Serif" font-size="10.00">+ type()</text>
</a>
</g>
</g>
<!-- Node7&#45;&gt;Node10 -->
<g id="edge9" class="edge"><title>Node7&#45;&gt;Node10</title>
<path fill="none" stroke="midnightblue" d="M479.373,-294.025C495.41,-252.151 518.493,-191.88 534.083,-151.171"/>
<polygon fill="none" stroke="midnightblue" points="476.069,-292.867 475.761,-303.458 482.606,-295.371 476.069,-292.867"/>
</g>
<!-- Node11 -->
<g id="node11" class="node"><title>Node11</title>
<g id="a_node11"><a xlink:href="class_graphics_polygon.html" target="_top" xlink:title="{GraphicsPolygon\n||+ GraphicsPolygon()\l+ newPoint()\l+ popPoint()\l+ nbPoints()\l+ setNbPoints()\l+ type()\l}">
<polygon fill="white" stroke="black" points="613,-50 613,-162 719,-162 719,-50 613,-50"/>
<text text-anchor="middle" x="666" y="-150" font-family="Helvetica,sans-Serif" font-size="10.00">GraphicsPolygon</text>
<polyline fill="none" stroke="black" points="613,-143 719,-143 "/>
<text text-anchor="middle" x="666" y="-131" font-family="Helvetica,sans-Serif" font-size="10.00"> </text>
<polyline fill="none" stroke="black" points="613,-124 719,-124 "/>
<text text-anchor="start" x="621" y="-112" font-family="Helvetica,sans-Serif" font-size="10.00">+ GraphicsPolygon()</text>
<text text-anchor="start" x="621" y="-101" font-family="Helvetica,sans-Serif" font-size="10.00">+ newPoint()</text>
<text text-anchor="start" x="621" y="-90" font-family="Helvetica,sans-Serif" font-size="10.00">+ popPoint()</text>
<text text-anchor="start" x="621" y="-79" font-family="Helvetica,sans-Serif" font-size="10.00">+ nbPoints()</text>
<text text-anchor="start" x="621" y="-68" font-family="Helvetica,sans-Serif" font-size="10.00">+ setNbPoints()</text>
<text text-anchor="start" x="621" y="-57" font-family="Helvetica,sans-Serif" font-size="10.00">+ type()</text>
</a>
</g>
</g>
<!-- Node7&#45;&gt;Node11 -->
<g id="edge10" class="edge"><title>Node7&#45;&gt;Node11</title>
<path fill="none" stroke="midnightblue" d="M482.808,-294.343C492.115,-277.992 504.267,-260.645 519,-248 550.132,-221.28 573.13,-239.022 604,-212 619.611,-198.335 632.355,-179.746 642.14,-162.004"/>
<polygon fill="none" stroke="midnightblue" points="479.644,-292.833 477.931,-303.289 485.791,-296.184 479.644,-292.833"/>
</g>
<!-- Node12 -->
<g id="node12" class="node"><title>Node12</title>
<g id="a_node12"><a xlink:href="class_graphics_triangle.html" target="_top" xlink:title="Permet la creation d&#39;un triangle. ">
<polygon fill="white" stroke="black" points="737.5,-55.5 737.5,-156.5 842.5,-156.5 842.5,-55.5 737.5,-55.5"/>
<text text-anchor="middle" x="790" y="-144.5" font-family="Helvetica,sans-Serif" font-size="10.00">GraphicsTriangle</text>
<polyline fill="none" stroke="black" points="737.5,-137.5 842.5,-137.5 "/>
<text text-anchor="middle" x="790" y="-125.5" font-family="Helvetica,sans-Serif" font-size="10.00"> </text>
<polyline fill="none" stroke="black" points="737.5,-118.5 842.5,-118.5 "/>
<text text-anchor="start" x="745.5" y="-106.5" font-family="Helvetica,sans-Serif" font-size="10.00">+ GraphicsTriangle()</text>
<text text-anchor="start" x="745.5" y="-95.5" font-family="Helvetica,sans-Serif" font-size="10.00">+ first()</text>
<text text-anchor="start" x="745.5" y="-84.5" font-family="Helvetica,sans-Serif" font-size="10.00">+ second()</text>
<text text-anchor="start" x="745.5" y="-73.5" font-family="Helvetica,sans-Serif" font-size="10.00">+ third()</text>
<text text-anchor="start" x="745.5" y="-62.5" font-family="Helvetica,sans-Serif" font-size="10.00">+ type()</text>
</a>
</g>
</g>
<!-- Node7&#45;&gt;Node12 -->
<g id="edge11" class="edge"><title>Node7&#45;&gt;Node12</title>
<path fill="none" stroke="midnightblue" d="M480.423,-294.059C489.659,-276.993 502.381,-259.24 519,-248 596.713,-195.44 649.615,-265.042 727,-212 746.639,-198.539 761.153,-176.758 771.266,-156.515"/>
<polygon fill="none" stroke="midnightblue" points="477.073,-292.924 475.649,-303.423 483.309,-296.104 477.073,-292.924"/>
</g>
<!-- Node17 -->
<g id="node17" class="node"><title>Node17</title>
<g id="a_node17"><a xlink:href="class_line_edit.html" target="_top" xlink:title="{LineEdit\n|&#45; m_text\l&#45; m_rectangle\l&#45; m_line\l&#45; m_textChanged\l|+ LineEdit()\l+ text()\l+ setText()\l+ textChanged()\l# meHandleEvent()\l}">
<polygon fill="white" stroke="black" points="860.5,-39 860.5,-173 961.5,-173 961.5,-39 860.5,-39"/>
<text text-anchor="middle" x="911" y="-161" font-family="Helvetica,sans-Serif" font-size="10.00">LineEdit</text>
<polyline fill="none" stroke="black" points="860.5,-154 961.5,-154 "/>
<text text-anchor="start" x="868.5" y="-142" font-family="Helvetica,sans-Serif" font-size="10.00">&#45; m_text</text>
<text text-anchor="start" x="868.5" y="-131" font-family="Helvetica,sans-Serif" font-size="10.00">&#45; m_rectangle</text>
<text text-anchor="start" x="868.5" y="-120" font-family="Helvetica,sans-Serif" font-size="10.00">&#45; m_line</text>
<text text-anchor="start" x="868.5" y="-109" font-family="Helvetica,sans-Serif" font-size="10.00">&#45; m_textChanged</text>
<polyline fill="none" stroke="black" points="860.5,-102 961.5,-102 "/>
<text text-anchor="start" x="868.5" y="-90" font-family="Helvetica,sans-Serif" font-size="10.00">+ LineEdit()</text>
<text text-anchor="start" x="868.5" y="-79" font-family="Helvetica,sans-Serif" font-size="10.00">+ text()</text>
<text text-anchor="start" x="868.5" y="-68" font-family="Helvetica,sans-Serif" font-size="10.00">+ setText()</text>
<text text-anchor="start" x="868.5" y="-57" font-family="Helvetica,sans-Serif" font-size="10.00">+ textChanged()</text>
<text text-anchor="start" x="868.5" y="-46" font-family="Helvetica,sans-Serif" font-size="10.00"># meHandleEvent()</text>
</a>
</g>
</g>
<!-- Node16&#45;&gt;Node17 -->
<g id="edge16" class="edge"><title>Node16&#45;&gt;Node17</title>
<path fill="none" stroke="midnightblue" d="M909.325,-303.77C909.626,-268.468 910.078,-215.278 910.437,-173.096"/>
<polygon fill="none" stroke="midnightblue" points="905.823,-304.09 909.237,-314.12 912.822,-304.15 905.823,-304.09"/>
</g>
</g>
</svg>
