<?xml version="1.0" encoding="UTF-8" standalone="no"?>
<!DOCTYPE svg PUBLIC "-//W3C//DTD SVG 1.1//EN"
 "http://www.w3.org/Graphics/SVG/1.1/DTD/svg11.dtd">
<!-- Generated by graphviz version 2.36.0 (20140111.2315)
 -->
<!-- Title: GraphicsText::text Pages: 1 -->
<svg width="282pt" height="66pt"
 viewBox="0.00 0.00 282.00 66.00" xmlns="http://www.w3.org/2000/svg" xmlns:xlink="http://www.w3.org/1999/xlink">
<g id="graph0" class="graph" transform="scale(1 1) rotate(0) translate(4 62)">
<title>GraphicsText::text</title>
<polygon fill="white" stroke="none" points="-4,4 -4,-62 278,-62 278,4 -4,4"/>
<!-- Node1 -->
<g id="node1" class="node"><title>Node1</title>
<polygon fill="#bfbfbf" stroke="black" points="0,-19.5 0,-38.5 98,-38.5 98,-19.5 0,-19.5"/>
<text text-anchor="middle" x="49" y="-26.5" font-family="Helvetica,sans-Serif" font-size="10.00">GraphicsText::text</text>
</g>
<!-- Node2 -->
<g id="node2" class="node"><title>Node2</title>
<g id="a_node2"><a xlink:href="class_graphics_text.html#aaca842dff610ca610a1e5b1f2c5643de" target="_top" xlink:title="Constructeur de GraphicsText avec un texte en paramètre. ">
<polygon fill="white" stroke="black" points="134,-38.5 134,-57.5 274,-57.5 274,-38.5 134,-38.5"/>
<text text-anchor="middle" x="204" y="-45.5" font-family="Helvetica,sans-Serif" font-size="10.00">GraphicsText::GraphicsText</text>
</a>
</g>
</g>
<!-- Node1&#45;&gt;Node2 -->
<g id="edge1" class="edge"><title>Node1&#45;&gt;Node2</title>
<path fill="none" stroke="midnightblue" d="M108.413,-36.2539C116.761,-37.2905 125.413,-38.3651 133.942,-39.4241"/>
<polygon fill="midnightblue" stroke="midnightblue" points="108.765,-32.7708 98.4102,-35.0117 107.903,-39.7175 108.765,-32.7708"/>
</g>
<!-- Node3 -->
<g id="node3" class="node"><title>Node3</title>
<g id="a_node3"><a xlink:href="class_graphics_text.html#ac42bb0e20251eb0dc2305be760714130" target="_top" xlink:title="Modifie le contenu de GraphicsText. ">
<polygon fill="white" stroke="black" points="147,-0.5 147,-19.5 261,-19.5 261,-0.5 147,-0.5"/>
<text text-anchor="middle" x="204" y="-7.5" font-family="Helvetica,sans-Serif" font-size="10.00">GraphicsText::setText</text>
</a>
</g>
</g>
<!-- Node1&#45;&gt;Node3 -->
<g id="edge2" class="edge"><title>Node1&#45;&gt;Node3</title>
<path fill="none" stroke="midnightblue" d="M108.368,-21.7517C121.007,-20.1821 134.347,-18.5255 146.897,-16.967"/>
<polygon fill="midnightblue" stroke="midnightblue" points="107.903,-18.2825 98.4102,-22.9883 108.765,-25.2292 107.903,-18.2825"/>
</g>
</g>
</svg>
