<?xml version="1.0" encoding="UTF-8" standalone="no"?>
<!DOCTYPE svg PUBLIC "-//W3C//DTD SVG 1.1//EN"
 "http://www.w3.org/Graphics/SVG/1.1/DTD/svg11.dtd">
<!-- Generated by graphviz version 2.36.0 (20140111.2315)
 -->
<!-- Title: Widget Pages: 1 -->
<!--zoomable 772 -->
<svg id="main" version="1.1" xmlns="http://www.w3.org/2000/svg" xmlns:xlink="http://www.w3.org/1999/xlink" xml:space="preserve" onload="init(evt)">
<style type="text/css"><![CDATA[
.edge:hover path { stroke: red; }
.edge:hover polygon { stroke: red; fill: red; }
]]></style>
<script type="text/javascript"><![CDATA[
var edges = document.getElementsByTagName('g');
if (edges && edges.length) {
  for (var i=0;i<edges.length;i++) {
    if (edges[i].id.substr(0,4)=='edge') {
      edges[i].setAttribute('class','edge');
    }
  }
}
]]></script>
        <defs>
                <circle id="rim" cx="0" cy="0" r="7"/>
                <circle id="rim2" cx="0" cy="0" r="3.5"/>
                <g id="zoomPlus">
                        <use xlink:href="#rim" fill="#404040">
                                <set attributeName="fill" to="#808080" begin="zoomplus.mouseover" end="zoomplus.mouseout"/>
                        </use>
                        <path d="M-4,0h8M0,-4v8" fill="none" stroke="white" stroke-width="1.5" pointer-events="none"/>
                </g>
                <g id="zoomMin">
                        <use xlink:href="#rim" fill="#404040">
                                <set attributeName="fill" to="#808080" begin="zoomminus.mouseover" end="zoomminus.mouseout"/>
                        </use>
                        <path d="M-4,0h8" fill="none" stroke="white" stroke-width="1.5" pointer-events="none"/>
                </g>
                <g id="dirArrow">
                        <path fill="none" stroke="white" stroke-width="1.5" d="M0,-3.0v7 M-2.5,-0.5L0,-3.0L2.5,-0.5"/>
                </g>
               <g id="resetDef">
                       <use xlink:href="#rim2" fill="#404040">
                               <set attributeName="fill" to="#808080" begin="reset.mouseover" end="reset.mouseout"/>
                       </use>
               </g>
        </defs>

<script type="text/javascript">
var viewWidth = 857;
var viewHeight = 772;
var sectionId = 'dynsection-0';
</script>
<script xlink:href="svgpan.js"/>
<svg id="graph" class="graph">
<g id="viewport">
<title>Widget</title>
<polygon fill="white" stroke="none" points="-4,4 -4,-768 853,-768 853,4 -4,4"/>
<!-- Node1 -->
<g id="node1" class="node"><title>Node1</title>
<polygon fill="#bfbfbf" stroke="black" points="332,-271 332,-493 478,-493 478,-271 332,-271"/>
<text text-anchor="middle" x="405" y="-481" font-family="Helvetica,sans-Serif" font-size="10.00">Widget</text>
<polyline fill="none" stroke="black" points="332,-474 478,-474 "/>
<text text-anchor="start" x="340" y="-462" font-family="Helvetica,sans-Serif" font-size="10.00"># m_minimumWidthChanged</text>
<text text-anchor="start" x="340" y="-451" font-family="Helvetica,sans-Serif" font-size="10.00"># m_minimumHeightChanged</text>
<polyline fill="none" stroke="black" points="332,-444 478,-444 "/>
<text text-anchor="start" x="340" y="-432" font-family="Helvetica,sans-Serif" font-size="10.00">+ Widget()</text>
<text text-anchor="start" x="340" y="-421" font-family="Helvetica,sans-Serif" font-size="10.00">+ width()</text>
<text text-anchor="start" x="340" y="-410" font-family="Helvetica,sans-Serif" font-size="10.00">+ setWidth()</text>
<text text-anchor="start" x="340" y="-399" font-family="Helvetica,sans-Serif" font-size="10.00">+ height()</text>
<text text-anchor="start" x="340" y="-388" font-family="Helvetica,sans-Serif" font-size="10.00">+ setHeight()</text>
<text text-anchor="start" x="340" y="-377" font-family="Helvetica,sans-Serif" font-size="10.00">+ minimumWidth()</text>
<text text-anchor="start" x="340" y="-366" font-family="Helvetica,sans-Serif" font-size="10.00">+ minimumHeight()</text>
<text text-anchor="start" x="340" y="-355" font-family="Helvetica,sans-Serif" font-size="10.00">+ widthChanged()</text>
<text text-anchor="start" x="340" y="-344" font-family="Helvetica,sans-Serif" font-size="10.00">+ heightChanged()</text>
<text text-anchor="start" x="340" y="-333" font-family="Helvetica,sans-Serif" font-size="10.00">+ minimumWidthChanged()</text>
<text text-anchor="start" x="340" y="-322" font-family="Helvetica,sans-Serif" font-size="10.00">+ minimumHeightChanged()</text>
<text text-anchor="start" x="340" y="-311" font-family="Helvetica,sans-Serif" font-size="10.00">* widthChanged()</text>
<text text-anchor="start" x="340" y="-300" font-family="Helvetica,sans-Serif" font-size="10.00">* heightChanged()</text>
<text text-anchor="start" x="340" y="-289" font-family="Helvetica,sans-Serif" font-size="10.00">* minimumWidthChanged()</text>
<text text-anchor="start" x="340" y="-278" font-family="Helvetica,sans-Serif" font-size="10.00">* minimumHeightChanged()</text>
</g>
<!-- Node3 -->
<g id="node3" class="node"><title>Node3</title>
<g id="a_node3"><a xlink:href="class_button.html" target="_top" xlink:title="Faire une action après un clic. ">
<polygon fill="white" stroke="black" points="-0.5,-44.5 -0.5,-189.5 100.5,-189.5 100.5,-44.5 -0.5,-44.5"/>
<text text-anchor="middle" x="50" y="-177.5" font-family="Helvetica,sans-Serif" font-size="10.00">Button</text>
<polyline fill="none" stroke="black" points="-0.5,-170.5 100.5,-170.5 "/>
<text text-anchor="middle" x="50" y="-158.5" font-family="Helvetica,sans-Serif" font-size="10.00"> </text>
<polyline fill="none" stroke="black" points="-0.5,-151.5 100.5,-151.5 "/>
<text text-anchor="start" x="7.5" y="-139.5" font-family="Helvetica,sans-Serif" font-size="10.00">+ Button()</text>
<text text-anchor="start" x="7.5" y="-128.5" font-family="Helvetica,sans-Serif" font-size="10.00">+ Button()</text>
<text text-anchor="start" x="7.5" y="-117.5" font-family="Helvetica,sans-Serif" font-size="10.00">+ text()</text>
<text text-anchor="start" x="7.5" y="-106.5" font-family="Helvetica,sans-Serif" font-size="10.00">+ setText()</text>
<text text-anchor="start" x="7.5" y="-95.5" font-family="Helvetica,sans-Serif" font-size="10.00">+ minimumWidth()</text>
<text text-anchor="start" x="7.5" y="-84.5" font-family="Helvetica,sans-Serif" font-size="10.00">+ minimumHeight()</text>
<text text-anchor="start" x="7.5" y="-73.5" font-family="Helvetica,sans-Serif" font-size="10.00">+ clicked()</text>
<text text-anchor="start" x="7.5" y="-62.5" font-family="Helvetica,sans-Serif" font-size="10.00"># meHandleEvent()</text>
<text text-anchor="start" x="7.5" y="-51.5" font-family="Helvetica,sans-Serif" font-size="10.00">* clicked()</text>
</a>
</g>
</g>
<!-- Node1&#45;&gt;Node3 -->
<g id="edge2" class="edge"><title>Node1&#45;&gt;Node3</title>
<path fill="none" stroke="midnightblue" d="M322.008,-355.604C257.675,-332.456 169.713,-292.821 110,-234 97.2394,-221.43 86.6406,-205.571 78.0847,-189.651"/>
<polygon fill="none" stroke="midnightblue" points="321.127,-359.004 331.722,-359.038 323.461,-352.405 321.127,-359.004"/>
</g>
<!-- Node4 -->
<g id="node4" class="node"><title>Node4</title>
<g id="a_node4"><a xlink:href="class_config_item.html" target="_top" xlink:title="IHM pour modifier un GraphicsItem. ">
<polygon fill="white" stroke="black" points="119,-55.5 119,-178.5 219,-178.5 219,-55.5 119,-55.5"/>
<text text-anchor="middle" x="169" y="-166.5" font-family="Helvetica,sans-Serif" font-size="10.00">ConfigItem</text>
<polyline fill="none" stroke="black" points="119,-159.5 219,-159.5 "/>
<text text-anchor="start" x="127" y="-147.5" font-family="Helvetica,sans-Serif" font-size="10.00"># m_target</text>
<text text-anchor="start" x="127" y="-136.5" font-family="Helvetica,sans-Serif" font-size="10.00"># m_layout</text>
<polyline fill="none" stroke="black" points="119,-129.5 219,-129.5 "/>
<text text-anchor="start" x="127" y="-117.5" font-family="Helvetica,sans-Serif" font-size="10.00">+ ConfigItem()</text>
<text text-anchor="start" x="127" y="-106.5" font-family="Helvetica,sans-Serif" font-size="10.00">+ target()</text>
<text text-anchor="start" x="127" y="-95.5" font-family="Helvetica,sans-Serif" font-size="10.00">+ setTarget()</text>
<text text-anchor="start" x="127" y="-84.5" font-family="Helvetica,sans-Serif" font-size="10.00">+ minimumWidth()</text>
<text text-anchor="start" x="127" y="-73.5" font-family="Helvetica,sans-Serif" font-size="10.00">+ minimumHeight()</text>
<text text-anchor="start" x="127" y="-62.5" font-family="Helvetica,sans-Serif" font-size="10.00"># loadData()</text>
</a>
</g>
</g>
<!-- Node1&#45;&gt;Node4 -->
<g id="edge3" class="edge"><title>Node1&#45;&gt;Node4</title>
<path fill="none" stroke="midnightblue" d="M323.628,-324.751C291.156,-299.587 255.124,-267.947 228,-234 214.743,-217.407 203.266,-197.36 194.051,-178.632"/>
<polygon fill="none" stroke="midnightblue" points="321.731,-327.707 331.799,-331.006 325.986,-322.149 321.731,-327.707"/>
</g>
<!-- Node5 -->
<g id="node5" class="node"><title>Node5</title>
<g id="a_node5"><a xlink:href="class_label.html" target="_top" xlink:title="Afficher du texte. ">
<polygon fill="white" stroke="black" points="237,-17 237,-217 337,-217 337,-17 237,-17"/>
<text text-anchor="middle" x="287" y="-205" font-family="Helvetica,sans-Serif" font-size="10.00">Label</text>
<polyline fill="none" stroke="black" points="237,-198 337,-198 "/>
<text text-anchor="middle" x="287" y="-186" font-family="Helvetica,sans-Serif" font-size="10.00"> </text>
<polyline fill="none" stroke="black" points="237,-179 337,-179 "/>
<text text-anchor="start" x="245" y="-167" font-family="Helvetica,sans-Serif" font-size="10.00">+ Label()</text>
<text text-anchor="start" x="245" y="-156" font-family="Helvetica,sans-Serif" font-size="10.00">+ Label()</text>
<text text-anchor="start" x="245" y="-145" font-family="Helvetica,sans-Serif" font-size="10.00">+ text()</text>
<text text-anchor="start" x="245" y="-134" font-family="Helvetica,sans-Serif" font-size="10.00">+ setText()</text>
<text text-anchor="start" x="245" y="-123" font-family="Helvetica,sans-Serif" font-size="10.00">+ font()</text>
<text text-anchor="start" x="245" y="-112" font-family="Helvetica,sans-Serif" font-size="10.00">+ setFont()</text>
<text text-anchor="start" x="245" y="-101" font-family="Helvetica,sans-Serif" font-size="10.00">+ align()</text>
<text text-anchor="start" x="245" y="-90" font-family="Helvetica,sans-Serif" font-size="10.00">+ setAlign()</text>
<text text-anchor="start" x="245" y="-79" font-family="Helvetica,sans-Serif" font-size="10.00">+ minimumWidth()</text>
<text text-anchor="start" x="245" y="-68" font-family="Helvetica,sans-Serif" font-size="10.00">+ minimumHeight()</text>
<text text-anchor="start" x="245" y="-57" font-family="Helvetica,sans-Serif" font-size="10.00">+ textChanged()</text>
<text text-anchor="start" x="245" y="-46" font-family="Helvetica,sans-Serif" font-size="10.00">+ fontChanged()</text>
<text text-anchor="start" x="245" y="-35" font-family="Helvetica,sans-Serif" font-size="10.00">* textChanged()</text>
<text text-anchor="start" x="245" y="-24" font-family="Helvetica,sans-Serif" font-size="10.00">* fontChanged()</text>
</a>
</g>
</g>
<!-- Node1&#45;&gt;Node5 -->
<g id="edge4" class="edge"><title>Node1&#45;&gt;Node5</title>
<path fill="none" stroke="midnightblue" d="M351.487,-261.729C344.79,-246.804 337.999,-231.667 331.461,-217.095"/>
<polygon fill="none" stroke="midnightblue" points="348.354,-263.297 355.641,-270.988 354.741,-260.432 348.354,-263.297"/>
</g>
<!-- Node6 -->
<g id="node6" class="node"><title>Node6</title>
<g id="a_node6"><a xlink:href="class_layout.html" target="_top" xlink:title="Organiser les widgets. ">
<polygon fill="white" stroke="black" points="355,-33.5 355,-200.5 455,-200.5 455,-33.5 355,-33.5"/>
<text text-anchor="middle" x="405" y="-188.5" font-family="Helvetica,sans-Serif" font-size="10.00">Layout</text>
<polyline fill="none" stroke="black" points="355,-181.5 455,-181.5 "/>
<text text-anchor="middle" x="405" y="-169.5" font-family="Helvetica,sans-Serif" font-size="10.00"> </text>
<polyline fill="none" stroke="black" points="355,-162.5 455,-162.5 "/>
<text text-anchor="start" x="363" y="-150.5" font-family="Helvetica,sans-Serif" font-size="10.00">+ Layout()</text>
<text text-anchor="start" x="363" y="-139.5" font-family="Helvetica,sans-Serif" font-size="10.00">+ Layout()</text>
<text text-anchor="start" x="363" y="-128.5" font-family="Helvetica,sans-Serif" font-size="10.00">+ orientation()</text>
<text text-anchor="start" x="363" y="-117.5" font-family="Helvetica,sans-Serif" font-size="10.00">+ setOrientation()</text>
<text text-anchor="start" x="363" y="-106.5" font-family="Helvetica,sans-Serif" font-size="10.00">+ spacing()</text>
<text text-anchor="start" x="363" y="-95.5" font-family="Helvetica,sans-Serif" font-size="10.00">+ setSpacing()</text>
<text text-anchor="start" x="363" y="-84.5" font-family="Helvetica,sans-Serif" font-size="10.00">+ push_back()</text>
<text text-anchor="start" x="363" y="-73.5" font-family="Helvetica,sans-Serif" font-size="10.00">+ pop_back()</text>
<text text-anchor="start" x="363" y="-62.5" font-family="Helvetica,sans-Serif" font-size="10.00">+ size()</text>
<text text-anchor="start" x="363" y="-51.5" font-family="Helvetica,sans-Serif" font-size="10.00">+ minimumWidth()</text>
<text text-anchor="start" x="363" y="-40.5" font-family="Helvetica,sans-Serif" font-size="10.00">+ minimumHeight()</text>
</a>
</g>
</g>
<!-- Node1&#45;&gt;Node6 -->
<g id="edge5" class="edge"><title>Node1&#45;&gt;Node6</title>
<path fill="none" stroke="midnightblue" d="M405,-260.746C405,-240.46 405,-219.814 405,-200.758"/>
<polygon fill="none" stroke="midnightblue" points="401.5,-260.988 405,-270.988 408.5,-260.988 401.5,-260.988"/>
</g>
<!-- Node7 -->
<g id="node7" class="node"><title>Node7</title>
<g id="a_node7"><a xlink:href="class_line_edit.html" target="_top" xlink:title="Saisir du texte. ">
<polygon fill="white" stroke="black" points="473.5,-33.5 473.5,-200.5 574.5,-200.5 574.5,-33.5 473.5,-33.5"/>
<text text-anchor="middle" x="524" y="-188.5" font-family="Helvetica,sans-Serif" font-size="10.00">LineEdit</text>
<polyline fill="none" stroke="black" points="473.5,-181.5 574.5,-181.5 "/>
<text text-anchor="middle" x="524" y="-169.5" font-family="Helvetica,sans-Serif" font-size="10.00"> </text>
<polyline fill="none" stroke="black" points="473.5,-162.5 574.5,-162.5 "/>
<text text-anchor="start" x="481.5" y="-150.5" font-family="Helvetica,sans-Serif" font-size="10.00">+ LineEdit()</text>
<text text-anchor="start" x="481.5" y="-139.5" font-family="Helvetica,sans-Serif" font-size="10.00">+ text()</text>
<text text-anchor="start" x="481.5" y="-128.5" font-family="Helvetica,sans-Serif" font-size="10.00">+ setText()</text>
<text text-anchor="start" x="481.5" y="-117.5" font-family="Helvetica,sans-Serif" font-size="10.00">+ minimumWidth()</text>
<text text-anchor="start" x="481.5" y="-106.5" font-family="Helvetica,sans-Serif" font-size="10.00">+ minimumHeight()</text>
<text text-anchor="start" x="481.5" y="-95.5" font-family="Helvetica,sans-Serif" font-size="10.00">+ textChanged()</text>
<text text-anchor="start" x="481.5" y="-84.5" font-family="Helvetica,sans-Serif" font-size="10.00">+ accepted()</text>
<text text-anchor="start" x="481.5" y="-73.5" font-family="Helvetica,sans-Serif" font-size="10.00"># meUpdate()</text>
<text text-anchor="start" x="481.5" y="-62.5" font-family="Helvetica,sans-Serif" font-size="10.00"># meHandleEvent()</text>
<text text-anchor="start" x="481.5" y="-51.5" font-family="Helvetica,sans-Serif" font-size="10.00">* textChanged()</text>
<text text-anchor="start" x="481.5" y="-40.5" font-family="Helvetica,sans-Serif" font-size="10.00">* accepted()</text>
</a>
</g>
</g>
<!-- Node1&#45;&gt;Node7 -->
<g id="edge6" class="edge"><title>Node1&#45;&gt;Node7</title>
<path fill="none" stroke="midnightblue" d="M458.909,-261.857C468.249,-241.214 477.775,-220.162 486.554,-200.758"/>
<polygon fill="none" stroke="midnightblue" points="455.711,-260.435 454.777,-270.988 462.088,-263.32 455.711,-260.435"/>
</g>
<!-- Node8 -->
<g id="node8" class="node"><title>Node8</title>
<g id="a_node8"><a xlink:href="class_spin_box.html" target="_top" xlink:title="{SpinBox\n||+ SpinBox()\l+ value()\l+ setValue()\l+ minimumValue()\l+ setMinimumValue()\l+ maximumValue()\l+ setMaximumValue()\l+ step()\l+ setStep()\l+ minimumWidth()\l+ minimumHeight()\l+ valueChanged()\l+ minimumValueChanged()\l+ maximumValueChanged()\l* valueChanged()\l* minimumValueChanged()\l* maximumValueChanged()\l}">
<polygon fill="white" stroke="black" points="593,-0.5 593,-233.5 731,-233.5 731,-0.5 593,-0.5"/>
<text text-anchor="middle" x="662" y="-221.5" font-family="Helvetica,sans-Serif" font-size="10.00">SpinBox</text>
<polyline fill="none" stroke="black" points="593,-214.5 731,-214.5 "/>
<text text-anchor="middle" x="662" y="-202.5" font-family="Helvetica,sans-Serif" font-size="10.00"> </text>
<polyline fill="none" stroke="black" points="593,-195.5 731,-195.5 "/>
<text text-anchor="start" x="601" y="-183.5" font-family="Helvetica,sans-Serif" font-size="10.00">+ SpinBox()</text>
<text text-anchor="start" x="601" y="-172.5" font-family="Helvetica,sans-Serif" font-size="10.00">+ value()</text>
<text text-anchor="start" x="601" y="-161.5" font-family="Helvetica,sans-Serif" font-size="10.00">+ setValue()</text>
<text text-anchor="start" x="601" y="-150.5" font-family="Helvetica,sans-Serif" font-size="10.00">+ minimumValue()</text>
<text text-anchor="start" x="601" y="-139.5" font-family="Helvetica,sans-Serif" font-size="10.00">+ setMinimumValue()</text>
<text text-anchor="start" x="601" y="-128.5" font-family="Helvetica,sans-Serif" font-size="10.00">+ maximumValue()</text>
<text text-anchor="start" x="601" y="-117.5" font-family="Helvetica,sans-Serif" font-size="10.00">+ setMaximumValue()</text>
<text text-anchor="start" x="601" y="-106.5" font-family="Helvetica,sans-Serif" font-size="10.00">+ step()</text>
<text text-anchor="start" x="601" y="-95.5" font-family="Helvetica,sans-Serif" font-size="10.00">+ setStep()</text>
<text text-anchor="start" x="601" y="-84.5" font-family="Helvetica,sans-Serif" font-size="10.00">+ minimumWidth()</text>
<text text-anchor="start" x="601" y="-73.5" font-family="Helvetica,sans-Serif" font-size="10.00">+ minimumHeight()</text>
<text text-anchor="start" x="601" y="-62.5" font-family="Helvetica,sans-Serif" font-size="10.00">+ valueChanged()</text>
<text text-anchor="start" x="601" y="-51.5" font-family="Helvetica,sans-Serif" font-size="10.00">+ minimumValueChanged()</text>
<text text-anchor="start" x="601" y="-40.5" font-family="Helvetica,sans-Serif" font-size="10.00">+ maximumValueChanged()</text>
<text text-anchor="start" x="601" y="-29.5" font-family="Helvetica,sans-Serif" font-size="10.00">* valueChanged()</text>
<text text-anchor="start" x="601" y="-18.5" font-family="Helvetica,sans-Serif" font-size="10.00">* minimumValueChanged()</text>
<text text-anchor="start" x="601" y="-7.5" font-family="Helvetica,sans-Serif" font-size="10.00">* maximumValueChanged()</text>
</a>
</g>
</g>
<!-- Node1&#45;&gt;Node8 -->
<g id="edge7" class="edge"><title>Node1&#45;&gt;Node8</title>
<path fill="none" stroke="midnightblue" d="M486.401,-321.738C518.315,-296.536 554.126,-265.673 583,-234 586.365,-230.309 589.698,-226.465 592.982,-222.516"/>
<polygon fill="none" stroke="midnightblue" points="484.093,-319.1 478.378,-328.021 488.409,-324.611 484.093,-319.1"/>
</g>
<!-- Node9 -->
<g id="node9" class="node"><title>Node9</title>
<g id="a_node9"><a xlink:href="class_tools_window.html" target="_top" xlink:title="Barre d&#39;outils pour créer des formes. ">
<polygon fill="white" stroke="black" points="749,-77.5 749,-156.5 849,-156.5 849,-77.5 749,-77.5"/>
<text text-anchor="middle" x="799" y="-144.5" font-family="Helvetica,sans-Serif" font-size="10.00">ToolsWindow</text>
<polyline fill="none" stroke="black" points="749,-137.5 849,-137.5 "/>
<text text-anchor="middle" x="799" y="-125.5" font-family="Helvetica,sans-Serif" font-size="10.00"> </text>
<polyline fill="none" stroke="black" points="749,-118.5 849,-118.5 "/>
<text text-anchor="start" x="757" y="-106.5" font-family="Helvetica,sans-Serif" font-size="10.00">+ ToolsWindow()</text>
<text text-anchor="start" x="757" y="-95.5" font-family="Helvetica,sans-Serif" font-size="10.00">+ minimumWidth()</text>
<text text-anchor="start" x="757" y="-84.5" font-family="Helvetica,sans-Serif" font-size="10.00">+ minimumHeight()</text>
</a>
</g>
</g>
<!-- Node1&#45;&gt;Node9 -->
<g id="edge8" class="edge"><title>Node1&#45;&gt;Node9</title>
<path fill="none" stroke="midnightblue" d="M487.841,-361.703C561.663,-340.881 668.747,-301.303 740,-234 762.338,-212.9 777.594,-181.481 786.987,-156.661"/>
<polygon fill="none" stroke="midnightblue" points="486.81,-358.357 478.105,-364.395 488.676,-365.104 486.81,-358.357"/>
</g>
<!-- Node2 -->
<g id="node2" class="node"><title>Node2</title>
<g id="a_node2"><a xlink:href="class_graphics_item.html" target="_top" xlink:title="Classe de base. ">
<polygon fill="white" stroke="black" points="354.5,-530.5 354.5,-763.5 455.5,-763.5 455.5,-530.5 354.5,-530.5"/>
<text text-anchor="middle" x="405" y="-751.5" font-family="Helvetica,sans-Serif" font-size="10.00">GraphicsItem</text>
<polyline fill="none" stroke="black" points="354.5,-744.5 455.5,-744.5 "/>
<text text-anchor="middle" x="405" y="-732.5" font-family="Helvetica,sans-Serif" font-size="10.00"> </text>
<polyline fill="none" stroke="black" points="354.5,-725.5 455.5,-725.5 "/>
<text text-anchor="start" x="362.5" y="-713.5" font-family="Helvetica,sans-Serif" font-size="10.00">+ GraphicsItem()</text>
<text text-anchor="start" x="362.5" y="-702.5" font-family="Helvetica,sans-Serif" font-size="10.00">+ ~GraphicsItem()</text>
<text text-anchor="start" x="362.5" y="-691.5" font-family="Helvetica,sans-Serif" font-size="10.00">+ parent()</text>
<text text-anchor="start" x="362.5" y="-680.5" font-family="Helvetica,sans-Serif" font-size="10.00">+ setParent()</text>
<text text-anchor="start" x="362.5" y="-669.5" font-family="Helvetica,sans-Serif" font-size="10.00">+ type()</text>
<text text-anchor="start" x="362.5" y="-658.5" font-family="Helvetica,sans-Serif" font-size="10.00">+ children()</text>
<text text-anchor="start" x="362.5" y="-647.5" font-family="Helvetica,sans-Serif" font-size="10.00">+ position()</text>
<text text-anchor="start" x="362.5" y="-636.5" font-family="Helvetica,sans-Serif" font-size="10.00">+ position()</text>
<text text-anchor="start" x="362.5" y="-625.5" font-family="Helvetica,sans-Serif" font-size="10.00">+ color()</text>
<text text-anchor="start" x="362.5" y="-614.5" font-family="Helvetica,sans-Serif" font-size="10.00">+ z()</text>
<text text-anchor="start" x="362.5" y="-603.5" font-family="Helvetica,sans-Serif" font-size="10.00">et 15 de plus...</text>
<text text-anchor="start" x="362.5" y="-592.5" font-family="Helvetica,sans-Serif" font-size="10.00">+ focusItem()</text>
<text text-anchor="start" x="362.5" y="-581.5" font-family="Helvetica,sans-Serif" font-size="10.00">+ setFocusItem()</text>
<text text-anchor="start" x="362.5" y="-570.5" font-family="Helvetica,sans-Serif" font-size="10.00"># meDraw()</text>
<text text-anchor="start" x="362.5" y="-559.5" font-family="Helvetica,sans-Serif" font-size="10.00"># meUpdate()</text>
<text text-anchor="start" x="362.5" y="-548.5" font-family="Helvetica,sans-Serif" font-size="10.00"># meHandleEvent()</text>
<text text-anchor="start" x="362.5" y="-537.5" font-family="Helvetica,sans-Serif" font-size="10.00"># meIsOver()</text>
</a>
</g>
</g>
<!-- Node2&#45;&gt;Node1 -->
<g id="edge1" class="edge"><title>Node2&#45;&gt;Node1</title>
<path fill="none" stroke="midnightblue" d="M405,-520.168C405,-511.206 405,-502.209 405,-493.344"/>
<polygon fill="none" stroke="midnightblue" points="401.5,-520.262 405,-530.262 408.5,-520.262 401.5,-520.262"/>
</g>
</g>
</svg>
        <g id="navigator" transform="translate(0 0)" fill="#404254">
                <rect fill="#f2f5e9" fill-opacity="0.5" stroke="#606060" stroke-width=".5" x="0" y="0" width="60" height="60"/>
                <use id="zoomplus" xlink:href="#zoomPlus" x="17" y="9" onmousedown="handleZoom(evt,'in')"/>
                <use id="zoomminus" xlink:href="#zoomMin" x="42" y="9" onmousedown="handleZoom(evt,'out')"/>
                <use id="reset" xlink:href="#resetDef" x="30" y="36" onmousedown="handleReset()"/>
                <g id="arrowUp" xlink:href="#dirArrow" transform="translate(30 24)" onmousedown="handlePan(0,-1)">
                  <use xlink:href="#rim" fill="#404040">
                        <set attributeName="fill" to="#808080" begin="arrowUp.mouseover" end="arrowUp.mouseout"/>
                  </use>
                  <path fill="none" stroke="white" stroke-width="1.5" d="M0,-3.0v7 M-2.5,-0.5L0,-3.0L2.5,-0.5"/>
                </g>
                <g id="arrowRight" xlink:href="#dirArrow" transform="rotate(90) translate(36 -43)" onmousedown="handlePan(1,0)">
                  <use xlink:href="#rim" fill="#404040">
                        <set attributeName="fill" to="#808080" begin="arrowRight.mouseover" end="arrowRight.mouseout"/>
                  </use>
                  <path fill="none" stroke="white" stroke-width="1.5" d="M0,-3.0v7 M-2.5,-0.5L0,-3.0L2.5,-0.5"/>
                </g>
                <g id="arrowDown" xlink:href="#dirArrow" transform="rotate(180) translate(-30 -48)" onmousedown="handlePan(0,1)">
                  <use xlink:href="#rim" fill="#404040">
                        <set attributeName="fill" to="#808080" begin="arrowDown.mouseover" end="arrowDown.mouseout"/>
                  </use>
                  <path fill="none" stroke="white" stroke-width="1.5" d="M0,-3.0v7 M-2.5,-0.5L0,-3.0L2.5,-0.5"/>
                </g>
                <g id="arrowLeft" xlink:href="#dirArrow" transform="rotate(270) translate(-36 17)" onmousedown="handlePan(-1,0)">
                  <use xlink:href="#rim" fill="#404040">
                        <set attributeName="fill" to="#808080" begin="arrowLeft.mouseover" end="arrowLeft.mouseout"/>
                  </use>
                  <path fill="none" stroke="white" stroke-width="1.5" d="M0,-3.0v7 M-2.5,-0.5L0,-3.0L2.5,-0.5"/>
                </g>
        </g>
        <svg viewBox="0 0 15 15" width="100%" height="30px" preserveAspectRatio="xMaxYMin meet">
         <g id="arrow_out" transform="scale(0.3 0.3)">
          <a xlink:href="class_widget__inherit__graph_org.svg" target="_base">
           <rect id="button" ry="5" rx="5" y="6" x="6" height="38" width="38"
                fill="#f2f5e9" fill-opacity="0.5" stroke="#606060" stroke-width="1.0"/>
           <path id="arrow"
             d="M 11.500037,31.436501 C 11.940474,20.09759 22.043105,11.32322 32.158766,21.979434 L 37.068811,17.246167 C 37.068811,17.246167 37.088388,32 37.088388,32 L 22.160133,31.978069 C 22.160133,31.978069 26.997745,27.140456 26.997745,27.140456 C 18.528582,18.264221 13.291696,25.230495 11.500037,31.436501 z"
             style="fill:#404040;"/>
          </a>
         </g>
        </svg>
</svg>
