<?xml version="1.0" encoding="UTF-8" standalone="no"?>
<!DOCTYPE svg PUBLIC "-//W3C//DTD SVG 1.1//EN"
 "http://www.w3.org/Graphics/SVG/1.1/DTD/svg11.dtd">
<!-- Generated by graphviz version 2.36.0 (20140111.2315)
 -->
<!-- Title: ConfigItem::ConfigItem Pages: 1 -->
<!--zoomable 178 -->
<svg id="main" version="1.1" xmlns="http://www.w3.org/2000/svg" xmlns:xlink="http://www.w3.org/1999/xlink" xml:space="preserve" onload="init(evt)">
<style type="text/css"><![CDATA[
.edge:hover path { stroke: red; }
.edge:hover polygon { stroke: red; fill: red; }
]]></style>
<script type="text/javascript"><![CDATA[
var edges = document.getElementsByTagName('g');
if (edges && edges.length) {
  for (var i=0;i<edges.length;i++) {
    if (edges[i].id.substr(0,4)=='edge') {
      edges[i].setAttribute('class','edge');
    }
  }
}
]]></script>
        <defs>
                <circle id="rim" cx="0" cy="0" r="7"/>
                <circle id="rim2" cx="0" cy="0" r="3.5"/>
                <g id="zoomPlus">
                        <use xlink:href="#rim" fill="#404040">
                                <set attributeName="fill" to="#808080" begin="zoomplus.mouseover" end="zoomplus.mouseout"/>
                        </use>
                        <path d="M-4,0h8M0,-4v8" fill="none" stroke="white" stroke-width="1.5" pointer-events="none"/>
                </g>
                <g id="zoomMin">
                        <use xlink:href="#rim" fill="#404040">
                                <set attributeName="fill" to="#808080" begin="zoomminus.mouseover" end="zoomminus.mouseout"/>
                        </use>
                        <path d="M-4,0h8" fill="none" stroke="white" stroke-width="1.5" pointer-events="none"/>
                </g>
                <g id="dirArrow">
                        <path fill="none" stroke="white" stroke-width="1.5" d="M0,-3.0v7 M-2.5,-0.5L0,-3.0L2.5,-0.5"/>
                </g>
               <g id="resetDef">
                       <use xlink:href="#rim2" fill="#404040">
                               <set attributeName="fill" to="#808080" begin="reset.mouseover" end="reset.mouseout"/>
                       </use>
               </g>
        </defs>

<script type="text/javascript">
var viewWidth = 664;
var viewHeight = 178;
var sectionId = 'dynsection-2';
</script>
<script xlink:href="svgpan.js"/>
<svg id="graph" class="graph">
<g id="viewport">
<title>ConfigItem::ConfigItem</title>
<polygon fill="white" stroke="none" points="-4,4 -4,-174 660,-174 660,4 -4,4"/>
<!-- Node1 -->
<g id="node1" class="node"><title>Node1</title>
<polygon fill="#bfbfbf" stroke="black" points="0.5,-65.5 0.5,-84.5 119.5,-84.5 119.5,-65.5 0.5,-65.5"/>
<text text-anchor="middle" x="60" y="-72.5" font-family="Helvetica,sans-Serif" font-size="10.00">ConfigItem::ConfigItem</text>
</g>
<!-- Node2 -->
<g id="node2" class="node"><title>Node2</title>
<g id="a_node2"><a xlink:href="class_layout.html#a930038a005f8a74ba7a8122d69fe583c" target="_top" xlink:title="Layout::push_back">
<polygon fill="white" stroke="black" points="156.5,-103.5 156.5,-122.5 255.5,-122.5 255.5,-103.5 156.5,-103.5"/>
<text text-anchor="middle" x="206" y="-110.5" font-family="Helvetica,sans-Serif" font-size="10.00">Layout::push_back</text>
</a>
</g>
</g>
<!-- Node1&#45;&gt;Node2 -->
<g id="edge1" class="edge"><title>Node1&#45;&gt;Node2</title>
<path fill="none" stroke="midnightblue" d="M97.3373,-84.589C116.083,-89.5358 139.143,-95.6211 159.107,-100.889"/>
<polygon fill="midnightblue" stroke="midnightblue" points="158.362,-104.312 168.924,-103.48 160.148,-97.5442 158.362,-104.312"/>
</g>
<!-- Node3 -->
<g id="node3" class="node"><title>Node3</title>
<g id="a_node3"><a xlink:href="class_point.html#a62fd0fb2c699d6d4699d3be73762ffa2" target="_top" xlink:title="Modifie l&#39;abscisse du point par rapport à son origine. ">
<polygon fill="white" stroke="black" points="173.5,-27.5 173.5,-46.5 238.5,-46.5 238.5,-27.5 173.5,-27.5"/>
<text text-anchor="middle" x="206" y="-34.5" font-family="Helvetica,sans-Serif" font-size="10.00">Point::setX</text>
</a>
</g>
</g>
<!-- Node1&#45;&gt;Node3 -->
<g id="edge2" class="edge"><title>Node1&#45;&gt;Node3</title>
<path fill="none" stroke="midnightblue" d="M97.3373,-65.411C117.386,-60.1204 142.369,-53.5275 163.222,-48.0249"/>
<polygon fill="midnightblue" stroke="midnightblue" points="164.31,-51.3574 173.086,-45.4216 162.524,-44.5891 164.31,-51.3574"/>
</g>
<!-- Node10 -->
<g id="node10" class="node"><title>Node10</title>
<g id="a_node10"><a xlink:href="class_point.html#a3cdf750fa08f24c2aaaf7ada42df5ad8" target="_top" xlink:title="Modifie l&#39;ordonnée du point par rapport à son origine. ">
<polygon fill="white" stroke="black" points="173.5,-65.5 173.5,-84.5 238.5,-84.5 238.5,-65.5 173.5,-65.5"/>
<text text-anchor="middle" x="206" y="-72.5" font-family="Helvetica,sans-Serif" font-size="10.00">Point::setY</text>
</a>
</g>
</g>
<!-- Node1&#45;&gt;Node10 -->
<g id="edge17" class="edge"><title>Node1&#45;&gt;Node10</title>
<path fill="none" stroke="midnightblue" d="M119.57,-75C134.214,-75 149.626,-75 163.266,-75"/>
<polygon fill="midnightblue" stroke="midnightblue" points="163.31,-78.5001 173.309,-75 163.309,-71.5001 163.31,-78.5001"/>
</g>
<!-- Node4 -->
<g id="node4" class="node"><title>Node4</title>
<g id="a_node4"><a xlink:href="class_point.html#a43923c490fb5439d7d8a041e86520c34" target="_top" xlink:title="Modifie les coordonnées du point par rapport à son origine. ">
<polygon fill="white" stroke="black" points="292.5,-65.5 292.5,-84.5 351.5,-84.5 351.5,-65.5 292.5,-65.5"/>
<text text-anchor="middle" x="322" y="-72.5" font-family="Helvetica,sans-Serif" font-size="10.00">Point::set</text>
</a>
</g>
</g>
<!-- Node3&#45;&gt;Node4 -->
<g id="edge3" class="edge"><title>Node3&#45;&gt;Node4</title>
<path fill="none" stroke="midnightblue" d="M235.767,-46.589C249.943,-51.3144 267.237,-57.0789 282.532,-62.1774"/>
<polygon fill="midnightblue" stroke="midnightblue" points="281.649,-65.5721 292.242,-65.4141 283.862,-58.9313 281.649,-65.5721"/>
</g>
<!-- Node9 -->
<g id="node9" class="node"><title>Node9</title>
<g id="a_node9"><a xlink:href="class_point.html#a2226d8a3fb283b0b3c1f69106df144ba" target="_top" xlink:title="Donne l&#39;ordonnée du point par rapport à son origine. ">
<polygon fill="white" stroke="black" points="388,-0.5 388,-19.5 438,-19.5 438,-0.5 388,-0.5"/>
<text text-anchor="middle" x="413" y="-7.5" font-family="Helvetica,sans-Serif" font-size="10.00">Point::y</text>
</a>
</g>
</g>
<!-- Node3&#45;&gt;Node9 -->
<g id="edge16" class="edge"><title>Node3&#45;&gt;Node9</title>
<path fill="none" stroke="midnightblue" d="M238.582,-32.8404C276.156,-27.8917 338.668,-19.6584 377.486,-14.5458"/>
<polygon fill="midnightblue" stroke="midnightblue" points="378.308,-17.9677 387.766,-13.1918 377.394,-11.0277 378.308,-17.9677"/>
</g>
<!-- Node5 -->
<g id="node5" class="node"><title>Node5</title>
<g id="a_node5"><a xlink:href="class_point.html#a64a5fe8c9b1d1a1543aaa64031537380" target="_top" xlink:title="Indique si le point n&#39;appartient pas à un groupe. ">
<polygon fill="white" stroke="black" points="578.5,-56.5 578.5,-75.5 655.5,-75.5 655.5,-56.5 578.5,-56.5"/>
<text text-anchor="middle" x="617" y="-63.5" font-family="Helvetica,sans-Serif" font-size="10.00">Point::isAlone</text>
</a>
</g>
</g>
<!-- Node4&#45;&gt;Node5 -->
<g id="edge4" class="edge"><title>Node4&#45;&gt;Node5</title>
<path fill="none" stroke="midnightblue" d="M351.628,-74.1207C401.857,-72.5778 506.355,-69.3679 567.862,-67.4787"/>
<polygon fill="midnightblue" stroke="midnightblue" points="568.198,-70.9701 578.086,-67.1646 567.983,-63.9734 568.198,-70.9701"/>
</g>
<!-- Node6 -->
<g id="node6" class="node"><title>Node6</title>
<g id="a_node6"><a xlink:href="class_point.html#afa7d33502738b0b3df186a91e11ff2a8" target="_top" xlink:title="Donne l&#39;origine du point. ">
<polygon fill="white" stroke="black" points="474,-94.5 474,-113.5 542,-113.5 542,-94.5 474,-94.5"/>
<text text-anchor="middle" x="508" y="-101.5" font-family="Helvetica,sans-Serif" font-size="10.00">Point::origin</text>
</a>
</g>
</g>
<!-- Node4&#45;&gt;Node6 -->
<g id="edge5" class="edge"><title>Node4&#45;&gt;Node6</title>
<path fill="none" stroke="midnightblue" d="M351.75,-79.5312C381.703,-84.2521 428.992,-91.7053 463.515,-97.1463"/>
<polygon fill="midnightblue" stroke="midnightblue" points="463.363,-100.665 473.786,-98.7651 464.452,-93.7508 463.363,-100.665"/>
</g>
<!-- Node8 -->
<g id="node8" class="node"><title>Node8</title>
<g id="a_node8"><a xlink:href="class_point.html#a2aa897aa68c2f3e6df3a46738f27a0ac" target="_top" xlink:title="Donne l&#39;abscisse du point par rapport à son origine. ">
<polygon fill="white" stroke="black" points="388,-132.5 388,-151.5 438,-151.5 438,-132.5 388,-132.5"/>
<text text-anchor="middle" x="413" y="-139.5" font-family="Helvetica,sans-Serif" font-size="10.00">Point::x</text>
</a>
</g>
</g>
<!-- Node4&#45;&gt;Node8 -->
<g id="edge8" class="edge"><title>Node4&#45;&gt;Node8</title>
<path fill="none" stroke="midnightblue" d="M335.752,-84.5995C350.159,-95.4456 373.831,-113.266 390.982,-126.177"/>
<polygon fill="midnightblue" stroke="midnightblue" points="389.178,-129.2 399.272,-132.418 393.388,-123.608 389.178,-129.2"/>
</g>
<!-- Node4&#45;&gt;Node9 -->
<g id="edge12" class="edge"><title>Node4&#45;&gt;Node9</title>
<path fill="none" stroke="midnightblue" d="M336.132,-65.409C350.461,-54.9439 373.619,-38.0308 390.586,-25.6398"/>
<polygon fill="midnightblue" stroke="midnightblue" points="392.803,-28.3547 398.814,-19.6303 388.674,-22.7018 392.803,-28.3547"/>
</g>
<!-- Node6&#45;&gt;Node5 -->
<g id="edge6" class="edge"><title>Node6&#45;&gt;Node5</title>
<path fill="none" stroke="midnightblue" d="M536.001,-94.411C549.18,-89.7306 565.229,-84.0308 579.484,-78.9685"/>
<polygon fill="midnightblue" stroke="midnightblue" points="580.756,-82.2308 589.008,-75.5859 578.413,-75.6344 580.756,-82.2308"/>
</g>
<!-- Node7 -->
<g id="node7" class="node"><title>Node7</title>
<g id="a_node7"><a xlink:href="class_point.html#a97edc6e6415d6ccc6efcff5fcbc97f15" target="_top" xlink:title="Construit un point avec les coordonnées nulles. ">
<polygon fill="white" stroke="black" points="583,-94.5 583,-113.5 651,-113.5 651,-94.5 583,-94.5"/>
<text text-anchor="middle" x="617" y="-101.5" font-family="Helvetica,sans-Serif" font-size="10.00">Point::Point</text>
</a>
</g>
</g>
<!-- Node6&#45;&gt;Node7 -->
<g id="edge7" class="edge"><title>Node6&#45;&gt;Node7</title>
<path fill="none" stroke="midnightblue" d="M542.269,-104C551.831,-104 562.403,-104 572.485,-104"/>
<polygon fill="midnightblue" stroke="midnightblue" points="572.752,-107.5 582.752,-104 572.752,-100.5 572.752,-107.5"/>
</g>
<!-- Node8&#45;&gt;Node5 -->
<g id="edge9" class="edge"><title>Node8&#45;&gt;Node5</title>
<path fill="none" stroke="midnightblue" d="M438.071,-142.99C464.92,-143.095 508.919,-140.218 542,-123 562.637,-112.259 559.312,-98.8567 578,-85 580.074,-83.4624 582.291,-81.99 584.573,-80.5939"/>
<polygon fill="midnightblue" stroke="midnightblue" points="586.496,-83.5291 593.534,-75.6097 583.094,-77.4116 586.496,-83.5291"/>
</g>
<!-- Node8&#45;&gt;Node6 -->
<g id="edge10" class="edge"><title>Node8&#45;&gt;Node6</title>
<path fill="none" stroke="midnightblue" d="M437.468,-132.411C448.592,-127.866 462.069,-122.359 474.185,-117.408"/>
<polygon fill="midnightblue" stroke="midnightblue" points="475.606,-120.608 483.54,-113.586 472.959,-114.128 475.606,-120.608"/>
</g>
<!-- Node8&#45;&gt;Node8 -->
<g id="edge11" class="edge"><title>Node8&#45;&gt;Node8</title>
<path fill="none" stroke="midnightblue" d="M399.128,-151.757C392.38,-160.565 397.004,-170 413,-170 422.998,-170 428.553,-166.315 429.666,-161.4"/>
<polygon fill="midnightblue" stroke="midnightblue" points="433.017,-160.388 426.872,-151.757 426.293,-162.336 433.017,-160.388"/>
</g>
<!-- Node9&#45;&gt;Node5 -->
<g id="edge13" class="edge"><title>Node9&#45;&gt;Node5</title>
<path fill="none" stroke="midnightblue" d="M438.366,-16.7549C471.326,-25.8923 530.699,-42.3522 571.673,-53.7113"/>
<polygon fill="midnightblue" stroke="midnightblue" points="570.836,-57.1113 581.408,-56.4101 572.706,-50.3657 570.836,-57.1113"/>
</g>
<!-- Node9&#45;&gt;Node6 -->
<g id="edge14" class="edge"><title>Node9&#45;&gt;Node6</title>
<path fill="none" stroke="midnightblue" d="M423.602,-19.7056C439.347,-35.6195 470.843,-67.4538 490.303,-87.1233"/>
<polygon fill="midnightblue" stroke="midnightblue" points="488.067,-89.84 497.588,-94.4872 493.043,-84.9168 488.067,-89.84"/>
</g>
<!-- Node9&#45;&gt;Node9 -->
<g id="edge15" class="edge"><title>Node9&#45;&gt;Node9</title>
<path fill="none" stroke="midnightblue" d="M399.128,-19.7571C392.38,-28.5653 397.004,-38 413,-38 422.998,-38 428.553,-34.3146 429.666,-29.4"/>
<polygon fill="midnightblue" stroke="midnightblue" points="433.017,-28.3878 426.872,-19.7571 426.293,-30.3361 433.017,-28.3878"/>
</g>
<!-- Node10&#45;&gt;Node4 -->
<g id="edge18" class="edge"><title>Node10&#45;&gt;Node4</title>
<path fill="none" stroke="midnightblue" d="M238.755,-75C252.09,-75 267.735,-75 281.78,-75"/>
<polygon fill="midnightblue" stroke="midnightblue" points="282.143,-78.5001 292.143,-75 282.143,-71.5001 282.143,-78.5001"/>
</g>
<!-- Node10&#45;&gt;Node8 -->
<g id="edge19" class="edge"><title>Node10&#45;&gt;Node8</title>
<path fill="none" stroke="midnightblue" d="M236.372,-84.5995C273.851,-96.8488 338.549,-117.994 378.087,-130.916"/>
<polygon fill="midnightblue" stroke="midnightblue" points="377.213,-134.313 387.805,-134.092 379.387,-127.659 377.213,-134.313"/>
</g>
</g>
</svg>
        <g id="navigator" transform="translate(0 0)" fill="#404254">
                <rect fill="#f2f5e9" fill-opacity="0.5" stroke="#606060" stroke-width=".5" x="0" y="0" width="60" height="60"/>
                <use id="zoomplus" xlink:href="#zoomPlus" x="17" y="9" onmousedown="handleZoom(evt,'in')"/>
                <use id="zoomminus" xlink:href="#zoomMin" x="42" y="9" onmousedown="handleZoom(evt,'out')"/>
                <use id="reset" xlink:href="#resetDef" x="30" y="36" onmousedown="handleReset()"/>
                <g id="arrowUp" xlink:href="#dirArrow" transform="translate(30 24)" onmousedown="handlePan(0,-1)">
                  <use xlink:href="#rim" fill="#404040">
                        <set attributeName="fill" to="#808080" begin="arrowUp.mouseover" end="arrowUp.mouseout"/>
                  </use>
                  <path fill="none" stroke="white" stroke-width="1.5" d="M0,-3.0v7 M-2.5,-0.5L0,-3.0L2.5,-0.5"/>
                </g>
                <g id="arrowRight" xlink:href="#dirArrow" transform="rotate(90) translate(36 -43)" onmousedown="handlePan(1,0)">
                  <use xlink:href="#rim" fill="#404040">
                        <set attributeName="fill" to="#808080" begin="arrowRight.mouseover" end="arrowRight.mouseout"/>
                  </use>
                  <path fill="none" stroke="white" stroke-width="1.5" d="M0,-3.0v7 M-2.5,-0.5L0,-3.0L2.5,-0.5"/>
                </g>
                <g id="arrowDown" xlink:href="#dirArrow" transform="rotate(180) translate(-30 -48)" onmousedown="handlePan(0,1)">
                  <use xlink:href="#rim" fill="#404040">
                        <set attributeName="fill" to="#808080" begin="arrowDown.mouseover" end="arrowDown.mouseout"/>
                  </use>
                  <path fill="none" stroke="white" stroke-width="1.5" d="M0,-3.0v7 M-2.5,-0.5L0,-3.0L2.5,-0.5"/>
                </g>
                <g id="arrowLeft" xlink:href="#dirArrow" transform="rotate(270) translate(-36 17)" onmousedown="handlePan(-1,0)">
                  <use xlink:href="#rim" fill="#404040">
                        <set attributeName="fill" to="#808080" begin="arrowLeft.mouseover" end="arrowLeft.mouseout"/>
                  </use>
                  <path fill="none" stroke="white" stroke-width="1.5" d="M0,-3.0v7 M-2.5,-0.5L0,-3.0L2.5,-0.5"/>
                </g>
        </g>
        <svg viewBox="0 0 15 15" width="100%" height="30px" preserveAspectRatio="xMaxYMin meet">
         <g id="arrow_out" transform="scale(0.3 0.3)">
          <a xlink:href="class_config_item_a742936690becb0a0f38b7454464a8b46_cgraph_org.svg" target="_base">
           <rect id="button" ry="5" rx="5" y="6" x="6" height="38" width="38"
                fill="#f2f5e9" fill-opacity="0.5" stroke="#606060" stroke-width="1.0"/>
           <path id="arrow"
             d="M 11.500037,31.436501 C 11.940474,20.09759 22.043105,11.32322 32.158766,21.979434 L 37.068811,17.246167 C 37.068811,17.246167 37.088388,32 37.088388,32 L 22.160133,31.978069 C 22.160133,31.978069 26.997745,27.140456 26.997745,27.140456 C 18.528582,18.264221 13.291696,25.230495 11.500037,31.436501 z"
             style="fill:#404040;"/>
          </a>
         </g>
        </svg>
</svg>
