<?xml version="1.0" encoding="UTF-8" standalone="no"?>
<!DOCTYPE svg PUBLIC "-//W3C//DTD SVG 1.1//EN"
 "http://www.w3.org/Graphics/SVG/1.1/DTD/svg11.dtd">
<!-- Generated by graphviz version 2.36.0 (20140111.2315)
 -->
<!-- Title: Color::green Pages: 1 -->
<!--zoomable 142 -->
<svg id="main" version="1.1" xmlns="http://www.w3.org/2000/svg" xmlns:xlink="http://www.w3.org/1999/xlink" xml:space="preserve" onload="init(evt)">
<style type="text/css"><![CDATA[
.edge:hover path { stroke: red; }
.edge:hover polygon { stroke: red; fill: red; }
]]></style>
<script type="text/javascript"><![CDATA[
var edges = document.getElementsByTagName('g');
if (edges && edges.length) {
  for (var i=0;i<edges.length;i++) {
    if (edges[i].id.substr(0,4)=='edge') {
      edges[i].setAttribute('class','edge');
    }
  }
}
]]></script>
        <defs>
                <circle id="rim" cx="0" cy="0" r="7"/>
                <circle id="rim2" cx="0" cy="0" r="3.5"/>
                <g id="zoomPlus">
                        <use xlink:href="#rim" fill="#404040">
                                <set attributeName="fill" to="#808080" begin="zoomplus.mouseover" end="zoomplus.mouseout"/>
                        </use>
                        <path d="M-4,0h8M0,-4v8" fill="none" stroke="white" stroke-width="1.5" pointer-events="none"/>
                </g>
                <g id="zoomMin">
                        <use xlink:href="#rim" fill="#404040">
                                <set attributeName="fill" to="#808080" begin="zoomminus.mouseover" end="zoomminus.mouseout"/>
                        </use>
                        <path d="M-4,0h8" fill="none" stroke="white" stroke-width="1.5" pointer-events="none"/>
                </g>
                <g id="dirArrow">
                        <path fill="none" stroke="white" stroke-width="1.5" d="M0,-3.0v7 M-2.5,-0.5L0,-3.0L2.5,-0.5"/>
                </g>
               <g id="resetDef">
                       <use xlink:href="#rim2" fill="#404040">
                               <set attributeName="fill" to="#808080" begin="reset.mouseover" end="reset.mouseout"/>
                       </use>
               </g>
        </defs>

<script type="text/javascript">
var viewWidth = 542;
var viewHeight = 142;
var sectionId = 'dynsection-6';
</script>
<script xlink:href="svgpan.js"/>
<svg id="graph" class="graph">
<g id="viewport">
<title>Color::green</title>
<polygon fill="white" stroke="none" points="-4,4 -4,-138 538,-138 538,4 -4,4"/>
<!-- Node1 -->
<g id="node1" class="node"><title>Node1</title>
<polygon fill="#bfbfbf" stroke="black" points="0,-57.5 0,-76.5 70,-76.5 70,-57.5 0,-57.5"/>
<text text-anchor="middle" x="35" y="-64.5" font-family="Helvetica,sans-Serif" font-size="10.00">Color::green</text>
</g>
<!-- Node2 -->
<g id="node2" class="node"><title>Node2</title>
<g id="a_node2"><a xlink:href="class_color.html#ac99b62f877393bbadfeee7170eb31ecd" target="_top" xlink:title="Recupere la valeur de teinte ( systeme HSV ). ">
<polygon fill="white" stroke="black" points="106,-57.5 106,-76.5 168,-76.5 168,-57.5 106,-57.5"/>
<text text-anchor="middle" x="137" y="-64.5" font-family="Helvetica,sans-Serif" font-size="10.00">Color::hue</text>
</a>
</g>
</g>
<!-- Node1&#45;&gt;Node2 -->
<g id="edge1" class="edge"><title>Node1&#45;&gt;Node2</title>
<path fill="none" stroke="midnightblue" d="M80.3911,-67C88.9458,-67 97.7224,-67 105.702,-67"/>
<polygon fill="midnightblue" stroke="midnightblue" points="80.1347,-63.5001 70.1346,-67 80.1346,-70.5001 80.1347,-63.5001"/>
</g>
<!-- Node5 -->
<g id="node5" class="node"><title>Node5</title>
<g id="a_node5"><a xlink:href="class_color.html#a9e232063ef1dfe5e98970700db822561" target="_top" xlink:title="Recupere la valeur de saturation ( system HSV ). ">
<polygon fill="white" stroke="black" points="304.5,-95.5 304.5,-114.5 393.5,-114.5 393.5,-95.5 304.5,-95.5"/>
<text text-anchor="middle" x="349" y="-102.5" font-family="Helvetica,sans-Serif" font-size="10.00">Color::saturation</text>
</a>
</g>
</g>
<!-- Node1&#45;&gt;Node5 -->
<g id="edge14" class="edge"><title>Node1&#45;&gt;Node5</title>
<path fill="none" stroke="midnightblue" d="M76.1801,-79.2833C85.8664,-81.8607 96.2389,-84.3074 106,-86 174.721,-97.9166 255.73,-102.366 304.418,-104.023"/>
<polygon fill="midnightblue" stroke="midnightblue" points="76.9598,-75.8676 66.3887,-76.5762 75.0944,-82.6145 76.9598,-75.8676"/>
</g>
<!-- Node8 -->
<g id="node8" class="node"><title>Node8</title>
<g id="a_node8"><a xlink:href="class_color.html#ae8cb1f2e0c1424555e2f606ba9d21e57" target="_top" xlink:title="Recupere la valeur de la valeur ( system HSV ). ">
<polygon fill="white" stroke="black" points="314.5,-19.5 314.5,-38.5 383.5,-38.5 383.5,-19.5 314.5,-19.5"/>
<text text-anchor="middle" x="349" y="-26.5" font-family="Helvetica,sans-Serif" font-size="10.00">Color::value</text>
</a>
</g>
</g>
<!-- Node1&#45;&gt;Node8 -->
<g id="edge15" class="edge"><title>Node1&#45;&gt;Node8</title>
<path fill="none" stroke="midnightblue" d="M76.1801,-54.7167C85.8664,-52.1393 96.2389,-49.6926 106,-48 179.704,-35.2193 267.542,-31.0277 314.481,-29.6587"/>
<polygon fill="midnightblue" stroke="midnightblue" points="75.0944,-51.3855 66.3887,-57.4238 76.9598,-58.1324 75.0944,-51.3855"/>
</g>
<!-- Node3 -->
<g id="node3" class="node"><title>Node3</title>
<g id="a_node3"><a xlink:href="class_color.html#ab8c3999a34eecf3ee1bfaced2b458cd6" target="_top" xlink:title="Recupere la valeur de la troisieme couleur ( systeme RGB ). ">
<polygon fill="white" stroke="black" points="204,-57.5 204,-76.5 268,-76.5 268,-57.5 204,-57.5"/>
<text text-anchor="middle" x="236" y="-64.5" font-family="Helvetica,sans-Serif" font-size="10.00">Color::blue</text>
</a>
</g>
</g>
<!-- Node2&#45;&gt;Node3 -->
<g id="edge2" class="edge"><title>Node2&#45;&gt;Node3</title>
<path fill="none" stroke="midnightblue" d="M178.318,-60.3361C186.848,-60.155 195.726,-60.2596 203.854,-60.6497"/>
<polygon fill="midnightblue" stroke="midnightblue" points="178.028,-56.8441 168.16,-60.6987 178.278,-63.8397 178.028,-56.8441"/>
</g>
<!-- Node7 -->
<g id="node7" class="node"><title>Node7</title>
<g id="a_node7"><a xlink:href="class_color.html#a1b673b9755fa01412ea14a2f9c040185" target="_top" xlink:title="Modifie la valeur de la valeur ( system HSV ). ">
<polygon fill="white" stroke="black" points="440,-114.5 440,-133.5 524,-133.5 524,-114.5 440,-114.5"/>
<text text-anchor="middle" x="482" y="-121.5" font-family="Helvetica,sans-Serif" font-size="10.00">Color::setValue</text>
</a>
</g>
</g>
<!-- Node2&#45;&gt;Node7 -->
<g id="edge13" class="edge"><title>Node2&#45;&gt;Node7</title>
<path fill="none" stroke="midnightblue" d="M168.062,-80.715C200.725,-94.8025 254.836,-115.794 304,-124 350.071,-131.689 403.832,-130.248 439.91,-127.807"/>
<polygon fill="midnightblue" stroke="midnightblue" points="169.207,-77.3954 158.643,-76.5864 166.397,-83.8066 169.207,-77.3954"/>
</g>
<!-- Node9 -->
<g id="node9" class="node"><title>Node9</title>
<g id="a_node9"><a xlink:href="class_color.html#a237de6ef93ddb2985d87a6fb630a0828" target="_top" xlink:title="Modifie la valeur de la saturation ( system HSV ). ">
<polygon fill="white" stroke="black" points="430,-0.5 430,-19.5 534,-19.5 534,-0.5 430,-0.5"/>
<text text-anchor="middle" x="482" y="-7.5" font-family="Helvetica,sans-Serif" font-size="10.00">Color::setSaturation</text>
</a>
</g>
</g>
<!-- Node2&#45;&gt;Node9 -->
<g id="edge12" class="edge"><title>Node2&#45;&gt;Node9</title>
<path fill="none" stroke="midnightblue" d="M168.062,-53.285C200.725,-39.1975 254.836,-18.2057 304,-10 345.979,-2.9935 394.343,-3.56825 429.896,-5.57189"/>
<polygon fill="midnightblue" stroke="midnightblue" points="166.397,-50.1934 158.643,-57.4136 169.207,-56.6046 166.397,-50.1934"/>
</g>
<!-- Node3&#45;&gt;Node2 -->
<g id="edge5" class="edge"><title>Node3&#45;&gt;Node2</title>
<path fill="none" stroke="midnightblue" d="M193.641,-73.6845C185.085,-73.8424 176.226,-73.7147 168.16,-73.3013"/>
<polygon fill="midnightblue" stroke="midnightblue" points="193.974,-77.1756 203.854,-73.3503 193.745,-70.1794 193.974,-77.1756"/>
</g>
<!-- Node4 -->
<g id="node4" class="node"><title>Node4</title>
<g id="a_node4"><a xlink:href="class_color.html#ae752d55b3758a7181fd3c201ab87ca3b" target="_top" xlink:title="Modifie la valeur de la troisieme couleur ( systeme RGB ). ">
<polygon fill="white" stroke="black" points="309.5,-57.5 309.5,-76.5 388.5,-76.5 388.5,-57.5 309.5,-57.5"/>
<text text-anchor="middle" x="349" y="-64.5" font-family="Helvetica,sans-Serif" font-size="10.00">Color::setBlue</text>
</a>
</g>
</g>
<!-- Node3&#45;&gt;Node4 -->
<g id="edge3" class="edge"><title>Node3&#45;&gt;Node4</title>
<path fill="none" stroke="midnightblue" d="M278.396,-60.4476C288.453,-60.1601 299.172,-60.1863 309.108,-60.5261"/>
<polygon fill="midnightblue" stroke="midnightblue" points="278.065,-56.958 268.215,-60.8607 278.349,-63.9523 278.065,-56.958"/>
</g>
<!-- Node3&#45;&gt;Node5 -->
<g id="edge6" class="edge"><title>Node3&#45;&gt;Node5</title>
<path fill="none" stroke="midnightblue" d="M274.891,-79.9718C289.68,-85.0344 306.329,-90.7341 319.999,-95.4141"/>
<polygon fill="midnightblue" stroke="midnightblue" points="275.605,-76.5166 265.01,-76.589 273.337,-83.1393 275.605,-76.5166"/>
</g>
<!-- Node3&#45;&gt;Node8 -->
<g id="edge9" class="edge"><title>Node3&#45;&gt;Node8</title>
<path fill="none" stroke="midnightblue" d="M274.891,-54.0282C289.68,-48.9656 306.329,-43.2659 319.999,-38.5859"/>
<polygon fill="midnightblue" stroke="midnightblue" points="273.337,-50.8607 265.01,-57.411 275.605,-57.4834 273.337,-50.8607"/>
</g>
<!-- Node4&#45;&gt;Node3 -->
<g id="edge4" class="edge"><title>Node4&#45;&gt;Node3</title>
<path fill="none" stroke="midnightblue" d="M298.856,-73.7105C288.448,-73.8404 277.737,-73.65 268.215,-73.1393"/>
<polygon fill="midnightblue" stroke="midnightblue" points="299.192,-77.2038 309.108,-73.4739 299.03,-70.2056 299.192,-77.2038"/>
</g>
<!-- Node6 -->
<g id="node6" class="node"><title>Node6</title>
<g id="a_node6"><a xlink:href="class_color.html#a600727550b0b99ab9c67226be5aa70cb" target="_top" xlink:title="Modifie la valeur de la teinte ( systeme HSV ). ">
<polygon fill="white" stroke="black" points="443.5,-38.5 443.5,-57.5 520.5,-57.5 520.5,-38.5 443.5,-38.5"/>
<text text-anchor="middle" x="482" y="-45.5" font-family="Helvetica,sans-Serif" font-size="10.00">Color::setHue</text>
</a>
</g>
</g>
<!-- Node5&#45;&gt;Node6 -->
<g id="edge7" class="edge"><title>Node5&#45;&gt;Node6</title>
<path fill="none" stroke="midnightblue" d="M381.79,-91.291C385.9,-89.5135 390.05,-87.7153 394,-86 416.223,-76.3485 441.611,-65.2515 459.201,-57.5514"/>
<polygon fill="midnightblue" stroke="midnightblue" points="380.183,-88.1727 372.392,-95.3523 382.96,-94.5985 380.183,-88.1727"/>
</g>
<!-- Node5&#45;&gt;Node7 -->
<g id="edge8" class="edge"><title>Node5&#45;&gt;Node7</title>
<path fill="none" stroke="midnightblue" d="M403.597,-112.774C415.674,-114.525 428.31,-116.358 439.787,-118.023"/>
<polygon fill="midnightblue" stroke="midnightblue" points="404.02,-109.298 393.621,-111.327 403.015,-116.226 404.02,-109.298"/>
</g>
<!-- Node8&#45;&gt;Node6 -->
<g id="edge10" class="edge"><title>Node8&#45;&gt;Node6</title>
<path fill="none" stroke="midnightblue" d="M393.915,-35.3693C409.899,-37.6876 427.813,-40.2859 443.219,-42.5203"/>
<polygon fill="midnightblue" stroke="midnightblue" points="394.135,-31.8647 383.736,-33.893 393.13,-38.7922 394.135,-31.8647"/>
</g>
<!-- Node8&#45;&gt;Node9 -->
<g id="edge11" class="edge"><title>Node8&#45;&gt;Node9</title>
<path fill="none" stroke="midnightblue" d="M393.972,-22.6224C405.475,-20.954 417.974,-19.1412 429.817,-17.4235"/>
<polygon fill="midnightblue" stroke="midnightblue" points="393.13,-19.2078 383.736,-24.107 394.135,-26.1353 393.13,-19.2078"/>
</g>
</g>
</svg>
        <g id="navigator" transform="translate(0 0)" fill="#404254">
                <rect fill="#f2f5e9" fill-opacity="0.5" stroke="#606060" stroke-width=".5" x="0" y="0" width="60" height="60"/>
                <use id="zoomplus" xlink:href="#zoomPlus" x="17" y="9" onmousedown="handleZoom(evt,'in')"/>
                <use id="zoomminus" xlink:href="#zoomMin" x="42" y="9" onmousedown="handleZoom(evt,'out')"/>
                <use id="reset" xlink:href="#resetDef" x="30" y="36" onmousedown="handleReset()"/>
                <g id="arrowUp" xlink:href="#dirArrow" transform="translate(30 24)" onmousedown="handlePan(0,-1)">
                  <use xlink:href="#rim" fill="#404040">
                        <set attributeName="fill" to="#808080" begin="arrowUp.mouseover" end="arrowUp.mouseout"/>
                  </use>
                  <path fill="none" stroke="white" stroke-width="1.5" d="M0,-3.0v7 M-2.5,-0.5L0,-3.0L2.5,-0.5"/>
                </g>
                <g id="arrowRight" xlink:href="#dirArrow" transform="rotate(90) translate(36 -43)" onmousedown="handlePan(1,0)">
                  <use xlink:href="#rim" fill="#404040">
                        <set attributeName="fill" to="#808080" begin="arrowRight.mouseover" end="arrowRight.mouseout"/>
                  </use>
                  <path fill="none" stroke="white" stroke-width="1.5" d="M0,-3.0v7 M-2.5,-0.5L0,-3.0L2.5,-0.5"/>
                </g>
                <g id="arrowDown" xlink:href="#dirArrow" transform="rotate(180) translate(-30 -48)" onmousedown="handlePan(0,1)">
                  <use xlink:href="#rim" fill="#404040">
                        <set attributeName="fill" to="#808080" begin="arrowDown.mouseover" end="arrowDown.mouseout"/>
                  </use>
                  <path fill="none" stroke="white" stroke-width="1.5" d="M0,-3.0v7 M-2.5,-0.5L0,-3.0L2.5,-0.5"/>
                </g>
                <g id="arrowLeft" xlink:href="#dirArrow" transform="rotate(270) translate(-36 17)" onmousedown="handlePan(-1,0)">
                  <use xlink:href="#rim" fill="#404040">
                        <set attributeName="fill" to="#808080" begin="arrowLeft.mouseover" end="arrowLeft.mouseout"/>
                  </use>
                  <path fill="none" stroke="white" stroke-width="1.5" d="M0,-3.0v7 M-2.5,-0.5L0,-3.0L2.5,-0.5"/>
                </g>
        </g>
        <svg viewBox="0 0 15 15" width="100%" height="30px" preserveAspectRatio="xMaxYMin meet">
         <g id="arrow_out" transform="scale(0.3 0.3)">
          <a xlink:href="class_color_abeb092c67b007163b357bd6327189394_icgraph_org.svg" target="_base">
           <rect id="button" ry="5" rx="5" y="6" x="6" height="38" width="38"
                fill="#f2f5e9" fill-opacity="0.5" stroke="#606060" stroke-width="1.0"/>
           <path id="arrow"
             d="M 11.500037,31.436501 C 11.940474,20.09759 22.043105,11.32322 32.158766,21.979434 L 37.068811,17.246167 C 37.068811,17.246167 37.088388,32 37.088388,32 L 22.160133,31.978069 C 22.160133,31.978069 26.997745,27.140456 26.997745,27.140456 C 18.528582,18.264221 13.291696,25.230495 11.500037,31.436501 z"
             style="fill:#404040;"/>
          </a>
         </g>
        </svg>
</svg>
