<?xml version="1.0" encoding="UTF-8" standalone="no"?>
<!DOCTYPE svg PUBLIC "-//W3C//DTD SVG 1.1//EN"
 "http://www.w3.org/Graphics/SVG/1.1/DTD/svg11.dtd">
<!-- Generated by graphviz version 2.36.0 (20140111.2315)
 -->
<!-- Title: GraphicsItem::draw Pages: 1 -->
<svg width="264pt" height="142pt"
 viewBox="0.00 0.00 264.00 142.00" xmlns="http://www.w3.org/2000/svg" xmlns:xlink="http://www.w3.org/1999/xlink">
<g id="graph0" class="graph" transform="scale(1 1) rotate(0) translate(4 138)">
<title>GraphicsItem::draw</title>
<polygon fill="white" stroke="none" points="-4,4 -4,-138 260,-138 260,4 -4,4"/>
<!-- Node1 -->
<g id="node1" class="node"><title>Node1</title>
<polygon fill="#bfbfbf" stroke="black" points="0,-57.5 0,-76.5 102,-76.5 102,-57.5 0,-57.5"/>
<text text-anchor="middle" x="51" y="-64.5" font-family="Helvetica,sans-Serif" font-size="10.00">GraphicsItem::draw</text>
</g>
<!-- Node2 -->
<g id="node2" class="node"><title>Node2</title>
<g id="a_node2"><a xlink:href="class_canvas.html#a817290cca06f0f43e9cf52cd980794d1" target="_top" xlink:title="Canvas::setColor">
<polygon fill="white" stroke="black" points="150.5,-114.5 150.5,-133.5 243.5,-133.5 243.5,-114.5 150.5,-114.5"/>
<text text-anchor="middle" x="197" y="-121.5" font-family="Helvetica,sans-Serif" font-size="10.00">Canvas::setColor</text>
</a>
</g>
</g>
<!-- Node1&#45;&gt;Node2 -->
<g id="edge1" class="edge"><title>Node1&#45;&gt;Node2</title>
<path fill="none" stroke="midnightblue" d="M72.2652,-76.6391C89.5431,-84.6912 115.14,-96.2301 138,-105 143.514,-107.115 149.376,-109.21 155.173,-111.193"/>
<polygon fill="midnightblue" stroke="midnightblue" points="154.202,-114.559 164.796,-114.409 156.421,-107.92 154.202,-114.559"/>
</g>
<!-- Node3 -->
<g id="node3" class="node"><title>Node3</title>
<g id="a_node3"><a xlink:href="class_color.html#a651f880388f41a65d692194c3cf2b2e2" target="_top" xlink:title="Recupere la valeur de la couleur en hexadecimal. ">
<polygon fill="white" stroke="black" points="163.5,-76.5 163.5,-95.5 230.5,-95.5 230.5,-76.5 163.5,-76.5"/>
<text text-anchor="middle" x="197" y="-83.5" font-family="Helvetica,sans-Serif" font-size="10.00">Color::hexa</text>
</a>
</g>
</g>
<!-- Node1&#45;&gt;Node3 -->
<g id="edge2" class="edge"><title>Node1&#45;&gt;Node3</title>
<path fill="none" stroke="midnightblue" d="M102.364,-73.6453C118.997,-75.8399 137.328,-78.2585 153.328,-80.3697"/>
<polygon fill="midnightblue" stroke="midnightblue" points="153.093,-83.8689 163.465,-81.7072 154.009,-76.929 153.093,-83.8689"/>
</g>
<!-- Node4 -->
<g id="node4" class="node"><title>Node4</title>
<g id="a_node4"><a xlink:href="class_canvas.html#a3ef38b87f65a9d13ec8abd7073142eb6" target="_top" xlink:title="Canvas::setThick">
<polygon fill="white" stroke="black" points="150,-38.5 150,-57.5 244,-57.5 244,-38.5 150,-38.5"/>
<text text-anchor="middle" x="197" y="-45.5" font-family="Helvetica,sans-Serif" font-size="10.00">Canvas::setThick</text>
</a>
</g>
</g>
<!-- Node1&#45;&gt;Node4 -->
<g id="edge3" class="edge"><title>Node1&#45;&gt;Node4</title>
<path fill="none" stroke="midnightblue" d="M102.364,-60.3547C114.403,-58.7663 127.332,-57.0604 139.622,-55.4387"/>
<polygon fill="midnightblue" stroke="midnightblue" points="140.307,-58.8789 149.763,-54.1008 139.391,-51.939 140.307,-58.8789"/>
</g>
<!-- Node5 -->
<g id="node5" class="node"><title>Node5</title>
<g id="a_node5"><a xlink:href="class_graphics_item.html#ab97734473720fa8365534448aa13733c" target="_top" xlink:title="GraphicsItem::meDraw">
<polygon fill="white" stroke="black" points="138,-0.5 138,-19.5 256,-19.5 256,-0.5 138,-0.5"/>
<text text-anchor="middle" x="197" y="-7.5" font-family="Helvetica,sans-Serif" font-size="10.00">GraphicsItem::meDraw</text>
</a>
</g>
</g>
<!-- Node1&#45;&gt;Node5 -->
<g id="edge4" class="edge"><title>Node1&#45;&gt;Node5</title>
<path fill="none" stroke="midnightblue" d="M72.2652,-57.3609C89.5431,-49.3088 115.14,-37.7699 138,-29 143.514,-26.8847 149.376,-24.7899 155.173,-22.807"/>
<polygon fill="midnightblue" stroke="midnightblue" points="156.421,-26.0804 164.796,-19.5914 154.202,-19.4413 156.421,-26.0804"/>
</g>
</g>
</svg>
