<?xml version="1.0" encoding="UTF-8" standalone="no"?>
<!DOCTYPE svg PUBLIC "-//W3C//DTD SVG 1.1//EN"
 "http://www.w3.org/Graphics/SVG/1.1/DTD/svg11.dtd">
<!-- Generated by graphviz version 2.36.0 (20140111.2315)
 -->
<!-- Title: GraphicsEllipse::GraphicsEllipse Pages: 1 -->
<svg width="292pt" height="66pt"
 viewBox="0.00 0.00 292.00 66.00" xmlns="http://www.w3.org/2000/svg" xmlns:xlink="http://www.w3.org/1999/xlink">
<g id="graph0" class="graph" transform="scale(1 1) rotate(0) translate(4 62)">
<title>GraphicsEllipse::GraphicsEllipse</title>
<polygon fill="white" stroke="none" points="-4,4 -4,-62 288,-62 288,4 -4,4"/>
<!-- Node1 -->
<g id="node1" class="node"><title>Node1</title>
<polygon fill="#bfbfbf" stroke="black" points="0,-14 0,-44 130,-44 130,-14 0,-14"/>
<text text-anchor="start" x="8" y="-32" font-family="Helvetica,sans-Serif" font-size="10.00">GraphicsEllipse::Graphics</text>
<text text-anchor="middle" x="65" y="-21" font-family="Helvetica,sans-Serif" font-size="10.00">Ellipse</text>
</g>
<!-- Node2 -->
<g id="node2" class="node"><title>Node2</title>
<g id="a_node2"><a xlink:href="class_graphics_ellipse.html#a776e7226cde770d445f481e0983af7dd" target="_top" xlink:title="GraphicsEllipse::center">
<polygon fill="white" stroke="black" points="166,-38.5 166,-57.5 284,-57.5 284,-38.5 166,-38.5"/>
<text text-anchor="middle" x="225" y="-45.5" font-family="Helvetica,sans-Serif" font-size="10.00">GraphicsEllipse::center</text>
</a>
</g>
</g>
<!-- Node1&#45;&gt;Node2 -->
<g id="edge1" class="edge"><title>Node1&#45;&gt;Node2</title>
<path fill="none" stroke="midnightblue" d="M130.265,-36.728C138.647,-37.736 147.258,-38.7716 155.703,-39.7871"/>
<polygon fill="midnightblue" stroke="midnightblue" points="155.549,-43.2937 165.896,-41.0128 156.385,-36.3438 155.549,-43.2937"/>
</g>
<!-- Node3 -->
<g id="node3" class="node"><title>Node3</title>
<g id="a_node3"><a xlink:href="class_graphics_ellipse.html#a41e99099077a8f85317152bd1429494b" target="_top" xlink:title="GraphicsEllipse::radius">
<polygon fill="white" stroke="black" points="166.5,-0.5 166.5,-19.5 283.5,-19.5 283.5,-0.5 166.5,-0.5"/>
<text text-anchor="middle" x="225" y="-7.5" font-family="Helvetica,sans-Serif" font-size="10.00">GraphicsEllipse::radius</text>
</a>
</g>
</g>
<!-- Node1&#45;&gt;Node3 -->
<g id="edge2" class="edge"><title>Node1&#45;&gt;Node3</title>
<path fill="none" stroke="midnightblue" d="M130.265,-21.272C138.862,-20.2382 147.7,-19.1753 156.353,-18.1348"/>
<polygon fill="midnightblue" stroke="midnightblue" points="156.889,-21.5956 166.4,-16.9266 156.053,-14.6457 156.889,-21.5956"/>
</g>
</g>
</svg>
