<?xml version="1.0" encoding="UTF-8" standalone="no"?>
<!DOCTYPE svg PUBLIC "-//W3C//DTD SVG 1.1//EN"
 "http://www.w3.org/Graphics/SVG/1.1/DTD/svg11.dtd">
<!-- Generated by graphviz version 2.36.0 (20140111.2315)
 -->
<!-- Title: Point::Point Pages: 1 -->
<!--zoomable 534 -->
<svg id="main" version="1.1" xmlns="http://www.w3.org/2000/svg" xmlns:xlink="http://www.w3.org/1999/xlink" xml:space="preserve" onload="init(evt)">
<style type="text/css"><![CDATA[
.edge:hover path { stroke: red; }
.edge:hover polygon { stroke: red; fill: red; }
]]></style>
<script type="text/javascript"><![CDATA[
var edges = document.getElementsByTagName('g');
if (edges && edges.length) {
  for (var i=0;i<edges.length;i++) {
    if (edges[i].id.substr(0,4)=='edge') {
      edges[i].setAttribute('class','edge');
    }
  }
}
]]></script>
        <defs>
                <circle id="rim" cx="0" cy="0" r="7"/>
                <circle id="rim2" cx="0" cy="0" r="3.5"/>
                <g id="zoomPlus">
                        <use xlink:href="#rim" fill="#404040">
                                <set attributeName="fill" to="#808080" begin="zoomplus.mouseover" end="zoomplus.mouseout"/>
                        </use>
                        <path d="M-4,0h8M0,-4v8" fill="none" stroke="white" stroke-width="1.5" pointer-events="none"/>
                </g>
                <g id="zoomMin">
                        <use xlink:href="#rim" fill="#404040">
                                <set attributeName="fill" to="#808080" begin="zoomminus.mouseover" end="zoomminus.mouseout"/>
                        </use>
                        <path d="M-4,0h8" fill="none" stroke="white" stroke-width="1.5" pointer-events="none"/>
                </g>
                <g id="dirArrow">
                        <path fill="none" stroke="white" stroke-width="1.5" d="M0,-3.0v7 M-2.5,-0.5L0,-3.0L2.5,-0.5"/>
                </g>
               <g id="resetDef">
                       <use xlink:href="#rim2" fill="#404040">
                               <set attributeName="fill" to="#808080" begin="reset.mouseover" end="reset.mouseout"/>
                       </use>
               </g>
        </defs>

<script type="text/javascript">
var viewWidth = 1084;
var viewHeight = 534;
var sectionId = 'dynsection-1';
</script>
<script xlink:href="svgpan.js"/>
<svg id="graph" class="graph">
<g id="viewport">
<title>Point::Point</title>
<polygon fill="white" stroke="none" points="-4,4 -4,-530 1080,-530 1080,4 -4,4"/>
<!-- Node1 -->
<g id="node1" class="node"><title>Node1</title>
<polygon fill="#bfbfbf" stroke="black" points="0,-57.5 0,-76.5 68,-76.5 68,-57.5 0,-57.5"/>
<text text-anchor="middle" x="34" y="-64.5" font-family="Helvetica,sans-Serif" font-size="10.00">Point::Point</text>
</g>
<!-- Node2 -->
<g id="node2" class="node"><title>Node2</title>
<g id="a_node2"><a xlink:href="class_point.html#a04ce786cebfd535bc380833a71405930" target="_top" xlink:title="Point::absolute">
<polygon fill="white" stroke="black" points="112,-152.5 112,-171.5 194,-171.5 194,-152.5 112,-152.5"/>
<text text-anchor="middle" x="153" y="-159.5" font-family="Helvetica,sans-Serif" font-size="10.00">Point::absolute</text>
</a>
</g>
</g>
<!-- Node1&#45;&gt;Node2 -->
<g id="edge1" class="edge"><title>Node1&#45;&gt;Node2</title>
<path fill="none" stroke="midnightblue" d="M55.0068,-83.2448C79.4946,-103.128 120.164,-136.15 140.16,-152.386"/>
<polygon fill="midnightblue" stroke="midnightblue" points="57.0498,-80.3952 47.0804,-76.8089 52.6374,-85.8294 57.0498,-80.3952"/>
</g>
<!-- Node21 -->
<g id="node21" class="node"><title>Node21</title>
<g id="a_node21"><a xlink:href="class_point.html#ab536377f38dbf8fd36875838648a1825" target="_top" xlink:title="Point::setAbsolute">
<polygon fill="white" stroke="black" points="104.5,-57.5 104.5,-76.5 201.5,-76.5 201.5,-57.5 104.5,-57.5"/>
<text text-anchor="middle" x="153" y="-64.5" font-family="Helvetica,sans-Serif" font-size="10.00">Point::setAbsolute</text>
</a>
</g>
</g>
<!-- Node1&#45;&gt;Node21 -->
<g id="edge22" class="edge"><title>Node1&#45;&gt;Node21</title>
<path fill="none" stroke="midnightblue" d="M78.2722,-67C86.7471,-67 95.6802,-67 104.29,-67"/>
<polygon fill="midnightblue" stroke="midnightblue" points="78.2146,-63.5001 68.2145,-67 78.2145,-70.5001 78.2146,-63.5001"/>
</g>
<!-- Node25 -->
<g id="node25" class="node"><title>Node25</title>
<g id="a_node25"><a xlink:href="class_point.html#afa7d33502738b0b3df186a91e11ff2a8" target="_top" xlink:title="Point::origin">
<polygon fill="white" stroke="black" points="119,-19.5 119,-38.5 187,-38.5 187,-19.5 119,-19.5"/>
<text text-anchor="middle" x="153" y="-26.5" font-family="Helvetica,sans-Serif" font-size="10.00">Point::origin</text>
</a>
</g>
</g>
<!-- Node1&#45;&gt;Node25 -->
<g id="edge27" class="edge"><title>Node1&#45;&gt;Node25</title>
<path fill="none" stroke="midnightblue" d="M74.0424,-54.3196C89.8509,-49.1852 107.799,-43.3559 122.485,-38.5859"/>
<polygon fill="midnightblue" stroke="midnightblue" points="72.9538,-50.9931 64.524,-57.411 75.1162,-57.6507 72.9538,-50.9931"/>
</g>
<!-- Node3 -->
<g id="node3" class="node"><title>Node3</title>
<g id="a_node3"><a xlink:href="class_graphics_item.html#acddeaf58963ddb0de93b7c1b27512af7" target="_top" xlink:title="GraphicsItem::absolute">
<polygon fill="white" stroke="black" points="246,-342.5 246,-361.5 364,-361.5 364,-342.5 246,-342.5"/>
<text text-anchor="middle" x="305" y="-349.5" font-family="Helvetica,sans-Serif" font-size="10.00">GraphicsItem::absolute</text>
</a>
</g>
</g>
<!-- Node2&#45;&gt;Node3 -->
<g id="edge2" class="edge"><title>Node2&#45;&gt;Node3</title>
<path fill="none" stroke="midnightblue" d="M167.87,-179.568C198.701,-218.621 272.098,-311.591 296.191,-342.108"/>
<polygon fill="midnightblue" stroke="midnightblue" points="170.588,-177.363 161.645,-171.683 165.094,-181.701 170.588,-177.363"/>
</g>
<!-- Node15 -->
<g id="node15" class="node"><title>Node15</title>
<g id="a_node15"><a xlink:href="class_graphics_rectangle.html#a3770ea3d1c51fc6c35aac4fd9ff46977" target="_top" xlink:title="GraphicsRectangle::\lmeDraw">
<polygon fill="white" stroke="black" points="252,-229 252,-259 358,-259 358,-229 252,-229"/>
<text text-anchor="start" x="260" y="-247" font-family="Helvetica,sans-Serif" font-size="10.00">GraphicsRectangle::</text>
<text text-anchor="middle" x="305" y="-236" font-family="Helvetica,sans-Serif" font-size="10.00">meDraw</text>
</a>
</g>
</g>
<!-- Node2&#45;&gt;Node15 -->
<g id="edge14" class="edge"><title>Node2&#45;&gt;Node15</title>
<path fill="none" stroke="midnightblue" d="M176.742,-177.178C193.383,-188.01 216.681,-202.616 238,-214 247.77,-219.217 258.622,-224.393 268.658,-228.938"/>
<polygon fill="midnightblue" stroke="midnightblue" points="178.517,-174.157 168.237,-171.593 174.675,-180.008 178.517,-174.157"/>
</g>
<!-- Node16 -->
<g id="node16" class="node"><title>Node16</title>
<g id="a_node16"><a xlink:href="class_main_window.html#a34c4b4207b46d11a4100c9b19f0e81bb" target="_top" xlink:title="MainWindow::MainWindow">
<polygon fill="white" stroke="black" points="598.5,-152.5 598.5,-171.5 733.5,-171.5 733.5,-152.5 598.5,-152.5"/>
<text text-anchor="middle" x="666" y="-159.5" font-family="Helvetica,sans-Serif" font-size="10.00">MainWindow::MainWindow</text>
</a>
</g>
</g>
<!-- Node2&#45;&gt;Node16 -->
<g id="edge15" class="edge"><title>Node2&#45;&gt;Node16</title>
<path fill="none" stroke="midnightblue" d="M197.989,-173.884C210.792,-176.815 224.868,-179.533 238,-181 381.11,-196.983 418.599,-194.116 562,-181 582.281,-179.145 604.531,-175.276 623.145,-171.511"/>
<polygon fill="midnightblue" stroke="midnightblue" points="198.576,-170.426 188.037,-171.508 196.95,-177.234 198.576,-170.426"/>
</g>
<!-- Node17 -->
<g id="node17" class="node"><title>Node17</title>
<g id="a_node17"><a xlink:href="class_point.html#a4fa7ffadfb6c9de033bfef5decdaa66e" target="_top" xlink:title="Point::join">
<polygon fill="white" stroke="black" points="455,-114.5 455,-133.5 515,-133.5 515,-114.5 455,-114.5"/>
<text text-anchor="middle" x="485" y="-121.5" font-family="Helvetica,sans-Serif" font-size="10.00">Point::join</text>
</a>
</g>
</g>
<!-- Node2&#45;&gt;Node17 -->
<g id="edge16" class="edge"><title>Node2&#45;&gt;Node17</title>
<path fill="none" stroke="midnightblue" d="M200.85,-150.138C212.892,-147.438 225.872,-144.83 238,-143 315.723,-131.272 408.417,-126.595 454.686,-124.887"/>
<polygon fill="midnightblue" stroke="midnightblue" points="199.953,-146.753 190.996,-152.412 201.527,-153.574 199.953,-146.753"/>
</g>
<!-- Node18 -->
<g id="node18" class="node"><title>Node18</title>
<g id="a_node18"><a xlink:href="class_point.html#a4342967313bdfb5a0120d00399ad7cc0" target="_top" xlink:title="Point::originChanged">
<polygon fill="white" stroke="black" points="251.5,-152.5 251.5,-171.5 358.5,-171.5 358.5,-152.5 251.5,-152.5"/>
<text text-anchor="middle" x="305" y="-159.5" font-family="Helvetica,sans-Serif" font-size="10.00">Point::originChanged</text>
</a>
</g>
</g>
<!-- Node2&#45;&gt;Node18 -->
<g id="edge18" class="edge"><title>Node2&#45;&gt;Node18</title>
<path fill="none" stroke="midnightblue" d="M204.367,-162C219.451,-162 236.031,-162 251.264,-162"/>
<polygon fill="midnightblue" stroke="midnightblue" points="204.197,-158.5 194.197,-162 204.197,-165.5 204.197,-158.5"/>
</g>
<!-- Node20 -->
<g id="node20" class="node"><title>Node20</title>
<g id="a_node20"><a xlink:href="class_point.html#aa346b22aa03d377bfc90b5b1e11f074c" target="_top" xlink:title="Point::friendChanged">
<polygon fill="white" stroke="black" points="251,-76.5 251,-95.5 359,-95.5 359,-76.5 251,-76.5"/>
<text text-anchor="middle" x="305" y="-83.5" font-family="Helvetica,sans-Serif" font-size="10.00">Point::friendChanged</text>
</a>
</g>
</g>
<!-- Node2&#45;&gt;Node20 -->
<g id="edge20" class="edge"><title>Node2&#45;&gt;Node20</title>
<path fill="none" stroke="midnightblue" d="M175.893,-146.71C192.442,-135.588 215.994,-120.672 238,-110 249.3,-104.52 262.191,-99.5648 273.563,-95.5989"/>
<polygon fill="midnightblue" stroke="midnightblue" points="173.767,-143.924 167.474,-152.447 177.709,-149.708 173.767,-143.924"/>
</g>
<!-- Node4 -->
<g id="node4" class="node"><title>Node4</title>
<g id="a_node4"><a xlink:href="class_graphics_anchor.html#a1dc0e27c411d6b4b11d70bd4d8ae1699" target="_top" xlink:title="GraphicsAnchor::setAbsolute">
<polygon fill="white" stroke="black" points="413,-342.5 413,-361.5 557,-361.5 557,-342.5 413,-342.5"/>
<text text-anchor="middle" x="485" y="-349.5" font-family="Helvetica,sans-Serif" font-size="10.00">GraphicsAnchor::setAbsolute</text>
</a>
</g>
</g>
<!-- Node3&#45;&gt;Node4 -->
<g id="edge3" class="edge"><title>Node3&#45;&gt;Node4</title>
<path fill="none" stroke="midnightblue" d="M374.645,-352C387.165,-352 400.254,-352 412.846,-352"/>
<polygon fill="midnightblue" stroke="midnightblue" points="374.284,-348.5 364.284,-352 374.284,-355.5 374.284,-348.5"/>
</g>
<!-- Node5 -->
<g id="node5" class="node"><title>Node5</title>
<g id="a_node5"><a xlink:href="class_graphics_circle.html#a8533b7a4eb72f0063e98d8ad94210f16" target="_top" xlink:title="GraphicsCircle::meDraw">
<polygon fill="white" stroke="black" points="423,-304.5 423,-323.5 547,-323.5 547,-304.5 423,-304.5"/>
<text text-anchor="middle" x="485" y="-311.5" font-family="Helvetica,sans-Serif" font-size="10.00">GraphicsCircle::meDraw</text>
</a>
</g>
</g>
<!-- Node3&#45;&gt;Node5 -->
<g id="edge4" class="edge"><title>Node3&#45;&gt;Node5</title>
<path fill="none" stroke="midnightblue" d="M360.716,-340.319C385.959,-334.93 415.545,-328.614 439.406,-323.52"/>
<polygon fill="midnightblue" stroke="midnightblue" points="359.966,-336.9 350.917,-342.411 361.427,-343.746 359.966,-336.9"/>
</g>
<!-- Node6 -->
<g id="node6" class="node"><title>Node6</title>
<g id="a_node6"><a xlink:href="class_graphics_ellipse.html#a14ace83491f74618a2ae3916355bd5a6" target="_top" xlink:title="GraphicsEllipse::meDraw">
<polygon fill="white" stroke="black" points="421,-266.5 421,-285.5 549,-285.5 549,-266.5 421,-266.5"/>
<text text-anchor="middle" x="485" y="-273.5" font-family="Helvetica,sans-Serif" font-size="10.00">GraphicsEllipse::meDraw</text>
</a>
</g>
</g>
<!-- Node3&#45;&gt;Node6 -->
<g id="edge5" class="edge"><title>Node3&#45;&gt;Node6</title>
<path fill="none" stroke="midnightblue" d="M328.728,-336.985C348.848,-324.267 379.38,-306.341 408,-295 417.357,-291.292 427.654,-288.141 437.567,-285.533"/>
<polygon fill="midnightblue" stroke="midnightblue" points="326.786,-334.073 320.26,-342.42 330.567,-339.964 326.786,-334.073"/>
</g>
<!-- Node7 -->
<g id="node7" class="node"><title>Node7</title>
<g id="a_node7"><a xlink:href="class_graphics_item.html#a6616ded9057686f175bdbaa4c62218dc" target="_top" xlink:title="GraphicsItem::meIsOver">
<polygon fill="white" stroke="black" points="423,-228.5 423,-247.5 547,-247.5 547,-228.5 423,-228.5"/>
<text text-anchor="middle" x="485" y="-235.5" font-family="Helvetica,sans-Serif" font-size="10.00">GraphicsItem::meIsOver</text>
</a>
</g>
</g>
<!-- Node3&#45;&gt;Node7 -->
<g id="edge6" class="edge"><title>Node3&#45;&gt;Node7</title>
<path fill="none" stroke="midnightblue" d="M320.118,-334.212C338.19,-312.661 371.552,-276.79 408,-257 415.171,-253.106 423.156,-249.994 431.179,-247.511"/>
<polygon fill="midnightblue" stroke="midnightblue" points="317.182,-332.271 313.55,-342.224 322.596,-336.709 317.182,-332.271"/>
</g>
<!-- Node11 -->
<g id="node11" class="node"><title>Node11</title>
<g id="a_node11"><a xlink:href="class_graphics_point.html#a7c4ac7621b7bed96a192fa77d299a2cb" target="_top" xlink:title="GraphicsPoint::meDraw">
<polygon fill="white" stroke="black" points="424.5,-506.5 424.5,-525.5 545.5,-525.5 545.5,-506.5 424.5,-506.5"/>
<text text-anchor="middle" x="485" y="-513.5" font-family="Helvetica,sans-Serif" font-size="10.00">GraphicsPoint::meDraw</text>
</a>
</g>
</g>
<!-- Node3&#45;&gt;Node11 -->
<g id="edge10" class="edge"><title>Node3&#45;&gt;Node11</title>
<path fill="none" stroke="midnightblue" d="M313.921,-370.889C328.035,-402.16 360.574,-464.459 408,-497 413.607,-500.847 419.923,-503.917 426.457,-506.365"/>
<polygon fill="midnightblue" stroke="midnightblue" points="317.056,-369.324 309.846,-361.561 310.642,-372.126 317.056,-369.324"/>
</g>
<!-- Node12 -->
<g id="node12" class="node"><title>Node12</title>
<g id="a_node12"><a xlink:href="class_graphics_point.html#af3b01336f2559f13ddfdedd249203965" target="_top" xlink:title="GraphicsPoint::meIsOver">
<polygon fill="white" stroke="black" points="421.5,-468.5 421.5,-487.5 548.5,-487.5 548.5,-468.5 421.5,-468.5"/>
<text text-anchor="middle" x="485" y="-475.5" font-family="Helvetica,sans-Serif" font-size="10.00">GraphicsPoint::meIsOver</text>
</a>
</g>
</g>
<!-- Node3&#45;&gt;Node12 -->
<g id="edge11" class="edge"><title>Node3&#45;&gt;Node12</title>
<path fill="none" stroke="midnightblue" d="M318.396,-370.047C335.687,-393.824 369.311,-435.28 408,-458 415.412,-462.353 423.779,-465.774 432.181,-468.459"/>
<polygon fill="midnightblue" stroke="midnightblue" points="321.042,-367.727 312.4,-361.597 315.333,-371.778 321.042,-367.727"/>
</g>
<!-- Node13 -->
<g id="node13" class="node"><title>Node13</title>
<g id="a_node13"><a xlink:href="class_graphics_rectangle.html#a22185d1ef775a5f7cc420771d9aea915" target="_top" xlink:title="GraphicsRectangle::\lmeIsOver">
<polygon fill="white" stroke="black" points="432,-419 432,-449 538,-449 538,-419 432,-419"/>
<text text-anchor="start" x="440" y="-437" font-family="Helvetica,sans-Serif" font-size="10.00">GraphicsRectangle::</text>
<text text-anchor="middle" x="485" y="-426" font-family="Helvetica,sans-Serif" font-size="10.00">meIsOver</text>
</a>
</g>
</g>
<!-- Node3&#45;&gt;Node13 -->
<g id="edge12" class="edge"><title>Node3&#45;&gt;Node13</title>
<path fill="none" stroke="midnightblue" d="M329.641,-366.927C349.899,-379.295 380.134,-396.766 408,-409 416.14,-412.574 424.96,-415.923 433.611,-418.937"/>
<polygon fill="midnightblue" stroke="midnightblue" points="331.427,-363.917 321.08,-361.641 327.75,-369.873 331.427,-363.917"/>
</g>
<!-- Node14 -->
<g id="node14" class="node"><title>Node14</title>
<g id="a_node14"><a xlink:href="class_graphics_text.html#a7b6432edbdd3b02d5c76761ac069aa57" target="_top" xlink:title="GraphicsText::meDraw">
<polygon fill="white" stroke="black" points="426,-380.5 426,-399.5 544,-399.5 544,-380.5 426,-380.5"/>
<text text-anchor="middle" x="485" y="-387.5" font-family="Helvetica,sans-Serif" font-size="10.00">GraphicsText::meDraw</text>
</a>
</g>
</g>
<!-- Node3&#45;&gt;Node14 -->
<g id="edge13" class="edge"><title>Node3&#45;&gt;Node14</title>
<path fill="none" stroke="midnightblue" d="M360.716,-363.681C385.959,-369.07 415.545,-375.386 439.406,-380.48"/>
<polygon fill="midnightblue" stroke="midnightblue" points="361.427,-360.254 350.917,-361.589 359.966,-367.1 361.427,-360.254"/>
</g>
<!-- Node8 -->
<g id="node8" class="node"><title>Node8</title>
<g id="a_node8"><a xlink:href="class_graphics_item.html#a853ecc7b1940b8bce18600a3f3d6cda7" target="_top" xlink:title="GraphicsItem::isOver">
<polygon fill="white" stroke="black" points="611,-228.5 611,-247.5 721,-247.5 721,-228.5 611,-228.5"/>
<text text-anchor="middle" x="666" y="-235.5" font-family="Helvetica,sans-Serif" font-size="10.00">GraphicsItem::isOver</text>
</a>
</g>
</g>
<!-- Node7&#45;&gt;Node8 -->
<g id="edge7" class="edge"><title>Node7&#45;&gt;Node8</title>
<path fill="none" stroke="midnightblue" d="M557.43,-238C575.204,-238 593.972,-238 610.767,-238"/>
<polygon fill="midnightblue" stroke="midnightblue" points="557.101,-234.5 547.101,-238 557.101,-241.5 557.101,-234.5"/>
</g>
<!-- Node9 -->
<g id="node9" class="node"><title>Node9</title>
<g id="a_node9"><a xlink:href="class_graphics_item.html#ad6c62fa07246bc1d7b9eae6340a246e2" target="_top" xlink:title="GraphicsItem::handleEvent">
<polygon fill="white" stroke="black" points="770.5,-228.5 770.5,-247.5 905.5,-247.5 905.5,-228.5 770.5,-228.5"/>
<text text-anchor="middle" x="838" y="-235.5" font-family="Helvetica,sans-Serif" font-size="10.00">GraphicsItem::handleEvent</text>
</a>
</g>
</g>
<!-- Node8&#45;&gt;Node9 -->
<g id="edge8" class="edge"><title>Node8&#45;&gt;Node9</title>
<path fill="none" stroke="midnightblue" d="M731.347,-238C744.136,-238 757.59,-238 770.451,-238"/>
<polygon fill="midnightblue" stroke="midnightblue" points="731.256,-234.5 721.256,-238 731.256,-241.5 731.256,-234.5"/>
</g>
<!-- Node10 -->
<g id="node10" class="node"><title>Node10</title>
<g id="a_node10"><a xlink:href="class_main_window.html#a0c74824ef8e6256455545f2659610b31" target="_top" xlink:title="MainWindow::handleEvent">
<polygon fill="white" stroke="black" points="942.5,-228.5 942.5,-247.5 1075.5,-247.5 1075.5,-228.5 942.5,-228.5"/>
<text text-anchor="middle" x="1009" y="-235.5" font-family="Helvetica,sans-Serif" font-size="10.00">MainWindow::handleEvent</text>
</a>
</g>
</g>
<!-- Node9&#45;&gt;Node10 -->
<g id="edge9" class="edge"><title>Node9&#45;&gt;Node10</title>
<path fill="none" stroke="midnightblue" d="M916.009,-238C924.773,-238 933.645,-238 942.244,-238"/>
<polygon fill="midnightblue" stroke="midnightblue" points="915.793,-234.5 905.793,-238 915.793,-241.5 915.793,-234.5"/>
</g>
<!-- Node17&#45;&gt;Node16 -->
<g id="edge17" class="edge"><title>Node17&#45;&gt;Node16</title>
<path fill="none" stroke="midnightblue" d="M524.999,-132.279C553.007,-138.225 590.824,-146.253 620.093,-152.467"/>
<polygon fill="midnightblue" stroke="midnightblue" points="525.667,-128.843 515.158,-130.19 524.213,-135.69 525.667,-128.843"/>
</g>
<!-- Node19 -->
<g id="node19" class="node"><title>Node19</title>
<g id="a_node19"><a xlink:href="class_point.html#afc78333ec50c2cfb63b19db436064820" target="_top" xlink:title="Point::setOrigin">
<polygon fill="white" stroke="black" points="443,-152.5 443,-171.5 527,-171.5 527,-152.5 443,-152.5"/>
<text text-anchor="middle" x="485" y="-159.5" font-family="Helvetica,sans-Serif" font-size="10.00">Point::setOrigin</text>
</a>
</g>
</g>
<!-- Node18&#45;&gt;Node19 -->
<g id="edge19" class="edge"><title>Node18&#45;&gt;Node19</title>
<path fill="none" stroke="midnightblue" d="M369.215,-162C393.692,-162 421.017,-162 442.865,-162"/>
<polygon fill="midnightblue" stroke="midnightblue" points="368.924,-158.5 358.924,-162 368.924,-165.5 368.924,-158.5"/>
</g>
<!-- Node20&#45;&gt;Node17 -->
<g id="edge21" class="edge"><title>Node20&#45;&gt;Node17</title>
<path fill="none" stroke="midnightblue" d="M360.761,-97.6905C391.866,-104.331 429.555,-112.377 454.999,-117.809"/>
<polygon fill="midnightblue" stroke="midnightblue" points="361.427,-94.254 350.917,-95.589 359.966,-101.1 361.427,-94.254"/>
</g>
<!-- Node21&#45;&gt;Node20 -->
<g id="edge26" class="edge"><title>Node21&#45;&gt;Node20</title>
<path fill="none" stroke="midnightblue" d="M211.959,-74.3415C224.761,-75.963 238.261,-77.6731 250.86,-79.2689"/>
<polygon fill="midnightblue" stroke="midnightblue" points="212.234,-70.8484 201.873,-73.064 211.354,-77.7929 212.234,-70.8484"/>
</g>
<!-- Node22 -->
<g id="node22" class="node"><title>Node22</title>
<g id="a_node22"><a xlink:href="class_graphics_item.html#a53a0964502bdc810a0684c9bb9b08f86" target="_top" xlink:title="GraphicsItem::setAbsolute">
<polygon fill="white" stroke="black" points="238.5,-0.5 238.5,-19.5 371.5,-19.5 371.5,-0.5 238.5,-0.5"/>
<text text-anchor="middle" x="305" y="-7.5" font-family="Helvetica,sans-Serif" font-size="10.00">GraphicsItem::setAbsolute</text>
</a>
</g>
</g>
<!-- Node21&#45;&gt;Node22 -->
<g id="edge23" class="edge"><title>Node21&#45;&gt;Node22</title>
<path fill="none" stroke="midnightblue" d="M189.088,-53.6241C193.466,-51.8049 197.858,-49.906 202,-48 218.435,-40.4373 221.219,-35.7603 238,-29 246.848,-25.4356 256.611,-22.2435 265.854,-19.539"/>
<polygon fill="midnightblue" stroke="midnightblue" points="187.585,-50.4567 179.627,-57.4514 190.21,-56.9459 187.585,-50.4567"/>
</g>
<!-- Node24 -->
<g id="node24" class="node"><title>Node24</title>
<g id="a_node24"><a xlink:href="class_point.html#ac5f7b13934e6e617bd656b8bcf17c3cf" target="_top" xlink:title="Point::setAbsolute">
<polygon fill="white" stroke="black" points="256.5,-38.5 256.5,-57.5 353.5,-57.5 353.5,-38.5 256.5,-38.5"/>
<text text-anchor="middle" x="305" y="-45.5" font-family="Helvetica,sans-Serif" font-size="10.00">Point::setAbsolute</text>
</a>
</g>
</g>
<!-- Node21&#45;&gt;Node24 -->
<g id="edge25" class="edge"><title>Node21&#45;&gt;Node24</title>
<path fill="none" stroke="midnightblue" d="M211.871,-59.6696C226.57,-57.8078 242.196,-55.8285 256.324,-54.0389"/>
<polygon fill="midnightblue" stroke="midnightblue" points="211.354,-56.2071 201.873,-60.936 212.234,-63.1516 211.354,-56.2071"/>
</g>
<!-- Node23 -->
<g id="node23" class="node"><title>Node23</title>
<g id="a_node23"><a xlink:href="class_graphics_point.html#aaceb83d2bd068629dccfde4aee9c60f5" target="_top" xlink:title="GraphicsPoint::meHandleEvent">
<polygon fill="white" stroke="black" points="408,-0.5 408,-19.5 562,-19.5 562,-0.5 408,-0.5"/>
<text text-anchor="middle" x="485" y="-7.5" font-family="Helvetica,sans-Serif" font-size="10.00">GraphicsPoint::meHandleEvent</text>
</a>
</g>
</g>
<!-- Node22&#45;&gt;Node23 -->
<g id="edge24" class="edge"><title>Node22&#45;&gt;Node23</title>
<path fill="none" stroke="midnightblue" d="M381.596,-10C390.262,-10 399.102,-10 407.776,-10"/>
<polygon fill="midnightblue" stroke="midnightblue" points="381.522,-6.5001 371.522,-10 381.522,-13.5001 381.522,-6.5001"/>
</g>
</g>
</svg>
        <g id="navigator" transform="translate(0 0)" fill="#404254">
                <rect fill="#f2f5e9" fill-opacity="0.5" stroke="#606060" stroke-width=".5" x="0" y="0" width="60" height="60"/>
                <use id="zoomplus" xlink:href="#zoomPlus" x="17" y="9" onmousedown="handleZoom(evt,'in')"/>
                <use id="zoomminus" xlink:href="#zoomMin" x="42" y="9" onmousedown="handleZoom(evt,'out')"/>
                <use id="reset" xlink:href="#resetDef" x="30" y="36" onmousedown="handleReset()"/>
                <g id="arrowUp" xlink:href="#dirArrow" transform="translate(30 24)" onmousedown="handlePan(0,-1)">
                  <use xlink:href="#rim" fill="#404040">
                        <set attributeName="fill" to="#808080" begin="arrowUp.mouseover" end="arrowUp.mouseout"/>
                  </use>
                  <path fill="none" stroke="white" stroke-width="1.5" d="M0,-3.0v7 M-2.5,-0.5L0,-3.0L2.5,-0.5"/>
                </g>
                <g id="arrowRight" xlink:href="#dirArrow" transform="rotate(90) translate(36 -43)" onmousedown="handlePan(1,0)">
                  <use xlink:href="#rim" fill="#404040">
                        <set attributeName="fill" to="#808080" begin="arrowRight.mouseover" end="arrowRight.mouseout"/>
                  </use>
                  <path fill="none" stroke="white" stroke-width="1.5" d="M0,-3.0v7 M-2.5,-0.5L0,-3.0L2.5,-0.5"/>
                </g>
                <g id="arrowDown" xlink:href="#dirArrow" transform="rotate(180) translate(-30 -48)" onmousedown="handlePan(0,1)">
                  <use xlink:href="#rim" fill="#404040">
                        <set attributeName="fill" to="#808080" begin="arrowDown.mouseover" end="arrowDown.mouseout"/>
                  </use>
                  <path fill="none" stroke="white" stroke-width="1.5" d="M0,-3.0v7 M-2.5,-0.5L0,-3.0L2.5,-0.5"/>
                </g>
                <g id="arrowLeft" xlink:href="#dirArrow" transform="rotate(270) translate(-36 17)" onmousedown="handlePan(-1,0)">
                  <use xlink:href="#rim" fill="#404040">
                        <set attributeName="fill" to="#808080" begin="arrowLeft.mouseover" end="arrowLeft.mouseout"/>
                  </use>
                  <path fill="none" stroke="white" stroke-width="1.5" d="M0,-3.0v7 M-2.5,-0.5L0,-3.0L2.5,-0.5"/>
                </g>
        </g>
        <svg viewBox="0 0 15 15" width="100%" height="30px" preserveAspectRatio="xMaxYMin meet">
         <g id="arrow_out" transform="scale(0.3 0.3)">
          <a xlink:href="class_point_ad92f2337b839a94ce97dcdb439b4325a_icgraph_org.svg" target="_base">
           <rect id="button" ry="5" rx="5" y="6" x="6" height="38" width="38"
                fill="#f2f5e9" fill-opacity="0.5" stroke="#606060" stroke-width="1.0"/>
           <path id="arrow"
             d="M 11.500037,31.436501 C 11.940474,20.09759 22.043105,11.32322 32.158766,21.979434 L 37.068811,17.246167 C 37.068811,17.246167 37.088388,32 37.088388,32 L 22.160133,31.978069 C 22.160133,31.978069 26.997745,27.140456 26.997745,27.140456 C 18.528582,18.264221 13.291696,25.230495 11.500037,31.436501 z"
             style="fill:#404040;"/>
          </a>
         </g>
        </svg>
</svg>
