<?xml version="1.0" encoding="UTF-8" standalone="no"?>
<!DOCTYPE svg PUBLIC "-//W3C//DTD SVG 1.1//EN"
 "http://www.w3.org/Graphics/SVG/1.1/DTD/svg11.dtd">
<!-- Generated by graphviz version 2.36.0 (20140111.2315)
 -->
<!-- Title: GraphicsItem::setParent Pages: 1 -->
<svg width="314pt" height="66pt"
 viewBox="0.00 0.00 314.00 66.00" xmlns="http://www.w3.org/2000/svg" xmlns:xlink="http://www.w3.org/1999/xlink">
<g id="graph0" class="graph" transform="scale(1 1) rotate(0) translate(4 62)">
<title>GraphicsItem::setParent</title>
<polygon fill="white" stroke="none" points="-4,4 -4,-62 310,-62 310,4 -4,4"/>
<!-- Node1 -->
<g id="node1" class="node"><title>Node1</title>
<polygon fill="#bfbfbf" stroke="black" points="0.5,-19.5 0.5,-38.5 123.5,-38.5 123.5,-19.5 0.5,-19.5"/>
<text text-anchor="middle" x="62" y="-26.5" font-family="Helvetica,sans-Serif" font-size="10.00">GraphicsItem::setParent</text>
</g>
<!-- Node2 -->
<g id="node2" class="node"><title>Node2</title>
<g id="a_node2"><a xlink:href="class_graphics_item.html#a96c30111512bd4f198e9414b70bb3ccc" target="_top" xlink:title="GraphicsItem::GraphicsItem">
<polygon fill="white" stroke="black" points="163,-38.5 163,-57.5 303,-57.5 303,-38.5 163,-38.5"/>
<text text-anchor="middle" x="233" y="-45.5" font-family="Helvetica,sans-Serif" font-size="10.00">GraphicsItem::GraphicsItem</text>
</a>
</g>
</g>
<!-- Node1&#45;&gt;Node2 -->
<g id="edge1" class="edge"><title>Node1&#45;&gt;Node2</title>
<path fill="none" stroke="midnightblue" d="M133.562,-36.933C143.292,-38.0269 153.276,-39.1494 162.978,-40.2402"/>
<polygon fill="midnightblue" stroke="midnightblue" points="133.864,-33.445 123.536,-35.8058 133.082,-40.4012 133.864,-33.445"/>
</g>
<!-- Node3 -->
<g id="node3" class="node"><title>Node3</title>
<g id="a_node3"><a xlink:href="class_graphics_item.html#ad76d7190cfa332054ae66d505fb37bb1" target="_top" xlink:title="GraphicsItem::~GraphicsItem">
<polygon fill="white" stroke="black" points="160,-0.5 160,-19.5 306,-19.5 306,-0.5 160,-0.5"/>
<text text-anchor="middle" x="233" y="-7.5" font-family="Helvetica,sans-Serif" font-size="10.00">GraphicsItem::~GraphicsItem</text>
</a>
</g>
</g>
<!-- Node1&#45;&gt;Node3 -->
<g id="edge2" class="edge"><title>Node1&#45;&gt;Node3</title>
<path fill="none" stroke="midnightblue" d="M133.582,-21.0647C142.238,-20.0916 151.094,-19.096 159.773,-18.1201"/>
<polygon fill="midnightblue" stroke="midnightblue" points="133.082,-17.5988 123.536,-22.1942 133.864,-24.555 133.082,-17.5988"/>
</g>
</g>
</svg>
