<?xml version="1.0" encoding="UTF-8" standalone="no"?>
<!DOCTYPE svg PUBLIC "-//W3C//DTD SVG 1.1//EN"
 "http://www.w3.org/Graphics/SVG/1.1/DTD/svg11.dtd">
<!-- Generated by graphviz version 2.36.0 (20140111.2315)
 -->
<!-- Title: Point::originChanged Pages: 1 -->
<svg width="338pt" height="28pt"
 viewBox="0.00 0.00 338.00 28.00" xmlns="http://www.w3.org/2000/svg" xmlns:xlink="http://www.w3.org/1999/xlink">
<g id="graph0" class="graph" transform="scale(1 1) rotate(0) translate(4 24)">
<title>Point::originChanged</title>
<polygon fill="white" stroke="none" points="-4,4 -4,-24 334,-24 334,4 -4,4"/>
<!-- Node1 -->
<g id="node1" class="node"><title>Node1</title>
<polygon fill="#bfbfbf" stroke="black" points="0.5,-0.5 0.5,-19.5 107.5,-19.5 107.5,-0.5 0.5,-0.5"/>
<text text-anchor="middle" x="54" y="-7.5" font-family="Helvetica,sans-Serif" font-size="10.00">Point::originChanged</text>
</g>
<!-- Node2 -->
<g id="node2" class="node"><title>Node2</title>
<g id="a_node2"><a xlink:href="class_point.html#a04ce786cebfd535bc380833a71405930" target="_top" xlink:title="Point::absolute">
<polygon fill="white" stroke="black" points="144,-0.5 144,-19.5 226,-19.5 226,-0.5 144,-0.5"/>
<text text-anchor="middle" x="185" y="-7.5" font-family="Helvetica,sans-Serif" font-size="10.00">Point::absolute</text>
</a>
</g>
</g>
<!-- Node1&#45;&gt;Node2 -->
<g id="edge1" class="edge"><title>Node1&#45;&gt;Node2</title>
<path fill="none" stroke="midnightblue" d="M107.841,-10C116.35,-10 125.138,-10 133.587,-10"/>
<polygon fill="midnightblue" stroke="midnightblue" points="133.684,-13.5001 143.684,-10 133.684,-6.5001 133.684,-13.5001"/>
</g>
<!-- Node3 -->
<g id="node3" class="node"><title>Node3</title>
<g id="a_node3"><a xlink:href="class_point.html#ad92f2337b839a94ce97dcdb439b4325a" target="_top" xlink:title="Constructeur par défaut de la classe Point. ">
<polygon fill="white" stroke="black" points="262,-0.5 262,-19.5 330,-19.5 330,-0.5 262,-0.5"/>
<text text-anchor="middle" x="296" y="-7.5" font-family="Helvetica,sans-Serif" font-size="10.00">Point::Point</text>
</a>
</g>
</g>
<!-- Node2&#45;&gt;Node3 -->
<g id="edge2" class="edge"><title>Node2&#45;&gt;Node3</title>
<path fill="none" stroke="midnightblue" d="M226.278,-10C234.465,-10 243.112,-10 251.408,-10"/>
<polygon fill="midnightblue" stroke="midnightblue" points="251.667,-13.5001 261.667,-10 251.667,-6.5001 251.667,-13.5001"/>
</g>
</g>
</svg>
