<?xml version="1.0" encoding="UTF-8" standalone="no"?>
<!DOCTYPE svg PUBLIC "-//W3C//DTD SVG 1.1//EN"
 "http://www.w3.org/Graphics/SVG/1.1/DTD/svg11.dtd">
<!-- Generated by graphviz version 2.36.0 (20140111.2315)
 -->
<!-- Title: GraphicsItem::setAbsolute Pages: 1 -->
<svg width="450pt" height="84pt"
 viewBox="0.00 0.00 450.00 84.00" xmlns="http://www.w3.org/2000/svg" xmlns:xlink="http://www.w3.org/1999/xlink">
<g id="graph0" class="graph" transform="scale(1 1) rotate(0) translate(4 80)">
<title>GraphicsItem::setAbsolute</title>
<polygon fill="white" stroke="none" points="-4,4 -4,-80 446,-80 446,4 -4,4"/>
<!-- Node1 -->
<g id="node1" class="node"><title>Node1</title>
<polygon fill="#bfbfbf" stroke="black" points="0.5,-28.5 0.5,-47.5 133.5,-47.5 133.5,-28.5 0.5,-28.5"/>
<text text-anchor="middle" x="67" y="-35.5" font-family="Helvetica,sans-Serif" font-size="10.00">GraphicsItem::setAbsolute</text>
</g>
<!-- Node2 -->
<g id="node2" class="node"><title>Node2</title>
<g id="a_node2"><a xlink:href="class_graphics_item.html#ab1266d26ff6aa338959c0796ef915fc4" target="_top" xlink:title="GraphicsItem::setAnchor">
<polygon fill="white" stroke="black" points="170.5,-56.5 170.5,-75.5 295.5,-75.5 295.5,-56.5 170.5,-56.5"/>
<text text-anchor="middle" x="233" y="-63.5" font-family="Helvetica,sans-Serif" font-size="10.00">GraphicsItem::setAnchor</text>
</a>
</g>
</g>
<!-- Node1&#45;&gt;Node2 -->
<g id="edge1" class="edge"><title>Node1&#45;&gt;Node2</title>
<path fill="none" stroke="midnightblue" d="M123.981,-47.5577C137.57,-49.8779 152.224,-52.3797 166.22,-54.7693"/>
<polygon fill="midnightblue" stroke="midnightblue" points="165.825,-58.2524 176.271,-56.4854 167.003,-51.3523 165.825,-58.2524"/>
</g>
<!-- Node4 -->
<g id="node4" class="node"><title>Node4</title>
<g id="a_node4"><a xlink:href="class_graphics_item.html#acddeaf58963ddb0de93b7c1b27512af7" target="_top" xlink:title="GraphicsItem::absolute">
<polygon fill="white" stroke="black" points="174,-0.5 174,-19.5 292,-19.5 292,-0.5 174,-0.5"/>
<text text-anchor="middle" x="233" y="-7.5" font-family="Helvetica,sans-Serif" font-size="10.00">GraphicsItem::absolute</text>
</a>
</g>
</g>
<!-- Node1&#45;&gt;Node4 -->
<g id="edge3" class="edge"><title>Node1&#45;&gt;Node4</title>
<path fill="none" stroke="midnightblue" d="M123.981,-28.4423C137.57,-26.1221 152.224,-23.6203 166.22,-21.2307"/>
<polygon fill="midnightblue" stroke="midnightblue" points="167.003,-24.6477 176.271,-19.5146 165.825,-17.7476 167.003,-24.6477"/>
</g>
<!-- Node3 -->
<g id="node3" class="node"><title>Node3</title>
<g id="a_node3"><a xlink:href="class_graphics_item.html#a742f444cb7d1a142dec52ee777dd51c3" target="_top" xlink:title="GraphicsItem::anchor">
<polygon fill="white" stroke="black" points="332,-56.5 332,-75.5 442,-75.5 442,-56.5 332,-56.5"/>
<text text-anchor="middle" x="387" y="-63.5" font-family="Helvetica,sans-Serif" font-size="10.00">GraphicsItem::anchor</text>
</a>
</g>
</g>
<!-- Node2&#45;&gt;Node3 -->
<g id="edge2" class="edge"><title>Node2&#45;&gt;Node3</title>
<path fill="none" stroke="midnightblue" d="M295.824,-66C304.239,-66 312.893,-66 321.356,-66"/>
<polygon fill="midnightblue" stroke="midnightblue" points="321.554,-69.5001 331.554,-66 321.554,-62.5001 321.554,-69.5001"/>
</g>
<!-- Node4&#45;&gt;Node4 -->
<g id="edge4" class="edge"><title>Node4&#45;&gt;Node4</title>
<path fill="none" stroke="midnightblue" d="M209.264,-19.7571C197.717,-28.5653 205.629,-38 233,-38 250.962,-38 260.544,-33.9368 261.746,-28.6539"/>
<polygon fill="midnightblue" stroke="midnightblue" points="264.692,-26.7532 256.736,-19.7571 258.593,-30.1879 264.692,-26.7532"/>
</g>
</g>
</svg>
