<?xml version="1.0" encoding="UTF-8" standalone="no"?>
<!DOCTYPE svg PUBLIC "-//W3C//DTD SVG 1.1//EN"
 "http://www.w3.org/Graphics/SVG/1.1/DTD/svg11.dtd">
<!-- Generated by graphviz version 2.36.0 (20140111.2315)
 -->
<!-- Title: GraphicsRectangle::meIsOver Pages: 1 -->
<svg width="268pt" height="144pt"
 viewBox="0.00 0.00 268.00 144.00" xmlns="http://www.w3.org/2000/svg" xmlns:xlink="http://www.w3.org/1999/xlink">
<g id="graph0" class="graph" transform="scale(1 1) rotate(0) translate(4 140)">
<title>GraphicsRectangle::meIsOver</title>
<polygon fill="white" stroke="none" points="-4,4 -4,-140 264,-140 264,4 -4,4"/>
<!-- Node1 -->
<g id="node1" class="node"><title>Node1</title>
<polygon fill="#bfbfbf" stroke="black" points="0,-44 0,-74 106,-74 106,-44 0,-44"/>
<text text-anchor="start" x="8" y="-62" font-family="Helvetica,sans-Serif" font-size="10.00">GraphicsRectangle::</text>
<text text-anchor="middle" x="53" y="-51" font-family="Helvetica,sans-Serif" font-size="10.00">meIsOver</text>
</g>
<!-- Node2 -->
<g id="node2" class="node"><title>Node2</title>
<g id="a_node2"><a xlink:href="class_graphics_rectangle.html#ac355cf74b42b912ae468dbf2e57c07d2" target="_top" xlink:title="recupere les coordonnées. ">
<polygon fill="white" stroke="black" points="148,-106 148,-136 254,-136 254,-106 148,-106"/>
<text text-anchor="start" x="156" y="-124" font-family="Helvetica,sans-Serif" font-size="10.00">GraphicsRectangle::</text>
<text text-anchor="middle" x="201" y="-113" font-family="Helvetica,sans-Serif" font-size="10.00">topLeft</text>
</a>
</g>
</g>
<!-- Node1&#45;&gt;Node2 -->
<g id="edge1" class="edge"><title>Node1&#45;&gt;Node2</title>
<path fill="none" stroke="midnightblue" d="M89.3425,-74.0085C109.102,-82.3996 133.931,-92.9434 155.061,-101.916"/>
<polygon fill="midnightblue" stroke="midnightblue" points="153.904,-105.228 164.477,-105.915 156.641,-98.7845 153.904,-105.228"/>
</g>
<!-- Node3 -->
<g id="node3" class="node"><title>Node3</title>
<g id="a_node3"><a xlink:href="class_graphics_item.html#acddeaf58963ddb0de93b7c1b27512af7" target="_top" xlink:title="GraphicsItem::absolute">
<polygon fill="white" stroke="black" points="142,-49.5 142,-68.5 260,-68.5 260,-49.5 142,-49.5"/>
<text text-anchor="middle" x="201" y="-56.5" font-family="Helvetica,sans-Serif" font-size="10.00">GraphicsItem::absolute</text>
</a>
</g>
</g>
<!-- Node1&#45;&gt;Node3 -->
<g id="edge2" class="edge"><title>Node1&#45;&gt;Node3</title>
<path fill="none" stroke="midnightblue" d="M106.297,-59C114.589,-59 123.27,-59 131.86,-59"/>
<polygon fill="midnightblue" stroke="midnightblue" points="131.875,-62.5001 141.875,-59 131.875,-55.5001 131.875,-62.5001"/>
</g>
<!-- Node4 -->
<g id="node4" class="node"><title>Node4</title>
<g id="a_node4"><a xlink:href="class_graphics_rectangle.html#a1d46531794b6c92016cebc53d4eab9bf" target="_top" xlink:title="GraphicsRectangle::\lbottomRight">
<polygon fill="white" stroke="black" points="148,-0 148,-30 254,-30 254,-0 148,-0"/>
<text text-anchor="start" x="156" y="-18" font-family="Helvetica,sans-Serif" font-size="10.00">GraphicsRectangle::</text>
<text text-anchor="middle" x="201" y="-7" font-family="Helvetica,sans-Serif" font-size="10.00">bottomRight</text>
</a>
</g>
</g>
<!-- Node1&#45;&gt;Node4 -->
<g id="edge4" class="edge"><title>Node1&#45;&gt;Node4</title>
<path fill="none" stroke="midnightblue" d="M103.837,-43.9808C115.569,-40.4448 128.193,-36.6405 140.31,-32.9888"/>
<polygon fill="midnightblue" stroke="midnightblue" points="141.328,-36.3376 149.892,-30.1009 139.308,-29.6354 141.328,-36.3376"/>
</g>
<!-- Node3&#45;&gt;Node3 -->
<g id="edge3" class="edge"><title>Node3&#45;&gt;Node3</title>
<path fill="none" stroke="midnightblue" d="M178.189,-68.7571C167.092,-77.5653 174.695,-87 201,-87 218.262,-87 227.471,-82.9368 228.626,-77.6539"/>
<polygon fill="midnightblue" stroke="midnightblue" points="231.649,-75.886 223.811,-68.7571 225.492,-79.2176 231.649,-75.886"/>
</g>
</g>
</svg>
