<?xml version="1.0" encoding="UTF-8" standalone="no"?>
<!DOCTYPE svg PUBLIC "-//W3C//DTD SVG 1.1//EN"
 "http://www.w3.org/Graphics/SVG/1.1/DTD/svg11.dtd">
<!-- Generated by graphviz version 2.36.0 (20140111.2315)
 -->
<!-- Title: Window Pages: 1 -->
<svg width="130pt" height="574pt"
 viewBox="0.00 0.00 130.00 574.00" xmlns="http://www.w3.org/2000/svg" xmlns:xlink="http://www.w3.org/1999/xlink">
<g id="graph0" class="graph" transform="scale(1 1) rotate(0) translate(4 570)">
<title>Window</title>
<polygon fill="white" stroke="none" points="-4,4 -4,-570 126,-570 126,4 -4,4"/>
<!-- Node1 -->
<g id="node1" class="node"><title>Node1</title>
<polygon fill="#bfbfbf" stroke="black" points="0,-172.5 0,-471.5 122,-471.5 122,-172.5 0,-172.5"/>
<text text-anchor="middle" x="61" y="-459.5" font-family="Helvetica,sans-Serif" font-size="10.00">Window</text>
<polyline fill="none" stroke="black" points="0,-452.5 122,-452.5 "/>
<text text-anchor="middle" x="61" y="-440.5" font-family="Helvetica,sans-Serif" font-size="10.00"> </text>
<polyline fill="none" stroke="black" points="0,-433.5 122,-433.5 "/>
<text text-anchor="start" x="8" y="-421.5" font-family="Helvetica,sans-Serif" font-size="10.00">+ Window()</text>
<text text-anchor="start" x="8" y="-410.5" font-family="Helvetica,sans-Serif" font-size="10.00">+ ~Window()</text>
<text text-anchor="start" x="8" y="-399.5" font-family="Helvetica,sans-Serif" font-size="10.00">+ doubleBuffer()</text>
<text text-anchor="start" x="8" y="-388.5" font-family="Helvetica,sans-Serif" font-size="10.00">+ setDoubleBuffer()</text>
<text text-anchor="start" x="8" y="-377.5" font-family="Helvetica,sans-Serif" font-size="10.00">+ width()</text>
<text text-anchor="start" x="8" y="-366.5" font-family="Helvetica,sans-Serif" font-size="10.00">+ setWidth()</text>
<text text-anchor="start" x="8" y="-355.5" font-family="Helvetica,sans-Serif" font-size="10.00">+ height()</text>
<text text-anchor="start" x="8" y="-344.5" font-family="Helvetica,sans-Serif" font-size="10.00">+ setHeight()</text>
<text text-anchor="start" x="8" y="-333.5" font-family="Helvetica,sans-Serif" font-size="10.00">+ resize()</text>
<text text-anchor="start" x="8" y="-322.5" font-family="Helvetica,sans-Serif" font-size="10.00">+ isVisible()</text>
<text text-anchor="start" x="8" y="-311.5" font-family="Helvetica,sans-Serif" font-size="10.00">+ setVisible()</text>
<text text-anchor="start" x="8" y="-300.5" font-family="Helvetica,sans-Serif" font-size="10.00">+ drawRequest()</text>
<text text-anchor="start" x="8" y="-289.5" font-family="Helvetica,sans-Serif" font-size="10.00">+ canvas()</text>
<text text-anchor="start" x="8" y="-278.5" font-family="Helvetica,sans-Serif" font-size="10.00"># drawEvent()</text>
<text text-anchor="start" x="8" y="-267.5" font-family="Helvetica,sans-Serif" font-size="10.00"># resizeEvent()</text>
<text text-anchor="start" x="8" y="-256.5" font-family="Helvetica,sans-Serif" font-size="10.00"># closeEvent()</text>
<text text-anchor="start" x="8" y="-245.5" font-family="Helvetica,sans-Serif" font-size="10.00"># mousePressEvent()</text>
<text text-anchor="start" x="8" y="-234.5" font-family="Helvetica,sans-Serif" font-size="10.00"># mouseReleaseEvent()</text>
<text text-anchor="start" x="8" y="-223.5" font-family="Helvetica,sans-Serif" font-size="10.00"># mouseMoveEvent()</text>
<text text-anchor="start" x="8" y="-212.5" font-family="Helvetica,sans-Serif" font-size="10.00"># keyPressEvent()</text>
<text text-anchor="start" x="8" y="-201.5" font-family="Helvetica,sans-Serif" font-size="10.00"># keyReleaseEvent()</text>
<text text-anchor="start" x="8" y="-190.5" font-family="Helvetica,sans-Serif" font-size="10.00"># handleEvent()</text>
<text text-anchor="start" x="8" y="-179.5" font-family="Helvetica,sans-Serif" font-size="10.00"># updateEvent()</text>
</g>
<!-- Node3 -->
<g id="node3" class="node"><title>Node3</title>
<g id="a_node3"><a xlink:href="class_main_window.html" target="_top" xlink:title="{MainWindow\n||+ MainWindow()\l# drawEvent()\l# mousePressEvent()\l# mouseReleaseEvent()\l# mouseMoveEvent()\l# updateEvent()\l# handleEvent()\l# createRectangle()\l}">
<polygon fill="white" stroke="black" points="0,-1 0,-135 122,-135 122,-1 0,-1"/>
<text text-anchor="middle" x="61" y="-123" font-family="Helvetica,sans-Serif" font-size="10.00">MainWindow</text>
<polyline fill="none" stroke="black" points="0,-116 122,-116 "/>
<text text-anchor="middle" x="61" y="-104" font-family="Helvetica,sans-Serif" font-size="10.00"> </text>
<polyline fill="none" stroke="black" points="0,-97 122,-97 "/>
<text text-anchor="start" x="8" y="-85" font-family="Helvetica,sans-Serif" font-size="10.00">+ MainWindow()</text>
<text text-anchor="start" x="8" y="-74" font-family="Helvetica,sans-Serif" font-size="10.00"># drawEvent()</text>
<text text-anchor="start" x="8" y="-63" font-family="Helvetica,sans-Serif" font-size="10.00"># mousePressEvent()</text>
<text text-anchor="start" x="8" y="-52" font-family="Helvetica,sans-Serif" font-size="10.00"># mouseReleaseEvent()</text>
<text text-anchor="start" x="8" y="-41" font-family="Helvetica,sans-Serif" font-size="10.00"># mouseMoveEvent()</text>
<text text-anchor="start" x="8" y="-30" font-family="Helvetica,sans-Serif" font-size="10.00"># updateEvent()</text>
<text text-anchor="start" x="8" y="-19" font-family="Helvetica,sans-Serif" font-size="10.00"># handleEvent()</text>
<text text-anchor="start" x="8" y="-8" font-family="Helvetica,sans-Serif" font-size="10.00"># createRectangle()</text>
</a>
</g>
</g>
<!-- Node1&#45;&gt;Node3 -->
<g id="edge2" class="edge"><title>Node1&#45;&gt;Node3</title>
<path fill="none" stroke="midnightblue" d="M61,-162.031C61,-152.719 61,-143.666 61,-135.096"/>
<polygon fill="none" stroke="midnightblue" points="57.5001,-162.225 61,-172.225 64.5001,-162.225 57.5001,-162.225"/>
</g>
<!-- Node2 -->
<g id="node2" class="node"><title>Node2</title>
<polygon fill="white" stroke="#bfbfbf" points="28.5,-508.5 28.5,-565.5 93.5,-565.5 93.5,-508.5 28.5,-508.5"/>
<text text-anchor="middle" x="61" y="-553.5" font-family="Helvetica,sans-Serif" font-size="10.00">EZWindow</text>
<polyline fill="none" stroke="#bfbfbf" points="28.5,-546.5 93.5,-546.5 "/>
<text text-anchor="middle" x="61" y="-534.5" font-family="Helvetica,sans-Serif" font-size="10.00"> </text>
<polyline fill="none" stroke="#bfbfbf" points="28.5,-527.5 93.5,-527.5 "/>
<text text-anchor="middle" x="61" y="-515.5" font-family="Helvetica,sans-Serif" font-size="10.00"> </text>
</g>
<!-- Node2&#45;&gt;Node1 -->
<g id="edge1" class="edge"><title>Node2&#45;&gt;Node1</title>
<path fill="none" stroke="#8b1a1a" d="M61,-497.923C61,-489.996 61,-481.193 61,-471.872"/>
<polygon fill="none" stroke="#8b1a1a" points="57.5001,-498.154 61,-508.154 64.5001,-498.154 57.5001,-498.154"/>
</g>
</g>
</svg>
