<?xml version="1.0" encoding="UTF-8" standalone="no"?>
<!DOCTYPE svg PUBLIC "-//W3C//DTD SVG 1.1//EN"
 "http://www.w3.org/Graphics/SVG/1.1/DTD/svg11.dtd">
<!-- Generated by graphviz version 2.36.0 (20140111.2315)
 -->
<!-- Title: GraphicsAnimation Pages: 1 -->
<svg width="144pt" height="648pt"
 viewBox="0.00 0.00 144.00 648.00" xmlns="http://www.w3.org/2000/svg" xmlns:xlink="http://www.w3.org/1999/xlink">
<g id="graph0" class="graph" transform="scale(1 1) rotate(0) translate(4 644)">
<title>GraphicsAnimation</title>
<polygon fill="white" stroke="none" points="-4,4 -4,-644 140,-644 140,4 -4,4"/>
<!-- Node1 -->
<g id="node1" class="node"><title>Node1</title>
<polygon fill="#bfbfbf" stroke="black" points="11,-195 11,-263 125,-263 125,-195 11,-195"/>
<text text-anchor="middle" x="68" y="-251" font-family="Helvetica,sans-Serif" font-size="10.00">GraphicsAnimation</text>
<polyline fill="none" stroke="black" points="11,-244 125,-244 "/>
<text text-anchor="middle" x="68" y="-232" font-family="Helvetica,sans-Serif" font-size="10.00"> </text>
<polyline fill="none" stroke="black" points="11,-225 125,-225 "/>
<text text-anchor="start" x="19" y="-213" font-family="Helvetica,sans-Serif" font-size="10.00">+ GraphicsAnimation()</text>
<text text-anchor="start" x="19" y="-202" font-family="Helvetica,sans-Serif" font-size="10.00">+ type()</text>
</g>
<!-- Node4 -->
<g id="node4" class="node"><title>Node4</title>
<g id="a_node4"><a xlink:href="class_graphics_blink_animation.html" target="_top" xlink:title="Faire clignoter sont parent. ">
<polygon fill="white" stroke="black" points="0,-1 0,-157 136,-157 136,-1 0,-1"/>
<text text-anchor="middle" x="68" y="-145" font-family="Helvetica,sans-Serif" font-size="10.00">GraphicsBlinkAnimation</text>
<polyline fill="none" stroke="black" points="0,-138 136,-138 "/>
<text text-anchor="middle" x="68" y="-126" font-family="Helvetica,sans-Serif" font-size="10.00"> </text>
<polyline fill="none" stroke="black" points="0,-119 136,-119 "/>
<text text-anchor="start" x="8" y="-107" font-family="Helvetica,sans-Serif" font-size="10.00">+ GraphicsBlinkAnimation()</text>
<text text-anchor="start" x="8" y="-96" font-family="Helvetica,sans-Serif" font-size="10.00">+ GraphicsBlinkAnimation()</text>
<text text-anchor="start" x="8" y="-85" font-family="Helvetica,sans-Serif" font-size="10.00">+ blinkFrequency()</text>
<text text-anchor="start" x="8" y="-74" font-family="Helvetica,sans-Serif" font-size="10.00">+ setBlinkFrequency()</text>
<text text-anchor="start" x="8" y="-63" font-family="Helvetica,sans-Serif" font-size="10.00">+ becomeColor()</text>
<text text-anchor="start" x="8" y="-52" font-family="Helvetica,sans-Serif" font-size="10.00">+ setBecomeColor()</text>
<text text-anchor="start" x="8" y="-41" font-family="Helvetica,sans-Serif" font-size="10.00">+ becomeInvisible()</text>
<text text-anchor="start" x="8" y="-30" font-family="Helvetica,sans-Serif" font-size="10.00">+ setBecomeInvisible()</text>
<text text-anchor="start" x="8" y="-19" font-family="Helvetica,sans-Serif" font-size="10.00">+ type()</text>
<text text-anchor="start" x="8" y="-8" font-family="Helvetica,sans-Serif" font-size="10.00"># meUpdate()</text>
</a>
</g>
</g>
<!-- Node1&#45;&gt;Node4 -->
<g id="edge3" class="edge"><title>Node1&#45;&gt;Node4</title>
<path fill="none" stroke="midnightblue" d="M68,-184.613C68,-175.964 68,-166.637 68,-157.241"/>
<polygon fill="none" stroke="midnightblue" points="64.5001,-184.786 68,-194.786 71.5001,-184.786 64.5001,-184.786"/>
</g>
<!-- Node2 -->
<g id="node2" class="node"><title>Node2</title>
<g id="a_node2"><a xlink:href="class_graphics_item.html" target="_top" xlink:title="Classe de base. ">
<polygon fill="white" stroke="black" points="17.5,-301 17.5,-545 118.5,-545 118.5,-301 17.5,-301"/>
<text text-anchor="middle" x="68" y="-533" font-family="Helvetica,sans-Serif" font-size="10.00">GraphicsItem</text>
<polyline fill="none" stroke="black" points="17.5,-526 118.5,-526 "/>
<text text-anchor="middle" x="68" y="-514" font-family="Helvetica,sans-Serif" font-size="10.00"> </text>
<polyline fill="none" stroke="black" points="17.5,-507 118.5,-507 "/>
<text text-anchor="start" x="25.5" y="-495" font-family="Helvetica,sans-Serif" font-size="10.00">+ GraphicsItem()</text>
<text text-anchor="start" x="25.5" y="-484" font-family="Helvetica,sans-Serif" font-size="10.00">+ ~GraphicsItem()</text>
<text text-anchor="start" x="25.5" y="-473" font-family="Helvetica,sans-Serif" font-size="10.00">+ id()</text>
<text text-anchor="start" x="25.5" y="-462" font-family="Helvetica,sans-Serif" font-size="10.00">+ parent()</text>
<text text-anchor="start" x="25.5" y="-451" font-family="Helvetica,sans-Serif" font-size="10.00">+ setParent()</text>
<text text-anchor="start" x="25.5" y="-440" font-family="Helvetica,sans-Serif" font-size="10.00">+ type()</text>
<text text-anchor="start" x="25.5" y="-429" font-family="Helvetica,sans-Serif" font-size="10.00">+ children()</text>
<text text-anchor="start" x="25.5" y="-418" font-family="Helvetica,sans-Serif" font-size="10.00">+ position()</text>
<text text-anchor="start" x="25.5" y="-407" font-family="Helvetica,sans-Serif" font-size="10.00">+ position()</text>
<text text-anchor="start" x="25.5" y="-396" font-family="Helvetica,sans-Serif" font-size="10.00">+ color()</text>
<text text-anchor="start" x="25.5" y="-385" font-family="Helvetica,sans-Serif" font-size="10.00">et 14 de plus...</text>
<text text-anchor="start" x="25.5" y="-374" font-family="Helvetica,sans-Serif" font-size="10.00">+ focusItem()</text>
<text text-anchor="start" x="25.5" y="-363" font-family="Helvetica,sans-Serif" font-size="10.00">+ setFocusItem()</text>
<text text-anchor="start" x="25.5" y="-352" font-family="Helvetica,sans-Serif" font-size="10.00">+ make()</text>
<text text-anchor="start" x="25.5" y="-341" font-family="Helvetica,sans-Serif" font-size="10.00"># meDraw()</text>
<text text-anchor="start" x="25.5" y="-330" font-family="Helvetica,sans-Serif" font-size="10.00"># meUpdate()</text>
<text text-anchor="start" x="25.5" y="-319" font-family="Helvetica,sans-Serif" font-size="10.00"># meHandleEvent()</text>
<text text-anchor="start" x="25.5" y="-308" font-family="Helvetica,sans-Serif" font-size="10.00"># meIsOver()</text>
</a>
</g>
</g>
<!-- Node2&#45;&gt;Node1 -->
<g id="edge1" class="edge"><title>Node2&#45;&gt;Node1</title>
<path fill="none" stroke="midnightblue" d="M68,-290.773C68,-280.775 68,-271.369 68,-263.081"/>
<polygon fill="none" stroke="midnightblue" points="64.5001,-290.948 68,-300.948 71.5001,-290.948 64.5001,-290.948"/>
</g>
<!-- Node3 -->
<g id="node3" class="node"><title>Node3</title>
<polygon fill="white" stroke="#bfbfbf" points="17.5,-582.5 17.5,-639.5 118.5,-639.5 118.5,-582.5 17.5,-582.5"/>
<text text-anchor="middle" x="68" y="-627.5" font-family="Helvetica,sans-Serif" font-size="10.00">boost::noncopyable</text>
<polyline fill="none" stroke="#bfbfbf" points="17.5,-620.5 118.5,-620.5 "/>
<text text-anchor="middle" x="68" y="-608.5" font-family="Helvetica,sans-Serif" font-size="10.00"> </text>
<polyline fill="none" stroke="#bfbfbf" points="17.5,-601.5 118.5,-601.5 "/>
<text text-anchor="middle" x="68" y="-589.5" font-family="Helvetica,sans-Serif" font-size="10.00"> </text>
</g>
<!-- Node3&#45;&gt;Node2 -->
<g id="edge2" class="edge"><title>Node3&#45;&gt;Node2</title>
<path fill="none" stroke="#8b1a1a" d="M68,-571.933C68,-563.741 68,-554.663 68,-545.15"/>
<polygon fill="none" stroke="#8b1a1a" points="64.5001,-572.154 68,-582.154 71.5001,-572.154 64.5001,-572.154"/>
</g>
</g>
</svg>
