<?xml version="1.0" encoding="UTF-8" standalone="no"?>
<!DOCTYPE svg PUBLIC "-//W3C//DTD SVG 1.1//EN"
 "http://www.w3.org/Graphics/SVG/1.1/DTD/svg11.dtd">
<!-- Generated by graphviz version 2.36.0 (20140111.2315)
 -->
<!-- Title: GraphicsItem::setFocusItem Pages: 1 -->
<svg width="492pt" height="28pt"
 viewBox="0.00 0.00 492.00 28.00" xmlns="http://www.w3.org/2000/svg" xmlns:xlink="http://www.w3.org/1999/xlink">
<g id="graph0" class="graph" transform="scale(1 1) rotate(0) translate(4 24)">
<title>GraphicsItem::setFocusItem</title>
<polygon fill="white" stroke="none" points="-4,4 -4,-24 488,-24 488,4 -4,4"/>
<!-- Node1 -->
<g id="node1" class="node"><title>Node1</title>
<polygon fill="#bfbfbf" stroke="black" points="0.5,-0.5 0.5,-19.5 141.5,-19.5 141.5,-0.5 0.5,-0.5"/>
<text text-anchor="middle" x="71" y="-7.5" font-family="Helvetica,sans-Serif" font-size="10.00">GraphicsItem::setFocusItem</text>
</g>
<!-- Node2 -->
<g id="node2" class="node"><title>Node2</title>
<g id="a_node2"><a xlink:href="class_graphics_item.html#ad6c62fa07246bc1d7b9eae6340a246e2" target="_top" xlink:title="GraphicsItem::handleEvent">
<polygon fill="white" stroke="black" points="178.5,-0.5 178.5,-19.5 313.5,-19.5 313.5,-0.5 178.5,-0.5"/>
<text text-anchor="middle" x="246" y="-7.5" font-family="Helvetica,sans-Serif" font-size="10.00">GraphicsItem::handleEvent</text>
</a>
</g>
</g>
<!-- Node1&#45;&gt;Node2 -->
<g id="edge1" class="edge"><title>Node1&#45;&gt;Node2</title>
<path fill="none" stroke="midnightblue" d="M152.079,-10C160.83,-10 169.67,-10 178.237,-10"/>
<polygon fill="midnightblue" stroke="midnightblue" points="151.867,-6.5001 141.867,-10 151.867,-13.5001 151.867,-6.5001"/>
</g>
<!-- Node3 -->
<g id="node3" class="node"><title>Node3</title>
<g id="a_node3"><a xlink:href="class_main_window.html#a0c74824ef8e6256455545f2659610b31" target="_top" xlink:title="MainWindow::handleEvent">
<polygon fill="white" stroke="black" points="350.5,-0.5 350.5,-19.5 483.5,-19.5 483.5,-0.5 350.5,-0.5"/>
<text text-anchor="middle" x="417" y="-7.5" font-family="Helvetica,sans-Serif" font-size="10.00">MainWindow::handleEvent</text>
</a>
</g>
</g>
<!-- Node2&#45;&gt;Node3 -->
<g id="edge2" class="edge"><title>Node2&#45;&gt;Node3</title>
<path fill="none" stroke="midnightblue" d="M324.009,-10C332.773,-10 341.645,-10 350.244,-10"/>
<polygon fill="midnightblue" stroke="midnightblue" points="323.793,-6.5001 313.793,-10 323.793,-13.5001 323.793,-6.5001"/>
</g>
</g>
</svg>
