<?xml version="1.0" encoding="UTF-8" standalone="no"?>
<!DOCTYPE svg PUBLIC "-//W3C//DTD SVG 1.1//EN"
 "http://www.w3.org/Graphics/SVG/1.1/DTD/svg11.dtd">
<!-- Generated by graphviz version 2.36.0 (20140111.2315)
 -->
<!-- Title: Font::height Pages: 1 -->
<svg width="528pt" height="218pt"
 viewBox="0.00 0.00 528.00 218.00" xmlns="http://www.w3.org/2000/svg" xmlns:xlink="http://www.w3.org/1999/xlink">
<g id="graph0" class="graph" transform="scale(1 1) rotate(0) translate(4 214)">
<title>Font::height</title>
<polygon fill="white" stroke="none" points="-4,4 -4,-214 524,-214 524,4 -4,4"/>
<!-- Node1 -->
<g id="node1" class="node"><title>Node1</title>
<polygon fill="#bfbfbf" stroke="black" points="0,-95.5 0,-114.5 68,-114.5 68,-95.5 0,-95.5"/>
<text text-anchor="middle" x="34" y="-102.5" font-family="Helvetica,sans-Serif" font-size="10.00">Font::height</text>
</g>
<!-- Node2 -->
<g id="node2" class="node"><title>Node2</title>
<g id="a_node2"><a xlink:href="_font_8cpp.html#a8aa556366c5bc0be00a769f4d2a827dc" target="_top" xlink:title="operator\&lt;">
<polygon fill="white" stroke="black" points="143,-190.5 143,-209.5 201,-209.5 201,-190.5 143,-190.5"/>
<text text-anchor="middle" x="172" y="-197.5" font-family="Helvetica,sans-Serif" font-size="10.00">operator&lt;</text>
</a>
</g>
</g>
<!-- Node1&#45;&gt;Node2 -->
<g id="edge1" class="edge"><title>Node1&#45;&gt;Node2</title>
<path fill="none" stroke="midnightblue" d="M46.9263,-123.157C59.2306,-140.489 79.9741,-166.104 104,-181 115.715,-188.263 130.282,-192.825 142.839,-195.651"/>
<polygon fill="midnightblue" stroke="midnightblue" points="49.5331,-120.77 40.9915,-114.501 43.7598,-124.728 49.5331,-120.77"/>
</g>
<!-- Node3 -->
<g id="node3" class="node"><title>Node3</title>
<g id="a_node3"><a xlink:href="_font_8cpp.html#a88257f2b84beb9d13afc1148c12987dc" target="_top" xlink:title="operator\&lt;\&lt;">
<polygon fill="white" stroke="black" points="140,-152.5 140,-171.5 204,-171.5 204,-152.5 140,-152.5"/>
<text text-anchor="middle" x="172" y="-159.5" font-family="Helvetica,sans-Serif" font-size="10.00">operator&lt;&lt;</text>
</a>
</g>
</g>
<!-- Node1&#45;&gt;Node3 -->
<g id="edge2" class="edge"><title>Node1&#45;&gt;Node3</title>
<path fill="none" stroke="midnightblue" d="M58.8848,-119.914C71.8732,-127.568 88.4263,-136.601 104,-143 115.407,-147.687 128.36,-151.655 139.817,-154.734"/>
<polygon fill="midnightblue" stroke="midnightblue" points="60.4953,-116.799 50.1222,-114.642 56.8866,-122.797 60.4953,-116.799"/>
</g>
<!-- Node4 -->
<g id="node4" class="node"><title>Node4</title>
<g id="a_node4"><a xlink:href="class_label.html#a34427ae6ed59703ae99299e74c3214f9" target="_top" xlink:title="Label::minimumHeight">
<polygon fill="white" stroke="black" points="115,-114.5 115,-133.5 229,-133.5 229,-114.5 115,-114.5"/>
<text text-anchor="middle" x="172" y="-121.5" font-family="Helvetica,sans-Serif" font-size="10.00">Label::minimumHeight</text>
</a>
</g>
</g>
<!-- Node1&#45;&gt;Node4 -->
<g id="edge3" class="edge"><title>Node1&#45;&gt;Node4</title>
<path fill="none" stroke="midnightblue" d="M78.5078,-111.078C90.0383,-112.689 102.653,-114.452 114.756,-116.142"/>
<polygon fill="midnightblue" stroke="midnightblue" points="78.6575,-107.565 68.2693,-109.648 77.6889,-114.498 78.6575,-107.565"/>
</g>
<!-- Node9 -->
<g id="node9" class="node"><title>Node9</title>
<g id="a_node9"><a xlink:href="class_line_edit.html#a04e1cd86821efe7570868ae397978186" target="_top" xlink:title="LineEdit::LineEdit">
<polygon fill="white" stroke="black" points="293.5,-76.5 293.5,-95.5 386.5,-95.5 386.5,-76.5 293.5,-76.5"/>
<text text-anchor="middle" x="340" y="-83.5" font-family="Helvetica,sans-Serif" font-size="10.00">LineEdit::LineEdit</text>
</a>
</g>
</g>
<!-- Node1&#45;&gt;Node9 -->
<g id="edge8" class="edge"><title>Node1&#45;&gt;Node9</title>
<path fill="none" stroke="midnightblue" d="M78.2405,-102.297C135.262,-98.7336 235.159,-92.4901 293.356,-88.8527"/>
<polygon fill="midnightblue" stroke="midnightblue" points="77.8742,-98.8134 68.112,-102.93 78.3109,-105.8 77.8742,-98.8134"/>
</g>
<!-- Node10 -->
<g id="node10" class="node"><title>Node10</title>
<g id="a_node10"><a xlink:href="class_line_edit.html#a636e2ac65a70dd82fcf02f863da5c446" target="_top" xlink:title="LineEdit::setText">
<polygon fill="white" stroke="black" points="126.5,-38.5 126.5,-57.5 217.5,-57.5 217.5,-38.5 126.5,-38.5"/>
<text text-anchor="middle" x="172" y="-45.5" font-family="Helvetica,sans-Serif" font-size="10.00">LineEdit::setText</text>
</a>
</g>
</g>
<!-- Node1&#45;&gt;Node10 -->
<g id="edge9" class="edge"><title>Node1&#45;&gt;Node10</title>
<path fill="none" stroke="midnightblue" d="M62.7857,-90.9138C75.2546,-84.8004 90.2292,-77.7418 104,-72 116.43,-66.8171 130.422,-61.6968 142.392,-57.5254"/>
<polygon fill="midnightblue" stroke="midnightblue" points="61.2061,-87.7904 53.8004,-95.3671 64.3146,-94.0623 61.2061,-87.7904"/>
</g>
<!-- Node12 -->
<g id="node12" class="node"><title>Node12</title>
<g id="a_node12"><a xlink:href="class_main_window.html#a34c4b4207b46d11a4100c9b19f0e81bb" target="_top" xlink:title="MainWindow::MainWindow">
<polygon fill="white" stroke="black" points="104.5,-0.5 104.5,-19.5 239.5,-19.5 239.5,-0.5 104.5,-0.5"/>
<text text-anchor="middle" x="172" y="-7.5" font-family="Helvetica,sans-Serif" font-size="10.00">MainWindow::MainWindow</text>
</a>
</g>
</g>
<!-- Node1&#45;&gt;Node12 -->
<g id="edge12" class="edge"><title>Node1&#45;&gt;Node12</title>
<path fill="none" stroke="midnightblue" d="M46.9263,-86.8429C59.2306,-69.5112 79.9741,-43.8956 104,-29 110.268,-25.1138 117.354,-22.0008 124.51,-19.5132"/>
<polygon fill="midnightblue" stroke="midnightblue" points="43.7598,-85.2718 40.9915,-95.4986 49.5331,-89.2303 43.7598,-85.2718"/>
</g>
<!-- Node5 -->
<g id="node5" class="node"><title>Node5</title>
<g id="a_node5"><a xlink:href="class_button.html#aec7d6551d9dd87879b985da6e3b34f3e" target="_top" xlink:title="Button::minimumHeight">
<polygon fill="white" stroke="black" points="280.5,-152.5 280.5,-171.5 399.5,-171.5 399.5,-152.5 280.5,-152.5"/>
<text text-anchor="middle" x="340" y="-159.5" font-family="Helvetica,sans-Serif" font-size="10.00">Button::minimumHeight</text>
</a>
</g>
</g>
<!-- Node4&#45;&gt;Node5 -->
<g id="edge4" class="edge"><title>Node4&#45;&gt;Node5</title>
<path fill="none" stroke="midnightblue" d="M224.653,-135.824C248.056,-141.182 275.357,-147.431 297.412,-152.48"/>
<polygon fill="midnightblue" stroke="midnightblue" points="225.418,-132.409 214.889,-133.589 223.856,-139.232 225.418,-132.409"/>
</g>
<!-- Node6 -->
<g id="node6" class="node"><title>Node6</title>
<g id="a_node6"><a xlink:href="class_label.html#a2bd65842919bc965ff8482407b34f097" target="_top" xlink:title="Label::setText">
<polygon fill="white" stroke="black" points="300.5,-114.5 300.5,-133.5 379.5,-133.5 379.5,-114.5 300.5,-114.5"/>
<text text-anchor="middle" x="340" y="-121.5" font-family="Helvetica,sans-Serif" font-size="10.00">Label::setText</text>
</a>
</g>
</g>
<!-- Node4&#45;&gt;Node6 -->
<g id="edge5" class="edge"><title>Node4&#45;&gt;Node6</title>
<path fill="none" stroke="midnightblue" d="M239.246,-124C259.997,-124 282.206,-124 300.388,-124"/>
<polygon fill="midnightblue" stroke="midnightblue" points="239.2,-120.5 229.2,-124 239.2,-127.5 239.2,-120.5"/>
</g>
<!-- Node7 -->
<g id="node7" class="node"><title>Node7</title>
<g id="a_node7"><a xlink:href="class_button.html#a2cfe02cc2981d9878f6c4660e5680388" target="_top" xlink:title="Button::Button">
<polygon fill="white" stroke="black" points="440,-133.5 440,-152.5 520,-152.5 520,-133.5 440,-133.5"/>
<text text-anchor="middle" x="480" y="-140.5" font-family="Helvetica,sans-Serif" font-size="10.00">Button::Button</text>
</a>
</g>
</g>
<!-- Node6&#45;&gt;Node7 -->
<g id="edge6" class="edge"><title>Node6&#45;&gt;Node7</title>
<path fill="none" stroke="midnightblue" d="M389.715,-130.707C406.03,-132.953 424.006,-135.428 439.525,-137.565"/>
<polygon fill="midnightblue" stroke="midnightblue" points="390.192,-127.24 379.808,-129.343 389.237,-134.174 390.192,-127.24"/>
</g>
<!-- Node8 -->
<g id="node8" class="node"><title>Node8</title>
<g id="a_node8"><a xlink:href="class_label.html#ab3e52b26e15ed16f273a45c2912e5232" target="_top" xlink:title="Label::Label">
<polygon fill="white" stroke="black" points="445.5,-95.5 445.5,-114.5 514.5,-114.5 514.5,-95.5 445.5,-95.5"/>
<text text-anchor="middle" x="480" y="-102.5" font-family="Helvetica,sans-Serif" font-size="10.00">Label::Label</text>
</a>
</g>
</g>
<!-- Node6&#45;&gt;Node8 -->
<g id="edge7" class="edge"><title>Node6&#45;&gt;Node8</title>
<path fill="none" stroke="midnightblue" d="M389.739,-117.29C408.068,-114.766 428.491,-111.954 445.171,-109.658"/>
<polygon fill="midnightblue" stroke="midnightblue" points="389.237,-113.826 379.808,-118.657 390.192,-120.76 389.237,-113.826"/>
</g>
<!-- Node10&#45;&gt;Node9 -->
<g id="edge10" class="edge"><title>Node10&#45;&gt;Node9</title>
<path fill="none" stroke="midnightblue" d="M224.653,-59.8243C248.056,-65.1816 275.357,-71.4311 297.412,-76.4799"/>
<polygon fill="midnightblue" stroke="midnightblue" points="225.418,-56.4088 214.889,-57.589 223.856,-63.2323 225.418,-56.4088"/>
</g>
<!-- Node11 -->
<g id="node11" class="node"><title>Node11</title>
<g id="a_node11"><a xlink:href="class_line_edit.html#a8d5e79e8a895901381e301d41d3d4343" target="_top" xlink:title="LineEdit::meHandleEvent">
<polygon fill="white" stroke="black" points="276,-38.5 276,-57.5 404,-57.5 404,-38.5 276,-38.5"/>
<text text-anchor="middle" x="340" y="-45.5" font-family="Helvetica,sans-Serif" font-size="10.00">LineEdit::meHandleEvent</text>
</a>
</g>
</g>
<!-- Node10&#45;&gt;Node11 -->
<g id="edge11" class="edge"><title>Node10&#45;&gt;Node11</title>
<path fill="none" stroke="midnightblue" d="M228.255,-48C243.551,-48 260.268,-48 275.971,-48"/>
<polygon fill="midnightblue" stroke="midnightblue" points="227.922,-44.5001 217.922,-48 227.922,-51.5001 227.922,-44.5001"/>
</g>
</g>
</svg>
