<?xml version="1.0" encoding="UTF-8" standalone="no"?>
<!DOCTYPE svg PUBLIC "-//W3C//DTD SVG 1.1//EN"
 "http://www.w3.org/Graphics/SVG/1.1/DTD/svg11.dtd">
<!-- Generated by graphviz version 2.36.0 (20140111.2315)
 -->
<!-- Title: Point::setY Pages: 1 -->
<svg width="474pt" height="199pt"
 viewBox="0.00 0.00 474.00 199.01" xmlns="http://www.w3.org/2000/svg" xmlns:xlink="http://www.w3.org/1999/xlink">
<g id="graph0" class="graph" transform="scale(1 1) rotate(0) translate(4 195.005)">
<title>Point::setY</title>
<polygon fill="white" stroke="none" points="-4,4 -4,-195.005 470,-195.005 470,4 -4,4"/>
<!-- Node1 -->
<g id="node1" class="node"><title>Node1</title>
<polygon fill="#bfbfbf" stroke="black" points="0.5,-51.5 0.5,-70.5 65.5,-70.5 65.5,-51.5 0.5,-51.5"/>
<text text-anchor="middle" x="33" y="-58.5" font-family="Helvetica,sans-Serif" font-size="10.00">Point::setY</text>
</g>
<!-- Node2 -->
<g id="node2" class="node"><title>Node2</title>
<g id="a_node2"><a xlink:href="class_point.html#a43923c490fb5439d7d8a041e86520c34" target="_top" xlink:title="Modifie les coordonnées du point par rapport à son origine. ">
<polygon fill="white" stroke="black" points="102.5,-75.5 102.5,-94.5 161.5,-94.5 161.5,-75.5 102.5,-75.5"/>
<text text-anchor="middle" x="132" y="-82.5" font-family="Helvetica,sans-Serif" font-size="10.00">Point::set</text>
</a>
</g>
</g>
<!-- Node1&#45;&gt;Node2 -->
<g id="edge1" class="edge"><title>Node1&#45;&gt;Node2</title>
<path fill="none" stroke="midnightblue" d="M65.7614,-68.8585C74.3523,-70.9841 83.7419,-73.3073 92.6527,-75.512"/>
<polygon fill="midnightblue" stroke="midnightblue" points="91.8939,-78.9297 102.442,-77.9341 93.5753,-72.1346 91.8939,-78.9297"/>
</g>
<!-- Node6 -->
<g id="node6" class="node"><title>Node6</title>
<g id="a_node6"><a xlink:href="class_point.html#a2aa897aa68c2f3e6df3a46738f27a0ac" target="_top" xlink:title="Donne l&#39;abscisse du point par rapport à son origine. ">
<polygon fill="white" stroke="black" points="198,-0.5 198,-19.5 248,-19.5 248,-0.5 198,-0.5"/>
<text text-anchor="middle" x="223" y="-7.5" font-family="Helvetica,sans-Serif" font-size="10.00">Point::x</text>
</a>
</g>
</g>
<!-- Node1&#45;&gt;Node6 -->
<g id="edge15" class="edge"><title>Node1&#45;&gt;Node6</title>
<path fill="none" stroke="midnightblue" d="M65.8916,-52.3485C99.8356,-43.1403 153.337,-28.6267 188.048,-19.2104"/>
<polygon fill="midnightblue" stroke="midnightblue" points="189.006,-22.577 197.741,-16.5809 187.174,-15.8211 189.006,-22.577"/>
</g>
<!-- Node3 -->
<g id="node3" class="node"><title>Node3</title>
<g id="a_node3"><a xlink:href="class_point.html#a64a5fe8c9b1d1a1543aaa64031537380" target="_top" xlink:title="Indique si le point n&#39;appartient pas à un groupe. ">
<polygon fill="white" stroke="black" points="388.5,-94.5 388.5,-113.5 465.5,-113.5 465.5,-94.5 388.5,-94.5"/>
<text text-anchor="middle" x="427" y="-101.5" font-family="Helvetica,sans-Serif" font-size="10.00">Point::isAlone</text>
</a>
</g>
</g>
<!-- Node2&#45;&gt;Node3 -->
<g id="edge2" class="edge"><title>Node2&#45;&gt;Node3</title>
<path fill="none" stroke="midnightblue" d="M136.25,-94.7851C143.552,-114.969 163.383,-160.85 198,-179 270.89,-217.217 367.022,-151.821 407.147,-119.942"/>
<polygon fill="midnightblue" stroke="midnightblue" points="409.493,-122.545 415.043,-113.521 405.076,-117.115 409.493,-122.545"/>
</g>
<!-- Node4 -->
<g id="node4" class="node"><title>Node4</title>
<g id="a_node4"><a xlink:href="class_point.html#afa7d33502738b0b3df186a91e11ff2a8" target="_top" xlink:title="Donne l&#39;origine du point. ">
<polygon fill="white" stroke="black" points="284,-56.5 284,-75.5 352,-75.5 352,-56.5 284,-56.5"/>
<text text-anchor="middle" x="318" y="-63.5" font-family="Helvetica,sans-Serif" font-size="10.00">Point::origin</text>
</a>
</g>
</g>
<!-- Node2&#45;&gt;Node4 -->
<g id="edge3" class="edge"><title>Node2&#45;&gt;Node4</title>
<path fill="none" stroke="midnightblue" d="M161.75,-82.0312C191.703,-78.9383 238.992,-74.0552 273.515,-70.4903"/>
<polygon fill="midnightblue" stroke="midnightblue" points="274.198,-73.9385 283.786,-69.4298 273.479,-66.9755 274.198,-73.9385"/>
</g>
<!-- Node2&#45;&gt;Node6 -->
<g id="edge6" class="edge"><title>Node2&#45;&gt;Node6</title>
<path fill="none" stroke="midnightblue" d="M144.635,-75.1951C159.374,-62.7744 184.982,-41.1952 202.675,-26.2848"/>
<polygon fill="midnightblue" stroke="midnightblue" points="205.252,-28.6907 210.643,-19.5702 200.741,-23.3378 205.252,-28.6907"/>
</g>
<!-- Node7 -->
<g id="node7" class="node"><title>Node7</title>
<g id="a_node7"><a xlink:href="class_point.html#a2226d8a3fb283b0b3c1f69106df144ba" target="_top" xlink:title="Donne l&#39;ordonnée du point par rapport à son origine. ">
<polygon fill="white" stroke="black" points="198,-94.5 198,-113.5 248,-113.5 248,-94.5 198,-94.5"/>
<text text-anchor="middle" x="223" y="-101.5" font-family="Helvetica,sans-Serif" font-size="10.00">Point::y</text>
</a>
</g>
</g>
<!-- Node2&#45;&gt;Node7 -->
<g id="edge10" class="edge"><title>Node2&#45;&gt;Node7</title>
<path fill="none" stroke="midnightblue" d="M161.65,-91.1163C170.05,-92.9097 179.318,-94.8881 188.016,-96.7451"/>
<polygon fill="midnightblue" stroke="midnightblue" points="187.37,-100.186 197.88,-98.8509 188.832,-93.3402 187.37,-100.186"/>
</g>
<!-- Node8 -->
<g id="node8" class="node"><title>Node8</title>
<g id="a_node8"><a xlink:href="jquery_8js.html#a2335e57f79b6acfb6de59c235dc8a83e" target="_top" xlink:title="p">
<polygon fill="white" stroke="black" points="208.5,-150.5 208.5,-169.5 237.5,-169.5 237.5,-150.5 208.5,-150.5"/>
<text text-anchor="middle" x="223" y="-157.5" font-family="Helvetica,sans-Serif" font-size="10.00">p</text>
</a>
</g>
</g>
<!-- Node2&#45;&gt;Node8 -->
<g id="edge14" class="edge"><title>Node2&#45;&gt;Node8</title>
<path fill="none" stroke="midnightblue" d="M143.922,-94.6529C156.743,-105.927 178.707,-125.064 198,-141 199.178,-141.973 200.394,-142.967 201.625,-143.965"/>
<polygon fill="midnightblue" stroke="midnightblue" points="199.716,-146.92 209.712,-150.431 204.087,-141.453 199.716,-146.92"/>
</g>
<!-- Node4&#45;&gt;Node3 -->
<g id="edge4" class="edge"><title>Node4&#45;&gt;Node3</title>
<path fill="none" stroke="midnightblue" d="M346.001,-75.589C359.18,-80.2694 375.229,-85.9692 389.484,-91.0315"/>
<polygon fill="midnightblue" stroke="midnightblue" points="388.413,-94.3656 399.008,-94.4141 390.756,-87.7692 388.413,-94.3656"/>
</g>
<!-- Node5 -->
<g id="node5" class="node"><title>Node5</title>
<g id="a_node5"><a xlink:href="class_point.html#a97edc6e6415d6ccc6efcff5fcbc97f15" target="_top" xlink:title="Construit un point avec les coordonnées nulles. ">
<polygon fill="white" stroke="black" points="393,-56.5 393,-75.5 461,-75.5 461,-56.5 393,-56.5"/>
<text text-anchor="middle" x="427" y="-63.5" font-family="Helvetica,sans-Serif" font-size="10.00">Point::Point</text>
</a>
</g>
</g>
<!-- Node4&#45;&gt;Node5 -->
<g id="edge5" class="edge"><title>Node4&#45;&gt;Node5</title>
<path fill="none" stroke="midnightblue" d="M352.269,-66C361.831,-66 372.403,-66 382.485,-66"/>
<polygon fill="midnightblue" stroke="midnightblue" points="382.752,-69.5001 392.752,-66 382.752,-62.5001 382.752,-69.5001"/>
</g>
<!-- Node6&#45;&gt;Node3 -->
<g id="edge7" class="edge"><title>Node6&#45;&gt;Node3</title>
<path fill="none" stroke="midnightblue" d="M248.176,-13.0993C275.118,-17.4016 319.202,-27.0307 352,-47 371.871,-59.0986 369.312,-71.1433 388,-85 390.074,-86.5376 392.291,-88.01 394.573,-89.4061"/>
<polygon fill="midnightblue" stroke="midnightblue" points="393.094,-92.5884 403.534,-94.3903 396.496,-86.4709 393.094,-92.5884"/>
</g>
<!-- Node6&#45;&gt;Node4 -->
<g id="edge8" class="edge"><title>Node6&#45;&gt;Node4</title>
<path fill="none" stroke="midnightblue" d="M240.199,-19.7545C254.602,-28.4269 275.873,-41.2355 292.38,-51.175"/>
<polygon fill="midnightblue" stroke="midnightblue" points="290.614,-54.1972 300.986,-56.3573 294.225,-48.2004 290.614,-54.1972"/>
</g>
<!-- Node6&#45;&gt;Node6 -->
<g id="edge9" class="edge"><title>Node6&#45;&gt;Node6</title>
<path fill="none" stroke="midnightblue" d="M209.128,-19.7571C202.38,-28.5653 207.004,-38 223,-38 232.998,-38 238.553,-34.3146 239.666,-29.4"/>
<polygon fill="midnightblue" stroke="midnightblue" points="243.017,-28.3878 236.872,-19.7571 236.293,-30.3361 243.017,-28.3878"/>
</g>
<!-- Node7&#45;&gt;Node3 -->
<g id="edge11" class="edge"><title>Node7&#45;&gt;Node3</title>
<path fill="none" stroke="midnightblue" d="M248.366,-104C280.414,-104 337.435,-104 378.232,-104"/>
<polygon fill="midnightblue" stroke="midnightblue" points="378.49,-107.5 388.49,-104 378.49,-100.5 378.49,-107.5"/>
</g>
<!-- Node7&#45;&gt;Node4 -->
<g id="edge12" class="edge"><title>Node7&#45;&gt;Node4</title>
<path fill="none" stroke="midnightblue" d="M247.468,-94.411C258.592,-89.8656 272.069,-84.3588 284.185,-79.4081"/>
<polygon fill="midnightblue" stroke="midnightblue" points="285.606,-82.6084 293.54,-75.5859 282.959,-76.1285 285.606,-82.6084"/>
</g>
<!-- Node7&#45;&gt;Node7 -->
<g id="edge13" class="edge"><title>Node7&#45;&gt;Node7</title>
<path fill="none" stroke="midnightblue" d="M209.128,-113.757C202.38,-122.565 207.004,-132 223,-132 232.998,-132 238.553,-128.315 239.666,-123.4"/>
<polygon fill="midnightblue" stroke="midnightblue" points="243.017,-122.388 236.872,-113.757 236.293,-124.336 243.017,-122.388"/>
</g>
</g>
</svg>
