<?xml version="1.0" encoding="UTF-8" standalone="no"?>
<!DOCTYPE svg PUBLIC "-//W3C//DTD SVG 1.1//EN"
 "http://www.w3.org/Graphics/SVG/1.1/DTD/svg11.dtd">
<!-- Generated by graphviz version 2.36.0 (20140111.2315)
 -->
<!-- Title: LineEdit::setText Pages: 1 -->
<svg width="584pt" height="344pt"
 viewBox="0.00 0.00 584.00 344.00" xmlns="http://www.w3.org/2000/svg" xmlns:xlink="http://www.w3.org/1999/xlink">
<g id="graph0" class="graph" transform="scale(1 1) rotate(0) translate(4 340)">
<title>LineEdit::setText</title>
<polygon fill="white" stroke="none" points="-4,4 -4,-340 580,-340 580,4 -4,4"/>
<!-- Node1 -->
<g id="node1" class="node"><title>Node1</title>
<polygon fill="#bfbfbf" stroke="black" points="0.5,-152.5 0.5,-171.5 91.5,-171.5 91.5,-152.5 0.5,-152.5"/>
<text text-anchor="middle" x="46" y="-159.5" font-family="Helvetica,sans-Serif" font-size="10.00">LineEdit::setText</text>
</g>
<!-- Node2 -->
<g id="node2" class="node"><title>Node2</title>
<g id="a_node2"><a xlink:href="class_graphics_text.html#ac42bb0e20251eb0dc2305be760714130" target="_top" xlink:title="Modifie le contenu de GraphicsText. ">
<polygon fill="white" stroke="black" points="137,-316.5 137,-335.5 251,-335.5 251,-316.5 137,-316.5"/>
<text text-anchor="middle" x="194" y="-323.5" font-family="Helvetica,sans-Serif" font-size="10.00">GraphicsText::setText</text>
</a>
</g>
</g>
<!-- Node1&#45;&gt;Node2 -->
<g id="edge1" class="edge"><title>Node1&#45;&gt;Node2</title>
<path fill="none" stroke="midnightblue" d="M49.9995,-171.671C58.2682,-196.79 83.7568,-264.735 128,-302 132.891,-306.119 138.553,-309.563 144.455,-312.433"/>
<polygon fill="midnightblue" stroke="midnightblue" points="143.283,-315.74 153.852,-316.488 146.057,-309.312 143.283,-315.74"/>
</g>
<!-- Node3 -->
<g id="node3" class="node"><title>Node3</title>
<g id="a_node3"><a xlink:href="class_graphics_text.html#aeb38c8c0df9473cde331540d9904d352" target="_top" xlink:title="Recupere le contenu de GraphicsText. ">
<polygon fill="white" stroke="black" points="296,-297.5 296,-316.5 394,-316.5 394,-297.5 296,-297.5"/>
<text text-anchor="middle" x="345" y="-304.5" font-family="Helvetica,sans-Serif" font-size="10.00">GraphicsText::text</text>
</a>
</g>
</g>
<!-- Node1&#45;&gt;Node3 -->
<g id="edge11" class="edge"><title>Node1&#45;&gt;Node3</title>
<path fill="none" stroke="midnightblue" d="M51.2579,-171.531C61.2684,-192.737 88.4728,-243.849 128,-268 175.765,-297.184 239.83,-305.717 285.765,-307.69"/>
<polygon fill="midnightblue" stroke="midnightblue" points="285.748,-311.191 295.861,-308.031 285.985,-304.195 285.748,-311.191"/>
</g>
<!-- Node4 -->
<g id="node4" class="node"><title>Node4</title>
<g id="a_node4"><a xlink:href="class_graphics_rectangle.html#a3efd2295cd742f75de829851bf7ca3dd" target="_top" xlink:title="GraphicsRectangle::\lsetWidth">
<polygon fill="white" stroke="black" points="141,-229 141,-259 247,-259 247,-229 141,-229"/>
<text text-anchor="start" x="149" y="-247" font-family="Helvetica,sans-Serif" font-size="10.00">GraphicsRectangle::</text>
<text text-anchor="middle" x="194" y="-236" font-family="Helvetica,sans-Serif" font-size="10.00">setWidth</text>
</a>
</g>
</g>
<!-- Node1&#45;&gt;Node4 -->
<g id="edge3" class="edge"><title>Node1&#45;&gt;Node4</title>
<path fill="none" stroke="midnightblue" d="M58.746,-171.673C73.9907,-183.888 101.755,-204.995 128,-219 131.885,-221.073 135.98,-223.063 140.147,-224.95"/>
<polygon fill="midnightblue" stroke="midnightblue" points="138.762,-228.164 149.331,-228.912 141.535,-221.737 138.762,-228.164"/>
</g>
<!-- Node10 -->
<g id="node10" class="node"><title>Node10</title>
<g id="a_node10"><a xlink:href="class_graphics_text.html#aaafb8f8246e4d3b0d5dd8ac5cc8586cc" target="_top" xlink:title="GraphicsText::font">
<polygon fill="white" stroke="black" points="145,-190.5 145,-209.5 243,-209.5 243,-190.5 145,-190.5"/>
<text text-anchor="middle" x="194" y="-197.5" font-family="Helvetica,sans-Serif" font-size="10.00">GraphicsText::font</text>
</a>
</g>
</g>
<!-- Node1&#45;&gt;Node10 -->
<g id="edge9" class="edge"><title>Node1&#45;&gt;Node10</title>
<path fill="none" stroke="midnightblue" d="M83.842,-171.589C102.848,-176.536 126.229,-182.621 146.469,-187.889"/>
<polygon fill="midnightblue" stroke="midnightblue" points="145.864,-191.348 156.423,-190.48 147.627,-184.574 145.864,-191.348"/>
</g>
<!-- Node11 -->
<g id="node11" class="node"><title>Node11</title>
<g id="a_node11"><a xlink:href="class_font.html#ad96d9cd6356edf670103542dbe4336c3" target="_top" xlink:title="Font::width">
<polygon fill="white" stroke="black" points="161.5,-152.5 161.5,-171.5 226.5,-171.5 226.5,-152.5 161.5,-152.5"/>
<text text-anchor="middle" x="194" y="-159.5" font-family="Helvetica,sans-Serif" font-size="10.00">Font::width</text>
</a>
</g>
</g>
<!-- Node1&#45;&gt;Node11 -->
<g id="edge10" class="edge"><title>Node1&#45;&gt;Node11</title>
<path fill="none" stroke="midnightblue" d="M91.5981,-162C110.473,-162 132.349,-162 150.94,-162"/>
<polygon fill="midnightblue" stroke="midnightblue" points="151.174,-165.5 161.174,-162 151.174,-158.5 151.174,-165.5"/>
</g>
<!-- Node12 -->
<g id="node12" class="node"><title>Node12</title>
<g id="a_node12"><a xlink:href="class_graphics_line.html#acf2f14c815ca5b10567cc73e97a925d2" target="_top" xlink:title="GraphicsLine::first">
<polygon fill="white" stroke="black" points="146,-114.5 146,-133.5 242,-133.5 242,-114.5 146,-114.5"/>
<text text-anchor="middle" x="194" y="-121.5" font-family="Helvetica,sans-Serif" font-size="10.00">GraphicsLine::first</text>
</a>
</g>
</g>
<!-- Node1&#45;&gt;Node12 -->
<g id="edge12" class="edge"><title>Node1&#45;&gt;Node12</title>
<path fill="none" stroke="midnightblue" d="M83.842,-152.411C102.848,-147.464 126.229,-141.379 146.469,-136.111"/>
<polygon fill="midnightblue" stroke="midnightblue" points="147.627,-139.426 156.423,-133.52 145.864,-132.652 147.627,-139.426"/>
</g>
<!-- Node13 -->
<g id="node13" class="node"><title>Node13</title>
<g id="a_node13"><a xlink:href="class_graphics_item.html#ad48630477e3701e874e19287440a9c8f" target="_top" xlink:title="GraphicsItem::setRelative">
<polygon fill="white" stroke="black" points="128.5,-76.5 128.5,-95.5 259.5,-95.5 259.5,-76.5 128.5,-76.5"/>
<text text-anchor="middle" x="194" y="-83.5" font-family="Helvetica,sans-Serif" font-size="10.00">GraphicsItem::setRelative</text>
</a>
</g>
</g>
<!-- Node1&#45;&gt;Node13 -->
<g id="edge13" class="edge"><title>Node1&#45;&gt;Node13</title>
<path fill="none" stroke="midnightblue" d="M58.0531,-152.413C72.9919,-139.898 100.888,-118.056 128,-105 132.712,-102.731 137.749,-100.677 142.856,-98.831"/>
<polygon fill="midnightblue" stroke="midnightblue" points="144.324,-102.031 152.696,-95.5376 142.102,-95.3925 144.324,-102.031"/>
</g>
<!-- Node14 -->
<g id="node14" class="node"><title>Node14</title>
<g id="a_node14"><a xlink:href="class_graphics_line.html#adcb8718946ae9b3478d56efd70e1d2c2" target="_top" xlink:title="GraphicsLine::second">
<polygon fill="white" stroke="black" points="138.5,-38.5 138.5,-57.5 249.5,-57.5 249.5,-38.5 138.5,-38.5"/>
<text text-anchor="middle" x="194" y="-45.5" font-family="Helvetica,sans-Serif" font-size="10.00">GraphicsLine::second</text>
</a>
</g>
</g>
<!-- Node1&#45;&gt;Node14 -->
<g id="edge14" class="edge"><title>Node1&#45;&gt;Node14</title>
<path fill="none" stroke="midnightblue" d="M52.5622,-152.301C64.0951,-133.067 92.522,-89.9702 128,-67 131.146,-64.9633 134.516,-63.1392 138.006,-61.5064"/>
<polygon fill="midnightblue" stroke="midnightblue" points="139.537,-64.6608 147.451,-57.6162 136.872,-58.1882 139.537,-64.6608"/>
</g>
<!-- Node15 -->
<g id="node15" class="node"><title>Node15</title>
<g id="a_node15"><a xlink:href="class_font.html#a9f5b8e83d5efd7d4df3c905864cf9c70" target="_top" xlink:title="Font::height">
<polygon fill="white" stroke="black" points="160,-0.5 160,-19.5 228,-19.5 228,-0.5 160,-0.5"/>
<text text-anchor="middle" x="194" y="-7.5" font-family="Helvetica,sans-Serif" font-size="10.00">Font::height</text>
</a>
</g>
</g>
<!-- Node1&#45;&gt;Node15 -->
<g id="edge15" class="edge"><title>Node1&#45;&gt;Node15</title>
<path fill="none" stroke="midnightblue" d="M50.1264,-152.283C58.5338,-127.722 84.016,-62.7206 128,-29 134.429,-24.071 142.107,-20.4188 149.895,-17.7133"/>
<polygon fill="midnightblue" stroke="midnightblue" points="151.157,-20.989 159.733,-14.7677 149.149,-14.2831 151.157,-20.989"/>
</g>
<!-- Node2&#45;&gt;Node3 -->
<g id="edge2" class="edge"><title>Node2&#45;&gt;Node3</title>
<path fill="none" stroke="midnightblue" d="M251.331,-318.817C262.562,-317.385 274.379,-315.878 285.676,-314.437"/>
<polygon fill="midnightblue" stroke="midnightblue" points="286.395,-317.874 295.872,-313.137 285.509,-310.93 286.395,-317.874"/>
</g>
<!-- Node5 -->
<g id="node5" class="node"><title>Node5</title>
<g id="a_node5"><a xlink:href="class_point.html#a62fd0fb2c699d6d4699d3be73762ffa2" target="_top" xlink:title="Point::setX">
<polygon fill="white" stroke="black" points="312.5,-234.5 312.5,-253.5 377.5,-253.5 377.5,-234.5 312.5,-234.5"/>
<text text-anchor="middle" x="345" y="-241.5" font-family="Helvetica,sans-Serif" font-size="10.00">Point::setX</text>
</a>
</g>
</g>
<!-- Node4&#45;&gt;Node5 -->
<g id="edge4" class="edge"><title>Node4&#45;&gt;Node5</title>
<path fill="none" stroke="midnightblue" d="M247.113,-244C265.043,-244 284.88,-244 301.911,-244"/>
<polygon fill="midnightblue" stroke="midnightblue" points="302.11,-247.5 312.11,-244 302.11,-240.5 302.11,-247.5"/>
</g>
<!-- Node6 -->
<g id="node6" class="node"><title>Node6</title>
<g id="a_node6"><a xlink:href="class_point.html#a43923c490fb5439d7d8a041e86520c34" target="_top" xlink:title="permet la modification des valeurs du point. ">
<polygon fill="white" stroke="black" points="430.5,-234.5 430.5,-253.5 489.5,-253.5 489.5,-234.5 430.5,-234.5"/>
<text text-anchor="middle" x="460" y="-241.5" font-family="Helvetica,sans-Serif" font-size="10.00">Point::set</text>
</a>
</g>
</g>
<!-- Node5&#45;&gt;Node6 -->
<g id="edge5" class="edge"><title>Node5&#45;&gt;Node6</title>
<path fill="none" stroke="midnightblue" d="M377.778,-244C390.886,-244 406.207,-244 419.987,-244"/>
<polygon fill="midnightblue" stroke="midnightblue" points="420.163,-247.5 430.163,-244 420.163,-240.5 420.163,-247.5"/>
</g>
<!-- Node7 -->
<g id="node7" class="node"><title>Node7</title>
<g id="a_node7"><a xlink:href="jquery_8js.html#a2335e57f79b6acfb6de59c235dc8a83e" target="_top" xlink:title="p">
<polygon fill="white" stroke="black" points="536.5,-272.5 536.5,-291.5 565.5,-291.5 565.5,-272.5 536.5,-272.5"/>
<text text-anchor="middle" x="551" y="-279.5" font-family="Helvetica,sans-Serif" font-size="10.00">p</text>
</a>
</g>
</g>
<!-- Node6&#45;&gt;Node7 -->
<g id="edge6" class="edge"><title>Node6&#45;&gt;Node7</title>
<path fill="none" stroke="midnightblue" d="M483.458,-253.589C496.754,-259.266 513.561,-266.442 526.958,-272.162"/>
<polygon fill="midnightblue" stroke="midnightblue" points="525.851,-275.495 536.422,-276.203 528.6,-269.057 525.851,-275.495"/>
</g>
<!-- Node8 -->
<g id="node8" class="node"><title>Node8</title>
<g id="a_node8"><a xlink:href="class_point.html#a2aa897aa68c2f3e6df3a46738f27a0ac" target="_top" xlink:title="recupere la valeur de l&#39;absisse du Point. ">
<polygon fill="white" stroke="black" points="526,-234.5 526,-253.5 576,-253.5 576,-234.5 526,-234.5"/>
<text text-anchor="middle" x="551" y="-241.5" font-family="Helvetica,sans-Serif" font-size="10.00">Point::x</text>
</a>
</g>
</g>
<!-- Node6&#45;&gt;Node8 -->
<g id="edge7" class="edge"><title>Node6&#45;&gt;Node8</title>
<path fill="none" stroke="midnightblue" d="M489.65,-244C497.959,-244 507.116,-244 515.732,-244"/>
<polygon fill="midnightblue" stroke="midnightblue" points="515.881,-247.5 525.88,-244 515.88,-240.5 515.881,-247.5"/>
</g>
<!-- Node9 -->
<g id="node9" class="node"><title>Node9</title>
<g id="a_node9"><a xlink:href="class_point.html#a2226d8a3fb283b0b3c1f69106df144ba" target="_top" xlink:title="Fonction recuperant le valeur de l&#39;ordonée. ">
<polygon fill="white" stroke="black" points="526,-196.5 526,-215.5 576,-215.5 576,-196.5 526,-196.5"/>
<text text-anchor="middle" x="551" y="-203.5" font-family="Helvetica,sans-Serif" font-size="10.00">Point::y</text>
</a>
</g>
</g>
<!-- Node6&#45;&gt;Node9 -->
<g id="edge8" class="edge"><title>Node6&#45;&gt;Node9</title>
<path fill="none" stroke="midnightblue" d="M483.458,-234.411C493.999,-229.911 506.747,-224.468 518.252,-219.555"/>
<polygon fill="midnightblue" stroke="midnightblue" points="519.726,-222.732 527.549,-215.586 516.978,-216.294 519.726,-222.732"/>
</g>
</g>
</svg>
