<?xml version="1.0" encoding="UTF-8" standalone="no"?>
<!DOCTYPE svg PUBLIC "-//W3C//DTD SVG 1.1//EN"
 "http://www.w3.org/Graphics/SVG/1.1/DTD/svg11.dtd">
<!-- Generated by graphviz version 2.36.0 (20140111.2315)
 -->
<!-- Title: GraphicsRectangle::setWidth Pages: 1 -->
<svg width="406pt" height="123pt"
 viewBox="0.00 0.00 406.00 123.00" xmlns="http://www.w3.org/2000/svg" xmlns:xlink="http://www.w3.org/1999/xlink">
<g id="graph0" class="graph" transform="scale(1 1) rotate(0) translate(4 119)">
<title>GraphicsRectangle::setWidth</title>
<polygon fill="white" stroke="none" points="-4,4 -4,-119 402,-119 402,4 -4,4"/>
<!-- Node1 -->
<g id="node1" class="node"><title>Node1</title>
<polygon fill="#bfbfbf" stroke="black" points="0,-52 0,-82 106,-82 106,-52 0,-52"/>
<text text-anchor="start" x="8" y="-70" font-family="Helvetica,sans-Serif" font-size="10.00">GraphicsRectangle::</text>
<text text-anchor="middle" x="53" y="-59" font-family="Helvetica,sans-Serif" font-size="10.00">setWidth</text>
</g>
<!-- Node2 -->
<g id="node2" class="node"><title>Node2</title>
<g id="a_node2"><a xlink:href="class_button.html#a2cfe02cc2981d9878f6c4660e5680388" target="_top" xlink:title="Button::Button">
<polygon fill="white" stroke="black" points="148,-95.5 148,-114.5 228,-114.5 228,-95.5 148,-95.5"/>
<text text-anchor="middle" x="188" y="-102.5" font-family="Helvetica,sans-Serif" font-size="10.00">Button::Button</text>
</a>
</g>
</g>
<!-- Node1&#45;&gt;Node2 -->
<g id="edge1" class="edge"><title>Node1&#45;&gt;Node2</title>
<path fill="none" stroke="midnightblue" d="M116.05,-84.7287C129.055,-88.4443 142.288,-92.225 153.747,-95.4991"/>
<polygon fill="midnightblue" stroke="midnightblue" points="116.76,-81.2915 106.183,-81.9095 114.837,-88.0222 116.76,-81.2915"/>
</g>
<!-- Node3 -->
<g id="node3" class="node"><title>Node3</title>
<g id="a_node3"><a xlink:href="class_button.html#ac6a233c876164a52d54ef7f1b3fb78d1" target="_top" xlink:title="Button::setText">
<polygon fill="white" stroke="black" points="146,-57.5 146,-76.5 230,-76.5 230,-57.5 146,-57.5"/>
<text text-anchor="middle" x="188" y="-64.5" font-family="Helvetica,sans-Serif" font-size="10.00">Button::setText</text>
</a>
</g>
</g>
<!-- Node1&#45;&gt;Node3 -->
<g id="edge2" class="edge"><title>Node1&#45;&gt;Node3</title>
<path fill="none" stroke="midnightblue" d="M116.433,-67C126.346,-67 136.38,-67 145.65,-67"/>
<polygon fill="midnightblue" stroke="midnightblue" points="116.183,-63.5001 106.183,-67 116.183,-70.5001 116.183,-63.5001"/>
</g>
<!-- Node4 -->
<g id="node4" class="node"><title>Node4</title>
<g id="a_node4"><a xlink:href="class_line_edit.html#a636e2ac65a70dd82fcf02f863da5c446" target="_top" xlink:title="LineEdit::setText">
<polygon fill="white" stroke="black" points="142.5,-19.5 142.5,-38.5 233.5,-38.5 233.5,-19.5 142.5,-19.5"/>
<text text-anchor="middle" x="188" y="-26.5" font-family="Helvetica,sans-Serif" font-size="10.00">LineEdit::setText</text>
</a>
</g>
</g>
<!-- Node1&#45;&gt;Node4 -->
<g id="edge3" class="edge"><title>Node1&#45;&gt;Node4</title>
<path fill="none" stroke="midnightblue" d="M116.05,-49.2713C129.055,-45.5557 142.288,-41.775 153.747,-38.5009"/>
<polygon fill="midnightblue" stroke="midnightblue" points="114.837,-45.9778 106.183,-52.0905 116.76,-52.7085 114.837,-45.9778"/>
</g>
<!-- Node5 -->
<g id="node5" class="node"><title>Node5</title>
<g id="a_node5"><a xlink:href="class_line_edit.html#a04e1cd86821efe7570868ae397978186" target="_top" xlink:title="LineEdit::LineEdit">
<polygon fill="white" stroke="black" points="287.5,-38.5 287.5,-57.5 380.5,-57.5 380.5,-38.5 287.5,-38.5"/>
<text text-anchor="middle" x="334" y="-45.5" font-family="Helvetica,sans-Serif" font-size="10.00">LineEdit::LineEdit</text>
</a>
</g>
</g>
<!-- Node4&#45;&gt;Node5 -->
<g id="edge4" class="edge"><title>Node4&#45;&gt;Node5</title>
<path fill="none" stroke="midnightblue" d="M243.976,-36.2538C258.266,-38.1392 273.505,-40.1499 287.261,-41.965"/>
<polygon fill="midnightblue" stroke="midnightblue" points="244.145,-32.7458 233.773,-34.9076 243.229,-39.6857 244.145,-32.7458"/>
</g>
<!-- Node6 -->
<g id="node6" class="node"><title>Node6</title>
<g id="a_node6"><a xlink:href="class_line_edit.html#a8d5e79e8a895901381e301d41d3d4343" target="_top" xlink:title="LineEdit::meHandleEvent">
<polygon fill="white" stroke="black" points="270,-0.5 270,-19.5 398,-19.5 398,-0.5 270,-0.5"/>
<text text-anchor="middle" x="334" y="-7.5" font-family="Helvetica,sans-Serif" font-size="10.00">LineEdit::meHandleEvent</text>
</a>
</g>
</g>
<!-- Node4&#45;&gt;Node6 -->
<g id="edge5" class="edge"><title>Node4&#45;&gt;Node6</title>
<path fill="none" stroke="midnightblue" d="M243.887,-21.758C252.342,-20.6424 261.132,-19.4826 269.751,-18.3453"/>
<polygon fill="midnightblue" stroke="midnightblue" points="243.229,-18.3143 233.773,-23.0924 244.145,-25.2542 243.229,-18.3143"/>
</g>
</g>
</svg>
