<?xml version="1.0" encoding="UTF-8" standalone="no"?>
<!DOCTYPE svg PUBLIC "-//W3C//DTD SVG 1.1//EN"
 "http://www.w3.org/Graphics/SVG/1.1/DTD/svg11.dtd">
<!-- Generated by graphviz version 2.36.0 (20140111.2315)
 -->
<!-- Title: GraphicsItem::meIsOver Pages: 1 -->
<svg width="620pt" height="28pt"
 viewBox="0.00 0.00 620.00 28.00" xmlns="http://www.w3.org/2000/svg" xmlns:xlink="http://www.w3.org/1999/xlink">
<g id="graph0" class="graph" transform="scale(1 1) rotate(0) translate(4 24)">
<title>GraphicsItem::meIsOver</title>
<polygon fill="white" stroke="none" points="-4,4 -4,-24 616,-24 616,4 -4,4"/>
<!-- Node1 -->
<g id="node1" class="node"><title>Node1</title>
<polygon fill="#bfbfbf" stroke="black" points="0,-0.5 0,-19.5 124,-19.5 124,-0.5 0,-0.5"/>
<text text-anchor="middle" x="62" y="-7.5" font-family="Helvetica,sans-Serif" font-size="10.00">GraphicsItem::meIsOver</text>
</g>
<!-- Node2 -->
<g id="node2" class="node"><title>Node2</title>
<g id="a_node2"><a xlink:href="class_graphics_item.html#a853ecc7b1940b8bce18600a3f3d6cda7" target="_top" xlink:title="GraphicsItem::isOver">
<polygon fill="white" stroke="black" points="160,-0.5 160,-19.5 270,-19.5 270,-0.5 160,-0.5"/>
<text text-anchor="middle" x="215" y="-7.5" font-family="Helvetica,sans-Serif" font-size="10.00">GraphicsItem::isOver</text>
</a>
</g>
</g>
<!-- Node1&#45;&gt;Node2 -->
<g id="edge1" class="edge"><title>Node1&#45;&gt;Node2</title>
<path fill="none" stroke="midnightblue" d="M134.424,-10C142.997,-10 151.642,-10 159.912,-10"/>
<polygon fill="midnightblue" stroke="midnightblue" points="134.418,-6.5001 124.417,-10 134.417,-13.5001 134.418,-6.5001"/>
</g>
<!-- Node3 -->
<g id="node3" class="node"><title>Node3</title>
<g id="a_node3"><a xlink:href="class_graphics_item.html#ad6c62fa07246bc1d7b9eae6340a246e2" target="_top" xlink:title="GraphicsItem::handleEvent">
<polygon fill="white" stroke="black" points="306.5,-0.5 306.5,-19.5 441.5,-19.5 441.5,-0.5 306.5,-0.5"/>
<text text-anchor="middle" x="374" y="-7.5" font-family="Helvetica,sans-Serif" font-size="10.00">GraphicsItem::handleEvent</text>
</a>
</g>
</g>
<!-- Node2&#45;&gt;Node3 -->
<g id="edge2" class="edge"><title>Node2&#45;&gt;Node3</title>
<path fill="none" stroke="midnightblue" d="M280.074,-10C288.748,-10 297.665,-10 306.382,-10"/>
<polygon fill="midnightblue" stroke="midnightblue" points="280.031,-6.5001 270.03,-10 280.03,-13.5001 280.031,-6.5001"/>
</g>
<!-- Node4 -->
<g id="node4" class="node"><title>Node4</title>
<g id="a_node4"><a xlink:href="class_main_window.html#a0c74824ef8e6256455545f2659610b31" target="_top" xlink:title="MainWindow::handleEvent">
<polygon fill="white" stroke="black" points="478.5,-0.5 478.5,-19.5 611.5,-19.5 611.5,-0.5 478.5,-0.5"/>
<text text-anchor="middle" x="545" y="-7.5" font-family="Helvetica,sans-Serif" font-size="10.00">MainWindow::handleEvent</text>
</a>
</g>
</g>
<!-- Node3&#45;&gt;Node4 -->
<g id="edge3" class="edge"><title>Node3&#45;&gt;Node4</title>
<path fill="none" stroke="midnightblue" d="M452.009,-10C460.773,-10 469.645,-10 478.244,-10"/>
<polygon fill="midnightblue" stroke="midnightblue" points="451.793,-6.5001 441.793,-10 451.793,-13.5001 451.793,-6.5001"/>
</g>
</g>
</svg>
