<?xml version="1.0" encoding="UTF-8" standalone="no"?>
<!DOCTYPE svg PUBLIC "-//W3C//DTD SVG 1.1//EN"
 "http://www.w3.org/Graphics/SVG/1.1/DTD/svg11.dtd">
<!-- Generated by graphviz version 2.36.0 (20140111.2315)
 -->
<!-- Title: MouseEvent Pages: 1 -->
<svg width="153pt" height="350pt"
 viewBox="0.00 0.00 153.00 350.00" xmlns="http://www.w3.org/2000/svg" xmlns:xlink="http://www.w3.org/1999/xlink">
<g id="graph0" class="graph" transform="scale(1 1) rotate(0) translate(4 346)">
<title>MouseEvent</title>
<polygon fill="white" stroke="none" points="-4,4 -4,-346 149,-346 149,4 -4,4"/>
<!-- Node1 -->
<g id="node1" class="node"><title>Node1</title>
<polygon fill="#bfbfbf" stroke="black" points="28,-1 28,-135 114,-135 114,-1 28,-1"/>
<text text-anchor="middle" x="71" y="-123" font-family="Helvetica,sans-Serif" font-size="10.00">MouseEvent</text>
<polyline fill="none" stroke="black" points="28,-116 114,-116 "/>
<text text-anchor="start" x="36" y="-104" font-family="Helvetica,sans-Serif" font-size="10.00">&#45; m_button</text>
<text text-anchor="start" x="36" y="-93" font-family="Helvetica,sans-Serif" font-size="10.00">&#45; m_state</text>
<polyline fill="none" stroke="black" points="28,-86 114,-86 "/>
<text text-anchor="start" x="36" y="-74" font-family="Helvetica,sans-Serif" font-size="10.00">+ MouseEvent()</text>
<text text-anchor="start" x="36" y="-63" font-family="Helvetica,sans-Serif" font-size="10.00">+ MouseEvent()</text>
<text text-anchor="start" x="36" y="-52" font-family="Helvetica,sans-Serif" font-size="10.00">+ button()</text>
<text text-anchor="start" x="36" y="-41" font-family="Helvetica,sans-Serif" font-size="10.00">+ state()</text>
<text text-anchor="start" x="36" y="-30" font-family="Helvetica,sans-Serif" font-size="10.00">+ position()</text>
<text text-anchor="start" x="36" y="-19" font-family="Helvetica,sans-Serif" font-size="10.00">+ type()</text>
<text text-anchor="start" x="36" y="-8" font-family="Helvetica,sans-Serif" font-size="10.00"># write()</text>
</g>
<!-- Node2 -->
<g id="node2" class="node"><title>Node2</title>
<g id="a_node2"><a xlink:href="class_event.html" target="_top" xlink:title="Permet la gestion des evenements. ">
<polygon fill="white" stroke="black" points="-0.5,-218 -0.5,-308 62.5,-308 62.5,-218 -0.5,-218"/>
<text text-anchor="middle" x="31" y="-296" font-family="Helvetica,sans-Serif" font-size="10.00">Event</text>
<polyline fill="none" stroke="black" points="-0.5,-289 62.5,-289 "/>
<text text-anchor="middle" x="31" y="-277" font-family="Helvetica,sans-Serif" font-size="10.00"> </text>
<polyline fill="none" stroke="black" points="-0.5,-270 62.5,-270 "/>
<text text-anchor="start" x="7.5" y="-258" font-family="Helvetica,sans-Serif" font-size="10.00">+ Event()</text>
<text text-anchor="start" x="7.5" y="-247" font-family="Helvetica,sans-Serif" font-size="10.00">+ ~Event()</text>
<text text-anchor="start" x="7.5" y="-236" font-family="Helvetica,sans-Serif" font-size="10.00">+ type()</text>
<text text-anchor="start" x="7.5" y="-225" font-family="Helvetica,sans-Serif" font-size="10.00"># write()</text>
</a>
</g>
</g>
<!-- Node2&#45;&gt;Node1 -->
<g id="edge1" class="edge"><title>Node2&#45;&gt;Node1</title>
<path fill="none" stroke="midnightblue" d="M42.2641,-207.651C46.9391,-185.094 52.4067,-158.713 57.3103,-135.053"/>
<polygon fill="none" stroke="midnightblue" points="38.7791,-207.22 40.1768,-217.722 45.6335,-208.64 38.7791,-207.22"/>
</g>
<!-- Node3 -->
<g id="node3" class="node"><title>Node3</title>
<g id="a_node3"><a xlink:href="class_point.html" target="_top" xlink:title="Représente un point (x, y) ">
<polygon fill="white" stroke="black" points="81,-185 81,-341 141,-341 141,-185 81,-185"/>
<text text-anchor="middle" x="111" y="-329" font-family="Helvetica,sans-Serif" font-size="10.00">Point</text>
<polyline fill="none" stroke="black" points="81,-322 141,-322 "/>
<text text-anchor="start" x="89" y="-310" font-family="Helvetica,sans-Serif" font-size="10.00">&#45; m_x</text>
<text text-anchor="start" x="89" y="-299" font-family="Helvetica,sans-Serif" font-size="10.00">&#45; m_y</text>
<polyline fill="none" stroke="black" points="81,-292 141,-292 "/>
<text text-anchor="start" x="89" y="-280" font-family="Helvetica,sans-Serif" font-size="10.00">+ Point()</text>
<text text-anchor="start" x="89" y="-269" font-family="Helvetica,sans-Serif" font-size="10.00">+ Point()</text>
<text text-anchor="start" x="89" y="-258" font-family="Helvetica,sans-Serif" font-size="10.00">+ Point()</text>
<text text-anchor="start" x="89" y="-247" font-family="Helvetica,sans-Serif" font-size="10.00">+ ~Point()</text>
<text text-anchor="start" x="89" y="-236" font-family="Helvetica,sans-Serif" font-size="10.00">+ x()</text>
<text text-anchor="start" x="89" y="-225" font-family="Helvetica,sans-Serif" font-size="10.00">+ y()</text>
<text text-anchor="start" x="89" y="-214" font-family="Helvetica,sans-Serif" font-size="10.00">+ x()</text>
<text text-anchor="start" x="89" y="-203" font-family="Helvetica,sans-Serif" font-size="10.00">+ y()</text>
<text text-anchor="start" x="89" y="-192" font-family="Helvetica,sans-Serif" font-size="10.00">+ set()</text>
</a>
</g>
</g>
<!-- Node3&#45;&gt;Node1 -->
<g id="edge2" class="edge"><title>Node3&#45;&gt;Node1</title>
<path fill="none" stroke="#404040" d="M95.0185,-184.889C92.4295,-172.397 89.7467,-159.453 87.1536,-146.941"/>
<polygon fill="none" stroke="#404040" points="87.1363,-146.857 82.0018,-141.794 84.7009,-135.107 89.8354,-140.17 87.1363,-146.857"/>
<text text-anchor="middle" x="118" y="-157.5" font-family="Helvetica,sans-Serif" font-size="10.00"> &#45;m_position</text>
</g>
</g>
</svg>
