<?xml version="1.0" encoding="UTF-8" standalone="no"?>
<!DOCTYPE svg PUBLIC "-//W3C//DTD SVG 1.1//EN"
 "http://www.w3.org/Graphics/SVG/1.1/DTD/svg11.dtd">
<!-- Generated by graphviz version 2.36.0 (20140111.2315)
 -->
<!-- Title: Canvas::drawText Pages: 1 -->
<svg width="306pt" height="102pt"
 viewBox="0.00 0.00 306.00 102.00" xmlns="http://www.w3.org/2000/svg" xmlns:xlink="http://www.w3.org/1999/xlink">
<g id="graph0" class="graph" transform="scale(1 1) rotate(0) translate(4 98)">
<title>Canvas::drawText</title>
<polygon fill="white" stroke="none" points="-4,4 -4,-98 302,-98 302,4 -4,4"/>
<!-- Node1 -->
<g id="node1" class="node"><title>Node1</title>
<polygon fill="#bfbfbf" stroke="black" points="0.5,-28.5 0.5,-47.5 97.5,-47.5 97.5,-28.5 0.5,-28.5"/>
<text text-anchor="middle" x="49" y="-35.5" font-family="Helvetica,sans-Serif" font-size="10.00">Canvas::drawText</text>
</g>
<!-- Node2 -->
<g id="node2" class="node"><title>Node2</title>
<g id="a_node2"><a xlink:href="class_point.html#a2aa897aa68c2f3e6df3a46738f27a0ac" target="_top" xlink:title="recupere la valeur de l&#39;absisse du Point. ">
<polygon fill="white" stroke="black" points="134,-56.5 134,-75.5 184,-75.5 184,-56.5 134,-56.5"/>
<text text-anchor="middle" x="159" y="-63.5" font-family="Helvetica,sans-Serif" font-size="10.00">Point::x</text>
</a>
</g>
</g>
<!-- Node1&#45;&gt;Node2 -->
<g id="edge1" class="edge"><title>Node1&#45;&gt;Node2</title>
<path fill="none" stroke="midnightblue" d="M86.8654,-47.5577C98.8701,-50.67 112.135,-54.1091 123.926,-57.166"/>
<polygon fill="midnightblue" stroke="midnightblue" points="123.281,-60.6144 133.839,-59.7361 125.038,-53.8385 123.281,-60.6144"/>
</g>
<!-- Node4 -->
<g id="node4" class="node"><title>Node4</title>
<g id="a_node4"><a xlink:href="class_point.html#a2226d8a3fb283b0b3c1f69106df144ba" target="_top" xlink:title="Fonction recuperant le valeur de l&#39;ordonée. ">
<polygon fill="white" stroke="black" points="134,-0.5 134,-19.5 184,-19.5 184,-0.5 134,-0.5"/>
<text text-anchor="middle" x="159" y="-7.5" font-family="Helvetica,sans-Serif" font-size="10.00">Point::y</text>
</a>
</g>
</g>
<!-- Node1&#45;&gt;Node4 -->
<g id="edge4" class="edge"><title>Node1&#45;&gt;Node4</title>
<path fill="none" stroke="midnightblue" d="M86.8654,-28.4423C98.8701,-25.33 112.135,-21.8909 123.926,-18.834"/>
<polygon fill="midnightblue" stroke="midnightblue" points="125.038,-22.1615 133.839,-16.2639 123.281,-15.3856 125.038,-22.1615"/>
</g>
<!-- Node2&#45;&gt;Node2 -->
<g id="edge3" class="edge"><title>Node2&#45;&gt;Node2</title>
<path fill="none" stroke="midnightblue" d="M143.587,-75.7571C136.089,-84.5653 141.227,-94 159,-94 170.108,-94 176.281,-90.3146 177.518,-85.4"/>
<polygon fill="midnightblue" stroke="midnightblue" points="180.809,-84.2032 174.413,-75.7571 174.146,-86.3485 180.809,-84.2032"/>
</g>
<!-- Node3 -->
<g id="node3" class="node"><title>Node3</title>
<g id="a_node3"><a xlink:href="class_point.html#a64a5fe8c9b1d1a1543aaa64031537380" target="_top" xlink:title="Point::isAlone">
<polygon fill="white" stroke="black" points="220.5,-28.5 220.5,-47.5 297.5,-47.5 297.5,-28.5 220.5,-28.5"/>
<text text-anchor="middle" x="259" y="-35.5" font-family="Helvetica,sans-Serif" font-size="10.00">Point::isAlone</text>
</a>
</g>
</g>
<!-- Node2&#45;&gt;Node3 -->
<g id="edge2" class="edge"><title>Node2&#45;&gt;Node3</title>
<path fill="none" stroke="midnightblue" d="M184.225,-59.0786C193.417,-56.4524 204.187,-53.375 214.614,-50.3959"/>
<polygon fill="midnightblue" stroke="midnightblue" points="215.789,-53.7003 224.443,-47.5877 213.866,-46.9696 215.789,-53.7003"/>
</g>
<!-- Node4&#45;&gt;Node3 -->
<g id="edge5" class="edge"><title>Node4&#45;&gt;Node3</title>
<path fill="none" stroke="midnightblue" d="M184.225,-16.9214C193.417,-19.5476 204.187,-22.625 214.614,-25.6041"/>
<polygon fill="midnightblue" stroke="midnightblue" points="213.866,-29.0304 224.443,-28.4123 215.789,-22.2997 213.866,-29.0304"/>
</g>
<!-- Node4&#45;&gt;Node4 -->
<g id="edge6" class="edge"><title>Node4&#45;&gt;Node4</title>
<path fill="none" stroke="midnightblue" d="M143.587,-19.7571C136.089,-28.5653 141.227,-38 159,-38 170.108,-38 176.281,-34.3146 177.518,-29.4"/>
<polygon fill="midnightblue" stroke="midnightblue" points="180.809,-28.2032 174.413,-19.7571 174.146,-30.3485 180.809,-28.2032"/>
</g>
</g>
</svg>
