<?xml version="1.0" encoding="UTF-8" standalone="no"?>
<!DOCTYPE svg PUBLIC "-//W3C//DTD SVG 1.1//EN"
 "http://www.w3.org/Graphics/SVG/1.1/DTD/svg11.dtd">
<!-- Generated by graphviz version 2.36.0 (20140111.2315)
 -->
<!-- Title: Point::x Pages: 1 -->
<svg width="158pt" height="218pt"
 viewBox="0.00 0.00 158.00 218.00" xmlns="http://www.w3.org/2000/svg" xmlns:xlink="http://www.w3.org/1999/xlink">
<g id="graph0" class="graph" transform="scale(1 1) rotate(0) translate(4 214)">
<title>Point::x</title>
<polygon fill="white" stroke="none" points="-4,4 -4,-214 154,-214 154,4 -4,4"/>
<!-- Node1 -->
<g id="node1" class="node"><title>Node1</title>
<polygon fill="#bfbfbf" stroke="black" points="0,-95.5 0,-114.5 50,-114.5 50,-95.5 0,-95.5"/>
<text text-anchor="middle" x="25" y="-102.5" font-family="Helvetica,sans-Serif" font-size="10.00">Point::x</text>
</g>
<!-- Node2 -->
<g id="node2" class="node"><title>Node2</title>
<g id="a_node2"><a xlink:href="class_point.html#a43923c490fb5439d7d8a041e86520c34" target="_top" xlink:title="permet la modification des valeurs du point. ">
<polygon fill="white" stroke="black" points="88.5,-190.5 88.5,-209.5 147.5,-209.5 147.5,-190.5 88.5,-190.5"/>
<text text-anchor="middle" x="118" y="-197.5" font-family="Helvetica,sans-Serif" font-size="10.00">Point::set</text>
</a>
</g>
</g>
<!-- Node1&#45;&gt;Node2 -->
<g id="edge1" class="edge"><title>Node1&#45;&gt;Node2</title>
<path fill="none" stroke="midnightblue" d="M37.8066,-123.454C48.9053,-139.857 66.6663,-163.83 86,-181 89.8703,-184.437 94.4418,-187.622 98.8682,-190.363"/>
<polygon fill="midnightblue" stroke="midnightblue" points="40.5104,-121.197 32.0802,-114.78 34.6686,-125.053 40.5104,-121.197"/>
</g>
<!-- Node3 -->
<g id="node3" class="node"><title>Node3</title>
<g id="a_node3"><a xlink:href="_point_8hpp.html#a872cb140a1e5f546a31b4b3d891b765a" target="_top" xlink:title="Surchage de l&#39;operateur ==. ">
<polygon fill="white" stroke="black" points="86,-152.5 86,-171.5 150,-171.5 150,-152.5 86,-152.5"/>
<text text-anchor="middle" x="118" y="-159.5" font-family="Helvetica,sans-Serif" font-size="10.00">operator==</text>
</a>
</g>
</g>
<!-- Node1&#45;&gt;Node3 -->
<g id="edge2" class="edge"><title>Node1&#45;&gt;Node3</title>
<path fill="none" stroke="midnightblue" d="M49.8724,-120.232C60.8525,-127.209 74.0634,-135.563 86,-143 90.9289,-146.071 96.3188,-149.389 101.202,-152.379"/>
<polygon fill="midnightblue" stroke="midnightblue" points="51.5665,-117.162 41.2508,-114.746 47.8083,-123.067 51.5665,-117.162"/>
</g>
<!-- Node4 -->
<g id="node4" class="node"><title>Node4</title>
<g id="a_node4"><a xlink:href="_point_8hpp.html#a4158330ef851082d91a82eefd03aa183" target="_top" xlink:title="Surchage de l&#39;operateur +. ">
<polygon fill="white" stroke="black" points="89,-114.5 89,-133.5 147,-133.5 147,-114.5 89,-114.5"/>
<text text-anchor="middle" x="118" y="-121.5" font-family="Helvetica,sans-Serif" font-size="10.00">operator+</text>
</a>
</g>
</g>
<!-- Node1&#45;&gt;Node4 -->
<g id="edge3" class="edge"><title>Node1&#45;&gt;Node4</title>
<path fill="none" stroke="midnightblue" d="M60.2163,-112.144C69.5982,-114.103 79.6632,-116.204 88.6747,-118.086"/>
<polygon fill="midnightblue" stroke="midnightblue" points="60.8906,-108.709 50.3863,-110.092 59.4599,-115.562 60.8906,-108.709"/>
</g>
<!-- Node5 -->
<g id="node5" class="node"><title>Node5</title>
<g id="a_node5"><a xlink:href="_point_8hpp.html#af304a4bde169f417ea02e56d3d4b7258" target="_top" xlink:title="Surchage de l&#39;operateur &#45;. ">
<polygon fill="white" stroke="black" points="90.5,-76.5 90.5,-95.5 145.5,-95.5 145.5,-76.5 90.5,-76.5"/>
<text text-anchor="middle" x="118" y="-83.5" font-family="Helvetica,sans-Serif" font-size="10.00">operator&#45;</text>
</a>
</g>
</g>
<!-- Node1&#45;&gt;Node5 -->
<g id="edge4" class="edge"><title>Node1&#45;&gt;Node5</title>
<path fill="none" stroke="midnightblue" d="M60.3581,-97.8263C70.2702,-95.7568 80.9341,-93.5302 90.3061,-91.5734"/>
<polygon fill="midnightblue" stroke="midnightblue" points="59.4599,-94.4383 50.3863,-99.9083 60.8906,-101.291 59.4599,-94.4383"/>
</g>
<!-- Node6 -->
<g id="node6" class="node"><title>Node6</title>
<g id="a_node6"><a xlink:href="_point_8hpp.html#aab55cf13db83c55c46a961b2b2441960" target="_top" xlink:title="Surchage de l&#39;operateur &lt;&lt;. ">
<polygon fill="white" stroke="black" points="86,-38.5 86,-57.5 150,-57.5 150,-38.5 86,-38.5"/>
<text text-anchor="middle" x="118" y="-45.5" font-family="Helvetica,sans-Serif" font-size="10.00">operator&lt;&lt;</text>
</a>
</g>
</g>
<!-- Node1&#45;&gt;Node6 -->
<g id="edge5" class="edge"><title>Node1&#45;&gt;Node6</title>
<path fill="none" stroke="midnightblue" d="M49.8724,-89.7679C60.8525,-82.7909 74.0634,-74.4373 86,-67 90.9289,-63.9289 96.3188,-60.6113 101.202,-57.621"/>
<polygon fill="midnightblue" stroke="midnightblue" points="47.8083,-86.9327 41.2508,-95.2543 51.5665,-92.8384 47.8083,-86.9327"/>
</g>
<!-- Node7 -->
<g id="node7" class="node"><title>Node7</title>
<g id="a_node7"><a xlink:href="_point_8hpp.html#a4e1acba0f26daf714b7816d3c1994a74" target="_top" xlink:title="Surchage de l&#39;operateur &lt;. ">
<polygon fill="white" stroke="black" points="89,-0.5 89,-19.5 147,-19.5 147,-0.5 89,-0.5"/>
<text text-anchor="middle" x="118" y="-7.5" font-family="Helvetica,sans-Serif" font-size="10.00">operator&lt;</text>
</a>
</g>
</g>
<!-- Node1&#45;&gt;Node7 -->
<g id="edge6" class="edge"><title>Node1&#45;&gt;Node7</title>
<path fill="none" stroke="midnightblue" d="M37.8066,-86.546C48.9053,-70.1429 66.6663,-46.1695 86,-29 89.8703,-25.5629 94.4418,-22.3783 98.8682,-19.6371"/>
<polygon fill="midnightblue" stroke="midnightblue" points="34.6686,-84.9467 32.0802,-95.2205 40.5104,-88.8032 34.6686,-84.9467"/>
</g>
</g>
</svg>
