<?xml version="1.0" encoding="UTF-8" standalone="no"?>
<!DOCTYPE svg PUBLIC "-//W3C//DTD SVG 1.1//EN"
 "http://www.w3.org/Graphics/SVG/1.1/DTD/svg11.dtd">
<!-- Generated by graphviz version 2.36.0 (20140111.2315)
 -->
<!-- Title: LineEdit::LineEdit Pages: 1 -->
<!--zoomable 405 -->
<svg id="main" version="1.1" xmlns="http://www.w3.org/2000/svg" xmlns:xlink="http://www.w3.org/1999/xlink" xml:space="preserve" onload="init(evt)">
<style type="text/css"><![CDATA[
.edge:hover path { stroke: red; }
.edge:hover polygon { stroke: red; fill: red; }
]]></style>
<script type="text/javascript"><![CDATA[
var edges = document.getElementsByTagName('g');
if (edges && edges.length) {
  for (var i=0;i<edges.length;i++) {
    if (edges[i].id.substr(0,4)=='edge') {
      edges[i].setAttribute('class','edge');
    }
  }
}
]]></script>
        <defs>
                <circle id="rim" cx="0" cy="0" r="7"/>
                <circle id="rim2" cx="0" cy="0" r="3.5"/>
                <g id="zoomPlus">
                        <use xlink:href="#rim" fill="#404040">
                                <set attributeName="fill" to="#808080" begin="zoomplus.mouseover" end="zoomplus.mouseout"/>
                        </use>
                        <path d="M-4,0h8M0,-4v8" fill="none" stroke="white" stroke-width="1.5" pointer-events="none"/>
                </g>
                <g id="zoomMin">
                        <use xlink:href="#rim" fill="#404040">
                                <set attributeName="fill" to="#808080" begin="zoomminus.mouseover" end="zoomminus.mouseout"/>
                        </use>
                        <path d="M-4,0h8" fill="none" stroke="white" stroke-width="1.5" pointer-events="none"/>
                </g>
                <g id="dirArrow">
                        <path fill="none" stroke="white" stroke-width="1.5" d="M0,-3.0v7 M-2.5,-0.5L0,-3.0L2.5,-0.5"/>
                </g>
               <g id="resetDef">
                       <use xlink:href="#rim2" fill="#404040">
                               <set attributeName="fill" to="#808080" begin="reset.mouseover" end="reset.mouseout"/>
                       </use>
               </g>
        </defs>

<script type="text/javascript">
var viewWidth = 696;
var viewHeight = 405;
var sectionId = 'dynsection-2';
</script>
<script xlink:href="svgpan.js"/>
<svg id="graph" class="graph">
<g id="viewport">
<title>LineEdit::LineEdit</title>
<polygon fill="white" stroke="none" points="-4,4 -4,-401 692,-401 692,4 -4,4"/>
<!-- Node1 -->
<g id="node1" class="node"><title>Node1</title>
<polygon fill="#bfbfbf" stroke="black" points="0.5,-223.5 0.5,-242.5 93.5,-242.5 93.5,-223.5 0.5,-223.5"/>
<text text-anchor="middle" x="47" y="-230.5" font-family="Helvetica,sans-Serif" font-size="10.00">LineEdit::LineEdit</text>
</g>
<!-- Node2 -->
<g id="node2" class="node"><title>Node2</title>
<g id="a_node2"><a xlink:href="class_graphics_rectangle.html#aea349ac359e4f2227f1da772c1a26ab6" target="_top" xlink:title="GraphicsRectangle::\lsetHeight">
<polygon fill="white" stroke="black" points="262,-355 262,-385 368,-385 368,-355 262,-355"/>
<text text-anchor="start" x="270" y="-373" font-family="Helvetica,sans-Serif" font-size="10.00">GraphicsRectangle::</text>
<text text-anchor="middle" x="315" y="-362" font-family="Helvetica,sans-Serif" font-size="10.00">setHeight</text>
</a>
</g>
</g>
<!-- Node1&#45;&gt;Node2 -->
<g id="edge1" class="edge"><title>Node1&#45;&gt;Node2</title>
<path fill="none" stroke="midnightblue" d="M59.6629,-242.678C75.0785,-255.16 103.402,-277.041 130,-292 172.474,-315.888 223.726,-337.042 261.34,-351.272"/>
<polygon fill="midnightblue" stroke="midnightblue" points="260.488,-354.691 271.081,-354.918 262.942,-348.135 260.488,-354.691"/>
</g>
<!-- Node9 -->
<g id="node9" class="node"><title>Node9</title>
<g id="a_node9"><a xlink:href="class_graphics_text.html#aaafb8f8246e4d3b0d5dd8ac5cc8586cc" target="_top" xlink:title="GraphicsText::font">
<polygon fill="white" stroke="black" points="266,-316.5 266,-335.5 364,-335.5 364,-316.5 266,-316.5"/>
<text text-anchor="middle" x="315" y="-323.5" font-family="Helvetica,sans-Serif" font-size="10.00">GraphicsText::font</text>
</a>
</g>
</g>
<!-- Node1&#45;&gt;Node9 -->
<g id="edge11" class="edge"><title>Node1&#45;&gt;Node9</title>
<path fill="none" stroke="midnightblue" d="M74.8162,-242.562C114.706,-256.761 192.058,-284.196 258,-307 263.781,-308.999 269.904,-311.097 275.897,-313.139"/>
<polygon fill="midnightblue" stroke="midnightblue" points="275.182,-316.593 285.777,-316.496 277.434,-309.965 275.182,-316.593"/>
</g>
<!-- Node10 -->
<g id="node10" class="node"><title>Node10</title>
<g id="a_node10"><a xlink:href="class_font.html#a9f5b8e83d5efd7d4df3c905864cf9c70" target="_top" xlink:title="Font::height">
<polygon fill="white" stroke="black" points="281,-0.5 281,-19.5 349,-19.5 349,-0.5 281,-0.5"/>
<text text-anchor="middle" x="315" y="-7.5" font-family="Helvetica,sans-Serif" font-size="10.00">Font::height</text>
</a>
</g>
</g>
<!-- Node1&#45;&gt;Node10 -->
<g id="edge12" class="edge"><title>Node1&#45;&gt;Node10</title>
<path fill="none" stroke="midnightblue" d="M55.2607,-223.366C80.0189,-191.155 164.778,-86.0271 258,-29 262.16,-26.4552 266.704,-24.2006 271.347,-22.2162"/>
<polygon fill="midnightblue" stroke="midnightblue" points="272.857,-25.3851 280.923,-18.5159 270.334,-18.8556 272.857,-25.3851"/>
</g>
<!-- Node11 -->
<g id="node11" class="node"><title>Node11</title>
<g id="a_node11"><a xlink:href="class_line_edit.html#a636e2ac65a70dd82fcf02f863da5c446" target="_top" xlink:title="LineEdit::setText">
<polygon fill="white" stroke="black" points="130.5,-174.5 130.5,-193.5 221.5,-193.5 221.5,-174.5 130.5,-174.5"/>
<text text-anchor="middle" x="176" y="-181.5" font-family="Helvetica,sans-Serif" font-size="10.00">LineEdit::setText</text>
</a>
</g>
</g>
<!-- Node1&#45;&gt;Node11 -->
<g id="edge13" class="edge"><title>Node1&#45;&gt;Node11</title>
<path fill="none" stroke="midnightblue" d="M72.7884,-223.436C92.194,-215.949 119.4,-205.452 140.865,-197.17"/>
<polygon fill="midnightblue" stroke="midnightblue" points="142.204,-200.405 150.274,-193.54 139.685,-193.874 142.204,-200.405"/>
</g>
<!-- Node3 -->
<g id="node3" class="node"><title>Node3</title>
<g id="a_node3"><a xlink:href="class_graphics_item.html#ab1266d26ff6aa338959c0796ef915fc4" target="_top" xlink:title="GraphicsItem::setAnchor">
<polygon fill="white" stroke="black" points="408.5,-238.5 408.5,-257.5 533.5,-257.5 533.5,-238.5 408.5,-238.5"/>
<text text-anchor="middle" x="471" y="-245.5" font-family="Helvetica,sans-Serif" font-size="10.00">GraphicsItem::setAnchor</text>
</a>
</g>
</g>
<!-- Node2&#45;&gt;Node3 -->
<g id="edge2" class="edge"><title>Node2&#45;&gt;Node3</title>
<path fill="none" stroke="midnightblue" d="M358.388,-354.968C363.315,-352.133 368,-348.828 372,-345 397.846,-320.261 381.706,-297.262 408,-273 412.758,-268.61 418.386,-264.946 424.279,-261.9"/>
<polygon fill="midnightblue" stroke="midnightblue" points="426.031,-264.948 433.671,-257.607 423.121,-258.581 426.031,-264.948"/>
</g>
<!-- Node4 -->
<g id="node4" class="node"><title>Node4</title>
<g id="a_node4"><a xlink:href="class_graphics_item.html#a742f444cb7d1a142dec52ee777dd51c3" target="_top" xlink:title="GraphicsItem::anchor">
<polygon fill="white" stroke="black" points="574,-249.5 574,-268.5 684,-268.5 684,-249.5 574,-249.5"/>
<text text-anchor="middle" x="629" y="-256.5" font-family="Helvetica,sans-Serif" font-size="10.00">GraphicsItem::anchor</text>
</a>
</g>
</g>
<!-- Node2&#45;&gt;Node4 -->
<g id="edge4" class="edge"><title>Node2&#45;&gt;Node4</title>
<path fill="none" stroke="midnightblue" d="M355.382,-354.88C361.172,-351.966 366.897,-348.663 372,-345 391.163,-331.244 387.505,-317.678 408,-306 434.195,-291.074 508.812,-277.056 563.918,-268.281"/>
<polygon fill="midnightblue" stroke="midnightblue" points="564.627,-271.712 573.964,-266.704 563.542,-264.797 564.627,-271.712"/>
</g>
<!-- Node5 -->
<g id="node5" class="node"><title>Node5</title>
<g id="a_node5"><a xlink:href="class_point.html#a2aa897aa68c2f3e6df3a46738f27a0ac" target="_top" xlink:title="recupere la valeur de l&#39;absisse du Point. ">
<polygon fill="white" stroke="black" points="446,-315.5 446,-334.5 496,-334.5 496,-315.5 446,-315.5"/>
<text text-anchor="middle" x="471" y="-322.5" font-family="Helvetica,sans-Serif" font-size="10.00">Point::x</text>
</a>
</g>
</g>
<!-- Node2&#45;&gt;Node5 -->
<g id="edge5" class="edge"><title>Node2&#45;&gt;Node5</title>
<path fill="none" stroke="midnightblue" d="M367.708,-354.89C390.283,-348.294 416.121,-340.744 436.18,-334.882"/>
<polygon fill="midnightblue" stroke="midnightblue" points="437.192,-338.233 445.809,-332.069 435.229,-331.514 437.192,-338.233"/>
</g>
<!-- Node6 -->
<g id="node6" class="node"><title>Node6</title>
<g id="a_node6"><a xlink:href="class_graphics_rectangle.html#ab1a0b1219fdc7694c6f5902c19f9e429" target="_top" xlink:title="GraphicsRectangle::\lheight">
<polygon fill="white" stroke="black" points="418,-354 418,-384 524,-384 524,-354 418,-354"/>
<text text-anchor="start" x="426" y="-372" font-family="Helvetica,sans-Serif" font-size="10.00">GraphicsRectangle::</text>
<text text-anchor="middle" x="471" y="-361" font-family="Helvetica,sans-Serif" font-size="10.00">height</text>
</a>
</g>
</g>
<!-- Node2&#45;&gt;Node6 -->
<g id="edge6" class="edge"><title>Node2&#45;&gt;Node6</title>
<path fill="none" stroke="midnightblue" d="M368.137,-369.661C380.806,-369.579 394.481,-369.49 407.573,-369.405"/>
<polygon fill="midnightblue" stroke="midnightblue" points="407.939,-372.903 417.916,-369.338 407.894,-365.903 407.939,-372.903"/>
</g>
<!-- Node3&#45;&gt;Node4 -->
<g id="edge3" class="edge"><title>Node3&#45;&gt;Node4</title>
<path fill="none" stroke="midnightblue" d="M533.655,-252.347C543.516,-253.043 553.741,-253.764 563.662,-254.463"/>
<polygon fill="midnightblue" stroke="midnightblue" points="563.641,-257.97 573.863,-255.183 564.134,-250.988 563.641,-257.97"/>
</g>
<!-- Node6&#45;&gt;Node4 -->
<g id="edge10" class="edge"><title>Node6&#45;&gt;Node4</title>
<path fill="none" stroke="midnightblue" d="M517.134,-353.961C523.063,-351.093 528.858,-347.782 534,-344 554.354,-329.029 551.516,-317.227 570,-300 580.149,-290.542 592.578,-281.479 603.325,-274.29"/>
<polygon fill="midnightblue" stroke="midnightblue" points="605.4,-277.115 611.868,-268.724 601.579,-271.25 605.4,-277.115"/>
</g>
<!-- Node7 -->
<g id="node7" class="node"><title>Node7</title>
<g id="a_node7"><a xlink:href="class_graphics_item.html#acddeaf58963ddb0de93b7c1b27512af7" target="_top" xlink:title="GraphicsItem::absolute">
<polygon fill="white" stroke="black" points="570,-359.5 570,-378.5 688,-378.5 688,-359.5 570,-359.5"/>
<text text-anchor="middle" x="629" y="-366.5" font-family="Helvetica,sans-Serif" font-size="10.00">GraphicsItem::absolute</text>
</a>
</g>
</g>
<!-- Node6&#45;&gt;Node7 -->
<g id="edge7" class="edge"><title>Node6&#45;&gt;Node7</title>
<path fill="none" stroke="midnightblue" d="M524.38,-369C535.676,-369 547.778,-369 559.583,-369"/>
<polygon fill="midnightblue" stroke="midnightblue" points="559.853,-372.5 569.853,-369 559.853,-365.5 559.853,-372.5"/>
</g>
<!-- Node8 -->
<g id="node8" class="node"><title>Node8</title>
<g id="a_node8"><a xlink:href="class_point.html#a2226d8a3fb283b0b3c1f69106df144ba" target="_top" xlink:title="Fonction recuperant le valeur de l&#39;ordonée. ">
<polygon fill="white" stroke="black" points="604,-309.5 604,-328.5 654,-328.5 654,-309.5 604,-309.5"/>
<text text-anchor="middle" x="629" y="-316.5" font-family="Helvetica,sans-Serif" font-size="10.00">Point::y</text>
</a>
</g>
</g>
<!-- Node6&#45;&gt;Node8 -->
<g id="edge9" class="edge"><title>Node6&#45;&gt;Node8</title>
<path fill="none" stroke="midnightblue" d="M518.805,-353.998C543.087,-346.216 572.199,-336.885 594.255,-329.816"/>
<polygon fill="midnightblue" stroke="midnightblue" points="595.395,-333.126 603.85,-326.741 593.258,-326.46 595.395,-333.126"/>
</g>
<!-- Node7&#45;&gt;Node7 -->
<g id="edge8" class="edge"><title>Node7&#45;&gt;Node7</title>
<path fill="none" stroke="midnightblue" d="M604.648,-378.757C592.801,-387.565 600.918,-397 629,-397 647.429,-397 657.26,-392.937 658.492,-387.654"/>
<polygon fill="midnightblue" stroke="midnightblue" points="661.386,-385.665 653.352,-378.757 655.324,-389.167 661.386,-385.665"/>
</g>
<!-- Node11&#45;&gt;Node3 -->
<g id="edge24" class="edge"><title>Node11&#45;&gt;Node3</title>
<path fill="none" stroke="midnightblue" d="M220.549,-193.512C272.733,-204.911 360.156,-224.007 416.428,-236.298"/>
<polygon fill="midnightblue" stroke="midnightblue" points="415.696,-239.721 426.212,-238.435 417.19,-232.882 415.696,-239.721"/>
</g>
<!-- Node11&#45;&gt;Node9 -->
<g id="edge20" class="edge"><title>Node11&#45;&gt;Node9</title>
<path fill="none" stroke="midnightblue" d="M182.256,-193.636C196.636,-219.705 236.957,-290.743 258,-307 260.323,-308.795 262.826,-310.426 265.439,-311.907"/>
<polygon fill="midnightblue" stroke="midnightblue" points="264.126,-315.16 274.65,-316.387 267.188,-308.865 264.126,-315.16"/>
</g>
<!-- Node11&#45;&gt;Node10 -->
<g id="edge26" class="edge"><title>Node11&#45;&gt;Node10</title>
<path fill="none" stroke="midnightblue" d="M182.337,-174.21C190.838,-158.578 207.928,-126.994 222,-100 238.355,-68.6268 231.269,-52.1775 258,-29 261.971,-25.5573 266.592,-22.7317 271.446,-20.4141"/>
<polygon fill="midnightblue" stroke="midnightblue" points="273.005,-23.5585 280.955,-16.5546 270.373,-17.0723 273.005,-23.5585"/>
</g>
<!-- Node12 -->
<g id="node12" class="node"><title>Node12</title>
<g id="a_node12"><a xlink:href="class_graphics_text.html#ac42bb0e20251eb0dc2305be760714130" target="_top" xlink:title="Modifie le contenu de GraphicsText. ">
<polygon fill="white" stroke="black" points="258,-76.5 258,-95.5 372,-95.5 372,-76.5 258,-76.5"/>
<text text-anchor="middle" x="315" y="-83.5" font-family="Helvetica,sans-Serif" font-size="10.00">GraphicsText::setText</text>
</a>
</g>
</g>
<!-- Node11&#45;&gt;Node12 -->
<g id="edge14" class="edge"><title>Node11&#45;&gt;Node12</title>
<path fill="none" stroke="midnightblue" d="M185.627,-174.238C199.585,-158.91 228.543,-128.989 258,-110 263.914,-106.188 270.535,-102.737 277.096,-99.7161"/>
<polygon fill="midnightblue" stroke="midnightblue" points="278.795,-102.795 286.578,-95.6066 276.011,-96.3719 278.795,-102.795"/>
</g>
<!-- Node13 -->
<g id="node13" class="node"><title>Node13</title>
<g id="a_node13"><a xlink:href="class_graphics_text.html#aeb38c8c0df9473cde331540d9904d352" target="_top" xlink:title="Recupere le contenu de GraphicsText. ">
<polygon fill="white" stroke="black" points="422,-95.5 422,-114.5 520,-114.5 520,-95.5 422,-95.5"/>
<text text-anchor="middle" x="471" y="-102.5" font-family="Helvetica,sans-Serif" font-size="10.00">GraphicsText::text</text>
</a>
</g>
</g>
<!-- Node11&#45;&gt;Node13 -->
<g id="edge22" class="edge"><title>Node11&#45;&gt;Node13</title>
<path fill="none" stroke="midnightblue" d="M192.54,-174.404C208.424,-165.018 234.086,-151.004 258,-143 308.554,-126.08 368.552,-116.22 411.796,-110.805"/>
<polygon fill="midnightblue" stroke="midnightblue" points="412.353,-114.263 421.86,-109.586 411.511,-107.314 412.353,-114.263"/>
</g>
<!-- Node14 -->
<g id="node14" class="node"><title>Node14</title>
<g id="a_node14"><a xlink:href="class_graphics_rectangle.html#a3efd2295cd742f75de829851bf7ca3dd" target="_top" xlink:title="GraphicsRectangle::\lsetWidth">
<polygon fill="white" stroke="black" points="262,-153 262,-183 368,-183 368,-153 262,-153"/>
<text text-anchor="start" x="270" y="-171" font-family="Helvetica,sans-Serif" font-size="10.00">GraphicsRectangle::</text>
<text text-anchor="middle" x="315" y="-160" font-family="Helvetica,sans-Serif" font-size="10.00">setWidth</text>
</a>
</g>
</g>
<!-- Node11&#45;&gt;Node14 -->
<g id="edge16" class="edge"><title>Node11&#45;&gt;Node14</title>
<path fill="none" stroke="midnightblue" d="M221.859,-178.761C231.457,-177.64 241.762,-176.437 251.879,-175.255"/>
<polygon fill="midnightblue" stroke="midnightblue" points="252.374,-178.721 261.901,-174.085 251.562,-171.768 252.374,-178.721"/>
</g>
<!-- Node15 -->
<g id="node15" class="node"><title>Node15</title>
<g id="a_node15"><a xlink:href="class_font.html#ad96d9cd6356edf670103542dbe4336c3" target="_top" xlink:title="Font::width">
<polygon fill="white" stroke="black" points="282.5,-38.5 282.5,-57.5 347.5,-57.5 347.5,-38.5 282.5,-38.5"/>
<text text-anchor="middle" x="315" y="-45.5" font-family="Helvetica,sans-Serif" font-size="10.00">Font::width</text>
</a>
</g>
</g>
<!-- Node11&#45;&gt;Node15 -->
<g id="edge21" class="edge"><title>Node11&#45;&gt;Node15</title>
<path fill="none" stroke="midnightblue" d="M181.12,-174.26C191.03,-151.975 218.354,-96.9007 258,-67 262.457,-63.6386 267.547,-60.848 272.8,-58.5373"/>
<polygon fill="midnightblue" stroke="midnightblue" points="274.25,-61.7297 282.33,-54.8767 271.74,-55.1951 274.25,-61.7297"/>
</g>
<!-- Node16 -->
<g id="node16" class="node"><title>Node16</title>
<g id="a_node16"><a xlink:href="class_graphics_line.html#acf2f14c815ca5b10567cc73e97a925d2" target="_top" xlink:title="GraphicsLine::first">
<polygon fill="white" stroke="black" points="267,-278.5 267,-297.5 363,-297.5 363,-278.5 267,-278.5"/>
<text text-anchor="middle" x="315" y="-285.5" font-family="Helvetica,sans-Serif" font-size="10.00">GraphicsLine::first</text>
</a>
</g>
</g>
<!-- Node11&#45;&gt;Node16 -->
<g id="edge23" class="edge"><title>Node11&#45;&gt;Node16</title>
<path fill="none" stroke="midnightblue" d="M183.668,-193.604C196.247,-211.043 225.186,-248.046 258,-269 261.172,-271.025 264.583,-272.86 268.101,-274.518"/>
<polygon fill="midnightblue" stroke="midnightblue" points="266.994,-277.849 277.569,-278.5 269.708,-271.397 266.994,-277.849"/>
</g>
<!-- Node17 -->
<g id="node17" class="node"><title>Node17</title>
<g id="a_node17"><a xlink:href="class_graphics_line.html#adcb8718946ae9b3478d56efd70e1d2c2" target="_top" xlink:title="GraphicsLine::second">
<polygon fill="white" stroke="black" points="259.5,-240.5 259.5,-259.5 370.5,-259.5 370.5,-240.5 259.5,-240.5"/>
<text text-anchor="middle" x="315" y="-247.5" font-family="Helvetica,sans-Serif" font-size="10.00">GraphicsLine::second</text>
</a>
</g>
</g>
<!-- Node11&#45;&gt;Node17 -->
<g id="edge25" class="edge"><title>Node11&#45;&gt;Node17</title>
<path fill="none" stroke="midnightblue" d="M194.51,-193.554C210.791,-202.323 235.803,-215.506 258,-226 265.463,-229.528 273.581,-233.136 281.26,-236.447"/>
<polygon fill="midnightblue" stroke="midnightblue" points="280.099,-239.756 290.671,-240.453 282.841,-233.316 280.099,-239.756"/>
</g>
<!-- Node12&#45;&gt;Node13 -->
<g id="edge15" class="edge"><title>Node12&#45;&gt;Node13</title>
<path fill="none" stroke="midnightblue" d="M372.033,-92.9132C384.927,-94.5039 398.669,-96.1994 411.658,-97.8019"/>
<polygon fill="midnightblue" stroke="midnightblue" points="411.529,-101.312 421.882,-99.0634 412.386,-94.3652 411.529,-101.312"/>
</g>
<!-- Node14&#45;&gt;Node3 -->
<g id="edge17" class="edge"><title>Node14&#45;&gt;Node3</title>
<path fill="none" stroke="midnightblue" d="M345.713,-183.099C354.309,-187.687 363.628,-192.874 372,-198 388.613,-208.172 390.86,-213.744 408,-223 415.939,-227.287 424.774,-231.276 433.229,-234.752"/>
<polygon fill="midnightblue" stroke="midnightblue" points="431.959,-238.014 442.544,-238.448 434.54,-231.507 431.959,-238.014"/>
</g>
<!-- Node14&#45;&gt;Node4 -->
<g id="edge18" class="edge"><title>Node14&#45;&gt;Node4</title>
<path fill="none" stroke="midnightblue" d="M368.294,-167.636C413.514,-168.906 479.937,-174.62 534,-195 563.053,-205.952 591.885,-227.601 609.803,-242.671"/>
<polygon fill="midnightblue" stroke="midnightblue" points="607.818,-245.581 617.676,-249.464 612.392,-240.281 607.818,-245.581"/>
</g>
<!-- Node14&#45;&gt;Node8 -->
<g id="edge19" class="edge"><title>Node14&#45;&gt;Node8</title>
<path fill="none" stroke="midnightblue" d="M366.558,-183.054C380.009,-187 394.541,-191.21 408,-195 463.831,-210.723 486.14,-196.232 534,-229 556.298,-244.267 550.717,-259.067 570,-278 579.899,-287.719 592.298,-296.814 603.089,-303.956"/>
<polygon fill="midnightblue" stroke="midnightblue" points="601.377,-307.016 611.685,-309.467 605.156,-301.124 601.377,-307.016"/>
</g>
</g>
</svg>
        <g id="navigator" transform="translate(0 0)" fill="#404254">
                <rect fill="#f2f5e9" fill-opacity="0.5" stroke="#606060" stroke-width=".5" x="0" y="0" width="60" height="60"/>
                <use id="zoomplus" xlink:href="#zoomPlus" x="17" y="9" onmousedown="handleZoom(evt,'in')"/>
                <use id="zoomminus" xlink:href="#zoomMin" x="42" y="9" onmousedown="handleZoom(evt,'out')"/>
                <use id="reset" xlink:href="#resetDef" x="30" y="36" onmousedown="handleReset()"/>
                <g id="arrowUp" xlink:href="#dirArrow" transform="translate(30 24)" onmousedown="handlePan(0,-1)">
                  <use xlink:href="#rim" fill="#404040">
                        <set attributeName="fill" to="#808080" begin="arrowUp.mouseover" end="arrowUp.mouseout"/>
                  </use>
                  <path fill="none" stroke="white" stroke-width="1.5" d="M0,-3.0v7 M-2.5,-0.5L0,-3.0L2.5,-0.5"/>
                </g>
                <g id="arrowRight" xlink:href="#dirArrow" transform="rotate(90) translate(36 -43)" onmousedown="handlePan(1,0)">
                  <use xlink:href="#rim" fill="#404040">
                        <set attributeName="fill" to="#808080" begin="arrowRight.mouseover" end="arrowRight.mouseout"/>
                  </use>
                  <path fill="none" stroke="white" stroke-width="1.5" d="M0,-3.0v7 M-2.5,-0.5L0,-3.0L2.5,-0.5"/>
                </g>
                <g id="arrowDown" xlink:href="#dirArrow" transform="rotate(180) translate(-30 -48)" onmousedown="handlePan(0,1)">
                  <use xlink:href="#rim" fill="#404040">
                        <set attributeName="fill" to="#808080" begin="arrowDown.mouseover" end="arrowDown.mouseout"/>
                  </use>
                  <path fill="none" stroke="white" stroke-width="1.5" d="M0,-3.0v7 M-2.5,-0.5L0,-3.0L2.5,-0.5"/>
                </g>
                <g id="arrowLeft" xlink:href="#dirArrow" transform="rotate(270) translate(-36 17)" onmousedown="handlePan(-1,0)">
                  <use xlink:href="#rim" fill="#404040">
                        <set attributeName="fill" to="#808080" begin="arrowLeft.mouseover" end="arrowLeft.mouseout"/>
                  </use>
                  <path fill="none" stroke="white" stroke-width="1.5" d="M0,-3.0v7 M-2.5,-0.5L0,-3.0L2.5,-0.5"/>
                </g>
        </g>
        <svg viewBox="0 0 15 15" width="100%" height="30px" preserveAspectRatio="xMaxYMin meet">
         <g id="arrow_out" transform="scale(0.3 0.3)">
          <a xlink:href="class_line_edit_a04e1cd86821efe7570868ae397978186_cgraph_org.svg" target="_base">
           <rect id="button" ry="5" rx="5" y="6" x="6" height="38" width="38"
                fill="#f2f5e9" fill-opacity="0.5" stroke="#606060" stroke-width="1.0"/>
           <path id="arrow"
             d="M 11.500037,31.436501 C 11.940474,20.09759 22.043105,11.32322 32.158766,21.979434 L 37.068811,17.246167 C 37.068811,17.246167 37.088388,32 37.088388,32 L 22.160133,31.978069 C 22.160133,31.978069 26.997745,27.140456 26.997745,27.140456 C 18.528582,18.264221 13.291696,25.230495 11.500037,31.436501 z"
             style="fill:#404040;"/>
          </a>
         </g>
        </svg>
</svg>
