<?xml version="1.0" encoding="UTF-8" standalone="no"?>
<!DOCTYPE svg PUBLIC "-//W3C//DTD SVG 1.1//EN"
 "http://www.w3.org/Graphics/SVG/1.1/DTD/svg11.dtd">
<!-- Generated by graphviz version 2.36.0 (20140111.2315)
 -->
<!-- Title: Point::Point Pages: 1 -->
<svg width="914pt" height="431pt"
 viewBox="0.00 0.00 914.00 431.00" xmlns="http://www.w3.org/2000/svg" xmlns:xlink="http://www.w3.org/1999/xlink">
<g id="graph0" class="graph" transform="scale(1 1) rotate(0) translate(4 427)">
<title>Point::Point</title>
<polygon fill="white" stroke="none" points="-4,4 -4,-427 910,-427 910,4 -4,4"/>
<!-- Node1 -->
<g id="node1" class="node"><title>Node1</title>
<polygon fill="#bfbfbf" stroke="black" points="0,-76.5 0,-95.5 68,-95.5 68,-76.5 0,-76.5"/>
<text text-anchor="middle" x="34" y="-83.5" font-family="Helvetica,sans-Serif" font-size="10.00">Point::Point</text>
</g>
<!-- Node2 -->
<g id="node2" class="node"><title>Node2</title>
<g id="a_node2"><a xlink:href="class_point.html#a04ce786cebfd535bc380833a71405930" target="_top" xlink:title="Point::absolute">
<polygon fill="white" stroke="black" points="112,-234.5 112,-253.5 194,-253.5 194,-234.5 112,-234.5"/>
<text text-anchor="middle" x="153" y="-241.5" font-family="Helvetica,sans-Serif" font-size="10.00">Point::absolute</text>
</a>
</g>
</g>
<!-- Node1&#45;&gt;Node2 -->
<g id="edge1" class="edge"><title>Node1&#45;&gt;Node2</title>
<path fill="none" stroke="midnightblue" d="M48.5575,-104.308C73.4118,-137.872 125.481,-208.188 144.684,-234.12"/>
<polygon fill="midnightblue" stroke="midnightblue" points="51.0827,-101.837 42.3189,-95.8836 45.4572,-106.003 51.0827,-101.837"/>
</g>
<!-- Node20 -->
<g id="node20" class="node"><title>Node20</title>
<g id="a_node20"><a xlink:href="class_point.html#ab536377f38dbf8fd36875838648a1825" target="_top" xlink:title="Point::setAbsolute">
<polygon fill="white" stroke="black" points="104.5,-76.5 104.5,-95.5 201.5,-95.5 201.5,-76.5 104.5,-76.5"/>
<text text-anchor="middle" x="153" y="-83.5" font-family="Helvetica,sans-Serif" font-size="10.00">Point::setAbsolute</text>
</a>
</g>
</g>
<!-- Node1&#45;&gt;Node20 -->
<g id="edge23" class="edge"><title>Node1&#45;&gt;Node20</title>
<path fill="none" stroke="midnightblue" d="M78.2722,-86C86.7471,-86 95.6802,-86 104.29,-86"/>
<polygon fill="midnightblue" stroke="midnightblue" points="78.2146,-82.5001 68.2145,-86 78.2145,-89.5001 78.2146,-82.5001"/>
</g>
<!-- Node23 -->
<g id="node23" class="node"><title>Node23</title>
<g id="a_node23"><a xlink:href="class_point.html#afa7d33502738b0b3df186a91e11ff2a8" target="_top" xlink:title="Point::origin">
<polygon fill="white" stroke="black" points="119,-38.5 119,-57.5 187,-57.5 187,-38.5 119,-38.5"/>
<text text-anchor="middle" x="153" y="-45.5" font-family="Helvetica,sans-Serif" font-size="10.00">Point::origin</text>
</a>
</g>
</g>
<!-- Node1&#45;&gt;Node23 -->
<g id="edge28" class="edge"><title>Node1&#45;&gt;Node23</title>
<path fill="none" stroke="midnightblue" d="M74.0424,-73.3196C89.8509,-68.1852 107.799,-62.3559 122.485,-57.5859"/>
<polygon fill="midnightblue" stroke="midnightblue" points="72.9538,-69.9931 64.524,-76.411 75.1162,-76.6507 72.9538,-69.9931"/>
</g>
<!-- Node3 -->
<g id="node3" class="node"><title>Node3</title>
<g id="a_node3"><a xlink:href="class_graphics_item.html#a6616ded9057686f175bdbaa4c62218dc" target="_top" xlink:title="GraphicsItem::meIsOver">
<polygon fill="white" stroke="black" points="253,-316.5 253,-335.5 377,-335.5 377,-316.5 253,-316.5"/>
<text text-anchor="middle" x="315" y="-323.5" font-family="Helvetica,sans-Serif" font-size="10.00">GraphicsItem::meIsOver</text>
</a>
</g>
</g>
<!-- Node2&#45;&gt;Node3 -->
<g id="edge2" class="edge"><title>Node2&#45;&gt;Node3</title>
<path fill="none" stroke="midnightblue" d="M171.533,-260.489C187.639,-274.777 212.77,-294.991 238,-307 245.982,-310.799 254.811,-313.894 263.541,-316.397"/>
<polygon fill="midnightblue" stroke="midnightblue" points="173.737,-257.763 163.981,-253.632 169.032,-262.945 173.737,-257.763"/>
</g>
<!-- Node7 -->
<g id="node7" class="node"><title>Node7</title>
<g id="a_node7"><a xlink:href="class_graphics_point.html#af3b01336f2559f13ddfdedd249203965" target="_top" xlink:title="GraphicsPoint::meIsOver">
<polygon fill="white" stroke="black" points="251.5,-278.5 251.5,-297.5 378.5,-297.5 378.5,-278.5 251.5,-278.5"/>
<text text-anchor="middle" x="315" y="-285.5" font-family="Helvetica,sans-Serif" font-size="10.00">GraphicsPoint::meIsOver</text>
</a>
</g>
</g>
<!-- Node2&#45;&gt;Node7 -->
<g id="edge6" class="edge"><title>Node2&#45;&gt;Node7</title>
<path fill="none" stroke="midnightblue" d="M196.496,-256.329C209.771,-260.13 224.48,-264.29 238,-268 250.763,-271.502 264.765,-275.222 277.235,-278.491"/>
<polygon fill="midnightblue" stroke="midnightblue" points="197.244,-252.902 186.666,-253.505 195.311,-259.63 197.244,-252.902"/>
</g>
<!-- Node8 -->
<g id="node8" class="node"><title>Node8</title>
<g id="a_node8"><a xlink:href="class_graphics_rectangle.html#a3770ea3d1c51fc6c35aac4fd9ff46977" target="_top" xlink:title="GraphicsRectangle::\lmeDraw">
<polygon fill="white" stroke="black" points="262,-229 262,-259 368,-259 368,-229 262,-229"/>
<text text-anchor="start" x="270" y="-247" font-family="Helvetica,sans-Serif" font-size="10.00">GraphicsRectangle::</text>
<text text-anchor="middle" x="315" y="-236" font-family="Helvetica,sans-Serif" font-size="10.00">meDraw</text>
</a>
</g>
</g>
<!-- Node2&#45;&gt;Node8 -->
<g id="edge7" class="edge"><title>Node2&#45;&gt;Node8</title>
<path fill="none" stroke="midnightblue" d="M204.529,-244C222.787,-244 243.427,-244 261.824,-244"/>
<polygon fill="midnightblue" stroke="midnightblue" points="204.375,-240.5 194.375,-244 204.375,-247.5 204.375,-240.5"/>
</g>
<!-- Node9 -->
<g id="node9" class="node"><title>Node9</title>
<g id="a_node9"><a xlink:href="class_graphics_rectangle.html#a22185d1ef775a5f7cc420771d9aea915" target="_top" xlink:title="GraphicsRectangle::\lmeIsOver">
<polygon fill="white" stroke="black" points="262,-393 262,-423 368,-423 368,-393 262,-393"/>
<text text-anchor="start" x="270" y="-411" font-family="Helvetica,sans-Serif" font-size="10.00">GraphicsRectangle::</text>
<text text-anchor="middle" x="315" y="-400" font-family="Helvetica,sans-Serif" font-size="10.00">meIsOver</text>
</a>
</g>
</g>
<!-- Node2&#45;&gt;Node9 -->
<g id="edge8" class="edge"><title>Node2&#45;&gt;Node9</title>
<path fill="none" stroke="midnightblue" d="M160.663,-263.391C171.925,-293.346 197.533,-350.774 238,-383 244.954,-388.538 253.181,-392.869 261.61,-396.251"/>
<polygon fill="midnightblue" stroke="midnightblue" points="163.85,-261.912 157.161,-253.695 157.266,-264.29 163.85,-261.912"/>
</g>
<!-- Node10 -->
<g id="node10" class="node"><title>Node10</title>
<g id="a_node10"><a xlink:href="class_main_window.html#a34c4b4207b46d11a4100c9b19f0e81bb" target="_top" xlink:title="MainWindow::MainWindow">
<polygon fill="white" stroke="black" points="588.5,-171.5 588.5,-190.5 723.5,-190.5 723.5,-171.5 588.5,-171.5"/>
<text text-anchor="middle" x="656" y="-178.5" font-family="Helvetica,sans-Serif" font-size="10.00">MainWindow::MainWindow</text>
</a>
</g>
</g>
<!-- Node2&#45;&gt;Node10 -->
<g id="edge9" class="edge"><title>Node2&#45;&gt;Node10</title>
<path fill="none" stroke="midnightblue" d="M192.371,-231.42C206.569,-227.196 222.887,-222.84 238,-220 360.376,-197 505.629,-187.32 588.39,-183.431"/>
<polygon fill="midnightblue" stroke="midnightblue" points="190.996,-228.18 182.455,-234.45 193.041,-234.875 190.996,-228.18"/>
</g>
<!-- Node11 -->
<g id="node11" class="node"><title>Node11</title>
<g id="a_node11"><a xlink:href="class_point.html#a4fa7ffadfb6c9de033bfef5decdaa66e" target="_top" xlink:title="Point::join">
<polygon fill="white" stroke="black" points="460,-152.5 460,-171.5 520,-171.5 520,-152.5 460,-152.5"/>
<text text-anchor="middle" x="490" y="-159.5" font-family="Helvetica,sans-Serif" font-size="10.00">Point::join</text>
</a>
</g>
</g>
<!-- Node2&#45;&gt;Node11 -->
<g id="edge10" class="edge"><title>Node2&#45;&gt;Node11</title>
<path fill="none" stroke="midnightblue" d="M171.93,-227.518C187.964,-213.845 212.764,-195.206 238,-186 314.285,-158.17 411.806,-158.07 459.733,-160.126"/>
<polygon fill="midnightblue" stroke="midnightblue" points="169.594,-224.911 164.389,-234.139 174.213,-230.171 169.594,-224.911"/>
</g>
<!-- Node12 -->
<g id="node12" class="node"><title>Node12</title>
<g id="a_node12"><a xlink:href="class_point.html#a4342967313bdfb5a0120d00399ad7cc0" target="_top" xlink:title="Point::originChanged">
<polygon fill="white" stroke="black" points="261.5,-354.5 261.5,-373.5 368.5,-373.5 368.5,-354.5 261.5,-354.5"/>
<text text-anchor="middle" x="315" y="-361.5" font-family="Helvetica,sans-Serif" font-size="10.00">Point::originChanged</text>
</a>
</g>
</g>
<!-- Node2&#45;&gt;Node12 -->
<g id="edge12" class="edge"><title>Node2&#45;&gt;Node12</title>
<path fill="none" stroke="midnightblue" d="M164.169,-262.247C177.899,-285.151 204.544,-323.978 238,-345 245.025,-349.414 253.017,-352.803 261.116,-355.405"/>
<polygon fill="midnightblue" stroke="midnightblue" points="167.141,-260.395 159.094,-253.504 161.087,-263.91 167.141,-260.395"/>
</g>
<!-- Node19 -->
<g id="node19" class="node"><title>Node19</title>
<g id="a_node19"><a xlink:href="class_point.html#aa346b22aa03d377bfc90b5b1e11f074c" target="_top" xlink:title="Point::friendChanged">
<polygon fill="white" stroke="black" points="261,-114.5 261,-133.5 369,-133.5 369,-114.5 261,-114.5"/>
<text text-anchor="middle" x="315" y="-121.5" font-family="Helvetica,sans-Serif" font-size="10.00">Point::friendChanged</text>
</a>
</g>
</g>
<!-- Node2&#45;&gt;Node19 -->
<g id="edge21" class="edge"><title>Node2&#45;&gt;Node19</title>
<path fill="none" stroke="midnightblue" d="M165.435,-225.699C179.827,-204.116 206.512,-168.582 238,-148 247.497,-141.792 258.708,-137.099 269.56,-133.587"/>
<polygon fill="midnightblue" stroke="midnightblue" points="162.382,-223.975 159.878,-234.27 168.255,-227.784 162.382,-223.975"/>
</g>
<!-- Node4 -->
<g id="node4" class="node"><title>Node4</title>
<g id="a_node4"><a xlink:href="class_graphics_item.html#a853ecc7b1940b8bce18600a3f3d6cda7" target="_top" xlink:title="GraphicsItem::isOver">
<polygon fill="white" stroke="black" points="435,-291.5 435,-310.5 545,-310.5 545,-291.5 435,-291.5"/>
<text text-anchor="middle" x="490" y="-298.5" font-family="Helvetica,sans-Serif" font-size="10.00">GraphicsItem::isOver</text>
</a>
</g>
</g>
<!-- Node3&#45;&gt;Node4 -->
<g id="edge3" class="edge"><title>Node3&#45;&gt;Node4</title>
<path fill="none" stroke="midnightblue" d="M387.728,-315.635C403.505,-313.355 419.957,-310.977 434.901,-308.818"/>
<polygon fill="midnightblue" stroke="midnightblue" points="386.877,-312.221 377.48,-317.116 387.878,-319.149 386.877,-312.221"/>
</g>
<!-- Node5 -->
<g id="node5" class="node"><title>Node5</title>
<g id="a_node5"><a xlink:href="class_graphics_item.html#ad6c62fa07246bc1d7b9eae6340a246e2" target="_top" xlink:title="GraphicsItem::handleEvent">
<polygon fill="white" stroke="black" points="588.5,-287.5 588.5,-306.5 723.5,-306.5 723.5,-287.5 588.5,-287.5"/>
<text text-anchor="middle" x="656" y="-294.5" font-family="Helvetica,sans-Serif" font-size="10.00">GraphicsItem::handleEvent</text>
</a>
</g>
</g>
<!-- Node4&#45;&gt;Node5 -->
<g id="edge4" class="edge"><title>Node4&#45;&gt;Node5</title>
<path fill="none" stroke="midnightblue" d="M555.371,-299.43C566.192,-299.166 577.443,-298.892 588.321,-298.626"/>
<polygon fill="midnightblue" stroke="midnightblue" points="555.066,-295.936 545.154,-299.679 555.237,-302.934 555.066,-295.936"/>
</g>
<!-- Node6 -->
<g id="node6" class="node"><title>Node6</title>
<g id="a_node6"><a xlink:href="class_main_window.html#a0c74824ef8e6256455545f2659610b31" target="_top" xlink:title="MainWindow::handleEvent">
<polygon fill="white" stroke="black" points="766.5,-287.5 766.5,-306.5 899.5,-306.5 899.5,-287.5 766.5,-287.5"/>
<text text-anchor="middle" x="833" y="-294.5" font-family="Helvetica,sans-Serif" font-size="10.00">MainWindow::handleEvent</text>
</a>
</g>
</g>
<!-- Node5&#45;&gt;Node6 -->
<g id="edge5" class="edge"><title>Node5&#45;&gt;Node6</title>
<path fill="none" stroke="midnightblue" d="M733.946,-297C744.769,-297 755.81,-297 766.394,-297"/>
<polygon fill="midnightblue" stroke="midnightblue" points="733.659,-293.5 723.659,-297 733.659,-300.5 733.659,-293.5"/>
</g>
<!-- Node11&#45;&gt;Node10 -->
<g id="edge11" class="edge"><title>Node11&#45;&gt;Node10</title>
<path fill="none" stroke="midnightblue" d="M530.59,-166.587C547.871,-168.589 568.62,-170.993 588.175,-173.258"/>
<polygon fill="midnightblue" stroke="midnightblue" points="530.656,-163.071 520.32,-165.397 529.851,-170.024 530.656,-163.071"/>
</g>
<!-- Node13 -->
<g id="node13" class="node"><title>Node13</title>
<g id="a_node13"><a xlink:href="class_point.html#a705786eadfef64005ee52395dfef5de2" target="_top" xlink:title="Point::setOriginStatic">
<polygon fill="white" stroke="black" points="435,-374.5 435,-393.5 545,-393.5 545,-374.5 435,-374.5"/>
<text text-anchor="middle" x="490" y="-381.5" font-family="Helvetica,sans-Serif" font-size="10.00">Point::setOriginStatic</text>
</a>
</g>
</g>
<!-- Node12&#45;&gt;Node13 -->
<g id="edge13" class="edge"><title>Node12&#45;&gt;Node13</title>
<path fill="none" stroke="midnightblue" d="M378.879,-371.269C397.267,-373.395 417.198,-375.699 434.984,-377.755"/>
<polygon fill="midnightblue" stroke="midnightblue" points="379.182,-367.781 368.846,-370.109 378.378,-374.735 379.182,-367.781"/>
</g>
<!-- Node17 -->
<g id="node17" class="node"><title>Node17</title>
<g id="a_node17"><a xlink:href="class_point.html#a3f64672809f4a0b463274e0c43e028f9" target="_top" xlink:title="Point::setOriginDynamic">
<polygon fill="white" stroke="black" points="428.5,-333.5 428.5,-352.5 551.5,-352.5 551.5,-333.5 428.5,-333.5"/>
<text text-anchor="middle" x="490" y="-340.5" font-family="Helvetica,sans-Serif" font-size="10.00">Point::setOriginDynamic</text>
</a>
</g>
</g>
<!-- Node12&#45;&gt;Node17 -->
<g id="edge17" class="edge"><title>Node12&#45;&gt;Node17</title>
<path fill="none" stroke="midnightblue" d="M379.187,-356.33C395.215,-354.384 412.397,-352.299 428.299,-350.368"/>
<polygon fill="midnightblue" stroke="midnightblue" points="378.351,-352.906 368.846,-357.585 379.195,-359.855 378.351,-352.906"/>
</g>
<!-- Node14 -->
<g id="node14" class="node"><title>Node14</title>
<g id="a_node14"><a xlink:href="class_graphics_item.html#a8bcbe86ba1854edffd7fbed0b4bc8cd5" target="_top" xlink:title="GraphicsItem::setParent">
<polygon fill="white" stroke="black" points="594.5,-375.5 594.5,-394.5 717.5,-394.5 717.5,-375.5 594.5,-375.5"/>
<text text-anchor="middle" x="656" y="-382.5" font-family="Helvetica,sans-Serif" font-size="10.00">GraphicsItem::setParent</text>
</a>
</g>
</g>
<!-- Node13&#45;&gt;Node14 -->
<g id="edge14" class="edge"><title>Node13&#45;&gt;Node14</title>
<path fill="none" stroke="midnightblue" d="M555.315,-384.392C568.179,-384.471 581.653,-384.553 594.387,-384.63"/>
<polygon fill="midnightblue" stroke="midnightblue" points="555.175,-380.891 545.154,-384.33 555.133,-387.891 555.175,-380.891"/>
</g>
<!-- Node15 -->
<g id="node15" class="node"><title>Node15</title>
<g id="a_node15"><a xlink:href="class_graphics_item.html#a96c30111512bd4f198e9414b70bb3ccc" target="_top" xlink:title="GraphicsItem::GraphicsItem">
<polygon fill="white" stroke="black" points="763,-356.5 763,-375.5 903,-375.5 903,-356.5 763,-356.5"/>
<text text-anchor="middle" x="833" y="-363.5" font-family="Helvetica,sans-Serif" font-size="10.00">GraphicsItem::GraphicsItem</text>
</a>
</g>
</g>
<!-- Node14&#45;&gt;Node15 -->
<g id="edge15" class="edge"><title>Node14&#45;&gt;Node15</title>
<path fill="none" stroke="midnightblue" d="M727.794,-377.314C739.407,-376.053 751.428,-374.748 762.996,-373.492"/>
<polygon fill="midnightblue" stroke="midnightblue" points="727.279,-373.849 717.715,-378.408 728.035,-380.808 727.279,-373.849"/>
</g>
<!-- Node16 -->
<g id="node16" class="node"><title>Node16</title>
<g id="a_node16"><a xlink:href="class_graphics_item.html#ad76d7190cfa332054ae66d505fb37bb1" target="_top" xlink:title="GraphicsItem::~GraphicsItem">
<polygon fill="white" stroke="black" points="760,-394.5 760,-413.5 906,-413.5 906,-394.5 760,-394.5"/>
<text text-anchor="middle" x="833" y="-401.5" font-family="Helvetica,sans-Serif" font-size="10.00">GraphicsItem::~GraphicsItem</text>
</a>
</g>
</g>
<!-- Node14&#45;&gt;Node16 -->
<g id="edge16" class="edge"><title>Node14&#45;&gt;Node16</title>
<path fill="none" stroke="midnightblue" d="M727.761,-392.683C738.37,-393.834 749.319,-395.023 759.955,-396.178"/>
<polygon fill="midnightblue" stroke="midnightblue" points="728.035,-389.192 717.715,-391.592 727.279,-396.151 728.035,-389.192"/>
</g>
<!-- Node17&#45;&gt;Node10 -->
<g id="edge20" class="edge"><title>Node17&#45;&gt;Node10</title>
<path fill="none" stroke="midnightblue" d="M536.155,-329.394C541.759,-326.739 547.198,-323.627 552,-320 564.763,-310.361 627.592,-220.536 648.339,-190.632"/>
<polygon fill="midnightblue" stroke="midnightblue" points="534.48,-326.303 526.651,-333.442 537.223,-332.744 534.48,-326.303"/>
</g>
<!-- Node17&#45;&gt;Node14 -->
<g id="edge18" class="edge"><title>Node17&#45;&gt;Node14</title>
<path fill="none" stroke="midnightblue" d="M537.965,-355.028C563.251,-361.503 594.011,-369.381 617.65,-375.435"/>
<polygon fill="midnightblue" stroke="midnightblue" points="538.77,-351.621 528.214,-352.53 537.033,-358.402 538.77,-351.621"/>
</g>
<!-- Node18 -->
<g id="node18" class="node"><title>Node18</title>
<g id="a_node18"><a xlink:href="class_graphics_rectangle.html#a4a5a09ece70c878e36694e3d07ed513f" target="_top" xlink:title="Constructeur par default de la classe GraphicsRectangle. ">
<polygon fill="white" stroke="black" points="603,-326 603,-356 709,-356 709,-326 603,-326"/>
<text text-anchor="start" x="611" y="-344" font-family="Helvetica,sans-Serif" font-size="10.00">GraphicsRectangle::</text>
<text text-anchor="middle" x="656" y="-333" font-family="Helvetica,sans-Serif" font-size="10.00">GraphicsRectangle</text>
</a>
</g>
</g>
<!-- Node17&#45;&gt;Node18 -->
<g id="edge19" class="edge"><title>Node17&#45;&gt;Node18</title>
<path fill="none" stroke="midnightblue" d="M561.966,-342.135C575.659,-341.968 589.771,-341.795 602.736,-341.637"/>
<polygon fill="midnightblue" stroke="midnightblue" points="561.558,-338.639 551.602,-342.261 561.644,-345.639 561.558,-338.639"/>
</g>
<!-- Node19&#45;&gt;Node11 -->
<g id="edge22" class="edge"><title>Node19&#45;&gt;Node11</title>
<path fill="none" stroke="midnightblue" d="M369.487,-135.748C399.244,-142.285 435.134,-150.168 459.769,-155.579"/>
<polygon fill="midnightblue" stroke="midnightblue" points="370.173,-132.316 359.655,-133.589 368.671,-139.153 370.173,-132.316"/>
</g>
<!-- Node20&#45;&gt;Node10 -->
<g id="edge25" class="edge"><title>Node20&#45;&gt;Node10</title>
<path fill="none" stroke="midnightblue" d="M211.943,-88.1375C260.317,-90.5165 330.967,-95.3744 392,-105 464.197,-116.386 482.032,-121.868 552,-143 579.734,-151.376 610.845,-163.202 631.546,-171.428"/>
<polygon fill="midnightblue" stroke="midnightblue" points="211.821,-84.628 201.667,-87.653 211.491,-91.6202 211.821,-84.628"/>
</g>
<!-- Node20&#45;&gt;Node19 -->
<g id="edge27" class="edge"><title>Node20&#45;&gt;Node19</title>
<path fill="none" stroke="midnightblue" d="M204.392,-97.968C226.813,-103.293 252.847,-109.476 273.916,-114.48"/>
<polygon fill="midnightblue" stroke="midnightblue" points="204.913,-94.4945 194.375,-95.589 203.295,-101.305 204.913,-94.4945"/>
</g>
<!-- Node21 -->
<g id="node21" class="node"><title>Node21</title>
<g id="a_node21"><a xlink:href="class_graphics_point.html#aaceb83d2bd068629dccfde4aee9c60f5" target="_top" xlink:title="GraphicsPoint::meHandleEvent">
<polygon fill="white" stroke="black" points="238,-38.5 238,-57.5 392,-57.5 392,-38.5 238,-38.5"/>
<text text-anchor="middle" x="315" y="-45.5" font-family="Helvetica,sans-Serif" font-size="10.00">GraphicsPoint::meHandleEvent</text>
</a>
</g>
</g>
<!-- Node20&#45;&gt;Node21 -->
<g id="edge24" class="edge"><title>Node20&#45;&gt;Node21</title>
<path fill="none" stroke="midnightblue" d="M204.392,-74.032C226.813,-68.7069 252.847,-62.5238 273.916,-57.5201"/>
<polygon fill="midnightblue" stroke="midnightblue" points="203.295,-70.6949 194.375,-76.411 204.913,-77.5055 203.295,-70.6949"/>
</g>
<!-- Node22 -->
<g id="node22" class="node"><title>Node22</title>
<g id="a_node22"><a xlink:href="class_point.html#ac5f7b13934e6e617bd656b8bcf17c3cf" target="_top" xlink:title="Point::setAbsolute">
<polygon fill="white" stroke="black" points="266.5,-0.5 266.5,-19.5 363.5,-19.5 363.5,-0.5 266.5,-0.5"/>
<text text-anchor="middle" x="315" y="-7.5" font-family="Helvetica,sans-Serif" font-size="10.00">Point::setAbsolute</text>
</a>
</g>
</g>
<!-- Node20&#45;&gt;Node22 -->
<g id="edge26" class="edge"><title>Node20&#45;&gt;Node22</title>
<path fill="none" stroke="midnightblue" d="M193.251,-72.1547C196.298,-70.5754 199.253,-68.8578 202,-67 221.271,-53.9665 217.912,-40.7348 238,-29 246.573,-23.992 256.436,-20.2952 266.157,-17.569"/>
<polygon fill="midnightblue" stroke="midnightblue" points="191.547,-69.0873 183.956,-76.4788 194.5,-75.434 191.547,-69.0873"/>
</g>
</g>
</svg>
