<?xml version="1.0" encoding="UTF-8" standalone="no"?>
<!DOCTYPE svg PUBLIC "-//W3C//DTD SVG 1.1//EN"
 "http://www.w3.org/Graphics/SVG/1.1/DTD/svg11.dtd">
<!-- Generated by graphviz version 2.36.0 (20140111.2315)
 -->
<!-- Title: Label::minimumWidth Pages: 1 -->
<svg width="388pt" height="85pt"
 viewBox="0.00 0.00 388.00 85.00" xmlns="http://www.w3.org/2000/svg" xmlns:xlink="http://www.w3.org/1999/xlink">
<g id="graph0" class="graph" transform="scale(1 1) rotate(0) translate(4 81)">
<title>Label::minimumWidth</title>
<polygon fill="white" stroke="none" points="-4,4 -4,-81 384,-81 384,4 -4,4"/>
<!-- Node1 -->
<g id="node1" class="node"><title>Node1</title>
<polygon fill="#bfbfbf" stroke="black" points="0.5,-38.5 0.5,-57.5 111.5,-57.5 111.5,-38.5 0.5,-38.5"/>
<text text-anchor="middle" x="56" y="-45.5" font-family="Helvetica,sans-Serif" font-size="10.00">Label::minimumWidth</text>
</g>
<!-- Node2 -->
<g id="node2" class="node"><title>Node2</title>
<g id="a_node2"><a xlink:href="class_button.html#a0139d451c5325175a69af8d4e4f0ee67" target="_top" xlink:title="Button::minimumWidth">
<polygon fill="white" stroke="black" points="148,-57.5 148,-76.5 264,-76.5 264,-57.5 148,-57.5"/>
<text text-anchor="middle" x="206" y="-64.5" font-family="Helvetica,sans-Serif" font-size="10.00">Button::minimumWidth</text>
</a>
</g>
</g>
<!-- Node1&#45;&gt;Node2 -->
<g id="edge1" class="edge"><title>Node1&#45;&gt;Node2</title>
<path fill="none" stroke="midnightblue" d="M121.691,-56.3049C130.301,-57.4103 139.083,-58.5377 147.559,-59.6258"/>
<polygon fill="midnightblue" stroke="midnightblue" points="122.054,-52.8228 111.689,-55.0209 121.162,-59.7658 122.054,-52.8228"/>
</g>
<!-- Node3 -->
<g id="node3" class="node"><title>Node3</title>
<g id="a_node3"><a xlink:href="class_label.html#a2bd65842919bc965ff8482407b34f097" target="_top" xlink:title="Label::setText">
<polygon fill="white" stroke="black" points="166.5,-19.5 166.5,-38.5 245.5,-38.5 245.5,-19.5 166.5,-19.5"/>
<text text-anchor="middle" x="206" y="-26.5" font-family="Helvetica,sans-Serif" font-size="10.00">Label::setText</text>
</a>
</g>
</g>
<!-- Node1&#45;&gt;Node3 -->
<g id="edge2" class="edge"><title>Node1&#45;&gt;Node3</title>
<path fill="none" stroke="midnightblue" d="M122.023,-39.6525C137.111,-37.7155 152.705,-35.7136 166.245,-33.9753"/>
<polygon fill="midnightblue" stroke="midnightblue" points="121.162,-36.2342 111.689,-40.9791 122.054,-43.1772 121.162,-36.2342"/>
</g>
<!-- Node4 -->
<g id="node4" class="node"><title>Node4</title>
<g id="a_node4"><a xlink:href="class_button.html#a2cfe02cc2981d9878f6c4660e5680388" target="_top" xlink:title="Button::Button">
<polygon fill="white" stroke="black" points="300,-38.5 300,-57.5 380,-57.5 380,-38.5 300,-38.5"/>
<text text-anchor="middle" x="340" y="-45.5" font-family="Helvetica,sans-Serif" font-size="10.00">Button::Button</text>
</a>
</g>
</g>
<!-- Node3&#45;&gt;Node4 -->
<g id="edge3" class="edge"><title>Node3&#45;&gt;Node4</title>
<path fill="none" stroke="midnightblue" d="M255.819,-36.027C270.291,-38.11 285.947,-40.3635 299.731,-42.3476"/>
<polygon fill="midnightblue" stroke="midnightblue" points="255.931,-32.5072 245.535,-34.5467 254.934,-39.4358 255.931,-32.5072"/>
</g>
<!-- Node5 -->
<g id="node5" class="node"><title>Node5</title>
<g id="a_node5"><a xlink:href="class_label.html#ab3e52b26e15ed16f273a45c2912e5232" target="_top" xlink:title="Label::Label">
<polygon fill="white" stroke="black" points="305.5,-0.5 305.5,-19.5 374.5,-19.5 374.5,-0.5 305.5,-0.5"/>
<text text-anchor="middle" x="340" y="-7.5" font-family="Helvetica,sans-Serif" font-size="10.00">Label::Label</text>
</a>
</g>
</g>
<!-- Node3&#45;&gt;Node5 -->
<g id="edge4" class="edge"><title>Node3&#45;&gt;Node5</title>
<path fill="none" stroke="midnightblue" d="M255.548,-22.012C272.02,-19.6411 290.054,-17.0452 305.13,-14.8752"/>
<polygon fill="midnightblue" stroke="midnightblue" points="254.934,-18.5642 245.535,-23.4533 255.931,-25.4928 254.934,-18.5642"/>
</g>
</g>
</svg>
