<?xml version="1.0" encoding="UTF-8" standalone="no"?>
<!DOCTYPE svg PUBLIC "-//W3C//DTD SVG 1.1//EN"
 "http://www.w3.org/Graphics/SVG/1.1/DTD/svg11.dtd">
<!-- Generated by graphviz version 2.36.0 (20140111.2315)
 -->
<!-- Title: GraphicsText Pages: 1 -->
<!--zoomable 720 -->
<svg id="main" version="1.1" xmlns="http://www.w3.org/2000/svg" xmlns:xlink="http://www.w3.org/1999/xlink" xml:space="preserve" onload="init(evt)">
<style type="text/css"><![CDATA[
.edge:hover path { stroke: red; }
.edge:hover polygon { stroke: red; fill: red; }
]]></style>
<script type="text/javascript"><![CDATA[
var edges = document.getElementsByTagName('g');
if (edges && edges.length) {
  for (var i=0;i<edges.length;i++) {
    if (edges[i].id.substr(0,4)=='edge') {
      edges[i].setAttribute('class','edge');
    }
  }
}
]]></script>
        <defs>
                <circle id="rim" cx="0" cy="0" r="7"/>
                <circle id="rim2" cx="0" cy="0" r="3.5"/>
                <g id="zoomPlus">
                        <use xlink:href="#rim" fill="#404040">
                                <set attributeName="fill" to="#808080" begin="zoomplus.mouseover" end="zoomplus.mouseout"/>
                        </use>
                        <path d="M-4,0h8M0,-4v8" fill="none" stroke="white" stroke-width="1.5" pointer-events="none"/>
                </g>
                <g id="zoomMin">
                        <use xlink:href="#rim" fill="#404040">
                                <set attributeName="fill" to="#808080" begin="zoomminus.mouseover" end="zoomminus.mouseout"/>
                        </use>
                        <path d="M-4,0h8" fill="none" stroke="white" stroke-width="1.5" pointer-events="none"/>
                </g>
                <g id="dirArrow">
                        <path fill="none" stroke="white" stroke-width="1.5" d="M0,-3.0v7 M-2.5,-0.5L0,-3.0L2.5,-0.5"/>
                </g>
               <g id="resetDef">
                       <use xlink:href="#rim2" fill="#404040">
                               <set attributeName="fill" to="#808080" begin="reset.mouseover" end="reset.mouseout"/>
                       </use>
               </g>
        </defs>

<script type="text/javascript">
var viewWidth = 281;
var viewHeight = 720;
var sectionId = 'dynsection-1';
</script>
<script xlink:href="svgpan.js"/>
<svg id="graph" class="graph">
<g id="viewport">
<title>GraphicsText</title>
<polygon fill="white" stroke="none" points="-4,4 -4,-716 277,-716 277,4 -4,4"/>
<!-- Node1 -->
<g id="node1" class="node"><title>Node1</title>
<polygon fill="#bfbfbf" stroke="black" points="154,-1 154,-179 244,-179 244,-1 154,-1"/>
<text text-anchor="middle" x="199" y="-167" font-family="Helvetica,sans-Serif" font-size="10.00">GraphicsText</text>
<polyline fill="none" stroke="black" points="154,-160 244,-160 "/>
<text text-anchor="start" x="162" y="-148" font-family="Helvetica,sans-Serif" font-size="10.00">&#45; m_text</text>
<text text-anchor="start" x="162" y="-137" font-family="Helvetica,sans-Serif" font-size="10.00">&#45; m_align</text>
<polyline fill="none" stroke="black" points="154,-130 244,-130 "/>
<text text-anchor="start" x="162" y="-118" font-family="Helvetica,sans-Serif" font-size="10.00">+ GraphicsText()</text>
<text text-anchor="start" x="162" y="-107" font-family="Helvetica,sans-Serif" font-size="10.00">+ GraphicsText()</text>
<text text-anchor="start" x="162" y="-96" font-family="Helvetica,sans-Serif" font-size="10.00">+ text()</text>
<text text-anchor="start" x="162" y="-85" font-family="Helvetica,sans-Serif" font-size="10.00">+ setText()</text>
<text text-anchor="start" x="162" y="-74" font-family="Helvetica,sans-Serif" font-size="10.00">+ font()</text>
<text text-anchor="start" x="162" y="-63" font-family="Helvetica,sans-Serif" font-size="10.00">+ setFont()</text>
<text text-anchor="start" x="162" y="-52" font-family="Helvetica,sans-Serif" font-size="10.00">+ align()</text>
<text text-anchor="start" x="162" y="-41" font-family="Helvetica,sans-Serif" font-size="10.00">+ setAlign()</text>
<text text-anchor="start" x="162" y="-30" font-family="Helvetica,sans-Serif" font-size="10.00">+ type()</text>
<text text-anchor="start" x="162" y="-19" font-family="Helvetica,sans-Serif" font-size="10.00"># meDraw()</text>
<text text-anchor="start" x="162" y="-8" font-family="Helvetica,sans-Serif" font-size="10.00"># meIsOver()</text>
</g>
<!-- Node2 -->
<g id="node2" class="node"><title>Node2</title>
<g id="a_node2"><a xlink:href="class_graphics_item.html" target="_top" xlink:title="{GraphicsItem\n|&#45; m_children\l&#45; m_positionCorrector\l&#45; m_z\l&#45; m_thick\l&#45; m_isFill\l&#45; m_isVisible\l|+ GraphicsItem()\l+ ~GraphicsItem()\l+ parent()\l+ setParent()\l+ type()\l+ children()\l+ anchor()\l+ setAnchor()\l+ absolute()\l+ setAbsolute()\let 16 de plus...\l# meDraw()\l# meUpdate()\l# meHandleEvent()\l# meIsOver()\l}">
<polygon fill="white" stroke="black" points="18,-229 18,-495 128,-495 128,-229 18,-229"/>
<text text-anchor="middle" x="73" y="-483" font-family="Helvetica,sans-Serif" font-size="10.00">GraphicsItem</text>
<polyline fill="none" stroke="black" points="18,-476 128,-476 "/>
<text text-anchor="start" x="26" y="-464" font-family="Helvetica,sans-Serif" font-size="10.00">&#45; m_children</text>
<text text-anchor="start" x="26" y="-453" font-family="Helvetica,sans-Serif" font-size="10.00">&#45; m_positionCorrector</text>
<text text-anchor="start" x="26" y="-442" font-family="Helvetica,sans-Serif" font-size="10.00">&#45; m_z</text>
<text text-anchor="start" x="26" y="-431" font-family="Helvetica,sans-Serif" font-size="10.00">&#45; m_thick</text>
<text text-anchor="start" x="26" y="-420" font-family="Helvetica,sans-Serif" font-size="10.00">&#45; m_isFill</text>
<text text-anchor="start" x="26" y="-409" font-family="Helvetica,sans-Serif" font-size="10.00">&#45; m_isVisible</text>
<polyline fill="none" stroke="black" points="18,-402 128,-402 "/>
<text text-anchor="start" x="26" y="-390" font-family="Helvetica,sans-Serif" font-size="10.00">+ GraphicsItem()</text>
<text text-anchor="start" x="26" y="-379" font-family="Helvetica,sans-Serif" font-size="10.00">+ ~GraphicsItem()</text>
<text text-anchor="start" x="26" y="-368" font-family="Helvetica,sans-Serif" font-size="10.00">+ parent()</text>
<text text-anchor="start" x="26" y="-357" font-family="Helvetica,sans-Serif" font-size="10.00">+ setParent()</text>
<text text-anchor="start" x="26" y="-346" font-family="Helvetica,sans-Serif" font-size="10.00">+ type()</text>
<text text-anchor="start" x="26" y="-335" font-family="Helvetica,sans-Serif" font-size="10.00">+ children()</text>
<text text-anchor="start" x="26" y="-324" font-family="Helvetica,sans-Serif" font-size="10.00">+ anchor()</text>
<text text-anchor="start" x="26" y="-313" font-family="Helvetica,sans-Serif" font-size="10.00">+ setAnchor()</text>
<text text-anchor="start" x="26" y="-302" font-family="Helvetica,sans-Serif" font-size="10.00">+ absolute()</text>
<text text-anchor="start" x="26" y="-291" font-family="Helvetica,sans-Serif" font-size="10.00">+ setAbsolute()</text>
<text text-anchor="start" x="26" y="-280" font-family="Helvetica,sans-Serif" font-size="10.00">et 16 de plus...</text>
<text text-anchor="start" x="26" y="-269" font-family="Helvetica,sans-Serif" font-size="10.00"># meDraw()</text>
<text text-anchor="start" x="26" y="-258" font-family="Helvetica,sans-Serif" font-size="10.00"># meUpdate()</text>
<text text-anchor="start" x="26" y="-247" font-family="Helvetica,sans-Serif" font-size="10.00"># meHandleEvent()</text>
<text text-anchor="start" x="26" y="-236" font-family="Helvetica,sans-Serif" font-size="10.00"># meIsOver()</text>
</a>
</g>
</g>
<!-- Node2&#45;&gt;Node1 -->
<g id="edge1" class="edge"><title>Node2&#45;&gt;Node1</title>
<path fill="none" stroke="midnightblue" d="M132.314,-233.899C140.955,-215.383 149.688,-196.668 157.862,-179.153"/>
<polygon fill="none" stroke="midnightblue" points="129.139,-232.425 128.082,-242.967 135.483,-235.385 129.139,-232.425"/>
</g>
<!-- Node2&#45;&gt;Node2 -->
<g id="edge2" class="edge"><title>Node2&#45;&gt;Node2</title>
<path fill="none" stroke="#404040" d="M128.073,-390.207C138.574,-386.832 146,-377.43 146,-362 146,-352.356 143.099,-345.067 138.36,-340.132"/>
<polygon fill="none" stroke="#404040" points="138.289,-340.089 131.082,-340.346 128.073,-333.793 135.28,-333.535 138.289,-340.089"/>
<text text-anchor="middle" x="169.5" y="-359.5" font-family="Helvetica,sans-Serif" font-size="10.00"> &#45;m_parent</text>
</g>
<!-- Node3 -->
<g id="node3" class="node"><title>Node3</title>
<g id="a_node3"><a xlink:href="class_point.html" target="_top" xlink:title="Représente un point (x, y) ">
<polygon fill="white" stroke="black" points="0,-550 0,-706 60,-706 60,-550 0,-550"/>
<text text-anchor="middle" x="30" y="-694" font-family="Helvetica,sans-Serif" font-size="10.00">Point</text>
<polyline fill="none" stroke="black" points="0,-687 60,-687 "/>
<text text-anchor="start" x="8" y="-675" font-family="Helvetica,sans-Serif" font-size="10.00">&#45; m_x</text>
<text text-anchor="start" x="8" y="-664" font-family="Helvetica,sans-Serif" font-size="10.00">&#45; m_y</text>
<polyline fill="none" stroke="black" points="0,-657 60,-657 "/>
<text text-anchor="start" x="8" y="-645" font-family="Helvetica,sans-Serif" font-size="10.00">+ Point()</text>
<text text-anchor="start" x="8" y="-634" font-family="Helvetica,sans-Serif" font-size="10.00">+ Point()</text>
<text text-anchor="start" x="8" y="-623" font-family="Helvetica,sans-Serif" font-size="10.00">+ Point()</text>
<text text-anchor="start" x="8" y="-612" font-family="Helvetica,sans-Serif" font-size="10.00">+ ~Point()</text>
<text text-anchor="start" x="8" y="-601" font-family="Helvetica,sans-Serif" font-size="10.00">+ x()</text>
<text text-anchor="start" x="8" y="-590" font-family="Helvetica,sans-Serif" font-size="10.00">+ y()</text>
<text text-anchor="start" x="8" y="-579" font-family="Helvetica,sans-Serif" font-size="10.00">+ x()</text>
<text text-anchor="start" x="8" y="-568" font-family="Helvetica,sans-Serif" font-size="10.00">+ y()</text>
<text text-anchor="start" x="8" y="-557" font-family="Helvetica,sans-Serif" font-size="10.00">+ set()</text>
</a>
</g>
</g>
<!-- Node3&#45;&gt;Node2 -->
<g id="edge3" class="edge"><title>Node3&#45;&gt;Node2</title>
<path fill="none" stroke="#404040" d="M40.5581,-549.746C42.3051,-537.768 44.1514,-525.543 46,-514 46.3711,-511.683 46.7487,-509.346 47.1318,-506.994"/>
<polygon fill="none" stroke="#404040" points="47.1365,-506.965 44.1664,-500.394 49.0896,-495.125 52.0597,-501.696 47.1365,-506.965"/>
<text text-anchor="middle" x="70.5" y="-517.5" font-family="Helvetica,sans-Serif" font-size="10.00"> &#45;m_anchor</text>
</g>
<!-- Node4 -->
<g id="node4" class="node"><title>Node4</title>
<g id="a_node4"><a xlink:href="class_color.html" target="_top" xlink:title="Permet la gestion des coulours des différentes *entitées. ">
<polygon fill="white" stroke="black" points="78.5,-544.5 78.5,-711.5 155.5,-711.5 155.5,-544.5 78.5,-544.5"/>
<text text-anchor="middle" x="117" y="-699.5" font-family="Helvetica,sans-Serif" font-size="10.00">Color</text>
<polyline fill="none" stroke="black" points="78.5,-692.5 155.5,-692.5 "/>
<text text-anchor="start" x="86.5" y="-680.5" font-family="Helvetica,sans-Serif" font-size="10.00">&#45; m_color</text>
<polyline fill="none" stroke="black" points="78.5,-673.5 155.5,-673.5 "/>
<text text-anchor="start" x="86.5" y="-661.5" font-family="Helvetica,sans-Serif" font-size="10.00">+ Color()</text>
<text text-anchor="start" x="86.5" y="-650.5" font-family="Helvetica,sans-Serif" font-size="10.00">+ Color()</text>
<text text-anchor="start" x="86.5" y="-639.5" font-family="Helvetica,sans-Serif" font-size="10.00">+ Color()</text>
<text text-anchor="start" x="86.5" y="-628.5" font-family="Helvetica,sans-Serif" font-size="10.00">+ Color()</text>
<text text-anchor="start" x="86.5" y="-617.5" font-family="Helvetica,sans-Serif" font-size="10.00">+ red()</text>
<text text-anchor="start" x="86.5" y="-606.5" font-family="Helvetica,sans-Serif" font-size="10.00">+ setRed()</text>
<text text-anchor="start" x="86.5" y="-595.5" font-family="Helvetica,sans-Serif" font-size="10.00">+ green()</text>
<text text-anchor="start" x="86.5" y="-584.5" font-family="Helvetica,sans-Serif" font-size="10.00">+ setGreen()</text>
<text text-anchor="start" x="86.5" y="-573.5" font-family="Helvetica,sans-Serif" font-size="10.00">+ blue()</text>
<text text-anchor="start" x="86.5" y="-562.5" font-family="Helvetica,sans-Serif" font-size="10.00">+ setBlue()</text>
<text text-anchor="start" x="86.5" y="-551.5" font-family="Helvetica,sans-Serif" font-size="10.00">et 9 de plus...</text>
</a>
</g>
</g>
<!-- Node4&#45;&gt;Node2 -->
<g id="edge4" class="edge"><title>Node4&#45;&gt;Node2</title>
<path fill="none" stroke="#404040" d="M103.199,-544.193C101.232,-532.39 99.1624,-519.975 97.068,-507.408"/>
<polygon fill="none" stroke="#404040" points="97.0275,-507.165 92.0955,-501.904 95.0546,-495.328 99.9866,-500.589 97.0275,-507.165"/>
<text text-anchor="middle" x="119.5" y="-517.5" font-family="Helvetica,sans-Serif" font-size="10.00"> &#45;m_color</text>
</g>
<!-- Node5 -->
<g id="node5" class="node"><title>Node5</title>
<g id="a_node5"><a xlink:href="class_font.html" target="_top" xlink:title="{Font\n|&#45; m_id\l&#45; m_width\l&#45; m_height\l|+ Font()\l+ set()\l+ id()\l+ width()\l+ height()\l}">
<polygon fill="white" stroke="black" points="211,-300.5 211,-423.5 273,-423.5 273,-300.5 211,-300.5"/>
<text text-anchor="middle" x="242" y="-411.5" font-family="Helvetica,sans-Serif" font-size="10.00">Font</text>
<polyline fill="none" stroke="black" points="211,-404.5 273,-404.5 "/>
<text text-anchor="start" x="219" y="-392.5" font-family="Helvetica,sans-Serif" font-size="10.00">&#45; m_id</text>
<text text-anchor="start" x="219" y="-381.5" font-family="Helvetica,sans-Serif" font-size="10.00">&#45; m_width</text>
<text text-anchor="start" x="219" y="-370.5" font-family="Helvetica,sans-Serif" font-size="10.00">&#45; m_height</text>
<polyline fill="none" stroke="black" points="211,-363.5 273,-363.5 "/>
<text text-anchor="start" x="219" y="-351.5" font-family="Helvetica,sans-Serif" font-size="10.00">+ Font()</text>
<text text-anchor="start" x="219" y="-340.5" font-family="Helvetica,sans-Serif" font-size="10.00">+ set()</text>
<text text-anchor="start" x="219" y="-329.5" font-family="Helvetica,sans-Serif" font-size="10.00">+ id()</text>
<text text-anchor="start" x="219" y="-318.5" font-family="Helvetica,sans-Serif" font-size="10.00">+ width()</text>
<text text-anchor="start" x="219" y="-307.5" font-family="Helvetica,sans-Serif" font-size="10.00">+ height()</text>
</a>
</g>
</g>
<!-- Node5&#45;&gt;Node1 -->
<g id="edge5" class="edge"><title>Node5&#45;&gt;Node1</title>
<path fill="none" stroke="#404040" d="M232.35,-300.407C227.233,-268.279 220.814,-227.974 214.978,-191.326"/>
<polygon fill="none" stroke="#404040" points="214.911,-190.906 210.017,-185.609 213.024,-179.055 217.917,-184.351 214.911,-190.906"/>
<text text-anchor="middle" x="236.5" y="-201.5" font-family="Helvetica,sans-Serif" font-size="10.00"> &#45;m_font</text>
</g>
</g>
</svg>
        <g id="navigator" transform="translate(0 0)" fill="#404254">
                <rect fill="#f2f5e9" fill-opacity="0.5" stroke="#606060" stroke-width=".5" x="0" y="0" width="60" height="60"/>
                <use id="zoomplus" xlink:href="#zoomPlus" x="17" y="9" onmousedown="handleZoom(evt,'in')"/>
                <use id="zoomminus" xlink:href="#zoomMin" x="42" y="9" onmousedown="handleZoom(evt,'out')"/>
                <use id="reset" xlink:href="#resetDef" x="30" y="36" onmousedown="handleReset()"/>
                <g id="arrowUp" xlink:href="#dirArrow" transform="translate(30 24)" onmousedown="handlePan(0,-1)">
                  <use xlink:href="#rim" fill="#404040">
                        <set attributeName="fill" to="#808080" begin="arrowUp.mouseover" end="arrowUp.mouseout"/>
                  </use>
                  <path fill="none" stroke="white" stroke-width="1.5" d="M0,-3.0v7 M-2.5,-0.5L0,-3.0L2.5,-0.5"/>
                </g>
                <g id="arrowRight" xlink:href="#dirArrow" transform="rotate(90) translate(36 -43)" onmousedown="handlePan(1,0)">
                  <use xlink:href="#rim" fill="#404040">
                        <set attributeName="fill" to="#808080" begin="arrowRight.mouseover" end="arrowRight.mouseout"/>
                  </use>
                  <path fill="none" stroke="white" stroke-width="1.5" d="M0,-3.0v7 M-2.5,-0.5L0,-3.0L2.5,-0.5"/>
                </g>
                <g id="arrowDown" xlink:href="#dirArrow" transform="rotate(180) translate(-30 -48)" onmousedown="handlePan(0,1)">
                  <use xlink:href="#rim" fill="#404040">
                        <set attributeName="fill" to="#808080" begin="arrowDown.mouseover" end="arrowDown.mouseout"/>
                  </use>
                  <path fill="none" stroke="white" stroke-width="1.5" d="M0,-3.0v7 M-2.5,-0.5L0,-3.0L2.5,-0.5"/>
                </g>
                <g id="arrowLeft" xlink:href="#dirArrow" transform="rotate(270) translate(-36 17)" onmousedown="handlePan(-1,0)">
                  <use xlink:href="#rim" fill="#404040">
                        <set attributeName="fill" to="#808080" begin="arrowLeft.mouseover" end="arrowLeft.mouseout"/>
                  </use>
                  <path fill="none" stroke="white" stroke-width="1.5" d="M0,-3.0v7 M-2.5,-0.5L0,-3.0L2.5,-0.5"/>
                </g>
        </g>
        <svg viewBox="0 0 15 15" width="100%" height="30px" preserveAspectRatio="xMaxYMin meet">
         <g id="arrow_out" transform="scale(0.3 0.3)">
          <a xlink:href="class_graphics_text__coll__graph_org.svg" target="_base">
           <rect id="button" ry="5" rx="5" y="6" x="6" height="38" width="38"
                fill="#f2f5e9" fill-opacity="0.5" stroke="#606060" stroke-width="1.0"/>
           <path id="arrow"
             d="M 11.500037,31.436501 C 11.940474,20.09759 22.043105,11.32322 32.158766,21.979434 L 37.068811,17.246167 C 37.068811,17.246167 37.088388,32 37.088388,32 L 22.160133,31.978069 C 22.160133,31.978069 26.997745,27.140456 26.997745,27.140456 C 18.528582,18.264221 13.291696,25.230495 11.500037,31.436501 z"
             style="fill:#404040;"/>
          </a>
         </g>
        </svg>
</svg>
