<?xml version="1.0" encoding="UTF-8" standalone="no"?>
<!DOCTYPE svg PUBLIC "-//W3C//DTD SVG 1.1//EN"
 "http://www.w3.org/Graphics/SVG/1.1/DTD/svg11.dtd">
<!-- Generated by graphviz version 2.36.0 (20140111.2315)
 -->
<!-- Title: GraphicsAnchor::setAbsolute Pages: 1 -->
<svg width="460pt" height="122pt"
 viewBox="0.00 0.00 460.00 122.00" xmlns="http://www.w3.org/2000/svg" xmlns:xlink="http://www.w3.org/1999/xlink">
<g id="graph0" class="graph" transform="scale(1 1) rotate(0) translate(4 118)">
<title>GraphicsAnchor::setAbsolute</title>
<polygon fill="white" stroke="none" points="-4,4 -4,-118 456,-118 456,4 -4,4"/>
<!-- Node1 -->
<g id="node1" class="node"><title>Node1</title>
<polygon fill="#bfbfbf" stroke="black" points="0,-56.5 0,-75.5 144,-75.5 144,-56.5 0,-56.5"/>
<text text-anchor="middle" x="72" y="-63.5" font-family="Helvetica,sans-Serif" font-size="10.00">GraphicsAnchor::setAbsolute</text>
</g>
<!-- Node2 -->
<g id="node2" class="node"><title>Node2</title>
<g id="a_node2"><a xlink:href="class_graphics_item.html#aeaf0a8de33aa83d5fa5ac8889e7e4392" target="_top" xlink:title="GraphicsItem::parent">
<polygon fill="white" stroke="black" points="189,-94.5 189,-113.5 297,-113.5 297,-94.5 189,-94.5"/>
<text text-anchor="middle" x="243" y="-101.5" font-family="Helvetica,sans-Serif" font-size="10.00">GraphicsItem::parent</text>
</a>
</g>
</g>
<!-- Node1&#45;&gt;Node2 -->
<g id="edge1" class="edge"><title>Node1&#45;&gt;Node2</title>
<path fill="none" stroke="midnightblue" d="M115.646,-75.589C138.148,-80.6487 165.948,-86.8996 189.738,-92.2488"/>
<polygon fill="midnightblue" stroke="midnightblue" points="189.137,-95.7009 199.661,-94.4799 190.672,-88.8714 189.137,-95.7009"/>
</g>
<!-- Node3 -->
<g id="node3" class="node"><title>Node3</title>
<g id="a_node3"><a xlink:href="class_graphics_item.html#ab1266d26ff6aa338959c0796ef915fc4" target="_top" xlink:title="GraphicsItem::setAnchor">
<polygon fill="white" stroke="black" points="180.5,-56.5 180.5,-75.5 305.5,-75.5 305.5,-56.5 180.5,-56.5"/>
<text text-anchor="middle" x="243" y="-63.5" font-family="Helvetica,sans-Serif" font-size="10.00">GraphicsItem::setAnchor</text>
</a>
</g>
</g>
<!-- Node1&#45;&gt;Node3 -->
<g id="edge2" class="edge"><title>Node1&#45;&gt;Node3</title>
<path fill="none" stroke="midnightblue" d="M144.181,-66C152.805,-66 161.618,-66 170.249,-66"/>
<polygon fill="midnightblue" stroke="midnightblue" points="170.276,-69.5001 180.276,-66 170.276,-62.5001 170.276,-69.5001"/>
</g>
<!-- Node5 -->
<g id="node5" class="node"><title>Node5</title>
<g id="a_node5"><a xlink:href="class_graphics_item.html#acddeaf58963ddb0de93b7c1b27512af7" target="_top" xlink:title="GraphicsItem::absolute">
<polygon fill="white" stroke="black" points="184,-0.5 184,-19.5 302,-19.5 302,-0.5 184,-0.5"/>
<text text-anchor="middle" x="243" y="-7.5" font-family="Helvetica,sans-Serif" font-size="10.00">GraphicsItem::absolute</text>
</a>
</g>
</g>
<!-- Node1&#45;&gt;Node5 -->
<g id="edge4" class="edge"><title>Node1&#45;&gt;Node5</title>
<path fill="none" stroke="midnightblue" d="M102.052,-56.3733C130.154,-47.0613 172.905,-32.8953 203.761,-22.671"/>
<polygon fill="midnightblue" stroke="midnightblue" points="204.935,-25.969 213.327,-19.5011 202.734,-19.3243 204.935,-25.969"/>
</g>
<!-- Node4 -->
<g id="node4" class="node"><title>Node4</title>
<g id="a_node4"><a xlink:href="class_graphics_item.html#a742f444cb7d1a142dec52ee777dd51c3" target="_top" xlink:title="GraphicsItem::anchor">
<polygon fill="white" stroke="black" points="342,-56.5 342,-75.5 452,-75.5 452,-56.5 342,-56.5"/>
<text text-anchor="middle" x="397" y="-63.5" font-family="Helvetica,sans-Serif" font-size="10.00">GraphicsItem::anchor</text>
</a>
</g>
</g>
<!-- Node3&#45;&gt;Node4 -->
<g id="edge3" class="edge"><title>Node3&#45;&gt;Node4</title>
<path fill="none" stroke="midnightblue" d="M305.824,-66C314.239,-66 322.893,-66 331.356,-66"/>
<polygon fill="midnightblue" stroke="midnightblue" points="331.554,-69.5001 341.554,-66 331.554,-62.5001 331.554,-69.5001"/>
</g>
<!-- Node5&#45;&gt;Node5 -->
<g id="edge5" class="edge"><title>Node5&#45;&gt;Node5</title>
<path fill="none" stroke="midnightblue" d="M219.264,-19.7571C207.717,-28.5653 215.629,-38 243,-38 260.962,-38 270.544,-33.9368 271.746,-28.6539"/>
<polygon fill="midnightblue" stroke="midnightblue" points="274.692,-26.7532 266.736,-19.7571 268.593,-30.1879 274.692,-26.7532"/>
</g>
</g>
</svg>
