<?xml version="1.0" encoding="UTF-8" standalone="no"?>
<!DOCTYPE svg PUBLIC "-//W3C//DTD SVG 1.1//EN"
 "http://www.w3.org/Graphics/SVG/1.1/DTD/svg11.dtd">
<!-- Generated by graphviz version 2.36.0 (20140111.2315)
 -->
<!-- Title: Point::setRelative Pages: 1 -->
<!--zoomable 195 -->
<svg id="main" version="1.1" xmlns="http://www.w3.org/2000/svg" xmlns:xlink="http://www.w3.org/1999/xlink" xml:space="preserve" onload="init(evt)">
<style type="text/css"><![CDATA[
.edge:hover path { stroke: red; }
.edge:hover polygon { stroke: red; fill: red; }
]]></style>
<script type="text/javascript"><![CDATA[
var edges = document.getElementsByTagName('g');
if (edges && edges.length) {
  for (var i=0;i<edges.length;i++) {
    if (edges[i].id.substr(0,4)=='edge') {
      edges[i].setAttribute('class','edge');
    }
  }
}
]]></script>
        <defs>
                <circle id="rim" cx="0" cy="0" r="7"/>
                <circle id="rim2" cx="0" cy="0" r="3.5"/>
                <g id="zoomPlus">
                        <use xlink:href="#rim" fill="#404040">
                                <set attributeName="fill" to="#808080" begin="zoomplus.mouseover" end="zoomplus.mouseout"/>
                        </use>
                        <path d="M-4,0h8M0,-4v8" fill="none" stroke="white" stroke-width="1.5" pointer-events="none"/>
                </g>
                <g id="zoomMin">
                        <use xlink:href="#rim" fill="#404040">
                                <set attributeName="fill" to="#808080" begin="zoomminus.mouseover" end="zoomminus.mouseout"/>
                        </use>
                        <path d="M-4,0h8" fill="none" stroke="white" stroke-width="1.5" pointer-events="none"/>
                </g>
                <g id="dirArrow">
                        <path fill="none" stroke="white" stroke-width="1.5" d="M0,-3.0v7 M-2.5,-0.5L0,-3.0L2.5,-0.5"/>
                </g>
               <g id="resetDef">
                       <use xlink:href="#rim2" fill="#404040">
                               <set attributeName="fill" to="#808080" begin="reset.mouseover" end="reset.mouseout"/>
                       </use>
               </g>
        </defs>

<script type="text/javascript">
var viewWidth = 504;
var viewHeight = 195;
var sectionId = 'dynsection-19';
</script>
<script xlink:href="svgpan.js"/>
<svg id="graph" class="graph">
<g id="viewport">
<title>Point::setRelative</title>
<polygon fill="white" stroke="none" points="-4,4 -4,-191.1 500,-191.1 500,4 -4,4"/>
<!-- Node1 -->
<g id="node1" class="node"><title>Node1</title>
<polygon fill="#bfbfbf" stroke="black" points="0.5,-161.674 0.5,-180.674 95.5,-180.674 95.5,-161.674 0.5,-161.674"/>
<text text-anchor="middle" x="48" y="-168.674" font-family="Helvetica,sans-Serif" font-size="10.00">Point::setRelative</text>
</g>
<!-- Node2 -->
<g id="node2" class="node"><title>Node2</title>
<g id="a_node2"><a xlink:href="class_point.html#a43923c490fb5439d7d8a041e86520c34" target="_top" xlink:title="Modifie les coordonnées du point par rapport à son origine. ">
<polygon fill="white" stroke="black" points="132.5,-86.6736 132.5,-105.674 191.5,-105.674 191.5,-86.6736 132.5,-86.6736"/>
<text text-anchor="middle" x="162" y="-93.6736" font-family="Helvetica,sans-Serif" font-size="10.00">Point::set</text>
</a>
</g>
</g>
<!-- Node1&#45;&gt;Node2 -->
<g id="edge1" class="edge"><title>Node1&#45;&gt;Node2</title>
<path fill="none" stroke="midnightblue" d="M63.642,-161.369C82.6117,-148.666 115.887,-126.383 138.184,-111.452"/>
<polygon fill="midnightblue" stroke="midnightblue" points="140.347,-114.216 146.708,-105.744 136.452,-108.4 140.347,-114.216"/>
</g>
<!-- Node4 -->
<g id="node4" class="node"><title>Node4</title>
<g id="a_node4"><a xlink:href="class_point.html#afa7d33502738b0b3df186a91e11ff2a8" target="_top" xlink:title="Donne l&#39;origine du point. ">
<polygon fill="white" stroke="black" points="314,-134.674 314,-153.674 382,-153.674 382,-134.674 314,-134.674"/>
<text text-anchor="middle" x="348" y="-141.674" font-family="Helvetica,sans-Serif" font-size="10.00">Point::origin</text>
</a>
</g>
</g>
<!-- Node1&#45;&gt;Node4 -->
<g id="edge15" class="edge"><title>Node1&#45;&gt;Node4</title>
<path fill="none" stroke="midnightblue" d="M95.7481,-179.545C142.524,-186.31 216.213,-192.57 278,-178.174 294.222,-174.394 311.016,-166.226 323.974,-158.844"/>
<polygon fill="midnightblue" stroke="midnightblue" points="325.857,-161.796 332.668,-153.681 322.283,-155.778 325.857,-161.796"/>
</g>
<!-- Node3 -->
<g id="node3" class="node"><title>Node3</title>
<g id="a_node3"><a xlink:href="class_point.html#a64a5fe8c9b1d1a1543aaa64031537380" target="_top" xlink:title="Indique si le point n&#39;appartient pas à un groupe. ">
<polygon fill="white" stroke="black" points="418.5,-77.6736 418.5,-96.6736 495.5,-96.6736 495.5,-77.6736 418.5,-77.6736"/>
<text text-anchor="middle" x="457" y="-84.6736" font-family="Helvetica,sans-Serif" font-size="10.00">Point::isAlone</text>
</a>
</g>
</g>
<!-- Node2&#45;&gt;Node3 -->
<g id="edge2" class="edge"><title>Node2&#45;&gt;Node3</title>
<path fill="none" stroke="midnightblue" d="M166.906,-86.4411C175.022,-67.7212 195.69,-27.1402 228,-11.1736 301.532,25.1639 396.573,-39.1161 436.734,-70.9159"/>
<polygon fill="midnightblue" stroke="midnightblue" points="434.686,-73.7607 444.658,-77.3386 439.094,-68.3228 434.686,-73.7607"/>
</g>
<!-- Node2&#45;&gt;Node4 -->
<g id="edge3" class="edge"><title>Node2&#45;&gt;Node4</title>
<path fill="none" stroke="midnightblue" d="M169.095,-106.04C179.161,-121.273 200.871,-149.936 228,-161.174 256.3,-172.896 291.267,-165.588 315.953,-157.218"/>
<polygon fill="midnightblue" stroke="midnightblue" points="317.32,-160.445 325.527,-153.745 314.933,-153.865 317.32,-160.445"/>
</g>
<!-- Node6 -->
<g id="node6" class="node"><title>Node6</title>
<g id="a_node6"><a xlink:href="class_point.html#a2aa897aa68c2f3e6df3a46738f27a0ac" target="_top" xlink:title="Donne l&#39;abscisse du point par rapport à son origine. ">
<polygon fill="white" stroke="black" points="228,-58.6736 228,-77.6736 278,-77.6736 278,-58.6736 228,-58.6736"/>
<text text-anchor="middle" x="253" y="-65.6736" font-family="Helvetica,sans-Serif" font-size="10.00">Point::x</text>
</a>
</g>
</g>
<!-- Node2&#45;&gt;Node6 -->
<g id="edge6" class="edge"><title>Node2&#45;&gt;Node6</title>
<path fill="none" stroke="midnightblue" d="M191.65,-87.1601C200.142,-84.4885 209.519,-81.5383 218.3,-78.7759"/>
<polygon fill="midnightblue" stroke="midnightblue" points="219.392,-82.1015 227.88,-75.7617 217.291,-75.4242 219.392,-82.1015"/>
</g>
<!-- Node7 -->
<g id="node7" class="node"><title>Node7</title>
<g id="a_node7"><a xlink:href="class_point.html#a2226d8a3fb283b0b3c1f69106df144ba" target="_top" xlink:title="Donne l&#39;ordonnée du point par rapport à son origine. ">
<polygon fill="white" stroke="black" points="228,-114.674 228,-133.674 278,-133.674 278,-114.674 228,-114.674"/>
<text text-anchor="middle" x="253" y="-121.674" font-family="Helvetica,sans-Serif" font-size="10.00">Point::y</text>
</a>
</g>
</g>
<!-- Node2&#45;&gt;Node7 -->
<g id="edge10" class="edge"><title>Node2&#45;&gt;Node7</title>
<path fill="none" stroke="midnightblue" d="M191.65,-105.187C200.142,-107.859 209.519,-110.809 218.3,-113.571"/>
<polygon fill="midnightblue" stroke="midnightblue" points="217.291,-116.923 227.88,-116.585 219.392,-110.246 217.291,-116.923"/>
</g>
<!-- Node8 -->
<g id="node8" class="node"><title>Node8</title>
<g id="a_node8"><a xlink:href="jquery_8js.html#a2335e57f79b6acfb6de59c235dc8a83e" target="_top" xlink:title="p">
<polygon fill="white" stroke="black" points="238.5,-20.6736 238.5,-39.6736 267.5,-39.6736 267.5,-20.6736 238.5,-20.6736"/>
<text text-anchor="middle" x="253" y="-27.6736" font-family="Helvetica,sans-Serif" font-size="10.00">p</text>
</a>
</g>
</g>
<!-- Node2&#45;&gt;Node8 -->
<g id="edge14" class="edge"><title>Node2&#45;&gt;Node8</title>
<path fill="none" stroke="midnightblue" d="M176.132,-86.435C190.544,-75.7478 213.886,-58.438 230.877,-45.8374"/>
<polygon fill="midnightblue" stroke="midnightblue" points="233.156,-48.5054 239.103,-39.7375 228.986,-42.8827 233.156,-48.5054"/>
</g>
<!-- Node4&#45;&gt;Node3 -->
<g id="edge4" class="edge"><title>Node4&#45;&gt;Node3</title>
<path fill="none" stroke="midnightblue" d="M367.151,-134.504C384.163,-125.442 409.805,-111.782 429.176,-101.463"/>
<polygon fill="midnightblue" stroke="midnightblue" points="430.937,-104.491 438.117,-96.7 427.646,-98.3126 430.937,-104.491"/>
</g>
<!-- Node5 -->
<g id="node5" class="node"><title>Node5</title>
<g id="a_node5"><a xlink:href="class_point.html#a97edc6e6415d6ccc6efcff5fcbc97f15" target="_top" xlink:title="Construit un point avec les coordonnées nulles. ">
<polygon fill="white" stroke="black" points="423,-134.674 423,-153.674 491,-153.674 491,-134.674 423,-134.674"/>
<text text-anchor="middle" x="457" y="-141.674" font-family="Helvetica,sans-Serif" font-size="10.00">Point::Point</text>
</a>
</g>
</g>
<!-- Node4&#45;&gt;Node5 -->
<g id="edge5" class="edge"><title>Node4&#45;&gt;Node5</title>
<path fill="none" stroke="midnightblue" d="M382.269,-144.174C391.831,-144.174 402.403,-144.174 412.485,-144.174"/>
<polygon fill="midnightblue" stroke="midnightblue" points="412.752,-147.674 422.752,-144.174 412.752,-140.674 412.752,-147.674"/>
</g>
<!-- Node6&#45;&gt;Node3 -->
<g id="edge7" class="edge"><title>Node6&#45;&gt;Node3</title>
<path fill="none" stroke="midnightblue" d="M278.366,-70.4654C310.482,-73.4862 367.677,-78.866 408.491,-82.7049"/>
<polygon fill="midnightblue" stroke="midnightblue" points="408.206,-86.1934 418.49,-83.6454 408.862,-79.2242 408.206,-86.1934"/>
</g>
<!-- Node6&#45;&gt;Node4 -->
<g id="edge8" class="edge"><title>Node6&#45;&gt;Node4</title>
<path fill="none" stroke="midnightblue" d="M265.779,-77.799C281.292,-90.4764 308.783,-112.943 327.441,-128.19"/>
<polygon fill="midnightblue" stroke="midnightblue" points="325.359,-131.009 335.317,-134.626 329.789,-125.588 325.359,-131.009"/>
</g>
<!-- Node6&#45;&gt;Node6 -->
<g id="edge9" class="edge"><title>Node6&#45;&gt;Node6</title>
<path fill="none" stroke="midnightblue" d="M239.128,-77.9306C232.38,-86.7388 237.004,-96.1736 253,-96.1736 262.998,-96.1736 268.553,-92.4881 269.666,-87.5736"/>
<polygon fill="midnightblue" stroke="midnightblue" points="273.017,-86.5614 266.872,-77.9306 266.293,-88.5096 273.017,-86.5614"/>
</g>
<!-- Node7&#45;&gt;Node3 -->
<g id="edge11" class="edge"><title>Node7&#45;&gt;Node3</title>
<path fill="none" stroke="midnightblue" d="M278.366,-119.71C310.482,-113.828 367.677,-103.352 408.491,-95.8756"/>
<polygon fill="midnightblue" stroke="midnightblue" points="409.284,-99.2887 418.49,-94.0442 408.023,-92.4033 409.284,-99.2887"/>
</g>
<!-- Node7&#45;&gt;Node4 -->
<g id="edge12" class="edge"><title>Node7&#45;&gt;Node4</title>
<path fill="none" stroke="midnightblue" d="M278.435,-129.428C286.333,-131.127 295.337,-133.063 304.164,-134.962"/>
<polygon fill="midnightblue" stroke="midnightblue" points="303.474,-138.393 313.987,-137.074 304.946,-131.55 303.474,-138.393"/>
</g>
<!-- Node7&#45;&gt;Node7 -->
<g id="edge13" class="edge"><title>Node7&#45;&gt;Node7</title>
<path fill="none" stroke="midnightblue" d="M239.128,-133.931C232.38,-142.739 237.004,-152.174 253,-152.174 262.998,-152.174 268.553,-148.488 269.666,-143.574"/>
<polygon fill="midnightblue" stroke="midnightblue" points="273.017,-142.561 266.872,-133.931 266.293,-144.51 273.017,-142.561"/>
</g>
</g>
</svg>
        <g id="navigator" transform="translate(0 0)" fill="#404254">
                <rect fill="#f2f5e9" fill-opacity="0.5" stroke="#606060" stroke-width=".5" x="0" y="0" width="60" height="60"/>
                <use id="zoomplus" xlink:href="#zoomPlus" x="17" y="9" onmousedown="handleZoom(evt,'in')"/>
                <use id="zoomminus" xlink:href="#zoomMin" x="42" y="9" onmousedown="handleZoom(evt,'out')"/>
                <use id="reset" xlink:href="#resetDef" x="30" y="36" onmousedown="handleReset()"/>
                <g id="arrowUp" xlink:href="#dirArrow" transform="translate(30 24)" onmousedown="handlePan(0,-1)">
                  <use xlink:href="#rim" fill="#404040">
                        <set attributeName="fill" to="#808080" begin="arrowUp.mouseover" end="arrowUp.mouseout"/>
                  </use>
                  <path fill="none" stroke="white" stroke-width="1.5" d="M0,-3.0v7 M-2.5,-0.5L0,-3.0L2.5,-0.5"/>
                </g>
                <g id="arrowRight" xlink:href="#dirArrow" transform="rotate(90) translate(36 -43)" onmousedown="handlePan(1,0)">
                  <use xlink:href="#rim" fill="#404040">
                        <set attributeName="fill" to="#808080" begin="arrowRight.mouseover" end="arrowRight.mouseout"/>
                  </use>
                  <path fill="none" stroke="white" stroke-width="1.5" d="M0,-3.0v7 M-2.5,-0.5L0,-3.0L2.5,-0.5"/>
                </g>
                <g id="arrowDown" xlink:href="#dirArrow" transform="rotate(180) translate(-30 -48)" onmousedown="handlePan(0,1)">
                  <use xlink:href="#rim" fill="#404040">
                        <set attributeName="fill" to="#808080" begin="arrowDown.mouseover" end="arrowDown.mouseout"/>
                  </use>
                  <path fill="none" stroke="white" stroke-width="1.5" d="M0,-3.0v7 M-2.5,-0.5L0,-3.0L2.5,-0.5"/>
                </g>
                <g id="arrowLeft" xlink:href="#dirArrow" transform="rotate(270) translate(-36 17)" onmousedown="handlePan(-1,0)">
                  <use xlink:href="#rim" fill="#404040">
                        <set attributeName="fill" to="#808080" begin="arrowLeft.mouseover" end="arrowLeft.mouseout"/>
                  </use>
                  <path fill="none" stroke="white" stroke-width="1.5" d="M0,-3.0v7 M-2.5,-0.5L0,-3.0L2.5,-0.5"/>
                </g>
        </g>
        <svg viewBox="0 0 15 15" width="100%" height="30px" preserveAspectRatio="xMaxYMin meet">
         <g id="arrow_out" transform="scale(0.3 0.3)">
          <a xlink:href="class_point_a9abe56cf3f067305623a1d805460a84f_cgraph_org.svg" target="_base">
           <rect id="button" ry="5" rx="5" y="6" x="6" height="38" width="38"
                fill="#f2f5e9" fill-opacity="0.5" stroke="#606060" stroke-width="1.0"/>
           <path id="arrow"
             d="M 11.500037,31.436501 C 11.940474,20.09759 22.043105,11.32322 32.158766,21.979434 L 37.068811,17.246167 C 37.068811,17.246167 37.088388,32 37.088388,32 L 22.160133,31.978069 C 22.160133,31.978069 26.997745,27.140456 26.997745,27.140456 C 18.528582,18.264221 13.291696,25.230495 11.500037,31.436501 z"
             style="fill:#404040;"/>
          </a>
         </g>
        </svg>
</svg>
