<?xml version="1.0" encoding="UTF-8" standalone="no"?>
<!DOCTYPE svg PUBLIC "-//W3C//DTD SVG 1.1//EN"
 "http://www.w3.org/Graphics/SVG/1.1/DTD/svg11.dtd">
<!-- Generated by graphviz version 2.36.0 (20140111.2315)
 -->
<!-- Title: GraphicsText::text Pages: 1 -->
<!--zoomable 332 -->
<svg id="main" version="1.1" xmlns="http://www.w3.org/2000/svg" xmlns:xlink="http://www.w3.org/1999/xlink" xml:space="preserve" onload="init(evt)">
<style type="text/css"><![CDATA[
.edge:hover path { stroke: red; }
.edge:hover polygon { stroke: red; fill: red; }
]]></style>
<script type="text/javascript"><![CDATA[
var edges = document.getElementsByTagName('g');
if (edges && edges.length) {
  for (var i=0;i<edges.length;i++) {
    if (edges[i].id.substr(0,4)=='edge') {
      edges[i].setAttribute('class','edge');
    }
  }
}
]]></script>
        <defs>
                <circle id="rim" cx="0" cy="0" r="7"/>
                <circle id="rim2" cx="0" cy="0" r="3.5"/>
                <g id="zoomPlus">
                        <use xlink:href="#rim" fill="#404040">
                                <set attributeName="fill" to="#808080" begin="zoomplus.mouseover" end="zoomplus.mouseout"/>
                        </use>
                        <path d="M-4,0h8M0,-4v8" fill="none" stroke="white" stroke-width="1.5" pointer-events="none"/>
                </g>
                <g id="zoomMin">
                        <use xlink:href="#rim" fill="#404040">
                                <set attributeName="fill" to="#808080" begin="zoomminus.mouseover" end="zoomminus.mouseout"/>
                        </use>
                        <path d="M-4,0h8" fill="none" stroke="white" stroke-width="1.5" pointer-events="none"/>
                </g>
                <g id="dirArrow">
                        <path fill="none" stroke="white" stroke-width="1.5" d="M0,-3.0v7 M-2.5,-0.5L0,-3.0L2.5,-0.5"/>
                </g>
               <g id="resetDef">
                       <use xlink:href="#rim2" fill="#404040">
                               <set attributeName="fill" to="#808080" begin="reset.mouseover" end="reset.mouseout"/>
                       </use>
               </g>
        </defs>

<script type="text/javascript">
var viewWidth = 574;
var viewHeight = 332;
var sectionId = 'dynsection-11';
</script>
<script xlink:href="svgpan.js"/>
<svg id="graph" class="graph">
<g id="viewport">
<title>GraphicsText::text</title>
<polygon fill="white" stroke="none" points="-4,4 -4,-328 570,-328 570,4 -4,4"/>
<!-- Node1 -->
<g id="node1" class="node"><title>Node1</title>
<polygon fill="#bfbfbf" stroke="black" points="0,-152.5 0,-171.5 98,-171.5 98,-152.5 0,-152.5"/>
<text text-anchor="middle" x="49" y="-159.5" font-family="Helvetica,sans-Serif" font-size="10.00">GraphicsText::text</text>
</g>
<!-- Node2 -->
<g id="node2" class="node"><title>Node2</title>
<g id="a_node2"><a xlink:href="class_button.html#a2cfe02cc2981d9878f6c4660e5680388" target="_top" xlink:title="Button::Button">
<polygon fill="white" stroke="black" points="164,-304.5 164,-323.5 244,-323.5 244,-304.5 164,-304.5"/>
<text text-anchor="middle" x="204" y="-311.5" font-family="Helvetica,sans-Serif" font-size="10.00">Button::Button</text>
</a>
</g>
</g>
<!-- Node1&#45;&gt;Node2 -->
<g id="edge1" class="edge"><title>Node1&#45;&gt;Node2</title>
<path fill="none" stroke="midnightblue" d="M57.6587,-180.953C69.8127,-208.74 96.087,-260.43 134,-290 142.701,-296.786 153.457,-301.732 163.866,-305.304"/>
<polygon fill="midnightblue" stroke="midnightblue" points="60.8112,-179.422 53.6971,-171.571 54.3624,-182.144 60.8112,-179.422"/>
</g>
<!-- Node3 -->
<g id="node3" class="node"><title>Node3</title>
<g id="a_node3"><a xlink:href="class_button.html#ac6a233c876164a52d54ef7f1b3fb78d1" target="_top" xlink:title="Button::setText">
<polygon fill="white" stroke="black" points="314,-228.5 314,-247.5 398,-247.5 398,-228.5 314,-228.5"/>
<text text-anchor="middle" x="356" y="-235.5" font-family="Helvetica,sans-Serif" font-size="10.00">Button::setText</text>
</a>
</g>
</g>
<!-- Node1&#45;&gt;Node3 -->
<g id="edge2" class="edge"><title>Node1&#45;&gt;Node3</title>
<path fill="none" stroke="midnightblue" d="M59.756,-180.449C73.0468,-203.359 99.2255,-241.329 134,-257 200.005,-286.745 288.252,-262.555 330.476,-247.606"/>
<polygon fill="midnightblue" stroke="midnightblue" points="62.7852,-178.695 54.8616,-171.662 56.6698,-182.101 62.7852,-178.695"/>
</g>
<!-- Node4 -->
<g id="node4" class="node"><title>Node4</title>
<g id="a_node4"><a xlink:href="class_button.html#ad9fb8858260a4e8ace09e98fdf4db736" target="_top" xlink:title="Button::text">
<polygon fill="white" stroke="black" points="170,-228.5 170,-247.5 238,-247.5 238,-228.5 170,-228.5"/>
<text text-anchor="middle" x="204" y="-235.5" font-family="Helvetica,sans-Serif" font-size="10.00">Button::text</text>
</a>
</g>
</g>
<!-- Node1&#45;&gt;Node4 -->
<g id="edge3" class="edge"><title>Node1&#45;&gt;Node4</title>
<path fill="none" stroke="midnightblue" d="M69.7057,-178.126C86.0562,-190.806 110.373,-208.094 134,-219 145.281,-224.207 158.278,-228.246 169.928,-231.234"/>
<polygon fill="midnightblue" stroke="midnightblue" points="71.5092,-175.09 61.4966,-171.626 67.1636,-180.578 71.5092,-175.09"/>
</g>
<!-- Node5 -->
<g id="node5" class="node"><title>Node5</title>
<g id="a_node5"><a xlink:href="class_graphics_text.html#a6c7c2225af9e3e29383835416c56f5e1" target="_top" xlink:title="Constructeur de GraphicsText avec un texte en paramètre. ">
<polygon fill="white" stroke="black" points="134,-190.5 134,-209.5 274,-209.5 274,-190.5 134,-190.5"/>
<text text-anchor="middle" x="204" y="-197.5" font-family="Helvetica,sans-Serif" font-size="10.00">GraphicsText::GraphicsText</text>
</a>
</g>
</g>
<!-- Node1&#45;&gt;Node5 -->
<g id="edge4" class="edge"><title>Node1&#45;&gt;Node5</title>
<path fill="none" stroke="midnightblue" d="M98.4768,-174.04C119.852,-179.349 144.613,-185.499 164.669,-190.48"/>
<polygon fill="midnightblue" stroke="midnightblue" points="99.1572,-170.603 88.6084,-171.589 97.4698,-177.396 99.1572,-170.603"/>
</g>
<!-- Node6 -->
<g id="node6" class="node"><title>Node6</title>
<g id="a_node6"><a xlink:href="class_graphics_text.html#ac42bb0e20251eb0dc2305be760714130" target="_top" xlink:title="Modifie le contenu de GraphicsText. ">
<polygon fill="white" stroke="black" points="147,-152.5 147,-171.5 261,-171.5 261,-152.5 147,-152.5"/>
<text text-anchor="middle" x="204" y="-159.5" font-family="Helvetica,sans-Serif" font-size="10.00">GraphicsText::setText</text>
</a>
</g>
</g>
<!-- Node1&#45;&gt;Node6 -->
<g id="edge5" class="edge"><title>Node1&#45;&gt;Node6</title>
<path fill="none" stroke="midnightblue" d="M108.744,-162C121.271,-162 134.472,-162 146.897,-162"/>
<polygon fill="midnightblue" stroke="midnightblue" points="108.41,-158.5 98.4102,-162 108.41,-165.5 108.41,-158.5"/>
</g>
<!-- Node8 -->
<g id="node8" class="node"><title>Node8</title>
<g id="a_node8"><a xlink:href="class_line_edit.html#a636e2ac65a70dd82fcf02f863da5c446" target="_top" xlink:title="LineEdit::setText">
<polygon fill="white" stroke="black" points="310.5,-114.5 310.5,-133.5 401.5,-133.5 401.5,-114.5 310.5,-114.5"/>
<text text-anchor="middle" x="356" y="-121.5" font-family="Helvetica,sans-Serif" font-size="10.00">LineEdit::setText</text>
</a>
</g>
</g>
<!-- Node1&#45;&gt;Node8 -->
<g id="edge11" class="edge"><title>Node1&#45;&gt;Node8</title>
<path fill="none" stroke="midnightblue" d="M96.8615,-150.211C108.903,-147.51 121.88,-144.883 134,-143 194.695,-133.572 265.548,-128.517 310.34,-126.045"/>
<polygon fill="midnightblue" stroke="midnightblue" points="95.9649,-146.825 87.0065,-152.482 97.5372,-153.647 95.9649,-146.825"/>
</g>
<!-- Node10 -->
<g id="node10" class="node"><title>Node10</title>
<g id="a_node10"><a xlink:href="class_line_edit.html#a8d5e79e8a895901381e301d41d3d4343" target="_top" xlink:title="LineEdit::meHandleEvent">
<polygon fill="white" stroke="black" points="438,-76.5 438,-95.5 566,-95.5 566,-76.5 438,-76.5"/>
<text text-anchor="middle" x="502" y="-83.5" font-family="Helvetica,sans-Serif" font-size="10.00">LineEdit::meHandleEvent</text>
</a>
</g>
</g>
<!-- Node1&#45;&gt;Node10 -->
<g id="edge12" class="edge"><title>Node1&#45;&gt;Node10</title>
<path fill="none" stroke="midnightblue" d="M75.6556,-147.817C91.8943,-139.499 113.604,-129.561 134,-124 237.978,-95.6497 363.807,-88.1506 437.851,-86.3405"/>
<polygon fill="midnightblue" stroke="midnightblue" points="74.0021,-144.732 66.778,-152.482 77.2584,-150.929 74.0021,-144.732"/>
</g>
<!-- Node11 -->
<g id="node11" class="node"><title>Node11</title>
<g id="a_node11"><a xlink:href="class_line_edit.html#a8677c9516beb229fdb289e48c9b8dd15" target="_top" xlink:title="LineEdit::text">
<polygon fill="white" stroke="black" points="319,-38.5 319,-57.5 393,-57.5 393,-38.5 319,-38.5"/>
<text text-anchor="middle" x="356" y="-45.5" font-family="Helvetica,sans-Serif" font-size="10.00">LineEdit::text</text>
</a>
</g>
</g>
<!-- Node1&#45;&gt;Node11 -->
<g id="edge13" class="edge"><title>Node1&#45;&gt;Node11</title>
<path fill="none" stroke="midnightblue" d="M61.1032,-143.808C75.1693,-122.558 101.534,-88.2483 134,-72 193.535,-42.205 273.181,-41.6664 318.804,-44.4848"/>
<polygon fill="midnightblue" stroke="midnightblue" points="58.1231,-141.971 55.6867,-152.282 64.0213,-145.741 58.1231,-141.971"/>
</g>
<!-- Node12 -->
<g id="node12" class="node"><title>Node12</title>
<g id="a_node12"><a xlink:href="class_main_window.html#a34c4b4207b46d11a4100c9b19f0e81bb" target="_top" xlink:title="MainWindow::MainWindow">
<polygon fill="white" stroke="black" points="136.5,-0.5 136.5,-19.5 271.5,-19.5 271.5,-0.5 136.5,-0.5"/>
<text text-anchor="middle" x="204" y="-7.5" font-family="Helvetica,sans-Serif" font-size="10.00">MainWindow::MainWindow</text>
</a>
</g>
</g>
<!-- Node1&#45;&gt;Node12 -->
<g id="edge15" class="edge"><title>Node1&#45;&gt;Node12</title>
<path fill="none" stroke="midnightblue" d="M57.6587,-143.047C69.8127,-115.26 96.087,-63.5698 134,-34 142.001,-27.7599 151.739,-23.0761 161.348,-19.5853"/>
<polygon fill="midnightblue" stroke="midnightblue" points="54.3624,-141.856 53.6971,-152.429 60.8112,-144.578 54.3624,-141.856"/>
</g>
<!-- Node6&#45;&gt;Node3 -->
<g id="edge7" class="edge"><title>Node6&#45;&gt;Node3</title>
<path fill="none" stroke="midnightblue" d="M258.277,-174.661C263.683,-176.538 269.014,-178.647 274,-181 301.213,-193.843 329.072,-215.764 343.977,-228.349"/>
<polygon fill="midnightblue" stroke="midnightblue" points="259.114,-171.254 248.523,-171.527 256.973,-177.918 259.114,-171.254"/>
</g>
<!-- Node7 -->
<g id="node7" class="node"><title>Node7</title>
<g id="a_node7"><a xlink:href="class_button.html#a533e3a3815061a3cbf7ae2539af4b206" target="_top" xlink:title="Constructeur de la classe Button. ">
<polygon fill="white" stroke="black" points="316,-152.5 316,-171.5 396,-171.5 396,-152.5 316,-152.5"/>
<text text-anchor="middle" x="356" y="-159.5" font-family="Helvetica,sans-Serif" font-size="10.00">Button::Button</text>
</a>
</g>
</g>
<!-- Node6&#45;&gt;Node7 -->
<g id="edge6" class="edge"><title>Node6&#45;&gt;Node7</title>
<path fill="none" stroke="midnightblue" d="M271.609,-162C286.677,-162 302.202,-162 315.71,-162"/>
<polygon fill="midnightblue" stroke="midnightblue" points="271.281,-158.5 261.281,-162 271.281,-165.5 271.281,-158.5"/>
</g>
<!-- Node6&#45;&gt;Node8 -->
<g id="edge8" class="edge"><title>Node6&#45;&gt;Node8</title>
<path fill="none" stroke="midnightblue" d="M252.811,-149.888C273.702,-144.596 297.847,-138.479 317.421,-133.52"/>
<polygon fill="midnightblue" stroke="midnightblue" points="251.686,-146.562 242.851,-152.411 253.405,-153.348 251.686,-146.562"/>
</g>
<!-- Node9 -->
<g id="node9" class="node"><title>Node9</title>
<g id="a_node9"><a xlink:href="class_line_edit.html#a04e1cd86821efe7570868ae397978186" target="_top" xlink:title="LineEdit::LineEdit">
<polygon fill="white" stroke="black" points="455.5,-114.5 455.5,-133.5 548.5,-133.5 548.5,-114.5 455.5,-114.5"/>
<text text-anchor="middle" x="502" y="-121.5" font-family="Helvetica,sans-Serif" font-size="10.00">LineEdit::LineEdit</text>
</a>
</g>
</g>
<!-- Node8&#45;&gt;Node9 -->
<g id="edge9" class="edge"><title>Node8&#45;&gt;Node9</title>
<path fill="none" stroke="midnightblue" d="M411.976,-124C426.266,-124 441.505,-124 455.261,-124"/>
<polygon fill="midnightblue" stroke="midnightblue" points="411.773,-120.5 401.773,-124 411.773,-127.5 411.773,-120.5"/>
</g>
<!-- Node8&#45;&gt;Node10 -->
<g id="edge10" class="edge"><title>Node8&#45;&gt;Node10</title>
<path fill="none" stroke="midnightblue" d="M403.172,-111.816C423.164,-106.54 446.219,-100.456 464.924,-95.5201"/>
<polygon fill="midnightblue" stroke="midnightblue" points="402.113,-108.475 393.337,-114.411 403.899,-115.244 402.113,-108.475"/>
</g>
<!-- Node11&#45;&gt;Node10 -->
<g id="edge14" class="edge"><title>Node11&#45;&gt;Node10</title>
<path fill="none" stroke="midnightblue" d="M403.172,-60.1843C423.164,-65.46 446.219,-71.5438 464.924,-76.4799"/>
<polygon fill="midnightblue" stroke="midnightblue" points="403.899,-56.7565 393.337,-57.589 402.113,-63.5248 403.899,-56.7565"/>
</g>
</g>
</svg>
        <g id="navigator" transform="translate(0 0)" fill="#404254">
                <rect fill="#f2f5e9" fill-opacity="0.5" stroke="#606060" stroke-width=".5" x="0" y="0" width="60" height="60"/>
                <use id="zoomplus" xlink:href="#zoomPlus" x="17" y="9" onmousedown="handleZoom(evt,'in')"/>
                <use id="zoomminus" xlink:href="#zoomMin" x="42" y="9" onmousedown="handleZoom(evt,'out')"/>
                <use id="reset" xlink:href="#resetDef" x="30" y="36" onmousedown="handleReset()"/>
                <g id="arrowUp" xlink:href="#dirArrow" transform="translate(30 24)" onmousedown="handlePan(0,-1)">
                  <use xlink:href="#rim" fill="#404040">
                        <set attributeName="fill" to="#808080" begin="arrowUp.mouseover" end="arrowUp.mouseout"/>
                  </use>
                  <path fill="none" stroke="white" stroke-width="1.5" d="M0,-3.0v7 M-2.5,-0.5L0,-3.0L2.5,-0.5"/>
                </g>
                <g id="arrowRight" xlink:href="#dirArrow" transform="rotate(90) translate(36 -43)" onmousedown="handlePan(1,0)">
                  <use xlink:href="#rim" fill="#404040">
                        <set attributeName="fill" to="#808080" begin="arrowRight.mouseover" end="arrowRight.mouseout"/>
                  </use>
                  <path fill="none" stroke="white" stroke-width="1.5" d="M0,-3.0v7 M-2.5,-0.5L0,-3.0L2.5,-0.5"/>
                </g>
                <g id="arrowDown" xlink:href="#dirArrow" transform="rotate(180) translate(-30 -48)" onmousedown="handlePan(0,1)">
                  <use xlink:href="#rim" fill="#404040">
                        <set attributeName="fill" to="#808080" begin="arrowDown.mouseover" end="arrowDown.mouseout"/>
                  </use>
                  <path fill="none" stroke="white" stroke-width="1.5" d="M0,-3.0v7 M-2.5,-0.5L0,-3.0L2.5,-0.5"/>
                </g>
                <g id="arrowLeft" xlink:href="#dirArrow" transform="rotate(270) translate(-36 17)" onmousedown="handlePan(-1,0)">
                  <use xlink:href="#rim" fill="#404040">
                        <set attributeName="fill" to="#808080" begin="arrowLeft.mouseover" end="arrowLeft.mouseout"/>
                  </use>
                  <path fill="none" stroke="white" stroke-width="1.5" d="M0,-3.0v7 M-2.5,-0.5L0,-3.0L2.5,-0.5"/>
                </g>
        </g>
        <svg viewBox="0 0 15 15" width="100%" height="30px" preserveAspectRatio="xMaxYMin meet">
         <g id="arrow_out" transform="scale(0.3 0.3)">
          <a xlink:href="class_graphics_text_aeb38c8c0df9473cde331540d9904d352_icgraph_org.svg" target="_base">
           <rect id="button" ry="5" rx="5" y="6" x="6" height="38" width="38"
                fill="#f2f5e9" fill-opacity="0.5" stroke="#606060" stroke-width="1.0"/>
           <path id="arrow"
             d="M 11.500037,31.436501 C 11.940474,20.09759 22.043105,11.32322 32.158766,21.979434 L 37.068811,17.246167 C 37.068811,17.246167 37.088388,32 37.088388,32 L 22.160133,31.978069 C 22.160133,31.978069 26.997745,27.140456 26.997745,27.140456 C 18.528582,18.264221 13.291696,25.230495 11.500037,31.436501 z"
             style="fill:#404040;"/>
          </a>
         </g>
        </svg>
</svg>
