<?xml version="1.0" encoding="UTF-8" standalone="no"?>
<!DOCTYPE svg PUBLIC "-//W3C//DTD SVG 1.1//EN"
 "http://www.w3.org/Graphics/SVG/1.1/DTD/svg11.dtd">
<!-- Generated by graphviz version 2.36.0 (20140111.2315)
 -->
<!-- Title: Font::height Pages: 1 -->
<svg width="412pt" height="180pt"
 viewBox="0.00 0.00 412.00 180.00" xmlns="http://www.w3.org/2000/svg" xmlns:xlink="http://www.w3.org/1999/xlink">
<g id="graph0" class="graph" transform="scale(1 1) rotate(0) translate(4 176)">
<title>Font::height</title>
<polygon fill="white" stroke="none" points="-4,4 -4,-176 408,-176 408,4 -4,4"/>
<!-- Node1 -->
<g id="node1" class="node"><title>Node1</title>
<polygon fill="#bfbfbf" stroke="black" points="0,-76.5 0,-95.5 68,-95.5 68,-76.5 0,-76.5"/>
<text text-anchor="middle" x="34" y="-83.5" font-family="Helvetica,sans-Serif" font-size="10.00">Font::height</text>
</g>
<!-- Node2 -->
<g id="node2" class="node"><title>Node2</title>
<g id="a_node2"><a xlink:href="_font_8cpp.html#a8aa556366c5bc0be00a769f4d2a827dc" target="_top" xlink:title="operator\&lt;">
<polygon fill="white" stroke="black" points="143,-152.5 143,-171.5 201,-171.5 201,-152.5 143,-152.5"/>
<text text-anchor="middle" x="172" y="-159.5" font-family="Helvetica,sans-Serif" font-size="10.00">operator&lt;</text>
</a>
</g>
</g>
<!-- Node1&#45;&gt;Node2 -->
<g id="edge1" class="edge"><title>Node1&#45;&gt;Node2</title>
<path fill="none" stroke="midnightblue" d="M51.6634,-103.188C64.8081,-115.844 84.176,-132.594 104,-143 116.097,-149.35 130.569,-153.796 142.962,-156.782"/>
<polygon fill="midnightblue" stroke="midnightblue" points="53.903,-100.48 44.3347,-95.9303 48.9774,-105.454 53.903,-100.48"/>
</g>
<!-- Node3 -->
<g id="node3" class="node"><title>Node3</title>
<g id="a_node3"><a xlink:href="_font_8cpp.html#a88257f2b84beb9d13afc1148c12987dc" target="_top" xlink:title="operator\&lt;\&lt;">
<polygon fill="white" stroke="black" points="140,-114.5 140,-133.5 204,-133.5 204,-114.5 140,-114.5"/>
<text text-anchor="middle" x="172" y="-121.5" font-family="Helvetica,sans-Serif" font-size="10.00">operator&lt;&lt;</text>
</a>
</g>
</g>
<!-- Node1&#45;&gt;Node3 -->
<g id="edge2" class="edge"><title>Node1&#45;&gt;Node3</title>
<path fill="none" stroke="midnightblue" d="M78.1176,-98.0476C98.1959,-103.658 121.632,-110.206 139.939,-115.321"/>
<polygon fill="midnightblue" stroke="midnightblue" points="78.8423,-94.6161 68.2693,-95.2958 76.9586,-101.358 78.8423,-94.6161"/>
</g>
<!-- Node4 -->
<g id="node4" class="node"><title>Node4</title>
<g id="a_node4"><a xlink:href="class_line_edit.html#a04e1cd86821efe7570868ae397978186" target="_top" xlink:title="LineEdit::LineEdit">
<polygon fill="white" stroke="black" points="293.5,-76.5 293.5,-95.5 386.5,-95.5 386.5,-76.5 293.5,-76.5"/>
<text text-anchor="middle" x="340" y="-83.5" font-family="Helvetica,sans-Serif" font-size="10.00">LineEdit::LineEdit</text>
</a>
</g>
</g>
<!-- Node1&#45;&gt;Node4 -->
<g id="edge3" class="edge"><title>Node1&#45;&gt;Node4</title>
<path fill="none" stroke="midnightblue" d="M78.2405,-86C135.262,-86 235.159,-86 293.356,-86"/>
<polygon fill="midnightblue" stroke="midnightblue" points="78.1121,-82.5001 68.112,-86 78.112,-89.5001 78.1121,-82.5001"/>
</g>
<!-- Node5 -->
<g id="node5" class="node"><title>Node5</title>
<g id="a_node5"><a xlink:href="class_line_edit.html#a636e2ac65a70dd82fcf02f863da5c446" target="_top" xlink:title="LineEdit::setText">
<polygon fill="white" stroke="black" points="126.5,-38.5 126.5,-57.5 217.5,-57.5 217.5,-38.5 126.5,-38.5"/>
<text text-anchor="middle" x="172" y="-45.5" font-family="Helvetica,sans-Serif" font-size="10.00">LineEdit::setText</text>
</a>
</g>
</g>
<!-- Node1&#45;&gt;Node5 -->
<g id="edge4" class="edge"><title>Node1&#45;&gt;Node5</title>
<path fill="none" stroke="midnightblue" d="M78.1275,-73.9497C97.0216,-68.6704 118.887,-62.561 136.654,-57.5967"/>
<polygon fill="midnightblue" stroke="midnightblue" points="76.9586,-70.6421 68.2693,-76.7042 78.8423,-77.3839 76.9586,-70.6421"/>
</g>
<!-- Node7 -->
<g id="node7" class="node"><title>Node7</title>
<g id="a_node7"><a xlink:href="class_main_window.html#a34c4b4207b46d11a4100c9b19f0e81bb" target="_top" xlink:title="MainWindow::MainWindow">
<polygon fill="white" stroke="black" points="104.5,-0.5 104.5,-19.5 239.5,-19.5 239.5,-0.5 104.5,-0.5"/>
<text text-anchor="middle" x="172" y="-7.5" font-family="Helvetica,sans-Serif" font-size="10.00">MainWindow::MainWindow</text>
</a>
</g>
</g>
<!-- Node1&#45;&gt;Node7 -->
<g id="edge7" class="edge"><title>Node1&#45;&gt;Node7</title>
<path fill="none" stroke="midnightblue" d="M51.6634,-68.8121C64.8081,-56.1563 84.176,-39.4061 104,-29 111.28,-25.1788 119.419,-22.047 127.448,-19.508"/>
<polygon fill="midnightblue" stroke="midnightblue" points="48.9774,-66.5462 44.3347,-76.0697 53.903,-71.52 48.9774,-66.5462"/>
</g>
<!-- Node5&#45;&gt;Node4 -->
<g id="edge5" class="edge"><title>Node5&#45;&gt;Node4</title>
<path fill="none" stroke="midnightblue" d="M224.653,-59.8243C248.056,-65.1816 275.357,-71.4311 297.412,-76.4799"/>
<polygon fill="midnightblue" stroke="midnightblue" points="225.418,-56.4088 214.889,-57.589 223.856,-63.2323 225.418,-56.4088"/>
</g>
<!-- Node6 -->
<g id="node6" class="node"><title>Node6</title>
<g id="a_node6"><a xlink:href="class_line_edit.html#a8d5e79e8a895901381e301d41d3d4343" target="_top" xlink:title="LineEdit::meHandleEvent">
<polygon fill="white" stroke="black" points="276,-38.5 276,-57.5 404,-57.5 404,-38.5 276,-38.5"/>
<text text-anchor="middle" x="340" y="-45.5" font-family="Helvetica,sans-Serif" font-size="10.00">LineEdit::meHandleEvent</text>
</a>
</g>
</g>
<!-- Node5&#45;&gt;Node6 -->
<g id="edge6" class="edge"><title>Node5&#45;&gt;Node6</title>
<path fill="none" stroke="midnightblue" d="M228.255,-48C243.551,-48 260.268,-48 275.971,-48"/>
<polygon fill="midnightblue" stroke="midnightblue" points="227.922,-44.5001 217.922,-48 227.922,-51.5001 227.922,-44.5001"/>
</g>
</g>
</svg>
