<?xml version="1.0" encoding="UTF-8" standalone="no"?>
<!DOCTYPE svg PUBLIC "-//W3C//DTD SVG 1.1//EN"
 "http://www.w3.org/Graphics/SVG/1.1/DTD/svg11.dtd">
<!-- Generated by graphviz version 2.36.0 (20140111.2315)
 -->
<!-- Title: GraphicsBlinkAnimation Pages: 1 -->
<svg width="311pt" height="968pt"
 viewBox="0.00 0.00 311.00 968.00" xmlns="http://www.w3.org/2000/svg" xmlns:xlink="http://www.w3.org/1999/xlink">
<g id="graph0" class="graph" transform="scale(1 1) rotate(0) translate(4 964)">
<title>GraphicsBlinkAnimation</title>
<polygon fill="white" stroke="none" points="-4,4 -4,-964 307,-964 307,4 -4,4"/>
<!-- Node1 -->
<g id="node1" class="node"><title>Node1</title>
<polygon fill="#bfbfbf" stroke="black" points="153,-0.5 153,-189.5 289,-189.5 289,-0.5 153,-0.5"/>
<text text-anchor="middle" x="221" y="-177.5" font-family="Helvetica,sans-Serif" font-size="10.00">GraphicsBlinkAnimation</text>
<polyline fill="none" stroke="black" points="153,-170.5 289,-170.5 "/>
<text text-anchor="start" x="161" y="-158.5" font-family="Helvetica,sans-Serif" font-size="10.00">&#45; m_blinkFrequency</text>
<text text-anchor="start" x="161" y="-147.5" font-family="Helvetica,sans-Serif" font-size="10.00">&#45; m_elapsedTime</text>
<text text-anchor="start" x="161" y="-136.5" font-family="Helvetica,sans-Serif" font-size="10.00">&#45; m_colorApplied</text>
<text text-anchor="start" x="161" y="-125.5" font-family="Helvetica,sans-Serif" font-size="10.00">&#45; m_becomeInvisible</text>
<polyline fill="none" stroke="black" points="153,-118.5 289,-118.5 "/>
<text text-anchor="start" x="161" y="-106.5" font-family="Helvetica,sans-Serif" font-size="10.00">+ GraphicsBlinkAnimation()</text>
<text text-anchor="start" x="161" y="-95.5" font-family="Helvetica,sans-Serif" font-size="10.00">+ GraphicsBlinkAnimation()</text>
<text text-anchor="start" x="161" y="-84.5" font-family="Helvetica,sans-Serif" font-size="10.00">+ blinkFrequency()</text>
<text text-anchor="start" x="161" y="-73.5" font-family="Helvetica,sans-Serif" font-size="10.00">+ setBlinkFrequency()</text>
<text text-anchor="start" x="161" y="-62.5" font-family="Helvetica,sans-Serif" font-size="10.00">+ becomeColor()</text>
<text text-anchor="start" x="161" y="-51.5" font-family="Helvetica,sans-Serif" font-size="10.00">+ setBecomeColor()</text>
<text text-anchor="start" x="161" y="-40.5" font-family="Helvetica,sans-Serif" font-size="10.00">+ becomeInvisible()</text>
<text text-anchor="start" x="161" y="-29.5" font-family="Helvetica,sans-Serif" font-size="10.00">+ setBecomeInvisible()</text>
<text text-anchor="start" x="161" y="-18.5" font-family="Helvetica,sans-Serif" font-size="10.00">+ type()</text>
<text text-anchor="start" x="161" y="-7.5" font-family="Helvetica,sans-Serif" font-size="10.00"># meUpdate()</text>
</g>
<!-- Node2 -->
<g id="node2" class="node"><title>Node2</title>
<g id="a_node2"><a xlink:href="class_graphics_animation.html" target="_top" xlink:title="{GraphicsAnimation\n||+ GraphicsAnimation()\l+ type()\l}">
<polygon fill="white" stroke="black" points="44,-229 44,-297 158,-297 158,-229 44,-229"/>
<text text-anchor="middle" x="101" y="-285" font-family="Helvetica,sans-Serif" font-size="10.00">GraphicsAnimation</text>
<polyline fill="none" stroke="black" points="44,-278 158,-278 "/>
<text text-anchor="middle" x="101" y="-266" font-family="Helvetica,sans-Serif" font-size="10.00"> </text>
<polyline fill="none" stroke="black" points="44,-259 158,-259 "/>
<text text-anchor="start" x="52" y="-247" font-family="Helvetica,sans-Serif" font-size="10.00">+ GraphicsAnimation()</text>
<text text-anchor="start" x="52" y="-236" font-family="Helvetica,sans-Serif" font-size="10.00">+ type()</text>
</a>
</g>
</g>
<!-- Node2&#45;&gt;Node1 -->
<g id="edge1" class="edge"><title>Node2&#45;&gt;Node1</title>
<path fill="none" stroke="midnightblue" d="M130.88,-220.666C137.804,-211.088 145.451,-200.51 153.275,-189.686"/>
<polygon fill="none" stroke="midnightblue" points="128.017,-218.652 124.995,-228.806 133.69,-222.753 128.017,-218.652"/>
</g>
<!-- Node3 -->
<g id="node3" class="node"><title>Node3</title>
<g id="a_node3"><a xlink:href="class_graphics_item.html" target="_top" xlink:title="{GraphicsItem\n|&#45; m_children\l&#45; m_z\l&#45; m_thick\l&#45; m_isFill\l&#45; m_isVisible\l|+ GraphicsItem()\l+ ~GraphicsItem()\l+ parent()\l+ setParent()\l+ type()\l+ children()\l+ relative()\l+ relative()\l+ absolute()\l+ setRelative()\let 16 de plus...\l+ focusItem()\l+ setFocusItem()\l# meDraw()\l# meUpdate()\l# meHandleEvent()\l# meIsOver()\l}">
<polygon fill="white" stroke="black" points="20.5,-356.5 20.5,-633.5 121.5,-633.5 121.5,-356.5 20.5,-356.5"/>
<text text-anchor="middle" x="71" y="-621.5" font-family="Helvetica,sans-Serif" font-size="10.00">GraphicsItem</text>
<polyline fill="none" stroke="black" points="20.5,-614.5 121.5,-614.5 "/>
<text text-anchor="start" x="28.5" y="-602.5" font-family="Helvetica,sans-Serif" font-size="10.00">&#45; m_children</text>
<text text-anchor="start" x="28.5" y="-591.5" font-family="Helvetica,sans-Serif" font-size="10.00">&#45; m_z</text>
<text text-anchor="start" x="28.5" y="-580.5" font-family="Helvetica,sans-Serif" font-size="10.00">&#45; m_thick</text>
<text text-anchor="start" x="28.5" y="-569.5" font-family="Helvetica,sans-Serif" font-size="10.00">&#45; m_isFill</text>
<text text-anchor="start" x="28.5" y="-558.5" font-family="Helvetica,sans-Serif" font-size="10.00">&#45; m_isVisible</text>
<polyline fill="none" stroke="black" points="20.5,-551.5 121.5,-551.5 "/>
<text text-anchor="start" x="28.5" y="-539.5" font-family="Helvetica,sans-Serif" font-size="10.00">+ GraphicsItem()</text>
<text text-anchor="start" x="28.5" y="-528.5" font-family="Helvetica,sans-Serif" font-size="10.00">+ ~GraphicsItem()</text>
<text text-anchor="start" x="28.5" y="-517.5" font-family="Helvetica,sans-Serif" font-size="10.00">+ parent()</text>
<text text-anchor="start" x="28.5" y="-506.5" font-family="Helvetica,sans-Serif" font-size="10.00">+ setParent()</text>
<text text-anchor="start" x="28.5" y="-495.5" font-family="Helvetica,sans-Serif" font-size="10.00">+ type()</text>
<text text-anchor="start" x="28.5" y="-484.5" font-family="Helvetica,sans-Serif" font-size="10.00">+ children()</text>
<text text-anchor="start" x="28.5" y="-473.5" font-family="Helvetica,sans-Serif" font-size="10.00">+ relative()</text>
<text text-anchor="start" x="28.5" y="-462.5" font-family="Helvetica,sans-Serif" font-size="10.00">+ relative()</text>
<text text-anchor="start" x="28.5" y="-451.5" font-family="Helvetica,sans-Serif" font-size="10.00">+ absolute()</text>
<text text-anchor="start" x="28.5" y="-440.5" font-family="Helvetica,sans-Serif" font-size="10.00">+ setRelative()</text>
<text text-anchor="start" x="28.5" y="-429.5" font-family="Helvetica,sans-Serif" font-size="10.00">et 16 de plus...</text>
<text text-anchor="start" x="28.5" y="-418.5" font-family="Helvetica,sans-Serif" font-size="10.00">+ focusItem()</text>
<text text-anchor="start" x="28.5" y="-407.5" font-family="Helvetica,sans-Serif" font-size="10.00">+ setFocusItem()</text>
<text text-anchor="start" x="28.5" y="-396.5" font-family="Helvetica,sans-Serif" font-size="10.00"># meDraw()</text>
<text text-anchor="start" x="28.5" y="-385.5" font-family="Helvetica,sans-Serif" font-size="10.00"># meUpdate()</text>
<text text-anchor="start" x="28.5" y="-374.5" font-family="Helvetica,sans-Serif" font-size="10.00"># meHandleEvent()</text>
<text text-anchor="start" x="28.5" y="-363.5" font-family="Helvetica,sans-Serif" font-size="10.00"># meIsOver()</text>
</a>
</g>
</g>
<!-- Node3&#45;&gt;Node2 -->
<g id="edge2" class="edge"><title>Node3&#45;&gt;Node2</title>
<path fill="none" stroke="midnightblue" d="M90.2704,-346.261C92.6555,-327.975 94.8835,-310.893 96.6843,-297.087"/>
<polygon fill="none" stroke="midnightblue" points="86.7936,-345.856 88.9707,-356.225 93.7348,-346.761 86.7936,-345.856"/>
</g>
<!-- Node3&#45;&gt;Node3 -->
<g id="edge3" class="edge"><title>Node3&#45;&gt;Node3</title>
<path fill="none" stroke="#404040" d="M121.711,-525.2C131.803,-521.801 139,-511.734 139,-495 139,-484.802 136.328,-477.081 131.956,-471.835"/>
<polygon fill="none" stroke="#404040" points="131.603,-471.593 124.393,-471.494 121.711,-464.8 128.921,-464.899 131.603,-471.593"/>
<text text-anchor="middle" x="171" y="-498" font-family="Helvetica,sans-Serif" font-size="10.00"> &#45;m_focusItem</text>
<text text-anchor="middle" x="171" y="-487" font-family="Helvetica,sans-Serif" font-size="10.00">&#45;m_parent</text>
</g>
<!-- Node4 -->
<g id="node4" class="node"><title>Node4</title>
<g id="a_node4"><a xlink:href="class_point.html" target="_top" xlink:title="Représente un point (x, y) ">
<polygon fill="white" stroke="black" points="-0.5,-693 -0.5,-959 114.5,-959 114.5,-693 -0.5,-693"/>
<text text-anchor="middle" x="57" y="-947" font-family="Helvetica,sans-Serif" font-size="10.00">Point</text>
<polyline fill="none" stroke="black" points="-0.5,-940 114.5,-940 "/>
<text text-anchor="start" x="7.5" y="-928" font-family="Helvetica,sans-Serif" font-size="10.00">&#45; m_x</text>
<text text-anchor="start" x="7.5" y="-917" font-family="Helvetica,sans-Serif" font-size="10.00">&#45; m_y</text>
<text text-anchor="start" x="7.5" y="-906" font-family="Helvetica,sans-Serif" font-size="10.00">&#45; m_groupId</text>
<text text-anchor="start" x="7.5" y="-895" font-family="Helvetica,sans-Serif" font-size="10.00">&#45; m_joinType</text>
<text text-anchor="start" x="7.5" y="-884" font-family="Helvetica,sans-Serif" font-size="10.00">&#45; m_changed</text>
<text text-anchor="start" x="7.5" y="-873" font-family="Helvetica,sans-Serif" font-size="10.00">&#45; m_friends</text>
<text text-anchor="start" x="7.5" y="-862" font-family="Helvetica,sans-Serif" font-size="10.00">&#45; m_correctorsFixed</text>
<text text-anchor="start" x="7.5" y="-851" font-family="Helvetica,sans-Serif" font-size="10.00">&#45; m_correctorsVariable</text>
<text text-anchor="start" x="7.5" y="-840" font-family="Helvetica,sans-Serif" font-size="10.00">&#45; m_groups</text>
<polyline fill="none" stroke="black" points="-0.5,-833 114.5,-833 "/>
<text text-anchor="start" x="7.5" y="-821" font-family="Helvetica,sans-Serif" font-size="10.00">+ Point()</text>
<text text-anchor="start" x="7.5" y="-810" font-family="Helvetica,sans-Serif" font-size="10.00">+ Point()</text>
<text text-anchor="start" x="7.5" y="-799" font-family="Helvetica,sans-Serif" font-size="10.00">+ Point()</text>
<text text-anchor="start" x="7.5" y="-788" font-family="Helvetica,sans-Serif" font-size="10.00">+ Point()</text>
<text text-anchor="start" x="7.5" y="-777" font-family="Helvetica,sans-Serif" font-size="10.00">+ ~Point()</text>
<text text-anchor="start" x="7.5" y="-766" font-family="Helvetica,sans-Serif" font-size="10.00">+ operator=()</text>
<text text-anchor="start" x="7.5" y="-755" font-family="Helvetica,sans-Serif" font-size="10.00">+ origin()</text>
<text text-anchor="start" x="7.5" y="-744" font-family="Helvetica,sans-Serif" font-size="10.00">+ setOrigin()</text>
<text text-anchor="start" x="7.5" y="-733" font-family="Helvetica,sans-Serif" font-size="10.00">+ setOrigin()</text>
<text text-anchor="start" x="7.5" y="-722" font-family="Helvetica,sans-Serif" font-size="10.00">+ absolute()</text>
<text text-anchor="start" x="7.5" y="-711" font-family="Helvetica,sans-Serif" font-size="10.00">et 15 de plus...</text>
<text text-anchor="start" x="7.5" y="-700" font-family="Helvetica,sans-Serif" font-size="10.00">&#45; friendChanged()</text>
</a>
</g>
</g>
<!-- Node4&#45;&gt;Node3 -->
<g id="edge4" class="edge"><title>Node4&#45;&gt;Node3</title>
<path fill="none" stroke="#404040" d="M58.5721,-692.742C58.9514,-678.981 59.4204,-665.205 60,-652 60.09,-649.949 60.1844,-647.882 60.2826,-645.804"/>
<polygon fill="none" stroke="#404040" points="60.2843,-645.769 56.5903,-639.576 60.8863,-633.784 64.5803,-639.977 60.2843,-645.769"/>
<text text-anchor="middle" x="106" y="-666" font-family="Helvetica,sans-Serif" font-size="10.00"> &#45;m_positionAbsolute</text>
<text text-anchor="middle" x="106" y="-655" font-family="Helvetica,sans-Serif" font-size="10.00">&#45;m_position</text>
</g>
<!-- Node4&#45;&gt;Node4 -->
<g id="edge5" class="edge"><title>Node4&#45;&gt;Node4</title>
<path fill="none" stroke="#404040" d="M114.544,-854.593C124.822,-850.877 132,-841.346 132,-826 132,-816.409 129.196,-809.089 124.584,-804.041"/>
<polygon fill="none" stroke="#404040" points="124.556,-804.022 117.345,-804.052 114.544,-797.407 121.756,-797.377 124.556,-804.022"/>
<text text-anchor="middle" x="153.5" y="-823.5" font-family="Helvetica,sans-Serif" font-size="10.00"> &#45;m_origin</text>
</g>
<!-- Node5 -->
<g id="node5" class="node"><title>Node5</title>
<g id="a_node5"><a xlink:href="class_color.html" target="_top" xlink:title="Permet la gestion des coulours des différentes *entitées. ">
<polygon fill="white" stroke="black" points="193.5,-742.5 193.5,-909.5 270.5,-909.5 270.5,-742.5 193.5,-742.5"/>
<text text-anchor="middle" x="232" y="-897.5" font-family="Helvetica,sans-Serif" font-size="10.00">Color</text>
<polyline fill="none" stroke="black" points="193.5,-890.5 270.5,-890.5 "/>
<text text-anchor="start" x="201.5" y="-878.5" font-family="Helvetica,sans-Serif" font-size="10.00">&#45; m_color</text>
<polyline fill="none" stroke="black" points="193.5,-871.5 270.5,-871.5 "/>
<text text-anchor="start" x="201.5" y="-859.5" font-family="Helvetica,sans-Serif" font-size="10.00">+ Color()</text>
<text text-anchor="start" x="201.5" y="-848.5" font-family="Helvetica,sans-Serif" font-size="10.00">+ Color()</text>
<text text-anchor="start" x="201.5" y="-837.5" font-family="Helvetica,sans-Serif" font-size="10.00">+ Color()</text>
<text text-anchor="start" x="201.5" y="-826.5" font-family="Helvetica,sans-Serif" font-size="10.00">+ Color()</text>
<text text-anchor="start" x="201.5" y="-815.5" font-family="Helvetica,sans-Serif" font-size="10.00">+ red()</text>
<text text-anchor="start" x="201.5" y="-804.5" font-family="Helvetica,sans-Serif" font-size="10.00">+ setRed()</text>
<text text-anchor="start" x="201.5" y="-793.5" font-family="Helvetica,sans-Serif" font-size="10.00">+ green()</text>
<text text-anchor="start" x="201.5" y="-782.5" font-family="Helvetica,sans-Serif" font-size="10.00">+ setGreen()</text>
<text text-anchor="start" x="201.5" y="-771.5" font-family="Helvetica,sans-Serif" font-size="10.00">+ blue()</text>
<text text-anchor="start" x="201.5" y="-760.5" font-family="Helvetica,sans-Serif" font-size="10.00">+ setBlue()</text>
<text text-anchor="start" x="201.5" y="-749.5" font-family="Helvetica,sans-Serif" font-size="10.00">et 9 de plus...</text>
</a>
</g>
</g>
<!-- Node5&#45;&gt;Node1 -->
<g id="edge7" class="edge"><title>Node5&#45;&gt;Node1</title>
<path fill="none" stroke="#404040" d="M230.754,-742.438C228.748,-609.461 224.802,-347.985 222.594,-201.616"/>
<polygon fill="none" stroke="#404040" points="222.593,-201.549 218.503,-195.61 222.412,-189.55 226.502,-195.489 222.593,-201.549"/>
<text text-anchor="middle" x="264" y="-330" font-family="Helvetica,sans-Serif" font-size="10.00"> &#45;m_becomeColor</text>
<text text-anchor="middle" x="264" y="-319" font-family="Helvetica,sans-Serif" font-size="10.00">&#45;m_parentColor</text>
</g>
<!-- Node5&#45;&gt;Node3 -->
<g id="edge6" class="edge"><title>Node5&#45;&gt;Node3</title>
<path fill="none" stroke="#404040" d="M204.79,-742.489C198.496,-725.565 191.443,-708.031 184,-692 167.582,-656.639 146.908,-619.234 127.747,-586.685"/>
<polygon fill="none" stroke="#404040" points="127.707,-586.619 121.206,-583.498 121.586,-576.297 128.087,-579.417 127.707,-586.619"/>
<text text-anchor="middle" x="194.5" y="-660.5" font-family="Helvetica,sans-Serif" font-size="10.00"> &#45;m_color</text>
</g>
</g>
</svg>
