<?xml version="1.0" encoding="UTF-8" standalone="no"?>
<!DOCTYPE svg PUBLIC "-//W3C//DTD SVG 1.1//EN"
 "http://www.w3.org/Graphics/SVG/1.1/DTD/svg11.dtd">
<!-- Generated by graphviz version 2.36.0 (20140111.2315)
 -->
<!-- Title: GraphicsItem::setColor Pages: 1 -->
<svg width="294pt" height="87pt"
 viewBox="0.00 0.00 294.00 87.00" xmlns="http://www.w3.org/2000/svg" xmlns:xlink="http://www.w3.org/1999/xlink">
<g id="graph0" class="graph" transform="scale(1 1) rotate(0) translate(4 83)">
<title>GraphicsItem::setColor</title>
<polygon fill="white" stroke="none" points="-4,4 -4,-83 290,-83 290,4 -4,4"/>
<!-- Node1 -->
<g id="node1" class="node"><title>Node1</title>
<polygon fill="#bfbfbf" stroke="black" points="0,-29.5 0,-48.5 118,-48.5 118,-29.5 0,-29.5"/>
<text text-anchor="middle" x="59" y="-36.5" font-family="Helvetica,sans-Serif" font-size="10.00">GraphicsItem::setColor</text>
</g>
<!-- Node2 -->
<g id="node2" class="node"><title>Node2</title>
<g id="a_node2"><a xlink:href="class_graphics_anchor.html#a84d9e284c053de2b861898e3586b0911" target="_top" xlink:title="GraphicsAnchor::Graphics\lAnchor">
<polygon fill="white" stroke="black" points="154.5,-49 154.5,-79 285.5,-79 285.5,-49 154.5,-49"/>
<text text-anchor="start" x="162.5" y="-67" font-family="Helvetica,sans-Serif" font-size="10.00">GraphicsAnchor::Graphics</text>
<text text-anchor="middle" x="220" y="-56" font-family="Helvetica,sans-Serif" font-size="10.00">Anchor</text>
</a>
</g>
</g>
<!-- Node1&#45;&gt;Node2 -->
<g id="edge1" class="edge"><title>Node1&#45;&gt;Node2</title>
<path fill="none" stroke="midnightblue" d="M128.306,-49.7399C136.918,-51.0941 145.709,-52.4763 154.264,-53.8214"/>
<polygon fill="midnightblue" stroke="midnightblue" points="128.725,-46.2629 118.303,-48.1671 127.638,-53.178 128.725,-46.2629"/>
</g>
<!-- Node3 -->
<g id="node3" class="node"><title>Node3</title>
<g id="a_node3"><a xlink:href="class_graphics_blink_animation.html#a2a75e0463116fcb3f9050e5f74d9e8ec" target="_top" xlink:title="GraphicsBlinkAnimation\l::meUpdate">
<polygon fill="white" stroke="black" points="159.5,-0 159.5,-30 280.5,-30 280.5,-0 159.5,-0"/>
<text text-anchor="start" x="167.5" y="-18" font-family="Helvetica,sans-Serif" font-size="10.00">GraphicsBlinkAnimation</text>
<text text-anchor="middle" x="220" y="-7" font-family="Helvetica,sans-Serif" font-size="10.00">::meUpdate</text>
</a>
</g>
</g>
<!-- Node1&#45;&gt;Node3 -->
<g id="edge2" class="edge"><title>Node1&#45;&gt;Node3</title>
<path fill="none" stroke="midnightblue" d="M128.476,-28.664C138.759,-27.1118 149.293,-25.5218 159.372,-24.0005"/>
<polygon fill="midnightblue" stroke="midnightblue" points="127.668,-25.2462 118.303,-30.1996 128.713,-32.1678 127.668,-25.2462"/>
</g>
</g>
</svg>
