<?xml version="1.0" encoding="UTF-8" standalone="no"?>
<!DOCTYPE svg PUBLIC "-//W3C//DTD SVG 1.1//EN"
 "http://www.w3.org/Graphics/SVG/1.1/DTD/svg11.dtd">
<!-- Generated by graphviz version 2.36.0 (20140111.2315)
 -->
<!-- Title: GraphicsLine::first Pages: 1 -->
<svg width="442pt" height="85pt"
 viewBox="0.00 0.00 442.00 85.00" xmlns="http://www.w3.org/2000/svg" xmlns:xlink="http://www.w3.org/1999/xlink">
<g id="graph0" class="graph" transform="scale(1 1) rotate(0) translate(4 81)">
<title>GraphicsLine::first</title>
<polygon fill="white" stroke="none" points="-4,4 -4,-81 438,-81 438,4 -4,4"/>
<!-- Node1 -->
<g id="node1" class="node"><title>Node1</title>
<polygon fill="#bfbfbf" stroke="black" points="0,-38.5 0,-57.5 96,-57.5 96,-38.5 0,-38.5"/>
<text text-anchor="middle" x="48" y="-45.5" font-family="Helvetica,sans-Serif" font-size="10.00">GraphicsLine::first</text>
</g>
<!-- Node2 -->
<g id="node2" class="node"><title>Node2</title>
<g id="a_node2"><a xlink:href="class_graphics_line.html#a23cc57510dd6e5a58891deb16b79b3fe" target="_top" xlink:title="GraphicsLine::GraphicsLine">
<polygon fill="white" stroke="black" points="132.5,-57.5 132.5,-76.5 269.5,-76.5 269.5,-57.5 132.5,-57.5"/>
<text text-anchor="middle" x="201" y="-64.5" font-family="Helvetica,sans-Serif" font-size="10.00">GraphicsLine::GraphicsLine</text>
</a>
</g>
</g>
<!-- Node1&#45;&gt;Node2 -->
<g id="edge1" class="edge"><title>Node1&#45;&gt;Node2</title>
<path fill="none" stroke="midnightblue" d="M106.484,-55.2331C114.936,-56.2966 123.709,-57.4005 132.343,-58.4869"/>
<polygon fill="midnightblue" stroke="midnightblue" points="106.722,-51.7355 96.363,-53.9596 105.848,-58.6807 106.722,-51.7355"/>
</g>
<!-- Node3 -->
<g id="node3" class="node"><title>Node3</title>
<g id="a_node3"><a xlink:href="class_line_edit.html#a636e2ac65a70dd82fcf02f863da5c446" target="_top" xlink:title="LineEdit::setText">
<polygon fill="white" stroke="black" points="155.5,-19.5 155.5,-38.5 246.5,-38.5 246.5,-19.5 155.5,-19.5"/>
<text text-anchor="middle" x="201" y="-26.5" font-family="Helvetica,sans-Serif" font-size="10.00">LineEdit::setText</text>
</a>
</g>
</g>
<!-- Node1&#45;&gt;Node3 -->
<g id="edge2" class="edge"><title>Node1&#45;&gt;Node3</title>
<path fill="none" stroke="midnightblue" d="M106.298,-40.7903C122.55,-38.7454 139.998,-36.55 155.38,-34.6145"/>
<polygon fill="midnightblue" stroke="midnightblue" points="105.848,-37.3193 96.363,-42.0404 106.722,-44.2645 105.848,-37.3193"/>
</g>
<!-- Node4 -->
<g id="node4" class="node"><title>Node4</title>
<g id="a_node4"><a xlink:href="class_line_edit.html#a04e1cd86821efe7570868ae397978186" target="_top" xlink:title="LineEdit::LineEdit">
<polygon fill="white" stroke="black" points="323.5,-38.5 323.5,-57.5 416.5,-57.5 416.5,-38.5 323.5,-38.5"/>
<text text-anchor="middle" x="370" y="-45.5" font-family="Helvetica,sans-Serif" font-size="10.00">LineEdit::LineEdit</text>
</a>
</g>
</g>
<!-- Node3&#45;&gt;Node4 -->
<g id="edge3" class="edge"><title>Node3&#45;&gt;Node4</title>
<path fill="none" stroke="midnightblue" d="M256.734,-35.2272C278.259,-37.6762 302.689,-40.4557 323.251,-42.795"/>
<polygon fill="midnightblue" stroke="midnightblue" points="257.085,-31.7446 246.753,-34.0917 256.293,-38.6997 257.085,-31.7446"/>
</g>
<!-- Node5 -->
<g id="node5" class="node"><title>Node5</title>
<g id="a_node5"><a xlink:href="class_line_edit.html#a8d5e79e8a895901381e301d41d3d4343" target="_top" xlink:title="LineEdit::meHandleEvent">
<polygon fill="white" stroke="black" points="306,-0.5 306,-19.5 434,-19.5 434,-0.5 306,-0.5"/>
<text text-anchor="middle" x="370" y="-7.5" font-family="Helvetica,sans-Serif" font-size="10.00">LineEdit::meHandleEvent</text>
</a>
</g>
</g>
<!-- Node3&#45;&gt;Node5 -->
<g id="edge4" class="edge"><title>Node3&#45;&gt;Node5</title>
<path fill="none" stroke="midnightblue" d="M256.821,-22.7629C272.522,-20.9766 289.762,-19.0151 305.917,-17.1772"/>
<polygon fill="midnightblue" stroke="midnightblue" points="256.293,-19.3003 246.753,-23.9083 257.085,-26.2554 256.293,-19.3003"/>
</g>
</g>
</svg>
