<?xml version="1.0" encoding="UTF-8" standalone="no"?>
<!DOCTYPE svg PUBLIC "-//W3C//DTD SVG 1.1//EN"
 "http://www.w3.org/Graphics/SVG/1.1/DTD/svg11.dtd">
<!-- Generated by graphviz version 2.36.0 (20140111.2315)
 -->
<!-- Title: GraphicsRectangle::setWidth Pages: 1 -->
<!--zoomable 201 -->
<svg id="main" version="1.1" xmlns="http://www.w3.org/2000/svg" xmlns:xlink="http://www.w3.org/1999/xlink" xml:space="preserve" onload="init(evt)">
<style type="text/css"><![CDATA[
.edge:hover path { stroke: red; }
.edge:hover polygon { stroke: red; fill: red; }
]]></style>
<script type="text/javascript"><![CDATA[
var edges = document.getElementsByTagName('g');
if (edges && edges.length) {
  for (var i=0;i<edges.length;i++) {
    if (edges[i].id.substr(0,4)=='edge') {
      edges[i].setAttribute('class','edge');
    }
  }
}
]]></script>
        <defs>
                <circle id="rim" cx="0" cy="0" r="7"/>
                <circle id="rim2" cx="0" cy="0" r="3.5"/>
                <g id="zoomPlus">
                        <use xlink:href="#rim" fill="#404040">
                                <set attributeName="fill" to="#808080" begin="zoomplus.mouseover" end="zoomplus.mouseout"/>
                        </use>
                        <path d="M-4,0h8M0,-4v8" fill="none" stroke="white" stroke-width="1.5" pointer-events="none"/>
                </g>
                <g id="zoomMin">
                        <use xlink:href="#rim" fill="#404040">
                                <set attributeName="fill" to="#808080" begin="zoomminus.mouseover" end="zoomminus.mouseout"/>
                        </use>
                        <path d="M-4,0h8" fill="none" stroke="white" stroke-width="1.5" pointer-events="none"/>
                </g>
                <g id="dirArrow">
                        <path fill="none" stroke="white" stroke-width="1.5" d="M0,-3.0v7 M-2.5,-0.5L0,-3.0L2.5,-0.5"/>
                </g>
               <g id="resetDef">
                       <use xlink:href="#rim2" fill="#404040">
                               <set attributeName="fill" to="#808080" begin="reset.mouseover" end="reset.mouseout"/>
                       </use>
               </g>
        </defs>

<script type="text/javascript">
var viewWidth = 784;
var viewHeight = 201;
var sectionId = 'dynsection-7';
</script>
<script xlink:href="svgpan.js"/>
<svg id="graph" class="graph">
<g id="viewport">
<title>GraphicsRectangle::setWidth</title>
<polygon fill="white" stroke="none" points="-4,4 -4,-196.651 780,-196.651 780,4 -4,4"/>
<!-- Node1 -->
<g id="node1" class="node"><title>Node1</title>
<polygon fill="#bfbfbf" stroke="black" points="0,-73.6507 0,-103.651 106,-103.651 106,-73.6507 0,-73.6507"/>
<text text-anchor="start" x="8" y="-91.6507" font-family="Helvetica,sans-Serif" font-size="10.00">GraphicsRectangle::</text>
<text text-anchor="middle" x="53" y="-80.6507" font-family="Helvetica,sans-Serif" font-size="10.00">setWidth</text>
</g>
<!-- Node2 -->
<g id="node2" class="node"><title>Node2</title>
<g id="a_node2"><a xlink:href="class_point.html#a7f5e36e2e1bd0fa1564c1e4d5d74355c" target="_top" xlink:title="Modifie l&#39;abscisse du point indépendamment de son origine. ">
<polygon fill="white" stroke="black" points="142.5,-79.1507 142.5,-98.1507 243.5,-98.1507 243.5,-79.1507 142.5,-79.1507"/>
<text text-anchor="middle" x="193" y="-86.1507" font-family="Helvetica,sans-Serif" font-size="10.00">Point::setRelativeX</text>
</a>
</g>
</g>
<!-- Node1&#45;&gt;Node2 -->
<g id="edge1" class="edge"><title>Node1&#45;&gt;Node2</title>
<path fill="none" stroke="midnightblue" d="M106.172,-88.6507C114.73,-88.6507 123.656,-88.6507 132.378,-88.6507"/>
<polygon fill="midnightblue" stroke="midnightblue" points="132.49,-92.1508 142.489,-88.6507 132.489,-85.1508 132.49,-92.1508"/>
</g>
<!-- Node3 -->
<g id="node3" class="node"><title>Node3</title>
<g id="a_node3"><a xlink:href="class_point.html#a9abe56cf3f067305623a1d805460a84f" target="_top" xlink:title="Modifie les coordonnées du point indépendamment de son origine. ">
<polygon fill="white" stroke="black" points="280.5,-79.1507 280.5,-98.1507 375.5,-98.1507 375.5,-79.1507 280.5,-79.1507"/>
<text text-anchor="middle" x="328" y="-86.1507" font-family="Helvetica,sans-Serif" font-size="10.00">Point::setRelative</text>
</a>
</g>
</g>
<!-- Node2&#45;&gt;Node3 -->
<g id="edge2" class="edge"><title>Node2&#45;&gt;Node3</title>
<path fill="none" stroke="midnightblue" d="M243.524,-88.6507C252.124,-88.6507 261.129,-88.6507 269.911,-88.6507"/>
<polygon fill="midnightblue" stroke="midnightblue" points="270.08,-92.1508 280.08,-88.6507 270.08,-85.1508 270.08,-92.1508"/>
</g>
<!-- Node8 -->
<g id="node8" class="node"><title>Node8</title>
<g id="a_node8"><a xlink:href="class_point.html#a2aa897aa68c2f3e6df3a46738f27a0ac" target="_top" xlink:title="Donne l&#39;abscisse du point par rapport à son origine. ">
<polygon fill="white" stroke="black" points="508,-155.151 508,-174.151 558,-174.151 558,-155.151 508,-155.151"/>
<text text-anchor="middle" x="533" y="-162.151" font-family="Helvetica,sans-Serif" font-size="10.00">Point::x</text>
</a>
</g>
</g>
<!-- Node2&#45;&gt;Node8 -->
<g id="edge18" class="edge"><title>Node2&#45;&gt;Node8</title>
<path fill="none" stroke="midnightblue" d="M236.466,-98.1992C304.179,-113.425 435.306,-142.909 497.571,-156.909"/>
<polygon fill="midnightblue" stroke="midnightblue" points="497.136,-160.399 507.66,-159.178 498.671,-153.569 497.136,-160.399"/>
</g>
<!-- Node11 -->
<g id="node11" class="node"><title>Node11</title>
<g id="a_node11"><a xlink:href="class_point.html#a2df1f1705c57a0089ee2956315b214ba" target="_top" xlink:title="Donne l&#39;ordonnée du point indépendamment de son origine. ">
<polygon fill="white" stroke="black" points="286.5,-41.1507 286.5,-60.1507 369.5,-60.1507 369.5,-41.1507 286.5,-41.1507"/>
<text text-anchor="middle" x="328" y="-48.1507" font-family="Helvetica,sans-Serif" font-size="10.00">Point::relativeY</text>
</a>
</g>
</g>
<!-- Node2&#45;&gt;Node11 -->
<g id="edge19" class="edge"><title>Node2&#45;&gt;Node11</title>
<path fill="none" stroke="midnightblue" d="M227.562,-79.0617C244.573,-74.2013 265.432,-68.2416 283.645,-63.038"/>
<polygon fill="midnightblue" stroke="midnightblue" points="284.796,-66.3493 293.449,-60.2367 282.872,-59.6186 284.796,-66.3493"/>
</g>
<!-- Node4 -->
<g id="node4" class="node"><title>Node4</title>
<g id="a_node4"><a xlink:href="class_point.html#a43923c490fb5439d7d8a041e86520c34" target="_top" xlink:title="Modifie les coordonnées du point par rapport à son origine. ">
<polygon fill="white" stroke="black" points="412.5,-79.1507 412.5,-98.1507 471.5,-98.1507 471.5,-79.1507 412.5,-79.1507"/>
<text text-anchor="middle" x="442" y="-86.1507" font-family="Helvetica,sans-Serif" font-size="10.00">Point::set</text>
</a>
</g>
</g>
<!-- Node3&#45;&gt;Node4 -->
<g id="edge3" class="edge"><title>Node3&#45;&gt;Node4</title>
<path fill="none" stroke="midnightblue" d="M375.525,-88.6507C384.413,-88.6507 393.628,-88.6507 402.241,-88.6507"/>
<polygon fill="midnightblue" stroke="midnightblue" points="402.384,-92.1508 412.384,-88.6507 402.384,-85.1508 402.384,-92.1508"/>
</g>
<!-- Node6 -->
<g id="node6" class="node"><title>Node6</title>
<g id="a_node6"><a xlink:href="class_point.html#afa7d33502738b0b3df186a91e11ff2a8" target="_top" xlink:title="Donne l&#39;origine du point. ">
<polygon fill="white" stroke="black" points="594,-23.1507 594,-42.1507 662,-42.1507 662,-23.1507 594,-23.1507"/>
<text text-anchor="middle" x="628" y="-30.1507" font-family="Helvetica,sans-Serif" font-size="10.00">Point::origin</text>
</a>
</g>
</g>
<!-- Node3&#45;&gt;Node6 -->
<g id="edge17" class="edge"><title>Node3&#45;&gt;Node6</title>
<path fill="none" stroke="midnightblue" d="M354.036,-78.9586C361.181,-76.0772 368.94,-72.8365 376,-69.6507 435.786,-42.6713 444.163,-18.7205 508,-3.65074 529.628,1.45488 536.216,0.740983 558,-3.65074 572.574,-6.58891 587.903,-12.6934 600.402,-18.5471"/>
<polygon fill="midnightblue" stroke="midnightblue" points="599.229,-21.87 609.75,-23.1226 602.307,-15.5827 599.229,-21.87"/>
</g>
<!-- Node5 -->
<g id="node5" class="node"><title>Node5</title>
<g id="a_node5"><a xlink:href="class_point.html#a64a5fe8c9b1d1a1543aaa64031537380" target="_top" xlink:title="Indique si le point n&#39;appartient pas à un groupe. ">
<polygon fill="white" stroke="black" points="698.5,-89.1507 698.5,-108.151 775.5,-108.151 775.5,-89.1507 698.5,-89.1507"/>
<text text-anchor="middle" x="737" y="-96.1507" font-family="Helvetica,sans-Serif" font-size="10.00">Point::isAlone</text>
</a>
</g>
</g>
<!-- Node4&#45;&gt;Node5 -->
<g id="edge4" class="edge"><title>Node4&#45;&gt;Node5</title>
<path fill="none" stroke="midnightblue" d="M469.189,-98.1514C480.894,-101.915 494.965,-105.785 508,-107.651 569.795,-116.497 641.904,-111.043 688.216,-105.541"/>
<polygon fill="midnightblue" stroke="midnightblue" points="688.77,-108.999 698.265,-104.298 687.911,-102.052 688.77,-108.999"/>
</g>
<!-- Node4&#45;&gt;Node6 -->
<g id="edge5" class="edge"><title>Node4&#45;&gt;Node6</title>
<path fill="none" stroke="midnightblue" d="M447.795,-78.9776C456.84,-61.9756 478.22,-27.2491 508,-13.6507 536.898,-0.455239 573.381,-9.59777 598.284,-19.2216"/>
<polygon fill="midnightblue" stroke="midnightblue" points="596.964,-22.4633 607.544,-23.0283 599.626,-15.989 596.964,-22.4633"/>
</g>
<!-- Node4&#45;&gt;Node8 -->
<g id="edge8" class="edge"><title>Node4&#45;&gt;Node8</title>
<path fill="none" stroke="midnightblue" d="M454.272,-98.2762C468.984,-110.839 494.954,-133.016 512.798,-148.253"/>
<polygon fill="midnightblue" stroke="midnightblue" points="510.942,-151.271 520.82,-155.103 515.488,-145.948 510.942,-151.271"/>
</g>
<!-- Node9 -->
<g id="node9" class="node"><title>Node9</title>
<g id="a_node9"><a xlink:href="class_point.html#a2226d8a3fb283b0b3c1f69106df144ba" target="_top" xlink:title="Donne l&#39;ordonnée du point par rapport à son origine. ">
<polygon fill="white" stroke="black" points="508,-23.1507 508,-42.1507 558,-42.1507 558,-23.1507 508,-23.1507"/>
<text text-anchor="middle" x="533" y="-30.1507" font-family="Helvetica,sans-Serif" font-size="10.00">Point::y</text>
</a>
</g>
</g>
<!-- Node4&#45;&gt;Node9 -->
<g id="edge12" class="edge"><title>Node4&#45;&gt;Node9</title>
<path fill="none" stroke="midnightblue" d="M458.503,-78.8963C472.158,-70.3042 492.266,-57.6521 507.999,-47.7525"/>
<polygon fill="midnightblue" stroke="midnightblue" points="510.075,-50.5814 516.675,-42.2934 506.347,-44.6567 510.075,-50.5814"/>
</g>
<!-- Node10 -->
<g id="node10" class="node"><title>Node10</title>
<g id="a_node10"><a xlink:href="jquery_8js.html#a2335e57f79b6acfb6de59c235dc8a83e" target="_top" xlink:title="p">
<polygon fill="white" stroke="black" points="518.5,-79.1507 518.5,-98.1507 547.5,-98.1507 547.5,-79.1507 518.5,-79.1507"/>
<text text-anchor="middle" x="533" y="-86.1507" font-family="Helvetica,sans-Serif" font-size="10.00">p</text>
</a>
</g>
</g>
<!-- Node4&#45;&gt;Node10 -->
<g id="edge16" class="edge"><title>Node4&#45;&gt;Node10</title>
<path fill="none" stroke="midnightblue" d="M471.65,-88.6507C483.388,-88.6507 496.819,-88.6507 508.026,-88.6507"/>
<polygon fill="midnightblue" stroke="midnightblue" points="508.347,-92.1508 518.347,-88.6507 508.346,-85.1508 508.347,-92.1508"/>
</g>
<!-- Node6&#45;&gt;Node5 -->
<g id="edge6" class="edge"><title>Node6&#45;&gt;Node5</title>
<path fill="none" stroke="midnightblue" d="M644.788,-42.3893C662.432,-53.2726 691.211,-71.0237 711.722,-83.6756"/>
<polygon fill="midnightblue" stroke="midnightblue" points="710.146,-86.8158 720.495,-89.0868 713.821,-80.8581 710.146,-86.8158"/>
</g>
<!-- Node7 -->
<g id="node7" class="node"><title>Node7</title>
<g id="a_node7"><a xlink:href="class_point.html#a97edc6e6415d6ccc6efcff5fcbc97f15" target="_top" xlink:title="Construit un point avec les coordonnées nulles. ">
<polygon fill="white" stroke="black" points="703,-23.1507 703,-42.1507 771,-42.1507 771,-23.1507 703,-23.1507"/>
<text text-anchor="middle" x="737" y="-30.1507" font-family="Helvetica,sans-Serif" font-size="10.00">Point::Point</text>
</a>
</g>
</g>
<!-- Node6&#45;&gt;Node7 -->
<g id="edge7" class="edge"><title>Node6&#45;&gt;Node7</title>
<path fill="none" stroke="midnightblue" d="M662.269,-32.6507C671.831,-32.6507 682.403,-32.6507 692.485,-32.6507"/>
<polygon fill="midnightblue" stroke="midnightblue" points="692.752,-36.1508 702.752,-32.6507 692.752,-29.1508 692.752,-36.1508"/>
</g>
<!-- Node8&#45;&gt;Node5 -->
<g id="edge9" class="edge"><title>Node8&#45;&gt;Node5</title>
<path fill="none" stroke="midnightblue" d="M558.22,-162.517C584.441,-159.659 627.179,-153.393 662,-140.651 680.435,-133.905 699.672,-122.845 713.91,-113.768"/>
<polygon fill="midnightblue" stroke="midnightblue" points="716.036,-116.559 722.486,-108.154 712.202,-110.702 716.036,-116.559"/>
</g>
<!-- Node8&#45;&gt;Node6 -->
<g id="edge10" class="edge"><title>Node8&#45;&gt;Node6</title>
<path fill="none" stroke="midnightblue" d="M540.99,-154.729C556.551,-132.643 594.241,-79.1478 614.164,-50.8699"/>
<polygon fill="midnightblue" stroke="midnightblue" points="617.283,-52.5193 620.182,-42.3286 611.561,-48.4876 617.283,-52.5193"/>
</g>
<!-- Node8&#45;&gt;Node8 -->
<g id="edge11" class="edge"><title>Node8&#45;&gt;Node8</title>
<path fill="none" stroke="midnightblue" d="M519.128,-174.408C512.38,-183.216 517.004,-192.651 533,-192.651 542.998,-192.651 548.553,-188.965 549.666,-184.051"/>
<polygon fill="midnightblue" stroke="midnightblue" points="553.017,-183.039 546.872,-174.408 546.293,-184.987 553.017,-183.039"/>
</g>
<!-- Node9&#45;&gt;Node5 -->
<g id="edge13" class="edge"><title>Node9&#45;&gt;Node5</title>
<path fill="none" stroke="midnightblue" d="M558.366,-40.6119C592.78,-51.856 655.989,-72.5086 696.985,-85.9031"/>
<polygon fill="midnightblue" stroke="midnightblue" points="696.051,-89.2801 706.643,-89.059 698.225,-82.6263 696.051,-89.2801"/>
</g>
<!-- Node9&#45;&gt;Node6 -->
<g id="edge14" class="edge"><title>Node9&#45;&gt;Node6</title>
<path fill="none" stroke="midnightblue" d="M558.435,-32.6507C566.248,-32.6507 575.144,-32.6507 583.88,-32.6507"/>
<polygon fill="midnightblue" stroke="midnightblue" points="583.987,-36.1508 593.987,-32.6507 583.987,-29.1508 583.987,-36.1508"/>
</g>
<!-- Node9&#45;&gt;Node9 -->
<g id="edge15" class="edge"><title>Node9&#45;&gt;Node9</title>
<path fill="none" stroke="midnightblue" d="M519.128,-42.4078C512.38,-51.216 517.004,-60.6507 533,-60.6507 542.998,-60.6507 548.553,-56.9653 549.666,-52.0508"/>
<polygon fill="midnightblue" stroke="midnightblue" points="553.017,-51.0385 546.872,-42.4078 546.293,-52.9868 553.017,-51.0385"/>
</g>
</g>
</svg>
        <g id="navigator" transform="translate(0 0)" fill="#404254">
                <rect fill="#f2f5e9" fill-opacity="0.5" stroke="#606060" stroke-width=".5" x="0" y="0" width="60" height="60"/>
                <use id="zoomplus" xlink:href="#zoomPlus" x="17" y="9" onmousedown="handleZoom(evt,'in')"/>
                <use id="zoomminus" xlink:href="#zoomMin" x="42" y="9" onmousedown="handleZoom(evt,'out')"/>
                <use id="reset" xlink:href="#resetDef" x="30" y="36" onmousedown="handleReset()"/>
                <g id="arrowUp" xlink:href="#dirArrow" transform="translate(30 24)" onmousedown="handlePan(0,-1)">
                  <use xlink:href="#rim" fill="#404040">
                        <set attributeName="fill" to="#808080" begin="arrowUp.mouseover" end="arrowUp.mouseout"/>
                  </use>
                  <path fill="none" stroke="white" stroke-width="1.5" d="M0,-3.0v7 M-2.5,-0.5L0,-3.0L2.5,-0.5"/>
                </g>
                <g id="arrowRight" xlink:href="#dirArrow" transform="rotate(90) translate(36 -43)" onmousedown="handlePan(1,0)">
                  <use xlink:href="#rim" fill="#404040">
                        <set attributeName="fill" to="#808080" begin="arrowRight.mouseover" end="arrowRight.mouseout"/>
                  </use>
                  <path fill="none" stroke="white" stroke-width="1.5" d="M0,-3.0v7 M-2.5,-0.5L0,-3.0L2.5,-0.5"/>
                </g>
                <g id="arrowDown" xlink:href="#dirArrow" transform="rotate(180) translate(-30 -48)" onmousedown="handlePan(0,1)">
                  <use xlink:href="#rim" fill="#404040">
                        <set attributeName="fill" to="#808080" begin="arrowDown.mouseover" end="arrowDown.mouseout"/>
                  </use>
                  <path fill="none" stroke="white" stroke-width="1.5" d="M0,-3.0v7 M-2.5,-0.5L0,-3.0L2.5,-0.5"/>
                </g>
                <g id="arrowLeft" xlink:href="#dirArrow" transform="rotate(270) translate(-36 17)" onmousedown="handlePan(-1,0)">
                  <use xlink:href="#rim" fill="#404040">
                        <set attributeName="fill" to="#808080" begin="arrowLeft.mouseover" end="arrowLeft.mouseout"/>
                  </use>
                  <path fill="none" stroke="white" stroke-width="1.5" d="M0,-3.0v7 M-2.5,-0.5L0,-3.0L2.5,-0.5"/>
                </g>
        </g>
        <svg viewBox="0 0 15 15" width="100%" height="30px" preserveAspectRatio="xMaxYMin meet">
         <g id="arrow_out" transform="scale(0.3 0.3)">
          <a xlink:href="class_graphics_rectangle_a3efd2295cd742f75de829851bf7ca3dd_cgraph_org.svg" target="_base">
           <rect id="button" ry="5" rx="5" y="6" x="6" height="38" width="38"
                fill="#f2f5e9" fill-opacity="0.5" stroke="#606060" stroke-width="1.0"/>
           <path id="arrow"
             d="M 11.500037,31.436501 C 11.940474,20.09759 22.043105,11.32322 32.158766,21.979434 L 37.068811,17.246167 C 37.068811,17.246167 37.088388,32 37.088388,32 L 22.160133,31.978069 C 22.160133,31.978069 26.997745,27.140456 26.997745,27.140456 C 18.528582,18.264221 13.291696,25.230495 11.500037,31.436501 z"
             style="fill:#404040;"/>
          </a>
         </g>
        </svg>
</svg>
