<?xml version="1.0" encoding="UTF-8" standalone="no"?>
<!DOCTYPE svg PUBLIC "-//W3C//DTD SVG 1.1//EN"
 "http://www.w3.org/Graphics/SVG/1.1/DTD/svg11.dtd">
<!-- Generated by graphviz version 2.36.0 (20140111.2315)
 -->
<!-- Title: Point::setRelative Pages: 1 -->
<svg width="724pt" height="113pt"
 viewBox="0.00 0.00 724.00 113.00" xmlns="http://www.w3.org/2000/svg" xmlns:xlink="http://www.w3.org/1999/xlink">
<g id="graph0" class="graph" transform="scale(1 1) rotate(0) translate(4 109)">
<title>Point::setRelative</title>
<polygon fill="white" stroke="none" points="-4,4 -4,-109 720,-109 720,4 -4,4"/>
<!-- Node1 -->
<g id="node1" class="node"><title>Node1</title>
<polygon fill="#bfbfbf" stroke="black" points="0.5,-47.5 0.5,-66.5 95.5,-66.5 95.5,-47.5 0.5,-47.5"/>
<text text-anchor="middle" x="48" y="-54.5" font-family="Helvetica,sans-Serif" font-size="10.00">Point::setRelative</text>
</g>
<!-- Node2 -->
<g id="node2" class="node"><title>Node2</title>
<g id="a_node2"><a xlink:href="class_main_window.html#a34c4b4207b46d11a4100c9b19f0e81bb" target="_top" xlink:title="MainWindow::MainWindow">
<polygon fill="white" stroke="black" points="132.5,-85.5 132.5,-104.5 267.5,-104.5 267.5,-85.5 132.5,-85.5"/>
<text text-anchor="middle" x="200" y="-92.5" font-family="Helvetica,sans-Serif" font-size="10.00">MainWindow::MainWindow</text>
</a>
</g>
</g>
<!-- Node1&#45;&gt;Node2 -->
<g id="edge1" class="edge"><title>Node1&#45;&gt;Node2</title>
<path fill="none" stroke="midnightblue" d="M96.811,-69.1121C117.702,-74.4044 141.847,-80.5213 161.421,-85.4799"/>
<polygon fill="midnightblue" stroke="midnightblue" points="97.4047,-65.652 86.8513,-66.589 95.6856,-72.4377 97.4047,-65.652"/>
</g>
<!-- Node3 -->
<g id="node3" class="node"><title>Node3</title>
<g id="a_node3"><a xlink:href="class_point.html#a7f5e36e2e1bd0fa1564c1e4d5d74355c" target="_top" xlink:title="Modifie l&#39;abscisse du point indépendamment de son origine. ">
<polygon fill="white" stroke="black" points="149.5,-47.5 149.5,-66.5 250.5,-66.5 250.5,-47.5 149.5,-47.5"/>
<text text-anchor="middle" x="200" y="-54.5" font-family="Helvetica,sans-Serif" font-size="10.00">Point::setRelativeX</text>
</a>
</g>
</g>
<!-- Node1&#45;&gt;Node3 -->
<g id="edge2" class="edge"><title>Node1&#45;&gt;Node3</title>
<path fill="none" stroke="midnightblue" d="M105.846,-57C120.135,-57 135.359,-57 149.27,-57"/>
<polygon fill="midnightblue" stroke="midnightblue" points="105.639,-53.5001 95.6387,-57 105.639,-60.5001 105.639,-53.5001"/>
</g>
<!-- Node8 -->
<g id="node8" class="node"><title>Node8</title>
<g id="a_node8"><a xlink:href="class_point.html#abb67fd238634ebc25e4bdb3ab4cca9b6" target="_top" xlink:title="Modifie l&#39;ordonnée du point indépendamment de son origine. ">
<polygon fill="white" stroke="black" points="306.5,-5.5 306.5,-24.5 407.5,-24.5 407.5,-5.5 306.5,-5.5"/>
<text text-anchor="middle" x="357" y="-12.5" font-family="Helvetica,sans-Serif" font-size="10.00">Point::setRelativeY</text>
</a>
</g>
</g>
<!-- Node1&#45;&gt;Node8 -->
<g id="edge7" class="edge"><title>Node1&#45;&gt;Node8</title>
<path fill="none" stroke="midnightblue" d="M96.3516,-45.106C107.956,-42.4835 120.381,-39.9189 132,-38 191.592,-28.158 260.842,-21.8183 306.388,-18.3382"/>
<polygon fill="midnightblue" stroke="midnightblue" points="95.3576,-41.7435 86.4059,-47.4108 96.9379,-48.5628 95.3576,-41.7435"/>
</g>
<!-- Node4 -->
<g id="node4" class="node"><title>Node4</title>
<g id="a_node4"><a xlink:href="class_graphics_rectangle.html#a3efd2295cd742f75de829851bf7ca3dd" target="_top" xlink:title="GraphicsRectangle::\lsetWidth">
<polygon fill="white" stroke="black" points="304,-44 304,-74 410,-74 410,-44 304,-44"/>
<text text-anchor="start" x="312" y="-62" font-family="Helvetica,sans-Serif" font-size="10.00">GraphicsRectangle::</text>
<text text-anchor="middle" x="357" y="-51" font-family="Helvetica,sans-Serif" font-size="10.00">setWidth</text>
</a>
</g>
</g>
<!-- Node3&#45;&gt;Node4 -->
<g id="edge3" class="edge"><title>Node3&#45;&gt;Node4</title>
<path fill="none" stroke="midnightblue" d="M261.002,-57.7742C275.119,-57.9564 290.053,-58.1491 303.796,-58.3264"/>
<polygon fill="midnightblue" stroke="midnightblue" points="260.941,-54.2732 250.896,-57.6438 260.85,-61.2726 260.941,-54.2732"/>
</g>
<!-- Node5 -->
<g id="node5" class="node"><title>Node5</title>
<g id="a_node5"><a xlink:href="class_line_edit.html#a636e2ac65a70dd82fcf02f863da5c446" target="_top" xlink:title="LineEdit::setText">
<polygon fill="white" stroke="black" points="453.5,-49.5 453.5,-68.5 544.5,-68.5 544.5,-49.5 453.5,-49.5"/>
<text text-anchor="middle" x="499" y="-56.5" font-family="Helvetica,sans-Serif" font-size="10.00">LineEdit::setText</text>
</a>
</g>
</g>
<!-- Node4&#45;&gt;Node5 -->
<g id="edge4" class="edge"><title>Node4&#45;&gt;Node5</title>
<path fill="none" stroke="midnightblue" d="M420.219,-59C431.32,-59 442.685,-59 453.18,-59"/>
<polygon fill="midnightblue" stroke="midnightblue" points="420.131,-55.5001 410.131,-59 420.131,-62.5001 420.131,-55.5001"/>
</g>
<!-- Node6 -->
<g id="node6" class="node"><title>Node6</title>
<g id="a_node6"><a xlink:href="class_line_edit.html#a04e1cd86821efe7570868ae397978186" target="_top" xlink:title="LineEdit::LineEdit">
<polygon fill="white" stroke="black" points="605.5,-8.5 605.5,-27.5 698.5,-27.5 698.5,-8.5 605.5,-8.5"/>
<text text-anchor="middle" x="652" y="-15.5" font-family="Helvetica,sans-Serif" font-size="10.00">LineEdit::LineEdit</text>
</a>
</g>
</g>
<!-- Node5&#45;&gt;Node6 -->
<g id="edge5" class="edge"><title>Node5&#45;&gt;Node6</title>
<path fill="none" stroke="midnightblue" d="M544.784,-46.84C567.513,-40.6686 594.719,-33.2815 615.907,-27.5286"/>
<polygon fill="midnightblue" stroke="midnightblue" points="543.755,-43.4926 535.022,-49.4907 545.59,-50.248 543.755,-43.4926"/>
</g>
<!-- Node7 -->
<g id="node7" class="node"><title>Node7</title>
<g id="a_node7"><a xlink:href="class_line_edit.html#a8d5e79e8a895901381e301d41d3d4343" target="_top" xlink:title="LineEdit::meHandleEvent">
<polygon fill="white" stroke="black" points="588,-49.5 588,-68.5 716,-68.5 716,-49.5 588,-49.5"/>
<text text-anchor="middle" x="652" y="-56.5" font-family="Helvetica,sans-Serif" font-size="10.00">LineEdit::meHandleEvent</text>
</a>
</g>
</g>
<!-- Node5&#45;&gt;Node7 -->
<g id="edge6" class="edge"><title>Node5&#45;&gt;Node7</title>
<path fill="none" stroke="midnightblue" d="M554.931,-59C565.62,-59 576.905,-59 587.835,-59"/>
<polygon fill="midnightblue" stroke="midnightblue" points="554.896,-55.5001 544.896,-59 554.896,-62.5001 554.896,-55.5001"/>
</g>
<!-- Node9 -->
<g id="node9" class="node"><title>Node9</title>
<g id="a_node9"><a xlink:href="class_graphics_rectangle.html#aea349ac359e4f2227f1da772c1a26ab6" target="_top" xlink:title="GraphicsRectangle::\lsetHeight">
<polygon fill="white" stroke="black" points="446,-0 446,-30 552,-30 552,-0 446,-0"/>
<text text-anchor="start" x="454" y="-18" font-family="Helvetica,sans-Serif" font-size="10.00">GraphicsRectangle::</text>
<text text-anchor="middle" x="499" y="-7" font-family="Helvetica,sans-Serif" font-size="10.00">setHeight</text>
</a>
</g>
</g>
<!-- Node8&#45;&gt;Node9 -->
<g id="edge8" class="edge"><title>Node8&#45;&gt;Node9</title>
<path fill="none" stroke="midnightblue" d="M417.979,-15C427.156,-15 436.567,-15 445.564,-15"/>
<polygon fill="midnightblue" stroke="midnightblue" points="417.753,-11.5001 407.753,-15 417.753,-18.5001 417.753,-11.5001"/>
</g>
<!-- Node9&#45;&gt;Node6 -->
<g id="edge9" class="edge"><title>Node9&#45;&gt;Node6</title>
<path fill="none" stroke="midnightblue" d="M562.643,-16.2446C576.921,-16.5282 591.831,-16.8245 605.248,-17.091"/>
<polygon fill="midnightblue" stroke="midnightblue" points="562.456,-12.7403 552.389,-16.0408 562.317,-19.7389 562.456,-12.7403"/>
</g>
</g>
</svg>
