<?xml version="1.0" encoding="UTF-8" standalone="no"?>
<!DOCTYPE svg PUBLIC "-//W3C//DTD SVG 1.1//EN"
 "http://www.w3.org/Graphics/SVG/1.1/DTD/svg11.dtd">
<!-- Generated by graphviz version 2.36.0 (20140111.2315)
 -->
<!-- Title: Point::origin Pages: 1 -->
<svg width="1170pt" height="974pt"
 viewBox="0.00 0.00 1170.00 974.00" xmlns="http://www.w3.org/2000/svg" xmlns:xlink="http://www.w3.org/1999/xlink">
<g id="graph0" class="graph" transform="scale(1 1) rotate(0) translate(4 970)">
<title>Point::origin</title>
<polygon fill="white" stroke="none" points="-4,4 -4,-970 1166,-970 1166,4 -4,4"/>
<!-- Node1 -->
<g id="node1" class="node"><title>Node1</title>
<polygon fill="#bfbfbf" stroke="black" points="0,-669.5 0,-688.5 68,-688.5 68,-669.5 0,-669.5"/>
<text text-anchor="middle" x="34" y="-676.5" font-family="Helvetica,sans-Serif" font-size="10.00">Point::origin</text>
</g>
<!-- Node2 -->
<g id="node2" class="node"><title>Node2</title>
<g id="a_node2"><a xlink:href="class_point.html#a0b2ea5baf36174499da121e666931e10" target="_top" xlink:title="Modifie l&#39;origine du point. ">
<polygon fill="white" stroke="black" points="104,-927.5 104,-946.5 188,-946.5 188,-927.5 104,-927.5"/>
<text text-anchor="middle" x="146" y="-934.5" font-family="Helvetica,sans-Serif" font-size="10.00">Point::setOrigin</text>
</a>
</g>
</g>
<!-- Node1&#45;&gt;Node2 -->
<g id="edge1" class="edge"><title>Node1&#45;&gt;Node2</title>
<path fill="none" stroke="midnightblue" d="M36.0044,-698.634C39.1501,-741.834 52.007,-846.555 104,-913 108.676,-918.976 115.287,-923.756 121.837,-927.429"/>
<polygon fill="midnightblue" stroke="midnightblue" points="39.494,-698.358 35.3727,-688.598 32.5079,-698.798 39.494,-698.358"/>
</g>
<!-- Node6 -->
<g id="node6" class="node"><title>Node6</title>
<g id="a_node6"><a xlink:href="class_point.html#a9abe56cf3f067305623a1d805460a84f" target="_top" xlink:title="Modifie les coordonnées du point indépendamment de son origine. ">
<polygon fill="white" stroke="black" points="421.5,-805.5 421.5,-824.5 516.5,-824.5 516.5,-805.5 421.5,-805.5"/>
<text text-anchor="middle" x="469" y="-812.5" font-family="Helvetica,sans-Serif" font-size="10.00">Point::setRelative</text>
</a>
</g>
</g>
<!-- Node1&#45;&gt;Node6 -->
<g id="edge5" class="edge"><title>Node1&#45;&gt;Node6</title>
<path fill="none" stroke="midnightblue" d="M48.428,-696.99C76.3664,-732.718 144.785,-811.696 224,-841 300.513,-869.304 399.092,-840.714 443.909,-824.51"/>
<polygon fill="midnightblue" stroke="midnightblue" points="51.0802,-694.697 42.2153,-688.895 45.5271,-698.959 51.0802,-694.697"/>
</g>
<!-- Node15 -->
<g id="node15" class="node"><title>Node15</title>
<g id="a_node15"><a xlink:href="class_point.html#a2aa897aa68c2f3e6df3a46738f27a0ac" target="_top" xlink:title="Donne l&#39;abscisse du point par rapport à son origine. ">
<polygon fill="white" stroke="black" points="121,-489.5 121,-508.5 171,-508.5 171,-489.5 121,-489.5"/>
<text text-anchor="middle" x="146" y="-496.5" font-family="Helvetica,sans-Serif" font-size="10.00">Point::x</text>
</a>
</g>
</g>
<!-- Node1&#45;&gt;Node15 -->
<g id="edge15" class="edge"><title>Node1&#45;&gt;Node15</title>
<path fill="none" stroke="midnightblue" d="M46.393,-660.357C69.567,-622.436 121.486,-537.478 139.057,-508.725"/>
<polygon fill="midnightblue" stroke="midnightblue" points="43.1421,-658.964 40.9141,-669.322 49.1151,-662.615 43.1421,-658.964"/>
</g>
<!-- Node25 -->
<g id="node25" class="node"><title>Node25</title>
<g id="a_node25"><a xlink:href="class_point.html#a43923c490fb5439d7d8a041e86520c34" target="_top" xlink:title="Modifie les coordonnées du point par rapport à son origine. ">
<polygon fill="white" stroke="black" points="260.5,-669.5 260.5,-688.5 319.5,-688.5 319.5,-669.5 260.5,-669.5"/>
<text text-anchor="middle" x="290" y="-676.5" font-family="Helvetica,sans-Serif" font-size="10.00">Point::set</text>
</a>
</g>
</g>
<!-- Node1&#45;&gt;Node25 -->
<g id="edge67" class="edge"><title>Node1&#45;&gt;Node25</title>
<path fill="none" stroke="midnightblue" d="M78.4586,-679C130.501,-679 216.182,-679 260.487,-679"/>
<polygon fill="midnightblue" stroke="midnightblue" points="78.2061,-675.5 68.2061,-679 78.206,-682.5 78.2061,-675.5"/>
</g>
<!-- Node39 -->
<g id="node39" class="node"><title>Node39</title>
<g id="a_node39"><a xlink:href="class_point.html#a2226d8a3fb283b0b3c1f69106df144ba" target="_top" xlink:title="Donne l&#39;ordonnée du point par rapport à son origine. ">
<polygon fill="white" stroke="black" points="121,-334.5 121,-353.5 171,-353.5 171,-334.5 121,-334.5"/>
<text text-anchor="middle" x="146" y="-341.5" font-family="Helvetica,sans-Serif" font-size="10.00">Point::y</text>
</a>
</g>
</g>
<!-- Node1&#45;&gt;Node39 -->
<g id="edge48" class="edge"><title>Node1&#45;&gt;Node39</title>
<path fill="none" stroke="midnightblue" d="M41.4062,-659.49C62.1014,-596.464 126.699,-399.735 141.814,-353.704"/>
<polygon fill="midnightblue" stroke="midnightblue" points="37.9679,-658.743 38.1735,-669.335 44.6186,-660.926 37.9679,-658.743"/>
</g>
<!-- Node3 -->
<g id="node3" class="node"><title>Node3</title>
<g id="a_node3"><a xlink:href="class_graphics_item.html#a8bcbe86ba1854edffd7fbed0b4bc8cd5" target="_top" xlink:title="GraphicsItem::setParent">
<polygon fill="white" stroke="black" points="228.5,-927.5 228.5,-946.5 351.5,-946.5 351.5,-927.5 228.5,-927.5"/>
<text text-anchor="middle" x="290" y="-934.5" font-family="Helvetica,sans-Serif" font-size="10.00">GraphicsItem::setParent</text>
</a>
</g>
</g>
<!-- Node2&#45;&gt;Node3 -->
<g id="edge2" class="edge"><title>Node2&#45;&gt;Node3</title>
<path fill="none" stroke="midnightblue" d="M198.101,-937C207.951,-937 218.357,-937 228.474,-937"/>
<polygon fill="midnightblue" stroke="midnightblue" points="198.072,-933.5 188.072,-937 198.072,-940.5 198.072,-933.5"/>
</g>
<!-- Node4 -->
<g id="node4" class="node"><title>Node4</title>
<g id="a_node4"><a xlink:href="class_graphics_item.html#a96c30111512bd4f198e9414b70bb3ccc" target="_top" xlink:title="GraphicsItem::GraphicsItem">
<polygon fill="white" stroke="black" points="399,-908.5 399,-927.5 539,-927.5 539,-908.5 399,-908.5"/>
<text text-anchor="middle" x="469" y="-915.5" font-family="Helvetica,sans-Serif" font-size="10.00">GraphicsItem::GraphicsItem</text>
</a>
</g>
</g>
<!-- Node3&#45;&gt;Node4 -->
<g id="edge3" class="edge"><title>Node3&#45;&gt;Node4</title>
<path fill="none" stroke="midnightblue" d="M361.972,-929.381C374.101,-928.08 386.687,-926.729 398.769,-925.432"/>
<polygon fill="midnightblue" stroke="midnightblue" points="361.483,-925.914 351.913,-930.461 362.23,-932.874 361.483,-925.914"/>
</g>
<!-- Node5 -->
<g id="node5" class="node"><title>Node5</title>
<g id="a_node5"><a xlink:href="class_graphics_item.html#ad76d7190cfa332054ae66d505fb37bb1" target="_top" xlink:title="GraphicsItem::~GraphicsItem">
<polygon fill="white" stroke="black" points="396,-946.5 396,-965.5 542,-965.5 542,-946.5 396,-946.5"/>
<text text-anchor="middle" x="469" y="-953.5" font-family="Helvetica,sans-Serif" font-size="10.00">GraphicsItem::~GraphicsItem</text>
</a>
</g>
</g>
<!-- Node3&#45;&gt;Node5 -->
<g id="edge4" class="edge"><title>Node3&#45;&gt;Node5</title>
<path fill="none" stroke="midnightblue" d="M362.05,-944.627C373.229,-945.827 384.795,-947.068 395.995,-948.271"/>
<polygon fill="midnightblue" stroke="midnightblue" points="362.23,-941.126 351.913,-943.539 361.483,-948.086 362.23,-941.126"/>
</g>
<!-- Node7 -->
<g id="node7" class="node"><title>Node7</title>
<g id="a_node7"><a xlink:href="class_main_window.html#a34c4b4207b46d11a4100c9b19f0e81bb" target="_top" xlink:title="MainWindow::MainWindow">
<polygon fill="white" stroke="black" points="720.5,-690.5 720.5,-709.5 855.5,-709.5 855.5,-690.5 720.5,-690.5"/>
<text text-anchor="middle" x="788" y="-697.5" font-family="Helvetica,sans-Serif" font-size="10.00">MainWindow::MainWindow</text>
</a>
</g>
</g>
<!-- Node6&#45;&gt;Node7 -->
<g id="edge6" class="edge"><title>Node6&#45;&gt;Node7</title>
<path fill="none" stroke="midnightblue" d="M519.556,-802.865C528.415,-800.439 537.521,-797.776 546,-795 628.49,-767.992 723.579,-727.711 765.385,-709.522"/>
<polygon fill="midnightblue" stroke="midnightblue" points="518.462,-799.534 509.704,-805.497 520.269,-806.297 518.462,-799.534"/>
</g>
<!-- Node8 -->
<g id="node8" class="node"><title>Node8</title>
<g id="a_node8"><a xlink:href="class_point.html#a7f5e36e2e1bd0fa1564c1e4d5d74355c" target="_top" xlink:title="Modifie l&#39;abscisse du point indépendamment de son origine. ">
<polygon fill="white" stroke="black" points="582.5,-849.5 582.5,-868.5 683.5,-868.5 683.5,-849.5 582.5,-849.5"/>
<text text-anchor="middle" x="633" y="-856.5" font-family="Helvetica,sans-Serif" font-size="10.00">Point::setRelativeX</text>
</a>
</g>
</g>
<!-- Node6&#45;&gt;Node8 -->
<g id="edge7" class="edge"><title>Node6&#45;&gt;Node8</title>
<path fill="none" stroke="midnightblue" d="M515.094,-827.248C540.958,-834.272 572.944,-842.96 596.917,-849.471"/>
<polygon fill="midnightblue" stroke="midnightblue" points="515.719,-823.791 505.152,-824.547 513.885,-830.546 515.719,-823.791"/>
</g>
<!-- Node13 -->
<g id="node13" class="node"><title>Node13</title>
<g id="a_node13"><a xlink:href="class_point.html#abb67fd238634ebc25e4bdb3ab4cca9b6" target="_top" xlink:title="Modifie l&#39;ordonnée du point indépendamment de son origine. ">
<polygon fill="white" stroke="black" points="737.5,-805.5 737.5,-824.5 838.5,-824.5 838.5,-805.5 737.5,-805.5"/>
<text text-anchor="middle" x="788" y="-812.5" font-family="Helvetica,sans-Serif" font-size="10.00">Point::setRelativeY</text>
</a>
</g>
</g>
<!-- Node6&#45;&gt;Node13 -->
<g id="edge12" class="edge"><title>Node6&#45;&gt;Node13</title>
<path fill="none" stroke="midnightblue" d="M526.831,-815C586.794,-815 680.349,-815 737.42,-815"/>
<polygon fill="midnightblue" stroke="midnightblue" points="526.774,-811.5 516.774,-815 526.774,-818.5 526.774,-811.5"/>
</g>
<!-- Node9 -->
<g id="node9" class="node"><title>Node9</title>
<g id="a_node9"><a xlink:href="class_graphics_rectangle.html#a3efd2295cd742f75de829851bf7ca3dd" target="_top" xlink:title="GraphicsRectangle::\lsetWidth">
<polygon fill="white" stroke="black" points="735,-844 735,-874 841,-874 841,-844 735,-844"/>
<text text-anchor="start" x="743" y="-862" font-family="Helvetica,sans-Serif" font-size="10.00">GraphicsRectangle::</text>
<text text-anchor="middle" x="788" y="-851" font-family="Helvetica,sans-Serif" font-size="10.00">setWidth</text>
</a>
</g>
</g>
<!-- Node8&#45;&gt;Node9 -->
<g id="edge8" class="edge"><title>Node8&#45;&gt;Node9</title>
<path fill="none" stroke="midnightblue" d="M693.874,-859C707.438,-859 721.734,-859 734.944,-859"/>
<polygon fill="midnightblue" stroke="midnightblue" points="693.675,-855.5 683.675,-859 693.675,-862.5 693.675,-855.5"/>
</g>
<!-- Node10 -->
<g id="node10" class="node"><title>Node10</title>
<g id="a_node10"><a xlink:href="class_line_edit.html#a636e2ac65a70dd82fcf02f863da5c446" target="_top" xlink:title="LineEdit::setText">
<polygon fill="white" stroke="black" points="899.5,-849.5 899.5,-868.5 990.5,-868.5 990.5,-849.5 899.5,-849.5"/>
<text text-anchor="middle" x="945" y="-856.5" font-family="Helvetica,sans-Serif" font-size="10.00">LineEdit::setText</text>
</a>
</g>
</g>
<!-- Node9&#45;&gt;Node10 -->
<g id="edge9" class="edge"><title>Node9&#45;&gt;Node10</title>
<path fill="none" stroke="midnightblue" d="M851.427,-859C867.469,-859 884.408,-859 899.349,-859"/>
<polygon fill="midnightblue" stroke="midnightblue" points="851.044,-855.5 841.044,-859 851.044,-862.5 851.044,-855.5"/>
</g>
<!-- Node11 -->
<g id="node11" class="node"><title>Node11</title>
<g id="a_node11"><a xlink:href="class_line_edit.html#a04e1cd86821efe7570868ae397978186" target="_top" xlink:title="LineEdit::LineEdit">
<polygon fill="white" stroke="black" points="1051.5,-808.5 1051.5,-827.5 1144.5,-827.5 1144.5,-808.5 1051.5,-808.5"/>
<text text-anchor="middle" x="1098" y="-815.5" font-family="Helvetica,sans-Serif" font-size="10.00">LineEdit::LineEdit</text>
</a>
</g>
</g>
<!-- Node10&#45;&gt;Node11 -->
<g id="edge10" class="edge"><title>Node10&#45;&gt;Node11</title>
<path fill="none" stroke="midnightblue" d="M990.784,-846.84C1013.51,-840.669 1040.72,-833.282 1061.91,-827.529"/>
<polygon fill="midnightblue" stroke="midnightblue" points="989.755,-843.493 981.022,-849.491 991.59,-850.248 989.755,-843.493"/>
</g>
<!-- Node12 -->
<g id="node12" class="node"><title>Node12</title>
<g id="a_node12"><a xlink:href="class_line_edit.html#a8d5e79e8a895901381e301d41d3d4343" target="_top" xlink:title="LineEdit::meHandleEvent">
<polygon fill="white" stroke="black" points="1034,-849.5 1034,-868.5 1162,-868.5 1162,-849.5 1034,-849.5"/>
<text text-anchor="middle" x="1098" y="-856.5" font-family="Helvetica,sans-Serif" font-size="10.00">LineEdit::meHandleEvent</text>
</a>
</g>
</g>
<!-- Node10&#45;&gt;Node12 -->
<g id="edge11" class="edge"><title>Node10&#45;&gt;Node12</title>
<path fill="none" stroke="midnightblue" d="M1000.93,-859C1011.62,-859 1022.9,-859 1033.83,-859"/>
<polygon fill="midnightblue" stroke="midnightblue" points="1000.9,-855.5 990.896,-859 1000.9,-862.5 1000.9,-855.5"/>
</g>
<!-- Node14 -->
<g id="node14" class="node"><title>Node14</title>
<g id="a_node14"><a xlink:href="class_graphics_rectangle.html#aea349ac359e4f2227f1da772c1a26ab6" target="_top" xlink:title="GraphicsRectangle::\lsetHeight">
<polygon fill="white" stroke="black" points="892,-800 892,-830 998,-830 998,-800 892,-800"/>
<text text-anchor="start" x="900" y="-818" font-family="Helvetica,sans-Serif" font-size="10.00">GraphicsRectangle::</text>
<text text-anchor="middle" x="945" y="-807" font-family="Helvetica,sans-Serif" font-size="10.00">setHeight</text>
</a>
</g>
</g>
<!-- Node13&#45;&gt;Node14 -->
<g id="edge13" class="edge"><title>Node13&#45;&gt;Node14</title>
<path fill="none" stroke="midnightblue" d="M849.002,-815C863.119,-815 878.053,-815 891.796,-815"/>
<polygon fill="midnightblue" stroke="midnightblue" points="848.896,-811.5 838.896,-815 848.896,-818.5 848.896,-811.5"/>
</g>
<!-- Node14&#45;&gt;Node11 -->
<g id="edge14" class="edge"><title>Node14&#45;&gt;Node11</title>
<path fill="none" stroke="midnightblue" d="M1008.64,-816.245C1022.92,-816.528 1037.83,-816.824 1051.25,-817.091"/>
<polygon fill="midnightblue" stroke="midnightblue" points="1008.46,-812.74 998.389,-816.041 1008.32,-819.739 1008.46,-812.74"/>
</g>
<!-- Node15&#45;&gt;Node8 -->
<g id="edge44" class="edge"><title>Node15&#45;&gt;Node8</title>
<path fill="none" stroke="midnightblue" d="M148.393,-518.782C153.517,-585.274 173.697,-798.912 224,-841 334.933,-933.816 528.15,-890.137 602.068,-868.562"/>
<polygon fill="midnightblue" stroke="midnightblue" points="151.882,-518.495 147.652,-508.781 144.901,-519.012 151.882,-518.495"/>
</g>
<!-- Node15&#45;&gt;Node15 -->
<g id="edge25" class="edge"><title>Node15&#45;&gt;Node15</title>
<path fill="none" stroke="midnightblue" d="M125.26,-518.4C126.645,-523.315 133.559,-527 146,-527 165.906,-527 171.66,-517.565 163.262,-508.757"/>
<polygon fill="midnightblue" stroke="midnightblue" points="128.638,-519.351 128.738,-508.757 122.053,-516.977 128.638,-519.351"/>
</g>
<!-- Node16 -->
<g id="node16" class="node"><title>Node16</title>
<g id="a_node16"><a xlink:href="class_canvas.html#a4830e2b1c25e309489c489bad59ea9e1" target="_top" xlink:title="Canvas::drawPoint">
<polygon fill="white" stroke="black" points="240,-277.5 240,-296.5 340,-296.5 340,-277.5 240,-277.5"/>
<text text-anchor="middle" x="290" y="-284.5" font-family="Helvetica,sans-Serif" font-size="10.00">Canvas::drawPoint</text>
</a>
</g>
</g>
<!-- Node15&#45;&gt;Node16 -->
<g id="edge16" class="edge"><title>Node15&#45;&gt;Node16</title>
<path fill="none" stroke="midnightblue" d="M153.531,-479.947C169.533,-433.699 210.379,-318.382 224,-306 228.611,-301.809 234.099,-298.538 239.902,-295.987"/>
<polygon fill="midnightblue" stroke="midnightblue" points="150.217,-478.821 150.269,-489.415 156.836,-481.101 150.217,-478.821"/>
</g>
<!-- Node17 -->
<g id="node17" class="node"><title>Node17</title>
<g id="a_node17"><a xlink:href="class_canvas.html#aa379d9765fc40e770309001da99832c3" target="_top" xlink:title="Canvas::drawLine">
<polygon fill="white" stroke="black" points="242.5,-239.5 242.5,-258.5 337.5,-258.5 337.5,-239.5 242.5,-239.5"/>
<text text-anchor="middle" x="290" y="-246.5" font-family="Helvetica,sans-Serif" font-size="10.00">Canvas::drawLine</text>
</a>
</g>
</g>
<!-- Node15&#45;&gt;Node17 -->
<g id="edge17" class="edge"><title>Node15&#45;&gt;Node17</title>
<path fill="none" stroke="midnightblue" d="M153.946,-479.511C162.228,-456.158 176.407,-415.817 188,-381 204.651,-330.99 186.284,-304.821 224,-268 229.132,-262.99 235.508,-259.289 242.245,-256.557"/>
<polygon fill="midnightblue" stroke="midnightblue" points="150.539,-478.644 150.488,-489.239 157.135,-480.989 150.539,-478.644"/>
</g>
<!-- Node18 -->
<g id="node18" class="node"><title>Node18</title>
<g id="a_node18"><a xlink:href="class_canvas.html#a347a381b7cd7381a84f49a8bdd77244c" target="_top" xlink:title="Canvas::drawRectangle">
<polygon fill="white" stroke="black" points="229,-201.5 229,-220.5 351,-220.5 351,-201.5 229,-201.5"/>
<text text-anchor="middle" x="290" y="-208.5" font-family="Helvetica,sans-Serif" font-size="10.00">Canvas::drawRectangle</text>
</a>
</g>
</g>
<!-- Node15&#45;&gt;Node18 -->
<g id="edge18" class="edge"><title>Node15&#45;&gt;Node18</title>
<path fill="none" stroke="midnightblue" d="M154.395,-479.652C163.111,-456.434 177.71,-416.224 188,-381 207.346,-314.776 176.459,-279.997 224,-230 227.646,-226.166 232.018,-223.093 236.749,-220.631"/>
<polygon fill="midnightblue" stroke="midnightblue" points="151.003,-478.725 150.737,-489.317 157.55,-481.203 151.003,-478.725"/>
</g>
<!-- Node19 -->
<g id="node19" class="node"><title>Node19</title>
<g id="a_node19"><a xlink:href="class_canvas.html#a02f659c0cb7809f6dbb18746eb547778" target="_top" xlink:title="Canvas::drawCircle">
<polygon fill="white" stroke="black" points="238.5,-163.5 238.5,-182.5 341.5,-182.5 341.5,-163.5 238.5,-163.5"/>
<text text-anchor="middle" x="290" y="-170.5" font-family="Helvetica,sans-Serif" font-size="10.00">Canvas::drawCircle</text>
</a>
</g>
</g>
<!-- Node15&#45;&gt;Node19 -->
<g id="edge19" class="edge"><title>Node15&#45;&gt;Node19</title>
<path fill="none" stroke="midnightblue" d="M154.552,-480.043C163.526,-456.951 178.477,-416.611 188,-381 210.092,-298.393 166.511,-255.301 224,-192 228.031,-187.561 233.036,-184.137 238.466,-181.499"/>
<polygon fill="midnightblue" stroke="midnightblue" points="151.291,-478.773 150.891,-489.36 157.806,-481.333 151.291,-478.773"/>
</g>
<!-- Node20 -->
<g id="node20" class="node"><title>Node20</title>
<g id="a_node20"><a xlink:href="class_canvas.html#a7790d284aece3ffb4455af3846521e5b" target="_top" xlink:title="Canvas::drawTriangle">
<polygon fill="white" stroke="black" points="234,-125.5 234,-144.5 346,-144.5 346,-125.5 234,-125.5"/>
<text text-anchor="middle" x="290" y="-132.5" font-family="Helvetica,sans-Serif" font-size="10.00">Canvas::drawTriangle</text>
</a>
</g>
</g>
<!-- Node15&#45;&gt;Node20 -->
<g id="edge20" class="edge"><title>Node15&#45;&gt;Node20</title>
<path fill="none" stroke="midnightblue" d="M154.739,-480.091C163.897,-457.047 179.029,-416.754 188,-381 212.861,-281.922 156.502,-230.672 224,-154 227.418,-150.117 231.582,-147.008 236.133,-144.521"/>
<polygon fill="midnightblue" stroke="midnightblue" points="151.485,-478.803 150.996,-489.387 157.978,-481.418 151.485,-478.803"/>
</g>
<!-- Node21 -->
<g id="node21" class="node"><title>Node21</title>
<g id="a_node21"><a xlink:href="class_canvas.html#a34af1e9202967cbb4088e18296af8296" target="_top" xlink:title="Canvas::drawText">
<polygon fill="white" stroke="black" points="241.5,-593.5 241.5,-612.5 338.5,-612.5 338.5,-593.5 241.5,-593.5"/>
<text text-anchor="middle" x="290" y="-600.5" font-family="Helvetica,sans-Serif" font-size="10.00">Canvas::drawText</text>
</a>
</g>
</g>
<!-- Node15&#45;&gt;Node21 -->
<g id="edge21" class="edge"><title>Node15&#45;&gt;Node21</title>
<path fill="none" stroke="midnightblue" d="M158.929,-517.277C172.467,-536.606 196.302,-566.651 224,-584 230.178,-587.869 237.175,-590.979 244.234,-593.47"/>
<polygon fill="midnightblue" stroke="midnightblue" points="161.652,-515.058 153.138,-508.752 155.862,-518.991 161.652,-515.058"/>
</g>
<!-- Node22 -->
<g id="node22" class="node"><title>Node22</title>
<g id="a_node22"><a xlink:href="class_graphics_circle.html#a8533b7a4eb72f0063e98d8ad94210f16" target="_top" xlink:title="GraphicsCircle::meDraw">
<polygon fill="white" stroke="black" points="228,-555.5 228,-574.5 352,-574.5 352,-555.5 228,-555.5"/>
<text text-anchor="middle" x="290" y="-562.5" font-family="Helvetica,sans-Serif" font-size="10.00">GraphicsCircle::meDraw</text>
</a>
</g>
</g>
<!-- Node15&#45;&gt;Node22 -->
<g id="edge22" class="edge"><title>Node15&#45;&gt;Node22</title>
<path fill="none" stroke="midnightblue" d="M169.202,-514.214C184.184,-523.983 204.677,-536.405 224,-545 232.954,-548.983 242.934,-552.485 252.335,-555.4"/>
<polygon fill="midnightblue" stroke="midnightblue" points="170.912,-511.148 160.645,-508.532 167.04,-516.979 170.912,-511.148"/>
</g>
<!-- Node23 -->
<g id="node23" class="node"><title>Node23</title>
<g id="a_node23"><a xlink:href="class_graphics_rectangle.html#ab7b6075e46e61d99dc9569219f1079bd" target="_top" xlink:title="GraphicsRectangle::\lwidth">
<polygon fill="white" stroke="black" points="237,-802 237,-832 343,-832 343,-802 237,-802"/>
<text text-anchor="start" x="245" y="-820" font-family="Helvetica,sans-Serif" font-size="10.00">GraphicsRectangle::</text>
<text text-anchor="middle" x="290" y="-809" font-family="Helvetica,sans-Serif" font-size="10.00">width</text>
</a>
</g>
</g>
<!-- Node15&#45;&gt;Node23 -->
<g id="edge23" class="edge"><title>Node15&#45;&gt;Node23</title>
<path fill="none" stroke="midnightblue" d="M146.81,-518.707C147.356,-569.328 155.499,-705.642 224,-787 229.123,-793.085 235.747,-798.002 242.802,-801.956"/>
<polygon fill="midnightblue" stroke="midnightblue" points="150.31,-518.499 146.795,-508.504 143.31,-518.509 150.31,-518.499"/>
</g>
<!-- Node24 -->
<g id="node24" class="node"><title>Node24</title>
<g id="a_node24"><a xlink:href="class_graphics_square.html#a14374df804233349ce8654bbe41531e7" target="_top" xlink:title="GraphicsSquare::Graphics\lSquare">
<polygon fill="white" stroke="black" points="224.5,-506 224.5,-536 355.5,-536 355.5,-506 224.5,-506"/>
<text text-anchor="start" x="232.5" y="-524" font-family="Helvetica,sans-Serif" font-size="10.00">GraphicsSquare::Graphics</text>
<text text-anchor="middle" x="290" y="-513" font-family="Helvetica,sans-Serif" font-size="10.00">Square</text>
</a>
</g>
</g>
<!-- Node15&#45;&gt;Node24 -->
<g id="edge24" class="edge"><title>Node15&#45;&gt;Node24</title>
<path fill="none" stroke="midnightblue" d="M181,-504.268C194.042,-506.288 209.394,-508.667 224.366,-510.986"/>
<polygon fill="midnightblue" stroke="midnightblue" points="181.506,-500.804 171.088,-502.732 180.435,-507.722 181.506,-500.804"/>
</g>
<!-- Node15&#45;&gt;Node25 -->
<g id="edge26" class="edge"><title>Node15&#45;&gt;Node25</title>
<path fill="none" stroke="midnightblue" d="M151.624,-518.676C160.297,-551.42 182.036,-617.218 224,-655 234.102,-664.095 247.951,-669.837 260.27,-673.414"/>
<polygon fill="midnightblue" stroke="midnightblue" points="154.918,-517.421 149.089,-508.573 148.128,-519.124 154.918,-517.421"/>
</g>
<!-- Node29 -->
<g id="node29" class="node"><title>Node29</title>
<g id="a_node29"><a xlink:href="class_point.html#a498f108de0c0351dfb3177c681a7a1f2" target="_top" xlink:title="Quitte le groupe auquel le point appartient. ">
<polygon fill="white" stroke="black" points="429,-576.5 429,-595.5 509,-595.5 509,-576.5 429,-576.5"/>
<text text-anchor="middle" x="469" y="-583.5" font-family="Helvetica,sans-Serif" font-size="10.00">Point::beAlone</text>
</a>
</g>
</g>
<!-- Node15&#45;&gt;Node29 -->
<g id="edge38" class="edge"><title>Node15&#45;&gt;Node29</title>
<path fill="none" stroke="midnightblue" d="M152.562,-518.428C161.946,-547.119 183.937,-599.814 224,-622 275.323,-650.421 298.755,-634.837 356,-622 373.265,-618.128 375.337,-610.952 392,-605 403.783,-600.791 416.913,-597.153 428.899,-594.22"/>
<polygon fill="midnightblue" stroke="midnightblue" points="155.86,-517.247 149.571,-508.721 149.17,-519.308 155.86,-517.247"/>
</g>
<!-- Node32 -->
<g id="node32" class="node"><title>Node32</title>
<g id="a_node32"><a xlink:href="class_point.html#a3cdf750fa08f24c2aaaf7ada42df5ad8" target="_top" xlink:title="Modifie l&#39;ordonnée du point par rapport à son origine. ">
<polygon fill="white" stroke="black" points="436.5,-766.5 436.5,-785.5 501.5,-785.5 501.5,-766.5 436.5,-766.5"/>
<text text-anchor="middle" x="469" y="-773.5" font-family="Helvetica,sans-Serif" font-size="10.00">Point::setY</text>
</a>
</g>
</g>
<!-- Node15&#45;&gt;Node32 -->
<g id="edge47" class="edge"><title>Node15&#45;&gt;Node32</title>
<path fill="none" stroke="midnightblue" d="M146.189,-518.816C145.386,-567.695 150.817,-694.367 224,-754 284.999,-803.705 385.26,-793.06 436.182,-783.332"/>
<polygon fill="midnightblue" stroke="midnightblue" points="149.693,-518.728 146.471,-508.635 142.696,-518.534 149.693,-518.728"/>
</g>
<!-- Node33 -->
<g id="node33" class="node"><title>Node33</title>
<g id="a_node33"><a xlink:href="_point_8cpp.html#a872cb140a1e5f546a31b4b3d891b765a" target="_top" xlink:title="Surchage de l&#39;operateur ==. ">
<polygon fill="white" stroke="black" points="258,-353.5 258,-372.5 322,-372.5 322,-353.5 258,-353.5"/>
<text text-anchor="middle" x="290" y="-360.5" font-family="Helvetica,sans-Serif" font-size="10.00">operator==</text>
</a>
</g>
</g>
<!-- Node15&#45;&gt;Node33 -->
<g id="edge39" class="edge"><title>Node15&#45;&gt;Node33</title>
<path fill="none" stroke="midnightblue" d="M154.482,-479.998C165.686,-454.003 189.284,-407.663 224,-382 233.832,-374.732 246.404,-370.233 257.865,-367.454"/>
<polygon fill="midnightblue" stroke="midnightblue" points="151.149,-478.898 150.56,-489.476 157.618,-481.574 151.149,-478.898"/>
</g>
<!-- Node34 -->
<g id="node34" class="node"><title>Node34</title>
<g id="a_node34"><a xlink:href="_point_8cpp.html#a4158330ef851082d91a82eefd03aa183" target="_top" xlink:title="Surchage de l&#39;operateur +. ">
<polygon fill="white" stroke="black" points="261,-315.5 261,-334.5 319,-334.5 319,-315.5 261,-315.5"/>
<text text-anchor="middle" x="290" y="-322.5" font-family="Helvetica,sans-Serif" font-size="10.00">operator+</text>
</a>
</g>
</g>
<!-- Node15&#45;&gt;Node34 -->
<g id="edge40" class="edge"><title>Node15&#45;&gt;Node34</title>
<path fill="none" stroke="midnightblue" d="M151.274,-479.558C159.515,-446.697 180.74,-380.22 224,-344 234.276,-335.396 248.29,-330.687 260.675,-328.11"/>
<polygon fill="midnightblue" stroke="midnightblue" points="147.861,-478.784 148.964,-489.321 154.673,-480.396 147.861,-478.784"/>
</g>
<!-- Node35 -->
<g id="node35" class="node"><title>Node35</title>
<g id="a_node35"><a xlink:href="_point_8cpp.html#af304a4bde169f417ea02e56d3d4b7258" target="_top" xlink:title="Surchage de l&#39;operateur &#45;. ">
<polygon fill="white" stroke="black" points="262.5,-467.5 262.5,-486.5 317.5,-486.5 317.5,-467.5 262.5,-467.5"/>
<text text-anchor="middle" x="290" y="-474.5" font-family="Helvetica,sans-Serif" font-size="10.00">operator&#45;</text>
</a>
</g>
</g>
<!-- Node15&#45;&gt;Node35 -->
<g id="edge41" class="edge"><title>Node15&#45;&gt;Node35</title>
<path fill="none" stroke="midnightblue" d="M181.205,-493.701C206.131,-489.839 239.418,-484.682 262.374,-481.125"/>
<polygon fill="midnightblue" stroke="midnightblue" points="180.435,-490.278 171.088,-495.268 181.506,-497.196 180.435,-490.278"/>
</g>
<!-- Node36 -->
<g id="node36" class="node"><title>Node36</title>
<g id="a_node36"><a xlink:href="_point_8cpp.html#aab55cf13db83c55c46a961b2b2441960" target="_top" xlink:title="Surchage de l&#39;operateur &lt;&lt;. ">
<polygon fill="white" stroke="black" points="258,-429.5 258,-448.5 322,-448.5 322,-429.5 258,-429.5"/>
<text text-anchor="middle" x="290" y="-436.5" font-family="Helvetica,sans-Serif" font-size="10.00">operator&lt;&lt;</text>
</a>
</g>
</g>
<!-- Node15&#45;&gt;Node36 -->
<g id="edge42" class="edge"><title>Node15&#45;&gt;Node36</title>
<path fill="none" stroke="midnightblue" d="M171.763,-484.141C186.559,-475.69 205.936,-465.358 224,-458 234.779,-453.609 246.942,-449.773 257.807,-446.719"/>
<polygon fill="midnightblue" stroke="midnightblue" points="169.648,-481.321 162.76,-489.372 173.165,-487.374 169.648,-481.321"/>
</g>
<!-- Node37 -->
<g id="node37" class="node"><title>Node37</title>
<g id="a_node37"><a xlink:href="_point_8cpp.html#a4e1acba0f26daf714b7816d3c1994a74" target="_top" xlink:title="Surchage de l&#39;operateur &lt;. ">
<polygon fill="white" stroke="black" points="261,-391.5 261,-410.5 319,-410.5 319,-391.5 261,-391.5"/>
<text text-anchor="middle" x="290" y="-398.5" font-family="Helvetica,sans-Serif" font-size="10.00">operator&lt;</text>
</a>
</g>
</g>
<!-- Node15&#45;&gt;Node37 -->
<g id="edge43" class="edge"><title>Node15&#45;&gt;Node37</title>
<path fill="none" stroke="midnightblue" d="M160.038,-480.982C173.947,-463.02 197.582,-435.883 224,-420 235.185,-413.276 248.89,-408.811 260.828,-405.91"/>
<polygon fill="midnightblue" stroke="midnightblue" points="156.898,-479.335 153.687,-489.431 162.493,-483.541 156.898,-479.335"/>
</g>
<!-- Node38 -->
<g id="node38" class="node"><title>Node38</title>
<g id="a_node38"><a xlink:href="class_point.html#a61727372965e26cbd7e661157d959ae9" target="_top" xlink:title="Modifie les coordonnées du point indépendamment de son origine. ">
<polygon fill="white" stroke="black" points="242.5,-707.5 242.5,-726.5 337.5,-726.5 337.5,-707.5 242.5,-707.5"/>
<text text-anchor="middle" x="290" y="-714.5" font-family="Helvetica,sans-Serif" font-size="10.00">Point::setRelative</text>
</a>
</g>
</g>
<!-- Node15&#45;&gt;Node38 -->
<g id="edge45" class="edge"><title>Node15&#45;&gt;Node38</title>
<path fill="none" stroke="midnightblue" d="M148.887,-518.513C153.782,-558.23 170.5,-648.855 224,-698 229.195,-702.772 235.525,-706.351 242.174,-709.034"/>
<polygon fill="midnightblue" stroke="midnightblue" points="152.361,-518.085 147.779,-508.532 145.404,-518.857 152.361,-518.085"/>
</g>
<!-- Node25&#45;&gt;Node6 -->
<g id="edge30" class="edge"><title>Node25&#45;&gt;Node6</title>
<path fill="none" stroke="midnightblue" d="M329.605,-684.029C339.153,-686.846 348.721,-691.22 356,-698 389.649,-729.341 357.93,-764.117 392,-795 400.188,-802.422 410.803,-807.15 421.49,-810.145"/>
<polygon fill="midnightblue" stroke="midnightblue" points="330.303,-680.597 319.758,-681.62 328.64,-687.396 330.303,-680.597"/>
</g>
<!-- Node25&#45;&gt;Node7 -->
<g id="edge29" class="edge"><title>Node25&#45;&gt;Node7</title>
<path fill="none" stroke="midnightblue" d="M329.964,-681.51C348.714,-682.667 371.518,-684.003 392,-685 507.326,-690.615 641.681,-695.328 720.237,-697.9"/>
<polygon fill="midnightblue" stroke="midnightblue" points="329.923,-678 319.724,-680.87 329.487,-684.987 329.923,-678"/>
</g>
<!-- Node26 -->
<g id="node26" class="node"><title>Node26</title>
<g id="a_node26"><a xlink:href="class_graphics_point.html#ac1242633c38521d881c9aa3548676dd4" target="_top" xlink:title="GraphicsPoint::GraphicsPoint">
<polygon fill="white" stroke="black" points="396,-614.5 396,-633.5 542,-633.5 542,-614.5 396,-614.5"/>
<text text-anchor="middle" x="469" y="-621.5" font-family="Helvetica,sans-Serif" font-size="10.00">GraphicsPoint::GraphicsPoint</text>
</a>
</g>
</g>
<!-- Node25&#45;&gt;Node26 -->
<g id="edge27" class="edge"><title>Node25&#45;&gt;Node26</title>
<path fill="none" stroke="midnightblue" d="M329.416,-667.063C361.779,-657.007 407.463,-642.811 437.398,-633.509"/>
<polygon fill="midnightblue" stroke="midnightblue" points="328.343,-663.731 319.832,-670.041 330.42,-670.416 328.343,-663.731"/>
</g>
<!-- Node27 -->
<g id="node27" class="node"><title>Node27</title>
<g id="a_node27"><a xlink:href="class_graphics_point.html#aaceb83d2bd068629dccfde4aee9c60f5" target="_top" xlink:title="GraphicsPoint::meHandleEvent">
<polygon fill="white" stroke="black" points="392,-728.5 392,-747.5 546,-747.5 546,-728.5 392,-728.5"/>
<text text-anchor="middle" x="469" y="-735.5" font-family="Helvetica,sans-Serif" font-size="10.00">GraphicsPoint::meHandleEvent</text>
</a>
</g>
</g>
<!-- Node25&#45;&gt;Node27 -->
<g id="edge28" class="edge"><title>Node25&#45;&gt;Node27</title>
<path fill="none" stroke="midnightblue" d="M329.424,-689.306C338.229,-691.923 347.498,-694.884 356,-698 372.44,-704.025 375.626,-707.798 392,-714 405.845,-719.244 421.394,-724.297 434.803,-728.403"/>
<polygon fill="midnightblue" stroke="midnightblue" points="330.323,-685.923 319.745,-686.508 328.379,-692.648 330.323,-685.923"/>
</g>
<!-- Node28 -->
<g id="node28" class="node"><title>Node28</title>
<g id="a_node28"><a xlink:href="class_point.html#a4fa7ffadfb6c9de033bfef5decdaa66e" target="_top" xlink:title="Rejoint le groupe d&#39;un point. ">
<polygon fill="white" stroke="black" points="603,-652.5 603,-671.5 663,-671.5 663,-652.5 603,-652.5"/>
<text text-anchor="middle" x="633" y="-659.5" font-family="Helvetica,sans-Serif" font-size="10.00">Point::join</text>
</a>
</g>
</g>
<!-- Node25&#45;&gt;Node28 -->
<g id="edge31" class="edge"><title>Node25&#45;&gt;Node28</title>
<path fill="none" stroke="midnightblue" d="M329.812,-677.065C398.874,-673.622 541.592,-666.507 602.936,-663.449"/>
<polygon fill="midnightblue" stroke="midnightblue" points="329.593,-673.572 319.78,-677.565 329.941,-680.563 329.593,-673.572"/>
</g>
<!-- Node25&#45;&gt;Node29 -->
<g id="edge33" class="edge"><title>Node25&#45;&gt;Node29</title>
<path fill="none" stroke="midnightblue" d="M329.254,-669.135C338.57,-665.623 348.112,-660.999 356,-655 377.795,-638.423 369.336,-620.368 392,-605 402.806,-597.672 416.195,-593.168 428.711,-590.401"/>
<polygon fill="midnightblue" stroke="midnightblue" points="328.035,-665.853 319.708,-672.403 330.302,-672.475 328.035,-665.853"/>
</g>
<!-- Node31 -->
<g id="node31" class="node"><title>Node31</title>
<g id="a_node31"><a xlink:href="class_point.html#a62fd0fb2c699d6d4699d3be73762ffa2" target="_top" xlink:title="Modifie l&#39;abscisse du point par rapport à son origine. ">
<polygon fill="white" stroke="black" points="436.5,-293.5 436.5,-312.5 501.5,-312.5 501.5,-293.5 436.5,-293.5"/>
<text text-anchor="middle" x="469" y="-300.5" font-family="Helvetica,sans-Serif" font-size="10.00">Point::setX</text>
</a>
</g>
</g>
<!-- Node25&#45;&gt;Node31 -->
<g id="edge36" class="edge"><title>Node25&#45;&gt;Node31</title>
<path fill="none" stroke="midnightblue" d="M314.013,-663.507C327.844,-653.168 344.865,-638.478 356,-622 428.958,-514.034 459.605,-353.429 466.459,-312.673"/>
<polygon fill="midnightblue" stroke="midnightblue" points="311.959,-660.672 305.894,-669.359 316.053,-666.351 311.959,-660.672"/>
</g>
<!-- Node25&#45;&gt;Node32 -->
<g id="edge37" class="edge"><title>Node25&#45;&gt;Node32</title>
<path fill="none" stroke="midnightblue" d="M329.573,-685.25C338.87,-688.057 348.323,-692.12 356,-698 380.386,-716.68 367.251,-738.805 392,-757 404.821,-766.426 421.797,-771.204 436.453,-773.615"/>
<polygon fill="midnightblue" stroke="midnightblue" points="330.198,-681.796 319.639,-682.671 328.439,-688.572 330.198,-681.796"/>
</g>
<!-- Node28&#45;&gt;Node7 -->
<g id="edge32" class="edge"><title>Node28&#45;&gt;Node7</title>
<path fill="none" stroke="midnightblue" d="M673.009,-671.689C696.241,-677.459 725.602,-684.751 748.706,-690.489"/>
<polygon fill="midnightblue" stroke="midnightblue" points="673.687,-668.251 663.138,-669.237 672,-675.044 673.687,-668.251"/>
</g>
<!-- Node29&#45;&gt;Node28 -->
<g id="edge35" class="edge"><title>Node29&#45;&gt;Node28</title>
<path fill="none" stroke="midnightblue" d="M518.95,-595.622C528.127,-598.154 537.5,-601.254 546,-605 574.684,-617.643 604.339,-639.637 620.234,-652.289"/>
<polygon fill="midnightblue" stroke="midnightblue" points="519.677,-592.196 509.121,-593.095 517.934,-598.975 519.677,-592.196"/>
</g>
<!-- Node30 -->
<g id="node30" class="node"><title>Node30</title>
<g id="a_node30"><a xlink:href="class_point.html#a395fa04b4ec126b66fc053f829a30cc1" target="_top" xlink:title="Destructeur. ">
<polygon fill="white" stroke="black" points="596,-576.5 596,-595.5 670,-595.5 670,-576.5 596,-576.5"/>
<text text-anchor="middle" x="633" y="-583.5" font-family="Helvetica,sans-Serif" font-size="10.00">Point::~Point</text>
</a>
</g>
</g>
<!-- Node29&#45;&gt;Node30 -->
<g id="edge34" class="edge"><title>Node29&#45;&gt;Node30</title>
<path fill="none" stroke="midnightblue" d="M519.468,-586C544.126,-586 573.404,-586 595.915,-586"/>
<polygon fill="midnightblue" stroke="midnightblue" points="519.216,-582.5 509.216,-586 519.216,-589.5 519.216,-582.5"/>
</g>
<!-- Node38&#45;&gt;Node38 -->
<g id="edge46" class="edge"><title>Node38&#45;&gt;Node38</title>
<path fill="none" stroke="midnightblue" d="M263.121,-735.654C264.244,-740.937 273.204,-745 290,-745 315.594,-745 322.992,-735.565 312.195,-726.757"/>
<polygon fill="midnightblue" stroke="midnightblue" points="266.243,-737.236 267.805,-726.757 260.049,-733.975 266.243,-737.236"/>
</g>
<!-- Node39&#45;&gt;Node16 -->
<g id="edge49" class="edge"><title>Node39&#45;&gt;Node16</title>
<path fill="none" stroke="midnightblue" d="M173.323,-329.587C187.965,-321.935 206.68,-312.746 224,-306 232.983,-302.501 242.881,-299.294 252.185,-296.551"/>
<polygon fill="midnightblue" stroke="midnightblue" points="171.537,-326.573 164.345,-334.353 174.819,-332.756 171.537,-326.573"/>
</g>
<!-- Node39&#45;&gt;Node17 -->
<g id="edge50" class="edge"><title>Node39&#45;&gt;Node17</title>
<path fill="none" stroke="midnightblue" d="M160.635,-326.134C174.717,-308.869 198.218,-283.163 224,-268 230.486,-264.186 237.791,-261.091 245.101,-258.594"/>
<polygon fill="midnightblue" stroke="midnightblue" points="157.637,-324.283 154.168,-334.293 163.122,-328.631 157.637,-324.283"/>
</g>
<!-- Node39&#45;&gt;Node18 -->
<g id="edge51" class="edge"><title>Node39&#45;&gt;Node18</title>
<path fill="none" stroke="midnightblue" d="M154.784,-325.106C166.209,-299.707 189.921,-254.877 224,-230 229.318,-226.118 235.419,-223.025 241.707,-220.562"/>
<polygon fill="midnightblue" stroke="midnightblue" points="151.524,-323.827 150.766,-334.394 157.948,-326.606 151.524,-323.827"/>
</g>
<!-- Node39&#45;&gt;Node19 -->
<g id="edge52" class="edge"><title>Node39&#45;&gt;Node19</title>
<path fill="none" stroke="midnightblue" d="M151.621,-324.039C160.191,-291.509 181.661,-227.169 224,-192 228.703,-188.094 234.177,-184.99 239.915,-182.525"/>
<polygon fill="midnightblue" stroke="midnightblue" points="148.131,-323.57 149.114,-334.119 154.924,-325.259 148.131,-323.57"/>
</g>
<!-- Node39&#45;&gt;Node20 -->
<g id="edge53" class="edge"><title>Node39&#45;&gt;Node20</title>
<path fill="none" stroke="midnightblue" d="M149.354,-324.076C154.983,-285.488 172.798,-200.292 224,-154 228.273,-150.137 233.292,-147.056 238.614,-144.6"/>
<polygon fill="midnightblue" stroke="midnightblue" points="145.822,-324.087 147.975,-334.46 152.761,-325.008 145.822,-324.087"/>
</g>
<!-- Node39&#45;&gt;Node21 -->
<g id="edge54" class="edge"><title>Node39&#45;&gt;Node21</title>
<path fill="none" stroke="midnightblue" d="M152.933,-363.317C170.267,-419.639 219.868,-579.974 224,-584 228.884,-588.759 234.892,-592.336 241.263,-595.024"/>
<polygon fill="midnightblue" stroke="midnightblue" points="156.205,-362.046 149.92,-353.517 149.514,-364.104 156.205,-362.046"/>
</g>
<!-- Node39&#45;&gt;Node22 -->
<g id="edge55" class="edge"><title>Node39&#45;&gt;Node22</title>
<path fill="none" stroke="midnightblue" d="M152.095,-363.403C164.326,-408.632 196.385,-519.185 224,-545 228.658,-549.354 234.242,-552.761 240.156,-555.427"/>
<polygon fill="midnightblue" stroke="midnightblue" points="155.447,-362.391 149.487,-353.631 148.684,-364.196 155.447,-362.391"/>
</g>
<!-- Node39&#45;&gt;Node24 -->
<g id="edge57" class="edge"><title>Node39&#45;&gt;Node24</title>
<path fill="none" stroke="midnightblue" d="M151.955,-363.575C161.006,-395.55 183.152,-459.109 224,-496 228.217,-499.809 233.077,-503.062 238.201,-505.834"/>
<polygon fill="midnightblue" stroke="midnightblue" points="155.269,-362.424 149.29,-353.678 148.51,-364.244 155.269,-362.424"/>
</g>
<!-- Node39&#45;&gt;Node25 -->
<g id="edge59" class="edge"><title>Node39&#45;&gt;Node25</title>
<path fill="none" stroke="midnightblue" d="M153.129,-363.346C161.393,-389.648 176.408,-438.206 188,-480 205.401,-542.739 189.992,-566.48 224,-622 236.465,-642.35 258.52,-659.41 273.445,-669.416"/>
<polygon fill="midnightblue" stroke="midnightblue" points="156.376,-362.005 150.03,-353.521 149.7,-364.111 156.376,-362.005"/>
</g>
<!-- Node39&#45;&gt;Node29 -->
<g id="edge60" class="edge"><title>Node39&#45;&gt;Node29</title>
<path fill="none" stroke="midnightblue" d="M146.682,-324.34C147.143,-278.596 155.475,-165.185 224,-116 271.66,-81.7909 311.087,-78.2556 356,-116 391.577,-145.898 381.557,-276.717 392,-322 415.151,-422.386 453.34,-541.316 464.709,-576.031"/>
<polygon fill="midnightblue" stroke="midnightblue" points="143.182,-324.439 146.702,-334.432 150.182,-324.425 143.182,-324.439"/>
</g>
<!-- Node39&#45;&gt;Node31 -->
<g id="edge66" class="edge"><title>Node39&#45;&gt;Node31</title>
<path fill="none" stroke="midnightblue" d="M149.768,-324.277C158.018,-268.652 184.353,-112.64 224,-83 270.988,-47.8725 305.984,-52.3381 356,-83 435.656,-131.832 460.866,-257.032 466.595,-293.125"/>
<polygon fill="midnightblue" stroke="midnightblue" points="146.29,-323.872 148.322,-334.27 153.218,-324.875 146.29,-323.872"/>
</g>
<!-- Node39&#45;&gt;Node33 -->
<g id="edge61" class="edge"><title>Node39&#45;&gt;Node33</title>
<path fill="none" stroke="midnightblue" d="M181.234,-348.581C204.554,-351.701 235.182,-355.799 257.824,-358.829"/>
<polygon fill="midnightblue" stroke="midnightblue" points="181.464,-345.08 171.088,-347.223 180.536,-352.018 181.464,-345.08"/>
</g>
<!-- Node39&#45;&gt;Node34 -->
<g id="edge62" class="edge"><title>Node39&#45;&gt;Node34</title>
<path fill="none" stroke="midnightblue" d="M181.004,-339.45C205.419,-336.183 237.932,-331.833 260.884,-328.762"/>
<polygon fill="midnightblue" stroke="midnightblue" points="180.536,-335.982 171.088,-340.777 181.464,-342.92 180.536,-335.982"/>
</g>
<!-- Node39&#45;&gt;Node35 -->
<g id="edge63" class="edge"><title>Node39&#45;&gt;Node35</title>
<path fill="none" stroke="midnightblue" d="M154.784,-362.894C166.209,-388.293 189.921,-433.123 224,-458 235.205,-466.18 249.891,-470.855 262.468,-473.52"/>
<polygon fill="midnightblue" stroke="midnightblue" points="157.948,-361.394 150.766,-353.606 151.524,-364.173 157.948,-361.394"/>
</g>
<!-- Node39&#45;&gt;Node36 -->
<g id="edge64" class="edge"><title>Node39&#45;&gt;Node36</title>
<path fill="none" stroke="midnightblue" d="M160.635,-361.866C174.717,-379.131 198.218,-404.837 224,-420 234.337,-426.079 246.756,-430.33 257.956,-433.245"/>
<polygon fill="midnightblue" stroke="midnightblue" points="163.122,-359.369 154.168,-353.707 157.637,-363.717 163.122,-359.369"/>
</g>
<!-- Node39&#45;&gt;Node37 -->
<g id="edge65" class="edge"><title>Node39&#45;&gt;Node37</title>
<path fill="none" stroke="midnightblue" d="M173.323,-358.413C187.965,-366.065 206.68,-375.254 224,-382 235.832,-386.608 249.249,-390.71 260.808,-393.912"/>
<polygon fill="midnightblue" stroke="midnightblue" points="174.819,-355.244 164.345,-353.647 171.537,-361.427 174.819,-355.244"/>
</g>
<!-- Node39&#45;&gt;Node39 -->
<g id="edge58" class="edge"><title>Node39&#45;&gt;Node39</title>
<path fill="none" stroke="midnightblue" d="M125.26,-363.4C126.645,-368.315 133.559,-372 146,-372 165.906,-372 171.66,-362.565 163.262,-353.757"/>
<polygon fill="midnightblue" stroke="midnightblue" points="128.638,-364.351 128.738,-353.757 122.053,-361.977 128.638,-364.351"/>
</g>
<!-- Node40 -->
<g id="node40" class="node"><title>Node40</title>
<g id="a_node40"><a xlink:href="class_graphics_rectangle.html#ab1a0b1219fdc7694c6f5902c19f9e429" target="_top" xlink:title="GraphicsRectangle::\lheight">
<polygon fill="white" stroke="black" points="237,-0 237,-30 343,-30 343,-0 237,-0"/>
<text text-anchor="start" x="245" y="-18" font-family="Helvetica,sans-Serif" font-size="10.00">GraphicsRectangle::</text>
<text text-anchor="middle" x="290" y="-7" font-family="Helvetica,sans-Serif" font-size="10.00">height</text>
</a>
</g>
</g>
<!-- Node39&#45;&gt;Node40 -->
<g id="edge56" class="edge"><title>Node39&#45;&gt;Node40</title>
<path fill="none" stroke="midnightblue" d="M146.57,-324.238C146.486,-272.271 153.134,-129.956 224,-45 229.095,-38.8917 235.705,-33.9626 242.754,-30.0048"/>
<polygon fill="midnightblue" stroke="midnightblue" points="143.072,-324.453 146.68,-334.414 150.072,-324.377 143.072,-324.453"/>
</g>
</g>
</svg>
