<?xml version="1.0" encoding="UTF-8" standalone="no"?>
<!DOCTYPE svg PUBLIC "-//W3C//DTD SVG 1.1//EN"
 "http://www.w3.org/Graphics/SVG/1.1/DTD/svg11.dtd">
<!-- Generated by graphviz version 2.36.0 (20140111.2315)
 -->
<!-- Title: Widget::setHeight Pages: 1 -->
<svg width="378pt" height="28pt"
 viewBox="0.00 0.00 378.00 28.00" xmlns="http://www.w3.org/2000/svg" xmlns:xlink="http://www.w3.org/1999/xlink">
<g id="graph0" class="graph" transform="scale(1 1) rotate(0) translate(4 24)">
<title>Widget::setHeight</title>
<polygon fill="white" stroke="none" points="-4,4 -4,-24 374,-24 374,4 -4,4"/>
<!-- Node1 -->
<g id="node1" class="node"><title>Node1</title>
<polygon fill="#bfbfbf" stroke="black" points="0.5,-0.5 0.5,-19.5 95.5,-19.5 95.5,-0.5 0.5,-0.5"/>
<text text-anchor="middle" x="48" y="-7.5" font-family="Helvetica,sans-Serif" font-size="10.00">Widget::setHeight</text>
</g>
<!-- Node2 -->
<g id="node2" class="node"><title>Node2</title>
<g id="a_node2"><a xlink:href="class_widget.html#a5122729ed923e75463ee8f8bbcdb0cfa" target="_top" xlink:title="Widget::height">
<polygon fill="white" stroke="black" points="132,-0.5 132,-19.5 212,-19.5 212,-0.5 132,-0.5"/>
<text text-anchor="middle" x="172" y="-7.5" font-family="Helvetica,sans-Serif" font-size="10.00">Widget::height</text>
</a>
</g>
</g>
<!-- Node1&#45;&gt;Node2 -->
<g id="edge1" class="edge"><title>Node1&#45;&gt;Node2</title>
<path fill="none" stroke="midnightblue" d="M95.8195,-10C104.227,-10 113.016,-10 121.497,-10"/>
<polygon fill="midnightblue" stroke="midnightblue" points="121.643,-13.5001 131.643,-10 121.643,-6.5001 121.643,-13.5001"/>
</g>
<!-- Node3 -->
<g id="node3" class="node"><title>Node3</title>
<g id="a_node3"><a xlink:href="class_widget.html#a037c4fd4ada38dfc4af381642eb66127" target="_top" xlink:title="Widget::minimumHeight">
<polygon fill="white" stroke="black" points="248,-0.5 248,-19.5 370,-19.5 370,-0.5 248,-0.5"/>
<text text-anchor="middle" x="309" y="-7.5" font-family="Helvetica,sans-Serif" font-size="10.00">Widget::minimumHeight</text>
</a>
</g>
</g>
<!-- Node2&#45;&gt;Node3 -->
<g id="edge2" class="edge"><title>Node2&#45;&gt;Node3</title>
<path fill="none" stroke="midnightblue" d="M212.048,-10C220.195,-10 229.019,-10 237.904,-10"/>
<polygon fill="midnightblue" stroke="midnightblue" points="237.927,-13.5001 247.927,-10 237.927,-6.5001 237.927,-13.5001"/>
</g>
</g>
</svg>
