<?xml version="1.0" encoding="UTF-8" standalone="no"?>
<!DOCTYPE svg PUBLIC "-//W3C//DTD SVG 1.1//EN"
 "http://www.w3.org/Graphics/SVG/1.1/DTD/svg11.dtd">
<!-- Generated by graphviz version 2.36.0 (20140111.2315)
 -->
<!-- Title: Widget Pages: 1 -->
<svg width="154pt" height="640pt"
 viewBox="0.00 0.00 154.00 640.00" xmlns="http://www.w3.org/2000/svg" xmlns:xlink="http://www.w3.org/1999/xlink">
<g id="graph0" class="graph" transform="scale(1 1) rotate(0) translate(4 636)">
<title>Widget</title>
<polygon fill="white" stroke="none" points="-4,4 -4,-636 150,-636 150,4 -4,4"/>
<!-- Node1 -->
<g id="node1" class="node"><title>Node1</title>
<polygon fill="#bfbfbf" stroke="black" points="0,-0.5 0,-255.5 146,-255.5 146,-0.5 0,-0.5"/>
<text text-anchor="middle" x="73" y="-243.5" font-family="Helvetica,sans-Serif" font-size="10.00">Widget</text>
<polyline fill="none" stroke="black" points="0,-236.5 146,-236.5 "/>
<text text-anchor="start" x="8" y="-224.5" font-family="Helvetica,sans-Serif" font-size="10.00"># m_minimumWidthChanged</text>
<text text-anchor="start" x="8" y="-213.5" font-family="Helvetica,sans-Serif" font-size="10.00"># m_minimumHeightChanged</text>
<polyline fill="none" stroke="black" points="0,-206.5 146,-206.5 "/>
<text text-anchor="start" x="8" y="-194.5" font-family="Helvetica,sans-Serif" font-size="10.00">+ Widget()</text>
<text text-anchor="start" x="8" y="-183.5" font-family="Helvetica,sans-Serif" font-size="10.00">+ Widget()</text>
<text text-anchor="start" x="8" y="-172.5" font-family="Helvetica,sans-Serif" font-size="10.00">+ Widget()</text>
<text text-anchor="start" x="8" y="-161.5" font-family="Helvetica,sans-Serif" font-size="10.00">+ width()</text>
<text text-anchor="start" x="8" y="-150.5" font-family="Helvetica,sans-Serif" font-size="10.00">+ setWidth()</text>
<text text-anchor="start" x="8" y="-139.5" font-family="Helvetica,sans-Serif" font-size="10.00">+ height()</text>
<text text-anchor="start" x="8" y="-128.5" font-family="Helvetica,sans-Serif" font-size="10.00">+ setHeight()</text>
<text text-anchor="start" x="8" y="-117.5" font-family="Helvetica,sans-Serif" font-size="10.00">+ minimumWidth()</text>
<text text-anchor="start" x="8" y="-106.5" font-family="Helvetica,sans-Serif" font-size="10.00">+ minimumHeight()</text>
<text text-anchor="start" x="8" y="-95.5" font-family="Helvetica,sans-Serif" font-size="10.00">+ widthChanged()</text>
<text text-anchor="start" x="8" y="-84.5" font-family="Helvetica,sans-Serif" font-size="10.00">+ heightChanged()</text>
<text text-anchor="start" x="8" y="-73.5" font-family="Helvetica,sans-Serif" font-size="10.00">+ minimumWidthChanged()</text>
<text text-anchor="start" x="8" y="-62.5" font-family="Helvetica,sans-Serif" font-size="10.00">+ minimumHeightChanged()</text>
<text text-anchor="start" x="8" y="-51.5" font-family="Helvetica,sans-Serif" font-size="10.00"># meIsOver()</text>
<text text-anchor="start" x="8" y="-40.5" font-family="Helvetica,sans-Serif" font-size="10.00">* widthChanged()</text>
<text text-anchor="start" x="8" y="-29.5" font-family="Helvetica,sans-Serif" font-size="10.00">* heightChanged()</text>
<text text-anchor="start" x="8" y="-18.5" font-family="Helvetica,sans-Serif" font-size="10.00">* minimumWidthChanged()</text>
<text text-anchor="start" x="8" y="-7.5" font-family="Helvetica,sans-Serif" font-size="10.00">* minimumHeightChanged()</text>
</g>
<!-- Node2 -->
<g id="node2" class="node"><title>Node2</title>
<g id="a_node2"><a xlink:href="class_graphics_item.html" target="_top" xlink:title="Classe de base. ">
<polygon fill="white" stroke="black" points="22.5,-293 22.5,-537 123.5,-537 123.5,-293 22.5,-293"/>
<text text-anchor="middle" x="73" y="-525" font-family="Helvetica,sans-Serif" font-size="10.00">GraphicsItem</text>
<polyline fill="none" stroke="black" points="22.5,-518 123.5,-518 "/>
<text text-anchor="middle" x="73" y="-506" font-family="Helvetica,sans-Serif" font-size="10.00"> </text>
<polyline fill="none" stroke="black" points="22.5,-499 123.5,-499 "/>
<text text-anchor="start" x="30.5" y="-487" font-family="Helvetica,sans-Serif" font-size="10.00">+ GraphicsItem()</text>
<text text-anchor="start" x="30.5" y="-476" font-family="Helvetica,sans-Serif" font-size="10.00">+ GraphicsItem()</text>
<text text-anchor="start" x="30.5" y="-465" font-family="Helvetica,sans-Serif" font-size="10.00">+ GraphicsItem()</text>
<text text-anchor="start" x="30.5" y="-454" font-family="Helvetica,sans-Serif" font-size="10.00">+ ~GraphicsItem()</text>
<text text-anchor="start" x="30.5" y="-443" font-family="Helvetica,sans-Serif" font-size="10.00">+ id()</text>
<text text-anchor="start" x="30.5" y="-432" font-family="Helvetica,sans-Serif" font-size="10.00">+ parentId()</text>
<text text-anchor="start" x="30.5" y="-421" font-family="Helvetica,sans-Serif" font-size="10.00">+ parent()</text>
<text text-anchor="start" x="30.5" y="-410" font-family="Helvetica,sans-Serif" font-size="10.00">+ setParent()</text>
<text text-anchor="start" x="30.5" y="-399" font-family="Helvetica,sans-Serif" font-size="10.00">+ setParent()</text>
<text text-anchor="start" x="30.5" y="-388" font-family="Helvetica,sans-Serif" font-size="10.00">+ setParent()</text>
<text text-anchor="start" x="30.5" y="-377" font-family="Helvetica,sans-Serif" font-size="10.00">et 21 de plus...</text>
<text text-anchor="start" x="30.5" y="-366" font-family="Helvetica,sans-Serif" font-size="10.00">+ focusItem()</text>
<text text-anchor="start" x="30.5" y="-355" font-family="Helvetica,sans-Serif" font-size="10.00">+ setFocusItem()</text>
<text text-anchor="start" x="30.5" y="-344" font-family="Helvetica,sans-Serif" font-size="10.00">+ make()</text>
<text text-anchor="start" x="30.5" y="-333" font-family="Helvetica,sans-Serif" font-size="10.00"># meDraw()</text>
<text text-anchor="start" x="30.5" y="-322" font-family="Helvetica,sans-Serif" font-size="10.00"># meUpdate()</text>
<text text-anchor="start" x="30.5" y="-311" font-family="Helvetica,sans-Serif" font-size="10.00"># meHandleEvent()</text>
<text text-anchor="start" x="30.5" y="-300" font-family="Helvetica,sans-Serif" font-size="10.00"># meIsOver()</text>
</a>
</g>
</g>
<!-- Node2&#45;&gt;Node1 -->
<g id="edge1" class="edge"><title>Node2&#45;&gt;Node1</title>
<path fill="none" stroke="midnightblue" d="M73,-282.614C73,-273.633 73,-264.592 73,-255.636"/>
<polygon fill="none" stroke="midnightblue" points="69.5001,-282.721 73,-292.721 76.5001,-282.721 69.5001,-282.721"/>
</g>
<!-- Node3 -->
<g id="node3" class="node"><title>Node3</title>
<polygon fill="white" stroke="#bfbfbf" points="22.5,-574.5 22.5,-631.5 123.5,-631.5 123.5,-574.5 22.5,-574.5"/>
<text text-anchor="middle" x="73" y="-619.5" font-family="Helvetica,sans-Serif" font-size="10.00">boost::noncopyable</text>
<polyline fill="none" stroke="#bfbfbf" points="22.5,-612.5 123.5,-612.5 "/>
<text text-anchor="middle" x="73" y="-600.5" font-family="Helvetica,sans-Serif" font-size="10.00"> </text>
<polyline fill="none" stroke="#bfbfbf" points="22.5,-593.5 123.5,-593.5 "/>
<text text-anchor="middle" x="73" y="-581.5" font-family="Helvetica,sans-Serif" font-size="10.00"> </text>
</g>
<!-- Node3&#45;&gt;Node2 -->
<g id="edge2" class="edge"><title>Node3&#45;&gt;Node2</title>
<path fill="none" stroke="#8b1a1a" d="M73,-563.933C73,-555.741 73,-546.663 73,-537.15"/>
<polygon fill="none" stroke="#8b1a1a" points="69.5001,-564.154 73,-574.154 76.5001,-564.154 69.5001,-564.154"/>
</g>
</g>
</svg>
