<?xml version="1.0" encoding="UTF-8" standalone="no"?>
<!DOCTYPE svg PUBLIC "-//W3C//DTD SVG 1.1//EN"
 "http://www.w3.org/Graphics/SVG/1.1/DTD/svg11.dtd">
<!-- Generated by graphviz version 2.36.0 (20140111.2315)
 -->
<!-- Title: Point::setOrigin Pages: 1 -->
<svg width="434pt" height="66pt"
 viewBox="0.00 0.00 434.00 66.00" xmlns="http://www.w3.org/2000/svg" xmlns:xlink="http://www.w3.org/1999/xlink">
<g id="graph0" class="graph" transform="scale(1 1) rotate(0) translate(4 62)">
<title>Point::setOrigin</title>
<polygon fill="white" stroke="none" points="-4,4 -4,-62 430,-62 430,4 -4,4"/>
<!-- Node1 -->
<g id="node1" class="node"><title>Node1</title>
<polygon fill="#bfbfbf" stroke="black" points="0,-19.5 0,-38.5 84,-38.5 84,-19.5 0,-19.5"/>
<text text-anchor="middle" x="42" y="-26.5" font-family="Helvetica,sans-Serif" font-size="10.00">Point::setOrigin</text>
</g>
<!-- Node2 -->
<g id="node2" class="node"><title>Node2</title>
<g id="a_node2"><a xlink:href="class_graphics_item.html#a8bcbe86ba1854edffd7fbed0b4bc8cd5" target="_top" xlink:title="GraphicsItem::setParent">
<polygon fill="white" stroke="black" points="120.5,-19.5 120.5,-38.5 243.5,-38.5 243.5,-19.5 120.5,-19.5"/>
<text text-anchor="middle" x="182" y="-26.5" font-family="Helvetica,sans-Serif" font-size="10.00">GraphicsItem::setParent</text>
</a>
</g>
</g>
<!-- Node1&#45;&gt;Node2 -->
<g id="edge1" class="edge"><title>Node1&#45;&gt;Node2</title>
<path fill="none" stroke="midnightblue" d="M94.2232,-29C102.769,-29 111.706,-29 120.459,-29"/>
<polygon fill="midnightblue" stroke="midnightblue" points="94.031,-25.5001 84.0309,-29 94.0309,-32.5001 94.031,-25.5001"/>
</g>
<!-- Node3 -->
<g id="node3" class="node"><title>Node3</title>
<g id="a_node3"><a xlink:href="class_graphics_item.html#a96c30111512bd4f198e9414b70bb3ccc" target="_top" xlink:title="GraphicsItem::GraphicsItem">
<polygon fill="white" stroke="black" points="283,-38.5 283,-57.5 423,-57.5 423,-38.5 283,-38.5"/>
<text text-anchor="middle" x="353" y="-45.5" font-family="Helvetica,sans-Serif" font-size="10.00">GraphicsItem::GraphicsItem</text>
</a>
</g>
</g>
<!-- Node2&#45;&gt;Node3 -->
<g id="edge2" class="edge"><title>Node2&#45;&gt;Node3</title>
<path fill="none" stroke="midnightblue" d="M253.562,-36.933C263.292,-38.0269 273.276,-39.1494 282.978,-40.2402"/>
<polygon fill="midnightblue" stroke="midnightblue" points="253.864,-33.445 243.536,-35.8058 253.082,-40.4012 253.864,-33.445"/>
</g>
<!-- Node4 -->
<g id="node4" class="node"><title>Node4</title>
<g id="a_node4"><a xlink:href="class_graphics_item.html#ad76d7190cfa332054ae66d505fb37bb1" target="_top" xlink:title="GraphicsItem::~GraphicsItem">
<polygon fill="white" stroke="black" points="280,-0.5 280,-19.5 426,-19.5 426,-0.5 280,-0.5"/>
<text text-anchor="middle" x="353" y="-7.5" font-family="Helvetica,sans-Serif" font-size="10.00">GraphicsItem::~GraphicsItem</text>
</a>
</g>
</g>
<!-- Node2&#45;&gt;Node4 -->
<g id="edge3" class="edge"><title>Node2&#45;&gt;Node4</title>
<path fill="none" stroke="midnightblue" d="M253.582,-21.0647C262.238,-20.0916 271.094,-19.096 279.773,-18.1201"/>
<polygon fill="midnightblue" stroke="midnightblue" points="253.082,-17.5988 243.536,-22.1942 253.864,-24.555 253.082,-17.5988"/>
</g>
</g>
</svg>
