<?xml version="1.0" encoding="UTF-8" standalone="no"?>
<!DOCTYPE svg PUBLIC "-//W3C//DTD SVG 1.1//EN"
 "http://www.w3.org/Graphics/SVG/1.1/DTD/svg11.dtd">
<!-- Generated by graphviz version 2.36.0 (20140111.2315)
 -->
<!-- Title: GraphicsItem Pages: 1 -->
<svg width="1207pt" height="640pt"
 viewBox="0.00 0.00 1207.00 640.00" xmlns="http://www.w3.org/2000/svg" xmlns:xlink="http://www.w3.org/1999/xlink">
<g id="graph0" class="graph" transform="scale(1 1) rotate(0) translate(4 636)">
<title>GraphicsItem</title>
<polygon fill="white" stroke="none" points="-4,4 -4,-636 1203,-636 1203,4 -4,4"/>
<!-- Node1 -->
<g id="node1" class="node"><title>Node1</title>
<polygon fill="#bfbfbf" stroke="black" points="506.5,-398.5 506.5,-631.5 607.5,-631.5 607.5,-398.5 506.5,-398.5"/>
<text text-anchor="middle" x="557" y="-619.5" font-family="Helvetica,sans-Serif" font-size="10.00">GraphicsItem</text>
<polyline fill="none" stroke="black" points="506.5,-612.5 607.5,-612.5 "/>
<text text-anchor="middle" x="557" y="-600.5" font-family="Helvetica,sans-Serif" font-size="10.00"> </text>
<polyline fill="none" stroke="black" points="506.5,-593.5 607.5,-593.5 "/>
<text text-anchor="start" x="514.5" y="-581.5" font-family="Helvetica,sans-Serif" font-size="10.00">+ GraphicsItem()</text>
<text text-anchor="start" x="514.5" y="-570.5" font-family="Helvetica,sans-Serif" font-size="10.00">+ ~GraphicsItem()</text>
<text text-anchor="start" x="514.5" y="-559.5" font-family="Helvetica,sans-Serif" font-size="10.00">+ parent()</text>
<text text-anchor="start" x="514.5" y="-548.5" font-family="Helvetica,sans-Serif" font-size="10.00">+ setParent()</text>
<text text-anchor="start" x="514.5" y="-537.5" font-family="Helvetica,sans-Serif" font-size="10.00">+ type()</text>
<text text-anchor="start" x="514.5" y="-526.5" font-family="Helvetica,sans-Serif" font-size="10.00">+ children()</text>
<text text-anchor="start" x="514.5" y="-515.5" font-family="Helvetica,sans-Serif" font-size="10.00">+ anchor()</text>
<text text-anchor="start" x="514.5" y="-504.5" font-family="Helvetica,sans-Serif" font-size="10.00">+ setAnchor()</text>
<text text-anchor="start" x="514.5" y="-493.5" font-family="Helvetica,sans-Serif" font-size="10.00">+ absolute()</text>
<text text-anchor="start" x="514.5" y="-482.5" font-family="Helvetica,sans-Serif" font-size="10.00">+ setAbsolute()</text>
<text text-anchor="start" x="514.5" y="-471.5" font-family="Helvetica,sans-Serif" font-size="10.00">et 17 de plus...</text>
<text text-anchor="start" x="514.5" y="-460.5" font-family="Helvetica,sans-Serif" font-size="10.00">+ focusItem()</text>
<text text-anchor="start" x="514.5" y="-449.5" font-family="Helvetica,sans-Serif" font-size="10.00">+ setFocusItem()</text>
<text text-anchor="start" x="514.5" y="-438.5" font-family="Helvetica,sans-Serif" font-size="10.00"># meDraw()</text>
<text text-anchor="start" x="514.5" y="-427.5" font-family="Helvetica,sans-Serif" font-size="10.00"># meUpdate()</text>
<text text-anchor="start" x="514.5" y="-416.5" font-family="Helvetica,sans-Serif" font-size="10.00"># meHandleEvent()</text>
<text text-anchor="start" x="514.5" y="-405.5" font-family="Helvetica,sans-Serif" font-size="10.00"># meIsOver()</text>
</g>
<!-- Node2 -->
<g id="node2" class="node"><title>Node2</title>
<g id="a_node2"><a xlink:href="class_graphics_animation.html" target="_top" xlink:title="Classe de base pour les animations. ">
<polygon fill="white" stroke="black" points="16,-244 16,-312 130,-312 130,-244 16,-244"/>
<text text-anchor="middle" x="73" y="-300" font-family="Helvetica,sans-Serif" font-size="10.00">GraphicsAnimation</text>
<polyline fill="none" stroke="black" points="16,-293 130,-293 "/>
<text text-anchor="middle" x="73" y="-281" font-family="Helvetica,sans-Serif" font-size="10.00"> </text>
<polyline fill="none" stroke="black" points="16,-274 130,-274 "/>
<text text-anchor="start" x="24" y="-262" font-family="Helvetica,sans-Serif" font-size="10.00">+ GraphicsAnimation()</text>
<text text-anchor="start" x="24" y="-251" font-family="Helvetica,sans-Serif" font-size="10.00">+ type()</text>
</a>
</g>
</g>
<!-- Node1&#45;&gt;Node2 -->
<g id="edge1" class="edge"><title>Node1&#45;&gt;Node2</title>
<path fill="none" stroke="midnightblue" d="M496.175,-499.018C414.936,-477.228 268.545,-431.634 159,-362 137.636,-348.42 117.103,-328.933 101.461,-312.253"/>
<polygon fill="none" stroke="midnightblue" points="495.671,-502.505 506.234,-501.683 497.464,-495.738 495.671,-502.505"/>
</g>
<!-- Node4 -->
<g id="node4" class="node"><title>Node4</title>
<g id="a_node4"><a xlink:href="class_graphics_point.html" target="_top" xlink:title="Un point. ">
<polygon fill="white" stroke="black" points="168.5,-211 168.5,-345 269.5,-345 269.5,-211 168.5,-211"/>
<text text-anchor="middle" x="219" y="-333" font-family="Helvetica,sans-Serif" font-size="10.00">GraphicsPoint</text>
<polyline fill="none" stroke="black" points="168.5,-326 269.5,-326 "/>
<text text-anchor="middle" x="219" y="-314" font-family="Helvetica,sans-Serif" font-size="10.00"> </text>
<polyline fill="none" stroke="black" points="168.5,-307 269.5,-307 "/>
<text text-anchor="start" x="176.5" y="-295" font-family="Helvetica,sans-Serif" font-size="10.00">+ GraphicsPoint()</text>
<text text-anchor="start" x="176.5" y="-284" font-family="Helvetica,sans-Serif" font-size="10.00">+ GraphicsPoint()</text>
<text text-anchor="start" x="176.5" y="-273" font-family="Helvetica,sans-Serif" font-size="10.00">+ radius()</text>
<text text-anchor="start" x="176.5" y="-262" font-family="Helvetica,sans-Serif" font-size="10.00">+ setRadius()</text>
<text text-anchor="start" x="176.5" y="-251" font-family="Helvetica,sans-Serif" font-size="10.00">+ type()</text>
<text text-anchor="start" x="176.5" y="-240" font-family="Helvetica,sans-Serif" font-size="10.00"># meDraw()</text>
<text text-anchor="start" x="176.5" y="-229" font-family="Helvetica,sans-Serif" font-size="10.00"># meHandleEvent()</text>
<text text-anchor="start" x="176.5" y="-218" font-family="Helvetica,sans-Serif" font-size="10.00"># meIsOver()</text>
</a>
</g>
</g>
<!-- Node1&#45;&gt;Node4 -->
<g id="edge3" class="edge"><title>Node1&#45;&gt;Node4</title>
<path fill="none" stroke="midnightblue" d="M497.349,-482.407C445.225,-453.727 368.487,-408.861 307,-362 294.306,-352.325 281.393,-341.08 269.51,-330.049"/>
<polygon fill="none" stroke="midnightblue" points="495.688,-485.488 506.14,-487.219 499.049,-479.348 495.688,-485.488"/>
</g>
<!-- Node6 -->
<g id="node6" class="node"><title>Node6</title>
<g id="a_node6"><a xlink:href="class_graphics_rectangle.html" target="_top" xlink:title="Un rectangle. ">
<polygon fill="white" stroke="black" points="316.5,-200 316.5,-356 431.5,-356 431.5,-200 316.5,-200"/>
<text text-anchor="middle" x="374" y="-344" font-family="Helvetica,sans-Serif" font-size="10.00">GraphicsRectangle</text>
<polyline fill="none" stroke="black" points="316.5,-337 431.5,-337 "/>
<text text-anchor="middle" x="374" y="-325" font-family="Helvetica,sans-Serif" font-size="10.00"> </text>
<polyline fill="none" stroke="black" points="316.5,-318 431.5,-318 "/>
<text text-anchor="start" x="324.5" y="-306" font-family="Helvetica,sans-Serif" font-size="10.00">+ GraphicsRectangle()</text>
<text text-anchor="start" x="324.5" y="-295" font-family="Helvetica,sans-Serif" font-size="10.00">+ topLeft()</text>
<text text-anchor="start" x="324.5" y="-284" font-family="Helvetica,sans-Serif" font-size="10.00">+ bottomRight()</text>
<text text-anchor="start" x="324.5" y="-273" font-family="Helvetica,sans-Serif" font-size="10.00">+ type()</text>
<text text-anchor="start" x="324.5" y="-262" font-family="Helvetica,sans-Serif" font-size="10.00">+ width()</text>
<text text-anchor="start" x="324.5" y="-251" font-family="Helvetica,sans-Serif" font-size="10.00">+ setWidth()</text>
<text text-anchor="start" x="324.5" y="-240" font-family="Helvetica,sans-Serif" font-size="10.00">+ height()</text>
<text text-anchor="start" x="324.5" y="-229" font-family="Helvetica,sans-Serif" font-size="10.00">+ setHeight()</text>
<text text-anchor="start" x="324.5" y="-218" font-family="Helvetica,sans-Serif" font-size="10.00">+ meDraw()</text>
<text text-anchor="start" x="324.5" y="-207" font-family="Helvetica,sans-Serif" font-size="10.00">+ meIsOver()</text>
</a>
</g>
</g>
<!-- Node1&#45;&gt;Node6 -->
<g id="edge5" class="edge"><title>Node1&#45;&gt;Node6</title>
<path fill="none" stroke="midnightblue" d="M499.923,-440.705C478.181,-412.785 453.404,-380.967 431.612,-352.983"/>
<polygon fill="none" stroke="midnightblue" points="497.362,-443.112 506.267,-448.851 502.885,-438.811 497.362,-443.112"/>
</g>
<!-- Node7 -->
<g id="node7" class="node"><title>Node7</title>
<g id="a_node7"><a xlink:href="class_graphics_shape.html" target="_top" xlink:title="Une forme. ">
<polygon fill="white" stroke="black" points="449,-238.5 449,-317.5 547,-317.5 547,-238.5 449,-238.5"/>
<text text-anchor="middle" x="498" y="-305.5" font-family="Helvetica,sans-Serif" font-size="10.00">GraphicsShape</text>
<polyline fill="none" stroke="black" points="449,-298.5 547,-298.5 "/>
<text text-anchor="start" x="457" y="-286.5" font-family="Helvetica,sans-Serif" font-size="10.00"># m_points</text>
<polyline fill="none" stroke="black" points="449,-279.5 547,-279.5 "/>
<text text-anchor="start" x="457" y="-267.5" font-family="Helvetica,sans-Serif" font-size="10.00">+ GraphicsShape()</text>
<text text-anchor="start" x="457" y="-256.5" font-family="Helvetica,sans-Serif" font-size="10.00">+ type()</text>
<text text-anchor="start" x="457" y="-245.5" font-family="Helvetica,sans-Serif" font-size="10.00"># meDraw()</text>
</a>
</g>
</g>
<!-- Node1&#45;&gt;Node7 -->
<g id="edge6" class="edge"><title>Node1&#45;&gt;Node7</title>
<path fill="none" stroke="midnightblue" d="M525.452,-388.344C518.992,-362.611 512.663,-337.402 507.713,-317.687"/>
<polygon fill="none" stroke="midnightblue" points="522.102,-389.374 527.932,-398.221 528.892,-387.67 522.102,-389.374"/>
</g>
<!-- Node13 -->
<g id="node13" class="node"><title>Node13</title>
<g id="a_node13"><a xlink:href="class_graphics_square.html" target="_top" xlink:title="Un carré ">
<polygon fill="white" stroke="black" points="565.5,-222 565.5,-334 666.5,-334 666.5,-222 565.5,-222"/>
<text text-anchor="middle" x="616" y="-322" font-family="Helvetica,sans-Serif" font-size="10.00">GraphicsSquare</text>
<polyline fill="none" stroke="black" points="565.5,-315 666.5,-315 "/>
<text text-anchor="middle" x="616" y="-303" font-family="Helvetica,sans-Serif" font-size="10.00"> </text>
<polyline fill="none" stroke="black" points="565.5,-296 666.5,-296 "/>
<text text-anchor="start" x="573.5" y="-284" font-family="Helvetica,sans-Serif" font-size="10.00">+ GraphicsSquare()</text>
<text text-anchor="start" x="573.5" y="-273" font-family="Helvetica,sans-Serif" font-size="10.00">+ topLeft()</text>
<text text-anchor="start" x="573.5" y="-262" font-family="Helvetica,sans-Serif" font-size="10.00">+ bottomRight()</text>
<text text-anchor="start" x="573.5" y="-251" font-family="Helvetica,sans-Serif" font-size="10.00">+ type()</text>
<text text-anchor="start" x="573.5" y="-240" font-family="Helvetica,sans-Serif" font-size="10.00"># meDraw()</text>
<text text-anchor="start" x="573.5" y="-229" font-family="Helvetica,sans-Serif" font-size="10.00"># meIsOver()</text>
</a>
</g>
</g>
<!-- Node1&#45;&gt;Node13 -->
<g id="edge12" class="edge"><title>Node1&#45;&gt;Node13</title>
<path fill="none" stroke="midnightblue" d="M588.567,-388.269C593.337,-369.268 598.035,-350.555 602.159,-334.131"/>
<polygon fill="none" stroke="midnightblue" points="585.108,-387.67 586.068,-398.221 591.898,-389.374 585.108,-387.67"/>
</g>
<!-- Node14 -->
<g id="node14" class="node"><title>Node14</title>
<g id="a_node14"><a xlink:href="class_graphics_text.html" target="_top" xlink:title="Du texte. ">
<polygon fill="white" stroke="black" points="685,-194.5 685,-361.5 775,-361.5 775,-194.5 685,-194.5"/>
<text text-anchor="middle" x="730" y="-349.5" font-family="Helvetica,sans-Serif" font-size="10.00">GraphicsText</text>
<polyline fill="none" stroke="black" points="685,-342.5 775,-342.5 "/>
<text text-anchor="middle" x="730" y="-330.5" font-family="Helvetica,sans-Serif" font-size="10.00"> </text>
<polyline fill="none" stroke="black" points="685,-323.5 775,-323.5 "/>
<text text-anchor="start" x="693" y="-311.5" font-family="Helvetica,sans-Serif" font-size="10.00">+ GraphicsText()</text>
<text text-anchor="start" x="693" y="-300.5" font-family="Helvetica,sans-Serif" font-size="10.00">+ GraphicsText()</text>
<text text-anchor="start" x="693" y="-289.5" font-family="Helvetica,sans-Serif" font-size="10.00">+ text()</text>
<text text-anchor="start" x="693" y="-278.5" font-family="Helvetica,sans-Serif" font-size="10.00">+ setText()</text>
<text text-anchor="start" x="693" y="-267.5" font-family="Helvetica,sans-Serif" font-size="10.00">+ font()</text>
<text text-anchor="start" x="693" y="-256.5" font-family="Helvetica,sans-Serif" font-size="10.00">+ setFont()</text>
<text text-anchor="start" x="693" y="-245.5" font-family="Helvetica,sans-Serif" font-size="10.00">+ align()</text>
<text text-anchor="start" x="693" y="-234.5" font-family="Helvetica,sans-Serif" font-size="10.00">+ setAlign()</text>
<text text-anchor="start" x="693" y="-223.5" font-family="Helvetica,sans-Serif" font-size="10.00">+ type()</text>
<text text-anchor="start" x="693" y="-212.5" font-family="Helvetica,sans-Serif" font-size="10.00"># meDraw()</text>
<text text-anchor="start" x="693" y="-201.5" font-family="Helvetica,sans-Serif" font-size="10.00"># meIsOver()</text>
</a>
</g>
</g>
<!-- Node1&#45;&gt;Node14 -->
<g id="edge13" class="edge"><title>Node1&#45;&gt;Node14</title>
<path fill="none" stroke="midnightblue" d="M614.059,-442.78C633.78,-417.572 655.749,-388.814 675,-362 678.226,-357.507 681.505,-352.84 684.773,-348.113"/>
<polygon fill="none" stroke="midnightblue" points="611.16,-440.805 607.742,-450.833 616.668,-445.125 611.16,-440.805"/>
</g>
<!-- Node15 -->
<g id="node15" class="node"><title>Node15</title>
<g id="a_node15"><a xlink:href="class_tools_windows.html" target="_top" xlink:title="Permet la creation d&#39;un fenetre d&#39;édition des formes. ">
<polygon fill="white" stroke="black" points="793,-249.5 793,-306.5 889,-306.5 889,-249.5 793,-249.5"/>
<text text-anchor="middle" x="841" y="-294.5" font-family="Helvetica,sans-Serif" font-size="10.00">ToolsWindows</text>
<polyline fill="none" stroke="black" points="793,-287.5 889,-287.5 "/>
<text text-anchor="middle" x="841" y="-275.5" font-family="Helvetica,sans-Serif" font-size="10.00"> </text>
<polyline fill="none" stroke="black" points="793,-268.5 889,-268.5 "/>
<text text-anchor="start" x="801" y="-256.5" font-family="Helvetica,sans-Serif" font-size="10.00">+ ToolsWindows()</text>
</a>
</g>
</g>
<!-- Node1&#45;&gt;Node15 -->
<g id="edge14" class="edge"><title>Node1&#45;&gt;Node15</title>
<path fill="none" stroke="midnightblue" d="M616.729,-482.427C665.322,-454.868 733.824,-411.59 784,-362 800.536,-345.657 815.275,-323.893 825.621,-306.751"/>
<polygon fill="none" stroke="midnightblue" points="614.901,-479.44 607.896,-487.388 618.329,-485.543 614.901,-479.44"/>
</g>
<!-- Node16 -->
<g id="node16" class="node"><title>Node16</title>
<g id="a_node16"><a xlink:href="class_widget.html" target="_top" xlink:title="Classe de base. ">
<polygon fill="white" stroke="black" points="965,-194.5 965,-361.5 1065,-361.5 1065,-194.5 965,-194.5"/>
<text text-anchor="middle" x="1015" y="-349.5" font-family="Helvetica,sans-Serif" font-size="10.00">Widget</text>
<polyline fill="none" stroke="black" points="965,-342.5 1065,-342.5 "/>
<text text-anchor="middle" x="1015" y="-330.5" font-family="Helvetica,sans-Serif" font-size="10.00"> </text>
<polyline fill="none" stroke="black" points="965,-323.5 1065,-323.5 "/>
<text text-anchor="start" x="973" y="-311.5" font-family="Helvetica,sans-Serif" font-size="10.00">+ Widget()</text>
<text text-anchor="start" x="973" y="-300.5" font-family="Helvetica,sans-Serif" font-size="10.00">+ width()</text>
<text text-anchor="start" x="973" y="-289.5" font-family="Helvetica,sans-Serif" font-size="10.00">+ setWidth()</text>
<text text-anchor="start" x="973" y="-278.5" font-family="Helvetica,sans-Serif" font-size="10.00">+ height()</text>
<text text-anchor="start" x="973" y="-267.5" font-family="Helvetica,sans-Serif" font-size="10.00">+ setHeight()</text>
<text text-anchor="start" x="973" y="-256.5" font-family="Helvetica,sans-Serif" font-size="10.00">+ minimumWidth()</text>
<text text-anchor="start" x="973" y="-245.5" font-family="Helvetica,sans-Serif" font-size="10.00">+ minimumHeight()</text>
<text text-anchor="start" x="973" y="-234.5" font-family="Helvetica,sans-Serif" font-size="10.00">+ widthChanged()</text>
<text text-anchor="start" x="973" y="-223.5" font-family="Helvetica,sans-Serif" font-size="10.00">+ heightChanged()</text>
<text text-anchor="start" x="973" y="-212.5" font-family="Helvetica,sans-Serif" font-size="10.00">* widthChanged()</text>
<text text-anchor="start" x="973" y="-201.5" font-family="Helvetica,sans-Serif" font-size="10.00">* heightChanged()</text>
</a>
</g>
</g>
<!-- Node1&#45;&gt;Node16 -->
<g id="edge15" class="edge"><title>Node1&#45;&gt;Node16</title>
<path fill="none" stroke="midnightblue" d="M617.122,-491.398C686.643,-464.317 803.618,-415.809 898,-362 920.825,-348.987 944.708,-332.603 964.9,-317.837"/>
<polygon fill="none" stroke="midnightblue" points="615.694,-488.198 607.635,-495.076 618.224,-494.725 615.694,-488.198"/>
</g>
<!-- Node3 -->
<g id="node3" class="node"><title>Node3</title>
<g id="a_node3"><a xlink:href="class_graphics_blink_animation.html" target="_top" xlink:title="Faire clignoter sont parent. ">
<polygon fill="white" stroke="black" points="0,-1 0,-157 136,-157 136,-1 0,-1"/>
<text text-anchor="middle" x="68" y="-145" font-family="Helvetica,sans-Serif" font-size="10.00">GraphicsBlinkAnimation</text>
<polyline fill="none" stroke="black" points="0,-138 136,-138 "/>
<text text-anchor="middle" x="68" y="-126" font-family="Helvetica,sans-Serif" font-size="10.00"> </text>
<polyline fill="none" stroke="black" points="0,-119 136,-119 "/>
<text text-anchor="start" x="8" y="-107" font-family="Helvetica,sans-Serif" font-size="10.00">+ GraphicsBlinkAnimation()</text>
<text text-anchor="start" x="8" y="-96" font-family="Helvetica,sans-Serif" font-size="10.00">+ GraphicsBlinkAnimation()</text>
<text text-anchor="start" x="8" y="-85" font-family="Helvetica,sans-Serif" font-size="10.00">+ blinkFrequency()</text>
<text text-anchor="start" x="8" y="-74" font-family="Helvetica,sans-Serif" font-size="10.00">+ setBlinkFrequency()</text>
<text text-anchor="start" x="8" y="-63" font-family="Helvetica,sans-Serif" font-size="10.00">+ becomeColor()</text>
<text text-anchor="start" x="8" y="-52" font-family="Helvetica,sans-Serif" font-size="10.00">+ setBecomeColor()</text>
<text text-anchor="start" x="8" y="-41" font-family="Helvetica,sans-Serif" font-size="10.00">+ becomeInvisible()</text>
<text text-anchor="start" x="8" y="-30" font-family="Helvetica,sans-Serif" font-size="10.00">+ setBecomeInvisible()</text>
<text text-anchor="start" x="8" y="-19" font-family="Helvetica,sans-Serif" font-size="10.00">+ type()</text>
<text text-anchor="start" x="8" y="-8" font-family="Helvetica,sans-Serif" font-size="10.00"># meUpdate()</text>
</a>
</g>
</g>
<!-- Node2&#45;&gt;Node3 -->
<g id="edge2" class="edge"><title>Node2&#45;&gt;Node3</title>
<path fill="none" stroke="midnightblue" d="M71.8928,-233.376C71.3236,-210.949 70.6129,-182.947 69.9551,-157.029"/>
<polygon fill="none" stroke="midnightblue" points="68.3991,-233.674 72.1518,-243.582 75.3969,-233.496 68.3991,-233.674"/>
</g>
<!-- Node5 -->
<g id="node5" class="node"><title>Node5</title>
<g id="a_node5"><a xlink:href="class_graphics_anchor.html" target="_top" xlink:title="Une ancre. ">
<polygon fill="white" stroke="black" points="154.5,-34 154.5,-124 255.5,-124 255.5,-34 154.5,-34"/>
<text text-anchor="middle" x="205" y="-112" font-family="Helvetica,sans-Serif" font-size="10.00">GraphicsAnchor</text>
<polyline fill="none" stroke="black" points="154.5,-105 255.5,-105 "/>
<text text-anchor="middle" x="205" y="-93" font-family="Helvetica,sans-Serif" font-size="10.00"> </text>
<polyline fill="none" stroke="black" points="154.5,-86 255.5,-86 "/>
<text text-anchor="start" x="162.5" y="-74" font-family="Helvetica,sans-Serif" font-size="10.00">+ GraphicsAnchor()</text>
<text text-anchor="start" x="162.5" y="-63" font-family="Helvetica,sans-Serif" font-size="10.00">+ setAnchor()</text>
<text text-anchor="start" x="162.5" y="-52" font-family="Helvetica,sans-Serif" font-size="10.00">+ setAbsolute()</text>
<text text-anchor="start" x="162.5" y="-41" font-family="Helvetica,sans-Serif" font-size="10.00">+ type()</text>
</a>
</g>
</g>
<!-- Node4&#45;&gt;Node5 -->
<g id="edge4" class="edge"><title>Node4&#45;&gt;Node5</title>
<path fill="none" stroke="midnightblue" d="M213.576,-200.683C211.738,-174.814 209.747,-146.791 208.146,-124.265"/>
<polygon fill="none" stroke="midnightblue" points="210.099,-201.127 214.299,-210.854 217.081,-200.631 210.099,-201.127"/>
</g>
<!-- Node8 -->
<g id="node8" class="node"><title>Node8</title>
<g id="a_node8"><a xlink:href="class_graphics_circle.html" target="_top" xlink:title="Un cercle. ">
<polygon fill="white" stroke="black" points="274,-23 274,-135 370,-135 370,-23 274,-23"/>
<text text-anchor="middle" x="322" y="-123" font-family="Helvetica,sans-Serif" font-size="10.00">GraphicsCircle</text>
<polyline fill="none" stroke="black" points="274,-116 370,-116 "/>
<text text-anchor="middle" x="322" y="-104" font-family="Helvetica,sans-Serif" font-size="10.00"> </text>
<polyline fill="none" stroke="black" points="274,-97 370,-97 "/>
<text text-anchor="start" x="282" y="-85" font-family="Helvetica,sans-Serif" font-size="10.00">+ GraphicsCircle()</text>
<text text-anchor="start" x="282" y="-74" font-family="Helvetica,sans-Serif" font-size="10.00">+ center()</text>
<text text-anchor="start" x="282" y="-63" font-family="Helvetica,sans-Serif" font-size="10.00">+ radius()</text>
<text text-anchor="start" x="282" y="-52" font-family="Helvetica,sans-Serif" font-size="10.00">+ type()</text>
<text text-anchor="start" x="282" y="-41" font-family="Helvetica,sans-Serif" font-size="10.00"># meDraw()</text>
<text text-anchor="start" x="282" y="-30" font-family="Helvetica,sans-Serif" font-size="10.00"># meIsOver()</text>
</a>
</g>
</g>
<!-- Node7&#45;&gt;Node8 -->
<g id="edge7" class="edge"><title>Node7&#45;&gt;Node8</title>
<path fill="none" stroke="midnightblue" d="M470.195,-229.802C461.5,-217.288 451.213,-204.384 440,-194 416.902,-172.611 402.323,-179.144 379,-158 371.544,-151.241 364.453,-143.366 357.963,-135.268"/>
<polygon fill="none" stroke="midnightblue" points="467.47,-232.021 475.953,-238.367 473.279,-228.115 467.47,-232.021"/>
</g>
<!-- Node9 -->
<g id="node9" class="node"><title>Node9</title>
<g id="a_node9"><a xlink:href="class_graphics_ellipse.html" target="_top" xlink:title="Une ellipse. ">
<polygon fill="white" stroke="black" points="388,-23 388,-135 488,-135 488,-23 388,-23"/>
<text text-anchor="middle" x="438" y="-123" font-family="Helvetica,sans-Serif" font-size="10.00">GraphicsEllipse</text>
<polyline fill="none" stroke="black" points="388,-116 488,-116 "/>
<text text-anchor="middle" x="438" y="-104" font-family="Helvetica,sans-Serif" font-size="10.00"> </text>
<polyline fill="none" stroke="black" points="388,-97 488,-97 "/>
<text text-anchor="start" x="396" y="-85" font-family="Helvetica,sans-Serif" font-size="10.00">+ GraphicsEllipse()</text>
<text text-anchor="start" x="396" y="-74" font-family="Helvetica,sans-Serif" font-size="10.00">+ center()</text>
<text text-anchor="start" x="396" y="-63" font-family="Helvetica,sans-Serif" font-size="10.00">+ radius()</text>
<text text-anchor="start" x="396" y="-52" font-family="Helvetica,sans-Serif" font-size="10.00">+ type()</text>
<text text-anchor="start" x="396" y="-41" font-family="Helvetica,sans-Serif" font-size="10.00"># meDraw()</text>
<text text-anchor="start" x="396" y="-30" font-family="Helvetica,sans-Serif" font-size="10.00"># meIsOver()</text>
</a>
</g>
</g>
<!-- Node7&#45;&gt;Node9 -->
<g id="edge8" class="edge"><title>Node7&#45;&gt;Node9</title>
<path fill="none" stroke="midnightblue" d="M483.207,-228.428C474.61,-200.203 463.749,-164.541 454.827,-135.248"/>
<polygon fill="none" stroke="midnightblue" points="479.884,-229.533 486.146,-238.079 486.58,-227.493 479.884,-229.533"/>
</g>
<!-- Node10 -->
<g id="node10" class="node"><title>Node10</title>
<g id="a_node10"><a xlink:href="class_graphics_line.html" target="_top" xlink:title="Une ligne. ">
<polygon fill="white" stroke="black" points="506.5,-34 506.5,-124 595.5,-124 595.5,-34 506.5,-34"/>
<text text-anchor="middle" x="551" y="-112" font-family="Helvetica,sans-Serif" font-size="10.00">GraphicsLine</text>
<polyline fill="none" stroke="black" points="506.5,-105 595.5,-105 "/>
<text text-anchor="middle" x="551" y="-93" font-family="Helvetica,sans-Serif" font-size="10.00"> </text>
<polyline fill="none" stroke="black" points="506.5,-86 595.5,-86 "/>
<text text-anchor="start" x="514.5" y="-74" font-family="Helvetica,sans-Serif" font-size="10.00">+ GraphicsLine()</text>
<text text-anchor="start" x="514.5" y="-63" font-family="Helvetica,sans-Serif" font-size="10.00">+ first()</text>
<text text-anchor="start" x="514.5" y="-52" font-family="Helvetica,sans-Serif" font-size="10.00">+ second()</text>
<text text-anchor="start" x="514.5" y="-41" font-family="Helvetica,sans-Serif" font-size="10.00">+ type()</text>
</a>
</g>
</g>
<!-- Node7&#45;&gt;Node10 -->
<g id="edge9" class="edge"><title>Node7&#45;&gt;Node10</title>
<path fill="none" stroke="midnightblue" d="M511.153,-228.109C519.707,-196.314 530.772,-155.186 539.071,-124.341"/>
<polygon fill="none" stroke="midnightblue" points="507.689,-227.513 508.471,-238.079 514.449,-229.332 507.689,-227.513"/>
</g>
<!-- Node11 -->
<g id="node11" class="node"><title>Node11</title>
<g id="a_node11"><a xlink:href="class_graphics_polygon.html" target="_top" xlink:title="Un polygone. ">
<polygon fill="white" stroke="black" points="613,-23 613,-135 719,-135 719,-23 613,-23"/>
<text text-anchor="middle" x="666" y="-123" font-family="Helvetica,sans-Serif" font-size="10.00">GraphicsPolygon</text>
<polyline fill="none" stroke="black" points="613,-116 719,-116 "/>
<text text-anchor="middle" x="666" y="-104" font-family="Helvetica,sans-Serif" font-size="10.00"> </text>
<polyline fill="none" stroke="black" points="613,-97 719,-97 "/>
<text text-anchor="start" x="621" y="-85" font-family="Helvetica,sans-Serif" font-size="10.00">+ GraphicsPolygon()</text>
<text text-anchor="start" x="621" y="-74" font-family="Helvetica,sans-Serif" font-size="10.00">+ newPoint()</text>
<text text-anchor="start" x="621" y="-63" font-family="Helvetica,sans-Serif" font-size="10.00">+ popPoint()</text>
<text text-anchor="start" x="621" y="-52" font-family="Helvetica,sans-Serif" font-size="10.00">+ nbPoints()</text>
<text text-anchor="start" x="621" y="-41" font-family="Helvetica,sans-Serif" font-size="10.00">+ setNbPoints()</text>
<text text-anchor="start" x="621" y="-30" font-family="Helvetica,sans-Serif" font-size="10.00">+ type()</text>
</a>
</g>
</g>
<!-- Node7&#45;&gt;Node11 -->
<g id="edge10" class="edge"><title>Node7&#45;&gt;Node11</title>
<path fill="none" stroke="midnightblue" d="M527.066,-229.888C535.657,-217.595 545.575,-204.781 556,-194 574.537,-174.83 584.881,-176.589 604,-158 611.193,-151.006 618.31,-143.177 625.015,-135.251"/>
<polygon fill="none" stroke="midnightblue" points="524.082,-228.051 521.34,-238.285 529.866,-231.995 524.082,-228.051"/>
</g>
<!-- Node12 -->
<g id="node12" class="node"><title>Node12</title>
<g id="a_node12"><a xlink:href="class_graphics_triangle.html" target="_top" xlink:title="Un triangle. ">
<polygon fill="white" stroke="black" points="737.5,-28.5 737.5,-129.5 842.5,-129.5 842.5,-28.5 737.5,-28.5"/>
<text text-anchor="middle" x="790" y="-117.5" font-family="Helvetica,sans-Serif" font-size="10.00">GraphicsTriangle</text>
<polyline fill="none" stroke="black" points="737.5,-110.5 842.5,-110.5 "/>
<text text-anchor="middle" x="790" y="-98.5" font-family="Helvetica,sans-Serif" font-size="10.00"> </text>
<polyline fill="none" stroke="black" points="737.5,-91.5 842.5,-91.5 "/>
<text text-anchor="start" x="745.5" y="-79.5" font-family="Helvetica,sans-Serif" font-size="10.00">+ GraphicsTriangle()</text>
<text text-anchor="start" x="745.5" y="-68.5" font-family="Helvetica,sans-Serif" font-size="10.00">+ first()</text>
<text text-anchor="start" x="745.5" y="-57.5" font-family="Helvetica,sans-Serif" font-size="10.00">+ second()</text>
<text text-anchor="start" x="745.5" y="-46.5" font-family="Helvetica,sans-Serif" font-size="10.00">+ third()</text>
<text text-anchor="start" x="745.5" y="-35.5" font-family="Helvetica,sans-Serif" font-size="10.00">+ type()</text>
</a>
</g>
</g>
<!-- Node7&#45;&gt;Node12 -->
<g id="edge11" class="edge"><title>Node7&#45;&gt;Node12</title>
<path fill="none" stroke="midnightblue" d="M522.1,-229.737C531.054,-216.348 542.407,-202.987 556,-194 620.786,-151.166 660.765,-198.558 727,-158 738.876,-150.728 749.482,-140.384 758.452,-129.598"/>
<polygon fill="none" stroke="midnightblue" points="518.949,-228.171 516.563,-238.494 524.866,-231.912 518.949,-228.171"/>
</g>
<!-- Node17 -->
<g id="node17" class="node"><title>Node17</title>
<g id="a_node17"><a xlink:href="class_button.html" target="_top" xlink:title="Faire une action après un clic. ">
<polygon fill="white" stroke="black" points="860.5,-6.5 860.5,-151.5 961.5,-151.5 961.5,-6.5 860.5,-6.5"/>
<text text-anchor="middle" x="911" y="-139.5" font-family="Helvetica,sans-Serif" font-size="10.00">Button</text>
<polyline fill="none" stroke="black" points="860.5,-132.5 961.5,-132.5 "/>
<text text-anchor="middle" x="911" y="-120.5" font-family="Helvetica,sans-Serif" font-size="10.00"> </text>
<polyline fill="none" stroke="black" points="860.5,-113.5 961.5,-113.5 "/>
<text text-anchor="start" x="868.5" y="-101.5" font-family="Helvetica,sans-Serif" font-size="10.00">+ Button()</text>
<text text-anchor="start" x="868.5" y="-90.5" font-family="Helvetica,sans-Serif" font-size="10.00">+ Button()</text>
<text text-anchor="start" x="868.5" y="-79.5" font-family="Helvetica,sans-Serif" font-size="10.00">+ text()</text>
<text text-anchor="start" x="868.5" y="-68.5" font-family="Helvetica,sans-Serif" font-size="10.00">+ setText()</text>
<text text-anchor="start" x="868.5" y="-57.5" font-family="Helvetica,sans-Serif" font-size="10.00">+ minimumWidth()</text>
<text text-anchor="start" x="868.5" y="-46.5" font-family="Helvetica,sans-Serif" font-size="10.00">+ minimumHeight()</text>
<text text-anchor="start" x="868.5" y="-35.5" font-family="Helvetica,sans-Serif" font-size="10.00">+ clicked()</text>
<text text-anchor="start" x="868.5" y="-24.5" font-family="Helvetica,sans-Serif" font-size="10.00"># meHandleEvent()</text>
<text text-anchor="start" x="868.5" y="-13.5" font-family="Helvetica,sans-Serif" font-size="10.00">* clicked()</text>
</a>
</g>
</g>
<!-- Node16&#45;&gt;Node17 -->
<g id="edge16" class="edge"><title>Node16&#45;&gt;Node17</title>
<path fill="none" stroke="midnightblue" d="M966.572,-185.266C960.594,-173.943 954.553,-162.5 948.767,-151.539"/>
<polygon fill="none" stroke="midnightblue" points="963.583,-187.101 971.347,-194.311 969.773,-183.833 963.583,-187.101"/>
</g>
<!-- Node18 -->
<g id="node18" class="node"><title>Node18</title>
<g id="a_node18"><a xlink:href="class_label.html" target="_top" xlink:title="Afficher du texte. ">
<polygon fill="white" stroke="black" points="980,-12 980,-146 1080,-146 1080,-12 980,-12"/>
<text text-anchor="middle" x="1030" y="-134" font-family="Helvetica,sans-Serif" font-size="10.00">Label</text>
<polyline fill="none" stroke="black" points="980,-127 1080,-127 "/>
<text text-anchor="middle" x="1030" y="-115" font-family="Helvetica,sans-Serif" font-size="10.00"> </text>
<polyline fill="none" stroke="black" points="980,-108 1080,-108 "/>
<text text-anchor="start" x="988" y="-96" font-family="Helvetica,sans-Serif" font-size="10.00">+ Label()</text>
<text text-anchor="start" x="988" y="-85" font-family="Helvetica,sans-Serif" font-size="10.00">+ Label()</text>
<text text-anchor="start" x="988" y="-74" font-family="Helvetica,sans-Serif" font-size="10.00">+ text()</text>
<text text-anchor="start" x="988" y="-63" font-family="Helvetica,sans-Serif" font-size="10.00">+ setText()</text>
<text text-anchor="start" x="988" y="-52" font-family="Helvetica,sans-Serif" font-size="10.00">+ minimumWidth()</text>
<text text-anchor="start" x="988" y="-41" font-family="Helvetica,sans-Serif" font-size="10.00">+ minimumHeight()</text>
<text text-anchor="start" x="988" y="-30" font-family="Helvetica,sans-Serif" font-size="10.00">+ textChanged()</text>
<text text-anchor="start" x="988" y="-19" font-family="Helvetica,sans-Serif" font-size="10.00">* textChanged()</text>
</a>
</g>
</g>
<!-- Node16&#45;&gt;Node18 -->
<g id="edge17" class="edge"><title>Node16&#45;&gt;Node18</title>
<path fill="none" stroke="midnightblue" d="M1022.08,-184.055C1023.05,-171.213 1024.04,-158.245 1024.97,-146.027"/>
<polygon fill="none" stroke="midnightblue" points="1018.57,-184.074 1021.3,-194.311 1025.55,-184.605 1018.57,-184.074"/>
</g>
<!-- Node19 -->
<g id="node19" class="node"><title>Node19</title>
<g id="a_node19"><a xlink:href="class_line_edit.html" target="_top" xlink:title="Saisir du texte. ">
<polygon fill="white" stroke="black" points="1098.5,-23 1098.5,-135 1199.5,-135 1199.5,-23 1098.5,-23"/>
<text text-anchor="middle" x="1149" y="-123" font-family="Helvetica,sans-Serif" font-size="10.00">LineEdit</text>
<polyline fill="none" stroke="black" points="1098.5,-116 1199.5,-116 "/>
<text text-anchor="middle" x="1149" y="-104" font-family="Helvetica,sans-Serif" font-size="10.00"> </text>
<polyline fill="none" stroke="black" points="1098.5,-97 1199.5,-97 "/>
<text text-anchor="start" x="1106.5" y="-85" font-family="Helvetica,sans-Serif" font-size="10.00">+ LineEdit()</text>
<text text-anchor="start" x="1106.5" y="-74" font-family="Helvetica,sans-Serif" font-size="10.00">+ text()</text>
<text text-anchor="start" x="1106.5" y="-63" font-family="Helvetica,sans-Serif" font-size="10.00">+ setText()</text>
<text text-anchor="start" x="1106.5" y="-52" font-family="Helvetica,sans-Serif" font-size="10.00">+ textChanged()</text>
<text text-anchor="start" x="1106.5" y="-41" font-family="Helvetica,sans-Serif" font-size="10.00"># meHandleEvent()</text>
<text text-anchor="start" x="1106.5" y="-30" font-family="Helvetica,sans-Serif" font-size="10.00">* textChanged()</text>
</a>
</g>
</g>
<!-- Node16&#45;&gt;Node19 -->
<g id="edge18" class="edge"><title>Node16&#45;&gt;Node19</title>
<path fill="none" stroke="midnightblue" d="M1070.73,-195.073C1084.48,-174.859 1098.88,-153.685 1111.53,-135.092"/>
<polygon fill="none" stroke="midnightblue" points="1067.82,-193.127 1065.09,-203.364 1073.61,-197.064 1067.82,-193.127"/>
</g>
</g>
</svg>
