<?xml version="1.0" encoding="UTF-8" standalone="no"?>
<!DOCTYPE svg PUBLIC "-//W3C//DTD SVG 1.1//EN"
 "http://www.w3.org/Graphics/SVG/1.1/DTD/svg11.dtd">
<!-- Generated by graphviz version 2.36.0 (20140111.2315)
 -->
<!-- Title: Point::operator= Pages: 1 -->
<!--zoomable 190 -->
<svg id="main" version="1.1" xmlns="http://www.w3.org/2000/svg" xmlns:xlink="http://www.w3.org/1999/xlink" xml:space="preserve" onload="init(evt)">
<style type="text/css"><![CDATA[
.edge:hover path { stroke: red; }
.edge:hover polygon { stroke: red; fill: red; }
]]></style>
<script type="text/javascript"><![CDATA[
var edges = document.getElementsByTagName('g');
if (edges && edges.length) {
  for (var i=0;i<edges.length;i++) {
    if (edges[i].id.substr(0,4)=='edge') {
      edges[i].setAttribute('class','edge');
    }
  }
}
]]></script>
        <defs>
                <circle id="rim" cx="0" cy="0" r="7"/>
                <circle id="rim2" cx="0" cy="0" r="3.5"/>
                <g id="zoomPlus">
                        <use xlink:href="#rim" fill="#404040">
                                <set attributeName="fill" to="#808080" begin="zoomplus.mouseover" end="zoomplus.mouseout"/>
                        </use>
                        <path d="M-4,0h8M0,-4v8" fill="none" stroke="white" stroke-width="1.5" pointer-events="none"/>
                </g>
                <g id="zoomMin">
                        <use xlink:href="#rim" fill="#404040">
                                <set attributeName="fill" to="#808080" begin="zoomminus.mouseover" end="zoomminus.mouseout"/>
                        </use>
                        <path d="M-4,0h8" fill="none" stroke="white" stroke-width="1.5" pointer-events="none"/>
                </g>
                <g id="dirArrow">
                        <path fill="none" stroke="white" stroke-width="1.5" d="M0,-3.0v7 M-2.5,-0.5L0,-3.0L2.5,-0.5"/>
                </g>
               <g id="resetDef">
                       <use xlink:href="#rim2" fill="#404040">
                               <set attributeName="fill" to="#808080" begin="reset.mouseover" end="reset.mouseout"/>
                       </use>
               </g>
        </defs>

<script type="text/javascript">
var viewWidth = 610;
var viewHeight = 190;
var sectionId = 'dynsection-4';
</script>
<script xlink:href="svgpan.js"/>
<svg id="graph" class="graph">
<g id="viewport">
<title>Point::operator=</title>
<polygon fill="white" stroke="none" points="-4,4 -4,-186.234 606,-186.234 606,4 -4,4"/>
<!-- Node1 -->
<g id="node1" class="node"><title>Node1</title>
<polygon fill="#bfbfbf" stroke="black" points="0,-113.5 0,-132.5 86,-132.5 86,-113.5 0,-113.5"/>
<text text-anchor="middle" x="43" y="-120.5" font-family="Helvetica,sans-Serif" font-size="10.00">Point::operator=</text>
</g>
<!-- Node2 -->
<g id="node2" class="node"><title>Node2</title>
<g id="a_node2"><a xlink:href="class_point.html#a498f108de0c0351dfb3177c681a7a1f2" target="_top" xlink:title="Quitte le groupe auquel le point appartient. ">
<polygon fill="white" stroke="black" points="122,-113.5 122,-132.5 202,-132.5 202,-113.5 122,-113.5"/>
<text text-anchor="middle" x="162" y="-120.5" font-family="Helvetica,sans-Serif" font-size="10.00">Point::beAlone</text>
</a>
</g>
</g>
<!-- Node1&#45;&gt;Node2 -->
<g id="edge1" class="edge"><title>Node1&#45;&gt;Node2</title>
<path fill="none" stroke="midnightblue" d="M86.2397,-123C94.5229,-123 103.279,-123 111.767,-123"/>
<polygon fill="midnightblue" stroke="midnightblue" points="111.939,-126.5 121.939,-123 111.939,-119.5 111.939,-126.5"/>
</g>
<!-- Node3 -->
<g id="node3" class="node"><title>Node3</title>
<g id="a_node3"><a xlink:href="class_point.html#a64a5fe8c9b1d1a1543aaa64031537380" target="_top" xlink:title="Indique si le point n&#39;appartient pas à un groupe. ">
<polygon fill="white" stroke="black" points="524.5,-94.5 524.5,-113.5 601.5,-113.5 601.5,-94.5 524.5,-94.5"/>
<text text-anchor="middle" x="563" y="-101.5" font-family="Helvetica,sans-Serif" font-size="10.00">Point::isAlone</text>
</a>
</g>
</g>
<!-- Node2&#45;&gt;Node3 -->
<g id="edge2" class="edge"><title>Node2&#45;&gt;Node3</title>
<path fill="none" stroke="midnightblue" d="M180.036,-132.574C216.909,-152.129 307.008,-193.629 384,-179 441.271,-168.119 502.841,-137.431 536.463,-118.854"/>
<polygon fill="midnightblue" stroke="midnightblue" points="538.567,-121.687 545.571,-113.738 535.138,-115.584 538.567,-121.687"/>
</g>
<!-- Node4 -->
<g id="node4" class="node"><title>Node4</title>
<g id="a_node4"><a xlink:href="class_point.html#a2aa897aa68c2f3e6df3a46738f27a0ac" target="_top" xlink:title="Donne l&#39;abscisse du point par rapport à son origine. ">
<polygon fill="white" stroke="black" points="334,-0.5 334,-19.5 384,-19.5 384,-0.5 334,-0.5"/>
<text text-anchor="middle" x="359" y="-7.5" font-family="Helvetica,sans-Serif" font-size="10.00">Point::x</text>
</a>
</g>
</g>
<!-- Node2&#45;&gt;Node4 -->
<g id="edge3" class="edge"><title>Node2&#45;&gt;Node4</title>
<path fill="none" stroke="midnightblue" d="M179.626,-113.366C213.804,-93.5596 292.142,-48.1636 332.672,-24.6771"/>
<polygon fill="midnightblue" stroke="midnightblue" points="334.519,-27.6521 341.416,-19.6099 331.009,-21.5956 334.519,-27.6521"/>
</g>
<!-- Node7 -->
<g id="node7" class="node"><title>Node7</title>
<g id="a_node7"><a xlink:href="class_point.html#a2226d8a3fb283b0b3c1f69106df144ba" target="_top" xlink:title="Donne l&#39;ordonnée du point par rapport à son origine. ">
<polygon fill="white" stroke="black" points="334,-132.5 334,-151.5 384,-151.5 384,-132.5 334,-132.5"/>
<text text-anchor="middle" x="359" y="-139.5" font-family="Helvetica,sans-Serif" font-size="10.00">Point::y</text>
</a>
</g>
</g>
<!-- Node2&#45;&gt;Node7 -->
<g id="edge9" class="edge"><title>Node2&#45;&gt;Node7</title>
<path fill="none" stroke="midnightblue" d="M202.461,-126.845C238.01,-130.309 289.743,-135.349 323.629,-138.651"/>
<polygon fill="midnightblue" stroke="midnightblue" points="323.669,-142.171 333.961,-139.658 324.347,-135.204 323.669,-142.171"/>
</g>
<!-- Node8 -->
<g id="node8" class="node"><title>Node8</title>
<g id="a_node8"><a xlink:href="class_point.html#a43923c490fb5439d7d8a041e86520c34" target="_top" xlink:title="Modifie les coordonnées du point par rapport à son origine. ">
<polygon fill="white" stroke="black" points="238.5,-94.5 238.5,-113.5 297.5,-113.5 297.5,-94.5 238.5,-94.5"/>
<text text-anchor="middle" x="268" y="-101.5" font-family="Helvetica,sans-Serif" font-size="10.00">Point::set</text>
</a>
</g>
</g>
<!-- Node2&#45;&gt;Node8 -->
<g id="edge13" class="edge"><title>Node2&#45;&gt;Node8</title>
<path fill="none" stroke="midnightblue" d="M202.022,-115.871C210.721,-114.282 219.939,-112.598 228.613,-111.013"/>
<polygon fill="midnightblue" stroke="midnightblue" points="229.273,-114.45 238.482,-109.21 228.015,-107.564 229.273,-114.45"/>
</g>
<!-- Node4&#45;&gt;Node3 -->
<g id="edge4" class="edge"><title>Node4&#45;&gt;Node3</title>
<path fill="none" stroke="midnightblue" d="M384.176,-13.0993C411.118,-17.4016 455.202,-27.0307 488,-47 507.871,-59.0986 505.312,-71.1433 524,-85 526.074,-86.5376 528.291,-88.01 530.573,-89.4061"/>
<polygon fill="midnightblue" stroke="midnightblue" points="529.094,-92.5884 539.534,-94.3903 532.496,-86.4709 529.094,-92.5884"/>
</g>
<!-- Node4&#45;&gt;Node4 -->
<g id="edge8" class="edge"><title>Node4&#45;&gt;Node4</title>
<path fill="none" stroke="midnightblue" d="M345.128,-19.7571C338.38,-28.5653 343.004,-38 359,-38 368.998,-38 374.553,-34.3146 375.666,-29.4"/>
<polygon fill="midnightblue" stroke="midnightblue" points="379.017,-28.3878 372.872,-19.7571 372.293,-30.3361 379.017,-28.3878"/>
</g>
<!-- Node5 -->
<g id="node5" class="node"><title>Node5</title>
<g id="a_node5"><a xlink:href="class_point.html#afa7d33502738b0b3df186a91e11ff2a8" target="_top" xlink:title="Donne l&#39;origine du point. ">
<polygon fill="white" stroke="black" points="420,-56.5 420,-75.5 488,-75.5 488,-56.5 420,-56.5"/>
<text text-anchor="middle" x="454" y="-63.5" font-family="Helvetica,sans-Serif" font-size="10.00">Point::origin</text>
</a>
</g>
</g>
<!-- Node4&#45;&gt;Node5 -->
<g id="edge5" class="edge"><title>Node4&#45;&gt;Node5</title>
<path fill="none" stroke="midnightblue" d="M376.199,-19.7545C390.602,-28.4269 411.873,-41.2355 428.38,-51.175"/>
<polygon fill="midnightblue" stroke="midnightblue" points="426.614,-54.1972 436.986,-56.3573 430.225,-48.2004 426.614,-54.1972"/>
</g>
<!-- Node5&#45;&gt;Node3 -->
<g id="edge6" class="edge"><title>Node5&#45;&gt;Node3</title>
<path fill="none" stroke="midnightblue" d="M482.001,-75.589C495.18,-80.2694 511.229,-85.9692 525.484,-91.0315"/>
<polygon fill="midnightblue" stroke="midnightblue" points="524.413,-94.3656 535.008,-94.4141 526.756,-87.7692 524.413,-94.3656"/>
</g>
<!-- Node6 -->
<g id="node6" class="node"><title>Node6</title>
<g id="a_node6"><a xlink:href="class_point.html#a97edc6e6415d6ccc6efcff5fcbc97f15" target="_top" xlink:title="Construit un point avec les coordonnées nulles. ">
<polygon fill="white" stroke="black" points="529,-56.5 529,-75.5 597,-75.5 597,-56.5 529,-56.5"/>
<text text-anchor="middle" x="563" y="-63.5" font-family="Helvetica,sans-Serif" font-size="10.00">Point::Point</text>
</a>
</g>
</g>
<!-- Node5&#45;&gt;Node6 -->
<g id="edge7" class="edge"><title>Node5&#45;&gt;Node6</title>
<path fill="none" stroke="midnightblue" d="M488.269,-66C497.831,-66 508.403,-66 518.485,-66"/>
<polygon fill="midnightblue" stroke="midnightblue" points="518.752,-69.5001 528.752,-66 518.752,-62.5001 518.752,-69.5001"/>
</g>
<!-- Node7&#45;&gt;Node3 -->
<g id="edge10" class="edge"><title>Node7&#45;&gt;Node3</title>
<path fill="none" stroke="midnightblue" d="M384.065,-137.5C409.794,-132.686 451.783,-124.821 488,-118 496.497,-116.4 505.541,-114.692 514.283,-113.039"/>
<polygon fill="midnightblue" stroke="midnightblue" points="515.181,-116.432 524.357,-111.134 513.88,-109.554 515.181,-116.432"/>
</g>
<!-- Node7&#45;&gt;Node5 -->
<g id="edge11" class="edge"><title>Node7&#45;&gt;Node5</title>
<path fill="none" stroke="midnightblue" d="M371.779,-132.375C387.292,-119.697 414.783,-97.2309 433.441,-81.9837"/>
<polygon fill="midnightblue" stroke="midnightblue" points="435.789,-84.5853 441.317,-75.5473 431.359,-79.165 435.789,-84.5853"/>
</g>
<!-- Node7&#45;&gt;Node7 -->
<g id="edge12" class="edge"><title>Node7&#45;&gt;Node7</title>
<path fill="none" stroke="midnightblue" d="M345.128,-151.757C338.38,-160.565 343.004,-170 359,-170 368.998,-170 374.553,-166.315 375.666,-161.4"/>
<polygon fill="midnightblue" stroke="midnightblue" points="379.017,-160.388 372.872,-151.757 372.293,-162.336 379.017,-160.388"/>
</g>
<!-- Node8&#45;&gt;Node3 -->
<g id="edge14" class="edge"><title>Node8&#45;&gt;Node3</title>
<path fill="none" stroke="midnightblue" d="M297.628,-104C347.857,-104 452.355,-104 513.862,-104"/>
<polygon fill="midnightblue" stroke="midnightblue" points="514.086,-107.5 524.086,-104 514.086,-100.5 514.086,-107.5"/>
</g>
<!-- Node8&#45;&gt;Node4 -->
<g id="edge16" class="edge"><title>Node8&#45;&gt;Node4</title>
<path fill="none" stroke="midnightblue" d="M278.189,-94.2944C293.257,-78.3805 323.398,-46.5462 342.021,-26.8767"/>
<polygon fill="midnightblue" stroke="midnightblue" points="344.659,-29.1808 348.993,-19.5128 339.576,-24.368 344.659,-29.1808"/>
</g>
<!-- Node8&#45;&gt;Node5 -->
<g id="edge15" class="edge"><title>Node8&#45;&gt;Node5</title>
<path fill="none" stroke="midnightblue" d="M297.781,-97.7161C309.068,-95.274 322.135,-92.4742 334,-90 359.138,-84.7582 387.303,-79.0695 409.92,-74.5467"/>
<polygon fill="midnightblue" stroke="midnightblue" points="410.769,-77.9464 419.89,-72.5565 409.398,-71.0818 410.769,-77.9464"/>
</g>
<!-- Node8&#45;&gt;Node7 -->
<g id="edge17" class="edge"><title>Node8&#45;&gt;Node7</title>
<path fill="none" stroke="midnightblue" d="M291.458,-113.589C301.999,-118.089 314.747,-123.532 326.252,-128.445"/>
<polygon fill="midnightblue" stroke="midnightblue" points="324.978,-131.706 335.549,-132.414 327.726,-125.268 324.978,-131.706"/>
</g>
</g>
</svg>
        <g id="navigator" transform="translate(0 0)" fill="#404254">
                <rect fill="#f2f5e9" fill-opacity="0.5" stroke="#606060" stroke-width=".5" x="0" y="0" width="60" height="60"/>
                <use id="zoomplus" xlink:href="#zoomPlus" x="17" y="9" onmousedown="handleZoom(evt,'in')"/>
                <use id="zoomminus" xlink:href="#zoomMin" x="42" y="9" onmousedown="handleZoom(evt,'out')"/>
                <use id="reset" xlink:href="#resetDef" x="30" y="36" onmousedown="handleReset()"/>
                <g id="arrowUp" xlink:href="#dirArrow" transform="translate(30 24)" onmousedown="handlePan(0,-1)">
                  <use xlink:href="#rim" fill="#404040">
                        <set attributeName="fill" to="#808080" begin="arrowUp.mouseover" end="arrowUp.mouseout"/>
                  </use>
                  <path fill="none" stroke="white" stroke-width="1.5" d="M0,-3.0v7 M-2.5,-0.5L0,-3.0L2.5,-0.5"/>
                </g>
                <g id="arrowRight" xlink:href="#dirArrow" transform="rotate(90) translate(36 -43)" onmousedown="handlePan(1,0)">
                  <use xlink:href="#rim" fill="#404040">
                        <set attributeName="fill" to="#808080" begin="arrowRight.mouseover" end="arrowRight.mouseout"/>
                  </use>
                  <path fill="none" stroke="white" stroke-width="1.5" d="M0,-3.0v7 M-2.5,-0.5L0,-3.0L2.5,-0.5"/>
                </g>
                <g id="arrowDown" xlink:href="#dirArrow" transform="rotate(180) translate(-30 -48)" onmousedown="handlePan(0,1)">
                  <use xlink:href="#rim" fill="#404040">
                        <set attributeName="fill" to="#808080" begin="arrowDown.mouseover" end="arrowDown.mouseout"/>
                  </use>
                  <path fill="none" stroke="white" stroke-width="1.5" d="M0,-3.0v7 M-2.5,-0.5L0,-3.0L2.5,-0.5"/>
                </g>
                <g id="arrowLeft" xlink:href="#dirArrow" transform="rotate(270) translate(-36 17)" onmousedown="handlePan(-1,0)">
                  <use xlink:href="#rim" fill="#404040">
                        <set attributeName="fill" to="#808080" begin="arrowLeft.mouseover" end="arrowLeft.mouseout"/>
                  </use>
                  <path fill="none" stroke="white" stroke-width="1.5" d="M0,-3.0v7 M-2.5,-0.5L0,-3.0L2.5,-0.5"/>
                </g>
        </g>
        <svg viewBox="0 0 15 15" width="100%" height="30px" preserveAspectRatio="xMaxYMin meet">
         <g id="arrow_out" transform="scale(0.3 0.3)">
          <a xlink:href="class_point_a2a77e4f4e0521de921e7066052530763_cgraph_org.svg" target="_base">
           <rect id="button" ry="5" rx="5" y="6" x="6" height="38" width="38"
                fill="#f2f5e9" fill-opacity="0.5" stroke="#606060" stroke-width="1.0"/>
           <path id="arrow"
             d="M 11.500037,31.436501 C 11.940474,20.09759 22.043105,11.32322 32.158766,21.979434 L 37.068811,17.246167 C 37.068811,17.246167 37.088388,32 37.088388,32 L 22.160133,31.978069 C 22.160133,31.978069 26.997745,27.140456 26.997745,27.140456 C 18.528582,18.264221 13.291696,25.230495 11.500037,31.436501 z"
             style="fill:#404040;"/>
          </a>
         </g>
        </svg>
</svg>
