<?xml version="1.0" encoding="UTF-8" standalone="no"?>
<!DOCTYPE svg PUBLIC "-//W3C//DTD SVG 1.1//EN"
 "http://www.w3.org/Graphics/SVG/1.1/DTD/svg11.dtd">
<!-- Generated by graphviz version 2.36.0 (20140111.2315)
 -->
<!-- Title: GraphicsText Pages: 1 -->
<svg width="298pt" height="742pt"
 viewBox="0.00 0.00 298.00 742.00" xmlns="http://www.w3.org/2000/svg" xmlns:xlink="http://www.w3.org/1999/xlink">
<g id="graph0" class="graph" transform="scale(1 1) rotate(0) translate(4 738)">
<title>GraphicsText</title>
<polygon fill="white" stroke="none" points="-4,4 -4,-738 294,-738 294,4 -4,4"/>
<!-- Node1 -->
<g id="node1" class="node"><title>Node1</title>
<polygon fill="#bfbfbf" stroke="black" points="167,-1 167,-179 257,-179 257,-1 167,-1"/>
<text text-anchor="middle" x="212" y="-167" font-family="Helvetica,sans-Serif" font-size="10.00">GraphicsText</text>
<polyline fill="none" stroke="black" points="167,-160 257,-160 "/>
<text text-anchor="start" x="175" y="-148" font-family="Helvetica,sans-Serif" font-size="10.00">&#45; m_text</text>
<text text-anchor="start" x="175" y="-137" font-family="Helvetica,sans-Serif" font-size="10.00">&#45; m_align</text>
<polyline fill="none" stroke="black" points="167,-130 257,-130 "/>
<text text-anchor="start" x="175" y="-118" font-family="Helvetica,sans-Serif" font-size="10.00">+ GraphicsText()</text>
<text text-anchor="start" x="175" y="-107" font-family="Helvetica,sans-Serif" font-size="10.00">+ GraphicsText()</text>
<text text-anchor="start" x="175" y="-96" font-family="Helvetica,sans-Serif" font-size="10.00">+ text()</text>
<text text-anchor="start" x="175" y="-85" font-family="Helvetica,sans-Serif" font-size="10.00">+ setText()</text>
<text text-anchor="start" x="175" y="-74" font-family="Helvetica,sans-Serif" font-size="10.00">+ font()</text>
<text text-anchor="start" x="175" y="-63" font-family="Helvetica,sans-Serif" font-size="10.00">+ setFont()</text>
<text text-anchor="start" x="175" y="-52" font-family="Helvetica,sans-Serif" font-size="10.00">+ align()</text>
<text text-anchor="start" x="175" y="-41" font-family="Helvetica,sans-Serif" font-size="10.00">+ setAlign()</text>
<text text-anchor="start" x="175" y="-30" font-family="Helvetica,sans-Serif" font-size="10.00">+ type()</text>
<text text-anchor="start" x="175" y="-19" font-family="Helvetica,sans-Serif" font-size="10.00"># meDraw()</text>
<text text-anchor="start" x="175" y="-8" font-family="Helvetica,sans-Serif" font-size="10.00"># meIsOver()</text>
</g>
<!-- Node2 -->
<g id="node2" class="node"><title>Node2</title>
<g id="a_node2"><a xlink:href="class_graphics_item.html" target="_top" xlink:title="{GraphicsItem\n|&#45; m_children\l&#45; m_positionCorrector\l&#45; m_z\l&#45; m_thick\l&#45; m_isFill\l&#45; m_isVisible\l|+ GraphicsItem()\l+ ~GraphicsItem()\l+ parent()\l+ setParent()\l+ type()\l+ children()\l+ anchor()\l+ setAnchor()\l+ absolute()\l+ setAbsolute()\let 17 de plus...\l+ focusItem()\l+ setFocusItem()\l# meDraw()\l# meUpdate()\l# meHandleEvent()\l# meIsOver()\l}">
<polygon fill="white" stroke="black" points="18,-229 18,-517 128,-517 128,-229 18,-229"/>
<text text-anchor="middle" x="73" y="-505" font-family="Helvetica,sans-Serif" font-size="10.00">GraphicsItem</text>
<polyline fill="none" stroke="black" points="18,-498 128,-498 "/>
<text text-anchor="start" x="26" y="-486" font-family="Helvetica,sans-Serif" font-size="10.00">&#45; m_children</text>
<text text-anchor="start" x="26" y="-475" font-family="Helvetica,sans-Serif" font-size="10.00">&#45; m_positionCorrector</text>
<text text-anchor="start" x="26" y="-464" font-family="Helvetica,sans-Serif" font-size="10.00">&#45; m_z</text>
<text text-anchor="start" x="26" y="-453" font-family="Helvetica,sans-Serif" font-size="10.00">&#45; m_thick</text>
<text text-anchor="start" x="26" y="-442" font-family="Helvetica,sans-Serif" font-size="10.00">&#45; m_isFill</text>
<text text-anchor="start" x="26" y="-431" font-family="Helvetica,sans-Serif" font-size="10.00">&#45; m_isVisible</text>
<polyline fill="none" stroke="black" points="18,-424 128,-424 "/>
<text text-anchor="start" x="26" y="-412" font-family="Helvetica,sans-Serif" font-size="10.00">+ GraphicsItem()</text>
<text text-anchor="start" x="26" y="-401" font-family="Helvetica,sans-Serif" font-size="10.00">+ ~GraphicsItem()</text>
<text text-anchor="start" x="26" y="-390" font-family="Helvetica,sans-Serif" font-size="10.00">+ parent()</text>
<text text-anchor="start" x="26" y="-379" font-family="Helvetica,sans-Serif" font-size="10.00">+ setParent()</text>
<text text-anchor="start" x="26" y="-368" font-family="Helvetica,sans-Serif" font-size="10.00">+ type()</text>
<text text-anchor="start" x="26" y="-357" font-family="Helvetica,sans-Serif" font-size="10.00">+ children()</text>
<text text-anchor="start" x="26" y="-346" font-family="Helvetica,sans-Serif" font-size="10.00">+ anchor()</text>
<text text-anchor="start" x="26" y="-335" font-family="Helvetica,sans-Serif" font-size="10.00">+ setAnchor()</text>
<text text-anchor="start" x="26" y="-324" font-family="Helvetica,sans-Serif" font-size="10.00">+ absolute()</text>
<text text-anchor="start" x="26" y="-313" font-family="Helvetica,sans-Serif" font-size="10.00">+ setAbsolute()</text>
<text text-anchor="start" x="26" y="-302" font-family="Helvetica,sans-Serif" font-size="10.00">et 17 de plus...</text>
<text text-anchor="start" x="26" y="-291" font-family="Helvetica,sans-Serif" font-size="10.00">+ focusItem()</text>
<text text-anchor="start" x="26" y="-280" font-family="Helvetica,sans-Serif" font-size="10.00">+ setFocusItem()</text>
<text text-anchor="start" x="26" y="-269" font-family="Helvetica,sans-Serif" font-size="10.00"># meDraw()</text>
<text text-anchor="start" x="26" y="-258" font-family="Helvetica,sans-Serif" font-size="10.00"># meUpdate()</text>
<text text-anchor="start" x="26" y="-247" font-family="Helvetica,sans-Serif" font-size="10.00"># meHandleEvent()</text>
<text text-anchor="start" x="26" y="-236" font-family="Helvetica,sans-Serif" font-size="10.00"># meIsOver()</text>
</a>
</g>
</g>
<!-- Node2&#45;&gt;Node1 -->
<g id="edge1" class="edge"><title>Node2&#45;&gt;Node1</title>
<path fill="none" stroke="midnightblue" d="M132.695,-251.321C144.649,-227.156 156.997,-202.193 168.288,-179.368"/>
<polygon fill="none" stroke="midnightblue" points="129.433,-250.023 128.136,-260.538 135.707,-253.126 129.433,-250.023"/>
</g>
<!-- Node2&#45;&gt;Node2 -->
<g id="edge2" class="edge"><title>Node2&#45;&gt;Node2</title>
<path fill="none" stroke="#404040" d="M128.073,-402.993C138.574,-399.404 146,-389.406 146,-373 146,-362.746 143.099,-354.996 138.36,-349.748"/>
<polygon fill="none" stroke="#404040" points="138.11,-349.585 130.899,-349.642 128.073,-343.007 135.284,-342.95 138.11,-349.585"/>
<text text-anchor="middle" x="178" y="-376" font-family="Helvetica,sans-Serif" font-size="10.00"> &#45;m_focusItem</text>
<text text-anchor="middle" x="178" y="-365" font-family="Helvetica,sans-Serif" font-size="10.00">&#45;m_parent</text>
</g>
<!-- Node3 -->
<g id="node3" class="node"><title>Node3</title>
<g id="a_node3"><a xlink:href="class_point.html" target="_top" xlink:title="Représente un point (x, y) ">
<polygon fill="white" stroke="black" points="0,-572 0,-728 60,-728 60,-572 0,-572"/>
<text text-anchor="middle" x="30" y="-716" font-family="Helvetica,sans-Serif" font-size="10.00">Point</text>
<polyline fill="none" stroke="black" points="0,-709 60,-709 "/>
<text text-anchor="start" x="8" y="-697" font-family="Helvetica,sans-Serif" font-size="10.00">&#45; m_x</text>
<text text-anchor="start" x="8" y="-686" font-family="Helvetica,sans-Serif" font-size="10.00">&#45; m_y</text>
<polyline fill="none" stroke="black" points="0,-679 60,-679 "/>
<text text-anchor="start" x="8" y="-667" font-family="Helvetica,sans-Serif" font-size="10.00">+ Point()</text>
<text text-anchor="start" x="8" y="-656" font-family="Helvetica,sans-Serif" font-size="10.00">+ Point()</text>
<text text-anchor="start" x="8" y="-645" font-family="Helvetica,sans-Serif" font-size="10.00">+ Point()</text>
<text text-anchor="start" x="8" y="-634" font-family="Helvetica,sans-Serif" font-size="10.00">+ ~Point()</text>
<text text-anchor="start" x="8" y="-623" font-family="Helvetica,sans-Serif" font-size="10.00">+ x()</text>
<text text-anchor="start" x="8" y="-612" font-family="Helvetica,sans-Serif" font-size="10.00">+ y()</text>
<text text-anchor="start" x="8" y="-601" font-family="Helvetica,sans-Serif" font-size="10.00">+ x()</text>
<text text-anchor="start" x="8" y="-590" font-family="Helvetica,sans-Serif" font-size="10.00">+ y()</text>
<text text-anchor="start" x="8" y="-579" font-family="Helvetica,sans-Serif" font-size="10.00">+ set()</text>
</a>
</g>
</g>
<!-- Node3&#45;&gt;Node2 -->
<g id="edge3" class="edge"><title>Node3&#45;&gt;Node2</title>
<path fill="none" stroke="#404040" d="M40.6791,-571.765C42.4098,-559.784 44.2195,-547.554 46,-536 46.3583,-533.675 46.7215,-531.332 47.089,-528.974"/>
<polygon fill="none" stroke="#404040" points="47.0956,-528.931 44.0756,-522.383 48.9587,-517.077 51.9786,-523.625 47.0956,-528.931"/>
<text text-anchor="middle" x="70.5" y="-539.5" font-family="Helvetica,sans-Serif" font-size="10.00"> &#45;m_anchor</text>
</g>
<!-- Node4 -->
<g id="node4" class="node"><title>Node4</title>
<g id="a_node4"><a xlink:href="class_color.html" target="_top" xlink:title="Permet la gestion des coulours des différentes *entitées. ">
<polygon fill="white" stroke="black" points="78.5,-566.5 78.5,-733.5 155.5,-733.5 155.5,-566.5 78.5,-566.5"/>
<text text-anchor="middle" x="117" y="-721.5" font-family="Helvetica,sans-Serif" font-size="10.00">Color</text>
<polyline fill="none" stroke="black" points="78.5,-714.5 155.5,-714.5 "/>
<text text-anchor="start" x="86.5" y="-702.5" font-family="Helvetica,sans-Serif" font-size="10.00">&#45; m_color</text>
<polyline fill="none" stroke="black" points="78.5,-695.5 155.5,-695.5 "/>
<text text-anchor="start" x="86.5" y="-683.5" font-family="Helvetica,sans-Serif" font-size="10.00">+ Color()</text>
<text text-anchor="start" x="86.5" y="-672.5" font-family="Helvetica,sans-Serif" font-size="10.00">+ Color()</text>
<text text-anchor="start" x="86.5" y="-661.5" font-family="Helvetica,sans-Serif" font-size="10.00">+ Color()</text>
<text text-anchor="start" x="86.5" y="-650.5" font-family="Helvetica,sans-Serif" font-size="10.00">+ Color()</text>
<text text-anchor="start" x="86.5" y="-639.5" font-family="Helvetica,sans-Serif" font-size="10.00">+ red()</text>
<text text-anchor="start" x="86.5" y="-628.5" font-family="Helvetica,sans-Serif" font-size="10.00">+ setRed()</text>
<text text-anchor="start" x="86.5" y="-617.5" font-family="Helvetica,sans-Serif" font-size="10.00">+ green()</text>
<text text-anchor="start" x="86.5" y="-606.5" font-family="Helvetica,sans-Serif" font-size="10.00">+ setGreen()</text>
<text text-anchor="start" x="86.5" y="-595.5" font-family="Helvetica,sans-Serif" font-size="10.00">+ blue()</text>
<text text-anchor="start" x="86.5" y="-584.5" font-family="Helvetica,sans-Serif" font-size="10.00">+ setBlue()</text>
<text text-anchor="start" x="86.5" y="-573.5" font-family="Helvetica,sans-Serif" font-size="10.00">et 9 de plus...</text>
</a>
</g>
</g>
<!-- Node4&#45;&gt;Node2 -->
<g id="edge4" class="edge"><title>Node4&#45;&gt;Node2</title>
<path fill="none" stroke="#404040" d="M103.799,-566.491C101.88,-554.499 99.8543,-541.839 97.7955,-528.972"/>
<polygon fill="none" stroke="#404040" points="97.7936,-528.959 92.8958,-523.667 95.8976,-517.11 100.795,-522.403 97.7936,-528.959"/>
<text text-anchor="middle" x="121.5" y="-539.5" font-family="Helvetica,sans-Serif" font-size="10.00"> &#45;m_color</text>
</g>
<!-- Node5 -->
<g id="node5" class="node"><title>Node5</title>
<g id="a_node5"><a xlink:href="class_font.html" target="_top" xlink:title="{Font\n|&#45; m_id\l&#45; m_width\l&#45; m_height\l|+ Font()\l+ set()\l+ id()\l+ width()\l+ height()\l}">
<polygon fill="white" stroke="black" points="228,-311.5 228,-434.5 290,-434.5 290,-311.5 228,-311.5"/>
<text text-anchor="middle" x="259" y="-422.5" font-family="Helvetica,sans-Serif" font-size="10.00">Font</text>
<polyline fill="none" stroke="black" points="228,-415.5 290,-415.5 "/>
<text text-anchor="start" x="236" y="-403.5" font-family="Helvetica,sans-Serif" font-size="10.00">&#45; m_id</text>
<text text-anchor="start" x="236" y="-392.5" font-family="Helvetica,sans-Serif" font-size="10.00">&#45; m_width</text>
<text text-anchor="start" x="236" y="-381.5" font-family="Helvetica,sans-Serif" font-size="10.00">&#45; m_height</text>
<polyline fill="none" stroke="black" points="228,-374.5 290,-374.5 "/>
<text text-anchor="start" x="236" y="-362.5" font-family="Helvetica,sans-Serif" font-size="10.00">+ Font()</text>
<text text-anchor="start" x="236" y="-351.5" font-family="Helvetica,sans-Serif" font-size="10.00">+ set()</text>
<text text-anchor="start" x="236" y="-340.5" font-family="Helvetica,sans-Serif" font-size="10.00">+ id()</text>
<text text-anchor="start" x="236" y="-329.5" font-family="Helvetica,sans-Serif" font-size="10.00">+ width()</text>
<text text-anchor="start" x="236" y="-318.5" font-family="Helvetica,sans-Serif" font-size="10.00">+ height()</text>
</a>
</g>
</g>
<!-- Node5&#45;&gt;Node1 -->
<g id="edge5" class="edge"><title>Node5&#45;&gt;Node1</title>
<path fill="none" stroke="#404040" d="M248.86,-311.373C243.002,-276.353 235.486,-231.418 228.771,-191.269"/>
<polygon fill="none" stroke="#404040" points="228.742,-191.093 223.807,-185.835 226.762,-179.257 231.697,-184.515 228.742,-191.093"/>
<text text-anchor="middle" x="250.5" y="-201.5" font-family="Helvetica,sans-Serif" font-size="10.00"> &#45;m_font</text>
</g>
</g>
</svg>
