<?xml version="1.0" encoding="UTF-8" standalone="no"?>
<!DOCTYPE svg PUBLIC "-//W3C//DTD SVG 1.1//EN"
 "http://www.w3.org/Graphics/SVG/1.1/DTD/svg11.dtd">
<!-- Generated by graphviz version 2.36.0 (20140111.2315)
 -->
<!-- Title: GraphicsRectangle::setWidth Pages: 1 -->
<!--zoomable 256 -->
<svg id="main" version="1.1" xmlns="http://www.w3.org/2000/svg" xmlns:xlink="http://www.w3.org/1999/xlink" xml:space="preserve" onload="init(evt)">
<style type="text/css"><![CDATA[
.edge:hover path { stroke: red; }
.edge:hover polygon { stroke: red; fill: red; }
]]></style>
<script type="text/javascript"><![CDATA[
var edges = document.getElementsByTagName('g');
if (edges && edges.length) {
  for (var i=0;i<edges.length;i++) {
    if (edges[i].id.substr(0,4)=='edge') {
      edges[i].setAttribute('class','edge');
    }
  }
}
]]></script>
        <defs>
                <circle id="rim" cx="0" cy="0" r="7"/>
                <circle id="rim2" cx="0" cy="0" r="3.5"/>
                <g id="zoomPlus">
                        <use xlink:href="#rim" fill="#404040">
                                <set attributeName="fill" to="#808080" begin="zoomplus.mouseover" end="zoomplus.mouseout"/>
                        </use>
                        <path d="M-4,0h8M0,-4v8" fill="none" stroke="white" stroke-width="1.5" pointer-events="none"/>
                </g>
                <g id="zoomMin">
                        <use xlink:href="#rim" fill="#404040">
                                <set attributeName="fill" to="#808080" begin="zoomminus.mouseover" end="zoomminus.mouseout"/>
                        </use>
                        <path d="M-4,0h8" fill="none" stroke="white" stroke-width="1.5" pointer-events="none"/>
                </g>
                <g id="dirArrow">
                        <path fill="none" stroke="white" stroke-width="1.5" d="M0,-3.0v7 M-2.5,-0.5L0,-3.0L2.5,-0.5"/>
                </g>
               <g id="resetDef">
                       <use xlink:href="#rim2" fill="#404040">
                               <set attributeName="fill" to="#808080" begin="reset.mouseover" end="reset.mouseout"/>
                       </use>
               </g>
        </defs>

<script type="text/javascript">
var viewWidth = 838;
var viewHeight = 256;
var sectionId = 'dynsection-7';
</script>
<script xlink:href="svgpan.js"/>
<svg id="graph" class="graph">
<g id="viewport">
<title>GraphicsRectangle::setWidth</title>
<polygon fill="white" stroke="none" points="-4,4 -4,-251.884 834,-251.884 834,4 -4,4"/>
<!-- Node1 -->
<g id="node1" class="node"><title>Node1</title>
<polygon fill="#bfbfbf" stroke="black" points="0,-42 0,-72 106,-72 106,-42 0,-42"/>
<text text-anchor="start" x="8" y="-60" font-family="Helvetica,sans-Serif" font-size="10.00">GraphicsRectangle::</text>
<text text-anchor="middle" x="53" y="-49" font-family="Helvetica,sans-Serif" font-size="10.00">setWidth</text>
</g>
<!-- Node2 -->
<g id="node2" class="node"><title>Node2</title>
<g id="a_node2"><a xlink:href="class_point.html#a7f5e36e2e1bd0fa1564c1e4d5d74355c" target="_top" xlink:title="Modifie l&#39;abscisse du point indépendamment de son origine. ">
<polygon fill="white" stroke="black" points="142.5,-47.5 142.5,-66.5 243.5,-66.5 243.5,-47.5 142.5,-47.5"/>
<text text-anchor="middle" x="193" y="-54.5" font-family="Helvetica,sans-Serif" font-size="10.00">Point::setRelativeX</text>
</a>
</g>
</g>
<!-- Node1&#45;&gt;Node2 -->
<g id="edge1" class="edge"><title>Node1&#45;&gt;Node2</title>
<path fill="none" stroke="midnightblue" d="M106.172,-57C114.73,-57 123.656,-57 132.378,-57"/>
<polygon fill="midnightblue" stroke="midnightblue" points="132.49,-60.5001 142.489,-57 132.489,-53.5001 132.49,-60.5001"/>
</g>
<!-- Node3 -->
<g id="node3" class="node"><title>Node3</title>
<g id="a_node3"><a xlink:href="class_point.html#a9abe56cf3f067305623a1d805460a84f" target="_top" xlink:title="Modifie les coordonnées du point indépendamment de son origine. ">
<polygon fill="white" stroke="black" points="280.5,-113.5 280.5,-132.5 375.5,-132.5 375.5,-113.5 280.5,-113.5"/>
<text text-anchor="middle" x="328" y="-120.5" font-family="Helvetica,sans-Serif" font-size="10.00">Point::setRelative</text>
</a>
</g>
</g>
<!-- Node2&#45;&gt;Node3 -->
<g id="edge2" class="edge"><title>Node2&#45;&gt;Node3</title>
<path fill="none" stroke="midnightblue" d="M213.339,-66.597C235.699,-77.6926 272.713,-96.0607 298.401,-108.808"/>
<polygon fill="midnightblue" stroke="midnightblue" points="297.124,-112.081 307.637,-113.391 300.235,-105.811 297.124,-112.081"/>
</g>
<!-- Node6 -->
<g id="node6" class="node"><title>Node6</title>
<g id="a_node6"><a xlink:href="class_point.html#a2aa897aa68c2f3e6df3a46738f27a0ac" target="_top" xlink:title="Donne l&#39;abscisse du point par rapport à son origine. ">
<polygon fill="white" stroke="black" points="535,-0.5 535,-19.5 585,-19.5 585,-0.5 535,-0.5"/>
<text text-anchor="middle" x="560" y="-7.5" font-family="Helvetica,sans-Serif" font-size="10.00">Point::x</text>
</a>
</g>
</g>
<!-- Node2&#45;&gt;Node6 -->
<g id="edge19" class="edge"><title>Node2&#45;&gt;Node6</title>
<path fill="none" stroke="midnightblue" d="M243.512,-52.4762C280.153,-48.9716 331.257,-43.7551 376,-38 427.935,-31.3198 487.883,-21.8021 524.611,-15.7639"/>
<polygon fill="midnightblue" stroke="midnightblue" points="525.483,-19.1673 534.779,-14.0836 524.342,-12.261 525.483,-19.1673"/>
</g>
<!-- Node12 -->
<g id="node12" class="node"><title>Node12</title>
<g id="a_node12"><a xlink:href="class_point.html#a2df1f1705c57a0089ee2956315b214ba" target="_top" xlink:title="Donne l&#39;ordonnée du point indépendamment de son origine. ">
<polygon fill="white" stroke="black" points="286.5,-9.5 286.5,-28.5 369.5,-28.5 369.5,-9.5 286.5,-9.5"/>
<text text-anchor="middle" x="328" y="-16.5" font-family="Helvetica,sans-Serif" font-size="10.00">Point::relativeY</text>
</a>
</g>
</g>
<!-- Node2&#45;&gt;Node12 -->
<g id="edge20" class="edge"><title>Node2&#45;&gt;Node12</title>
<path fill="none" stroke="midnightblue" d="M227.562,-47.411C244.573,-42.5506 265.432,-36.5909 283.645,-31.3873"/>
<polygon fill="midnightblue" stroke="midnightblue" points="284.796,-34.6986 293.449,-28.5859 282.872,-27.9679 284.796,-34.6986"/>
</g>
<!-- Node4 -->
<g id="node4" class="node"><title>Node4</title>
<g id="a_node4"><a xlink:href="class_point.html#a43923c490fb5439d7d8a041e86520c34" target="_top" xlink:title="Modifie les coordonnées du point par rapport à son origine. ">
<polygon fill="white" stroke="black" points="412.5,-113.5 412.5,-132.5 471.5,-132.5 471.5,-113.5 412.5,-113.5"/>
<text text-anchor="middle" x="442" y="-120.5" font-family="Helvetica,sans-Serif" font-size="10.00">Point::set</text>
</a>
</g>
</g>
<!-- Node3&#45;&gt;Node4 -->
<g id="edge3" class="edge"><title>Node3&#45;&gt;Node4</title>
<path fill="none" stroke="midnightblue" d="M375.525,-123C384.413,-123 393.628,-123 402.241,-123"/>
<polygon fill="midnightblue" stroke="midnightblue" points="402.384,-126.5 412.384,-123 402.384,-119.5 402.384,-126.5"/>
</g>
<!-- Node7 -->
<g id="node7" class="node"><title>Node7</title>
<g id="a_node7"><a xlink:href="class_point.html#afa7d33502738b0b3df186a91e11ff2a8" target="_top" xlink:title="Donne l&#39;origine du point. ">
<polygon fill="white" stroke="black" points="648,-170.5 648,-189.5 716,-189.5 716,-170.5 648,-170.5"/>
<text text-anchor="middle" x="682" y="-177.5" font-family="Helvetica,sans-Serif" font-size="10.00">Point::origin</text>
</a>
</g>
</g>
<!-- Node3&#45;&gt;Node7 -->
<g id="edge18" class="edge"><title>Node3&#45;&gt;Node7</title>
<path fill="none" stroke="midnightblue" d="M339.224,-132.597C365.018,-156.067 435.84,-215.973 508,-237 552.377,-249.931 568.505,-252.642 612,-237 633.795,-229.162 653.602,-211.126 666.348,-197.426"/>
<polygon fill="midnightblue" stroke="midnightblue" points="669.292,-199.383 673.326,-189.586 664.063,-194.729 669.292,-199.383"/>
</g>
<!-- Node5 -->
<g id="node5" class="node"><title>Node5</title>
<g id="a_node5"><a xlink:href="class_point.html#a64a5fe8c9b1d1a1543aaa64031537380" target="_top" xlink:title="Indique si le point n&#39;appartient pas à un groupe. ">
<polygon fill="white" stroke="black" points="752.5,-84.5 752.5,-103.5 829.5,-103.5 829.5,-84.5 752.5,-84.5"/>
<text text-anchor="middle" x="791" y="-91.5" font-family="Helvetica,sans-Serif" font-size="10.00">Point::isAlone</text>
</a>
</g>
</g>
<!-- Node4&#45;&gt;Node5 -->
<g id="edge4" class="edge"><title>Node4&#45;&gt;Node5</title>
<path fill="none" stroke="midnightblue" d="M455.05,-113.283C467.469,-103.945 487.813,-90.468 508,-85 587.894,-63.3597 685.186,-74.2098 742.096,-84.0863"/>
<polygon fill="midnightblue" stroke="midnightblue" points="741.778,-87.5851 752.239,-85.9111 743.017,-80.6957 741.778,-87.5851"/>
</g>
<!-- Node4&#45;&gt;Node6 -->
<g id="edge5" class="edge"><title>Node4&#45;&gt;Node6</title>
<path fill="none" stroke="midnightblue" d="M451.015,-113.418C462.909,-99.3957 486.18,-72.7063 508,-52 517.555,-42.9326 528.801,-33.5481 538.298,-25.9559"/>
<polygon fill="midnightblue" stroke="midnightblue" points="540.741,-28.4866 546.429,-19.5478 536.408,-22.9888 540.741,-28.4866"/>
</g>
<!-- Node4&#45;&gt;Node7 -->
<g id="edge11" class="edge"><title>Node4&#45;&gt;Node7</title>
<path fill="none" stroke="midnightblue" d="M446.25,-132.785C453.552,-152.969 473.383,-198.85 508,-217 548.937,-238.463 567.171,-228.261 612,-217 628.867,-212.763 646.11,-203.519 659.139,-195.331"/>
<polygon fill="midnightblue" stroke="midnightblue" points="661.372,-198.053 667.816,-189.643 657.534,-192.198 661.372,-198.053"/>
</g>
<!-- Node9 -->
<g id="node9" class="node"><title>Node9</title>
<g id="a_node9"><a xlink:href="class_point.html#a2226d8a3fb283b0b3c1f69106df144ba" target="_top" xlink:title="Donne l&#39;ordonnée du point par rapport à son origine. ">
<polygon fill="white" stroke="black" points="535,-170.5 535,-189.5 585,-189.5 585,-170.5 535,-170.5"/>
<text text-anchor="middle" x="560" y="-177.5" font-family="Helvetica,sans-Serif" font-size="10.00">Point::y</text>
</a>
</g>
</g>
<!-- Node4&#45;&gt;Node9 -->
<g id="edge12" class="edge"><title>Node4&#45;&gt;Node9</title>
<path fill="none" stroke="midnightblue" d="M457.578,-132.504C470.499,-140.686 490.048,-152.486 508,-161 513.469,-163.594 519.395,-166.079 525.206,-168.348"/>
<polygon fill="midnightblue" stroke="midnightblue" points="524.185,-171.703 534.777,-171.943 526.646,-165.15 524.185,-171.703"/>
</g>
<!-- Node10 -->
<g id="node10" class="node"><title>Node10</title>
<g id="a_node10"><a xlink:href="jquery_8js.html#a2335e57f79b6acfb6de59c235dc8a83e" target="_top" xlink:title="p">
<polygon fill="white" stroke="black" points="545.5,-94.5 545.5,-113.5 574.5,-113.5 574.5,-94.5 545.5,-94.5"/>
<text text-anchor="middle" x="560" y="-101.5" font-family="Helvetica,sans-Serif" font-size="10.00">p</text>
</a>
</g>
</g>
<!-- Node4&#45;&gt;Node10 -->
<g id="edge16" class="edge"><title>Node4&#45;&gt;Node10</title>
<path fill="none" stroke="midnightblue" d="M471.674,-118.303C491.304,-115.088 517.015,-110.877 535.447,-107.858"/>
<polygon fill="midnightblue" stroke="midnightblue" points="536.055,-111.305 545.358,-106.235 534.923,-104.397 536.055,-111.305"/>
</g>
<!-- Node11 -->
<g id="node11" class="node"><title>Node11</title>
<g id="a_node11"><a xlink:href="class_group_points.html#a5d0d00417a192136922c27c8ce8ff98f" target="_top" xlink:title="GroupPoints::points">
<polygon fill="white" stroke="black" points="508.5,-132.5 508.5,-151.5 611.5,-151.5 611.5,-132.5 508.5,-132.5"/>
<text text-anchor="middle" x="560" y="-139.5" font-family="Helvetica,sans-Serif" font-size="10.00">GroupPoints::points</text>
</a>
</g>
</g>
<!-- Node4&#45;&gt;Node11 -->
<g id="edge17" class="edge"><title>Node4&#45;&gt;Node11</title>
<path fill="none" stroke="midnightblue" d="M471.674,-127.697C479.755,-129.02 488.865,-130.512 498.075,-132.021"/>
<polygon fill="midnightblue" stroke="midnightblue" points="497.628,-135.494 508.063,-133.657 498.76,-128.586 497.628,-135.494"/>
</g>
<!-- Node6&#45;&gt;Node5 -->
<g id="edge6" class="edge"><title>Node6&#45;&gt;Node5</title>
<path fill="none" stroke="midnightblue" d="M585.249,-14.5933C616.292,-20.9165 671.397,-33.6437 716,-52 733.818,-59.3328 752.688,-70.096 766.914,-78.8906"/>
<polygon fill="midnightblue" stroke="midnightblue" points="765.209,-81.9533 775.534,-84.3299 768.945,-76.0333 765.209,-81.9533"/>
</g>
<!-- Node6&#45;&gt;Node6 -->
<g id="edge10" class="edge"><title>Node6&#45;&gt;Node6</title>
<path fill="none" stroke="midnightblue" d="M541.813,-19.7571C532.965,-28.5653 539.027,-38 560,-38 573.436,-38 580.752,-34.128 581.949,-29.0292"/>
<polygon fill="midnightblue" stroke="midnightblue" points="585.19,-27.7074 578.187,-19.7571 578.704,-30.3393 585.19,-27.7074"/>
</g>
<!-- Node6&#45;&gt;Node7 -->
<g id="edge7" class="edge"><title>Node6&#45;&gt;Node7</title>
<path fill="none" stroke="midnightblue" d="M567.796,-19.627C587.184,-47.0944 642.994,-126.159 668.279,-161.979"/>
<polygon fill="midnightblue" stroke="midnightblue" points="665.653,-164.327 674.279,-170.479 671.372,-160.29 665.653,-164.327"/>
</g>
<!-- Node7&#45;&gt;Node5 -->
<g id="edge8" class="edge"><title>Node7&#45;&gt;Node5</title>
<path fill="none" stroke="midnightblue" d="M694.86,-170.468C713.017,-155.874 747.921,-127.82 770.029,-110.052"/>
<polygon fill="midnightblue" stroke="midnightblue" points="772.485,-112.568 778.087,-103.575 768.1,-107.111 772.485,-112.568"/>
</g>
<!-- Node8 -->
<g id="node8" class="node"><title>Node8</title>
<g id="a_node8"><a xlink:href="class_point.html#a97edc6e6415d6ccc6efcff5fcbc97f15" target="_top" xlink:title="Construit un point avec les coordonnées nulles. ">
<polygon fill="white" stroke="black" points="757,-170.5 757,-189.5 825,-189.5 825,-170.5 757,-170.5"/>
<text text-anchor="middle" x="791" y="-177.5" font-family="Helvetica,sans-Serif" font-size="10.00">Point::Point</text>
</a>
</g>
</g>
<!-- Node7&#45;&gt;Node8 -->
<g id="edge9" class="edge"><title>Node7&#45;&gt;Node8</title>
<path fill="none" stroke="midnightblue" d="M716.269,-180C725.831,-180 736.403,-180 746.485,-180"/>
<polygon fill="midnightblue" stroke="midnightblue" points="746.752,-183.5 756.752,-180 746.752,-176.5 746.752,-183.5"/>
</g>
<!-- Node9&#45;&gt;Node5 -->
<g id="edge13" class="edge"><title>Node9&#45;&gt;Node5</title>
<path fill="none" stroke="midnightblue" d="M585.133,-171.028C593.628,-167.865 603.24,-164.28 612,-161 661.746,-142.371 719.264,-120.697 755.14,-107.161"/>
<polygon fill="midnightblue" stroke="midnightblue" points="756.54,-110.374 764.66,-103.569 754.068,-103.825 756.54,-110.374"/>
</g>
<!-- Node9&#45;&gt;Node7 -->
<g id="edge14" class="edge"><title>Node9&#45;&gt;Node7</title>
<path fill="none" stroke="midnightblue" d="M585.284,-180C600.283,-180 619.964,-180 637.578,-180"/>
<polygon fill="midnightblue" stroke="midnightblue" points="637.658,-183.5 647.658,-180 637.658,-176.5 637.658,-183.5"/>
</g>
<!-- Node9&#45;&gt;Node9 -->
<g id="edge15" class="edge"><title>Node9&#45;&gt;Node9</title>
<path fill="none" stroke="midnightblue" d="M541.813,-189.757C532.965,-198.565 539.027,-208 560,-208 573.436,-208 580.752,-204.128 581.949,-199.029"/>
<polygon fill="midnightblue" stroke="midnightblue" points="585.19,-197.707 578.187,-189.757 578.704,-200.339 585.19,-197.707"/>
</g>
</g>
</svg>
        <g id="navigator" transform="translate(0 0)" fill="#404254">
                <rect fill="#f2f5e9" fill-opacity="0.5" stroke="#606060" stroke-width=".5" x="0" y="0" width="60" height="60"/>
                <use id="zoomplus" xlink:href="#zoomPlus" x="17" y="9" onmousedown="handleZoom(evt,'in')"/>
                <use id="zoomminus" xlink:href="#zoomMin" x="42" y="9" onmousedown="handleZoom(evt,'out')"/>
                <use id="reset" xlink:href="#resetDef" x="30" y="36" onmousedown="handleReset()"/>
                <g id="arrowUp" xlink:href="#dirArrow" transform="translate(30 24)" onmousedown="handlePan(0,-1)">
                  <use xlink:href="#rim" fill="#404040">
                        <set attributeName="fill" to="#808080" begin="arrowUp.mouseover" end="arrowUp.mouseout"/>
                  </use>
                  <path fill="none" stroke="white" stroke-width="1.5" d="M0,-3.0v7 M-2.5,-0.5L0,-3.0L2.5,-0.5"/>
                </g>
                <g id="arrowRight" xlink:href="#dirArrow" transform="rotate(90) translate(36 -43)" onmousedown="handlePan(1,0)">
                  <use xlink:href="#rim" fill="#404040">
                        <set attributeName="fill" to="#808080" begin="arrowRight.mouseover" end="arrowRight.mouseout"/>
                  </use>
                  <path fill="none" stroke="white" stroke-width="1.5" d="M0,-3.0v7 M-2.5,-0.5L0,-3.0L2.5,-0.5"/>
                </g>
                <g id="arrowDown" xlink:href="#dirArrow" transform="rotate(180) translate(-30 -48)" onmousedown="handlePan(0,1)">
                  <use xlink:href="#rim" fill="#404040">
                        <set attributeName="fill" to="#808080" begin="arrowDown.mouseover" end="arrowDown.mouseout"/>
                  </use>
                  <path fill="none" stroke="white" stroke-width="1.5" d="M0,-3.0v7 M-2.5,-0.5L0,-3.0L2.5,-0.5"/>
                </g>
                <g id="arrowLeft" xlink:href="#dirArrow" transform="rotate(270) translate(-36 17)" onmousedown="handlePan(-1,0)">
                  <use xlink:href="#rim" fill="#404040">
                        <set attributeName="fill" to="#808080" begin="arrowLeft.mouseover" end="arrowLeft.mouseout"/>
                  </use>
                  <path fill="none" stroke="white" stroke-width="1.5" d="M0,-3.0v7 M-2.5,-0.5L0,-3.0L2.5,-0.5"/>
                </g>
        </g>
        <svg viewBox="0 0 15 15" width="100%" height="30px" preserveAspectRatio="xMaxYMin meet">
         <g id="arrow_out" transform="scale(0.3 0.3)">
          <a xlink:href="class_graphics_rectangle_a3efd2295cd742f75de829851bf7ca3dd_cgraph_org.svg" target="_base">
           <rect id="button" ry="5" rx="5" y="6" x="6" height="38" width="38"
                fill="#f2f5e9" fill-opacity="0.5" stroke="#606060" stroke-width="1.0"/>
           <path id="arrow"
             d="M 11.500037,31.436501 C 11.940474,20.09759 22.043105,11.32322 32.158766,21.979434 L 37.068811,17.246167 C 37.068811,17.246167 37.088388,32 37.088388,32 L 22.160133,31.978069 C 22.160133,31.978069 26.997745,27.140456 26.997745,27.140456 C 18.528582,18.264221 13.291696,25.230495 11.500037,31.436501 z"
             style="fill:#404040;"/>
          </a>
         </g>
        </svg>
</svg>
