<?xml version="1.0" encoding="UTF-8" standalone="no"?>
<!DOCTYPE svg PUBLIC "-//W3C//DTD SVG 1.1//EN"
 "http://www.w3.org/Graphics/SVG/1.1/DTD/svg11.dtd">
<!-- Generated by graphviz version 2.36.0 (20140111.2315)
 -->
<!-- Title: Point::x Pages: 1 -->
<svg width="1032pt" height="753pt"
 viewBox="0.00 0.00 1032.00 753.00" xmlns="http://www.w3.org/2000/svg" xmlns:xlink="http://www.w3.org/1999/xlink">
<g id="graph0" class="graph" transform="scale(1 1) rotate(0) translate(4 749)">
<title>Point::x</title>
<polygon fill="white" stroke="none" points="-4,4 -4,-749 1028,-749 1028,4 -4,4"/>
<!-- Node1 -->
<g id="node1" class="node"><title>Node1</title>
<polygon fill="#bfbfbf" stroke="black" points="0,-360.5 0,-379.5 50,-379.5 50,-360.5 0,-360.5"/>
<text text-anchor="middle" x="25" y="-367.5" font-family="Helvetica,sans-Serif" font-size="10.00">Point::x</text>
</g>
<!-- Node1&#45;&gt;Node1 -->
<g id="edge10" class="edge"><title>Node1&#45;&gt;Node1</title>
<path fill="none" stroke="midnightblue" d="M1.5626,-389.029C2.84104,-394.128 10.6535,-398 25,-398 47.3945,-398 53.868,-388.565 44.4203,-379.757"/>
<polygon fill="midnightblue" stroke="midnightblue" points="4.8158,-390.324 5.57974,-379.757 -1.60729,-387.541 4.8158,-390.324"/>
</g>
<!-- Node2 -->
<g id="node2" class="node"><title>Node2</title>
<g id="a_node2"><a xlink:href="class_canvas.html#a4830e2b1c25e309489c489bad59ea9e1" target="_top" xlink:title="Canvas::drawPoint">
<polygon fill="white" stroke="black" points="102,-725.5 102,-744.5 202,-744.5 202,-725.5 102,-725.5"/>
<text text-anchor="middle" x="152" y="-732.5" font-family="Helvetica,sans-Serif" font-size="10.00">Canvas::drawPoint</text>
</a>
</g>
</g>
<!-- Node1&#45;&gt;Node2 -->
<g id="edge1" class="edge"><title>Node1&#45;&gt;Node2</title>
<path fill="none" stroke="midnightblue" d="M26.7609,-389.941C29.685,-456.128 42.3231,-667.102 86,-716 90.3076,-720.823 95.7646,-724.45 101.678,-727.173"/>
<polygon fill="midnightblue" stroke="midnightblue" points="30.2457,-389.498 26.3347,-379.652 23.2517,-389.788 30.2457,-389.498"/>
</g>
<!-- Node3 -->
<g id="node3" class="node"><title>Node3</title>
<g id="a_node3"><a xlink:href="class_canvas.html#aa379d9765fc40e770309001da99832c3" target="_top" xlink:title="Canvas::drawLine">
<polygon fill="white" stroke="black" points="104.5,-687.5 104.5,-706.5 199.5,-706.5 199.5,-687.5 104.5,-687.5"/>
<text text-anchor="middle" x="152" y="-694.5" font-family="Helvetica,sans-Serif" font-size="10.00">Canvas::drawLine</text>
</a>
</g>
</g>
<!-- Node1&#45;&gt;Node3 -->
<g id="edge2" class="edge"><title>Node1&#45;&gt;Node3</title>
<path fill="none" stroke="midnightblue" d="M27.2132,-389.705C31.3611,-450.749 46.9437,-635.175 86,-678 90.9911,-683.473 97.4622,-687.403 104.383,-690.217"/>
<polygon fill="midnightblue" stroke="midnightblue" points="30.6919,-389.263 26.5504,-379.511 23.7066,-389.717 30.6919,-389.263"/>
</g>
<!-- Node4 -->
<g id="node4" class="node"><title>Node4</title>
<g id="a_node4"><a xlink:href="class_canvas.html#a347a381b7cd7381a84f49a8bdd77244c" target="_top" xlink:title="Canvas::drawRectangle">
<polygon fill="white" stroke="black" points="91,-649.5 91,-668.5 213,-668.5 213,-649.5 91,-649.5"/>
<text text-anchor="middle" x="152" y="-656.5" font-family="Helvetica,sans-Serif" font-size="10.00">Canvas::drawRectangle</text>
</a>
</g>
</g>
<!-- Node1&#45;&gt;Node4 -->
<g id="edge3" class="edge"><title>Node1&#45;&gt;Node4</title>
<path fill="none" stroke="midnightblue" d="M27.8118,-389.804C33.317,-445.745 51.6104,-603.273 86,-640 89.6161,-643.862 93.9694,-646.953 98.6889,-649.425"/>
<polygon fill="midnightblue" stroke="midnightblue" points="31.2878,-389.384 26.8551,-379.761 24.3193,-390.048 31.2878,-389.384"/>
</g>
<!-- Node5 -->
<g id="node5" class="node"><title>Node5</title>
<g id="a_node5"><a xlink:href="class_canvas.html#a02f659c0cb7809f6dbb18746eb547778" target="_top" xlink:title="Canvas::drawCircle">
<polygon fill="white" stroke="black" points="100.5,-611.5 100.5,-630.5 203.5,-630.5 203.5,-611.5 100.5,-611.5"/>
<text text-anchor="middle" x="152" y="-618.5" font-family="Helvetica,sans-Serif" font-size="10.00">Canvas::drawCircle</text>
</a>
</g>
</g>
<!-- Node1&#45;&gt;Node5 -->
<g id="edge4" class="edge"><title>Node1&#45;&gt;Node5</title>
<path fill="none" stroke="midnightblue" d="M28.567,-389.626C35.5143,-439.85 56.1885,-571.24 86,-602 90.0911,-606.221 95.0637,-609.518 100.417,-612.091"/>
<polygon fill="midnightblue" stroke="midnightblue" points="32.0338,-389.144 27.2283,-379.702 25.0967,-390.08 32.0338,-389.144"/>
</g>
<!-- Node6 -->
<g id="node6" class="node"><title>Node6</title>
<g id="a_node6"><a xlink:href="class_canvas.html#a7790d284aece3ffb4455af3846521e5b" target="_top" xlink:title="Canvas::drawTriangle">
<polygon fill="white" stroke="black" points="96,-573.5 96,-592.5 208,-592.5 208,-573.5 96,-573.5"/>
<text text-anchor="middle" x="152" y="-580.5" font-family="Helvetica,sans-Serif" font-size="10.00">Canvas::drawTriangle</text>
</a>
</g>
</g>
<!-- Node1&#45;&gt;Node6 -->
<g id="edge5" class="edge"><title>Node1&#45;&gt;Node6</title>
<path fill="none" stroke="midnightblue" d="M26.2578,-389.716C27.8627,-428.656 37.069,-515.825 86,-564 89.9376,-567.877 94.6203,-570.97 99.6418,-573.438"/>
<polygon fill="midnightblue" stroke="midnightblue" points="29.7553,-389.575 25.9739,-379.678 22.7581,-389.773 29.7553,-389.575"/>
</g>
<!-- Node7 -->
<g id="node7" class="node"><title>Node7</title>
<g id="a_node7"><a xlink:href="class_canvas.html#a34af1e9202967cbb4088e18296af8296" target="_top" xlink:title="Canvas::drawText">
<polygon fill="white" stroke="black" points="103.5,-535.5 103.5,-554.5 200.5,-554.5 200.5,-535.5 103.5,-535.5"/>
<text text-anchor="middle" x="152" y="-542.5" font-family="Helvetica,sans-Serif" font-size="10.00">Canvas::drawText</text>
</a>
</g>
</g>
<!-- Node1&#45;&gt;Node7 -->
<g id="edge6" class="edge"><title>Node1&#45;&gt;Node7</title>
<path fill="none" stroke="midnightblue" d="M28.0287,-389.903C32.4694,-422.981 46.0847,-489.26 86,-526 90.9307,-530.538 96.8881,-533.998 103.171,-536.634"/>
<polygon fill="midnightblue" stroke="midnightblue" points="31.4705,-389.207 26.8125,-379.691 24.5196,-390.034 31.4705,-389.207"/>
</g>
<!-- Node8 -->
<g id="node8" class="node"><title>Node8</title>
<g id="a_node8"><a xlink:href="class_graphics_circle.html#a8533b7a4eb72f0063e98d8ad94210f16" target="_top" xlink:title="GraphicsCircle::meDraw">
<polygon fill="white" stroke="black" points="90,-497.5 90,-516.5 214,-516.5 214,-497.5 90,-497.5"/>
<text text-anchor="middle" x="152" y="-504.5" font-family="Helvetica,sans-Serif" font-size="10.00">GraphicsCircle::meDraw</text>
</a>
</g>
</g>
<!-- Node1&#45;&gt;Node8 -->
<g id="edge7" class="edge"><title>Node1&#45;&gt;Node8</title>
<path fill="none" stroke="midnightblue" d="M30.9122,-389.629C38.4222,-415.631 55.2341,-461.206 86,-487 91.1572,-491.324 97.2402,-494.714 103.581,-497.371"/>
<polygon fill="midnightblue" stroke="midnightblue" points="34.2422,-388.536 28.2495,-379.799 27.4856,-390.366 34.2422,-388.536"/>
</g>
<!-- Node9 -->
<g id="node9" class="node"><title>Node9</title>
<g id="a_node9"><a xlink:href="class_graphics_rectangle.html#ab7b6075e46e61d99dc9569219f1079bd" target="_top" xlink:title="GraphicsRectangle::\lwidth">
<polygon fill="white" stroke="black" points="99,-448 99,-478 205,-478 205,-448 99,-448"/>
<text text-anchor="start" x="107" y="-466" font-family="Helvetica,sans-Serif" font-size="10.00">GraphicsRectangle::</text>
<text text-anchor="middle" x="152" y="-455" font-family="Helvetica,sans-Serif" font-size="10.00">width</text>
</a>
</g>
</g>
<!-- Node1&#45;&gt;Node9 -->
<g id="edge8" class="edge"><title>Node1&#45;&gt;Node9</title>
<path fill="none" stroke="midnightblue" d="M38.2109,-388.17C49.1772,-403.289 66.5163,-424.455 86,-438 91.4601,-441.796 97.5742,-445.115 103.809,-447.986"/>
<polygon fill="midnightblue" stroke="midnightblue" points="40.8511,-385.839 32.2442,-379.661 35.1196,-389.858 40.8511,-385.839"/>
</g>
<!-- Node10 -->
<g id="node10" class="node"><title>Node10</title>
<g id="a_node10"><a xlink:href="class_graphics_square.html#a14374df804233349ce8654bbe41531e7" target="_top" xlink:title="GraphicsSquare::Graphics\lSquare">
<polygon fill="white" stroke="black" points="86.5,-399 86.5,-429 217.5,-429 217.5,-399 86.5,-399"/>
<text text-anchor="start" x="94.5" y="-417" font-family="Helvetica,sans-Serif" font-size="10.00">GraphicsSquare::Graphics</text>
<text text-anchor="middle" x="152" y="-406" font-family="Helvetica,sans-Serif" font-size="10.00">Square</text>
</a>
</g>
</g>
<!-- Node1&#45;&gt;Node10 -->
<g id="edge9" class="edge"><title>Node1&#45;&gt;Node10</title>
<path fill="none" stroke="midnightblue" d="M59.9144,-381.938C74.8081,-387.18 92.4622,-393.395 108.244,-398.95"/>
<polygon fill="midnightblue" stroke="midnightblue" points="60.6961,-378.503 50.1013,-378.484 58.3718,-385.105 60.6961,-378.503"/>
</g>
<!-- Node11 -->
<g id="node11" class="node"><title>Node11</title>
<g id="a_node11"><a xlink:href="class_point.html#a43923c490fb5439d7d8a041e86520c34" target="_top" xlink:title="permet la modification des valeurs du point. ">
<polygon fill="white" stroke="black" points="122.5,-360.5 122.5,-379.5 181.5,-379.5 181.5,-360.5 122.5,-360.5"/>
<text text-anchor="middle" x="152" y="-367.5" font-family="Helvetica,sans-Serif" font-size="10.00">Point::set</text>
</a>
</g>
</g>
<!-- Node1&#45;&gt;Node11 -->
<g id="edge11" class="edge"><title>Node1&#45;&gt;Node11</title>
<path fill="none" stroke="midnightblue" d="M60.3448,-370C79.7463,-370 103.724,-370 122.146,-370"/>
<polygon fill="midnightblue" stroke="midnightblue" points="60.1013,-366.5 50.1013,-370 60.1012,-373.5 60.1013,-366.5"/>
</g>
<!-- Node16 -->
<g id="node16" class="node"><title>Node16</title>
<g id="a_node16"><a xlink:href="class_point.html#a7f5e36e2e1bd0fa1564c1e4d5d74355c" target="_top" xlink:title="Point::setRelativeX">
<polygon fill="white" stroke="black" points="444.5,-322.5 444.5,-341.5 545.5,-341.5 545.5,-322.5 444.5,-322.5"/>
<text text-anchor="middle" x="495" y="-329.5" font-family="Helvetica,sans-Serif" font-size="10.00">Point::setRelativeX</text>
</a>
</g>
</g>
<!-- Node1&#45;&gt;Node16 -->
<g id="edge38" class="edge"><title>Node1&#45;&gt;Node16</title>
<path fill="none" stroke="midnightblue" d="M35.8443,-351.349C45.979,-334.17 63.4556,-309.508 86,-297 151.849,-260.467 178.855,-279.899 254,-275 322.299,-270.547 345.125,-247.956 408,-275 429.371,-284.192 424.64,-300.099 444,-313 449.564,-316.708 455.953,-319.832 462.264,-322.409"/>
<polygon fill="midnightblue" stroke="midnightblue" points="32.5788,-350.017 30.7427,-360.451 38.6851,-353.439 32.5788,-350.017"/>
</g>
<!-- Node24 -->
<g id="node24" class="node"><title>Node24</title>
<g id="a_node24"><a xlink:href="class_point.html#a498f108de0c0351dfb3177c681a7a1f2" target="_top" xlink:title="Point::beAlone">
<polygon fill="white" stroke="black" points="291,-322.5 291,-341.5 371,-341.5 371,-322.5 291,-322.5"/>
<text text-anchor="middle" x="331" y="-329.5" font-family="Helvetica,sans-Serif" font-size="10.00">Point::beAlone</text>
</a>
</g>
</g>
<!-- Node1&#45;&gt;Node24 -->
<g id="edge32" class="edge"><title>Node1&#45;&gt;Node24</title>
<path fill="none" stroke="midnightblue" d="M59.7596,-357.823C68.2293,-355.182 77.3661,-352.68 86,-351 157.319,-337.122 242.229,-333.306 290.752,-332.303"/>
<polygon fill="midnightblue" stroke="midnightblue" points="58.6132,-354.516 50.1934,-360.947 60.7859,-361.17 58.6132,-354.516"/>
</g>
<!-- Node27 -->
<g id="node27" class="node"><title>Node27</title>
<g id="a_node27"><a xlink:href="class_point.html#a3cdf750fa08f24c2aaaf7ada42df5ad8" target="_top" xlink:title="Point::setY">
<polygon fill="white" stroke="black" points="298.5,-284.5 298.5,-303.5 363.5,-303.5 363.5,-284.5 298.5,-284.5"/>
<text text-anchor="middle" x="331" y="-291.5" font-family="Helvetica,sans-Serif" font-size="10.00">Point::setY</text>
</a>
</g>
</g>
<!-- Node1&#45;&gt;Node27 -->
<g id="edge41" class="edge"><title>Node1&#45;&gt;Node27</title>
<path fill="none" stroke="midnightblue" d="M45.7398,-354.087C56.9162,-345.899 71.5227,-336.506 86,-331 158.485,-303.432 250.445,-296.351 298.107,-294.568"/>
<polygon fill="midnightblue" stroke="midnightblue" points="43.4173,-351.456 37.58,-360.298 47.6571,-357.026 43.4173,-351.456"/>
</g>
<!-- Node28 -->
<g id="node28" class="node"><title>Node28</title>
<g id="a_node28"><a xlink:href="_point_8cpp.html#a872cb140a1e5f546a31b4b3d891b765a" target="_top" xlink:title="Surchage de l&#39;operateur ==. ">
<polygon fill="white" stroke="black" points="120,-208.5 120,-227.5 184,-227.5 184,-208.5 120,-208.5"/>
<text text-anchor="middle" x="152" y="-215.5" font-family="Helvetica,sans-Serif" font-size="10.00">operator==</text>
</a>
</g>
</g>
<!-- Node1&#45;&gt;Node28 -->
<g id="edge33" class="edge"><title>Node1&#45;&gt;Node28</title>
<path fill="none" stroke="midnightblue" d="M30.2044,-350.431C37.1504,-322.628 53.5961,-271.771 86,-242 95.3898,-233.373 108.148,-227.776 119.875,-224.178"/>
<polygon fill="midnightblue" stroke="midnightblue" points="26.7202,-349.961 27.8575,-360.495 33.5373,-351.551 26.7202,-349.961"/>
</g>
<!-- Node29 -->
<g id="node29" class="node"><title>Node29</title>
<g id="a_node29"><a xlink:href="_point_8cpp.html#a4158330ef851082d91a82eefd03aa183" target="_top" xlink:title="Surchage de l&#39;operateur +. ">
<polygon fill="white" stroke="black" points="123,-170.5 123,-189.5 181,-189.5 181,-170.5 123,-170.5"/>
<text text-anchor="middle" x="152" y="-177.5" font-family="Helvetica,sans-Serif" font-size="10.00">operator+</text>
</a>
</g>
</g>
<!-- Node1&#45;&gt;Node29 -->
<g id="edge34" class="edge"><title>Node1&#45;&gt;Node29</title>
<path fill="none" stroke="midnightblue" d="M27.238,-350.186C30.5339,-314.712 42.5341,-240.218 86,-199 95.896,-189.616 110.17,-184.835 122.822,-182.412"/>
<polygon fill="midnightblue" stroke="midnightblue" points="23.7421,-349.996 26.4448,-360.241 30.7204,-350.547 23.7421,-349.996"/>
</g>
<!-- Node30 -->
<g id="node30" class="node"><title>Node30</title>
<g id="a_node30"><a xlink:href="_point_8cpp.html#af304a4bde169f417ea02e56d3d4b7258" target="_top" xlink:title="Surchage de l&#39;operateur &#45;. ">
<polygon fill="white" stroke="black" points="124.5,-132.5 124.5,-151.5 179.5,-151.5 179.5,-132.5 124.5,-132.5"/>
<text text-anchor="middle" x="152" y="-139.5" font-family="Helvetica,sans-Serif" font-size="10.00">operator&#45;</text>
</a>
</g>
</g>
<!-- Node1&#45;&gt;Node30 -->
<g id="edge35" class="edge"><title>Node1&#45;&gt;Node30</title>
<path fill="none" stroke="midnightblue" d="M25.7368,-349.913C26.3242,-308.602 33.6676,-213.585 86,-161 96.035,-150.917 111.105,-146.12 124.209,-143.866"/>
<polygon fill="midnightblue" stroke="midnightblue" points="22.2366,-350.055 25.7185,-360.061 29.2366,-350.068 22.2366,-350.055"/>
</g>
<!-- Node31 -->
<g id="node31" class="node"><title>Node31</title>
<g id="a_node31"><a xlink:href="_point_8cpp.html#aab55cf13db83c55c46a961b2b2441960" target="_top" xlink:title="Surchage de l&#39;operateur &lt;&lt;. ">
<polygon fill="white" stroke="black" points="120,-94.5 120,-113.5 184,-113.5 184,-94.5 120,-94.5"/>
<text text-anchor="middle" x="152" y="-101.5" font-family="Helvetica,sans-Serif" font-size="10.00">operator&lt;&lt;</text>
</a>
</g>
</g>
<!-- Node1&#45;&gt;Node31 -->
<g id="edge36" class="edge"><title>Node1&#45;&gt;Node31</title>
<path fill="none" stroke="midnightblue" d="M28.2593,-350.169C34.64,-297.535 54.4125,-156.078 86,-123 94.7692,-113.817 107.708,-109.001 119.738,-106.501"/>
<polygon fill="midnightblue" stroke="midnightblue" points="24.7667,-349.901 27.0716,-360.242 31.7185,-350.721 24.7667,-349.901"/>
</g>
<!-- Node32 -->
<g id="node32" class="node"><title>Node32</title>
<g id="a_node32"><a xlink:href="_point_8cpp.html#a4e1acba0f26daf714b7816d3c1994a74" target="_top" xlink:title="Surchage de l&#39;operateur &lt;. ">
<polygon fill="white" stroke="black" points="123,-56.5 123,-75.5 181,-75.5 181,-56.5 123,-56.5"/>
<text text-anchor="middle" x="152" y="-63.5" font-family="Helvetica,sans-Serif" font-size="10.00">operator&lt;</text>
</a>
</g>
</g>
<!-- Node1&#45;&gt;Node32 -->
<g id="edge37" class="edge"><title>Node1&#45;&gt;Node32</title>
<path fill="none" stroke="midnightblue" d="M27.5548,-350.254C32.5084,-292.272 49.7679,-124.131 86,-85 95.4255,-74.8204 109.972,-69.9883 122.916,-67.7368"/>
<polygon fill="midnightblue" stroke="midnightblue" points="24.0593,-350.057 26.7262,-360.311 31.0357,-350.632 24.0593,-350.057"/>
</g>
<!-- Node33 -->
<g id="node33" class="node"><title>Node33</title>
<g id="a_node33"><a xlink:href="class_point.html#a61727372965e26cbd7e661157d959ae9" target="_top" xlink:title="Point::setRelative">
<polygon fill="white" stroke="black" points="104.5,-0.5 104.5,-19.5 199.5,-19.5 199.5,-0.5 104.5,-0.5"/>
<text text-anchor="middle" x="152" y="-7.5" font-family="Helvetica,sans-Serif" font-size="10.00">Point::setRelative</text>
</a>
</g>
</g>
<!-- Node1&#45;&gt;Node33 -->
<g id="edge39" class="edge"><title>Node1&#45;&gt;Node33</title>
<path fill="none" stroke="midnightblue" d="M27.5124,-350.113C32.5931,-287.64 50.7432,-96.5439 86,-47 94.9591,-34.4103 109.634,-25.5302 122.775,-19.6312"/>
<polygon fill="midnightblue" stroke="midnightblue" points="24.0126,-349.973 26.7147,-360.218 30.9909,-350.524 24.0126,-349.973"/>
</g>
<!-- Node12 -->
<g id="node12" class="node"><title>Node12</title>
<g id="a_node12"><a xlink:href="class_graphics_point.html#ac1242633c38521d881c9aa3548676dd4" target="_top" xlink:title="GraphicsPoint::GraphicsPoint">
<polygon fill="white" stroke="black" points="258,-550.5 258,-569.5 404,-569.5 404,-550.5 258,-550.5"/>
<text text-anchor="middle" x="331" y="-557.5" font-family="Helvetica,sans-Serif" font-size="10.00">GraphicsPoint::GraphicsPoint</text>
</a>
</g>
</g>
<!-- Node11&#45;&gt;Node12 -->
<g id="edge12" class="edge"><title>Node11&#45;&gt;Node12</title>
<path fill="none" stroke="midnightblue" d="M191.396,-374.843C201.217,-377.796 210.974,-382.506 218,-390 265.187,-440.331 205.483,-491.949 254,-541 257.73,-544.771 262.087,-547.834 266.795,-550.317"/>
<polygon fill="midnightblue" stroke="midnightblue" points="192.2,-371.436 181.652,-372.438 190.522,-378.232 192.2,-371.436"/>
</g>
<!-- Node13 -->
<g id="node13" class="node"><title>Node13</title>
<g id="a_node13"><a xlink:href="class_graphics_point.html#aaceb83d2bd068629dccfde4aee9c60f5" target="_top" xlink:title="GraphicsPoint::meHandleEvent">
<polygon fill="white" stroke="black" points="254,-512.5 254,-531.5 408,-531.5 408,-512.5 254,-512.5"/>
<text text-anchor="middle" x="331" y="-519.5" font-family="Helvetica,sans-Serif" font-size="10.00">GraphicsPoint::meHandleEvent</text>
</a>
</g>
</g>
<!-- Node11&#45;&gt;Node13 -->
<g id="edge13" class="edge"><title>Node11&#45;&gt;Node13</title>
<path fill="none" stroke="midnightblue" d="M191.533,-375.425C201.165,-378.388 210.792,-382.958 218,-390 254.191,-425.359 217.94,-462.508 254,-498 260.41,-504.309 268.464,-508.961 276.915,-512.392"/>
<polygon fill="midnightblue" stroke="midnightblue" points="192.151,-371.97 181.595,-372.883 190.416,-378.752 192.151,-371.97"/>
</g>
<!-- Node14 -->
<g id="node14" class="node"><title>Node14</title>
<g id="a_node14"><a xlink:href="class_main_window.html#a34c4b4207b46d11a4100c9b19f0e81bb" target="_top" xlink:title="MainWindow::MainWindow">
<polygon fill="white" stroke="black" points="582.5,-436.5 582.5,-455.5 717.5,-455.5 717.5,-436.5 582.5,-436.5"/>
<text text-anchor="middle" x="650" y="-443.5" font-family="Helvetica,sans-Serif" font-size="10.00">MainWindow::MainWindow</text>
</a>
</g>
</g>
<!-- Node11&#45;&gt;Node14 -->
<g id="edge14" class="edge"><title>Node11&#45;&gt;Node14</title>
<path fill="none" stroke="midnightblue" d="M191.465,-376.203C200.933,-379.165 210.496,-383.539 218,-390 246.019,-414.126 222.705,-445.308 254,-465 375.157,-541.236 560.978,-480.687 625.763,-455.594"/>
<polygon fill="midnightblue" stroke="midnightblue" points="192.287,-372.8 181.723,-373.601 190.481,-379.563 192.287,-372.8"/>
</g>
<!-- Node15 -->
<g id="node15" class="node"><title>Node15</title>
<g id="a_node15"><a xlink:href="class_point.html#a9abe56cf3f067305623a1d805460a84f" target="_top" xlink:title="Point::setRelative">
<polygon fill="white" stroke="black" points="283.5,-436.5 283.5,-455.5 378.5,-455.5 378.5,-436.5 283.5,-436.5"/>
<text text-anchor="middle" x="331" y="-443.5" font-family="Helvetica,sans-Serif" font-size="10.00">Point::setRelative</text>
</a>
</g>
</g>
<!-- Node11&#45;&gt;Node15 -->
<g id="edge15" class="edge"><title>Node11&#45;&gt;Node15</title>
<path fill="none" stroke="midnightblue" d="M191.236,-378.788C200.323,-381.673 209.764,-385.365 218,-390 236.656,-400.499 235.383,-411.433 254,-422 264.71,-428.079 277.159,-432.832 288.843,-436.446"/>
<polygon fill="midnightblue" stroke="midnightblue" points="192.169,-375.414 181.589,-375.967 190.205,-382.133 192.169,-375.414"/>
</g>
<!-- Node23 -->
<g id="node23" class="node"><title>Node23</title>
<g id="a_node23"><a xlink:href="class_point.html#a4fa7ffadfb6c9de033bfef5decdaa66e" target="_top" xlink:title="Point::join">
<polygon fill="white" stroke="black" points="465,-360.5 465,-379.5 525,-379.5 525,-360.5 465,-360.5"/>
<text text-anchor="middle" x="495" y="-367.5" font-family="Helvetica,sans-Serif" font-size="10.00">Point::join</text>
</a>
</g>
</g>
<!-- Node11&#45;&gt;Node23 -->
<g id="edge25" class="edge"><title>Node11&#45;&gt;Node23</title>
<path fill="none" stroke="midnightblue" d="M191.475,-378.979C210.222,-382.907 233.165,-387.057 254,-389 322.149,-395.354 339.96,-396.427 408,-389 427.152,-386.91 448.285,-382.274 464.809,-378.105"/>
<polygon fill="midnightblue" stroke="midnightblue" points="192.045,-375.522 181.532,-376.836 190.57,-382.365 192.045,-375.522"/>
</g>
<!-- Node11&#45;&gt;Node24 -->
<g id="edge27" class="edge"><title>Node11&#45;&gt;Node24</title>
<path fill="none" stroke="midnightblue" d="M191.747,-361.681C221.16,-355.367 261.434,-346.72 290.926,-340.389"/>
<polygon fill="midnightblue" stroke="midnightblue" points="190.875,-358.289 181.832,-363.81 192.344,-365.133 190.875,-358.289"/>
</g>
<!-- Node26 -->
<g id="node26" class="node"><title>Node26</title>
<g id="a_node26"><a xlink:href="class_point.html#a62fd0fb2c699d6d4699d3be73762ffa2" target="_top" xlink:title="Point::setX">
<polygon fill="white" stroke="black" points="298.5,-360.5 298.5,-379.5 363.5,-379.5 363.5,-360.5 298.5,-360.5"/>
<text text-anchor="middle" x="331" y="-367.5" font-family="Helvetica,sans-Serif" font-size="10.00">Point::setX</text>
</a>
</g>
</g>
<!-- Node11&#45;&gt;Node26 -->
<g id="edge30" class="edge"><title>Node11&#45;&gt;Node26</title>
<path fill="none" stroke="midnightblue" d="M192.156,-370C224.146,-370 268.778,-370 298.492,-370"/>
<polygon fill="midnightblue" stroke="midnightblue" points="191.832,-366.5 181.832,-370 191.832,-373.5 191.832,-366.5"/>
</g>
<!-- Node11&#45;&gt;Node27 -->
<g id="edge31" class="edge"><title>Node11&#45;&gt;Node27</title>
<path fill="none" stroke="midnightblue" d="M175.753,-354.8C195.664,-342.085 225.745,-324.265 254,-313 268.149,-307.359 284.465,-303.017 298.343,-299.917"/>
<polygon fill="midnightblue" stroke="midnightblue" points="173.589,-352.032 167.106,-360.411 177.4,-357.904 173.589,-352.032"/>
</g>
<!-- Node15&#45;&gt;Node14 -->
<g id="edge16" class="edge"><title>Node15&#45;&gt;Node14</title>
<path fill="none" stroke="midnightblue" d="M388.921,-446C443.245,-446 525.078,-446 582.405,-446"/>
<polygon fill="midnightblue" stroke="midnightblue" points="388.774,-442.5 378.774,-446 388.774,-449.5 388.774,-442.5"/>
</g>
<!-- Node15&#45;&gt;Node16 -->
<g id="edge17" class="edge"><title>Node15&#45;&gt;Node16</title>
<path fill="none" stroke="midnightblue" d="M354.75,-430.469C370.272,-419.508 391.017,-404.136 408,-389 425.368,-373.521 424.64,-363.901 444,-351 449.564,-347.292 455.953,-344.168 462.264,-341.591"/>
<polygon fill="midnightblue" stroke="midnightblue" points="352.48,-427.785 346.281,-436.377 356.485,-433.525 352.48,-427.785"/>
</g>
<!-- Node21 -->
<g id="node21" class="node"><title>Node21</title>
<g id="a_node21"><a xlink:href="class_point.html#abb67fd238634ebc25e4bdb3ab4cca9b6" target="_top" xlink:title="Point::setRelativeY">
<polygon fill="white" stroke="black" points="599.5,-382.5 599.5,-401.5 700.5,-401.5 700.5,-382.5 599.5,-382.5"/>
<text text-anchor="middle" x="650" y="-389.5" font-family="Helvetica,sans-Serif" font-size="10.00">Point::setRelativeY</text>
</a>
</g>
</g>
<!-- Node15&#45;&gt;Node21 -->
<g id="edge22" class="edge"><title>Node15&#45;&gt;Node21</title>
<path fill="none" stroke="midnightblue" d="M388.831,-436.319C448.794,-426.104 542.349,-410.168 599.42,-400.446"/>
<polygon fill="midnightblue" stroke="midnightblue" points="388.045,-432.902 378.774,-438.032 389.22,-439.803 388.045,-432.902"/>
</g>
<!-- Node17 -->
<g id="node17" class="node"><title>Node17</title>
<g id="a_node17"><a xlink:href="class_graphics_rectangle.html#a3efd2295cd742f75de829851bf7ca3dd" target="_top" xlink:title="GraphicsRectangle::\lsetWidth">
<polygon fill="white" stroke="black" points="597,-319 597,-349 703,-349 703,-319 597,-319"/>
<text text-anchor="start" x="605" y="-337" font-family="Helvetica,sans-Serif" font-size="10.00">GraphicsRectangle::</text>
<text text-anchor="middle" x="650" y="-326" font-family="Helvetica,sans-Serif" font-size="10.00">setWidth</text>
</a>
</g>
</g>
<!-- Node16&#45;&gt;Node17 -->
<g id="edge18" class="edge"><title>Node16&#45;&gt;Node17</title>
<path fill="none" stroke="midnightblue" d="M555.874,-332.783C569.438,-332.96 583.734,-333.147 596.944,-333.32"/>
<polygon fill="midnightblue" stroke="midnightblue" points="555.72,-329.28 545.675,-332.649 555.628,-336.28 555.72,-329.28"/>
</g>
<!-- Node18 -->
<g id="node18" class="node"><title>Node18</title>
<g id="a_node18"><a xlink:href="class_line_edit.html#a636e2ac65a70dd82fcf02f863da5c446" target="_top" xlink:title="LineEdit::setText">
<polygon fill="white" stroke="black" points="761.5,-326.5 761.5,-345.5 852.5,-345.5 852.5,-326.5 761.5,-326.5"/>
<text text-anchor="middle" x="807" y="-333.5" font-family="Helvetica,sans-Serif" font-size="10.00">LineEdit::setText</text>
</a>
</g>
</g>
<!-- Node17&#45;&gt;Node18 -->
<g id="edge19" class="edge"><title>Node17&#45;&gt;Node18</title>
<path fill="none" stroke="midnightblue" d="M713.427,-334.806C729.469,-335.013 746.408,-335.231 761.349,-335.424"/>
<polygon fill="midnightblue" stroke="midnightblue" points="713.088,-331.301 703.044,-334.672 712.998,-338.3 713.088,-331.301"/>
</g>
<!-- Node19 -->
<g id="node19" class="node"><title>Node19</title>
<g id="a_node19"><a xlink:href="class_line_edit.html#a04e1cd86821efe7570868ae397978186" target="_top" xlink:title="LineEdit::LineEdit">
<polygon fill="white" stroke="black" points="913.5,-369.5 913.5,-388.5 1006.5,-388.5 1006.5,-369.5 913.5,-369.5"/>
<text text-anchor="middle" x="960" y="-376.5" font-family="Helvetica,sans-Serif" font-size="10.00">LineEdit::LineEdit</text>
</a>
</g>
</g>
<!-- Node18&#45;&gt;Node19 -->
<g id="edge20" class="edge"><title>Node18&#45;&gt;Node19</title>
<path fill="none" stroke="midnightblue" d="M851.283,-348.326C874.905,-355.052 903.706,-363.254 925.582,-369.484"/>
<polygon fill="midnightblue" stroke="midnightblue" points="852.088,-344.916 841.512,-345.543 850.171,-351.648 852.088,-344.916"/>
</g>
<!-- Node20 -->
<g id="node20" class="node"><title>Node20</title>
<g id="a_node20"><a xlink:href="class_line_edit.html#a8d5e79e8a895901381e301d41d3d4343" target="_top" xlink:title="LineEdit::meHandleEvent">
<polygon fill="white" stroke="black" points="896,-326.5 896,-345.5 1024,-345.5 1024,-326.5 896,-326.5"/>
<text text-anchor="middle" x="960" y="-333.5" font-family="Helvetica,sans-Serif" font-size="10.00">LineEdit::meHandleEvent</text>
</a>
</g>
</g>
<!-- Node18&#45;&gt;Node20 -->
<g id="edge21" class="edge"><title>Node18&#45;&gt;Node20</title>
<path fill="none" stroke="midnightblue" d="M862.931,-336C873.62,-336 884.905,-336 895.835,-336"/>
<polygon fill="midnightblue" stroke="midnightblue" points="862.896,-332.5 852.896,-336 862.896,-339.5 862.896,-332.5"/>
</g>
<!-- Node22 -->
<g id="node22" class="node"><title>Node22</title>
<g id="a_node22"><a xlink:href="class_graphics_rectangle.html#aea349ac359e4f2227f1da772c1a26ab6" target="_top" xlink:title="GraphicsRectangle::\lsetHeight">
<polygon fill="white" stroke="black" points="754,-369 754,-399 860,-399 860,-369 754,-369"/>
<text text-anchor="start" x="762" y="-387" font-family="Helvetica,sans-Serif" font-size="10.00">GraphicsRectangle::</text>
<text text-anchor="middle" x="807" y="-376" font-family="Helvetica,sans-Serif" font-size="10.00">setHeight</text>
</a>
</g>
</g>
<!-- Node21&#45;&gt;Node22 -->
<g id="edge23" class="edge"><title>Node21&#45;&gt;Node22</title>
<path fill="none" stroke="midnightblue" d="M711.002,-388.903C725.119,-388.174 740.053,-387.404 753.796,-386.694"/>
<polygon fill="midnightblue" stroke="midnightblue" points="710.702,-385.414 700.896,-389.425 711.063,-392.405 710.702,-385.414"/>
</g>
<!-- Node22&#45;&gt;Node19 -->
<g id="edge24" class="edge"><title>Node22&#45;&gt;Node19</title>
<path fill="none" stroke="midnightblue" d="M870.643,-381.926C884.921,-381.453 899.831,-380.959 913.248,-380.515"/>
<polygon fill="midnightblue" stroke="midnightblue" points="870.267,-378.436 860.389,-382.265 870.499,-385.432 870.267,-378.436"/>
</g>
<!-- Node23&#45;&gt;Node14 -->
<g id="edge26" class="edge"><title>Node23&#45;&gt;Node14</title>
<path fill="none" stroke="midnightblue" d="M524.701,-384.256C555.423,-399.517 603.308,-423.303 629.78,-436.453"/>
<polygon fill="midnightblue" stroke="midnightblue" points="525.891,-380.94 515.378,-379.625 522.776,-387.209 525.891,-380.94"/>
</g>
<!-- Node24&#45;&gt;Node23 -->
<g id="edge29" class="edge"><title>Node24&#45;&gt;Node23</title>
<path fill="none" stroke="midnightblue" d="M381,-343.494C408.347,-349.909 441.493,-357.684 464.792,-363.149"/>
<polygon fill="midnightblue" stroke="midnightblue" points="381.751,-340.075 371.216,-341.199 380.152,-346.89 381.751,-340.075"/>
</g>
<!-- Node25 -->
<g id="node25" class="node"><title>Node25</title>
<g id="a_node25"><a xlink:href="class_point.html#a395fa04b4ec126b66fc053f829a30cc1" target="_top" xlink:title="Point::~Point">
<polygon fill="white" stroke="black" points="458,-284.5 458,-303.5 532,-303.5 532,-284.5 458,-284.5"/>
<text text-anchor="middle" x="495" y="-291.5" font-family="Helvetica,sans-Serif" font-size="10.00">Point::~Point</text>
</a>
</g>
</g>
<!-- Node24&#45;&gt;Node25 -->
<g id="edge28" class="edge"><title>Node24&#45;&gt;Node25</title>
<path fill="none" stroke="midnightblue" d="M381.138,-320.474C405.864,-314.674 435.304,-307.768 457.915,-302.464"/>
<polygon fill="midnightblue" stroke="midnightblue" points="380.152,-317.11 371.216,-322.801 381.751,-323.925 380.152,-317.11"/>
</g>
<!-- Node33&#45;&gt;Node33 -->
<g id="edge40" class="edge"><title>Node33&#45;&gt;Node33</title>
<path fill="none" stroke="midnightblue" d="M128.563,-29.0292C129.841,-34.128 137.654,-38 152,-38 174.395,-38 180.868,-28.5653 171.42,-19.7571"/>
<polygon fill="midnightblue" stroke="midnightblue" points="131.816,-30.3243 132.58,-19.7571 125.393,-27.5415 131.816,-30.3243"/>
</g>
</g>
</svg>
