<?xml version="1.0" encoding="UTF-8" standalone="no"?>
<!DOCTYPE svg PUBLIC "-//W3C//DTD SVG 1.1//EN"
 "http://www.w3.org/Graphics/SVG/1.1/DTD/svg11.dtd">
<!-- Generated by graphviz version 2.36.0 (20140111.2315)
 -->
<!-- Title: KeyEvent Pages: 1 -->
<svg width="82pt" height="272pt"
 viewBox="0.00 0.00 82.00 272.00" xmlns="http://www.w3.org/2000/svg" xmlns:xlink="http://www.w3.org/1999/xlink">
<g id="graph0" class="graph" transform="scale(1 1) rotate(0) translate(4 268)">
<title>KeyEvent</title>
<polygon fill="white" stroke="none" points="-4,4 -4,-268 78,-268 78,4 -4,4"/>
<!-- Node1 -->
<g id="node1" class="node"><title>Node1</title>
<polygon fill="#bfbfbf" stroke="black" points="0,-1 0,-135 74,-135 74,-1 0,-1"/>
<text text-anchor="middle" x="37" y="-123" font-family="Helvetica,sans-Serif" font-size="10.00">KeyEvent</text>
<polyline fill="none" stroke="black" points="0,-116 74,-116 "/>
<text text-anchor="middle" x="37" y="-104" font-family="Helvetica,sans-Serif" font-size="10.00"> </text>
<polyline fill="none" stroke="black" points="0,-97 74,-97 "/>
<text text-anchor="start" x="8" y="-85" font-family="Helvetica,sans-Serif" font-size="10.00">+ KeyEvent()</text>
<text text-anchor="start" x="8" y="-74" font-family="Helvetica,sans-Serif" font-size="10.00">+ KeyEvent()</text>
<text text-anchor="start" x="8" y="-63" font-family="Helvetica,sans-Serif" font-size="10.00">+ key()</text>
<text text-anchor="start" x="8" y="-52" font-family="Helvetica,sans-Serif" font-size="10.00">+ state()</text>
<text text-anchor="start" x="8" y="-41" font-family="Helvetica,sans-Serif" font-size="10.00">+ keyName()</text>
<text text-anchor="start" x="8" y="-30" font-family="Helvetica,sans-Serif" font-size="10.00">+ keyString()</text>
<text text-anchor="start" x="8" y="-19" font-family="Helvetica,sans-Serif" font-size="10.00">+ type()</text>
<text text-anchor="start" x="8" y="-8" font-family="Helvetica,sans-Serif" font-size="10.00"># write()</text>
</g>
<!-- Node2 -->
<g id="node2" class="node"><title>Node2</title>
<g id="a_node2"><a xlink:href="class_event.html" target="_top" xlink:title="Permet la gestion des evenements. ">
<polygon fill="white" stroke="black" points="5.5,-173 5.5,-263 68.5,-263 68.5,-173 5.5,-173"/>
<text text-anchor="middle" x="37" y="-251" font-family="Helvetica,sans-Serif" font-size="10.00">Event</text>
<polyline fill="none" stroke="black" points="5.5,-244 68.5,-244 "/>
<text text-anchor="middle" x="37" y="-232" font-family="Helvetica,sans-Serif" font-size="10.00"> </text>
<polyline fill="none" stroke="black" points="5.5,-225 68.5,-225 "/>
<text text-anchor="start" x="13.5" y="-213" font-family="Helvetica,sans-Serif" font-size="10.00">+ Event()</text>
<text text-anchor="start" x="13.5" y="-202" font-family="Helvetica,sans-Serif" font-size="10.00">+ ~Event()</text>
<text text-anchor="start" x="13.5" y="-191" font-family="Helvetica,sans-Serif" font-size="10.00">+ type()</text>
<text text-anchor="start" x="13.5" y="-180" font-family="Helvetica,sans-Serif" font-size="10.00"># write()</text>
</a>
</g>
</g>
<!-- Node2&#45;&gt;Node1 -->
<g id="edge1" class="edge"><title>Node2&#45;&gt;Node1</title>
<path fill="none" stroke="midnightblue" d="M37,-162.962C37,-153.883 37,-144.37 37,-135.03"/>
<polygon fill="none" stroke="midnightblue" points="33.5001,-162.996 37,-172.996 40.5001,-162.996 33.5001,-162.996"/>
</g>
</g>
</svg>
