<?xml version="1.0" encoding="UTF-8" standalone="no"?>
<!DOCTYPE svg PUBLIC "-//W3C//DTD SVG 1.1//EN"
 "http://www.w3.org/Graphics/SVG/1.1/DTD/svg11.dtd">
<!-- Generated by graphviz version 2.36.0 (20140111.2315)
 -->
<!-- Title: Button::minimumWidth Pages: 1 -->
<svg width="406pt" height="104pt"
 viewBox="0.00 0.00 406.00 104.00" xmlns="http://www.w3.org/2000/svg" xmlns:xlink="http://www.w3.org/1999/xlink">
<g id="graph0" class="graph" transform="scale(1 1) rotate(0) translate(4 100)">
<title>Button::minimumWidth</title>
<polygon fill="white" stroke="none" points="-4,4 -4,-100 402,-100 402,4 -4,4"/>
<!-- Node1 -->
<g id="node1" class="node"><title>Node1</title>
<polygon fill="#bfbfbf" stroke="black" points="0,-38.5 0,-57.5 116,-57.5 116,-38.5 0,-38.5"/>
<text text-anchor="middle" x="58" y="-45.5" font-family="Helvetica,sans-Serif" font-size="10.00">Button::minimumWidth</text>
</g>
<!-- Node2 -->
<g id="node2" class="node"><title>Node2</title>
<g id="a_node2"><a xlink:href="class_label.html#abd832d1488ddb8c4c66aee954722d07c" target="_top" xlink:title="Label::minimumWidth">
<polygon fill="white" stroke="black" points="152.5,-38.5 152.5,-57.5 263.5,-57.5 263.5,-38.5 152.5,-38.5"/>
<text text-anchor="middle" x="208" y="-45.5" font-family="Helvetica,sans-Serif" font-size="10.00">Label::minimumWidth</text>
</a>
</g>
</g>
<!-- Node1&#45;&gt;Node2 -->
<g id="edge1" class="edge"><title>Node1&#45;&gt;Node2</title>
<path fill="none" stroke="midnightblue" d="M116.221,-48C124.757,-48 133.607,-48 142.284,-48"/>
<polygon fill="midnightblue" stroke="midnightblue" points="142.362,-51.5001 152.362,-48 142.362,-44.5001 142.362,-51.5001"/>
</g>
<!-- Node3 -->
<g id="node3" class="node"><title>Node3</title>
<g id="a_node3"><a xlink:href="class_graphics_text.html#aaafb8f8246e4d3b0d5dd8ac5cc8586cc" target="_top" xlink:title="GraphicsText::font">
<polygon fill="white" stroke="black" points="300,-76.5 300,-95.5 398,-95.5 398,-76.5 300,-76.5"/>
<text text-anchor="middle" x="349" y="-83.5" font-family="Helvetica,sans-Serif" font-size="10.00">GraphicsText::font</text>
</a>
</g>
</g>
<!-- Node2&#45;&gt;Node3 -->
<g id="edge2" class="edge"><title>Node2&#45;&gt;Node3</title>
<path fill="none" stroke="midnightblue" d="M244.076,-57.589C262.019,-62.4944 284.058,-68.5196 303.217,-73.7571"/>
<polygon fill="midnightblue" stroke="midnightblue" points="302.367,-77.1531 312.936,-76.4141 304.213,-70.4008 302.367,-77.1531"/>
</g>
<!-- Node4 -->
<g id="node4" class="node"><title>Node4</title>
<g id="a_node4"><a xlink:href="class_font.html#ad96d9cd6356edf670103542dbe4336c3" target="_top" xlink:title="Font::width">
<polygon fill="white" stroke="black" points="316.5,-38.5 316.5,-57.5 381.5,-57.5 381.5,-38.5 316.5,-38.5"/>
<text text-anchor="middle" x="349" y="-45.5" font-family="Helvetica,sans-Serif" font-size="10.00">Font::width</text>
</a>
</g>
</g>
<!-- Node2&#45;&gt;Node4 -->
<g id="edge3" class="edge"><title>Node2&#45;&gt;Node4</title>
<path fill="none" stroke="midnightblue" d="M263.538,-48C277.701,-48 292.735,-48 306.132,-48"/>
<polygon fill="midnightblue" stroke="midnightblue" points="306.478,-51.5001 316.478,-48 306.478,-44.5001 306.478,-51.5001"/>
</g>
<!-- Node5 -->
<g id="node5" class="node"><title>Node5</title>
<g id="a_node5"><a xlink:href="class_graphics_text.html#aeb38c8c0df9473cde331540d9904d352" target="_top" xlink:title="Recupere le contenu de GraphicsText. ">
<polygon fill="white" stroke="black" points="300,-0.5 300,-19.5 398,-19.5 398,-0.5 300,-0.5"/>
<text text-anchor="middle" x="349" y="-7.5" font-family="Helvetica,sans-Serif" font-size="10.00">GraphicsText::text</text>
</a>
</g>
</g>
<!-- Node2&#45;&gt;Node5 -->
<g id="edge4" class="edge"><title>Node2&#45;&gt;Node5</title>
<path fill="none" stroke="midnightblue" d="M244.076,-38.411C262.019,-33.5056 284.058,-27.4804 303.217,-22.2429"/>
<polygon fill="midnightblue" stroke="midnightblue" points="304.213,-25.5992 312.936,-19.5859 302.367,-18.8469 304.213,-25.5992"/>
</g>
</g>
</svg>
