<?xml version="1.0" encoding="UTF-8" standalone="no"?>
<!DOCTYPE svg PUBLIC "-//W3C//DTD SVG 1.1//EN"
 "http://www.w3.org/Graphics/SVG/1.1/DTD/svg11.dtd">
<!-- Generated by graphviz version 2.36.0 (20140111.2315)
 -->
<!-- Title: GraphicsRectangle::height Pages: 1 -->
<svg width="314pt" height="51pt"
 viewBox="0.00 0.00 314.00 51.00" xmlns="http://www.w3.org/2000/svg" xmlns:xlink="http://www.w3.org/1999/xlink">
<g id="graph0" class="graph" transform="scale(1 1) rotate(0) translate(4 47)">
<title>GraphicsRectangle::height</title>
<polygon fill="white" stroke="none" points="-4,4 -4,-47 310,-47 310,4 -4,4"/>
<!-- Node1 -->
<g id="node1" class="node"><title>Node1</title>
<polygon fill="#bfbfbf" stroke="black" points="0,-0 0,-30 106,-30 106,-0 0,-0"/>
<text text-anchor="start" x="8" y="-18" font-family="Helvetica,sans-Serif" font-size="10.00">GraphicsRectangle::</text>
<text text-anchor="middle" x="53" y="-7" font-family="Helvetica,sans-Serif" font-size="10.00">height</text>
</g>
<!-- Node2 -->
<g id="node2" class="node"><title>Node2</title>
<g id="a_node2"><a xlink:href="class_point.html#a2226d8a3fb283b0b3c1f69106df144ba" target="_top" xlink:title="Fonction recuperant le valeur de l&#39;ordonée. ">
<polygon fill="white" stroke="black" points="142,-5.5 142,-24.5 192,-24.5 192,-5.5 142,-5.5"/>
<text text-anchor="middle" x="167" y="-12.5" font-family="Helvetica,sans-Serif" font-size="10.00">Point::y</text>
</a>
</g>
</g>
<!-- Node1&#45;&gt;Node2 -->
<g id="edge1" class="edge"><title>Node1&#45;&gt;Node2</title>
<path fill="none" stroke="midnightblue" d="M106.065,-15C114.724,-15 123.509,-15 131.587,-15"/>
<polygon fill="midnightblue" stroke="midnightblue" points="131.728,-18.5001 141.728,-15 131.728,-11.5001 131.728,-18.5001"/>
</g>
<!-- Node2&#45;&gt;Node2 -->
<g id="edge3" class="edge"><title>Node2&#45;&gt;Node2</title>
<path fill="none" stroke="midnightblue" d="M151.587,-24.7571C144.089,-33.5653 149.227,-43 167,-43 178.108,-43 184.281,-39.3146 185.518,-34.4"/>
<polygon fill="midnightblue" stroke="midnightblue" points="188.809,-33.2032 182.413,-24.7571 182.146,-35.3485 188.809,-33.2032"/>
</g>
<!-- Node3 -->
<g id="node3" class="node"><title>Node3</title>
<g id="a_node3"><a xlink:href="class_point.html#a64a5fe8c9b1d1a1543aaa64031537380" target="_top" xlink:title="Point::isAlone">
<polygon fill="white" stroke="black" points="228.5,-5.5 228.5,-24.5 305.5,-24.5 305.5,-5.5 228.5,-5.5"/>
<text text-anchor="middle" x="267" y="-12.5" font-family="Helvetica,sans-Serif" font-size="10.00">Point::isAlone</text>
</a>
</g>
</g>
<!-- Node2&#45;&gt;Node3 -->
<g id="edge2" class="edge"><title>Node2&#45;&gt;Node3</title>
<path fill="none" stroke="midnightblue" d="M192.225,-15C200.132,-15 209.207,-15 218.226,-15"/>
<polygon fill="midnightblue" stroke="midnightblue" points="218.321,-18.5001 228.321,-15 218.321,-11.5001 218.321,-18.5001"/>
</g>
</g>
</svg>
