<?xml version="1.0" encoding="UTF-8" standalone="no"?>
<!DOCTYPE svg PUBLIC "-//W3C//DTD SVG 1.1//EN"
 "http://www.w3.org/Graphics/SVG/1.1/DTD/svg11.dtd">
<!-- Generated by graphviz version 2.36.0 (20140111.2315)
 -->
<!-- Title: GraphicsLine::second Pages: 1 -->
<svg width="458pt" height="104pt"
 viewBox="0.00 0.00 458.00 104.00" xmlns="http://www.w3.org/2000/svg" xmlns:xlink="http://www.w3.org/1999/xlink">
<g id="graph0" class="graph" transform="scale(1 1) rotate(0) translate(4 100)">
<title>GraphicsLine::second</title>
<polygon fill="white" stroke="none" points="-4,4 -4,-100 454,-100 454,4 -4,4"/>
<!-- Node1 -->
<g id="node1" class="node"><title>Node1</title>
<polygon fill="#bfbfbf" stroke="black" points="0.5,-38.5 0.5,-57.5 111.5,-57.5 111.5,-38.5 0.5,-38.5"/>
<text text-anchor="middle" x="56" y="-45.5" font-family="Helvetica,sans-Serif" font-size="10.00">GraphicsLine::second</text>
</g>
<!-- Node2 -->
<g id="node2" class="node"><title>Node2</title>
<g id="a_node2"><a xlink:href="class_graphics_line.html#a23cc57510dd6e5a58891deb16b79b3fe" target="_top" xlink:title="GraphicsLine::GraphicsLine">
<polygon fill="white" stroke="black" points="148.5,-76.5 148.5,-95.5 285.5,-95.5 285.5,-76.5 148.5,-76.5"/>
<text text-anchor="middle" x="217" y="-83.5" font-family="Helvetica,sans-Serif" font-size="10.00">GraphicsLine::GraphicsLine</text>
</a>
</g>
</g>
<!-- Node1&#45;&gt;Node2 -->
<g id="edge1" class="edge"><title>Node1&#45;&gt;Node2</title>
<path fill="none" stroke="midnightblue" d="M107.077,-59.968C129.358,-65.2931 155.229,-71.4762 176.166,-76.4799"/>
<polygon fill="midnightblue" stroke="midnightblue" points="107.662,-56.5094 97.1224,-57.589 106.035,-63.3177 107.662,-56.5094"/>
</g>
<!-- Node3 -->
<g id="node3" class="node"><title>Node3</title>
<g id="a_node3"><a xlink:href="class_line_edit.html#a636e2ac65a70dd82fcf02f863da5c446" target="_top" xlink:title="LineEdit::setText">
<polygon fill="white" stroke="black" points="171.5,-38.5 171.5,-57.5 262.5,-57.5 262.5,-38.5 171.5,-38.5"/>
<text text-anchor="middle" x="217" y="-45.5" font-family="Helvetica,sans-Serif" font-size="10.00">LineEdit::setText</text>
</a>
</g>
</g>
<!-- Node1&#45;&gt;Node3 -->
<g id="edge2" class="edge"><title>Node1&#45;&gt;Node3</title>
<path fill="none" stroke="midnightblue" d="M121.938,-48C138.578,-48 156.1,-48 171.45,-48"/>
<polygon fill="midnightblue" stroke="midnightblue" points="121.719,-44.5001 111.719,-48 121.719,-51.5001 121.719,-44.5001"/>
</g>
<!-- Node6 -->
<g id="node6" class="node"><title>Node6</title>
<g id="a_node6"><a xlink:href="class_main_window.html#a34c4b4207b46d11a4100c9b19f0e81bb" target="_top" xlink:title="MainWindow::MainWindow">
<polygon fill="white" stroke="black" points="149.5,-0.5 149.5,-19.5 284.5,-19.5 284.5,-0.5 149.5,-0.5"/>
<text text-anchor="middle" x="217" y="-7.5" font-family="Helvetica,sans-Serif" font-size="10.00">MainWindow::MainWindow</text>
</a>
</g>
</g>
<!-- Node1&#45;&gt;Node6 -->
<g id="edge5" class="edge"><title>Node1&#45;&gt;Node6</title>
<path fill="none" stroke="midnightblue" d="M107.077,-36.032C129.358,-30.7069 155.229,-24.5238 176.166,-19.5201"/>
<polygon fill="midnightblue" stroke="midnightblue" points="106.035,-32.6823 97.1224,-38.411 107.662,-39.4906 106.035,-32.6823"/>
</g>
<!-- Node4 -->
<g id="node4" class="node"><title>Node4</title>
<g id="a_node4"><a xlink:href="class_line_edit.html#a04e1cd86821efe7570868ae397978186" target="_top" xlink:title="LineEdit::LineEdit">
<polygon fill="white" stroke="black" points="339.5,-57.5 339.5,-76.5 432.5,-76.5 432.5,-57.5 339.5,-57.5"/>
<text text-anchor="middle" x="386" y="-64.5" font-family="Helvetica,sans-Serif" font-size="10.00">LineEdit::LineEdit</text>
</a>
</g>
</g>
<!-- Node3&#45;&gt;Node4 -->
<g id="edge3" class="edge"><title>Node3&#45;&gt;Node4</title>
<path fill="none" stroke="midnightblue" d="M272.734,-54.2272C294.259,-56.6762 318.689,-59.4557 339.251,-61.795"/>
<polygon fill="midnightblue" stroke="midnightblue" points="273.085,-50.7446 262.753,-53.0917 272.293,-57.6997 273.085,-50.7446"/>
</g>
<!-- Node5 -->
<g id="node5" class="node"><title>Node5</title>
<g id="a_node5"><a xlink:href="class_line_edit.html#a8d5e79e8a895901381e301d41d3d4343" target="_top" xlink:title="LineEdit::meHandleEvent">
<polygon fill="white" stroke="black" points="322,-19.5 322,-38.5 450,-38.5 450,-19.5 322,-19.5"/>
<text text-anchor="middle" x="386" y="-26.5" font-family="Helvetica,sans-Serif" font-size="10.00">LineEdit::meHandleEvent</text>
</a>
</g>
</g>
<!-- Node3&#45;&gt;Node5 -->
<g id="edge4" class="edge"><title>Node3&#45;&gt;Node5</title>
<path fill="none" stroke="midnightblue" d="M272.821,-41.7629C288.522,-39.9766 305.762,-38.0151 321.917,-36.1772"/>
<polygon fill="midnightblue" stroke="midnightblue" points="272.293,-38.3003 262.753,-42.9083 273.085,-45.2554 272.293,-38.3003"/>
</g>
</g>
</svg>
