<?xml version="1.0" encoding="UTF-8" standalone="no"?>
<!DOCTYPE svg PUBLIC "-//W3C//DTD SVG 1.1//EN"
 "http://www.w3.org/Graphics/SVG/1.1/DTD/svg11.dtd">
<!-- Generated by graphviz version 2.36.0 (20140111.2315)
 -->
<!-- Title: GraphicsRectangle::bottomRight Pages: 1 -->
<svg width="286pt" height="126pt"
 viewBox="0.00 0.00 286.00 126.00" xmlns="http://www.w3.org/2000/svg" xmlns:xlink="http://www.w3.org/1999/xlink">
<g id="graph0" class="graph" transform="scale(1 1) rotate(0) translate(4 122)">
<title>GraphicsRectangle::bottomRight</title>
<polygon fill="white" stroke="none" points="-4,4 -4,-122 282,-122 282,4 -4,4"/>
<!-- Node1 -->
<g id="node1" class="node"><title>Node1</title>
<polygon fill="#bfbfbf" stroke="black" points="0,-39 0,-69 106,-69 106,-39 0,-39"/>
<text text-anchor="start" x="8" y="-57" font-family="Helvetica,sans-Serif" font-size="10.00">GraphicsRectangle::</text>
<text text-anchor="middle" x="53" y="-46" font-family="Helvetica,sans-Serif" font-size="10.00">bottomRight</text>
</g>
<!-- Node2 -->
<g id="node2" class="node"><title>Node2</title>
<g id="a_node2"><a xlink:href="class_graphics_rectangle.html#a3770ea3d1c51fc6c35aac4fd9ff46977" target="_top" xlink:title="GraphicsRectangle::\lmeDraw">
<polygon fill="white" stroke="black" points="157,-88 157,-118 263,-118 263,-88 157,-88"/>
<text text-anchor="start" x="165" y="-106" font-family="Helvetica,sans-Serif" font-size="10.00">GraphicsRectangle::</text>
<text text-anchor="middle" x="210" y="-95" font-family="Helvetica,sans-Serif" font-size="10.00">meDraw</text>
</a>
</g>
</g>
<!-- Node1&#45;&gt;Node2 -->
<g id="edge1" class="edge"><title>Node1&#45;&gt;Node2</title>
<path fill="none" stroke="midnightblue" d="M111.758,-72.2591C128.107,-77.4273 145.711,-82.9924 161.388,-87.9484"/>
<polygon fill="midnightblue" stroke="midnightblue" points="112.36,-68.7785 101.77,-69.1014 110.25,-75.453 112.36,-68.7785"/>
</g>
<!-- Node3 -->
<g id="node3" class="node"><title>Node3</title>
<g id="a_node3"><a xlink:href="class_graphics_rectangle.html#a22185d1ef775a5f7cc420771d9aea915" target="_top" xlink:title="GraphicsRectangle::\lmeIsOver">
<polygon fill="white" stroke="black" points="157,-39 157,-69 263,-69 263,-39 157,-39"/>
<text text-anchor="start" x="165" y="-57" font-family="Helvetica,sans-Serif" font-size="10.00">GraphicsRectangle::</text>
<text text-anchor="middle" x="210" y="-46" font-family="Helvetica,sans-Serif" font-size="10.00">meIsOver</text>
</a>
</g>
</g>
<!-- Node1&#45;&gt;Node3 -->
<g id="edge2" class="edge"><title>Node1&#45;&gt;Node3</title>
<path fill="none" stroke="midnightblue" d="M116.194,-54C129.669,-54 143.787,-54 156.83,-54"/>
<polygon fill="midnightblue" stroke="midnightblue" points="116.044,-50.5001 106.044,-54 116.044,-57.5001 116.044,-50.5001"/>
</g>
<!-- Node4 -->
<g id="node4" class="node"><title>Node4</title>
<g id="a_node4"><a xlink:href="class_main_window.html#a34c4b4207b46d11a4100c9b19f0e81bb" target="_top" xlink:title="MainWindow::MainWindow">
<polygon fill="white" stroke="black" points="142.5,-0.5 142.5,-19.5 277.5,-19.5 277.5,-0.5 142.5,-0.5"/>
<text text-anchor="middle" x="210" y="-7.5" font-family="Helvetica,sans-Serif" font-size="10.00">MainWindow::MainWindow</text>
</a>
</g>
</g>
<!-- Node1&#45;&gt;Node4 -->
<g id="edge3" class="edge"><title>Node1&#45;&gt;Node4</title>
<path fill="none" stroke="midnightblue" d="M115.862,-36.4391C136.159,-30.6774 157.949,-24.4918 175.346,-19.5533"/>
<polygon fill="midnightblue" stroke="midnightblue" points="114.708,-33.1284 106.044,-39.2262 116.62,-39.8623 114.708,-33.1284"/>
</g>
</g>
</svg>
