<?xml version="1.0" encoding="UTF-8" standalone="no"?>
<!DOCTYPE svg PUBLIC "-//W3C//DTD SVG 1.1//EN"
 "http://www.w3.org/Graphics/SVG/1.1/DTD/svg11.dtd">
<!-- Generated by graphviz version 2.36.0 (20140111.2315)
 -->
<!-- Title: Button::Button Pages: 1 -->
<!--zoomable 249 -->
<svg id="main" version="1.1" xmlns="http://www.w3.org/2000/svg" xmlns:xlink="http://www.w3.org/1999/xlink" xml:space="preserve" onload="init(evt)">
<style type="text/css"><![CDATA[
.edge:hover path { stroke: red; }
.edge:hover polygon { stroke: red; fill: red; }
]]></style>
<script type="text/javascript"><![CDATA[
var edges = document.getElementsByTagName('g');
if (edges && edges.length) {
  for (var i=0;i<edges.length;i++) {
    if (edges[i].id.substr(0,4)=='edge') {
      edges[i].setAttribute('class','edge');
    }
  }
}
]]></script>
        <defs>
                <circle id="rim" cx="0" cy="0" r="7"/>
                <circle id="rim2" cx="0" cy="0" r="3.5"/>
                <g id="zoomPlus">
                        <use xlink:href="#rim" fill="#404040">
                                <set attributeName="fill" to="#808080" begin="zoomplus.mouseover" end="zoomplus.mouseout"/>
                        </use>
                        <path d="M-4,0h8M0,-4v8" fill="none" stroke="white" stroke-width="1.5" pointer-events="none"/>
                </g>
                <g id="zoomMin">
                        <use xlink:href="#rim" fill="#404040">
                                <set attributeName="fill" to="#808080" begin="zoomminus.mouseover" end="zoomminus.mouseout"/>
                        </use>
                        <path d="M-4,0h8" fill="none" stroke="white" stroke-width="1.5" pointer-events="none"/>
                </g>
                <g id="dirArrow">
                        <path fill="none" stroke="white" stroke-width="1.5" d="M0,-3.0v7 M-2.5,-0.5L0,-3.0L2.5,-0.5"/>
                </g>
               <g id="resetDef">
                       <use xlink:href="#rim2" fill="#404040">
                               <set attributeName="fill" to="#808080" begin="reset.mouseover" end="reset.mouseout"/>
                       </use>
               </g>
        </defs>

<script type="text/javascript">
var viewWidth = 554;
var viewHeight = 249;
var sectionId = 'dynsection-3';
</script>
<script xlink:href="svgpan.js"/>
<svg id="graph" class="graph">
<g id="viewport">
<title>Button::Button</title>
<polygon fill="white" stroke="none" points="-4,4 -4,-244.542 550,-244.542 550,4 -4,4"/>
<!-- Node1 -->
<g id="node1" class="node"><title>Node1</title>
<polygon fill="#bfbfbf" stroke="black" points="0,-112.5 0,-131.5 80,-131.5 80,-112.5 0,-112.5"/>
<text text-anchor="middle" x="40" y="-119.5" font-family="Helvetica,sans-Serif" font-size="10.00">Button::Button</text>
</g>
<!-- Node2 -->
<g id="node2" class="node"><title>Node2</title>
<g id="a_node2"><a xlink:href="class_graphics_rectangle.html#aea349ac359e4f2227f1da772c1a26ab6" target="_top" xlink:title="GraphicsRectangle::\lsetHeight">
<polygon fill="white" stroke="black" points="120,-189 120,-219 226,-219 226,-189 120,-189"/>
<text text-anchor="start" x="128" y="-207" font-family="Helvetica,sans-Serif" font-size="10.00">GraphicsRectangle::</text>
<text text-anchor="middle" x="173" y="-196" font-family="Helvetica,sans-Serif" font-size="10.00">setHeight</text>
</a>
</g>
</g>
<!-- Node1&#45;&gt;Node2 -->
<g id="edge1" class="edge"><title>Node1&#45;&gt;Node2</title>
<path fill="none" stroke="midnightblue" d="M52.1088,-131.752C66.2619,-143.86 91.7991,-164.661 116,-179 119.163,-180.874 122.492,-182.697 125.884,-184.45"/>
<polygon fill="midnightblue" stroke="midnightblue" points="124.423,-187.631 134.94,-188.908 127.514,-181.351 124.423,-187.631"/>
</g>
<!-- Node9 -->
<g id="node9" class="node"><title>Node9</title>
<g id="a_node9"><a xlink:href="class_graphics_text.html#aaafb8f8246e4d3b0d5dd8ac5cc8586cc" target="_top" xlink:title="GraphicsText::font">
<polygon fill="white" stroke="black" points="124,-150.5 124,-169.5 222,-169.5 222,-150.5 124,-150.5"/>
<text text-anchor="middle" x="173" y="-157.5" font-family="Helvetica,sans-Serif" font-size="10.00">GraphicsText::font</text>
</a>
</g>
</g>
<!-- Node1&#45;&gt;Node9 -->
<g id="edge11" class="edge"><title>Node1&#45;&gt;Node9</title>
<path fill="none" stroke="midnightblue" d="M74.0568,-131.589C90.8125,-136.449 111.358,-142.409 129.297,-147.613"/>
<polygon fill="midnightblue" stroke="midnightblue" points="128.375,-150.99 138.954,-150.414 130.325,-144.267 128.375,-150.99"/>
</g>
<!-- Node10 -->
<g id="node10" class="node"><title>Node10</title>
<g id="a_node10"><a xlink:href="class_font.html#a9f5b8e83d5efd7d4df3c905864cf9c70" target="_top" xlink:title="Font::height">
<polygon fill="white" stroke="black" points="139,-112.5 139,-131.5 207,-131.5 207,-112.5 139,-112.5"/>
<text text-anchor="middle" x="173" y="-119.5" font-family="Helvetica,sans-Serif" font-size="10.00">Font::height</text>
</a>
</g>
</g>
<!-- Node1&#45;&gt;Node10 -->
<g id="edge12" class="edge"><title>Node1&#45;&gt;Node10</title>
<path fill="none" stroke="midnightblue" d="M80.3043,-122C95.4904,-122 112.926,-122 128.488,-122"/>
<polygon fill="midnightblue" stroke="midnightblue" points="128.911,-125.5 138.911,-122 128.911,-118.5 128.911,-125.5"/>
</g>
<!-- Node11 -->
<g id="node11" class="node"><title>Node11</title>
<g id="a_node11"><a xlink:href="class_graphics_rectangle.html#a3efd2295cd742f75de829851bf7ca3dd" target="_top" xlink:title="GraphicsRectangle::\lsetWidth">
<polygon fill="white" stroke="black" points="120,-63 120,-93 226,-93 226,-63 120,-63"/>
<text text-anchor="start" x="128" y="-81" font-family="Helvetica,sans-Serif" font-size="10.00">GraphicsRectangle::</text>
<text text-anchor="middle" x="173" y="-70" font-family="Helvetica,sans-Serif" font-size="10.00">setWidth</text>
</a>
</g>
</g>
<!-- Node1&#45;&gt;Node11 -->
<g id="edge13" class="edge"><title>Node1&#45;&gt;Node11</title>
<path fill="none" stroke="midnightblue" d="M69.425,-112.453C83.5157,-107.72 101.019,-101.841 117.555,-96.2868"/>
<polygon fill="midnightblue" stroke="midnightblue" points="118.781,-99.5673 127.146,-93.0654 116.552,-92.9316 118.781,-99.5673"/>
</g>
<!-- Node12 -->
<g id="node12" class="node"><title>Node12</title>
<g id="a_node12"><a xlink:href="class_graphics_text.html#ac42bb0e20251eb0dc2305be760714130" target="_top" xlink:title="Modifie le contenu de GraphicsText. ">
<polygon fill="white" stroke="black" points="116,-16.5 116,-35.5 230,-35.5 230,-16.5 116,-16.5"/>
<text text-anchor="middle" x="173" y="-23.5" font-family="Helvetica,sans-Serif" font-size="10.00">GraphicsText::setText</text>
</a>
</g>
</g>
<!-- Node1&#45;&gt;Node12 -->
<g id="edge17" class="edge"><title>Node1&#45;&gt;Node12</title>
<path fill="none" stroke="midnightblue" d="M49.9392,-112.097C63.2773,-97.735 89.6526,-70.8905 116,-53 123.11,-48.1722 131.215,-43.7356 139.007,-39.9138"/>
<polygon fill="midnightblue" stroke="midnightblue" points="140.701,-42.9854 148.27,-35.5721 137.73,-36.6471 140.701,-42.9854"/>
</g>
<!-- Node3 -->
<g id="node3" class="node"><title>Node3</title>
<g id="a_node3"><a xlink:href="class_graphics_item.html#ab1266d26ff6aa338959c0796ef915fc4" target="_top" xlink:title="GraphicsItem::setAnchor">
<polygon fill="white" stroke="black" points="266.5,-164.5 266.5,-183.5 391.5,-183.5 391.5,-164.5 266.5,-164.5"/>
<text text-anchor="middle" x="329" y="-171.5" font-family="Helvetica,sans-Serif" font-size="10.00">GraphicsItem::setAnchor</text>
</a>
</g>
</g>
<!-- Node2&#45;&gt;Node3 -->
<g id="edge2" class="edge"><title>Node2&#45;&gt;Node3</title>
<path fill="none" stroke="midnightblue" d="M226.137,-193.843C239.9,-191.162 254.849,-188.25 268.948,-185.504"/>
<polygon fill="midnightblue" stroke="midnightblue" points="269.889,-188.886 279.035,-183.539 268.551,-182.015 269.889,-188.886"/>
</g>
<!-- Node4 -->
<g id="node4" class="node"><title>Node4</title>
<g id="a_node4"><a xlink:href="class_graphics_item.html#a742f444cb7d1a142dec52ee777dd51c3" target="_top" xlink:title="GraphicsItem::anchor">
<polygon fill="white" stroke="black" points="432,-151.5 432,-170.5 542,-170.5 542,-151.5 432,-151.5"/>
<text text-anchor="middle" x="487" y="-158.5" font-family="Helvetica,sans-Serif" font-size="10.00">GraphicsItem::anchor</text>
</a>
</g>
</g>
<!-- Node2&#45;&gt;Node4 -->
<g id="edge4" class="edge"><title>Node2&#45;&gt;Node4</title>
<path fill="none" stroke="midnightblue" d="M213.606,-219.05C258.085,-233.651 331.908,-250.917 392,-231 423.488,-220.564 452.994,-195.03 470.271,-177.861"/>
<polygon fill="midnightblue" stroke="midnightblue" points="472.833,-180.247 477.312,-170.646 467.823,-175.358 472.833,-180.247"/>
</g>
<!-- Node5 -->
<g id="node5" class="node"><title>Node5</title>
<g id="a_node5"><a xlink:href="class_point.html#a2aa897aa68c2f3e6df3a46738f27a0ac" target="_top" xlink:title="recupere la valeur de l&#39;absisse du Point. ">
<polygon fill="white" stroke="black" points="304,-202.5 304,-221.5 354,-221.5 354,-202.5 304,-202.5"/>
<text text-anchor="middle" x="329" y="-209.5" font-family="Helvetica,sans-Serif" font-size="10.00">Point::x</text>
</a>
</g>
</g>
<!-- Node2&#45;&gt;Node5 -->
<g id="edge5" class="edge"><title>Node2&#45;&gt;Node5</title>
<path fill="none" stroke="midnightblue" d="M226.137,-206.708C248.475,-207.869 273.94,-209.192 293.821,-210.224"/>
<polygon fill="midnightblue" stroke="midnightblue" points="293.78,-213.727 303.948,-210.751 294.143,-206.736 293.78,-213.727"/>
</g>
<!-- Node6 -->
<g id="node6" class="node"><title>Node6</title>
<g id="a_node6"><a xlink:href="class_graphics_rectangle.html#ab1a0b1219fdc7694c6f5902c19f9e429" target="_top" xlink:title="GraphicsRectangle::\lheight">
<polygon fill="white" stroke="black" points="276,-77 276,-107 382,-107 382,-77 276,-77"/>
<text text-anchor="start" x="284" y="-95" font-family="Helvetica,sans-Serif" font-size="10.00">GraphicsRectangle::</text>
<text text-anchor="middle" x="329" y="-84" font-family="Helvetica,sans-Serif" font-size="10.00">height</text>
</a>
</g>
</g>
<!-- Node2&#45;&gt;Node6 -->
<g id="edge6" class="edge"><title>Node2&#45;&gt;Node6</title>
<path fill="none" stroke="midnightblue" d="M211.884,-188.997C218.11,-185.997 224.364,-182.636 230,-179 258.901,-160.355 287.842,-133.393 306.698,-114.438"/>
<polygon fill="midnightblue" stroke="midnightblue" points="309.389,-116.693 313.892,-107.102 304.391,-111.792 309.389,-116.693"/>
</g>
<!-- Node3&#45;&gt;Node4 -->
<g id="edge3" class="edge"><title>Node3&#45;&gt;Node4</title>
<path fill="none" stroke="midnightblue" d="M391.655,-168.862C401.516,-168.04 411.741,-167.188 421.662,-166.361"/>
<polygon fill="midnightblue" stroke="midnightblue" points="422.188,-169.83 431.863,-165.511 421.607,-162.854 422.188,-169.83"/>
</g>
<!-- Node6&#45;&gt;Node4 -->
<g id="edge10" class="edge"><title>Node6&#45;&gt;Node4</title>
<path fill="none" stroke="midnightblue" d="M364.235,-107.142C391.275,-119.102 428.69,-135.651 454.886,-147.238"/>
<polygon fill="midnightblue" stroke="midnightblue" points="453.771,-150.572 464.332,-151.416 456.602,-144.17 453.771,-150.572"/>
</g>
<!-- Node7 -->
<g id="node7" class="node"><title>Node7</title>
<g id="a_node7"><a xlink:href="class_graphics_item.html#acddeaf58963ddb0de93b7c1b27512af7" target="_top" xlink:title="GraphicsItem::absolute">
<polygon fill="white" stroke="black" points="428,-82.5 428,-101.5 546,-101.5 546,-82.5 428,-82.5"/>
<text text-anchor="middle" x="487" y="-89.5" font-family="Helvetica,sans-Serif" font-size="10.00">GraphicsItem::absolute</text>
</a>
</g>
</g>
<!-- Node6&#45;&gt;Node7 -->
<g id="edge7" class="edge"><title>Node6&#45;&gt;Node7</title>
<path fill="none" stroke="midnightblue" d="M382.38,-92C393.676,-92 405.778,-92 417.583,-92"/>
<polygon fill="midnightblue" stroke="midnightblue" points="417.853,-95.5001 427.853,-92 417.853,-88.5001 417.853,-95.5001"/>
</g>
<!-- Node8 -->
<g id="node8" class="node"><title>Node8</title>
<g id="a_node8"><a xlink:href="class_point.html#a2226d8a3fb283b0b3c1f69106df144ba" target="_top" xlink:title="Fonction recuperant le valeur de l&#39;ordonée. ">
<polygon fill="white" stroke="black" points="462,-41.5 462,-60.5 512,-60.5 512,-41.5 462,-41.5"/>
<text text-anchor="middle" x="487" y="-48.5" font-family="Helvetica,sans-Serif" font-size="10.00">Point::y</text>
</a>
</g>
</g>
<!-- Node6&#45;&gt;Node8 -->
<g id="edge9" class="edge"><title>Node6&#45;&gt;Node8</title>
<path fill="none" stroke="midnightblue" d="M382.38,-78.2335C405.399,-72.1836 431.768,-65.2534 452.144,-59.8981"/>
<polygon fill="midnightblue" stroke="midnightblue" points="453.132,-63.2574 461.914,-57.3304 451.352,-56.4873 453.132,-63.2574"/>
</g>
<!-- Node7&#45;&gt;Node7 -->
<g id="edge8" class="edge"><title>Node7&#45;&gt;Node7</title>
<path fill="none" stroke="midnightblue" d="M462.648,-101.757C450.801,-110.565 458.918,-120 487,-120 505.429,-120 515.26,-115.937 516.492,-110.654"/>
<polygon fill="midnightblue" stroke="midnightblue" points="519.386,-108.665 511.352,-101.757 513.324,-112.167 519.386,-108.665"/>
</g>
<!-- Node11&#45;&gt;Node3 -->
<g id="edge14" class="edge"><title>Node11&#45;&gt;Node3</title>
<path fill="none" stroke="midnightblue" d="M214.274,-93.0147C219.82,-95.9125 225.238,-99.2384 230,-103 250.648,-119.309 244.946,-134.218 266,-150 271.461,-154.093 277.706,-157.576 284.082,-160.512"/>
<polygon fill="midnightblue" stroke="midnightblue" points="282.866,-163.797 293.442,-164.429 285.569,-157.34 282.866,-163.797"/>
</g>
<!-- Node11&#45;&gt;Node4 -->
<g id="edge15" class="edge"><title>Node11&#45;&gt;Node4</title>
<path fill="none" stroke="midnightblue" d="M208.754,-93.1571C229.871,-102.208 254.845,-112.589 266,-116 317.535,-131.757 377.56,-143.618 421.881,-151.196"/>
<polygon fill="midnightblue" stroke="midnightblue" points="421.498,-154.681 431.941,-152.889 422.66,-147.778 421.498,-154.681"/>
</g>
<!-- Node11&#45;&gt;Node8 -->
<g id="edge16" class="edge"><title>Node11&#45;&gt;Node8</title>
<path fill="none" stroke="midnightblue" d="M226.015,-71.3541C239.057,-69.8052 253.03,-68.2463 266,-67 331.678,-60.6887 408.602,-55.6254 451.884,-52.9889"/>
<polygon fill="midnightblue" stroke="midnightblue" points="452.108,-56.4819 461.879,-52.3869 451.687,-49.4946 452.108,-56.4819"/>
</g>
<!-- Node13 -->
<g id="node13" class="node"><title>Node13</title>
<g id="a_node13"><a xlink:href="class_graphics_text.html#aeb38c8c0df9473cde331540d9904d352" target="_top" xlink:title="Recupere le contenu de GraphicsText. ">
<polygon fill="white" stroke="black" points="280,-0.5 280,-19.5 378,-19.5 378,-0.5 280,-0.5"/>
<text text-anchor="middle" x="329" y="-7.5" font-family="Helvetica,sans-Serif" font-size="10.00">GraphicsText::text</text>
</a>
</g>
</g>
<!-- Node12&#45;&gt;Node13 -->
<g id="edge18" class="edge"><title>Node12&#45;&gt;Node13</title>
<path fill="none" stroke="midnightblue" d="M230.033,-20.1784C242.927,-18.8388 256.669,-17.411 269.658,-16.0615"/>
<polygon fill="midnightblue" stroke="midnightblue" points="270.297,-19.514 279.882,-14.9993 269.574,-12.5515 270.297,-19.514"/>
</g>
</g>
</svg>
        <g id="navigator" transform="translate(0 0)" fill="#404254">
                <rect fill="#f2f5e9" fill-opacity="0.5" stroke="#606060" stroke-width=".5" x="0" y="0" width="60" height="60"/>
                <use id="zoomplus" xlink:href="#zoomPlus" x="17" y="9" onmousedown="handleZoom(evt,'in')"/>
                <use id="zoomminus" xlink:href="#zoomMin" x="42" y="9" onmousedown="handleZoom(evt,'out')"/>
                <use id="reset" xlink:href="#resetDef" x="30" y="36" onmousedown="handleReset()"/>
                <g id="arrowUp" xlink:href="#dirArrow" transform="translate(30 24)" onmousedown="handlePan(0,-1)">
                  <use xlink:href="#rim" fill="#404040">
                        <set attributeName="fill" to="#808080" begin="arrowUp.mouseover" end="arrowUp.mouseout"/>
                  </use>
                  <path fill="none" stroke="white" stroke-width="1.5" d="M0,-3.0v7 M-2.5,-0.5L0,-3.0L2.5,-0.5"/>
                </g>
                <g id="arrowRight" xlink:href="#dirArrow" transform="rotate(90) translate(36 -43)" onmousedown="handlePan(1,0)">
                  <use xlink:href="#rim" fill="#404040">
                        <set attributeName="fill" to="#808080" begin="arrowRight.mouseover" end="arrowRight.mouseout"/>
                  </use>
                  <path fill="none" stroke="white" stroke-width="1.5" d="M0,-3.0v7 M-2.5,-0.5L0,-3.0L2.5,-0.5"/>
                </g>
                <g id="arrowDown" xlink:href="#dirArrow" transform="rotate(180) translate(-30 -48)" onmousedown="handlePan(0,1)">
                  <use xlink:href="#rim" fill="#404040">
                        <set attributeName="fill" to="#808080" begin="arrowDown.mouseover" end="arrowDown.mouseout"/>
                  </use>
                  <path fill="none" stroke="white" stroke-width="1.5" d="M0,-3.0v7 M-2.5,-0.5L0,-3.0L2.5,-0.5"/>
                </g>
                <g id="arrowLeft" xlink:href="#dirArrow" transform="rotate(270) translate(-36 17)" onmousedown="handlePan(-1,0)">
                  <use xlink:href="#rim" fill="#404040">
                        <set attributeName="fill" to="#808080" begin="arrowLeft.mouseover" end="arrowLeft.mouseout"/>
                  </use>
                  <path fill="none" stroke="white" stroke-width="1.5" d="M0,-3.0v7 M-2.5,-0.5L0,-3.0L2.5,-0.5"/>
                </g>
        </g>
        <svg viewBox="0 0 15 15" width="100%" height="30px" preserveAspectRatio="xMaxYMin meet">
         <g id="arrow_out" transform="scale(0.3 0.3)">
          <a xlink:href="class_button_a2cfe02cc2981d9878f6c4660e5680388_cgraph_org.svg" target="_base">
           <rect id="button" ry="5" rx="5" y="6" x="6" height="38" width="38"
                fill="#f2f5e9" fill-opacity="0.5" stroke="#606060" stroke-width="1.0"/>
           <path id="arrow"
             d="M 11.500037,31.436501 C 11.940474,20.09759 22.043105,11.32322 32.158766,21.979434 L 37.068811,17.246167 C 37.068811,17.246167 37.088388,32 37.088388,32 L 22.160133,31.978069 C 22.160133,31.978069 26.997745,27.140456 26.997745,27.140456 C 18.528582,18.264221 13.291696,25.230495 11.500037,31.436501 z"
             style="fill:#404040;"/>
          </a>
         </g>
        </svg>
</svg>
