<?xml version="1.0" encoding="UTF-8" standalone="no"?>
<!DOCTYPE svg PUBLIC "-//W3C//DTD SVG 1.1//EN"
 "http://www.w3.org/Graphics/SVG/1.1/DTD/svg11.dtd">
<!-- Generated by graphviz version 2.36.0 (20140111.2315)
 -->
<!-- Title: ConfigItem Pages: 1 -->
<svg width="312pt" height="918pt"
 viewBox="0.00 0.00 312.00 918.00" xmlns="http://www.w3.org/2000/svg" xmlns:xlink="http://www.w3.org/1999/xlink">
<g id="graph0" class="graph" transform="scale(1 1) rotate(0) translate(4 914)">
<title>ConfigItem</title>
<polygon fill="white" stroke="none" points="-4,4 -4,-914 308,-914 308,4 -4,4"/>
<!-- Node1 -->
<g id="node1" class="node"><title>Node1</title>
<polygon fill="#bfbfbf" stroke="black" points="105,-117 105,-251 205,-251 205,-117 105,-117"/>
<text text-anchor="middle" x="155" y="-239" font-family="Helvetica,sans-Serif" font-size="10.00">ConfigItem</text>
<polyline fill="none" stroke="black" points="105,-232 205,-232 "/>
<text text-anchor="start" x="113" y="-220" font-family="Helvetica,sans-Serif" font-size="10.00"># m_target</text>
<text text-anchor="start" x="113" y="-209" font-family="Helvetica,sans-Serif" font-size="10.00"># m_layout</text>
<polyline fill="none" stroke="black" points="105,-202 205,-202 "/>
<text text-anchor="start" x="113" y="-190" font-family="Helvetica,sans-Serif" font-size="10.00">+ ConfigItem()</text>
<text text-anchor="start" x="113" y="-179" font-family="Helvetica,sans-Serif" font-size="10.00">+ target()</text>
<text text-anchor="start" x="113" y="-168" font-family="Helvetica,sans-Serif" font-size="10.00">+ setTarget()</text>
<text text-anchor="start" x="113" y="-157" font-family="Helvetica,sans-Serif" font-size="10.00">+ minimumWidth()</text>
<text text-anchor="start" x="113" y="-146" font-family="Helvetica,sans-Serif" font-size="10.00">+ minimumHeight()</text>
<text text-anchor="start" x="113" y="-135" font-family="Helvetica,sans-Serif" font-size="10.00"># meUpdate()</text>
<text text-anchor="start" x="113" y="-124" font-family="Helvetica,sans-Serif" font-size="10.00"># loadData()</text>
</g>
<!-- Node6 -->
<g id="node6" class="node"><title>Node6</title>
<g id="a_node6"><a xlink:href="class_config_image.html" target="_top" xlink:title="IHM pour modifier un GraphicsImage. ">
<polygon fill="white" stroke="black" points="-0.5,-6 -0.5,-74 86.5,-74 86.5,-6 -0.5,-6"/>
<text text-anchor="middle" x="43" y="-62" font-family="Helvetica,sans-Serif" font-size="10.00">ConfigImage</text>
<polyline fill="none" stroke="black" points="-0.5,-55 86.5,-55 "/>
<text text-anchor="middle" x="43" y="-43" font-family="Helvetica,sans-Serif" font-size="10.00"> </text>
<polyline fill="none" stroke="black" points="-0.5,-36 86.5,-36 "/>
<text text-anchor="start" x="7.5" y="-24" font-family="Helvetica,sans-Serif" font-size="10.00">+ ConfigImage()</text>
<text text-anchor="start" x="7.5" y="-13" font-family="Helvetica,sans-Serif" font-size="10.00"># loadData()</text>
</a>
</g>
</g>
<!-- Node1&#45;&gt;Node6 -->
<g id="edge5" class="edge"><title>Node1&#45;&gt;Node6</title>
<path fill="none" stroke="midnightblue" d="M98.5079,-111.376C88.2321,-98.3478 77.9784,-85.3476 69.1309,-74.1303"/>
<polygon fill="none" stroke="midnightblue" points="95.9555,-113.792 104.897,-119.476 101.452,-109.457 95.9555,-113.792"/>
</g>
<!-- Node7 -->
<g id="node7" class="node"><title>Node7</title>
<g id="a_node7"><a xlink:href="class_config_polygon.html" target="_top" xlink:title="IHM pour modifier un GraphicsPolygon. ">
<polygon fill="white" stroke="black" points="104.5,-0.5 104.5,-79.5 205.5,-79.5 205.5,-0.5 104.5,-0.5"/>
<text text-anchor="middle" x="155" y="-67.5" font-family="Helvetica,sans-Serif" font-size="10.00">ConfigPolygon</text>
<polyline fill="none" stroke="black" points="104.5,-60.5 205.5,-60.5 "/>
<text text-anchor="middle" x="155" y="-48.5" font-family="Helvetica,sans-Serif" font-size="10.00"> </text>
<polyline fill="none" stroke="black" points="104.5,-41.5 205.5,-41.5 "/>
<text text-anchor="start" x="112.5" y="-29.5" font-family="Helvetica,sans-Serif" font-size="10.00">+ ConfigPolygon()</text>
<text text-anchor="start" x="112.5" y="-18.5" font-family="Helvetica,sans-Serif" font-size="10.00"># loadData()</text>
<text text-anchor="start" x="112.5" y="-7.5" font-family="Helvetica,sans-Serif" font-size="10.00"># meHandleEvent()</text>
</a>
</g>
</g>
<!-- Node1&#45;&gt;Node7 -->
<g id="edge6" class="edge"><title>Node1&#45;&gt;Node7</title>
<path fill="none" stroke="midnightblue" d="M155,-106.816C155,-97.4566 155,-88.2179 155,-79.7552"/>
<polygon fill="none" stroke="midnightblue" points="151.5,-106.988 155,-116.989 158.5,-106.989 151.5,-106.988"/>
</g>
<!-- Node8 -->
<g id="node8" class="node"><title>Node8</title>
<g id="a_node8"><a xlink:href="class_config_text.html" target="_top" xlink:title="IHM pour modifier un GraphicsText. ">
<polygon fill="white" stroke="black" points="224,-6 224,-74 304,-74 304,-6 224,-6"/>
<text text-anchor="middle" x="264" y="-62" font-family="Helvetica,sans-Serif" font-size="10.00">ConfigText</text>
<polyline fill="none" stroke="black" points="224,-55 304,-55 "/>
<text text-anchor="middle" x="264" y="-43" font-family="Helvetica,sans-Serif" font-size="10.00"> </text>
<polyline fill="none" stroke="black" points="224,-36 304,-36 "/>
<text text-anchor="start" x="232" y="-24" font-family="Helvetica,sans-Serif" font-size="10.00">+ ConfigText()</text>
<text text-anchor="start" x="232" y="-13" font-family="Helvetica,sans-Serif" font-size="10.00"># loadData()</text>
</a>
</g>
</g>
<!-- Node1&#45;&gt;Node8 -->
<g id="edge7" class="edge"><title>Node1&#45;&gt;Node8</title>
<path fill="none" stroke="midnightblue" d="M211.323,-109.625C220.896,-97.1539 230.394,-84.7805 238.633,-74.0464"/>
<polygon fill="none" stroke="midnightblue" points="208.346,-107.755 205.034,-117.818 213.899,-112.017 208.346,-107.755"/>
</g>
<!-- Node2 -->
<g id="node2" class="node"><title>Node2</title>
<g id="a_node2"><a xlink:href="class_widget.html" target="_top" xlink:title="Classe de base. ">
<polygon fill="white" stroke="black" points="82,-288.5 82,-521.5 228,-521.5 228,-288.5 82,-288.5"/>
<text text-anchor="middle" x="155" y="-509.5" font-family="Helvetica,sans-Serif" font-size="10.00">Widget</text>
<polyline fill="none" stroke="black" points="82,-502.5 228,-502.5 "/>
<text text-anchor="start" x="90" y="-490.5" font-family="Helvetica,sans-Serif" font-size="10.00"># m_minimumWidthChanged</text>
<text text-anchor="start" x="90" y="-479.5" font-family="Helvetica,sans-Serif" font-size="10.00"># m_minimumHeightChanged</text>
<polyline fill="none" stroke="black" points="82,-472.5 228,-472.5 "/>
<text text-anchor="start" x="90" y="-460.5" font-family="Helvetica,sans-Serif" font-size="10.00">+ Widget()</text>
<text text-anchor="start" x="90" y="-449.5" font-family="Helvetica,sans-Serif" font-size="10.00">+ width()</text>
<text text-anchor="start" x="90" y="-438.5" font-family="Helvetica,sans-Serif" font-size="10.00">+ setWidth()</text>
<text text-anchor="start" x="90" y="-427.5" font-family="Helvetica,sans-Serif" font-size="10.00">+ height()</text>
<text text-anchor="start" x="90" y="-416.5" font-family="Helvetica,sans-Serif" font-size="10.00">+ setHeight()</text>
<text text-anchor="start" x="90" y="-405.5" font-family="Helvetica,sans-Serif" font-size="10.00">+ minimumWidth()</text>
<text text-anchor="start" x="90" y="-394.5" font-family="Helvetica,sans-Serif" font-size="10.00">+ minimumHeight()</text>
<text text-anchor="start" x="90" y="-383.5" font-family="Helvetica,sans-Serif" font-size="10.00">+ widthChanged()</text>
<text text-anchor="start" x="90" y="-372.5" font-family="Helvetica,sans-Serif" font-size="10.00">+ heightChanged()</text>
<text text-anchor="start" x="90" y="-361.5" font-family="Helvetica,sans-Serif" font-size="10.00">+ minimumWidthChanged()</text>
<text text-anchor="start" x="90" y="-350.5" font-family="Helvetica,sans-Serif" font-size="10.00">+ minimumHeightChanged()</text>
<text text-anchor="start" x="90" y="-339.5" font-family="Helvetica,sans-Serif" font-size="10.00"># meIsOver()</text>
<text text-anchor="start" x="90" y="-328.5" font-family="Helvetica,sans-Serif" font-size="10.00">* widthChanged()</text>
<text text-anchor="start" x="90" y="-317.5" font-family="Helvetica,sans-Serif" font-size="10.00">* heightChanged()</text>
<text text-anchor="start" x="90" y="-306.5" font-family="Helvetica,sans-Serif" font-size="10.00">* minimumWidthChanged()</text>
<text text-anchor="start" x="90" y="-295.5" font-family="Helvetica,sans-Serif" font-size="10.00">* minimumHeightChanged()</text>
</a>
</g>
</g>
<!-- Node2&#45;&gt;Node1 -->
<g id="edge1" class="edge"><title>Node2&#45;&gt;Node1</title>
<path fill="none" stroke="midnightblue" d="M155,-278.284C155,-268.999 155,-259.874 155,-251.183"/>
<polygon fill="none" stroke="midnightblue" points="151.5,-278.408 155,-288.408 158.5,-278.408 151.5,-278.408"/>
</g>
<!-- Node3 -->
<g id="node3" class="node"><title>Node3</title>
<g id="a_node3"><a xlink:href="class_graphics_item.html" target="_top" xlink:title="Classe de baseLa classe GraphicsItem est la base de tout les éléments graphiques. ...">
<polygon fill="white" stroke="black" points="104.5,-559 104.5,-803 205.5,-803 205.5,-559 104.5,-559"/>
<text text-anchor="middle" x="155" y="-791" font-family="Helvetica,sans-Serif" font-size="10.00">GraphicsItem</text>
<polyline fill="none" stroke="black" points="104.5,-784 205.5,-784 "/>
<text text-anchor="middle" x="155" y="-772" font-family="Helvetica,sans-Serif" font-size="10.00"> </text>
<polyline fill="none" stroke="black" points="104.5,-765 205.5,-765 "/>
<text text-anchor="start" x="112.5" y="-753" font-family="Helvetica,sans-Serif" font-size="10.00">+ GraphicsItem()</text>
<text text-anchor="start" x="112.5" y="-742" font-family="Helvetica,sans-Serif" font-size="10.00">+ ~GraphicsItem()</text>
<text text-anchor="start" x="112.5" y="-731" font-family="Helvetica,sans-Serif" font-size="10.00">+ id()</text>
<text text-anchor="start" x="112.5" y="-720" font-family="Helvetica,sans-Serif" font-size="10.00">+ parentId()</text>
<text text-anchor="start" x="112.5" y="-709" font-family="Helvetica,sans-Serif" font-size="10.00">+ parent()</text>
<text text-anchor="start" x="112.5" y="-698" font-family="Helvetica,sans-Serif" font-size="10.00">+ setParent()</text>
<text text-anchor="start" x="112.5" y="-687" font-family="Helvetica,sans-Serif" font-size="10.00">+ children()</text>
<text text-anchor="start" x="112.5" y="-676" font-family="Helvetica,sans-Serif" font-size="10.00">+ position()</text>
<text text-anchor="start" x="112.5" y="-665" font-family="Helvetica,sans-Serif" font-size="10.00">+ position()</text>
<text text-anchor="start" x="112.5" y="-654" font-family="Helvetica,sans-Serif" font-size="10.00">+ color()</text>
<text text-anchor="start" x="112.5" y="-643" font-family="Helvetica,sans-Serif" font-size="10.00">et 18 de plus...</text>
<text text-anchor="start" x="112.5" y="-632" font-family="Helvetica,sans-Serif" font-size="10.00">+ focusItem()</text>
<text text-anchor="start" x="112.5" y="-621" font-family="Helvetica,sans-Serif" font-size="10.00">+ setFocusItem()</text>
<text text-anchor="start" x="112.5" y="-610" font-family="Helvetica,sans-Serif" font-size="10.00">+ make()</text>
<text text-anchor="start" x="112.5" y="-599" font-family="Helvetica,sans-Serif" font-size="10.00"># meDraw()</text>
<text text-anchor="start" x="112.5" y="-588" font-family="Helvetica,sans-Serif" font-size="10.00"># meUpdate()</text>
<text text-anchor="start" x="112.5" y="-577" font-family="Helvetica,sans-Serif" font-size="10.00"># meHandleEvent()</text>
<text text-anchor="start" x="112.5" y="-566" font-family="Helvetica,sans-Serif" font-size="10.00"># meIsOver()</text>
</a>
</g>
</g>
<!-- Node3&#45;&gt;Node2 -->
<g id="edge2" class="edge"><title>Node3&#45;&gt;Node2</title>
<path fill="none" stroke="midnightblue" d="M155,-548.495C155,-539.505 155,-530.483 155,-521.585"/>
<polygon fill="none" stroke="midnightblue" points="151.5,-548.623 155,-558.623 158.5,-548.623 151.5,-548.623"/>
</g>
<!-- Node4 -->
<g id="node4" class="node"><title>Node4</title>
<polygon fill="white" stroke="#bfbfbf" points="24.5,-841 24.5,-909 163.5,-909 163.5,-841 24.5,-841"/>
<text text-anchor="start" x="32.5" y="-897" font-family="Helvetica,sans-Serif" font-size="10.00">std::enable_shared</text>
<text text-anchor="middle" x="94" y="-886" font-family="Helvetica,sans-Serif" font-size="10.00">_from_this&lt; GraphicsItem &gt;</text>
<polyline fill="none" stroke="#bfbfbf" points="24.5,-879 163.5,-879 "/>
<text text-anchor="middle" x="94" y="-867" font-family="Helvetica,sans-Serif" font-size="10.00"> </text>
<polyline fill="none" stroke="#bfbfbf" points="24.5,-860 163.5,-860 "/>
<text text-anchor="middle" x="94" y="-848" font-family="Helvetica,sans-Serif" font-size="10.00"> </text>
</g>
<!-- Node4&#45;&gt;Node3 -->
<g id="edge3" class="edge"><title>Node4&#45;&gt;Node3</title>
<path fill="none" stroke="midnightblue" d="M107.588,-831.231C110.343,-822.56 113.367,-813.041 116.513,-803.138"/>
<polygon fill="none" stroke="midnightblue" points="104.179,-830.404 104.486,-840.994 110.85,-832.523 104.179,-830.404"/>
</g>
<!-- Node5 -->
<g id="node5" class="node"><title>Node5</title>
<polygon fill="white" stroke="#bfbfbf" points="181.5,-846.5 181.5,-903.5 252.5,-903.5 252.5,-846.5 181.5,-846.5"/>
<text text-anchor="middle" x="217" y="-891.5" font-family="Helvetica,sans-Serif" font-size="10.00">noncopyable</text>
<polyline fill="none" stroke="#bfbfbf" points="181.5,-884.5 252.5,-884.5 "/>
<text text-anchor="middle" x="217" y="-872.5" font-family="Helvetica,sans-Serif" font-size="10.00"> </text>
<polyline fill="none" stroke="#bfbfbf" points="181.5,-865.5 252.5,-865.5 "/>
<text text-anchor="middle" x="217" y="-853.5" font-family="Helvetica,sans-Serif" font-size="10.00"> </text>
</g>
<!-- Node5&#45;&gt;Node3 -->
<g id="edge4" class="edge"><title>Node5&#45;&gt;Node3</title>
<path fill="none" stroke="#8b1a1a" d="M205.033,-836.94C201.787,-826.889 198.087,-815.431 194.202,-803.401"/>
<polygon fill="none" stroke="#8b1a1a" points="201.713,-838.05 208.117,-846.491 208.375,-835.899 201.713,-838.05"/>
</g>
</g>
</svg>
