<?xml version="1.0" encoding="UTF-8" standalone="no"?>
<!DOCTYPE svg PUBLIC "-//W3C//DTD SVG 1.1//EN"
 "http://www.w3.org/Graphics/SVG/1.1/DTD/svg11.dtd">
<!-- Generated by graphviz version 2.36.0 (20140111.2315)
 -->
<!-- Title: GraphicsItem::setAbsolute Pages: 1 -->
<svg width="336pt" height="164pt"
 viewBox="0.00 0.00 336.00 164.00" xmlns="http://www.w3.org/2000/svg" xmlns:xlink="http://www.w3.org/1999/xlink">
<g id="graph0" class="graph" transform="scale(1 1) rotate(0) translate(4 160)">
<title>GraphicsItem::setAbsolute</title>
<polygon fill="white" stroke="none" points="-4,4 -4,-160 332,-160 332,4 -4,4"/>
<!-- Node1 -->
<g id="node1" class="node"><title>Node1</title>
<polygon fill="#bfbfbf" stroke="black" points="0.5,-60.5 0.5,-79.5 133.5,-79.5 133.5,-60.5 0.5,-60.5"/>
<text text-anchor="middle" x="67" y="-67.5" font-family="Helvetica,sans-Serif" font-size="10.00">GraphicsItem::setAbsolute</text>
</g>
<!-- Node2 -->
<g id="node2" class="node"><title>Node2</title>
<g id="a_node2"><a xlink:href="class_graphics_rectangle.html#a3efd2295cd742f75de829851bf7ca3dd" target="_top" xlink:title="GraphicsRectangle::\lsetWidth">
<polygon fill="white" stroke="black" points="196,-126 196,-156 302,-156 302,-126 196,-126"/>
<text text-anchor="start" x="204" y="-144" font-family="Helvetica,sans-Serif" font-size="10.00">GraphicsRectangle::</text>
<text text-anchor="middle" x="249" y="-133" font-family="Helvetica,sans-Serif" font-size="10.00">setWidth</text>
</a>
</g>
</g>
<!-- Node1&#45;&gt;Node2 -->
<g id="edge1" class="edge"><title>Node1&#45;&gt;Node2</title>
<path fill="none" stroke="midnightblue" d="M96.9283,-84.1056C117.147,-93.7015 144.912,-106.358 170,-116 179.026,-119.469 188.761,-122.859 198.19,-125.967"/>
<polygon fill="midnightblue" stroke="midnightblue" points="98.1846,-80.8267 87.6534,-79.6673 95.163,-87.141 98.1846,-80.8267"/>
</g>
<!-- Node3 -->
<g id="node3" class="node"><title>Node3</title>
<g id="a_node3"><a xlink:href="class_graphics_rectangle.html#aea349ac359e4f2227f1da772c1a26ab6" target="_top" xlink:title="GraphicsRectangle::\lsetHeight">
<polygon fill="white" stroke="black" points="196,-77 196,-107 302,-107 302,-77 196,-77"/>
<text text-anchor="start" x="204" y="-95" font-family="Helvetica,sans-Serif" font-size="10.00">GraphicsRectangle::</text>
<text text-anchor="middle" x="249" y="-84" font-family="Helvetica,sans-Serif" font-size="10.00">setHeight</text>
</a>
</g>
</g>
<!-- Node1&#45;&gt;Node3 -->
<g id="edge2" class="edge"><title>Node1&#45;&gt;Node3</title>
<path fill="none" stroke="midnightblue" d="M143.957,-79.2837C161.475,-81.4247 179.72,-83.6547 195.95,-85.6383"/>
<polygon fill="midnightblue" stroke="midnightblue" points="144.099,-75.775 133.748,-78.0359 143.25,-82.7233 144.099,-75.775"/>
</g>
<!-- Node4 -->
<g id="node4" class="node"><title>Node4</title>
<g id="a_node4"><a xlink:href="class_main_window.html#a34c4b4207b46d11a4100c9b19f0e81bb" target="_top" xlink:title="MainWindow::MainWindow">
<polygon fill="white" stroke="black" points="181.5,-38.5 181.5,-57.5 316.5,-57.5 316.5,-38.5 181.5,-38.5"/>
<text text-anchor="middle" x="249" y="-45.5" font-family="Helvetica,sans-Serif" font-size="10.00">MainWindow::MainWindow</text>
</a>
</g>
</g>
<!-- Node1&#45;&gt;Node4 -->
<g id="edge3" class="edge"><title>Node1&#45;&gt;Node4</title>
<path fill="none" stroke="midnightblue" d="M144.025,-60.7081C156.385,-59.1974 169.106,-57.6426 181.223,-56.1616"/>
<polygon fill="midnightblue" stroke="midnightblue" points="143.25,-57.2767 133.748,-61.9641 144.099,-64.225 143.25,-57.2767"/>
</g>
<!-- Node5 -->
<g id="node5" class="node"><title>Node5</title>
<g id="a_node5"><a xlink:href="class_main_window.html#a9d757a20b89a70d185449618234a770b" target="_top" xlink:title="MainWindow::mouseMoveEvent">
<polygon fill="white" stroke="black" points="170,-0.5 170,-19.5 328,-19.5 328,-0.5 170,-0.5"/>
<text text-anchor="middle" x="249" y="-7.5" font-family="Helvetica,sans-Serif" font-size="10.00">MainWindow::mouseMoveEvent</text>
</a>
</g>
</g>
<!-- Node1&#45;&gt;Node5 -->
<g id="edge4" class="edge"><title>Node1&#45;&gt;Node5</title>
<path fill="none" stroke="midnightblue" d="M98.4133,-56.4421C118.475,-47.8323 145.482,-36.8692 170,-29 180.882,-25.5074 192.796,-22.3028 203.963,-19.5601"/>
<polygon fill="midnightblue" stroke="midnightblue" points="96.9443,-53.2642 89.1642,-60.4559 99.731,-59.6856 96.9443,-53.2642"/>
</g>
</g>
</svg>
