<?xml version="1.0" encoding="UTF-8" standalone="no"?>
<!DOCTYPE svg PUBLIC "-//W3C//DTD SVG 1.1//EN"
 "http://www.w3.org/Graphics/SVG/1.1/DTD/svg11.dtd">
<!-- Generated by graphviz version 2.36.0 (20140111.2315)
 -->
<!-- Title: GraphicsItem::absolute Pages: 1 -->
<!--zoomable 306 -->
<svg id="main" version="1.1" xmlns="http://www.w3.org/2000/svg" xmlns:xlink="http://www.w3.org/1999/xlink" xml:space="preserve" onload="init(evt)">
<style type="text/css"><![CDATA[
.edge:hover path { stroke: red; }
.edge:hover polygon { stroke: red; fill: red; }
]]></style>
<script type="text/javascript"><![CDATA[
var edges = document.getElementsByTagName('g');
if (edges && edges.length) {
  for (var i=0;i<edges.length;i++) {
    if (edges[i].id.substr(0,4)=='edge') {
      edges[i].setAttribute('class','edge');
    }
  }
}
]]></script>
        <defs>
                <circle id="rim" cx="0" cy="0" r="7"/>
                <circle id="rim2" cx="0" cy="0" r="3.5"/>
                <g id="zoomPlus">
                        <use xlink:href="#rim" fill="#404040">
                                <set attributeName="fill" to="#808080" begin="zoomplus.mouseover" end="zoomplus.mouseout"/>
                        </use>
                        <path d="M-4,0h8M0,-4v8" fill="none" stroke="white" stroke-width="1.5" pointer-events="none"/>
                </g>
                <g id="zoomMin">
                        <use xlink:href="#rim" fill="#404040">
                                <set attributeName="fill" to="#808080" begin="zoomminus.mouseover" end="zoomminus.mouseout"/>
                        </use>
                        <path d="M-4,0h8" fill="none" stroke="white" stroke-width="1.5" pointer-events="none"/>
                </g>
                <g id="dirArrow">
                        <path fill="none" stroke="white" stroke-width="1.5" d="M0,-3.0v7 M-2.5,-0.5L0,-3.0L2.5,-0.5"/>
                </g>
               <g id="resetDef">
                       <use xlink:href="#rim2" fill="#404040">
                               <set attributeName="fill" to="#808080" begin="reset.mouseover" end="reset.mouseout"/>
                       </use>
               </g>
        </defs>

<script type="text/javascript">
var viewWidth = 794;
var viewHeight = 306;
var sectionId = 'dynsection-5';
</script>
<script xlink:href="svgpan.js"/>
<svg id="graph" class="graph">
<g id="viewport">
<title>GraphicsItem::absolute</title>
<polygon fill="white" stroke="none" points="-4,4 -4,-302 790,-302 790,4 -4,4"/>
<!-- Node1 -->
<g id="node1" class="node"><title>Node1</title>
<polygon fill="#bfbfbf" stroke="black" points="0,-145.5 0,-164.5 118,-164.5 118,-145.5 0,-145.5"/>
<text text-anchor="middle" x="59" y="-152.5" font-family="Helvetica,sans-Serif" font-size="10.00">GraphicsItem::absolute</text>
</g>
<!-- Node2 -->
<g id="node2" class="node"><title>Node2</title>
<g id="a_node2"><a xlink:href="class_graphics_anchor.html#a1dc0e27c411d6b4b11d70bd4d8ae1699" target="_top" xlink:title="GraphicsAnchor::setAbsolute">
<polygon fill="white" stroke="black" points="154,-278.5 154,-297.5 298,-297.5 298,-278.5 154,-278.5"/>
<text text-anchor="middle" x="226" y="-285.5" font-family="Helvetica,sans-Serif" font-size="10.00">GraphicsAnchor::setAbsolute</text>
</a>
</g>
</g>
<!-- Node1&#45;&gt;Node2 -->
<g id="edge1" class="edge"><title>Node1&#45;&gt;Node2</title>
<path fill="none" stroke="midnightblue" d="M70.3054,-173.661C85.3396,-199.122 115.711,-244.384 154,-269 160.011,-272.864 166.789,-275.947 173.712,-278.405"/>
<polygon fill="midnightblue" stroke="midnightblue" points="73.1569,-171.598 65.1464,-164.664 67.0842,-175.08 73.1569,-171.598"/>
</g>
<!-- Node3 -->
<g id="node3" class="node"><title>Node3</title>
<g id="a_node3"><a xlink:href="class_graphics_circle.html#a8533b7a4eb72f0063e98d8ad94210f16" target="_top" xlink:title="GraphicsCircle::meDraw">
<polygon fill="white" stroke="black" points="164,-240.5 164,-259.5 288,-259.5 288,-240.5 164,-240.5"/>
<text text-anchor="middle" x="226" y="-247.5" font-family="Helvetica,sans-Serif" font-size="10.00">GraphicsCircle::meDraw</text>
</a>
</g>
</g>
<!-- Node1&#45;&gt;Node3 -->
<g id="edge2" class="edge"><title>Node1&#45;&gt;Node3</title>
<path fill="none" stroke="midnightblue" d="M76.4044,-171.927C94.0457,-189.19 123.669,-215.566 154,-231 161.506,-234.819 169.861,-237.932 178.128,-240.449"/>
<polygon fill="midnightblue" stroke="midnightblue" points="78.7296,-169.302 69.1825,-164.708 73.7811,-174.253 78.7296,-169.302"/>
</g>
<!-- Node4 -->
<g id="node4" class="node"><title>Node4</title>
<g id="a_node4"><a xlink:href="class_graphics_ellipse.html#a14ace83491f74618a2ae3916355bd5a6" target="_top" xlink:title="GraphicsEllipse::meDraw">
<polygon fill="white" stroke="black" points="162,-202.5 162,-221.5 290,-221.5 290,-202.5 162,-202.5"/>
<text text-anchor="middle" x="226" y="-209.5" font-family="Helvetica,sans-Serif" font-size="10.00">GraphicsEllipse::meDraw</text>
</a>
</g>
</g>
<!-- Node1&#45;&gt;Node4 -->
<g id="edge3" class="edge"><title>Node1&#45;&gt;Node4</title>
<path fill="none" stroke="midnightblue" d="M90.6161,-168.487C108.823,-176.227 132.492,-185.805 154,-193 164.286,-196.441 175.569,-199.691 186.052,-202.499"/>
<polygon fill="midnightblue" stroke="midnightblue" points="91.9428,-165.247 81.3732,-164.516 89.1799,-171.679 91.9428,-165.247"/>
</g>
<!-- Node5 -->
<g id="node5" class="node"><title>Node5</title>
<g id="a_node5"><a xlink:href="class_graphics_item.html#a6616ded9057686f175bdbaa4c62218dc" target="_top" xlink:title="GraphicsItem::meIsOver">
<polygon fill="white" stroke="black" points="164,-164.5 164,-183.5 288,-183.5 288,-164.5 164,-164.5"/>
<text text-anchor="middle" x="226" y="-171.5" font-family="Helvetica,sans-Serif" font-size="10.00">GraphicsItem::meIsOver</text>
</a>
</g>
</g>
<!-- Node1&#45;&gt;Node5 -->
<g id="edge4" class="edge"><title>Node1&#45;&gt;Node5</title>
<path fill="none" stroke="midnightblue" d="M128.415,-162.878C140.215,-164.237 152.412,-165.641 164,-166.976"/>
<polygon fill="midnightblue" stroke="midnightblue" points="128.508,-159.366 118.173,-161.699 127.707,-166.32 128.508,-159.366"/>
</g>
<!-- Node9 -->
<g id="node9" class="node"><title>Node9</title>
<g id="a_node9"><a xlink:href="class_graphics_point.html#a7c4ac7621b7bed96a192fa77d299a2cb" target="_top" xlink:title="GraphicsPoint::meDraw">
<polygon fill="white" stroke="black" points="165.5,-126.5 165.5,-145.5 286.5,-145.5 286.5,-126.5 165.5,-126.5"/>
<text text-anchor="middle" x="226" y="-133.5" font-family="Helvetica,sans-Serif" font-size="10.00">GraphicsPoint::meDraw</text>
</a>
</g>
</g>
<!-- Node1&#45;&gt;Node9 -->
<g id="edge8" class="edge"><title>Node1&#45;&gt;Node9</title>
<path fill="none" stroke="midnightblue" d="M128.371,-147.127C140.661,-145.712 153.383,-144.247 165.401,-142.863"/>
<polygon fill="midnightblue" stroke="midnightblue" points="127.707,-143.68 118.173,-148.301 128.508,-150.634 127.707,-143.68"/>
</g>
<!-- Node10 -->
<g id="node10" class="node"><title>Node10</title>
<g id="a_node10"><a xlink:href="class_graphics_point.html#af3b01336f2559f13ddfdedd249203965" target="_top" xlink:title="GraphicsPoint::meIsOver">
<polygon fill="white" stroke="black" points="162.5,-88.5 162.5,-107.5 289.5,-107.5 289.5,-88.5 162.5,-88.5"/>
<text text-anchor="middle" x="226" y="-95.5" font-family="Helvetica,sans-Serif" font-size="10.00">GraphicsPoint::meIsOver</text>
</a>
</g>
</g>
<!-- Node1&#45;&gt;Node10 -->
<g id="edge9" class="edge"><title>Node1&#45;&gt;Node10</title>
<path fill="none" stroke="midnightblue" d="M90.6161,-141.513C108.823,-133.773 132.492,-124.195 154,-117 164.286,-113.559 175.569,-110.309 186.052,-107.501"/>
<polygon fill="midnightblue" stroke="midnightblue" points="89.1799,-138.321 81.3732,-145.484 91.9428,-144.753 89.1799,-138.321"/>
</g>
<!-- Node11 -->
<g id="node11" class="node"><title>Node11</title>
<g id="a_node11"><a xlink:href="class_graphics_rectangle.html#a22185d1ef775a5f7cc420771d9aea915" target="_top" xlink:title="GraphicsRectangle::\lmeIsOver">
<polygon fill="white" stroke="black" points="173,-39 173,-69 279,-69 279,-39 173,-39"/>
<text text-anchor="start" x="181" y="-57" font-family="Helvetica,sans-Serif" font-size="10.00">GraphicsRectangle::</text>
<text text-anchor="middle" x="226" y="-46" font-family="Helvetica,sans-Serif" font-size="10.00">meIsOver</text>
</a>
</g>
</g>
<!-- Node1&#45;&gt;Node11 -->
<g id="edge10" class="edge"><title>Node1&#45;&gt;Node11</title>
<path fill="none" stroke="midnightblue" d="M76.9404,-138.268C94.8167,-121.38 124.445,-95.5021 154,-79 160.618,-75.3049 167.881,-72.0009 175.159,-69.1004"/>
<polygon fill="midnightblue" stroke="midnightblue" points="74.3794,-135.875 69.5964,-145.329 79.2309,-140.921 74.3794,-135.875"/>
</g>
<!-- Node12 -->
<g id="node12" class="node"><title>Node12</title>
<g id="a_node12"><a xlink:href="class_graphics_text.html#a7b6432edbdd3b02d5c76761ac069aa57" target="_top" xlink:title="GraphicsText::meDraw">
<polygon fill="white" stroke="black" points="167,-0.5 167,-19.5 285,-19.5 285,-0.5 167,-0.5"/>
<text text-anchor="middle" x="226" y="-7.5" font-family="Helvetica,sans-Serif" font-size="10.00">GraphicsText::meDraw</text>
</a>
</g>
</g>
<!-- Node1&#45;&gt;Node12 -->
<g id="edge11" class="edge"><title>Node1&#45;&gt;Node12</title>
<path fill="none" stroke="midnightblue" d="M69.0603,-136.199C83.2843,-108.692 113.47,-57.7455 154,-30 160.34,-25.6596 167.609,-22.2551 175.022,-19.5863"/>
<polygon fill="midnightblue" stroke="midnightblue" points="65.7524,-134.987 64.402,-145.496 72.0108,-138.123 65.7524,-134.987"/>
</g>
<!-- Node6 -->
<g id="node6" class="node"><title>Node6</title>
<g id="a_node6"><a xlink:href="class_graphics_item.html#a853ecc7b1940b8bce18600a3f3d6cda7" target="_top" xlink:title="GraphicsItem::isOver">
<polygon fill="white" stroke="black" points="334,-164.5 334,-183.5 444,-183.5 444,-164.5 334,-164.5"/>
<text text-anchor="middle" x="389" y="-171.5" font-family="Helvetica,sans-Serif" font-size="10.00">GraphicsItem::isOver</text>
</a>
</g>
</g>
<!-- Node5&#45;&gt;Node6 -->
<g id="edge5" class="edge"><title>Node5&#45;&gt;Node6</title>
<path fill="none" stroke="midnightblue" d="M298.653,-174C310.51,-174 322.627,-174 333.956,-174"/>
<polygon fill="midnightblue" stroke="midnightblue" points="298.327,-170.5 288.326,-174 298.326,-177.5 298.327,-170.5"/>
</g>
<!-- Node7 -->
<g id="node7" class="node"><title>Node7</title>
<g id="a_node7"><a xlink:href="class_graphics_item.html#ad6c62fa07246bc1d7b9eae6340a246e2" target="_top" xlink:title="GraphicsItem::handleEvent">
<polygon fill="white" stroke="black" points="480.5,-164.5 480.5,-183.5 615.5,-183.5 615.5,-164.5 480.5,-164.5"/>
<text text-anchor="middle" x="548" y="-171.5" font-family="Helvetica,sans-Serif" font-size="10.00">GraphicsItem::handleEvent</text>
</a>
</g>
</g>
<!-- Node6&#45;&gt;Node7 -->
<g id="edge6" class="edge"><title>Node6&#45;&gt;Node7</title>
<path fill="none" stroke="midnightblue" d="M454.074,-174C462.748,-174 471.665,-174 480.382,-174"/>
<polygon fill="midnightblue" stroke="midnightblue" points="454.031,-170.5 444.03,-174 454.03,-177.5 454.031,-170.5"/>
</g>
<!-- Node8 -->
<g id="node8" class="node"><title>Node8</title>
<g id="a_node8"><a xlink:href="class_main_window.html#a0c74824ef8e6256455545f2659610b31" target="_top" xlink:title="MainWindow::handleEvent">
<polygon fill="white" stroke="black" points="652.5,-164.5 652.5,-183.5 785.5,-183.5 785.5,-164.5 652.5,-164.5"/>
<text text-anchor="middle" x="719" y="-171.5" font-family="Helvetica,sans-Serif" font-size="10.00">MainWindow::handleEvent</text>
</a>
</g>
</g>
<!-- Node7&#45;&gt;Node8 -->
<g id="edge7" class="edge"><title>Node7&#45;&gt;Node8</title>
<path fill="none" stroke="midnightblue" d="M626.009,-174C634.773,-174 643.645,-174 652.244,-174"/>
<polygon fill="midnightblue" stroke="midnightblue" points="625.793,-170.5 615.793,-174 625.793,-177.5 625.793,-170.5"/>
</g>
</g>
</svg>
        <g id="navigator" transform="translate(0 0)" fill="#404254">
                <rect fill="#f2f5e9" fill-opacity="0.5" stroke="#606060" stroke-width=".5" x="0" y="0" width="60" height="60"/>
                <use id="zoomplus" xlink:href="#zoomPlus" x="17" y="9" onmousedown="handleZoom(evt,'in')"/>
                <use id="zoomminus" xlink:href="#zoomMin" x="42" y="9" onmousedown="handleZoom(evt,'out')"/>
                <use id="reset" xlink:href="#resetDef" x="30" y="36" onmousedown="handleReset()"/>
                <g id="arrowUp" xlink:href="#dirArrow" transform="translate(30 24)" onmousedown="handlePan(0,-1)">
                  <use xlink:href="#rim" fill="#404040">
                        <set attributeName="fill" to="#808080" begin="arrowUp.mouseover" end="arrowUp.mouseout"/>
                  </use>
                  <path fill="none" stroke="white" stroke-width="1.5" d="M0,-3.0v7 M-2.5,-0.5L0,-3.0L2.5,-0.5"/>
                </g>
                <g id="arrowRight" xlink:href="#dirArrow" transform="rotate(90) translate(36 -43)" onmousedown="handlePan(1,0)">
                  <use xlink:href="#rim" fill="#404040">
                        <set attributeName="fill" to="#808080" begin="arrowRight.mouseover" end="arrowRight.mouseout"/>
                  </use>
                  <path fill="none" stroke="white" stroke-width="1.5" d="M0,-3.0v7 M-2.5,-0.5L0,-3.0L2.5,-0.5"/>
                </g>
                <g id="arrowDown" xlink:href="#dirArrow" transform="rotate(180) translate(-30 -48)" onmousedown="handlePan(0,1)">
                  <use xlink:href="#rim" fill="#404040">
                        <set attributeName="fill" to="#808080" begin="arrowDown.mouseover" end="arrowDown.mouseout"/>
                  </use>
                  <path fill="none" stroke="white" stroke-width="1.5" d="M0,-3.0v7 M-2.5,-0.5L0,-3.0L2.5,-0.5"/>
                </g>
                <g id="arrowLeft" xlink:href="#dirArrow" transform="rotate(270) translate(-36 17)" onmousedown="handlePan(-1,0)">
                  <use xlink:href="#rim" fill="#404040">
                        <set attributeName="fill" to="#808080" begin="arrowLeft.mouseover" end="arrowLeft.mouseout"/>
                  </use>
                  <path fill="none" stroke="white" stroke-width="1.5" d="M0,-3.0v7 M-2.5,-0.5L0,-3.0L2.5,-0.5"/>
                </g>
        </g>
        <svg viewBox="0 0 15 15" width="100%" height="30px" preserveAspectRatio="xMaxYMin meet">
         <g id="arrow_out" transform="scale(0.3 0.3)">
          <a xlink:href="class_graphics_item_acddeaf58963ddb0de93b7c1b27512af7_icgraph_org.svg" target="_base">
           <rect id="button" ry="5" rx="5" y="6" x="6" height="38" width="38"
                fill="#f2f5e9" fill-opacity="0.5" stroke="#606060" stroke-width="1.0"/>
           <path id="arrow"
             d="M 11.500037,31.436501 C 11.940474,20.09759 22.043105,11.32322 32.158766,21.979434 L 37.068811,17.246167 C 37.068811,17.246167 37.088388,32 37.088388,32 L 22.160133,31.978069 C 22.160133,31.978069 26.997745,27.140456 26.997745,27.140456 C 18.528582,18.264221 13.291696,25.230495 11.500037,31.436501 z"
             style="fill:#404040;"/>
          </a>
         </g>
        </svg>
</svg>
