<?xml version="1.0" encoding="UTF-8" standalone="no"?>
<!DOCTYPE svg PUBLIC "-//W3C//DTD SVG 1.1//EN"
 "http://www.w3.org/Graphics/SVG/1.1/DTD/svg11.dtd">
<!-- Generated by graphviz version 2.36.0 (20140111.2315)
 -->
<!-- Title: Font::height Pages: 1 -->
<svg width="206pt" height="104pt"
 viewBox="0.00 0.00 206.00 104.00" xmlns="http://www.w3.org/2000/svg" xmlns:xlink="http://www.w3.org/1999/xlink">
<g id="graph0" class="graph" transform="scale(1 1) rotate(0) translate(4 100)">
<title>Font::height</title>
<polygon fill="white" stroke="none" points="-4,4 -4,-100 202,-100 202,4 -4,4"/>
<!-- Node1 -->
<g id="node1" class="node"><title>Node1</title>
<polygon fill="#bfbfbf" stroke="black" points="0,-38.5 0,-57.5 68,-57.5 68,-38.5 0,-38.5"/>
<text text-anchor="middle" x="34" y="-45.5" font-family="Helvetica,sans-Serif" font-size="10.00">Font::height</text>
</g>
<!-- Node2 -->
<g id="node2" class="node"><title>Node2</title>
<g id="a_node2"><a xlink:href="_font_8cpp.html#a8aa556366c5bc0be00a769f4d2a827dc" target="_top" xlink:title="operator\&lt;">
<polygon fill="white" stroke="black" points="122,-76.5 122,-95.5 180,-95.5 180,-76.5 122,-76.5"/>
<text text-anchor="middle" x="151" y="-83.5" font-family="Helvetica,sans-Serif" font-size="10.00">operator&lt;</text>
</a>
</g>
</g>
<!-- Node1&#45;&gt;Node2 -->
<g id="edge1" class="edge"><title>Node1&#45;&gt;Node2</title>
<path fill="none" stroke="midnightblue" d="M73.5227,-60.7293C89.3118,-65.9465 107.251,-71.8743 121.785,-76.6768"/>
<polygon fill="midnightblue" stroke="midnightblue" points="74.6126,-57.4033 64.0194,-57.589 72.4163,-64.0498 74.6126,-57.4033"/>
</g>
<!-- Node3 -->
<g id="node3" class="node"><title>Node3</title>
<g id="a_node3"><a xlink:href="_font_8cpp.html#a88257f2b84beb9d13afc1148c12987dc" target="_top" xlink:title="operator\&lt;\&lt;">
<polygon fill="white" stroke="black" points="119,-38.5 119,-57.5 183,-57.5 183,-38.5 119,-38.5"/>
<text text-anchor="middle" x="151" y="-45.5" font-family="Helvetica,sans-Serif" font-size="10.00">operator&lt;&lt;</text>
</a>
</g>
</g>
<!-- Node1&#45;&gt;Node3 -->
<g id="edge2" class="edge"><title>Node1&#45;&gt;Node3</title>
<path fill="none" stroke="midnightblue" d="M78.2868,-48C91.7472,-48 106.316,-48 118.785,-48"/>
<polygon fill="midnightblue" stroke="midnightblue" points="78.2628,-44.5001 68.2628,-48 78.2627,-51.5001 78.2628,-44.5001"/>
</g>
<!-- Node4 -->
<g id="node4" class="node"><title>Node4</title>
<g id="a_node4"><a xlink:href="class_line_edit.html#a04e1cd86821efe7570868ae397978186" target="_top" xlink:title="LineEdit::LineEdit">
<polygon fill="white" stroke="black" points="104.5,-0.5 104.5,-19.5 197.5,-19.5 197.5,-0.5 104.5,-0.5"/>
<text text-anchor="middle" x="151" y="-7.5" font-family="Helvetica,sans-Serif" font-size="10.00">LineEdit::LineEdit</text>
</a>
</g>
</g>
<!-- Node1&#45;&gt;Node4 -->
<g id="edge3" class="edge"><title>Node1&#45;&gt;Node4</title>
<path fill="none" stroke="midnightblue" d="M73.8153,-35.1741C89.2459,-30.0753 106.691,-24.3109 120.99,-19.5859"/>
<polygon fill="midnightblue" stroke="midnightblue" points="72.4163,-31.9502 64.0194,-38.411 74.6126,-38.5967 72.4163,-31.9502"/>
</g>
</g>
</svg>
