<?xml version="1.0" encoding="UTF-8" standalone="no"?>
<!DOCTYPE svg PUBLIC "-//W3C//DTD SVG 1.1//EN"
 "http://www.w3.org/Graphics/SVG/1.1/DTD/svg11.dtd">
<!-- Generated by graphviz version 2.36.0 (20140111.2315)
 -->
<!-- Title: GraphicsEllipse Pages: 1 -->
<!--zoomable 828 -->
<svg id="main" version="1.1" xmlns="http://www.w3.org/2000/svg" xmlns:xlink="http://www.w3.org/1999/xlink" xml:space="preserve" onload="init(evt)">
<style type="text/css"><![CDATA[
.edge:hover path { stroke: red; }
.edge:hover polygon { stroke: red; fill: red; }
]]></style>
<script type="text/javascript"><![CDATA[
var edges = document.getElementsByTagName('g');
if (edges && edges.length) {
  for (var i=0;i<edges.length;i++) {
    if (edges[i].id.substr(0,4)=='edge') {
      edges[i].setAttribute('class','edge');
    }
  }
}
]]></script>
        <defs>
                <circle id="rim" cx="0" cy="0" r="7"/>
                <circle id="rim2" cx="0" cy="0" r="3.5"/>
                <g id="zoomPlus">
                        <use xlink:href="#rim" fill="#404040">
                                <set attributeName="fill" to="#808080" begin="zoomplus.mouseover" end="zoomplus.mouseout"/>
                        </use>
                        <path d="M-4,0h8M0,-4v8" fill="none" stroke="white" stroke-width="1.5" pointer-events="none"/>
                </g>
                <g id="zoomMin">
                        <use xlink:href="#rim" fill="#404040">
                                <set attributeName="fill" to="#808080" begin="zoomminus.mouseover" end="zoomminus.mouseout"/>
                        </use>
                        <path d="M-4,0h8" fill="none" stroke="white" stroke-width="1.5" pointer-events="none"/>
                </g>
                <g id="dirArrow">
                        <path fill="none" stroke="white" stroke-width="1.5" d="M0,-3.0v7 M-2.5,-0.5L0,-3.0L2.5,-0.5"/>
                </g>
               <g id="resetDef">
                       <use xlink:href="#rim2" fill="#404040">
                               <set attributeName="fill" to="#808080" begin="reset.mouseover" end="reset.mouseout"/>
                       </use>
               </g>
        </defs>

<script type="text/javascript">
var viewWidth = 328;
var viewHeight = 828;
var sectionId = 'dynsection-1';
</script>
<script xlink:href="svgpan.js"/>
<svg id="graph" class="graph">
<g id="viewport">
<title>GraphicsEllipse</title>
<polygon fill="white" stroke="none" points="-4,4 -4,-824 324,-824 324,4 -4,4"/>
<!-- Node1 -->
<g id="node1" class="node"><title>Node1</title>
<polygon fill="#bfbfbf" stroke="black" points="138,-1 138,-113 238,-113 238,-1 138,-1"/>
<text text-anchor="middle" x="188" y="-101" font-family="Helvetica,sans-Serif" font-size="10.00">GraphicsEllipse</text>
<polyline fill="none" stroke="black" points="138,-94 238,-94 "/>
<text text-anchor="middle" x="188" y="-82" font-family="Helvetica,sans-Serif" font-size="10.00"> </text>
<polyline fill="none" stroke="black" points="138,-75 238,-75 "/>
<text text-anchor="start" x="146" y="-63" font-family="Helvetica,sans-Serif" font-size="10.00">+ GraphicsEllipse()</text>
<text text-anchor="start" x="146" y="-52" font-family="Helvetica,sans-Serif" font-size="10.00">+ center()</text>
<text text-anchor="start" x="146" y="-41" font-family="Helvetica,sans-Serif" font-size="10.00">+ radius()</text>
<text text-anchor="start" x="146" y="-30" font-family="Helvetica,sans-Serif" font-size="10.00">+ type()</text>
<text text-anchor="start" x="146" y="-19" font-family="Helvetica,sans-Serif" font-size="10.00"># meDraw()</text>
<text text-anchor="start" x="146" y="-8" font-family="Helvetica,sans-Serif" font-size="10.00"># meIsOver()</text>
</g>
<!-- Node2 -->
<g id="node2" class="node"><title>Node2</title>
<g id="a_node2"><a xlink:href="class_graphics_shape.html" target="_top" xlink:title="{GraphicsShape\n|# m_points\l|+ GraphicsShape()\l+ type()\l# meDraw()\l}">
<polygon fill="white" stroke="black" points="139,-152.5 139,-231.5 237,-231.5 237,-152.5 139,-152.5"/>
<text text-anchor="middle" x="188" y="-219.5" font-family="Helvetica,sans-Serif" font-size="10.00">GraphicsShape</text>
<polyline fill="none" stroke="black" points="139,-212.5 237,-212.5 "/>
<text text-anchor="start" x="147" y="-200.5" font-family="Helvetica,sans-Serif" font-size="10.00"># m_points</text>
<polyline fill="none" stroke="black" points="139,-193.5 237,-193.5 "/>
<text text-anchor="start" x="147" y="-181.5" font-family="Helvetica,sans-Serif" font-size="10.00">+ GraphicsShape()</text>
<text text-anchor="start" x="147" y="-170.5" font-family="Helvetica,sans-Serif" font-size="10.00">+ type()</text>
<text text-anchor="start" x="147" y="-159.5" font-family="Helvetica,sans-Serif" font-size="10.00"># meDraw()</text>
</a>
</g>
</g>
<!-- Node2&#45;&gt;Node1 -->
<g id="edge1" class="edge"><title>Node2&#45;&gt;Node1</title>
<path fill="none" stroke="midnightblue" d="M188,-141.944C188,-132.662 188,-122.892 188,-113.43"/>
<polygon fill="none" stroke="midnightblue" points="184.5,-142.173 188,-152.173 191.5,-142.173 184.5,-142.173"/>
</g>
<!-- Node3 -->
<g id="node3" class="node"><title>Node3</title>
<g id="a_node3"><a xlink:href="class_graphics_item.html" target="_top" xlink:title="{GraphicsItem\n|&#45; m_children\l&#45; m_z\l&#45; m_thick\l&#45; m_isFill\l&#45; m_isVisible\l|+ GraphicsItem()\l+ ~GraphicsItem()\l+ parent()\l+ setParent()\l+ type()\l+ children()\l+ position()\l+ position()\l+ color()\l+ z()\let 13 de plus...\l+ focusItem()\l+ setFocusItem()\l# meDraw()\l# meUpdate()\l# meHandleEvent()\l# meIsOver()\l}">
<polygon fill="white" stroke="black" points="137.5,-270.5 137.5,-547.5 238.5,-547.5 238.5,-270.5 137.5,-270.5"/>
<text text-anchor="middle" x="188" y="-535.5" font-family="Helvetica,sans-Serif" font-size="10.00">GraphicsItem</text>
<polyline fill="none" stroke="black" points="137.5,-528.5 238.5,-528.5 "/>
<text text-anchor="start" x="145.5" y="-516.5" font-family="Helvetica,sans-Serif" font-size="10.00">&#45; m_children</text>
<text text-anchor="start" x="145.5" y="-505.5" font-family="Helvetica,sans-Serif" font-size="10.00">&#45; m_z</text>
<text text-anchor="start" x="145.5" y="-494.5" font-family="Helvetica,sans-Serif" font-size="10.00">&#45; m_thick</text>
<text text-anchor="start" x="145.5" y="-483.5" font-family="Helvetica,sans-Serif" font-size="10.00">&#45; m_isFill</text>
<text text-anchor="start" x="145.5" y="-472.5" font-family="Helvetica,sans-Serif" font-size="10.00">&#45; m_isVisible</text>
<polyline fill="none" stroke="black" points="137.5,-465.5 238.5,-465.5 "/>
<text text-anchor="start" x="145.5" y="-453.5" font-family="Helvetica,sans-Serif" font-size="10.00">+ GraphicsItem()</text>
<text text-anchor="start" x="145.5" y="-442.5" font-family="Helvetica,sans-Serif" font-size="10.00">+ ~GraphicsItem()</text>
<text text-anchor="start" x="145.5" y="-431.5" font-family="Helvetica,sans-Serif" font-size="10.00">+ parent()</text>
<text text-anchor="start" x="145.5" y="-420.5" font-family="Helvetica,sans-Serif" font-size="10.00">+ setParent()</text>
<text text-anchor="start" x="145.5" y="-409.5" font-family="Helvetica,sans-Serif" font-size="10.00">+ type()</text>
<text text-anchor="start" x="145.5" y="-398.5" font-family="Helvetica,sans-Serif" font-size="10.00">+ children()</text>
<text text-anchor="start" x="145.5" y="-387.5" font-family="Helvetica,sans-Serif" font-size="10.00">+ position()</text>
<text text-anchor="start" x="145.5" y="-376.5" font-family="Helvetica,sans-Serif" font-size="10.00">+ position()</text>
<text text-anchor="start" x="145.5" y="-365.5" font-family="Helvetica,sans-Serif" font-size="10.00">+ color()</text>
<text text-anchor="start" x="145.5" y="-354.5" font-family="Helvetica,sans-Serif" font-size="10.00">+ z()</text>
<text text-anchor="start" x="145.5" y="-343.5" font-family="Helvetica,sans-Serif" font-size="10.00">et 13 de plus...</text>
<text text-anchor="start" x="145.5" y="-332.5" font-family="Helvetica,sans-Serif" font-size="10.00">+ focusItem()</text>
<text text-anchor="start" x="145.5" y="-321.5" font-family="Helvetica,sans-Serif" font-size="10.00">+ setFocusItem()</text>
<text text-anchor="start" x="145.5" y="-310.5" font-family="Helvetica,sans-Serif" font-size="10.00"># meDraw()</text>
<text text-anchor="start" x="145.5" y="-299.5" font-family="Helvetica,sans-Serif" font-size="10.00"># meUpdate()</text>
<text text-anchor="start" x="145.5" y="-288.5" font-family="Helvetica,sans-Serif" font-size="10.00"># meHandleEvent()</text>
<text text-anchor="start" x="145.5" y="-277.5" font-family="Helvetica,sans-Serif" font-size="10.00"># meIsOver()</text>
</a>
</g>
</g>
<!-- Node3&#45;&gt;Node2 -->
<g id="edge2" class="edge"><title>Node3&#45;&gt;Node2</title>
<path fill="none" stroke="midnightblue" d="M188,-260.011C188,-249.877 188,-240.305 188,-231.737"/>
<polygon fill="none" stroke="midnightblue" points="184.5,-260.316 188,-270.316 191.5,-260.316 184.5,-260.316"/>
</g>
<!-- Node3&#45;&gt;Node3 -->
<g id="edge3" class="edge"><title>Node3&#45;&gt;Node3</title>
<path fill="none" stroke="#404040" d="M238.711,-437.403C248.803,-434.206 256,-424.738 256,-409 256,-399.409 253.328,-392.148 248.956,-387.214"/>
<polygon fill="none" stroke="#404040" points="248.791,-387.108 241.581,-387.213 238.711,-380.597 245.921,-380.492 248.791,-387.108"/>
<text text-anchor="middle" x="288" y="-412" font-family="Helvetica,sans-Serif" font-size="10.00"> &#45;m_focusItem</text>
<text text-anchor="middle" x="288" y="-401" font-family="Helvetica,sans-Serif" font-size="10.00">&#45;m_parent</text>
</g>
<!-- Node4 -->
<g id="node4" class="node"><title>Node4</title>
<g id="a_node4"><a xlink:href="class_point.html" target="_top" xlink:title="Représente un point avec une abscisse, une ordonnée et une origine. ">
<polygon fill="white" stroke="black" points="-0.5,-597 -0.5,-819 114.5,-819 114.5,-597 -0.5,-597"/>
<text text-anchor="middle" x="57" y="-807" font-family="Helvetica,sans-Serif" font-size="10.00">Point</text>
<polyline fill="none" stroke="black" points="-0.5,-800 114.5,-800 "/>
<text text-anchor="start" x="7.5" y="-788" font-family="Helvetica,sans-Serif" font-size="10.00">&#45; m_x</text>
<text text-anchor="start" x="7.5" y="-777" font-family="Helvetica,sans-Serif" font-size="10.00">&#45; m_y</text>
<text text-anchor="start" x="7.5" y="-766" font-family="Helvetica,sans-Serif" font-size="10.00">&#45; m_groupId</text>
<text text-anchor="start" x="7.5" y="-755" font-family="Helvetica,sans-Serif" font-size="10.00">&#45; m_correctorsFixed</text>
<text text-anchor="start" x="7.5" y="-744" font-family="Helvetica,sans-Serif" font-size="10.00">&#45; m_correctorsVariable</text>
<text text-anchor="start" x="7.5" y="-733" font-family="Helvetica,sans-Serif" font-size="10.00">&#45; m_groups</text>
<polyline fill="none" stroke="black" points="-0.5,-726 114.5,-726 "/>
<text text-anchor="start" x="7.5" y="-714" font-family="Helvetica,sans-Serif" font-size="10.00">+ Point()</text>
<text text-anchor="start" x="7.5" y="-703" font-family="Helvetica,sans-Serif" font-size="10.00">+ Point()</text>
<text text-anchor="start" x="7.5" y="-692" font-family="Helvetica,sans-Serif" font-size="10.00">+ Point()</text>
<text text-anchor="start" x="7.5" y="-681" font-family="Helvetica,sans-Serif" font-size="10.00">+ Point()</text>
<text text-anchor="start" x="7.5" y="-670" font-family="Helvetica,sans-Serif" font-size="10.00">+ ~Point()</text>
<text text-anchor="start" x="7.5" y="-659" font-family="Helvetica,sans-Serif" font-size="10.00">+ operator=()</text>
<text text-anchor="start" x="7.5" y="-648" font-family="Helvetica,sans-Serif" font-size="10.00">+ origin()</text>
<text text-anchor="start" x="7.5" y="-637" font-family="Helvetica,sans-Serif" font-size="10.00">+ setOrigin()</text>
<text text-anchor="start" x="7.5" y="-626" font-family="Helvetica,sans-Serif" font-size="10.00">+ relative()</text>
<text text-anchor="start" x="7.5" y="-615" font-family="Helvetica,sans-Serif" font-size="10.00">+ relativeX()</text>
<text text-anchor="start" x="7.5" y="-604" font-family="Helvetica,sans-Serif" font-size="10.00">et 16 de plus...</text>
</a>
</g>
</g>
<!-- Node4&#45;&gt;Node3 -->
<g id="edge4" class="edge"><title>Node4&#45;&gt;Node3</title>
<path fill="none" stroke="#404040" d="M105.593,-596.83C114.318,-577.051 123.471,-556.298 132.376,-536.11"/>
<polygon fill="none" stroke="#404040" points="132.45,-535.942 131.211,-528.838 137.293,-524.962 138.531,-532.066 132.45,-535.942"/>
<text text-anchor="middle" x="146" y="-569.5" font-family="Helvetica,sans-Serif" font-size="10.00"> &#45;m_position</text>
</g>
<!-- Node4&#45;&gt;Node4 -->
<g id="edge5" class="edge"><title>Node4&#45;&gt;Node4</title>
<path fill="none" stroke="#404040" d="M114.544,-732.004C124.822,-728.884 132,-720.883 132,-708 132,-700.351 129.469,-694.423 125.262,-690.215"/>
<polygon fill="none" stroke="#404040" points="124.923,-690.019 117.726,-690.467 114.544,-683.996 121.742,-683.548 124.923,-690.019"/>
<text text-anchor="middle" x="153.5" y="-705.5" font-family="Helvetica,sans-Serif" font-size="10.00"> &#45;m_origin</text>
</g>
<!-- Node5 -->
<g id="node5" class="node"><title>Node5</title>
<g id="a_node5"><a xlink:href="class_color.html" target="_top" xlink:title="Permet la gestion des coulours des différentes *entitées. ">
<polygon fill="white" stroke="black" points="193.5,-624.5 193.5,-791.5 270.5,-791.5 270.5,-624.5 193.5,-624.5"/>
<text text-anchor="middle" x="232" y="-779.5" font-family="Helvetica,sans-Serif" font-size="10.00">Color</text>
<polyline fill="none" stroke="black" points="193.5,-772.5 270.5,-772.5 "/>
<text text-anchor="start" x="201.5" y="-760.5" font-family="Helvetica,sans-Serif" font-size="10.00">&#45; m_color</text>
<polyline fill="none" stroke="black" points="193.5,-753.5 270.5,-753.5 "/>
<text text-anchor="start" x="201.5" y="-741.5" font-family="Helvetica,sans-Serif" font-size="10.00">+ Color()</text>
<text text-anchor="start" x="201.5" y="-730.5" font-family="Helvetica,sans-Serif" font-size="10.00">+ Color()</text>
<text text-anchor="start" x="201.5" y="-719.5" font-family="Helvetica,sans-Serif" font-size="10.00">+ Color()</text>
<text text-anchor="start" x="201.5" y="-708.5" font-family="Helvetica,sans-Serif" font-size="10.00">+ Color()</text>
<text text-anchor="start" x="201.5" y="-697.5" font-family="Helvetica,sans-Serif" font-size="10.00">+ red()</text>
<text text-anchor="start" x="201.5" y="-686.5" font-family="Helvetica,sans-Serif" font-size="10.00">+ setRed()</text>
<text text-anchor="start" x="201.5" y="-675.5" font-family="Helvetica,sans-Serif" font-size="10.00">+ green()</text>
<text text-anchor="start" x="201.5" y="-664.5" font-family="Helvetica,sans-Serif" font-size="10.00">+ setGreen()</text>
<text text-anchor="start" x="201.5" y="-653.5" font-family="Helvetica,sans-Serif" font-size="10.00">+ blue()</text>
<text text-anchor="start" x="201.5" y="-642.5" font-family="Helvetica,sans-Serif" font-size="10.00">+ setBlue()</text>
<text text-anchor="start" x="201.5" y="-631.5" font-family="Helvetica,sans-Serif" font-size="10.00">et 9 de plus...</text>
</a>
</g>
</g>
<!-- Node5&#45;&gt;Node3 -->
<g id="edge6" class="edge"><title>Node5&#45;&gt;Node3</title>
<path fill="none" stroke="#404040" d="M219.744,-624.269C216.758,-604.118 213.473,-581.943 210.182,-559.731"/>
<polygon fill="none" stroke="#404040" points="210.168,-559.633 205.332,-554.284 208.409,-547.763 213.245,-553.112 210.168,-559.633"/>
<text text-anchor="middle" x="232.5" y="-569.5" font-family="Helvetica,sans-Serif" font-size="10.00"> &#45;m_color</text>
</g>
</g>
</svg>
        <g id="navigator" transform="translate(0 0)" fill="#404254">
                <rect fill="#f2f5e9" fill-opacity="0.5" stroke="#606060" stroke-width=".5" x="0" y="0" width="60" height="60"/>
                <use id="zoomplus" xlink:href="#zoomPlus" x="17" y="9" onmousedown="handleZoom(evt,'in')"/>
                <use id="zoomminus" xlink:href="#zoomMin" x="42" y="9" onmousedown="handleZoom(evt,'out')"/>
                <use id="reset" xlink:href="#resetDef" x="30" y="36" onmousedown="handleReset()"/>
                <g id="arrowUp" xlink:href="#dirArrow" transform="translate(30 24)" onmousedown="handlePan(0,-1)">
                  <use xlink:href="#rim" fill="#404040">
                        <set attributeName="fill" to="#808080" begin="arrowUp.mouseover" end="arrowUp.mouseout"/>
                  </use>
                  <path fill="none" stroke="white" stroke-width="1.5" d="M0,-3.0v7 M-2.5,-0.5L0,-3.0L2.5,-0.5"/>
                </g>
                <g id="arrowRight" xlink:href="#dirArrow" transform="rotate(90) translate(36 -43)" onmousedown="handlePan(1,0)">
                  <use xlink:href="#rim" fill="#404040">
                        <set attributeName="fill" to="#808080" begin="arrowRight.mouseover" end="arrowRight.mouseout"/>
                  </use>
                  <path fill="none" stroke="white" stroke-width="1.5" d="M0,-3.0v7 M-2.5,-0.5L0,-3.0L2.5,-0.5"/>
                </g>
                <g id="arrowDown" xlink:href="#dirArrow" transform="rotate(180) translate(-30 -48)" onmousedown="handlePan(0,1)">
                  <use xlink:href="#rim" fill="#404040">
                        <set attributeName="fill" to="#808080" begin="arrowDown.mouseover" end="arrowDown.mouseout"/>
                  </use>
                  <path fill="none" stroke="white" stroke-width="1.5" d="M0,-3.0v7 M-2.5,-0.5L0,-3.0L2.5,-0.5"/>
                </g>
                <g id="arrowLeft" xlink:href="#dirArrow" transform="rotate(270) translate(-36 17)" onmousedown="handlePan(-1,0)">
                  <use xlink:href="#rim" fill="#404040">
                        <set attributeName="fill" to="#808080" begin="arrowLeft.mouseover" end="arrowLeft.mouseout"/>
                  </use>
                  <path fill="none" stroke="white" stroke-width="1.5" d="M0,-3.0v7 M-2.5,-0.5L0,-3.0L2.5,-0.5"/>
                </g>
        </g>
        <svg viewBox="0 0 15 15" width="100%" height="30px" preserveAspectRatio="xMaxYMin meet">
         <g id="arrow_out" transform="scale(0.3 0.3)">
          <a xlink:href="class_graphics_ellipse__coll__graph_org.svg" target="_base">
           <rect id="button" ry="5" rx="5" y="6" x="6" height="38" width="38"
                fill="#f2f5e9" fill-opacity="0.5" stroke="#606060" stroke-width="1.0"/>
           <path id="arrow"
             d="M 11.500037,31.436501 C 11.940474,20.09759 22.043105,11.32322 32.158766,21.979434 L 37.068811,17.246167 C 37.068811,17.246167 37.088388,32 37.088388,32 L 22.160133,31.978069 C 22.160133,31.978069 26.997745,27.140456 26.997745,27.140456 C 18.528582,18.264221 13.291696,25.230495 11.500037,31.436501 z"
             style="fill:#404040;"/>
          </a>
         </g>
        </svg>
</svg>
