<?xml version="1.0" encoding="UTF-8" standalone="no"?>
<!DOCTYPE svg PUBLIC "-//W3C//DTD SVG 1.1//EN"
 "http://www.w3.org/Graphics/SVG/1.1/DTD/svg11.dtd">
<!-- Generated by graphviz version 2.36.0 (20140111.2315)
 -->
<!-- Title: GraphicsItem::isOver Pages: 1 -->
<svg width="460pt" height="28pt"
 viewBox="0.00 0.00 460.00 28.00" xmlns="http://www.w3.org/2000/svg" xmlns:xlink="http://www.w3.org/1999/xlink">
<g id="graph0" class="graph" transform="scale(1 1) rotate(0) translate(4 24)">
<title>GraphicsItem::isOver</title>
<polygon fill="white" stroke="none" points="-4,4 -4,-24 456,-24 456,4 -4,4"/>
<!-- Node1 -->
<g id="node1" class="node"><title>Node1</title>
<polygon fill="#bfbfbf" stroke="black" points="0,-0.5 0,-19.5 110,-19.5 110,-0.5 0,-0.5"/>
<text text-anchor="middle" x="55" y="-7.5" font-family="Helvetica,sans-Serif" font-size="10.00">GraphicsItem::isOver</text>
</g>
<!-- Node2 -->
<g id="node2" class="node"><title>Node2</title>
<g id="a_node2"><a xlink:href="class_graphics_item.html#ad6c62fa07246bc1d7b9eae6340a246e2" target="_top" xlink:title="GraphicsItem::handleEvent">
<polygon fill="white" stroke="black" points="146.5,-0.5 146.5,-19.5 281.5,-19.5 281.5,-0.5 146.5,-0.5"/>
<text text-anchor="middle" x="214" y="-7.5" font-family="Helvetica,sans-Serif" font-size="10.00">GraphicsItem::handleEvent</text>
</a>
</g>
</g>
<!-- Node1&#45;&gt;Node2 -->
<g id="edge1" class="edge"><title>Node1&#45;&gt;Node2</title>
<path fill="none" stroke="midnightblue" d="M120.074,-10C128.748,-10 137.665,-10 146.382,-10"/>
<polygon fill="midnightblue" stroke="midnightblue" points="120.031,-6.5001 110.03,-10 120.03,-13.5001 120.031,-6.5001"/>
</g>
<!-- Node3 -->
<g id="node3" class="node"><title>Node3</title>
<g id="a_node3"><a xlink:href="class_main_window.html#a0c74824ef8e6256455545f2659610b31" target="_top" xlink:title="MainWindow::handleEvent">
<polygon fill="white" stroke="black" points="318.5,-0.5 318.5,-19.5 451.5,-19.5 451.5,-0.5 318.5,-0.5"/>
<text text-anchor="middle" x="385" y="-7.5" font-family="Helvetica,sans-Serif" font-size="10.00">MainWindow::handleEvent</text>
</a>
</g>
</g>
<!-- Node2&#45;&gt;Node3 -->
<g id="edge2" class="edge"><title>Node2&#45;&gt;Node3</title>
<path fill="none" stroke="midnightblue" d="M292.009,-10C300.773,-10 309.645,-10 318.244,-10"/>
<polygon fill="midnightblue" stroke="midnightblue" points="291.793,-6.5001 281.793,-10 291.793,-13.5001 291.793,-6.5001"/>
</g>
</g>
</svg>
