<?xml version="1.0" encoding="UTF-8" standalone="no"?>
<!DOCTYPE svg PUBLIC "-//W3C//DTD SVG 1.1//EN"
 "http://www.w3.org/Graphics/SVG/1.1/DTD/svg11.dtd">
<!-- Generated by graphviz version 2.36.0 (20140111.2315)
 -->
<!-- Title: MainWindow::handleEvent Pages: 1 -->
<!--zoomable 294 -->
<svg id="main" version="1.1" xmlns="http://www.w3.org/2000/svg" xmlns:xlink="http://www.w3.org/1999/xlink" xml:space="preserve" onload="init(evt)">
<style type="text/css"><![CDATA[
.edge:hover path { stroke: red; }
.edge:hover polygon { stroke: red; fill: red; }
]]></style>
<script type="text/javascript"><![CDATA[
var edges = document.getElementsByTagName('g');
if (edges && edges.length) {
  for (var i=0;i<edges.length;i++) {
    if (edges[i].id.substr(0,4)=='edge') {
      edges[i].setAttribute('class','edge');
    }
  }
}
]]></script>
        <defs>
                <circle id="rim" cx="0" cy="0" r="7"/>
                <circle id="rim2" cx="0" cy="0" r="3.5"/>
                <g id="zoomPlus">
                        <use xlink:href="#rim" fill="#404040">
                                <set attributeName="fill" to="#808080" begin="zoomplus.mouseover" end="zoomplus.mouseout"/>
                        </use>
                        <path d="M-4,0h8M0,-4v8" fill="none" stroke="white" stroke-width="1.5" pointer-events="none"/>
                </g>
                <g id="zoomMin">
                        <use xlink:href="#rim" fill="#404040">
                                <set attributeName="fill" to="#808080" begin="zoomminus.mouseover" end="zoomminus.mouseout"/>
                        </use>
                        <path d="M-4,0h8" fill="none" stroke="white" stroke-width="1.5" pointer-events="none"/>
                </g>
                <g id="dirArrow">
                        <path fill="none" stroke="white" stroke-width="1.5" d="M0,-3.0v7 M-2.5,-0.5L0,-3.0L2.5,-0.5"/>
                </g>
               <g id="resetDef">
                       <use xlink:href="#rim2" fill="#404040">
                               <set attributeName="fill" to="#808080" begin="reset.mouseover" end="reset.mouseout"/>
                       </use>
               </g>
        </defs>

<script type="text/javascript">
var viewWidth = 934;
var viewHeight = 294;
var sectionId = 'dynsection-4';
</script>
<script xlink:href="svgpan.js"/>
<svg id="graph" class="graph">
<g id="viewport">
<title>MainWindow::handleEvent</title>
<polygon fill="white" stroke="none" points="-4,4 -4,-290 930,-290 930,4 -4,4"/>
<!-- Node1 -->
<g id="node1" class="node"><title>Node1</title>
<polygon fill="#bfbfbf" stroke="black" points="0.5,-114.5 0.5,-133.5 133.5,-133.5 133.5,-114.5 0.5,-114.5"/>
<text text-anchor="middle" x="67" y="-121.5" font-family="Helvetica,sans-Serif" font-size="10.00">MainWindow::handleEvent</text>
</g>
<!-- Node2 -->
<g id="node2" class="node"><title>Node2</title>
<g id="a_node2"><a xlink:href="class_graphics_item.html#ad6c62fa07246bc1d7b9eae6340a246e2" target="_top" xlink:title="GraphicsItem::handleEvent">
<polygon fill="white" stroke="black" points="170.5,-133.5 170.5,-152.5 305.5,-152.5 305.5,-133.5 170.5,-133.5"/>
<text text-anchor="middle" x="238" y="-140.5" font-family="Helvetica,sans-Serif" font-size="10.00">GraphicsItem::handleEvent</text>
</a>
</g>
</g>
<!-- Node1&#45;&gt;Node2 -->
<g id="edge1" class="edge"><title>Node1&#45;&gt;Node2</title>
<path fill="none" stroke="midnightblue" d="M133.824,-131.4C142.417,-132.366 151.281,-133.363 160.037,-134.347"/>
<polygon fill="midnightblue" stroke="midnightblue" points="159.914,-137.856 170.243,-135.495 160.696,-130.899 159.914,-137.856"/>
</g>
<!-- Node14 -->
<g id="node14" class="node"><title>Node14</title>
<g id="a_node14"><a xlink:href="class_window.html#a63a8cd07ce1d0769adc248651ade56d7" target="_top" xlink:title="Window::drawRequest">
<polygon fill="white" stroke="black" points="180,-95.5 180,-114.5 296,-114.5 296,-95.5 180,-95.5"/>
<text text-anchor="middle" x="238" y="-102.5" font-family="Helvetica,sans-Serif" font-size="10.00">Window::drawRequest</text>
</a>
</g>
</g>
<!-- Node1&#45;&gt;Node14 -->
<g id="edge14" class="edge"><title>Node1&#45;&gt;Node14</title>
<path fill="none" stroke="midnightblue" d="M133.824,-116.6C145.58,-115.278 157.843,-113.899 169.641,-112.573"/>
<polygon fill="midnightblue" stroke="midnightblue" points="170.319,-116.019 179.865,-111.423 169.537,-109.063 170.319,-116.019"/>
</g>
<!-- Node3 -->
<g id="node3" class="node"><title>Node3</title>
<g id="a_node3"><a xlink:href="class_event.html#af0c720ee042e454bc655288e00ed1e49" target="_top" xlink:title="Event::type">
<polygon fill="white" stroke="black" points="384.5,-266.5 384.5,-285.5 451.5,-285.5 451.5,-266.5 384.5,-266.5"/>
<text text-anchor="middle" x="418" y="-273.5" font-family="Helvetica,sans-Serif" font-size="10.00">Event::type</text>
</a>
</g>
</g>
<!-- Node2&#45;&gt;Node3 -->
<g id="edge2" class="edge"><title>Node2&#45;&gt;Node3</title>
<path fill="none" stroke="midnightblue" d="M244.86,-152.695C258.769,-174.837 296.073,-229.34 342,-257 351.779,-262.889 363.33,-266.962 374.4,-269.776"/>
<polygon fill="midnightblue" stroke="midnightblue" points="373.841,-273.238 384.366,-272.022 375.38,-266.409 373.841,-273.238"/>
</g>
<!-- Node4 -->
<g id="node4" class="node"><title>Node4</title>
<g id="a_node4"><a xlink:href="class_mouse_event.html#a0e718c62022dc4296078294b5c6eb3e2" target="_top" xlink:title="MouseEvent::button">
<polygon fill="white" stroke="black" points="366,-228.5 366,-247.5 470,-247.5 470,-228.5 366,-228.5"/>
<text text-anchor="middle" x="418" y="-235.5" font-family="Helvetica,sans-Serif" font-size="10.00">MouseEvent::button</text>
</a>
</g>
</g>
<!-- Node2&#45;&gt;Node4 -->
<g id="edge3" class="edge"><title>Node2&#45;&gt;Node4</title>
<path fill="none" stroke="midnightblue" d="M249.227,-152.714C266.791,-168.867 304.435,-201.228 342,-219 347.009,-221.37 352.35,-223.469 357.788,-225.323"/>
<polygon fill="midnightblue" stroke="midnightblue" points="357.039,-228.756 367.627,-228.403 359.129,-222.076 357.039,-228.756"/>
</g>
<!-- Node5 -->
<g id="node5" class="node"><title>Node5</title>
<g id="a_node5"><a xlink:href="class_mouse_event.html#a0750646f0011ff65b384f108594208a3" target="_top" xlink:title="MouseEvent::state">
<polygon fill="white" stroke="black" points="368.5,-190.5 368.5,-209.5 467.5,-209.5 467.5,-190.5 368.5,-190.5"/>
<text text-anchor="middle" x="418" y="-197.5" font-family="Helvetica,sans-Serif" font-size="10.00">MouseEvent::state</text>
</a>
</g>
</g>
<!-- Node2&#45;&gt;Node5 -->
<g id="edge4" class="edge"><title>Node2&#45;&gt;Node5</title>
<path fill="none" stroke="midnightblue" d="M262.895,-152.631C283.615,-160.785 314.511,-172.473 342,-181 349.753,-183.405 358.024,-185.733 366.138,-187.887"/>
<polygon fill="midnightblue" stroke="midnightblue" points="365.353,-191.299 375.911,-190.421 367.109,-184.523 365.353,-191.299"/>
</g>
<!-- Node6 -->
<g id="node6" class="node"><title>Node6</title>
<g id="a_node6"><a xlink:href="class_graphics_item.html#a853ecc7b1940b8bce18600a3f3d6cda7" target="_top" xlink:title="GraphicsItem::isOver">
<polygon fill="white" stroke="black" points="363,-152.5 363,-171.5 473,-171.5 473,-152.5 363,-152.5"/>
<text text-anchor="middle" x="418" y="-159.5" font-family="Helvetica,sans-Serif" font-size="10.00">GraphicsItem::isOver</text>
</a>
</g>
</g>
<!-- Node2&#45;&gt;Node6 -->
<g id="edge5" class="edge"><title>Node2&#45;&gt;Node6</title>
<path fill="none" stroke="midnightblue" d="M305.534,-150.102C320.858,-151.738 337.133,-153.475 352.375,-155.102"/>
<polygon fill="midnightblue" stroke="midnightblue" points="352.422,-158.627 362.737,-156.208 353.165,-151.666 352.422,-158.627"/>
</g>
<!-- Node10 -->
<g id="node10" class="node"><title>Node10</title>
<g id="a_node10"><a xlink:href="class_mouse_event.html#a99ec3c735c6e61b96d539c5638b23608" target="_top" xlink:title="MouseEvent::position">
<polygon fill="white" stroke="black" points="362.5,-114.5 362.5,-133.5 473.5,-133.5 473.5,-114.5 362.5,-114.5"/>
<text text-anchor="middle" x="418" y="-121.5" font-family="Helvetica,sans-Serif" font-size="10.00">MouseEvent::position</text>
</a>
</g>
</g>
<!-- Node2&#45;&gt;Node10 -->
<g id="edge10" class="edge"><title>Node2&#45;&gt;Node10</title>
<path fill="none" stroke="midnightblue" d="M305.534,-135.898C320.778,-134.271 336.963,-132.543 352.135,-130.924"/>
<polygon fill="midnightblue" stroke="midnightblue" points="352.882,-134.364 362.454,-129.822 352.139,-127.404 352.882,-134.364"/>
</g>
<!-- Node11 -->
<g id="node11" class="node"><title>Node11</title>
<g id="a_node11"><a xlink:href="class_graphics_item.html#a5877c4c5815eacb9876c7b99b119aef7" target="_top" xlink:title="GraphicsItem::setFocusItem">
<polygon fill="white" stroke="black" points="347.5,-76.5 347.5,-95.5 488.5,-95.5 488.5,-76.5 347.5,-76.5"/>
<text text-anchor="middle" x="418" y="-83.5" font-family="Helvetica,sans-Serif" font-size="10.00">GraphicsItem::setFocusItem</text>
</a>
</g>
</g>
<!-- Node2&#45;&gt;Node11 -->
<g id="edge11" class="edge"><title>Node2&#45;&gt;Node11</title>
<path fill="none" stroke="midnightblue" d="M278.081,-133.405C287.359,-130.72 297.133,-127.552 306,-124 322.795,-117.273 325.112,-111.489 342,-105 348.402,-102.54 355.235,-100.305 362.07,-98.3038"/>
<polygon fill="midnightblue" stroke="midnightblue" points="363.338,-101.585 372.039,-95.5397 361.467,-94.8392 363.338,-101.585"/>
</g>
<!-- Node12 -->
<g id="node12" class="node"><title>Node12</title>
<g id="a_node12"><a xlink:href="class_graphics_item.html#ae17633bdf56258e2209ae335d0d1c3fa" target="_top" xlink:title="GraphicsItem::focusItem">
<polygon fill="white" stroke="black" points="355.5,-38.5 355.5,-57.5 480.5,-57.5 480.5,-38.5 355.5,-38.5"/>
<text text-anchor="middle" x="418" y="-45.5" font-family="Helvetica,sans-Serif" font-size="10.00">GraphicsItem::focusItem</text>
</a>
</g>
</g>
<!-- Node2&#45;&gt;Node12 -->
<g id="edge12" class="edge"><title>Node2&#45;&gt;Node12</title>
<path fill="none" stroke="midnightblue" d="M288.546,-133.481C294.766,-131.014 300.771,-127.909 306,-124 329.999,-106.061 317.75,-84.5991 342,-67 344.663,-65.0671 347.504,-63.3301 350.463,-61.7692"/>
<polygon fill="midnightblue" stroke="midnightblue" points="351.986,-64.9217 359.64,-57.5954 349.088,-58.5498 351.986,-64.9217"/>
</g>
<!-- Node13 -->
<g id="node13" class="node"><title>Node13</title>
<g id="a_node13"><a xlink:href="class_graphics_item.html#ad6009d75c16ccc9559a4b2ffad69045c" target="_top" xlink:title="GraphicsItem::meHandleEvent">
<polygon fill="white" stroke="black" points="342.5,-0.5 342.5,-19.5 493.5,-19.5 493.5,-0.5 342.5,-0.5"/>
<text text-anchor="middle" x="418" y="-7.5" font-family="Helvetica,sans-Serif" font-size="10.00">GraphicsItem::meHandleEvent</text>
</a>
</g>
</g>
<!-- Node2&#45;&gt;Node13 -->
<g id="edge13" class="edge"><title>Node2&#45;&gt;Node13</title>
<path fill="none" stroke="midnightblue" d="M291.682,-133.368C296.905,-130.914 301.813,-127.842 306,-124 339.269,-93.4729 308.304,-59.0547 342,-29 343.751,-27.4381 345.612,-26.001 347.561,-24.6787"/>
<polygon fill="midnightblue" stroke="midnightblue" points="349.598,-27.5482 356.589,-19.5874 346.159,-21.4509 349.598,-27.5482"/>
</g>
<!-- Node7 -->
<g id="node7" class="node"><title>Node7</title>
<g id="a_node7"><a xlink:href="class_graphics_item.html#a6616ded9057686f175bdbaa4c62218dc" target="_top" xlink:title="GraphicsItem::meIsOver">
<polygon fill="white" stroke="black" points="530,-152.5 530,-171.5 654,-171.5 654,-152.5 530,-152.5"/>
<text text-anchor="middle" x="592" y="-159.5" font-family="Helvetica,sans-Serif" font-size="10.00">GraphicsItem::meIsOver</text>
</a>
</g>
</g>
<!-- Node6&#45;&gt;Node7 -->
<g id="edge6" class="edge"><title>Node6&#45;&gt;Node7</title>
<path fill="none" stroke="midnightblue" d="M473.422,-162C488.116,-162 504.237,-162 519.705,-162"/>
<polygon fill="midnightblue" stroke="midnightblue" points="519.754,-165.5 529.754,-162 519.754,-158.5 519.754,-165.5"/>
</g>
<!-- Node8 -->
<g id="node8" class="node"><title>Node8</title>
<g id="a_node8"><a xlink:href="class_graphics_item.html#acddeaf58963ddb0de93b7c1b27512af7" target="_top" xlink:title="GraphicsItem::absolute">
<polygon fill="white" stroke="black" points="690,-152.5 690,-171.5 808,-171.5 808,-152.5 690,-152.5"/>
<text text-anchor="middle" x="749" y="-159.5" font-family="Helvetica,sans-Serif" font-size="10.00">GraphicsItem::absolute</text>
</a>
</g>
</g>
<!-- Node7&#45;&gt;Node8 -->
<g id="edge7" class="edge"><title>Node7&#45;&gt;Node8</title>
<path fill="none" stroke="midnightblue" d="M654.26,-162C662.622,-162 671.248,-162 679.725,-162"/>
<polygon fill="midnightblue" stroke="midnightblue" points="679.963,-165.5 689.963,-162 679.963,-158.5 679.963,-165.5"/>
</g>
<!-- Node9 -->
<g id="node9" class="node"><title>Node9</title>
<g id="a_node9"><a xlink:href="class_point.html#a04ce786cebfd535bc380833a71405930" target="_top" xlink:title="Point::absolute">
<polygon fill="white" stroke="black" points="844,-152.5 844,-171.5 926,-171.5 926,-152.5 844,-152.5"/>
<text text-anchor="middle" x="885" y="-159.5" font-family="Helvetica,sans-Serif" font-size="10.00">Point::absolute</text>
</a>
</g>
</g>
<!-- Node8&#45;&gt;Node9 -->
<g id="edge8" class="edge"><title>Node8&#45;&gt;Node9</title>
<path fill="none" stroke="midnightblue" d="M808.385,-162C816.815,-162 825.43,-162 833.685,-162"/>
<polygon fill="midnightblue" stroke="midnightblue" points="833.906,-165.5 843.906,-162 833.906,-158.5 833.906,-165.5"/>
</g>
<!-- Node9&#45;&gt;Node9 -->
<g id="edge9" class="edge"><title>Node9&#45;&gt;Node9</title>
<path fill="none" stroke="midnightblue" d="M864.038,-171.757C853.841,-180.565 860.828,-190 885,-190 900.485,-190 908.918,-186.128 910.298,-181.029"/>
<polygon fill="midnightblue" stroke="midnightblue" points="913.368,-179.333 905.962,-171.757 907.027,-182.298 913.368,-179.333"/>
</g>
</g>
</svg>
        <g id="navigator" transform="translate(0 0)" fill="#404254">
                <rect fill="#f2f5e9" fill-opacity="0.5" stroke="#606060" stroke-width=".5" x="0" y="0" width="60" height="60"/>
                <use id="zoomplus" xlink:href="#zoomPlus" x="17" y="9" onmousedown="handleZoom(evt,'in')"/>
                <use id="zoomminus" xlink:href="#zoomMin" x="42" y="9" onmousedown="handleZoom(evt,'out')"/>
                <use id="reset" xlink:href="#resetDef" x="30" y="36" onmousedown="handleReset()"/>
                <g id="arrowUp" xlink:href="#dirArrow" transform="translate(30 24)" onmousedown="handlePan(0,-1)">
                  <use xlink:href="#rim" fill="#404040">
                        <set attributeName="fill" to="#808080" begin="arrowUp.mouseover" end="arrowUp.mouseout"/>
                  </use>
                  <path fill="none" stroke="white" stroke-width="1.5" d="M0,-3.0v7 M-2.5,-0.5L0,-3.0L2.5,-0.5"/>
                </g>
                <g id="arrowRight" xlink:href="#dirArrow" transform="rotate(90) translate(36 -43)" onmousedown="handlePan(1,0)">
                  <use xlink:href="#rim" fill="#404040">
                        <set attributeName="fill" to="#808080" begin="arrowRight.mouseover" end="arrowRight.mouseout"/>
                  </use>
                  <path fill="none" stroke="white" stroke-width="1.5" d="M0,-3.0v7 M-2.5,-0.5L0,-3.0L2.5,-0.5"/>
                </g>
                <g id="arrowDown" xlink:href="#dirArrow" transform="rotate(180) translate(-30 -48)" onmousedown="handlePan(0,1)">
                  <use xlink:href="#rim" fill="#404040">
                        <set attributeName="fill" to="#808080" begin="arrowDown.mouseover" end="arrowDown.mouseout"/>
                  </use>
                  <path fill="none" stroke="white" stroke-width="1.5" d="M0,-3.0v7 M-2.5,-0.5L0,-3.0L2.5,-0.5"/>
                </g>
                <g id="arrowLeft" xlink:href="#dirArrow" transform="rotate(270) translate(-36 17)" onmousedown="handlePan(-1,0)">
                  <use xlink:href="#rim" fill="#404040">
                        <set attributeName="fill" to="#808080" begin="arrowLeft.mouseover" end="arrowLeft.mouseout"/>
                  </use>
                  <path fill="none" stroke="white" stroke-width="1.5" d="M0,-3.0v7 M-2.5,-0.5L0,-3.0L2.5,-0.5"/>
                </g>
        </g>
        <svg viewBox="0 0 15 15" width="100%" height="30px" preserveAspectRatio="xMaxYMin meet">
         <g id="arrow_out" transform="scale(0.3 0.3)">
          <a xlink:href="class_main_window_a0c74824ef8e6256455545f2659610b31_cgraph_org.svg" target="_base">
           <rect id="button" ry="5" rx="5" y="6" x="6" height="38" width="38"
                fill="#f2f5e9" fill-opacity="0.5" stroke="#606060" stroke-width="1.0"/>
           <path id="arrow"
             d="M 11.500037,31.436501 C 11.940474,20.09759 22.043105,11.32322 32.158766,21.979434 L 37.068811,17.246167 C 37.068811,17.246167 37.088388,32 37.088388,32 L 22.160133,31.978069 C 22.160133,31.978069 26.997745,27.140456 26.997745,27.140456 C 18.528582,18.264221 13.291696,25.230495 11.500037,31.436501 z"
             style="fill:#404040;"/>
          </a>
         </g>
        </svg>
</svg>
