<?xml version="1.0" encoding="UTF-8" standalone="no"?>
<!DOCTYPE svg PUBLIC "-//W3C//DTD SVG 1.1//EN"
 "http://www.w3.org/Graphics/SVG/1.1/DTD/svg11.dtd">
<!-- Generated by graphviz version 2.36.0 (20140111.2315)
 -->
<!-- Title: GraphicsText::font Pages: 1 -->
<svg width="428pt" height="104pt"
 viewBox="0.00 0.00 428.00 104.00" xmlns="http://www.w3.org/2000/svg" xmlns:xlink="http://www.w3.org/1999/xlink">
<g id="graph0" class="graph" transform="scale(1 1) rotate(0) translate(4 100)">
<title>GraphicsText::font</title>
<polygon fill="white" stroke="none" points="-4,4 -4,-100 424,-100 424,4 -4,4"/>
<!-- Node1 -->
<g id="node1" class="node"><title>Node1</title>
<polygon fill="#bfbfbf" stroke="black" points="0,-38.5 0,-57.5 98,-57.5 98,-38.5 0,-38.5"/>
<text text-anchor="middle" x="49" y="-45.5" font-family="Helvetica,sans-Serif" font-size="10.00">GraphicsText::font</text>
</g>
<!-- Node2 -->
<g id="node2" class="node"><title>Node2</title>
<g id="a_node2"><a xlink:href="class_graphics_text.html#adc96243d9e35d7cbf3e0b8abbd1be5a9" target="_top" xlink:title="GraphicsText::setFont">
<polygon fill="white" stroke="black" points="134,-76.5 134,-95.5 248,-95.5 248,-76.5 134,-76.5"/>
<text text-anchor="middle" x="191" y="-83.5" font-family="Helvetica,sans-Serif" font-size="10.00">GraphicsText::setFont</text>
</a>
</g>
</g>
<!-- Node1&#45;&gt;Node2 -->
<g id="edge1" class="edge"><title>Node1&#45;&gt;Node2</title>
<path fill="none" stroke="midnightblue" d="M95.1176,-60.2462C114.415,-65.484 136.612,-71.5091 154.683,-76.4141"/>
<polygon fill="midnightblue" stroke="midnightblue" points="95.8956,-56.8308 85.3279,-57.589 94.0619,-63.5864 95.8956,-56.8308"/>
</g>
<!-- Node4 -->
<g id="node4" class="node"><title>Node4</title>
<g id="a_node4"><a xlink:href="class_line_edit.html#a04e1cd86821efe7570868ae397978186" target="_top" xlink:title="LineEdit::LineEdit">
<polygon fill="white" stroke="black" points="305.5,-38.5 305.5,-57.5 398.5,-57.5 398.5,-38.5 305.5,-38.5"/>
<text text-anchor="middle" x="352" y="-45.5" font-family="Helvetica,sans-Serif" font-size="10.00">LineEdit::LineEdit</text>
</a>
</g>
</g>
<!-- Node1&#45;&gt;Node4 -->
<g id="edge3" class="edge"><title>Node1&#45;&gt;Node4</title>
<path fill="none" stroke="midnightblue" d="M108.046,-48C165.504,-48 252.314,-48 305.118,-48"/>
<polygon fill="midnightblue" stroke="midnightblue" points="108.027,-44.5001 98.0272,-48 108.027,-51.5001 108.027,-44.5001"/>
</g>
<!-- Node5 -->
<g id="node5" class="node"><title>Node5</title>
<g id="a_node5"><a xlink:href="class_line_edit.html#a636e2ac65a70dd82fcf02f863da5c446" target="_top" xlink:title="LineEdit::setText">
<polygon fill="white" stroke="black" points="145.5,-0.5 145.5,-19.5 236.5,-19.5 236.5,-0.5 145.5,-0.5"/>
<text text-anchor="middle" x="191" y="-7.5" font-family="Helvetica,sans-Serif" font-size="10.00">LineEdit::setText</text>
</a>
</g>
</g>
<!-- Node1&#45;&gt;Node5 -->
<g id="edge4" class="edge"><title>Node1&#45;&gt;Node5</title>
<path fill="none" stroke="midnightblue" d="M95.1176,-35.7538C114.415,-30.516 136.612,-24.4909 154.683,-19.5859"/>
<polygon fill="midnightblue" stroke="midnightblue" points="94.0619,-32.4136 85.3279,-38.411 95.8956,-39.1692 94.0619,-32.4136"/>
</g>
<!-- Node3 -->
<g id="node3" class="node"><title>Node3</title>
<g id="a_node3"><a xlink:href="class_main_window.html#a34c4b4207b46d11a4100c9b19f0e81bb" target="_top" xlink:title="MainWindow::MainWindow">
<polygon fill="white" stroke="black" points="284.5,-76.5 284.5,-95.5 419.5,-95.5 419.5,-76.5 284.5,-76.5"/>
<text text-anchor="middle" x="352" y="-83.5" font-family="Helvetica,sans-Serif" font-size="10.00">MainWindow::MainWindow</text>
</a>
</g>
</g>
<!-- Node2&#45;&gt;Node3 -->
<g id="edge2" class="edge"><title>Node2&#45;&gt;Node3</title>
<path fill="none" stroke="midnightblue" d="M258.091,-86C266.746,-86 275.619,-86 284.283,-86"/>
<polygon fill="midnightblue" stroke="midnightblue" points="258.057,-82.5001 248.057,-86 258.057,-89.5001 258.057,-82.5001"/>
</g>
<!-- Node5&#45;&gt;Node4 -->
<g id="edge5" class="edge"><title>Node5&#45;&gt;Node4</title>
<path fill="none" stroke="midnightblue" d="M242.077,-21.968C264.358,-27.2931 290.229,-33.4762 311.166,-38.4799"/>
<polygon fill="midnightblue" stroke="midnightblue" points="242.662,-18.5094 232.122,-19.589 241.035,-25.3177 242.662,-18.5094"/>
</g>
<!-- Node6 -->
<g id="node6" class="node"><title>Node6</title>
<g id="a_node6"><a xlink:href="class_line_edit.html#a8d5e79e8a895901381e301d41d3d4343" target="_top" xlink:title="LineEdit::meHandleEvent">
<polygon fill="white" stroke="black" points="288,-0.5 288,-19.5 416,-19.5 416,-0.5 288,-0.5"/>
<text text-anchor="middle" x="352" y="-7.5" font-family="Helvetica,sans-Serif" font-size="10.00">LineEdit::meHandleEvent</text>
</a>
</g>
</g>
<!-- Node5&#45;&gt;Node6 -->
<g id="edge6" class="edge"><title>Node5&#45;&gt;Node6</title>
<path fill="none" stroke="midnightblue" d="M247.046,-10C260.235,-10 274.418,-10 287.939,-10"/>
<polygon fill="midnightblue" stroke="midnightblue" points="246.714,-6.5001 236.713,-10 246.713,-13.5001 246.714,-6.5001"/>
</g>
</g>
</svg>
