<?xml version="1.0" encoding="UTF-8" standalone="no"?>
<!DOCTYPE svg PUBLIC "-//W3C//DTD SVG 1.1//EN"
 "http://www.w3.org/Graphics/SVG/1.1/DTD/svg11.dtd">
<!-- Generated by graphviz version 2.36.0 (20140111.2315)
 -->
<!-- Title: GraphicsTriangle::GraphicsTriangle Pages: 1 -->
<svg width="308pt" height="104pt"
 viewBox="0.00 0.00 308.00 104.00" xmlns="http://www.w3.org/2000/svg" xmlns:xlink="http://www.w3.org/1999/xlink">
<g id="graph0" class="graph" transform="scale(1 1) rotate(0) translate(4 100)">
<title>GraphicsTriangle::GraphicsTriangle</title>
<polygon fill="white" stroke="none" points="-4,4 -4,-100 304,-100 304,4 -4,4"/>
<!-- Node1 -->
<g id="node1" class="node"><title>Node1</title>
<polygon fill="#bfbfbf" stroke="black" points="0.5,-33 0.5,-63 135.5,-63 135.5,-33 0.5,-33"/>
<text text-anchor="start" x="8.5" y="-51" font-family="Helvetica,sans-Serif" font-size="10.00">GraphicsTriangle::Graphics</text>
<text text-anchor="middle" x="68" y="-40" font-family="Helvetica,sans-Serif" font-size="10.00">Triangle</text>
</g>
<!-- Node2 -->
<g id="node2" class="node"><title>Node2</title>
<g id="a_node2"><a xlink:href="class_graphics_triangle.html#ac35808361d51a1acd45b846862bf8a0b" target="_top" xlink:title="recupere les coordonées du premier point du triangle. ">
<polygon fill="white" stroke="black" points="179.5,-76.5 179.5,-95.5 292.5,-95.5 292.5,-76.5 179.5,-76.5"/>
<text text-anchor="middle" x="236" y="-83.5" font-family="Helvetica,sans-Serif" font-size="10.00">GraphicsTriangle::first</text>
</a>
</g>
</g>
<!-- Node1&#45;&gt;Node2 -->
<g id="edge1" class="edge"><title>Node1&#45;&gt;Node2</title>
<path fill="none" stroke="midnightblue" d="M134.608,-63.0186C150.814,-66.7285 167.946,-70.6504 183.381,-74.1836"/>
<polygon fill="midnightblue" stroke="midnightblue" points="182.723,-77.6234 193.252,-76.4432 184.285,-70.7999 182.723,-77.6234"/>
</g>
<!-- Node3 -->
<g id="node3" class="node"><title>Node3</title>
<g id="a_node3"><a xlink:href="class_graphics_triangle.html#aa04937e81f3d2f232077c6c1f5e9d595" target="_top" xlink:title="recupere les coordonées du second point du triangle. ">
<polygon fill="white" stroke="black" points="172,-38.5 172,-57.5 300,-57.5 300,-38.5 172,-38.5"/>
<text text-anchor="middle" x="236" y="-45.5" font-family="Helvetica,sans-Serif" font-size="10.00">GraphicsTriangle::second</text>
</a>
</g>
</g>
<!-- Node1&#45;&gt;Node3 -->
<g id="edge2" class="edge"><title>Node1&#45;&gt;Node3</title>
<path fill="none" stroke="midnightblue" d="M135.562,-48C144.185,-48 153.054,-48 161.777,-48"/>
<polygon fill="midnightblue" stroke="midnightblue" points="161.926,-51.5001 171.926,-48 161.926,-44.5001 161.926,-51.5001"/>
</g>
<!-- Node4 -->
<g id="node4" class="node"><title>Node4</title>
<g id="a_node4"><a xlink:href="class_graphics_triangle.html#afbb316f8c1587cd7ab6cf5b1f58c9fd6" target="_top" xlink:title="recupere les coordonées du troisième point du triangle. ">
<polygon fill="white" stroke="black" points="178.5,-0.5 178.5,-19.5 293.5,-19.5 293.5,-0.5 178.5,-0.5"/>
<text text-anchor="middle" x="236" y="-7.5" font-family="Helvetica,sans-Serif" font-size="10.00">GraphicsTriangle::third</text>
</a>
</g>
</g>
<!-- Node1&#45;&gt;Node4 -->
<g id="edge3" class="edge"><title>Node1&#45;&gt;Node4</title>
<path fill="none" stroke="midnightblue" d="M134.608,-32.9814C150.814,-29.2715 167.946,-25.3496 183.381,-21.8164"/>
<polygon fill="midnightblue" stroke="midnightblue" points="184.285,-25.2001 193.252,-19.5568 182.723,-18.3766 184.285,-25.2001"/>
</g>
</g>
</svg>
