<?xml version="1.0" encoding="UTF-8" standalone="no"?>
<!DOCTYPE svg PUBLIC "-//W3C//DTD SVG 1.1//EN"
 "http://www.w3.org/Graphics/SVG/1.1/DTD/svg11.dtd">
<!-- Generated by graphviz version 2.36.0 (20140111.2315)
 -->
<!-- Title: GraphicsItem::hasFocus Pages: 1 -->
<svg width="322pt" height="104pt"
 viewBox="0.00 0.00 322.00 104.00" xmlns="http://www.w3.org/2000/svg" xmlns:xlink="http://www.w3.org/1999/xlink">
<g id="graph0" class="graph" transform="scale(1 1) rotate(0) translate(4 100)">
<title>GraphicsItem::hasFocus</title>
<polygon fill="white" stroke="none" points="-4,4 -4,-100 318,-100 318,4 -4,4"/>
<!-- Node1 -->
<g id="node1" class="node"><title>Node1</title>
<polygon fill="#bfbfbf" stroke="black" points="0,-38.5 0,-57.5 124,-57.5 124,-38.5 0,-38.5"/>
<text text-anchor="middle" x="62" y="-45.5" font-family="Helvetica,sans-Serif" font-size="10.00">GraphicsItem::hasFocus</text>
</g>
<!-- Node2 -->
<g id="node2" class="node"><title>Node2</title>
<g id="a_node2"><a xlink:href="class_graphics_point.html#a7c4ac7621b7bed96a192fa77d299a2cb" target="_top" xlink:title="GraphicsPoint::meDraw">
<polygon fill="white" stroke="black" points="176.5,-76.5 176.5,-95.5 297.5,-95.5 297.5,-76.5 176.5,-76.5"/>
<text text-anchor="middle" x="237" y="-83.5" font-family="Helvetica,sans-Serif" font-size="10.00">GraphicsPoint::meDraw</text>
</a>
</g>
</g>
<!-- Node1&#45;&gt;Node2 -->
<g id="edge1" class="edge"><title>Node1&#45;&gt;Node2</title>
<path fill="none" stroke="midnightblue" d="M116.505,-59.7526C140.967,-65.1258 169.571,-71.4086 192.659,-76.4799"/>
<polygon fill="midnightblue" stroke="midnightblue" points="117.173,-56.316 106.655,-57.589 115.671,-63.153 117.173,-56.316"/>
</g>
<!-- Node3 -->
<g id="node3" class="node"><title>Node3</title>
<g id="a_node3"><a xlink:href="class_graphics_point.html#aaceb83d2bd068629dccfde4aee9c60f5" target="_top" xlink:title="GraphicsPoint::meHandleEvent">
<polygon fill="white" stroke="black" points="160,-38.5 160,-57.5 314,-57.5 314,-38.5 160,-38.5"/>
<text text-anchor="middle" x="237" y="-45.5" font-family="Helvetica,sans-Serif" font-size="10.00">GraphicsPoint::meHandleEvent</text>
</a>
</g>
</g>
<!-- Node1&#45;&gt;Node3 -->
<g id="edge2" class="edge"><title>Node1&#45;&gt;Node3</title>
<path fill="none" stroke="midnightblue" d="M134.557,-48C142.915,-48 151.464,-48 159.88,-48"/>
<polygon fill="midnightblue" stroke="midnightblue" points="134.48,-44.5001 124.48,-48 134.48,-51.5001 134.48,-44.5001"/>
</g>
<!-- Node4 -->
<g id="node4" class="node"><title>Node4</title>
<g id="a_node4"><a xlink:href="class_line_edit.html#a8d5e79e8a895901381e301d41d3d4343" target="_top" xlink:title="LineEdit::meHandleEvent">
<polygon fill="white" stroke="black" points="173,-0.5 173,-19.5 301,-19.5 301,-0.5 173,-0.5"/>
<text text-anchor="middle" x="237" y="-7.5" font-family="Helvetica,sans-Serif" font-size="10.00">LineEdit::meHandleEvent</text>
</a>
</g>
</g>
<!-- Node1&#45;&gt;Node4 -->
<g id="edge3" class="edge"><title>Node1&#45;&gt;Node4</title>
<path fill="none" stroke="midnightblue" d="M116.505,-36.2474C140.967,-30.8742 169.571,-24.5914 192.659,-19.5201"/>
<polygon fill="midnightblue" stroke="midnightblue" points="115.671,-32.847 106.655,-38.411 117.173,-39.684 115.671,-32.847"/>
</g>
</g>
</svg>
