<?xml version="1.0" encoding="UTF-8" standalone="no"?>
<!DOCTYPE svg PUBLIC "-//W3C//DTD SVG 1.1//EN"
 "http://www.w3.org/Graphics/SVG/1.1/DTD/svg11.dtd">
<!-- Generated by graphviz version 2.36.0 (20140111.2315)
 -->
<!-- Title: Point::~Point Pages: 1 -->
<!--zoomable 272 -->
<svg id="main" version="1.1" xmlns="http://www.w3.org/2000/svg" xmlns:xlink="http://www.w3.org/1999/xlink" xml:space="preserve" onload="init(evt)">
<style type="text/css"><![CDATA[
.edge:hover path { stroke: red; }
.edge:hover polygon { stroke: red; fill: red; }
]]></style>
<script type="text/javascript"><![CDATA[
var edges = document.getElementsByTagName('g');
if (edges && edges.length) {
  for (var i=0;i<edges.length;i++) {
    if (edges[i].id.substr(0,4)=='edge') {
      edges[i].setAttribute('class','edge');
    }
  }
}
]]></script>
        <defs>
                <circle id="rim" cx="0" cy="0" r="7"/>
                <circle id="rim2" cx="0" cy="0" r="3.5"/>
                <g id="zoomPlus">
                        <use xlink:href="#rim" fill="#404040">
                                <set attributeName="fill" to="#808080" begin="zoomplus.mouseover" end="zoomplus.mouseout"/>
                        </use>
                        <path d="M-4,0h8M0,-4v8" fill="none" stroke="white" stroke-width="1.5" pointer-events="none"/>
                </g>
                <g id="zoomMin">
                        <use xlink:href="#rim" fill="#404040">
                                <set attributeName="fill" to="#808080" begin="zoomminus.mouseover" end="zoomminus.mouseout"/>
                        </use>
                        <path d="M-4,0h8" fill="none" stroke="white" stroke-width="1.5" pointer-events="none"/>
                </g>
                <g id="dirArrow">
                        <path fill="none" stroke="white" stroke-width="1.5" d="M0,-3.0v7 M-2.5,-0.5L0,-3.0L2.5,-0.5"/>
                </g>
               <g id="resetDef">
                       <use xlink:href="#rim2" fill="#404040">
                               <set attributeName="fill" to="#808080" begin="reset.mouseover" end="reset.mouseout"/>
                       </use>
               </g>
        </defs>

<script type="text/javascript">
var viewWidth = 652;
var viewHeight = 272;
var sectionId = 'dynsection-2';
</script>
<script xlink:href="svgpan.js"/>
<svg id="graph" class="graph">
<g id="viewport">
<title>Point::~Point</title>
<polygon fill="white" stroke="none" points="-4,4 -4,-267.508 648,-267.508 648,4 -4,4"/>
<!-- Node1 -->
<g id="node1" class="node"><title>Node1</title>
<polygon fill="#bfbfbf" stroke="black" points="0,-160.5 0,-179.5 74,-179.5 74,-160.5 0,-160.5"/>
<text text-anchor="middle" x="37" y="-167.5" font-family="Helvetica,sans-Serif" font-size="10.00">Point::~Point</text>
</g>
<!-- Node2 -->
<g id="node2" class="node"><title>Node2</title>
<g id="a_node2"><a xlink:href="class_point.html#a498f108de0c0351dfb3177c681a7a1f2" target="_top" xlink:title="Point::beAlone">
<polygon fill="white" stroke="black" points="110,-160.5 110,-179.5 190,-179.5 190,-160.5 110,-160.5"/>
<text text-anchor="middle" x="150" y="-167.5" font-family="Helvetica,sans-Serif" font-size="10.00">Point::beAlone</text>
</a>
</g>
</g>
<!-- Node1&#45;&gt;Node2 -->
<g id="edge1" class="edge"><title>Node1&#45;&gt;Node2</title>
<path fill="none" stroke="midnightblue" d="M74.0385,-170C82.1394,-170 90.8736,-170 99.4185,-170"/>
<polygon fill="midnightblue" stroke="midnightblue" points="99.6923,-173.5 109.692,-170 99.6922,-166.5 99.6923,-173.5"/>
</g>
<!-- Node3 -->
<g id="node3" class="node"><title>Node3</title>
<g id="a_node3"><a xlink:href="class_point.html#a64a5fe8c9b1d1a1543aaa64031537380" target="_top" xlink:title="Point::isAlone">
<polygon fill="white" stroke="black" points="566.5,-94.5 566.5,-113.5 643.5,-113.5 643.5,-94.5 566.5,-94.5"/>
<text text-anchor="middle" x="605" y="-101.5" font-family="Helvetica,sans-Serif" font-size="10.00">Point::isAlone</text>
</a>
</g>
</g>
<!-- Node2&#45;&gt;Node3 -->
<g id="edge2" class="edge"><title>Node2&#45;&gt;Node3</title>
<path fill="none" stroke="midnightblue" d="M163.672,-179.639C202.859,-208.224 325.497,-288.501 426,-255 500.464,-230.179 564.145,-156.477 590.733,-122.07"/>
<polygon fill="midnightblue" stroke="midnightblue" points="593.709,-123.937 596.953,-113.85 588.128,-119.712 593.709,-123.937"/>
</g>
<!-- Node4 -->
<g id="node4" class="node"><title>Node4</title>
<g id="a_node4"><a xlink:href="class_point.html#a2aa897aa68c2f3e6df3a46738f27a0ac" target="_top" xlink:title="recupere la valeur de l&#39;absisse du Point. ">
<polygon fill="white" stroke="black" points="349,-208.5 349,-227.5 399,-227.5 399,-208.5 349,-208.5"/>
<text text-anchor="middle" x="374" y="-215.5" font-family="Helvetica,sans-Serif" font-size="10.00">Point::x</text>
</a>
</g>
</g>
<!-- Node2&#45;&gt;Node4 -->
<g id="edge3" class="edge"><title>Node2&#45;&gt;Node4</title>
<path fill="none" stroke="midnightblue" d="M190.178,-178.471C232.432,-187.607 299.018,-202.004 339.1,-210.67"/>
<polygon fill="midnightblue" stroke="midnightblue" points="338.417,-214.103 348.931,-212.796 339.897,-207.262 338.417,-214.103"/>
</g>
<!-- Node7 -->
<g id="node7" class="node"><title>Node7</title>
<g id="a_node7"><a xlink:href="class_point.html#a2226d8a3fb283b0b3c1f69106df144ba" target="_top" xlink:title="Fonction recuperant le valeur de l&#39;ordonée. ">
<polygon fill="white" stroke="black" points="349,-0.5 349,-19.5 399,-19.5 399,-0.5 349,-0.5"/>
<text text-anchor="middle" x="374" y="-7.5" font-family="Helvetica,sans-Serif" font-size="10.00">Point::y</text>
</a>
</g>
</g>
<!-- Node2&#45;&gt;Node7 -->
<g id="edge9" class="edge"><title>Node2&#45;&gt;Node7</title>
<path fill="none" stroke="midnightblue" d="M164.222,-160.47C201.152,-133.855 305.666,-58.5293 351.269,-25.6622"/>
<polygon fill="midnightblue" stroke="midnightblue" points="353.5,-28.3683 359.566,-19.6819 349.407,-22.6895 353.5,-28.3683"/>
</g>
<!-- Node8 -->
<g id="node8" class="node"><title>Node8</title>
<g id="a_node8"><a xlink:href="class_point.html#a43923c490fb5439d7d8a041e86520c34" target="_top" xlink:title="permet la modification des valeurs du point. ">
<polygon fill="white" stroke="black" points="226.5,-132.5 226.5,-151.5 285.5,-151.5 285.5,-132.5 226.5,-132.5"/>
<text text-anchor="middle" x="256" y="-139.5" font-family="Helvetica,sans-Serif" font-size="10.00">Point::set</text>
</a>
</g>
</g>
<!-- Node2&#45;&gt;Node8 -->
<g id="edge13" class="edge"><title>Node2&#45;&gt;Node8</title>
<path fill="none" stroke="midnightblue" d="M186.5,-160.442C196.108,-157.856 206.555,-155.043 216.328,-152.412"/>
<polygon fill="midnightblue" stroke="midnightblue" points="217.459,-155.732 226.205,-149.753 215.639,-148.973 217.459,-155.732"/>
</g>
<!-- Node4&#45;&gt;Node3 -->
<g id="edge4" class="edge"><title>Node4&#45;&gt;Node3</title>
<path fill="none" stroke="midnightblue" d="M399.137,-209.758C407.719,-206.631 417.386,-202.882 426,-199 482.046,-173.74 544.903,-138.466 578.892,-118.78"/>
<polygon fill="midnightblue" stroke="midnightblue" points="580.803,-121.718 587.684,-113.662 577.281,-115.668 580.803,-121.718"/>
</g>
<!-- Node4&#45;&gt;Node4 -->
<g id="edge8" class="edge"><title>Node4&#45;&gt;Node4</title>
<path fill="none" stroke="midnightblue" d="M355.813,-227.757C346.965,-236.565 353.027,-246 374,-246 387.436,-246 394.752,-242.128 395.949,-237.029"/>
<polygon fill="midnightblue" stroke="midnightblue" points="399.19,-235.707 392.187,-227.757 392.704,-238.339 399.19,-235.707"/>
</g>
<!-- Node5 -->
<g id="node5" class="node"><title>Node5</title>
<g id="a_node5"><a xlink:href="class_point.html#afa7d33502738b0b3df186a91e11ff2a8" target="_top" xlink:title="Point::origin">
<polygon fill="white" stroke="black" points="462,-56.5 462,-75.5 530,-75.5 530,-56.5 462,-56.5"/>
<text text-anchor="middle" x="496" y="-63.5" font-family="Helvetica,sans-Serif" font-size="10.00">Point::origin</text>
</a>
</g>
</g>
<!-- Node4&#45;&gt;Node5 -->
<g id="edge5" class="edge"><title>Node4&#45;&gt;Node5</title>
<path fill="none" stroke="midnightblue" d="M399.025,-212.992C408.277,-210.118 418.429,-205.7 426,-199 461.411,-167.664 481.323,-113.771 489.893,-85.1549"/>
<polygon fill="midnightblue" stroke="midnightblue" points="493.263,-86.1007 492.631,-75.5247 486.529,-84.1865 493.263,-86.1007"/>
</g>
<!-- Node5&#45;&gt;Node3 -->
<g id="edge6" class="edge"><title>Node5&#45;&gt;Node3</title>
<path fill="none" stroke="midnightblue" d="M524.001,-75.589C537.18,-80.2694 553.229,-85.9692 567.484,-91.0315"/>
<polygon fill="midnightblue" stroke="midnightblue" points="566.413,-94.3656 577.008,-94.4141 568.756,-87.7692 566.413,-94.3656"/>
</g>
<!-- Node6 -->
<g id="node6" class="node"><title>Node6</title>
<g id="a_node6"><a xlink:href="class_point.html#a97edc6e6415d6ccc6efcff5fcbc97f15" target="_top" xlink:title="Constructeur par défaut de la classe Point. ">
<polygon fill="white" stroke="black" points="571,-56.5 571,-75.5 639,-75.5 639,-56.5 571,-56.5"/>
<text text-anchor="middle" x="605" y="-63.5" font-family="Helvetica,sans-Serif" font-size="10.00">Point::Point</text>
</a>
</g>
</g>
<!-- Node5&#45;&gt;Node6 -->
<g id="edge7" class="edge"><title>Node5&#45;&gt;Node6</title>
<path fill="none" stroke="midnightblue" d="M530.269,-66C539.831,-66 550.403,-66 560.485,-66"/>
<polygon fill="midnightblue" stroke="midnightblue" points="560.752,-69.5001 570.752,-66 560.752,-62.5001 560.752,-69.5001"/>
</g>
<!-- Node7&#45;&gt;Node3 -->
<g id="edge10" class="edge"><title>Node7&#45;&gt;Node3</title>
<path fill="none" stroke="midnightblue" d="M399.138,-11.5009C431.032,-14.3971 488.066,-22.802 530,-47 550.15,-58.6276 547.312,-71.1433 566,-85 568.074,-86.5376 570.291,-88.01 572.573,-89.4061"/>
<polygon fill="midnightblue" stroke="midnightblue" points="571.094,-92.5884 581.534,-94.3903 574.496,-86.4709 571.094,-92.5884"/>
</g>
<!-- Node7&#45;&gt;Node5 -->
<g id="edge11" class="edge"><title>Node7&#45;&gt;Node5</title>
<path fill="none" stroke="midnightblue" d="M395.629,-19.6267C414.892,-28.6162 443.849,-42.1294 465.542,-52.2529"/>
<polygon fill="midnightblue" stroke="midnightblue" points="464.098,-55.4416 474.64,-56.4989 467.059,-49.0983 464.098,-55.4416"/>
</g>
<!-- Node7&#45;&gt;Node7 -->
<g id="edge12" class="edge"><title>Node7&#45;&gt;Node7</title>
<path fill="none" stroke="midnightblue" d="M355.813,-19.7571C346.965,-28.5653 353.027,-38 374,-38 387.436,-38 394.752,-34.128 395.949,-29.0292"/>
<polygon fill="midnightblue" stroke="midnightblue" points="399.19,-27.7074 392.187,-19.7571 392.704,-30.3393 399.19,-27.7074"/>
</g>
<!-- Node8&#45;&gt;Node3 -->
<g id="edge14" class="edge"><title>Node8&#45;&gt;Node3</title>
<path fill="none" stroke="midnightblue" d="M284.839,-132.419C296.227,-128.881 309.614,-125.201 322,-123 403.413,-108.536 499.834,-104.881 556.23,-104.073"/>
<polygon fill="midnightblue" stroke="midnightblue" points="556.324,-107.572 566.282,-103.953 556.24,-100.572 556.324,-107.572"/>
</g>
<!-- Node8&#45;&gt;Node4 -->
<g id="edge15" class="edge"><title>Node8&#45;&gt;Node4</title>
<path fill="none" stroke="midnightblue" d="M265.833,-151.677C277.607,-164.091 299.577,-185.612 322,-199 327.301,-202.165 333.219,-204.952 339.093,-207.348"/>
<polygon fill="midnightblue" stroke="midnightblue" points="338.229,-210.763 348.821,-211.009 340.694,-204.211 338.229,-210.763"/>
</g>
<!-- Node8&#45;&gt;Node5 -->
<g id="edge16" class="edge"><title>Node8&#45;&gt;Node5</title>
<path fill="none" stroke="midnightblue" d="M265.625,-132.471C277.174,-120.389 298.901,-99.9378 322,-90 363.576,-72.1125 415.484,-66.925 451.54,-65.7088"/>
<polygon fill="midnightblue" stroke="midnightblue" points="451.819,-69.2031 461.729,-65.4563 451.645,-62.2052 451.819,-69.2031"/>
</g>
<!-- Node8&#45;&gt;Node7 -->
<g id="edge17" class="edge"><title>Node8&#45;&gt;Node7</title>
<path fill="none" stroke="midnightblue" d="M262.736,-132.463C273.274,-115.344 296.94,-78.7028 322,-52 330.894,-42.5228 341.907,-33.2067 351.42,-25.7659"/>
<polygon fill="midnightblue" stroke="midnightblue" points="353.798,-28.3539 359.631,-19.5089 349.555,-22.7862 353.798,-28.3539"/>
</g>
<!-- Node9 -->
<g id="node9" class="node"><title>Node9</title>
<g id="a_node9"><a xlink:href="jquery_8js.html#a2335e57f79b6acfb6de59c235dc8a83e" target="_top" xlink:title="p">
<polygon fill="white" stroke="black" points="359.5,-170.5 359.5,-189.5 388.5,-189.5 388.5,-170.5 359.5,-170.5"/>
<text text-anchor="middle" x="374" y="-177.5" font-family="Helvetica,sans-Serif" font-size="10.00">p</text>
</a>
</g>
</g>
<!-- Node8&#45;&gt;Node9 -->
<g id="edge18" class="edge"><title>Node8&#45;&gt;Node9</title>
<path fill="none" stroke="midnightblue" d="M285.674,-151.393C305.395,-157.854 331.255,-166.325 349.705,-172.369"/>
<polygon fill="midnightblue" stroke="midnightblue" points="348.765,-175.744 359.358,-175.531 350.944,-169.092 348.765,-175.744"/>
</g>
<!-- Node10 -->
<g id="node10" class="node"><title>Node10</title>
<g id="a_node10"><a xlink:href="class_group_points.html#a5d0d00417a192136922c27c8ce8ff98f" target="_top" xlink:title="GroupPoints::points">
<polygon fill="white" stroke="black" points="322.5,-132.5 322.5,-151.5 425.5,-151.5 425.5,-132.5 322.5,-132.5"/>
<text text-anchor="middle" x="374" y="-139.5" font-family="Helvetica,sans-Serif" font-size="10.00">GroupPoints::points</text>
</a>
</g>
</g>
<!-- Node8&#45;&gt;Node10 -->
<g id="edge19" class="edge"><title>Node8&#45;&gt;Node10</title>
<path fill="none" stroke="midnightblue" d="M285.674,-142C293.669,-142 302.672,-142 311.781,-142"/>
<polygon fill="midnightblue" stroke="midnightblue" points="312.063,-145.5 322.063,-142 312.063,-138.5 312.063,-145.5"/>
</g>
</g>
</svg>
        <g id="navigator" transform="translate(0 0)" fill="#404254">
                <rect fill="#f2f5e9" fill-opacity="0.5" stroke="#606060" stroke-width=".5" x="0" y="0" width="60" height="60"/>
                <use id="zoomplus" xlink:href="#zoomPlus" x="17" y="9" onmousedown="handleZoom(evt,'in')"/>
                <use id="zoomminus" xlink:href="#zoomMin" x="42" y="9" onmousedown="handleZoom(evt,'out')"/>
                <use id="reset" xlink:href="#resetDef" x="30" y="36" onmousedown="handleReset()"/>
                <g id="arrowUp" xlink:href="#dirArrow" transform="translate(30 24)" onmousedown="handlePan(0,-1)">
                  <use xlink:href="#rim" fill="#404040">
                        <set attributeName="fill" to="#808080" begin="arrowUp.mouseover" end="arrowUp.mouseout"/>
                  </use>
                  <path fill="none" stroke="white" stroke-width="1.5" d="M0,-3.0v7 M-2.5,-0.5L0,-3.0L2.5,-0.5"/>
                </g>
                <g id="arrowRight" xlink:href="#dirArrow" transform="rotate(90) translate(36 -43)" onmousedown="handlePan(1,0)">
                  <use xlink:href="#rim" fill="#404040">
                        <set attributeName="fill" to="#808080" begin="arrowRight.mouseover" end="arrowRight.mouseout"/>
                  </use>
                  <path fill="none" stroke="white" stroke-width="1.5" d="M0,-3.0v7 M-2.5,-0.5L0,-3.0L2.5,-0.5"/>
                </g>
                <g id="arrowDown" xlink:href="#dirArrow" transform="rotate(180) translate(-30 -48)" onmousedown="handlePan(0,1)">
                  <use xlink:href="#rim" fill="#404040">
                        <set attributeName="fill" to="#808080" begin="arrowDown.mouseover" end="arrowDown.mouseout"/>
                  </use>
                  <path fill="none" stroke="white" stroke-width="1.5" d="M0,-3.0v7 M-2.5,-0.5L0,-3.0L2.5,-0.5"/>
                </g>
                <g id="arrowLeft" xlink:href="#dirArrow" transform="rotate(270) translate(-36 17)" onmousedown="handlePan(-1,0)">
                  <use xlink:href="#rim" fill="#404040">
                        <set attributeName="fill" to="#808080" begin="arrowLeft.mouseover" end="arrowLeft.mouseout"/>
                  </use>
                  <path fill="none" stroke="white" stroke-width="1.5" d="M0,-3.0v7 M-2.5,-0.5L0,-3.0L2.5,-0.5"/>
                </g>
        </g>
        <svg viewBox="0 0 15 15" width="100%" height="30px" preserveAspectRatio="xMaxYMin meet">
         <g id="arrow_out" transform="scale(0.3 0.3)">
          <a xlink:href="class_point_a395fa04b4ec126b66fc053f829a30cc1_cgraph_org.svg" target="_base">
           <rect id="button" ry="5" rx="5" y="6" x="6" height="38" width="38"
                fill="#f2f5e9" fill-opacity="0.5" stroke="#606060" stroke-width="1.0"/>
           <path id="arrow"
             d="M 11.500037,31.436501 C 11.940474,20.09759 22.043105,11.32322 32.158766,21.979434 L 37.068811,17.246167 C 37.068811,17.246167 37.088388,32 37.088388,32 L 22.160133,31.978069 C 22.160133,31.978069 26.997745,27.140456 26.997745,27.140456 C 18.528582,18.264221 13.291696,25.230495 11.500037,31.436501 z"
             style="fill:#404040;"/>
          </a>
         </g>
        </svg>
</svg>
