<?xml version="1.0" encoding="UTF-8" standalone="no"?>
<!DOCTYPE svg PUBLIC "-//W3C//DTD SVG 1.1//EN"
 "http://www.w3.org/Graphics/SVG/1.1/DTD/svg11.dtd">
<!-- Generated by graphviz version 2.36.0 (20140111.2315)
 -->
<!-- Title: Point::setAbsolute Pages: 1 -->
<svg width="564pt" height="142pt"
 viewBox="0.00 0.00 564.00 142.00" xmlns="http://www.w3.org/2000/svg" xmlns:xlink="http://www.w3.org/1999/xlink">
<g id="graph0" class="graph" transform="scale(1 1) rotate(0) translate(4 138)">
<title>Point::setAbsolute</title>
<polygon fill="white" stroke="none" points="-4,4 -4,-138 560,-138 560,4 -4,4"/>
<!-- Node1 -->
<g id="node1" class="node"><title>Node1</title>
<polygon fill="#bfbfbf" stroke="black" points="0.5,-57.5 0.5,-76.5 97.5,-76.5 97.5,-57.5 0.5,-57.5"/>
<text text-anchor="middle" x="49" y="-64.5" font-family="Helvetica,sans-Serif" font-size="10.00">Point::setAbsolute</text>
</g>
<!-- Node2 -->
<g id="node2" class="node"><title>Node2</title>
<g id="a_node2"><a xlink:href="class_graphics_point.html#aaceb83d2bd068629dccfde4aee9c60f5" target="_top" xlink:title="GraphicsPoint::meHandleEvent">
<polygon fill="white" stroke="black" points="134,-114.5 134,-133.5 288,-133.5 288,-114.5 134,-114.5"/>
<text text-anchor="middle" x="211" y="-121.5" font-family="Helvetica,sans-Serif" font-size="10.00">GraphicsPoint::meHandleEvent</text>
</a>
</g>
</g>
<!-- Node1&#45;&gt;Node2 -->
<g id="edge1" class="edge"><title>Node1&#45;&gt;Node2</title>
<path fill="none" stroke="midnightblue" d="M82.6506,-80.4277C98.1216,-86.6354 116.915,-93.9545 134,-100 148.349,-105.077 164.398,-110.222 178.038,-114.44"/>
<polygon fill="midnightblue" stroke="midnightblue" points="83.598,-77.0356 73.0151,-76.5334 80.975,-83.5256 83.598,-77.0356"/>
</g>
<!-- Node3 -->
<g id="node3" class="node"><title>Node3</title>
<g id="a_node3"><a xlink:href="class_main_window.html#a34c4b4207b46d11a4100c9b19f0e81bb" target="_top" xlink:title="MainWindow::MainWindow">
<polygon fill="white" stroke="black" points="420.5,-47.5 420.5,-66.5 555.5,-66.5 555.5,-47.5 420.5,-47.5"/>
<text text-anchor="middle" x="488" y="-54.5" font-family="Helvetica,sans-Serif" font-size="10.00">MainWindow::MainWindow</text>
</a>
</g>
</g>
<!-- Node1&#45;&gt;Node3 -->
<g id="edge2" class="edge"><title>Node1&#45;&gt;Node3</title>
<path fill="none" stroke="midnightblue" d="M108.113,-67.8139C156.308,-68.2932 226.62,-68.5412 288,-67 332.091,-65.8929 381.625,-63.408 420.244,-61.1925"/>
<polygon fill="midnightblue" stroke="midnightblue" points="107.911,-64.3116 97.8741,-67.7052 107.836,-71.3112 107.911,-64.3116"/>
</g>
<!-- Node4 -->
<g id="node4" class="node"><title>Node4</title>
<g id="a_node4"><a xlink:href="class_point.html#ac5f7b13934e6e617bd656b8bcf17c3cf" target="_top" xlink:title="Point::setAbsolute">
<polygon fill="white" stroke="black" points="162.5,-38.5 162.5,-57.5 259.5,-57.5 259.5,-38.5 162.5,-38.5"/>
<text text-anchor="middle" x="211" y="-45.5" font-family="Helvetica,sans-Serif" font-size="10.00">Point::setAbsolute</text>
</a>
</g>
</g>
<!-- Node1&#45;&gt;Node4 -->
<g id="edge3" class="edge"><title>Node1&#45;&gt;Node4</title>
<path fill="none" stroke="midnightblue" d="M107.632,-60.1563C125.575,-58.0254 145.152,-55.7007 162.335,-53.6602"/>
<polygon fill="midnightblue" stroke="midnightblue" points="107.09,-56.6959 97.5721,-61.3508 107.915,-63.6471 107.09,-56.6959"/>
</g>
<!-- Node5 -->
<g id="node5" class="node"><title>Node5</title>
<g id="a_node5"><a xlink:href="class_point.html#aa346b22aa03d377bfc90b5b1e11f074c" target="_top" xlink:title="Point::friendChanged">
<polygon fill="white" stroke="black" points="157,-0.5 157,-19.5 265,-19.5 265,-0.5 157,-0.5"/>
<text text-anchor="middle" x="211" y="-7.5" font-family="Helvetica,sans-Serif" font-size="10.00">Point::friendChanged</text>
</a>
</g>
</g>
<!-- Node1&#45;&gt;Node5 -->
<g id="edge4" class="edge"><title>Node1&#45;&gt;Node5</title>
<path fill="none" stroke="midnightblue" d="M77.9806,-52.8124C94.0758,-45.0417 114.846,-35.6657 134,-29 144.276,-25.4238 155.551,-22.2273 166.198,-19.5224"/>
<polygon fill="midnightblue" stroke="midnightblue" points="76.0558,-49.858 68.6195,-57.4046 79.1389,-56.1426 76.0558,-49.858"/>
</g>
<!-- Node6 -->
<g id="node6" class="node"><title>Node6</title>
<g id="a_node6"><a xlink:href="class_point.html#a4fa7ffadfb6c9de033bfef5decdaa66e" target="_top" xlink:title="Point::join">
<polygon fill="white" stroke="black" points="324,-19.5 324,-38.5 384,-38.5 384,-19.5 324,-19.5"/>
<text text-anchor="middle" x="354" y="-26.5" font-family="Helvetica,sans-Serif" font-size="10.00">Point::join</text>
</a>
</g>
</g>
<!-- Node5&#45;&gt;Node6 -->
<g id="edge5" class="edge"><title>Node5&#45;&gt;Node6</title>
<path fill="none" stroke="midnightblue" d="M275.656,-18.5778C292.443,-20.8398 309.752,-23.1723 323.729,-25.0556"/>
<polygon fill="midnightblue" stroke="midnightblue" points="275.684,-15.05 265.306,-17.1831 274.749,-21.9873 275.684,-15.05"/>
</g>
<!-- Node6&#45;&gt;Node3 -->
<g id="edge6" class="edge"><title>Node6&#45;&gt;Node3</title>
<path fill="none" stroke="midnightblue" d="M394.273,-37.3306C409.266,-40.511 426.474,-44.1611 441.962,-47.4466"/>
<polygon fill="midnightblue" stroke="midnightblue" points="394.804,-33.8654 384.295,-35.2141 393.351,-40.713 394.804,-33.8654"/>
</g>
</g>
</svg>
