<?xml version="1.0" encoding="UTF-8" standalone="no"?>
<!DOCTYPE svg PUBLIC "-//W3C//DTD SVG 1.1//EN"
 "http://www.w3.org/Graphics/SVG/1.1/DTD/svg11.dtd">
<!-- Generated by graphviz version 2.36.0 (20140111.2315)
 -->
<!-- Title: GraphicsLine Pages: 1 -->
<!--zoomable 826 -->
<svg id="main" version="1.1" xmlns="http://www.w3.org/2000/svg" xmlns:xlink="http://www.w3.org/1999/xlink" xml:space="preserve" onload="init(evt)">
<style type="text/css"><![CDATA[
.edge:hover path { stroke: red; }
.edge:hover polygon { stroke: red; fill: red; }
]]></style>
<script type="text/javascript"><![CDATA[
var edges = document.getElementsByTagName('g');
if (edges && edges.length) {
  for (var i=0;i<edges.length;i++) {
    if (edges[i].id.substr(0,4)=='edge') {
      edges[i].setAttribute('class','edge');
    }
  }
}
]]></script>
        <defs>
                <circle id="rim" cx="0" cy="0" r="7"/>
                <circle id="rim2" cx="0" cy="0" r="3.5"/>
                <g id="zoomPlus">
                        <use xlink:href="#rim" fill="#404040">
                                <set attributeName="fill" to="#808080" begin="zoomplus.mouseover" end="zoomplus.mouseout"/>
                        </use>
                        <path d="M-4,0h8M0,-4v8" fill="none" stroke="white" stroke-width="1.5" pointer-events="none"/>
                </g>
                <g id="zoomMin">
                        <use xlink:href="#rim" fill="#404040">
                                <set attributeName="fill" to="#808080" begin="zoomminus.mouseover" end="zoomminus.mouseout"/>
                        </use>
                        <path d="M-4,0h8" fill="none" stroke="white" stroke-width="1.5" pointer-events="none"/>
                </g>
                <g id="dirArrow">
                        <path fill="none" stroke="white" stroke-width="1.5" d="M0,-3.0v7 M-2.5,-0.5L0,-3.0L2.5,-0.5"/>
                </g>
               <g id="resetDef">
                       <use xlink:href="#rim2" fill="#404040">
                               <set attributeName="fill" to="#808080" begin="reset.mouseover" end="reset.mouseout"/>
                       </use>
               </g>
        </defs>

<script type="text/javascript">
var viewWidth = 318;
var viewHeight = 826;
var sectionId = 'dynsection-1';
</script>
<script xlink:href="svgpan.js"/>
<svg id="graph" class="graph">
<g id="viewport">
<title>GraphicsLine</title>
<polygon fill="white" stroke="none" points="-4,4 -4,-822 314,-822 314,4 -4,4"/>
<!-- Node1 -->
<g id="node1" class="node"><title>Node1</title>
<polygon fill="#bfbfbf" stroke="black" points="133.5,-1 133.5,-91 222.5,-91 222.5,-1 133.5,-1"/>
<text text-anchor="middle" x="178" y="-79" font-family="Helvetica,sans-Serif" font-size="10.00">GraphicsLine</text>
<polyline fill="none" stroke="black" points="133.5,-72 222.5,-72 "/>
<text text-anchor="middle" x="178" y="-60" font-family="Helvetica,sans-Serif" font-size="10.00"> </text>
<polyline fill="none" stroke="black" points="133.5,-53 222.5,-53 "/>
<text text-anchor="start" x="141.5" y="-41" font-family="Helvetica,sans-Serif" font-size="10.00">+ GraphicsLine()</text>
<text text-anchor="start" x="141.5" y="-30" font-family="Helvetica,sans-Serif" font-size="10.00">+ first()</text>
<text text-anchor="start" x="141.5" y="-19" font-family="Helvetica,sans-Serif" font-size="10.00">+ second()</text>
<text text-anchor="start" x="141.5" y="-8" font-family="Helvetica,sans-Serif" font-size="10.00">+ type()</text>
</g>
<!-- Node2 -->
<g id="node2" class="node"><title>Node2</title>
<g id="a_node2"><a xlink:href="class_graphics_shape.html" target="_top" xlink:title="{GraphicsShape\n|# m_points\l|+ GraphicsShape()\l+ type()\l# meDraw()\l}">
<polygon fill="white" stroke="black" points="129,-130.5 129,-209.5 227,-209.5 227,-130.5 129,-130.5"/>
<text text-anchor="middle" x="178" y="-197.5" font-family="Helvetica,sans-Serif" font-size="10.00">GraphicsShape</text>
<polyline fill="none" stroke="black" points="129,-190.5 227,-190.5 "/>
<text text-anchor="start" x="137" y="-178.5" font-family="Helvetica,sans-Serif" font-size="10.00"># m_points</text>
<polyline fill="none" stroke="black" points="129,-171.5 227,-171.5 "/>
<text text-anchor="start" x="137" y="-159.5" font-family="Helvetica,sans-Serif" font-size="10.00">+ GraphicsShape()</text>
<text text-anchor="start" x="137" y="-148.5" font-family="Helvetica,sans-Serif" font-size="10.00">+ type()</text>
<text text-anchor="start" x="137" y="-137.5" font-family="Helvetica,sans-Serif" font-size="10.00"># meDraw()</text>
</a>
</g>
</g>
<!-- Node2&#45;&gt;Node1 -->
<g id="edge1" class="edge"><title>Node2&#45;&gt;Node1</title>
<path fill="none" stroke="midnightblue" d="M178,-120.239C178,-110.681 178,-100.706 178,-91.3036"/>
<polygon fill="none" stroke="midnightblue" points="174.5,-120.398 178,-130.398 181.5,-120.398 174.5,-120.398"/>
</g>
<!-- Node3 -->
<g id="node3" class="node"><title>Node3</title>
<g id="a_node3"><a xlink:href="class_graphics_item.html" target="_top" xlink:title="{GraphicsItem\n|&#45; m_children\l&#45; m_z\l&#45; m_thick\l&#45; m_isFill\l&#45; m_isVisible\l|+ GraphicsItem()\l+ ~GraphicsItem()\l+ parent()\l+ setParent()\l+ type()\l+ children()\l+ relative()\l+ relative()\l+ absolute()\l+ setRelative()\let 16 de plus...\l+ focusItem()\l+ setFocusItem()\l# meDraw()\l# meUpdate()\l# meHandleEvent()\l# meIsOver()\l}">
<polygon fill="white" stroke="black" points="127.5,-248.5 127.5,-525.5 228.5,-525.5 228.5,-248.5 127.5,-248.5"/>
<text text-anchor="middle" x="178" y="-513.5" font-family="Helvetica,sans-Serif" font-size="10.00">GraphicsItem</text>
<polyline fill="none" stroke="black" points="127.5,-506.5 228.5,-506.5 "/>
<text text-anchor="start" x="135.5" y="-494.5" font-family="Helvetica,sans-Serif" font-size="10.00">&#45; m_children</text>
<text text-anchor="start" x="135.5" y="-483.5" font-family="Helvetica,sans-Serif" font-size="10.00">&#45; m_z</text>
<text text-anchor="start" x="135.5" y="-472.5" font-family="Helvetica,sans-Serif" font-size="10.00">&#45; m_thick</text>
<text text-anchor="start" x="135.5" y="-461.5" font-family="Helvetica,sans-Serif" font-size="10.00">&#45; m_isFill</text>
<text text-anchor="start" x="135.5" y="-450.5" font-family="Helvetica,sans-Serif" font-size="10.00">&#45; m_isVisible</text>
<polyline fill="none" stroke="black" points="127.5,-443.5 228.5,-443.5 "/>
<text text-anchor="start" x="135.5" y="-431.5" font-family="Helvetica,sans-Serif" font-size="10.00">+ GraphicsItem()</text>
<text text-anchor="start" x="135.5" y="-420.5" font-family="Helvetica,sans-Serif" font-size="10.00">+ ~GraphicsItem()</text>
<text text-anchor="start" x="135.5" y="-409.5" font-family="Helvetica,sans-Serif" font-size="10.00">+ parent()</text>
<text text-anchor="start" x="135.5" y="-398.5" font-family="Helvetica,sans-Serif" font-size="10.00">+ setParent()</text>
<text text-anchor="start" x="135.5" y="-387.5" font-family="Helvetica,sans-Serif" font-size="10.00">+ type()</text>
<text text-anchor="start" x="135.5" y="-376.5" font-family="Helvetica,sans-Serif" font-size="10.00">+ children()</text>
<text text-anchor="start" x="135.5" y="-365.5" font-family="Helvetica,sans-Serif" font-size="10.00">+ relative()</text>
<text text-anchor="start" x="135.5" y="-354.5" font-family="Helvetica,sans-Serif" font-size="10.00">+ relative()</text>
<text text-anchor="start" x="135.5" y="-343.5" font-family="Helvetica,sans-Serif" font-size="10.00">+ absolute()</text>
<text text-anchor="start" x="135.5" y="-332.5" font-family="Helvetica,sans-Serif" font-size="10.00">+ setRelative()</text>
<text text-anchor="start" x="135.5" y="-321.5" font-family="Helvetica,sans-Serif" font-size="10.00">et 16 de plus...</text>
<text text-anchor="start" x="135.5" y="-310.5" font-family="Helvetica,sans-Serif" font-size="10.00">+ focusItem()</text>
<text text-anchor="start" x="135.5" y="-299.5" font-family="Helvetica,sans-Serif" font-size="10.00">+ setFocusItem()</text>
<text text-anchor="start" x="135.5" y="-288.5" font-family="Helvetica,sans-Serif" font-size="10.00"># meDraw()</text>
<text text-anchor="start" x="135.5" y="-277.5" font-family="Helvetica,sans-Serif" font-size="10.00"># meUpdate()</text>
<text text-anchor="start" x="135.5" y="-266.5" font-family="Helvetica,sans-Serif" font-size="10.00"># meHandleEvent()</text>
<text text-anchor="start" x="135.5" y="-255.5" font-family="Helvetica,sans-Serif" font-size="10.00"># meIsOver()</text>
</a>
</g>
</g>
<!-- Node3&#45;&gt;Node2 -->
<g id="edge2" class="edge"><title>Node3&#45;&gt;Node2</title>
<path fill="none" stroke="midnightblue" d="M178,-238.011C178,-227.877 178,-218.305 178,-209.737"/>
<polygon fill="none" stroke="midnightblue" points="174.5,-238.316 178,-248.316 181.5,-238.316 174.5,-238.316"/>
</g>
<!-- Node3&#45;&gt;Node3 -->
<g id="edge3" class="edge"><title>Node3&#45;&gt;Node3</title>
<path fill="none" stroke="#404040" d="M228.711,-415.403C238.803,-412.206 246,-402.738 246,-387 246,-377.409 243.328,-370.148 238.956,-365.214"/>
<polygon fill="none" stroke="#404040" points="238.791,-365.108 231.581,-365.213 228.711,-358.597 235.921,-358.492 238.791,-365.108"/>
<text text-anchor="middle" x="278" y="-390" font-family="Helvetica,sans-Serif" font-size="10.00"> &#45;m_focusItem</text>
<text text-anchor="middle" x="278" y="-379" font-family="Helvetica,sans-Serif" font-size="10.00">&#45;m_parent</text>
</g>
<!-- Node4 -->
<g id="node4" class="node"><title>Node4</title>
<g id="a_node4"><a xlink:href="class_point.html" target="_top" xlink:title="Représente un point (x, y) ">
<polygon fill="white" stroke="black" points="-0.5,-584.5 -0.5,-817.5 114.5,-817.5 114.5,-584.5 -0.5,-584.5"/>
<text text-anchor="middle" x="57" y="-805.5" font-family="Helvetica,sans-Serif" font-size="10.00">Point</text>
<polyline fill="none" stroke="black" points="-0.5,-798.5 114.5,-798.5 "/>
<text text-anchor="start" x="7.5" y="-786.5" font-family="Helvetica,sans-Serif" font-size="10.00">&#45; m_x</text>
<text text-anchor="start" x="7.5" y="-775.5" font-family="Helvetica,sans-Serif" font-size="10.00">&#45; m_y</text>
<text text-anchor="start" x="7.5" y="-764.5" font-family="Helvetica,sans-Serif" font-size="10.00">&#45; m_groupId</text>
<text text-anchor="start" x="7.5" y="-753.5" font-family="Helvetica,sans-Serif" font-size="10.00">&#45; m_joinType</text>
<text text-anchor="start" x="7.5" y="-742.5" font-family="Helvetica,sans-Serif" font-size="10.00">&#45; m_correctorsFixed</text>
<text text-anchor="start" x="7.5" y="-731.5" font-family="Helvetica,sans-Serif" font-size="10.00">&#45; m_correctorsVariable</text>
<text text-anchor="start" x="7.5" y="-720.5" font-family="Helvetica,sans-Serif" font-size="10.00">&#45; m_groups</text>
<polyline fill="none" stroke="black" points="-0.5,-713.5 114.5,-713.5 "/>
<text text-anchor="start" x="7.5" y="-701.5" font-family="Helvetica,sans-Serif" font-size="10.00">+ Point()</text>
<text text-anchor="start" x="7.5" y="-690.5" font-family="Helvetica,sans-Serif" font-size="10.00">+ Point()</text>
<text text-anchor="start" x="7.5" y="-679.5" font-family="Helvetica,sans-Serif" font-size="10.00">+ Point()</text>
<text text-anchor="start" x="7.5" y="-668.5" font-family="Helvetica,sans-Serif" font-size="10.00">+ Point()</text>
<text text-anchor="start" x="7.5" y="-657.5" font-family="Helvetica,sans-Serif" font-size="10.00">+ ~Point()</text>
<text text-anchor="start" x="7.5" y="-646.5" font-family="Helvetica,sans-Serif" font-size="10.00">+ operator=()</text>
<text text-anchor="start" x="7.5" y="-635.5" font-family="Helvetica,sans-Serif" font-size="10.00">+ setParent()</text>
<text text-anchor="start" x="7.5" y="-624.5" font-family="Helvetica,sans-Serif" font-size="10.00">+ absolute()</text>
<text text-anchor="start" x="7.5" y="-613.5" font-family="Helvetica,sans-Serif" font-size="10.00">+ setAbsolute()</text>
<text text-anchor="start" x="7.5" y="-602.5" font-family="Helvetica,sans-Serif" font-size="10.00">+ setAbsolute()</text>
<text text-anchor="start" x="7.5" y="-591.5" font-family="Helvetica,sans-Serif" font-size="10.00">et 10 de plus...</text>
</a>
</g>
</g>
<!-- Node4&#45;&gt;Node3 -->
<g id="edge4" class="edge"><title>Node4&#45;&gt;Node3</title>
<path fill="none" stroke="#404040" d="M96.0267,-584.224C100.925,-570.612 105.981,-556.962 111,-544 114.751,-534.314 118.738,-524.339 122.827,-514.338"/>
<polygon fill="none" stroke="#404040" points="122.906,-514.144 121.494,-507.073 127.478,-503.049 128.89,-510.12 122.906,-514.144"/>
<text text-anchor="middle" x="157" y="-558" font-family="Helvetica,sans-Serif" font-size="10.00"> &#45;m_positionAbsolute</text>
<text text-anchor="middle" x="157" y="-547" font-family="Helvetica,sans-Serif" font-size="10.00">&#45;m_position</text>
</g>
<!-- Node4&#45;&gt;Node4 -->
<g id="edge5" class="edge"><title>Node4&#45;&gt;Node4</title>
<path fill="none" stroke="#404040" d="M114.544,-726.769C124.822,-723.42 132,-714.83 132,-701 132,-692.572 129.334,-686.091 124.926,-681.555"/>
<polygon fill="none" stroke="#404040" points="124.793,-681.473 117.588,-681.768 114.544,-675.231 121.75,-674.936 124.793,-681.473"/>
<text text-anchor="middle" x="155.5" y="-698.5" font-family="Helvetica,sans-Serif" font-size="10.00"> &#45;m_parent</text>
</g>
<!-- Node5 -->
<g id="node5" class="node"><title>Node5</title>
<g id="a_node5"><a xlink:href="class_color.html" target="_top" xlink:title="Permet la gestion des coulours des différentes *entitées. ">
<polygon fill="white" stroke="black" points="197.5,-617.5 197.5,-784.5 274.5,-784.5 274.5,-617.5 197.5,-617.5"/>
<text text-anchor="middle" x="236" y="-772.5" font-family="Helvetica,sans-Serif" font-size="10.00">Color</text>
<polyline fill="none" stroke="black" points="197.5,-765.5 274.5,-765.5 "/>
<text text-anchor="start" x="205.5" y="-753.5" font-family="Helvetica,sans-Serif" font-size="10.00">&#45; m_color</text>
<polyline fill="none" stroke="black" points="197.5,-746.5 274.5,-746.5 "/>
<text text-anchor="start" x="205.5" y="-734.5" font-family="Helvetica,sans-Serif" font-size="10.00">+ Color()</text>
<text text-anchor="start" x="205.5" y="-723.5" font-family="Helvetica,sans-Serif" font-size="10.00">+ Color()</text>
<text text-anchor="start" x="205.5" y="-712.5" font-family="Helvetica,sans-Serif" font-size="10.00">+ Color()</text>
<text text-anchor="start" x="205.5" y="-701.5" font-family="Helvetica,sans-Serif" font-size="10.00">+ Color()</text>
<text text-anchor="start" x="205.5" y="-690.5" font-family="Helvetica,sans-Serif" font-size="10.00">+ red()</text>
<text text-anchor="start" x="205.5" y="-679.5" font-family="Helvetica,sans-Serif" font-size="10.00">+ setRed()</text>
<text text-anchor="start" x="205.5" y="-668.5" font-family="Helvetica,sans-Serif" font-size="10.00">+ green()</text>
<text text-anchor="start" x="205.5" y="-657.5" font-family="Helvetica,sans-Serif" font-size="10.00">+ setGreen()</text>
<text text-anchor="start" x="205.5" y="-646.5" font-family="Helvetica,sans-Serif" font-size="10.00">+ blue()</text>
<text text-anchor="start" x="205.5" y="-635.5" font-family="Helvetica,sans-Serif" font-size="10.00">+ setBlue()</text>
<text text-anchor="start" x="205.5" y="-624.5" font-family="Helvetica,sans-Serif" font-size="10.00">et 9 de plus...</text>
</a>
</g>
</g>
<!-- Node5&#45;&gt;Node3 -->
<g id="edge6" class="edge"><title>Node5&#45;&gt;Node3</title>
<path fill="none" stroke="#404040" d="M220.609,-617.209C216.063,-592.755 210.941,-565.197 205.864,-537.89"/>
<polygon fill="none" stroke="#404040" points="205.809,-537.592 200.78,-532.424 203.616,-525.794 208.645,-530.962 205.809,-537.592"/>
<text text-anchor="middle" x="230.5" y="-552.5" font-family="Helvetica,sans-Serif" font-size="10.00"> &#45;m_color</text>
</g>
</g>
</svg>
        <g id="navigator" transform="translate(0 0)" fill="#404254">
                <rect fill="#f2f5e9" fill-opacity="0.5" stroke="#606060" stroke-width=".5" x="0" y="0" width="60" height="60"/>
                <use id="zoomplus" xlink:href="#zoomPlus" x="17" y="9" onmousedown="handleZoom(evt,'in')"/>
                <use id="zoomminus" xlink:href="#zoomMin" x="42" y="9" onmousedown="handleZoom(evt,'out')"/>
                <use id="reset" xlink:href="#resetDef" x="30" y="36" onmousedown="handleReset()"/>
                <g id="arrowUp" xlink:href="#dirArrow" transform="translate(30 24)" onmousedown="handlePan(0,-1)">
                  <use xlink:href="#rim" fill="#404040">
                        <set attributeName="fill" to="#808080" begin="arrowUp.mouseover" end="arrowUp.mouseout"/>
                  </use>
                  <path fill="none" stroke="white" stroke-width="1.5" d="M0,-3.0v7 M-2.5,-0.5L0,-3.0L2.5,-0.5"/>
                </g>
                <g id="arrowRight" xlink:href="#dirArrow" transform="rotate(90) translate(36 -43)" onmousedown="handlePan(1,0)">
                  <use xlink:href="#rim" fill="#404040">
                        <set attributeName="fill" to="#808080" begin="arrowRight.mouseover" end="arrowRight.mouseout"/>
                  </use>
                  <path fill="none" stroke="white" stroke-width="1.5" d="M0,-3.0v7 M-2.5,-0.5L0,-3.0L2.5,-0.5"/>
                </g>
                <g id="arrowDown" xlink:href="#dirArrow" transform="rotate(180) translate(-30 -48)" onmousedown="handlePan(0,1)">
                  <use xlink:href="#rim" fill="#404040">
                        <set attributeName="fill" to="#808080" begin="arrowDown.mouseover" end="arrowDown.mouseout"/>
                  </use>
                  <path fill="none" stroke="white" stroke-width="1.5" d="M0,-3.0v7 M-2.5,-0.5L0,-3.0L2.5,-0.5"/>
                </g>
                <g id="arrowLeft" xlink:href="#dirArrow" transform="rotate(270) translate(-36 17)" onmousedown="handlePan(-1,0)">
                  <use xlink:href="#rim" fill="#404040">
                        <set attributeName="fill" to="#808080" begin="arrowLeft.mouseover" end="arrowLeft.mouseout"/>
                  </use>
                  <path fill="none" stroke="white" stroke-width="1.5" d="M0,-3.0v7 M-2.5,-0.5L0,-3.0L2.5,-0.5"/>
                </g>
        </g>
        <svg viewBox="0 0 15 15" width="100%" height="30px" preserveAspectRatio="xMaxYMin meet">
         <g id="arrow_out" transform="scale(0.3 0.3)">
          <a xlink:href="class_graphics_line__coll__graph_org.svg" target="_base">
           <rect id="button" ry="5" rx="5" y="6" x="6" height="38" width="38"
                fill="#f2f5e9" fill-opacity="0.5" stroke="#606060" stroke-width="1.0"/>
           <path id="arrow"
             d="M 11.500037,31.436501 C 11.940474,20.09759 22.043105,11.32322 32.158766,21.979434 L 37.068811,17.246167 C 37.068811,17.246167 37.088388,32 37.088388,32 L 22.160133,31.978069 C 22.160133,31.978069 26.997745,27.140456 26.997745,27.140456 C 18.528582,18.264221 13.291696,25.230495 11.500037,31.436501 z"
             style="fill:#404040;"/>
          </a>
         </g>
        </svg>
</svg>
