<?xml version="1.0" encoding="UTF-8" standalone="no"?>
<!DOCTYPE svg PUBLIC "-//W3C//DTD SVG 1.1//EN"
 "http://www.w3.org/Graphics/SVG/1.1/DTD/svg11.dtd">
<!-- Generated by graphviz version 2.36.0 (20140111.2315)
 -->
<!-- Title: GraphicsRectangle Pages: 1 -->
<svg width="235pt" height="586pt"
 viewBox="0.00 0.00 235.00 586.00" xmlns="http://www.w3.org/2000/svg" xmlns:xlink="http://www.w3.org/1999/xlink">
<g id="graph0" class="graph" transform="scale(1 1) rotate(0) translate(4 582)">
<title>GraphicsRectangle</title>
<polygon fill="white" stroke="none" points="-4,4 -4,-582 231,-582 231,4 -4,4"/>
<!-- Node1 -->
<g id="node1" class="node"><title>Node1</title>
<polygon fill="#bfbfbf" stroke="black" points="72.5,-0.5 72.5,-189.5 187.5,-189.5 187.5,-0.5 72.5,-0.5"/>
<text text-anchor="middle" x="130" y="-177.5" font-family="Helvetica,sans-Serif" font-size="10.00">GraphicsRectangle</text>
<polyline fill="none" stroke="black" points="72.5,-170.5 187.5,-170.5 "/>
<text text-anchor="middle" x="130" y="-158.5" font-family="Helvetica,sans-Serif" font-size="10.00"> </text>
<polyline fill="none" stroke="black" points="72.5,-151.5 187.5,-151.5 "/>
<text text-anchor="start" x="80.5" y="-139.5" font-family="Helvetica,sans-Serif" font-size="10.00">+ GraphicsRectangle()</text>
<text text-anchor="start" x="80.5" y="-128.5" font-family="Helvetica,sans-Serif" font-size="10.00">+ GraphicsRectangle()</text>
<text text-anchor="start" x="80.5" y="-117.5" font-family="Helvetica,sans-Serif" font-size="10.00">+ GraphicsRectangle()</text>
<text text-anchor="start" x="80.5" y="-106.5" font-family="Helvetica,sans-Serif" font-size="10.00">+ topLeft()</text>
<text text-anchor="start" x="80.5" y="-95.5" font-family="Helvetica,sans-Serif" font-size="10.00">+ topLeft()</text>
<text text-anchor="start" x="80.5" y="-84.5" font-family="Helvetica,sans-Serif" font-size="10.00">+ bottomRight()</text>
<text text-anchor="start" x="80.5" y="-73.5" font-family="Helvetica,sans-Serif" font-size="10.00">+ bottomRight()</text>
<text text-anchor="start" x="80.5" y="-62.5" font-family="Helvetica,sans-Serif" font-size="10.00">+ width()</text>
<text text-anchor="start" x="80.5" y="-51.5" font-family="Helvetica,sans-Serif" font-size="10.00">+ setWidth()</text>
<text text-anchor="start" x="80.5" y="-40.5" font-family="Helvetica,sans-Serif" font-size="10.00">+ height()</text>
<text text-anchor="start" x="80.5" y="-29.5" font-family="Helvetica,sans-Serif" font-size="10.00">+ setHeight()</text>
<text text-anchor="start" x="80.5" y="-18.5" font-family="Helvetica,sans-Serif" font-size="10.00"># meDraw()</text>
<text text-anchor="start" x="80.5" y="-7.5" font-family="Helvetica,sans-Serif" font-size="10.00"># meIsOver()</text>
</g>
<!-- Node2 -->
<g id="node2" class="node"><title>Node2</title>
<g id="a_node2"><a xlink:href="class_graphics_item.html" target="_top" xlink:title="Classe de baseLa classe GraphicsItem est la base de tout les éléments graphiques. ...">
<polygon fill="white" stroke="black" points="79.5,-227 79.5,-471 180.5,-471 180.5,-227 79.5,-227"/>
<text text-anchor="middle" x="130" y="-459" font-family="Helvetica,sans-Serif" font-size="10.00">GraphicsItem</text>
<polyline fill="none" stroke="black" points="79.5,-452 180.5,-452 "/>
<text text-anchor="middle" x="130" y="-440" font-family="Helvetica,sans-Serif" font-size="10.00"> </text>
<polyline fill="none" stroke="black" points="79.5,-433 180.5,-433 "/>
<text text-anchor="start" x="87.5" y="-421" font-family="Helvetica,sans-Serif" font-size="10.00">+ GraphicsItem()</text>
<text text-anchor="start" x="87.5" y="-410" font-family="Helvetica,sans-Serif" font-size="10.00">+ GraphicsItem()</text>
<text text-anchor="start" x="87.5" y="-399" font-family="Helvetica,sans-Serif" font-size="10.00">+ GraphicsItem()</text>
<text text-anchor="start" x="87.5" y="-388" font-family="Helvetica,sans-Serif" font-size="10.00">+ ~GraphicsItem()</text>
<text text-anchor="start" x="87.5" y="-377" font-family="Helvetica,sans-Serif" font-size="10.00">+ id()</text>
<text text-anchor="start" x="87.5" y="-366" font-family="Helvetica,sans-Serif" font-size="10.00">+ parentId()</text>
<text text-anchor="start" x="87.5" y="-355" font-family="Helvetica,sans-Serif" font-size="10.00">+ parent()</text>
<text text-anchor="start" x="87.5" y="-344" font-family="Helvetica,sans-Serif" font-size="10.00">+ setParent()</text>
<text text-anchor="start" x="87.5" y="-333" font-family="Helvetica,sans-Serif" font-size="10.00">+ setParent()</text>
<text text-anchor="start" x="87.5" y="-322" font-family="Helvetica,sans-Serif" font-size="10.00">+ setParent()</text>
<text text-anchor="start" x="87.5" y="-311" font-family="Helvetica,sans-Serif" font-size="10.00">et 22 de plus...</text>
<text text-anchor="start" x="87.5" y="-300" font-family="Helvetica,sans-Serif" font-size="10.00">+ focusItem()</text>
<text text-anchor="start" x="87.5" y="-289" font-family="Helvetica,sans-Serif" font-size="10.00">+ setFocusItem()</text>
<text text-anchor="start" x="87.5" y="-278" font-family="Helvetica,sans-Serif" font-size="10.00">+ make()</text>
<text text-anchor="start" x="87.5" y="-267" font-family="Helvetica,sans-Serif" font-size="10.00"># meDraw()</text>
<text text-anchor="start" x="87.5" y="-256" font-family="Helvetica,sans-Serif" font-size="10.00"># meUpdate()</text>
<text text-anchor="start" x="87.5" y="-245" font-family="Helvetica,sans-Serif" font-size="10.00"># meHandleEvent()</text>
<text text-anchor="start" x="87.5" y="-234" font-family="Helvetica,sans-Serif" font-size="10.00"># meIsOver()</text>
</a>
</g>
</g>
<!-- Node2&#45;&gt;Node1 -->
<g id="edge1" class="edge"><title>Node2&#45;&gt;Node1</title>
<path fill="none" stroke="midnightblue" d="M130,-216.554C130,-207.486 130,-198.456 130,-189.652"/>
<polygon fill="none" stroke="midnightblue" points="126.5,-216.798 130,-226.798 133.5,-216.798 126.5,-216.798"/>
</g>
<!-- Node3 -->
<g id="node3" class="node"><title>Node3</title>
<polygon fill="white" stroke="#bfbfbf" points="-0.5,-509 -0.5,-577 138.5,-577 138.5,-509 -0.5,-509"/>
<text text-anchor="start" x="7.5" y="-565" font-family="Helvetica,sans-Serif" font-size="10.00">std::enable_shared</text>
<text text-anchor="middle" x="69" y="-554" font-family="Helvetica,sans-Serif" font-size="10.00">_from_this&lt; GraphicsItem &gt;</text>
<polyline fill="none" stroke="#bfbfbf" points="-0.5,-547 138.5,-547 "/>
<text text-anchor="middle" x="69" y="-535" font-family="Helvetica,sans-Serif" font-size="10.00"> </text>
<polyline fill="none" stroke="#bfbfbf" points="-0.5,-528 138.5,-528 "/>
<text text-anchor="middle" x="69" y="-516" font-family="Helvetica,sans-Serif" font-size="10.00"> </text>
</g>
<!-- Node3&#45;&gt;Node2 -->
<g id="edge2" class="edge"><title>Node3&#45;&gt;Node2</title>
<path fill="none" stroke="midnightblue" d="M82.588,-499.231C85.343,-490.56 88.3672,-481.041 91.5134,-471.138"/>
<polygon fill="none" stroke="midnightblue" points="79.1786,-498.404 79.4863,-508.994 85.85,-500.523 79.1786,-498.404"/>
</g>
<!-- Node4 -->
<g id="node4" class="node"><title>Node4</title>
<polygon fill="white" stroke="#bfbfbf" points="156.5,-514.5 156.5,-571.5 227.5,-571.5 227.5,-514.5 156.5,-514.5"/>
<text text-anchor="middle" x="192" y="-559.5" font-family="Helvetica,sans-Serif" font-size="10.00">noncopyable</text>
<polyline fill="none" stroke="#bfbfbf" points="156.5,-552.5 227.5,-552.5 "/>
<text text-anchor="middle" x="192" y="-540.5" font-family="Helvetica,sans-Serif" font-size="10.00"> </text>
<polyline fill="none" stroke="#bfbfbf" points="156.5,-533.5 227.5,-533.5 "/>
<text text-anchor="middle" x="192" y="-521.5" font-family="Helvetica,sans-Serif" font-size="10.00"> </text>
</g>
<!-- Node4&#45;&gt;Node2 -->
<g id="edge3" class="edge"><title>Node4&#45;&gt;Node2</title>
<path fill="none" stroke="#8b1a1a" d="M180.033,-504.94C176.787,-494.889 173.087,-483.431 169.202,-471.401"/>
<polygon fill="none" stroke="#8b1a1a" points="176.713,-506.05 183.117,-514.491 183.375,-503.899 176.713,-506.05"/>
</g>
</g>
</svg>
