<?xml version="1.0" encoding="UTF-8" standalone="no"?>
<!DOCTYPE svg PUBLIC "-//W3C//DTD SVG 1.1//EN"
 "http://www.w3.org/Graphics/SVG/1.1/DTD/svg11.dtd">
<!-- Generated by graphviz version 2.36.0 (20140111.2315)
 -->
<!-- Title: MainWindow::handleEvent Pages: 1 -->
<svg width="502pt" height="66pt"
 viewBox="0.00 0.00 502.00 66.00" xmlns="http://www.w3.org/2000/svg" xmlns:xlink="http://www.w3.org/1999/xlink">
<g id="graph0" class="graph" transform="scale(1 1) rotate(0) translate(4 62)">
<title>MainWindow::handleEvent</title>
<polygon fill="white" stroke="none" points="-4,4 -4,-62 498,-62 498,4 -4,4"/>
<!-- Node1 -->
<g id="node1" class="node"><title>Node1</title>
<polygon fill="#bfbfbf" stroke="black" points="0.5,-19.5 0.5,-38.5 133.5,-38.5 133.5,-19.5 0.5,-19.5"/>
<text text-anchor="middle" x="67" y="-26.5" font-family="Helvetica,sans-Serif" font-size="10.00">MainWindow::handleEvent</text>
</g>
<!-- Node2 -->
<g id="node2" class="node"><title>Node2</title>
<g id="a_node2"><a xlink:href="class_graphics_item.html#ad6c62fa07246bc1d7b9eae6340a246e2" target="_top" xlink:title="GraphicsItem::handleEvent">
<polygon fill="white" stroke="black" points="170.5,-38.5 170.5,-57.5 305.5,-57.5 305.5,-38.5 170.5,-38.5"/>
<text text-anchor="middle" x="238" y="-45.5" font-family="Helvetica,sans-Serif" font-size="10.00">GraphicsItem::handleEvent</text>
</a>
</g>
</g>
<!-- Node1&#45;&gt;Node2 -->
<g id="edge1" class="edge"><title>Node1&#45;&gt;Node2</title>
<path fill="none" stroke="midnightblue" d="M133.824,-36.4003C142.417,-37.3664 151.281,-38.363 160.037,-39.3474"/>
<polygon fill="midnightblue" stroke="midnightblue" points="159.914,-42.8555 170.243,-40.4947 160.696,-35.8993 159.914,-42.8555"/>
</g>
<!-- Node4 -->
<g id="node4" class="node"><title>Node4</title>
<g id="a_node4"><a xlink:href="class_window.html#a63a8cd07ce1d0769adc248651ade56d7" target="_top" xlink:title="Window::drawRequest">
<polygon fill="white" stroke="black" points="180,-0.5 180,-19.5 296,-19.5 296,-0.5 180,-0.5"/>
<text text-anchor="middle" x="238" y="-7.5" font-family="Helvetica,sans-Serif" font-size="10.00">Window::drawRequest</text>
</a>
</g>
</g>
<!-- Node1&#45;&gt;Node4 -->
<g id="edge3" class="edge"><title>Node1&#45;&gt;Node4</title>
<path fill="none" stroke="midnightblue" d="M133.824,-21.5997C145.58,-20.278 157.843,-18.8993 169.641,-17.5729"/>
<polygon fill="midnightblue" stroke="midnightblue" points="170.319,-21.0188 179.865,-16.4234 169.537,-14.0626 170.319,-21.0188"/>
</g>
<!-- Node3 -->
<g id="node3" class="node"><title>Node3</title>
<g id="a_node3"><a xlink:href="class_graphics_item.html#ad6009d75c16ccc9559a4b2ffad69045c" target="_top" xlink:title="GraphicsItem::meHandleEvent">
<polygon fill="white" stroke="black" points="342.5,-38.5 342.5,-57.5 493.5,-57.5 493.5,-38.5 342.5,-38.5"/>
<text text-anchor="middle" x="418" y="-45.5" font-family="Helvetica,sans-Serif" font-size="10.00">GraphicsItem::meHandleEvent</text>
</a>
</g>
</g>
<!-- Node2&#45;&gt;Node3 -->
<g id="edge2" class="edge"><title>Node2&#45;&gt;Node3</title>
<path fill="none" stroke="midnightblue" d="M305.534,-48C314.287,-48 323.35,-48 332.354,-48"/>
<polygon fill="midnightblue" stroke="midnightblue" points="332.474,-51.5001 342.474,-48 332.474,-44.5001 332.474,-51.5001"/>
</g>
</g>
</svg>
