<?xml version="1.0" encoding="UTF-8" standalone="no"?>
<!DOCTYPE svg PUBLIC "-//W3C//DTD SVG 1.1//EN"
 "http://www.w3.org/Graphics/SVG/1.1/DTD/svg11.dtd">
<!-- Generated by graphviz version 2.36.0 (20140111.2315)
 -->
<!-- Title: Point::y Pages: 1 -->
<!--zoomable 545 -->
<svg id="main" version="1.1" xmlns="http://www.w3.org/2000/svg" xmlns:xlink="http://www.w3.org/1999/xlink" xml:space="preserve" onload="init(evt)">
<style type="text/css"><![CDATA[
.edge:hover path { stroke: red; }
.edge:hover polygon { stroke: red; fill: red; }
]]></style>
<script type="text/javascript"><![CDATA[
var edges = document.getElementsByTagName('g');
if (edges && edges.length) {
  for (var i=0;i<edges.length;i++) {
    if (edges[i].id.substr(0,4)=='edge') {
      edges[i].setAttribute('class','edge');
    }
  }
}
]]></script>
        <defs>
                <circle id="rim" cx="0" cy="0" r="7"/>
                <circle id="rim2" cx="0" cy="0" r="3.5"/>
                <g id="zoomPlus">
                        <use xlink:href="#rim" fill="#404040">
                                <set attributeName="fill" to="#808080" begin="zoomplus.mouseover" end="zoomplus.mouseout"/>
                        </use>
                        <path d="M-4,0h8M0,-4v8" fill="none" stroke="white" stroke-width="1.5" pointer-events="none"/>
                </g>
                <g id="zoomMin">
                        <use xlink:href="#rim" fill="#404040">
                                <set attributeName="fill" to="#808080" begin="zoomminus.mouseover" end="zoomminus.mouseout"/>
                        </use>
                        <path d="M-4,0h8" fill="none" stroke="white" stroke-width="1.5" pointer-events="none"/>
                </g>
                <g id="dirArrow">
                        <path fill="none" stroke="white" stroke-width="1.5" d="M0,-3.0v7 M-2.5,-0.5L0,-3.0L2.5,-0.5"/>
                </g>
               <g id="resetDef">
                       <use xlink:href="#rim2" fill="#404040">
                               <set attributeName="fill" to="#808080" begin="reset.mouseover" end="reset.mouseout"/>
                       </use>
               </g>
        </defs>

<script type="text/javascript">
var viewWidth = 226;
var viewHeight = 545;
var sectionId = 'dynsection-22';
</script>
<script xlink:href="svgpan.js"/>
<svg id="graph" class="graph">
<g id="viewport">
<title>Point::y</title>
<polygon fill="white" stroke="none" points="-4,4 -4,-541 222,-541 222,4 -4,4"/>
<!-- Node1 -->
<g id="node1" class="node"><title>Node1</title>
<polygon fill="#bfbfbf" stroke="black" points="0,-267.5 0,-286.5 50,-286.5 50,-267.5 0,-267.5"/>
<text text-anchor="middle" x="25" y="-274.5" font-family="Helvetica,sans-Serif" font-size="10.00">Point::y</text>
</g>
<!-- Node2 -->
<g id="node2" class="node"><title>Node2</title>
<g id="a_node2"><a xlink:href="class_canvas.html#a4830e2b1c25e309489c489bad59ea9e1" target="_top" xlink:title="Canvas::drawPoint">
<polygon fill="white" stroke="black" points="102,-517.5 102,-536.5 202,-536.5 202,-517.5 102,-517.5"/>
<text text-anchor="middle" x="152" y="-524.5" font-family="Helvetica,sans-Serif" font-size="10.00">Canvas::drawPoint</text>
</a>
</g>
</g>
<!-- Node1&#45;&gt;Node2 -->
<g id="edge1" class="edge"><title>Node1&#45;&gt;Node2</title>
<path fill="none" stroke="midnightblue" d="M28.6231,-296.859C35.6423,-347.101 56.3553,-477.444 86,-508 90.4208,-512.557 95.8687,-516.036 101.714,-518.691"/>
<polygon fill="midnightblue" stroke="midnightblue" points="32.0518,-296.097 27.2344,-286.661 25.1158,-297.042 32.0518,-296.097"/>
</g>
<!-- Node3 -->
<g id="node3" class="node"><title>Node3</title>
<g id="a_node3"><a xlink:href="class_canvas.html#aa379d9765fc40e770309001da99832c3" target="_top" xlink:title="Canvas::drawLine">
<polygon fill="white" stroke="black" points="104.5,-479.5 104.5,-498.5 199.5,-498.5 199.5,-479.5 104.5,-479.5"/>
<text text-anchor="middle" x="152" y="-486.5" font-family="Helvetica,sans-Serif" font-size="10.00">Canvas::drawLine</text>
</a>
</g>
</g>
<!-- Node1&#45;&gt;Node3 -->
<g id="edge2" class="edge"><title>Node1&#45;&gt;Node3</title>
<path fill="none" stroke="midnightblue" d="M26.3132,-297.118C28.0366,-336.104 37.4733,-422.293 86,-470 91.1142,-475.028 97.4817,-478.738 104.215,-481.474"/>
<polygon fill="midnightblue" stroke="midnightblue" points="29.7965,-296.517 25.9912,-286.629 22.7997,-296.732 29.7965,-296.517"/>
</g>
<!-- Node4 -->
<g id="node4" class="node"><title>Node4</title>
<g id="a_node4"><a xlink:href="class_canvas.html#a347a381b7cd7381a84f49a8bdd77244c" target="_top" xlink:title="Canvas::drawRectangle">
<polygon fill="white" stroke="black" points="91,-441.5 91,-460.5 213,-460.5 213,-441.5 91,-441.5"/>
<text text-anchor="middle" x="152" y="-448.5" font-family="Helvetica,sans-Serif" font-size="10.00">Canvas::drawRectangle</text>
</a>
</g>
</g>
<!-- Node1&#45;&gt;Node4 -->
<g id="edge3" class="edge"><title>Node1&#45;&gt;Node4</title>
<path fill="none" stroke="midnightblue" d="M28.0687,-296.779C32.5683,-329.648 46.2681,-395.508 86,-432 90.2429,-435.897 95.2429,-438.998 100.555,-441.466"/>
<polygon fill="midnightblue" stroke="midnightblue" points="31.5161,-296.134 26.8332,-286.63 24.5674,-296.98 31.5161,-296.134"/>
</g>
<!-- Node5 -->
<g id="node5" class="node"><title>Node5</title>
<g id="a_node5"><a xlink:href="class_canvas.html#a02f659c0cb7809f6dbb18746eb547778" target="_top" xlink:title="Canvas::drawCircle">
<polygon fill="white" stroke="black" points="100.5,-403.5 100.5,-422.5 203.5,-422.5 203.5,-403.5 100.5,-403.5"/>
<text text-anchor="middle" x="152" y="-410.5" font-family="Helvetica,sans-Serif" font-size="10.00">Canvas::drawCircle</text>
</a>
</g>
</g>
<!-- Node1&#45;&gt;Node5 -->
<g id="edge4" class="edge"><title>Node1&#45;&gt;Node5</title>
<path fill="none" stroke="midnightblue" d="M30.7484,-296.306C38.1424,-322.313 54.8989,-368.296 86,-394 90.7125,-397.895 96.1924,-400.991 101.934,-403.453"/>
<polygon fill="midnightblue" stroke="midnightblue" points="34.0929,-295.263 28.1382,-286.5 27.3284,-297.064 34.0929,-295.263"/>
</g>
<!-- Node6 -->
<g id="node6" class="node"><title>Node6</title>
<g id="a_node6"><a xlink:href="class_canvas.html#a7790d284aece3ffb4455af3846521e5b" target="_top" xlink:title="Canvas::drawTriangle">
<polygon fill="white" stroke="black" points="96,-365.5 96,-384.5 208,-384.5 208,-365.5 96,-365.5"/>
<text text-anchor="middle" x="152" y="-372.5" font-family="Helvetica,sans-Serif" font-size="10.00">Canvas::drawTriangle</text>
</a>
</g>
</g>
<!-- Node1&#45;&gt;Node6 -->
<g id="edge5" class="edge"><title>Node1&#45;&gt;Node6</title>
<path fill="none" stroke="midnightblue" d="M35.5094,-295.585C45.6562,-313.602 63.3763,-340.429 86,-356 91.6171,-359.866 98.0255,-362.956 104.578,-365.422"/>
<polygon fill="midnightblue" stroke="midnightblue" points="38.4959,-293.749 30.6683,-286.609 32.3348,-297.072 38.4959,-293.749"/>
</g>
<!-- Node7 -->
<g id="node7" class="node"><title>Node7</title>
<g id="a_node7"><a xlink:href="class_canvas.html#a34af1e9202967cbb4088e18296af8296" target="_top" xlink:title="Canvas::drawText">
<polygon fill="white" stroke="black" points="103.5,-327.5 103.5,-346.5 200.5,-346.5 200.5,-327.5 103.5,-327.5"/>
<text text-anchor="middle" x="152" y="-334.5" font-family="Helvetica,sans-Serif" font-size="10.00">Canvas::drawText</text>
</a>
</g>
</g>
<!-- Node1&#45;&gt;Node7 -->
<g id="edge6" class="edge"><title>Node1&#45;&gt;Node7</title>
<path fill="none" stroke="midnightblue" d="M45.9445,-292.988C57.1821,-301.374 71.7819,-311.273 86,-318 93.8643,-321.721 102.613,-324.878 111.078,-327.487"/>
<polygon fill="midnightblue" stroke="midnightblue" points="47.7877,-289.991 37.7245,-286.677 43.5246,-295.543 47.7877,-289.991"/>
</g>
<!-- Node8 -->
<g id="node8" class="node"><title>Node8</title>
<g id="a_node8"><a xlink:href="class_graphics_circle.html#a8533b7a4eb72f0063e98d8ad94210f16" target="_top" xlink:title="GraphicsCircle::meDraw">
<polygon fill="white" stroke="black" points="90,-289.5 90,-308.5 214,-308.5 214,-289.5 90,-289.5"/>
<text text-anchor="middle" x="152" y="-296.5" font-family="Helvetica,sans-Serif" font-size="10.00">GraphicsCircle::meDraw</text>
</a>
</g>
</g>
<!-- Node1&#45;&gt;Node8 -->
<g id="edge7" class="edge"><title>Node1&#45;&gt;Node8</title>
<path fill="none" stroke="midnightblue" d="M60.0478,-282.992C71.4331,-284.996 84.4198,-287.282 96.9456,-289.486"/>
<polygon fill="midnightblue" stroke="midnightblue" points="60.5566,-279.528 50.1013,-281.242 59.3432,-286.422 60.5566,-279.528"/>
</g>
<!-- Node9 -->
<g id="node9" class="node"><title>Node9</title>
<g id="a_node9"><a xlink:href="class_graphics_rectangle.html#ab1a0b1219fdc7694c6f5902c19f9e429" target="_top" xlink:title="GraphicsRectangle::\lheight">
<polygon fill="white" stroke="black" points="99,-240 99,-270 205,-270 205,-240 99,-240"/>
<text text-anchor="start" x="107" y="-258" font-family="Helvetica,sans-Serif" font-size="10.00">GraphicsRectangle::</text>
<text text-anchor="middle" x="152" y="-247" font-family="Helvetica,sans-Serif" font-size="10.00">height</text>
</a>
</g>
</g>
<!-- Node1&#45;&gt;Node9 -->
<g id="edge8" class="edge"><title>Node1&#45;&gt;Node9</title>
<path fill="none" stroke="midnightblue" d="M60.0756,-271.003C72.0081,-268.903 85.6969,-266.493 98.7695,-264.193"/>
<polygon fill="midnightblue" stroke="midnightblue" points="59.3432,-267.578 50.1013,-272.758 60.5566,-274.472 59.3432,-267.578"/>
</g>
<!-- Node10 -->
<g id="node10" class="node"><title>Node10</title>
<g id="a_node10"><a xlink:href="class_graphics_square.html#a14374df804233349ce8654bbe41531e7" target="_top" xlink:title="GraphicsSquare::Graphics\lSquare">
<polygon fill="white" stroke="black" points="86.5,-191 86.5,-221 217.5,-221 217.5,-191 86.5,-191"/>
<text text-anchor="start" x="94.5" y="-209" font-family="Helvetica,sans-Serif" font-size="10.00">GraphicsSquare::Graphics</text>
<text text-anchor="middle" x="152" y="-198" font-family="Helvetica,sans-Serif" font-size="10.00">Square</text>
</a>
</g>
</g>
<!-- Node1&#45;&gt;Node10 -->
<g id="edge9" class="edge"><title>Node1&#45;&gt;Node10</title>
<path fill="none" stroke="midnightblue" d="M44.7169,-260.4C56.0859,-250.908 71.217,-239.281 86,-231 92.4345,-227.396 99.4931,-224.089 106.513,-221.144"/>
<polygon fill="midnightblue" stroke="midnightblue" points="42.148,-257.992 36.8244,-267.152 46.6984,-263.311 42.148,-257.992"/>
</g>
<!-- Node11 -->
<g id="node11" class="node"><title>Node11</title>
<g id="a_node11"><a xlink:href="_point_8cpp.html#a872cb140a1e5f546a31b4b3d891b765a" target="_top" xlink:title="Surchage de l&#39;operateur ==. ">
<polygon fill="white" stroke="black" points="120,-152.5 120,-171.5 184,-171.5 184,-152.5 120,-152.5"/>
<text text-anchor="middle" x="152" y="-159.5" font-family="Helvetica,sans-Serif" font-size="10.00">operator==</text>
</a>
</g>
</g>
<!-- Node1&#45;&gt;Node11 -->
<g id="edge10" class="edge"><title>Node1&#45;&gt;Node11</title>
<path fill="none" stroke="midnightblue" d="M33.2366,-257.937C42.3536,-236.428 60.0355,-201.861 86,-182 95.7529,-174.54 108.309,-169.84 119.781,-166.889"/>
<polygon fill="midnightblue" stroke="midnightblue" points="29.9446,-256.742 29.4502,-267.325 36.4365,-259.36 29.9446,-256.742"/>
</g>
<!-- Node12 -->
<g id="node12" class="node"><title>Node12</title>
<g id="a_node12"><a xlink:href="_point_8cpp.html#a4158330ef851082d91a82eefd03aa183" target="_top" xlink:title="Surchage de l&#39;operateur +. ">
<polygon fill="white" stroke="black" points="123,-114.5 123,-133.5 181,-133.5 181,-114.5 123,-114.5"/>
<text text-anchor="middle" x="152" y="-121.5" font-family="Helvetica,sans-Serif" font-size="10.00">operator+</text>
</a>
</g>
</g>
<!-- Node1&#45;&gt;Node12 -->
<g id="edge11" class="edge"><title>Node1&#45;&gt;Node12</title>
<path fill="none" stroke="midnightblue" d="M29.3994,-257.418C35.4977,-228.22 51.0771,-173.451 86,-143 96.1906,-134.114 110.342,-129.378 122.84,-126.856"/>
<polygon fill="midnightblue" stroke="midnightblue" points="25.9597,-256.772 27.5058,-267.253 32.8334,-258.095 25.9597,-256.772"/>
</g>
<!-- Node13 -->
<g id="node13" class="node"><title>Node13</title>
<g id="a_node13"><a xlink:href="_point_8cpp.html#af304a4bde169f417ea02e56d3d4b7258" target="_top" xlink:title="Surchage de l&#39;operateur &#45;. ">
<polygon fill="white" stroke="black" points="124.5,-76.5 124.5,-95.5 179.5,-95.5 179.5,-76.5 124.5,-76.5"/>
<text text-anchor="middle" x="152" y="-83.5" font-family="Helvetica,sans-Serif" font-size="10.00">operator&#45;</text>
</a>
</g>
</g>
<!-- Node1&#45;&gt;Node13 -->
<g id="edge12" class="edge"><title>Node1&#45;&gt;Node13</title>
<path fill="none" stroke="midnightblue" d="M27.2008,-257.073C30.4372,-221.395 42.3454,-146.473 86,-105 96.3137,-95.2018 111.399,-90.4213 124.441,-88.1042"/>
<polygon fill="midnightblue" stroke="midnightblue" points="23.7002,-256.947 26.4254,-267.185 30.6798,-257.482 23.7002,-256.947"/>
</g>
<!-- Node14 -->
<g id="node14" class="node"><title>Node14</title>
<g id="a_node14"><a xlink:href="_point_8cpp.html#aab55cf13db83c55c46a961b2b2441960" target="_top" xlink:title="Surchage de l&#39;operateur &lt;&lt;. ">
<polygon fill="white" stroke="black" points="120,-38.5 120,-57.5 184,-57.5 184,-38.5 120,-38.5"/>
<text text-anchor="middle" x="152" y="-45.5" font-family="Helvetica,sans-Serif" font-size="10.00">operator&lt;&lt;</text>
</a>
</g>
</g>
<!-- Node1&#45;&gt;Node14 -->
<g id="edge13" class="edge"><title>Node1&#45;&gt;Node14</title>
<path fill="none" stroke="midnightblue" d="M25.6978,-257.395C26.1658,-216.203 33.2253,-120.097 86,-67 94.9511,-57.9942 107.918,-53.2055 119.92,-50.6785"/>
<polygon fill="midnightblue" stroke="midnightblue" points="22.1978,-257.479 25.708,-267.476 29.1978,-257.472 22.1978,-257.479"/>
</g>
<!-- Node15 -->
<g id="node15" class="node"><title>Node15</title>
<g id="a_node15"><a xlink:href="_point_8cpp.html#a4e1acba0f26daf714b7816d3c1994a74" target="_top" xlink:title="Surchage de l&#39;operateur &lt;. ">
<polygon fill="white" stroke="black" points="123,-0.5 123,-19.5 181,-19.5 181,-0.5 123,-0.5"/>
<text text-anchor="middle" x="152" y="-7.5" font-family="Helvetica,sans-Serif" font-size="10.00">operator&lt;</text>
</a>
</g>
</g>
<!-- Node1&#45;&gt;Node15 -->
<g id="edge14" class="edge"><title>Node1&#45;&gt;Node15</title>
<path fill="none" stroke="midnightblue" d="M28.2052,-257.444C34.5114,-204.883 54.2358,-62.2937 86,-29 95.4954,-19.0474 109.888,-14.2234 122.719,-11.919"/>
<polygon fill="midnightblue" stroke="midnightblue" points="24.7167,-257.143 27.0343,-267.481 31.6696,-257.954 24.7167,-257.143"/>
</g>
</g>
</svg>
        <g id="navigator" transform="translate(0 0)" fill="#404254">
                <rect fill="#f2f5e9" fill-opacity="0.5" stroke="#606060" stroke-width=".5" x="0" y="0" width="60" height="60"/>
                <use id="zoomplus" xlink:href="#zoomPlus" x="17" y="9" onmousedown="handleZoom(evt,'in')"/>
                <use id="zoomminus" xlink:href="#zoomMin" x="42" y="9" onmousedown="handleZoom(evt,'out')"/>
                <use id="reset" xlink:href="#resetDef" x="30" y="36" onmousedown="handleReset()"/>
                <g id="arrowUp" xlink:href="#dirArrow" transform="translate(30 24)" onmousedown="handlePan(0,-1)">
                  <use xlink:href="#rim" fill="#404040">
                        <set attributeName="fill" to="#808080" begin="arrowUp.mouseover" end="arrowUp.mouseout"/>
                  </use>
                  <path fill="none" stroke="white" stroke-width="1.5" d="M0,-3.0v7 M-2.5,-0.5L0,-3.0L2.5,-0.5"/>
                </g>
                <g id="arrowRight" xlink:href="#dirArrow" transform="rotate(90) translate(36 -43)" onmousedown="handlePan(1,0)">
                  <use xlink:href="#rim" fill="#404040">
                        <set attributeName="fill" to="#808080" begin="arrowRight.mouseover" end="arrowRight.mouseout"/>
                  </use>
                  <path fill="none" stroke="white" stroke-width="1.5" d="M0,-3.0v7 M-2.5,-0.5L0,-3.0L2.5,-0.5"/>
                </g>
                <g id="arrowDown" xlink:href="#dirArrow" transform="rotate(180) translate(-30 -48)" onmousedown="handlePan(0,1)">
                  <use xlink:href="#rim" fill="#404040">
                        <set attributeName="fill" to="#808080" begin="arrowDown.mouseover" end="arrowDown.mouseout"/>
                  </use>
                  <path fill="none" stroke="white" stroke-width="1.5" d="M0,-3.0v7 M-2.5,-0.5L0,-3.0L2.5,-0.5"/>
                </g>
                <g id="arrowLeft" xlink:href="#dirArrow" transform="rotate(270) translate(-36 17)" onmousedown="handlePan(-1,0)">
                  <use xlink:href="#rim" fill="#404040">
                        <set attributeName="fill" to="#808080" begin="arrowLeft.mouseover" end="arrowLeft.mouseout"/>
                  </use>
                  <path fill="none" stroke="white" stroke-width="1.5" d="M0,-3.0v7 M-2.5,-0.5L0,-3.0L2.5,-0.5"/>
                </g>
        </g>
        <svg viewBox="0 0 15 15" width="100%" height="30px" preserveAspectRatio="xMaxYMin meet">
         <g id="arrow_out" transform="scale(0.3 0.3)">
          <a xlink:href="class_point_a2226d8a3fb283b0b3c1f69106df144ba_icgraph_org.svg" target="_base">
           <rect id="button" ry="5" rx="5" y="6" x="6" height="38" width="38"
                fill="#f2f5e9" fill-opacity="0.5" stroke="#606060" stroke-width="1.0"/>
           <path id="arrow"
             d="M 11.500037,31.436501 C 11.940474,20.09759 22.043105,11.32322 32.158766,21.979434 L 37.068811,17.246167 C 37.068811,17.246167 37.088388,32 37.088388,32 L 22.160133,31.978069 C 22.160133,31.978069 26.997745,27.140456 26.997745,27.140456 C 18.528582,18.264221 13.291696,25.230495 11.500037,31.436501 z"
             style="fill:#404040;"/>
          </a>
         </g>
        </svg>
</svg>
