<?xml version="1.0" encoding="UTF-8" standalone="no"?>
<!DOCTYPE svg PUBLIC "-//W3C//DTD SVG 1.1//EN"
 "http://www.w3.org/Graphics/SVG/1.1/DTD/svg11.dtd">
<!-- Generated by graphviz version 2.36.0 (20140111.2315)
 -->
<!-- Title: super&#45;ez&#45;lib Pages: 1 -->
<svg width="180pt" height="148pt"
 viewBox="0.00 0.00 180.00 148.00" xmlns="http://www.w3.org/2000/svg" xmlns:xlink="http://www.w3.org/1999/xlink">
<g id="graph0" class="graph" transform="scale(1 1) rotate(0) translate(4 144)">
<title>super&#45;ez&#45;lib</title>
<polygon fill="white" stroke="none" points="-4,4 -4,-144 176,-144 176,4 -4,4"/>
<g id="clust1" class="cluster"><title>clusterdir_136dfff0b8dc84fd05057dbd6fffcd12</title>
<g id="a_clust1"><a xlink:href="dir_136dfff0b8dc84fd05057dbd6fffcd12.html" target="_top">
<polygon fill="#eeeeff" stroke="black" points="8,-8 8,-132 164,-132 164,-8 8,-8"/>
</a>
</g>
</g>
<!-- dir_136dfff0b8dc84fd05057dbd6fffcd12 -->
<g id="node1" class="node"><title>dir_136dfff0b8dc84fd05057dbd6fffcd12</title>
<text text-anchor="middle" x="122" y="-103.5" font-family="Helvetica,sans-Serif" font-size="10.00">super&#45;ez&#45;lib</text>
</g>
<!-- dir_c0bc96c2a96f7510267014d44ca54e24 -->
<g id="node2" class="node"><title>dir_c0bc96c2a96f7510267014d44ca54e24</title>
<g id="a_node2"><a xlink:href="dir_c0bc96c2a96f7510267014d44ca54e24.html" target="_top" xlink:title="core">
<polygon fill="white" stroke="red" points="70,-52 16,-52 16,-16 70,-16 70,-52"/>
<text text-anchor="middle" x="43" y="-31.5" font-family="Helvetica,sans-Serif" font-size="10.00">core</text>
</a>
</g>
</g>
<!-- dir_0d958518482f4d17b72ebe010e78aca5 -->
<g id="node3" class="node"><title>dir_0d958518482f4d17b72ebe010e78aca5</title>
<g id="a_node3"><a xlink:href="dir_0d958518482f4d17b72ebe010e78aca5.html" target="_top" xlink:title="graphics">
<polygon fill="white" stroke="red" points="70,-124 16,-124 16,-88 70,-88 70,-124"/>
<text text-anchor="middle" x="43" y="-103.5" font-family="Helvetica,sans-Serif" font-size="10.00">graphics</text>
</a>
</g>
</g>
<!-- dir_0d958518482f4d17b72ebe010e78aca5&#45;&gt;dir_c0bc96c2a96f7510267014d44ca54e24 -->
<g id="edge1" class="edge"><title>dir_0d958518482f4d17b72ebe010e78aca5&#45;&gt;dir_c0bc96c2a96f7510267014d44ca54e24</title>
<path fill="none" stroke="black" d="M43,-87.6966C43,-79.9827 43,-70.7125 43,-62.1124"/>
<polygon fill="black" stroke="black" points="46.5001,-62.1043 43,-52.1043 39.5001,-62.1044 46.5001,-62.1043"/>
<g id="a_edge1&#45;headlabel"><a xlink:href="dir_000010_000003.html" target="_top" xlink:title="4">
<text text-anchor="middle" x="49.3393" y="-63.199" font-family="Helvetica,sans-Serif" font-size="10.00">4</text>
</a>
</g>
</g>
</g>
</svg>
