<?xml version="1.0" encoding="UTF-8" standalone="no"?>
<!DOCTYPE svg PUBLIC "-//W3C//DTD SVG 1.1//EN"
 "http://www.w3.org/Graphics/SVG/1.1/DTD/svg11.dtd">
<!-- Generated by graphviz version 2.36.0 (20140111.2315)
 -->
<!-- Title: core Pages: 1 -->
<svg width="182pt" height="183pt"
 viewBox="0.00 0.00 182.00 183.00" xmlns="http://www.w3.org/2000/svg" xmlns:xlink="http://www.w3.org/1999/xlink">
<g id="graph0" class="graph" transform="scale(1 1) rotate(0) translate(4 179)">
<title>core</title>
<polygon fill="white" stroke="none" points="-4,4 -4,-179 178,-179 178,4 -4,4"/>
<g id="clust1" class="cluster"><title>clusterdir_136dfff0b8dc84fd05057dbd6fffcd12</title>
<g id="a_clust1"><a xlink:href="dir_136dfff0b8dc84fd05057dbd6fffcd12.html" target="_top" xlink:title="super&#45;ez&#45;lib">
<polygon fill="#ddddee" stroke="black" points="8,-8 8,-167 166,-167 166,-8 8,-8"/>
<text text-anchor="middle" x="87" y="-155" font-family="Helvetica,sans-Serif" font-size="10.00">super&#45;ez&#45;lib</text>
</a>
</g>
</g>
<g id="clust2" class="cluster"><title>clusterdir_c0bc96c2a96f7510267014d44ca54e24</title>
<g id="a_clust2"><a xlink:href="dir_c0bc96c2a96f7510267014d44ca54e24.html" target="_top">
<polygon fill="#eeeeff" stroke="black" points="16,-16 16,-140 158,-140 158,-16 16,-16"/>
</a>
</g>
</g>
<!-- dir_c0bc96c2a96f7510267014d44ca54e24 -->
<g id="node1" class="node"><title>dir_c0bc96c2a96f7510267014d44ca54e24</title>
<text text-anchor="middle" x="123" y="-111.5" font-family="Helvetica,sans-Serif" font-size="10.00">core</text>
</g>
<!-- dir_29886abfd05d10f353d5e88e3822275c -->
<g id="node2" class="node"><title>dir_29886abfd05d10f353d5e88e3822275c</title>
<g id="a_node2"><a xlink:href="dir_29886abfd05d10f353d5e88e3822275c.html" target="_top" xlink:title="include">
<polygon fill="white" stroke="black" points="78,-60 24,-60 24,-24 78,-24 78,-60"/>
<text text-anchor="middle" x="51" y="-39.5" font-family="Helvetica,sans-Serif" font-size="10.00">include</text>
</a>
</g>
</g>
<!-- dir_ab4dbad83e31a4749c8272a1e225fd92 -->
<g id="node3" class="node"><title>dir_ab4dbad83e31a4749c8272a1e225fd92</title>
<g id="a_node3"><a xlink:href="dir_ab4dbad83e31a4749c8272a1e225fd92.html" target="_top" xlink:title="src">
<polygon fill="white" stroke="black" points="78,-132 24,-132 24,-96 78,-96 78,-132"/>
<text text-anchor="middle" x="51" y="-111.5" font-family="Helvetica,sans-Serif" font-size="10.00">src</text>
</a>
</g>
</g>
<!-- dir_ab4dbad83e31a4749c8272a1e225fd92&#45;&gt;dir_29886abfd05d10f353d5e88e3822275c -->
<g id="edge1" class="edge"><title>dir_ab4dbad83e31a4749c8272a1e225fd92&#45;&gt;dir_29886abfd05d10f353d5e88e3822275c</title>
<path fill="none" stroke="black" d="M51,-95.6966C51,-87.9827 51,-78.7125 51,-70.1124"/>
<polygon fill="black" stroke="black" points="54.5001,-70.1043 51,-60.1043 47.5001,-70.1044 54.5001,-70.1043"/>
<g id="a_edge1&#45;headlabel"><a xlink:href="dir_000002_000003.html" target="_top" xlink:title="9">
<text text-anchor="middle" x="57.3393" y="-71.199" font-family="Helvetica,sans-Serif" font-size="10.00">9</text>
</a>
</g>
</g>
</g>
</svg>
