<?xml version="1.0" encoding="UTF-8" standalone="no"?>
<!DOCTYPE svg PUBLIC "-//W3C//DTD SVG 1.1//EN"
 "http://www.w3.org/Graphics/SVG/1.1/DTD/svg11.dtd">
<!-- Generated by graphviz version 2.36.0 (20140111.2315)
 -->
<!-- Title: src Pages: 1 -->
<svg width="147pt" height="116pt"
 viewBox="0.00 0.00 147.00 116.00" xmlns="http://www.w3.org/2000/svg" xmlns:xlink="http://www.w3.org/1999/xlink">
<g id="graph0" class="graph" transform="scale(1 1) rotate(0) translate(4 112)">
<title>src</title>
<polygon fill="white" stroke="none" points="-4,4 -4,-112 143,-112 143,4 -4,4"/>
<!-- dir_68267d1309a1af8e8297ef4c3efbcdba -->
<g id="node1" class="node"><title>dir_68267d1309a1af8e8297ef4c3efbcdba</title>
<g id="a_node1"><a xlink:href="dir_68267d1309a1af8e8297ef4c3efbcdba.html" target="_top" xlink:title="src">
<polygon fill="#eeeeff" stroke="black" points="93,-108 39,-108 39,-72 93,-72 93,-108"/>
<text text-anchor="middle" x="66" y="-87.5" font-family="Helvetica,sans-Serif" font-size="10.00">src</text>
</a>
</g>
</g>
<!-- dir_d44c64559bbebec7f509842c48db8b23 -->
<g id="node2" class="node"><title>dir_d44c64559bbebec7f509842c48db8b23</title>
<g id="a_node2"><a xlink:href="dir_d44c64559bbebec7f509842c48db8b23.html" target="_top" xlink:title="include">
<polygon fill="none" stroke="black" points="54,-36 0,-36 0,-0 54,-0 54,-36"/>
<text text-anchor="middle" x="27" y="-15.5" font-family="Helvetica,sans-Serif" font-size="10.00">include</text>
</a>
</g>
</g>
<!-- dir_68267d1309a1af8e8297ef4c3efbcdba&#45;&gt;dir_d44c64559bbebec7f509842c48db8b23 -->
<g id="edge1" class="edge"><title>dir_68267d1309a1af8e8297ef4c3efbcdba&#45;&gt;dir_d44c64559bbebec7f509842c48db8b23</title>
<path fill="none" stroke="black" d="M56.3595,-71.6966C51.8729,-63.6436 46.4412,-53.8945 41.4759,-44.9824"/>
<polygon fill="black" stroke="black" points="44.4541,-43.1366 36.5296,-36.1043 38.3391,-46.5435 44.4541,-43.1366"/>
<g id="a_edge1&#45;headlabel"><a xlink:href="dir_000016_000017.html" target="_top" xlink:title="2">
<text text-anchor="middle" x="48.6839" y="-42.3948" font-family="Helvetica,sans-Serif" font-size="10.00">2</text>
</a>
</g>
</g>
<!-- dir_136dfff0b8dc84fd05057dbd6fffcd12 -->
<g id="node3" class="node"><title>dir_136dfff0b8dc84fd05057dbd6fffcd12</title>
<g id="a_node3"><a xlink:href="dir_136dfff0b8dc84fd05057dbd6fffcd12.html" target="_top" xlink:title="super&#45;ez&#45;lib">
<polygon fill="white" stroke="red" points="139.25,-36 72.75,-36 72.75,-0 139.25,-0 139.25,-36"/>
<text text-anchor="middle" x="106" y="-15.5" font-family="Helvetica,sans-Serif" font-size="10.00">super&#45;ez&#45;lib</text>
</a>
</g>
</g>
<!-- dir_68267d1309a1af8e8297ef4c3efbcdba&#45;&gt;dir_136dfff0b8dc84fd05057dbd6fffcd12 -->
<g id="edge2" class="edge"><title>dir_68267d1309a1af8e8297ef4c3efbcdba&#45;&gt;dir_136dfff0b8dc84fd05057dbd6fffcd12</title>
<path fill="none" stroke="black" d="M75.8876,-71.6966C80.4893,-63.6436 86.0603,-53.8945 91.1529,-44.9824"/>
<polygon fill="black" stroke="black" points="94.3035,-46.5233 96.2261,-36.1043 88.2258,-43.0503 94.3035,-46.5233"/>
<g id="a_edge2&#45;headlabel"><a xlink:href="dir_000016_000002.html" target="_top" xlink:title="4">
<text text-anchor="middle" x="94.9853" y="-48.5529" font-family="Helvetica,sans-Serif" font-size="10.00">4</text>
</a>
</g>
</g>
</g>
</svg>
