<?xml version="1.0" encoding="UTF-8" standalone="no"?>
<!DOCTYPE svg PUBLIC "-//W3C//DTD SVG 1.1//EN"
 "http://www.w3.org/Graphics/SVG/1.1/DTD/svg11.dtd">
<!-- Generated by graphviz version 2.36.0 (20140111.2315)
 -->
<!-- Title: toggleLevel Pages: 1 -->
<svg width="188pt" height="104pt"
 viewBox="0.00 0.00 188.00 104.00" xmlns="http://www.w3.org/2000/svg" xmlns:xlink="http://www.w3.org/1999/xlink">
<g id="graph0" class="graph" transform="scale(1 1) rotate(0) translate(4 100)">
<title>toggleLevel</title>
<polygon fill="white" stroke="none" points="-4,4 -4,-100 184,-100 184,4 -4,4"/>
<!-- Node1 -->
<g id="node1" class="node"><title>Node1</title>
<polygon fill="#bfbfbf" stroke="black" points="0,-38.5 0,-57.5 66,-57.5 66,-38.5 0,-38.5"/>
<text text-anchor="middle" x="33" y="-45.5" font-family="Helvetica,sans-Serif" font-size="10.00">toggleLevel</text>
</g>
<!-- Node2 -->
<g id="node2" class="node"><title>Node2</title>
<g id="a_node2"><a xlink:href="jquery_8js.html#ad00a10a5d6bb6674ef779561d9300148" target="_top" xlink:title="each">
<polygon fill="white" stroke="black" points="122,-76.5 122,-95.5 160,-95.5 160,-76.5 122,-76.5"/>
<text text-anchor="middle" x="141" y="-83.5" font-family="Helvetica,sans-Serif" font-size="10.00">each</text>
</a>
</g>
</g>
<!-- Node1&#45;&gt;Node2 -->
<g id="edge1" class="edge"><title>Node1&#45;&gt;Node2</title>
<path fill="none" stroke="midnightblue" d="M60.7483,-57.589C76.4453,-63.2162 96.2523,-70.3169 112.138,-76.0118"/>
<polygon fill="midnightblue" stroke="midnightblue" points="111.334,-79.4415 121.928,-79.5215 113.696,-72.8522 111.334,-79.4415"/>
</g>
<!-- Node3 -->
<g id="node3" class="node"><title>Node3</title>
<g id="a_node3"><a xlink:href="svgpan_8js.html#aa8d9f2083cafa2af98efafed94901079" target="_top" xlink:title="show">
<polygon fill="white" stroke="black" points="121,-38.5 121,-57.5 161,-57.5 161,-38.5 121,-38.5"/>
<text text-anchor="middle" x="141" y="-45.5" font-family="Helvetica,sans-Serif" font-size="10.00">show</text>
</a>
</g>
</g>
<!-- Node1&#45;&gt;Node3 -->
<g id="edge2" class="edge"><title>Node1&#45;&gt;Node3</title>
<path fill="none" stroke="midnightblue" d="M66.0912,-48C80.367,-48 97.0532,-48 110.955,-48"/>
<polygon fill="midnightblue" stroke="midnightblue" points="110.957,-51.5001 120.957,-48 110.957,-44.5001 110.957,-51.5001"/>
</g>
<!-- Node4 -->
<g id="node4" class="node"><title>Node4</title>
<g id="a_node4"><a xlink:href="dynsections_8js.html#a8f7493ad859d4fbf2523917511ee7177" target="_top" xlink:title="updateStripes">
<polygon fill="white" stroke="black" points="102.5,-0.5 102.5,-19.5 179.5,-19.5 179.5,-0.5 102.5,-0.5"/>
<text text-anchor="middle" x="141" y="-7.5" font-family="Helvetica,sans-Serif" font-size="10.00">updateStripes</text>
</a>
</g>
</g>
<!-- Node1&#45;&gt;Node4 -->
<g id="edge3" class="edge"><title>Node1&#45;&gt;Node4</title>
<path fill="none" stroke="midnightblue" d="M60.7483,-38.411C73.8042,-33.7306 89.7035,-28.0308 103.825,-22.9685"/>
<polygon fill="midnightblue" stroke="midnightblue" points="105.028,-26.2553 113.26,-19.5859 102.666,-19.6659 105.028,-26.2553"/>
</g>
</g>
</svg>
