<?xml version="1.0" encoding="UTF-8" standalone="no"?>
<!DOCTYPE svg PUBLIC "-//W3C//DTD SVG 1.1//EN"
 "http://www.w3.org/Graphics/SVG/1.1/DTD/svg11.dtd">
<!-- Generated by graphviz version 2.36.0 (20140111.2315)
 -->
<!-- Title: Graphe hiérarchique des classes Pages: 1 -->
<svg width="158pt" height="66pt"
 viewBox="0.00 0.00 158.00 66.00" xmlns="http://www.w3.org/2000/svg" xmlns:xlink="http://www.w3.org/1999/xlink">
<g id="graph0" class="graph" transform="scale(1 1) rotate(0) translate(4 62)">
<title>Graphe hiérarchique des classes</title>
<polygon fill="white" stroke="none" points="-4,4 -4,-62 154,-62 154,4 -4,4"/>
<!-- Node1 -->
<g id="node1" class="node"><title>Node1</title>
<g id="a_node1"><a xlink:href="class_event.html" target="_top" xlink:title="Représente un événement. ">
<polygon fill="white" stroke="black" points="0,-19.5 0,-38.5 42,-38.5 42,-19.5 0,-19.5"/>
<text text-anchor="middle" x="21" y="-26.5" font-family="Helvetica,sans-Serif" font-size="10.00">Event</text>
</a>
</g>
</g>
<!-- Node2 -->
<g id="node2" class="node"><title>Node2</title>
<g id="a_node2"><a xlink:href="class_key_event.html" target="_top" xlink:title="Événement émit par le clavier. ">
<polygon fill="white" stroke="black" points="84.5,-38.5 84.5,-57.5 143.5,-57.5 143.5,-38.5 84.5,-38.5"/>
<text text-anchor="middle" x="114" y="-45.5" font-family="Helvetica,sans-Serif" font-size="10.00">KeyEvent</text>
</a>
</g>
</g>
<!-- Node1&#45;&gt;Node2 -->
<g id="edge1" class="edge"><title>Node1&#45;&gt;Node2</title>
<path fill="none" stroke="midnightblue" d="M52.0549,-35.2752C62.4114,-37.4375 73.9791,-39.8528 84.2305,-41.9932"/>
<polygon fill="midnightblue" stroke="midnightblue" points="52.7001,-31.8345 42.1958,-33.2167 51.2694,-38.6868 52.7001,-31.8345"/>
</g>
<!-- Node3 -->
<g id="node3" class="node"><title>Node3</title>
<g id="a_node3"><a xlink:href="class_mouse_event.html" target="_top" xlink:title="Événement émit par la souris. ">
<polygon fill="white" stroke="black" points="78.5,-0.5 78.5,-19.5 149.5,-19.5 149.5,-0.5 78.5,-0.5"/>
<text text-anchor="middle" x="114" y="-7.5" font-family="Helvetica,sans-Serif" font-size="10.00">MouseEvent</text>
</a>
</g>
</g>
<!-- Node1&#45;&gt;Node3 -->
<g id="edge2" class="edge"><title>Node1&#45;&gt;Node3</title>
<path fill="none" stroke="midnightblue" d="M52.2251,-22.6893C60.546,-20.9519 69.6381,-19.0536 78.1951,-17.267"/>
<polygon fill="midnightblue" stroke="midnightblue" points="51.2694,-19.3132 42.1958,-24.7833 52.7001,-26.1655 51.2694,-19.3132"/>
</g>
</g>
</svg>
