<?xml version="1.0" encoding="UTF-8" standalone="no"?>
<!DOCTYPE svg PUBLIC "-//W3C//DTD SVG 1.1//EN"
 "http://www.w3.org/Graphics/SVG/1.1/DTD/svg11.dtd">
<!-- Generated by graphviz version 2.36.0 (20140111.2315)
 -->
<!-- Title: x Pages: 1 -->
<svg width="230pt" height="28pt"
 viewBox="0.00 0.00 230.00 28.00" xmlns="http://www.w3.org/2000/svg" xmlns:xlink="http://www.w3.org/1999/xlink">
<g id="graph0" class="graph" transform="scale(1 1) rotate(0) translate(4 24)">
<title>x</title>
<polygon fill="white" stroke="none" points="-4,4 -4,-24 226,-24 226,4 -4,4"/>
<!-- Node1 -->
<g id="node1" class="node"><title>Node1</title>
<polygon fill="#bfbfbf" stroke="black" points="0.5,-0.5 0.5,-19.5 29.5,-19.5 29.5,-0.5 0.5,-0.5"/>
<text text-anchor="middle" x="15" y="-7.5" font-family="Helvetica,sans-Serif" font-size="10.00">x</text>
</g>
<!-- Node2 -->
<g id="node2" class="node"><title>Node2</title>
<g id="a_node2"><a xlink:href="search_8js.html#a76d24aea0009f892f8ccc31d941c0a2b" target="_top" xlink:title="getXPos">
<polygon fill="white" stroke="black" points="66,-0.5 66,-19.5 120,-19.5 120,-0.5 66,-0.5"/>
<text text-anchor="middle" x="93" y="-7.5" font-family="Helvetica,sans-Serif" font-size="10.00">getXPos</text>
</a>
</g>
</g>
<!-- Node1&#45;&gt;Node2 -->
<g id="edge1" class="edge"><title>Node1&#45;&gt;Node2</title>
<path fill="none" stroke="midnightblue" d="M39.7395,-10C48.0538,-10 57.4335,-10 65.9282,-10"/>
<polygon fill="midnightblue" stroke="midnightblue" points="39.5873,-6.5001 29.5873,-10 39.5872,-13.5001 39.5873,-6.5001"/>
</g>
<!-- Node3 -->
<g id="node3" class="node"><title>Node3</title>
<g id="a_node3"><a xlink:href="search_8js.html#a52066106482f8136aa9e0ec859e8188f" target="_top" xlink:title="SearchBox">
<polygon fill="white" stroke="black" points="156.5,-0.5 156.5,-19.5 221.5,-19.5 221.5,-0.5 156.5,-0.5"/>
<text text-anchor="middle" x="189" y="-7.5" font-family="Helvetica,sans-Serif" font-size="10.00">SearchBox</text>
</a>
</g>
</g>
<!-- Node2&#45;&gt;Node3 -->
<g id="edge2" class="edge"><title>Node2&#45;&gt;Node3</title>
<path fill="none" stroke="midnightblue" d="M130.301,-10C138.866,-10 147.932,-10 156.276,-10"/>
<polygon fill="midnightblue" stroke="midnightblue" points="130.184,-6.5001 120.184,-10 130.184,-13.5001 130.184,-6.5001"/>
</g>
</g>
</svg>
