<?xml version="1.0" encoding="UTF-8" standalone="no"?>
<!DOCTYPE svg PUBLIC "-//W3C//DTD SVG 1.1//EN"
 "http://www.w3.org/Graphics/SVG/1.1/DTD/svg11.dtd">
<!-- Generated by graphviz version 2.36.0 (20140111.2315)
 -->
<!-- Title: main.cpp Pages: 1 -->
<svg width="862pt" height="308pt"
 viewBox="0.00 0.00 862.00 308.00" xmlns="http://www.w3.org/2000/svg" xmlns:xlink="http://www.w3.org/1999/xlink">
<g id="graph0" class="graph" transform="scale(1 1) rotate(0) translate(4 304)">
<title>main.cpp</title>
<polygon fill="white" stroke="none" points="-4,4 -4,-304 858,-304 858,4 -4,4"/>
<!-- Node1 -->
<g id="node1" class="node"><title>Node1</title>
<polygon fill="#bfbfbf" stroke="black" points="683,-280.5 683,-299.5 739,-299.5 739,-280.5 683,-280.5"/>
<text text-anchor="middle" x="711" y="-287.5" font-family="Helvetica,sans-Serif" font-size="10.00">main.cpp</text>
</g>
<!-- Node2 -->
<g id="node2" class="node"><title>Node2</title>
<polygon fill="white" stroke="#bfbfbf" points="651,-0.5 651,-19.5 759,-19.5 759,-0.5 651,-0.5"/>
<text text-anchor="middle" x="705" y="-7.5" font-family="Helvetica,sans-Serif" font-size="10.00">ez&#45;lib/ez&#45;draw++.hpp</text>
</g>
<!-- Node1&#45;&gt;Node2 -->
<g id="edge1" class="edge"><title>Node1&#45;&gt;Node2</title>
<path fill="none" stroke="midnightblue" d="M739.252,-281.25C780.927,-267.9 854,-236.319 854,-179 854,-179 854,-179 854,-121 854,-67.9401 792.088,-37.5788 748.081,-22.7"/>
<polygon fill="midnightblue" stroke="midnightblue" points="749.03,-19.3285 738.439,-19.5867 746.879,-25.99 749.03,-19.3285"/>
</g>
<!-- Node3 -->
<g id="node3" class="node"><title>Node3</title>
<g id="a_node3"><a xlink:href="_main_window_8hpp.html" target="_top" xlink:title="../include/MainWindow.hpp">
<polygon fill="white" stroke="black" points="502,-224.5 502,-243.5 636,-243.5 636,-224.5 502,-224.5"/>
<text text-anchor="middle" x="569" y="-231.5" font-family="Helvetica,sans-Serif" font-size="10.00">../include/MainWindow.hpp</text>
</a>
</g>
</g>
<!-- Node1&#45;&gt;Node3 -->
<g id="edge2" class="edge"><title>Node1&#45;&gt;Node3</title>
<path fill="none" stroke="midnightblue" d="M688.5,-280.444C664.923,-271.478 627.678,-257.314 601.036,-247.183"/>
<polygon fill="midnightblue" stroke="midnightblue" points="601.986,-243.8 591.395,-243.516 599.498,-250.342 601.986,-243.8"/>
</g>
<!-- Node4 -->
<g id="node4" class="node"><title>Node4</title>
<g id="a_node4"><a xlink:href="_window_8hpp.html" target="_top" xlink:title="Window.hpp">
<polygon fill="white" stroke="black" points="533.5,-168.5 533.5,-187.5 604.5,-187.5 604.5,-168.5 533.5,-168.5"/>
<text text-anchor="middle" x="569" y="-175.5" font-family="Helvetica,sans-Serif" font-size="10.00">Window.hpp</text>
</a>
</g>
</g>
<!-- Node3&#45;&gt;Node4 -->
<g id="edge3" class="edge"><title>Node3&#45;&gt;Node4</title>
<path fill="none" stroke="midnightblue" d="M569,-224.083C569,-217.006 569,-206.861 569,-197.986"/>
<polygon fill="midnightblue" stroke="midnightblue" points="572.5,-197.751 569,-187.751 565.5,-197.751 572.5,-197.751"/>
</g>
<!-- Node14 -->
<g id="node14" class="node"><title>Node14</title>
<g id="a_node14"><a xlink:href="_graphics_item_8hpp.html" target="_top" xlink:title="Classe GraphicsItem. ">
<polygon fill="white" stroke="black" points="212,-168.5 212,-187.5 306,-187.5 306,-168.5 212,-168.5"/>
<text text-anchor="middle" x="259" y="-175.5" font-family="Helvetica,sans-Serif" font-size="10.00">GraphicsItem.hpp</text>
</a>
</g>
</g>
<!-- Node3&#45;&gt;Node14 -->
<g id="edge22" class="edge"><title>Node3&#45;&gt;Node14</title>
<path fill="none" stroke="midnightblue" d="M519.88,-224.444C464.557,-214.807 374.763,-199.165 316.292,-188.98"/>
<polygon fill="midnightblue" stroke="midnightblue" points="316.566,-185.475 306.113,-187.207 315.364,-192.371 316.566,-185.475"/>
</g>
<!-- Node4&#45;&gt;Node2 -->
<g id="edge6" class="edge"><title>Node4&#45;&gt;Node2</title>
<path fill="none" stroke="midnightblue" d="M604.64,-176.678C637.954,-174.241 686.051,-164.783 710,-132 732.139,-101.696 720.973,-54.8241 712.184,-29.222"/>
<polygon fill="midnightblue" stroke="midnightblue" points="715.405,-27.8386 708.667,-19.6622 708.835,-30.2557 715.405,-27.8386"/>
</g>
<!-- Node5 -->
<g id="node5" class="node"><title>Node5</title>
<polygon fill="white" stroke="#bfbfbf" points="635.5,-56.5 635.5,-75.5 676.5,-75.5 676.5,-56.5 635.5,-56.5"/>
<text text-anchor="middle" x="656" y="-63.5" font-family="Helvetica,sans-Serif" font-size="10.00">string</text>
</g>
<!-- Node4&#45;&gt;Node5 -->
<g id="edge4" class="edge"><title>Node4&#45;&gt;Node5</title>
<path fill="none" stroke="midnightblue" d="M604.729,-174.88C634.083,-171.03 673.974,-160.494 694,-132 705.415,-115.758 689.912,-95.9099 675.411,-82.4513"/>
<polygon fill="midnightblue" stroke="midnightblue" points="677.48,-79.6122 667.636,-75.695 672.889,-84.8961 677.48,-79.6122"/>
</g>
<!-- Node6 -->
<g id="node6" class="node"><title>Node6</title>
<polygon fill="white" stroke="#bfbfbf" points="780,-112.5 780,-131.5 826,-131.5 826,-112.5 780,-112.5"/>
<text text-anchor="middle" x="803" y="-119.5" font-family="Helvetica,sans-Serif" font-size="10.00">chrono</text>
</g>
<!-- Node4&#45;&gt;Node6 -->
<g id="edge5" class="edge"><title>Node4&#45;&gt;Node6</title>
<path fill="none" stroke="midnightblue" d="M604.623,-169.021C644.108,-160.14 709.66,-145.286 766,-132 767.267,-131.701 768.558,-131.395 769.861,-131.085"/>
<polygon fill="midnightblue" stroke="midnightblue" points="771.014,-134.407 779.919,-128.667 769.378,-127.601 771.014,-134.407"/>
</g>
<!-- Node7 -->
<g id="node7" class="node"><title>Node7</title>
<g id="a_node7"><a xlink:href="_point_8hpp.html" target="_top" xlink:title="Classe point. ">
<polygon fill="white" stroke="black" points="377,-56.5 377,-75.5 435,-75.5 435,-56.5 377,-56.5"/>
<text text-anchor="middle" x="406" y="-63.5" font-family="Helvetica,sans-Serif" font-size="10.00">Point.hpp</text>
</a>
</g>
</g>
<!-- Node4&#45;&gt;Node7 -->
<g id="edge7" class="edge"><title>Node4&#45;&gt;Node7</title>
<path fill="none" stroke="midnightblue" d="M533.397,-173.941C482.894,-168.781 394.412,-156.43 375,-132 363.167,-117.108 376.347,-96.9589 388.99,-83.0613"/>
<polygon fill="midnightblue" stroke="midnightblue" points="391.704,-85.2916 396.178,-75.688 386.691,-80.4051 391.704,-85.2916"/>
</g>
<!-- Node9 -->
<g id="node9" class="node"><title>Node9</title>
<g id="a_node9"><a xlink:href="_canvas_8hpp.html" target="_top" xlink:title="Canvas.hpp">
<polygon fill="white" stroke="black" points="258.5,-112.5 258.5,-131.5 327.5,-131.5 327.5,-112.5 258.5,-112.5"/>
<text text-anchor="middle" x="293" y="-119.5" font-family="Helvetica,sans-Serif" font-size="10.00">Canvas.hpp</text>
</a>
</g>
</g>
<!-- Node4&#45;&gt;Node9 -->
<g id="edge9" class="edge"><title>Node4&#45;&gt;Node9</title>
<path fill="none" stroke="midnightblue" d="M533.483,-170.051C483.422,-160.257 392.143,-142.397 337.583,-131.723"/>
<polygon fill="midnightblue" stroke="midnightblue" points="337.999,-128.238 327.513,-129.753 336.655,-135.108 337.999,-128.238"/>
</g>
<!-- Node11 -->
<g id="node11" class="node"><title>Node11</title>
<g id="a_node11"><a xlink:href="_mouse_event_8hpp.html" target="_top" xlink:title="Classe MouseEvent. ">
<polygon fill="white" stroke="black" points="384,-112.5 384,-131.5 474,-131.5 474,-112.5 384,-112.5"/>
<text text-anchor="middle" x="429" y="-119.5" font-family="Helvetica,sans-Serif" font-size="10.00">MouseEvent.hpp</text>
</a>
</g>
</g>
<!-- Node4&#45;&gt;Node11 -->
<g id="edge14" class="edge"><title>Node4&#45;&gt;Node11</title>
<path fill="none" stroke="midnightblue" d="M546.817,-168.444C523.572,-159.478 486.851,-145.314 460.585,-135.183"/>
<polygon fill="midnightblue" stroke="midnightblue" points="461.669,-131.85 451.08,-131.516 459.15,-138.381 461.669,-131.85"/>
</g>
<!-- Node13 -->
<g id="node13" class="node"><title>Node13</title>
<g id="a_node13"><a xlink:href="_key_event_8hpp.html" target="_top" xlink:title="Classe KeyEvent. ">
<polygon fill="white" stroke="black" points="530,-112.5 530,-131.5 608,-131.5 608,-112.5 530,-112.5"/>
<text text-anchor="middle" x="569" y="-119.5" font-family="Helvetica,sans-Serif" font-size="10.00">KeyEvent.hpp</text>
</a>
</g>
</g>
<!-- Node4&#45;&gt;Node13 -->
<g id="edge19" class="edge"><title>Node4&#45;&gt;Node13</title>
<path fill="none" stroke="midnightblue" d="M569,-168.083C569,-161.006 569,-150.861 569,-141.986"/>
<polygon fill="midnightblue" stroke="midnightblue" points="572.5,-141.751 569,-131.751 565.5,-141.751 572.5,-141.751"/>
</g>
<!-- Node8 -->
<g id="node8" class="node"><title>Node8</title>
<polygon fill="white" stroke="#bfbfbf" points="379,-0.5 379,-19.5 433,-19.5 433,-0.5 379,-0.5"/>
<text text-anchor="middle" x="406" y="-7.5" font-family="Helvetica,sans-Serif" font-size="10.00">iostream</text>
</g>
<!-- Node7&#45;&gt;Node8 -->
<g id="edge8" class="edge"><title>Node7&#45;&gt;Node8</title>
<path fill="none" stroke="midnightblue" d="M406,-56.083C406,-49.0059 406,-38.8611 406,-29.9865"/>
<polygon fill="midnightblue" stroke="midnightblue" points="409.5,-29.751 406,-19.7511 402.5,-29.7511 409.5,-29.751"/>
</g>
<!-- Node9&#45;&gt;Node2 -->
<g id="edge10" class="edge"><title>Node9&#45;&gt;Node2</title>
<path fill="none" stroke="midnightblue" d="M299.813,-112.495C311.863,-98.1257 338.467,-69.3097 368,-56 415.333,-34.6682 556.742,-21.4046 640.588,-15.1936"/>
<polygon fill="midnightblue" stroke="midnightblue" points="641.048,-18.6695 650.767,-14.4532 640.54,-11.6879 641.048,-18.6695"/>
</g>
<!-- Node9&#45;&gt;Node7 -->
<g id="edge11" class="edge"><title>Node9&#45;&gt;Node7</title>
<path fill="none" stroke="midnightblue" d="M310.905,-112.444C329.254,-103.675 358.005,-89.9355 379.094,-79.8579"/>
<polygon fill="midnightblue" stroke="midnightblue" points="380.665,-82.9862 388.179,-75.5164 377.647,-76.6703 380.665,-82.9862"/>
</g>
<!-- Node10 -->
<g id="node10" class="node"><title>Node10</title>
<g id="a_node10"><a xlink:href="_font_8hpp.html" target="_top" xlink:title="Font.hpp">
<polygon fill="white" stroke="black" points="265.5,-56.5 265.5,-75.5 320.5,-75.5 320.5,-56.5 265.5,-56.5"/>
<text text-anchor="middle" x="293" y="-63.5" font-family="Helvetica,sans-Serif" font-size="10.00">Font.hpp</text>
</a>
</g>
</g>
<!-- Node9&#45;&gt;Node10 -->
<g id="edge12" class="edge"><title>Node9&#45;&gt;Node10</title>
<path fill="none" stroke="midnightblue" d="M293,-112.083C293,-105.006 293,-94.8611 293,-85.9865"/>
<polygon fill="midnightblue" stroke="midnightblue" points="296.5,-85.751 293,-75.7511 289.5,-85.7511 296.5,-85.751"/>
</g>
<!-- Node10&#45;&gt;Node8 -->
<g id="edge13" class="edge"><title>Node10&#45;&gt;Node8</title>
<path fill="none" stroke="midnightblue" d="M310.905,-56.4435C329.254,-47.6751 358.005,-33.9355 379.094,-23.8579"/>
<polygon fill="midnightblue" stroke="midnightblue" points="380.665,-26.9862 388.179,-19.5164 377.647,-20.6703 380.665,-26.9862"/>
</g>
<!-- Node11&#45;&gt;Node7 -->
<g id="edge18" class="edge"><title>Node11&#45;&gt;Node7</title>
<path fill="none" stroke="midnightblue" d="M425.202,-112.083C422.087,-104.77 417.577,-94.1814 413.711,-85.1034"/>
<polygon fill="midnightblue" stroke="midnightblue" points="416.866,-83.5798 409.727,-75.7511 410.426,-86.3229 416.866,-83.5798"/>
</g>
<!-- Node12 -->
<g id="node12" class="node"><title>Node12</title>
<g id="a_node12"><a xlink:href="_event_8hpp.html" target="_top" xlink:title="Classe Event. ">
<polygon fill="white" stroke="black" points="471.5,-56.5 471.5,-75.5 532.5,-75.5 532.5,-56.5 471.5,-56.5"/>
<text text-anchor="middle" x="502" y="-63.5" font-family="Helvetica,sans-Serif" font-size="10.00">Event.hpp</text>
</a>
</g>
</g>
<!-- Node11&#45;&gt;Node12 -->
<g id="edge15" class="edge"><title>Node11&#45;&gt;Node12</title>
<path fill="none" stroke="midnightblue" d="M440.729,-112.324C451.837,-104.107 468.742,-91.6017 481.983,-81.8069"/>
<polygon fill="midnightblue" stroke="midnightblue" points="484.1,-84.5948 490.058,-75.8339 479.937,-78.9671 484.1,-84.5948"/>
</g>
<!-- Node12&#45;&gt;Node2 -->
<g id="edge17" class="edge"><title>Node12&#45;&gt;Node2</title>
<path fill="none" stroke="midnightblue" d="M532.831,-56.7986C567.551,-47.5628 624.171,-32.5013 662.935,-22.1897"/>
<polygon fill="midnightblue" stroke="midnightblue" points="664.107,-25.4998 672.871,-19.5467 662.307,-18.7351 664.107,-25.4998"/>
</g>
<!-- Node12&#45;&gt;Node8 -->
<g id="edge16" class="edge"><title>Node12&#45;&gt;Node8</title>
<path fill="none" stroke="midnightblue" d="M486.576,-56.324C471.46,-47.8215 448.185,-34.7288 430.529,-24.7975"/>
<polygon fill="midnightblue" stroke="midnightblue" points="431.817,-21.5066 421.386,-19.6545 428.386,-27.6077 431.817,-21.5066"/>
</g>
<!-- Node13&#45;&gt;Node5 -->
<g id="edge20" class="edge"><title>Node13&#45;&gt;Node5</title>
<path fill="none" stroke="midnightblue" d="M582.978,-112.324C596.55,-103.9 617.38,-90.9709 633.325,-81.0741"/>
<polygon fill="midnightblue" stroke="midnightblue" points="635.406,-83.9019 642.057,-75.6545 631.714,-77.9544 635.406,-83.9019"/>
</g>
<!-- Node13&#45;&gt;Node12 -->
<g id="edge21" class="edge"><title>Node13&#45;&gt;Node12</title>
<path fill="none" stroke="midnightblue" d="M558.235,-112.324C548.234,-104.263 533.113,-92.0765 521.07,-82.3695"/>
<polygon fill="midnightblue" stroke="midnightblue" points="522.943,-79.3841 512.961,-75.8339 518.55,-84.8343 522.943,-79.3841"/>
</g>
<!-- Node14&#45;&gt;Node9 -->
<g id="edge31" class="edge"><title>Node14&#45;&gt;Node9</title>
<path fill="none" stroke="midnightblue" d="M264.614,-168.083C269.367,-160.534 276.318,-149.495 282.152,-140.23"/>
<polygon fill="midnightblue" stroke="midnightblue" points="285.124,-142.078 287.49,-131.751 279.2,-138.349 285.124,-142.078"/>
</g>
<!-- Node14&#45;&gt;Node12 -->
<g id="edge32" class="edge"><title>Node14&#45;&gt;Node12</title>
<path fill="none" stroke="midnightblue" d="M306.147,-173.215C364.039,-167.627 457.68,-155.228 483,-132 495.841,-120.22 500.182,-100.292 501.561,-85.5992"/>
<polygon fill="midnightblue" stroke="midnightblue" points="505.056,-85.7889 502.13,-75.6061 498.067,-85.391 505.056,-85.7889"/>
</g>
<!-- Node15 -->
<g id="node15" class="node"><title>Node15</title>
<polygon fill="white" stroke="#bfbfbf" points="148,-112.5 148,-131.5 192,-131.5 192,-112.5 148,-112.5"/>
<text text-anchor="middle" x="170" y="-119.5" font-family="Helvetica,sans-Serif" font-size="10.00">vector</text>
</g>
<!-- Node14&#45;&gt;Node15 -->
<g id="edge23" class="edge"><title>Node14&#45;&gt;Node15</title>
<path fill="none" stroke="midnightblue" d="M244.701,-168.324C230.817,-159.9 209.508,-146.971 193.196,-137.074"/>
<polygon fill="midnightblue" stroke="midnightblue" points="194.629,-133.85 184.264,-131.655 190.998,-139.834 194.629,-133.85"/>
</g>
<!-- Node16 -->
<g id="node16" class="node"><title>Node16</title>
<polygon fill="white" stroke="#bfbfbf" points="210,-112.5 210,-131.5 240,-131.5 240,-112.5 210,-112.5"/>
<text text-anchor="middle" x="225" y="-119.5" font-family="Helvetica,sans-Serif" font-size="10.00">set</text>
</g>
<!-- Node14&#45;&gt;Node16 -->
<g id="edge24" class="edge"><title>Node14&#45;&gt;Node16</title>
<path fill="none" stroke="midnightblue" d="M253.386,-168.083C248.633,-160.534 241.682,-149.495 235.848,-140.23"/>
<polygon fill="midnightblue" stroke="midnightblue" points="238.8,-138.349 230.51,-131.751 232.876,-142.078 238.8,-138.349"/>
</g>
<!-- Node17 -->
<g id="node17" class="node"><title>Node17</title>
<polygon fill="white" stroke="#bfbfbf" points="0,-112.5 0,-131.5 52,-131.5 52,-112.5 0,-112.5"/>
<text text-anchor="middle" x="26" y="-119.5" font-family="Helvetica,sans-Serif" font-size="10.00">memory</text>
</g>
<!-- Node14&#45;&gt;Node17 -->
<g id="edge25" class="edge"><title>Node14&#45;&gt;Node17</title>
<path fill="none" stroke="midnightblue" d="M219.852,-168.445C181.964,-160.088 122.659,-146.81 62.4192,-132.296"/>
<polygon fill="midnightblue" stroke="midnightblue" points="62.896,-128.811 52.3534,-129.861 61.2502,-135.614 62.896,-128.811"/>
</g>
<!-- Node18 -->
<g id="node18" class="node"><title>Node18</title>
<polygon fill="white" stroke="#bfbfbf" points="70.5,-112.5 70.5,-131.5 129.5,-131.5 129.5,-112.5 70.5,-112.5"/>
<text text-anchor="middle" x="100" y="-119.5" font-family="Helvetica,sans-Serif" font-size="10.00">functional</text>
</g>
<!-- Node14&#45;&gt;Node18 -->
<g id="edge26" class="edge"><title>Node14&#45;&gt;Node18</title>
<path fill="none" stroke="midnightblue" d="M233.806,-168.444C207.057,-159.359 164.597,-144.939 134.695,-134.783"/>
<polygon fill="midnightblue" stroke="midnightblue" points="135.671,-131.418 125.076,-131.516 133.419,-138.046 135.671,-131.418"/>
</g>
<!-- Node19 -->
<g id="node19" class="node"><title>Node19</title>
<g id="a_node19"><a xlink:href="_color_8hpp.html" target="_top" xlink:title="Classe Color. ">
<polygon fill="white" stroke="black" points="626.5,-112.5 626.5,-131.5 685.5,-131.5 685.5,-112.5 626.5,-112.5"/>
<text text-anchor="middle" x="656" y="-119.5" font-family="Helvetica,sans-Serif" font-size="10.00">Color.hpp</text>
</a>
</g>
</g>
<!-- Node14&#45;&gt;Node19 -->
<g id="edge27" class="edge"><title>Node14&#45;&gt;Node19</title>
<path fill="none" stroke="midnightblue" d="M306.142,-172.618C372.95,-166.069 499.151,-152.45 616.389,-131.939"/>
<polygon fill="midnightblue" stroke="midnightblue" points="617.017,-135.382 626.254,-130.193 615.797,-128.49 617.017,-135.382"/>
</g>
<!-- Node19&#45;&gt;Node2 -->
<g id="edge30" class="edge"><title>Node19&#45;&gt;Node2</title>
<path fill="none" stroke="midnightblue" d="M662.529,-112.45C668.967,-103.69 678.727,-89.4829 685,-76 692.004,-60.9463 697.348,-42.8174 700.743,-29.5343"/>
<polygon fill="midnightblue" stroke="midnightblue" points="704.174,-30.2332 703.129,-19.6901 697.371,-28.584 704.174,-30.2332"/>
</g>
<!-- Node19&#45;&gt;Node5 -->
<g id="edge29" class="edge"><title>Node19&#45;&gt;Node5</title>
<path fill="none" stroke="midnightblue" d="M656,-112.083C656,-105.006 656,-94.8611 656,-85.9865"/>
<polygon fill="midnightblue" stroke="midnightblue" points="659.5,-85.751 656,-75.7511 652.5,-85.7511 659.5,-85.751"/>
</g>
<!-- Node20 -->
<g id="node20" class="node"><title>Node20</title>
<polygon fill="white" stroke="#bfbfbf" points="571,-56.5 571,-75.5 617,-75.5 617,-56.5 571,-56.5"/>
<text text-anchor="middle" x="594" y="-63.5" font-family="Helvetica,sans-Serif" font-size="10.00">cstdint</text>
</g>
<!-- Node19&#45;&gt;Node20 -->
<g id="edge28" class="edge"><title>Node19&#45;&gt;Node20</title>
<path fill="none" stroke="midnightblue" d="M646.039,-112.324C636.873,-104.341 623.063,-92.3128 611.972,-82.6529"/>
<polygon fill="midnightblue" stroke="midnightblue" points="613.982,-79.7624 604.143,-75.8339 609.385,-85.041 613.982,-79.7624"/>
</g>
</g>
</svg>
