<?xml version="1.0" encoding="UTF-8" standalone="no"?>
<!DOCTYPE svg PUBLIC "-//W3C//DTD SVG 1.1//EN"
 "http://www.w3.org/Graphics/SVG/1.1/DTD/svg11.dtd">
<!-- Generated by graphviz version 2.36.0 (20140111.2315)
 -->
<!-- Title: stripPath Pages: 1 -->
<svg width="788pt" height="189pt"
 viewBox="0.00 0.00 788.00 189.00" xmlns="http://www.w3.org/2000/svg" xmlns:xlink="http://www.w3.org/1999/xlink">
<g id="graph0" class="graph" transform="scale(1 1) rotate(0) translate(4 185)">
<title>stripPath</title>
<polygon fill="white" stroke="none" points="-4,4 -4,-185 784,-185 784,4 -4,4"/>
<!-- Node1 -->
<g id="node1" class="node"><title>Node1</title>
<polygon fill="#bfbfbf" stroke="black" points="0,-47.5 0,-66.5 56,-66.5 56,-47.5 0,-47.5"/>
<text text-anchor="middle" x="28" y="-54.5" font-family="Helvetica,sans-Serif" font-size="10.00">stripPath</text>
</g>
<!-- Node2 -->
<g id="node2" class="node"><title>Node2</title>
<g id="a_node2"><a xlink:href="navtree_8js.html#aa2418b16159e9502e990f97ea6ec26c8" target="_top" xlink:title="newNode">
<polygon fill="white" stroke="black" points="92,-123.5 92,-142.5 150,-142.5 150,-123.5 92,-123.5"/>
<text text-anchor="middle" x="121" y="-130.5" font-family="Helvetica,sans-Serif" font-size="10.00">newNode</text>
</a>
</g>
</g>
<!-- Node1&#45;&gt;Node2 -->
<g id="edge1" class="edge"><title>Node1&#45;&gt;Node2</title>
<path fill="none" stroke="midnightblue" d="M48.2512,-73.0779C66.5432,-88.3548 93.4372,-110.816 108.568,-123.453"/>
<polygon fill="midnightblue" stroke="midnightblue" points="50.4441,-70.3493 40.5252,-66.6255 45.957,-75.722 50.4441,-70.3493"/>
</g>
<!-- Node6 -->
<g id="node6" class="node"><title>Node6</title>
<g id="a_node6"><a xlink:href="navtree_8js.html#a0238ad48be94f9f5fd305ea40b8f64ab" target="_top" xlink:title="showNode">
<polygon fill="white" stroke="black" points="432.5,-66.5 432.5,-85.5 495.5,-85.5 495.5,-66.5 432.5,-66.5"/>
<text text-anchor="middle" x="464" y="-73.5" font-family="Helvetica,sans-Serif" font-size="10.00">showNode</text>
</a>
</g>
</g>
<!-- Node1&#45;&gt;Node6 -->
<g id="edge14" class="edge"><title>Node1&#45;&gt;Node6</title>
<path fill="none" stroke="midnightblue" d="M66.2695,-60.2152C74.7248,-60.873 83.6679,-61.5124 92,-62 218.117,-69.381 368.591,-73.6664 432.197,-75.2697"/>
<polygon fill="midnightblue" stroke="midnightblue" points="66.5198,-56.7241 56.2717,-59.4126 65.9596,-63.7017 66.5198,-56.7241"/>
</g>
<!-- Node9 -->
<g id="node9" class="node"><title>Node9</title>
<g id="a_node9"><a xlink:href="navtree_8js.html#aa7b3067e7ef0044572ba86240b1e58ce" target="_top" xlink:title="initNavTree">
<polygon fill="white" stroke="black" points="712.5,-18.5 712.5,-37.5 779.5,-37.5 779.5,-18.5 712.5,-18.5"/>
<text text-anchor="middle" x="746" y="-25.5" font-family="Helvetica,sans-Serif" font-size="10.00">initNavTree</text>
</a>
</g>
</g>
<!-- Node1&#45;&gt;Node9 -->
<g id="edge15" class="edge"><title>Node1&#45;&gt;Node9</title>
<path fill="none" stroke="midnightblue" d="M58.3712,-43.4037C97.5457,-26.5435 169.467,-6.55032e-15 234,-0 234,-0 234,-0 567,-0 618.304,-3.55271e-15 676.926,-11.4912 712.435,-19.7505"/>
<polygon fill="midnightblue" stroke="midnightblue" points="56.8885,-40.2321 49.1415,-47.4595 59.7047,-46.6407 56.8885,-40.2321"/>
</g>
<!-- Node10 -->
<g id="node10" class="node"><title>Node10</title>
<g id="a_node10"><a xlink:href="navtree_8js.html#a0dbf0d5f6126afd88420745f7d3c202d" target="_top" xlink:title="selectAndHighlight">
<polygon fill="white" stroke="black" points="186,-28.5 186,-47.5 284,-47.5 284,-28.5 186,-28.5"/>
<text text-anchor="middle" x="235" y="-35.5" font-family="Helvetica,sans-Serif" font-size="10.00">selectAndHighlight</text>
</a>
</g>
</g>
<!-- Node1&#45;&gt;Node10 -->
<g id="edge12" class="edge"><title>Node1&#45;&gt;Node10</title>
<path fill="none" stroke="midnightblue" d="M66.5181,-53.5227C100.05,-50.4149 149.37,-45.8437 185.812,-42.4662"/>
<polygon fill="midnightblue" stroke="midnightblue" points="65.8567,-50.0689 56.2224,-54.4769 66.5028,-57.039 65.8567,-50.0689"/>
</g>
<!-- Node3 -->
<g id="node3" class="node"><title>Node3</title>
<g id="a_node3"><a xlink:href="navtree_8js.html#a256aa4fbee866e9227f78e82e9f258bb" target="_top" xlink:title="getNode">
<polygon fill="white" stroke="black" points="208.5,-123.5 208.5,-142.5 261.5,-142.5 261.5,-123.5 208.5,-123.5"/>
<text text-anchor="middle" x="235" y="-130.5" font-family="Helvetica,sans-Serif" font-size="10.00">getNode</text>
</a>
</g>
</g>
<!-- Node2&#45;&gt;Node3 -->
<g id="edge2" class="edge"><title>Node2&#45;&gt;Node3</title>
<path fill="none" stroke="midnightblue" d="M160.331,-133C176.21,-133 194.2,-133 208.428,-133"/>
<polygon fill="midnightblue" stroke="midnightblue" points="160.262,-129.5 150.262,-133 160.262,-136.5 160.262,-129.5"/>
</g>
<!-- Node4 -->
<g id="node4" class="node"><title>Node4</title>
<g id="a_node4"><a xlink:href="navtree_8js.html#a4eb1f166c9d93b198e1621a4c787a412" target="_top" xlink:title="expandNode">
<polygon fill="white" stroke="black" points="320.5,-142.5 320.5,-161.5 391.5,-161.5 391.5,-142.5 320.5,-142.5"/>
<text text-anchor="middle" x="356" y="-149.5" font-family="Helvetica,sans-Serif" font-size="10.00">expandNode</text>
</a>
</g>
</g>
<!-- Node3&#45;&gt;Node4 -->
<g id="edge3" class="edge"><title>Node3&#45;&gt;Node4</title>
<path fill="none" stroke="midnightblue" d="M271.746,-138.707C287.187,-141.173 305.182,-144.046 320.483,-146.489"/>
<polygon fill="midnightblue" stroke="midnightblue" points="271.955,-135.197 261.528,-137.076 270.852,-142.109 271.955,-135.197"/>
</g>
<!-- Node3&#45;&gt;Node6 -->
<g id="edge11" class="edge"><title>Node3&#45;&gt;Node6</title>
<path fill="none" stroke="midnightblue" d="M271.344,-124.125C315.576,-113.018 390.593,-94.1815 432.451,-83.6709"/>
<polygon fill="midnightblue" stroke="midnightblue" points="270.445,-120.742 261.599,-126.572 272.15,-127.531 270.445,-120.742"/>
</g>
<!-- Node5 -->
<g id="node5" class="node"><title>Node5</title>
<g id="a_node5"><a xlink:href="navtree_8js.html#a4d8f406d49520a0cede2e48347a3d7aa" target="_top" xlink:title="createIndent">
<polygon fill="white" stroke="black" points="428.5,-161.5 428.5,-180.5 499.5,-180.5 499.5,-161.5 428.5,-161.5"/>
<text text-anchor="middle" x="464" y="-168.5" font-family="Helvetica,sans-Serif" font-size="10.00">createIndent</text>
</a>
</g>
</g>
<!-- Node4&#45;&gt;Node5 -->
<g id="edge4" class="edge"><title>Node4&#45;&gt;Node5</title>
<path fill="none" stroke="midnightblue" d="M401.566,-159.988C410.47,-161.584 419.699,-163.238 428.214,-164.765"/>
<polygon fill="midnightblue" stroke="midnightblue" points="402.169,-156.541 391.708,-158.221 400.934,-163.431 402.169,-156.541"/>
</g>
<!-- Node4&#45;&gt;Node6 -->
<g id="edge6" class="edge"><title>Node4&#45;&gt;Node6</title>
<path fill="none" stroke="midnightblue" d="M379.899,-136.448C383.946,-133.657 388.108,-130.759 392,-128 412.567,-113.422 436.117,-96.034 450.26,-85.5144"/>
<polygon fill="midnightblue" stroke="midnightblue" points="377.644,-133.751 371.374,-142.291 381.601,-139.525 377.644,-133.751"/>
</g>
<!-- Node5&#45;&gt;Node2 -->
<g id="edge5" class="edge"><title>Node5&#45;&gt;Node2</title>
<path fill="none" stroke="midnightblue" d="M417.937,-172.621C389.755,-173.234 352.72,-173.308 320,-171 259.998,-166.767 244.77,-164.817 186,-152 174.11,-149.407 161.206,-145.745 150.122,-142.326"/>
<polygon fill="midnightblue" stroke="midnightblue" points="418.367,-176.112 428.277,-172.364 418.193,-169.114 418.367,-176.112"/>
</g>
<!-- Node7 -->
<g id="node7" class="node"><title>Node7</title>
<g id="a_node7"><a xlink:href="navtree_8js.html#a0e6a2d65190a43246d668bba554243e5" target="_top" xlink:title="gotoNode">
<polygon fill="white" stroke="black" points="536.5,-47.5 536.5,-66.5 595.5,-66.5 595.5,-47.5 536.5,-47.5"/>
<text text-anchor="middle" x="566" y="-54.5" font-family="Helvetica,sans-Serif" font-size="10.00">gotoNode</text>
</a>
</g>
</g>
<!-- Node6&#45;&gt;Node7 -->
<g id="edge7" class="edge"><title>Node6&#45;&gt;Node7</title>
<path fill="none" stroke="midnightblue" d="M505.603,-68.2855C515.911,-66.3268 526.773,-64.2632 536.348,-62.4438"/>
<polygon fill="midnightblue" stroke="midnightblue" points="504.718,-64.891 495.547,-70.1961 506.024,-71.7679 504.718,-64.891"/>
</g>
<!-- Node8 -->
<g id="node8" class="node"><title>Node8</title>
<g id="a_node8"><a xlink:href="navtree_8js.html#a21beb601032fff375100a907f32129a5" target="_top" xlink:title="navTo">
<polygon fill="white" stroke="black" points="632,-47.5 632,-66.5 676,-66.5 676,-47.5 632,-47.5"/>
<text text-anchor="middle" x="654" y="-54.5" font-family="Helvetica,sans-Serif" font-size="10.00">navTo</text>
</a>
</g>
</g>
<!-- Node7&#45;&gt;Node8 -->
<g id="edge8" class="edge"><title>Node7&#45;&gt;Node8</title>
<path fill="none" stroke="midnightblue" d="M605.909,-50.2772C614.832,-50.1581 623.992,-50.4297 631.833,-51.092"/>
<polygon fill="midnightblue" stroke="midnightblue" points="605.523,-46.7874 595.637,-50.5965 605.741,-53.7841 605.523,-46.7874"/>
</g>
<!-- Node8&#45;&gt;Node7 -->
<g id="edge9" class="edge"><title>Node8&#45;&gt;Node7</title>
<path fill="none" stroke="midnightblue" d="M621.834,-63.5175C613.277,-63.8617 604.043,-63.8237 595.637,-63.4035"/>
<polygon fill="midnightblue" stroke="midnightblue" points="622.064,-67.01 631.833,-62.908 621.639,-60.023 622.064,-67.01"/>
</g>
<!-- Node8&#45;&gt;Node9 -->
<g id="edge10" class="edge"><title>Node8&#45;&gt;Node9</title>
<path fill="none" stroke="midnightblue" d="M686.143,-46.9651C695.597,-43.9186 705.956,-40.5808 715.312,-37.566"/>
<polygon fill="midnightblue" stroke="midnightblue" points="684.773,-43.7291 676.329,-50.1274 686.92,-50.3917 684.773,-43.7291"/>
</g>
<!-- Node10&#45;&gt;Node6 -->
<g id="edge13" class="edge"><title>Node10&#45;&gt;Node6</title>
<path fill="none" stroke="midnightblue" d="M294.308,-46.3763C323.662,-50.7439 359.769,-56.3455 392,-62 405.241,-64.3229 419.817,-67.1498 432.299,-69.6535"/>
<polygon fill="midnightblue" stroke="midnightblue" points="294.629,-42.8858 284.225,-44.8848 293.605,-49.8105 294.629,-42.8858"/>
</g>
</g>
</svg>
