<?xml version="1.0" encoding="UTF-8" standalone="no"?>
<!DOCTYPE svg PUBLIC "-//W3C//DTD SVG 1.1//EN"
 "http://www.w3.org/Graphics/SVG/1.1/DTD/svg11.dtd">
<!-- Generated by graphviz version 2.36.0 (20140111.2315)
 -->
<!-- Title: expandNode Pages: 1 -->
<svg width="576pt" height="201pt"
 viewBox="0.00 0.00 576.00 201.20" xmlns="http://www.w3.org/2000/svg" xmlns:xlink="http://www.w3.org/1999/xlink">
<g id="graph0" class="graph" transform="scale(1 1) rotate(0) translate(4 197.2)">
<title>expandNode</title>
<polygon fill="white" stroke="none" points="-4,4 -4,-197.2 572,-197.2 572,4 -4,4"/>
<!-- Node1 -->
<g id="node1" class="node"><title>Node1</title>
<polygon fill="#bfbfbf" stroke="black" points="0.5,-96.1718 0.5,-115.172 71.5,-115.172 71.5,-96.1718 0.5,-96.1718"/>
<text text-anchor="middle" x="36" y="-103.172" font-family="Helvetica,sans-Serif" font-size="10.00">expandNode</text>
</g>
<!-- Node2 -->
<g id="node2" class="node"><title>Node2</title>
<g id="a_node2"><a xlink:href="navtree_8js.html#a32f4aac18d03aee747b55dea195731ac" target="_top" xlink:title="getScript">
<polygon fill="white" stroke="black" points="108,-153.172 108,-172.172 164,-172.172 164,-153.172 108,-153.172"/>
<text text-anchor="middle" x="136" y="-160.172" font-family="Helvetica,sans-Serif" font-size="10.00">getScript</text>
</a>
</g>
</g>
<!-- Node1&#45;&gt;Node2 -->
<g id="edge1" class="edge"><title>Node1&#45;&gt;Node2</title>
<path fill="none" stroke="midnightblue" d="M53.6244,-115.341C69.0634,-124.321 92.2641,-137.815 109.947,-148.1"/>
<polygon fill="midnightblue" stroke="midnightblue" points="108.217,-151.143 118.621,-153.145 111.737,-145.092 108.217,-151.143"/>
</g>
<!-- Node3 -->
<g id="node3" class="node"><title>Node3</title>
<g id="a_node3"><a xlink:href="svgpan_8js.html#aa8d9f2083cafa2af98efafed94901079" target="_top" xlink:title="show">
<polygon fill="white" stroke="black" points="234,-172.172 234,-191.172 274,-191.172 274,-172.172 234,-172.172"/>
<text text-anchor="middle" x="254" y="-179.172" font-family="Helvetica,sans-Serif" font-size="10.00">show</text>
</a>
</g>
</g>
<!-- Node1&#45;&gt;Node3 -->
<g id="edge15" class="edge"><title>Node1&#45;&gt;Node3</title>
<path fill="none" stroke="midnightblue" d="M42.2893,-115.226C52.4135,-132.39 76.3665,-167.934 108,-181.672 145.385,-197.907 193.482,-193.606 223.787,-188.251"/>
<polygon fill="midnightblue" stroke="midnightblue" points="224.556,-191.668 233.717,-186.345 223.237,-184.793 224.556,-191.668"/>
</g>
<!-- Node4 -->
<g id="node4" class="node"><title>Node4</title>
<g id="a_node4"><a xlink:href="navtree_8js.html#af98a8e3534da945399ea20870c0f3e92" target="_top" xlink:title="showRoot">
<polygon fill="white" stroke="black" points="223.5,-134.172 223.5,-153.172 284.5,-153.172 284.5,-134.172 223.5,-134.172"/>
<text text-anchor="middle" x="254" y="-141.172" font-family="Helvetica,sans-Serif" font-size="10.00">showRoot</text>
</a>
</g>
</g>
<!-- Node1&#45;&gt;Node4 -->
<g id="edge5" class="edge"><title>Node1&#45;&gt;Node4</title>
<path fill="none" stroke="midnightblue" d="M71.7041,-111.777C110.32,-118.571 172.607,-129.529 213.178,-136.666"/>
<polygon fill="midnightblue" stroke="midnightblue" points="212.794,-140.152 223.249,-138.438 214.007,-133.258 212.794,-140.152"/>
</g>
<!-- Node5 -->
<g id="node5" class="node"><title>Node5</title>
<g id="a_node5"><a xlink:href="navtree_8js.html#a819e84218d50e54d98161b272d1d5b01" target="_top" xlink:title="getData">
<polygon fill="white" stroke="black" points="110.5,-77.1718 110.5,-96.1718 161.5,-96.1718 161.5,-77.1718 110.5,-77.1718"/>
<text text-anchor="middle" x="136" y="-84.1718" font-family="Helvetica,sans-Serif" font-size="10.00">getData</text>
</a>
</g>
</g>
<!-- Node1&#45;&gt;Node5 -->
<g id="edge4" class="edge"><title>Node1&#45;&gt;Node5</title>
<path fill="none" stroke="midnightblue" d="M71.5511,-98.9731C80.8401,-97.1722 90.8899,-95.2237 100.193,-93.4201"/>
<polygon fill="midnightblue" stroke="midnightblue" points="101.147,-96.8003 110.298,-91.4609 99.8148,-89.9283 101.147,-96.8003"/>
</g>
<!-- Node6 -->
<g id="node6" class="node"><title>Node6</title>
<g id="a_node6"><a xlink:href="navtree_8js.html#a256aa4fbee866e9227f78e82e9f258bb" target="_top" xlink:title="getNode">
<polygon fill="white" stroke="black" points="109.5,-39.1718 109.5,-58.1718 162.5,-58.1718 162.5,-39.1718 109.5,-39.1718"/>
<text text-anchor="middle" x="136" y="-46.1718" font-family="Helvetica,sans-Serif" font-size="10.00">getNode</text>
</a>
</g>
</g>
<!-- Node1&#45;&gt;Node6 -->
<g id="edge6" class="edge"><title>Node1&#45;&gt;Node6</title>
<path fill="none" stroke="midnightblue" d="M53.6244,-96.0025C69.0634,-87.0227 92.2641,-73.5284 109.947,-63.2433"/>
<polygon fill="midnightblue" stroke="midnightblue" points="111.737,-66.2515 118.621,-58.1983 108.217,-60.2006 111.737,-66.2515"/>
</g>
<!-- Node2&#45;&gt;Node3 -->
<g id="edge2" class="edge"><title>Node2&#45;&gt;Node3</title>
<path fill="none" stroke="midnightblue" d="M164.197,-167.126C182.11,-170.06 205.545,-173.899 223.843,-176.896"/>
<polygon fill="midnightblue" stroke="midnightblue" points="223.508,-180.388 233.942,-178.55 224.64,-173.48 223.508,-180.388"/>
</g>
<!-- Node2&#45;&gt;Node4 -->
<g id="edge3" class="edge"><title>Node2&#45;&gt;Node4</title>
<path fill="none" stroke="midnightblue" d="M164.197,-158.217C178.699,-155.842 196.821,-152.874 212.905,-150.239"/>
<polygon fill="midnightblue" stroke="midnightblue" points="213.82,-153.636 223.122,-148.566 212.688,-146.728 213.82,-153.636"/>
</g>
<!-- Node7 -->
<g id="node7" class="node"><title>Node7</title>
<g id="a_node7"><a xlink:href="navtree_8js.html#aa78016020f40c28356aefd325cd4df74" target="_top" xlink:title="removeToInsertLater">
<polygon fill="white" stroke="black" points="200.5,-39.1718 200.5,-58.1718 307.5,-58.1718 307.5,-39.1718 200.5,-39.1718"/>
<text text-anchor="middle" x="254" y="-46.1718" font-family="Helvetica,sans-Serif" font-size="10.00">removeToInsertLater</text>
</a>
</g>
</g>
<!-- Node6&#45;&gt;Node7 -->
<g id="edge7" class="edge"><title>Node6&#45;&gt;Node7</title>
<path fill="none" stroke="midnightblue" d="M162.744,-48.6718C170.968,-48.6718 180.46,-48.6718 190.133,-48.6718"/>
<polygon fill="midnightblue" stroke="midnightblue" points="190.235,-52.1719 200.235,-48.6718 190.235,-45.1719 190.235,-52.1719"/>
</g>
<!-- Node8 -->
<g id="node8" class="node"><title>Node8</title>
<g id="a_node8"><a xlink:href="navtree_8js.html#aa2418b16159e9502e990f97ea6ec26c8" target="_top" xlink:title="newNode">
<polygon fill="white" stroke="black" points="225,-77.1718 225,-96.1718 283,-96.1718 283,-77.1718 225,-77.1718"/>
<text text-anchor="middle" x="254" y="-84.1718" font-family="Helvetica,sans-Serif" font-size="10.00">newNode</text>
</a>
</g>
</g>
<!-- Node6&#45;&gt;Node8 -->
<g id="edge8" class="edge"><title>Node6&#45;&gt;Node8</title>
<path fill="none" stroke="midnightblue" d="M162.744,-57.1052C178.144,-62.15 197.992,-68.652 215.153,-74.2735"/>
<polygon fill="midnightblue" stroke="midnightblue" points="214.299,-77.6769 224.892,-77.4639 216.478,-71.0247 214.299,-77.6769"/>
</g>
<!-- Node9 -->
<g id="node9" class="node"><title>Node9</title>
<g id="a_node9"><a xlink:href="navtree_8js.html#a4d8f406d49520a0cede2e48347a3d7aa" target="_top" xlink:title="createIndent">
<polygon fill="white" stroke="black" points="344.5,-1.17178 344.5,-20.1718 415.5,-20.1718 415.5,-1.17178 344.5,-1.17178"/>
<text text-anchor="middle" x="380" y="-8.17178" font-family="Helvetica,sans-Serif" font-size="10.00">createIndent</text>
</a>
</g>
</g>
<!-- Node8&#45;&gt;Node9 -->
<g id="edge9" class="edge"><title>Node8&#45;&gt;Node9</title>
<path fill="none" stroke="midnightblue" d="M283.113,-79.3218C291.507,-76.4238 300.47,-72.5874 308,-67.6718 327.481,-54.955 325.548,-43.8413 344,-29.6718 345.827,-28.269 347.771,-26.9095 349.77,-25.6059"/>
<polygon fill="midnightblue" stroke="midnightblue" points="351.903,-28.4099 358.704,-20.2867 348.322,-22.3952 351.903,-28.4099"/>
</g>
<!-- Node10 -->
<g id="node10" class="node"><title>Node10</title>
<g id="a_node10"><a xlink:href="navtree_8js.html#a9336c21407bb7ced644331eb7a2a6e35" target="_top" xlink:title="stripPath">
<polygon fill="white" stroke="black" points="352,-77.1718 352,-96.1718 408,-96.1718 408,-77.1718 352,-77.1718"/>
<text text-anchor="middle" x="380" y="-84.1718" font-family="Helvetica,sans-Serif" font-size="10.00">stripPath</text>
</a>
</g>
</g>
<!-- Node8&#45;&gt;Node10 -->
<g id="edge11" class="edge"><title>Node8&#45;&gt;Node10</title>
<path fill="none" stroke="midnightblue" d="M283.138,-86.6718C300.501,-86.6718 322.976,-86.6718 341.8,-86.6718"/>
<polygon fill="midnightblue" stroke="midnightblue" points="341.826,-90.1719 351.826,-86.6718 341.826,-83.1719 341.826,-90.1719"/>
</g>
<!-- Node11 -->
<g id="node11" class="node"><title>Node11</title>
<g id="a_node11"><a xlink:href="navtree_8js.html#ade730323aadb971c053136b7758c9dce" target="_top" xlink:title="storeLink">
<polygon fill="white" stroke="black" points="352,-39.1718 352,-58.1718 408,-58.1718 408,-39.1718 352,-39.1718"/>
<text text-anchor="middle" x="380" y="-46.1718" font-family="Helvetica,sans-Serif" font-size="10.00">storeLink</text>
</a>
</g>
</g>
<!-- Node8&#45;&gt;Node11 -->
<g id="edge12" class="edge"><title>Node8&#45;&gt;Node11</title>
<path fill="none" stroke="midnightblue" d="M283.138,-78.049C300.582,-72.7032 323.185,-65.7765 342.061,-59.9918"/>
<polygon fill="midnightblue" stroke="midnightblue" points="343.29,-63.2758 351.826,-56.9993 341.239,-56.583 343.29,-63.2758"/>
</g>
<!-- Node13 -->
<g id="node13" class="node"><title>Node13</title>
<g id="a_node13"><a xlink:href="navtree_8js.html#aee1fc3771eeb15da54962a03da1f3c11" target="_top" xlink:title="gotoAnchor">
<polygon fill="white" stroke="black" points="347,-115.172 347,-134.172 413,-134.172 413,-115.172 347,-115.172"/>
<text text-anchor="middle" x="380" y="-122.172" font-family="Helvetica,sans-Serif" font-size="10.00">gotoAnchor</text>
</a>
</g>
</g>
<!-- Node8&#45;&gt;Node13 -->
<g id="edge14" class="edge"><title>Node8&#45;&gt;Node13</title>
<path fill="none" stroke="midnightblue" d="M283.138,-95.2946C299.416,-100.283 320.187,-106.648 338.23,-112.178"/>
<polygon fill="midnightblue" stroke="midnightblue" points="337.34,-115.566 347.927,-115.149 339.391,-108.873 337.34,-115.566"/>
</g>
<!-- Node9&#45;&gt;Node1 -->
<g id="edge10" class="edge"><title>Node9&#45;&gt;Node1</title>
<path fill="none" stroke="midnightblue" d="M344.466,-5.36814C290.918,1.2126 185.916,7.4576 108,-29.6718 81.6267,-42.2395 60.2295,-69.2792 48.0531,-87.4776"/>
<polygon fill="midnightblue" stroke="midnightblue" points="44.9986,-85.7571 42.5486,-96.0648 50.8918,-89.5347 44.9986,-85.7571"/>
</g>
<!-- Node12 -->
<g id="node12" class="node"><title>Node12</title>
<g id="a_node12"><a xlink:href="navtree_8js.html#ac49af616f532f2364be9f58280469d33" target="_top" xlink:title="localStorageSupported">
<polygon fill="white" stroke="black" points="452.5,-39.1718 452.5,-58.1718 567.5,-58.1718 567.5,-39.1718 452.5,-39.1718"/>
<text text-anchor="middle" x="510" y="-46.1718" font-family="Helvetica,sans-Serif" font-size="10.00">localStorageSupported</text>
</a>
</g>
</g>
<!-- Node11&#45;&gt;Node12 -->
<g id="edge13" class="edge"><title>Node11&#45;&gt;Node12</title>
<path fill="none" stroke="midnightblue" d="M408.146,-48.6718C418.236,-48.6718 430.181,-48.6718 442.256,-48.6718"/>
<polygon fill="midnightblue" stroke="midnightblue" points="442.392,-52.1719 452.392,-48.6718 442.392,-45.1719 442.392,-52.1719"/>
</g>
</g>
</svg>
