<?xml version="1.0" encoding="UTF-8" standalone="no"?>
<!DOCTYPE svg PUBLIC "-//W3C//DTD SVG 1.1//EN"
 "http://www.w3.org/Graphics/SVG/1.1/DTD/svg11.dtd">
<!-- Generated by graphviz version 2.36.0 (20140111.2315)
 -->
<!-- Title: showSyncOff Pages: 1 -->
<svg width="318pt" height="47pt"
 viewBox="0.00 0.00 318.00 47.00" xmlns="http://www.w3.org/2000/svg" xmlns:xlink="http://www.w3.org/1999/xlink">
<g id="graph0" class="graph" transform="scale(1 1) rotate(0) translate(4 43)">
<title>showSyncOff</title>
<polygon fill="white" stroke="none" points="-4,4 -4,-43 314,-43 314,4 -4,4"/>
<!-- Node1 -->
<g id="node1" class="node"><title>Node1</title>
<polygon fill="#bfbfbf" stroke="black" points="0,-0.5 0,-19.5 76,-19.5 76,-0.5 0,-0.5"/>
<text text-anchor="middle" x="38" y="-7.5" font-family="Helvetica,sans-Serif" font-size="10.00">showSyncOff</text>
</g>
<!-- Node2 -->
<g id="node2" class="node"><title>Node2</title>
<g id="a_node2"><a xlink:href="navtree_8js.html#a646cb31d83b39aafec92e0e1d123563a" target="_top" xlink:title="toggleSyncButton">
<polygon fill="white" stroke="black" points="112,-19.5 112,-38.5 206,-38.5 206,-19.5 112,-19.5"/>
<text text-anchor="middle" x="159" y="-26.5" font-family="Helvetica,sans-Serif" font-size="10.00">toggleSyncButton</text>
</a>
</g>
</g>
<!-- Node1&#45;&gt;Node2 -->
<g id="edge1" class="edge"><title>Node1&#45;&gt;Node2</title>
<path fill="none" stroke="midnightblue" d="M86.0927,-17.519C94.5491,-18.8692 103.355,-20.2752 111.787,-21.6214"/>
<polygon fill="midnightblue" stroke="midnightblue" points="86.4268,-14.0281 76,-15.9076 85.3231,-20.9405 86.4268,-14.0281"/>
</g>
<!-- Node3 -->
<g id="node3" class="node"><title>Node3</title>
<g id="a_node3"><a xlink:href="navtree_8js.html#aa7b3067e7ef0044572ba86240b1e58ce" target="_top" xlink:title="initNavTree">
<polygon fill="white" stroke="black" points="242.5,-0.5 242.5,-19.5 309.5,-19.5 309.5,-0.5 242.5,-0.5"/>
<text text-anchor="middle" x="276" y="-7.5" font-family="Helvetica,sans-Serif" font-size="10.00">initNavTree</text>
</a>
</g>
</g>
<!-- Node1&#45;&gt;Node3 -->
<g id="edge3" class="edge"><title>Node1&#45;&gt;Node3</title>
<path fill="none" stroke="midnightblue" d="M86.2126,-10C132.47,-10 201.751,-10 242.263,-10"/>
<polygon fill="midnightblue" stroke="midnightblue" points="86.1346,-6.5001 76.1346,-10 86.1346,-13.5001 86.1346,-6.5001"/>
</g>
<!-- Node2&#45;&gt;Node3 -->
<g id="edge2" class="edge"><title>Node2&#45;&gt;Node3</title>
<path fill="none" stroke="midnightblue" d="M216.168,-19.7201C225.132,-18.2391 234.139,-16.751 242.317,-15.3998"/>
<polygon fill="midnightblue" stroke="midnightblue" points="215.408,-16.2981 206.112,-21.3815 216.549,-23.2045 215.408,-16.2981"/>
</g>
</g>
</svg>
