<?xml version="1.0" encoding="UTF-8" standalone="no"?>
<!DOCTYPE svg PUBLIC "-//W3C//DTD SVG 1.1//EN"
 "http://www.w3.org/Graphics/SVG/1.1/DTD/svg11.dtd">
<!-- Generated by graphviz version 2.36.0 (20140111.2315)
 -->
<!-- Title: highlightAnchor Pages: 1 -->
<svg width="606pt" height="28pt"
 viewBox="0.00 0.00 606.00 28.00" xmlns="http://www.w3.org/2000/svg" xmlns:xlink="http://www.w3.org/1999/xlink">
<g id="graph0" class="graph" transform="scale(1 1) rotate(0) translate(4 24)">
<title>highlightAnchor</title>
<polygon fill="white" stroke="none" points="-4,4 -4,-24 602,-24 602,4 -4,4"/>
<!-- Node1 -->
<g id="node1" class="node"><title>Node1</title>
<polygon fill="#bfbfbf" stroke="black" points="0.5,-0.5 0.5,-19.5 83.5,-19.5 83.5,-0.5 0.5,-0.5"/>
<text text-anchor="middle" x="42" y="-7.5" font-family="Helvetica,sans-Serif" font-size="10.00">highlightAnchor</text>
</g>
<!-- Node2 -->
<g id="node2" class="node"><title>Node2</title>
<g id="a_node2"><a xlink:href="navtree_8js.html#a0dbf0d5f6126afd88420745f7d3c202d" target="_top" xlink:title="selectAndHighlight">
<polygon fill="white" stroke="black" points="120,-0.5 120,-19.5 218,-19.5 218,-0.5 120,-0.5"/>
<text text-anchor="middle" x="169" y="-7.5" font-family="Helvetica,sans-Serif" font-size="10.00">selectAndHighlight</text>
</a>
</g>
</g>
<!-- Node1&#45;&gt;Node2 -->
<g id="edge1" class="edge"><title>Node1&#45;&gt;Node2</title>
<path fill="none" stroke="midnightblue" d="M93.8398,-10C102.408,-10 111.28,-10 119.779,-10"/>
<polygon fill="midnightblue" stroke="midnightblue" points="93.584,-6.5001 83.5839,-10 93.5839,-13.5001 93.584,-6.5001"/>
</g>
<!-- Node3 -->
<g id="node3" class="node"><title>Node3</title>
<g id="a_node3"><a xlink:href="navtree_8js.html#a0238ad48be94f9f5fd305ea40b8f64ab" target="_top" xlink:title="showNode">
<polygon fill="white" stroke="black" points="254.5,-0.5 254.5,-19.5 317.5,-19.5 317.5,-0.5 254.5,-0.5"/>
<text text-anchor="middle" x="286" y="-7.5" font-family="Helvetica,sans-Serif" font-size="10.00">showNode</text>
</a>
</g>
</g>
<!-- Node2&#45;&gt;Node3 -->
<g id="edge2" class="edge"><title>Node2&#45;&gt;Node3</title>
<path fill="none" stroke="midnightblue" d="M228.286,-10C237.338,-10 246.363,-10 254.465,-10"/>
<polygon fill="midnightblue" stroke="midnightblue" points="228.104,-6.5001 218.104,-10 228.104,-13.5001 228.104,-6.5001"/>
</g>
<!-- Node4 -->
<g id="node4" class="node"><title>Node4</title>
<g id="a_node4"><a xlink:href="navtree_8js.html#a0e6a2d65190a43246d668bba554243e5" target="_top" xlink:title="gotoNode">
<polygon fill="white" stroke="black" points="354.5,-0.5 354.5,-19.5 413.5,-19.5 413.5,-0.5 354.5,-0.5"/>
<text text-anchor="middle" x="384" y="-7.5" font-family="Helvetica,sans-Serif" font-size="10.00">gotoNode</text>
</a>
</g>
</g>
<!-- Node3&#45;&gt;Node4 -->
<g id="edge3" class="edge"><title>Node3&#45;&gt;Node4</title>
<path fill="none" stroke="midnightblue" d="M327.852,-10C336.747,-10 345.977,-10 354.283,-10"/>
<polygon fill="midnightblue" stroke="midnightblue" points="327.639,-6.5001 317.639,-10 327.639,-13.5001 327.639,-6.5001"/>
</g>
<!-- Node5 -->
<g id="node5" class="node"><title>Node5</title>
<g id="a_node5"><a xlink:href="navtree_8js.html#a21beb601032fff375100a907f32129a5" target="_top" xlink:title="navTo">
<polygon fill="white" stroke="black" points="450,-0.5 450,-19.5 494,-19.5 494,-0.5 450,-0.5"/>
<text text-anchor="middle" x="472" y="-7.5" font-family="Helvetica,sans-Serif" font-size="10.00">navTo</text>
</a>
</g>
</g>
<!-- Node4&#45;&gt;Node5 -->
<g id="edge4" class="edge"><title>Node4&#45;&gt;Node5</title>
<path fill="none" stroke="midnightblue" d="M423.909,-3.27723C432.832,-3.15814 441.992,-3.42972 449.833,-4.09197"/>
<polygon fill="midnightblue" stroke="midnightblue" points="423.523,0.212564 413.637,-3.59648 423.741,-6.78406 423.523,0.212564"/>
</g>
<!-- Node5&#45;&gt;Node4 -->
<g id="edge5" class="edge"><title>Node5&#45;&gt;Node4</title>
<path fill="none" stroke="midnightblue" d="M439.834,-16.5175C431.277,-16.8617 422.043,-16.8237 413.637,-16.4035"/>
<polygon fill="midnightblue" stroke="midnightblue" points="440.064,-20.01 449.833,-15.908 439.639,-13.023 440.064,-20.01"/>
</g>
<!-- Node6 -->
<g id="node6" class="node"><title>Node6</title>
<g id="a_node6"><a xlink:href="navtree_8js.html#aa7b3067e7ef0044572ba86240b1e58ce" target="_top" xlink:title="initNavTree">
<polygon fill="white" stroke="black" points="530.5,-0.5 530.5,-19.5 597.5,-19.5 597.5,-0.5 530.5,-0.5"/>
<text text-anchor="middle" x="564" y="-7.5" font-family="Helvetica,sans-Serif" font-size="10.00">initNavTree</text>
</a>
</g>
</g>
<!-- Node5&#45;&gt;Node6 -->
<g id="edge6" class="edge"><title>Node5&#45;&gt;Node6</title>
<path fill="none" stroke="midnightblue" d="M504.429,-10C512.769,-10 521.796,-10 530.208,-10"/>
<polygon fill="midnightblue" stroke="midnightblue" points="504.329,-6.5001 494.329,-10 504.329,-13.5001 504.329,-6.5001"/>
</g>
</g>
</svg>
